%TF.GenerationSoftware,KiCad,Pcbnew,6.0.4-6f826c9f35~116~ubuntu20.04.1*%
%TF.CreationDate,2023-02-17T16:08:52+00:00*%
%TF.ProjectId,TFI2CADT01A,54464932-4341-4445-9430-31412e6b6963,rev?*%
%TF.SameCoordinates,PX7a53eb0PY6e37550*%
%TF.FileFunction,Legend,Top*%
%TF.FilePolarity,Positive*%
%FSLAX46Y46*%
G04 Gerber Fmt 4.6, Leading zero omitted, Abs format (unit mm)*
G04 Created by KiCad (PCBNEW 6.0.4-6f826c9f35~116~ubuntu20.04.1) date 2023-02-17 16:08:52*
%MOMM*%
%LPD*%
G01*
G04 APERTURE LIST*
%ADD10C,0.100000*%
%ADD11C,0.150000*%
%ADD12C,0.130000*%
%ADD13C,0.200000*%
G04 APERTURE END LIST*
D10*
X16646000Y9194000D02*
X17246000Y9194000D01*
X17246000Y9194000D02*
X17246000Y7894000D01*
X17246000Y7894000D02*
X16646000Y7894000D01*
X16646000Y7894000D02*
X16646000Y9194000D01*
G36*
X16646000Y9194000D02*
G01*
X17246000Y9194000D01*
X17246000Y7894000D01*
X16646000Y7894000D01*
X16646000Y9194000D01*
G37*
X16446000Y18394000D02*
G75*
G03*
X17446000Y18394000I500000J0D01*
G01*
X4146000Y14494000D02*
G75*
G03*
X2146001Y16494000I-2000000J0D01*
G01*
X18946000Y18894000D02*
G75*
G03*
X17946000Y18894000I-500000J0D01*
G01*
X17446000Y8794000D02*
G75*
G03*
X16446000Y8794000I-500000J0D01*
G01*
X18946000Y8794000D02*
G75*
G03*
X17946000Y8794000I-500000J0D01*
G01*
X17946000Y8294000D02*
G75*
G03*
X18946000Y8294000I500000J0D01*
G01*
X4146000Y8508214D02*
X4146001Y14479787D01*
X17446000Y18894000D02*
G75*
G03*
X16446000Y18894000I-500000J0D01*
G01*
X16446000Y8294000D02*
G75*
G03*
X17446000Y8294000I500000J0D01*
G01*
X16646000Y19294000D02*
X17246000Y19294000D01*
X17246000Y19294000D02*
X17246000Y17994000D01*
X17246000Y17994000D02*
X16646000Y17994000D01*
X16646000Y17994000D02*
X16646000Y19294000D01*
G36*
X16646000Y19294000D02*
G01*
X17246000Y19294000D01*
X17246000Y17994000D01*
X16646000Y17994000D01*
X16646000Y19294000D01*
G37*
X17946000Y18394000D02*
G75*
G03*
X18946000Y18394000I500000J0D01*
G01*
X2131786Y6508214D02*
G75*
G03*
X4131786Y8508213I14J1999986D01*
G01*
D11*
X13293619Y17870191D02*
X13293619Y17679715D01*
X13246000Y17584477D01*
X13150761Y17489239D01*
X12960285Y17441620D01*
X12626952Y17441620D01*
X12436476Y17489239D01*
X12341238Y17584477D01*
X12293619Y17679715D01*
X12293619Y17870191D01*
X12341238Y17965429D01*
X12436476Y18060667D01*
X12626952Y18108286D01*
X12960285Y18108286D01*
X13150761Y18060667D01*
X13246000Y17965429D01*
X13293619Y17870191D01*
X13293619Y17013048D02*
X12484095Y17013048D01*
X12388857Y16965429D01*
X12341238Y16917810D01*
X12293619Y16822572D01*
X12293619Y16632096D01*
X12341238Y16536858D01*
X12388857Y16489239D01*
X12484095Y16441620D01*
X13293619Y16441620D01*
X13293619Y16108286D02*
X13293619Y15536858D01*
X12293619Y15822572D02*
X13293619Y15822572D01*
X12293619Y14679715D02*
X12293619Y15251143D01*
X12293619Y14965429D02*
X13293619Y14965429D01*
X13150761Y15060667D01*
X13055523Y15155905D01*
X13007904Y15251143D01*
X2528095Y14084477D02*
X3328095Y14084477D01*
X3251904Y13741620D02*
X3290000Y13703524D01*
X3328095Y13627334D01*
X3328095Y13436858D01*
X3290000Y13360667D01*
X3251904Y13322572D01*
X3175714Y13284477D01*
X3099523Y13284477D01*
X2985238Y13322572D01*
X2528095Y13779715D01*
X2528095Y13284477D01*
X2604285Y12484477D02*
X2566190Y12522572D01*
X2528095Y12636858D01*
X2528095Y12713048D01*
X2566190Y12827334D01*
X2642380Y12903524D01*
X2718571Y12941620D01*
X2870952Y12979715D01*
X2985238Y12979715D01*
X3137619Y12941620D01*
X3213809Y12903524D01*
X3290000Y12827334D01*
X3328095Y12713048D01*
X3328095Y12636858D01*
X3290000Y12522572D01*
X3251904Y12484477D01*
X2528095Y11532096D02*
X3061428Y11532096D01*
X3328095Y11532096D02*
X3290000Y11570191D01*
X3251904Y11532096D01*
X3290000Y11494000D01*
X3328095Y11532096D01*
X3251904Y11532096D01*
X3061428Y11151143D02*
X2528095Y11151143D01*
X2985238Y11151143D02*
X3023333Y11113048D01*
X3061428Y11036858D01*
X3061428Y10922572D01*
X3023333Y10846381D01*
X2947142Y10808286D01*
X2528095Y10808286D01*
X3061428Y10427334D02*
X2261428Y10427334D01*
X3023333Y10427334D02*
X3061428Y10351143D01*
X3061428Y10198762D01*
X3023333Y10122572D01*
X2985238Y10084477D01*
X2909047Y10046381D01*
X2680476Y10046381D01*
X2604285Y10084477D01*
X2566190Y10122572D01*
X2528095Y10198762D01*
X2528095Y10351143D01*
X2566190Y10427334D01*
X3061428Y9360667D02*
X2528095Y9360667D01*
X3061428Y9703524D02*
X2642380Y9703524D01*
X2566190Y9665429D01*
X2528095Y9589239D01*
X2528095Y9474953D01*
X2566190Y9398762D01*
X2604285Y9360667D01*
X3061428Y9094001D02*
X3061428Y8789239D01*
X3328095Y8979715D02*
X2642380Y8979715D01*
X2566190Y8941620D01*
X2528095Y8865429D01*
X2528095Y8789239D01*
X935333Y15398762D02*
X973428Y15436858D01*
X1087714Y15513048D01*
X1163904Y15551143D01*
X1278190Y15589239D01*
X1468666Y15627334D01*
X1621047Y15627334D01*
X1811523Y15589239D01*
X1925809Y15551143D01*
X2002000Y15513048D01*
X2116285Y15436858D01*
X2154380Y15398762D01*
X1773428Y15094000D02*
X973428Y15094000D01*
X1735333Y15094000D02*
X1773428Y15017810D01*
X1773428Y14865429D01*
X1735333Y14789239D01*
X1697238Y14751143D01*
X1621047Y14713048D01*
X1392476Y14713048D01*
X1316285Y14751143D01*
X1278190Y14789239D01*
X1240095Y14865429D01*
X1240095Y15017810D01*
X1278190Y15094000D01*
X1240095Y14027334D02*
X1659142Y14027334D01*
X1735333Y14065429D01*
X1773428Y14141620D01*
X1773428Y14294000D01*
X1735333Y14370191D01*
X1278190Y14027334D02*
X1240095Y14103524D01*
X1240095Y14294000D01*
X1278190Y14370191D01*
X1354380Y14408286D01*
X1430571Y14408286D01*
X1506761Y14370191D01*
X1544857Y14294000D01*
X1544857Y14103524D01*
X1582952Y14027334D01*
X1278190Y13684477D02*
X1240095Y13608286D01*
X1240095Y13455905D01*
X1278190Y13379715D01*
X1354380Y13341620D01*
X1392476Y13341620D01*
X1468666Y13379715D01*
X1506761Y13455905D01*
X1506761Y13570191D01*
X1544857Y13646381D01*
X1621047Y13684477D01*
X1659142Y13684477D01*
X1735333Y13646381D01*
X1773428Y13570191D01*
X1773428Y13455905D01*
X1735333Y13379715D01*
X1278190Y13036858D02*
X1240095Y12960667D01*
X1240095Y12808286D01*
X1278190Y12732096D01*
X1354380Y12694000D01*
X1392476Y12694000D01*
X1468666Y12732096D01*
X1506761Y12808286D01*
X1506761Y12922572D01*
X1544857Y12998762D01*
X1621047Y13036858D01*
X1659142Y13036858D01*
X1735333Y12998762D01*
X1773428Y12922572D01*
X1773428Y12808286D01*
X1735333Y12732096D01*
X1544857Y12351143D02*
X1544857Y11741620D01*
X1773428Y11474953D02*
X1773428Y11170191D01*
X2040095Y11360667D02*
X1354380Y11360667D01*
X1278190Y11322572D01*
X1240095Y11246381D01*
X1240095Y11170191D01*
X1240095Y10903524D02*
X1773428Y10903524D01*
X1621047Y10903524D02*
X1697238Y10865429D01*
X1735333Y10827334D01*
X1773428Y10751143D01*
X1773428Y10674953D01*
X1240095Y10294000D02*
X1278190Y10370191D01*
X1316285Y10408286D01*
X1392476Y10446381D01*
X1621047Y10446381D01*
X1697238Y10408286D01*
X1735333Y10370191D01*
X1773428Y10294000D01*
X1773428Y10179715D01*
X1735333Y10103524D01*
X1697238Y10065429D01*
X1621047Y10027334D01*
X1392476Y10027334D01*
X1316285Y10065429D01*
X1278190Y10103524D01*
X1240095Y10179715D01*
X1240095Y10294000D01*
X1773428Y9341620D02*
X1240095Y9341620D01*
X1773428Y9684477D02*
X1354380Y9684477D01*
X1278190Y9646381D01*
X1240095Y9570191D01*
X1240095Y9455905D01*
X1278190Y9379715D01*
X1316285Y9341620D01*
X1773428Y8617810D02*
X1125809Y8617810D01*
X1049619Y8655905D01*
X1011523Y8694000D01*
X973428Y8770191D01*
X973428Y8884477D01*
X1011523Y8960667D01*
X1278190Y8617810D02*
X1240095Y8694000D01*
X1240095Y8846381D01*
X1278190Y8922572D01*
X1316285Y8960667D01*
X1392476Y8998762D01*
X1621047Y8998762D01*
X1697238Y8960667D01*
X1735333Y8922572D01*
X1773428Y8846381D01*
X1773428Y8694000D01*
X1735333Y8617810D01*
X1240095Y8236858D02*
X2040095Y8236858D01*
X1240095Y7894000D02*
X1659142Y7894000D01*
X1735333Y7932096D01*
X1773428Y8008286D01*
X1773428Y8122572D01*
X1735333Y8198762D01*
X1697238Y8236858D01*
X935333Y7589239D02*
X973428Y7551143D01*
X1087714Y7474953D01*
X1163904Y7436858D01*
X1278190Y7398762D01*
X1468666Y7360667D01*
X1621047Y7360667D01*
X1811523Y7398762D01*
X1925809Y7436858D01*
X2002000Y7474953D01*
X2116285Y7551143D01*
X2154380Y7589239D01*
D12*
X18863357Y6923786D02*
X18863357Y6838072D01*
X18820500Y6752358D01*
X18777642Y6709500D01*
X18691928Y6666643D01*
X18520500Y6623786D01*
X18306214Y6623786D01*
X18134785Y6666643D01*
X18049071Y6709500D01*
X18006214Y6752358D01*
X17963357Y6838072D01*
X17963357Y6923786D01*
X18006214Y7009500D01*
X18049071Y7052358D01*
X18134785Y7095215D01*
X18306214Y7138072D01*
X18520500Y7138072D01*
X18691928Y7095215D01*
X18777642Y7052358D01*
X18820500Y7009500D01*
X18863357Y6923786D01*
X17963357Y6323786D02*
X18563357Y5852358D01*
X18563357Y6323786D02*
X17963357Y5852358D01*
X18863357Y5595215D02*
X18863357Y4995215D01*
X17963357Y5380929D01*
X18477642Y4523786D02*
X18520500Y4609500D01*
X18563357Y4652358D01*
X18649071Y4695215D01*
X18691928Y4695215D01*
X18777642Y4652358D01*
X18820500Y4609500D01*
X18863357Y4523786D01*
X18863357Y4352358D01*
X18820500Y4266643D01*
X18777642Y4223786D01*
X18691928Y4180929D01*
X18649071Y4180929D01*
X18563357Y4223786D01*
X18520500Y4266643D01*
X18477642Y4352358D01*
X18477642Y4523786D01*
X18434785Y4609500D01*
X18391928Y4652358D01*
X18306214Y4695215D01*
X18134785Y4695215D01*
X18049071Y4652358D01*
X18006214Y4609500D01*
X17963357Y4523786D01*
X17963357Y4352358D01*
X18006214Y4266643D01*
X18049071Y4223786D01*
X18134785Y4180929D01*
X18306214Y4180929D01*
X18391928Y4223786D01*
X18434785Y4266643D01*
X18477642Y4352358D01*
X17414357Y6923786D02*
X17414357Y6838072D01*
X17371500Y6752358D01*
X17328642Y6709500D01*
X17242928Y6666643D01*
X17071500Y6623786D01*
X16857214Y6623786D01*
X16685785Y6666643D01*
X16600071Y6709500D01*
X16557214Y6752358D01*
X16514357Y6838072D01*
X16514357Y6923786D01*
X16557214Y7009500D01*
X16600071Y7052358D01*
X16685785Y7095215D01*
X16857214Y7138072D01*
X17071500Y7138072D01*
X17242928Y7095215D01*
X17328642Y7052358D01*
X17371500Y7009500D01*
X17414357Y6923786D01*
X16514357Y6323786D02*
X17114357Y5852358D01*
X17114357Y6323786D02*
X16514357Y5852358D01*
X17414357Y5595215D02*
X17414357Y4995215D01*
X16514357Y5380929D01*
X17114357Y4780929D02*
X17114357Y4438072D01*
X16514357Y4652358D02*
X17285785Y4652358D01*
X17371500Y4609500D01*
X17414357Y4523786D01*
X17414357Y4438072D01*
D11*
X13293619Y7970191D02*
X13293619Y7779715D01*
X13246000Y7684477D01*
X13150761Y7589239D01*
X12960285Y7541620D01*
X12626952Y7541620D01*
X12436476Y7589239D01*
X12341238Y7684477D01*
X12293619Y7779715D01*
X12293619Y7970191D01*
X12341238Y8065429D01*
X12436476Y8160667D01*
X12626952Y8208286D01*
X12960285Y8208286D01*
X13150761Y8160667D01*
X13246000Y8065429D01*
X13293619Y7970191D01*
X13293619Y7113048D02*
X12484095Y7113048D01*
X12388857Y7065429D01*
X12341238Y7017810D01*
X12293619Y6922572D01*
X12293619Y6732096D01*
X12341238Y6636858D01*
X12388857Y6589239D01*
X12484095Y6541620D01*
X13293619Y6541620D01*
X13293619Y6208286D02*
X13293619Y5636858D01*
X12293619Y5922572D02*
X13293619Y5922572D01*
X13198380Y5351143D02*
X13246000Y5303524D01*
X13293619Y5208286D01*
X13293619Y4970191D01*
X13246000Y4874953D01*
X13198380Y4827334D01*
X13103142Y4779715D01*
X13007904Y4779715D01*
X12865047Y4827334D01*
X12293619Y5398762D01*
X12293619Y4779715D01*
D13*
X6557904Y17498762D02*
X6557904Y16755905D01*
X5257904Y17127334D02*
X6557904Y17127334D01*
X5938857Y15889239D02*
X5938857Y16322572D01*
X5257904Y16322572D02*
X6557904Y16322572D01*
X6557904Y15703524D01*
X5257904Y15208286D02*
X6557904Y15208286D01*
X6434095Y14651143D02*
X6496000Y14589239D01*
X6557904Y14465429D01*
X6557904Y14155905D01*
X6496000Y14032096D01*
X6434095Y13970191D01*
X6310285Y13908286D01*
X6186476Y13908286D01*
X6000761Y13970191D01*
X5257904Y14713048D01*
X5257904Y13908286D01*
X5381714Y12608286D02*
X5319809Y12670191D01*
X5257904Y12855905D01*
X5257904Y12979715D01*
X5319809Y13165429D01*
X5443619Y13289239D01*
X5567428Y13351143D01*
X5815047Y13413048D01*
X6000761Y13413048D01*
X6248380Y13351143D01*
X6372190Y13289239D01*
X6496000Y13165429D01*
X6557904Y12979715D01*
X6557904Y12855905D01*
X6496000Y12670191D01*
X6434095Y12608286D01*
X5629333Y12113048D02*
X5629333Y11494000D01*
X5257904Y12236858D02*
X6557904Y11803524D01*
X5257904Y11370191D01*
X5257904Y10936858D02*
X6557904Y10936858D01*
X6557904Y10627334D01*
X6496000Y10441620D01*
X6372190Y10317810D01*
X6248380Y10255905D01*
X6000761Y10194000D01*
X5815047Y10194000D01*
X5567428Y10255905D01*
X5443619Y10317810D01*
X5319809Y10441620D01*
X5257904Y10627334D01*
X5257904Y10936858D01*
X6557904Y9822572D02*
X6557904Y9079715D01*
X5257904Y9451143D02*
X6557904Y9451143D01*
X6557904Y8398762D02*
X6557904Y8274953D01*
X6496000Y8151143D01*
X6434095Y8089239D01*
X6310285Y8027334D01*
X6062666Y7965429D01*
X5753142Y7965429D01*
X5505523Y8027334D01*
X5381714Y8089239D01*
X5319809Y8151143D01*
X5257904Y8274953D01*
X5257904Y8398762D01*
X5319809Y8522572D01*
X5381714Y8584477D01*
X5505523Y8646381D01*
X5753142Y8708286D01*
X6062666Y8708286D01*
X6310285Y8646381D01*
X6434095Y8584477D01*
X6496000Y8522572D01*
X6557904Y8398762D01*
X5257904Y6727334D02*
X5257904Y7470191D01*
X5257904Y7098762D02*
X6557904Y7098762D01*
X6372190Y7222572D01*
X6248380Y7346381D01*
X6186476Y7470191D01*
X5629333Y6232096D02*
X5629333Y5613048D01*
X5257904Y6355905D02*
X6557904Y5922572D01*
X5257904Y5489239D01*
D12*
X18863357Y16823786D02*
X18863357Y16738072D01*
X18820500Y16652358D01*
X18777642Y16609500D01*
X18691928Y16566643D01*
X18520500Y16523786D01*
X18306214Y16523786D01*
X18134785Y16566643D01*
X18049071Y16609500D01*
X18006214Y16652358D01*
X17963357Y16738072D01*
X17963357Y16823786D01*
X18006214Y16909500D01*
X18049071Y16952358D01*
X18134785Y16995215D01*
X18306214Y17038072D01*
X18520500Y17038072D01*
X18691928Y16995215D01*
X18777642Y16952358D01*
X18820500Y16909500D01*
X18863357Y16823786D01*
X17963357Y16223786D02*
X18563357Y15752358D01*
X18563357Y16223786D02*
X17963357Y15752358D01*
X18863357Y15238072D02*
X18863357Y15152358D01*
X18820500Y15066643D01*
X18777642Y15023786D01*
X18691928Y14980929D01*
X18520500Y14938072D01*
X18306214Y14938072D01*
X18134785Y14980929D01*
X18049071Y15023786D01*
X18006214Y15066643D01*
X17963357Y15152358D01*
X17963357Y15238072D01*
X18006214Y15323786D01*
X18049071Y15366643D01*
X18134785Y15409500D01*
X18306214Y15452358D01*
X18520500Y15452358D01*
X18691928Y15409500D01*
X18777642Y15366643D01*
X18820500Y15323786D01*
X18863357Y15238072D01*
X18477642Y14423786D02*
X18520500Y14509500D01*
X18563357Y14552358D01*
X18649071Y14595215D01*
X18691928Y14595215D01*
X18777642Y14552358D01*
X18820500Y14509500D01*
X18863357Y14423786D01*
X18863357Y14252358D01*
X18820500Y14166643D01*
X18777642Y14123786D01*
X18691928Y14080929D01*
X18649071Y14080929D01*
X18563357Y14123786D01*
X18520500Y14166643D01*
X18477642Y14252358D01*
X18477642Y14423786D01*
X18434785Y14509500D01*
X18391928Y14552358D01*
X18306214Y14595215D01*
X18134785Y14595215D01*
X18049071Y14552358D01*
X18006214Y14509500D01*
X17963357Y14423786D01*
X17963357Y14252358D01*
X18006214Y14166643D01*
X18049071Y14123786D01*
X18134785Y14080929D01*
X18306214Y14080929D01*
X18391928Y14123786D01*
X18434785Y14166643D01*
X18477642Y14252358D01*
X17414357Y16823786D02*
X17414357Y16738072D01*
X17371500Y16652358D01*
X17328642Y16609500D01*
X17242928Y16566643D01*
X17071500Y16523786D01*
X16857214Y16523786D01*
X16685785Y16566643D01*
X16600071Y16609500D01*
X16557214Y16652358D01*
X16514357Y16738072D01*
X16514357Y16823786D01*
X16557214Y16909500D01*
X16600071Y16952358D01*
X16685785Y16995215D01*
X16857214Y17038072D01*
X17071500Y17038072D01*
X17242928Y16995215D01*
X17328642Y16952358D01*
X17371500Y16909500D01*
X17414357Y16823786D01*
X16514357Y16223786D02*
X17114357Y15752358D01*
X17114357Y16223786D02*
X16514357Y15752358D01*
X17414357Y15238072D02*
X17414357Y15152358D01*
X17371500Y15066643D01*
X17328642Y15023786D01*
X17242928Y14980929D01*
X17071500Y14938072D01*
X16857214Y14938072D01*
X16685785Y14980929D01*
X16600071Y15023786D01*
X16557214Y15066643D01*
X16514357Y15152358D01*
X16514357Y15238072D01*
X16557214Y15323786D01*
X16600071Y15366643D01*
X16685785Y15409500D01*
X16857214Y15452358D01*
X17071500Y15452358D01*
X17242928Y15409500D01*
X17328642Y15366643D01*
X17371500Y15323786D01*
X17414357Y15238072D01*
X17114357Y14680929D02*
X17114357Y14338072D01*
X16514357Y14552358D02*
X17285785Y14552358D01*
X17371500Y14509500D01*
X17414357Y14423786D01*
X17414357Y14338072D01*
D10*
%TO.C,JP1*%
X15146000Y5094000D02*
X14546000Y5094000D01*
X14546000Y7894000D02*
X15146000Y7894000D01*
X15846000Y7194000D02*
X15846000Y5794000D01*
X13846000Y5794000D02*
X13846000Y7194000D01*
X13846000Y5794000D02*
G75*
G03*
X14546000Y5094000I700000J0D01*
G01*
X14546000Y7894000D02*
G75*
G03*
X13846000Y7194000I-1J-699999D01*
G01*
X15846000Y7194000D02*
G75*
G03*
X15146000Y7894000I-699999J1D01*
G01*
X15146000Y5094000D02*
G75*
G03*
X15846000Y5794000I0J700000D01*
G01*
%TO.C,JP2*%
X15146000Y15094000D02*
X14546000Y15094000D01*
X14546000Y17894000D02*
X15146000Y17894000D01*
X15846000Y17194000D02*
X15846000Y15794000D01*
X13846000Y15794000D02*
X13846000Y17194000D01*
X13846000Y15794000D02*
G75*
G03*
X14546000Y15094000I699999J-1D01*
G01*
X15846000Y17194000D02*
G75*
G03*
X15146000Y17894000I-700000J0D01*
G01*
X15146000Y15094000D02*
G75*
G03*
X15846000Y15794000I1J699999D01*
G01*
X14546000Y17894000D02*
G75*
G03*
X13846000Y17194000I0J-700000D01*
G01*
%TO.C,G1*%
G36*
X7714123Y9386487D02*
G01*
X7723334Y9384835D01*
X7744434Y9381102D01*
X7776393Y9375469D01*
X7818179Y9368118D01*
X7868761Y9359229D01*
X7927110Y9348984D01*
X7992193Y9337564D01*
X8062980Y9325149D01*
X8138441Y9311921D01*
X8217544Y9298060D01*
X8232209Y9295492D01*
X8732259Y9207901D01*
X8732273Y9114446D01*
X8731943Y9074735D01*
X8730867Y9046883D01*
X8728942Y9029651D01*
X8726062Y9021797D01*
X8724406Y9020992D01*
X8716845Y9022102D01*
X8697366Y9025317D01*
X8666969Y9030464D01*
X8626653Y9037371D01*
X8577419Y9045863D01*
X8520265Y9055769D01*
X8456192Y9066915D01*
X8386199Y9079128D01*
X8311284Y9092236D01*
X8232449Y9106065D01*
X8212742Y9109528D01*
X8133144Y9123502D01*
X8057256Y9136798D01*
X7986072Y9149242D01*
X7920589Y9160662D01*
X7861803Y9170885D01*
X7810709Y9179738D01*
X7768303Y9187048D01*
X7735580Y9192643D01*
X7713538Y9196349D01*
X7703171Y9197995D01*
X7702523Y9198064D01*
X7699950Y9204382D01*
X7697959Y9222395D01*
X7696643Y9250691D01*
X7696098Y9287858D01*
X7696088Y9293978D01*
X7696088Y9389892D01*
X7714123Y9386487D01*
G37*
X7714123Y9386487D02*
X7723334Y9384835D01*
X7744434Y9381102D01*
X7776393Y9375469D01*
X7818179Y9368118D01*
X7868761Y9359229D01*
X7927110Y9348984D01*
X7992193Y9337564D01*
X8062980Y9325149D01*
X8138441Y9311921D01*
X8217544Y9298060D01*
X8232209Y9295492D01*
X8732259Y9207901D01*
X8732273Y9114446D01*
X8731943Y9074735D01*
X8730867Y9046883D01*
X8728942Y9029651D01*
X8726062Y9021797D01*
X8724406Y9020992D01*
X8716845Y9022102D01*
X8697366Y9025317D01*
X8666969Y9030464D01*
X8626653Y9037371D01*
X8577419Y9045863D01*
X8520265Y9055769D01*
X8456192Y9066915D01*
X8386199Y9079128D01*
X8311284Y9092236D01*
X8232449Y9106065D01*
X8212742Y9109528D01*
X8133144Y9123502D01*
X8057256Y9136798D01*
X7986072Y9149242D01*
X7920589Y9160662D01*
X7861803Y9170885D01*
X7810709Y9179738D01*
X7768303Y9187048D01*
X7735580Y9192643D01*
X7713538Y9196349D01*
X7703171Y9197995D01*
X7702523Y9198064D01*
X7699950Y9204382D01*
X7697959Y9222395D01*
X7696643Y9250691D01*
X7696098Y9287858D01*
X7696088Y9293978D01*
X7696088Y9389892D01*
X7714123Y9386487D01*
G36*
X10283455Y8193543D02*
G01*
X10303025Y8190349D01*
X10333099Y8185282D01*
X10372476Y8178555D01*
X10419951Y8170379D01*
X10474322Y8160966D01*
X10534387Y8150526D01*
X10598941Y8139271D01*
X10666781Y8127413D01*
X10736706Y8115162D01*
X10807511Y8102730D01*
X10877994Y8090328D01*
X10946952Y8078169D01*
X11013181Y8066462D01*
X11075479Y8055419D01*
X11132643Y8045252D01*
X11183469Y8036172D01*
X11226755Y8028391D01*
X11261297Y8022119D01*
X11285893Y8017568D01*
X11299339Y8014949D01*
X11301472Y8014444D01*
X11304982Y8009192D01*
X11307430Y7995522D01*
X11308932Y7972070D01*
X11309606Y7937472D01*
X11309669Y7918672D01*
X11309669Y7825906D01*
X11291634Y7828613D01*
X11282433Y7830154D01*
X11261339Y7833782D01*
X11229381Y7839320D01*
X11187585Y7846586D01*
X11136978Y7855403D01*
X11078587Y7865592D01*
X11013439Y7876972D01*
X10942562Y7889366D01*
X10866982Y7902593D01*
X10787727Y7916475D01*
X10770279Y7919533D01*
X10266959Y8007746D01*
X10266935Y8101201D01*
X10267185Y8139533D01*
X10268056Y8166400D01*
X10269701Y8183445D01*
X10272274Y8192311D01*
X10275593Y8194655D01*
X10283455Y8193543D01*
G37*
X10283455Y8193543D02*
X10303025Y8190349D01*
X10333099Y8185282D01*
X10372476Y8178555D01*
X10419951Y8170379D01*
X10474322Y8160966D01*
X10534387Y8150526D01*
X10598941Y8139271D01*
X10666781Y8127413D01*
X10736706Y8115162D01*
X10807511Y8102730D01*
X10877994Y8090328D01*
X10946952Y8078169D01*
X11013181Y8066462D01*
X11075479Y8055419D01*
X11132643Y8045252D01*
X11183469Y8036172D01*
X11226755Y8028391D01*
X11261297Y8022119D01*
X11285893Y8017568D01*
X11299339Y8014949D01*
X11301472Y8014444D01*
X11304982Y8009192D01*
X11307430Y7995522D01*
X11308932Y7972070D01*
X11309606Y7937472D01*
X11309669Y7918672D01*
X11309669Y7825906D01*
X11291634Y7828613D01*
X11282433Y7830154D01*
X11261339Y7833782D01*
X11229381Y7839320D01*
X11187585Y7846586D01*
X11136978Y7855403D01*
X11078587Y7865592D01*
X11013439Y7876972D01*
X10942562Y7889366D01*
X10866982Y7902593D01*
X10787727Y7916475D01*
X10770279Y7919533D01*
X10266959Y8007746D01*
X10266935Y8101201D01*
X10267185Y8139533D01*
X10268056Y8166400D01*
X10269701Y8183445D01*
X10272274Y8192311D01*
X10275593Y8194655D01*
X10283455Y8193543D01*
G36*
X8996256Y9164046D02*
G01*
X9004928Y9162500D01*
X9025501Y9158870D01*
X9056957Y9153334D01*
X9098278Y9146073D01*
X9148445Y9137264D01*
X9206439Y9127086D01*
X9271242Y9115718D01*
X9341836Y9103339D01*
X9417202Y9090127D01*
X9496322Y9076262D01*
X9514337Y9073106D01*
X10017663Y8984921D01*
X10017681Y8678324D01*
X10017583Y8616312D01*
X10017295Y8558494D01*
X10016837Y8506155D01*
X10016230Y8460581D01*
X10015495Y8423055D01*
X10014652Y8394863D01*
X10013721Y8377290D01*
X10012781Y8371601D01*
X10004823Y8372597D01*
X9986482Y8375413D01*
X9960300Y8379644D01*
X9928820Y8384886D01*
X9921053Y8386199D01*
X9834245Y8400923D01*
X9832517Y8613876D01*
X9830790Y8826829D01*
X9732417Y8844894D01*
X9697311Y8851228D01*
X9666168Y8856634D01*
X9641553Y8860685D01*
X9626033Y8862950D01*
X9622566Y8863277D01*
X9619024Y8862561D01*
X9616293Y8859196D01*
X9614269Y8851690D01*
X9612846Y8838550D01*
X9611922Y8818281D01*
X9611390Y8789392D01*
X9611148Y8750387D01*
X9611090Y8699775D01*
X9611090Y8699197D01*
X9611037Y8648539D01*
X9610810Y8609531D01*
X9610304Y8580709D01*
X9609415Y8560605D01*
X9608038Y8547755D01*
X9606068Y8540693D01*
X9603402Y8537953D01*
X9599935Y8538069D01*
X9599613Y8538160D01*
X9589744Y8540344D01*
X9570474Y8544105D01*
X9544913Y8548882D01*
X9516173Y8554118D01*
X9487365Y8559250D01*
X9461601Y8563722D01*
X9441990Y8566972D01*
X9431646Y8568442D01*
X9431046Y8568474D01*
X9430070Y8574741D01*
X9429194Y8592377D01*
X9428456Y8619635D01*
X9427895Y8654767D01*
X9427547Y8696026D01*
X9427449Y8734069D01*
X9427439Y8899664D01*
X9281528Y8924891D01*
X9233431Y8933215D01*
X9184210Y8941747D01*
X9137220Y8949904D01*
X9095818Y8957105D01*
X9063359Y8962767D01*
X9058559Y8963606D01*
X8981500Y8977095D01*
X8981500Y9071948D01*
X8981552Y9108912D01*
X8981915Y9134692D01*
X8982898Y9151222D01*
X8984812Y9160436D01*
X8987965Y9164268D01*
X8992668Y9164649D01*
X8996256Y9164046D01*
G37*
X8996256Y9164046D02*
X9004928Y9162500D01*
X9025501Y9158870D01*
X9056957Y9153334D01*
X9098278Y9146073D01*
X9148445Y9137264D01*
X9206439Y9127086D01*
X9271242Y9115718D01*
X9341836Y9103339D01*
X9417202Y9090127D01*
X9496322Y9076262D01*
X9514337Y9073106D01*
X10017663Y8984921D01*
X10017681Y8678324D01*
X10017583Y8616312D01*
X10017295Y8558494D01*
X10016837Y8506155D01*
X10016230Y8460581D01*
X10015495Y8423055D01*
X10014652Y8394863D01*
X10013721Y8377290D01*
X10012781Y8371601D01*
X10004823Y8372597D01*
X9986482Y8375413D01*
X9960300Y8379644D01*
X9928820Y8384886D01*
X9921053Y8386199D01*
X9834245Y8400923D01*
X9832517Y8613876D01*
X9830790Y8826829D01*
X9732417Y8844894D01*
X9697311Y8851228D01*
X9666168Y8856634D01*
X9641553Y8860685D01*
X9626033Y8862950D01*
X9622566Y8863277D01*
X9619024Y8862561D01*
X9616293Y8859196D01*
X9614269Y8851690D01*
X9612846Y8838550D01*
X9611922Y8818281D01*
X9611390Y8789392D01*
X9611148Y8750387D01*
X9611090Y8699775D01*
X9611090Y8699197D01*
X9611037Y8648539D01*
X9610810Y8609531D01*
X9610304Y8580709D01*
X9609415Y8560605D01*
X9608038Y8547755D01*
X9606068Y8540693D01*
X9603402Y8537953D01*
X9599935Y8538069D01*
X9599613Y8538160D01*
X9589744Y8540344D01*
X9570474Y8544105D01*
X9544913Y8548882D01*
X9516173Y8554118D01*
X9487365Y8559250D01*
X9461601Y8563722D01*
X9441990Y8566972D01*
X9431646Y8568442D01*
X9431046Y8568474D01*
X9430070Y8574741D01*
X9429194Y8592377D01*
X9428456Y8619635D01*
X9427895Y8654767D01*
X9427547Y8696026D01*
X9427449Y8734069D01*
X9427439Y8899664D01*
X9281528Y8924891D01*
X9233431Y8933215D01*
X9184210Y8941747D01*
X9137220Y8949904D01*
X9095818Y8957105D01*
X9063359Y8962767D01*
X9058559Y8963606D01*
X8981500Y8977095D01*
X8981500Y9071948D01*
X8981552Y9108912D01*
X8981915Y9134692D01*
X8982898Y9151222D01*
X8984812Y9160436D01*
X8987965Y9164268D01*
X8992668Y9164649D01*
X8996256Y9164046D01*
G36*
X10017699Y12754021D02*
G01*
X9684870Y12533642D01*
X9352040Y12313263D01*
X9684870Y12313242D01*
X10017699Y12313220D01*
X10017699Y12123031D01*
X8981500Y12123031D01*
X8981500Y12278302D01*
X9337284Y12515454D01*
X9693067Y12752606D01*
X9337284Y12752614D01*
X8981500Y12752621D01*
X8981500Y12942809D01*
X10017699Y12942809D01*
X10017699Y12754021D01*
G37*
X10017699Y12754021D02*
X9684870Y12533642D01*
X9352040Y12313263D01*
X9684870Y12313242D01*
X10017699Y12313220D01*
X10017699Y12123031D01*
X8981500Y12123031D01*
X8981500Y12278302D01*
X9337284Y12515454D01*
X9693067Y12752606D01*
X9337284Y12752614D01*
X8981500Y12752621D01*
X8981500Y12942809D01*
X10017699Y12942809D01*
X10017699Y12754021D01*
G36*
X8994223Y8422280D02*
G01*
X9016600Y8418520D01*
X9049087Y8412925D01*
X9090501Y8405706D01*
X9139657Y8397076D01*
X9195371Y8387245D01*
X9256460Y8376426D01*
X9321739Y8364831D01*
X9390025Y8352671D01*
X9460133Y8340159D01*
X9530880Y8327506D01*
X9601081Y8314924D01*
X9669553Y8302625D01*
X9735111Y8290821D01*
X9796572Y8279724D01*
X9852752Y8269545D01*
X9902467Y8260496D01*
X9944532Y8252790D01*
X9977765Y8246637D01*
X10000980Y8242251D01*
X10012994Y8239842D01*
X10014430Y8239460D01*
X10015622Y8231927D01*
X10016386Y8213760D01*
X10016674Y8187436D01*
X10016438Y8155433D01*
X10016245Y8144440D01*
X10014420Y8053060D01*
X9614369Y8123242D01*
X9542933Y8135769D01*
X9474793Y8147707D01*
X9411140Y8158849D01*
X9353165Y8168987D01*
X9302058Y8177912D01*
X9259010Y8185417D01*
X9225212Y8191294D01*
X9201855Y8195334D01*
X9190129Y8197331D01*
X9189724Y8197397D01*
X9165130Y8201369D01*
X9165130Y8024219D01*
X9165067Y7971137D01*
X9164818Y7929746D01*
X9164298Y7898620D01*
X9163421Y7876333D01*
X9162101Y7861460D01*
X9160251Y7852576D01*
X9157785Y7848255D01*
X9154618Y7847072D01*
X9154427Y7847070D01*
X9144103Y7848167D01*
X9123758Y7851158D01*
X9096276Y7855595D01*
X9064541Y7861028D01*
X9062611Y7861367D01*
X8981500Y7875665D01*
X8981500Y8149929D01*
X8981538Y8208464D01*
X8981646Y8262718D01*
X8981816Y8311335D01*
X8982041Y8352960D01*
X8982311Y8386235D01*
X8982619Y8409804D01*
X8982957Y8422310D01*
X8983140Y8423992D01*
X8994223Y8422280D01*
G37*
X8994223Y8422280D02*
X9016600Y8418520D01*
X9049087Y8412925D01*
X9090501Y8405706D01*
X9139657Y8397076D01*
X9195371Y8387245D01*
X9256460Y8376426D01*
X9321739Y8364831D01*
X9390025Y8352671D01*
X9460133Y8340159D01*
X9530880Y8327506D01*
X9601081Y8314924D01*
X9669553Y8302625D01*
X9735111Y8290821D01*
X9796572Y8279724D01*
X9852752Y8269545D01*
X9902467Y8260496D01*
X9944532Y8252790D01*
X9977765Y8246637D01*
X10000980Y8242251D01*
X10012994Y8239842D01*
X10014430Y8239460D01*
X10015622Y8231927D01*
X10016386Y8213760D01*
X10016674Y8187436D01*
X10016438Y8155433D01*
X10016245Y8144440D01*
X10014420Y8053060D01*
X9614369Y8123242D01*
X9542933Y8135769D01*
X9474793Y8147707D01*
X9411140Y8158849D01*
X9353165Y8168987D01*
X9302058Y8177912D01*
X9259010Y8185417D01*
X9225212Y8191294D01*
X9201855Y8195334D01*
X9190129Y8197331D01*
X9189724Y8197397D01*
X9165130Y8201369D01*
X9165130Y8024219D01*
X9165067Y7971137D01*
X9164818Y7929746D01*
X9164298Y7898620D01*
X9163421Y7876333D01*
X9162101Y7861460D01*
X9160251Y7852576D01*
X9157785Y7848255D01*
X9154618Y7847072D01*
X9154427Y7847070D01*
X9144103Y7848167D01*
X9123758Y7851158D01*
X9096276Y7855595D01*
X9064541Y7861028D01*
X9062611Y7861367D01*
X8981500Y7875665D01*
X8981500Y8149929D01*
X8981538Y8208464D01*
X8981646Y8262718D01*
X8981816Y8311335D01*
X8982041Y8352960D01*
X8982311Y8386235D01*
X8982619Y8409804D01*
X8982957Y8422310D01*
X8983140Y8423992D01*
X8994223Y8422280D01*
G36*
X7708087Y7891493D02*
G01*
X7727100Y7888223D01*
X7757061Y7883018D01*
X7796988Y7876051D01*
X7845895Y7867494D01*
X7902798Y7857519D01*
X7966714Y7846298D01*
X8036658Y7834005D01*
X8111647Y7820811D01*
X8190697Y7806890D01*
X8217467Y7802172D01*
X8729009Y7712010D01*
X8730828Y7618863D01*
X8731419Y7582081D01*
X8731374Y7556434D01*
X8730492Y7539948D01*
X8728570Y7530650D01*
X8725405Y7526566D01*
X8721257Y7525717D01*
X8713130Y7526830D01*
X8693096Y7530053D01*
X8662165Y7535213D01*
X8621345Y7542137D01*
X8571647Y7550649D01*
X8514078Y7560578D01*
X8449650Y7571748D01*
X8379370Y7583987D01*
X8304248Y7597121D01*
X8225293Y7610977D01*
X8206666Y7614253D01*
X8127197Y7628227D01*
X8051498Y7641522D01*
X7980558Y7653966D01*
X7915365Y7665386D01*
X7856910Y7675609D01*
X7806181Y7684462D01*
X7764169Y7691772D01*
X7731861Y7697367D01*
X7710247Y7701074D01*
X7700317Y7702719D01*
X7699778Y7702789D01*
X7698473Y7708962D01*
X7697371Y7725946D01*
X7696561Y7751435D01*
X7696133Y7783123D01*
X7696088Y7797883D01*
X7696407Y7831471D01*
X7697285Y7859808D01*
X7698603Y7880598D01*
X7700241Y7891545D01*
X7701007Y7892656D01*
X7708087Y7891493D01*
G37*
X7708087Y7891493D02*
X7727100Y7888223D01*
X7757061Y7883018D01*
X7796988Y7876051D01*
X7845895Y7867494D01*
X7902798Y7857519D01*
X7966714Y7846298D01*
X8036658Y7834005D01*
X8111647Y7820811D01*
X8190697Y7806890D01*
X8217467Y7802172D01*
X8729009Y7712010D01*
X8730828Y7618863D01*
X8731419Y7582081D01*
X8731374Y7556434D01*
X8730492Y7539948D01*
X8728570Y7530650D01*
X8725405Y7526566D01*
X8721257Y7525717D01*
X8713130Y7526830D01*
X8693096Y7530053D01*
X8662165Y7535213D01*
X8621345Y7542137D01*
X8571647Y7550649D01*
X8514078Y7560578D01*
X8449650Y7571748D01*
X8379370Y7583987D01*
X8304248Y7597121D01*
X8225293Y7610977D01*
X8206666Y7614253D01*
X8127197Y7628227D01*
X8051498Y7641522D01*
X7980558Y7653966D01*
X7915365Y7665386D01*
X7856910Y7675609D01*
X7806181Y7684462D01*
X7764169Y7691772D01*
X7731861Y7697367D01*
X7710247Y7701074D01*
X7700317Y7702719D01*
X7699778Y7702789D01*
X7698473Y7708962D01*
X7697371Y7725946D01*
X7696561Y7751435D01*
X7696133Y7783123D01*
X7696088Y7797883D01*
X7696407Y7831471D01*
X7697285Y7859808D01*
X7698603Y7880598D01*
X7700241Y7891545D01*
X7701007Y7892656D01*
X7708087Y7891493D01*
G36*
X10017699Y14864369D02*
G01*
X9611090Y14864369D01*
X9611090Y14385619D01*
X10017699Y14385619D01*
X10017699Y14195430D01*
X8981500Y14195430D01*
X8981500Y14385619D01*
X9427459Y14385619D01*
X9427459Y14864369D01*
X8981500Y14864369D01*
X8981500Y15054557D01*
X10017699Y15054557D01*
X10017699Y14864369D01*
G37*
X10017699Y14864369D02*
X9611090Y14864369D01*
X9611090Y14385619D01*
X10017699Y14385619D01*
X10017699Y14195430D01*
X8981500Y14195430D01*
X8981500Y14385619D01*
X9427459Y14385619D01*
X9427459Y14864369D01*
X8981500Y14864369D01*
X8981500Y15054557D01*
X10017699Y15054557D01*
X10017699Y14864369D01*
G36*
X10015966Y11662316D02*
G01*
X10015195Y11593921D01*
X10014336Y11537049D01*
X10013166Y11490107D01*
X10011460Y11451504D01*
X10008995Y11419646D01*
X10005544Y11392942D01*
X10000885Y11369798D01*
X9994793Y11348623D01*
X9987043Y11327823D01*
X9977411Y11305807D01*
X9965672Y11280981D01*
X9960818Y11270905D01*
X9944455Y11239024D01*
X9928329Y11213218D01*
X9909210Y11189024D01*
X9883870Y11161976D01*
X9877166Y11155225D01*
X9848879Y11128077D01*
X9824420Y11107857D01*
X9799320Y11091334D01*
X9769111Y11075276D01*
X9761486Y11071558D01*
X9722543Y11053481D01*
X9688874Y11039962D01*
X9657330Y11030362D01*
X9624760Y11024040D01*
X9588012Y11020354D01*
X9543936Y11018665D01*
X9499600Y11018321D01*
X9446840Y11018849D01*
X9404049Y11020859D01*
X9368106Y11024993D01*
X9335892Y11031891D01*
X9304285Y11042194D01*
X9270165Y11056544D01*
X9237271Y11072197D01*
X9173241Y11110814D01*
X9117009Y11159510D01*
X9069573Y11217149D01*
X9031928Y11282595D01*
X9013847Y11326865D01*
X9005588Y11351710D01*
X8998845Y11375491D01*
X8993470Y11399880D01*
X8989311Y11426548D01*
X8986220Y11457165D01*
X8984047Y11493402D01*
X8982641Y11536931D01*
X8981852Y11589421D01*
X8981532Y11652545D01*
X8981500Y11687486D01*
X8981500Y11722980D01*
X9150923Y11722980D01*
X9153108Y11577059D01*
X9155293Y11431139D01*
X9176111Y11387194D01*
X9206606Y11336828D01*
X9246059Y11295706D01*
X9294605Y11263757D01*
X9352379Y11240915D01*
X9419515Y11227109D01*
X9496149Y11222272D01*
X9499600Y11222264D01*
X9576638Y11226724D01*
X9644173Y11240149D01*
X9702340Y11262608D01*
X9751274Y11294170D01*
X9791108Y11334903D01*
X9821979Y11384877D01*
X9823088Y11387194D01*
X9843907Y11431139D01*
X9845997Y11577059D01*
X9848087Y11722980D01*
X9150923Y11722980D01*
X8981500Y11722980D01*
X8981500Y11913168D01*
X10018663Y11913168D01*
X10015966Y11662316D01*
G37*
X10015966Y11662316D02*
X10015195Y11593921D01*
X10014336Y11537049D01*
X10013166Y11490107D01*
X10011460Y11451504D01*
X10008995Y11419646D01*
X10005544Y11392942D01*
X10000885Y11369798D01*
X9994793Y11348623D01*
X9987043Y11327823D01*
X9977411Y11305807D01*
X9965672Y11280981D01*
X9960818Y11270905D01*
X9944455Y11239024D01*
X9928329Y11213218D01*
X9909210Y11189024D01*
X9883870Y11161976D01*
X9877166Y11155225D01*
X9848879Y11128077D01*
X9824420Y11107857D01*
X9799320Y11091334D01*
X9769111Y11075276D01*
X9761486Y11071558D01*
X9722543Y11053481D01*
X9688874Y11039962D01*
X9657330Y11030362D01*
X9624760Y11024040D01*
X9588012Y11020354D01*
X9543936Y11018665D01*
X9499600Y11018321D01*
X9446840Y11018849D01*
X9404049Y11020859D01*
X9368106Y11024993D01*
X9335892Y11031891D01*
X9304285Y11042194D01*
X9270165Y11056544D01*
X9237271Y11072197D01*
X9173241Y11110814D01*
X9117009Y11159510D01*
X9069573Y11217149D01*
X9031928Y11282595D01*
X9013847Y11326865D01*
X9005588Y11351710D01*
X8998845Y11375491D01*
X8993470Y11399880D01*
X8989311Y11426548D01*
X8986220Y11457165D01*
X8984047Y11493402D01*
X8982641Y11536931D01*
X8981852Y11589421D01*
X8981532Y11652545D01*
X8981500Y11687486D01*
X8981500Y11722980D01*
X9150923Y11722980D01*
X9153108Y11577059D01*
X9155293Y11431139D01*
X9176111Y11387194D01*
X9206606Y11336828D01*
X9246059Y11295706D01*
X9294605Y11263757D01*
X9352379Y11240915D01*
X9419515Y11227109D01*
X9496149Y11222272D01*
X9499600Y11222264D01*
X9576638Y11226724D01*
X9644173Y11240149D01*
X9702340Y11262608D01*
X9751274Y11294170D01*
X9791108Y11334903D01*
X9821979Y11384877D01*
X9823088Y11387194D01*
X9843907Y11431139D01*
X9845997Y11577059D01*
X9848087Y11722980D01*
X9150923Y11722980D01*
X8981500Y11722980D01*
X8981500Y11913168D01*
X10018663Y11913168D01*
X10015966Y11662316D01*
G36*
X10017699Y9805748D02*
G01*
X10017641Y9744221D01*
X10017415Y9694185D01*
X10016944Y9654015D01*
X10016150Y9622089D01*
X10014956Y9596780D01*
X10013283Y9576464D01*
X10011056Y9559518D01*
X10008195Y9544315D01*
X10004624Y9529232D01*
X10004479Y9528663D01*
X9982896Y9464363D01*
X9953541Y9410617D01*
X9916288Y9367326D01*
X9871011Y9334393D01*
X9817582Y9311721D01*
X9755877Y9299210D01*
X9704514Y9296437D01*
X9638488Y9301194D01*
X9580740Y9315756D01*
X9530372Y9340558D01*
X9486483Y9376036D01*
X9450413Y9419391D01*
X9435167Y9440466D01*
X9422489Y9456711D01*
X9414369Y9465628D01*
X9412819Y9466584D01*
X9406242Y9463687D01*
X9389683Y9455384D01*
X9364702Y9442502D01*
X9332859Y9425870D01*
X9295714Y9406315D01*
X9254825Y9384664D01*
X9211752Y9361744D01*
X9168055Y9338384D01*
X9125293Y9315411D01*
X9085025Y9293652D01*
X9048812Y9273935D01*
X9022489Y9259458D01*
X8981500Y9236771D01*
X8981639Y9343663D01*
X8981777Y9450555D01*
X9173467Y9549989D01*
X9365156Y9649422D01*
X9368786Y9840770D01*
X9524510Y9840770D01*
X9526811Y9730919D01*
X9527748Y9690307D01*
X9528852Y9660265D01*
X9530498Y9638249D01*
X9533061Y9621717D01*
X9536917Y9608124D01*
X9542442Y9594926D01*
X9548786Y9582005D01*
X9572831Y9544382D01*
X9601962Y9518116D01*
X9637743Y9501928D01*
X9650743Y9498691D01*
X9699847Y9493682D01*
X9744631Y9499497D01*
X9783679Y9515549D01*
X9815571Y9541248D01*
X9838888Y9576006D01*
X9839319Y9576922D01*
X9845755Y9591461D01*
X9850460Y9604963D01*
X9853764Y9619925D01*
X9855997Y9638845D01*
X9857489Y9664220D01*
X9858570Y9698548D01*
X9859225Y9727640D01*
X9861600Y9840770D01*
X9524510Y9840770D01*
X9368786Y9840770D01*
X8981500Y9840770D01*
X8981500Y10030958D01*
X10017699Y10030958D01*
X10017699Y9805748D01*
G37*
X10017699Y9805748D02*
X10017641Y9744221D01*
X10017415Y9694185D01*
X10016944Y9654015D01*
X10016150Y9622089D01*
X10014956Y9596780D01*
X10013283Y9576464D01*
X10011056Y9559518D01*
X10008195Y9544315D01*
X10004624Y9529232D01*
X10004479Y9528663D01*
X9982896Y9464363D01*
X9953541Y9410617D01*
X9916288Y9367326D01*
X9871011Y9334393D01*
X9817582Y9311721D01*
X9755877Y9299210D01*
X9704514Y9296437D01*
X9638488Y9301194D01*
X9580740Y9315756D01*
X9530372Y9340558D01*
X9486483Y9376036D01*
X9450413Y9419391D01*
X9435167Y9440466D01*
X9422489Y9456711D01*
X9414369Y9465628D01*
X9412819Y9466584D01*
X9406242Y9463687D01*
X9389683Y9455384D01*
X9364702Y9442502D01*
X9332859Y9425870D01*
X9295714Y9406315D01*
X9254825Y9384664D01*
X9211752Y9361744D01*
X9168055Y9338384D01*
X9125293Y9315411D01*
X9085025Y9293652D01*
X9048812Y9273935D01*
X9022489Y9259458D01*
X8981500Y9236771D01*
X8981639Y9343663D01*
X8981777Y9450555D01*
X9173467Y9549989D01*
X9365156Y9649422D01*
X9368786Y9840770D01*
X9524510Y9840770D01*
X9526811Y9730919D01*
X9527748Y9690307D01*
X9528852Y9660265D01*
X9530498Y9638249D01*
X9533061Y9621717D01*
X9536917Y9608124D01*
X9542442Y9594926D01*
X9548786Y9582005D01*
X9572831Y9544382D01*
X9601962Y9518116D01*
X9637743Y9501928D01*
X9650743Y9498691D01*
X9699847Y9493682D01*
X9744631Y9499497D01*
X9783679Y9515549D01*
X9815571Y9541248D01*
X9838888Y9576006D01*
X9839319Y9576922D01*
X9845755Y9591461D01*
X9850460Y9604963D01*
X9853764Y9619925D01*
X9855997Y9638845D01*
X9857489Y9664220D01*
X9858570Y9698548D01*
X9859225Y9727640D01*
X9861600Y9840770D01*
X9524510Y9840770D01*
X9368786Y9840770D01*
X8981500Y9840770D01*
X8981500Y10030958D01*
X10017699Y10030958D01*
X10017699Y9805748D01*
G36*
X10017699Y13809242D02*
G01*
X9675032Y13807032D01*
X9599099Y13806527D01*
X9535098Y13806039D01*
X9481843Y13805517D01*
X9438149Y13804910D01*
X9402832Y13804166D01*
X9374706Y13803234D01*
X9352586Y13802062D01*
X9335289Y13800600D01*
X9321628Y13798795D01*
X9310418Y13796597D01*
X9300475Y13793954D01*
X9290614Y13790815D01*
X9289101Y13790309D01*
X9239390Y13767823D01*
X9199932Y13737162D01*
X9170735Y13698336D01*
X9151803Y13651357D01*
X9143144Y13596236D01*
X9144764Y13532985D01*
X9145239Y13528470D01*
X9155883Y13476422D01*
X9175701Y13432948D01*
X9205116Y13397670D01*
X9244547Y13370206D01*
X9294418Y13350178D01*
X9355149Y13337205D01*
X9357979Y13336804D01*
X9376960Y13335131D01*
X9407848Y13333640D01*
X9449438Y13332354D01*
X9500521Y13331299D01*
X9559890Y13330497D01*
X9626338Y13329973D01*
X9698658Y13329751D01*
X9713217Y13329745D01*
X10017699Y13329745D01*
X10017699Y13139556D01*
X9696821Y13139556D01*
X9614504Y13139643D01*
X9544042Y13139956D01*
X9484174Y13140579D01*
X9433639Y13141591D01*
X9391177Y13143074D01*
X9355528Y13145110D01*
X9325429Y13147780D01*
X9299621Y13151165D01*
X9276843Y13155346D01*
X9255834Y13160405D01*
X9235333Y13166423D01*
X9224217Y13170038D01*
X9156989Y13198403D01*
X9099618Y13235400D01*
X9051974Y13281159D01*
X9013929Y13335807D01*
X8985354Y13399473D01*
X8981262Y13411722D01*
X8972894Y13447629D01*
X8967019Y13492538D01*
X8963734Y13542558D01*
X8963135Y13593796D01*
X8965319Y13642359D01*
X8970384Y13684355D01*
X8974040Y13701726D01*
X8997196Y13769857D01*
X9029935Y13829217D01*
X9072453Y13880002D01*
X9124944Y13922407D01*
X9187604Y13956631D01*
X9250494Y13979887D01*
X9261451Y13983116D01*
X9272080Y13985849D01*
X9283550Y13988138D01*
X9297029Y13990031D01*
X9313683Y13991576D01*
X9334682Y13992824D01*
X9361193Y13993824D01*
X9394385Y13994625D01*
X9435424Y13995276D01*
X9485479Y13995826D01*
X9545718Y13996325D01*
X9617309Y13996821D01*
X9658637Y13997090D01*
X10017699Y13999401D01*
X10017699Y13809242D01*
G37*
X10017699Y13809242D02*
X9675032Y13807032D01*
X9599099Y13806527D01*
X9535098Y13806039D01*
X9481843Y13805517D01*
X9438149Y13804910D01*
X9402832Y13804166D01*
X9374706Y13803234D01*
X9352586Y13802062D01*
X9335289Y13800600D01*
X9321628Y13798795D01*
X9310418Y13796597D01*
X9300475Y13793954D01*
X9290614Y13790815D01*
X9289101Y13790309D01*
X9239390Y13767823D01*
X9199932Y13737162D01*
X9170735Y13698336D01*
X9151803Y13651357D01*
X9143144Y13596236D01*
X9144764Y13532985D01*
X9145239Y13528470D01*
X9155883Y13476422D01*
X9175701Y13432948D01*
X9205116Y13397670D01*
X9244547Y13370206D01*
X9294418Y13350178D01*
X9355149Y13337205D01*
X9357979Y13336804D01*
X9376960Y13335131D01*
X9407848Y13333640D01*
X9449438Y13332354D01*
X9500521Y13331299D01*
X9559890Y13330497D01*
X9626338Y13329973D01*
X9698658Y13329751D01*
X9713217Y13329745D01*
X10017699Y13329745D01*
X10017699Y13139556D01*
X9696821Y13139556D01*
X9614504Y13139643D01*
X9544042Y13139956D01*
X9484174Y13140579D01*
X9433639Y13141591D01*
X9391177Y13143074D01*
X9355528Y13145110D01*
X9325429Y13147780D01*
X9299621Y13151165D01*
X9276843Y13155346D01*
X9255834Y13160405D01*
X9235333Y13166423D01*
X9224217Y13170038D01*
X9156989Y13198403D01*
X9099618Y13235400D01*
X9051974Y13281159D01*
X9013929Y13335807D01*
X8985354Y13399473D01*
X8981262Y13411722D01*
X8972894Y13447629D01*
X8967019Y13492538D01*
X8963734Y13542558D01*
X8963135Y13593796D01*
X8965319Y13642359D01*
X8970384Y13684355D01*
X8974040Y13701726D01*
X8997196Y13769857D01*
X9029935Y13829217D01*
X9072453Y13880002D01*
X9124944Y13922407D01*
X9187604Y13956631D01*
X9250494Y13979887D01*
X9261451Y13983116D01*
X9272080Y13985849D01*
X9283550Y13988138D01*
X9297029Y13990031D01*
X9313683Y13991576D01*
X9334682Y13992824D01*
X9361193Y13993824D01*
X9394385Y13994625D01*
X9435424Y13995276D01*
X9485479Y13995826D01*
X9545718Y13996325D01*
X9617309Y13996821D01*
X9658637Y13997090D01*
X10017699Y13999401D01*
X10017699Y13809242D01*
G36*
X10013911Y7823248D02*
G01*
X10015826Y7815178D01*
X10016762Y7800090D01*
X10016910Y7776136D01*
X10016456Y7741465D01*
X10016235Y7728943D01*
X10014420Y7628870D01*
X9812755Y7546943D01*
X9764592Y7527249D01*
X9720549Y7508993D01*
X9682042Y7492781D01*
X9650488Y7479220D01*
X9627300Y7468916D01*
X9613895Y7462474D01*
X9611090Y7460600D01*
X9616181Y7455845D01*
X9630694Y7444184D01*
X9653490Y7426485D01*
X9683427Y7403619D01*
X9719366Y7376456D01*
X9760167Y7345865D01*
X9804689Y7312716D01*
X9814177Y7305680D01*
X10017264Y7155177D01*
X10017482Y7054777D01*
X10017302Y7014460D01*
X10016498Y6986017D01*
X10014973Y6968218D01*
X10012631Y6959832D01*
X10010035Y6959114D01*
X10003523Y6963932D01*
X9987633Y6976031D01*
X9963351Y6994652D01*
X9931660Y7019037D01*
X9893547Y7048425D01*
X9849996Y7082059D01*
X9801992Y7119178D01*
X9750520Y7159024D01*
X9725858Y7178131D01*
X9673177Y7218938D01*
X9623558Y7257340D01*
X9577980Y7292581D01*
X9537420Y7323906D01*
X9502857Y7350562D01*
X9475268Y7371794D01*
X9455631Y7386848D01*
X9444923Y7394969D01*
X9443257Y7396174D01*
X9436063Y7397907D01*
X9417753Y7401604D01*
X9390126Y7406938D01*
X9354982Y7413581D01*
X9314120Y7421203D01*
X9269339Y7429477D01*
X9222437Y7438074D01*
X9175214Y7446667D01*
X9129469Y7454926D01*
X9087000Y7462524D01*
X9049608Y7469133D01*
X9019090Y7474424D01*
X8997246Y7478068D01*
X8985875Y7479738D01*
X8984893Y7479809D01*
X8983694Y7485983D01*
X8982681Y7502969D01*
X8981936Y7528462D01*
X8981542Y7560159D01*
X8981500Y7575028D01*
X8981500Y7670247D01*
X8996256Y7666817D01*
X9008295Y7664402D01*
X9030790Y7660247D01*
X9061869Y7654674D01*
X9099664Y7648004D01*
X9142305Y7640558D01*
X9187920Y7632656D01*
X9234640Y7624621D01*
X9280594Y7616772D01*
X9323914Y7609432D01*
X9362728Y7602921D01*
X9395166Y7597560D01*
X9419359Y7593671D01*
X9433436Y7591575D01*
X9436094Y7591299D01*
X9444004Y7593777D01*
X9462730Y7600870D01*
X9491017Y7612067D01*
X9527606Y7626858D01*
X9571241Y7644731D01*
X9620666Y7665175D01*
X9674624Y7687679D01*
X9720344Y7706879D01*
X9777130Y7730763D01*
X9830454Y7753123D01*
X9879048Y7773433D01*
X9921642Y7791165D01*
X9956968Y7805792D01*
X9983757Y7816787D01*
X10000740Y7823623D01*
X10006398Y7825738D01*
X10010831Y7826151D01*
X10013911Y7823248D01*
G37*
X10013911Y7823248D02*
X10015826Y7815178D01*
X10016762Y7800090D01*
X10016910Y7776136D01*
X10016456Y7741465D01*
X10016235Y7728943D01*
X10014420Y7628870D01*
X9812755Y7546943D01*
X9764592Y7527249D01*
X9720549Y7508993D01*
X9682042Y7492781D01*
X9650488Y7479220D01*
X9627300Y7468916D01*
X9613895Y7462474D01*
X9611090Y7460600D01*
X9616181Y7455845D01*
X9630694Y7444184D01*
X9653490Y7426485D01*
X9683427Y7403619D01*
X9719366Y7376456D01*
X9760167Y7345865D01*
X9804689Y7312716D01*
X9814177Y7305680D01*
X10017264Y7155177D01*
X10017482Y7054777D01*
X10017302Y7014460D01*
X10016498Y6986017D01*
X10014973Y6968218D01*
X10012631Y6959832D01*
X10010035Y6959114D01*
X10003523Y6963932D01*
X9987633Y6976031D01*
X9963351Y6994652D01*
X9931660Y7019037D01*
X9893547Y7048425D01*
X9849996Y7082059D01*
X9801992Y7119178D01*
X9750520Y7159024D01*
X9725858Y7178131D01*
X9673177Y7218938D01*
X9623558Y7257340D01*
X9577980Y7292581D01*
X9537420Y7323906D01*
X9502857Y7350562D01*
X9475268Y7371794D01*
X9455631Y7386848D01*
X9444923Y7394969D01*
X9443257Y7396174D01*
X9436063Y7397907D01*
X9417753Y7401604D01*
X9390126Y7406938D01*
X9354982Y7413581D01*
X9314120Y7421203D01*
X9269339Y7429477D01*
X9222437Y7438074D01*
X9175214Y7446667D01*
X9129469Y7454926D01*
X9087000Y7462524D01*
X9049608Y7469133D01*
X9019090Y7474424D01*
X8997246Y7478068D01*
X8985875Y7479738D01*
X8984893Y7479809D01*
X8983694Y7485983D01*
X8982681Y7502969D01*
X8981936Y7528462D01*
X8981542Y7560159D01*
X8981500Y7575028D01*
X8981500Y7670247D01*
X8996256Y7666817D01*
X9008295Y7664402D01*
X9030790Y7660247D01*
X9061869Y7654674D01*
X9099664Y7648004D01*
X9142305Y7640558D01*
X9187920Y7632656D01*
X9234640Y7624621D01*
X9280594Y7616772D01*
X9323914Y7609432D01*
X9362728Y7602921D01*
X9395166Y7597560D01*
X9419359Y7593671D01*
X9433436Y7591575D01*
X9436094Y7591299D01*
X9444004Y7593777D01*
X9462730Y7600870D01*
X9491017Y7612067D01*
X9527606Y7626858D01*
X9571241Y7644731D01*
X9620666Y7665175D01*
X9674624Y7687679D01*
X9720344Y7706879D01*
X9777130Y7730763D01*
X9830454Y7753123D01*
X9879048Y7773433D01*
X9921642Y7791165D01*
X9956968Y7805792D01*
X9983757Y7816787D01*
X10000740Y7823623D01*
X10006398Y7825738D01*
X10010831Y7826151D01*
X10013911Y7823248D01*
G36*
X7707565Y8643257D02*
G01*
X7715734Y8641720D01*
X7735798Y8638111D01*
X7766732Y8632609D01*
X7807509Y8625396D01*
X7857103Y8616652D01*
X7914488Y8606557D01*
X7978639Y8595294D01*
X8048529Y8583041D01*
X8123132Y8569980D01*
X8201422Y8556292D01*
X8207630Y8555207D01*
X8286364Y8541445D01*
X8361639Y8528274D01*
X8432412Y8515877D01*
X8497638Y8504440D01*
X8556274Y8494144D01*
X8607274Y8485173D01*
X8649595Y8477712D01*
X8682193Y8471942D01*
X8704023Y8468049D01*
X8714042Y8466215D01*
X8714253Y8466173D01*
X8732288Y8462500D01*
X8732288Y8271932D01*
X8717532Y8275489D01*
X8708833Y8277166D01*
X8688245Y8280916D01*
X8656798Y8286554D01*
X8615524Y8293900D01*
X8565453Y8302771D01*
X8507619Y8312983D01*
X8443051Y8324356D01*
X8372781Y8336706D01*
X8297841Y8349852D01*
X8219261Y8363610D01*
X8210909Y8365071D01*
X8132108Y8378871D01*
X8056913Y8392073D01*
X7986346Y8404497D01*
X7921430Y8415961D01*
X7863187Y8426283D01*
X7812640Y8435281D01*
X7770811Y8442774D01*
X7738722Y8448581D01*
X7717395Y8452519D01*
X7707854Y8454407D01*
X7707565Y8454482D01*
X7703028Y8457054D01*
X7699861Y8462995D01*
X7697823Y8474338D01*
X7696675Y8493116D01*
X7696178Y8521361D01*
X7696088Y8551907D01*
X7696208Y8588796D01*
X7696726Y8614476D01*
X7697884Y8630855D01*
X7699919Y8639840D01*
X7703072Y8643337D01*
X7707565Y8643257D01*
G37*
X7707565Y8643257D02*
X7715734Y8641720D01*
X7735798Y8638111D01*
X7766732Y8632609D01*
X7807509Y8625396D01*
X7857103Y8616652D01*
X7914488Y8606557D01*
X7978639Y8595294D01*
X8048529Y8583041D01*
X8123132Y8569980D01*
X8201422Y8556292D01*
X8207630Y8555207D01*
X8286364Y8541445D01*
X8361639Y8528274D01*
X8432412Y8515877D01*
X8497638Y8504440D01*
X8556274Y8494144D01*
X8607274Y8485173D01*
X8649595Y8477712D01*
X8682193Y8471942D01*
X8704023Y8468049D01*
X8714042Y8466215D01*
X8714253Y8466173D01*
X8732288Y8462500D01*
X8732288Y8271932D01*
X8717532Y8275489D01*
X8708833Y8277166D01*
X8688245Y8280916D01*
X8656798Y8286554D01*
X8615524Y8293900D01*
X8565453Y8302771D01*
X8507619Y8312983D01*
X8443051Y8324356D01*
X8372781Y8336706D01*
X8297841Y8349852D01*
X8219261Y8363610D01*
X8210909Y8365071D01*
X8132108Y8378871D01*
X8056913Y8392073D01*
X7986346Y8404497D01*
X7921430Y8415961D01*
X7863187Y8426283D01*
X7812640Y8435281D01*
X7770811Y8442774D01*
X7738722Y8448581D01*
X7717395Y8452519D01*
X7707854Y8454407D01*
X7707565Y8454482D01*
X7703028Y8457054D01*
X7699861Y8462995D01*
X7697823Y8474338D01*
X7696675Y8493116D01*
X7696178Y8521361D01*
X7696088Y8551907D01*
X7696208Y8588796D01*
X7696726Y8614476D01*
X7697884Y8630855D01*
X7699919Y8639840D01*
X7703072Y8643337D01*
X7707565Y8643257D01*
G36*
X10281668Y8940159D02*
G01*
X10290413Y8938471D01*
X10311025Y8934717D01*
X10342449Y8929083D01*
X10383633Y8921756D01*
X10433520Y8912921D01*
X10491057Y8902766D01*
X10555190Y8891477D01*
X10624863Y8879240D01*
X10699023Y8866241D01*
X10768616Y8854066D01*
X10846530Y8840435D01*
X10921370Y8827319D01*
X10992024Y8814913D01*
X11057380Y8803416D01*
X11116325Y8793022D01*
X11167746Y8783928D01*
X11210532Y8776331D01*
X11243569Y8770428D01*
X11265746Y8766413D01*
X11275239Y8764630D01*
X11309669Y8757733D01*
X11309669Y8568224D01*
X11294913Y8571659D01*
X11286207Y8573318D01*
X11265615Y8577047D01*
X11234171Y8582663D01*
X11192911Y8589984D01*
X11142870Y8598828D01*
X11085083Y8609011D01*
X11020585Y8620351D01*
X10950411Y8632666D01*
X10875596Y8645772D01*
X10797175Y8659488D01*
X10791570Y8660467D01*
X10712836Y8674231D01*
X10637561Y8687403D01*
X10566788Y8699800D01*
X10501562Y8711238D01*
X10442927Y8721533D01*
X10391926Y8730503D01*
X10349605Y8737963D01*
X10317007Y8743730D01*
X10295177Y8747621D01*
X10285158Y8749452D01*
X10284947Y8749494D01*
X10266912Y8753147D01*
X10266912Y8943715D01*
X10281668Y8940159D01*
G37*
X10281668Y8940159D02*
X10290413Y8938471D01*
X10311025Y8934717D01*
X10342449Y8929083D01*
X10383633Y8921756D01*
X10433520Y8912921D01*
X10491057Y8902766D01*
X10555190Y8891477D01*
X10624863Y8879240D01*
X10699023Y8866241D01*
X10768616Y8854066D01*
X10846530Y8840435D01*
X10921370Y8827319D01*
X10992024Y8814913D01*
X11057380Y8803416D01*
X11116325Y8793022D01*
X11167746Y8783928D01*
X11210532Y8776331D01*
X11243569Y8770428D01*
X11265746Y8766413D01*
X11275239Y8764630D01*
X11309669Y8757733D01*
X11309669Y8568224D01*
X11294913Y8571659D01*
X11286207Y8573318D01*
X11265615Y8577047D01*
X11234171Y8582663D01*
X11192911Y8589984D01*
X11142870Y8598828D01*
X11085083Y8609011D01*
X11020585Y8620351D01*
X10950411Y8632666D01*
X10875596Y8645772D01*
X10797175Y8659488D01*
X10791570Y8660467D01*
X10712836Y8674231D01*
X10637561Y8687403D01*
X10566788Y8699800D01*
X10501562Y8711238D01*
X10442927Y8721533D01*
X10391926Y8730503D01*
X10349605Y8737963D01*
X10317007Y8743730D01*
X10295177Y8747621D01*
X10285158Y8749452D01*
X10284947Y8749494D01*
X10266912Y8753147D01*
X10266912Y8943715D01*
X10281668Y8940159D01*
G36*
X10017699Y10194914D02*
G01*
X9834069Y10194914D01*
X9834069Y10667106D01*
X9611090Y10667106D01*
X9611090Y10306403D01*
X9427459Y10306403D01*
X9427459Y10667106D01*
X9165130Y10667106D01*
X9165130Y10181797D01*
X8981500Y10181797D01*
X8981500Y10863852D01*
X10017699Y10863852D01*
X10017699Y10194914D01*
G37*
X10017699Y10194914D02*
X9834069Y10194914D01*
X9834069Y10667106D01*
X9611090Y10667106D01*
X9611090Y10306403D01*
X9427459Y10306403D01*
X9427459Y10667106D01*
X9165130Y10667106D01*
X9165130Y10181797D01*
X8981500Y10181797D01*
X8981500Y10863852D01*
X10017699Y10863852D01*
X10017699Y10194914D01*
G36*
X10278348Y7443111D02*
G01*
X10278389Y7443102D01*
X10286557Y7441564D01*
X10306621Y7437952D01*
X10337554Y7432447D01*
X10378330Y7425229D01*
X10427923Y7416479D01*
X10485308Y7406378D01*
X10549457Y7395106D01*
X10619346Y7382845D01*
X10693948Y7369775D01*
X10772237Y7356078D01*
X10778453Y7354991D01*
X10857286Y7341207D01*
X10932735Y7328012D01*
X11003748Y7315591D01*
X11069271Y7304127D01*
X11128250Y7293806D01*
X11179634Y7284812D01*
X11222368Y7277328D01*
X11255400Y7271540D01*
X11277675Y7267631D01*
X11288142Y7265786D01*
X11288355Y7265748D01*
X11309669Y7261928D01*
X11309669Y7167564D01*
X11309491Y7134079D01*
X11309000Y7105825D01*
X11308264Y7085114D01*
X11307349Y7074262D01*
X11306941Y7073199D01*
X11299961Y7074306D01*
X11281258Y7077487D01*
X11252025Y7082533D01*
X11213453Y7089233D01*
X11166737Y7097378D01*
X11113067Y7106758D01*
X11053638Y7117163D01*
X10989641Y7128383D01*
X10922270Y7140208D01*
X10852717Y7152429D01*
X10782175Y7164836D01*
X10711837Y7177219D01*
X10642895Y7189368D01*
X10576541Y7201073D01*
X10513970Y7212125D01*
X10456372Y7222314D01*
X10404942Y7231429D01*
X10360871Y7239261D01*
X10325353Y7245600D01*
X10299580Y7250237D01*
X10284744Y7252961D01*
X10281668Y7253571D01*
X10275900Y7255414D01*
X10271873Y7259119D01*
X10269273Y7266758D01*
X10267790Y7280401D01*
X10267110Y7302122D01*
X10266920Y7333991D01*
X10266912Y7351435D01*
X10267031Y7388396D01*
X10267547Y7414145D01*
X10268698Y7430587D01*
X10270723Y7439626D01*
X10273860Y7443166D01*
X10278348Y7443111D01*
G37*
X10278348Y7443111D02*
X10278389Y7443102D01*
X10286557Y7441564D01*
X10306621Y7437952D01*
X10337554Y7432447D01*
X10378330Y7425229D01*
X10427923Y7416479D01*
X10485308Y7406378D01*
X10549457Y7395106D01*
X10619346Y7382845D01*
X10693948Y7369775D01*
X10772237Y7356078D01*
X10778453Y7354991D01*
X10857286Y7341207D01*
X10932735Y7328012D01*
X11003748Y7315591D01*
X11069271Y7304127D01*
X11128250Y7293806D01*
X11179634Y7284812D01*
X11222368Y7277328D01*
X11255400Y7271540D01*
X11277675Y7267631D01*
X11288142Y7265786D01*
X11288355Y7265748D01*
X11309669Y7261928D01*
X11309669Y7167564D01*
X11309491Y7134079D01*
X11309000Y7105825D01*
X11308264Y7085114D01*
X11307349Y7074262D01*
X11306941Y7073199D01*
X11299961Y7074306D01*
X11281258Y7077487D01*
X11252025Y7082533D01*
X11213453Y7089233D01*
X11166737Y7097378D01*
X11113067Y7106758D01*
X11053638Y7117163D01*
X10989641Y7128383D01*
X10922270Y7140208D01*
X10852717Y7152429D01*
X10782175Y7164836D01*
X10711837Y7177219D01*
X10642895Y7189368D01*
X10576541Y7201073D01*
X10513970Y7212125D01*
X10456372Y7222314D01*
X10404942Y7231429D01*
X10360871Y7239261D01*
X10325353Y7245600D01*
X10299580Y7250237D01*
X10284744Y7252961D01*
X10281668Y7253571D01*
X10275900Y7255414D01*
X10271873Y7259119D01*
X10269273Y7266758D01*
X10267790Y7280401D01*
X10267110Y7302122D01*
X10266920Y7333991D01*
X10266912Y7351435D01*
X10267031Y7388396D01*
X10267547Y7414145D01*
X10268698Y7430587D01*
X10270723Y7439626D01*
X10273860Y7443166D01*
X10278348Y7443111D01*
G36*
X10017699Y15159489D02*
G01*
X9834069Y15159489D01*
X9834069Y15454609D01*
X8981500Y15454609D01*
X8981500Y15644797D01*
X9834069Y15644797D01*
X9834069Y15939917D01*
X10017699Y15939917D01*
X10017699Y15159489D01*
G37*
X10017699Y15159489D02*
X9834069Y15159489D01*
X9834069Y15454609D01*
X8981500Y15454609D01*
X8981500Y15644797D01*
X9834069Y15644797D01*
X9834069Y15939917D01*
X10017699Y15939917D01*
X10017699Y15159489D01*
%TO.C,J6*%
X24760000Y13535000D02*
X24760000Y19465000D01*
X20490000Y14065000D02*
X19500000Y14065000D01*
X21940000Y12265000D02*
X20490000Y12265000D01*
X20490000Y12265000D02*
X20490000Y14065000D01*
X20490000Y20735000D02*
X20490000Y18935000D01*
X21940000Y20735000D02*
X20490000Y20735000D01*
%TO.C,J4*%
X24760000Y3535000D02*
X24760000Y9465000D01*
X21940000Y10735000D02*
X20490000Y10735000D01*
X20490000Y10735000D02*
X20490000Y8935000D01*
X20490000Y2265000D02*
X20490000Y4065000D01*
X20490000Y4065000D02*
X19500000Y4065000D01*
X21940000Y2265000D02*
X20490000Y2265000D01*
%TD*%
M02*
