%TF.GenerationSoftware,KiCad,Pcbnew,6.0.4-6f826c9f35~116~ubuntu20.04.1*%
%TF.CreationDate,2022-04-04T21:07:49+00:00*%
%TF.ProjectId,TFI2CADT01A,54464932-4341-4445-9430-31412e6b6963,rev?*%
%TF.SameCoordinates,PX7a53eb0PY6e37550*%
%TF.FileFunction,Copper,L1,Top*%
%TF.FilePolarity,Positive*%
%FSLAX46Y46*%
G04 Gerber Fmt 4.6, Leading zero omitted, Abs format (unit mm)*
G04 Created by KiCad (PCBNEW 6.0.4-6f826c9f35~116~ubuntu20.04.1) date 2022-04-04 21:07:49*
%MOMM*%
%LPD*%
G01*
G04 APERTURE LIST*
G04 Aperture macros list*
%AMRoundRect*
0 Rectangle with rounded corners*
0 $1 Rounding radius*
0 $2 $3 $4 $5 $6 $7 $8 $9 X,Y pos of 4 corners*
0 Add a 4 corners polygon primitive as box body*
4,1,4,$2,$3,$4,$5,$6,$7,$8,$9,$2,$3,0*
0 Add four circle primitives for the rounded corners*
1,1,$1+$1,$2,$3*
1,1,$1+$1,$4,$5*
1,1,$1+$1,$6,$7*
1,1,$1+$1,$8,$9*
0 Add four rect primitives between the rounded corners*
20,1,$1+$1,$2,$3,$4,$5,0*
20,1,$1+$1,$4,$5,$6,$7,0*
20,1,$1+$1,$6,$7,$8,$9,0*
20,1,$1+$1,$8,$9,$2,$3,0*%
%AMFreePoly0*
4,1,22,0.500000,-0.750000,0.000000,-0.750000,0.000000,-0.745033,-0.079941,-0.743568,-0.215256,-0.701293,-0.333266,-0.622738,-0.424486,-0.514219,-0.481581,-0.384460,-0.499164,-0.250000,-0.500000,-0.250000,-0.500000,0.250000,-0.499164,0.250000,-0.499963,0.256109,-0.478152,0.396186,-0.417904,0.524511,-0.324060,0.630769,-0.204165,0.706417,-0.067858,0.745374,0.000000,0.744959,0.000000,0.750000,
0.500000,0.750000,0.500000,-0.750000,0.500000,-0.750000,$1*%
%AMFreePoly1*
4,1,20,0.000000,0.744959,0.073905,0.744508,0.209726,0.703889,0.328688,0.626782,0.421226,0.519385,0.479903,0.390333,0.500000,0.250000,0.500000,-0.250000,0.499851,-0.262216,0.476331,-0.402017,0.414519,-0.529596,0.319384,-0.634700,0.198574,-0.708877,0.061801,-0.746166,0.000000,-0.745033,0.000000,-0.750000,-0.500000,-0.750000,-0.500000,0.750000,0.000000,0.750000,0.000000,0.744959,
0.000000,0.744959,$1*%
G04 Aperture macros list end*
%ADD10C,0.170000*%
%TA.AperFunction,NonConductor*%
%ADD11C,0.170000*%
%TD*%
%ADD12C,0.150000*%
%TA.AperFunction,NonConductor*%
%ADD13C,0.150000*%
%TD*%
%TA.AperFunction,SMDPad,CuDef*%
%ADD14FreePoly0,270.000000*%
%TD*%
%TA.AperFunction,SMDPad,CuDef*%
%ADD15FreePoly1,270.000000*%
%TD*%
%TA.AperFunction,SMDPad,CuDef*%
%ADD16FreePoly0,90.000000*%
%TD*%
%TA.AperFunction,SMDPad,CuDef*%
%ADD17FreePoly1,90.000000*%
%TD*%
%TA.AperFunction,SMDPad,CuDef*%
%ADD18RoundRect,0.150000X0.700000X-0.150000X0.700000X0.150000X-0.700000X0.150000X-0.700000X-0.150000X0*%
%TD*%
%TA.AperFunction,SMDPad,CuDef*%
%ADD19RoundRect,0.250000X1.100000X-0.250000X1.100000X0.250000X-1.100000X0.250000X-1.100000X-0.250000X0*%
%TD*%
%TA.AperFunction,ViaPad*%
%ADD20C,0.800000*%
%TD*%
%TA.AperFunction,Conductor*%
%ADD21C,0.500000*%
%TD*%
%TA.AperFunction,Conductor*%
%ADD22C,0.200000*%
%TD*%
%TA.AperFunction,Conductor*%
%ADD23C,0.250000*%
%TD*%
G04 APERTURE END LIST*
D10*
D11*
X18765714Y21476534D02*
X18733333Y21443200D01*
X18668571Y21409867D01*
X18506666Y21409867D01*
X18441904Y21443200D01*
X18409523Y21476534D01*
X18377142Y21543200D01*
X18377142Y21609867D01*
X18409523Y21709867D01*
X18798095Y22109867D01*
X18377142Y22109867D01*
X17956190Y21409867D02*
X17891428Y21409867D01*
X17826666Y21443200D01*
X17794285Y21476534D01*
X17761904Y21543200D01*
X17729523Y21676534D01*
X17729523Y21843200D01*
X17761904Y21976534D01*
X17794285Y22043200D01*
X17826666Y22076534D01*
X17891428Y22109867D01*
X17956190Y22109867D01*
X18020952Y22076534D01*
X18053333Y22043200D01*
X18085714Y21976534D01*
X18118095Y21843200D01*
X18118095Y21676534D01*
X18085714Y21543200D01*
X18053333Y21476534D01*
X18020952Y21443200D01*
X17956190Y21409867D01*
X17470476Y21476534D02*
X17438095Y21443200D01*
X17373333Y21409867D01*
X17211428Y21409867D01*
X17146666Y21443200D01*
X17114285Y21476534D01*
X17081904Y21543200D01*
X17081904Y21609867D01*
X17114285Y21709867D01*
X17502857Y22109867D01*
X17081904Y22109867D01*
X16822857Y21476534D02*
X16790476Y21443200D01*
X16725714Y21409867D01*
X16563809Y21409867D01*
X16499047Y21443200D01*
X16466666Y21476534D01*
X16434285Y21543200D01*
X16434285Y21609867D01*
X16466666Y21709867D01*
X16855238Y22109867D01*
X16434285Y22109867D01*
D10*
D11*
X10821904Y21643200D02*
X10562857Y21643200D01*
X10724761Y21409867D02*
X10724761Y22009867D01*
X10692380Y22076534D01*
X10627619Y22109867D01*
X10562857Y22109867D01*
X10336190Y22109867D02*
X10336190Y21409867D01*
X10044761Y22109867D02*
X10044761Y21743200D01*
X10077142Y21676534D01*
X10141904Y21643200D01*
X10239047Y21643200D01*
X10303809Y21676534D01*
X10336190Y21709867D01*
X9429523Y21643200D02*
X9429523Y22109867D01*
X9720952Y21643200D02*
X9720952Y22009867D01*
X9688571Y22076534D01*
X9623809Y22109867D01*
X9526666Y22109867D01*
X9461904Y22076534D01*
X9429523Y22043200D01*
X9105714Y21643200D02*
X9105714Y22109867D01*
X9105714Y21709867D02*
X9073333Y21676534D01*
X9008571Y21643200D01*
X8911428Y21643200D01*
X8846666Y21676534D01*
X8814285Y21743200D01*
X8814285Y22109867D01*
X8199047Y22109867D02*
X8199047Y21409867D01*
X8199047Y22076534D02*
X8263809Y22109867D01*
X8393333Y22109867D01*
X8458095Y22076534D01*
X8490476Y22043200D01*
X8522857Y21976534D01*
X8522857Y21776534D01*
X8490476Y21709867D01*
X8458095Y21676534D01*
X8393333Y21643200D01*
X8263809Y21643200D01*
X8199047Y21676534D01*
X7616190Y22076534D02*
X7680952Y22109867D01*
X7810476Y22109867D01*
X7875238Y22076534D01*
X7907619Y22009867D01*
X7907619Y21743200D01*
X7875238Y21676534D01*
X7810476Y21643200D01*
X7680952Y21643200D01*
X7616190Y21676534D01*
X7583809Y21743200D01*
X7583809Y21809867D01*
X7907619Y21876534D01*
X7292380Y22109867D02*
X7292380Y21643200D01*
X7292380Y21776534D02*
X7260000Y21709867D01*
X7227619Y21676534D01*
X7162857Y21643200D01*
X7098095Y21643200D01*
X6968571Y21643200D02*
X6709523Y21643200D01*
X6871428Y22109867D02*
X6871428Y21509867D01*
X6839047Y21443200D01*
X6774285Y21409867D01*
X6709523Y21409867D01*
X6385714Y22109867D02*
X6450476Y22076534D01*
X6482857Y22009867D01*
X6482857Y21409867D01*
X6191428Y21643200D02*
X6029523Y22109867D01*
X5867619Y21643200D02*
X6029523Y22109867D01*
X6094285Y22276534D01*
X6126666Y22309867D01*
X6191428Y22343200D01*
X5608571Y22043200D02*
X5576190Y22076534D01*
X5608571Y22109867D01*
X5640952Y22076534D01*
X5608571Y22043200D01*
X5608571Y22109867D01*
X4993333Y22076534D02*
X5058095Y22109867D01*
X5187619Y22109867D01*
X5252380Y22076534D01*
X5284761Y22043200D01*
X5317142Y21976534D01*
X5317142Y21776534D01*
X5284761Y21709867D01*
X5252380Y21676534D01*
X5187619Y21643200D01*
X5058095Y21643200D01*
X4993333Y21676534D01*
X4766666Y21643200D02*
X4410476Y21643200D01*
X4766666Y22109867D01*
X4410476Y22109867D01*
D12*
D13*
X4728571Y1293772D02*
X5071428Y1293772D01*
X4900000Y693772D02*
X4900000Y1293772D01*
X5471428Y1008058D02*
X5271428Y1008058D01*
X5271428Y693772D02*
X5271428Y1293772D01*
X5557142Y1293772D01*
X5785714Y693772D02*
X5785714Y1293772D01*
X6042857Y1236629D02*
X6071428Y1265200D01*
X6128571Y1293772D01*
X6271428Y1293772D01*
X6328571Y1265200D01*
X6357142Y1236629D01*
X6385714Y1179486D01*
X6385714Y1122343D01*
X6357142Y1036629D01*
X6014285Y693772D01*
X6385714Y693772D01*
X6985714Y750915D02*
X6957142Y722343D01*
X6871428Y693772D01*
X6814285Y693772D01*
X6728571Y722343D01*
X6671428Y779486D01*
X6642857Y836629D01*
X6614285Y950915D01*
X6614285Y1036629D01*
X6642857Y1150915D01*
X6671428Y1208058D01*
X6728571Y1265200D01*
X6814285Y1293772D01*
X6871428Y1293772D01*
X6957142Y1265200D01*
X6985714Y1236629D01*
X7214285Y865200D02*
X7500000Y865200D01*
X7157142Y693772D02*
X7357142Y1293772D01*
X7557142Y693772D01*
X7757142Y693772D02*
X7757142Y1293772D01*
X7900000Y1293772D01*
X7985714Y1265200D01*
X8042857Y1208058D01*
X8071428Y1150915D01*
X8100000Y1036629D01*
X8100000Y950915D01*
X8071428Y836629D01*
X8042857Y779486D01*
X7985714Y722343D01*
X7900000Y693772D01*
X7757142Y693772D01*
X8271428Y1293772D02*
X8614285Y1293772D01*
X8442857Y693772D02*
X8442857Y1293772D01*
X8928571Y1293772D02*
X8985714Y1293772D01*
X9042857Y1265200D01*
X9071428Y1236629D01*
X9100000Y1179486D01*
X9128571Y1065200D01*
X9128571Y922343D01*
X9100000Y808058D01*
X9071428Y750915D01*
X9042857Y722343D01*
X8985714Y693772D01*
X8928571Y693772D01*
X8871428Y722343D01*
X8842857Y750915D01*
X8814285Y808058D01*
X8785714Y922343D01*
X8785714Y1065200D01*
X8814285Y1179486D01*
X8842857Y1236629D01*
X8871428Y1265200D01*
X8928571Y1293772D01*
X9700000Y693772D02*
X9357142Y693772D01*
X9528571Y693772D02*
X9528571Y1293772D01*
X9471428Y1208058D01*
X9414285Y1150915D01*
X9357142Y1122343D01*
X9928571Y865200D02*
X10214285Y865200D01*
X9871428Y693772D02*
X10071428Y1293772D01*
X10271428Y693772D01*
D14*
%TO.P,JP1,1,A*%
%TO.N,/XORL1*%
X14846000Y7144000D03*
D15*
%TO.P,JP1,2,B*%
%TO.N,+3V3*%
X14846000Y5844000D03*
%TD*%
D16*
%TO.P,JP2,1,A*%
%TO.N,/XORL2*%
X14846000Y15844000D03*
D17*
%TO.P,JP2,2,B*%
%TO.N,+3V3*%
X14846000Y17144000D03*
%TD*%
D18*
%TO.P,J6,1*%
%TO.N,+5V*%
X20350000Y14625000D03*
%TO.P,J6,2*%
%TO.N,/SCLout2*%
X20350000Y15875000D03*
%TO.P,J6,3*%
%TO.N,/SDAout2*%
X20350000Y17125000D03*
%TO.P,J6,4*%
%TO.N,GND*%
X20350000Y18375000D03*
D19*
%TO.P,J6,MP*%
X23550000Y12775000D03*
X23550000Y20225000D03*
%TD*%
D18*
%TO.P,J4,1*%
%TO.N,+5V*%
X20350000Y4625000D03*
%TO.P,J4,2*%
%TO.N,/SCLout1*%
X20350000Y5875000D03*
%TO.P,J4,3*%
%TO.N,/SDAout1*%
X20350000Y7125000D03*
%TO.P,J4,4*%
%TO.N,GND*%
X20350000Y8375000D03*
D19*
%TO.P,J4,MP*%
X23550000Y2775000D03*
X23550000Y10225000D03*
%TD*%
D20*
%TO.N,GND*%
X2146000Y18794000D03*
X2146000Y4294000D03*
X1066800Y11480800D03*
X9601200Y11125200D03*
X4846000Y9494000D03*
X10100000Y14500000D03*
X1046000Y4294000D03*
X23114000Y19151600D03*
X23977600Y19151600D03*
X20421600Y2844800D03*
X6299200Y17983200D03*
X1046000Y18794000D03*
X6299200Y19151600D03*
X1320800Y8788400D03*
X7518400Y12547600D03*
X8000000Y8900000D03*
X12547600Y7061200D03*
X23774400Y4216400D03*
X2336800Y14274800D03*
X14579600Y8991600D03*
X23146000Y11494000D03*
X10668000Y4521200D03*
X24146000Y11494000D03*
X1066800Y14274800D03*
X5994400Y2133600D03*
X2235200Y11480800D03*
%TO.N,+3V3*%
X14429777Y4695066D03*
X13375000Y19065000D03*
X17018000Y8077200D03*
X10566400Y15544800D03*
X15046000Y14294000D03*
%TO.N,+5V*%
X22446000Y18094000D03*
X22446000Y8194000D03*
X14274800Y2032000D03*
%TO.N,/SDAin*%
X10922000Y8800100D03*
X12954000Y9296400D03*
%TO.N,/SCLin*%
X6197600Y6400800D03*
X7642029Y10363200D03*
X6243018Y10334215D03*
%TO.N,/SCLout1*%
X11750000Y8194000D03*
X13766800Y8331200D03*
X18816787Y6381510D03*
%TO.N,/SDAout1*%
X22148800Y6425500D03*
%TO.N,/SCLout2*%
X18301378Y15937822D03*
X15113000Y10605500D03*
X10550500Y10421673D03*
%TO.N,/SDAout2*%
X22148800Y16459200D03*
%TO.N,/XORL1*%
X16110516Y15358727D03*
%TO.N,/XORL2*%
X11546000Y16594000D03*
%TD*%
D21*
%TO.N,+3V3*%
X10566400Y16815791D02*
X11394609Y17644000D01*
X17018000Y6866000D02*
X15996000Y5844000D01*
X14547700Y4812989D02*
X14547700Y5606900D01*
X11394609Y17644000D02*
X13496000Y17644000D01*
X14096000Y17144000D02*
X13596000Y17644000D01*
X15996000Y5844000D02*
X14846000Y5844000D01*
X17018000Y14478000D02*
X17018000Y16422000D01*
X13375000Y17765000D02*
X13496000Y17644000D01*
D22*
X15046000Y14394000D02*
X11717200Y14394000D01*
D21*
X17018000Y16422000D02*
X16296000Y17144000D01*
X13375000Y19065000D02*
X13375000Y17765000D01*
X17018000Y8077200D02*
X17018000Y6866000D01*
X14429777Y4695066D02*
X14547700Y4812989D01*
X14846000Y17144000D02*
X14096000Y17144000D01*
X16296000Y17144000D02*
X14846000Y17144000D01*
X17018000Y8077200D02*
X17018000Y14478000D01*
X10566400Y15544800D02*
X10566400Y16815791D01*
D22*
X11717200Y14394000D02*
X10566400Y15544800D01*
D21*
X13596000Y17644000D02*
X13496000Y17644000D01*
%TO.N,+5V*%
X22758400Y4622800D02*
X23114000Y4978400D01*
X19641421Y4625000D02*
X20350000Y4625000D01*
X22446000Y8194000D02*
X21750480Y8889520D01*
X17460902Y2444480D02*
X19641421Y4625000D01*
X21747800Y14625000D02*
X22824422Y14625000D01*
X21551891Y4622800D02*
X22758400Y4622800D01*
X21750480Y14622320D02*
X21747800Y14625000D01*
X23150711Y14951289D02*
X23150711Y17389289D01*
X23114000Y4978400D02*
X23114000Y7526000D01*
X14687280Y2444480D02*
X17460902Y2444480D01*
X21549691Y4625000D02*
X21551891Y4622800D01*
X22824422Y14625000D02*
X23150711Y14951289D01*
X23150711Y17389289D02*
X22446000Y18094000D01*
X21750480Y8889520D02*
X21750480Y14622320D01*
X23114000Y7526000D02*
X22446000Y8194000D01*
X20350000Y14625000D02*
X21747800Y14625000D01*
X14274800Y2032000D02*
X14687280Y2444480D01*
X20350000Y4625000D02*
X21549691Y4625000D01*
D23*
%TO.N,/SDAin*%
X10922000Y8800100D02*
X11418300Y9296400D01*
X11418300Y9296400D02*
X12954000Y9296400D01*
D22*
%TO.N,/SCLin*%
X6223000Y10314197D02*
X6223000Y6426200D01*
X7613044Y10334215D02*
X6243018Y10334215D01*
X7642029Y10363200D02*
X7613044Y10334215D01*
X6243018Y10334215D02*
X6223000Y10314197D01*
X6223000Y6426200D02*
X6197600Y6400800D01*
%TO.N,/SCLout1*%
X20350000Y5875000D02*
X19323297Y5875000D01*
X13766800Y8331200D02*
X11887200Y8331200D01*
X19323297Y5875000D02*
X18816787Y6381510D01*
X11887200Y8331200D02*
X11750000Y8194000D01*
%TO.N,/SDAout1*%
X21932600Y7125000D02*
X20350000Y7125000D01*
X22148800Y6425500D02*
X22148800Y6908800D01*
X22148800Y6908800D02*
X21932600Y7125000D01*
%TO.N,/SCLout2*%
X18301378Y15937822D02*
X18364200Y15875000D01*
X14929173Y10421673D02*
X15113000Y10605500D01*
X10550500Y10421673D02*
X14929173Y10421673D01*
X18364200Y15875000D02*
X20350000Y15875000D01*
%TO.N,/SDAout2*%
X22148800Y16916400D02*
X22148800Y16459200D01*
X20350000Y17125000D02*
X21940200Y17125000D01*
X21940200Y17125000D02*
X22148800Y16916400D01*
D23*
%TO.N,/XORL1*%
X16443480Y15025763D02*
X16443480Y8800000D01*
X16293489Y8650009D02*
X16293489Y7306511D01*
X16300000Y7300000D02*
X16144000Y7144000D01*
X16144000Y7144000D02*
X14846000Y7144000D01*
X16110516Y15358727D02*
X16443480Y15025763D01*
X16443480Y8800000D02*
X16293489Y8650009D01*
X16293489Y7306511D02*
X16300000Y7300000D01*
%TO.N,/XORL2*%
X13246000Y16994000D02*
X14396000Y15844000D01*
X11946000Y16994000D02*
X13246000Y16994000D01*
X14396000Y15844000D02*
X14846000Y15844000D01*
X11946000Y16994000D02*
X11546000Y16594000D01*
%TD*%
%TA.AperFunction,Conductor*%
%TO.N,GND*%
G36*
X868366Y22482687D02*
G01*
X890873Y22449787D01*
X931241Y22330867D01*
X1050505Y22101275D01*
X1203125Y21892364D01*
X1205104Y21890375D01*
X1331942Y21762871D01*
X1385589Y21708942D01*
X1593698Y21555230D01*
X1596192Y21553918D01*
X1820170Y21436077D01*
X1820177Y21436074D01*
X1822663Y21434766D01*
X2067215Y21350321D01*
X2069976Y21349817D01*
X2069979Y21349816D01*
X2174226Y21330777D01*
X2321726Y21303839D01*
X2324088Y21303715D01*
X2324090Y21303715D01*
X2403558Y21299550D01*
X2403572Y21299550D01*
X2404519Y21299500D01*
X2565782Y21299500D01*
X2637247Y21304936D01*
X2755182Y21313907D01*
X2755188Y21313908D01*
X2757976Y21314120D01*
X3010015Y21372539D01*
X3012622Y21373579D01*
X3012628Y21373581D01*
X3247710Y21467369D01*
X3247716Y21467372D01*
X3250318Y21468410D01*
X3252737Y21469832D01*
X3252741Y21469834D01*
X3470929Y21598101D01*
X3470933Y21598104D01*
X3473354Y21599527D01*
X3673991Y21762871D01*
X3675874Y21764952D01*
X3675881Y21764958D01*
X3749470Y21846258D01*
X3794226Y21869906D01*
X3843711Y21859252D01*
X3874771Y21819282D01*
X3878333Y21796599D01*
X3878333Y20624700D01*
X5900000Y20624700D01*
X5900000Y10827922D01*
X5814736Y10762497D01*
X5811781Y10758646D01*
X5721434Y10640904D01*
X5721432Y10640900D01*
X5718482Y10637056D01*
X5657974Y10490977D01*
X5637336Y10334215D01*
X5637969Y10329407D01*
X5655420Y10196856D01*
X5657974Y10177453D01*
X5718482Y10031374D01*
X5721432Y10027530D01*
X5721434Y10027526D01*
X5811781Y9909784D01*
X5814736Y9905933D01*
X5893549Y9845458D01*
X5900000Y9835332D01*
X5900000Y6930583D01*
X5893548Y6924407D01*
X5773169Y6832037D01*
X5769318Y6829082D01*
X5766363Y6825231D01*
X5676016Y6707489D01*
X5676014Y6707485D01*
X5673064Y6703641D01*
X5612556Y6557562D01*
X5591918Y6400800D01*
X5612556Y6244038D01*
X5673064Y6097959D01*
X5676014Y6094115D01*
X5676016Y6094111D01*
X5766363Y5976369D01*
X5769318Y5972518D01*
X5773169Y5969563D01*
X5890911Y5879216D01*
X5890915Y5879214D01*
X5894759Y5876264D01*
X5899234Y5874410D01*
X5899240Y5874407D01*
X5900000Y5874092D01*
X5900000Y2023200D01*
X4246429Y2023200D01*
X4246429Y593947D01*
X4229116Y546381D01*
X4185279Y521071D01*
X4135429Y529861D01*
X4102356Y570160D01*
X4069662Y666473D01*
X4069662Y666474D01*
X4068759Y669133D01*
X4067464Y671626D01*
X3950788Y896236D01*
X3950788Y896237D01*
X3949495Y898725D01*
X3844121Y1042965D01*
X3798532Y1105368D01*
X3798531Y1105369D01*
X3796875Y1107636D01*
X3707409Y1197572D01*
X3616393Y1289066D01*
X3616390Y1289068D01*
X3614411Y1291058D01*
X3406302Y1444770D01*
X3359787Y1469242D01*
X3179830Y1563923D01*
X3179823Y1563926D01*
X3177337Y1565234D01*
X2932785Y1649679D01*
X2930024Y1650183D01*
X2930021Y1650184D01*
X2825774Y1669223D01*
X2678274Y1696161D01*
X2675912Y1696285D01*
X2675910Y1696285D01*
X2596442Y1700450D01*
X2596428Y1700450D01*
X2595481Y1700500D01*
X2434218Y1700500D01*
X2362753Y1695064D01*
X2244818Y1686093D01*
X2244812Y1686092D01*
X2242024Y1685880D01*
X1989985Y1627461D01*
X1987378Y1626421D01*
X1987372Y1626419D01*
X1752290Y1532631D01*
X1752284Y1532628D01*
X1749682Y1531590D01*
X1747263Y1530168D01*
X1747259Y1530166D01*
X1529071Y1401899D01*
X1529067Y1401896D01*
X1526646Y1400473D01*
X1326009Y1237129D01*
X1152387Y1045315D01*
X1150837Y1042969D01*
X1150834Y1042965D01*
X1057042Y900991D01*
X1009778Y829447D01*
X1008600Y826892D01*
X1008599Y826890D01*
X935872Y669133D01*
X901462Y594491D01*
X900686Y591794D01*
X900682Y591783D01*
X889680Y553541D01*
X859892Y512615D01*
X818565Y500000D01*
X574000Y500000D01*
X526434Y517313D01*
X501124Y561150D01*
X500000Y574000D01*
X500000Y22426000D01*
X517313Y22473566D01*
X561150Y22498876D01*
X574000Y22500000D01*
X820800Y22500000D01*
X868366Y22482687D01*
G37*
%TD.AperFunction*%
%TD*%
%TA.AperFunction,Conductor*%
%TO.N,GND*%
G36*
X15843328Y22482687D02*
G01*
X15868638Y22438850D01*
X15869762Y22426000D01*
X15869762Y20624700D01*
X19330238Y20624700D01*
X19330238Y22426000D01*
X19347551Y22473566D01*
X19391388Y22498876D01*
X19404238Y22500000D01*
X20820800Y22500000D01*
X20868366Y22482687D01*
X20890873Y22449787D01*
X20931241Y22330867D01*
X20932536Y22328374D01*
X21013190Y22173110D01*
X21050505Y22101275D01*
X21052158Y22099013D01*
X21052160Y22099009D01*
X21157596Y21954685D01*
X21203125Y21892364D01*
X21205104Y21890375D01*
X21331942Y21762871D01*
X21385589Y21708942D01*
X21593698Y21555230D01*
X21596192Y21553918D01*
X21820170Y21436077D01*
X21820177Y21436074D01*
X21822663Y21434766D01*
X22067215Y21350321D01*
X22069976Y21349817D01*
X22069979Y21349816D01*
X22174226Y21330777D01*
X22321726Y21303839D01*
X22324088Y21303715D01*
X22324090Y21303715D01*
X22403558Y21299550D01*
X22403572Y21299550D01*
X22404519Y21299500D01*
X22565782Y21299500D01*
X22637247Y21304936D01*
X22755182Y21313907D01*
X22755188Y21313908D01*
X22757976Y21314120D01*
X23010015Y21372539D01*
X23012622Y21373579D01*
X23012628Y21373581D01*
X23247710Y21467369D01*
X23247716Y21467372D01*
X23250318Y21468410D01*
X23252737Y21469832D01*
X23252741Y21469834D01*
X23470929Y21598101D01*
X23470933Y21598104D01*
X23473354Y21599527D01*
X23673991Y21762871D01*
X23847613Y21954685D01*
X23849163Y21957031D01*
X23849166Y21957035D01*
X23988667Y22168199D01*
X23988668Y22168200D01*
X23990222Y22170553D01*
X24062979Y22328374D01*
X24097364Y22402962D01*
X24097365Y22402964D01*
X24098538Y22405509D01*
X24099314Y22408206D01*
X24099318Y22408217D01*
X24110320Y22446459D01*
X24140108Y22487385D01*
X24181435Y22500000D01*
X24426000Y22500000D01*
X24473566Y22482687D01*
X24498876Y22438850D01*
X24500000Y22426000D01*
X24500000Y21199000D01*
X24482687Y21151434D01*
X24438850Y21126124D01*
X24426000Y21125000D01*
X23813048Y21125000D01*
X23803052Y21121362D01*
X23800000Y21116075D01*
X23800000Y19338048D01*
X23803638Y19328052D01*
X23808925Y19325000D01*
X24426000Y19325000D01*
X24473566Y19307687D01*
X24498876Y19263850D01*
X24500000Y19251000D01*
X24500000Y13749000D01*
X24482687Y13701434D01*
X24438850Y13676124D01*
X24426000Y13675000D01*
X23813048Y13675000D01*
X23803052Y13671362D01*
X23800000Y13666075D01*
X23800000Y11888048D01*
X23803638Y11878052D01*
X23808925Y11875000D01*
X24426000Y11875000D01*
X24473566Y11857687D01*
X24498876Y11813850D01*
X24500000Y11801000D01*
X24500000Y11199000D01*
X24482687Y11151434D01*
X24438850Y11126124D01*
X24426000Y11125000D01*
X23813048Y11125000D01*
X23803052Y11121362D01*
X23800000Y11116075D01*
X23800000Y9338048D01*
X23803638Y9328052D01*
X23808925Y9325000D01*
X24426000Y9325000D01*
X24473566Y9307687D01*
X24498876Y9263850D01*
X24500000Y9251000D01*
X24500000Y3749000D01*
X24482687Y3701434D01*
X24438850Y3676124D01*
X24426000Y3675000D01*
X23813048Y3675000D01*
X23803052Y3671362D01*
X23800000Y3666075D01*
X23800000Y1888048D01*
X23803638Y1878052D01*
X23808925Y1875000D01*
X24426000Y1875000D01*
X24473566Y1857687D01*
X24498876Y1813850D01*
X24500000Y1801000D01*
X24500000Y574000D01*
X24482687Y526434D01*
X24438850Y501124D01*
X24426000Y500000D01*
X24179200Y500000D01*
X24131634Y517313D01*
X24109127Y550213D01*
X24069662Y666473D01*
X24069662Y666474D01*
X24068759Y669133D01*
X24067464Y671626D01*
X23950788Y896236D01*
X23950788Y896237D01*
X23949495Y898725D01*
X23844121Y1042965D01*
X23798532Y1105368D01*
X23798531Y1105369D01*
X23796875Y1107636D01*
X23707409Y1197572D01*
X23616393Y1289066D01*
X23616390Y1289068D01*
X23614411Y1291058D01*
X23406302Y1444770D01*
X23287140Y1507464D01*
X23179830Y1563923D01*
X23179823Y1563926D01*
X23177337Y1565234D01*
X22932785Y1649679D01*
X22930024Y1650183D01*
X22930021Y1650184D01*
X22825774Y1669223D01*
X22678274Y1696161D01*
X22675912Y1696285D01*
X22675910Y1696285D01*
X22596442Y1700450D01*
X22596428Y1700450D01*
X22595481Y1700500D01*
X22434218Y1700500D01*
X22362753Y1695064D01*
X22244818Y1686093D01*
X22244812Y1686092D01*
X22242024Y1685880D01*
X21989985Y1627461D01*
X21987378Y1626421D01*
X21987372Y1626419D01*
X21752290Y1532631D01*
X21752284Y1532628D01*
X21749682Y1531590D01*
X21747263Y1530168D01*
X21747259Y1530166D01*
X21529071Y1401899D01*
X21529067Y1401896D01*
X21526646Y1400473D01*
X21326009Y1237129D01*
X21152387Y1045315D01*
X21150837Y1042969D01*
X21150834Y1042965D01*
X21057042Y900991D01*
X21009778Y829447D01*
X21008600Y826892D01*
X21008599Y826890D01*
X20935872Y669133D01*
X20901462Y594491D01*
X20900686Y591794D01*
X20900682Y591783D01*
X20889680Y553541D01*
X20859892Y512615D01*
X20818565Y500000D01*
X14179200Y500000D01*
X14131634Y517313D01*
X14109127Y550213D01*
X14069662Y666473D01*
X14069662Y666474D01*
X14068759Y669133D01*
X14067464Y671626D01*
X13950788Y896236D01*
X13950788Y896237D01*
X13949495Y898725D01*
X13844121Y1042965D01*
X13798532Y1105368D01*
X13798531Y1105369D01*
X13796875Y1107636D01*
X13707409Y1197572D01*
X13616393Y1289066D01*
X13616390Y1289068D01*
X13614411Y1291058D01*
X13406302Y1444770D01*
X13287140Y1507464D01*
X13179830Y1563923D01*
X13179823Y1563926D01*
X13177337Y1565234D01*
X12932785Y1649679D01*
X12930024Y1650183D01*
X12930021Y1650184D01*
X12825774Y1669223D01*
X12678274Y1696161D01*
X12675912Y1696285D01*
X12675910Y1696285D01*
X12596442Y1700450D01*
X12596428Y1700450D01*
X12595481Y1700500D01*
X12434218Y1700500D01*
X12362753Y1695064D01*
X12244818Y1686093D01*
X12244812Y1686092D01*
X12242024Y1685880D01*
X11989985Y1627461D01*
X11987378Y1626421D01*
X11987372Y1626419D01*
X11752290Y1532631D01*
X11752284Y1532628D01*
X11749682Y1531590D01*
X11747263Y1530168D01*
X11747259Y1530166D01*
X11529071Y1401899D01*
X11529067Y1401896D01*
X11526646Y1400473D01*
X11326009Y1237129D01*
X11152387Y1045315D01*
X11150837Y1042969D01*
X11150834Y1042965D01*
X11057042Y900991D01*
X11009778Y829447D01*
X11008600Y826892D01*
X11008599Y826890D01*
X10935872Y669133D01*
X10901462Y594491D01*
X10900687Y591796D01*
X10900683Y591786D01*
X10898687Y584848D01*
X10868898Y543923D01*
X10819772Y531720D01*
X10774296Y553950D01*
X10753572Y605308D01*
X10753572Y2023200D01*
X5900000Y2023200D01*
X5900000Y2032000D01*
X13669118Y2032000D01*
X13669751Y2027192D01*
X13688070Y1888048D01*
X13689756Y1875238D01*
X13750264Y1729159D01*
X13753214Y1725315D01*
X13753216Y1725311D01*
X13810863Y1650184D01*
X13846518Y1603718D01*
X13850369Y1600763D01*
X13968111Y1510416D01*
X13968115Y1510414D01*
X13971959Y1507464D01*
X14118038Y1446956D01*
X14122840Y1446324D01*
X14122843Y1446323D01*
X14269992Y1426951D01*
X14274800Y1426318D01*
X14279608Y1426951D01*
X14426757Y1446323D01*
X14426760Y1446324D01*
X14431562Y1446956D01*
X14577641Y1507464D01*
X14581485Y1510414D01*
X14581489Y1510416D01*
X14699231Y1600763D01*
X14703082Y1603718D01*
X14738737Y1650184D01*
X14796384Y1725311D01*
X14796386Y1725315D01*
X14799336Y1729159D01*
X14859844Y1875238D01*
X14867006Y1929639D01*
X14890379Y1974538D01*
X14940373Y1993980D01*
X17429752Y1993980D01*
X17438449Y1993467D01*
X17450095Y1992089D01*
X17475213Y1989116D01*
X17480655Y1990110D01*
X17480657Y1990110D01*
X17518424Y1997008D01*
X17533722Y1999802D01*
X17536002Y2000182D01*
X17594864Y2009031D01*
X17599704Y2011356D01*
X17600049Y2011440D01*
X17600312Y2011530D01*
X17602532Y2012251D01*
X17602850Y2012349D01*
X17603198Y2012491D01*
X17608475Y2013455D01*
X17661244Y2040866D01*
X17663315Y2041901D01*
X17711994Y2065276D01*
X17711995Y2065277D01*
X17716981Y2067671D01*
X17720925Y2071317D01*
X17721833Y2071859D01*
X17724944Y2073955D01*
X17728690Y2075901D01*
X17733730Y2080205D01*
X17771699Y2118174D01*
X17773794Y2120188D01*
X17812398Y2155873D01*
X17816458Y2159626D01*
X17819236Y2164408D01*
X17821933Y2167775D01*
X17827359Y2173834D01*
X18114335Y2460810D01*
X21800000Y2460810D01*
X21800114Y2457911D01*
X21802603Y2426278D01*
X21803955Y2418879D01*
X21847419Y2269273D01*
X21851088Y2260794D01*
X21929946Y2127453D01*
X21935610Y2120151D01*
X22045151Y2010610D01*
X22052453Y2004946D01*
X22185794Y1926088D01*
X22194273Y1922419D01*
X22343879Y1878955D01*
X22351278Y1877603D01*
X22382911Y1875114D01*
X22385810Y1875000D01*
X23286952Y1875000D01*
X23296948Y1878638D01*
X23300000Y1883925D01*
X23300000Y2511952D01*
X23296362Y2521948D01*
X23291075Y2525000D01*
X21813048Y2525000D01*
X21803052Y2521362D01*
X21800000Y2516075D01*
X21800000Y2460810D01*
X18114335Y2460810D01*
X18691573Y3038048D01*
X21800000Y3038048D01*
X21803638Y3028052D01*
X21808925Y3025000D01*
X23286952Y3025000D01*
X23296948Y3028638D01*
X23300000Y3033925D01*
X23300000Y3661952D01*
X23296362Y3671948D01*
X23291075Y3675000D01*
X22385811Y3675000D01*
X22382911Y3674886D01*
X22351278Y3672397D01*
X22343879Y3671045D01*
X22194273Y3627581D01*
X22185794Y3623912D01*
X22052453Y3545054D01*
X22045151Y3539390D01*
X21935610Y3429849D01*
X21929946Y3422547D01*
X21851088Y3289206D01*
X21847419Y3280727D01*
X21803955Y3131121D01*
X21802603Y3123722D01*
X21800114Y3092089D01*
X21800000Y3089189D01*
X21800000Y3038048D01*
X18691573Y3038048D01*
X19756350Y4102826D01*
X19802226Y4124218D01*
X19808676Y4124500D01*
X21083218Y4124500D01*
X21089363Y4125405D01*
X21146423Y4133804D01*
X21146426Y4133805D01*
X21152112Y4134642D01*
X21157272Y4137175D01*
X21157274Y4137176D01*
X21217867Y4166926D01*
X21250480Y4174500D01*
X21467364Y4174500D01*
X21478798Y4173396D01*
X21480621Y4172820D01*
X21487228Y4172300D01*
X21540930Y4172300D01*
X21543836Y4172243D01*
X21596357Y4170179D01*
X21596358Y4170179D01*
X21601885Y4169962D01*
X21607232Y4171380D01*
X21611517Y4171853D01*
X21619638Y4172300D01*
X22727249Y4172300D01*
X22735946Y4171787D01*
X22746568Y4170530D01*
X22772710Y4167436D01*
X22778152Y4168430D01*
X22778155Y4168430D01*
X22831200Y4178118D01*
X22833493Y4178500D01*
X22886896Y4186529D01*
X22886897Y4186529D01*
X22892362Y4187351D01*
X22897198Y4189674D01*
X22897536Y4189756D01*
X22897800Y4189847D01*
X22900037Y4190573D01*
X22900346Y4190668D01*
X22900696Y4190812D01*
X22905973Y4191775D01*
X22958742Y4219186D01*
X22960813Y4220221D01*
X23009492Y4243596D01*
X23009493Y4243597D01*
X23014479Y4245991D01*
X23018423Y4249637D01*
X23019331Y4250179D01*
X23022442Y4252275D01*
X23026188Y4254221D01*
X23031228Y4258525D01*
X23069198Y4296495D01*
X23071293Y4298509D01*
X23109896Y4334193D01*
X23113956Y4337946D01*
X23116734Y4342728D01*
X23119431Y4346095D01*
X23124857Y4352154D01*
X23410526Y4637823D01*
X23417039Y4643610D01*
X23441766Y4663103D01*
X23441768Y4663105D01*
X23446110Y4666528D01*
X23479926Y4715456D01*
X23481278Y4717348D01*
X23513348Y4760766D01*
X23513350Y4760770D01*
X23516634Y4765216D01*
X23518412Y4770282D01*
X23518597Y4770585D01*
X23518724Y4770845D01*
X23519774Y4772906D01*
X23519936Y4773211D01*
X23520080Y4773555D01*
X23523131Y4777969D01*
X23541063Y4834668D01*
X23541798Y4836871D01*
X23559685Y4887808D01*
X23559685Y4887809D01*
X23561519Y4893031D01*
X23561729Y4898394D01*
X23561987Y4899413D01*
X23562706Y4903103D01*
X23563980Y4907130D01*
X23564500Y4913737D01*
X23564500Y4967439D01*
X23564557Y4970345D01*
X23566621Y5022866D01*
X23566621Y5022867D01*
X23566838Y5028394D01*
X23565420Y5033741D01*
X23564947Y5038026D01*
X23564500Y5046147D01*
X23564500Y7494849D01*
X23565013Y7503546D01*
X23568714Y7534819D01*
X23569364Y7540310D01*
X23565841Y7559602D01*
X23558681Y7598809D01*
X23558300Y7601100D01*
X23550272Y7654491D01*
X23550271Y7654494D01*
X23549449Y7659962D01*
X23547126Y7664801D01*
X23547038Y7665158D01*
X23546942Y7665440D01*
X23546224Y7667650D01*
X23546134Y7667943D01*
X23545990Y7668294D01*
X23545026Y7673573D01*
X23517576Y7726418D01*
X23516595Y7728380D01*
X23490809Y7782079D01*
X23487165Y7786020D01*
X23486626Y7786923D01*
X23484528Y7790037D01*
X23482580Y7793788D01*
X23479841Y7796995D01*
X23479838Y7796999D01*
X23479210Y7797733D01*
X23478275Y7798828D01*
X23440305Y7836798D01*
X23438291Y7838893D01*
X23402607Y7877496D01*
X23398854Y7881556D01*
X23394072Y7884334D01*
X23390705Y7887031D01*
X23384646Y7892457D01*
X23064680Y8212423D01*
X23043639Y8255090D01*
X23031677Y8345957D01*
X23031676Y8345960D01*
X23031044Y8350762D01*
X22970536Y8496841D01*
X22967586Y8500685D01*
X22967584Y8500689D01*
X22877237Y8618431D01*
X22874282Y8622282D01*
X22865999Y8628638D01*
X22752689Y8715584D01*
X22752685Y8715586D01*
X22748841Y8718536D01*
X22602762Y8779044D01*
X22597960Y8779676D01*
X22597957Y8779677D01*
X22540891Y8787189D01*
X22507089Y8791639D01*
X22464423Y8812680D01*
X22222654Y9054449D01*
X22201262Y9100325D01*
X22200980Y9106775D01*
X22200980Y9271911D01*
X22218293Y9319477D01*
X22262130Y9344787D01*
X22295624Y9342973D01*
X22343876Y9328955D01*
X22351278Y9327603D01*
X22382911Y9325114D01*
X22385810Y9325000D01*
X23286952Y9325000D01*
X23296948Y9328638D01*
X23300000Y9333925D01*
X23300000Y11111952D01*
X23296362Y11121948D01*
X23291075Y11125000D01*
X22385811Y11125000D01*
X22382911Y11124886D01*
X22351278Y11122397D01*
X22343876Y11121045D01*
X22295624Y11107027D01*
X22245117Y11110382D01*
X22208582Y11145418D01*
X22200980Y11178089D01*
X22200980Y11821911D01*
X22218293Y11869477D01*
X22262130Y11894787D01*
X22295624Y11892973D01*
X22343876Y11878955D01*
X22351278Y11877603D01*
X22382911Y11875114D01*
X22385810Y11875000D01*
X23286952Y11875000D01*
X23296948Y11878638D01*
X23300000Y11883925D01*
X23300000Y13661952D01*
X23296362Y13671948D01*
X23291075Y13675000D01*
X22385811Y13675000D01*
X22382911Y13674886D01*
X22351278Y13672397D01*
X22343876Y13671045D01*
X22295624Y13657027D01*
X22245117Y13660382D01*
X22208582Y13695418D01*
X22200980Y13728089D01*
X22200980Y14100500D01*
X22218293Y14148066D01*
X22262130Y14173376D01*
X22274980Y14174500D01*
X22793271Y14174500D01*
X22801968Y14173987D01*
X22813614Y14172609D01*
X22838732Y14169636D01*
X22844174Y14170630D01*
X22844177Y14170630D01*
X22897222Y14180318D01*
X22899515Y14180700D01*
X22952918Y14188729D01*
X22952919Y14188729D01*
X22958384Y14189551D01*
X22963220Y14191874D01*
X22963558Y14191956D01*
X22963822Y14192047D01*
X22966059Y14192773D01*
X22966368Y14192868D01*
X22966718Y14193012D01*
X22971995Y14193975D01*
X23024766Y14221387D01*
X23026838Y14222422D01*
X23075512Y14245795D01*
X23075514Y14245796D01*
X23080501Y14248191D01*
X23084445Y14251837D01*
X23085353Y14252379D01*
X23088464Y14254475D01*
X23092210Y14256421D01*
X23097250Y14260725D01*
X23135220Y14298695D01*
X23137315Y14300709D01*
X23175918Y14336393D01*
X23179978Y14340146D01*
X23182756Y14344928D01*
X23185453Y14348295D01*
X23190879Y14354354D01*
X23447237Y14610712D01*
X23453750Y14616499D01*
X23478477Y14635992D01*
X23478479Y14635994D01*
X23482821Y14639417D01*
X23516637Y14688345D01*
X23517989Y14690237D01*
X23550059Y14733655D01*
X23550061Y14733659D01*
X23553345Y14738105D01*
X23555123Y14743171D01*
X23555308Y14743474D01*
X23555435Y14743734D01*
X23556485Y14745795D01*
X23556647Y14746100D01*
X23556791Y14746444D01*
X23559842Y14750858D01*
X23577774Y14807557D01*
X23578509Y14809760D01*
X23596396Y14860697D01*
X23596396Y14860698D01*
X23598230Y14865920D01*
X23598440Y14871283D01*
X23598698Y14872302D01*
X23599417Y14875992D01*
X23600691Y14880019D01*
X23601211Y14886626D01*
X23601211Y14940328D01*
X23601268Y14943234D01*
X23603332Y14995755D01*
X23603332Y14995756D01*
X23603549Y15001283D01*
X23602131Y15006630D01*
X23601658Y15010915D01*
X23601211Y15019036D01*
X23601211Y17358138D01*
X23601724Y17366835D01*
X23603984Y17385935D01*
X23606075Y17403599D01*
X23604712Y17411064D01*
X23595392Y17462098D01*
X23595011Y17464389D01*
X23586983Y17517780D01*
X23586982Y17517783D01*
X23586160Y17523251D01*
X23583837Y17528090D01*
X23583749Y17528447D01*
X23583653Y17528729D01*
X23582935Y17530939D01*
X23582845Y17531232D01*
X23582701Y17531583D01*
X23581737Y17536862D01*
X23554287Y17589707D01*
X23553306Y17591669D01*
X23527520Y17645368D01*
X23523876Y17649309D01*
X23523337Y17650212D01*
X23521239Y17653326D01*
X23519291Y17657077D01*
X23516552Y17660284D01*
X23516549Y17660288D01*
X23515921Y17661022D01*
X23514986Y17662117D01*
X23477016Y17700087D01*
X23475002Y17702182D01*
X23439318Y17740785D01*
X23435565Y17744845D01*
X23430783Y17747623D01*
X23427416Y17750320D01*
X23421357Y17755746D01*
X23064680Y18112423D01*
X23043639Y18155090D01*
X23031677Y18245957D01*
X23031676Y18245960D01*
X23031044Y18250762D01*
X22970536Y18396841D01*
X22967586Y18400685D01*
X22967584Y18400689D01*
X22877237Y18518431D01*
X22874282Y18522282D01*
X22870431Y18525237D01*
X22752689Y18615584D01*
X22752685Y18615586D01*
X22748841Y18618536D01*
X22602762Y18679044D01*
X22597960Y18679676D01*
X22597957Y18679677D01*
X22450808Y18699049D01*
X22446000Y18699682D01*
X22441192Y18699049D01*
X22294043Y18679677D01*
X22294040Y18679676D01*
X22289238Y18679044D01*
X22143159Y18618536D01*
X22139315Y18615586D01*
X22139311Y18615584D01*
X22021569Y18525237D01*
X22017718Y18522282D01*
X22014763Y18518431D01*
X21924416Y18400689D01*
X21924414Y18400685D01*
X21921464Y18396841D01*
X21860956Y18250762D01*
X21860324Y18245960D01*
X21860323Y18245957D01*
X21845082Y18130185D01*
X21840318Y18094000D01*
X21840951Y18089192D01*
X21859666Y17947039D01*
X21860956Y17937238D01*
X21921464Y17791159D01*
X21924414Y17787315D01*
X21924416Y17787311D01*
X21981762Y17712577D01*
X22017718Y17665718D01*
X22021569Y17662763D01*
X22139311Y17572416D01*
X22139315Y17572414D01*
X22143159Y17569464D01*
X22289238Y17508956D01*
X22294040Y17508324D01*
X22294043Y17508323D01*
X22351109Y17500811D01*
X22384911Y17496361D01*
X22427577Y17475320D01*
X22678537Y17224360D01*
X22699929Y17178484D01*
X22700211Y17172034D01*
X22700211Y16942109D01*
X22682898Y16894543D01*
X22639061Y16869233D01*
X22589211Y16878023D01*
X22577366Y16887112D01*
X22577082Y16887482D01*
X22462858Y16975129D01*
X22439083Y17013889D01*
X22437719Y17013363D01*
X22435260Y17019736D01*
X22434009Y17026453D01*
X22430424Y17032268D01*
X22430423Y17032272D01*
X22419070Y17050690D01*
X22414074Y17060307D01*
X22404899Y17081662D01*
X22404898Y17081664D01*
X22402836Y17086463D01*
X22398822Y17091349D01*
X22392391Y17097780D01*
X22381723Y17111276D01*
X22378853Y17115932D01*
X22375268Y17121748D01*
X22350688Y17140439D01*
X22343154Y17147017D01*
X22191270Y17298901D01*
X22187685Y17303054D01*
X22185625Y17307269D01*
X22149018Y17341227D01*
X22147019Y17343152D01*
X22132923Y17357248D01*
X22130112Y17359176D01*
X22127493Y17361353D01*
X22127603Y17361485D01*
X22124427Y17364039D01*
X22108564Y17378754D01*
X22108563Y17378755D01*
X22103554Y17383401D01*
X22097212Y17385931D01*
X22097206Y17385935D01*
X22090277Y17388699D01*
X22075841Y17396407D01*
X22069693Y17400624D01*
X22069692Y17400625D01*
X22064054Y17404492D01*
X22057404Y17406070D01*
X22057402Y17406071D01*
X22036360Y17411064D01*
X22026024Y17414332D01*
X22024132Y17415087D01*
X21999578Y17424883D01*
X21993285Y17425500D01*
X21984188Y17425500D01*
X21967101Y17427500D01*
X21961785Y17428762D01*
X21961783Y17428762D01*
X21955134Y17430340D01*
X21934266Y17427500D01*
X21924537Y17426176D01*
X21914558Y17425500D01*
X21412707Y17425500D01*
X21365141Y17442813D01*
X21346281Y17466886D01*
X21343885Y17471766D01*
X21338932Y17481855D01*
X21334603Y17486176D01*
X21334602Y17486178D01*
X21260679Y17559972D01*
X21260677Y17559973D01*
X21256350Y17564293D01*
X21236428Y17574031D01*
X21201297Y17610474D01*
X21197811Y17660973D01*
X21227600Y17701898D01*
X21241685Y17709317D01*
X21317848Y17739472D01*
X21326555Y17744378D01*
X21438548Y17829386D01*
X21445614Y17836452D01*
X21530622Y17948445D01*
X21535531Y17957158D01*
X21587394Y18088149D01*
X21589717Y18097295D01*
X21591503Y18112047D01*
X21589092Y18122406D01*
X21585637Y18125000D01*
X19119978Y18125000D01*
X19109982Y18121362D01*
X19107823Y18117622D01*
X19110283Y18097295D01*
X19112606Y18088149D01*
X19164469Y17957158D01*
X19169378Y17948445D01*
X19254386Y17836452D01*
X19261452Y17829386D01*
X19373445Y17744378D01*
X19382158Y17739469D01*
X19458393Y17709285D01*
X19496246Y17675678D01*
X19503641Y17625602D01*
X19477117Y17582489D01*
X19463769Y17574058D01*
X19443145Y17563932D01*
X19438824Y17559603D01*
X19438822Y17559602D01*
X19365028Y17485679D01*
X19360707Y17481350D01*
X19358020Y17475853D01*
X19334385Y17427500D01*
X19309464Y17376518D01*
X19299500Y17308218D01*
X19299500Y16941782D01*
X19299895Y16939099D01*
X19308804Y16878577D01*
X19308805Y16878574D01*
X19309642Y16872888D01*
X19312175Y16867728D01*
X19312176Y16867726D01*
X19333008Y16825297D01*
X19361068Y16768145D01*
X19365397Y16763824D01*
X19365398Y16763822D01*
X19439321Y16690028D01*
X19443650Y16685707D01*
X19449147Y16683020D01*
X19542934Y16637176D01*
X19548482Y16634464D01*
X19616782Y16624500D01*
X21083218Y16624500D01*
X21089363Y16625405D01*
X21146423Y16633804D01*
X21146426Y16633805D01*
X21152112Y16634642D01*
X21157272Y16637175D01*
X21157274Y16637176D01*
X21203117Y16659684D01*
X21256855Y16686068D01*
X21261176Y16690397D01*
X21261178Y16690398D01*
X21298133Y16727418D01*
X21339293Y16768650D01*
X21341978Y16774143D01*
X21341983Y16774150D01*
X21346307Y16782997D01*
X21382749Y16818129D01*
X21412789Y16824500D01*
X21539386Y16824500D01*
X21586952Y16807187D01*
X21612262Y16763350D01*
X21607753Y16722182D01*
X21567259Y16624420D01*
X21563756Y16615962D01*
X21563124Y16611160D01*
X21563123Y16611157D01*
X21547957Y16495957D01*
X21543118Y16459200D01*
X21543751Y16454392D01*
X21562813Y16309602D01*
X21563756Y16302438D01*
X21624264Y16156359D01*
X21627214Y16152515D01*
X21627216Y16152511D01*
X21692364Y16067609D01*
X21720518Y16030918D01*
X21724369Y16027963D01*
X21842111Y15937616D01*
X21842115Y15937614D01*
X21845959Y15934664D01*
X21992038Y15874156D01*
X21996840Y15873524D01*
X21996843Y15873523D01*
X22143992Y15854151D01*
X22148800Y15853518D01*
X22153608Y15854151D01*
X22300757Y15873523D01*
X22300760Y15873524D01*
X22305562Y15874156D01*
X22451641Y15934664D01*
X22455485Y15937614D01*
X22455489Y15937616D01*
X22573231Y16027963D01*
X22577082Y16030918D01*
X22577540Y16030321D01*
X22619761Y16050009D01*
X22668656Y16036908D01*
X22697690Y15995444D01*
X22700211Y15976291D01*
X22700211Y15168544D01*
X22682898Y15120978D01*
X22678537Y15116218D01*
X22659493Y15097174D01*
X22613617Y15075782D01*
X22607167Y15075500D01*
X21791420Y15075500D01*
X21790386Y15075541D01*
X21786225Y15076505D01*
X21774643Y15075685D01*
X21769418Y15075500D01*
X21758761Y15075500D01*
X21755855Y15075557D01*
X21751504Y15075728D01*
X21731730Y15076505D01*
X21703330Y15077621D01*
X21697806Y15077838D01*
X21692464Y15076422D01*
X21688164Y15075947D01*
X21680046Y15075500D01*
X21250542Y15075500D01*
X21218045Y15083017D01*
X21156678Y15113014D01*
X21156677Y15113014D01*
X21151518Y15115536D01*
X21083218Y15125500D01*
X19616782Y15125500D01*
X19614099Y15125105D01*
X19553577Y15116196D01*
X19553574Y15116195D01*
X19547888Y15115358D01*
X19542728Y15112825D01*
X19542726Y15112824D01*
X19510851Y15097174D01*
X19443145Y15063932D01*
X19438824Y15059603D01*
X19438822Y15059602D01*
X19365028Y14985679D01*
X19360707Y14981350D01*
X19358020Y14975853D01*
X19315115Y14888078D01*
X19309464Y14876518D01*
X19299500Y14808218D01*
X19299500Y14441782D01*
X19299895Y14439099D01*
X19308804Y14378577D01*
X19308805Y14378574D01*
X19309642Y14372888D01*
X19312175Y14367728D01*
X19312176Y14367726D01*
X19325717Y14340146D01*
X19361068Y14268145D01*
X19365397Y14263824D01*
X19365398Y14263822D01*
X19437390Y14191956D01*
X19443650Y14185707D01*
X19449147Y14183020D01*
X19542934Y14137176D01*
X19548482Y14134464D01*
X19616782Y14124500D01*
X21083218Y14124500D01*
X21089363Y14125405D01*
X21146423Y14133804D01*
X21146426Y14133805D01*
X21152112Y14134642D01*
X21157272Y14137175D01*
X21157274Y14137176D01*
X21193367Y14154897D01*
X21243695Y14160319D01*
X21285733Y14132123D01*
X21299980Y14088471D01*
X21299980Y9126492D01*
X21282667Y9078926D01*
X21238830Y9053616D01*
X21198740Y9057688D01*
X21186849Y9062396D01*
X21177707Y9064717D01*
X21094948Y9074732D01*
X21090500Y9075000D01*
X20613048Y9075000D01*
X20603052Y9071362D01*
X20600000Y9066075D01*
X20600000Y8199000D01*
X20582687Y8151434D01*
X20538850Y8126124D01*
X20526000Y8125000D01*
X19119978Y8125000D01*
X19109982Y8121362D01*
X19107823Y8117622D01*
X19110283Y8097295D01*
X19112606Y8088149D01*
X19164469Y7957158D01*
X19169378Y7948445D01*
X19254386Y7836452D01*
X19261452Y7829386D01*
X19373445Y7744378D01*
X19382158Y7739469D01*
X19458393Y7709285D01*
X19496246Y7675678D01*
X19503641Y7625602D01*
X19477117Y7582489D01*
X19463769Y7574058D01*
X19443145Y7563932D01*
X19438824Y7559603D01*
X19438822Y7559602D01*
X19365028Y7485679D01*
X19360707Y7481350D01*
X19358020Y7475853D01*
X19334385Y7427500D01*
X19309464Y7376518D01*
X19299500Y7308218D01*
X19299500Y6941782D01*
X19300418Y6935549D01*
X19301745Y6926532D01*
X19291545Y6876951D01*
X19251861Y6845527D01*
X19201262Y6846963D01*
X19183486Y6857046D01*
X19182315Y6857945D01*
X19119628Y6906046D01*
X18973549Y6966554D01*
X18968747Y6967186D01*
X18968744Y6967187D01*
X18821595Y6986559D01*
X18816787Y6987192D01*
X18811979Y6986559D01*
X18664830Y6967187D01*
X18664827Y6967186D01*
X18660025Y6966554D01*
X18513946Y6906046D01*
X18510102Y6903096D01*
X18510098Y6903094D01*
X18399486Y6818218D01*
X18388505Y6809792D01*
X18385550Y6805941D01*
X18295203Y6688199D01*
X18295201Y6688195D01*
X18292251Y6684351D01*
X18231743Y6538272D01*
X18231111Y6533470D01*
X18231110Y6533467D01*
X18214947Y6410695D01*
X18211105Y6381510D01*
X18211738Y6376702D01*
X18228571Y6248843D01*
X18231743Y6224748D01*
X18292251Y6078669D01*
X18295201Y6074825D01*
X18295203Y6074821D01*
X18351795Y6001069D01*
X18388505Y5953228D01*
X18392356Y5950273D01*
X18510098Y5859926D01*
X18510102Y5859924D01*
X18513946Y5856974D01*
X18660025Y5796466D01*
X18664827Y5795834D01*
X18664830Y5795833D01*
X18811979Y5776461D01*
X18816787Y5775828D01*
X18940294Y5792088D01*
X18989713Y5781132D01*
X19002279Y5771047D01*
X19072230Y5701095D01*
X19075812Y5696946D01*
X19077872Y5692731D01*
X19082884Y5688082D01*
X19114465Y5658786D01*
X19116465Y5656860D01*
X19130573Y5642752D01*
X19133381Y5640826D01*
X19136007Y5638644D01*
X19135891Y5638505D01*
X19139073Y5635958D01*
X19152523Y5623482D01*
X19159943Y5616599D01*
X19173220Y5611302D01*
X19187656Y5603594D01*
X19199443Y5595508D01*
X19206093Y5593930D01*
X19206095Y5593929D01*
X19227137Y5588936D01*
X19237473Y5585668D01*
X19263919Y5575117D01*
X19270212Y5574500D01*
X19279309Y5574500D01*
X19296392Y5572501D01*
X19305437Y5570354D01*
X19347718Y5542525D01*
X19354771Y5530969D01*
X19358121Y5524147D01*
X19361068Y5518145D01*
X19365397Y5513824D01*
X19365398Y5513822D01*
X19439321Y5440028D01*
X19443650Y5435707D01*
X19449147Y5433020D01*
X19542934Y5387176D01*
X19548482Y5384464D01*
X19616782Y5374500D01*
X21083218Y5374500D01*
X21089363Y5375405D01*
X21146423Y5383804D01*
X21146426Y5383805D01*
X21152112Y5384642D01*
X21157272Y5387175D01*
X21157274Y5387176D01*
X21212655Y5414367D01*
X21256855Y5436068D01*
X21261176Y5440397D01*
X21261178Y5440398D01*
X21334972Y5514321D01*
X21334973Y5514323D01*
X21339293Y5518650D01*
X21364567Y5570355D01*
X21388012Y5618318D01*
X21388012Y5618319D01*
X21390536Y5623482D01*
X21400500Y5691782D01*
X21400500Y6058218D01*
X21398056Y6074821D01*
X21391196Y6121423D01*
X21391195Y6121426D01*
X21390358Y6127112D01*
X21338932Y6231855D01*
X21334603Y6236176D01*
X21334602Y6236178D01*
X21260679Y6309972D01*
X21260677Y6309973D01*
X21256350Y6314293D01*
X21186358Y6348506D01*
X21156682Y6363012D01*
X21156681Y6363012D01*
X21151518Y6365536D01*
X21083218Y6375500D01*
X19616782Y6375500D01*
X19614099Y6375105D01*
X19553577Y6366196D01*
X19553574Y6366195D01*
X19547888Y6365358D01*
X19542728Y6362825D01*
X19542723Y6362823D01*
X19524606Y6353928D01*
X19474279Y6348506D01*
X19432240Y6376702D01*
X19418627Y6410695D01*
X19402464Y6533467D01*
X19402463Y6533470D01*
X19401831Y6538272D01*
X19389484Y6568081D01*
X19387276Y6618649D01*
X19418090Y6658808D01*
X19467509Y6669765D01*
X19490345Y6662882D01*
X19548482Y6634464D01*
X19616782Y6624500D01*
X21083218Y6624500D01*
X21089363Y6625405D01*
X21146423Y6633804D01*
X21146426Y6633805D01*
X21152112Y6634642D01*
X21157272Y6637175D01*
X21157274Y6637176D01*
X21215103Y6665569D01*
X21256855Y6686068D01*
X21261176Y6690397D01*
X21261178Y6690398D01*
X21334002Y6763350D01*
X21339293Y6768650D01*
X21341978Y6774143D01*
X21341983Y6774150D01*
X21346307Y6782997D01*
X21382749Y6818129D01*
X21412789Y6824500D01*
X21553345Y6824500D01*
X21600911Y6807187D01*
X21626221Y6763350D01*
X21621712Y6722182D01*
X21578828Y6618649D01*
X21563756Y6582262D01*
X21563124Y6577460D01*
X21563123Y6577457D01*
X21544565Y6436495D01*
X21543118Y6425500D01*
X21543751Y6420692D01*
X21562299Y6279807D01*
X21563756Y6268738D01*
X21624264Y6122659D01*
X21627214Y6118815D01*
X21627216Y6118811D01*
X21660971Y6074821D01*
X21720518Y5997218D01*
X21724369Y5994263D01*
X21842111Y5903916D01*
X21842115Y5903914D01*
X21845959Y5900964D01*
X21992038Y5840456D01*
X21996840Y5839824D01*
X21996843Y5839823D01*
X22143992Y5820451D01*
X22148800Y5819818D01*
X22153608Y5820451D01*
X22300757Y5839823D01*
X22300760Y5839824D01*
X22305562Y5840456D01*
X22451641Y5900964D01*
X22455485Y5903914D01*
X22455489Y5903916D01*
X22544452Y5972180D01*
X22592728Y5987402D01*
X22639494Y5968030D01*
X22662867Y5923131D01*
X22663500Y5913472D01*
X22663500Y5195655D01*
X22646187Y5148089D01*
X22641826Y5143329D01*
X22593471Y5094974D01*
X22547595Y5073582D01*
X22541145Y5073300D01*
X21634218Y5073300D01*
X21622784Y5074404D01*
X21620961Y5074980D01*
X21614354Y5075500D01*
X21560652Y5075500D01*
X21557746Y5075557D01*
X21505221Y5077621D01*
X21499697Y5077838D01*
X21494355Y5076422D01*
X21490055Y5075947D01*
X21481937Y5075500D01*
X21250542Y5075500D01*
X21218045Y5083017D01*
X21156678Y5113014D01*
X21156677Y5113014D01*
X21151518Y5115536D01*
X21083218Y5125500D01*
X19616782Y5125500D01*
X19614099Y5125105D01*
X19553577Y5116196D01*
X19553574Y5116195D01*
X19547888Y5115358D01*
X19542728Y5112825D01*
X19542726Y5112824D01*
X19506370Y5094974D01*
X19443145Y5063932D01*
X19438821Y5059600D01*
X19438819Y5059599D01*
X19368963Y4989622D01*
X19368680Y4989349D01*
X19368593Y4989275D01*
X19330624Y4951306D01*
X19328529Y4949292D01*
X19285865Y4909854D01*
X19283087Y4905072D01*
X19280390Y4901705D01*
X19274964Y4895646D01*
X17295973Y2916654D01*
X17250097Y2895262D01*
X17243647Y2894980D01*
X14718431Y2894980D01*
X14709734Y2895493D01*
X14691170Y2897690D01*
X14672970Y2899844D01*
X14667533Y2898851D01*
X14667531Y2898851D01*
X14614471Y2889161D01*
X14612180Y2888780D01*
X14558789Y2880752D01*
X14558786Y2880751D01*
X14553318Y2879929D01*
X14548479Y2877606D01*
X14548122Y2877518D01*
X14547840Y2877422D01*
X14545630Y2876704D01*
X14545337Y2876614D01*
X14544986Y2876470D01*
X14539707Y2875506D01*
X14486862Y2848056D01*
X14484900Y2847075D01*
X14431201Y2821289D01*
X14427260Y2817645D01*
X14426357Y2817106D01*
X14423243Y2815008D01*
X14419492Y2813060D01*
X14416285Y2810321D01*
X14416281Y2810318D01*
X14415767Y2809878D01*
X14414452Y2808755D01*
X14376482Y2770785D01*
X14374387Y2768771D01*
X14331724Y2729334D01*
X14328946Y2724552D01*
X14326249Y2721185D01*
X14320823Y2715126D01*
X14256377Y2650680D01*
X14213711Y2629639D01*
X14179909Y2625189D01*
X14122843Y2617677D01*
X14122840Y2617676D01*
X14118038Y2617044D01*
X13971959Y2556536D01*
X13968115Y2553586D01*
X13968111Y2553584D01*
X13850369Y2463237D01*
X13846518Y2460282D01*
X13843563Y2456431D01*
X13753216Y2338689D01*
X13753214Y2338685D01*
X13750264Y2334841D01*
X13689756Y2188762D01*
X13689124Y2183960D01*
X13689123Y2183957D01*
X13674267Y2071108D01*
X13669118Y2032000D01*
X5900000Y2032000D01*
X5900000Y5874093D01*
X6040838Y5815756D01*
X6045640Y5815124D01*
X6045643Y5815123D01*
X6192792Y5795751D01*
X6197600Y5795118D01*
X6202408Y5795751D01*
X6349557Y5815123D01*
X6349560Y5815124D01*
X6354362Y5815756D01*
X6500441Y5876264D01*
X6504285Y5879214D01*
X6504289Y5879216D01*
X6622031Y5969563D01*
X6625882Y5972518D01*
X6637303Y5987402D01*
X6719184Y6094111D01*
X6719186Y6094115D01*
X6722136Y6097959D01*
X6782644Y6244038D01*
X6785307Y6264260D01*
X6802649Y6395992D01*
X6803282Y6400800D01*
X6800030Y6425500D01*
X6783277Y6552757D01*
X6783276Y6552760D01*
X6782644Y6557562D01*
X6722136Y6703641D01*
X6719186Y6707485D01*
X6719184Y6707489D01*
X6628837Y6825231D01*
X6625882Y6829082D01*
X6552451Y6885427D01*
X6525254Y6928117D01*
X6523500Y6944134D01*
X6523500Y9756030D01*
X6540813Y9803596D01*
X6552452Y9814738D01*
X6583399Y9838484D01*
X6671300Y9905933D01*
X6674255Y9909784D01*
X6747135Y10004763D01*
X6789827Y10031961D01*
X6805843Y10033715D01*
X7101445Y10033715D01*
X7149011Y10016402D01*
X7160153Y10004763D01*
X7210792Y9938769D01*
X7213747Y9934918D01*
X7217598Y9931963D01*
X7335340Y9841616D01*
X7335344Y9841614D01*
X7339188Y9838664D01*
X7485267Y9778156D01*
X7490069Y9777524D01*
X7490072Y9777523D01*
X7637221Y9758151D01*
X7642029Y9757518D01*
X7646837Y9758151D01*
X7793986Y9777523D01*
X7793989Y9777524D01*
X7798791Y9778156D01*
X7944870Y9838664D01*
X7948714Y9841614D01*
X7948718Y9841616D01*
X8066460Y9931963D01*
X8070311Y9934918D01*
X8073266Y9938769D01*
X8163613Y10056511D01*
X8163615Y10056515D01*
X8166565Y10060359D01*
X8227073Y10206438D01*
X8247711Y10363200D01*
X8240013Y10421673D01*
X9944818Y10421673D01*
X9945451Y10416865D01*
X9959897Y10307138D01*
X9965456Y10264911D01*
X10025964Y10118832D01*
X10028914Y10114988D01*
X10028916Y10114984D01*
X10096025Y10027526D01*
X10122218Y9993391D01*
X10126069Y9990436D01*
X10243811Y9900089D01*
X10243815Y9900087D01*
X10247659Y9897137D01*
X10393738Y9836629D01*
X10398540Y9835997D01*
X10398543Y9835996D01*
X10545692Y9816624D01*
X10550500Y9815991D01*
X10555308Y9816624D01*
X10702457Y9835996D01*
X10702460Y9835997D01*
X10707262Y9836629D01*
X10853341Y9897137D01*
X10857185Y9900087D01*
X10857189Y9900089D01*
X10974931Y9990436D01*
X10978782Y9993391D01*
X11054616Y10092221D01*
X11097309Y10119419D01*
X11113325Y10121173D01*
X14732638Y10121173D01*
X14777684Y10105883D01*
X14810159Y10080964D01*
X14956238Y10020456D01*
X14961040Y10019824D01*
X14961043Y10019823D01*
X15108192Y10000451D01*
X15113000Y9999818D01*
X15117808Y10000451D01*
X15264957Y10019823D01*
X15264960Y10019824D01*
X15269762Y10020456D01*
X15415841Y10080964D01*
X15419685Y10083914D01*
X15419689Y10083916D01*
X15537431Y10174263D01*
X15541282Y10177218D01*
X15605135Y10260433D01*
X15634584Y10298811D01*
X15634586Y10298815D01*
X15637536Y10302659D01*
X15698044Y10448738D01*
X15702973Y10486172D01*
X15718049Y10600692D01*
X15718682Y10605500D01*
X15710712Y10666041D01*
X15698677Y10757457D01*
X15698676Y10757460D01*
X15698044Y10762262D01*
X15637536Y10908341D01*
X15634586Y10912185D01*
X15634584Y10912189D01*
X15544237Y11029931D01*
X15541282Y11033782D01*
X15537431Y11036737D01*
X15419689Y11127084D01*
X15419685Y11127086D01*
X15415841Y11130036D01*
X15269762Y11190544D01*
X15264960Y11191176D01*
X15264957Y11191177D01*
X15117808Y11210549D01*
X15113000Y11211182D01*
X15108192Y11210549D01*
X14961043Y11191177D01*
X14961040Y11191176D01*
X14956238Y11190544D01*
X14810159Y11130036D01*
X14806315Y11127086D01*
X14806311Y11127084D01*
X14688569Y11036737D01*
X14684718Y11033782D01*
X14681763Y11029931D01*
X14591416Y10912189D01*
X14591414Y10912185D01*
X14588464Y10908341D01*
X14567923Y10858751D01*
X14530272Y10767854D01*
X14496074Y10730534D01*
X14461905Y10722173D01*
X11113325Y10722173D01*
X11065759Y10739486D01*
X11054617Y10751125D01*
X10981737Y10846104D01*
X10978782Y10849955D01*
X10929545Y10887736D01*
X10857189Y10943257D01*
X10857185Y10943259D01*
X10853341Y10946209D01*
X10707262Y11006717D01*
X10702460Y11007349D01*
X10702457Y11007350D01*
X10555308Y11026722D01*
X10550500Y11027355D01*
X10545692Y11026722D01*
X10398543Y11007350D01*
X10398540Y11007349D01*
X10393738Y11006717D01*
X10247659Y10946209D01*
X10243815Y10943259D01*
X10243811Y10943257D01*
X10171455Y10887736D01*
X10122218Y10849955D01*
X10119263Y10846104D01*
X10028916Y10728362D01*
X10028914Y10728358D01*
X10025964Y10724514D01*
X9965456Y10578435D01*
X9964824Y10573633D01*
X9964823Y10573630D01*
X9953942Y10490977D01*
X9944818Y10421673D01*
X8240013Y10421673D01*
X8239380Y10426481D01*
X8227706Y10515157D01*
X8227705Y10515160D01*
X8227073Y10519962D01*
X8166565Y10666041D01*
X8163615Y10669885D01*
X8163613Y10669889D01*
X8073266Y10787631D01*
X8070311Y10791482D01*
X8066460Y10794437D01*
X7948718Y10884784D01*
X7948714Y10884786D01*
X7944870Y10887736D01*
X7798791Y10948244D01*
X7793989Y10948876D01*
X7793986Y10948877D01*
X7646837Y10968249D01*
X7642029Y10968882D01*
X7637221Y10968249D01*
X7490072Y10948877D01*
X7490069Y10948876D01*
X7485267Y10948244D01*
X7339188Y10887736D01*
X7335344Y10884786D01*
X7335340Y10884784D01*
X7217598Y10794437D01*
X7213747Y10791482D01*
X7117493Y10666041D01*
X7116056Y10667144D01*
X7082715Y10639175D01*
X7057414Y10634715D01*
X6805843Y10634715D01*
X6758277Y10652028D01*
X6747135Y10663667D01*
X6674255Y10758646D01*
X6671300Y10762497D01*
X6629675Y10794437D01*
X6549707Y10855799D01*
X6549703Y10855801D01*
X6545859Y10858751D01*
X6399780Y10919259D01*
X6394978Y10919891D01*
X6394975Y10919892D01*
X6247826Y10939264D01*
X6243018Y10939897D01*
X6238210Y10939264D01*
X6091061Y10919892D01*
X6091058Y10919891D01*
X6086256Y10919259D01*
X5940177Y10858751D01*
X5936333Y10855801D01*
X5936329Y10855799D01*
X5900000Y10827923D01*
X5900000Y15544800D01*
X9960718Y15544800D01*
X9961351Y15539992D01*
X9979099Y15405184D01*
X9981356Y15388038D01*
X10041864Y15241959D01*
X10044814Y15238115D01*
X10044816Y15238111D01*
X10123020Y15136194D01*
X10138118Y15116518D01*
X10141969Y15113563D01*
X10259711Y15023216D01*
X10259715Y15023214D01*
X10263559Y15020264D01*
X10409638Y14959756D01*
X10414440Y14959124D01*
X10414443Y14959123D01*
X10561592Y14939751D01*
X10566400Y14939118D01*
X10689907Y14955378D01*
X10739326Y14944422D01*
X10751892Y14934337D01*
X11466130Y14220099D01*
X11469715Y14215946D01*
X11471775Y14211731D01*
X11499829Y14185707D01*
X11508381Y14177774D01*
X11510381Y14175848D01*
X11524477Y14161752D01*
X11527288Y14159824D01*
X11529907Y14157647D01*
X11529797Y14157515D01*
X11532973Y14154961D01*
X11553846Y14135599D01*
X11560188Y14133069D01*
X11560194Y14133065D01*
X11567123Y14130301D01*
X11581559Y14122593D01*
X11587707Y14118376D01*
X11593346Y14114508D01*
X11599996Y14112930D01*
X11599998Y14112929D01*
X11621040Y14107936D01*
X11631376Y14104668D01*
X11657822Y14094117D01*
X11664115Y14093500D01*
X11673212Y14093500D01*
X11690299Y14091500D01*
X11695615Y14090238D01*
X11695617Y14090238D01*
X11702266Y14088660D01*
X11732863Y14092824D01*
X11742842Y14093500D01*
X14429628Y14093500D01*
X14477194Y14076187D01*
X14497995Y14047818D01*
X14519607Y13995640D01*
X14519610Y13995634D01*
X14521464Y13991159D01*
X14524414Y13987315D01*
X14524416Y13987311D01*
X14614763Y13869569D01*
X14617718Y13865718D01*
X14621569Y13862763D01*
X14739311Y13772416D01*
X14739315Y13772414D01*
X14743159Y13769464D01*
X14889238Y13708956D01*
X14894040Y13708324D01*
X14894043Y13708323D01*
X15041192Y13688951D01*
X15046000Y13688318D01*
X15050808Y13688951D01*
X15197957Y13708323D01*
X15197960Y13708324D01*
X15202762Y13708956D01*
X15348841Y13769464D01*
X15352685Y13772414D01*
X15352689Y13772416D01*
X15470431Y13862763D01*
X15474282Y13865718D01*
X15477237Y13869569D01*
X15567584Y13987311D01*
X15567586Y13987315D01*
X15570536Y13991159D01*
X15631044Y14137238D01*
X15633378Y14154961D01*
X15651049Y14289192D01*
X15651682Y14294000D01*
X15641296Y14372888D01*
X15631677Y14445957D01*
X15631676Y14445960D01*
X15631044Y14450762D01*
X15570536Y14596841D01*
X15567586Y14600685D01*
X15567584Y14600689D01*
X15477237Y14718431D01*
X15474282Y14722282D01*
X15432910Y14754028D01*
X15352689Y14815584D01*
X15352685Y14815586D01*
X15348841Y14818536D01*
X15202762Y14879044D01*
X15197960Y14879676D01*
X15197957Y14879677D01*
X15050808Y14899049D01*
X15046000Y14899682D01*
X15041192Y14899049D01*
X14894043Y14879677D01*
X14894040Y14879676D01*
X14889238Y14879044D01*
X14743159Y14818536D01*
X14739315Y14815586D01*
X14739311Y14815584D01*
X14659090Y14754028D01*
X14617718Y14722282D01*
X14614766Y14718434D01*
X14612503Y14716172D01*
X14566626Y14694781D01*
X14560179Y14694500D01*
X11872323Y14694500D01*
X11824757Y14711813D01*
X11819997Y14716174D01*
X11176863Y15359308D01*
X11155471Y15405184D01*
X11155822Y15421293D01*
X11170544Y15533114D01*
X11172082Y15544800D01*
X11162403Y15618318D01*
X11152077Y15696757D01*
X11152076Y15696760D01*
X11151444Y15701562D01*
X11090936Y15847641D01*
X11087986Y15851486D01*
X11087984Y15851489D01*
X11032192Y15924198D01*
X11016900Y15969246D01*
X11016900Y16093022D01*
X11034213Y16140588D01*
X11078050Y16165898D01*
X11127900Y16157108D01*
X11135945Y16151732D01*
X11243159Y16069464D01*
X11389238Y16008956D01*
X11394040Y16008324D01*
X11394043Y16008323D01*
X11541192Y15988951D01*
X11546000Y15988318D01*
X11550808Y15988951D01*
X11697957Y16008323D01*
X11697960Y16008324D01*
X11702762Y16008956D01*
X11848841Y16069464D01*
X11852685Y16072414D01*
X11852689Y16072416D01*
X11970431Y16162763D01*
X11974282Y16165718D01*
X11995073Y16192813D01*
X12067584Y16287311D01*
X12067586Y16287315D01*
X12070536Y16291159D01*
X12131044Y16437238D01*
X12133105Y16452887D01*
X12151049Y16589192D01*
X12151682Y16594000D01*
X12151466Y16595644D01*
X12168362Y16642066D01*
X12212199Y16667376D01*
X12225049Y16668500D01*
X13080522Y16668500D01*
X13128088Y16651187D01*
X13132848Y16646826D01*
X13869898Y15909776D01*
X13891290Y15863900D01*
X13891572Y15857450D01*
X13891572Y15852929D01*
X13891571Y15852478D01*
X13891108Y15776693D01*
X13898974Y15719268D01*
X13938331Y15581559D01*
X13939404Y15579159D01*
X13939406Y15579155D01*
X13942273Y15572746D01*
X13961999Y15528649D01*
X13963403Y15526424D01*
X13963405Y15526420D01*
X13971039Y15514321D01*
X14038425Y15407521D01*
X14075992Y15363380D01*
X14183343Y15268572D01*
X14185540Y15267129D01*
X14185545Y15267125D01*
X14215791Y15247258D01*
X14231785Y15236752D01*
X14361430Y15175883D01*
X14416861Y15158936D01*
X14475113Y15149866D01*
X14555781Y15137306D01*
X14555788Y15137305D01*
X14558379Y15136902D01*
X14579834Y15136640D01*
X14613693Y15136226D01*
X14613697Y15136226D01*
X14616335Y15136194D01*
X14618947Y15136536D01*
X14618954Y15136536D01*
X14637388Y15138947D01*
X14646983Y15139572D01*
X15035505Y15139572D01*
X15046887Y15138691D01*
X15051845Y15137919D01*
X15055783Y15137306D01*
X15055786Y15137306D01*
X15058379Y15136902D01*
X15079834Y15136640D01*
X15113693Y15136226D01*
X15113697Y15136226D01*
X15116335Y15136194D01*
X15118948Y15136536D01*
X15118954Y15136536D01*
X15221147Y15149899D01*
X15258349Y15154764D01*
X15260879Y15155470D01*
X15260882Y15155471D01*
X15311645Y15169644D01*
X15311646Y15169644D01*
X15314177Y15170351D01*
X15434748Y15223404D01*
X15485258Y15226715D01*
X15526079Y15196784D01*
X15532918Y15183989D01*
X15584123Y15060367D01*
X15584126Y15060361D01*
X15585980Y15055886D01*
X15588930Y15052042D01*
X15588932Y15052038D01*
X15675093Y14939751D01*
X15682234Y14930445D01*
X15686085Y14927490D01*
X15803827Y14837143D01*
X15803831Y14837141D01*
X15807675Y14834191D01*
X15953754Y14773683D01*
X15958556Y14773051D01*
X15958559Y14773050D01*
X16053639Y14760533D01*
X16098538Y14737160D01*
X16117980Y14687166D01*
X16117980Y8965478D01*
X16100667Y8917912D01*
X16096306Y8913152D01*
X16075663Y8892509D01*
X16070903Y8888148D01*
X16045259Y8866630D01*
X16045257Y8866627D01*
X16040295Y8862464D01*
X16034707Y8852784D01*
X16020320Y8827865D01*
X16016851Y8822420D01*
X15997648Y8794996D01*
X15993935Y8789693D01*
X15992260Y8783441D01*
X15990138Y8778891D01*
X15987850Y8773367D01*
X15986136Y8768656D01*
X15982901Y8763054D01*
X15981778Y8756683D01*
X15981777Y8756681D01*
X15975965Y8723715D01*
X15974568Y8717413D01*
X15964225Y8678816D01*
X15964789Y8672368D01*
X15964789Y8672367D01*
X15967707Y8639018D01*
X15967989Y8632568D01*
X15967989Y7543500D01*
X15950676Y7495934D01*
X15906839Y7470624D01*
X15893989Y7469500D01*
X15764405Y7469500D01*
X15716839Y7486813D01*
X15701821Y7504013D01*
X15682384Y7534819D01*
X15653575Y7580479D01*
X15616008Y7624620D01*
X15567285Y7667650D01*
X15510631Y7717685D01*
X15510628Y7717687D01*
X15508657Y7719428D01*
X15506460Y7720871D01*
X15506455Y7720875D01*
X15470674Y7744378D01*
X15460215Y7751248D01*
X15330570Y7812117D01*
X15275139Y7829064D01*
X15212010Y7838893D01*
X15136219Y7850694D01*
X15136212Y7850695D01*
X15133621Y7851098D01*
X15112166Y7851360D01*
X15078307Y7851774D01*
X15078303Y7851774D01*
X15075665Y7851806D01*
X15073053Y7851464D01*
X15073046Y7851464D01*
X15054612Y7849053D01*
X15045017Y7848428D01*
X14656495Y7848428D01*
X14645113Y7849309D01*
X14640155Y7850081D01*
X14636217Y7850694D01*
X14636214Y7850694D01*
X14633621Y7851098D01*
X14612166Y7851360D01*
X14578307Y7851774D01*
X14578303Y7851774D01*
X14575665Y7851806D01*
X14573052Y7851464D01*
X14573046Y7851464D01*
X14476913Y7838893D01*
X14433651Y7833236D01*
X14431121Y7832530D01*
X14431118Y7832529D01*
X14380355Y7818356D01*
X14377823Y7817649D01*
X14375418Y7816591D01*
X14375413Y7816589D01*
X14250682Y7761706D01*
X14200172Y7758395D01*
X14159350Y7788327D01*
X14147319Y7837495D01*
X14169707Y7882894D01*
X14175821Y7888138D01*
X14195082Y7902918D01*
X14198037Y7906769D01*
X14288384Y8024511D01*
X14288386Y8024515D01*
X14291336Y8028359D01*
X14351844Y8174438D01*
X14352584Y8180052D01*
X14371849Y8326392D01*
X14372482Y8331200D01*
X14366052Y8380041D01*
X14352477Y8483157D01*
X14352476Y8483160D01*
X14351844Y8487962D01*
X14291336Y8634041D01*
X14288386Y8637885D01*
X14288384Y8637889D01*
X14198037Y8755631D01*
X14195082Y8759482D01*
X14181656Y8769784D01*
X14073489Y8852784D01*
X14073485Y8852786D01*
X14069641Y8855736D01*
X13923562Y8916244D01*
X13918760Y8916876D01*
X13918757Y8916877D01*
X13771608Y8936249D01*
X13766800Y8936882D01*
X13761992Y8936249D01*
X13614843Y8916877D01*
X13614840Y8916876D01*
X13610038Y8916244D01*
X13605558Y8914388D01*
X13605557Y8914388D01*
X13577696Y8902848D01*
X13527126Y8900640D01*
X13486967Y8931455D01*
X13476011Y8980874D01*
X13481011Y8999534D01*
X13503412Y9053616D01*
X13539044Y9139638D01*
X13559682Y9296400D01*
X13555902Y9325114D01*
X13539677Y9448357D01*
X13539676Y9448360D01*
X13539044Y9453162D01*
X13478536Y9599241D01*
X13475586Y9603085D01*
X13475584Y9603089D01*
X13385237Y9720831D01*
X13382282Y9724682D01*
X13378431Y9727637D01*
X13260689Y9817984D01*
X13260685Y9817986D01*
X13256841Y9820936D01*
X13110762Y9881444D01*
X13105960Y9882076D01*
X13105957Y9882077D01*
X12958808Y9901449D01*
X12954000Y9902082D01*
X12949192Y9901449D01*
X12802043Y9882077D01*
X12802040Y9882076D01*
X12797238Y9881444D01*
X12651159Y9820936D01*
X12647315Y9817986D01*
X12647311Y9817984D01*
X12529569Y9727637D01*
X12525718Y9724682D01*
X12522763Y9720831D01*
X12469067Y9650852D01*
X12426376Y9623654D01*
X12410359Y9621900D01*
X11435733Y9621900D01*
X11429284Y9622182D01*
X11426567Y9622420D01*
X11389493Y9625663D01*
X11383238Y9623987D01*
X11350904Y9615324D01*
X11344604Y9613927D01*
X11311628Y9608112D01*
X11311627Y9608112D01*
X11305255Y9606988D01*
X11299650Y9603752D01*
X11294962Y9602046D01*
X11289387Y9599736D01*
X11284870Y9597630D01*
X11278616Y9595954D01*
X11273315Y9592242D01*
X11245888Y9573038D01*
X11240444Y9569570D01*
X11205845Y9549594D01*
X11201685Y9544636D01*
X11201680Y9544632D01*
X11180165Y9518991D01*
X11175804Y9514231D01*
X11076249Y9414676D01*
X11030373Y9393284D01*
X11014267Y9393635D01*
X10922000Y9405782D01*
X10917192Y9405149D01*
X10770043Y9385777D01*
X10770040Y9385776D01*
X10765238Y9385144D01*
X10619159Y9324636D01*
X10615315Y9321686D01*
X10615311Y9321684D01*
X10576095Y9291592D01*
X10493718Y9228382D01*
X10490763Y9224531D01*
X10400416Y9106789D01*
X10400414Y9106785D01*
X10397464Y9102941D01*
X10336956Y8956862D01*
X10336324Y8952060D01*
X10336323Y8952057D01*
X10323254Y8852784D01*
X10316318Y8800100D01*
X10316951Y8795292D01*
X10335723Y8652705D01*
X10336956Y8643338D01*
X10397464Y8497259D01*
X10400414Y8493415D01*
X10400416Y8493411D01*
X10413372Y8476527D01*
X10493718Y8371818D01*
X10497569Y8368863D01*
X10615311Y8278516D01*
X10615315Y8278514D01*
X10619159Y8275564D01*
X10765238Y8215056D01*
X10770040Y8214424D01*
X10770043Y8214423D01*
X10917192Y8195051D01*
X10922000Y8194418D01*
X11067109Y8213522D01*
X11116528Y8202566D01*
X11147343Y8162407D01*
X11150135Y8149814D01*
X11152361Y8132910D01*
X11164956Y8037238D01*
X11225464Y7891159D01*
X11228414Y7887315D01*
X11228416Y7887311D01*
X11315246Y7774152D01*
X11321718Y7765718D01*
X11325569Y7762763D01*
X11443311Y7672416D01*
X11443315Y7672414D01*
X11447159Y7669464D01*
X11593238Y7608956D01*
X11598040Y7608324D01*
X11598043Y7608323D01*
X11745192Y7588951D01*
X11750000Y7588318D01*
X11754808Y7588951D01*
X11901957Y7608323D01*
X11901960Y7608324D01*
X11906762Y7608956D01*
X12052841Y7669464D01*
X12056685Y7672414D01*
X12056689Y7672416D01*
X12174431Y7762763D01*
X12178282Y7765718D01*
X12184754Y7774152D01*
X12271584Y7887311D01*
X12271586Y7887315D01*
X12274536Y7891159D01*
X12313414Y7985019D01*
X12347612Y8022339D01*
X12381781Y8030700D01*
X13203975Y8030700D01*
X13251541Y8013387D01*
X13262683Y8001748D01*
X13335563Y7906769D01*
X13338518Y7902918D01*
X13342369Y7899963D01*
X13460111Y7809616D01*
X13460115Y7809614D01*
X13463959Y7806664D01*
X13610038Y7746156D01*
X13614840Y7745524D01*
X13614843Y7745523D01*
X13761992Y7726151D01*
X13766800Y7725518D01*
X13771608Y7726151D01*
X13918757Y7745523D01*
X13918760Y7745524D01*
X13923562Y7746156D01*
X14060214Y7802759D01*
X14110784Y7804967D01*
X14150943Y7774152D01*
X14161899Y7724733D01*
X14136149Y7677747D01*
X14087889Y7637181D01*
X14049255Y7593971D01*
X14047796Y7591779D01*
X14047792Y7591774D01*
X14013535Y7540310D01*
X13969892Y7474746D01*
X13944939Y7422431D01*
X13944155Y7419921D01*
X13944154Y7419919D01*
X13935353Y7391749D01*
X13902229Y7285725D01*
X13892962Y7228510D01*
X13890337Y7085311D01*
X13890662Y7082705D01*
X13891005Y7079949D01*
X13891572Y7070802D01*
X13891572Y6644000D01*
X13907133Y6565769D01*
X13911184Y6559707D01*
X13911184Y6559706D01*
X13927617Y6535113D01*
X13939649Y6485944D01*
X13927617Y6452887D01*
X13907133Y6422231D01*
X13891572Y6344000D01*
X13891572Y5853383D01*
X13891560Y5852027D01*
X13890517Y5795118D01*
X13890337Y5785311D01*
X13897502Y5727792D01*
X13898192Y5725261D01*
X13898193Y5725256D01*
X13933998Y5593929D01*
X13935175Y5589612D01*
X13936218Y5587202D01*
X13936219Y5587199D01*
X13942296Y5573157D01*
X13958194Y5536419D01*
X14033134Y5414367D01*
X14038645Y5407729D01*
X14068472Y5371801D01*
X14068476Y5371797D01*
X14070157Y5369772D01*
X14072110Y5368004D01*
X14072116Y5367998D01*
X14072862Y5367323D01*
X14072984Y5367093D01*
X14073931Y5366104D01*
X14073649Y5365834D01*
X14096507Y5322566D01*
X14097200Y5312463D01*
X14097200Y5233277D01*
X14079887Y5185711D01*
X14068250Y5174571D01*
X14001495Y5123348D01*
X13998540Y5119497D01*
X13908193Y5001755D01*
X13908191Y5001751D01*
X13905241Y4997907D01*
X13844733Y4851828D01*
X13844101Y4847026D01*
X13844100Y4847023D01*
X13826779Y4715456D01*
X13824095Y4695066D01*
X13844733Y4538304D01*
X13905241Y4392225D01*
X13908191Y4388381D01*
X13908193Y4388377D01*
X13977911Y4297519D01*
X14001495Y4266784D01*
X14005346Y4263829D01*
X14123088Y4173482D01*
X14123092Y4173480D01*
X14126936Y4170530D01*
X14273015Y4110022D01*
X14277817Y4109390D01*
X14277820Y4109389D01*
X14424969Y4090017D01*
X14429777Y4089384D01*
X14434585Y4090017D01*
X14581734Y4109389D01*
X14581737Y4109390D01*
X14586539Y4110022D01*
X14732618Y4170530D01*
X14736462Y4173480D01*
X14736466Y4173482D01*
X14854208Y4263829D01*
X14858059Y4266784D01*
X14881643Y4297519D01*
X14951361Y4388377D01*
X14951363Y4388381D01*
X14954313Y4392225D01*
X15014821Y4538304D01*
X15035459Y4695066D01*
X15014821Y4851828D01*
X15003833Y4878356D01*
X14998200Y4906674D01*
X14998200Y5061102D01*
X15015513Y5108668D01*
X15059350Y5133978D01*
X15078301Y5134786D01*
X15078302Y5134797D01*
X15078421Y5134791D01*
X15078798Y5134807D01*
X15079677Y5134729D01*
X15081157Y5134596D01*
X15082599Y5134578D01*
X15082606Y5134578D01*
X15087225Y5134522D01*
X15093499Y5134445D01*
X15094923Y5134538D01*
X15094934Y5134538D01*
X15119423Y5136133D01*
X15124981Y5136495D01*
X15205939Y5148089D01*
X15264156Y5156426D01*
X15264161Y5156427D01*
X15266758Y5156799D01*
X15322390Y5173067D01*
X15325694Y5174569D01*
X15355061Y5187922D01*
X15452769Y5232347D01*
X15501598Y5263574D01*
X15570062Y5322566D01*
X15608108Y5355348D01*
X15608111Y5355351D01*
X15610099Y5357064D01*
X15618848Y5367093D01*
X15619765Y5368144D01*
X15664080Y5392609D01*
X15675530Y5393500D01*
X15964849Y5393500D01*
X15973546Y5392987D01*
X15985192Y5391609D01*
X16010310Y5388636D01*
X16015752Y5389630D01*
X16015755Y5389630D01*
X16068800Y5399318D01*
X16071093Y5399700D01*
X16124496Y5407729D01*
X16124497Y5407729D01*
X16129962Y5408551D01*
X16134798Y5410874D01*
X16135136Y5410956D01*
X16135400Y5411047D01*
X16137637Y5411773D01*
X16137946Y5411868D01*
X16138296Y5412012D01*
X16143573Y5412975D01*
X16196342Y5440386D01*
X16198413Y5441421D01*
X16247092Y5464796D01*
X16247093Y5464797D01*
X16252079Y5467191D01*
X16256023Y5470837D01*
X16256931Y5471379D01*
X16260042Y5473475D01*
X16263788Y5475421D01*
X16268828Y5479725D01*
X16306798Y5517695D01*
X16308893Y5519709D01*
X16347496Y5555393D01*
X16351556Y5559146D01*
X16354334Y5563928D01*
X16357031Y5567295D01*
X16362457Y5573354D01*
X17314526Y6525423D01*
X17321039Y6531210D01*
X17345766Y6550703D01*
X17345768Y6550705D01*
X17350110Y6554128D01*
X17355579Y6562040D01*
X17383926Y6603056D01*
X17385278Y6604948D01*
X17417348Y6648366D01*
X17417350Y6648370D01*
X17420634Y6652816D01*
X17422412Y6657882D01*
X17422597Y6658185D01*
X17422724Y6658445D01*
X17423774Y6660506D01*
X17423936Y6660811D01*
X17424080Y6661155D01*
X17427131Y6665569D01*
X17445063Y6722268D01*
X17445798Y6724471D01*
X17463685Y6775408D01*
X17463685Y6775409D01*
X17465519Y6780631D01*
X17465729Y6785994D01*
X17465987Y6787013D01*
X17466706Y6790703D01*
X17467980Y6794730D01*
X17468500Y6801337D01*
X17468500Y6855039D01*
X17468557Y6857945D01*
X17470621Y6910466D01*
X17470621Y6910467D01*
X17470838Y6915994D01*
X17469420Y6921341D01*
X17468947Y6925626D01*
X17468500Y6933747D01*
X17468500Y7652754D01*
X17483792Y7697802D01*
X17539584Y7770511D01*
X17539586Y7770514D01*
X17542536Y7774359D01*
X17603044Y7920438D01*
X17606732Y7948445D01*
X17623049Y8072392D01*
X17623682Y8077200D01*
X17613069Y8157815D01*
X17603677Y8229157D01*
X17603676Y8229160D01*
X17603044Y8233962D01*
X17542536Y8380041D01*
X17539586Y8383886D01*
X17539584Y8383889D01*
X17483792Y8456598D01*
X17468500Y8501646D01*
X17468500Y8637953D01*
X19108497Y8637953D01*
X19110908Y8627594D01*
X19114363Y8625000D01*
X20086952Y8625000D01*
X20096948Y8628638D01*
X20100000Y8633925D01*
X20100000Y9061952D01*
X20096362Y9071948D01*
X20091075Y9075000D01*
X19609500Y9075000D01*
X19605052Y9074732D01*
X19522295Y9064717D01*
X19513149Y9062394D01*
X19382158Y9010531D01*
X19373445Y9005622D01*
X19261452Y8920614D01*
X19254386Y8913548D01*
X19169378Y8801555D01*
X19164469Y8792842D01*
X19112606Y8661851D01*
X19110283Y8652705D01*
X19108497Y8637953D01*
X17468500Y8637953D01*
X17468500Y15937822D01*
X17695696Y15937822D01*
X17696329Y15933014D01*
X17715551Y15787009D01*
X17716334Y15781060D01*
X17776842Y15634981D01*
X17779792Y15631137D01*
X17779794Y15631133D01*
X17866106Y15518650D01*
X17873096Y15509540D01*
X17876947Y15506585D01*
X17994689Y15416238D01*
X17994693Y15416236D01*
X17998537Y15413286D01*
X18144616Y15352778D01*
X18149418Y15352146D01*
X18149421Y15352145D01*
X18296570Y15332773D01*
X18301378Y15332140D01*
X18306186Y15332773D01*
X18453335Y15352145D01*
X18453338Y15352146D01*
X18458140Y15352778D01*
X18604219Y15413286D01*
X18608063Y15416236D01*
X18608067Y15416238D01*
X18725809Y15506585D01*
X18729660Y15509540D01*
X18736650Y15518650D01*
X18757290Y15545548D01*
X18799982Y15572746D01*
X18815998Y15574500D01*
X19287293Y15574500D01*
X19334859Y15557187D01*
X19353718Y15533115D01*
X19361068Y15518145D01*
X19365397Y15513824D01*
X19365398Y15513822D01*
X19439321Y15440028D01*
X19443650Y15435707D01*
X19449147Y15433020D01*
X19542934Y15387176D01*
X19548482Y15384464D01*
X19616782Y15374500D01*
X21083218Y15374500D01*
X21089363Y15375405D01*
X21146423Y15383804D01*
X21146426Y15383805D01*
X21152112Y15384642D01*
X21157272Y15387175D01*
X21157274Y15387176D01*
X21216466Y15416238D01*
X21256855Y15436068D01*
X21261176Y15440397D01*
X21261178Y15440398D01*
X21334972Y15514321D01*
X21334973Y15514323D01*
X21339293Y15518650D01*
X21366593Y15574500D01*
X21388012Y15618318D01*
X21388012Y15618319D01*
X21390536Y15623482D01*
X21400500Y15691782D01*
X21400500Y16058218D01*
X21399118Y16067609D01*
X21391196Y16121423D01*
X21391195Y16121426D01*
X21390358Y16127112D01*
X21373800Y16160838D01*
X21363473Y16181871D01*
X21338932Y16231855D01*
X21334603Y16236176D01*
X21334602Y16236178D01*
X21260679Y16309972D01*
X21260677Y16309973D01*
X21256350Y16314293D01*
X21188273Y16347570D01*
X21156682Y16363012D01*
X21156681Y16363012D01*
X21151518Y16365536D01*
X21083218Y16375500D01*
X19616782Y16375500D01*
X19614099Y16375105D01*
X19553577Y16366196D01*
X19553574Y16366195D01*
X19547888Y16365358D01*
X19542728Y16362825D01*
X19542726Y16362824D01*
X19511658Y16347570D01*
X19443145Y16313932D01*
X19438824Y16309603D01*
X19438822Y16309602D01*
X19416570Y16287311D01*
X19360707Y16231350D01*
X19358022Y16225857D01*
X19358017Y16225850D01*
X19353693Y16217003D01*
X19317251Y16181871D01*
X19287211Y16175500D01*
X18902350Y16175500D01*
X18854784Y16192813D01*
X18833983Y16221182D01*
X18833959Y16221241D01*
X18825914Y16240663D01*
X18729660Y16366104D01*
X18717415Y16375500D01*
X18608067Y16459406D01*
X18608063Y16459408D01*
X18604219Y16462358D01*
X18458140Y16522866D01*
X18453338Y16523498D01*
X18453335Y16523499D01*
X18306186Y16542871D01*
X18301378Y16543504D01*
X18296570Y16542871D01*
X18149421Y16523499D01*
X18149418Y16523498D01*
X18144616Y16522866D01*
X17998537Y16462358D01*
X17994693Y16459408D01*
X17994689Y16459406D01*
X17885341Y16375500D01*
X17873096Y16366104D01*
X17870141Y16362253D01*
X17779794Y16244511D01*
X17779792Y16244507D01*
X17776842Y16240663D01*
X17716334Y16094584D01*
X17715702Y16089782D01*
X17715701Y16089779D01*
X17699833Y15969246D01*
X17695696Y15937822D01*
X17468500Y15937822D01*
X17468500Y16390850D01*
X17469013Y16399547D01*
X17470851Y16415080D01*
X17473364Y16436311D01*
X17470337Y16452887D01*
X17462679Y16494812D01*
X17462297Y16497107D01*
X17458703Y16521011D01*
X17453449Y16555962D01*
X17451124Y16560802D01*
X17451040Y16561147D01*
X17450950Y16561410D01*
X17450229Y16563630D01*
X17450131Y16563948D01*
X17449989Y16564296D01*
X17449025Y16569573D01*
X17421611Y16622348D01*
X17420576Y16624420D01*
X17397203Y16673095D01*
X17397201Y16673099D01*
X17394809Y16678079D01*
X17391166Y16682020D01*
X17390625Y16682927D01*
X17388525Y16686044D01*
X17386579Y16689789D01*
X17382275Y16694828D01*
X17344305Y16732798D01*
X17342291Y16734893D01*
X17306607Y16773496D01*
X17302854Y16777556D01*
X17298072Y16780334D01*
X17294705Y16783031D01*
X17288646Y16788457D01*
X16636577Y17440526D01*
X16630790Y17447039D01*
X16611297Y17471766D01*
X16611295Y17471768D01*
X16607872Y17476110D01*
X16600291Y17481350D01*
X16558944Y17509926D01*
X16557052Y17511278D01*
X16513634Y17543348D01*
X16513630Y17543350D01*
X16509184Y17546634D01*
X16504118Y17548412D01*
X16503815Y17548597D01*
X16503555Y17548724D01*
X16501494Y17549774D01*
X16501189Y17549936D01*
X16500845Y17550080D01*
X16496431Y17553131D01*
X16439732Y17571063D01*
X16437529Y17571798D01*
X16386592Y17589685D01*
X16386591Y17589685D01*
X16381369Y17591519D01*
X16376006Y17591729D01*
X16374987Y17591987D01*
X16371297Y17592706D01*
X16367270Y17593980D01*
X16360663Y17594500D01*
X16306961Y17594500D01*
X16304055Y17594557D01*
X16251530Y17596621D01*
X16246006Y17596838D01*
X16240664Y17595422D01*
X16236364Y17594947D01*
X16228246Y17594500D01*
X15675901Y17594500D01*
X15628335Y17611813D01*
X15623101Y17616713D01*
X15621843Y17618228D01*
X15613697Y17625602D01*
X15517609Y17712577D01*
X15517608Y17712577D01*
X15515659Y17714342D01*
X15467605Y17746755D01*
X15338713Y17809202D01*
X15283496Y17826824D01*
X15226269Y17836452D01*
X15143668Y17850349D01*
X15143662Y17850350D01*
X15142258Y17850586D01*
X15110843Y17853404D01*
X15109401Y17853422D01*
X15109394Y17853422D01*
X15104775Y17853478D01*
X15098501Y17853555D01*
X15097077Y17853462D01*
X15097066Y17853462D01*
X15083119Y17852553D01*
X15067019Y17851505D01*
X15052690Y17849453D01*
X15050749Y17849175D01*
X15040259Y17848428D01*
X14661264Y17848428D01*
X14648997Y17849452D01*
X14642258Y17850586D01*
X14610843Y17853404D01*
X14609401Y17853422D01*
X14609394Y17853422D01*
X14604775Y17853478D01*
X14598501Y17853555D01*
X14597077Y17853462D01*
X14597066Y17853462D01*
X14572577Y17851867D01*
X14567019Y17851505D01*
X14514076Y17843923D01*
X14427844Y17831574D01*
X14427839Y17831573D01*
X14425242Y17831201D01*
X14369610Y17814933D01*
X14367221Y17813847D01*
X14367219Y17813846D01*
X14357005Y17809202D01*
X14239231Y17755653D01*
X14237021Y17754239D01*
X14237018Y17754238D01*
X14217515Y17741766D01*
X14168115Y17730724D01*
X14125321Y17751782D01*
X13936577Y17940526D01*
X13930790Y17947039D01*
X13911297Y17971766D01*
X13911295Y17971768D01*
X13907872Y17976110D01*
X13858936Y18009931D01*
X13857071Y18011264D01*
X13855535Y18012398D01*
X13827560Y18054583D01*
X13825500Y18071922D01*
X13825500Y18637953D01*
X19108497Y18637953D01*
X19110908Y18627594D01*
X19114363Y18625000D01*
X20086952Y18625000D01*
X20096948Y18628638D01*
X20100000Y18633925D01*
X20100000Y18638048D01*
X20600000Y18638048D01*
X20603638Y18628052D01*
X20608925Y18625000D01*
X21580022Y18625000D01*
X21590018Y18628638D01*
X21592177Y18632378D01*
X21589717Y18652705D01*
X21587394Y18661851D01*
X21535531Y18792842D01*
X21530622Y18801555D01*
X21445614Y18913548D01*
X21438548Y18920614D01*
X21326555Y19005622D01*
X21317842Y19010531D01*
X21186851Y19062394D01*
X21177705Y19064717D01*
X21094948Y19074732D01*
X21090500Y19075000D01*
X20613048Y19075000D01*
X20603052Y19071362D01*
X20600000Y19066075D01*
X20600000Y18638048D01*
X20100000Y18638048D01*
X20100000Y19061952D01*
X20096362Y19071948D01*
X20091075Y19075000D01*
X19609500Y19075000D01*
X19605052Y19074732D01*
X19522295Y19064717D01*
X19513149Y19062394D01*
X19382158Y19010531D01*
X19373445Y19005622D01*
X19261452Y18920614D01*
X19254386Y18913548D01*
X19169378Y18801555D01*
X19164469Y18792842D01*
X19112606Y18661851D01*
X19110283Y18652705D01*
X19108497Y18637953D01*
X13825500Y18637953D01*
X13825500Y18640554D01*
X13840792Y18685602D01*
X13896584Y18758311D01*
X13896586Y18758314D01*
X13899536Y18762159D01*
X13960044Y18908238D01*
X13961674Y18920614D01*
X13980049Y19060192D01*
X13980682Y19065000D01*
X13960044Y19221762D01*
X13899536Y19367841D01*
X13896586Y19371685D01*
X13896584Y19371689D01*
X13806237Y19489431D01*
X13803282Y19493282D01*
X13799431Y19496237D01*
X13681689Y19586584D01*
X13681685Y19586586D01*
X13677841Y19589536D01*
X13531762Y19650044D01*
X13526960Y19650676D01*
X13526957Y19650677D01*
X13379808Y19670049D01*
X13375000Y19670682D01*
X13370192Y19670049D01*
X13223043Y19650677D01*
X13223040Y19650676D01*
X13218238Y19650044D01*
X13072159Y19589536D01*
X13068315Y19586586D01*
X13068311Y19586584D01*
X12950569Y19496237D01*
X12946718Y19493282D01*
X12943763Y19489431D01*
X12853416Y19371689D01*
X12853414Y19371685D01*
X12850464Y19367841D01*
X12789956Y19221762D01*
X12769318Y19065000D01*
X12769951Y19060192D01*
X12788327Y18920614D01*
X12789956Y18908238D01*
X12850464Y18762159D01*
X12853414Y18758314D01*
X12853416Y18758311D01*
X12909208Y18685602D01*
X12924500Y18640554D01*
X12924500Y18168500D01*
X12907187Y18120934D01*
X12863350Y18095624D01*
X12850500Y18094500D01*
X11425759Y18094500D01*
X11417062Y18095013D01*
X11405416Y18096391D01*
X11380298Y18099364D01*
X11374856Y18098370D01*
X11374854Y18098370D01*
X11350929Y18094000D01*
X11321789Y18088678D01*
X11319509Y18088298D01*
X11260647Y18079449D01*
X11255807Y18077124D01*
X11255462Y18077040D01*
X11255199Y18076950D01*
X11252979Y18076229D01*
X11252661Y18076131D01*
X11252313Y18075989D01*
X11247036Y18075025D01*
X11242127Y18072475D01*
X11194269Y18047615D01*
X11192189Y18046576D01*
X11143514Y18023203D01*
X11143510Y18023201D01*
X11138530Y18020809D01*
X11134589Y18017166D01*
X11133682Y18016625D01*
X11130565Y18014525D01*
X11126820Y18012579D01*
X11121781Y18008275D01*
X11083811Y17970305D01*
X11081716Y17968291D01*
X11039053Y17928854D01*
X11036275Y17924072D01*
X11033578Y17920705D01*
X11028152Y17914646D01*
X10269874Y17156368D01*
X10263361Y17150581D01*
X10238634Y17131088D01*
X10238632Y17131086D01*
X10234290Y17127663D01*
X10231146Y17123114D01*
X10231145Y17123113D01*
X10200474Y17078735D01*
X10199122Y17076843D01*
X10167052Y17033425D01*
X10167050Y17033421D01*
X10163766Y17028975D01*
X10161988Y17023909D01*
X10161803Y17023606D01*
X10161676Y17023346D01*
X10160626Y17021285D01*
X10160464Y17020980D01*
X10160320Y17020636D01*
X10157269Y17016222D01*
X10155600Y17010944D01*
X10139337Y16959523D01*
X10138602Y16957320D01*
X10133261Y16942109D01*
X10118881Y16901160D01*
X10118671Y16895797D01*
X10118413Y16894778D01*
X10117694Y16891088D01*
X10116420Y16887061D01*
X10115900Y16880454D01*
X10115900Y16826752D01*
X10115843Y16823846D01*
X10113865Y16773496D01*
X10113562Y16765797D01*
X10114978Y16760455D01*
X10115453Y16756155D01*
X10115900Y16748037D01*
X10115900Y15969246D01*
X10100608Y15924198D01*
X10044816Y15851489D01*
X10044814Y15851486D01*
X10041864Y15847641D01*
X9981356Y15701562D01*
X9980724Y15696760D01*
X9980723Y15696757D01*
X9970397Y15618318D01*
X9960718Y15544800D01*
X5900000Y15544800D01*
X5900000Y19910810D01*
X21800000Y19910810D01*
X21800114Y19907911D01*
X21802603Y19876278D01*
X21803955Y19868879D01*
X21847419Y19719273D01*
X21851088Y19710794D01*
X21929946Y19577453D01*
X21935610Y19570151D01*
X22045151Y19460610D01*
X22052453Y19454946D01*
X22185794Y19376088D01*
X22194273Y19372419D01*
X22343879Y19328955D01*
X22351278Y19327603D01*
X22382911Y19325114D01*
X22385810Y19325000D01*
X23286952Y19325000D01*
X23296948Y19328638D01*
X23300000Y19333925D01*
X23300000Y19961952D01*
X23296362Y19971948D01*
X23291075Y19975000D01*
X21813048Y19975000D01*
X21803052Y19971362D01*
X21800000Y19966075D01*
X21800000Y19910810D01*
X5900000Y19910810D01*
X5900000Y20488048D01*
X21800000Y20488048D01*
X21803638Y20478052D01*
X21808925Y20475000D01*
X23286952Y20475000D01*
X23296948Y20478638D01*
X23300000Y20483925D01*
X23300000Y21111952D01*
X23296362Y21121948D01*
X23291075Y21125000D01*
X22385811Y21125000D01*
X22382911Y21124886D01*
X22351278Y21122397D01*
X22343879Y21121045D01*
X22194273Y21077581D01*
X22185794Y21073912D01*
X22052453Y20995054D01*
X22045151Y20989390D01*
X21935610Y20879849D01*
X21929946Y20872547D01*
X21851088Y20739206D01*
X21847419Y20730727D01*
X21803955Y20581121D01*
X21802603Y20573722D01*
X21800114Y20542089D01*
X21800000Y20539189D01*
X21800000Y20488048D01*
X5900000Y20488048D01*
X5900000Y20624700D01*
X11321666Y20624700D01*
X11321666Y21609502D01*
X11338979Y21657068D01*
X11382816Y21682378D01*
X11432666Y21673588D01*
X11439630Y21669027D01*
X11593698Y21555230D01*
X11596192Y21553918D01*
X11820170Y21436077D01*
X11820177Y21436074D01*
X11822663Y21434766D01*
X12067215Y21350321D01*
X12069976Y21349817D01*
X12069979Y21349816D01*
X12174226Y21330777D01*
X12321726Y21303839D01*
X12324088Y21303715D01*
X12324090Y21303715D01*
X12403558Y21299550D01*
X12403572Y21299550D01*
X12404519Y21299500D01*
X12565782Y21299500D01*
X12637247Y21304936D01*
X12755182Y21313907D01*
X12755188Y21313908D01*
X12757976Y21314120D01*
X13010015Y21372539D01*
X13012622Y21373579D01*
X13012628Y21373581D01*
X13247710Y21467369D01*
X13247716Y21467372D01*
X13250318Y21468410D01*
X13252737Y21469832D01*
X13252741Y21469834D01*
X13470929Y21598101D01*
X13470933Y21598104D01*
X13473354Y21599527D01*
X13673991Y21762871D01*
X13847613Y21954685D01*
X13849163Y21957031D01*
X13849166Y21957035D01*
X13988667Y22168199D01*
X13988668Y22168200D01*
X13990222Y22170553D01*
X14062979Y22328374D01*
X14097364Y22402962D01*
X14097365Y22402964D01*
X14098538Y22405509D01*
X14099314Y22408206D01*
X14099318Y22408217D01*
X14110320Y22446459D01*
X14140108Y22487385D01*
X14181435Y22500000D01*
X15795762Y22500000D01*
X15843328Y22482687D01*
G37*
%TD.AperFunction*%
%TA.AperFunction,Conductor*%
G36*
X5920746Y9802768D02*
G01*
X5922500Y9786751D01*
X5922500Y6983115D01*
X5905187Y6935549D01*
X5900000Y6930583D01*
X5900000Y9835332D01*
X5920746Y9802768D01*
G37*
%TD.AperFunction*%
%TD*%
M02*
