M48
; DRILL file {KiCad (6.99.0-401-g0aca35bcab)} date Thu Jan 13 12:34:40 2022
; FORMAT={3:3/ absolute / metric / suppress leading zeros}
; #@! TF.CreationDate,2022-01-13T12:34:40+01:00
; #@! TF.GenerationSoftware,Kicad,Pcbnew,(6.99.0-401-g0aca35bcab)
; #@! TF.FileFunction,Plated,1,2,PTH
FMAT,2
METRIC,TZ
; #@! TA.AperFunction,Plated,PTH,ViaDrill
T1C0.400
%
G90
G05
T1
X-125700Y155700
X-125700Y141200
X-125679Y151181
X-125679Y148387
X-125425Y145694
X-124600Y155700
X-124600Y141200
X-124511Y148387
X-124409Y151181
X-121900Y146400
X-120752Y139040
X-120548Y143307
X-120503Y147240
X-120447Y156058
X-120447Y154889
X-119228Y149454
X-119104Y147269
X-118746Y145806
X-117145Y148031
X-116646Y151406
X-116196Y147328
X-116180Y152451
X-116078Y141427
X-115824Y145706
X-115200Y153500
X-114996Y145100
X-114198Y143967
X-113792Y146202
X-113371Y155971
X-112979Y145237
X-112471Y138938
X-112316Y141601
X-112166Y145898
X-111700Y151200
X-111633Y147511
X-110635Y152265
X-109728Y144983
X-108445Y152844
X-107929Y143288
X-106324Y139751
X-104597Y153365
X-104597Y143332
X-104300Y155000
X-104300Y145100
X-103632Y156058
X-103600Y148400
X-102972Y141122
X-102768Y156058
X-102600Y148400
T0
M30
