%TF.GenerationSoftware,KiCad,Pcbnew,6.0.4-6f826c9f35~116~ubuntu20.04.1*%
%TF.CreationDate,2022-04-04T21:07:49+00:00*%
%TF.ProjectId,TFI2CADT01A,54464932-4341-4445-9430-31412e6b6963,rev?*%
%TF.SameCoordinates,PX7a53eb0PY6e37550*%
%TF.FileFunction,Copper,L2,Bot*%
%TF.FilePolarity,Positive*%
%FSLAX46Y46*%
G04 Gerber Fmt 4.6, Leading zero omitted, Abs format (unit mm)*
G04 Created by KiCad (PCBNEW 6.0.4-6f826c9f35~116~ubuntu20.04.1) date 2022-04-04 21:07:49*
%MOMM*%
%LPD*%
G01*
G04 APERTURE LIST*
G04 Aperture macros list*
%AMRoundRect*
0 Rectangle with rounded corners*
0 $1 Rounding radius*
0 $2 $3 $4 $5 $6 $7 $8 $9 X,Y pos of 4 corners*
0 Add a 4 corners polygon primitive as box body*
4,1,4,$2,$3,$4,$5,$6,$7,$8,$9,$2,$3,0*
0 Add four circle primitives for the rounded corners*
1,1,$1+$1,$2,$3*
1,1,$1+$1,$4,$5*
1,1,$1+$1,$6,$7*
1,1,$1+$1,$8,$9*
0 Add four rect primitives between the rounded corners*
20,1,$1+$1,$2,$3,$4,$5,0*
20,1,$1+$1,$4,$5,$6,$7,0*
20,1,$1+$1,$6,$7,$8,$9,0*
20,1,$1+$1,$8,$9,$2,$3,0*%
G04 Aperture macros list end*
%TA.AperFunction,SMDPad,CuDef*%
%ADD10RoundRect,0.200000X0.200000X0.275000X-0.200000X0.275000X-0.200000X-0.275000X0.200000X-0.275000X0*%
%TD*%
%TA.AperFunction,SMDPad,CuDef*%
%ADD11RoundRect,0.218750X-0.256250X0.218750X-0.256250X-0.218750X0.256250X-0.218750X0.256250X0.218750X0*%
%TD*%
%TA.AperFunction,SMDPad,CuDef*%
%ADD12RoundRect,0.225000X-0.225000X-0.250000X0.225000X-0.250000X0.225000X0.250000X-0.225000X0.250000X0*%
%TD*%
%TA.AperFunction,SMDPad,CuDef*%
%ADD13R,0.700000X0.600000*%
%TD*%
%TA.AperFunction,SMDPad,CuDef*%
%ADD14RoundRect,0.200000X-0.275000X0.200000X-0.275000X-0.200000X0.275000X-0.200000X0.275000X0.200000X0*%
%TD*%
%TA.AperFunction,SMDPad,CuDef*%
%ADD15RoundRect,0.200000X0.275000X-0.200000X0.275000X0.200000X-0.275000X0.200000X-0.275000X-0.200000X0*%
%TD*%
%TA.AperFunction,SMDPad,CuDef*%
%ADD16RoundRect,0.200000X-0.200000X-0.275000X0.200000X-0.275000X0.200000X0.275000X-0.200000X0.275000X0*%
%TD*%
%TA.AperFunction,SMDPad,CuDef*%
%ADD17RoundRect,0.150000X-0.700000X0.150000X-0.700000X-0.150000X0.700000X-0.150000X0.700000X0.150000X0*%
%TD*%
%TA.AperFunction,SMDPad,CuDef*%
%ADD18RoundRect,0.250000X-1.100000X0.250000X-1.100000X-0.250000X1.100000X-0.250000X1.100000X0.250000X0*%
%TD*%
%TA.AperFunction,SMDPad,CuDef*%
%ADD19RoundRect,0.150000X0.700000X-0.150000X0.700000X0.150000X-0.700000X0.150000X-0.700000X-0.150000X0*%
%TD*%
%TA.AperFunction,SMDPad,CuDef*%
%ADD20RoundRect,0.250000X1.100000X-0.250000X1.100000X0.250000X-1.100000X0.250000X-1.100000X-0.250000X0*%
%TD*%
%TA.AperFunction,SMDPad,CuDef*%
%ADD21RoundRect,0.150000X0.150000X-0.512500X0.150000X0.512500X-0.150000X0.512500X-0.150000X-0.512500X0*%
%TD*%
%TA.AperFunction,SMDPad,CuDef*%
%ADD22R,0.250000X0.650000*%
%TD*%
%TA.AperFunction,SMDPad,CuDef*%
%ADD23R,4.400000X1.660000*%
%TD*%
%TA.AperFunction,SMDPad,CuDef*%
%ADD24RoundRect,0.250000X-0.475000X0.250000X-0.475000X-0.250000X0.475000X-0.250000X0.475000X0.250000X0*%
%TD*%
%TA.AperFunction,SMDPad,CuDef*%
%ADD25RoundRect,0.225000X-0.250000X0.225000X-0.250000X-0.225000X0.250000X-0.225000X0.250000X0.225000X0*%
%TD*%
%TA.AperFunction,ViaPad*%
%ADD26C,0.800000*%
%TD*%
%TA.AperFunction,Conductor*%
%ADD27C,0.250000*%
%TD*%
%TA.AperFunction,Conductor*%
%ADD28C,0.200000*%
%TD*%
%TA.AperFunction,Conductor*%
%ADD29C,0.500000*%
%TD*%
G04 APERTURE END LIST*
D10*
%TO.P,R7,1*%
%TO.N,/XORH1*%
X15025000Y20269200D03*
%TO.P,R7,2*%
%TO.N,+3V3*%
X13375000Y20269200D03*
%TD*%
D11*
%TO.P,D1,1,K*%
%TO.N,GND*%
X8000000Y7787500D03*
%TO.P,D1,2,A*%
%TO.N,Net-(D1-Pad2)*%
X8000000Y6212500D03*
%TD*%
D12*
%TO.P,C2,1*%
%TO.N,+5V*%
X15430200Y2032000D03*
%TO.P,C2,2*%
%TO.N,GND*%
X16980200Y2032000D03*
%TD*%
D13*
%TO.P,D2,1,K*%
%TO.N,+5V*%
X7112000Y4611600D03*
%TO.P,D2,2,A*%
%TO.N,GND*%
X7112000Y3211600D03*
%TD*%
D14*
%TO.P,R5,1*%
%TO.N,+3V3*%
X17881600Y7288800D03*
%TO.P,R5,2*%
%TO.N,/SCLout1*%
X17881600Y5638800D03*
%TD*%
D15*
%TO.P,R16,1*%
%TO.N,+3V3*%
X16129000Y8890000D03*
%TO.P,R16,2*%
%TO.N,/SCLout2*%
X16129000Y10540000D03*
%TD*%
D12*
%TO.P,C3,1*%
%TO.N,+3V3*%
X15430200Y3694000D03*
%TO.P,C3,2*%
%TO.N,GND*%
X16980200Y3694000D03*
%TD*%
D14*
%TO.P,R15,1*%
%TO.N,/XORL2*%
X8000000Y20547600D03*
%TO.P,R15,2*%
%TO.N,GND*%
X8000000Y18897600D03*
%TD*%
D16*
%TO.P,R12,1*%
%TO.N,/XORH2*%
X9975000Y17907000D03*
%TO.P,R12,2*%
%TO.N,+3V3*%
X11625000Y17907000D03*
%TD*%
D17*
%TO.P,J5,1*%
%TO.N,+5V*%
X20350000Y18375000D03*
%TO.P,J5,2*%
%TO.N,/SCLout2*%
X20350000Y17125000D03*
%TO.P,J5,3*%
%TO.N,/SDAout2*%
X20350000Y15875000D03*
%TO.P,J5,4*%
%TO.N,GND*%
X20350000Y14625000D03*
D18*
%TO.P,J5,MP*%
X23550000Y12775000D03*
X23550000Y20225000D03*
%TD*%
D14*
%TO.P,R8,1*%
%TO.N,/XORH1*%
X17000000Y20535400D03*
%TO.P,R8,2*%
%TO.N,GND*%
X17000000Y18885400D03*
%TD*%
D19*
%TO.P,J1,1*%
%TO.N,+5V*%
X4650000Y4625000D03*
%TO.P,J1,2*%
%TO.N,/SCLin*%
X4650000Y5875000D03*
%TO.P,J1,3*%
%TO.N,/SDAin*%
X4650000Y7125000D03*
%TO.P,J1,4*%
%TO.N,GND*%
X4650000Y8375000D03*
D20*
%TO.P,J1,MP*%
X1450000Y10225000D03*
X1450000Y2775000D03*
%TD*%
D16*
%TO.P,R14,1*%
%TO.N,/XORL2*%
X9975000Y20269200D03*
%TO.P,R14,2*%
%TO.N,+3V3*%
X11625000Y20269200D03*
%TD*%
D21*
%TO.P,U1,1,VIN*%
%TO.N,+5V*%
X13446800Y3434500D03*
%TO.P,U1,2,GND*%
%TO.N,GND*%
X12496800Y3434500D03*
%TO.P,U1,3,EN*%
%TO.N,+5V*%
X11546800Y3434500D03*
%TO.P,U1,4,NC*%
%TO.N,unconnected-(U1-Pad4)*%
X11546800Y5709500D03*
%TO.P,U1,5,VOUT*%
%TO.N,+3V3*%
X13446800Y5709500D03*
%TD*%
D15*
%TO.P,R13,1*%
%TO.N,/XORH2*%
X8000000Y15697200D03*
%TO.P,R13,2*%
%TO.N,GND*%
X8000000Y17347200D03*
%TD*%
%TO.P,R1,1*%
%TO.N,+5V*%
X9804400Y6236200D03*
%TO.P,R1,2*%
%TO.N,Net-(D1-Pad2)*%
X9804400Y7886200D03*
%TD*%
D14*
%TO.P,R6,1*%
%TO.N,+3V3*%
X16103600Y7264400D03*
%TO.P,R6,2*%
%TO.N,/SDAout1*%
X16103600Y5614400D03*
%TD*%
%TO.P,R2,1*%
%TO.N,+3V3*%
X8636000Y12051800D03*
%TO.P,R2,2*%
%TO.N,/SCLin*%
X8636000Y10401800D03*
%TD*%
D10*
%TO.P,R9,1*%
%TO.N,/XORL1*%
X15025000Y17907000D03*
%TO.P,R9,2*%
%TO.N,+3V3*%
X13375000Y17907000D03*
%TD*%
%TO.P,R3,1*%
%TO.N,+3V3*%
X8737600Y13766800D03*
%TO.P,R3,2*%
%TO.N,/SDAin*%
X7087600Y13766800D03*
%TD*%
D15*
%TO.P,R17,1*%
%TO.N,+3V3*%
X17907000Y8890000D03*
%TO.P,R17,2*%
%TO.N,/SDAout2*%
X17907000Y10540000D03*
%TD*%
D17*
%TO.P,J3,1*%
%TO.N,+5V*%
X20350000Y8375000D03*
%TO.P,J3,2*%
%TO.N,/SCLout1*%
X20350000Y7125000D03*
%TO.P,J3,3*%
%TO.N,/SDAout1*%
X20350000Y5875000D03*
%TO.P,J3,4*%
%TO.N,GND*%
X20350000Y4625000D03*
D18*
%TO.P,J3,MP*%
X23550000Y2775000D03*
X23550000Y10225000D03*
%TD*%
D19*
%TO.P,J2,1*%
%TO.N,+5V*%
X4650000Y14625000D03*
%TO.P,J2,2*%
%TO.N,/SCLin*%
X4650000Y15875000D03*
%TO.P,J2,3*%
%TO.N,/SDAin*%
X4650000Y17125000D03*
%TO.P,J2,4*%
%TO.N,GND*%
X4650000Y18375000D03*
D20*
%TO.P,J2,MP*%
X1450000Y20225000D03*
X1450000Y12775000D03*
%TD*%
D22*
%TO.P,U2,1,GND*%
%TO.N,GND*%
X10750000Y14277400D03*
%TO.P,U2,2,ENABLE2*%
%TO.N,+3V3*%
X11250000Y14277400D03*
%TO.P,U2,3,XORH2*%
%TO.N,/XORH2*%
X11750000Y14277400D03*
%TO.P,U2,4,XORL2*%
%TO.N,/XORL2*%
X12250000Y14277400D03*
%TO.P,U2,5,XORH1*%
%TO.N,/XORH1*%
X12750000Y14277400D03*
%TO.P,U2,6,XORL1*%
%TO.N,/XORL1*%
X13250000Y14277400D03*
%TO.P,U2,7,VCC*%
%TO.N,+3V3*%
X13750000Y14277400D03*
%TO.P,U2,8,ENABLE1*%
X14250000Y14277400D03*
%TO.P,U2,9,READY2*%
%TO.N,GND*%
X14250000Y11427400D03*
%TO.P,U2,10,READY1*%
X13750000Y11427400D03*
%TO.P,U2,11,SDAOUT2*%
%TO.N,/SDAout2*%
X13250000Y11427400D03*
%TO.P,U2,12,SDAIN*%
%TO.N,/SDAin*%
X12750000Y11427400D03*
%TO.P,U2,13,SDAOUT1*%
%TO.N,/SDAout1*%
X12250000Y11427400D03*
%TO.P,U2,14,SCLOUT1*%
%TO.N,/SCLout1*%
X11750000Y11427400D03*
%TO.P,U2,15,SCLIN*%
%TO.N,/SCLin*%
X11250000Y11427400D03*
%TO.P,U2,16,SCLOUT2*%
%TO.N,/SCLout2*%
X10750000Y11427400D03*
D23*
%TO.P,U2,17,EP*%
%TO.N,GND*%
X12500000Y12852400D03*
%TD*%
D24*
%TO.P,C1,1*%
%TO.N,+5V*%
X9245600Y4455200D03*
%TO.P,C1,2*%
%TO.N,GND*%
X9245600Y2555200D03*
%TD*%
D15*
%TO.P,R10,1*%
%TO.N,/XORL1*%
X17000000Y15735800D03*
%TO.P,R10,2*%
%TO.N,GND*%
X17000000Y17385800D03*
%TD*%
D25*
%TO.P,C4,1*%
%TO.N,+3V3*%
X16383000Y14097000D03*
%TO.P,C4,2*%
%TO.N,GND*%
X16383000Y12547000D03*
%TD*%
D26*
%TO.N,GND*%
X2146000Y18794000D03*
X2146000Y4294000D03*
X1066800Y11480800D03*
X9601200Y11125200D03*
X4846000Y9494000D03*
X10100000Y14500000D03*
X1046000Y4294000D03*
X23114000Y19151600D03*
X23977600Y19151600D03*
X20421600Y2844800D03*
X6299200Y17983200D03*
X1046000Y18794000D03*
X6299200Y19151600D03*
X1320800Y8788400D03*
X7518400Y12547600D03*
X8000000Y8900000D03*
X12547600Y7061200D03*
X23774400Y4216400D03*
X2336800Y14274800D03*
X14579600Y8991600D03*
X23146000Y11494000D03*
X10668000Y4521200D03*
X24146000Y11494000D03*
X1066800Y14274800D03*
X5994400Y2133600D03*
X2235200Y11480800D03*
%TO.N,+3V3*%
X14429777Y4695066D03*
X13375000Y19065000D03*
X17018000Y8077200D03*
X10566400Y15544800D03*
X15046000Y14294000D03*
%TO.N,+5V*%
X22446000Y18094000D03*
X22446000Y8194000D03*
X14274800Y2032000D03*
%TO.N,/SDAin*%
X10922000Y8800100D03*
X12954000Y9296400D03*
%TO.N,/SCLin*%
X6197600Y6400800D03*
X7642029Y10363200D03*
X6243018Y10334215D03*
%TO.N,/SCLout1*%
X11750000Y8194000D03*
X13766800Y8331200D03*
X18816787Y6381510D03*
%TO.N,/SDAout1*%
X22148800Y6425500D03*
%TO.N,/SCLout2*%
X18301378Y15937822D03*
X15113000Y10605500D03*
X10550500Y10421673D03*
%TO.N,/SDAout2*%
X22148800Y16459200D03*
%TO.N,/XORL1*%
X16110516Y15358727D03*
%TO.N,/XORL2*%
X11546000Y16594000D03*
%TD*%
D27*
%TO.N,GND*%
X10400000Y14800000D02*
X10100000Y14500000D01*
X14200000Y10300000D02*
X14250000Y10350000D01*
X10700000Y14800000D02*
X10400000Y14800000D01*
X10750000Y14277400D02*
X10750000Y14750000D01*
X14250000Y10350000D02*
X14250000Y11427400D01*
X13750000Y11427400D02*
X13750000Y10350000D01*
X10750000Y14750000D02*
X10700000Y14800000D01*
X13750000Y10350000D02*
X13800000Y10300000D01*
X13800000Y10300000D02*
X14200000Y10300000D01*
D28*
%TO.N,+3V3*%
X15343000Y14097000D02*
X15046000Y14394000D01*
D29*
X11625000Y20269200D02*
X11625000Y17907000D01*
X14494334Y4695066D02*
X14429777Y4695066D01*
D28*
X10007600Y15544800D02*
X10566400Y15544800D01*
X14250000Y15418400D02*
X14325600Y15494000D01*
X8991600Y15036800D02*
X9499600Y15036800D01*
D29*
X14429777Y4695066D02*
X14429777Y5382223D01*
X16916400Y8077200D02*
X16103600Y7264400D01*
D28*
X16383000Y14097000D02*
X15343000Y14097000D01*
D29*
X17018000Y8077200D02*
X16916400Y8077200D01*
D28*
X14325600Y15494000D02*
X14986000Y15494000D01*
D29*
X17093200Y8077200D02*
X17881600Y7288800D01*
D28*
X13817600Y15494000D02*
X14325600Y15494000D01*
X9499600Y15036800D02*
X10007600Y15544800D01*
X13750000Y15090000D02*
X13750000Y15426400D01*
D29*
X13375000Y20269200D02*
X11625000Y20269200D01*
D28*
X8737600Y13766800D02*
X8737600Y14782800D01*
D29*
X13375000Y20269200D02*
X13375000Y19065000D01*
X13375000Y19065000D02*
X13375000Y17907000D01*
X17094200Y8077200D02*
X17907000Y8890000D01*
X17018000Y8077200D02*
X17093200Y8077200D01*
D28*
X13750000Y14277400D02*
X13750000Y15090000D01*
D29*
X16941800Y8077200D02*
X16129000Y8890000D01*
D28*
X10972800Y15544800D02*
X10566400Y15544800D01*
X8737600Y14782800D02*
X8991600Y15036800D01*
X8636000Y12051800D02*
X8636000Y13665200D01*
D29*
X17018000Y8077200D02*
X17094200Y8077200D01*
D28*
X8636000Y13665200D02*
X8737600Y13766800D01*
X13750000Y15426400D02*
X13817600Y15494000D01*
X14986000Y15494000D02*
X16383000Y14097000D01*
D29*
X14102500Y5709500D02*
X13446800Y5709500D01*
X17018000Y8077200D02*
X16941800Y8077200D01*
D28*
X14250000Y14277400D02*
X14250000Y15418400D01*
X11250000Y14277400D02*
X11250000Y15267600D01*
D29*
X14429777Y5382223D02*
X14102500Y5709500D01*
X15430200Y3759200D02*
X14494334Y4695066D01*
D28*
X11250000Y15267600D02*
X10972800Y15544800D01*
D29*
%TO.N,+5V*%
X14122400Y2184400D02*
X14274800Y2032000D01*
X13446800Y2250400D02*
X13512800Y2184400D01*
X22446000Y18094000D02*
X21846960Y18094000D01*
X11546800Y3434500D02*
X11546800Y2250400D01*
X11546800Y3434500D02*
X10266300Y3434500D01*
X6144600Y4625000D02*
X9075800Y4625000D01*
X15430200Y2032000D02*
X14274800Y2032000D01*
X10266300Y3434500D02*
X9245600Y4455200D01*
X4650000Y14625000D02*
X4650000Y10598000D01*
X9804400Y5014000D02*
X9245600Y4455200D01*
X11612800Y2184400D02*
X13512800Y2184400D01*
X21846960Y18094000D02*
X21565960Y18375000D01*
X9075800Y4625000D02*
X9245600Y4455200D01*
X9804400Y6236200D02*
X9804400Y5014000D01*
X11546800Y2250400D02*
X11612800Y2184400D01*
X20350000Y18375000D02*
X21565960Y18375000D01*
X22265000Y8375000D02*
X22446000Y8194000D01*
X13446800Y3434500D02*
X13446800Y2250400D01*
X4650000Y4625000D02*
X6144600Y4625000D01*
X2846000Y5594000D02*
X3746000Y4694000D01*
X2846000Y8794000D02*
X2846000Y5594000D01*
X13512800Y2184400D02*
X14122400Y2184400D01*
X20350000Y8375000D02*
X22265000Y8375000D01*
X4650000Y10598000D02*
X2846000Y8794000D01*
D28*
%TO.N,/SDAin*%
X6942529Y9113229D02*
X6922500Y9093200D01*
X9493394Y9093200D02*
X8929123Y9657471D01*
X4650000Y7125000D02*
X6363000Y7125000D01*
X6642537Y16457463D02*
X5975000Y17125000D01*
X5975000Y17125000D02*
X4650000Y17125000D01*
X12750000Y11427400D02*
X12750000Y9500400D01*
X10922000Y8800100D02*
X10628900Y9093200D01*
X6942529Y11688809D02*
X6642538Y11988800D01*
X12750000Y9500400D02*
X12954000Y9296400D01*
X6922500Y9093200D02*
X6578600Y8749300D01*
X6642538Y11988800D02*
X6642537Y16457463D01*
X6451600Y7213600D02*
X6578600Y7340600D01*
X8929123Y9657471D02*
X6942529Y9657471D01*
X6363000Y7125000D02*
X6451600Y7213600D01*
X6578600Y8749300D02*
X6578600Y7340600D01*
X6942529Y9657471D02*
X6942529Y11688809D01*
X6942529Y9657471D02*
X6942529Y9113229D01*
X10628900Y9093200D02*
X9493394Y9093200D01*
%TO.N,/SCLin*%
X9652000Y9499600D02*
X10922000Y9499600D01*
X5816600Y15875000D02*
X4650000Y15875000D01*
X4650000Y5875000D02*
X5671800Y5875000D01*
X8636000Y10401800D02*
X7680629Y10401800D01*
X5671800Y5875000D02*
X6197600Y6400800D01*
X8636000Y10401800D02*
X8749800Y10401800D01*
X10922000Y9499600D02*
X11250000Y9827600D01*
X11250000Y9827600D02*
X11250000Y11427400D01*
X6243018Y15448582D02*
X5816600Y15875000D01*
X6243018Y10334215D02*
X6243018Y15448582D01*
X8749800Y10401800D02*
X9652000Y9499600D01*
X7680629Y10401800D02*
X7642029Y10363200D01*
%TO.N,Net-(D1-Pad2)*%
X9673700Y7886200D02*
X8000000Y6212500D01*
X9804400Y7886200D02*
X9673700Y7886200D01*
%TO.N,/SCLout1*%
X18816787Y6929587D02*
X18816787Y6381510D01*
X17881600Y5638800D02*
X17881600Y6362220D01*
X19012200Y7125000D02*
X18816787Y6929587D01*
X18816787Y6381510D02*
X17862310Y6381510D01*
X11750000Y11427400D02*
X11750000Y8194000D01*
X20350000Y7125000D02*
X19012200Y7125000D01*
X15716490Y6381510D02*
X17862310Y6381510D01*
X17881600Y6362220D02*
X17862310Y6381510D01*
X13766800Y8331200D02*
X15716490Y6381510D01*
%TO.N,/SDAout1*%
X20350000Y5875000D02*
X21978600Y5875000D01*
X19299227Y5875000D02*
X18332113Y4907887D01*
X16810113Y4907887D02*
X16103600Y5614400D01*
X22148800Y6045200D02*
X22148800Y6425500D01*
X18332113Y4907887D02*
X16810113Y4907887D01*
X12250000Y8790000D02*
X12250000Y11427400D01*
X15425600Y5614400D02*
X12250000Y8790000D01*
X20350000Y5875000D02*
X19299227Y5875000D01*
X21978600Y5875000D02*
X22148800Y6045200D01*
X16103600Y5614400D02*
X15425600Y5614400D01*
%TO.N,/SCLout2*%
X18084800Y15717168D02*
X18142481Y15659487D01*
X16063500Y10605500D02*
X16129000Y10540000D01*
X18084800Y15721244D02*
X18084800Y15717168D01*
X18750600Y17125000D02*
X18288000Y16662400D01*
X18301378Y15937822D02*
X18084800Y15721244D01*
X18288000Y16662400D02*
X18288000Y15951200D01*
X10750000Y10621173D02*
X10550500Y10421673D01*
X18288000Y15951200D02*
X18301378Y15937822D01*
X20350000Y17125000D02*
X18750600Y17125000D01*
X18142481Y15659487D02*
X18142480Y12427480D01*
X15113000Y10605500D02*
X16063500Y10605500D01*
X10750000Y11427400D02*
X10750000Y10621173D01*
X18142480Y12427480D02*
X16020520Y10305520D01*
%TO.N,/SDAout2*%
X18542000Y15189200D02*
X19227800Y15875000D01*
X17907000Y11557000D02*
X18542000Y12192000D01*
X19227800Y15875000D02*
X20350000Y15875000D01*
X21971000Y15875000D02*
X22148800Y16052800D01*
X18542000Y12192000D02*
X18542000Y15189200D01*
X17907000Y10540000D02*
X17069800Y9702800D01*
X17069800Y9702800D02*
X13597200Y9702800D01*
X22148800Y16052800D02*
X22148800Y16459200D01*
X17907000Y10540000D02*
X17907000Y11557000D01*
X13597200Y9702800D02*
X13250000Y10050000D01*
X20350000Y15875000D02*
X21971000Y15875000D01*
X13250000Y10050000D02*
X13250000Y11427400D01*
%TO.N,/XORL1*%
X14570003Y16671997D02*
X15025000Y17126994D01*
X15506200Y15735800D02*
X14570003Y16671997D01*
X16103707Y15365536D02*
X16103707Y15719893D01*
X13490503Y16227497D02*
X14125503Y16227497D01*
X17000000Y15735800D02*
X16087800Y15735800D01*
X13250000Y15986994D02*
X13490503Y16227497D01*
X16087800Y15735800D02*
X15506200Y15735800D01*
X13250000Y14277400D02*
X13250000Y15986994D01*
X14125503Y16227497D02*
X14570003Y16671997D01*
X16103707Y15719893D02*
X16087800Y15735800D01*
X15025000Y17126994D02*
X15025000Y17907000D01*
%TO.N,/XORL2*%
X10795000Y16891000D02*
X11092000Y16594000D01*
X9975000Y20269200D02*
X8278400Y20269200D01*
X12250000Y15890000D02*
X12250000Y14277400D01*
X11546000Y16594000D02*
X12250000Y15890000D01*
X9975000Y20269200D02*
X10795000Y19449200D01*
X10795000Y19449200D02*
X10795000Y16891000D01*
X8278400Y20269200D02*
X8000000Y20547600D01*
X11092000Y16594000D02*
X11546000Y16594000D01*
%TO.N,/XORH1*%
X14224000Y19468200D02*
X14224000Y16891000D01*
X14224000Y16891000D02*
X13970000Y16637000D01*
X12750000Y16052000D02*
X12750000Y14277400D01*
X13335000Y16637000D02*
X12750000Y16052000D01*
X16733800Y20269200D02*
X17000000Y20535400D01*
X15025000Y20269200D02*
X14224000Y19468200D01*
X15025000Y20269200D02*
X16733800Y20269200D01*
X13970000Y16637000D02*
X13335000Y16637000D01*
%TO.N,/XORH2*%
X11750000Y14277400D02*
X11750000Y15398000D01*
X8000000Y15697200D02*
X9474200Y15697200D01*
X10448997Y16671997D02*
X9975000Y17145994D01*
X9975000Y17145994D02*
X9975000Y17907000D01*
X10969216Y16178784D02*
X11750000Y15398000D01*
X10942210Y16178784D02*
X10969216Y16178784D01*
X9474200Y15697200D02*
X10448997Y16671997D01*
X10942210Y16178784D02*
X10448997Y16671997D01*
%TD*%
%TA.AperFunction,Conductor*%
%TO.N,GND*%
G36*
X868366Y22482687D02*
G01*
X890873Y22449787D01*
X931241Y22330867D01*
X932536Y22328374D01*
X1013190Y22173110D01*
X1050505Y22101275D01*
X1052158Y22099013D01*
X1052160Y22099009D01*
X1157596Y21954685D01*
X1203125Y21892364D01*
X1205104Y21890375D01*
X1331942Y21762871D01*
X1385589Y21708942D01*
X1593698Y21555230D01*
X1596192Y21553918D01*
X1820170Y21436077D01*
X1820177Y21436074D01*
X1822663Y21434766D01*
X2067215Y21350321D01*
X2069976Y21349817D01*
X2069979Y21349816D01*
X2174226Y21330777D01*
X2321726Y21303839D01*
X2324088Y21303715D01*
X2324090Y21303715D01*
X2403558Y21299550D01*
X2403572Y21299550D01*
X2404519Y21299500D01*
X2565782Y21299500D01*
X2637247Y21304936D01*
X2755182Y21313907D01*
X2755188Y21313908D01*
X2757976Y21314120D01*
X3010015Y21372539D01*
X3012622Y21373579D01*
X3012628Y21373581D01*
X3247710Y21467369D01*
X3247716Y21467372D01*
X3250318Y21468410D01*
X3252737Y21469832D01*
X3252741Y21469834D01*
X3470929Y21598101D01*
X3470933Y21598104D01*
X3473354Y21599527D01*
X3673991Y21762871D01*
X3847613Y21954685D01*
X3849163Y21957031D01*
X3849166Y21957035D01*
X3988667Y22168199D01*
X3988668Y22168200D01*
X3990222Y22170553D01*
X4062979Y22328374D01*
X4097364Y22402962D01*
X4097365Y22402964D01*
X4098538Y22405509D01*
X4099314Y22408206D01*
X4099318Y22408217D01*
X4110320Y22446459D01*
X4140108Y22487385D01*
X4181435Y22500000D01*
X5900000Y22500000D01*
X5900000Y17425500D01*
X5712707Y17425500D01*
X5665141Y17442813D01*
X5646281Y17466886D01*
X5638932Y17481855D01*
X5634603Y17486176D01*
X5634602Y17486178D01*
X5560679Y17559972D01*
X5560677Y17559973D01*
X5556350Y17564293D01*
X5550853Y17566980D01*
X5456682Y17613012D01*
X5456681Y17613012D01*
X5451518Y17615536D01*
X5383218Y17625500D01*
X3916782Y17625500D01*
X3914099Y17625105D01*
X3853577Y17616196D01*
X3853574Y17616195D01*
X3847888Y17615358D01*
X3842728Y17612825D01*
X3842726Y17612824D01*
X3796883Y17590316D01*
X3743145Y17563932D01*
X3738824Y17559603D01*
X3738822Y17559602D01*
X3665028Y17485679D01*
X3660707Y17481350D01*
X3609464Y17376518D01*
X3599500Y17308218D01*
X3599500Y16941782D01*
X3599895Y16939099D01*
X3608804Y16878577D01*
X3608805Y16878574D01*
X3609642Y16872888D01*
X3661068Y16768145D01*
X3665397Y16763824D01*
X3665398Y16763822D01*
X3739321Y16690028D01*
X3743650Y16685707D01*
X3749147Y16683020D01*
X3842934Y16637176D01*
X3848482Y16634464D01*
X3916782Y16624500D01*
X5383218Y16624500D01*
X5389363Y16625405D01*
X5446423Y16633804D01*
X5446426Y16633805D01*
X5452112Y16634642D01*
X5457272Y16637175D01*
X5457274Y16637176D01*
X5503117Y16659684D01*
X5556855Y16686068D01*
X5561176Y16690397D01*
X5561178Y16690398D01*
X5634473Y16763822D01*
X5639293Y16768650D01*
X5641978Y16774143D01*
X5641983Y16774150D01*
X5646307Y16782997D01*
X5682749Y16818129D01*
X5712789Y16824500D01*
X5819877Y16824500D01*
X5867443Y16807187D01*
X5872203Y16802826D01*
X5900000Y16775029D01*
X5900000Y16165299D01*
X5875978Y16174883D01*
X5869685Y16175500D01*
X5860588Y16175500D01*
X5843501Y16177500D01*
X5838185Y16178762D01*
X5838183Y16178762D01*
X5831534Y16180340D01*
X5810666Y16177500D01*
X5800937Y16176176D01*
X5790958Y16175500D01*
X5712707Y16175500D01*
X5665141Y16192813D01*
X5646281Y16216886D01*
X5638932Y16231855D01*
X5634603Y16236176D01*
X5634602Y16236178D01*
X5560679Y16309972D01*
X5560677Y16309973D01*
X5556350Y16314293D01*
X5550853Y16316980D01*
X5456682Y16363012D01*
X5456681Y16363012D01*
X5451518Y16365536D01*
X5383218Y16375500D01*
X3916782Y16375500D01*
X3914099Y16375105D01*
X3853577Y16366196D01*
X3853574Y16366195D01*
X3847888Y16365358D01*
X3842728Y16362825D01*
X3842726Y16362824D01*
X3796883Y16340316D01*
X3743145Y16313932D01*
X3738824Y16309603D01*
X3738822Y16309602D01*
X3665028Y16235679D01*
X3660707Y16231350D01*
X3658020Y16225853D01*
X3628421Y16165299D01*
X3609464Y16126518D01*
X3599500Y16058218D01*
X3599500Y15691782D01*
X3599895Y15689099D01*
X3608804Y15628577D01*
X3608805Y15628574D01*
X3609642Y15622888D01*
X3612175Y15617728D01*
X3612176Y15617726D01*
X3633399Y15574500D01*
X3661068Y15518145D01*
X3665397Y15513824D01*
X3665398Y15513822D01*
X3739321Y15440028D01*
X3743650Y15435707D01*
X3749147Y15433020D01*
X3842934Y15387176D01*
X3848482Y15384464D01*
X3916782Y15374500D01*
X5383218Y15374500D01*
X5389363Y15375405D01*
X5446423Y15383804D01*
X5446426Y15383805D01*
X5452112Y15384642D01*
X5457272Y15387175D01*
X5457274Y15387176D01*
X5503117Y15409684D01*
X5556855Y15436068D01*
X5561176Y15440397D01*
X5561178Y15440398D01*
X5639293Y15518650D01*
X5640910Y15517036D01*
X5674772Y15540312D01*
X5725158Y15535465D01*
X5745632Y15520997D01*
X5900000Y15366629D01*
X5900000Y10827922D01*
X5814736Y10762497D01*
X5811781Y10758646D01*
X5721434Y10640904D01*
X5721432Y10640900D01*
X5718482Y10637056D01*
X5657974Y10490977D01*
X5657342Y10486175D01*
X5657341Y10486172D01*
X5644618Y10389529D01*
X5637336Y10334215D01*
X5657974Y10177453D01*
X5718482Y10031374D01*
X5721432Y10027530D01*
X5721434Y10027526D01*
X5811781Y9909784D01*
X5814736Y9905933D01*
X5818587Y9902978D01*
X5900000Y9840508D01*
X5900000Y7425500D01*
X5712707Y7425500D01*
X5665141Y7442813D01*
X5646281Y7466886D01*
X5638932Y7481855D01*
X5634603Y7486176D01*
X5634602Y7486178D01*
X5560679Y7559972D01*
X5560677Y7559973D01*
X5556350Y7564293D01*
X5469652Y7606672D01*
X5456682Y7613012D01*
X5456681Y7613012D01*
X5451518Y7615536D01*
X5383218Y7625500D01*
X3916782Y7625500D01*
X3914099Y7625105D01*
X3853577Y7616196D01*
X3853574Y7616195D01*
X3847888Y7615358D01*
X3842728Y7612825D01*
X3842726Y7612824D01*
X3805682Y7594636D01*
X3743145Y7563932D01*
X3738824Y7559603D01*
X3738822Y7559602D01*
X3665028Y7485679D01*
X3660707Y7481350D01*
X3609464Y7376518D01*
X3599500Y7308218D01*
X3599500Y6941782D01*
X3599895Y6939099D01*
X3608804Y6878577D01*
X3608805Y6878574D01*
X3609642Y6872888D01*
X3661068Y6768145D01*
X3665397Y6763824D01*
X3665398Y6763822D01*
X3739321Y6690028D01*
X3743650Y6685707D01*
X3749147Y6683020D01*
X3842934Y6637176D01*
X3848482Y6634464D01*
X3916782Y6624500D01*
X5383218Y6624500D01*
X5389363Y6625405D01*
X5446423Y6633804D01*
X5446426Y6633805D01*
X5452112Y6634642D01*
X5517572Y6666781D01*
X5567898Y6672204D01*
X5609937Y6644008D01*
X5624017Y6595386D01*
X5618552Y6572038D01*
X5612556Y6557562D01*
X5611924Y6552760D01*
X5611923Y6552757D01*
X5592497Y6405195D01*
X5569124Y6360296D01*
X5522358Y6340924D01*
X5486634Y6348371D01*
X5457066Y6362824D01*
X5451518Y6365536D01*
X5383218Y6375500D01*
X3916782Y6375500D01*
X3914099Y6375105D01*
X3853577Y6366196D01*
X3853574Y6366195D01*
X3847888Y6365358D01*
X3842728Y6362825D01*
X3842726Y6362824D01*
X3813289Y6348371D01*
X3743145Y6313932D01*
X3738824Y6309603D01*
X3738822Y6309602D01*
X3665028Y6235679D01*
X3660707Y6231350D01*
X3609464Y6126518D01*
X3599500Y6058218D01*
X3599500Y5691782D01*
X3599895Y5689101D01*
X3599895Y5689097D01*
X3603908Y5661835D01*
X3593707Y5612254D01*
X3554023Y5580830D01*
X3503424Y5582267D01*
X3478371Y5598732D01*
X3318174Y5758929D01*
X3296782Y5804805D01*
X3296500Y5811255D01*
X3296500Y8576745D01*
X3313813Y8624311D01*
X3318174Y8629071D01*
X4946526Y10257423D01*
X4953039Y10263210D01*
X4977766Y10282703D01*
X4977768Y10282705D01*
X4982110Y10286128D01*
X5015926Y10335056D01*
X5017278Y10336948D01*
X5049348Y10380366D01*
X5049350Y10380370D01*
X5052634Y10384816D01*
X5054412Y10389882D01*
X5054597Y10390185D01*
X5054724Y10390445D01*
X5055774Y10392506D01*
X5055936Y10392811D01*
X5056080Y10393155D01*
X5059131Y10397569D01*
X5077063Y10454268D01*
X5077798Y10456471D01*
X5095685Y10507408D01*
X5095685Y10507409D01*
X5097519Y10512631D01*
X5097729Y10517994D01*
X5097987Y10519013D01*
X5098706Y10522703D01*
X5099980Y10526730D01*
X5100500Y10533337D01*
X5100500Y10587039D01*
X5100557Y10589945D01*
X5102621Y10642466D01*
X5102621Y10642467D01*
X5102838Y10647994D01*
X5101420Y10653341D01*
X5100947Y10657626D01*
X5100500Y10665747D01*
X5100500Y14050500D01*
X5117813Y14098066D01*
X5161650Y14123376D01*
X5174500Y14124500D01*
X5383218Y14124500D01*
X5389363Y14125405D01*
X5446423Y14133804D01*
X5446426Y14133805D01*
X5452112Y14134642D01*
X5457272Y14137175D01*
X5457274Y14137176D01*
X5503117Y14159684D01*
X5556855Y14186068D01*
X5561176Y14190397D01*
X5561178Y14190398D01*
X5634972Y14264321D01*
X5634973Y14264323D01*
X5639293Y14268650D01*
X5641980Y14274147D01*
X5688012Y14368318D01*
X5688012Y14368319D01*
X5690536Y14373482D01*
X5700500Y14441782D01*
X5700500Y14808218D01*
X5699595Y14814363D01*
X5691196Y14871423D01*
X5691195Y14871426D01*
X5690358Y14877112D01*
X5638932Y14981855D01*
X5634603Y14986176D01*
X5634602Y14986178D01*
X5560679Y15059972D01*
X5560677Y15059973D01*
X5556350Y15064293D01*
X5550853Y15066980D01*
X5456682Y15113012D01*
X5456681Y15113012D01*
X5451518Y15115536D01*
X5383218Y15125500D01*
X3916782Y15125500D01*
X3914099Y15125105D01*
X3853577Y15116196D01*
X3853574Y15116195D01*
X3847888Y15115358D01*
X3842728Y15112825D01*
X3842726Y15112824D01*
X3796883Y15090316D01*
X3743145Y15063932D01*
X3738824Y15059603D01*
X3738822Y15059602D01*
X3665028Y14985679D01*
X3660707Y14981350D01*
X3658020Y14975853D01*
X3612278Y14882274D01*
X3609464Y14876518D01*
X3599500Y14808218D01*
X3599500Y14441782D01*
X3599895Y14439099D01*
X3608804Y14378577D01*
X3608805Y14378574D01*
X3609642Y14372888D01*
X3661068Y14268145D01*
X3665397Y14263824D01*
X3665398Y14263822D01*
X3739321Y14190028D01*
X3743650Y14185707D01*
X3749147Y14183020D01*
X3842934Y14137176D01*
X3848482Y14134464D01*
X3916782Y14124500D01*
X4125500Y14124500D01*
X4173066Y14107187D01*
X4198376Y14063350D01*
X4199500Y14050500D01*
X4199500Y10815255D01*
X4182187Y10767689D01*
X4177826Y10762929D01*
X2549474Y9134577D01*
X2542961Y9128790D01*
X2518234Y9109297D01*
X2518232Y9109295D01*
X2513890Y9105872D01*
X2510746Y9101323D01*
X2510745Y9101322D01*
X2480074Y9056944D01*
X2478722Y9055052D01*
X2446652Y9011634D01*
X2446650Y9011630D01*
X2443366Y9007184D01*
X2441588Y9002118D01*
X2441403Y9001815D01*
X2441276Y9001555D01*
X2440226Y8999494D01*
X2440064Y8999189D01*
X2439920Y8998845D01*
X2436869Y8994431D01*
X2435200Y8989153D01*
X2418937Y8937732D01*
X2418202Y8935529D01*
X2400315Y8884592D01*
X2398481Y8879369D01*
X2398271Y8874006D01*
X2398013Y8872987D01*
X2397294Y8869297D01*
X2396020Y8865270D01*
X2395500Y8858663D01*
X2395500Y8804961D01*
X2395443Y8802056D01*
X2393162Y8744006D01*
X2394578Y8738664D01*
X2395053Y8734364D01*
X2395500Y8726246D01*
X2395500Y5625151D01*
X2394987Y5616454D01*
X2390636Y5579690D01*
X2391630Y5574248D01*
X2391630Y5574245D01*
X2401318Y5521200D01*
X2401700Y5518907D01*
X2409729Y5465504D01*
X2410551Y5460038D01*
X2412874Y5455202D01*
X2412956Y5454864D01*
X2413047Y5454600D01*
X2413773Y5452363D01*
X2413868Y5452054D01*
X2414012Y5451704D01*
X2414975Y5446427D01*
X2417525Y5441518D01*
X2442382Y5393666D01*
X2443417Y5391595D01*
X2469191Y5337921D01*
X2472837Y5333977D01*
X2473379Y5333069D01*
X2475475Y5329958D01*
X2477421Y5326212D01*
X2481725Y5321172D01*
X2519695Y5283202D01*
X2521709Y5281107D01*
X2561146Y5238444D01*
X2565928Y5235666D01*
X2569295Y5232969D01*
X2575354Y5227543D01*
X3451384Y4351513D01*
X3453607Y4349871D01*
X3466774Y4340146D01*
X3532816Y4291366D01*
X3660631Y4246481D01*
X3665106Y4246305D01*
X3703049Y4226237D01*
X3743650Y4185707D01*
X3749147Y4183020D01*
X3842934Y4137176D01*
X3848482Y4134464D01*
X3916782Y4124500D01*
X5383218Y4124500D01*
X5389363Y4125405D01*
X5446423Y4133804D01*
X5446426Y4133805D01*
X5452112Y4134642D01*
X5457272Y4137175D01*
X5457274Y4137176D01*
X5517867Y4166926D01*
X5550480Y4174500D01*
X5900000Y4174500D01*
X5900000Y500000D01*
X4179200Y500000D01*
X4131634Y517313D01*
X4109127Y550213D01*
X4069662Y666473D01*
X4069662Y666474D01*
X4068759Y669133D01*
X4067464Y671626D01*
X3950788Y896236D01*
X3950788Y896237D01*
X3949495Y898725D01*
X3844121Y1042965D01*
X3798532Y1105368D01*
X3798531Y1105369D01*
X3796875Y1107636D01*
X3707409Y1197572D01*
X3616393Y1289066D01*
X3616390Y1289068D01*
X3614411Y1291058D01*
X3406302Y1444770D01*
X3359787Y1469242D01*
X3179830Y1563923D01*
X3179823Y1563926D01*
X3177337Y1565234D01*
X2932785Y1649679D01*
X2930024Y1650183D01*
X2930021Y1650184D01*
X2825774Y1669223D01*
X2678274Y1696161D01*
X2675912Y1696285D01*
X2675910Y1696285D01*
X2596442Y1700450D01*
X2596428Y1700450D01*
X2595481Y1700500D01*
X2434218Y1700500D01*
X2362753Y1695064D01*
X2244818Y1686093D01*
X2244812Y1686092D01*
X2242024Y1685880D01*
X1989985Y1627461D01*
X1987378Y1626421D01*
X1987372Y1626419D01*
X1752290Y1532631D01*
X1752284Y1532628D01*
X1749682Y1531590D01*
X1747263Y1530168D01*
X1747259Y1530166D01*
X1529071Y1401899D01*
X1529067Y1401896D01*
X1526646Y1400473D01*
X1326009Y1237129D01*
X1152387Y1045315D01*
X1150837Y1042969D01*
X1150834Y1042965D01*
X1057042Y900991D01*
X1009778Y829447D01*
X1008600Y826892D01*
X1008599Y826890D01*
X935872Y669133D01*
X901462Y594491D01*
X900686Y591794D01*
X900682Y591783D01*
X889680Y553541D01*
X859892Y512615D01*
X818565Y500000D01*
X574000Y500000D01*
X526434Y517313D01*
X501124Y561150D01*
X500000Y574000D01*
X500000Y22426000D01*
X517313Y22473566D01*
X561150Y22498876D01*
X574000Y22500000D01*
X820800Y22500000D01*
X868366Y22482687D01*
G37*
%TD.AperFunction*%
%TA.AperFunction,Conductor*%
G36*
X5900000Y5075500D02*
G01*
X5550542Y5075500D01*
X5518045Y5083017D01*
X5456678Y5113014D01*
X5456677Y5113014D01*
X5451518Y5115536D01*
X5383218Y5125500D01*
X3982255Y5125500D01*
X3934689Y5142813D01*
X3929929Y5147174D01*
X3823778Y5253325D01*
X3802386Y5299201D01*
X3815487Y5348096D01*
X3856951Y5377130D01*
X3886786Y5378876D01*
X3916782Y5374500D01*
X5383218Y5374500D01*
X5389363Y5375405D01*
X5446423Y5383804D01*
X5446426Y5383805D01*
X5452112Y5384642D01*
X5457272Y5387175D01*
X5457274Y5387176D01*
X5503117Y5409684D01*
X5556855Y5436068D01*
X5561176Y5440397D01*
X5561178Y5440398D01*
X5598133Y5477418D01*
X5639293Y5518650D01*
X5641979Y5524146D01*
X5641981Y5524148D01*
X5646923Y5534258D01*
X5683366Y5569389D01*
X5710627Y5575708D01*
X5721242Y5576107D01*
X5739008Y5576774D01*
X5745285Y5579471D01*
X5745290Y5579472D01*
X5752143Y5582416D01*
X5767802Y5587174D01*
X5775136Y5588540D01*
X5781853Y5589791D01*
X5787668Y5593376D01*
X5787672Y5593377D01*
X5806090Y5604730D01*
X5815707Y5609726D01*
X5837062Y5618901D01*
X5837064Y5618902D01*
X5841863Y5620964D01*
X5846749Y5624978D01*
X5853180Y5631409D01*
X5866676Y5642077D01*
X5871332Y5644947D01*
X5877148Y5648532D01*
X5895839Y5673112D01*
X5900000Y5677878D01*
X5900000Y5075500D01*
G37*
%TD.AperFunction*%
%TD*%
%TA.AperFunction,Conductor*%
%TO.N,GND*%
G36*
X19050000Y500000D02*
G01*
X14179200Y500000D01*
X14131634Y517313D01*
X14109127Y550213D01*
X14069662Y666473D01*
X14069662Y666474D01*
X14068759Y669133D01*
X14067464Y671626D01*
X13950788Y896236D01*
X13950788Y896237D01*
X13949495Y898725D01*
X13844121Y1042965D01*
X13798532Y1105368D01*
X13798531Y1105369D01*
X13796875Y1107636D01*
X13698811Y1206215D01*
X13616393Y1289066D01*
X13616390Y1289068D01*
X13614411Y1291058D01*
X13425181Y1430826D01*
X13408566Y1443098D01*
X13408564Y1443099D01*
X13406302Y1444770D01*
X13287140Y1507464D01*
X13179830Y1563923D01*
X13179823Y1563926D01*
X13177337Y1565234D01*
X13105751Y1589953D01*
X13066440Y1621843D01*
X13056825Y1671540D01*
X13081404Y1715791D01*
X13129904Y1733900D01*
X13501839Y1733900D01*
X13504745Y1733843D01*
X13557270Y1731779D01*
X13562794Y1731562D01*
X13568136Y1732978D01*
X13572436Y1733453D01*
X13580554Y1733900D01*
X13710134Y1733900D01*
X13757700Y1716587D01*
X13768841Y1704950D01*
X13846518Y1603718D01*
X13850369Y1600763D01*
X13968111Y1510416D01*
X13968115Y1510414D01*
X13971959Y1507464D01*
X14118038Y1446956D01*
X14122840Y1446324D01*
X14122843Y1446323D01*
X14269992Y1426951D01*
X14274800Y1426318D01*
X14279608Y1426951D01*
X14426757Y1446323D01*
X14426760Y1446324D01*
X14431562Y1446956D01*
X14577641Y1507464D01*
X14581486Y1510414D01*
X14581489Y1510416D01*
X14654198Y1566208D01*
X14699246Y1581500D01*
X14784462Y1581500D01*
X14832028Y1564187D01*
X14850396Y1541096D01*
X14854027Y1533969D01*
X14854031Y1533964D01*
X14856672Y1528780D01*
X14951980Y1433472D01*
X14957170Y1430828D01*
X14957172Y1430826D01*
X15066880Y1374927D01*
X15066883Y1374926D01*
X15072074Y1372281D01*
X15077826Y1371370D01*
X15077829Y1371369D01*
X15168839Y1356955D01*
X15171712Y1356500D01*
X15688688Y1356500D01*
X15691561Y1356955D01*
X15782571Y1371369D01*
X15782574Y1371370D01*
X15788326Y1372281D01*
X15793517Y1374926D01*
X15793520Y1374927D01*
X15903228Y1430826D01*
X15903230Y1430828D01*
X15908420Y1433472D01*
X16003728Y1528780D01*
X16029817Y1579983D01*
X16066836Y1614503D01*
X16117385Y1617153D01*
X16157811Y1586689D01*
X16166812Y1567032D01*
X16175747Y1536280D01*
X16179415Y1527802D01*
X16255057Y1399898D01*
X16260721Y1392596D01*
X16365796Y1287521D01*
X16373098Y1281857D01*
X16501002Y1206215D01*
X16509481Y1202546D01*
X16653021Y1160844D01*
X16660420Y1159492D01*
X16690642Y1157114D01*
X16693540Y1157000D01*
X16717152Y1157000D01*
X16727148Y1160638D01*
X16730200Y1165925D01*
X16730200Y1170048D01*
X17230200Y1170048D01*
X17233838Y1160052D01*
X17239125Y1157000D01*
X17266860Y1157000D01*
X17269758Y1157114D01*
X17299980Y1159492D01*
X17307379Y1160844D01*
X17450919Y1202546D01*
X17459398Y1206215D01*
X17587302Y1281857D01*
X17594604Y1287521D01*
X17699679Y1392596D01*
X17705343Y1399898D01*
X17780985Y1527802D01*
X17784654Y1536281D01*
X17826356Y1679821D01*
X17827708Y1687220D01*
X17830086Y1717442D01*
X17830200Y1720340D01*
X17830200Y1768952D01*
X17826562Y1778948D01*
X17821275Y1782000D01*
X17243248Y1782000D01*
X17233252Y1778362D01*
X17230200Y1773075D01*
X17230200Y1170048D01*
X16730200Y1170048D01*
X16730200Y2295048D01*
X17230200Y2295048D01*
X17233838Y2285052D01*
X17239125Y2282000D01*
X17817152Y2282000D01*
X17827148Y2285638D01*
X17830200Y2290925D01*
X17830200Y2343659D01*
X17830086Y2346558D01*
X17827708Y2376780D01*
X17826356Y2384179D01*
X17784654Y2527719D01*
X17780985Y2536198D01*
X17705343Y2664102D01*
X17699679Y2671404D01*
X17594604Y2776479D01*
X17587302Y2782143D01*
X17558282Y2799305D01*
X17526153Y2838420D01*
X17526682Y2889036D01*
X17558282Y2926695D01*
X17587302Y2943857D01*
X17594604Y2949521D01*
X17699679Y3054596D01*
X17705343Y3061898D01*
X17780985Y3189802D01*
X17784654Y3198281D01*
X17826356Y3341821D01*
X17827708Y3349220D01*
X17830086Y3379442D01*
X17830200Y3382340D01*
X17830200Y3430952D01*
X17826562Y3440948D01*
X17821275Y3444000D01*
X17243248Y3444000D01*
X17233252Y3440362D01*
X17230200Y3435075D01*
X17230200Y2295048D01*
X16730200Y2295048D01*
X16730200Y3870000D01*
X16747513Y3917566D01*
X16791350Y3942876D01*
X16804200Y3944000D01*
X17817152Y3944000D01*
X17827148Y3947638D01*
X17830200Y3952925D01*
X17830200Y4005659D01*
X17830086Y4008558D01*
X17827708Y4038780D01*
X17826356Y4046179D01*
X17784654Y4189719D01*
X17780985Y4198198D01*
X17705343Y4326102D01*
X17699679Y4333404D01*
X17594604Y4438479D01*
X17587302Y4444143D01*
X17544101Y4469692D01*
X17511971Y4508807D01*
X17512502Y4559423D01*
X17545443Y4597857D01*
X17581770Y4607387D01*
X18277546Y4607387D01*
X18283019Y4606985D01*
X18287455Y4605462D01*
X18294279Y4605718D01*
X18294280Y4605718D01*
X18337354Y4607335D01*
X18340130Y4607387D01*
X18360061Y4607387D01*
X18363413Y4608011D01*
X18366804Y4608324D01*
X18366822Y4608134D01*
X18370868Y4608593D01*
X18399321Y4609661D01*
X18405598Y4612358D01*
X18405603Y4612359D01*
X18412456Y4615303D01*
X18428115Y4620061D01*
X18435449Y4621427D01*
X18442166Y4622678D01*
X18447981Y4626263D01*
X18447985Y4626264D01*
X18466403Y4637617D01*
X18476020Y4642613D01*
X18497375Y4651788D01*
X18497377Y4651789D01*
X18502176Y4653851D01*
X18507062Y4657865D01*
X18513493Y4664296D01*
X18526989Y4674964D01*
X18527538Y4675302D01*
X18537461Y4681419D01*
X18556152Y4705999D01*
X18562730Y4713533D01*
X19050000Y5200802D01*
X19050000Y500000D01*
G37*
%TD.AperFunction*%
%TA.AperFunction,Conductor*%
G36*
X6624961Y4162028D02*
G01*
X6632206Y4157187D01*
X6666213Y4134464D01*
X6683769Y4122733D01*
X6719775Y4115571D01*
X6738682Y4111810D01*
X6738683Y4111810D01*
X6742252Y4111100D01*
X7481748Y4111100D01*
X7485317Y4111810D01*
X7485318Y4111810D01*
X7504225Y4115571D01*
X7540231Y4122733D01*
X7557788Y4134464D01*
X7591794Y4157187D01*
X7599039Y4162028D01*
X7640152Y4174500D01*
X8252123Y4174500D01*
X8299689Y4157187D01*
X8322438Y4119605D01*
X8323081Y4119831D01*
X8367966Y3992016D01*
X8371250Y3987570D01*
X8371251Y3987568D01*
X8408154Y3937606D01*
X8448450Y3883050D01*
X8557416Y3802566D01*
X8685231Y3757681D01*
X8689714Y3757257D01*
X8689715Y3757257D01*
X8715038Y3754863D01*
X8715045Y3754863D01*
X8716766Y3754700D01*
X9278345Y3754700D01*
X9325911Y3737387D01*
X9330671Y3733026D01*
X9500039Y3563658D01*
X9521431Y3517782D01*
X9511799Y3474332D01*
X9495600Y3446275D01*
X9495600Y2818248D01*
X9499238Y2808252D01*
X9504525Y2805200D01*
X10357552Y2805200D01*
X10367548Y2808838D01*
X10370600Y2814125D01*
X10370600Y2869389D01*
X10370486Y2872288D01*
X10367975Y2904194D01*
X10381502Y2952972D01*
X10423219Y2981643D01*
X10441747Y2984000D01*
X10972300Y2984000D01*
X11019866Y2966687D01*
X11045176Y2922850D01*
X11046300Y2910000D01*
X11046300Y2888782D01*
X11046695Y2886099D01*
X11055604Y2825577D01*
X11055605Y2825574D01*
X11056442Y2819888D01*
X11058975Y2814728D01*
X11058976Y2814726D01*
X11088726Y2754133D01*
X11096300Y2721520D01*
X11096300Y2281551D01*
X11095787Y2272854D01*
X11091436Y2236090D01*
X11092430Y2230648D01*
X11092430Y2230645D01*
X11102118Y2177600D01*
X11102500Y2175307D01*
X11111351Y2116438D01*
X11113674Y2111602D01*
X11113756Y2111264D01*
X11113847Y2111000D01*
X11114573Y2108763D01*
X11114668Y2108454D01*
X11114812Y2108104D01*
X11115775Y2102827D01*
X11118325Y2097918D01*
X11143182Y2050066D01*
X11144217Y2047995D01*
X11169991Y1994321D01*
X11173637Y1990377D01*
X11174179Y1989469D01*
X11176275Y1986358D01*
X11178221Y1982612D01*
X11182525Y1977572D01*
X11220495Y1939602D01*
X11222509Y1937507D01*
X11261946Y1894844D01*
X11266729Y1892066D01*
X11267837Y1891178D01*
X11279682Y1879240D01*
X11300928Y1852290D01*
X11305477Y1849146D01*
X11305478Y1849145D01*
X11349856Y1818474D01*
X11351748Y1817122D01*
X11395166Y1785052D01*
X11395170Y1785050D01*
X11399616Y1781766D01*
X11404682Y1779988D01*
X11404985Y1779803D01*
X11405245Y1779676D01*
X11407306Y1778626D01*
X11407611Y1778464D01*
X11407955Y1778320D01*
X11412369Y1775269D01*
X11432343Y1768952D01*
X11469068Y1757337D01*
X11471271Y1756602D01*
X11522208Y1738715D01*
X11527431Y1736881D01*
X11532794Y1736671D01*
X11533813Y1736413D01*
X11537503Y1735694D01*
X11541530Y1734420D01*
X11548137Y1733900D01*
X11601839Y1733900D01*
X11604745Y1733843D01*
X11657270Y1731779D01*
X11662794Y1731562D01*
X11668136Y1732978D01*
X11672436Y1733453D01*
X11680554Y1733900D01*
X11871595Y1733900D01*
X11919161Y1716587D01*
X11944471Y1672750D01*
X11935681Y1622900D01*
X11899016Y1591168D01*
X11887789Y1586689D01*
X11752290Y1532631D01*
X11752284Y1532628D01*
X11749682Y1531590D01*
X11747263Y1530168D01*
X11747259Y1530166D01*
X11529071Y1401899D01*
X11529067Y1401896D01*
X11526646Y1400473D01*
X11326009Y1237129D01*
X11152387Y1045315D01*
X11150837Y1042969D01*
X11150834Y1042965D01*
X11057042Y900991D01*
X11009778Y829447D01*
X11008600Y826892D01*
X11008599Y826890D01*
X10935872Y669133D01*
X10901462Y594491D01*
X10900686Y591794D01*
X10900682Y591783D01*
X10889680Y553541D01*
X10859892Y512615D01*
X10818565Y500000D01*
X5900000Y500000D01*
X5900000Y2241010D01*
X8120600Y2241010D01*
X8120714Y2238111D01*
X8123203Y2206478D01*
X8124555Y2199079D01*
X8168019Y2049473D01*
X8171688Y2040994D01*
X8250546Y1907653D01*
X8256210Y1900351D01*
X8365751Y1790810D01*
X8373053Y1785146D01*
X8506394Y1706288D01*
X8514873Y1702619D01*
X8664479Y1659155D01*
X8671878Y1657803D01*
X8703511Y1655314D01*
X8706410Y1655200D01*
X8982552Y1655200D01*
X8992548Y1658838D01*
X8995600Y1664125D01*
X8995600Y1668248D01*
X9495600Y1668248D01*
X9499238Y1658252D01*
X9504525Y1655200D01*
X9784790Y1655200D01*
X9787689Y1655314D01*
X9819322Y1657803D01*
X9826721Y1659155D01*
X9976327Y1702619D01*
X9984806Y1706288D01*
X10118147Y1785146D01*
X10125449Y1790810D01*
X10234990Y1900351D01*
X10240654Y1907653D01*
X10319512Y2040994D01*
X10323181Y2049473D01*
X10366645Y2199079D01*
X10367997Y2206478D01*
X10370486Y2238111D01*
X10370600Y2241010D01*
X10370600Y2292152D01*
X10366962Y2302148D01*
X10361675Y2305200D01*
X9508648Y2305200D01*
X9498652Y2301562D01*
X9495600Y2296275D01*
X9495600Y1668248D01*
X8995600Y1668248D01*
X8995600Y2292152D01*
X8991962Y2302148D01*
X8986675Y2305200D01*
X8133648Y2305200D01*
X8123652Y2301562D01*
X8120600Y2296275D01*
X8120600Y2241010D01*
X5900000Y2241010D01*
X5900000Y2883029D01*
X6362001Y2883029D01*
X6362456Y2877246D01*
X6375924Y2792206D01*
X6379481Y2781260D01*
X6431713Y2678747D01*
X6438478Y2669436D01*
X6519836Y2588078D01*
X6529147Y2581313D01*
X6631658Y2529081D01*
X6642607Y2525523D01*
X6727646Y2512055D01*
X6733428Y2511600D01*
X6848952Y2511600D01*
X6858948Y2515238D01*
X6862000Y2520525D01*
X6862000Y2524649D01*
X7362000Y2524649D01*
X7365638Y2514653D01*
X7370925Y2511601D01*
X7490571Y2511601D01*
X7496354Y2512056D01*
X7581394Y2525524D01*
X7592340Y2529081D01*
X7694853Y2581313D01*
X7704164Y2588078D01*
X7785522Y2669436D01*
X7792287Y2678747D01*
X7844519Y2781258D01*
X7848077Y2792207D01*
X7852201Y2818248D01*
X8120600Y2818248D01*
X8124238Y2808252D01*
X8129525Y2805200D01*
X8982552Y2805200D01*
X8992548Y2808838D01*
X8995600Y2814125D01*
X8995600Y3442152D01*
X8991962Y3452148D01*
X8986675Y3455200D01*
X8706411Y3455200D01*
X8703511Y3455086D01*
X8671878Y3452597D01*
X8664479Y3451245D01*
X8514873Y3407781D01*
X8506394Y3404112D01*
X8373053Y3325254D01*
X8365751Y3319590D01*
X8256210Y3210049D01*
X8250546Y3202747D01*
X8171688Y3069406D01*
X8168019Y3060927D01*
X8124555Y2911321D01*
X8123203Y2903922D01*
X8120714Y2872289D01*
X8120600Y2869389D01*
X8120600Y2818248D01*
X7852201Y2818248D01*
X7861545Y2877246D01*
X7862000Y2883028D01*
X7862000Y2948552D01*
X7858362Y2958548D01*
X7853075Y2961600D01*
X7375048Y2961600D01*
X7365052Y2957962D01*
X7362000Y2952675D01*
X7362000Y2524649D01*
X6862000Y2524649D01*
X6862000Y2948552D01*
X6858362Y2958548D01*
X6853075Y2961600D01*
X6375049Y2961600D01*
X6365053Y2957962D01*
X6362001Y2952675D01*
X6362001Y2883029D01*
X5900000Y2883029D01*
X5900000Y3474648D01*
X6362000Y3474648D01*
X6365638Y3464652D01*
X6370925Y3461600D01*
X6848952Y3461600D01*
X6858948Y3465238D01*
X6862000Y3470525D01*
X6862000Y3474648D01*
X7362000Y3474648D01*
X7365638Y3464652D01*
X7370925Y3461600D01*
X7848951Y3461600D01*
X7858947Y3465238D01*
X7861999Y3470525D01*
X7861999Y3540171D01*
X7861544Y3545954D01*
X7848076Y3630994D01*
X7844519Y3641940D01*
X7792287Y3744453D01*
X7785522Y3753764D01*
X7704164Y3835122D01*
X7694853Y3841887D01*
X7592342Y3894119D01*
X7581393Y3897677D01*
X7496354Y3911145D01*
X7490572Y3911600D01*
X7375048Y3911600D01*
X7365052Y3907962D01*
X7362000Y3902675D01*
X7362000Y3474648D01*
X6862000Y3474648D01*
X6862000Y3898551D01*
X6858362Y3908547D01*
X6853075Y3911599D01*
X6733429Y3911599D01*
X6727646Y3911144D01*
X6642606Y3897676D01*
X6631660Y3894119D01*
X6529147Y3841887D01*
X6519836Y3835122D01*
X6438478Y3753764D01*
X6431713Y3744453D01*
X6379481Y3641942D01*
X6375923Y3630993D01*
X6362455Y3545954D01*
X6362000Y3540172D01*
X6362000Y3474648D01*
X5900000Y3474648D01*
X5900000Y4174500D01*
X6583848Y4174500D01*
X6624961Y4162028D01*
G37*
%TD.AperFunction*%
%TA.AperFunction,Conductor*%
G36*
X8821566Y9339658D02*
G01*
X8826326Y9335297D01*
X9242324Y8919299D01*
X9245909Y8915146D01*
X9247969Y8910931D01*
X9276363Y8884592D01*
X9284575Y8876974D01*
X9286575Y8875048D01*
X9300671Y8860952D01*
X9303482Y8859024D01*
X9306101Y8856847D01*
X9305991Y8856715D01*
X9309167Y8854161D01*
X9311924Y8851604D01*
X9330040Y8834799D01*
X9343313Y8829504D01*
X9357749Y8821796D01*
X9369540Y8813707D01*
X9390732Y8808678D01*
X9397242Y8807133D01*
X9407575Y8803865D01*
X9424992Y8796917D01*
X9434016Y8793317D01*
X9440309Y8792700D01*
X9449402Y8792700D01*
X9466488Y8790700D01*
X9471808Y8789438D01*
X9471811Y8789438D01*
X9478460Y8787860D01*
X9485228Y8788781D01*
X9485231Y8788781D01*
X9509057Y8792024D01*
X9519036Y8792700D01*
X10252396Y8792700D01*
X10299962Y8775387D01*
X10325763Y8728359D01*
X10335723Y8652705D01*
X10336956Y8643338D01*
X10338812Y8638858D01*
X10338812Y8638857D01*
X10385611Y8525873D01*
X10387819Y8475303D01*
X10357004Y8435144D01*
X10307585Y8424188D01*
X10283652Y8431620D01*
X10204704Y8471846D01*
X10198952Y8472757D01*
X10198949Y8472758D01*
X10113792Y8486245D01*
X10110919Y8486700D01*
X10108010Y8486700D01*
X9804401Y8486699D01*
X9497882Y8486699D01*
X9495010Y8486244D01*
X9495008Y8486244D01*
X9463310Y8481224D01*
X9404096Y8471846D01*
X9374665Y8456850D01*
X9296250Y8416896D01*
X9296248Y8416894D01*
X9291058Y8414250D01*
X9201350Y8324542D01*
X9198706Y8319352D01*
X9198704Y8319350D01*
X9149106Y8222008D01*
X9143754Y8211504D01*
X9142843Y8205752D01*
X9142842Y8205749D01*
X9130691Y8129026D01*
X9128900Y8117719D01*
X9128901Y7948445D01*
X9128901Y7797024D01*
X9111588Y7749458D01*
X9107227Y7744698D01*
X8921703Y7559174D01*
X8875827Y7537782D01*
X8869377Y7537500D01*
X7138048Y7537500D01*
X7128052Y7533862D01*
X7125000Y7528575D01*
X7125000Y7507710D01*
X7125114Y7504811D01*
X7127464Y7474954D01*
X7128814Y7467560D01*
X7170078Y7325530D01*
X7173745Y7317055D01*
X7248585Y7190508D01*
X7254249Y7183206D01*
X7358206Y7079249D01*
X7365508Y7073585D01*
X7492055Y6998745D01*
X7500532Y6995077D01*
X7592554Y6968342D01*
X7633402Y6938446D01*
X7645476Y6889288D01*
X7623127Y6843870D01*
X7605505Y6831346D01*
X7494249Y6774658D01*
X7400342Y6680751D01*
X7397698Y6675561D01*
X7397696Y6675559D01*
X7368699Y6618649D01*
X7340049Y6562420D01*
X7339138Y6556668D01*
X7339137Y6556665D01*
X7336933Y6542747D01*
X7324500Y6464246D01*
X7324500Y5960754D01*
X7324955Y5957881D01*
X7339137Y5868335D01*
X7339138Y5868332D01*
X7340049Y5862580D01*
X7342695Y5857387D01*
X7397696Y5749441D01*
X7397698Y5749439D01*
X7400342Y5744249D01*
X7494249Y5650342D01*
X7499439Y5647698D01*
X7499441Y5647696D01*
X7583767Y5604730D01*
X7612580Y5590049D01*
X7618332Y5589138D01*
X7618335Y5589137D01*
X7707881Y5574955D01*
X7710754Y5574500D01*
X8289246Y5574500D01*
X8292119Y5574955D01*
X8381665Y5589137D01*
X8381668Y5589138D01*
X8387420Y5590049D01*
X8416233Y5604730D01*
X8500559Y5647696D01*
X8500561Y5647698D01*
X8505751Y5650342D01*
X8599658Y5744249D01*
X8602302Y5749439D01*
X8602304Y5749441D01*
X8657305Y5857387D01*
X8659951Y5862580D01*
X8660862Y5868332D01*
X8660863Y5868335D01*
X8675045Y5957881D01*
X8675500Y5960754D01*
X8675500Y6432377D01*
X8692813Y6479943D01*
X8697174Y6484703D01*
X9476498Y7264026D01*
X9522375Y7285418D01*
X9528824Y7285700D01*
X10057806Y7285701D01*
X10110918Y7285701D01*
X10113790Y7286156D01*
X10113792Y7286156D01*
X10145490Y7291176D01*
X10204704Y7300554D01*
X10267282Y7332439D01*
X10312550Y7355504D01*
X10312552Y7355506D01*
X10317742Y7358150D01*
X10407450Y7447858D01*
X10410094Y7453048D01*
X10410096Y7453050D01*
X10462400Y7555702D01*
X10462401Y7555705D01*
X10465046Y7560896D01*
X10465957Y7566648D01*
X10465958Y7566651D01*
X10479445Y7651808D01*
X10479900Y7654681D01*
X10479899Y8117718D01*
X10465046Y8211504D01*
X10460986Y8219473D01*
X10460674Y8222008D01*
X10460602Y8222231D01*
X10460645Y8222245D01*
X10454816Y8269713D01*
X10482385Y8312166D01*
X10530792Y8326966D01*
X10571968Y8311775D01*
X10619159Y8275564D01*
X10765238Y8215056D01*
X10770040Y8214424D01*
X10770043Y8214423D01*
X10917192Y8195051D01*
X10922000Y8194418D01*
X11067109Y8213522D01*
X11116528Y8202566D01*
X11147343Y8162407D01*
X11150135Y8149814D01*
X11163747Y8046425D01*
X11164956Y8037238D01*
X11225464Y7891159D01*
X11228414Y7887315D01*
X11228416Y7887311D01*
X11301206Y7792450D01*
X11321718Y7765718D01*
X11325569Y7762763D01*
X11443311Y7672416D01*
X11443315Y7672414D01*
X11447159Y7669464D01*
X11593238Y7608956D01*
X11598040Y7608324D01*
X11598043Y7608323D01*
X11745192Y7588951D01*
X11750000Y7588318D01*
X11754808Y7588951D01*
X11901957Y7608323D01*
X11901960Y7608324D01*
X11906762Y7608956D01*
X12052841Y7669464D01*
X12056685Y7672414D01*
X12056689Y7672416D01*
X12174431Y7762763D01*
X12178282Y7765718D01*
X12198794Y7792450D01*
X12271584Y7887311D01*
X12271586Y7887315D01*
X12274536Y7891159D01*
X12335044Y8037238D01*
X12336254Y8046425D01*
X12343698Y8102971D01*
X12367071Y8147871D01*
X12413837Y8167242D01*
X12462113Y8152020D01*
X12469391Y8145638D01*
X14371642Y6243387D01*
X14393034Y6197511D01*
X14379933Y6148616D01*
X14338469Y6119582D01*
X14297003Y6120506D01*
X14246232Y6136563D01*
X14244029Y6137298D01*
X14193092Y6155185D01*
X14193091Y6155185D01*
X14187869Y6157019D01*
X14182506Y6157229D01*
X14181487Y6157487D01*
X14177797Y6158206D01*
X14173770Y6159480D01*
X14167163Y6160000D01*
X14113461Y6160000D01*
X14110555Y6160057D01*
X14058030Y6162121D01*
X14052506Y6162338D01*
X14047164Y6160922D01*
X14042864Y6160447D01*
X14034746Y6160000D01*
X14021300Y6160000D01*
X13973734Y6177313D01*
X13948424Y6221150D01*
X13947300Y6234000D01*
X13947300Y6255218D01*
X13938657Y6313932D01*
X13937996Y6318423D01*
X13937995Y6318426D01*
X13937158Y6324112D01*
X13925248Y6348371D01*
X13897348Y6405195D01*
X13885732Y6428855D01*
X13881403Y6433176D01*
X13881402Y6433178D01*
X13807479Y6506972D01*
X13807477Y6506973D01*
X13803150Y6511293D01*
X13708494Y6557562D01*
X13703482Y6560012D01*
X13703481Y6560012D01*
X13698318Y6562536D01*
X13630018Y6572500D01*
X13263582Y6572500D01*
X13260899Y6572105D01*
X13200377Y6563196D01*
X13200374Y6563195D01*
X13194688Y6562358D01*
X13189528Y6559825D01*
X13189526Y6559824D01*
X13154745Y6542747D01*
X13089945Y6510932D01*
X13085624Y6506603D01*
X13085622Y6506602D01*
X13011828Y6432679D01*
X13007507Y6428350D01*
X13004820Y6422853D01*
X12959078Y6329274D01*
X12956264Y6323518D01*
X12946300Y6255218D01*
X12946300Y5163782D01*
X12946695Y5161099D01*
X12955604Y5100577D01*
X12955605Y5100574D01*
X12956442Y5094888D01*
X12958975Y5089728D01*
X12958976Y5089726D01*
X12967279Y5072815D01*
X13007868Y4990145D01*
X13012197Y4985824D01*
X13012198Y4985822D01*
X13086121Y4912028D01*
X13090450Y4907707D01*
X13095947Y4905020D01*
X13189734Y4859176D01*
X13195282Y4856464D01*
X13263582Y4846500D01*
X13630018Y4846500D01*
X13636163Y4847405D01*
X13693223Y4855804D01*
X13693226Y4855805D01*
X13698912Y4856642D01*
X13704072Y4859175D01*
X13704077Y4859177D01*
X13731476Y4872629D01*
X13781803Y4878051D01*
X13823842Y4849855D01*
X13837455Y4796545D01*
X13824095Y4695066D01*
X13824728Y4690258D01*
X13843546Y4547323D01*
X13844733Y4538304D01*
X13905241Y4392225D01*
X13908191Y4388381D01*
X13908193Y4388377D01*
X13984935Y4288365D01*
X14001495Y4266784D01*
X14005346Y4263829D01*
X14123088Y4173482D01*
X14123092Y4173480D01*
X14126936Y4170530D01*
X14273015Y4110022D01*
X14277817Y4109390D01*
X14277820Y4109389D01*
X14400495Y4093239D01*
X14429777Y4089384D01*
X14432413Y4089731D01*
X14479194Y4072704D01*
X14483954Y4068343D01*
X14758026Y3794271D01*
X14779418Y3748395D01*
X14779700Y3741945D01*
X14779700Y3410512D01*
X14780155Y3407639D01*
X14794569Y3316629D01*
X14794570Y3316626D01*
X14795481Y3310874D01*
X14798126Y3305683D01*
X14798127Y3305680D01*
X14854026Y3195972D01*
X14854028Y3195970D01*
X14856672Y3190780D01*
X14951980Y3095472D01*
X14957170Y3092828D01*
X14957172Y3092826D01*
X15066880Y3036927D01*
X15066883Y3036926D01*
X15072074Y3034281D01*
X15077826Y3033370D01*
X15077829Y3033369D01*
X15168839Y3018955D01*
X15171712Y3018500D01*
X15688688Y3018500D01*
X15691561Y3018955D01*
X15782571Y3033369D01*
X15782574Y3033370D01*
X15788326Y3034281D01*
X15793517Y3036926D01*
X15793520Y3036927D01*
X15903228Y3092826D01*
X15903230Y3092828D01*
X15908420Y3095472D01*
X16003728Y3190780D01*
X16029817Y3241983D01*
X16066836Y3276503D01*
X16117385Y3279153D01*
X16157811Y3248689D01*
X16166812Y3229032D01*
X16175747Y3198280D01*
X16179415Y3189802D01*
X16255057Y3061898D01*
X16260721Y3054596D01*
X16365796Y2949521D01*
X16373098Y2943857D01*
X16402118Y2926695D01*
X16434247Y2887580D01*
X16433718Y2836964D01*
X16402118Y2799305D01*
X16373098Y2782143D01*
X16365796Y2776479D01*
X16260721Y2671404D01*
X16255057Y2664102D01*
X16179415Y2536198D01*
X16175747Y2527720D01*
X16166812Y2496968D01*
X16136915Y2456121D01*
X16087757Y2444047D01*
X16042339Y2466396D01*
X16029819Y2484013D01*
X16003728Y2535220D01*
X15908420Y2630528D01*
X15903230Y2633172D01*
X15903228Y2633174D01*
X15793520Y2689073D01*
X15793517Y2689074D01*
X15788326Y2691719D01*
X15782574Y2692630D01*
X15782571Y2692631D01*
X15691561Y2707045D01*
X15688688Y2707500D01*
X15171712Y2707500D01*
X15168839Y2707045D01*
X15077829Y2692631D01*
X15077826Y2692630D01*
X15072074Y2691719D01*
X15066883Y2689074D01*
X15066880Y2689073D01*
X14957172Y2633174D01*
X14957170Y2633172D01*
X14951980Y2630528D01*
X14856672Y2535220D01*
X14854031Y2530036D01*
X14854027Y2530031D01*
X14850396Y2522904D01*
X14813375Y2488382D01*
X14784462Y2482500D01*
X14699246Y2482500D01*
X14654198Y2497792D01*
X14581489Y2553584D01*
X14581486Y2553586D01*
X14577641Y2556536D01*
X14431562Y2617044D01*
X14426760Y2617676D01*
X14426757Y2617677D01*
X14279608Y2637049D01*
X14274800Y2637682D01*
X14226484Y2631321D01*
X14207924Y2631864D01*
X14207769Y2631919D01*
X14202384Y2632130D01*
X14201309Y2632402D01*
X14197698Y2633106D01*
X14193670Y2634380D01*
X14187063Y2634900D01*
X14133361Y2634900D01*
X14130455Y2634957D01*
X14077930Y2637021D01*
X14072406Y2637238D01*
X14067064Y2635822D01*
X14062764Y2635347D01*
X14054646Y2634900D01*
X13971300Y2634900D01*
X13923734Y2652213D01*
X13898424Y2696050D01*
X13897300Y2708900D01*
X13897300Y2721458D01*
X13904817Y2753955D01*
X13934814Y2815322D01*
X13934814Y2815323D01*
X13937336Y2820482D01*
X13947300Y2888782D01*
X13947300Y3980218D01*
X13945563Y3992016D01*
X13937996Y4043423D01*
X13937995Y4043426D01*
X13937158Y4049112D01*
X13885732Y4153855D01*
X13881403Y4158176D01*
X13881402Y4158178D01*
X13807479Y4231972D01*
X13807477Y4231973D01*
X13803150Y4236293D01*
X13778560Y4248313D01*
X13703482Y4285012D01*
X13703481Y4285012D01*
X13698318Y4287536D01*
X13630018Y4297500D01*
X13263582Y4297500D01*
X13260899Y4297105D01*
X13200377Y4288196D01*
X13200374Y4288195D01*
X13194688Y4287358D01*
X13189528Y4284825D01*
X13189526Y4284824D01*
X13165110Y4272836D01*
X13114783Y4267414D01*
X13073553Y4294522D01*
X13042412Y4335549D01*
X13035347Y4342615D01*
X12923355Y4427622D01*
X12914642Y4432531D01*
X12783651Y4484394D01*
X12774505Y4486717D01*
X12759753Y4488503D01*
X12749394Y4486092D01*
X12746800Y4482637D01*
X12746800Y3258500D01*
X12729487Y3210934D01*
X12685650Y3185624D01*
X12672800Y3184500D01*
X12320800Y3184500D01*
X12273234Y3201813D01*
X12247924Y3245650D01*
X12246800Y3258500D01*
X12246800Y4477022D01*
X12243162Y4487018D01*
X12239422Y4489177D01*
X12219095Y4486717D01*
X12209949Y4484394D01*
X12078958Y4432531D01*
X12070245Y4427622D01*
X11958252Y4342614D01*
X11951182Y4335544D01*
X11920018Y4294487D01*
X11877469Y4267066D01*
X11828578Y4272745D01*
X11803481Y4285013D01*
X11803477Y4285014D01*
X11798318Y4287536D01*
X11730018Y4297500D01*
X11363582Y4297500D01*
X11360899Y4297105D01*
X11300377Y4288196D01*
X11300374Y4288195D01*
X11294688Y4287358D01*
X11289528Y4284825D01*
X11289526Y4284824D01*
X11253358Y4267066D01*
X11189945Y4235932D01*
X11185624Y4231603D01*
X11185622Y4231602D01*
X11111828Y4157679D01*
X11107507Y4153350D01*
X11104820Y4147853D01*
X11059078Y4054274D01*
X11056264Y4048518D01*
X11046300Y3980218D01*
X11046300Y3959000D01*
X11028987Y3911434D01*
X10985150Y3886124D01*
X10972300Y3885000D01*
X10483555Y3885000D01*
X10435989Y3902313D01*
X10431229Y3906674D01*
X10192774Y4145129D01*
X10171382Y4191005D01*
X10171100Y4197455D01*
X10171100Y4727799D01*
X10185576Y4771764D01*
X10203751Y4796371D01*
X10207035Y4800817D01*
X10208813Y4805881D01*
X10208997Y4806183D01*
X10209117Y4806429D01*
X10210173Y4808500D01*
X10210332Y4808800D01*
X10210481Y4809157D01*
X10213531Y4813569D01*
X10215198Y4818840D01*
X10215202Y4818848D01*
X10231465Y4870271D01*
X10232200Y4872476D01*
X10250087Y4923412D01*
X10251920Y4928631D01*
X10252131Y4933999D01*
X10252390Y4935025D01*
X10253107Y4938702D01*
X10254380Y4942730D01*
X10254900Y4949337D01*
X10254900Y5003014D01*
X10254957Y5005920D01*
X10257022Y5058466D01*
X10257022Y5058467D01*
X10257239Y5063994D01*
X10255821Y5069341D01*
X10255347Y5073635D01*
X10254900Y5081756D01*
X10254900Y5163782D01*
X11046300Y5163782D01*
X11046695Y5161099D01*
X11055604Y5100577D01*
X11055605Y5100574D01*
X11056442Y5094888D01*
X11058975Y5089728D01*
X11058976Y5089726D01*
X11067279Y5072815D01*
X11107868Y4990145D01*
X11112197Y4985824D01*
X11112198Y4985822D01*
X11186121Y4912028D01*
X11190450Y4907707D01*
X11195947Y4905020D01*
X11289734Y4859176D01*
X11295282Y4856464D01*
X11363582Y4846500D01*
X11730018Y4846500D01*
X11736163Y4847405D01*
X11793223Y4855804D01*
X11793226Y4855805D01*
X11798912Y4856642D01*
X11804072Y4859175D01*
X11804074Y4859176D01*
X11862685Y4887953D01*
X11903655Y4908068D01*
X11907976Y4912397D01*
X11907978Y4912398D01*
X11981772Y4986321D01*
X11981773Y4986323D01*
X11986093Y4990650D01*
X12033665Y5087971D01*
X12034812Y5090318D01*
X12034812Y5090319D01*
X12037336Y5095482D01*
X12047300Y5163782D01*
X12047300Y6255218D01*
X12038657Y6313932D01*
X12037996Y6318423D01*
X12037995Y6318426D01*
X12037158Y6324112D01*
X12025248Y6348371D01*
X11997348Y6405195D01*
X11985732Y6428855D01*
X11981403Y6433176D01*
X11981402Y6433178D01*
X11907479Y6506972D01*
X11907477Y6506973D01*
X11903150Y6511293D01*
X11808494Y6557562D01*
X11803482Y6560012D01*
X11803481Y6560012D01*
X11798318Y6562536D01*
X11730018Y6572500D01*
X11363582Y6572500D01*
X11360899Y6572105D01*
X11300377Y6563196D01*
X11300374Y6563195D01*
X11294688Y6562358D01*
X11289528Y6559825D01*
X11289526Y6559824D01*
X11254745Y6542747D01*
X11189945Y6510932D01*
X11185624Y6506603D01*
X11185622Y6506602D01*
X11111828Y6432679D01*
X11107507Y6428350D01*
X11104820Y6422853D01*
X11059078Y6329274D01*
X11056264Y6323518D01*
X11046300Y6255218D01*
X11046300Y5163782D01*
X10254900Y5163782D01*
X10254900Y5630783D01*
X10272213Y5678349D01*
X10295304Y5696717D01*
X10299035Y5698618D01*
X10317742Y5708150D01*
X10407450Y5797858D01*
X10410094Y5803048D01*
X10410096Y5803050D01*
X10462400Y5905702D01*
X10462401Y5905705D01*
X10465046Y5910896D01*
X10465957Y5916648D01*
X10465958Y5916651D01*
X10479445Y6001808D01*
X10479900Y6004681D01*
X10479899Y6467718D01*
X10465046Y6561504D01*
X10413392Y6662881D01*
X10410096Y6669350D01*
X10410094Y6669352D01*
X10407450Y6674542D01*
X10317742Y6764250D01*
X10312552Y6766894D01*
X10312550Y6766896D01*
X10209898Y6819200D01*
X10209895Y6819201D01*
X10204704Y6821846D01*
X10198952Y6822757D01*
X10198949Y6822758D01*
X10113792Y6836245D01*
X10110919Y6836700D01*
X10108010Y6836700D01*
X9804401Y6836699D01*
X9497882Y6836699D01*
X9495010Y6836244D01*
X9495008Y6836244D01*
X9468413Y6832032D01*
X9404096Y6821846D01*
X9347577Y6793048D01*
X9296250Y6766896D01*
X9296248Y6766894D01*
X9291058Y6764250D01*
X9201350Y6674542D01*
X9198706Y6669352D01*
X9198704Y6669350D01*
X9146400Y6566698D01*
X9143754Y6561504D01*
X9142843Y6555752D01*
X9142842Y6555749D01*
X9140783Y6542747D01*
X9128900Y6467719D01*
X9128901Y6004682D01*
X9143754Y5910896D01*
X9158122Y5882697D01*
X9198704Y5803050D01*
X9198706Y5803048D01*
X9201350Y5797858D01*
X9291058Y5708150D01*
X9309765Y5698618D01*
X9313496Y5696717D01*
X9348018Y5659696D01*
X9353900Y5630783D01*
X9353900Y5231256D01*
X9336587Y5183690D01*
X9332226Y5178930D01*
X9330670Y5177374D01*
X9284794Y5155982D01*
X9278344Y5155700D01*
X8716766Y5155700D01*
X8715045Y5155537D01*
X8715038Y5155537D01*
X8689715Y5153143D01*
X8689714Y5153143D01*
X8685231Y5152719D01*
X8557416Y5107834D01*
X8541958Y5096416D01*
X8533240Y5089977D01*
X8489275Y5075500D01*
X7600044Y5075500D01*
X7558932Y5087971D01*
X7540231Y5100467D01*
X7493985Y5109666D01*
X7485318Y5111390D01*
X7485317Y5111390D01*
X7481748Y5112100D01*
X6742252Y5112100D01*
X6738683Y5111390D01*
X6738682Y5111390D01*
X6730015Y5109666D01*
X6683769Y5100467D01*
X6665068Y5087971D01*
X6623956Y5075500D01*
X5900000Y5075500D01*
X5900000Y5677878D01*
X5902417Y5680646D01*
X6012108Y5790337D01*
X6057984Y5811729D01*
X6074092Y5811378D01*
X6197600Y5795118D01*
X6202408Y5795751D01*
X6349557Y5815123D01*
X6349560Y5815124D01*
X6354362Y5815756D01*
X6500441Y5876264D01*
X6504285Y5879214D01*
X6504289Y5879216D01*
X6622031Y5969563D01*
X6625882Y5972518D01*
X6642545Y5994234D01*
X6719184Y6094111D01*
X6719186Y6094115D01*
X6722136Y6097959D01*
X6782644Y6244038D01*
X6784789Y6260326D01*
X6802649Y6395992D01*
X6803282Y6400800D01*
X6795312Y6461337D01*
X6783277Y6552757D01*
X6783276Y6552760D01*
X6782644Y6557562D01*
X6722136Y6703641D01*
X6719186Y6707485D01*
X6719184Y6707489D01*
X6628837Y6825231D01*
X6625882Y6829082D01*
X6617101Y6835820D01*
X6589904Y6878510D01*
X6596511Y6928696D01*
X6609824Y6946853D01*
X6683848Y7020876D01*
X6683850Y7020879D01*
X6752501Y7089530D01*
X6756654Y7093115D01*
X6760869Y7095175D01*
X6794827Y7131782D01*
X6796752Y7133781D01*
X6810848Y7147877D01*
X6812776Y7150688D01*
X6814953Y7153307D01*
X6815085Y7153197D01*
X6817639Y7156373D01*
X6832354Y7172236D01*
X6832355Y7172237D01*
X6837001Y7177246D01*
X6839531Y7183588D01*
X6839535Y7183594D01*
X6842299Y7190523D01*
X6850007Y7204959D01*
X6854224Y7211107D01*
X6854225Y7211108D01*
X6858092Y7216746D01*
X6864664Y7244440D01*
X6867932Y7254776D01*
X6876549Y7276375D01*
X6878483Y7281222D01*
X6879100Y7287515D01*
X6879100Y7296612D01*
X6881100Y7313699D01*
X6882362Y7319015D01*
X6882362Y7319017D01*
X6883940Y7325666D01*
X6879776Y7356263D01*
X6879100Y7366242D01*
X6879100Y8050548D01*
X7125000Y8050548D01*
X7128638Y8040552D01*
X7133925Y8037500D01*
X7736952Y8037500D01*
X7746948Y8041138D01*
X7750000Y8046425D01*
X7750000Y8050548D01*
X8250000Y8050548D01*
X8253638Y8040552D01*
X8258925Y8037500D01*
X8861952Y8037500D01*
X8871948Y8041138D01*
X8875000Y8046425D01*
X8875000Y8067289D01*
X8874886Y8070189D01*
X8872536Y8100046D01*
X8871186Y8107440D01*
X8829922Y8249470D01*
X8826255Y8257945D01*
X8751415Y8384492D01*
X8745751Y8391794D01*
X8641794Y8495751D01*
X8634492Y8501415D01*
X8507945Y8576255D01*
X8499470Y8579922D01*
X8357440Y8621186D01*
X8350046Y8622536D01*
X8320189Y8624886D01*
X8317289Y8625000D01*
X8263048Y8625000D01*
X8253052Y8621362D01*
X8250000Y8616075D01*
X8250000Y8050548D01*
X7750000Y8050548D01*
X7750000Y8611952D01*
X7746362Y8621948D01*
X7741075Y8625000D01*
X7682711Y8625000D01*
X7679811Y8624886D01*
X7649954Y8622536D01*
X7642560Y8621186D01*
X7500530Y8579922D01*
X7492055Y8576255D01*
X7365508Y8501415D01*
X7358206Y8495751D01*
X7254249Y8391794D01*
X7248585Y8384492D01*
X7173745Y8257945D01*
X7170078Y8249470D01*
X7128814Y8107440D01*
X7127464Y8100046D01*
X7125114Y8070189D01*
X7125000Y8067289D01*
X7125000Y8050548D01*
X6879100Y8050548D01*
X6879100Y8594177D01*
X6896413Y8641743D01*
X6900774Y8646503D01*
X7116430Y8862159D01*
X7120583Y8865744D01*
X7124798Y8867804D01*
X7158746Y8904400D01*
X7160671Y8906399D01*
X7174777Y8920505D01*
X7176703Y8923313D01*
X7178885Y8925939D01*
X7179024Y8925823D01*
X7181571Y8929005D01*
X7196281Y8944863D01*
X7196282Y8944864D01*
X7200930Y8949875D01*
X7206227Y8963152D01*
X7213935Y8977588D01*
X7218154Y8983738D01*
X7222021Y8989375D01*
X7224423Y8999494D01*
X7228593Y9017069D01*
X7231861Y9027405D01*
X7240478Y9049004D01*
X7242412Y9053851D01*
X7243029Y9060144D01*
X7243029Y9069241D01*
X7245029Y9086328D01*
X7246291Y9091644D01*
X7246291Y9091646D01*
X7247869Y9098295D01*
X7243705Y9128892D01*
X7243029Y9138871D01*
X7243029Y9282971D01*
X7260342Y9330537D01*
X7304179Y9355847D01*
X7317029Y9356971D01*
X8774000Y9356971D01*
X8821566Y9339658D01*
G37*
%TD.AperFunction*%
%TA.AperFunction,Conductor*%
G36*
X19050000Y7427169D02*
G01*
X19006944Y7425552D01*
X19004168Y7425500D01*
X18984252Y7425500D01*
X18980895Y7424875D01*
X18977507Y7424562D01*
X18977490Y7424750D01*
X18973444Y7424294D01*
X18944992Y7423226D01*
X18938715Y7420529D01*
X18938710Y7420528D01*
X18931857Y7417584D01*
X18916198Y7412826D01*
X18902147Y7410209D01*
X18896332Y7406624D01*
X18896328Y7406623D01*
X18877910Y7395270D01*
X18868293Y7390274D01*
X18846933Y7381097D01*
X18846931Y7381096D01*
X18842137Y7379036D01*
X18837251Y7375023D01*
X18830818Y7368590D01*
X18817323Y7357923D01*
X18812670Y7355055D01*
X18812668Y7355053D01*
X18806852Y7351468D01*
X18802716Y7346029D01*
X18788163Y7326891D01*
X18781585Y7319357D01*
X18683426Y7221198D01*
X18637550Y7199806D01*
X18588655Y7212907D01*
X18559621Y7254371D01*
X18557100Y7273524D01*
X18557099Y7517409D01*
X18557099Y7520318D01*
X18542246Y7614104D01*
X18497513Y7701898D01*
X18487296Y7721950D01*
X18487294Y7721952D01*
X18484650Y7727142D01*
X18394942Y7816850D01*
X18389752Y7819494D01*
X18389750Y7819496D01*
X18287098Y7871800D01*
X18287095Y7871801D01*
X18281904Y7874446D01*
X18276152Y7875357D01*
X18276149Y7875358D01*
X18190992Y7888845D01*
X18188119Y7889300D01*
X17948855Y7889300D01*
X17901289Y7906613D01*
X17896529Y7910974D01*
X17783129Y8024374D01*
X17761737Y8070250D01*
X17774838Y8119145D01*
X17783129Y8129026D01*
X17921930Y8267827D01*
X17967806Y8289219D01*
X17974256Y8289501D01*
X18213518Y8289501D01*
X18216390Y8289956D01*
X18216392Y8289956D01*
X18248090Y8294976D01*
X18307304Y8304354D01*
X18369428Y8336008D01*
X18415150Y8359304D01*
X18415152Y8359306D01*
X18420342Y8361950D01*
X18510050Y8451658D01*
X18512694Y8456848D01*
X18512696Y8456850D01*
X18565000Y8559502D01*
X18565001Y8559505D01*
X18567646Y8564696D01*
X18568557Y8570448D01*
X18568558Y8570451D01*
X18582045Y8655608D01*
X18582500Y8658481D01*
X18582499Y9121518D01*
X18567646Y9215304D01*
X18526424Y9296207D01*
X18512696Y9323150D01*
X18512694Y9323152D01*
X18510050Y9328342D01*
X18420342Y9418050D01*
X18415152Y9420694D01*
X18415150Y9420696D01*
X18312498Y9473000D01*
X18312495Y9473001D01*
X18307304Y9475646D01*
X18301552Y9476557D01*
X18301549Y9476558D01*
X18216392Y9490045D01*
X18213519Y9490500D01*
X18210610Y9490500D01*
X17907001Y9490499D01*
X17600482Y9490499D01*
X17597610Y9490044D01*
X17597608Y9490044D01*
X17565910Y9485024D01*
X17506696Y9475646D01*
X17441899Y9442630D01*
X17435544Y9439392D01*
X17385303Y9433223D01*
X17342850Y9460792D01*
X17328050Y9509199D01*
X17349623Y9557652D01*
X17709797Y9917826D01*
X17755673Y9939218D01*
X17762123Y9939500D01*
X18171735Y9939501D01*
X18213518Y9939501D01*
X18216390Y9939956D01*
X18216392Y9939956D01*
X18248090Y9944976D01*
X18307304Y9954354D01*
X18383918Y9993391D01*
X18415150Y10009304D01*
X18415152Y10009306D01*
X18420342Y10011950D01*
X18510050Y10101658D01*
X18512694Y10106848D01*
X18512696Y10106850D01*
X18565000Y10209502D01*
X18565001Y10209505D01*
X18567646Y10214696D01*
X18568557Y10220448D01*
X18568558Y10220451D01*
X18582045Y10305608D01*
X18582500Y10308481D01*
X18582499Y10771518D01*
X18567646Y10865304D01*
X18526423Y10946209D01*
X18512696Y10973150D01*
X18512694Y10973152D01*
X18510050Y10978342D01*
X18420342Y11068050D01*
X18415152Y11070694D01*
X18415150Y11070696D01*
X18312498Y11123000D01*
X18312495Y11123001D01*
X18307304Y11125646D01*
X18301550Y11126557D01*
X18301548Y11126558D01*
X18279586Y11130036D01*
X18269924Y11131566D01*
X18225652Y11156106D01*
X18207500Y11204655D01*
X18207500Y11401877D01*
X18224813Y11449443D01*
X18229174Y11454203D01*
X18715901Y11940930D01*
X18720054Y11944515D01*
X18724269Y11946575D01*
X18758227Y11983182D01*
X18760152Y11985181D01*
X18774248Y11999277D01*
X18776176Y12002088D01*
X18778353Y12004707D01*
X18778485Y12004597D01*
X18781039Y12007773D01*
X18795754Y12023636D01*
X18795755Y12023637D01*
X18800401Y12028646D01*
X18805696Y12041919D01*
X18813405Y12056356D01*
X18817626Y12062509D01*
X18821493Y12068146D01*
X18828067Y12095848D01*
X18831335Y12106181D01*
X18839947Y12127769D01*
X18839947Y12127770D01*
X18841883Y12132622D01*
X18842500Y12138915D01*
X18842500Y12148008D01*
X18844500Y12165094D01*
X18845762Y12170414D01*
X18845762Y12170417D01*
X18847340Y12177066D01*
X18846419Y12183835D01*
X18846419Y12183838D01*
X18843176Y12207667D01*
X18842500Y12217645D01*
X18842500Y15034077D01*
X18859813Y15081643D01*
X18864174Y15086403D01*
X19050000Y15272229D01*
X19050000Y7427169D01*
G37*
%TD.AperFunction*%
%TA.AperFunction,Conductor*%
G36*
X15490443Y9384987D02*
G01*
X15515753Y9341150D01*
X15508811Y9294705D01*
X15475018Y9228382D01*
X15468354Y9215304D01*
X15467443Y9209552D01*
X15467442Y9209549D01*
X15455568Y9134577D01*
X15453500Y9121519D01*
X15453501Y8658482D01*
X15468354Y8564696D01*
X15497152Y8508177D01*
X15523304Y8456850D01*
X15523306Y8456848D01*
X15525950Y8451658D01*
X15615658Y8361950D01*
X15620848Y8359306D01*
X15620850Y8359304D01*
X15723502Y8307000D01*
X15723505Y8306999D01*
X15728696Y8304354D01*
X15734448Y8303443D01*
X15734451Y8303442D01*
X15819602Y8289956D01*
X15822481Y8289500D01*
X16061745Y8289500D01*
X16109311Y8272187D01*
X16114071Y8267826D01*
X16239671Y8142226D01*
X16261063Y8096350D01*
X16247962Y8047455D01*
X16239671Y8037574D01*
X16088670Y7886573D01*
X16042794Y7865181D01*
X16036344Y7864899D01*
X15797082Y7864899D01*
X15794210Y7864444D01*
X15794208Y7864444D01*
X15762510Y7859424D01*
X15703296Y7850046D01*
X15662749Y7829386D01*
X15595450Y7795096D01*
X15595448Y7795094D01*
X15590258Y7792450D01*
X15500550Y7702742D01*
X15497906Y7697552D01*
X15497904Y7697550D01*
X15445600Y7594898D01*
X15442954Y7589704D01*
X15442043Y7583952D01*
X15442042Y7583949D01*
X15429508Y7504811D01*
X15428100Y7495919D01*
X15428101Y7296545D01*
X15428101Y7273522D01*
X15410789Y7225956D01*
X15366951Y7200646D01*
X15317101Y7209436D01*
X15301775Y7221196D01*
X14377263Y8145708D01*
X14355871Y8191584D01*
X14356222Y8207693D01*
X14371849Y8326392D01*
X14372482Y8331200D01*
X14368434Y8361950D01*
X14352477Y8483157D01*
X14352476Y8483160D01*
X14351844Y8487962D01*
X14291336Y8634041D01*
X14288386Y8637885D01*
X14288384Y8637889D01*
X14198037Y8755631D01*
X14195082Y8759482D01*
X14180221Y8770885D01*
X14073489Y8852784D01*
X14073485Y8852786D01*
X14069641Y8855736D01*
X13923562Y8916244D01*
X13918760Y8916876D01*
X13918757Y8916877D01*
X13771608Y8936249D01*
X13766800Y8936882D01*
X13761992Y8936249D01*
X13614843Y8916877D01*
X13614840Y8916876D01*
X13610038Y8916244D01*
X13605558Y8914388D01*
X13605557Y8914388D01*
X13577696Y8902848D01*
X13527126Y8900640D01*
X13486967Y8931455D01*
X13476011Y8980874D01*
X13481011Y8999534D01*
X13504791Y9056944D01*
X13539044Y9139638D01*
X13547166Y9201326D01*
X13559049Y9291592D01*
X13559682Y9296400D01*
X13556754Y9318641D01*
X13567710Y9368060D01*
X13607869Y9398875D01*
X13630121Y9402300D01*
X15442877Y9402300D01*
X15490443Y9384987D01*
G37*
%TD.AperFunction*%
%TA.AperFunction,Conductor*%
G36*
X5936329Y9812631D02*
G01*
X5936333Y9812629D01*
X5940177Y9809679D01*
X6086256Y9749171D01*
X6091058Y9748539D01*
X6091061Y9748538D01*
X6238210Y9729166D01*
X6243018Y9728533D01*
X6247826Y9729166D01*
X6394975Y9748538D01*
X6394978Y9748539D01*
X6399780Y9749171D01*
X6539710Y9807132D01*
X6590281Y9809340D01*
X6630440Y9778525D01*
X6642029Y9738765D01*
X6642029Y9710738D01*
X6640603Y9700690D01*
X6640850Y9700666D01*
X6640183Y9693866D01*
X6638283Y9687303D01*
X6638873Y9680496D01*
X6641753Y9647237D01*
X6642029Y9640852D01*
X6642029Y9268352D01*
X6624716Y9220786D01*
X6620355Y9216026D01*
X6404699Y9000370D01*
X6400546Y8996785D01*
X6396331Y8994725D01*
X6367036Y8963145D01*
X6362374Y8958119D01*
X6360448Y8956119D01*
X6346352Y8942023D01*
X6344424Y8939212D01*
X6342247Y8936593D01*
X6342115Y8936703D01*
X6339561Y8933527D01*
X6327482Y8920505D01*
X6320199Y8912654D01*
X6317669Y8906312D01*
X6317665Y8906306D01*
X6314901Y8899377D01*
X6307193Y8884941D01*
X6305351Y8882255D01*
X6299108Y8873154D01*
X6297530Y8866504D01*
X6297529Y8866502D01*
X6292536Y8845460D01*
X6289268Y8835124D01*
X6278717Y8808678D01*
X6278100Y8802385D01*
X6278100Y8793288D01*
X6276100Y8776201D01*
X6275071Y8771864D01*
X6273260Y8764234D01*
X6274182Y8757461D01*
X6277424Y8733637D01*
X6278100Y8723658D01*
X6278100Y7499500D01*
X6260787Y7451934D01*
X6216950Y7426624D01*
X6204100Y7425500D01*
X5900000Y7425500D01*
X5900000Y9840507D01*
X5936329Y9812631D01*
G37*
%TD.AperFunction*%
%TA.AperFunction,Conductor*%
G36*
X10868366Y22482687D02*
G01*
X10890873Y22449787D01*
X10931241Y22330867D01*
X10932536Y22328374D01*
X11013190Y22173110D01*
X11050505Y22101275D01*
X11052158Y22099013D01*
X11052160Y22099009D01*
X11157596Y21954685D01*
X11203125Y21892364D01*
X11205104Y21890375D01*
X11331942Y21762871D01*
X11385589Y21708942D01*
X11593698Y21555230D01*
X11596192Y21553918D01*
X11820170Y21436077D01*
X11820177Y21436074D01*
X11822663Y21434766D01*
X12067215Y21350321D01*
X12069976Y21349817D01*
X12069979Y21349816D01*
X12174226Y21330777D01*
X12321726Y21303839D01*
X12324088Y21303715D01*
X12324090Y21303715D01*
X12403558Y21299550D01*
X12403572Y21299550D01*
X12404519Y21299500D01*
X12565782Y21299500D01*
X12637247Y21304936D01*
X12755182Y21313907D01*
X12755188Y21313908D01*
X12757976Y21314120D01*
X13010015Y21372539D01*
X13012622Y21373579D01*
X13012628Y21373581D01*
X13247710Y21467369D01*
X13247716Y21467372D01*
X13250318Y21468410D01*
X13252737Y21469832D01*
X13252741Y21469834D01*
X13470929Y21598101D01*
X13470933Y21598104D01*
X13473354Y21599527D01*
X13673991Y21762871D01*
X13847613Y21954685D01*
X13849163Y21957031D01*
X13849166Y21957035D01*
X13988667Y22168199D01*
X13988668Y22168200D01*
X13990222Y22170553D01*
X14062979Y22328374D01*
X14097364Y22402962D01*
X14097365Y22402964D01*
X14098538Y22405509D01*
X14099314Y22408206D01*
X14099318Y22408217D01*
X14110320Y22446459D01*
X14140108Y22487385D01*
X14181435Y22500000D01*
X19050000Y22500000D01*
X19050000Y17425500D01*
X18805167Y17425500D01*
X18799694Y17425902D01*
X18795258Y17427425D01*
X18788434Y17427169D01*
X18788433Y17427169D01*
X18745358Y17425552D01*
X18742582Y17425500D01*
X18722652Y17425500D01*
X18719300Y17424876D01*
X18715909Y17424563D01*
X18715891Y17424753D01*
X18711845Y17424294D01*
X18683391Y17423226D01*
X18677116Y17420530D01*
X18677112Y17420529D01*
X18670258Y17417584D01*
X18654595Y17412825D01*
X18647264Y17411460D01*
X18647263Y17411460D01*
X18640547Y17410209D01*
X18634732Y17406624D01*
X18634728Y17406623D01*
X18616310Y17395270D01*
X18606693Y17390274D01*
X18585338Y17381099D01*
X18585336Y17381098D01*
X18580537Y17379036D01*
X18575651Y17375022D01*
X18569220Y17368591D01*
X18555725Y17357924D01*
X18545252Y17351468D01*
X18541116Y17346029D01*
X18526561Y17326888D01*
X18519983Y17319354D01*
X18114099Y16913470D01*
X18109946Y16909885D01*
X18105731Y16907825D01*
X18074788Y16874468D01*
X18071774Y16871219D01*
X18069848Y16869219D01*
X18055752Y16855123D01*
X18053824Y16852312D01*
X18051647Y16849693D01*
X18051515Y16849803D01*
X18048961Y16846627D01*
X18034794Y16831354D01*
X18029599Y16825754D01*
X18027069Y16819412D01*
X18027065Y16819406D01*
X18024301Y16812477D01*
X18016593Y16798041D01*
X18012376Y16791893D01*
X18008508Y16786254D01*
X18006930Y16779604D01*
X18006929Y16779602D01*
X18001936Y16758560D01*
X17998668Y16748224D01*
X17988117Y16721778D01*
X17987500Y16715485D01*
X17987500Y16706388D01*
X17985500Y16689301D01*
X17984733Y16686068D01*
X17982660Y16677334D01*
X17985040Y16659844D01*
X17986824Y16646737D01*
X17987500Y16636758D01*
X17987500Y16490381D01*
X17970187Y16442815D01*
X17958550Y16431675D01*
X17873096Y16366104D01*
X17870141Y16362253D01*
X17779794Y16244511D01*
X17779792Y16244507D01*
X17776842Y16240663D01*
X17745225Y16164332D01*
X17745141Y16164130D01*
X17710943Y16126810D01*
X17660757Y16120203D01*
X17618066Y16147401D01*
X17610844Y16158846D01*
X17603050Y16174142D01*
X17513342Y16263850D01*
X17508152Y16266494D01*
X17508150Y16266496D01*
X17405498Y16318800D01*
X17405495Y16318801D01*
X17400304Y16321446D01*
X17394552Y16322357D01*
X17394549Y16322358D01*
X17309392Y16335845D01*
X17306519Y16336300D01*
X17303610Y16336300D01*
X17000001Y16336299D01*
X16693482Y16336299D01*
X16690610Y16335844D01*
X16690608Y16335844D01*
X16658910Y16330824D01*
X16599696Y16321446D01*
X16552199Y16297245D01*
X16491850Y16266496D01*
X16491848Y16266494D01*
X16486658Y16263850D01*
X16396950Y16174142D01*
X16394307Y16168954D01*
X16394304Y16168950D01*
X16347303Y16076705D01*
X16310283Y16042183D01*
X16281369Y16036300D01*
X16131788Y16036300D01*
X16114701Y16038300D01*
X16109385Y16039562D01*
X16109383Y16039562D01*
X16102734Y16041140D01*
X16074561Y16037306D01*
X16072137Y16036976D01*
X16062158Y16036300D01*
X15661323Y16036300D01*
X15613757Y16053613D01*
X15608997Y16057974D01*
X15047300Y16619671D01*
X15025908Y16665547D01*
X15039009Y16714442D01*
X15047300Y16724323D01*
X15198901Y16875924D01*
X15203054Y16879509D01*
X15207269Y16881569D01*
X15241227Y16918176D01*
X15243152Y16920175D01*
X15257248Y16934271D01*
X15259176Y16937082D01*
X15261353Y16939701D01*
X15261485Y16939591D01*
X15264039Y16942767D01*
X15278754Y16958630D01*
X15278755Y16958631D01*
X15283401Y16963640D01*
X15285931Y16969982D01*
X15285935Y16969988D01*
X15288699Y16976917D01*
X15296407Y16991353D01*
X15300624Y16997501D01*
X15300625Y16997502D01*
X15304492Y17003140D01*
X15306525Y17011704D01*
X15311064Y17030834D01*
X15314332Y17041170D01*
X15322949Y17062769D01*
X15324883Y17067616D01*
X15325500Y17073909D01*
X15325500Y17083006D01*
X15327500Y17100093D01*
X15328762Y17105409D01*
X15328762Y17105411D01*
X15330340Y17112060D01*
X15328098Y17128532D01*
X16127364Y17128532D01*
X16139811Y17033976D01*
X16142300Y17024689D01*
X16199044Y16887695D01*
X16203856Y16879361D01*
X16294120Y16761726D01*
X16300926Y16754920D01*
X16418561Y16664656D01*
X16426896Y16659844D01*
X16563888Y16603100D01*
X16573177Y16600611D01*
X16683270Y16586117D01*
X16688105Y16585800D01*
X16736952Y16585800D01*
X16746948Y16589438D01*
X16750000Y16594725D01*
X16750000Y16598849D01*
X17250000Y16598849D01*
X17253638Y16588853D01*
X17258925Y16585801D01*
X17311893Y16585801D01*
X17316731Y16586118D01*
X17426824Y16600611D01*
X17436111Y16603100D01*
X17573105Y16659844D01*
X17581439Y16664656D01*
X17699074Y16754920D01*
X17705880Y16761726D01*
X17796144Y16879361D01*
X17800956Y16887696D01*
X17857700Y17024688D01*
X17860189Y17033977D01*
X17871891Y17122863D01*
X17869588Y17133249D01*
X17866263Y17135800D01*
X17263048Y17135800D01*
X17253052Y17132162D01*
X17250000Y17126875D01*
X17250000Y16598849D01*
X16750000Y16598849D01*
X16750000Y17122752D01*
X16746362Y17132748D01*
X16741075Y17135800D01*
X16139455Y17135800D01*
X16129459Y17132162D01*
X16127364Y17128532D01*
X15328098Y17128532D01*
X15326176Y17142657D01*
X15325500Y17152636D01*
X15325500Y17188369D01*
X15342813Y17235935D01*
X15365905Y17254303D01*
X15458150Y17301304D01*
X15458152Y17301306D01*
X15463342Y17303950D01*
X15553050Y17393658D01*
X15555694Y17398848D01*
X15555696Y17398850D01*
X15608000Y17501502D01*
X15608001Y17501505D01*
X15610646Y17506696D01*
X15611557Y17512448D01*
X15611558Y17512451D01*
X15625045Y17597608D01*
X15625500Y17600481D01*
X15625499Y18213518D01*
X15610646Y18307304D01*
X15573500Y18380207D01*
X15555696Y18415150D01*
X15555694Y18415152D01*
X15553050Y18420342D01*
X15463342Y18510050D01*
X15458152Y18512694D01*
X15458150Y18512696D01*
X15355498Y18565000D01*
X15355495Y18565001D01*
X15350304Y18567646D01*
X15344552Y18568557D01*
X15344549Y18568558D01*
X15259392Y18582045D01*
X15256519Y18582500D01*
X15253610Y18582500D01*
X15025001Y18582499D01*
X14793482Y18582499D01*
X14790610Y18582044D01*
X14790608Y18582044D01*
X14758910Y18577024D01*
X14699696Y18567646D01*
X14632094Y18533201D01*
X14581854Y18527032D01*
X14539401Y18554600D01*
X14524500Y18599135D01*
X14524500Y18628132D01*
X16127364Y18628132D01*
X16139811Y18533576D01*
X16142300Y18524289D01*
X16199044Y18387295D01*
X16203856Y18378961D01*
X16294120Y18261326D01*
X16300926Y18254520D01*
X16379396Y18194308D01*
X16406594Y18151617D01*
X16399987Y18101431D01*
X16379396Y18076892D01*
X16300926Y18016680D01*
X16294120Y18009874D01*
X16203856Y17892239D01*
X16199044Y17883904D01*
X16142300Y17746912D01*
X16139811Y17737623D01*
X16128109Y17648737D01*
X16130412Y17638351D01*
X16133737Y17635800D01*
X16736952Y17635800D01*
X16746948Y17639438D01*
X16750000Y17644725D01*
X16750000Y17648848D01*
X17250000Y17648848D01*
X17253638Y17638852D01*
X17258925Y17635800D01*
X17860545Y17635800D01*
X17870541Y17639438D01*
X17872636Y17643068D01*
X17860189Y17737624D01*
X17857700Y17746911D01*
X17800956Y17883905D01*
X17796144Y17892239D01*
X17705880Y18009874D01*
X17699074Y18016680D01*
X17620604Y18076892D01*
X17593406Y18119583D01*
X17600013Y18169769D01*
X17620604Y18194308D01*
X17699074Y18254520D01*
X17705880Y18261326D01*
X17796144Y18378961D01*
X17800956Y18387296D01*
X17857700Y18524288D01*
X17860189Y18533577D01*
X17871891Y18622463D01*
X17869588Y18632849D01*
X17866263Y18635400D01*
X17263048Y18635400D01*
X17253052Y18631762D01*
X17250000Y18626475D01*
X17250000Y17648848D01*
X16750000Y17648848D01*
X16750000Y18622352D01*
X16746362Y18632348D01*
X16741075Y18635400D01*
X16139455Y18635400D01*
X16129459Y18631762D01*
X16127364Y18628132D01*
X14524500Y18628132D01*
X14524500Y19148337D01*
X16128109Y19148337D01*
X16130412Y19137951D01*
X16133737Y19135400D01*
X16736952Y19135400D01*
X16746948Y19139038D01*
X16750000Y19144325D01*
X16750000Y19148448D01*
X17250000Y19148448D01*
X17253638Y19138452D01*
X17258925Y19135400D01*
X17860545Y19135400D01*
X17870541Y19139038D01*
X17872636Y19142668D01*
X17860189Y19237224D01*
X17857700Y19246511D01*
X17800956Y19383505D01*
X17796144Y19391839D01*
X17705880Y19509474D01*
X17699074Y19516280D01*
X17581439Y19606544D01*
X17573104Y19611356D01*
X17436112Y19668100D01*
X17426823Y19670589D01*
X17316730Y19685083D01*
X17311895Y19685400D01*
X17263048Y19685400D01*
X17253052Y19681762D01*
X17250000Y19676475D01*
X17250000Y19148448D01*
X16750000Y19148448D01*
X16750000Y19672351D01*
X16746362Y19682347D01*
X16741075Y19685399D01*
X16688107Y19685399D01*
X16683269Y19685082D01*
X16573176Y19670589D01*
X16563889Y19668100D01*
X16426895Y19611356D01*
X16418561Y19606544D01*
X16300926Y19516280D01*
X16294120Y19509474D01*
X16203856Y19391839D01*
X16199044Y19383504D01*
X16142300Y19246512D01*
X16139811Y19237223D01*
X16128109Y19148337D01*
X14524500Y19148337D01*
X14524500Y19313077D01*
X14541813Y19360643D01*
X14546174Y19365403D01*
X14752797Y19572026D01*
X14798673Y19593418D01*
X14805123Y19593700D01*
X15163949Y19593701D01*
X15256518Y19593701D01*
X15259390Y19594156D01*
X15259392Y19594156D01*
X15291090Y19599176D01*
X15350304Y19608554D01*
X15427046Y19647656D01*
X15458150Y19663504D01*
X15458152Y19663506D01*
X15463342Y19666150D01*
X15553050Y19755858D01*
X15555694Y19761048D01*
X15555696Y19761050D01*
X15608000Y19863702D01*
X15608001Y19863705D01*
X15610646Y19868896D01*
X15611557Y19874650D01*
X15611558Y19874652D01*
X15616566Y19906275D01*
X15641106Y19950548D01*
X15689655Y19968700D01*
X16544747Y19968700D01*
X16578343Y19960634D01*
X16599696Y19949754D01*
X16693481Y19934900D01*
X17000000Y19934900D01*
X17306518Y19934901D01*
X17309390Y19935356D01*
X17309392Y19935356D01*
X17341090Y19940376D01*
X17400304Y19949754D01*
X17456823Y19978552D01*
X17508150Y20004704D01*
X17508152Y20004706D01*
X17513342Y20007350D01*
X17603050Y20097058D01*
X17605694Y20102248D01*
X17605696Y20102250D01*
X17658000Y20204902D01*
X17658001Y20204905D01*
X17660646Y20210096D01*
X17661557Y20215848D01*
X17661558Y20215851D01*
X17675045Y20301008D01*
X17675500Y20303881D01*
X17675499Y20766918D01*
X17674028Y20776210D01*
X17661557Y20854950D01*
X17660646Y20860704D01*
X17631848Y20917223D01*
X17605696Y20968550D01*
X17605694Y20968552D01*
X17603050Y20973742D01*
X17513342Y21063450D01*
X17508152Y21066094D01*
X17508150Y21066096D01*
X17405498Y21118400D01*
X17405495Y21118401D01*
X17400304Y21121046D01*
X17394552Y21121957D01*
X17394549Y21121958D01*
X17309392Y21135445D01*
X17306519Y21135900D01*
X17303610Y21135900D01*
X17000001Y21135899D01*
X16693482Y21135899D01*
X16690610Y21135444D01*
X16690608Y21135444D01*
X16676730Y21133246D01*
X16599696Y21121046D01*
X16543177Y21092248D01*
X16491850Y21066096D01*
X16491848Y21066094D01*
X16486658Y21063450D01*
X16396950Y20973742D01*
X16394306Y20968552D01*
X16394304Y20968550D01*
X16342000Y20865898D01*
X16339354Y20860704D01*
X16338443Y20854952D01*
X16338442Y20854949D01*
X16325971Y20776209D01*
X16324500Y20766919D01*
X16324500Y20643700D01*
X16307187Y20596134D01*
X16263350Y20570824D01*
X16250500Y20569700D01*
X15689655Y20569700D01*
X15642089Y20587013D01*
X15616566Y20632124D01*
X15614733Y20643700D01*
X15610646Y20669504D01*
X15561011Y20766918D01*
X15555696Y20777350D01*
X15555693Y20777354D01*
X15553050Y20782542D01*
X15463342Y20872250D01*
X15458152Y20874894D01*
X15458150Y20874896D01*
X15355498Y20927200D01*
X15355495Y20927201D01*
X15350304Y20929846D01*
X15344552Y20930757D01*
X15344549Y20930758D01*
X15259392Y20944245D01*
X15256519Y20944700D01*
X15253610Y20944700D01*
X15025001Y20944699D01*
X14793482Y20944699D01*
X14790610Y20944244D01*
X14790608Y20944244D01*
X14758910Y20939224D01*
X14699696Y20929846D01*
X14643177Y20901048D01*
X14591850Y20874896D01*
X14591848Y20874894D01*
X14586658Y20872250D01*
X14496950Y20782542D01*
X14494307Y20777354D01*
X14494304Y20777350D01*
X14467927Y20725582D01*
X14439354Y20669504D01*
X14438443Y20663752D01*
X14438442Y20663749D01*
X14433232Y20630850D01*
X14424500Y20575719D01*
X14424500Y20572810D01*
X14424501Y20124324D01*
X14407188Y20076758D01*
X14402827Y20071998D01*
X14050099Y19719270D01*
X14045946Y19715685D01*
X14041731Y19713625D01*
X14037085Y19708616D01*
X14036018Y19707824D01*
X13987509Y19693362D01*
X13941053Y19713465D01*
X13918388Y19758726D01*
X13925963Y19800827D01*
X13958000Y19863702D01*
X13958001Y19863705D01*
X13960646Y19868896D01*
X13961557Y19874648D01*
X13961558Y19874651D01*
X13975045Y19959808D01*
X13975500Y19962681D01*
X13975499Y20575718D01*
X13960646Y20669504D01*
X13911011Y20766918D01*
X13905696Y20777350D01*
X13905693Y20777354D01*
X13903050Y20782542D01*
X13813342Y20872250D01*
X13808152Y20874894D01*
X13808150Y20874896D01*
X13705498Y20927200D01*
X13705495Y20927201D01*
X13700304Y20929846D01*
X13694552Y20930757D01*
X13694549Y20930758D01*
X13609392Y20944245D01*
X13606519Y20944700D01*
X13603610Y20944700D01*
X13375001Y20944699D01*
X13143482Y20944699D01*
X13140610Y20944244D01*
X13140608Y20944244D01*
X13108910Y20939224D01*
X13049696Y20929846D01*
X12993177Y20901048D01*
X12941850Y20874896D01*
X12941848Y20874894D01*
X12936658Y20872250D01*
X12846950Y20782542D01*
X12838990Y20766919D01*
X12835517Y20760104D01*
X12798496Y20725582D01*
X12769583Y20719700D01*
X12230417Y20719700D01*
X12182851Y20737013D01*
X12164483Y20760104D01*
X12161010Y20766919D01*
X12153050Y20782542D01*
X12063342Y20872250D01*
X12058152Y20874894D01*
X12058150Y20874896D01*
X11955498Y20927200D01*
X11955495Y20927201D01*
X11950304Y20929846D01*
X11944552Y20930757D01*
X11944549Y20930758D01*
X11859392Y20944245D01*
X11856519Y20944700D01*
X11853610Y20944700D01*
X11625001Y20944699D01*
X11393482Y20944699D01*
X11390610Y20944244D01*
X11390608Y20944244D01*
X11358910Y20939224D01*
X11299696Y20929846D01*
X11243177Y20901048D01*
X11191850Y20874896D01*
X11191848Y20874894D01*
X11186658Y20872250D01*
X11096950Y20782542D01*
X11094307Y20777354D01*
X11094304Y20777350D01*
X11067927Y20725582D01*
X11039354Y20669504D01*
X11038443Y20663752D01*
X11038442Y20663749D01*
X11033232Y20630850D01*
X11024500Y20575719D01*
X11024501Y19962682D01*
X11024956Y19959810D01*
X11024956Y19959808D01*
X11026969Y19947100D01*
X11039354Y19868896D01*
X11064930Y19818700D01*
X11075608Y19797744D01*
X11081777Y19747503D01*
X11054208Y19705050D01*
X11005801Y19690250D01*
X10957348Y19711823D01*
X10597174Y20071997D01*
X10575782Y20117873D01*
X10575500Y20124323D01*
X10575499Y20572809D01*
X10575499Y20575718D01*
X10560646Y20669504D01*
X10511011Y20766918D01*
X10505696Y20777350D01*
X10505693Y20777354D01*
X10503050Y20782542D01*
X10413342Y20872250D01*
X10408152Y20874894D01*
X10408150Y20874896D01*
X10305498Y20927200D01*
X10305495Y20927201D01*
X10300304Y20929846D01*
X10294552Y20930757D01*
X10294549Y20930758D01*
X10209392Y20944245D01*
X10206519Y20944700D01*
X10203610Y20944700D01*
X9975001Y20944699D01*
X9743482Y20944699D01*
X9740610Y20944244D01*
X9740608Y20944244D01*
X9708910Y20939224D01*
X9649696Y20929846D01*
X9593177Y20901048D01*
X9541850Y20874896D01*
X9541848Y20874894D01*
X9536658Y20872250D01*
X9446950Y20782542D01*
X9444307Y20777354D01*
X9444304Y20777350D01*
X9417927Y20725582D01*
X9389354Y20669504D01*
X9388443Y20663750D01*
X9388442Y20663748D01*
X9383434Y20632125D01*
X9358894Y20587852D01*
X9310345Y20569700D01*
X8749499Y20569700D01*
X8701933Y20587013D01*
X8676623Y20630850D01*
X8675499Y20643700D01*
X8675499Y20779118D01*
X8674305Y20786661D01*
X8670024Y20813690D01*
X8660646Y20872904D01*
X8624296Y20944245D01*
X8605696Y20980750D01*
X8605694Y20980752D01*
X8603050Y20985942D01*
X8513342Y21075650D01*
X8508152Y21078294D01*
X8508150Y21078296D01*
X8405498Y21130600D01*
X8405495Y21130601D01*
X8400304Y21133246D01*
X8394552Y21134157D01*
X8394549Y21134158D01*
X8309392Y21147645D01*
X8306519Y21148100D01*
X8303610Y21148100D01*
X8000001Y21148099D01*
X7693482Y21148099D01*
X7690610Y21147644D01*
X7690608Y21147644D01*
X7658910Y21142624D01*
X7599696Y21133246D01*
X7543177Y21104448D01*
X7491850Y21078296D01*
X7491848Y21078294D01*
X7486658Y21075650D01*
X7396950Y20985942D01*
X7394306Y20980752D01*
X7394304Y20980750D01*
X7342000Y20878098D01*
X7339354Y20872904D01*
X7338443Y20867152D01*
X7338442Y20867149D01*
X7325694Y20786658D01*
X7324500Y20779119D01*
X7324501Y20316082D01*
X7324956Y20313210D01*
X7324956Y20313208D01*
X7326433Y20303881D01*
X7339354Y20222296D01*
X7348217Y20204902D01*
X7394304Y20114450D01*
X7394306Y20114448D01*
X7396950Y20109258D01*
X7486658Y20019550D01*
X7491848Y20016906D01*
X7491850Y20016904D01*
X7594502Y19964600D01*
X7594505Y19964599D01*
X7599696Y19961954D01*
X7605448Y19961043D01*
X7605451Y19961042D01*
X7676724Y19949754D01*
X7693481Y19947100D01*
X8000000Y19947100D01*
X8306518Y19947101D01*
X8309390Y19947556D01*
X8309392Y19947556D01*
X8359807Y19955540D01*
X8400304Y19961954D01*
X8405493Y19964598D01*
X8406974Y19965079D01*
X8429839Y19968700D01*
X9310345Y19968700D01*
X9357911Y19951387D01*
X9383434Y19906276D01*
X9389354Y19868896D01*
X9414930Y19818700D01*
X9444304Y19761050D01*
X9444306Y19761048D01*
X9446950Y19755858D01*
X9536658Y19666150D01*
X9541848Y19663506D01*
X9541850Y19663504D01*
X9644502Y19611200D01*
X9644505Y19611199D01*
X9649696Y19608554D01*
X9655448Y19607643D01*
X9655451Y19607642D01*
X9727071Y19596299D01*
X9743481Y19593700D01*
X9836050Y19593700D01*
X10194876Y19593701D01*
X10242442Y19576388D01*
X10247202Y19572027D01*
X10472826Y19346403D01*
X10494218Y19300527D01*
X10494500Y19294077D01*
X10494500Y18589454D01*
X10477187Y18541888D01*
X10433350Y18516578D01*
X10386906Y18523520D01*
X10300304Y18567646D01*
X10294552Y18568557D01*
X10294549Y18568558D01*
X10209392Y18582045D01*
X10206519Y18582500D01*
X10203610Y18582500D01*
X9975001Y18582499D01*
X9743482Y18582499D01*
X9740610Y18582044D01*
X9740608Y18582044D01*
X9708910Y18577024D01*
X9649696Y18567646D01*
X9606776Y18545777D01*
X9541850Y18512696D01*
X9541848Y18512694D01*
X9536658Y18510050D01*
X9446950Y18420342D01*
X9444306Y18415152D01*
X9444304Y18415150D01*
X9426500Y18380207D01*
X9389354Y18307304D01*
X9388443Y18301552D01*
X9388442Y18301549D01*
X9374955Y18216392D01*
X9374500Y18213519D01*
X9374501Y17600482D01*
X9374956Y17597610D01*
X9374956Y17597608D01*
X9378686Y17574056D01*
X9389354Y17506696D01*
X9405071Y17475850D01*
X9444304Y17398850D01*
X9444306Y17398848D01*
X9446950Y17393658D01*
X9536658Y17303950D01*
X9541848Y17301306D01*
X9541850Y17301304D01*
X9632421Y17255156D01*
X9666943Y17218136D01*
X9670472Y17190573D01*
X9672575Y17190652D01*
X9674448Y17140753D01*
X9674500Y17137977D01*
X9674500Y17118046D01*
X9675124Y17114694D01*
X9675437Y17111303D01*
X9675247Y17111285D01*
X9675706Y17107239D01*
X9676774Y17078786D01*
X9679471Y17072509D01*
X9679472Y17072504D01*
X9682416Y17065651D01*
X9687174Y17049992D01*
X9689791Y17035941D01*
X9693376Y17030126D01*
X9693377Y17030122D01*
X9704730Y17011704D01*
X9709726Y17002087D01*
X9717611Y16983736D01*
X9720964Y16975931D01*
X9724978Y16971045D01*
X9731409Y16964614D01*
X9742076Y16951119D01*
X9748532Y16940646D01*
X9753971Y16936510D01*
X9773112Y16921955D01*
X9780646Y16915377D01*
X9971700Y16724323D01*
X9993092Y16678447D01*
X9979991Y16629552D01*
X9971700Y16619671D01*
X9371403Y16019374D01*
X9325527Y15997982D01*
X9319077Y15997700D01*
X8718631Y15997700D01*
X8671065Y16015013D01*
X8652697Y16038105D01*
X8605696Y16130350D01*
X8605694Y16130352D01*
X8603050Y16135542D01*
X8513342Y16225250D01*
X8508152Y16227894D01*
X8508150Y16227896D01*
X8405498Y16280200D01*
X8405495Y16280201D01*
X8400304Y16282846D01*
X8394552Y16283757D01*
X8394549Y16283758D01*
X8309392Y16297245D01*
X8306519Y16297700D01*
X8303610Y16297700D01*
X8000001Y16297699D01*
X7693482Y16297699D01*
X7690610Y16297244D01*
X7690608Y16297244D01*
X7682678Y16295988D01*
X7599696Y16282846D01*
X7552541Y16258819D01*
X7491850Y16227896D01*
X7491848Y16227894D01*
X7486658Y16225250D01*
X7396950Y16135542D01*
X7394306Y16130352D01*
X7394304Y16130350D01*
X7342000Y16027698D01*
X7339354Y16022504D01*
X7338443Y16016752D01*
X7338442Y16016749D01*
X7330613Y15967318D01*
X7324500Y15928719D01*
X7324501Y15465682D01*
X7339354Y15371896D01*
X7358140Y15335026D01*
X7394304Y15264050D01*
X7394306Y15264048D01*
X7396950Y15258858D01*
X7486658Y15169150D01*
X7491848Y15166506D01*
X7491850Y15166504D01*
X7594502Y15114200D01*
X7594505Y15114199D01*
X7599696Y15111554D01*
X7605448Y15110643D01*
X7605451Y15110642D01*
X7690602Y15097156D01*
X7693481Y15096700D01*
X8000000Y15096700D01*
X8306518Y15096701D01*
X8309390Y15097156D01*
X8309392Y15097156D01*
X8341090Y15102176D01*
X8400304Y15111554D01*
X8473056Y15148623D01*
X8523297Y15154792D01*
X8565750Y15127223D01*
X8580550Y15078816D01*
X8560771Y15032221D01*
X8557473Y15029272D01*
X8555331Y15028225D01*
X8529221Y15000078D01*
X8521374Y14991619D01*
X8519448Y14989619D01*
X8505352Y14975523D01*
X8503424Y14972712D01*
X8501247Y14970093D01*
X8501115Y14970203D01*
X8498561Y14967027D01*
X8479199Y14946154D01*
X8476669Y14939812D01*
X8476665Y14939806D01*
X8473901Y14932877D01*
X8466193Y14918441D01*
X8464309Y14915694D01*
X8458108Y14906654D01*
X8456530Y14900004D01*
X8456529Y14900002D01*
X8451536Y14878960D01*
X8448268Y14868624D01*
X8437717Y14842178D01*
X8437100Y14835885D01*
X8437100Y14826788D01*
X8435100Y14809701D01*
X8434112Y14805537D01*
X8432260Y14797734D01*
X8433182Y14790961D01*
X8436424Y14767137D01*
X8437100Y14757158D01*
X8437100Y14485431D01*
X8419787Y14437865D01*
X8396695Y14419497D01*
X8304450Y14372496D01*
X8304448Y14372494D01*
X8299258Y14369850D01*
X8209550Y14280142D01*
X8206906Y14274952D01*
X8206904Y14274950D01*
X8154600Y14172298D01*
X8151954Y14167104D01*
X8151043Y14161352D01*
X8151042Y14161349D01*
X8139599Y14089099D01*
X8137100Y14073319D01*
X8137101Y13460282D01*
X8151954Y13366496D01*
X8159619Y13351453D01*
X8206904Y13258650D01*
X8206906Y13258648D01*
X8209550Y13253458D01*
X8299258Y13163750D01*
X8304447Y13161106D01*
X8304995Y13160708D01*
X8333302Y13118743D01*
X8335500Y13100840D01*
X8335500Y12716455D01*
X8318187Y12668889D01*
X8273076Y12643366D01*
X8265450Y12642158D01*
X8235696Y12637446D01*
X8179177Y12608648D01*
X8127850Y12582496D01*
X8127848Y12582494D01*
X8122658Y12579850D01*
X8032950Y12490142D01*
X8030306Y12484952D01*
X8030304Y12484950D01*
X7978000Y12382298D01*
X7975354Y12377104D01*
X7974443Y12371352D01*
X7974442Y12371349D01*
X7962667Y12297000D01*
X7960500Y12283319D01*
X7960501Y11820282D01*
X7975354Y11726496D01*
X7989426Y11698878D01*
X8030304Y11618650D01*
X8030306Y11618648D01*
X8032950Y11613458D01*
X8122658Y11523750D01*
X8127848Y11521106D01*
X8127850Y11521104D01*
X8230502Y11468800D01*
X8230505Y11468799D01*
X8235696Y11466154D01*
X8241448Y11465243D01*
X8241451Y11465242D01*
X8326602Y11451756D01*
X8329481Y11451300D01*
X8636000Y11451300D01*
X8942518Y11451301D01*
X8945390Y11451756D01*
X8945392Y11451756D01*
X8977090Y11456776D01*
X9036304Y11466154D01*
X9092823Y11494952D01*
X9144150Y11521104D01*
X9144152Y11521106D01*
X9149342Y11523750D01*
X9239050Y11613458D01*
X9241694Y11618648D01*
X9241696Y11618650D01*
X9294000Y11721302D01*
X9294001Y11721305D01*
X9296646Y11726496D01*
X9297557Y11732248D01*
X9297558Y11732251D01*
X9311045Y11817408D01*
X9311500Y11820281D01*
X9311499Y12283318D01*
X9296646Y12377104D01*
X9255473Y12457911D01*
X9241696Y12484950D01*
X9241694Y12484952D01*
X9239050Y12490142D01*
X9149342Y12579850D01*
X9144152Y12582494D01*
X9144150Y12582496D01*
X9041498Y12634800D01*
X9041495Y12634801D01*
X9036304Y12637446D01*
X9030550Y12638357D01*
X9030548Y12638358D01*
X9011191Y12641423D01*
X8998924Y12643366D01*
X8954652Y12667906D01*
X8936500Y12716455D01*
X8936500Y13022933D01*
X8953813Y13070499D01*
X8998924Y13096021D01*
X9062904Y13106154D01*
X9139701Y13145284D01*
X9170750Y13161104D01*
X9170752Y13161106D01*
X9175942Y13163750D01*
X9265650Y13253458D01*
X9268294Y13258648D01*
X9268296Y13258650D01*
X9320600Y13361302D01*
X9320601Y13361305D01*
X9323246Y13366496D01*
X9324157Y13372248D01*
X9324158Y13372251D01*
X9337645Y13457408D01*
X9338100Y13460281D01*
X9338099Y14073318D01*
X9323246Y14167104D01*
X9293033Y14226400D01*
X9268296Y14274950D01*
X9268294Y14274952D01*
X9265650Y14280142D01*
X9175942Y14369850D01*
X9170752Y14372494D01*
X9170750Y14372496D01*
X9078505Y14419497D01*
X9043983Y14456517D01*
X9038100Y14485431D01*
X9038100Y14627677D01*
X9055413Y14675243D01*
X9059775Y14680004D01*
X9094399Y14714627D01*
X9140276Y14736019D01*
X9146724Y14736300D01*
X9445033Y14736300D01*
X9450506Y14735898D01*
X9454942Y14734375D01*
X9461766Y14734631D01*
X9461767Y14734631D01*
X9504841Y14736248D01*
X9507617Y14736300D01*
X9527548Y14736300D01*
X9530900Y14736924D01*
X9534291Y14737237D01*
X9534309Y14737047D01*
X9538355Y14737506D01*
X9566808Y14738574D01*
X9573085Y14741271D01*
X9573090Y14741272D01*
X9579943Y14744216D01*
X9595602Y14748974D01*
X9602936Y14750340D01*
X9609653Y14751591D01*
X9615468Y14755176D01*
X9615472Y14755177D01*
X9633890Y14766530D01*
X9643507Y14771526D01*
X9664862Y14780701D01*
X9664864Y14780702D01*
X9669663Y14782764D01*
X9674549Y14786778D01*
X9680980Y14793209D01*
X9694476Y14803877D01*
X9699132Y14806747D01*
X9704948Y14810332D01*
X9711187Y14818536D01*
X9723639Y14834912D01*
X9730217Y14842446D01*
X10020347Y15132576D01*
X10066223Y15153968D01*
X10115118Y15140867D01*
X10131378Y15125302D01*
X10138118Y15116518D01*
X10141969Y15113563D01*
X10259711Y15023216D01*
X10259713Y15023215D01*
X10263559Y15020264D01*
X10300353Y15005023D01*
X10312292Y15000078D01*
X10349612Y14965880D01*
X10356219Y14915694D01*
X10336299Y14879385D01*
X10301478Y14844564D01*
X10294713Y14835253D01*
X10242481Y14732742D01*
X10238923Y14721793D01*
X10225455Y14636754D01*
X10225000Y14630972D01*
X10225000Y14415448D01*
X10228638Y14405452D01*
X10233925Y14402400D01*
X10801000Y14402400D01*
X10848566Y14385087D01*
X10873876Y14341250D01*
X10875000Y14328400D01*
X10875000Y14226400D01*
X10857687Y14178834D01*
X10813850Y14153524D01*
X10801000Y14152400D01*
X10238049Y14152400D01*
X10228053Y14148762D01*
X10225001Y14143475D01*
X10225001Y14136665D01*
X10207688Y14089099D01*
X10173868Y14066287D01*
X10169661Y14064920D01*
X10067147Y14012687D01*
X10057836Y14005922D01*
X9976478Y13924564D01*
X9969713Y13915253D01*
X9917481Y13812742D01*
X9913923Y13801793D01*
X9900455Y13716754D01*
X9900000Y13710972D01*
X9900000Y13115448D01*
X9903638Y13105452D01*
X9908925Y13102400D01*
X15086951Y13102400D01*
X15096947Y13106038D01*
X15099999Y13111325D01*
X15099999Y13630531D01*
X15117312Y13678097D01*
X15164341Y13703898D01*
X15178055Y13705703D01*
X15197956Y13708323D01*
X15197958Y13708324D01*
X15202762Y13708956D01*
X15348841Y13769464D01*
X15364146Y13781208D01*
X15409194Y13796500D01*
X15651751Y13796500D01*
X15699317Y13779187D01*
X15722129Y13745369D01*
X15722370Y13744629D01*
X15723281Y13738874D01*
X15729059Y13727534D01*
X15781826Y13623972D01*
X15781828Y13623970D01*
X15784472Y13618780D01*
X15879780Y13523472D01*
X15930983Y13497383D01*
X15965503Y13460364D01*
X15968153Y13409815D01*
X15937689Y13369389D01*
X15918032Y13360388D01*
X15887280Y13351453D01*
X15878802Y13347785D01*
X15750898Y13272143D01*
X15743596Y13266479D01*
X15638521Y13161404D01*
X15632857Y13154102D01*
X15557215Y13026198D01*
X15553546Y13017719D01*
X15511844Y12874179D01*
X15510492Y12866780D01*
X15508114Y12836558D01*
X15508000Y12833659D01*
X15508000Y12810048D01*
X15511638Y12800052D01*
X15516925Y12797000D01*
X17244952Y12797000D01*
X17254948Y12800638D01*
X17258000Y12805925D01*
X17258000Y12833659D01*
X17257886Y12836558D01*
X17255508Y12866780D01*
X17254156Y12874179D01*
X17212454Y13017719D01*
X17208785Y13026198D01*
X17133143Y13154102D01*
X17127479Y13161404D01*
X17022404Y13266479D01*
X17015102Y13272143D01*
X16887198Y13347785D01*
X16878720Y13351453D01*
X16847968Y13360388D01*
X16807121Y13390285D01*
X16795047Y13439443D01*
X16817396Y13484861D01*
X16835013Y13497381D01*
X16886220Y13523472D01*
X16981528Y13618780D01*
X16984172Y13623970D01*
X16984174Y13623972D01*
X17040073Y13733680D01*
X17040074Y13733683D01*
X17042719Y13738874D01*
X17043630Y13744626D01*
X17043631Y13744629D01*
X17058045Y13835639D01*
X17058500Y13838512D01*
X17058500Y14355488D01*
X17055893Y14371948D01*
X17043631Y14449371D01*
X17043630Y14449374D01*
X17042719Y14455126D01*
X17027278Y14485431D01*
X16984174Y14570028D01*
X16984172Y14570030D01*
X16981528Y14575220D01*
X16886220Y14670528D01*
X16881030Y14673172D01*
X16881028Y14673174D01*
X16771320Y14729073D01*
X16771317Y14729074D01*
X16766126Y14731719D01*
X16760374Y14732630D01*
X16760371Y14732631D01*
X16669361Y14747045D01*
X16666488Y14747500D01*
X16518376Y14747500D01*
X16470810Y14764813D01*
X16445500Y14808650D01*
X16454290Y14858500D01*
X16473328Y14880208D01*
X16534947Y14927490D01*
X16538798Y14930445D01*
X16635052Y15055886D01*
X16649024Y15089618D01*
X16683221Y15126939D01*
X16717391Y15135300D01*
X17240023Y15135301D01*
X17306518Y15135301D01*
X17309390Y15135756D01*
X17309392Y15135756D01*
X17341663Y15140867D01*
X17400304Y15150154D01*
X17477236Y15189353D01*
X17508150Y15205104D01*
X17508152Y15205106D01*
X17513342Y15207750D01*
X17603050Y15297458D01*
X17605694Y15302648D01*
X17605696Y15302650D01*
X17658000Y15405302D01*
X17658001Y15405305D01*
X17660646Y15410496D01*
X17661557Y15416248D01*
X17661558Y15416251D01*
X17675045Y15501408D01*
X17675500Y15504281D01*
X17675500Y15547352D01*
X17692813Y15594918D01*
X17736650Y15620228D01*
X17786500Y15611438D01*
X17812499Y15586174D01*
X17814535Y15582870D01*
X17819526Y15573261D01*
X17830764Y15547105D01*
X17831716Y15545946D01*
X17841981Y15509338D01*
X17841980Y12582604D01*
X17824667Y12535038D01*
X17820306Y12530278D01*
X17353247Y12063219D01*
X17307371Y12041827D01*
X17258476Y12054928D01*
X17229442Y12096392D01*
X17229859Y12136191D01*
X17254157Y12219824D01*
X17255508Y12227220D01*
X17257886Y12257442D01*
X17258000Y12260340D01*
X17258000Y12283952D01*
X17254362Y12293948D01*
X17249075Y12297000D01*
X16646048Y12297000D01*
X16636052Y12293362D01*
X16633000Y12288075D01*
X16633000Y11710048D01*
X16636638Y11700052D01*
X16641925Y11697000D01*
X16694660Y11697000D01*
X16697558Y11697114D01*
X16727780Y11699492D01*
X16735179Y11700844D01*
X16818811Y11725141D01*
X16869318Y11721786D01*
X16905853Y11686750D01*
X16911320Y11636428D01*
X16891782Y11601753D01*
X16452203Y11162174D01*
X16406327Y11140782D01*
X16399877Y11140500D01*
X15875186Y11140499D01*
X15822482Y11140499D01*
X15819610Y11140044D01*
X15819608Y11140044D01*
X15787910Y11135024D01*
X15728696Y11125646D01*
X15672177Y11096848D01*
X15620850Y11070696D01*
X15620848Y11070694D01*
X15615658Y11068050D01*
X15609864Y11062256D01*
X15608103Y11061435D01*
X15606826Y11060507D01*
X15606646Y11060755D01*
X15563988Y11040864D01*
X15512492Y11055873D01*
X15415841Y11130036D01*
X15269762Y11190544D01*
X15264960Y11191176D01*
X15264957Y11191177D01*
X15117808Y11210549D01*
X15113000Y11211182D01*
X15108192Y11210549D01*
X14961043Y11191177D01*
X14961040Y11191176D01*
X14956238Y11190544D01*
X14951758Y11188688D01*
X14951757Y11188688D01*
X14877318Y11157855D01*
X14826748Y11155647D01*
X14786589Y11186462D01*
X14775000Y11226222D01*
X14775000Y11289352D01*
X14771362Y11299348D01*
X14766075Y11302400D01*
X14388048Y11302400D01*
X14378052Y11298762D01*
X14375000Y11293475D01*
X14375000Y10715449D01*
X14378638Y10705453D01*
X14383925Y10702401D01*
X14403571Y10702401D01*
X14409357Y10702856D01*
X14424618Y10705273D01*
X14474307Y10695613D01*
X14506161Y10656274D01*
X14509559Y10622527D01*
X14507951Y10610311D01*
X14507318Y10605500D01*
X14507951Y10600692D01*
X14527080Y10455394D01*
X14527956Y10448738D01*
X14588464Y10302659D01*
X14591414Y10298815D01*
X14591416Y10298811D01*
X14663306Y10205123D01*
X14684718Y10177218D01*
X14688569Y10174263D01*
X14738424Y10136008D01*
X14765622Y10093317D01*
X14759015Y10043131D01*
X14721695Y10008933D01*
X14693376Y10003300D01*
X13752323Y10003300D01*
X13704757Y10020613D01*
X13699997Y10024974D01*
X13572174Y10152797D01*
X13550782Y10198673D01*
X13550500Y10205123D01*
X13550500Y10628400D01*
X13567813Y10675966D01*
X13600763Y10694990D01*
X13599690Y10697937D01*
X13621948Y10706038D01*
X13625000Y10711325D01*
X13625000Y10715449D01*
X13875000Y10715449D01*
X13878638Y10705453D01*
X13883925Y10702401D01*
X13903571Y10702401D01*
X13909352Y10702856D01*
X13988423Y10715379D01*
X14011575Y10715379D01*
X14090646Y10702855D01*
X14096428Y10702400D01*
X14111952Y10702400D01*
X14121948Y10706038D01*
X14125000Y10711325D01*
X14125000Y11289352D01*
X14121362Y11299348D01*
X14116075Y11302400D01*
X13888048Y11302400D01*
X13878052Y11298762D01*
X13875000Y11293475D01*
X13875000Y10715449D01*
X13625000Y10715449D01*
X13625000Y11478400D01*
X13642313Y11525966D01*
X13686150Y11551276D01*
X13699000Y11552400D01*
X14761951Y11552400D01*
X14771947Y11556038D01*
X14774999Y11561325D01*
X14774999Y11568135D01*
X14792312Y11615701D01*
X14826132Y11638513D01*
X14830339Y11639880D01*
X14932853Y11692113D01*
X14942164Y11698878D01*
X15023522Y11780236D01*
X15030287Y11789547D01*
X15082519Y11892058D01*
X15086077Y11903007D01*
X15099545Y11988046D01*
X15100000Y11993828D01*
X15100000Y12260340D01*
X15508000Y12260340D01*
X15508114Y12257442D01*
X15510492Y12227220D01*
X15511844Y12219821D01*
X15553546Y12076281D01*
X15557215Y12067802D01*
X15632857Y11939898D01*
X15638521Y11932596D01*
X15743596Y11827521D01*
X15750898Y11821857D01*
X15878802Y11746215D01*
X15887281Y11742546D01*
X16030821Y11700844D01*
X16038220Y11699492D01*
X16068442Y11697114D01*
X16071340Y11697000D01*
X16119952Y11697000D01*
X16129948Y11700638D01*
X16133000Y11705925D01*
X16133000Y12283952D01*
X16129362Y12293948D01*
X16124075Y12297000D01*
X15521048Y12297000D01*
X15511052Y12293362D01*
X15508000Y12288075D01*
X15508000Y12260340D01*
X15100000Y12260340D01*
X15100000Y12589352D01*
X15096362Y12599348D01*
X15091075Y12602400D01*
X9913049Y12602400D01*
X9903053Y12598762D01*
X9900001Y12593475D01*
X9900001Y11993829D01*
X9900456Y11988046D01*
X9913924Y11903006D01*
X9917481Y11892060D01*
X9969713Y11789547D01*
X9976478Y11780236D01*
X10057836Y11698878D01*
X10067147Y11692113D01*
X10169658Y11639881D01*
X10180607Y11636323D01*
X10265646Y11622855D01*
X10271428Y11622400D01*
X10350500Y11622400D01*
X10398066Y11605087D01*
X10423376Y11561250D01*
X10424500Y11548400D01*
X10424500Y11082652D01*
X10425210Y11079083D01*
X10425445Y11076696D01*
X10412878Y11027662D01*
X10380121Y11001076D01*
X10247659Y10946209D01*
X10243815Y10943259D01*
X10243811Y10943257D01*
X10142221Y10865304D01*
X10122218Y10849955D01*
X10119263Y10846104D01*
X10028916Y10728362D01*
X10028914Y10728358D01*
X10025964Y10724514D01*
X9965456Y10578435D01*
X9964824Y10573633D01*
X9964823Y10573630D01*
X9949399Y10456471D01*
X9944818Y10421673D01*
X9945451Y10416865D01*
X9963114Y10282702D01*
X9965456Y10264911D01*
X10025964Y10118832D01*
X10028914Y10114988D01*
X10028916Y10114984D01*
X10110292Y10008933D01*
X10122218Y9993391D01*
X10192451Y9939500D01*
X10201172Y9932808D01*
X10228370Y9890117D01*
X10221763Y9839931D01*
X10184443Y9805733D01*
X10156124Y9800100D01*
X9807123Y9800100D01*
X9759557Y9817413D01*
X9754797Y9821774D01*
X9333174Y10243397D01*
X9311782Y10289273D01*
X9311500Y10295723D01*
X9311499Y10630409D01*
X9311499Y10633318D01*
X9296646Y10727104D01*
X9251731Y10815255D01*
X9241696Y10834950D01*
X9241694Y10834952D01*
X9239050Y10840142D01*
X9149342Y10929850D01*
X9144152Y10932494D01*
X9144150Y10932496D01*
X9041498Y10984800D01*
X9041495Y10984801D01*
X9036304Y10987446D01*
X9030552Y10988357D01*
X9030549Y10988358D01*
X8945392Y11001845D01*
X8942519Y11002300D01*
X8939610Y11002300D01*
X8636001Y11002299D01*
X8329482Y11002299D01*
X8326610Y11001844D01*
X8326608Y11001844D01*
X8294910Y10996824D01*
X8235696Y10987446D01*
X8198020Y10968249D01*
X8127850Y10932496D01*
X8127848Y10932494D01*
X8122658Y10929850D01*
X8067526Y10874718D01*
X8021650Y10853326D01*
X7970154Y10868335D01*
X7944870Y10887736D01*
X7798791Y10948244D01*
X7793989Y10948876D01*
X7793986Y10948877D01*
X7646837Y10968249D01*
X7642029Y10968882D01*
X7637221Y10968249D01*
X7490072Y10948877D01*
X7490069Y10948876D01*
X7485267Y10948244D01*
X7480787Y10946388D01*
X7480786Y10946388D01*
X7345347Y10890288D01*
X7294777Y10888080D01*
X7254618Y10918895D01*
X7243029Y10958655D01*
X7243029Y11634242D01*
X7243431Y11639715D01*
X7244954Y11644151D01*
X7243081Y11694051D01*
X7243029Y11696827D01*
X7243029Y11716757D01*
X7242405Y11720109D01*
X7242092Y11723500D01*
X7242282Y11723518D01*
X7241823Y11727567D01*
X7241011Y11749192D01*
X7240755Y11756018D01*
X7238059Y11762293D01*
X7238058Y11762297D01*
X7235113Y11769151D01*
X7230354Y11784814D01*
X7228989Y11792145D01*
X7228989Y11792146D01*
X7227738Y11798862D01*
X7224153Y11804677D01*
X7224152Y11804681D01*
X7212799Y11823099D01*
X7207803Y11832716D01*
X7198628Y11854071D01*
X7198627Y11854073D01*
X7196565Y11858872D01*
X7192551Y11863758D01*
X7186120Y11870189D01*
X7175452Y11883685D01*
X7172582Y11888341D01*
X7168997Y11894157D01*
X7144417Y11912848D01*
X7136883Y11919426D01*
X6964712Y12091597D01*
X6943320Y12137473D01*
X6943038Y12143923D01*
X6943038Y13017300D01*
X6960351Y13064866D01*
X7004188Y13090176D01*
X7017038Y13091300D01*
X7304893Y13091301D01*
X7319118Y13091301D01*
X7321990Y13091756D01*
X7321992Y13091756D01*
X7353690Y13096776D01*
X7412904Y13106154D01*
X7489701Y13145284D01*
X7520750Y13161104D01*
X7520752Y13161106D01*
X7525942Y13163750D01*
X7615650Y13253458D01*
X7618294Y13258648D01*
X7618296Y13258650D01*
X7670600Y13361302D01*
X7670601Y13361305D01*
X7673246Y13366496D01*
X7674157Y13372248D01*
X7674158Y13372251D01*
X7687645Y13457408D01*
X7688100Y13460281D01*
X7688099Y14073318D01*
X7673246Y14167104D01*
X7643033Y14226400D01*
X7618296Y14274950D01*
X7618294Y14274952D01*
X7615650Y14280142D01*
X7525942Y14369850D01*
X7520752Y14372494D01*
X7520750Y14372496D01*
X7418098Y14424800D01*
X7418095Y14424801D01*
X7412904Y14427446D01*
X7407152Y14428357D01*
X7407149Y14428358D01*
X7321992Y14441845D01*
X7319119Y14442300D01*
X7304894Y14442300D01*
X7017036Y14442299D01*
X6969471Y14459612D01*
X6944161Y14503449D01*
X6943037Y14516299D01*
X6943037Y16402896D01*
X6943439Y16408369D01*
X6944962Y16412805D01*
X6943089Y16462704D01*
X6943037Y16465480D01*
X6943037Y16485411D01*
X6942413Y16488763D01*
X6942100Y16492154D01*
X6942290Y16492172D01*
X6941831Y16496221D01*
X6941019Y16517843D01*
X6940763Y16524671D01*
X6938066Y16530948D01*
X6938065Y16530953D01*
X6935121Y16537806D01*
X6930363Y16553465D01*
X6928997Y16560799D01*
X6927746Y16567516D01*
X6924161Y16573331D01*
X6924160Y16573335D01*
X6912807Y16591753D01*
X6907811Y16601370D01*
X6898636Y16622725D01*
X6898635Y16622727D01*
X6896573Y16627526D01*
X6892559Y16632412D01*
X6886128Y16638843D01*
X6875460Y16652339D01*
X6872590Y16656995D01*
X6869005Y16662811D01*
X6848443Y16678447D01*
X6844425Y16681502D01*
X6836891Y16688080D01*
X6435039Y17089932D01*
X7127364Y17089932D01*
X7139811Y16995376D01*
X7142300Y16986089D01*
X7199044Y16849095D01*
X7203856Y16840761D01*
X7294120Y16723126D01*
X7300926Y16716320D01*
X7418561Y16626056D01*
X7426896Y16621244D01*
X7563888Y16564500D01*
X7573177Y16562011D01*
X7683270Y16547517D01*
X7688105Y16547200D01*
X7736952Y16547200D01*
X7746948Y16550838D01*
X7750000Y16556125D01*
X7750000Y16560249D01*
X8250000Y16560249D01*
X8253638Y16550253D01*
X8258925Y16547201D01*
X8311893Y16547201D01*
X8316731Y16547518D01*
X8426824Y16562011D01*
X8436111Y16564500D01*
X8573105Y16621244D01*
X8581439Y16626056D01*
X8699074Y16716320D01*
X8705880Y16723126D01*
X8796144Y16840761D01*
X8800956Y16849096D01*
X8857700Y16986088D01*
X8860189Y16995377D01*
X8871891Y17084263D01*
X8869588Y17094649D01*
X8866263Y17097200D01*
X8263048Y17097200D01*
X8253052Y17093562D01*
X8250000Y17088275D01*
X8250000Y16560249D01*
X7750000Y16560249D01*
X7750000Y17084152D01*
X7746362Y17094148D01*
X7741075Y17097200D01*
X7139455Y17097200D01*
X7129459Y17093562D01*
X7127364Y17089932D01*
X6435039Y17089932D01*
X6226070Y17298901D01*
X6222485Y17303054D01*
X6220425Y17307269D01*
X6183818Y17341227D01*
X6181819Y17343152D01*
X6167723Y17357248D01*
X6164912Y17359176D01*
X6162293Y17361353D01*
X6162403Y17361485D01*
X6159227Y17364039D01*
X6143364Y17378754D01*
X6143363Y17378755D01*
X6138354Y17383401D01*
X6132012Y17385931D01*
X6132006Y17385935D01*
X6125077Y17388699D01*
X6110641Y17396407D01*
X6104493Y17400624D01*
X6104492Y17400625D01*
X6098854Y17404492D01*
X6092204Y17406070D01*
X6092202Y17406071D01*
X6071160Y17411064D01*
X6060824Y17414332D01*
X6045291Y17420529D01*
X6034378Y17424883D01*
X6028085Y17425500D01*
X6018988Y17425500D01*
X6001901Y17427500D01*
X5996585Y17428762D01*
X5996583Y17428762D01*
X5989934Y17430340D01*
X5969066Y17427500D01*
X5959337Y17426176D01*
X5949358Y17425500D01*
X5900000Y17425500D01*
X5900000Y18640332D01*
X7127364Y18640332D01*
X7139811Y18545776D01*
X7142300Y18536489D01*
X7199044Y18399495D01*
X7203856Y18391161D01*
X7294120Y18273526D01*
X7300926Y18266720D01*
X7412498Y18181108D01*
X7439696Y18138417D01*
X7433089Y18088231D01*
X7412498Y18063692D01*
X7300926Y17978080D01*
X7294120Y17971274D01*
X7203856Y17853639D01*
X7199044Y17845304D01*
X7142300Y17708312D01*
X7139811Y17699023D01*
X7128109Y17610137D01*
X7130412Y17599751D01*
X7133737Y17597200D01*
X7736952Y17597200D01*
X7746948Y17600838D01*
X7750000Y17606125D01*
X7750000Y17610248D01*
X8250000Y17610248D01*
X8253638Y17600252D01*
X8258925Y17597200D01*
X8860545Y17597200D01*
X8870541Y17600838D01*
X8872636Y17604468D01*
X8860189Y17699024D01*
X8857700Y17708311D01*
X8800956Y17845305D01*
X8796144Y17853639D01*
X8705880Y17971274D01*
X8699074Y17978080D01*
X8587502Y18063692D01*
X8560304Y18106383D01*
X8566911Y18156569D01*
X8587502Y18181108D01*
X8699074Y18266720D01*
X8705880Y18273526D01*
X8796144Y18391161D01*
X8800956Y18399496D01*
X8857700Y18536488D01*
X8860189Y18545777D01*
X8871891Y18634663D01*
X8869588Y18645049D01*
X8866263Y18647600D01*
X8263048Y18647600D01*
X8253052Y18643962D01*
X8250000Y18638675D01*
X8250000Y17610248D01*
X7750000Y17610248D01*
X7750000Y18634552D01*
X7746362Y18644548D01*
X7741075Y18647600D01*
X7139455Y18647600D01*
X7129459Y18643962D01*
X7127364Y18640332D01*
X5900000Y18640332D01*
X5900000Y19160537D01*
X7128109Y19160537D01*
X7130412Y19150151D01*
X7133737Y19147600D01*
X7736952Y19147600D01*
X7746948Y19151238D01*
X7750000Y19156525D01*
X7750000Y19160648D01*
X8250000Y19160648D01*
X8253638Y19150652D01*
X8258925Y19147600D01*
X8860545Y19147600D01*
X8870541Y19151238D01*
X8872636Y19154868D01*
X8860189Y19249424D01*
X8857700Y19258711D01*
X8800956Y19395705D01*
X8796144Y19404039D01*
X8705880Y19521674D01*
X8699074Y19528480D01*
X8581439Y19618744D01*
X8573104Y19623556D01*
X8436112Y19680300D01*
X8426823Y19682789D01*
X8316730Y19697283D01*
X8311895Y19697600D01*
X8263048Y19697600D01*
X8253052Y19693962D01*
X8250000Y19688675D01*
X8250000Y19160648D01*
X7750000Y19160648D01*
X7750000Y19684551D01*
X7746362Y19694547D01*
X7741075Y19697599D01*
X7688107Y19697599D01*
X7683269Y19697282D01*
X7573176Y19682789D01*
X7563889Y19680300D01*
X7426895Y19623556D01*
X7418561Y19618744D01*
X7300926Y19528480D01*
X7294120Y19521674D01*
X7203856Y19404039D01*
X7199044Y19395704D01*
X7142300Y19258712D01*
X7139811Y19249423D01*
X7128109Y19160537D01*
X5900000Y19160537D01*
X5900000Y22500000D01*
X10820800Y22500000D01*
X10868366Y22482687D01*
G37*
%TD.AperFunction*%
%TA.AperFunction,Conductor*%
G36*
X5920844Y15345785D02*
G01*
X5942236Y15299909D01*
X5942518Y15293459D01*
X5942518Y10897040D01*
X5925205Y10849474D01*
X5913566Y10838332D01*
X5900000Y10827922D01*
X5900000Y15366629D01*
X5920844Y15345785D01*
G37*
%TD.AperFunction*%
%TA.AperFunction,Conductor*%
G36*
X6320363Y16354666D02*
G01*
X6341755Y16308790D01*
X6342037Y16302340D01*
X6342037Y15953186D01*
X6324724Y15905620D01*
X6280887Y15880310D01*
X6231037Y15889100D01*
X6215711Y15900860D01*
X6067670Y16048901D01*
X6064085Y16053054D01*
X6062025Y16057269D01*
X6025418Y16091227D01*
X6023419Y16093152D01*
X6009323Y16107248D01*
X6006512Y16109176D01*
X6003893Y16111353D01*
X6004003Y16111485D01*
X6000827Y16114039D01*
X5984964Y16128754D01*
X5984963Y16128755D01*
X5979954Y16133401D01*
X5973612Y16135931D01*
X5973606Y16135935D01*
X5966677Y16138699D01*
X5952241Y16146407D01*
X5946093Y16150624D01*
X5946092Y16150625D01*
X5940454Y16154492D01*
X5933804Y16156070D01*
X5933802Y16156071D01*
X5912760Y16161064D01*
X5902424Y16164332D01*
X5900000Y16165299D01*
X5900000Y16775029D01*
X6320363Y16354666D01*
G37*
%TD.AperFunction*%
%TA.AperFunction,Conductor*%
G36*
X19050000Y16122172D02*
G01*
X19046418Y16118590D01*
X19032923Y16107923D01*
X19028270Y16105055D01*
X19028268Y16105053D01*
X19022452Y16101468D01*
X19010519Y16085775D01*
X18967947Y16058392D01*
X18917733Y16064779D01*
X18883248Y16102248D01*
X18832050Y16225850D01*
X18825914Y16240663D01*
X18822964Y16244507D01*
X18822962Y16244511D01*
X18732615Y16362253D01*
X18729660Y16366104D01*
X18667625Y16413705D01*
X18619509Y16450626D01*
X18592311Y16493318D01*
X18598918Y16543503D01*
X18612231Y16561660D01*
X18732074Y16681502D01*
X18853398Y16802826D01*
X18899275Y16824218D01*
X18905724Y16824500D01*
X19050000Y16824500D01*
X19050000Y16122172D01*
G37*
%TD.AperFunction*%
%TD*%
%TA.AperFunction,Conductor*%
%TO.N,GND*%
G36*
X20868366Y22482687D02*
G01*
X20890873Y22449787D01*
X20931241Y22330867D01*
X20932536Y22328374D01*
X21013190Y22173110D01*
X21050505Y22101275D01*
X21052158Y22099013D01*
X21052160Y22099009D01*
X21157596Y21954685D01*
X21203125Y21892364D01*
X21205104Y21890375D01*
X21331942Y21762871D01*
X21385589Y21708942D01*
X21593698Y21555230D01*
X21596192Y21553918D01*
X21820170Y21436077D01*
X21820177Y21436074D01*
X21822663Y21434766D01*
X22067215Y21350321D01*
X22069976Y21349817D01*
X22069979Y21349816D01*
X22174226Y21330777D01*
X22321726Y21303839D01*
X22324088Y21303715D01*
X22324090Y21303715D01*
X22403558Y21299550D01*
X22403572Y21299550D01*
X22404519Y21299500D01*
X22565782Y21299500D01*
X22637247Y21304936D01*
X22755182Y21313907D01*
X22755188Y21313908D01*
X22757976Y21314120D01*
X23010015Y21372539D01*
X23012622Y21373579D01*
X23012628Y21373581D01*
X23247710Y21467369D01*
X23247716Y21467372D01*
X23250318Y21468410D01*
X23252737Y21469832D01*
X23252741Y21469834D01*
X23470929Y21598101D01*
X23470933Y21598104D01*
X23473354Y21599527D01*
X23673991Y21762871D01*
X23847613Y21954685D01*
X23849163Y21957031D01*
X23849166Y21957035D01*
X23988667Y22168199D01*
X23988668Y22168200D01*
X23990222Y22170553D01*
X24062979Y22328374D01*
X24097364Y22402962D01*
X24097365Y22402964D01*
X24098538Y22405509D01*
X24099314Y22408206D01*
X24099318Y22408217D01*
X24110320Y22446459D01*
X24140108Y22487385D01*
X24181435Y22500000D01*
X24426000Y22500000D01*
X24473566Y22482687D01*
X24498876Y22438850D01*
X24500000Y22426000D01*
X24500000Y574000D01*
X24482687Y526434D01*
X24438850Y501124D01*
X24426000Y500000D01*
X24179200Y500000D01*
X24131634Y517313D01*
X24109127Y550213D01*
X24069662Y666473D01*
X24069662Y666474D01*
X24068759Y669133D01*
X24067464Y671626D01*
X23950788Y896236D01*
X23950788Y896237D01*
X23949495Y898725D01*
X23844121Y1042965D01*
X23798532Y1105368D01*
X23798531Y1105369D01*
X23796875Y1107636D01*
X23707409Y1197572D01*
X23616393Y1289066D01*
X23616390Y1289068D01*
X23614411Y1291058D01*
X23406302Y1444770D01*
X23359787Y1469242D01*
X23179830Y1563923D01*
X23179823Y1563926D01*
X23177337Y1565234D01*
X22932785Y1649679D01*
X22930024Y1650183D01*
X22930021Y1650184D01*
X22825774Y1669223D01*
X22678274Y1696161D01*
X22675912Y1696285D01*
X22675910Y1696285D01*
X22596442Y1700450D01*
X22596428Y1700450D01*
X22595481Y1700500D01*
X22434218Y1700500D01*
X22362753Y1695064D01*
X22244818Y1686093D01*
X22244812Y1686092D01*
X22242024Y1685880D01*
X21989985Y1627461D01*
X21987378Y1626421D01*
X21987372Y1626419D01*
X21752290Y1532631D01*
X21752284Y1532628D01*
X21749682Y1531590D01*
X21747263Y1530168D01*
X21747259Y1530166D01*
X21529071Y1401899D01*
X21529067Y1401896D01*
X21526646Y1400473D01*
X21326009Y1237129D01*
X21152387Y1045315D01*
X21150837Y1042969D01*
X21150834Y1042965D01*
X21057042Y900991D01*
X21009778Y829447D01*
X21008600Y826892D01*
X21008599Y826890D01*
X20935872Y669133D01*
X20901462Y594491D01*
X20900686Y591794D01*
X20900682Y591783D01*
X20889680Y553541D01*
X20859892Y512615D01*
X20818565Y500000D01*
X19050000Y500000D01*
X19050000Y5200802D01*
X19311929Y5462730D01*
X19357806Y5484122D01*
X19406700Y5471021D01*
X19416535Y5462775D01*
X19438951Y5440398D01*
X19443650Y5435707D01*
X19449148Y5433020D01*
X19449150Y5433018D01*
X19543318Y5386988D01*
X19548482Y5384464D01*
X19616782Y5374500D01*
X21083218Y5374500D01*
X21089363Y5375405D01*
X21146423Y5383804D01*
X21146426Y5383805D01*
X21152112Y5384642D01*
X21157272Y5387175D01*
X21157274Y5387176D01*
X21203117Y5409684D01*
X21256855Y5436068D01*
X21261176Y5440397D01*
X21261178Y5440398D01*
X21304825Y5484122D01*
X21339293Y5518650D01*
X21341978Y5524143D01*
X21341983Y5524150D01*
X21346307Y5532997D01*
X21382749Y5568129D01*
X21412789Y5574500D01*
X21924033Y5574500D01*
X21929506Y5574098D01*
X21933942Y5572575D01*
X21940766Y5572831D01*
X21940767Y5572831D01*
X21983841Y5574448D01*
X21986617Y5574500D01*
X22006548Y5574500D01*
X22009900Y5575124D01*
X22013291Y5575437D01*
X22013309Y5575247D01*
X22017355Y5575706D01*
X22045808Y5576774D01*
X22052085Y5579471D01*
X22052090Y5579472D01*
X22058943Y5582416D01*
X22074602Y5587174D01*
X22081936Y5588540D01*
X22088653Y5589791D01*
X22094468Y5593376D01*
X22094472Y5593377D01*
X22112890Y5604730D01*
X22122507Y5609726D01*
X22143862Y5618901D01*
X22143864Y5618902D01*
X22148663Y5620964D01*
X22153549Y5624978D01*
X22159980Y5631409D01*
X22173476Y5642077D01*
X22178132Y5644947D01*
X22183948Y5648532D01*
X22202639Y5673112D01*
X22209217Y5680646D01*
X22322701Y5794130D01*
X22326854Y5797715D01*
X22331069Y5799775D01*
X22365027Y5836382D01*
X22366952Y5838381D01*
X22381048Y5852477D01*
X22382976Y5855288D01*
X22385153Y5857907D01*
X22385285Y5857798D01*
X22387838Y5860972D01*
X22389835Y5863125D01*
X22397276Y5871146D01*
X22423205Y5889186D01*
X22451641Y5900964D01*
X22577082Y5997218D01*
X22580037Y6001069D01*
X22670384Y6118811D01*
X22670386Y6118815D01*
X22673336Y6122659D01*
X22733844Y6268738D01*
X22734478Y6273548D01*
X22753849Y6420692D01*
X22754482Y6425500D01*
X22740268Y6533467D01*
X22734477Y6577457D01*
X22734476Y6577460D01*
X22733844Y6582262D01*
X22673336Y6728341D01*
X22670386Y6732185D01*
X22670384Y6732189D01*
X22580037Y6849931D01*
X22577082Y6853782D01*
X22558138Y6868318D01*
X22455489Y6947084D01*
X22455485Y6947086D01*
X22451641Y6950036D01*
X22305562Y7010544D01*
X22300760Y7011176D01*
X22300757Y7011177D01*
X22153608Y7030549D01*
X22148800Y7031182D01*
X22143992Y7030549D01*
X21996843Y7011177D01*
X21996840Y7011176D01*
X21992038Y7010544D01*
X21845959Y6950036D01*
X21842115Y6947086D01*
X21842111Y6947084D01*
X21739462Y6868318D01*
X21720518Y6853782D01*
X21717563Y6849931D01*
X21627216Y6732189D01*
X21627214Y6732185D01*
X21624264Y6728341D01*
X21563756Y6582262D01*
X21563124Y6577460D01*
X21563123Y6577457D01*
X21557332Y6533467D01*
X21543118Y6425500D01*
X21563756Y6268738D01*
X21564322Y6267372D01*
X21560024Y6218228D01*
X21524232Y6182434D01*
X21492956Y6175500D01*
X21412707Y6175500D01*
X21365141Y6192813D01*
X21346281Y6216886D01*
X21338932Y6231855D01*
X21334603Y6236176D01*
X21334602Y6236178D01*
X21260679Y6309972D01*
X21260677Y6309973D01*
X21256350Y6314293D01*
X21186358Y6348506D01*
X21156682Y6363012D01*
X21156681Y6363012D01*
X21151518Y6365536D01*
X21083218Y6375500D01*
X19616782Y6375500D01*
X19614099Y6375105D01*
X19553577Y6366196D01*
X19553574Y6366195D01*
X19547888Y6365358D01*
X19542728Y6362825D01*
X19542723Y6362823D01*
X19524606Y6353928D01*
X19474279Y6348506D01*
X19432240Y6376702D01*
X19418627Y6410695D01*
X19402464Y6533467D01*
X19402463Y6533470D01*
X19401831Y6538272D01*
X19389484Y6568081D01*
X19387276Y6618649D01*
X19418090Y6658808D01*
X19467509Y6669765D01*
X19490345Y6662882D01*
X19548482Y6634464D01*
X19616782Y6624500D01*
X21083218Y6624500D01*
X21089363Y6625405D01*
X21146423Y6633804D01*
X21146426Y6633805D01*
X21152112Y6634642D01*
X21157272Y6637175D01*
X21157274Y6637176D01*
X21209628Y6662881D01*
X21256855Y6686068D01*
X21261176Y6690397D01*
X21261178Y6690398D01*
X21334972Y6764321D01*
X21334973Y6764323D01*
X21339293Y6768650D01*
X21379024Y6849931D01*
X21388012Y6868318D01*
X21388012Y6868319D01*
X21390536Y6873482D01*
X21400500Y6941782D01*
X21400500Y7308218D01*
X21399595Y7314363D01*
X21391196Y7371423D01*
X21391195Y7371426D01*
X21390358Y7377112D01*
X21338932Y7481855D01*
X21334603Y7486176D01*
X21334602Y7486178D01*
X21260679Y7559972D01*
X21260677Y7559973D01*
X21256350Y7564293D01*
X21205905Y7588951D01*
X21156682Y7613012D01*
X21156681Y7613012D01*
X21151518Y7615536D01*
X21083218Y7625500D01*
X19616782Y7625500D01*
X19614099Y7625105D01*
X19553577Y7616196D01*
X19553574Y7616195D01*
X19547888Y7615358D01*
X19542728Y7612825D01*
X19542726Y7612824D01*
X19533559Y7608323D01*
X19443145Y7563932D01*
X19438824Y7559603D01*
X19438822Y7559602D01*
X19401867Y7522582D01*
X19360707Y7481350D01*
X19358022Y7475857D01*
X19358017Y7475850D01*
X19353693Y7467003D01*
X19317251Y7431871D01*
X19287211Y7425500D01*
X19066772Y7425500D01*
X19061296Y7425902D01*
X19056858Y7427426D01*
X19050033Y7427170D01*
X19050031Y7427170D01*
X19050000Y7427169D01*
X19050000Y8191782D01*
X19299500Y8191782D01*
X19299895Y8189099D01*
X19308804Y8128577D01*
X19308805Y8128574D01*
X19309642Y8122888D01*
X19361068Y8018145D01*
X19365397Y8013824D01*
X19365398Y8013822D01*
X19439321Y7940028D01*
X19443650Y7935707D01*
X19449147Y7933020D01*
X19542934Y7887176D01*
X19548482Y7884464D01*
X19616782Y7874500D01*
X21083218Y7874500D01*
X21089363Y7875405D01*
X21146423Y7883804D01*
X21146426Y7883805D01*
X21152112Y7884642D01*
X21157272Y7887175D01*
X21157274Y7887176D01*
X21217867Y7916926D01*
X21250480Y7924500D01*
X21860222Y7924500D01*
X21907788Y7907187D01*
X21921326Y7891053D01*
X21921464Y7891159D01*
X21924417Y7887311D01*
X21924418Y7887309D01*
X21927237Y7883635D01*
X22017718Y7765718D01*
X22021569Y7762763D01*
X22139311Y7672416D01*
X22139315Y7672414D01*
X22143159Y7669464D01*
X22289238Y7608956D01*
X22294040Y7608324D01*
X22294043Y7608323D01*
X22441192Y7588951D01*
X22446000Y7588318D01*
X22450808Y7588951D01*
X22597957Y7608323D01*
X22597960Y7608324D01*
X22602762Y7608956D01*
X22748841Y7669464D01*
X22752685Y7672414D01*
X22752689Y7672416D01*
X22870431Y7762763D01*
X22874282Y7765718D01*
X22877237Y7769569D01*
X22967584Y7887311D01*
X22967586Y7887315D01*
X22970536Y7891159D01*
X23031044Y8037238D01*
X23041641Y8117726D01*
X23051049Y8189192D01*
X23051682Y8194000D01*
X23031044Y8350762D01*
X22970536Y8496841D01*
X22967586Y8500685D01*
X22967584Y8500689D01*
X22877237Y8618431D01*
X22874282Y8622282D01*
X22862032Y8631682D01*
X22752689Y8715584D01*
X22752685Y8715586D01*
X22748841Y8718536D01*
X22602762Y8779044D01*
X22597960Y8779676D01*
X22597957Y8779677D01*
X22450808Y8799049D01*
X22446000Y8799682D01*
X22441193Y8799049D01*
X22436340Y8799049D01*
X22436340Y8799503D01*
X22409247Y8801900D01*
X22408636Y8802094D01*
X22406512Y8802804D01*
X22355592Y8820685D01*
X22355591Y8820685D01*
X22350369Y8822519D01*
X22345006Y8822729D01*
X22343987Y8822987D01*
X22340297Y8823706D01*
X22336270Y8824980D01*
X22329663Y8825500D01*
X22275961Y8825500D01*
X22273055Y8825557D01*
X22220530Y8827621D01*
X22215006Y8827838D01*
X22209664Y8826422D01*
X22205364Y8825947D01*
X22197246Y8825500D01*
X21250542Y8825500D01*
X21218045Y8833017D01*
X21156678Y8863014D01*
X21156677Y8863014D01*
X21151518Y8865536D01*
X21083218Y8875500D01*
X19616782Y8875500D01*
X19614099Y8875105D01*
X19553577Y8866196D01*
X19553574Y8866195D01*
X19547888Y8865358D01*
X19542728Y8862825D01*
X19542726Y8862824D01*
X19496883Y8840316D01*
X19443145Y8813932D01*
X19438824Y8809603D01*
X19438822Y8809602D01*
X19406466Y8777189D01*
X19360707Y8731350D01*
X19309464Y8626518D01*
X19299500Y8558218D01*
X19299500Y8191782D01*
X19050000Y8191782D01*
X19050000Y15272229D01*
X19276183Y15498412D01*
X19322059Y15519804D01*
X19370954Y15506703D01*
X19380789Y15498458D01*
X19438951Y15440398D01*
X19443650Y15435707D01*
X19449147Y15433020D01*
X19542934Y15387176D01*
X19548482Y15384464D01*
X19616782Y15374500D01*
X21083218Y15374500D01*
X21089363Y15375405D01*
X21146423Y15383804D01*
X21146426Y15383805D01*
X21152112Y15384642D01*
X21157272Y15387175D01*
X21157274Y15387176D01*
X21210453Y15413286D01*
X21256855Y15436068D01*
X21261176Y15440397D01*
X21261178Y15440398D01*
X21319136Y15498458D01*
X21339293Y15518650D01*
X21341978Y15524143D01*
X21341983Y15524150D01*
X21346307Y15532997D01*
X21382749Y15568129D01*
X21412789Y15574500D01*
X21916433Y15574500D01*
X21921906Y15574098D01*
X21926342Y15572575D01*
X21933166Y15572831D01*
X21933167Y15572831D01*
X21976241Y15574448D01*
X21979017Y15574500D01*
X21998948Y15574500D01*
X22002300Y15575124D01*
X22005691Y15575437D01*
X22005709Y15575247D01*
X22009755Y15575706D01*
X22038208Y15576774D01*
X22044485Y15579471D01*
X22044490Y15579472D01*
X22051343Y15582416D01*
X22067002Y15587174D01*
X22074336Y15588540D01*
X22081053Y15589791D01*
X22086868Y15593376D01*
X22086872Y15593377D01*
X22105290Y15604730D01*
X22114907Y15609726D01*
X22136262Y15618901D01*
X22136264Y15618902D01*
X22141063Y15620964D01*
X22145949Y15624978D01*
X22152380Y15631409D01*
X22165876Y15642077D01*
X22170532Y15644947D01*
X22176348Y15648532D01*
X22195039Y15673112D01*
X22201617Y15680646D01*
X22322701Y15801730D01*
X22326854Y15805315D01*
X22331069Y15807375D01*
X22365027Y15843982D01*
X22366952Y15845981D01*
X22381048Y15860077D01*
X22382976Y15862888D01*
X22385153Y15865507D01*
X22385285Y15865397D01*
X22387839Y15868573D01*
X22402554Y15884436D01*
X22402555Y15884437D01*
X22407201Y15889446D01*
X22409732Y15895791D01*
X22413384Y15901567D01*
X22415364Y15900315D01*
X22442150Y15930329D01*
X22446168Y15932235D01*
X22447161Y15932808D01*
X22451641Y15934664D01*
X22455485Y15937614D01*
X22455489Y15937616D01*
X22573231Y16027963D01*
X22577082Y16030918D01*
X22639656Y16112466D01*
X22670384Y16152511D01*
X22670386Y16152515D01*
X22673336Y16156359D01*
X22733844Y16302438D01*
X22734788Y16309602D01*
X22753849Y16454392D01*
X22754482Y16459200D01*
X22750546Y16489096D01*
X22734477Y16611157D01*
X22734476Y16611160D01*
X22733844Y16615962D01*
X22673336Y16762041D01*
X22670386Y16765885D01*
X22670384Y16765889D01*
X22580037Y16883631D01*
X22577082Y16887482D01*
X22502823Y16944463D01*
X22455489Y16980784D01*
X22455485Y16980786D01*
X22451641Y16983736D01*
X22305562Y17044244D01*
X22300760Y17044876D01*
X22300757Y17044877D01*
X22153608Y17064249D01*
X22148800Y17064882D01*
X22143992Y17064249D01*
X21996843Y17044877D01*
X21996840Y17044876D01*
X21992038Y17044244D01*
X21845959Y16983736D01*
X21842115Y16980786D01*
X21842111Y16980784D01*
X21794777Y16944463D01*
X21720518Y16887482D01*
X21717563Y16883631D01*
X21627216Y16765889D01*
X21627214Y16765885D01*
X21624264Y16762041D01*
X21563756Y16615962D01*
X21563124Y16611160D01*
X21563123Y16611157D01*
X21547054Y16489096D01*
X21543118Y16459200D01*
X21543751Y16454392D01*
X21562813Y16309602D01*
X21563756Y16302438D01*
X21573954Y16277818D01*
X21576162Y16227249D01*
X21545348Y16187090D01*
X21505587Y16175500D01*
X21412707Y16175500D01*
X21365141Y16192813D01*
X21346281Y16216886D01*
X21341627Y16226365D01*
X21338932Y16231855D01*
X21334603Y16236176D01*
X21334602Y16236178D01*
X21260679Y16309972D01*
X21260677Y16309973D01*
X21256350Y16314293D01*
X21250853Y16316980D01*
X21156682Y16363012D01*
X21156681Y16363012D01*
X21151518Y16365536D01*
X21083218Y16375500D01*
X19616782Y16375500D01*
X19614099Y16375105D01*
X19553577Y16366196D01*
X19553574Y16366195D01*
X19547888Y16365358D01*
X19542728Y16362825D01*
X19542726Y16362824D01*
X19496883Y16340316D01*
X19443145Y16313932D01*
X19438824Y16309603D01*
X19438822Y16309602D01*
X19407096Y16277820D01*
X19360707Y16231350D01*
X19358022Y16225857D01*
X19358017Y16225850D01*
X19353693Y16217003D01*
X19317251Y16181871D01*
X19287211Y16175500D01*
X19282373Y16175500D01*
X19276896Y16175902D01*
X19272458Y16177426D01*
X19265634Y16177170D01*
X19265632Y16177170D01*
X19222544Y16175552D01*
X19219768Y16175500D01*
X19199852Y16175500D01*
X19196495Y16174875D01*
X19193107Y16174562D01*
X19193090Y16174750D01*
X19189044Y16174294D01*
X19160592Y16173226D01*
X19154315Y16170529D01*
X19154310Y16170528D01*
X19147457Y16167584D01*
X19131798Y16162826D01*
X19124462Y16161460D01*
X19124460Y16161459D01*
X19117747Y16160209D01*
X19093511Y16145270D01*
X19083894Y16140274D01*
X19057738Y16129036D01*
X19052851Y16125023D01*
X19050000Y16122172D01*
X19050000Y16824500D01*
X19287293Y16824500D01*
X19334859Y16807187D01*
X19353718Y16783115D01*
X19361068Y16768145D01*
X19365397Y16763824D01*
X19365398Y16763822D01*
X19439321Y16690028D01*
X19443650Y16685707D01*
X19449147Y16683020D01*
X19542934Y16637176D01*
X19548482Y16634464D01*
X19616782Y16624500D01*
X21083218Y16624500D01*
X21089363Y16625405D01*
X21146423Y16633804D01*
X21146426Y16633805D01*
X21152112Y16634642D01*
X21157272Y16637175D01*
X21157274Y16637176D01*
X21203117Y16659684D01*
X21256855Y16686068D01*
X21261176Y16690397D01*
X21261178Y16690398D01*
X21334972Y16764321D01*
X21334973Y16764323D01*
X21339293Y16768650D01*
X21390536Y16873482D01*
X21400500Y16941782D01*
X21400500Y17308218D01*
X21392514Y17362468D01*
X21391196Y17371423D01*
X21391195Y17371426D01*
X21390358Y17377112D01*
X21372084Y17414333D01*
X21341628Y17476363D01*
X21338932Y17481855D01*
X21334603Y17486176D01*
X21334602Y17486178D01*
X21260679Y17559972D01*
X21260677Y17559973D01*
X21256350Y17564293D01*
X21239732Y17572416D01*
X21156682Y17613012D01*
X21156681Y17613012D01*
X21151518Y17615536D01*
X21083218Y17625500D01*
X19616782Y17625500D01*
X19614099Y17625105D01*
X19553577Y17616196D01*
X19553574Y17616195D01*
X19547888Y17615358D01*
X19542728Y17612825D01*
X19542726Y17612824D01*
X19496883Y17590316D01*
X19443145Y17563932D01*
X19438824Y17559603D01*
X19438822Y17559602D01*
X19401867Y17522582D01*
X19360707Y17481350D01*
X19358022Y17475857D01*
X19358017Y17475850D01*
X19353693Y17467003D01*
X19317251Y17431871D01*
X19287211Y17425500D01*
X19050000Y17425500D01*
X19050000Y18191782D01*
X19299500Y18191782D01*
X19299895Y18189099D01*
X19308804Y18128577D01*
X19308805Y18128574D01*
X19309642Y18122888D01*
X19312175Y18117728D01*
X19312176Y18117726D01*
X19323825Y18094000D01*
X19361068Y18018145D01*
X19365397Y18013824D01*
X19365398Y18013822D01*
X19439321Y17940028D01*
X19443650Y17935707D01*
X19449147Y17933020D01*
X19542934Y17887176D01*
X19548482Y17884464D01*
X19616782Y17874500D01*
X21083218Y17874500D01*
X21089363Y17875405D01*
X21146423Y17883804D01*
X21146426Y17883805D01*
X21152112Y17884642D01*
X21157272Y17887175D01*
X21157274Y17887176D01*
X21217867Y17916926D01*
X21250480Y17924500D01*
X21348705Y17924500D01*
X21396271Y17907187D01*
X21401031Y17902826D01*
X21506383Y17797474D01*
X21512170Y17790961D01*
X21535088Y17761890D01*
X21539637Y17758746D01*
X21539638Y17758745D01*
X21584016Y17728074D01*
X21585908Y17726722D01*
X21629326Y17694652D01*
X21629330Y17694650D01*
X21633776Y17691366D01*
X21638842Y17689588D01*
X21639145Y17689403D01*
X21639405Y17689276D01*
X21641466Y17688226D01*
X21641771Y17688064D01*
X21642115Y17687920D01*
X21646529Y17684869D01*
X21686884Y17672106D01*
X21703228Y17666937D01*
X21705431Y17666202D01*
X21756368Y17648315D01*
X21761591Y17646481D01*
X21766954Y17646271D01*
X21767973Y17646013D01*
X21771663Y17645294D01*
X21775690Y17644020D01*
X21782297Y17643500D01*
X21835999Y17643500D01*
X21838905Y17643443D01*
X21891430Y17641379D01*
X21896954Y17641162D01*
X21902296Y17642578D01*
X21906596Y17643053D01*
X21914714Y17643500D01*
X22021554Y17643500D01*
X22066602Y17628208D01*
X22139311Y17572416D01*
X22139314Y17572414D01*
X22143159Y17569464D01*
X22289238Y17508956D01*
X22294040Y17508324D01*
X22294043Y17508323D01*
X22441192Y17488951D01*
X22446000Y17488318D01*
X22450808Y17488951D01*
X22597957Y17508323D01*
X22597960Y17508324D01*
X22602762Y17508956D01*
X22748841Y17569464D01*
X22752685Y17572414D01*
X22752689Y17572416D01*
X22870431Y17662763D01*
X22874282Y17665718D01*
X22921092Y17726722D01*
X22967584Y17787311D01*
X22967586Y17787315D01*
X22970536Y17791159D01*
X23031044Y17937238D01*
X23041127Y18013822D01*
X23051049Y18089192D01*
X23051682Y18094000D01*
X23031044Y18250762D01*
X22970536Y18396841D01*
X22967586Y18400685D01*
X22967584Y18400689D01*
X22877237Y18518431D01*
X22874282Y18522282D01*
X22830943Y18555537D01*
X22752689Y18615584D01*
X22752685Y18615586D01*
X22748841Y18618536D01*
X22602762Y18679044D01*
X22597960Y18679676D01*
X22597957Y18679677D01*
X22450808Y18699049D01*
X22446000Y18699682D01*
X22441192Y18699049D01*
X22294043Y18679677D01*
X22294040Y18679676D01*
X22289238Y18679044D01*
X22143159Y18618536D01*
X22090739Y18578313D01*
X22042465Y18563092D01*
X21993367Y18584696D01*
X21906537Y18671526D01*
X21900750Y18678039D01*
X21881257Y18702766D01*
X21881255Y18702768D01*
X21877832Y18707110D01*
X21842760Y18731350D01*
X21828904Y18740926D01*
X21827012Y18742278D01*
X21783594Y18774348D01*
X21783590Y18774350D01*
X21779144Y18777634D01*
X21774078Y18779412D01*
X21773775Y18779597D01*
X21773515Y18779724D01*
X21771454Y18780774D01*
X21771149Y18780936D01*
X21770805Y18781080D01*
X21766391Y18784131D01*
X21709692Y18802063D01*
X21707489Y18802798D01*
X21656552Y18820685D01*
X21656551Y18820685D01*
X21651329Y18822519D01*
X21645966Y18822729D01*
X21644947Y18822987D01*
X21641257Y18823706D01*
X21637230Y18824980D01*
X21630623Y18825500D01*
X21576921Y18825500D01*
X21574015Y18825557D01*
X21521490Y18827621D01*
X21515966Y18827838D01*
X21510624Y18826422D01*
X21506324Y18825947D01*
X21498206Y18825500D01*
X21250542Y18825500D01*
X21218045Y18833017D01*
X21156678Y18863014D01*
X21156677Y18863014D01*
X21151518Y18865536D01*
X21083218Y18875500D01*
X19616782Y18875500D01*
X19614099Y18875105D01*
X19553577Y18866196D01*
X19553574Y18866195D01*
X19547888Y18865358D01*
X19542728Y18862825D01*
X19542726Y18862824D01*
X19496883Y18840316D01*
X19443145Y18813932D01*
X19438824Y18809603D01*
X19438822Y18809602D01*
X19370927Y18741588D01*
X19360707Y18731350D01*
X19358020Y18725853D01*
X19334233Y18677189D01*
X19309464Y18626518D01*
X19299500Y18558218D01*
X19299500Y18191782D01*
X19050000Y18191782D01*
X19050000Y22500000D01*
X20820800Y22500000D01*
X20868366Y22482687D01*
G37*
%TD.AperFunction*%
%TD*%
M02*
