M48
; DRILL file {KiCad 6.0.4-6f826c9f35~116~ubuntu20.04.1} date Mon Apr  4 21:07:50 2022
; FORMAT={-:-/ absolute / metric / decimal}
; #@! TF.CreationDate,2022-04-04T21:07:50+00:00
; #@! TF.GenerationSoftware,Kicad,Pcbnew,6.0.4-6f826c9f35~116~ubuntu20.04.1
; #@! TF.FileFunction,Plated,1,2,PTH
FMAT,2
METRIC
; #@! TA.AperFunction,Plated,PTH,ViaDrill
T1C0.400
%
G90
G05
T1
X1.046Y18.794
X1.046Y4.294
X1.067Y14.275
X1.067Y11.481
X1.321Y8.788
X2.146Y18.794
X2.146Y4.294
X2.235Y11.481
X2.337Y14.275
X4.846Y9.494
X5.994Y2.134
X6.198Y6.401
X6.243Y10.334
X6.299Y19.152
X6.299Y17.983
X7.518Y12.548
X7.642Y10.363
X8.0Y8.9
X9.601Y11.125
X10.1Y14.5
X10.55Y10.422
X10.566Y15.545
X10.668Y4.521
X10.922Y8.8
X11.546Y16.594
X11.75Y8.194
X12.548Y7.061
X12.954Y9.296
X13.375Y19.065
X13.767Y8.331
X14.275Y2.032
X14.43Y4.695
X14.58Y8.992
X15.046Y14.294
X15.113Y10.605
X16.111Y15.359
X17.018Y8.077
X18.301Y15.938
X18.817Y6.382
X20.422Y2.845
X22.149Y16.459
X22.149Y6.425
X22.446Y18.094
X22.446Y8.194
X23.114Y19.152
X23.146Y11.494
X23.774Y4.216
X23.978Y19.152
X24.146Y11.494
T0
M30
