%TF.GenerationSoftware,KiCad,Pcbnew,6.0.4-6f826c9f35~116~ubuntu20.04.1*%
%TF.CreationDate,2022-03-30T11:59:37+00:00*%
%TF.ProjectId,TFI2CADT01A,54464932-4341-4445-9430-31412e6b6963,rev?*%
%TF.SameCoordinates,PX7a53eb0PY6e37550*%
%TF.FileFunction,Legend,Bot*%
%TF.FilePolarity,Positive*%
%FSLAX46Y46*%
G04 Gerber Fmt 4.6, Leading zero omitted, Abs format (unit mm)*
G04 Created by KiCad (PCBNEW 6.0.4-6f826c9f35~116~ubuntu20.04.1) date 2022-03-30 11:59:37*
%MOMM*%
%LPD*%
G01*
G04 APERTURE LIST*
%ADD10C,0.150000*%
%ADD11C,0.100000*%
G04 APERTURE END LIST*
D10*
%TO.C,R7*%
X15305066Y21239220D02*
X15638400Y21715410D01*
X15876495Y21239220D02*
X15876495Y22239220D01*
X15495542Y22239220D01*
X15400304Y22191600D01*
X15352685Y22143981D01*
X15305066Y22048743D01*
X15305066Y21905886D01*
X15352685Y21810648D01*
X15400304Y21763029D01*
X15495542Y21715410D01*
X15876495Y21715410D01*
X14971733Y22239220D02*
X14305066Y22239220D01*
X14733638Y21239220D01*
%TO.C,D1*%
X7022380Y7738096D02*
X6022380Y7738096D01*
X6022380Y7500000D01*
X6070000Y7357143D01*
X6165238Y7261905D01*
X6260476Y7214286D01*
X6450952Y7166667D01*
X6593809Y7166667D01*
X6784285Y7214286D01*
X6879523Y7261905D01*
X6974761Y7357143D01*
X7022380Y7500000D01*
X7022380Y7738096D01*
X7022380Y6214286D02*
X7022380Y6785715D01*
X7022380Y6500000D02*
X6022380Y6500000D01*
X6165238Y6595239D01*
X6260476Y6690477D01*
X6308095Y6785715D01*
%TO.C,R15*%
X7022380Y20365458D02*
X6546190Y20698791D01*
X7022380Y20936886D02*
X6022380Y20936886D01*
X6022380Y20555934D01*
X6070000Y20460696D01*
X6117619Y20413077D01*
X6212857Y20365458D01*
X6355714Y20365458D01*
X6450952Y20413077D01*
X6498571Y20460696D01*
X6546190Y20555934D01*
X6546190Y20936886D01*
X7022380Y19413077D02*
X7022380Y19984505D01*
X7022380Y19698791D02*
X6022380Y19698791D01*
X6165238Y19794029D01*
X6260476Y19889267D01*
X6308095Y19984505D01*
X6022380Y18508315D02*
X6022380Y18984505D01*
X6498571Y19032124D01*
X6450952Y18984505D01*
X6403333Y18889267D01*
X6403333Y18651172D01*
X6450952Y18555934D01*
X6498571Y18508315D01*
X6593809Y18460696D01*
X6831904Y18460696D01*
X6927142Y18508315D01*
X6974761Y18555934D01*
X7022380Y18651172D01*
X7022380Y18889267D01*
X6974761Y18984505D01*
X6927142Y19032124D01*
%TO.C,R12*%
X11442857Y16024620D02*
X11776190Y16500810D01*
X12014285Y16024620D02*
X12014285Y17024620D01*
X11633333Y17024620D01*
X11538095Y16977000D01*
X11490476Y16929381D01*
X11442857Y16834143D01*
X11442857Y16691286D01*
X11490476Y16596048D01*
X11538095Y16548429D01*
X11633333Y16500810D01*
X12014285Y16500810D01*
X10490476Y16024620D02*
X11061904Y16024620D01*
X10776190Y16024620D02*
X10776190Y17024620D01*
X10871428Y16881762D01*
X10966666Y16786524D01*
X11061904Y16738905D01*
X10109523Y16929381D02*
X10061904Y16977000D01*
X9966666Y17024620D01*
X9728571Y17024620D01*
X9633333Y16977000D01*
X9585714Y16929381D01*
X9538095Y16834143D01*
X9538095Y16738905D01*
X9585714Y16596048D01*
X10157142Y16024620D01*
X9538095Y16024620D01*
%TO.C,R8*%
X19045180Y19927867D02*
X18568990Y20261200D01*
X19045180Y20499296D02*
X18045180Y20499296D01*
X18045180Y20118343D01*
X18092800Y20023105D01*
X18140419Y19975486D01*
X18235657Y19927867D01*
X18378514Y19927867D01*
X18473752Y19975486D01*
X18521371Y20023105D01*
X18568990Y20118343D01*
X18568990Y20499296D01*
X18473752Y19356439D02*
X18426133Y19451677D01*
X18378514Y19499296D01*
X18283276Y19546915D01*
X18235657Y19546915D01*
X18140419Y19499296D01*
X18092800Y19451677D01*
X18045180Y19356439D01*
X18045180Y19165962D01*
X18092800Y19070724D01*
X18140419Y19023105D01*
X18235657Y18975486D01*
X18283276Y18975486D01*
X18378514Y19023105D01*
X18426133Y19070724D01*
X18473752Y19165962D01*
X18473752Y19356439D01*
X18521371Y19451677D01*
X18568990Y19499296D01*
X18664228Y19546915D01*
X18854704Y19546915D01*
X18949942Y19499296D01*
X18997561Y19451677D01*
X19045180Y19356439D01*
X19045180Y19165962D01*
X18997561Y19070724D01*
X18949942Y19023105D01*
X18854704Y18975486D01*
X18664228Y18975486D01*
X18568990Y19023105D01*
X18521371Y19070724D01*
X18473752Y19165962D01*
%TO.C,J1*%
X4913380Y3397334D02*
X5627666Y3397334D01*
X5770523Y3444953D01*
X5865761Y3540191D01*
X5913380Y3683048D01*
X5913380Y3778286D01*
X5913380Y2397334D02*
X5913380Y2968762D01*
X5913380Y2683048D02*
X4913380Y2683048D01*
X5056238Y2778286D01*
X5151476Y2873524D01*
X5199095Y2968762D01*
%TO.C,R14*%
X9939257Y21340820D02*
X10272590Y21817010D01*
X10510685Y21340820D02*
X10510685Y22340820D01*
X10129733Y22340820D01*
X10034495Y22293200D01*
X9986876Y22245581D01*
X9939257Y22150343D01*
X9939257Y22007486D01*
X9986876Y21912248D01*
X10034495Y21864629D01*
X10129733Y21817010D01*
X10510685Y21817010D01*
X8986876Y21340820D02*
X9558304Y21340820D01*
X9272590Y21340820D02*
X9272590Y22340820D01*
X9367828Y22197962D01*
X9463066Y22102724D01*
X9558304Y22055105D01*
X8129733Y22007486D02*
X8129733Y21340820D01*
X8367828Y22388439D02*
X8605923Y21674153D01*
X7986876Y21674153D01*
%TO.C,R13*%
X7056380Y16746458D02*
X6580190Y17079791D01*
X7056380Y17317886D02*
X6056380Y17317886D01*
X6056380Y16936934D01*
X6104000Y16841696D01*
X6151619Y16794077D01*
X6246857Y16746458D01*
X6389714Y16746458D01*
X6484952Y16794077D01*
X6532571Y16841696D01*
X6580190Y16936934D01*
X6580190Y17317886D01*
X7056380Y15794077D02*
X7056380Y16365505D01*
X7056380Y16079791D02*
X6056380Y16079791D01*
X6199238Y16175029D01*
X6294476Y16270267D01*
X6342095Y16365505D01*
X6056380Y15460743D02*
X6056380Y14841696D01*
X6437333Y15175029D01*
X6437333Y15032172D01*
X6484952Y14936934D01*
X6532571Y14889315D01*
X6627809Y14841696D01*
X6865904Y14841696D01*
X6961142Y14889315D01*
X7008761Y14936934D01*
X7056380Y15032172D01*
X7056380Y15317886D01*
X7008761Y15413124D01*
X6961142Y15460743D01*
%TO.C,R9*%
X14441466Y15905220D02*
X14774800Y16381410D01*
X15012895Y15905220D02*
X15012895Y16905220D01*
X14631942Y16905220D01*
X14536704Y16857600D01*
X14489085Y16809981D01*
X14441466Y16714743D01*
X14441466Y16571886D01*
X14489085Y16476648D01*
X14536704Y16429029D01*
X14631942Y16381410D01*
X15012895Y16381410D01*
X13965276Y15905220D02*
X13774800Y15905220D01*
X13679561Y15952839D01*
X13631942Y16000458D01*
X13536704Y16143315D01*
X13489085Y16333791D01*
X13489085Y16714743D01*
X13536704Y16809981D01*
X13584323Y16857600D01*
X13679561Y16905220D01*
X13870038Y16905220D01*
X13965276Y16857600D01*
X14012895Y16809981D01*
X14060514Y16714743D01*
X14060514Y16476648D01*
X14012895Y16381410D01*
X13965276Y16333791D01*
X13870038Y16286172D01*
X13679561Y16286172D01*
X13584323Y16333791D01*
X13536704Y16381410D01*
X13489085Y16476648D01*
%TO.C,J2*%
X5210133Y22137620D02*
X5210133Y21423334D01*
X5257752Y21280477D01*
X5352990Y21185239D01*
X5495847Y21137620D01*
X5591085Y21137620D01*
X4781561Y22042381D02*
X4733942Y22090000D01*
X4638704Y22137620D01*
X4400609Y22137620D01*
X4305371Y22090000D01*
X4257752Y22042381D01*
X4210133Y21947143D01*
X4210133Y21851905D01*
X4257752Y21709048D01*
X4829180Y21137620D01*
X4210133Y21137620D01*
%TO.C,R10*%
X18882380Y17203658D02*
X18406190Y17536991D01*
X18882380Y17775086D02*
X17882380Y17775086D01*
X17882380Y17394134D01*
X17930000Y17298896D01*
X17977619Y17251277D01*
X18072857Y17203658D01*
X18215714Y17203658D01*
X18310952Y17251277D01*
X18358571Y17298896D01*
X18406190Y17394134D01*
X18406190Y17775086D01*
X18882380Y16251277D02*
X18882380Y16822705D01*
X18882380Y16536991D02*
X17882380Y16536991D01*
X18025238Y16632229D01*
X18120476Y16727467D01*
X18168095Y16822705D01*
X17882380Y15632229D02*
X17882380Y15536991D01*
X17930000Y15441753D01*
X17977619Y15394134D01*
X18072857Y15346515D01*
X18263333Y15298896D01*
X18501428Y15298896D01*
X18691904Y15346515D01*
X18787142Y15394134D01*
X18834761Y15441753D01*
X18882380Y15536991D01*
X18882380Y15632229D01*
X18834761Y15727467D01*
X18787142Y15775086D01*
X18691904Y15822705D01*
X18501428Y15870324D01*
X18263333Y15870324D01*
X18072857Y15822705D01*
X17977619Y15775086D01*
X17930000Y15727467D01*
X17882380Y15632229D01*
D11*
%TO.C,R7*%
X14437258Y20791700D02*
X13962742Y20791700D01*
X14437258Y19746700D02*
X13962742Y19746700D01*
%TO.C,D1*%
X8735000Y8485000D02*
X8735000Y6200000D01*
X7265000Y8485000D02*
X8735000Y8485000D01*
X7265000Y6200000D02*
X7265000Y8485000D01*
%TO.C,C2*%
X16064620Y1522000D02*
X16345780Y1522000D01*
X16064620Y2542000D02*
X16345780Y2542000D01*
%TO.C,D2*%
X7712000Y3211600D02*
X7712000Y5061600D01*
X6512000Y5061600D02*
X7712000Y5061600D01*
X6512000Y3211600D02*
X6512000Y5061600D01*
%TO.C,R5*%
X17359100Y6701058D02*
X17359100Y6226542D01*
X18404100Y6701058D02*
X18404100Y6226542D01*
%TO.C,R16*%
X16651500Y9477742D02*
X16651500Y9952258D01*
X15606500Y9477742D02*
X15606500Y9952258D01*
%TO.C,C3*%
X16064620Y3184000D02*
X16345780Y3184000D01*
X16064620Y4204000D02*
X16345780Y4204000D01*
%TO.C,R15*%
X8522500Y19959858D02*
X8522500Y19485342D01*
X7477500Y19959858D02*
X7477500Y19485342D01*
%TO.C,R12*%
X10562742Y17384500D02*
X11037258Y17384500D01*
X10562742Y18429500D02*
X11037258Y18429500D01*
%TO.C,J5*%
X21940000Y20735000D02*
X20490000Y20735000D01*
X20490000Y12265000D02*
X20490000Y14065000D01*
X24760000Y19465000D02*
X24760000Y13535000D01*
X20490000Y20735000D02*
X20490000Y18935000D01*
X20490000Y18935000D02*
X19500000Y18935000D01*
X21940000Y12265000D02*
X20490000Y12265000D01*
%TO.C,R8*%
X16477500Y19947658D02*
X16477500Y19473142D01*
X17522500Y19947658D02*
X17522500Y19473142D01*
%TO.C,J1*%
X3060000Y2265000D02*
X4510000Y2265000D01*
X4510000Y4065000D02*
X5500000Y4065000D01*
X3060000Y10735000D02*
X4510000Y10735000D01*
X4510000Y10735000D02*
X4510000Y8935000D01*
X240000Y3535000D02*
X240000Y9465000D01*
X4510000Y2265000D02*
X4510000Y4065000D01*
%TO.C,R14*%
X10562742Y19746700D02*
X11037258Y19746700D01*
X10562742Y20791700D02*
X11037258Y20791700D01*
%TO.C,U1*%
X10936800Y4572000D02*
X10936800Y5372000D01*
X14056800Y4572000D02*
X14056800Y5372000D01*
X10936800Y4572000D02*
X10936800Y3772000D01*
X14056800Y4572000D02*
X14056800Y2772000D01*
%TO.C,R13*%
X7477500Y16284942D02*
X7477500Y16759458D01*
X8522500Y16284942D02*
X8522500Y16759458D01*
%TO.C,R1*%
X10326900Y6823942D02*
X10326900Y7298458D01*
X9281900Y6823942D02*
X9281900Y7298458D01*
%TO.C,R6*%
X16626100Y6676658D02*
X16626100Y6202142D01*
X15581100Y6676658D02*
X15581100Y6202142D01*
%TO.C,R2*%
X8113500Y11464058D02*
X8113500Y10989542D01*
X9158500Y11464058D02*
X9158500Y10989542D01*
%TO.C,R9*%
X14437258Y17384500D02*
X13962742Y17384500D01*
X14437258Y18429500D02*
X13962742Y18429500D01*
%TO.C,R3*%
X8149858Y13244300D02*
X7675342Y13244300D01*
X8149858Y14289300D02*
X7675342Y14289300D01*
%TO.C,R17*%
X18429500Y9477742D02*
X18429500Y9952258D01*
X17384500Y9477742D02*
X17384500Y9952258D01*
%TO.C,J3*%
X24760000Y9465000D02*
X24760000Y3535000D01*
X21940000Y10735000D02*
X20490000Y10735000D01*
X20490000Y2265000D02*
X20490000Y4065000D01*
X21940000Y2265000D02*
X20490000Y2265000D01*
X20490000Y8935000D02*
X19500000Y8935000D01*
X20490000Y10735000D02*
X20490000Y8935000D01*
%TO.C,J2*%
X4510000Y12265000D02*
X4510000Y14065000D01*
X3060000Y20735000D02*
X4510000Y20735000D01*
X3060000Y12265000D02*
X4510000Y12265000D01*
X240000Y13535000D02*
X240000Y19465000D01*
X4510000Y14065000D02*
X5500000Y14065000D01*
X4510000Y20735000D02*
X4510000Y18935000D01*
%TO.C,U2*%
X15125000Y14352400D02*
X15125000Y11352400D01*
X9875000Y12852400D02*
X9875000Y11352400D01*
%TO.C,C1*%
X8510600Y3766452D02*
X8510600Y3243948D01*
X9980600Y3766452D02*
X9980600Y3243948D01*
%TO.C,R10*%
X16477500Y16323542D02*
X16477500Y16798058D01*
X17522500Y16323542D02*
X17522500Y16798058D01*
%TO.C,C4*%
X15873000Y13462580D02*
X15873000Y13181420D01*
X16893000Y13462580D02*
X16893000Y13181420D01*
%TD*%
M02*
