<?xml version='1.0' encoding='ASCII' standalone='yes'?>
<svg xmlns:svg="http://www.w3.org/2000/svg" xmlns="http://www.w3.org/2000/svg" xmlns:xlink="http://www.w3.org/1999/xlink" version="1.1" width="297.0022mm" height="210.0072mm" viewBox="0.0000 0.0000 297.0022 210.0072">
<title>SVG Image created as TFI2CADT01-F_Fab.svg date 2023/10/02 10:34:11 </title>
  <desc>Image generated by PCBNEW </desc>
<g style="fill:#848484; fill-opacity:1.0000;stroke:#848484; stroke-opacity:1.0000; stroke-linecap:round; stroke-linejoin:round;" transform="translate(0 0) scale(1 1)">
</g>
<g style="fill:#848484; fill-opacity:0.0;  stroke:#848484; stroke-width:0.0000; stroke-opacity:1;  stroke-linecap:round; stroke-linejoin:round;">
</g>
<g style="fill:#848484; fill-opacity:0.0;  stroke:#848484; stroke-width:1.3636; stroke-opacity:1;  stroke-linecap:round; stroke-linejoin:round;">
<g transform="rotate(-90.000000 148.9920 150.5127)">
<text x="148.9920" y="155.0581" textLength="150.7576" font-size="12.1212" lengthAdjust="spacingAndGlyphs" text-anchor="middle" opacity="0.01" style="font-family:monospace">SolderJumper_2_Open</text>
</g>
<g class="stroked-text"><desc>SolderJumper_2_Open</desc>
<path d="M145.2902 223.0235 L144.8573 221.7248 "/>
<path d="M144.8573 221.7248 L144.8573 219.5603 "/>
<path d="M144.8573 219.5603 L145.2902 218.6945 "/>
<path d="M145.2902 218.6945 L145.7231 218.2616 "/>
<path d="M145.7231 218.2616 L146.5889 217.8287 "/>
<path d="M146.5889 217.8287 L147.4547 217.8287 "/>
<path d="M147.4547 217.8287 L148.3205 218.2616 "/>
<path d="M148.3205 218.2616 L148.7534 218.6945 "/>
<path d="M148.7534 218.6945 L149.1863 219.5603 "/>
<path d="M149.1863 219.5603 L149.6192 221.2919 "/>
<path d="M149.6192 221.2919 L150.0521 222.1577 "/>
<path d="M150.0521 222.1577 L150.4850 222.5906 "/>
<path d="M150.4850 222.5906 L151.3508 223.0235 "/>
<path d="M151.3508 223.0235 L152.2166 223.0235 "/>
<path d="M152.2166 223.0235 L153.0824 222.5906 "/>
<path d="M153.0824 222.5906 L153.5153 222.1577 "/>
<path d="M153.5153 222.1577 L153.9482 221.2919 "/>
<path d="M153.9482 221.2919 L153.9482 219.1274 "/>
<path d="M153.9482 219.1274 L153.5153 217.8287 "/>
<path d="M144.8573 212.6339 L145.2902 213.4997 "/>
<path d="M145.2902 213.4997 L145.7231 213.9326 "/>
<path d="M145.7231 213.9326 L146.5889 214.3655 "/>
<path d="M146.5889 214.3655 L149.1863 214.3655 "/>
<path d="M149.1863 214.3655 L150.0521 213.9326 "/>
<path d="M150.0521 213.9326 L150.4850 213.4997 "/>
<path d="M150.4850 213.4997 L150.9179 212.6339 "/>
<path d="M150.9179 212.6339 L150.9179 211.3352 "/>
<path d="M150.9179 211.3352 L150.4850 210.4694 "/>
<path d="M150.4850 210.4694 L150.0521 210.0365 "/>
<path d="M150.0521 210.0365 L149.1863 209.6036 "/>
<path d="M149.1863 209.6036 L146.5889 209.6036 "/>
<path d="M146.5889 209.6036 L145.7231 210.0365 "/>
<path d="M145.7231 210.0365 L145.2902 210.4694 "/>
<path d="M145.2902 210.4694 L144.8573 211.3352 "/>
<path d="M144.8573 211.3352 L144.8573 212.6339 "/>
<path d="M144.8573 204.4088 L145.2902 205.2746 "/>
<path d="M145.2902 205.2746 L146.1560 205.7075 "/>
<path d="M146.1560 205.7075 L153.9482 205.7075 "/>
<path d="M144.8573 197.0495 L153.9482 197.0495 "/>
<path d="M145.2902 197.0495 L144.8573 197.9153 "/>
<path d="M144.8573 197.9153 L144.8573 199.6469 "/>
<path d="M144.8573 199.6469 L145.2902 200.5127 "/>
<path d="M145.2902 200.5127 L145.7231 200.9456 "/>
<path d="M145.7231 200.9456 L146.5889 201.3785 "/>
<path d="M146.5889 201.3785 L149.1863 201.3785 "/>
<path d="M149.1863 201.3785 L150.0521 200.9456 "/>
<path d="M150.0521 200.9456 L150.4850 200.5127 "/>
<path d="M150.4850 200.5127 L150.9179 199.6469 "/>
<path d="M150.9179 199.6469 L150.9179 197.9153 "/>
<path d="M150.9179 197.9153 L150.4850 197.0495 "/>
<path d="M145.2902 189.2573 L144.8573 190.1231 "/>
<path d="M144.8573 190.1231 L144.8573 191.8547 "/>
<path d="M144.8573 191.8547 L145.2902 192.7205 "/>
<path d="M145.2902 192.7205 L146.1560 193.1534 "/>
<path d="M146.1560 193.1534 L149.6192 193.1534 "/>
<path d="M149.6192 193.1534 L150.4850 192.7205 "/>
<path d="M150.4850 192.7205 L150.9179 191.8547 "/>
<path d="M150.9179 191.8547 L150.9179 190.1231 "/>
<path d="M150.9179 190.1231 L150.4850 189.2573 "/>
<path d="M150.4850 189.2573 L149.6192 188.8244 "/>
<path d="M149.6192 188.8244 L148.7534 188.8244 "/>
<path d="M148.7534 188.8244 L147.8876 193.1534 "/>
<path d="M144.8573 184.9283 L150.9179 184.9283 "/>
<path d="M149.1863 184.9283 L150.0521 184.4954 "/>
<path d="M150.0521 184.4954 L150.4850 184.0625 "/>
<path d="M150.4850 184.0625 L150.9179 183.1967 "/>
<path d="M150.9179 183.1967 L150.9179 182.3309 "/>
<path d="M153.9482 176.7032 L147.4547 176.7032 "/>
<path d="M147.4547 176.7032 L146.1560 177.1361 "/>
<path d="M146.1560 177.1361 L145.2902 178.0019 "/>
<path d="M145.2902 178.0019 L144.8573 179.3006 "/>
<path d="M144.8573 179.3006 L144.8573 180.1664 "/>
<path d="M150.9179 168.4781 L144.8573 168.4781 "/>
<path d="M150.9179 172.3742 L146.1560 172.3742 "/>
<path d="M146.1560 172.3742 L145.2902 171.9413 "/>
<path d="M145.2902 171.9413 L144.8573 171.0755 "/>
<path d="M144.8573 171.0755 L144.8573 169.7768 "/>
<path d="M144.8573 169.7768 L145.2902 168.9110 "/>
<path d="M145.2902 168.9110 L145.7231 168.4781 "/>
<path d="M144.8573 164.1490 L150.9179 164.1490 "/>
<path d="M150.0521 164.1490 L150.4850 163.7161 "/>
<path d="M150.4850 163.7161 L150.9179 162.8503 "/>
<path d="M150.9179 162.8503 L150.9179 161.5516 "/>
<path d="M150.9179 161.5516 L150.4850 160.6858 "/>
<path d="M150.4850 160.6858 L149.6192 160.2529 "/>
<path d="M149.6192 160.2529 L144.8573 160.2529 "/>
<path d="M149.6192 160.2529 L150.4850 159.8200 "/>
<path d="M150.4850 159.8200 L150.9179 158.9542 "/>
<path d="M150.9179 158.9542 L150.9179 157.6555 "/>
<path d="M150.9179 157.6555 L150.4850 156.7897 "/>
<path d="M150.4850 156.7897 L149.6192 156.3568 "/>
<path d="M149.6192 156.3568 L144.8573 156.3568 "/>
<path d="M150.9179 152.0278 L141.8270 152.0278 "/>
<path d="M150.4850 152.0278 L150.9179 151.1620 "/>
<path d="M150.9179 151.1620 L150.9179 149.4304 "/>
<path d="M150.9179 149.4304 L150.4850 148.5646 "/>
<path d="M150.4850 148.5646 L150.0521 148.1317 "/>
<path d="M150.0521 148.1317 L149.1863 147.6988 "/>
<path d="M149.1863 147.6988 L146.5889 147.6988 "/>
<path d="M146.5889 147.6988 L145.7231 148.1317 "/>
<path d="M145.7231 148.1317 L145.2902 148.5646 "/>
<path d="M145.2902 148.5646 L144.8573 149.4304 "/>
<path d="M144.8573 149.4304 L144.8573 151.1620 "/>
<path d="M144.8573 151.1620 L145.2902 152.0278 "/>
<path d="M145.2902 140.3395 L144.8573 141.2053 "/>
<path d="M144.8573 141.2053 L144.8573 142.9369 "/>
<path d="M144.8573 142.9369 L145.2902 143.8027 "/>
<path d="M145.2902 143.8027 L146.1560 144.2356 "/>
<path d="M146.1560 144.2356 L149.6192 144.2356 "/>
<path d="M149.6192 144.2356 L150.4850 143.8027 "/>
<path d="M150.4850 143.8027 L150.9179 142.9369 "/>
<path d="M150.9179 142.9369 L150.9179 141.2053 "/>
<path d="M150.9179 141.2053 L150.4850 140.3395 "/>
<path d="M150.4850 140.3395 L149.6192 139.9066 "/>
<path d="M149.6192 139.9066 L148.7534 139.9066 "/>
<path d="M148.7534 139.9066 L147.8876 144.2356 "/>
<path d="M144.8573 136.0105 L150.9179 136.0105 "/>
<path d="M149.1863 136.0105 L150.0521 135.5776 "/>
<path d="M150.0521 135.5776 L150.4850 135.1447 "/>
<path d="M150.4850 135.1447 L150.9179 134.2789 "/>
<path d="M150.9179 134.2789 L150.9179 133.4131 "/>
<path d="M143.9915 132.5473 L143.9915 125.6209 "/>
<path d="M153.0824 123.8893 L153.5153 123.4564 "/>
<path d="M153.5153 123.4564 L153.9482 122.5906 "/>
<path d="M153.9482 122.5906 L153.9482 120.4261 "/>
<path d="M153.9482 120.4261 L153.5153 119.5603 "/>
<path d="M153.5153 119.5603 L153.0824 119.1274 "/>
<path d="M153.0824 119.1274 L152.2166 118.6945 "/>
<path d="M152.2166 118.6945 L151.3508 118.6945 "/>
<path d="M151.3508 118.6945 L150.0521 119.1274 "/>
<path d="M150.0521 119.1274 L144.8573 124.3222 "/>
<path d="M144.8573 124.3222 L144.8573 118.6945 "/>
<path d="M143.9915 116.9629 L143.9915 110.0365 "/>
<path d="M153.9482 106.1404 L153.9482 104.4088 "/>
<path d="M153.9482 104.4088 L153.5153 103.5430 "/>
<path d="M153.5153 103.5430 L152.6495 102.6772 "/>
<path d="M152.6495 102.6772 L150.9179 102.2443 "/>
<path d="M150.9179 102.2443 L147.8876 102.2443 "/>
<path d="M147.8876 102.2443 L146.1560 102.6772 "/>
<path d="M146.1560 102.6772 L145.2902 103.5430 "/>
<path d="M145.2902 103.5430 L144.8573 104.4088 "/>
<path d="M144.8573 104.4088 L144.8573 106.1404 "/>
<path d="M144.8573 106.1404 L145.2902 107.0062 "/>
<path d="M145.2902 107.0062 L146.1560 107.8720 "/>
<path d="M146.1560 107.8720 L147.8876 108.3049 "/>
<path d="M147.8876 108.3049 L150.9179 108.3049 "/>
<path d="M150.9179 108.3049 L152.6495 107.8720 "/>
<path d="M152.6495 107.8720 L153.5153 107.0062 "/>
<path d="M153.5153 107.0062 L153.9482 106.1404 "/>
<path d="M150.9179 98.3482 L141.8270 98.3482 "/>
<path d="M150.4850 98.3482 L150.9179 97.4824 "/>
<path d="M150.9179 97.4824 L150.9179 95.7508 "/>
<path d="M150.9179 95.7508 L150.4850 94.8850 "/>
<path d="M150.4850 94.8850 L150.0521 94.4521 "/>
<path d="M150.0521 94.4521 L149.1863 94.0192 "/>
<path d="M149.1863 94.0192 L146.5889 94.0192 "/>
<path d="M146.5889 94.0192 L145.7231 94.4521 "/>
<path d="M145.7231 94.4521 L145.2902 94.8850 "/>
<path d="M145.2902 94.8850 L144.8573 95.7508 "/>
<path d="M144.8573 95.7508 L144.8573 97.4824 "/>
<path d="M144.8573 97.4824 L145.2902 98.3482 "/>
<path d="M145.2902 86.6599 L144.8573 87.5257 "/>
<path d="M144.8573 87.5257 L144.8573 89.2573 "/>
<path d="M144.8573 89.2573 L145.2902 90.1231 "/>
<path d="M145.2902 90.1231 L146.1560 90.5560 "/>
<path d="M146.1560 90.5560 L149.6192 90.5560 "/>
<path d="M149.6192 90.5560 L150.4850 90.1231 "/>
<path d="M150.4850 90.1231 L150.9179 89.2573 "/>
<path d="M150.9179 89.2573 L150.9179 87.5257 "/>
<path d="M150.9179 87.5257 L150.4850 86.6599 "/>
<path d="M150.4850 86.6599 L149.6192 86.2270 "/>
<path d="M149.6192 86.2270 L148.7534 86.2270 "/>
<path d="M148.7534 86.2270 L147.8876 90.5560 "/>
<path d="M150.9179 82.3309 L144.8573 82.3309 "/>
<path d="M150.0521 82.3309 L150.4850 81.8980 "/>
<path d="M150.4850 81.8980 L150.9179 81.0322 "/>
<path d="M150.9179 81.0322 L150.9179 79.7335 "/>
<path d="M150.9179 79.7335 L150.4850 78.8677 "/>
<path d="M150.4850 78.8677 L149.6192 78.4348 "/>
<path d="M149.6192 78.4348 L144.8573 78.4348 "/>
</g><g transform="rotate(-90.000000 114.4466 59.6036)">
<text x="114.4466" y="64.1491" textLength="150.7576" font-size="12.1212" lengthAdjust="spacingAndGlyphs" text-anchor="middle" opacity="0.01" style="font-family:monospace">SolderJumper_2_Open</text>
</g>
<g class="stroked-text"><desc>SolderJumper_2_Open</desc>
<path d="M110.7447 132.1144 L110.3118 130.8157 "/>
<path d="M110.3118 130.8157 L110.3118 128.6512 "/>
<path d="M110.3118 128.6512 L110.7447 127.7854 "/>
<path d="M110.7447 127.7854 L111.1776 127.3525 "/>
<path d="M111.1776 127.3525 L112.0434 126.9196 "/>
<path d="M112.0434 126.9196 L112.9092 126.9196 "/>
<path d="M112.9092 126.9196 L113.7750 127.3525 "/>
<path d="M113.7750 127.3525 L114.2079 127.7854 "/>
<path d="M114.2079 127.7854 L114.6408 128.6512 "/>
<path d="M114.6408 128.6512 L115.0737 130.3828 "/>
<path d="M115.0737 130.3828 L115.5066 131.2486 "/>
<path d="M115.5066 131.2486 L115.9395 131.6815 "/>
<path d="M115.9395 131.6815 L116.8053 132.1144 "/>
<path d="M116.8053 132.1144 L117.6711 132.1144 "/>
<path d="M117.6711 132.1144 L118.5369 131.6815 "/>
<path d="M118.5369 131.6815 L118.9698 131.2486 "/>
<path d="M118.9698 131.2486 L119.4027 130.3828 "/>
<path d="M119.4027 130.3828 L119.4027 128.2183 "/>
<path d="M119.4027 128.2183 L118.9698 126.9196 "/>
<path d="M110.3118 121.7248 L110.7447 122.5906 "/>
<path d="M110.7447 122.5906 L111.1776 123.0235 "/>
<path d="M111.1776 123.0235 L112.0434 123.4564 "/>
<path d="M112.0434 123.4564 L114.6408 123.4564 "/>
<path d="M114.6408 123.4564 L115.5066 123.0235 "/>
<path d="M115.5066 123.0235 L115.9395 122.5906 "/>
<path d="M115.9395 122.5906 L116.3724 121.7248 "/>
<path d="M116.3724 121.7248 L116.3724 120.4261 "/>
<path d="M116.3724 120.4261 L115.9395 119.5603 "/>
<path d="M115.9395 119.5603 L115.5066 119.1274 "/>
<path d="M115.5066 119.1274 L114.6408 118.6945 "/>
<path d="M114.6408 118.6945 L112.0434 118.6945 "/>
<path d="M112.0434 118.6945 L111.1776 119.1274 "/>
<path d="M111.1776 119.1274 L110.7447 119.5603 "/>
<path d="M110.7447 119.5603 L110.3118 120.4261 "/>
<path d="M110.3118 120.4261 L110.3118 121.7248 "/>
<path d="M110.3118 113.4997 L110.7447 114.3655 "/>
<path d="M110.7447 114.3655 L111.6105 114.7984 "/>
<path d="M111.6105 114.7984 L119.4027 114.7984 "/>
<path d="M110.3118 106.1404 L119.4027 106.1404 "/>
<path d="M110.7447 106.1404 L110.3118 107.0062 "/>
<path d="M110.3118 107.0062 L110.3118 108.7378 "/>
<path d="M110.3118 108.7378 L110.7447 109.6036 "/>
<path d="M110.7447 109.6036 L111.1776 110.0365 "/>
<path d="M111.1776 110.0365 L112.0434 110.4694 "/>
<path d="M112.0434 110.4694 L114.6408 110.4694 "/>
<path d="M114.6408 110.4694 L115.5066 110.0365 "/>
<path d="M115.5066 110.0365 L115.9395 109.6036 "/>
<path d="M115.9395 109.6036 L116.3724 108.7378 "/>
<path d="M116.3724 108.7378 L116.3724 107.0062 "/>
<path d="M116.3724 107.0062 L115.9395 106.1404 "/>
<path d="M110.7447 98.3482 L110.3118 99.2140 "/>
<path d="M110.3118 99.2140 L110.3118 100.9456 "/>
<path d="M110.3118 100.9456 L110.7447 101.8114 "/>
<path d="M110.7447 101.8114 L111.6105 102.2443 "/>
<path d="M111.6105 102.2443 L115.0737 102.2443 "/>
<path d="M115.0737 102.2443 L115.9395 101.8114 "/>
<path d="M115.9395 101.8114 L116.3724 100.9456 "/>
<path d="M116.3724 100.9456 L116.3724 99.2140 "/>
<path d="M116.3724 99.2140 L115.9395 98.3482 "/>
<path d="M115.9395 98.3482 L115.0737 97.9153 "/>
<path d="M115.0737 97.9153 L114.2079 97.9153 "/>
<path d="M114.2079 97.9153 L113.3421 102.2443 "/>
<path d="M110.3118 94.0192 L116.3724 94.0192 "/>
<path d="M114.6408 94.0192 L115.5066 93.5863 "/>
<path d="M115.5066 93.5863 L115.9395 93.1534 "/>
<path d="M115.9395 93.1534 L116.3724 92.2876 "/>
<path d="M116.3724 92.2876 L116.3724 91.4218 "/>
<path d="M119.4027 85.7941 L112.9092 85.7941 "/>
<path d="M112.9092 85.7941 L111.6105 86.2270 "/>
<path d="M111.6105 86.2270 L110.7447 87.0928 "/>
<path d="M110.7447 87.0928 L110.3118 88.3915 "/>
<path d="M110.3118 88.3915 L110.3118 89.2573 "/>
<path d="M116.3724 77.5690 L110.3118 77.5690 "/>
<path d="M116.3724 81.4651 L111.6105 81.4651 "/>
<path d="M111.6105 81.4651 L110.7447 81.0322 "/>
<path d="M110.7447 81.0322 L110.3118 80.1664 "/>
<path d="M110.3118 80.1664 L110.3118 78.8677 "/>
<path d="M110.3118 78.8677 L110.7447 78.0019 "/>
<path d="M110.7447 78.0019 L111.1776 77.5690 "/>
<path d="M110.3118 73.2400 L116.3724 73.2400 "/>
<path d="M115.5066 73.2400 L115.9395 72.8071 "/>
<path d="M115.9395 72.8071 L116.3724 71.9413 "/>
<path d="M116.3724 71.9413 L116.3724 70.6426 "/>
<path d="M116.3724 70.6426 L115.9395 69.7768 "/>
<path d="M115.9395 69.7768 L115.0737 69.3439 "/>
<path d="M115.0737 69.3439 L110.3118 69.3439 "/>
<path d="M115.0737 69.3439 L115.9395 68.9110 "/>
<path d="M115.9395 68.9110 L116.3724 68.0452 "/>
<path d="M116.3724 68.0452 L116.3724 66.7465 "/>
<path d="M116.3724 66.7465 L115.9395 65.8806 "/>
<path d="M115.9395 65.8806 L115.0737 65.4477 "/>
<path d="M115.0737 65.4477 L110.3118 65.4477 "/>
<path d="M116.3724 61.1187 L107.2815 61.1187 "/>
<path d="M115.9395 61.1187 L116.3724 60.2529 "/>
<path d="M116.3724 60.2529 L116.3724 58.5213 "/>
<path d="M116.3724 58.5213 L115.9395 57.6555 "/>
<path d="M115.9395 57.6555 L115.5066 57.2226 "/>
<path d="M115.5066 57.2226 L114.6408 56.7897 "/>
<path d="M114.6408 56.7897 L112.0434 56.7897 "/>
<path d="M112.0434 56.7897 L111.1776 57.2226 "/>
<path d="M111.1776 57.2226 L110.7447 57.6555 "/>
<path d="M110.7447 57.6555 L110.3118 58.5213 "/>
<path d="M110.3118 58.5213 L110.3118 60.2529 "/>
<path d="M110.3118 60.2529 L110.7447 61.1187 "/>
<path d="M110.7447 49.4304 L110.3118 50.2962 "/>
<path d="M110.3118 50.2962 L110.3118 52.0278 "/>
<path d="M110.3118 52.0278 L110.7447 52.8936 "/>
<path d="M110.7447 52.8936 L111.6105 53.3265 "/>
<path d="M111.6105 53.3265 L115.0737 53.3265 "/>
<path d="M115.0737 53.3265 L115.9395 52.8936 "/>
<path d="M115.9395 52.8936 L116.3724 52.0278 "/>
<path d="M116.3724 52.0278 L116.3724 50.2962 "/>
<path d="M116.3724 50.2962 L115.9395 49.4304 "/>
<path d="M115.9395 49.4304 L115.0737 48.9975 "/>
<path d="M115.0737 48.9975 L114.2079 48.9975 "/>
<path d="M114.2079 48.9975 L113.3421 53.3265 "/>
<path d="M110.3118 45.1014 L116.3724 45.1014 "/>
<path d="M114.6408 45.1014 L115.5066 44.6685 "/>
<path d="M115.5066 44.6685 L115.9395 44.2356 "/>
<path d="M115.9395 44.2356 L116.3724 43.3698 "/>
<path d="M116.3724 43.3698 L116.3724 42.5040 "/>
<path d="M109.4460 41.6382 L109.4460 34.7118 "/>
<path d="M118.5369 32.9802 L118.9698 32.5473 "/>
<path d="M118.9698 32.5473 L119.4027 31.6815 "/>
<path d="M119.4027 31.6815 L119.4027 29.5170 "/>
<path d="M119.4027 29.5170 L118.9698 28.6512 "/>
<path d="M118.9698 28.6512 L118.5369 28.2183 "/>
<path d="M118.5369 28.2183 L117.6711 27.7854 "/>
<path d="M117.6711 27.7854 L116.8053 27.7854 "/>
<path d="M116.8053 27.7854 L115.5066 28.2183 "/>
<path d="M115.5066 28.2183 L110.3118 33.4131 "/>
<path d="M110.3118 33.4131 L110.3118 27.7854 "/>
<path d="M109.4460 26.0538 L109.4460 19.1274 "/>
<path d="M119.4027 15.2313 L119.4027 13.4997 "/>
<path d="M119.4027 13.4997 L118.9698 12.6339 "/>
<path d="M118.9698 12.6339 L118.1040 11.7681 "/>
<path d="M118.1040 11.7681 L116.3724 11.3352 "/>
<path d="M116.3724 11.3352 L113.3421 11.3352 "/>
<path d="M113.3421 11.3352 L111.6105 11.7681 "/>
<path d="M111.6105 11.7681 L110.7447 12.6339 "/>
<path d="M110.7447 12.6339 L110.3118 13.4997 "/>
<path d="M110.3118 13.4997 L110.3118 15.2313 "/>
<path d="M110.3118 15.2313 L110.7447 16.0971 "/>
<path d="M110.7447 16.0971 L111.6105 16.9629 "/>
<path d="M111.6105 16.9629 L113.3421 17.3958 "/>
<path d="M113.3421 17.3958 L116.3724 17.3958 "/>
<path d="M116.3724 17.3958 L118.1040 16.9629 "/>
<path d="M118.1040 16.9629 L118.9698 16.0971 "/>
<path d="M118.9698 16.0971 L119.4027 15.2313 "/>
<path d="M116.3724 7.4391 L107.2815 7.4391 "/>
<path d="M115.9395 7.4391 L116.3724 6.5733 "/>
<path d="M116.3724 6.5733 L116.3724 4.8417 "/>
<path d="M116.3724 4.8417 L115.9395 3.9759 "/>
<path d="M115.9395 3.9759 L115.5066 3.5430 "/>
<path d="M115.5066 3.5430 L114.6408 3.1101 "/>
<path d="M114.6408 3.1101 L112.0434 3.1101 "/>
<path d="M112.0434 3.1101 L111.1776 3.5430 "/>
<path d="M111.1776 3.5430 L110.7447 3.9759 "/>
<path d="M110.7447 3.9759 L110.3118 4.8417 "/>
<path d="M110.3118 4.8417 L110.3118 6.5733 "/>
<path d="M110.3118 6.5733 L110.7447 7.4391 "/>
<path d="M110.7447 -4.2492 L110.3118 -3.3834 "/>
<path d="M110.3118 -3.3834 L110.3118 -1.6518 "/>
<path d="M110.3118 -1.6518 L110.7447 -0.7860 "/>
<path d="M110.7447 -0.7860 L111.6105 -0.3531 "/>
<path d="M111.6105 -0.3531 L115.0737 -0.3531 "/>
<path d="M115.0737 -0.3531 L115.9395 -0.7860 "/>
<path d="M115.9395 -0.7860 L116.3724 -1.6518 "/>
<path d="M116.3724 -1.6518 L116.3724 -3.3834 "/>
<path d="M116.3724 -3.3834 L115.9395 -4.2492 "/>
<path d="M115.9395 -4.2492 L115.0737 -4.6821 "/>
<path d="M115.0737 -4.6821 L114.2079 -4.6821 "/>
<path d="M114.2079 -4.6821 L113.3421 -0.3531 "/>
<path d="M116.3724 -8.5782 L110.3118 -8.5782 "/>
<path d="M115.5066 -8.5782 L115.9395 -9.0111 "/>
<path d="M115.9395 -9.0111 L116.3724 -9.8769 "/>
<path d="M116.3724 -9.8769 L116.3724 -11.1756 "/>
<path d="M116.3724 -11.1756 L115.9395 -12.0414 "/>
<path d="M115.9395 -12.0414 L115.0737 -12.4743 "/>
<path d="M115.0737 -12.4743 L110.3118 -12.4743 "/>
</g><g transform="rotate(-90.000000 29.4102 59.5491)">
<text x="29.4102" y="64.0945" textLength="113.5281" font-size="12.1212" lengthAdjust="spacingAndGlyphs" text-anchor="middle" opacity="0.01" style="font-family:monospace">SM04B-GHS-TB</text>
</g>
<g class="stroked-text"><desc>SM04B-GHS-TB</desc>
<path d="M25.7084 113.4451 L25.2755 112.1464 "/>
<path d="M25.2755 112.1464 L25.2755 109.9819 "/>
<path d="M25.2755 109.9819 L25.7084 109.1161 "/>
<path d="M25.7084 109.1161 L26.1413 108.6832 "/>
<path d="M26.1413 108.6832 L27.0071 108.2503 "/>
<path d="M27.0071 108.2503 L27.8729 108.2503 "/>
<path d="M27.8729 108.2503 L28.7387 108.6832 "/>
<path d="M28.7387 108.6832 L29.1716 109.1161 "/>
<path d="M29.1716 109.1161 L29.6045 109.9819 "/>
<path d="M29.6045 109.9819 L30.0374 111.7135 "/>
<path d="M30.0374 111.7135 L30.4703 112.5793 "/>
<path d="M30.4703 112.5793 L30.9032 113.0122 "/>
<path d="M30.9032 113.0122 L31.7690 113.4451 "/>
<path d="M31.7690 113.4451 L32.6348 113.4451 "/>
<path d="M32.6348 113.4451 L33.5006 113.0122 "/>
<path d="M33.5006 113.0122 L33.9335 112.5793 "/>
<path d="M33.9335 112.5793 L34.3664 111.7135 "/>
<path d="M34.3664 111.7135 L34.3664 109.5490 "/>
<path d="M34.3664 109.5490 L33.9335 108.2503 "/>
<path d="M25.2755 104.3542 L34.3664 104.3542 "/>
<path d="M34.3664 104.3542 L27.8729 101.3239 "/>
<path d="M27.8729 101.3239 L34.3664 98.2936 "/>
<path d="M34.3664 98.2936 L25.2755 98.2936 "/>
<path d="M34.3664 92.2330 L34.3664 91.3672 "/>
<path d="M34.3664 91.3672 L33.9335 90.5014 "/>
<path d="M33.9335 90.5014 L33.5006 90.0685 "/>
<path d="M33.5006 90.0685 L32.6348 89.6356 "/>
<path d="M32.6348 89.6356 L30.9032 89.2027 "/>
<path d="M30.9032 89.2027 L28.7387 89.2027 "/>
<path d="M28.7387 89.2027 L27.0071 89.6356 "/>
<path d="M27.0071 89.6356 L26.1413 90.0685 "/>
<path d="M26.1413 90.0685 L25.7084 90.5014 "/>
<path d="M25.7084 90.5014 L25.2755 91.3672 "/>
<path d="M25.2755 91.3672 L25.2755 92.2330 "/>
<path d="M25.2755 92.2330 L25.7084 93.0988 "/>
<path d="M25.7084 93.0988 L26.1413 93.5317 "/>
<path d="M26.1413 93.5317 L27.0071 93.9646 "/>
<path d="M27.0071 93.9646 L28.7387 94.3975 "/>
<path d="M28.7387 94.3975 L30.9032 94.3975 "/>
<path d="M30.9032 94.3975 L32.6348 93.9646 "/>
<path d="M32.6348 93.9646 L33.5006 93.5317 "/>
<path d="M33.5006 93.5317 L33.9335 93.0988 "/>
<path d="M33.9335 93.0988 L34.3664 92.2330 "/>
<path d="M31.3361 81.4105 L25.2755 81.4105 "/>
<path d="M34.7993 83.5750 L28.3058 85.7395 "/>
<path d="M28.3058 85.7395 L28.3058 80.1118 "/>
<path d="M30.0374 73.6183 L29.6045 72.3196 "/>
<path d="M29.6045 72.3196 L29.1716 71.8867 "/>
<path d="M29.1716 71.8867 L28.3058 71.4538 "/>
<path d="M28.3058 71.4538 L27.0071 71.4538 "/>
<path d="M27.0071 71.4538 L26.1413 71.8867 "/>
<path d="M26.1413 71.8867 L25.7084 72.3196 "/>
<path d="M25.7084 72.3196 L25.2755 73.1854 "/>
<path d="M25.2755 73.1854 L25.2755 76.6486 "/>
<path d="M25.2755 76.6486 L34.3664 76.6486 "/>
<path d="M34.3664 76.6486 L34.3664 73.6183 "/>
<path d="M34.3664 73.6183 L33.9335 72.7525 "/>
<path d="M33.9335 72.7525 L33.5006 72.3196 "/>
<path d="M33.5006 72.3196 L32.6348 71.8867 "/>
<path d="M32.6348 71.8867 L31.7690 71.8867 "/>
<path d="M31.7690 71.8867 L30.9032 72.3196 "/>
<path d="M30.9032 72.3196 L30.4703 72.7525 "/>
<path d="M30.4703 72.7525 L30.0374 73.6183 "/>
<path d="M30.0374 73.6183 L30.0374 76.6486 "/>
<path d="M28.7387 67.5577 L28.7387 60.6313 "/>
<path d="M33.9335 51.5404 L34.3664 52.4062 "/>
<path d="M34.3664 52.4062 L34.3664 53.7049 "/>
<path d="M34.3664 53.7049 L33.9335 55.0036 "/>
<path d="M33.9335 55.0036 L33.0677 55.8694 "/>
<path d="M33.0677 55.8694 L32.2019 56.3023 "/>
<path d="M32.2019 56.3023 L30.4703 56.7352 "/>
<path d="M30.4703 56.7352 L29.1716 56.7352 "/>
<path d="M29.1716 56.7352 L27.4400 56.3023 "/>
<path d="M27.4400 56.3023 L26.5742 55.8694 "/>
<path d="M26.5742 55.8694 L25.7084 55.0036 "/>
<path d="M25.7084 55.0036 L25.2755 53.7049 "/>
<path d="M25.2755 53.7049 L25.2755 52.8391 "/>
<path d="M25.2755 52.8391 L25.7084 51.5404 "/>
<path d="M25.7084 51.5404 L26.1413 51.1075 "/>
<path d="M26.1413 51.1075 L29.1716 51.1075 "/>
<path d="M29.1716 51.1075 L29.1716 52.8391 "/>
<path d="M25.2755 47.2114 L34.3664 47.2114 "/>
<path d="M30.0374 47.2114 L30.0374 42.0166 "/>
<path d="M25.2755 42.0166 L34.3664 42.0166 "/>
<path d="M25.7084 38.1205 L25.2755 36.8218 "/>
<path d="M25.2755 36.8218 L25.2755 34.6573 "/>
<path d="M25.2755 34.6573 L25.7084 33.7915 "/>
<path d="M25.7084 33.7915 L26.1413 33.3586 "/>
<path d="M26.1413 33.3586 L27.0071 32.9257 "/>
<path d="M27.0071 32.9257 L27.8729 32.9257 "/>
<path d="M27.8729 32.9257 L28.7387 33.3586 "/>
<path d="M28.7387 33.3586 L29.1716 33.7915 "/>
<path d="M29.1716 33.7915 L29.6045 34.6573 "/>
<path d="M29.6045 34.6573 L30.0374 36.3889 "/>
<path d="M30.0374 36.3889 L30.4703 37.2547 "/>
<path d="M30.4703 37.2547 L30.9032 37.6876 "/>
<path d="M30.9032 37.6876 L31.7690 38.1205 "/>
<path d="M31.7690 38.1205 L32.6348 38.1205 "/>
<path d="M32.6348 38.1205 L33.5006 37.6876 "/>
<path d="M33.5006 37.6876 L33.9335 37.2547 "/>
<path d="M33.9335 37.2547 L34.3664 36.3889 "/>
<path d="M34.3664 36.3889 L34.3664 34.2244 "/>
<path d="M34.3664 34.2244 L33.9335 32.9257 "/>
<path d="M28.7387 29.0296 L28.7387 22.1032 "/>
<path d="M34.3664 19.0729 L34.3664 13.8781 "/>
<path d="M25.2755 16.4755 L34.3664 16.4755 "/>
<path d="M30.0374 7.8174 L29.6045 6.5187 "/>
<path d="M29.6045 6.5187 L29.1716 6.0858 "/>
<path d="M29.1716 6.0858 L28.3058 5.6529 "/>
<path d="M28.3058 5.6529 L27.0071 5.6529 "/>
<path d="M27.0071 5.6529 L26.1413 6.0858 "/>
<path d="M26.1413 6.0858 L25.7084 6.5187 "/>
<path d="M25.7084 6.5187 L25.2755 7.3845 "/>
<path d="M25.2755 7.3845 L25.2755 10.8477 "/>
<path d="M25.2755 10.8477 L34.3664 10.8477 "/>
<path d="M34.3664 10.8477 L34.3664 7.8174 "/>
<path d="M34.3664 7.8174 L33.9335 6.9516 "/>
<path d="M33.9335 6.9516 L33.5006 6.5187 "/>
<path d="M33.5006 6.5187 L32.6348 6.0858 "/>
<path d="M32.6348 6.0858 L31.7690 6.0858 "/>
<path d="M31.7690 6.0858 L30.9032 6.5187 "/>
<path d="M30.9032 6.5187 L30.4703 6.9516 "/>
<path d="M30.4703 6.9516 L30.0374 7.8174 "/>
<path d="M30.0374 7.8174 L30.0374 10.8477 "/>
</g><g transform="rotate(-90.000000 64.8647 59.5491)">
<text x="64.8647" y="64.0945" textLength="17.8571" font-size="12.1212" lengthAdjust="spacingAndGlyphs" text-anchor="middle" opacity="0.01" style="font-family:monospace">J6</text>
</g>
<g class="stroked-text"><desc>J6</desc>
<path d="M69.8209 62.5794 L63.3274 62.5794 "/>
<path d="M63.3274 62.5794 L62.0287 63.0123 "/>
<path d="M62.0287 63.0123 L61.1629 63.8781 "/>
<path d="M61.1629 63.8781 L60.7300 65.1768 "/>
<path d="M60.7300 65.1768 L60.7300 66.0426 "/>
<path d="M69.8209 54.3542 L69.8209 56.0858 "/>
<path d="M69.8209 56.0858 L69.3880 56.9516 "/>
<path d="M69.3880 56.9516 L68.9551 57.3845 "/>
<path d="M68.9551 57.3845 L67.6564 58.2503 "/>
<path d="M67.6564 58.2503 L65.9248 58.6832 "/>
<path d="M65.9248 58.6832 L62.4616 58.6832 "/>
<path d="M62.4616 58.6832 L61.5958 58.2503 "/>
<path d="M61.5958 58.2503 L61.1629 57.8174 "/>
<path d="M61.1629 57.8174 L60.7300 56.9516 "/>
<path d="M60.7300 56.9516 L60.7300 55.2200 "/>
<path d="M60.7300 55.2200 L61.1629 54.3542 "/>
<path d="M61.1629 54.3542 L61.5958 53.9213 "/>
<path d="M61.5958 53.9213 L62.4616 53.4884 "/>
<path d="M62.4616 53.4884 L64.6261 53.4884 "/>
<path d="M64.6261 53.4884 L65.4919 53.9213 "/>
<path d="M65.4919 53.9213 L65.9248 54.3542 "/>
<path d="M65.9248 54.3542 L66.3577 55.2200 "/>
<path d="M66.3577 55.2200 L66.3577 56.9516 "/>
<path d="M66.3577 56.9516 L65.9248 57.8174 "/>
<path d="M65.9248 57.8174 L65.4919 58.2503 "/>
<path d="M65.4919 58.2503 L64.6261 58.6832 "/>
</g><g transform="rotate(-90.000000 64.8647 150.4581)">
<text x="64.8647" y="155.0036" textLength="17.8571" font-size="12.1212" lengthAdjust="spacingAndGlyphs" text-anchor="middle" opacity="0.01" style="font-family:monospace">J4</text>
</g>
<g class="stroked-text"><desc>J4</desc>
<path d="M69.8209 153.4884 L63.3274 153.4884 "/>
<path d="M63.3274 153.4884 L62.0287 153.9213 "/>
<path d="M62.0287 153.9213 L61.1629 154.7871 "/>
<path d="M61.1629 154.7871 L60.7300 156.0858 "/>
<path d="M60.7300 156.0858 L60.7300 156.9516 "/>
<path d="M66.7906 145.2633 L60.7300 145.2633 "/>
<path d="M70.2538 147.4278 L63.7603 149.5923 "/>
<path d="M63.7603 149.5923 L63.7603 143.9646 "/>
</g></g>
<g style="fill:#848484; fill-opacity:0.0;  stroke:#848484; stroke-width:0.9091; stroke-opacity:1;  stroke-linecap:round; stroke-linejoin:round;">
<path d="M79.4102 97.0491 L42.5920 97.0491 "/>
<path d="M79.4102 97.0491 L79.4102 22.0491 "/>
<path d="M42.5920 97.0491 L42.5920 22.0491 "/>
<path d="M79.4102 81.1400 L72.9819 76.5945 "/>
<path d="M72.9819 76.5945 L79.4102 72.0491 "/>
<path d="M79.4102 22.0491 L42.5920 22.0491 "/>
<path d="M79.4102 187.9581 L42.5920 187.9581 "/>
<path d="M79.4102 187.9581 L79.4102 112.9581 "/>
<path d="M42.5920 187.9581 L42.5920 112.9581 "/>
<path d="M79.4102 172.0491 L72.9819 167.5036 "/>
<path d="M72.9819 167.5036 L79.4102 162.9581 "/>
<path d="M79.4102 112.9581 L42.5920 112.9581 "/>
<g>
</g>
<g>
</g>
<g>
</g>
<g>
</g>
<g>
</g>
<g>
</g>
<g>
</g>
<g>
</g>
<g>
</g>
<g>
</g>
<g>
</g>
<g>
</g>
<g>
</g>
<g>
</g>
<g>
</g>
<g>
</g>
<g>
</g>
<g>
</g>
<g>
</g>
<g>
</g>
<g>
</g>
<g>
</g>
<g>
</g>
<g>
</g>
<g>
</g>
<g>
</g>
<g>
</g>
<g>
</g>
<g>
</g>
<g>
</g>
<g>
</g>
<g>
</g>
<g>
</g>
<g>
</g>
<g>
</g>
<g>
</g>
<g>
</g>
<g>
</g>
<g>
</g>
<g>
</g>
<g>
</g>
</g> 
<svg:g><svg:g><svg:title>SVG Image created as TFI2CADT01-Edge_Cuts.svg date 2023/10/02 10:34:11 </svg:title>
  <svg:desc>Image generated by PCBNEW </svg:desc>
<svg:g style="fill:#C2C200; fill-opacity:1.0000;stroke:#C2C200; stroke-opacity:1.0000; stroke-linecap:round; stroke-linejoin:round;" transform="translate(0 0) scale(1 1)">
</svg:g>
<svg:g style="fill:#C2C200; fill-opacity:0.0;  stroke:#C2C200; stroke-width:0.0000; stroke-opacity:1;  stroke-linecap:round; stroke-linejoin:round;">
</svg:g>
<svg:g style="fill:#C2C200; fill-opacity:0.0;  stroke:#C2C200; stroke-width:0.9091; stroke-opacity:1;  stroke-linecap:round; stroke-linejoin:round;">
<svg:path d="M262.1375 0.4581 L34.8647 0.4581 "/>
<svg:path d="M34.8647 0.4581 L34.8647 209.5491 "/>
<svg:path d="M262.1375 0.4581 L262.1375 209.5491 "/>
<svg:path d="M262.1375 209.5491 L34.8647 209.5491 "/>
<svg:g>
</svg:g>
<svg:g>
</svg:g>
<svg:g>
</svg:g>
<svg:g>
</svg:g>
<svg:g>
</svg:g>
<svg:g>
</svg:g>
<svg:g>
</svg:g>
<svg:g>
</svg:g>
<svg:g>
</svg:g>
<svg:g>
</svg:g>
<svg:g>
</svg:g>
<svg:g>
</svg:g>
<svg:g>
</svg:g>
<svg:g>
</svg:g>
<svg:g>
</svg:g>
<svg:g>
</svg:g>
<svg:g>
</svg:g>
<svg:g>
</svg:g>
<svg:g>
</svg:g>
<svg:g>
</svg:g>
<svg:g>
</svg:g>
<svg:g>
</svg:g>
<svg:g>
</svg:g>
<svg:g>
</svg:g>
<svg:g>
</svg:g>
<svg:g>
</svg:g>
<svg:g>
</svg:g>
<svg:g>
</svg:g>
<svg:g>
</svg:g>
<svg:g>
</svg:g>
<svg:g>
</svg:g>
<svg:g>
</svg:g>
<svg:g>
</svg:g>
<svg:g>
</svg:g>
<svg:g>
</svg:g>
<svg:g>
</svg:g>
<svg:g>
</svg:g>
<svg:g>
</svg:g>
<svg:g>
</svg:g>
<svg:g>
</svg:g>
<svg:g>
</svg:g>
</svg:g> 
</svg:g></svg:g></svg>
