<?xml version='1.0' encoding='ASCII' standalone='yes'?>
<svg xmlns:svg="http://www.w3.org/2000/svg" xmlns="http://www.w3.org/2000/svg" xmlns:xlink="http://www.w3.org/1999/xlink" version="1.1" width="297.0022mm" height="210.0072mm" viewBox="0.0000 0.0000 297.0022 210.0072">
<title>SVG Image created as TFI2CADT01-B_Fab.svg date 2024/02/12 20:34:46 </title>
  <desc>Image generated by PCBNEW </desc>
<g style="fill:#000084; fill-opacity:1.0000;stroke:#000084; stroke-opacity:1.0000; stroke-linecap:round; stroke-linejoin:round;" transform="translate(0 0) scale(1 1)">
</g>
<g style="fill:#000084; fill-opacity:0.0;  stroke:#000084; stroke-width:0.0000; stroke-opacity:1;  stroke-linecap:round; stroke-linejoin:round;">
</g>
<g style="fill:#000084; fill-opacity:0.0;  stroke:#000084; stroke-width:0.5455; stroke-opacity:1;  stroke-linecap:round; stroke-linejoin:round;">
<text x="163.9556" y="27.1018" transform="scale(-1 1) translate(-327.911291 0)" textLength="8.0087" font-size="4.8485" lengthAdjust="spacingAndGlyphs" text-anchor="middle" opacity="0">R7</text>
<g class="stroked-text"><desc>R7</desc>
<path d="M164.5617 26.9375 L165.7738 25.2059 "/>
<path d="M166.6396 26.9375 L166.6396 23.3011 "/>
<path d="M166.6396 23.3011 L165.2543 23.3011 "/>
<path d="M165.2543 23.3011 L164.9080 23.4743 "/>
<path d="M164.9080 23.4743 L164.7349 23.6474 "/>
<path d="M164.7349 23.6474 L164.5617 23.9938 "/>
<path d="M164.5617 23.9938 L164.5617 24.5132 "/>
<path d="M164.5617 24.5132 L164.7349 24.8596 "/>
<path d="M164.7349 24.8596 L164.9080 25.0327 "/>
<path d="M164.9080 25.0327 L165.2543 25.2059 "/>
<path d="M165.2543 25.2059 L166.6396 25.2059 "/>
<path d="M163.3496 23.3011 L160.9253 23.3011 "/>
<path d="M160.9253 23.3011 L162.4838 26.9375 "/>
</g><g transform="rotate(-90.000000 107.5920 145.9127)">
<text x="107.5920" y="147.7309" transform="scale(-1 1) translate(-215.184018 0)" textLength="8.0087" font-size="4.8485" lengthAdjust="spacingAndGlyphs" text-anchor="middle" opacity="0">D1</text>
</g>
<g class="stroked-text"><desc>D1</desc>
<path d="M109.2459 143.2287 L105.6095 143.2287 "/>
<path d="M105.6095 143.2287 L105.6095 144.0945 "/>
<path d="M105.6095 144.0945 L105.7827 144.6140 "/>
<path d="M105.7827 144.6140 L106.1290 144.9603 "/>
<path d="M106.1290 144.9603 L106.4753 145.1335 "/>
<path d="M106.4753 145.1335 L107.1680 145.3066 "/>
<path d="M107.1680 145.3066 L107.6875 145.3066 "/>
<path d="M107.6875 145.3066 L108.3801 145.1335 "/>
<path d="M108.3801 145.1335 L108.7264 144.9603 "/>
<path d="M108.7264 144.9603 L109.0727 144.6140 "/>
<path d="M109.0727 144.6140 L109.2459 144.0945 "/>
<path d="M109.2459 144.0945 L109.2459 143.2287 "/>
<path d="M109.2459 148.7698 L109.2459 146.6919 "/>
<path d="M109.2459 147.7309 L105.6095 147.7309 "/>
<path d="M105.6095 147.7309 L106.1290 147.3845 "/>
<path d="M106.1290 147.3845 L106.4753 147.0382 "/>
<path d="M106.4753 147.0382 L106.6485 146.6919 "/>
</g><text x="182.1847" y="192.8945" transform="scale(-1 1) translate(-364.369473 0)" textLength="8.0087" font-size="4.8485" lengthAdjust="spacingAndGlyphs" text-anchor="middle" opacity="0">C2</text>
<g class="stroked-text"><desc>C2</desc>
<path d="M182.7908 192.3839 L182.9640 192.5571 "/>
<path d="M182.9640 192.5571 L183.4834 192.7302 "/>
<path d="M183.4834 192.7302 L183.8298 192.7302 "/>
<path d="M183.8298 192.7302 L184.3492 192.5571 "/>
<path d="M184.3492 192.5571 L184.6956 192.2107 "/>
<path d="M184.6956 192.2107 L184.8687 191.8644 "/>
<path d="M184.8687 191.8644 L185.0419 191.1718 "/>
<path d="M185.0419 191.1718 L185.0419 190.6523 "/>
<path d="M185.0419 190.6523 L184.8687 189.9596 "/>
<path d="M184.8687 189.9596 L184.6956 189.6133 "/>
<path d="M184.6956 189.6133 L184.3492 189.2670 "/>
<path d="M184.3492 189.2670 L183.8298 189.0938 "/>
<path d="M183.8298 189.0938 L183.4834 189.0938 "/>
<path d="M183.4834 189.0938 L182.9640 189.2670 "/>
<path d="M182.9640 189.2670 L182.7908 189.4402 "/>
<path d="M181.4055 189.4402 L181.2323 189.2670 "/>
<path d="M181.2323 189.2670 L180.8860 189.0938 "/>
<path d="M180.8860 189.0938 L180.0202 189.0938 "/>
<path d="M180.0202 189.0938 L179.6739 189.2670 "/>
<path d="M179.6739 189.2670 L179.5007 189.4402 "/>
<path d="M179.5007 189.4402 L179.3276 189.7865 "/>
<path d="M179.3276 189.7865 L179.3276 190.1328 "/>
<path d="M179.3276 190.1328 L179.5007 190.6523 "/>
<path d="M179.5007 190.6523 L181.5787 192.7302 "/>
<path d="M181.5787 192.7302 L179.3276 192.7302 "/>
</g></g>
<g style="fill:#000084; fill-opacity:0.0;  stroke:#000084; stroke-width:1.3636; stroke-opacity:1;  stroke-linecap:round; stroke-linejoin:round;">
<g transform="rotate(-90.000000 90.2829 174.6818)">
<text x="90.2829" y="179.2272" transform="scale(-1 1) translate(-180.565836 0)" textLength="20.0216" font-size="12.1212" lengthAdjust="spacingAndGlyphs" text-anchor="middle" opacity="0">D2</text>
</g>
<g class="stroked-text"><desc>D2</desc>
<path d="M94.4176 167.9718 L85.3267 167.9718 "/>
<path d="M85.3267 167.9718 L85.3267 170.1363 "/>
<path d="M85.3267 170.1363 L85.7596 171.4350 "/>
<path d="M85.7596 171.4350 L86.6254 172.3008 "/>
<path d="M86.6254 172.3008 L87.4912 172.7337 "/>
<path d="M87.4912 172.7337 L89.2228 173.1666 "/>
<path d="M89.2228 173.1666 L90.5215 173.1666 "/>
<path d="M90.5215 173.1666 L92.2531 172.7337 "/>
<path d="M92.2531 172.7337 L93.1189 172.3008 "/>
<path d="M93.1189 172.3008 L93.9847 171.4350 "/>
<path d="M93.9847 171.4350 L94.4176 170.1363 "/>
<path d="M94.4176 170.1363 L94.4176 167.9718 "/>
<path d="M86.1925 176.6298 L85.7596 177.0627 "/>
<path d="M85.7596 177.0627 L85.3267 177.9285 "/>
<path d="M85.3267 177.9285 L85.3267 180.0930 "/>
<path d="M85.3267 180.0930 L85.7596 180.9588 "/>
<path d="M85.7596 180.9588 L86.1925 181.3917 "/>
<path d="M86.1925 181.3917 L87.0583 181.8246 "/>
<path d="M87.0583 181.8246 L87.9241 181.8246 "/>
<path d="M87.9241 181.8246 L89.2228 181.3917 "/>
<path d="M89.2228 181.3917 L94.4176 176.1969 "/>
<path d="M94.4176 176.1969 L94.4176 181.8246 "/>
</g></g>
<g style="fill:#000084; fill-opacity:0.0;  stroke:#000084; stroke-width:0.5455; stroke-opacity:1;  stroke-linecap:round; stroke-linejoin:round;">
<g transform="rotate(-90.000000 196.5011 150.7872)">
<text x="196.5011" y="152.6054" transform="scale(-1 1) translate(-393.002200 0)" textLength="8.0087" font-size="4.8485" lengthAdjust="spacingAndGlyphs" text-anchor="middle" opacity="0">R5</text>
</g>
<g class="stroked-text"><desc>R5</desc>
<path d="M198.1550 150.1812 L196.4234 148.9691 "/>
<path d="M198.1550 148.1033 L194.5186 148.1033 "/>
<path d="M194.5186 148.1033 L194.5186 149.4885 "/>
<path d="M194.5186 149.4885 L194.6918 149.8349 "/>
<path d="M194.6918 149.8349 L194.8649 150.0080 "/>
<path d="M194.8649 150.0080 L195.2113 150.1812 "/>
<path d="M195.2113 150.1812 L195.7307 150.1812 "/>
<path d="M195.7307 150.1812 L196.0771 150.0080 "/>
<path d="M196.0771 150.0080 L196.2502 149.8349 "/>
<path d="M196.2502 149.8349 L196.4234 149.4885 "/>
<path d="M196.4234 149.4885 L196.4234 148.1033 "/>
<path d="M194.5186 153.4712 L194.5186 151.7396 "/>
<path d="M194.5186 151.7396 L196.2502 151.5665 "/>
<path d="M196.2502 151.5665 L196.0771 151.7396 "/>
<path d="M196.0771 151.7396 L195.9039 152.0859 "/>
<path d="M195.9039 152.0859 L195.9039 152.9517 "/>
<path d="M195.9039 152.9517 L196.0771 153.2981 "/>
<path d="M196.0771 153.2981 L196.2502 153.4712 "/>
<path d="M196.2502 153.4712 L196.5965 153.6444 "/>
<path d="M196.5965 153.6444 L197.4623 153.6444 "/>
<path d="M197.4623 153.6444 L197.8087 153.4712 "/>
<path d="M197.8087 153.4712 L197.9818 153.2981 "/>
<path d="M197.9818 153.2981 L198.1550 152.9517 "/>
<path d="M198.1550 152.9517 L198.1550 152.0859 "/>
<path d="M198.1550 152.0859 L197.9818 151.7396 "/>
<path d="M197.9818 151.7396 L197.8087 151.5665 "/>
</g><g transform="rotate(-90.000000 181.4920 121.2309)">
<text x="181.4920" y="123.0491" transform="scale(-1 1) translate(-362.984018 0)" textLength="11.4719" font-size="4.8485" lengthAdjust="spacingAndGlyphs" text-anchor="middle" opacity="0">R16</text>
</g>
<g class="stroked-text"><desc>R16</desc>
<path d="M183.1459 118.8932 L181.4143 117.6811 "/>
<path d="M183.1459 116.8153 L179.5095 116.8153 "/>
<path d="M179.5095 116.8153 L179.5095 118.2006 "/>
<path d="M179.5095 118.2006 L179.6827 118.5469 "/>
<path d="M179.6827 118.5469 L179.8558 118.7200 "/>
<path d="M179.8558 118.7200 L180.2022 118.8932 "/>
<path d="M180.2022 118.8932 L180.7216 118.8932 "/>
<path d="M180.7216 118.8932 L181.0680 118.7200 "/>
<path d="M181.0680 118.7200 L181.2411 118.5469 "/>
<path d="M181.2411 118.5469 L181.4143 118.2006 "/>
<path d="M181.4143 118.2006 L181.4143 116.8153 "/>
<path d="M183.1459 122.3564 L183.1459 120.2785 "/>
<path d="M183.1459 121.3175 L179.5095 121.3175 "/>
<path d="M179.5095 121.3175 L180.0290 120.9711 "/>
<path d="M180.0290 120.9711 L180.3753 120.6248 "/>
<path d="M180.3753 120.6248 L180.5485 120.2785 "/>
<path d="M179.5095 125.4733 L179.5095 124.7807 "/>
<path d="M179.5095 124.7807 L179.6827 124.4343 "/>
<path d="M179.6827 124.4343 L179.8558 124.2612 "/>
<path d="M179.8558 124.2612 L180.3753 123.9149 "/>
<path d="M180.3753 123.9149 L181.0680 123.7417 "/>
<path d="M181.0680 123.7417 L182.4533 123.7417 "/>
<path d="M182.4533 123.7417 L182.7996 123.9149 "/>
<path d="M182.7996 123.9149 L182.9727 124.0880 "/>
<path d="M182.9727 124.0880 L183.1459 124.4343 "/>
<path d="M183.1459 124.4343 L183.1459 125.1270 "/>
<path d="M183.1459 125.1270 L182.9727 125.4733 "/>
<path d="M182.9727 125.4733 L182.7996 125.6465 "/>
<path d="M182.7996 125.6465 L182.4533 125.8196 "/>
<path d="M182.4533 125.8196 L181.5875 125.8196 "/>
<path d="M181.5875 125.8196 L181.2411 125.6465 "/>
<path d="M181.2411 125.6465 L181.0680 125.4733 "/>
<path d="M181.0680 125.4733 L180.8948 125.1270 "/>
<path d="M180.8948 125.1270 L180.8948 124.4343 "/>
<path d="M180.8948 124.4343 L181.0680 124.0880 "/>
<path d="M181.0680 124.0880 L181.2411 123.9149 "/>
<path d="M181.2411 123.9149 L181.5875 123.7417 "/>
</g><text x="182.1847" y="177.7854" transform="scale(-1 1) translate(-364.369473 0)" textLength="8.0087" font-size="4.8485" lengthAdjust="spacingAndGlyphs" text-anchor="middle" opacity="0">C3</text>
<g class="stroked-text"><desc>C3</desc>
<path d="M182.7908 177.2748 L182.9640 177.4480 "/>
<path d="M182.9640 177.4480 L183.4834 177.6211 "/>
<path d="M183.4834 177.6211 L183.8298 177.6211 "/>
<path d="M183.8298 177.6211 L184.3492 177.4480 "/>
<path d="M184.3492 177.4480 L184.6956 177.1016 "/>
<path d="M184.6956 177.1016 L184.8687 176.7553 "/>
<path d="M184.8687 176.7553 L185.0419 176.0627 "/>
<path d="M185.0419 176.0627 L185.0419 175.5432 "/>
<path d="M185.0419 175.5432 L184.8687 174.8506 "/>
<path d="M184.8687 174.8506 L184.6956 174.5042 "/>
<path d="M184.6956 174.5042 L184.3492 174.1579 "/>
<path d="M184.3492 174.1579 L183.8298 173.9848 "/>
<path d="M183.8298 173.9848 L183.4834 173.9848 "/>
<path d="M183.4834 173.9848 L182.9640 174.1579 "/>
<path d="M182.9640 174.1579 L182.7908 174.3311 "/>
<path d="M181.5787 173.9848 L179.3276 173.9848 "/>
<path d="M179.3276 173.9848 L180.5397 175.3700 "/>
<path d="M180.5397 175.3700 L180.0202 175.3700 "/>
<path d="M180.0202 175.3700 L179.6739 175.5432 "/>
<path d="M179.6739 175.5432 L179.5007 175.7164 "/>
<path d="M179.5007 175.7164 L179.3276 176.0627 "/>
<path d="M179.3276 176.0627 L179.3276 176.9285 "/>
<path d="M179.3276 176.9285 L179.5007 177.2748 "/>
<path d="M179.5007 177.2748 L179.6739 177.4480 "/>
<path d="M179.6739 177.4480 L180.0202 177.6211 "/>
<path d="M180.0202 177.6211 L181.0592 177.6211 "/>
<path d="M181.0592 177.6211 L181.4055 177.4480 "/>
<path d="M181.4055 177.4480 L181.5787 177.2748 "/>
</g><g transform="rotate(-90.000000 109.9102 30.2527)">
<text x="109.9102" y="32.0709" transform="scale(-1 1) translate(-219.820382 0)" textLength="11.4719" font-size="4.8485" lengthAdjust="spacingAndGlyphs" text-anchor="middle" opacity="0">R15</text>
</g>
<g class="stroked-text"><desc>R15</desc>
<path d="M111.5641 27.9150 L109.8325 26.7029 "/>
<path d="M111.5641 25.8371 L107.9277 25.8371 "/>
<path d="M107.9277 25.8371 L107.9277 27.2224 "/>
<path d="M107.9277 27.2224 L108.1009 27.5687 "/>
<path d="M108.1009 27.5687 L108.2740 27.7419 "/>
<path d="M108.2740 27.7419 L108.6204 27.9150 "/>
<path d="M108.6204 27.9150 L109.1398 27.9150 "/>
<path d="M109.1398 27.9150 L109.4862 27.7419 "/>
<path d="M109.4862 27.7419 L109.6593 27.5687 "/>
<path d="M109.6593 27.5687 L109.8325 27.2224 "/>
<path d="M109.8325 27.2224 L109.8325 25.8371 "/>
<path d="M111.5641 31.3782 L111.5641 29.3003 "/>
<path d="M111.5641 30.3393 L107.9277 30.3393 "/>
<path d="M107.9277 30.3393 L108.4472 29.9929 "/>
<path d="M108.4472 29.9929 L108.7935 29.6466 "/>
<path d="M108.7935 29.6466 L108.9667 29.3003 "/>
<path d="M107.9277 34.6683 L107.9277 32.9367 "/>
<path d="M107.9277 32.9367 L109.6593 32.7635 "/>
<path d="M109.6593 32.7635 L109.4862 32.9367 "/>
<path d="M109.4862 32.9367 L109.3130 33.2830 "/>
<path d="M109.3130 33.2830 L109.3130 34.1488 "/>
<path d="M109.3130 34.1488 L109.4862 34.4951 "/>
<path d="M109.4862 34.4951 L109.6593 34.6683 "/>
<path d="M109.6593 34.6683 L110.0056 34.8414 "/>
<path d="M110.0056 34.8414 L110.8714 34.8414 "/>
<path d="M110.8714 34.8414 L111.2178 34.6683 "/>
<path d="M111.2178 34.6683 L111.3909 34.4951 "/>
<path d="M111.3909 34.4951 L111.5641 34.1488 "/>
<path d="M111.5641 34.1488 L111.5641 33.2830 "/>
<path d="M111.5641 33.2830 L111.3909 32.9367 "/>
<path d="M111.3909 32.9367 L111.2178 32.7635 "/>
</g><text x="133.0466" y="48.5763" transform="scale(-1 1) translate(-266.093109 0)" textLength="11.4719" font-size="4.8485" lengthAdjust="spacingAndGlyphs" text-anchor="middle" opacity="0">R12</text>
<g class="stroked-text"><desc>R12</desc>
<path d="M135.3842 48.4120 L136.5963 46.6804 "/>
<path d="M137.4621 48.4120 L137.4621 44.7757 "/>
<path d="M137.4621 44.7757 L136.0768 44.7757 "/>
<path d="M136.0768 44.7757 L135.7305 44.9488 "/>
<path d="M135.7305 44.9488 L135.5574 45.1220 "/>
<path d="M135.5574 45.1220 L135.3842 45.4683 "/>
<path d="M135.3842 45.4683 L135.3842 45.9878 "/>
<path d="M135.3842 45.9878 L135.5574 46.3341 "/>
<path d="M135.5574 46.3341 L135.7305 46.5073 "/>
<path d="M135.7305 46.5073 L136.0768 46.6804 "/>
<path d="M136.0768 46.6804 L137.4621 46.6804 "/>
<path d="M131.9210 48.4120 L133.9989 48.4120 "/>
<path d="M132.9600 48.4120 L132.9600 44.7757 "/>
<path d="M132.9600 44.7757 L133.3063 45.2951 "/>
<path d="M133.3063 45.2951 L133.6526 45.6415 "/>
<path d="M133.6526 45.6415 L133.9989 45.8146 "/>
<path d="M130.5357 45.1220 L130.3626 44.9488 "/>
<path d="M130.3626 44.9488 L130.0162 44.7757 "/>
<path d="M130.0162 44.7757 L129.1504 44.7757 "/>
<path d="M129.1504 44.7757 L128.8041 44.9488 "/>
<path d="M128.8041 44.9488 L128.6310 45.1220 "/>
<path d="M128.6310 45.1220 L128.4578 45.4683 "/>
<path d="M128.4578 45.4683 L128.4578 45.8146 "/>
<path d="M128.4578 45.8146 L128.6310 46.3341 "/>
<path d="M128.6310 46.3341 L130.7089 48.4120 "/>
<path d="M130.7089 48.4120 L128.4578 48.4120 "/>
</g></g>
<g style="fill:#000084; fill-opacity:0.0;  stroke:#000084; stroke-width:1.3636; stroke-opacity:1;  stroke-linecap:round; stroke-linejoin:round;">
<g transform="rotate(-90.000000 232.1375 59.5491)">
<text x="232.1375" y="64.0945" transform="scale(-1 1) translate(-464.274927 0)" textLength="17.8571" font-size="12.1212" lengthAdjust="spacingAndGlyphs" text-anchor="middle" opacity="0">J5</text>
</g>
<g class="stroked-text"><desc>J5</desc>
<path d="M227.1813 56.5187 L233.6748 56.5187 "/>
<path d="M233.6748 56.5187 L234.9735 56.0858 "/>
<path d="M234.9735 56.0858 L235.8393 55.2200 "/>
<path d="M235.8393 55.2200 L236.2722 53.9213 "/>
<path d="M236.2722 53.9213 L236.2722 53.0555 "/>
<path d="M227.1813 65.1768 L227.1813 60.8478 "/>
<path d="M227.1813 60.8478 L231.5103 60.4149 "/>
<path d="M231.5103 60.4149 L231.0774 60.8478 "/>
<path d="M231.0774 60.8478 L230.6445 61.7136 "/>
<path d="M230.6445 61.7136 L230.6445 63.8781 "/>
<path d="M230.6445 63.8781 L231.0774 64.7439 "/>
<path d="M231.0774 64.7439 L231.5103 65.1768 "/>
<path d="M231.5103 65.1768 L232.3761 65.6097 "/>
<path d="M232.3761 65.6097 L234.5406 65.6097 "/>
<path d="M234.5406 65.6097 L235.4064 65.1768 "/>
<path d="M235.4064 65.1768 L235.8393 64.7439 "/>
<path d="M235.8393 64.7439 L236.2722 63.8781 "/>
<path d="M236.2722 63.8781 L236.2722 61.7136 "/>
<path d="M236.2722 61.7136 L235.8393 60.8478 "/>
<path d="M235.8393 60.8478 L235.4064 60.4149 "/>
</g></g>
<g style="fill:#000084; fill-opacity:0.0;  stroke:#000084; stroke-width:0.5455; stroke-opacity:1;  stroke-linecap:round; stroke-linejoin:round;">
<g transform="rotate(-90.000000 187.2647 30.3636)">
<text x="187.2647" y="32.1818" transform="scale(-1 1) translate(-374.529473 0)" textLength="8.0087" font-size="4.8485" lengthAdjust="spacingAndGlyphs" text-anchor="middle" opacity="0">R8</text>
</g>
<g class="stroked-text"><desc>R8</desc>
<path d="M188.9186 29.7575 L187.1870 28.5454 "/>
<path d="M188.9186 27.6796 L185.2823 27.6796 "/>
<path d="M185.2823 27.6796 L185.2823 29.0649 "/>
<path d="M185.2823 29.0649 L185.4554 29.4112 "/>
<path d="M185.4554 29.4112 L185.6286 29.5844 "/>
<path d="M185.6286 29.5844 L185.9749 29.7575 "/>
<path d="M185.9749 29.7575 L186.4944 29.7575 "/>
<path d="M186.4944 29.7575 L186.8407 29.5844 "/>
<path d="M186.8407 29.5844 L187.0139 29.4112 "/>
<path d="M187.0139 29.4112 L187.1870 29.0649 "/>
<path d="M187.1870 29.0649 L187.1870 27.6796 "/>
<path d="M186.8407 31.8355 L186.6675 31.4891 "/>
<path d="M186.6675 31.4891 L186.4944 31.3160 "/>
<path d="M186.4944 31.3160 L186.1481 31.1428 "/>
<path d="M186.1481 31.1428 L185.9749 31.1428 "/>
<path d="M185.9749 31.1428 L185.6286 31.3160 "/>
<path d="M185.6286 31.3160 L185.4554 31.4891 "/>
<path d="M185.4554 31.4891 L185.2823 31.8355 "/>
<path d="M185.2823 31.8355 L185.2823 32.5281 "/>
<path d="M185.2823 32.5281 L185.4554 32.8744 "/>
<path d="M185.4554 32.8744 L185.6286 33.0476 "/>
<path d="M185.6286 33.0476 L185.9749 33.2207 "/>
<path d="M185.9749 33.2207 L186.1481 33.2207 "/>
<path d="M186.1481 33.2207 L186.4944 33.0476 "/>
<path d="M186.4944 33.0476 L186.6675 32.8744 "/>
<path d="M186.6675 32.8744 L186.8407 32.5281 "/>
<path d="M186.8407 32.5281 L186.8407 31.8355 "/>
<path d="M186.8407 31.8355 L187.0139 31.4891 "/>
<path d="M187.0139 31.4891 L187.1870 31.3160 "/>
<path d="M187.1870 31.3160 L187.5333 31.1428 "/>
<path d="M187.5333 31.1428 L188.2260 31.1428 "/>
<path d="M188.2260 31.1428 L188.5723 31.3160 "/>
<path d="M188.5723 31.3160 L188.7455 31.4891 "/>
<path d="M188.7455 31.4891 L188.9186 31.8355 "/>
<path d="M188.9186 31.8355 L188.9186 32.5281 "/>
<path d="M188.9186 32.5281 L188.7455 32.8744 "/>
<path d="M188.7455 32.8744 L188.5723 33.0476 "/>
<path d="M188.5723 33.0476 L188.2260 33.2207 "/>
<path d="M188.2260 33.2207 L187.5333 33.2207 "/>
<path d="M187.5333 33.2207 L187.1870 33.0476 "/>
<path d="M187.1870 33.0476 L187.0139 32.8744 "/>
<path d="M187.0139 32.8744 L186.8407 32.5281 "/>
</g></g>
<g style="fill:#000084; fill-opacity:0.0;  stroke:#000084; stroke-width:1.3636; stroke-opacity:1;  stroke-linecap:round; stroke-linejoin:round;">
<g transform="rotate(-90.000000 64.8647 150.4581)">
<text x="64.8647" y="155.0036" transform="scale(-1 1) translate(-129.729473 0)" textLength="17.8571" font-size="12.1212" lengthAdjust="spacingAndGlyphs" text-anchor="middle" opacity="0">J1</text>
</g>
<g class="stroked-text"><desc>J1</desc>
<path d="M59.9085 147.4278 L66.4020 147.4278 "/>
<path d="M66.4020 147.4278 L67.7007 146.9949 "/>
<path d="M67.7007 146.9949 L68.5666 146.1291 "/>
<path d="M68.5666 146.1291 L68.9995 144.8304 "/>
<path d="M68.9995 144.8304 L68.9995 143.9646 "/>
<path d="M68.9995 156.5187 L68.9995 151.3239 "/>
<path d="M68.9995 153.9213 L59.9085 153.9213 "/>
<path d="M59.9085 153.9213 L61.2072 153.0555 "/>
<path d="M61.2072 153.0555 L62.0730 152.1897 "/>
<path d="M62.0730 152.1897 L62.5059 151.3239 "/>
</g></g>
<g style="fill:#000084; fill-opacity:0.0;  stroke:#000084; stroke-width:0.5455; stroke-opacity:1;  stroke-linecap:round; stroke-linejoin:round;">
<text x="133.0466" y="27.1018" transform="scale(-1 1) translate(-266.093109 0)" textLength="11.4719" font-size="4.8485" lengthAdjust="spacingAndGlyphs" text-anchor="middle" opacity="0">R14</text>
<g class="stroked-text"><desc>R14</desc>
<path d="M135.3842 26.9375 L136.5963 25.2059 "/>
<path d="M137.4621 26.9375 L137.4621 23.3011 "/>
<path d="M137.4621 23.3011 L136.0768 23.3011 "/>
<path d="M136.0768 23.3011 L135.7305 23.4743 "/>
<path d="M135.7305 23.4743 L135.5574 23.6474 "/>
<path d="M135.5574 23.6474 L135.3842 23.9938 "/>
<path d="M135.3842 23.9938 L135.3842 24.5132 "/>
<path d="M135.3842 24.5132 L135.5574 24.8596 "/>
<path d="M135.5574 24.8596 L135.7305 25.0327 "/>
<path d="M135.7305 25.0327 L136.0768 25.2059 "/>
<path d="M136.0768 25.2059 L137.4621 25.2059 "/>
<path d="M131.9210 26.9375 L133.9989 26.9375 "/>
<path d="M132.9600 26.9375 L132.9600 23.3011 "/>
<path d="M132.9600 23.3011 L133.3063 23.8206 "/>
<path d="M133.3063 23.8206 L133.6526 24.1669 "/>
<path d="M133.6526 24.1669 L133.9989 24.3401 "/>
<path d="M128.8041 24.5132 L128.8041 26.9375 "/>
<path d="M129.6699 23.1280 L130.5357 25.7254 "/>
<path d="M130.5357 25.7254 L128.2846 25.7254 "/>
</g><g transform="rotate(-90.000000 148.4720 167.9854)">
<text x="148.4720" y="169.8036" transform="scale(-1 1) translate(-296.944018 0)" textLength="8.1818" font-size="4.8485" lengthAdjust="spacingAndGlyphs" text-anchor="middle" opacity="0">U1</text>
</g>
<g class="stroked-text"><desc>U1</desc>
<path d="M146.4895 165.2149 L149.4333 165.2149 "/>
<path d="M149.4333 165.2149 L149.7796 165.3880 "/>
<path d="M149.7796 165.3880 L149.9527 165.5612 "/>
<path d="M149.9527 165.5612 L150.1259 165.9075 "/>
<path d="M150.1259 165.9075 L150.1259 166.6001 "/>
<path d="M150.1259 166.6001 L149.9527 166.9465 "/>
<path d="M149.9527 166.9465 L149.7796 167.1196 "/>
<path d="M149.7796 167.1196 L149.4333 167.2928 "/>
<path d="M149.4333 167.2928 L146.4895 167.2928 "/>
<path d="M150.1259 170.9291 L150.1259 168.8512 "/>
<path d="M150.1259 169.8902 L146.4895 169.8902 "/>
<path d="M146.4895 169.8902 L147.0090 169.5439 "/>
<path d="M147.0090 169.5439 L147.3553 169.1975 "/>
<path d="M147.3553 169.1975 L147.5285 168.8512 "/>
</g><g transform="rotate(-90.000000 109.9102 59.3472)">
<text x="109.9102" y="61.1654" transform="scale(-1 1) translate(-219.820382 0)" textLength="11.4719" font-size="4.8485" lengthAdjust="spacingAndGlyphs" text-anchor="middle" opacity="0">R13</text>
</g>
<g class="stroked-text"><desc>R13</desc>
<path d="M111.5641 57.0096 L109.8325 55.7975 "/>
<path d="M111.5641 54.9317 L107.9277 54.9317 "/>
<path d="M107.9277 54.9317 L107.9277 56.3169 "/>
<path d="M107.9277 56.3169 L108.1009 56.6633 "/>
<path d="M108.1009 56.6633 L108.2740 56.8364 "/>
<path d="M108.2740 56.8364 L108.6204 57.0096 "/>
<path d="M108.6204 57.0096 L109.1398 57.0096 "/>
<path d="M109.1398 57.0096 L109.4862 56.8364 "/>
<path d="M109.4862 56.8364 L109.6593 56.6633 "/>
<path d="M109.6593 56.6633 L109.8325 56.3169 "/>
<path d="M109.8325 56.3169 L109.8325 54.9317 "/>
<path d="M111.5641 60.4728 L111.5641 58.3949 "/>
<path d="M111.5641 59.4338 L107.9277 59.4338 "/>
<path d="M107.9277 59.4338 L108.4472 59.0875 "/>
<path d="M108.4472 59.0875 L108.7935 58.7412 "/>
<path d="M108.7935 58.7412 L108.9667 58.3949 "/>
<path d="M107.9277 61.6849 L107.9277 63.9360 "/>
<path d="M107.9277 63.9360 L109.3130 62.7239 "/>
<path d="M109.3130 62.7239 L109.3130 63.2433 "/>
<path d="M109.3130 63.2433 L109.4862 63.5897 "/>
<path d="M109.4862 63.5897 L109.6593 63.7628 "/>
<path d="M109.6593 63.7628 L110.0056 63.9360 "/>
<path d="M110.0056 63.9360 L110.8714 63.9360 "/>
<path d="M110.8714 63.9360 L111.2178 63.7628 "/>
<path d="M111.2178 63.7628 L111.3909 63.5897 "/>
<path d="M111.3909 63.5897 L111.5641 63.2433 "/>
<path d="M111.5641 63.2433 L111.5641 62.2044 "/>
<path d="M111.5641 62.2044 L111.3909 61.8581 "/>
<path d="M111.3909 61.8581 L111.2178 61.6849 "/>
</g><g transform="rotate(-90.000000 123.9956 145.3563)">
<text x="123.9956" y="147.1745" transform="scale(-1 1) translate(-247.991291 0)" textLength="8.0087" font-size="4.8485" lengthAdjust="spacingAndGlyphs" text-anchor="middle" opacity="0">R1</text>
</g>
<g class="stroked-text"><desc>R1</desc>
<path d="M125.6495 144.7503 L123.9179 143.5381 "/>
<path d="M125.6495 142.6723 L122.0132 142.6723 "/>
<path d="M122.0132 142.6723 L122.0132 144.0576 "/>
<path d="M122.0132 144.0576 L122.1863 144.4039 "/>
<path d="M122.1863 144.4039 L122.3595 144.5771 "/>
<path d="M122.3595 144.5771 L122.7058 144.7503 "/>
<path d="M122.7058 144.7503 L123.2253 144.7503 "/>
<path d="M123.2253 144.7503 L123.5716 144.5771 "/>
<path d="M123.5716 144.5771 L123.7448 144.4039 "/>
<path d="M123.7448 144.4039 L123.9179 144.0576 "/>
<path d="M123.9179 144.0576 L123.9179 142.6723 "/>
<path d="M125.6495 148.2135 L125.6495 146.1355 "/>
<path d="M125.6495 147.1745 L122.0132 147.1745 "/>
<path d="M122.0132 147.1745 L122.5326 146.8282 "/>
<path d="M122.5326 146.8282 L122.8790 146.4819 "/>
<path d="M122.8790 146.4819 L123.0521 146.1355 "/>
</g><g transform="rotate(-90.000000 181.2611 151.0091)">
<text x="181.2611" y="152.8272" transform="scale(-1 1) translate(-362.522200 0)" textLength="8.0087" font-size="4.8485" lengthAdjust="spacingAndGlyphs" text-anchor="middle" opacity="0">R6</text>
</g>
<g class="stroked-text"><desc>R6</desc>
<path d="M182.9150 150.4030 L181.1834 149.1909 "/>
<path d="M182.9150 148.3251 L179.2786 148.3251 "/>
<path d="M179.2786 148.3251 L179.2786 149.7104 "/>
<path d="M179.2786 149.7104 L179.4518 150.0567 "/>
<path d="M179.4518 150.0567 L179.6249 150.2298 "/>
<path d="M179.6249 150.2298 L179.9713 150.4030 "/>
<path d="M179.9713 150.4030 L180.4907 150.4030 "/>
<path d="M180.4907 150.4030 L180.8371 150.2298 "/>
<path d="M180.8371 150.2298 L181.0102 150.0567 "/>
<path d="M181.0102 150.0567 L181.1834 149.7104 "/>
<path d="M181.1834 149.7104 L181.1834 148.3251 "/>
<path d="M179.2786 153.5199 L179.2786 152.8272 "/>
<path d="M179.2786 152.8272 L179.4518 152.4809 "/>
<path d="M179.4518 152.4809 L179.6249 152.3078 "/>
<path d="M179.6249 152.3078 L180.1444 151.9614 "/>
<path d="M180.1444 151.9614 L180.8371 151.7883 "/>
<path d="M180.8371 151.7883 L182.2223 151.7883 "/>
<path d="M182.2223 151.7883 L182.5687 151.9614 "/>
<path d="M182.5687 151.9614 L182.7418 152.1346 "/>
<path d="M182.7418 152.1346 L182.9150 152.4809 "/>
<path d="M182.9150 152.4809 L182.9150 153.1736 "/>
<path d="M182.9150 153.1736 L182.7418 153.5199 "/>
<path d="M182.7418 153.5199 L182.5687 153.6930 "/>
<path d="M182.5687 153.6930 L182.2223 153.8662 "/>
<path d="M182.2223 153.8662 L181.3565 153.8662 "/>
<path d="M181.3565 153.8662 L181.0102 153.6930 "/>
<path d="M181.0102 153.6930 L180.8371 153.5199 "/>
<path d="M180.8371 153.5199 L180.6639 153.1736 "/>
<path d="M180.6639 153.1736 L180.6639 152.4809 "/>
<path d="M180.6639 152.4809 L180.8371 152.1346 "/>
<path d="M180.8371 152.1346 L181.0102 151.9614 "/>
<path d="M181.0102 151.9614 L181.3565 151.7883 "/>
</g><g transform="rotate(-90.000000 113.3738 107.4872)">
<text x="113.3738" y="109.3054" transform="scale(-1 1) translate(-226.747655 0)" textLength="8.0087" font-size="4.8485" lengthAdjust="spacingAndGlyphs" text-anchor="middle" opacity="0">R2</text>
</g>
<g class="stroked-text"><desc>R2</desc>
<path d="M115.0277 106.8812 L113.2961 105.6691 "/>
<path d="M115.0277 104.8033 L111.3913 104.8033 "/>
<path d="M111.3913 104.8033 L111.3913 106.1885 "/>
<path d="M111.3913 106.1885 L111.5645 106.5349 "/>
<path d="M111.5645 106.5349 L111.7377 106.7080 "/>
<path d="M111.7377 106.7080 L112.0840 106.8812 "/>
<path d="M112.0840 106.8812 L112.6035 106.8812 "/>
<path d="M112.6035 106.8812 L112.9498 106.7080 "/>
<path d="M112.9498 106.7080 L113.1229 106.5349 "/>
<path d="M113.1229 106.5349 L113.2961 106.1885 "/>
<path d="M113.2961 106.1885 L113.2961 104.8033 "/>
<path d="M111.7377 108.2665 L111.5645 108.4396 "/>
<path d="M111.5645 108.4396 L111.3913 108.7859 "/>
<path d="M111.3913 108.7859 L111.3913 109.6517 "/>
<path d="M111.3913 109.6517 L111.5645 109.9981 "/>
<path d="M111.5645 109.9981 L111.7377 110.1712 "/>
<path d="M111.7377 110.1712 L112.0840 110.3444 "/>
<path d="M112.0840 110.3444 L112.4303 110.3444 "/>
<path d="M112.4303 110.3444 L112.9498 110.1712 "/>
<path d="M112.9498 110.1712 L115.0277 108.0933 "/>
<path d="M115.0277 108.0933 L115.0277 110.3444 "/>
</g><text x="163.9556" y="48.5763" transform="scale(-1 1) translate(-327.911291 0)" textLength="8.0087" font-size="4.8485" lengthAdjust="spacingAndGlyphs" text-anchor="middle" opacity="0">R9</text>
<g class="stroked-text"><desc>R9</desc>
<path d="M164.5617 48.4120 L165.7738 46.6804 "/>
<path d="M166.6396 48.4120 L166.6396 44.7757 "/>
<path d="M166.6396 44.7757 L165.2543 44.7757 "/>
<path d="M165.2543 44.7757 L164.9080 44.9488 "/>
<path d="M164.9080 44.9488 L164.7349 45.1220 "/>
<path d="M164.7349 45.1220 L164.5617 45.4683 "/>
<path d="M164.5617 45.4683 L164.5617 45.9878 "/>
<path d="M164.5617 45.9878 L164.7349 46.3341 "/>
<path d="M164.7349 46.3341 L164.9080 46.5073 "/>
<path d="M164.9080 46.5073 L165.2543 46.6804 "/>
<path d="M165.2543 46.6804 L166.6396 46.6804 "/>
<path d="M162.8301 48.4120 L162.1375 48.4120 "/>
<path d="M162.1375 48.4120 L161.7911 48.2389 "/>
<path d="M161.7911 48.2389 L161.6180 48.0657 "/>
<path d="M161.6180 48.0657 L161.2717 47.5462 "/>
<path d="M161.2717 47.5462 L161.0985 46.8536 "/>
<path d="M161.0985 46.8536 L161.0985 45.4683 "/>
<path d="M161.0985 45.4683 L161.2717 45.1220 "/>
<path d="M161.2717 45.1220 L161.4448 44.9488 "/>
<path d="M161.4448 44.9488 L161.7911 44.7757 "/>
<path d="M161.7911 44.7757 L162.4838 44.7757 "/>
<path d="M162.4838 44.7757 L162.8301 44.9488 "/>
<path d="M162.8301 44.9488 L163.0033 45.1220 "/>
<path d="M163.0033 45.1220 L163.1764 45.4683 "/>
<path d="M163.1764 45.4683 L163.1764 46.3341 "/>
<path d="M163.1764 46.3341 L163.0033 46.6804 "/>
<path d="M163.0033 46.6804 L162.8301 46.8536 "/>
<path d="M162.8301 46.8536 L162.4838 47.0267 "/>
<path d="M162.4838 47.0267 L161.7911 47.0267 "/>
<path d="M161.7911 47.0267 L161.4448 46.8536 "/>
<path d="M161.4448 46.8536 L161.2717 46.6804 "/>
<path d="M161.2717 46.6804 L161.0985 46.3341 "/>
</g><text x="107.6011" y="86.2145" transform="scale(-1 1) translate(-215.202200 0)" textLength="8.0087" font-size="4.8485" lengthAdjust="spacingAndGlyphs" text-anchor="middle" opacity="0">R3</text>
<g class="stroked-text"><desc>R3</desc>
<path d="M108.2072 86.0502 L109.4193 84.3186 "/>
<path d="M110.2851 86.0502 L110.2851 82.4138 "/>
<path d="M110.2851 82.4138 L108.8998 82.4138 "/>
<path d="M108.8998 82.4138 L108.5535 82.5870 "/>
<path d="M108.5535 82.5870 L108.3803 82.7602 "/>
<path d="M108.3803 82.7602 L108.2072 83.1065 "/>
<path d="M108.2072 83.1065 L108.2072 83.6260 "/>
<path d="M108.2072 83.6260 L108.3803 83.9723 "/>
<path d="M108.3803 83.9723 L108.5535 84.1454 "/>
<path d="M108.5535 84.1454 L108.8998 84.3186 "/>
<path d="M108.8998 84.3186 L110.2851 84.3186 "/>
<path d="M106.9950 82.4138 L104.7440 82.4138 "/>
<path d="M104.7440 82.4138 L105.9561 83.7991 "/>
<path d="M105.9561 83.7991 L105.4366 83.7991 "/>
<path d="M105.4366 83.7991 L105.0903 83.9723 "/>
<path d="M105.0903 83.9723 L104.9171 84.1454 "/>
<path d="M104.9171 84.1454 L104.7440 84.4918 "/>
<path d="M104.7440 84.4918 L104.7440 85.3576 "/>
<path d="M104.7440 85.3576 L104.9171 85.7039 "/>
<path d="M104.9171 85.7039 L105.0903 85.8771 "/>
<path d="M105.0903 85.8771 L105.4366 86.0502 "/>
<path d="M105.4366 86.0502 L106.4756 86.0502 "/>
<path d="M106.4756 86.0502 L106.8219 85.8771 "/>
<path d="M106.8219 85.8771 L106.9950 85.7039 "/>
</g><g transform="rotate(-90.000000 196.5011 121.2309)">
<text x="196.5011" y="123.0491" transform="scale(-1 1) translate(-393.002200 0)" textLength="11.4719" font-size="4.8485" lengthAdjust="spacingAndGlyphs" text-anchor="middle" opacity="0">R17</text>
</g>
<g class="stroked-text"><desc>R17</desc>
<path d="M198.1550 118.8932 L196.4234 117.6811 "/>
<path d="M198.1550 116.8153 L194.5186 116.8153 "/>
<path d="M194.5186 116.8153 L194.5186 118.2006 "/>
<path d="M194.5186 118.2006 L194.6918 118.5469 "/>
<path d="M194.6918 118.5469 L194.8649 118.7200 "/>
<path d="M194.8649 118.7200 L195.2113 118.8932 "/>
<path d="M195.2113 118.8932 L195.7307 118.8932 "/>
<path d="M195.7307 118.8932 L196.0771 118.7200 "/>
<path d="M196.0771 118.7200 L196.2502 118.5469 "/>
<path d="M196.2502 118.5469 L196.4234 118.2006 "/>
<path d="M196.4234 118.2006 L196.4234 116.8153 "/>
<path d="M198.1550 122.3564 L198.1550 120.2785 "/>
<path d="M198.1550 121.3175 L194.5186 121.3175 "/>
<path d="M194.5186 121.3175 L195.0381 120.9711 "/>
<path d="M195.0381 120.9711 L195.3844 120.6248 "/>
<path d="M195.3844 120.6248 L195.5576 120.2785 "/>
<path d="M194.5186 123.5685 L194.5186 125.9928 "/>
<path d="M194.5186 125.9928 L198.1550 124.4343 "/>
</g></g>
<g style="fill:#000084; fill-opacity:0.0;  stroke:#000084; stroke-width:1.3636; stroke-opacity:1;  stroke-linecap:round; stroke-linejoin:round;">
<g transform="rotate(-90.000000 232.1375 150.4581)">
<text x="232.1375" y="155.0036" transform="scale(-1 1) translate(-464.274927 0)" textLength="17.8571" font-size="12.1212" lengthAdjust="spacingAndGlyphs" text-anchor="middle" opacity="0">J3</text>
</g>
<g class="stroked-text"><desc>J3</desc>
<path d="M227.1813 147.4278 L233.6748 147.4278 "/>
<path d="M233.6748 147.4278 L234.9735 146.9949 "/>
<path d="M234.9735 146.9949 L235.8393 146.1291 "/>
<path d="M235.8393 146.1291 L236.2722 144.8304 "/>
<path d="M236.2722 144.8304 L236.2722 143.9646 "/>
<path d="M227.1813 150.8910 L227.1813 156.5187 "/>
<path d="M227.1813 156.5187 L230.6445 153.4884 "/>
<path d="M230.6445 153.4884 L230.6445 154.7871 "/>
<path d="M230.6445 154.7871 L231.0774 155.6529 "/>
<path d="M231.0774 155.6529 L231.5103 156.0858 "/>
<path d="M231.5103 156.0858 L232.3761 156.5187 "/>
<path d="M232.3761 156.5187 L234.5406 156.5187 "/>
<path d="M234.5406 156.5187 L235.4064 156.0858 "/>
<path d="M235.4064 156.0858 L235.8393 155.6529 "/>
<path d="M235.8393 155.6529 L236.2722 154.7871 "/>
<path d="M236.2722 154.7871 L236.2722 152.1897 "/>
<path d="M236.2722 152.1897 L235.8393 151.3239 "/>
<path d="M235.8393 151.3239 L235.4064 150.8910 "/>
</g><g transform="rotate(-90.000000 64.8647 59.5491)">
<text x="64.8647" y="64.0945" transform="scale(-1 1) translate(-129.729473 0)" textLength="17.8571" font-size="12.1212" lengthAdjust="spacingAndGlyphs" text-anchor="middle" opacity="0">J2</text>
</g>
<g class="stroked-text"><desc>J2</desc>
<path d="M59.9085 56.5187 L66.4020 56.5187 "/>
<path d="M66.4020 56.5187 L67.7007 56.0858 "/>
<path d="M67.7007 56.0858 L68.5666 55.2200 "/>
<path d="M68.5666 55.2200 L68.9995 53.9213 "/>
<path d="M68.9995 53.9213 L68.9995 53.0555 "/>
<path d="M60.7743 60.4149 L60.3414 60.8478 "/>
<path d="M60.3414 60.8478 L59.9085 61.7136 "/>
<path d="M59.9085 61.7136 L59.9085 63.8781 "/>
<path d="M59.9085 63.8781 L60.3414 64.7439 "/>
<path d="M60.3414 64.7439 L60.7743 65.1768 "/>
<path d="M60.7743 65.1768 L61.6401 65.6097 "/>
<path d="M61.6401 65.6097 L62.5059 65.6097 "/>
<path d="M62.5059 65.6097 L63.8046 65.1768 "/>
<path d="M63.8046 65.1768 L68.9995 59.9820 "/>
<path d="M68.9995 59.9820 L68.9995 65.6097 "/>
</g></g>
<g style="fill:#000084; fill-opacity:0.0;  stroke:#000084; stroke-width:0.9545; stroke-opacity:1;  stroke-linecap:round; stroke-linejoin:round;">
<g transform="rotate(-90.000000 148.5011 92.7091)">
<text x="148.5011" y="95.8909" transform="scale(-1 1) translate(-297.002200 0)" textLength="14.3182" font-size="8.4848" lengthAdjust="spacingAndGlyphs" text-anchor="middle" opacity="0">U2</text>
</g>
<g class="stroked-text"><desc>U2</desc>
<path d="M145.0318 87.8606 L150.1833 87.8606 "/>
<path d="M150.1833 87.8606 L150.7893 88.1636 "/>
<path d="M150.7893 88.1636 L151.0924 88.4666 "/>
<path d="M151.0924 88.4666 L151.3954 89.0727 "/>
<path d="M151.3954 89.0727 L151.3954 90.2848 "/>
<path d="M151.3954 90.2848 L151.0924 90.8909 "/>
<path d="M151.0924 90.8909 L150.7893 91.1939 "/>
<path d="M150.7893 91.1939 L150.1833 91.4969 "/>
<path d="M150.1833 91.4969 L145.0318 91.4969 "/>
<path d="M145.6378 94.2242 L145.3348 94.5272 "/>
<path d="M145.3348 94.5272 L145.0318 95.1333 "/>
<path d="M145.0318 95.1333 L145.0318 96.6484 "/>
<path d="M145.0318 96.6484 L145.3348 97.2545 "/>
<path d="M145.3348 97.2545 L145.6378 97.5575 "/>
<path d="M145.6378 97.5575 L146.2439 97.8606 "/>
<path d="M146.2439 97.8606 L146.8499 97.8606 "/>
<path d="M146.8499 97.8606 L147.7590 97.5575 "/>
<path d="M147.7590 97.5575 L151.3954 93.9212 "/>
<path d="M151.3954 93.9212 L151.3954 97.8606 "/>
</g></g>
<g style="fill:#000084; fill-opacity:0.0;  stroke:#000084; stroke-width:0.7273; stroke-opacity:1;  stroke-linecap:round; stroke-linejoin:round;">
<g transform="rotate(-90.000000 118.9156 177.6836)">
<text x="118.9156" y="179.9563" transform="scale(-1 1) translate(-237.831291 0)" textLength="10.1472" font-size="6.0606" lengthAdjust="spacingAndGlyphs" text-anchor="middle" opacity="0">C1</text>
</g>
<g class="stroked-text"><desc>C1</desc>
<path d="M120.5477 176.9260 L120.7642 176.7096 "/>
<path d="M120.7642 176.7096 L120.9806 176.0602 "/>
<path d="M120.9806 176.0602 L120.9806 175.6273 "/>
<path d="M120.9806 175.6273 L120.7642 174.9780 "/>
<path d="M120.7642 174.9780 L120.3313 174.5451 "/>
<path d="M120.3313 174.5451 L119.8984 174.3286 "/>
<path d="M119.8984 174.3286 L119.0326 174.1122 "/>
<path d="M119.0326 174.1122 L118.3832 174.1122 "/>
<path d="M118.3832 174.1122 L117.5174 174.3286 "/>
<path d="M117.5174 174.3286 L117.0845 174.5451 "/>
<path d="M117.0845 174.5451 L116.6516 174.9780 "/>
<path d="M116.6516 174.9780 L116.4352 175.6273 "/>
<path d="M116.4352 175.6273 L116.4352 176.0602 "/>
<path d="M116.4352 176.0602 L116.6516 176.7096 "/>
<path d="M116.6516 176.7096 L116.8681 176.9260 "/>
<path d="M120.9806 181.2550 L120.9806 178.6576 "/>
<path d="M120.9806 179.9563 L116.4352 179.9563 "/>
<path d="M116.4352 179.9563 L117.0845 179.5234 "/>
<path d="M117.0845 179.5234 L117.5174 179.0905 "/>
<path d="M117.5174 179.0905 L117.7339 178.6576 "/>
</g></g>
<g style="fill:#000084; fill-opacity:0.0;  stroke:#000084; stroke-width:0.5455; stroke-opacity:1;  stroke-linecap:round; stroke-linejoin:round;">
<g transform="rotate(-90.000000 187.2647 58.9963)">
<text x="187.2647" y="60.8145" transform="scale(-1 1) translate(-374.529473 0)" textLength="11.4719" font-size="4.8485" lengthAdjust="spacingAndGlyphs" text-anchor="middle" opacity="0">R10</text>
</g>
<g class="stroked-text"><desc>R10</desc>
<path d="M188.9186 56.6587 L187.1870 55.4465 "/>
<path d="M188.9186 54.5807 L185.2823 54.5807 "/>
<path d="M185.2823 54.5807 L185.2823 55.9660 "/>
<path d="M185.2823 55.9660 L185.4554 56.3123 "/>
<path d="M185.4554 56.3123 L185.6286 56.4855 "/>
<path d="M185.6286 56.4855 L185.9749 56.6587 "/>
<path d="M185.9749 56.6587 L186.4944 56.6587 "/>
<path d="M186.4944 56.6587 L186.8407 56.4855 "/>
<path d="M186.8407 56.4855 L187.0139 56.3123 "/>
<path d="M187.0139 56.3123 L187.1870 55.9660 "/>
<path d="M187.1870 55.9660 L187.1870 54.5807 "/>
<path d="M188.9186 60.1219 L188.9186 58.0439 "/>
<path d="M188.9186 59.0829 L185.2823 59.0829 "/>
<path d="M185.2823 59.0829 L185.8017 58.7366 "/>
<path d="M185.8017 58.7366 L186.1481 58.3903 "/>
<path d="M186.1481 58.3903 L186.3212 58.0439 "/>
<path d="M185.2823 62.3729 L185.2823 62.7193 "/>
<path d="M185.2823 62.7193 L185.4554 63.0656 "/>
<path d="M185.4554 63.0656 L185.6286 63.2387 "/>
<path d="M185.6286 63.2387 L185.9749 63.4119 "/>
<path d="M185.9749 63.4119 L186.6675 63.5851 "/>
<path d="M186.6675 63.5851 L187.5333 63.5851 "/>
<path d="M187.5333 63.5851 L188.2260 63.4119 "/>
<path d="M188.2260 63.4119 L188.5723 63.2387 "/>
<path d="M188.5723 63.2387 L188.7455 63.0656 "/>
<path d="M188.7455 63.0656 L188.9186 62.7193 "/>
<path d="M188.9186 62.7193 L188.9186 62.3729 "/>
<path d="M188.9186 62.3729 L188.7455 62.0266 "/>
<path d="M188.7455 62.0266 L188.5723 61.8535 "/>
<path d="M188.5723 61.8535 L188.2260 61.6803 "/>
<path d="M188.2260 61.6803 L187.5333 61.5071 "/>
<path d="M187.5333 61.5071 L186.6675 61.5071 "/>
<path d="M186.6675 61.5071 L185.9749 61.6803 "/>
<path d="M185.9749 61.6803 L185.6286 61.8535 "/>
<path d="M185.6286 61.8535 L185.4554 62.0266 "/>
<path d="M185.4554 62.0266 L185.2823 62.3729 "/>
</g><g transform="rotate(-90.000000 183.8011 88.4400)">
<text x="183.8011" y="90.2581" transform="scale(-1 1) translate(-367.602200 0)" textLength="8.0087" font-size="4.8485" lengthAdjust="spacingAndGlyphs" text-anchor="middle" opacity="0">C4</text>
</g>
<g class="stroked-text"><desc>C4</desc>
<path d="M185.1087 87.8339 L185.2818 87.6607 "/>
<path d="M185.2818 87.6607 L185.4550 87.1413 "/>
<path d="M185.4550 87.1413 L185.4550 86.7949 "/>
<path d="M185.4550 86.7949 L185.2818 86.2755 "/>
<path d="M185.2818 86.2755 L184.9355 85.9291 "/>
<path d="M184.9355 85.9291 L184.5892 85.7560 "/>
<path d="M184.5892 85.7560 L183.8965 85.5828 "/>
<path d="M183.8965 85.5828 L183.3771 85.5828 "/>
<path d="M183.3771 85.5828 L182.6844 85.7560 "/>
<path d="M182.6844 85.7560 L182.3381 85.9291 "/>
<path d="M182.3381 85.9291 L181.9918 86.2755 "/>
<path d="M181.9918 86.2755 L181.8186 86.7949 "/>
<path d="M181.8186 86.7949 L181.8186 87.1413 "/>
<path d="M181.8186 87.1413 L181.9918 87.6607 "/>
<path d="M181.9918 87.6607 L182.1649 87.8339 "/>
<path d="M183.0307 90.9508 L185.4550 90.9508 "/>
<path d="M181.6455 90.0850 L184.2429 89.2192 "/>
<path d="M184.2429 89.2192 L184.2429 91.4703 "/>
</g></g>
<g style="fill:#000084; fill-opacity:0.0;  stroke:#000084; stroke-width:0.9091; stroke-opacity:1;  stroke-linecap:round; stroke-linejoin:round;">
<path d="M171.2284 29.0336 L171.2284 21.5336 "/>
<path d="M171.2284 21.5336 L156.6829 21.5336 "/>
<path d="M156.6829 29.0336 L171.2284 29.0336 "/>
<path d="M156.6829 21.5336 L156.6829 29.0336 "/>
<path d="M111.2284 138.6400 L111.2284 153.1854 "/>
<path d="M106.6829 138.6400 L111.2284 138.6400 "/>
<path d="M103.9556 141.3672 L106.6829 138.6400 "/>
<path d="M111.2284 153.1854 L103.9556 153.1854 "/>
<path d="M103.9556 153.1854 L103.9556 141.3672 "/>
<path d="M174.9120 187.4400 L174.9120 194.7127 "/>
<path d="M174.9120 194.7127 L189.4575 194.7127 "/>
<path d="M189.4575 187.4400 L174.9120 187.4400 "/>
<path d="M189.4575 194.7127 L189.4575 187.4400 "/>
<path d="M105.9193 167.8491 L97.7375 167.8491 "/>
<path d="M97.7375 167.8491 L97.7375 179.6672 "/>
<path d="M103.6466 171.9400 L100.0102 171.9400 "/>
<path d="M101.8284 171.9400 L101.8284 170.5763 "/>
<path d="M101.8284 171.9400 L103.6466 174.6672 "/>
<path d="M103.6466 174.6672 L100.0102 174.6672 "/>
<path d="M101.8284 174.6672 L101.8284 176.0309 "/>
<path d="M100.0102 174.6672 L101.8284 171.9400 "/>
<path d="M105.9193 179.6672 L105.9193 167.8491 "/>
<path d="M97.7375 179.6672 L105.9193 179.6672 "/>
<path d="M200.2511 143.5145 L192.7511 143.5145 "/>
<path d="M192.7511 143.5145 L192.7511 158.0600 "/>
<path d="M200.2511 158.0600 L200.2511 143.5145 "/>
<path d="M192.7511 158.0600 L200.2511 158.0600 "/>
<path d="M177.7420 128.5036 L185.2420 128.5036 "/>
<path d="M185.2420 128.5036 L185.2420 113.9581 "/>
<path d="M177.7420 113.9581 L177.7420 128.5036 "/>
<path d="M185.2420 113.9581 L177.7420 113.9581 "/>
<path d="M174.9120 172.3309 L174.9120 179.6036 "/>
<path d="M174.9120 179.6036 L189.4575 179.6036 "/>
<path d="M189.4575 172.3309 L174.9120 172.3309 "/>
<path d="M189.4575 179.6036 L189.4575 172.3309 "/>
<path d="M113.6602 22.9800 L106.1602 22.9800 "/>
<path d="M106.1602 22.9800 L106.1602 37.5254 "/>
<path d="M113.6602 37.5254 L113.6602 22.9800 "/>
<path d="M106.1602 37.5254 L113.6602 37.5254 "/>
<path d="M125.7738 43.0081 L125.7738 50.5081 "/>
<path d="M125.7738 50.5081 L140.3193 50.5081 "/>
<path d="M140.3193 43.0081 L125.7738 43.0081 "/>
<path d="M140.3193 50.5081 L140.3193 43.0081 "/>
<path d="M254.4102 22.0491 L254.4102 97.0491 "/>
<path d="M217.5920 22.0491 L254.4102 22.0491 "/>
<path d="M217.5920 22.0491 L217.5920 97.0491 "/>
<path d="M217.5920 37.9581 L224.0203 42.5036 "/>
<path d="M224.0203 42.5036 L217.5920 47.0491 "/>
<path d="M217.5920 97.0491 L254.4102 97.0491 "/>
<path d="M191.0147 23.0909 L183.5147 23.0909 "/>
<path d="M183.5147 23.0909 L183.5147 37.6363 "/>
<path d="M191.0147 37.6363 L191.0147 23.0909 "/>
<path d="M183.5147 37.6363 L191.0147 37.6363 "/>
<path d="M42.5920 187.9581 L42.5920 112.9581 "/>
<path d="M79.4102 187.9581 L42.5920 187.9581 "/>
<path d="M79.4102 187.9581 L79.4102 112.9581 "/>
<path d="M79.4102 172.0491 L72.9819 167.5036 "/>
<path d="M72.9819 167.5036 L79.4102 162.9581 "/>
<path d="M79.4102 112.9581 L42.5920 112.9581 "/>
<path d="M125.7738 21.5336 L125.7738 29.0336 "/>
<path d="M125.7738 29.0336 L140.3193 29.0336 "/>
<path d="M140.3193 21.5336 L125.7738 21.5336 "/>
<path d="M140.3193 29.0336 L140.3193 21.5336 "/>
<path d="M135.2902 175.2581 L158.0175 175.2581 "/>
<path d="M158.0175 175.2581 L161.6538 171.6218 "/>
<path d="M161.6538 171.6218 L161.6538 160.7127 "/>
<path d="M135.2902 160.7127 L135.2902 175.2581 "/>
<path d="M161.6538 160.7127 L135.2902 160.7127 "/>
<path d="M106.1602 66.6200 L113.6602 66.6200 "/>
<path d="M113.6602 66.6200 L113.6602 52.0745 "/>
<path d="M106.1602 52.0745 L106.1602 66.6200 "/>
<path d="M113.6602 52.0745 L106.1602 52.0745 "/>
<path d="M120.2456 152.6291 L127.7456 152.6291 "/>
<path d="M127.7456 152.6291 L127.7456 138.0836 "/>
<path d="M120.2456 138.0836 L120.2456 152.6291 "/>
<path d="M127.7456 138.0836 L120.2456 138.0836 "/>
<path d="M185.0111 143.7363 L177.5111 143.7363 "/>
<path d="M177.5111 143.7363 L177.5111 158.2818 "/>
<path d="M185.0111 158.2818 L185.0111 143.7363 "/>
<path d="M177.5111 158.2818 L185.0111 158.2818 "/>
<path d="M117.1238 100.2145 L109.6238 100.2145 "/>
<path d="M109.6238 100.2145 L109.6238 114.7600 "/>
<path d="M117.1238 114.7600 L117.1238 100.2145 "/>
<path d="M109.6238 114.7600 L117.1238 114.7600 "/>
<path d="M171.2284 50.5081 L171.2284 43.0081 "/>
<path d="M171.2284 43.0081 L156.6829 43.0081 "/>
<path d="M156.6829 50.5081 L171.2284 50.5081 "/>
<path d="M156.6829 43.0081 L156.6829 50.5081 "/>
<path d="M114.8738 88.1463 L114.8738 80.6463 "/>
<path d="M114.8738 80.6463 L100.3284 80.6463 "/>
<path d="M100.3284 88.1463 L114.8738 88.1463 "/>
<path d="M100.3284 80.6463 L100.3284 88.1463 "/>
<path d="M192.7511 128.5036 L200.2511 128.5036 "/>
<path d="M200.2511 128.5036 L200.2511 113.9581 "/>
<path d="M192.7511 113.9581 L192.7511 128.5036 "/>
<path d="M200.2511 113.9581 L192.7511 113.9581 "/>
<path d="M254.4102 112.9581 L254.4102 187.9581 "/>
<path d="M217.5920 112.9581 L254.4102 112.9581 "/>
<path d="M217.5920 112.9581 L217.5920 187.9581 "/>
<path d="M217.5920 128.8672 L224.0203 133.4127 "/>
<path d="M224.0203 133.4127 L217.5920 137.9581 "/>
<path d="M217.5920 187.9581 L254.4102 187.9581 "/>
<path d="M42.5920 97.0491 L42.5920 22.0491 "/>
<path d="M79.4102 97.0491 L42.5920 97.0491 "/>
<path d="M79.4102 97.0491 L79.4102 22.0491 "/>
<path d="M79.4102 81.1400 L72.9819 76.5945 "/>
<path d="M72.9819 76.5945 L79.4102 72.0491 "/>
<path d="M79.4102 22.0491 L42.5920 22.0491 "/>
<path d="M171.2284 79.0727 L134.8647 79.0727 "/>
<path d="M134.8647 79.0727 L125.7738 88.1636 "/>
<path d="M125.7738 88.1636 L125.7738 106.3454 "/>
<path d="M171.2284 106.3454 L171.2284 79.0727 "/>
<path d="M125.7738 106.3454 L171.2284 106.3454 "/>
<path d="M124.5975 168.5927 L113.2338 168.5927 "/>
<path d="M113.2338 168.5927 L113.2338 186.7745 "/>
<path d="M124.5975 186.7745 L124.5975 168.5927 "/>
<path d="M113.2338 186.7745 L124.5975 186.7745 "/>
<path d="M183.5147 66.2691 L191.0147 66.2691 "/>
<path d="M191.0147 66.2691 L191.0147 51.7236 "/>
<path d="M183.5147 51.7236 L183.5147 66.2691 "/>
<path d="M191.0147 51.7236 L183.5147 51.7236 "/>
<path d="M187.4375 81.1672 L180.1647 81.1672 "/>
<path d="M180.1647 81.1672 L180.1647 95.7127 "/>
<path d="M187.4375 95.7127 L187.4375 81.1672 "/>
<path d="M180.1647 95.7127 L187.4375 95.7127 "/>
<g>
</g>
<g>
</g>
<g>
</g>
<g>
</g>
<g>
</g>
<g>
</g>
<g>
</g>
<g>
</g>
<g>
</g>
<g>
</g>
<g>
</g>
<g>
</g>
<g>
</g>
<g>
</g>
<g>
</g>
<g>
</g>
<g>
</g>
<g>
</g>
<g>
</g>
<g>
</g>
<g>
</g>
<g>
</g>
<g>
</g>
<g>
</g>
<g>
</g>
<g>
</g>
<g>
</g>
<g>
</g>
<g>
</g>
<g>
</g>
<g>
</g>
<g>
</g>
<g>
</g>
<g>
</g>
<g>
</g>
<g>
</g>
<g>
</g>
<g>
</g>
<g>
</g>
<g>
</g>
<g>
</g>
</g> 
<svg:g><svg:g><svg:title>SVG Image created as TFI2CADT01-Edge_Cuts.svg date 2024/02/12 20:34:46 </svg:title>
  <svg:desc>Image generated by PCBNEW </svg:desc>
<svg:g style="fill:#C2C200; fill-opacity:1.0000;stroke:#C2C200; stroke-opacity:1.0000; stroke-linecap:round; stroke-linejoin:round;" transform="translate(0 0) scale(1 1)">
</svg:g>
<svg:g style="fill:#C2C200; fill-opacity:0.0;  stroke:#C2C200; stroke-width:0.0000; stroke-opacity:1;  stroke-linecap:round; stroke-linejoin:round;">
</svg:g>
<svg:g style="fill:#C2C200; fill-opacity:0.0;  stroke:#C2C200; stroke-width:0.9091; stroke-opacity:1;  stroke-linecap:round; stroke-linejoin:round;">
<svg:path d="M34.8647 0.4581 L262.1375 0.4581 "/>
<svg:path d="M262.1375 0.4581 L262.1375 209.5491 "/>
<svg:path d="M34.8647 0.4581 L34.8647 209.5491 "/>
<svg:path d="M34.8647 209.5491 L262.1375 209.5491 "/>
<svg:g>
</svg:g>
<svg:g>
</svg:g>
<svg:g>
</svg:g>
<svg:g>
</svg:g>
<svg:g>
</svg:g>
<svg:g>
</svg:g>
<svg:g>
</svg:g>
<svg:g>
</svg:g>
<svg:g>
</svg:g>
<svg:g>
</svg:g>
<svg:g>
</svg:g>
<svg:g>
</svg:g>
<svg:g>
</svg:g>
<svg:g>
</svg:g>
<svg:g>
</svg:g>
<svg:g>
</svg:g>
<svg:g>
</svg:g>
<svg:g>
</svg:g>
<svg:g>
</svg:g>
<svg:g>
</svg:g>
<svg:g>
</svg:g>
<svg:g>
</svg:g>
<svg:g>
</svg:g>
<svg:g>
</svg:g>
<svg:g>
</svg:g>
<svg:g>
</svg:g>
<svg:g>
</svg:g>
<svg:g>
</svg:g>
<svg:g>
</svg:g>
<svg:g>
</svg:g>
<svg:g>
</svg:g>
<svg:g>
</svg:g>
<svg:g>
</svg:g>
<svg:g>
</svg:g>
<svg:g>
</svg:g>
<svg:g>
</svg:g>
<svg:g>
</svg:g>
<svg:g>
</svg:g>
<svg:g>
</svg:g>
<svg:g>
</svg:g>
<svg:g>
</svg:g>
</svg:g> 
</svg:g></svg:g></svg>
