  0
SECTION
  2
HEADER
  9
$ANGBASE
  50
0.0
  9
$ANGDIR
  70
1
  9
$MEASUREMENT
  70
0
  0
ENDSEC
  0
SECTION
  2
TABLES
  0
TABLE
  2
LTYPE
  70
4
  0
LTYPE
  5
40F
  2
CONTINUOUS
  70
0
  3
Solid line
  72
65
  73
0
  40
0.0
  0
LTYPE
  5
410
  2
DASHDOT
 70
0
  3
Dash Dot ____ _ ____ _
 72
65
 73
4
 40
2.0
 49
1.25
 49
-0.25
 49
0.25
 49
-0.25
  0
LTYPE
  5
411
  2
DASHED
 70
0
  3
Dashed __ __ __ __ __
 72
65
 73
2
 40
0.75
 49
0.5
 49
-0.25
  0
LTYPE
  5
43B
  2
DOTTED
 70
0
  3
Dotted .  .  .  .
 72
65
 73
2
 40
0.2
 49
0.0
 49
-0.2
  0
ENDTAB
  0
TABLE
  2
STYLE
  70
4
  0
STYLE
  2
KICAD
  70
0
  40
0
  41
1
  42
1
  50
0
  71
0
  3
isocp.shx
  0
STYLE
  2
KICADB
  70
0
  40
0
  41
1
  42
1
  50
0
  71
0
  3
isocp.shx
  0
STYLE
  2
KICADI
  70
0
  40
0
  41
1
  42
1
  50
15
  71
0
  3
isocp.shx
  0
STYLE
  2
KICADBI
  70
0
  40
0
  41
1
  42
1
  50
15
  71
0
  3
isocp.shx
  0
ENDTAB
  0
TABLE
  2
LAYER
  70
1
  0
LAYER
  2
BLACK
  70
0
  62
7
  6
CONTINUOUS
  0
ENDTAB
  0
ENDSEC
  0
SECTION
  2
ENTITIES
0
LINE
8
BLACK
6
CONTINUOUS
10
0.644927
20
0.0613132
11
0.645503
21
0.0599213
0
LINE
8
BLACK
6
CONTINUOUS
10
0.645503
20
0.0599213
11
0.644927
21
0.0585293
0
LINE
8
BLACK
6
CONTINUOUS
10
0.644927
20
0.0585293
11
0.643535
21
0.0579528
0
LINE
8
BLACK
6
CONTINUOUS
10
0.643535
20
0.0579528
11
0.632465
21
0.0579528
0
LINE
8
BLACK
6
CONTINUOUS
10
0.632465
20
0.0579528
11
0.631073
21
0.0585293
0
LINE
8
BLACK
6
CONTINUOUS
10
0.631073
20
0.0585293
11
0.630497
21
0.0599213
0
LINE
8
BLACK
6
CONTINUOUS
10
0.630497
20
0.0599213
11
0.631073
21
0.0613132
0
LINE
8
BLACK
6
CONTINUOUS
10
0.631073
20
0.0613132
11
0.632465
21
0.0618898
0
LINE
8
BLACK
6
CONTINUOUS
10
0.632465
20
0.0618898
11
0.643535
21
0.0618898
0
LINE
8
BLACK
6
CONTINUOUS
10
0.643535
20
0.0618898
11
0.644927
21
0.0613132
0
LINE
8
BLACK
6
CONTINUOUS
10
0.119081
20
0.0877813
11
0.118504
21
0.0891732
0
LINE
8
BLACK
6
CONTINUOUS
10
0.118504
20
0.0891732
11
0.119081
21
0.0905652
0
LINE
8
BLACK
6
CONTINUOUS
10
0.119081
20
0.0905652
11
0.120472
21
0.0911417
0
LINE
8
BLACK
6
CONTINUOUS
10
0.120472
20
0.0911417
11
0.175591
21
0.0911417
0
LINE
8
BLACK
6
CONTINUOUS
10
0.175591
20
0.0911417
11
0.175591
21
0.160039
0
LINE
8
BLACK
6
CONTINUOUS
10
0.175591
20
0.160039
11
0.176167
21
0.161431
0
LINE
8
BLACK
6
CONTINUOUS
10
0.176167
20
0.161431
11
0.177559
21
0.162008
0
LINE
8
BLACK
6
CONTINUOUS
10
0.177559
20
0.162008
11
0.216535
21
0.162008
0
LINE
8
BLACK
6
CONTINUOUS
10
0.216535
20
0.162008
11
0.217927
21
0.161431
0
LINE
8
BLACK
6
CONTINUOUS
10
0.217927
20
0.161431
11
0.218504
21
0.160039
0
LINE
8
BLACK
6
CONTINUOUS
10
0.218504
20
0.160039
11
0.217927
21
0.158647
0
LINE
8
BLACK
6
CONTINUOUS
10
0.217927
20
0.158647
11
0.216535
21
0.158071
0
LINE
8
BLACK
6
CONTINUOUS
10
0.216535
20
0.158071
11
0.179528
21
0.158071
0
LINE
8
BLACK
6
CONTINUOUS
10
0.179528
20
0.158071
11
0.179528
21
0.0891732
0
LINE
8
BLACK
6
CONTINUOUS
10
0.179528
20
0.0891732
11
0.178951
21
0.0877813
0
LINE
8
BLACK
6
CONTINUOUS
10
0.178951
20
0.0877813
11
0.177559
21
0.0872047
0
LINE
8
BLACK
6
CONTINUOUS
10
0.177559
20
0.0872047
11
0.120472
21
0.0872047
0
LINE
8
BLACK
6
CONTINUOUS
10
0.120472
20
0.0872047
11
0.119081
21
0.0877813
0
LINE
8
BLACK
6
CONTINUOUS
10
0.808085
20
0.161431
11
0.808661
21
0.160039
0
LINE
8
BLACK
6
CONTINUOUS
10
0.808661
20
0.160039
11
0.808661
21
0.0911417
0
LINE
8
BLACK
6
CONTINUOUS
10
0.808661
20
0.0911417
11
0.86378
21
0.0911417
0
LINE
8
BLACK
6
CONTINUOUS
10
0.86378
20
0.0911417
11
0.865171
21
0.0905652
0
LINE
8
BLACK
6
CONTINUOUS
10
0.865171
20
0.0905652
11
0.865748
21
0.0891732
0
LINE
8
BLACK
6
CONTINUOUS
10
0.865748
20
0.0891732
11
0.865171
21
0.0877813
0
LINE
8
BLACK
6
CONTINUOUS
10
0.865171
20
0.0877813
11
0.86378
21
0.0872047
0
LINE
8
BLACK
6
CONTINUOUS
10
0.86378
20
0.0872047
11
0.806693
21
0.0872047
0
LINE
8
BLACK
6
CONTINUOUS
10
0.806693
20
0.0872047
11
0.805301
21
0.0877813
0
LINE
8
BLACK
6
CONTINUOUS
10
0.805301
20
0.0877813
11
0.804724
21
0.0891732
0
LINE
8
BLACK
6
CONTINUOUS
10
0.804724
20
0.0891732
11
0.804724
21
0.160039
0
LINE
8
BLACK
6
CONTINUOUS
10
0.804724
20
0.160039
11
0.805301
21
0.161431
0
LINE
8
BLACK
6
CONTINUOUS
10
0.805301
20
0.161431
11
0.806693
21
0.162008
0
LINE
8
BLACK
6
CONTINUOUS
10
0.806693
20
0.162008
11
0.808085
21
0.161431
0
LINE
8
BLACK
6
CONTINUOUS
10
0.206448
20
0.119252
11
0.207561
21
0.117566
0
LINE
8
BLACK
6
CONTINUOUS
10
0.207561
20
0.117566
11
0.20733
21
0.11556
0
LINE
8
BLACK
6
CONTINUOUS
10
0.20733
20
0.11556
11
0.205455
21
0.11181
0
LINE
8
BLACK
6
CONTINUOUS
10
0.205455
20
0.11181
11
0.204929
21
0.111101
0
LINE
8
BLACK
6
CONTINUOUS
10
0.204929
20
0.111101
11
0.204902
21
0.111043
0
LINE
8
BLACK
6
CONTINUOUS
10
0.204902
20
0.111043
11
0.202444
21
0.108585
0
LINE
8
BLACK
6
CONTINUOUS
10
0.202444
20
0.108585
11
0.229857
21
0.108585
0
LINE
8
BLACK
6
CONTINUOUS
10
0.229857
20
0.108585
11
0.229857
21
0.11688
0
LINE
8
BLACK
6
CONTINUOUS
10
0.229857
20
0.11688
11
0.230036
21
0.11789
0
LINE
8
BLACK
6
CONTINUOUS
10
0.230036
20
0.11789
11
0.231334
21
0.119438
0
LINE
8
BLACK
6
CONTINUOUS
10
0.231334
20
0.119438
11
0.233323
21
0.119788
0
LINE
8
BLACK
6
CONTINUOUS
10
0.233323
20
0.119788
11
0.235072
21
0.118778
0
LINE
8
BLACK
6
CONTINUOUS
10
0.235072
20
0.118778
11
0.235763
21
0.11688
0
LINE
8
BLACK
6
CONTINUOUS
10
0.235763
20
0.11688
11
0.235763
21
0.0943832
0
LINE
8
BLACK
6
CONTINUOUS
10
0.235763
20
0.0943832
11
0.235585
21
0.0933733
0
LINE
8
BLACK
6
CONTINUOUS
10
0.235585
20
0.0933733
11
0.234287
21
0.0918261
0
LINE
8
BLACK
6
CONTINUOUS
10
0.234287
20
0.0918261
11
0.232297
21
0.0914753
0
LINE
8
BLACK
6
CONTINUOUS
10
0.232297
20
0.0914753
11
0.230548
21
0.0924852
0
LINE
8
BLACK
6
CONTINUOUS
10
0.230548
20
0.0924852
11
0.229857
21
0.0943832
0
LINE
8
BLACK
6
CONTINUOUS
10
0.229857
20
0.0943832
11
0.229857
21
0.102679
0
LINE
8
BLACK
6
CONTINUOUS
10
0.229857
20
0.102679
11
0.19344
21
0.102679
0
LINE
8
BLACK
6
CONTINUOUS
10
0.19344
20
0.102679
11
0.19243
21
0.102857
0
LINE
8
BLACK
6
CONTINUOUS
10
0.19243
20
0.102857
11
0.1923
21
0.102966
0
LINE
8
BLACK
6
CONTINUOUS
10
0.1923
20
0.102966
11
0.192131
21
0.102985
0
LINE
8
BLACK
6
CONTINUOUS
10
0.192131
20
0.102985
11
0.191539
21
0.103605
0
LINE
8
BLACK
6
CONTINUOUS
10
0.191539
20
0.103605
11
0.190883
21
0.104155
0
LINE
8
BLACK
6
CONTINUOUS
10
0.190883
20
0.104155
11
0.190854
21
0.104323
0
LINE
8
BLACK
6
CONTINUOUS
10
0.190854
20
0.104323
11
0.190736
21
0.104445
0
LINE
8
BLACK
6
CONTINUOUS
10
0.190736
20
0.104445
11
0.190681
21
0.105301
0
LINE
8
BLACK
6
CONTINUOUS
10
0.190681
20
0.105301
11
0.190532
21
0.106145
0
LINE
8
BLACK
6
CONTINUOUS
10
0.190532
20
0.106145
11
0.190617
21
0.106292
0
LINE
8
BLACK
6
CONTINUOUS
10
0.190617
20
0.106292
11
0.190606
21
0.106461
0
LINE
8
BLACK
6
CONTINUOUS
10
0.190606
20
0.106461
11
0.191114
21
0.107151
0
LINE
8
BLACK
6
CONTINUOUS
10
0.191114
20
0.107151
11
0.191542
21
0.107894
0
LINE
8
BLACK
6
CONTINUOUS
10
0.191542
20
0.107894
11
0.191702
21
0.107952
0
LINE
8
BLACK
6
CONTINUOUS
10
0.191702
20
0.107952
11
0.191802
21
0.108089
0
LINE
8
BLACK
6
CONTINUOUS
10
0.191802
20
0.108089
11
0.197183
21
0.111676
0
LINE
8
BLACK
6
CONTINUOUS
10
0.197183
20
0.111676
11
0.200387
21
0.11488
0
LINE
8
BLACK
6
CONTINUOUS
10
0.200387
20
0.11488
11
0.202048
21
0.118201
0
LINE
8
BLACK
6
CONTINUOUS
10
0.202048
20
0.118201
11
0.202659
21
0.119025
0
LINE
8
BLACK
6
CONTINUOUS
10
0.202659
20
0.119025
11
0.204512
21
0.119828
0
LINE
8
BLACK
6
CONTINUOUS
10
0.204512
20
0.119828
11
0.206448
21
0.119252
0
LINE
8
BLACK
6
CONTINUOUS
10
0.644927
20
0.101471
11
0.645503
21
0.100079
0
LINE
8
BLACK
6
CONTINUOUS
10
0.645503
20
0.100079
11
0.644927
21
0.0986868
0
LINE
8
BLACK
6
CONTINUOUS
10
0.644927
20
0.0986868
11
0.643535
21
0.0981102
0
LINE
8
BLACK
6
CONTINUOUS
10
0.643535
20
0.0981102
11
0.632465
21
0.0981102
0
LINE
8
BLACK
6
CONTINUOUS
10
0.632465
20
0.0981102
11
0.631073
21
0.0986868
0
LINE
8
BLACK
6
CONTINUOUS
10
0.631073
20
0.0986868
11
0.630497
21
0.100079
0
LINE
8
BLACK
6
CONTINUOUS
10
0.630497
20
0.100079
11
0.631073
21
0.101471
0
LINE
8
BLACK
6
CONTINUOUS
10
0.631073
20
0.101471
11
0.632465
21
0.102047
0
LINE
8
BLACK
6
CONTINUOUS
10
0.632465
20
0.102047
11
0.643535
21
0.102047
0
LINE
8
BLACK
6
CONTINUOUS
10
0.643535
20
0.102047
11
0.644927
21
0.101471
0
LINE
8
BLACK
6
CONTINUOUS
10
0.554809
20
0.107742
11
0.553417
21
0.107165
0
LINE
8
BLACK
6
CONTINUOUS
10
0.553417
20
0.107165
11
0.552025
21
0.107742
0
LINE
8
BLACK
6
CONTINUOUS
10
0.552025
20
0.107742
11
0.551449
21
0.109134
0
LINE
8
BLACK
6
CONTINUOUS
10
0.551449
20
0.109134
11
0.551449
21
0.211496
0
LINE
8
BLACK
6
CONTINUOUS
10
0.551449
20
0.211496
11
0.552025
21
0.212888
0
LINE
8
BLACK
6
CONTINUOUS
10
0.552025
20
0.212888
11
0.553417
21
0.213465
0
LINE
8
BLACK
6
CONTINUOUS
10
0.553417
20
0.213465
11
0.554809
21
0.212888
0
LINE
8
BLACK
6
CONTINUOUS
10
0.554809
20
0.212888
11
0.555386
21
0.211496
0
LINE
8
BLACK
6
CONTINUOUS
10
0.555386
20
0.211496
11
0.555386
21
0.109134
0
LINE
8
BLACK
6
CONTINUOUS
10
0.555386
20
0.109134
11
0.554809
21
0.107742
0
LINE
8
BLACK
6
CONTINUOUS
10
0.644927
20
0.126746
11
0.645503
21
0.125354
0
LINE
8
BLACK
6
CONTINUOUS
10
0.645503
20
0.125354
11
0.644927
21
0.123962
0
LINE
8
BLACK
6
CONTINUOUS
10
0.644927
20
0.123962
11
0.643535
21
0.123386
0
LINE
8
BLACK
6
CONTINUOUS
10
0.643535
20
0.123386
11
0.632465
21
0.123386
0
LINE
8
BLACK
6
CONTINUOUS
10
0.632465
20
0.123386
11
0.631073
21
0.123962
0
LINE
8
BLACK
6
CONTINUOUS
10
0.631073
20
0.123962
11
0.630497
21
0.125354
0
LINE
8
BLACK
6
CONTINUOUS
10
0.630497
20
0.125354
11
0.631073
21
0.126746
0
LINE
8
BLACK
6
CONTINUOUS
10
0.631073
20
0.126746
11
0.632465
21
0.127323
0
LINE
8
BLACK
6
CONTINUOUS
10
0.632465
20
0.127323
11
0.643535
21
0.127323
0
LINE
8
BLACK
6
CONTINUOUS
10
0.643535
20
0.127323
11
0.644927
21
0.126746
0
LINE
8
BLACK
6
CONTINUOUS
10
0.305014
20
0.200668
11
0.305591
21
0.199276
0
LINE
8
BLACK
6
CONTINUOUS
10
0.305591
20
0.199276
11
0.305591
21
0.126441
0
LINE
8
BLACK
6
CONTINUOUS
10
0.305591
20
0.126441
11
0.305014
21
0.125049
0
LINE
8
BLACK
6
CONTINUOUS
10
0.305014
20
0.125049
11
0.303622
21
0.124472
0
LINE
8
BLACK
6
CONTINUOUS
10
0.303622
20
0.124472
11
0.30223
21
0.125049
0
LINE
8
BLACK
6
CONTINUOUS
10
0.30223
20
0.125049
11
0.301654
21
0.126441
0
LINE
8
BLACK
6
CONTINUOUS
10
0.301654
20
0.126441
11
0.301654
21
0.197307
0
LINE
8
BLACK
6
CONTINUOUS
10
0.301654
20
0.197307
11
0.258346
21
0.197307
0
LINE
8
BLACK
6
CONTINUOUS
10
0.258346
20
0.197307
11
0.258346
21
0.126441
0
LINE
8
BLACK
6
CONTINUOUS
10
0.258346
20
0.126441
11
0.25777
21
0.125049
0
LINE
8
BLACK
6
CONTINUOUS
10
0.25777
20
0.125049
11
0.256378
21
0.124472
0
LINE
8
BLACK
6
CONTINUOUS
10
0.256378
20
0.124472
11
0.254986
21
0.125049
0
LINE
8
BLACK
6
CONTINUOUS
10
0.254986
20
0.125049
11
0.254409
21
0.126441
0
LINE
8
BLACK
6
CONTINUOUS
10
0.254409
20
0.126441
11
0.254409
21
0.199276
0
LINE
8
BLACK
6
CONTINUOUS
10
0.254409
20
0.199276
11
0.254986
21
0.200668
0
LINE
8
BLACK
6
CONTINUOUS
10
0.254986
20
0.200668
11
0.256378
21
0.201244
0
LINE
8
BLACK
6
CONTINUOUS
10
0.256378
20
0.201244
11
0.303622
21
0.201244
0
LINE
8
BLACK
6
CONTINUOUS
10
0.303622
20
0.201244
11
0.305014
21
0.200668
0
LINE
8
BLACK
6
CONTINUOUS
10
0.336455
20
0.149677
11
0.337031
21
0.148286
0
LINE
8
BLACK
6
CONTINUOUS
10
0.337031
20
0.148286
11
0.337031
21
0.127714
0
LINE
8
BLACK
6
CONTINUOUS
10
0.337031
20
0.127714
11
0.336455
21
0.126323
0
LINE
8
BLACK
6
CONTINUOUS
10
0.336455
20
0.126323
11
0.335063
21
0.125746
0
LINE
8
BLACK
6
CONTINUOUS
10
0.335063
20
0.125746
11
0.333671
21
0.126323
0
LINE
8
BLACK
6
CONTINUOUS
10
0.333671
20
0.126323
11
0.333094
21
0.127714
0
LINE
8
BLACK
6
CONTINUOUS
10
0.333094
20
0.127714
11
0.333094
21
0.148286
0
LINE
8
BLACK
6
CONTINUOUS
10
0.333094
20
0.148286
11
0.333671
21
0.149677
0
LINE
8
BLACK
6
CONTINUOUS
10
0.333671
20
0.149677
11
0.335063
21
0.150254
0
LINE
8
BLACK
6
CONTINUOUS
10
0.335063
20
0.150254
11
0.336455
21
0.149677
0
LINE
8
BLACK
6
CONTINUOUS
10
0.394329
20
0.149677
11
0.394906
21
0.148286
0
LINE
8
BLACK
6
CONTINUOUS
10
0.394906
20
0.148286
11
0.394906
21
0.127714
0
LINE
8
BLACK
6
CONTINUOUS
10
0.394906
20
0.127714
11
0.394329
21
0.126323
0
LINE
8
BLACK
6
CONTINUOUS
10
0.394329
20
0.126323
11
0.392937
21
0.125746
0
LINE
8
BLACK
6
CONTINUOUS
10
0.392937
20
0.125746
11
0.391545
21
0.126323
0
LINE
8
BLACK
6
CONTINUOUS
10
0.391545
20
0.126323
11
0.390969
21
0.127714
0
LINE
8
BLACK
6
CONTINUOUS
10
0.390969
20
0.127714
11
0.390969
21
0.148286
0
LINE
8
BLACK
6
CONTINUOUS
10
0.390969
20
0.148286
11
0.391545
21
0.149677
0
LINE
8
BLACK
6
CONTINUOUS
10
0.391545
20
0.149677
11
0.392937
21
0.150254
0
LINE
8
BLACK
6
CONTINUOUS
10
0.392937
20
0.150254
11
0.394329
21
0.149677
0
LINE
8
BLACK
6
CONTINUOUS
10
0.235072
20
0.150649
11
0.235763
21
0.148751
0
LINE
8
BLACK
6
CONTINUOUS
10
0.235763
20
0.148751
11
0.235763
21
0.145002
0
LINE
8
BLACK
6
CONTINUOUS
10
0.235763
20
0.145002
11
0.23561
21
0.144132
0
LINE
8
BLACK
6
CONTINUOUS
10
0.23561
20
0.144132
11
0.235611
21
0.144068
0
LINE
8
BLACK
6
CONTINUOUS
10
0.235611
20
0.144068
11
0.233737
21
0.138444
0
LINE
8
BLACK
6
CONTINUOUS
10
0.233737
20
0.138444
11
0.233248
21
0.137542
0
LINE
8
BLACK
6
CONTINUOUS
10
0.233248
20
0.137542
11
0.233098
21
0.13745
0
LINE
8
BLACK
6
CONTINUOUS
10
0.233098
20
0.13745
11
0.233023
21
0.13729
0
LINE
8
BLACK
6
CONTINUOUS
10
0.233023
20
0.13729
11
0.229274
21
0.13354
0
LINE
8
BLACK
6
CONTINUOUS
10
0.229274
20
0.13354
11
0.228434
21
0.132952
0
LINE
8
BLACK
6
CONTINUOUS
10
0.228434
20
0.132952
11
0.228258
21
0.132937
0
LINE
8
BLACK
6
CONTINUOUS
10
0.228258
20
0.132937
11
0.22812
21
0.132827
0
LINE
8
BLACK
6
CONTINUOUS
10
0.22812
20
0.132827
11
0.222495
21
0.130952
0
LINE
8
BLACK
6
CONTINUOUS
10
0.222495
20
0.130952
11
0.221622
21
0.130823
0
LINE
8
BLACK
6
CONTINUOUS
10
0.221622
20
0.130823
11
0.221562
21
0.130801
0
LINE
8
BLACK
6
CONTINUOUS
10
0.221562
20
0.130801
11
0.19344
21
0.130801
0
LINE
8
BLACK
6
CONTINUOUS
10
0.19344
20
0.130801
11
0.19243
21
0.130979
0
LINE
8
BLACK
6
CONTINUOUS
10
0.19243
20
0.130979
11
0.190883
21
0.132277
0
LINE
8
BLACK
6
CONTINUOUS
10
0.190883
20
0.132277
11
0.190532
21
0.134266
0
LINE
8
BLACK
6
CONTINUOUS
10
0.190532
20
0.134266
11
0.191542
21
0.136015
0
LINE
8
BLACK
6
CONTINUOUS
10
0.191542
20
0.136015
11
0.19344
21
0.136706
0
LINE
8
BLACK
6
CONTINUOUS
10
0.19344
20
0.136706
11
0.221083
21
0.136706
0
LINE
8
BLACK
6
CONTINUOUS
10
0.221083
20
0.136706
11
0.225591
21
0.138209
0
LINE
8
BLACK
6
CONTINUOUS
10
0.225591
20
0.138209
11
0.228355
21
0.140973
0
LINE
8
BLACK
6
CONTINUOUS
10
0.228355
20
0.140973
11
0.229857
21
0.145481
0
LINE
8
BLACK
6
CONTINUOUS
10
0.229857
20
0.145481
11
0.229857
21
0.148751
0
LINE
8
BLACK
6
CONTINUOUS
10
0.229857
20
0.148751
11
0.230036
21
0.149761
0
LINE
8
BLACK
6
CONTINUOUS
10
0.230036
20
0.149761
11
0.231334
21
0.151309
0
LINE
8
BLACK
6
CONTINUOUS
10
0.231334
20
0.151309
11
0.233323
21
0.151659
0
LINE
8
BLACK
6
CONTINUOUS
10
0.233323
20
0.151659
11
0.235072
21
0.150649
0
LINE
8
BLACK
6
CONTINUOUS
10
0.0108407
20
0.37403
11
0.0114173
21
0.372638
0
LINE
8
BLACK
6
CONTINUOUS
10
0.0114173
20
0.372638
11
0.0114173
21
0.139173
0
LINE
8
BLACK
6
CONTINUOUS
10
0.0114173
20
0.139173
11
0.0108407
21
0.137781
0
LINE
8
BLACK
6
CONTINUOUS
10
0.0108407
20
0.137781
11
0.00944882
21
0.137205
0
LINE
8
BLACK
6
CONTINUOUS
10
0.00944882
20
0.137205
11
0.00805689
21
0.137781
0
LINE
8
BLACK
6
CONTINUOUS
10
0.00805689
20
0.137781
11
0.00748031
21
0.139173
0
LINE
8
BLACK
6
CONTINUOUS
10
0.00748031
20
0.139173
11
0.00748031
21
0.372638
0
LINE
8
BLACK
6
CONTINUOUS
10
0.00748031
20
0.372638
11
0.00805689
21
0.37403
0
LINE
8
BLACK
6
CONTINUOUS
10
0.00805689
20
0.37403
11
0.00944882
21
0.374606
0
LINE
8
BLACK
6
CONTINUOUS
10
0.00944882
20
0.374606
11
0.0108407
21
0.37403
0
LINE
8
BLACK
6
CONTINUOUS
10
0.976195
20
0.37403
11
0.976772
21
0.372638
0
LINE
8
BLACK
6
CONTINUOUS
10
0.976772
20
0.372638
11
0.976772
21
0.139173
0
LINE
8
BLACK
6
CONTINUOUS
10
0.976772
20
0.139173
11
0.976195
21
0.137781
0
LINE
8
BLACK
6
CONTINUOUS
10
0.976195
20
0.137781
11
0.974803
21
0.137205
0
LINE
8
BLACK
6
CONTINUOUS
10
0.974803
20
0.137205
11
0.973411
21
0.137781
0
LINE
8
BLACK
6
CONTINUOUS
10
0.973411
20
0.137781
11
0.972835
21
0.139173
0
LINE
8
BLACK
6
CONTINUOUS
10
0.972835
20
0.139173
11
0.972835
21
0.372638
0
LINE
8
BLACK
6
CONTINUOUS
10
0.972835
20
0.372638
11
0.973411
21
0.37403
0
LINE
8
BLACK
6
CONTINUOUS
10
0.973411
20
0.37403
11
0.974803
21
0.374606
0
LINE
8
BLACK
6
CONTINUOUS
10
0.974803
20
0.374606
11
0.976195
21
0.37403
0
LINE
8
BLACK
6
CONTINUOUS
10
0.431975
20
0.147112
11
0.430583
21
0.146535
0
LINE
8
BLACK
6
CONTINUOUS
10
0.430583
20
0.146535
11
0.429191
21
0.147112
0
LINE
8
BLACK
6
CONTINUOUS
10
0.429191
20
0.147112
11
0.428614
21
0.148504
0
LINE
8
BLACK
6
CONTINUOUS
10
0.428614
20
0.148504
11
0.428614
21
0.211496
0
LINE
8
BLACK
6
CONTINUOUS
10
0.428614
20
0.211496
11
0.429191
21
0.212888
0
LINE
8
BLACK
6
CONTINUOUS
10
0.429191
20
0.212888
11
0.430583
21
0.213465
0
LINE
8
BLACK
6
CONTINUOUS
10
0.430583
20
0.213465
11
0.431975
21
0.212888
0
LINE
8
BLACK
6
CONTINUOUS
10
0.431975
20
0.212888
11
0.432551
21
0.211496
0
LINE
8
BLACK
6
CONTINUOUS
10
0.432551
20
0.211496
11
0.432551
21
0.148504
0
LINE
8
BLACK
6
CONTINUOUS
10
0.432551
20
0.148504
11
0.431975
21
0.147112
0
LINE
8
BLACK
6
CONTINUOUS
10
0.644927
20
0.166904
11
0.645503
21
0.165512
0
LINE
8
BLACK
6
CONTINUOUS
10
0.645503
20
0.165512
11
0.644927
21
0.16412
0
LINE
8
BLACK
6
CONTINUOUS
10
0.644927
20
0.16412
11
0.643535
21
0.163543
0
LINE
8
BLACK
6
CONTINUOUS
10
0.643535
20
0.163543
11
0.632465
21
0.163543
0
LINE
8
BLACK
6
CONTINUOUS
10
0.632465
20
0.163543
11
0.631073
21
0.16412
0
LINE
8
BLACK
6
CONTINUOUS
10
0.631073
20
0.16412
11
0.630497
21
0.165512
0
LINE
8
BLACK
6
CONTINUOUS
10
0.630497
20
0.165512
11
0.631073
21
0.166904
0
LINE
8
BLACK
6
CONTINUOUS
10
0.631073
20
0.166904
11
0.632465
21
0.16748
0
LINE
8
BLACK
6
CONTINUOUS
10
0.632465
20
0.16748
11
0.643535
21
0.16748
0
LINE
8
BLACK
6
CONTINUOUS
10
0.643535
20
0.16748
11
0.644927
21
0.166904
0
LINE
8
BLACK
6
CONTINUOUS
10
0.250109
20
0.269526
11
0.251222
21
0.26784
0
LINE
8
BLACK
6
CONTINUOUS
10
0.251222
20
0.26784
11
0.250991
21
0.265834
0
LINE
8
BLACK
6
CONTINUOUS
10
0.250991
20
0.265834
11
0.249116
21
0.262084
0
LINE
8
BLACK
6
CONTINUOUS
10
0.249116
20
0.262084
11
0.248591
21
0.261375
0
LINE
8
BLACK
6
CONTINUOUS
10
0.248591
20
0.261375
11
0.248563
21
0.261317
0
LINE
8
BLACK
6
CONTINUOUS
10
0.248563
20
0.261317
11
0.246105
21
0.258858
0
LINE
8
BLACK
6
CONTINUOUS
10
0.246105
20
0.258858
11
0.273519
21
0.258858
0
LINE
8
BLACK
6
CONTINUOUS
10
0.273519
20
0.258858
11
0.273519
21
0.267154
0
LINE
8
BLACK
6
CONTINUOUS
10
0.273519
20
0.267154
11
0.273697
21
0.268164
0
LINE
8
BLACK
6
CONTINUOUS
10
0.273697
20
0.268164
11
0.274995
21
0.269711
0
LINE
8
BLACK
6
CONTINUOUS
10
0.274995
20
0.269711
11
0.276984
21
0.270062
0
LINE
8
BLACK
6
CONTINUOUS
10
0.276984
20
0.270062
11
0.278734
21
0.269052
0
LINE
8
BLACK
6
CONTINUOUS
10
0.278734
20
0.269052
11
0.279424
21
0.267154
0
LINE
8
BLACK
6
CONTINUOUS
10
0.279424
20
0.267154
11
0.279424
21
0.244657
0
LINE
8
BLACK
6
CONTINUOUS
10
0.279424
20
0.244657
11
0.279246
21
0.243647
0
LINE
8
BLACK
6
CONTINUOUS
10
0.279246
20
0.243647
11
0.277948
21
0.2421
0
LINE
8
BLACK
6
CONTINUOUS
10
0.277948
20
0.2421
11
0.275959
21
0.241749
0
LINE
8
BLACK
6
CONTINUOUS
10
0.275959
20
0.241749
11
0.27421
21
0.242759
0
LINE
8
BLACK
6
CONTINUOUS
10
0.27421
20
0.242759
11
0.273519
21
0.244657
0
LINE
8
BLACK
6
CONTINUOUS
10
0.273519
20
0.244657
11
0.273519
21
0.252953
0
LINE
8
BLACK
6
CONTINUOUS
10
0.273519
20
0.252953
11
0.237102
21
0.252953
0
LINE
8
BLACK
6
CONTINUOUS
10
0.237102
20
0.252953
11
0.236092
21
0.253131
0
LINE
8
BLACK
6
CONTINUOUS
10
0.236092
20
0.253131
11
0.235962
21
0.25324
0
LINE
8
BLACK
6
CONTINUOUS
10
0.235962
20
0.25324
11
0.235793
21
0.253259
0
LINE
8
BLACK
6
CONTINUOUS
10
0.235793
20
0.253259
11
0.235201
21
0.253878
0
LINE
8
BLACK
6
CONTINUOUS
10
0.235201
20
0.253878
11
0.234544
21
0.254429
0
LINE
8
BLACK
6
CONTINUOUS
10
0.234544
20
0.254429
11
0.234515
21
0.254596
0
LINE
8
BLACK
6
CONTINUOUS
10
0.234515
20
0.254596
11
0.234398
21
0.254719
0
LINE
8
BLACK
6
CONTINUOUS
10
0.234398
20
0.254719
11
0.234342
21
0.255574
0
LINE
8
BLACK
6
CONTINUOUS
10
0.234342
20
0.255574
11
0.234194
21
0.256418
0
LINE
8
BLACK
6
CONTINUOUS
10
0.234194
20
0.256418
11
0.234279
21
0.256565
0
LINE
8
BLACK
6
CONTINUOUS
10
0.234279
20
0.256565
11
0.234268
21
0.256735
0
LINE
8
BLACK
6
CONTINUOUS
10
0.234268
20
0.256735
11
0.234775
21
0.257425
0
LINE
8
BLACK
6
CONTINUOUS
10
0.234775
20
0.257425
11
0.235204
21
0.258167
0
LINE
8
BLACK
6
CONTINUOUS
10
0.235204
20
0.258167
11
0.235363
21
0.258226
0
LINE
8
BLACK
6
CONTINUOUS
10
0.235363
20
0.258226
11
0.235464
21
0.258362
0
LINE
8
BLACK
6
CONTINUOUS
10
0.235464
20
0.258362
11
0.240845
21
0.26195
0
LINE
8
BLACK
6
CONTINUOUS
10
0.240845
20
0.26195
11
0.244049
21
0.265154
0
LINE
8
BLACK
6
CONTINUOUS
10
0.244049
20
0.265154
11
0.245709
21
0.268475
0
LINE
8
BLACK
6
CONTINUOUS
10
0.245709
20
0.268475
11
0.24632
21
0.269298
0
LINE
8
BLACK
6
CONTINUOUS
10
0.24632
20
0.269298
11
0.248173
21
0.270102
0
LINE
8
BLACK
6
CONTINUOUS
10
0.248173
20
0.270102
11
0.250109
21
0.269526
0
LINE
8
BLACK
6
CONTINUOUS
10
0.34529
20
0.335447
11
0.345866
21
0.334055
0
LINE
8
BLACK
6
CONTINUOUS
10
0.345866
20
0.334055
11
0.345866
21
0.244094
0
LINE
8
BLACK
6
CONTINUOUS
10
0.345866
20
0.244094
11
0.34529
21
0.242703
0
LINE
8
BLACK
6
CONTINUOUS
10
0.34529
20
0.242703
11
0.343898
21
0.242126
0
LINE
8
BLACK
6
CONTINUOUS
10
0.343898
20
0.242126
11
0.342506
21
0.242703
0
LINE
8
BLACK
6
CONTINUOUS
10
0.342506
20
0.242703
11
0.341929
21
0.244094
0
LINE
8
BLACK
6
CONTINUOUS
10
0.341929
20
0.244094
11
0.341929
21
0.332087
0
LINE
8
BLACK
6
CONTINUOUS
10
0.341929
20
0.332087
11
0.287992
21
0.332087
0
LINE
8
BLACK
6
CONTINUOUS
10
0.287992
20
0.332087
11
0.287992
21
0.244094
0
LINE
8
BLACK
6
CONTINUOUS
10
0.287992
20
0.244094
11
0.287416
21
0.242703
0
LINE
8
BLACK
6
CONTINUOUS
10
0.287416
20
0.242703
11
0.286024
21
0.242126
0
LINE
8
BLACK
6
CONTINUOUS
10
0.286024
20
0.242126
11
0.284632
21
0.242703
0
LINE
8
BLACK
6
CONTINUOUS
10
0.284632
20
0.242703
11
0.284055
21
0.244094
0
LINE
8
BLACK
6
CONTINUOUS
10
0.284055
20
0.244094
11
0.284055
21
0.334055
0
LINE
8
BLACK
6
CONTINUOUS
10
0.284055
20
0.334055
11
0.284632
21
0.335447
0
LINE
8
BLACK
6
CONTINUOUS
10
0.284632
20
0.335447
11
0.286024
21
0.336024
0
LINE
8
BLACK
6
CONTINUOUS
10
0.286024
20
0.336024
11
0.343898
21
0.336024
0
LINE
8
BLACK
6
CONTINUOUS
10
0.343898
20
0.336024
11
0.34529
21
0.335447
0
LINE
8
BLACK
6
CONTINUOUS
10
0.614821
20
0.264252
11
0.615398
21
0.262861
0
LINE
8
BLACK
6
CONTINUOUS
10
0.615398
20
0.262861
11
0.615398
21
0.244179
0
LINE
8
BLACK
6
CONTINUOUS
10
0.615398
20
0.244179
11
0.614821
21
0.242787
0
LINE
8
BLACK
6
CONTINUOUS
10
0.614821
20
0.242787
11
0.613429
21
0.24221
0
LINE
8
BLACK
6
CONTINUOUS
10
0.613429
20
0.24221
11
0.612037
21
0.242787
0
LINE
8
BLACK
6
CONTINUOUS
10
0.612037
20
0.242787
11
0.611461
21
0.244179
0
LINE
8
BLACK
6
CONTINUOUS
10
0.611461
20
0.244179
11
0.611461
21
0.262861
0
LINE
8
BLACK
6
CONTINUOUS
10
0.611461
20
0.262861
11
0.612037
21
0.264252
0
LINE
8
BLACK
6
CONTINUOUS
10
0.612037
20
0.264252
11
0.613429
21
0.264829
0
LINE
8
BLACK
6
CONTINUOUS
10
0.613429
20
0.264829
11
0.614821
21
0.264252
0
LINE
8
BLACK
6
CONTINUOUS
10
0.655963
20
0.264252
11
0.656539
21
0.262861
0
LINE
8
BLACK
6
CONTINUOUS
10
0.656539
20
0.262861
11
0.656539
21
0.244179
0
LINE
8
BLACK
6
CONTINUOUS
10
0.656539
20
0.244179
11
0.655963
21
0.242787
0
LINE
8
BLACK
6
CONTINUOUS
10
0.655963
20
0.242787
11
0.654571
21
0.24221
0
LINE
8
BLACK
6
CONTINUOUS
10
0.654571
20
0.24221
11
0.653179
21
0.242787
0
LINE
8
BLACK
6
CONTINUOUS
10
0.653179
20
0.242787
11
0.652602
21
0.244179
0
LINE
8
BLACK
6
CONTINUOUS
10
0.652602
20
0.244179
11
0.652602
21
0.262861
0
LINE
8
BLACK
6
CONTINUOUS
10
0.652602
20
0.262861
11
0.653179
21
0.264252
0
LINE
8
BLACK
6
CONTINUOUS
10
0.653179
20
0.264252
11
0.654571
21
0.264829
0
LINE
8
BLACK
6
CONTINUOUS
10
0.654571
20
0.264829
11
0.655963
21
0.264252
0
LINE
8
BLACK
6
CONTINUOUS
10
0.725963
20
0.265213
11
0.726539
21
0.263821
0
LINE
8
BLACK
6
CONTINUOUS
10
0.726539
20
0.263821
11
0.726539
21
0.245139
0
LINE
8
BLACK
6
CONTINUOUS
10
0.726539
20
0.245139
11
0.725963
21
0.243748
0
LINE
8
BLACK
6
CONTINUOUS
10
0.725963
20
0.243748
11
0.724571
21
0.243171
0
LINE
8
BLACK
6
CONTINUOUS
10
0.724571
20
0.243171
11
0.723179
21
0.243748
0
LINE
8
BLACK
6
CONTINUOUS
10
0.723179
20
0.243748
11
0.722602
21
0.245139
0
LINE
8
BLACK
6
CONTINUOUS
10
0.722602
20
0.245139
11
0.722602
21
0.263821
0
LINE
8
BLACK
6
CONTINUOUS
10
0.722602
20
0.263821
11
0.723179
21
0.265213
0
LINE
8
BLACK
6
CONTINUOUS
10
0.723179
20
0.265213
11
0.724571
21
0.26579
0
LINE
8
BLACK
6
CONTINUOUS
10
0.724571
20
0.26579
11
0.725963
21
0.265213
0
LINE
8
BLACK
6
CONTINUOUS
10
0.684821
20
0.265213
11
0.685398
21
0.263821
0
LINE
8
BLACK
6
CONTINUOUS
10
0.685398
20
0.263821
11
0.685398
21
0.245139
0
LINE
8
BLACK
6
CONTINUOUS
10
0.685398
20
0.245139
11
0.684821
21
0.243748
0
LINE
8
BLACK
6
CONTINUOUS
10
0.684821
20
0.243748
11
0.683429
21
0.243171
0
LINE
8
BLACK
6
CONTINUOUS
10
0.683429
20
0.243171
11
0.682037
21
0.243748
0
LINE
8
BLACK
6
CONTINUOUS
10
0.682037
20
0.243748
11
0.681461
21
0.245139
0
LINE
8
BLACK
6
CONTINUOUS
10
0.681461
20
0.245139
11
0.681461
21
0.263821
0
LINE
8
BLACK
6
CONTINUOUS
10
0.681461
20
0.263821
11
0.682037
21
0.265213
0
LINE
8
BLACK
6
CONTINUOUS
10
0.682037
20
0.265213
11
0.683429
21
0.26579
0
LINE
8
BLACK
6
CONTINUOUS
10
0.683429
20
0.26579
11
0.684821
21
0.265213
0
LINE
8
BLACK
6
CONTINUOUS
10
0.366821
20
0.288733
11
0.367398
21
0.287341
0
LINE
8
BLACK
6
CONTINUOUS
10
0.367398
20
0.287341
11
0.367398
21
0.268659
0
LINE
8
BLACK
6
CONTINUOUS
10
0.367398
20
0.268659
11
0.366821
21
0.267267
0
LINE
8
BLACK
6
CONTINUOUS
10
0.366821
20
0.267267
11
0.365429
21
0.266691
0
LINE
8
BLACK
6
CONTINUOUS
10
0.365429
20
0.266691
11
0.364037
21
0.267267
0
LINE
8
BLACK
6
CONTINUOUS
10
0.364037
20
0.267267
11
0.363461
21
0.268659
0
LINE
8
BLACK
6
CONTINUOUS
10
0.363461
20
0.268659
11
0.363461
21
0.287341
0
LINE
8
BLACK
6
CONTINUOUS
10
0.363461
20
0.287341
11
0.364037
21
0.288733
0
LINE
8
BLACK
6
CONTINUOUS
10
0.364037
20
0.288733
11
0.365429
21
0.289309
0
LINE
8
BLACK
6
CONTINUOUS
10
0.365429
20
0.289309
11
0.366821
21
0.288733
0
LINE
8
BLACK
6
CONTINUOUS
10
0.407963
20
0.288733
11
0.408539
21
0.287341
0
LINE
8
BLACK
6
CONTINUOUS
10
0.408539
20
0.287341
11
0.408539
21
0.268659
0
LINE
8
BLACK
6
CONTINUOUS
10
0.408539
20
0.268659
11
0.407963
21
0.267267
0
LINE
8
BLACK
6
CONTINUOUS
10
0.407963
20
0.267267
11
0.406571
21
0.266691
0
LINE
8
BLACK
6
CONTINUOUS
10
0.406571
20
0.266691
11
0.405179
21
0.267267
0
LINE
8
BLACK
6
CONTINUOUS
10
0.405179
20
0.267267
11
0.404602
21
0.268659
0
LINE
8
BLACK
6
CONTINUOUS
10
0.404602
20
0.268659
11
0.404602
21
0.287341
0
LINE
8
BLACK
6
CONTINUOUS
10
0.404602
20
0.287341
11
0.405179
21
0.288733
0
LINE
8
BLACK
6
CONTINUOUS
10
0.405179
20
0.288733
11
0.406571
21
0.289309
0
LINE
8
BLACK
6
CONTINUOUS
10
0.406571
20
0.289309
11
0.407963
21
0.288733
0
LINE
8
BLACK
6
CONTINUOUS
10
0.276855
20
0.307535
11
0.276984
21
0.307557
0
LINE
8
BLACK
6
CONTINUOUS
10
0.276984
20
0.307557
11
0.277098
21
0.307492
0
LINE
8
BLACK
6
CONTINUOUS
10
0.277098
20
0.307492
11
0.277482
21
0.307424
0
LINE
8
BLACK
6
CONTINUOUS
10
0.277482
20
0.307424
11
0.278069
21
0.306931
0
LINE
8
BLACK
6
CONTINUOUS
10
0.278069
20
0.306931
11
0.278734
21
0.306547
0
LINE
8
BLACK
6
CONTINUOUS
10
0.278734
20
0.306547
11
0.278825
21
0.306297
0
LINE
8
BLACK
6
CONTINUOUS
10
0.278825
20
0.306297
11
0.279029
21
0.306126
0
LINE
8
BLACK
6
CONTINUOUS
10
0.279029
20
0.306126
11
0.279162
21
0.30537
0
LINE
8
BLACK
6
CONTINUOUS
10
0.279162
20
0.30537
11
0.279424
21
0.304649
0
LINE
8
BLACK
6
CONTINUOUS
10
0.279424
20
0.304649
11
0.279424
21
0.295276
0
LINE
8
BLACK
6
CONTINUOUS
10
0.279424
20
0.295276
11
0.279271
21
0.294406
0
LINE
8
BLACK
6
CONTINUOUS
10
0.279271
20
0.294406
11
0.279273
21
0.294342
0
LINE
8
BLACK
6
CONTINUOUS
10
0.279273
20
0.294342
11
0.277398
21
0.288718
0
LINE
8
BLACK
6
CONTINUOUS
10
0.277398
20
0.288718
11
0.27691
21
0.287816
0
LINE
8
BLACK
6
CONTINUOUS
10
0.27691
20
0.287816
11
0.276759
21
0.287723
0
LINE
8
BLACK
6
CONTINUOUS
10
0.276759
20
0.287723
11
0.276685
21
0.287563
0
LINE
8
BLACK
6
CONTINUOUS
10
0.276685
20
0.287563
11
0.272935
21
0.283814
0
LINE
8
BLACK
6
CONTINUOUS
10
0.272935
20
0.283814
11
0.272212
21
0.283308
0
LINE
8
BLACK
6
CONTINUOUS
10
0.272212
20
0.283308
11
0.272168
21
0.283261
0
LINE
8
BLACK
6
CONTINUOUS
10
0.272168
20
0.283261
11
0.268418
21
0.281386
0
LINE
8
BLACK
6
CONTINUOUS
10
0.268418
20
0.281386
11
0.26793
21
0.281241
0
LINE
8
BLACK
6
CONTINUOUS
10
0.26793
20
0.281241
11
0.267814
21
0.281162
0
LINE
8
BLACK
6
CONTINUOUS
10
0.267814
20
0.281162
11
0.260315
21
0.279288
0
LINE
8
BLACK
6
CONTINUOUS
10
0.260315
20
0.279288
11
0.259727
21
0.279246
0
LINE
8
BLACK
6
CONTINUOUS
10
0.259727
20
0.279246
11
0.259599
21
0.279199
0
LINE
8
BLACK
6
CONTINUOUS
10
0.259599
20
0.279199
11
0.253974
21
0.279199
0
LINE
8
BLACK
6
CONTINUOUS
10
0.253974
20
0.279199
11
0.253394
21
0.279302
0
LINE
8
BLACK
6
CONTINUOUS
10
0.253394
20
0.279302
11
0.253258
21
0.279288
0
LINE
8
BLACK
6
CONTINUOUS
10
0.253258
20
0.279288
11
0.245759
21
0.281162
0
LINE
8
BLACK
6
CONTINUOUS
10
0.245759
20
0.281162
11
0.245294
21
0.28137
0
LINE
8
BLACK
6
CONTINUOUS
10
0.245294
20
0.28137
11
0.245155
21
0.281386
0
LINE
8
BLACK
6
CONTINUOUS
10
0.245155
20
0.281386
11
0.241405
21
0.283261
0
LINE
8
BLACK
6
CONTINUOUS
10
0.241405
20
0.283261
11
0.240696
21
0.283787
0
LINE
8
BLACK
6
CONTINUOUS
10
0.240696
20
0.283787
11
0.240638
21
0.283814
0
LINE
8
BLACK
6
CONTINUOUS
10
0.240638
20
0.283814
11
0.236888
21
0.287563
0
LINE
8
BLACK
6
CONTINUOUS
10
0.236888
20
0.287563
11
0.2363
21
0.288403
0
LINE
8
BLACK
6
CONTINUOUS
10
0.2363
20
0.288403
11
0.236285
21
0.288579
0
LINE
8
BLACK
6
CONTINUOUS
10
0.236285
20
0.288579
11
0.236175
21
0.288718
0
LINE
8
BLACK
6
CONTINUOUS
10
0.236175
20
0.288718
11
0.2343
21
0.294342
0
LINE
8
BLACK
6
CONTINUOUS
10
0.2343
20
0.294342
11
0.234171
21
0.295215
0
LINE
8
BLACK
6
CONTINUOUS
10
0.234171
20
0.295215
11
0.234149
21
0.295276
0
LINE
8
BLACK
6
CONTINUOUS
10
0.234149
20
0.295276
11
0.234149
21
0.304649
0
LINE
8
BLACK
6
CONTINUOUS
10
0.234149
20
0.304649
11
0.234216
21
0.305033
0
LINE
8
BLACK
6
CONTINUOUS
10
0.234216
20
0.305033
11
0.234194
21
0.305162
0
LINE
8
BLACK
6
CONTINUOUS
10
0.234194
20
0.305162
11
0.234259
21
0.305276
0
LINE
8
BLACK
6
CONTINUOUS
10
0.234259
20
0.305276
11
0.234327
21
0.305659
0
LINE
8
BLACK
6
CONTINUOUS
10
0.234327
20
0.305659
11
0.23482
21
0.306247
0
LINE
8
BLACK
6
CONTINUOUS
10
0.23482
20
0.306247
11
0.235204
21
0.306911
0
LINE
8
BLACK
6
CONTINUOUS
10
0.235204
20
0.306911
11
0.235454
21
0.307002
0
LINE
8
BLACK
6
CONTINUOUS
10
0.235454
20
0.307002
11
0.235625
21
0.307207
0
LINE
8
BLACK
6
CONTINUOUS
10
0.235625
20
0.307207
11
0.236381
21
0.30734
0
LINE
8
BLACK
6
CONTINUOUS
10
0.236381
20
0.30734
11
0.237102
21
0.307602
0
LINE
8
BLACK
6
CONTINUOUS
10
0.237102
20
0.307602
11
0.276472
21
0.307602
0
LINE
8
BLACK
6
CONTINUOUS
10
0.276472
20
0.307602
11
0.276855
21
0.307535
0
LINE
8
BLACK
6
CONTINUOUS
10
0.240054
20
0.301697
11
0.240054
21
0.295755
0
LINE
8
BLACK
6
CONTINUOUS
10
0.240054
20
0.295755
11
0.241557
21
0.291246
0
LINE
8
BLACK
6
CONTINUOUS
10
0.241557
20
0.291246
11
0.244475
21
0.288329
0
LINE
8
BLACK
6
CONTINUOUS
10
0.244475
20
0.288329
11
0.247506
21
0.286813
0
LINE
8
BLACK
6
CONTINUOUS
10
0.247506
20
0.286813
11
0.254338
21
0.285105
0
LINE
8
BLACK
6
CONTINUOUS
10
0.254338
20
0.285105
11
0.259235
21
0.285105
0
LINE
8
BLACK
6
CONTINUOUS
10
0.259235
20
0.285105
11
0.266067
21
0.286813
0
LINE
8
BLACK
6
CONTINUOUS
10
0.266067
20
0.286813
11
0.269098
21
0.288329
0
LINE
8
BLACK
6
CONTINUOUS
10
0.269098
20
0.288329
11
0.272016
21
0.291246
0
LINE
8
BLACK
6
CONTINUOUS
10
0.272016
20
0.291246
11
0.273519
21
0.295755
0
LINE
8
BLACK
6
CONTINUOUS
10
0.273519
20
0.295755
11
0.273519
21
0.301697
0
LINE
8
BLACK
6
CONTINUOUS
10
0.273519
20
0.301697
11
0.240054
21
0.301697
0
LINE
8
BLACK
6
CONTINUOUS
10
0.766325
20
0.35038
11
0.765748
21
0.351772
0
LINE
8
BLACK
6
CONTINUOUS
10
0.765748
20
0.351772
11
0.766325
21
0.353164
0
LINE
8
BLACK
6
CONTINUOUS
10
0.766325
20
0.353164
11
0.767717
21
0.35374
0
LINE
8
BLACK
6
CONTINUOUS
10
0.767717
20
0.35374
11
0.804724
21
0.35374
0
LINE
8
BLACK
6
CONTINUOUS
10
0.804724
20
0.35374
11
0.804724
21
0.422638
0
LINE
8
BLACK
6
CONTINUOUS
10
0.804724
20
0.422638
11
0.805301
21
0.42403
0
LINE
8
BLACK
6
CONTINUOUS
10
0.805301
20
0.42403
11
0.806693
21
0.424606
0
LINE
8
BLACK
6
CONTINUOUS
10
0.806693
20
0.424606
11
0.86378
21
0.424606
0
LINE
8
BLACK
6
CONTINUOUS
10
0.86378
20
0.424606
11
0.865171
21
0.42403
0
LINE
8
BLACK
6
CONTINUOUS
10
0.865171
20
0.42403
11
0.865748
21
0.422638
0
LINE
8
BLACK
6
CONTINUOUS
10
0.865748
20
0.422638
11
0.865171
21
0.421246
0
LINE
8
BLACK
6
CONTINUOUS
10
0.865171
20
0.421246
11
0.86378
21
0.420669
0
LINE
8
BLACK
6
CONTINUOUS
10
0.86378
20
0.420669
11
0.808661
21
0.420669
0
LINE
8
BLACK
6
CONTINUOUS
10
0.808661
20
0.420669
11
0.808661
21
0.351772
0
LINE
8
BLACK
6
CONTINUOUS
10
0.808661
20
0.351772
11
0.808085
21
0.35038
0
LINE
8
BLACK
6
CONTINUOUS
10
0.808085
20
0.35038
11
0.806693
21
0.349803
0
LINE
8
BLACK
6
CONTINUOUS
10
0.806693
20
0.349803
11
0.767717
21
0.349803
0
LINE
8
BLACK
6
CONTINUOUS
10
0.767717
20
0.349803
11
0.766325
21
0.35038
0
LINE
8
BLACK
6
CONTINUOUS
10
0.178951
20
0.42403
11
0.179528
21
0.422638
0
LINE
8
BLACK
6
CONTINUOUS
10
0.179528
20
0.422638
11
0.179528
21
0.351772
0
LINE
8
BLACK
6
CONTINUOUS
10
0.179528
20
0.351772
11
0.178951
21
0.35038
0
LINE
8
BLACK
6
CONTINUOUS
10
0.178951
20
0.35038
11
0.177559
21
0.349803
0
LINE
8
BLACK
6
CONTINUOUS
10
0.177559
20
0.349803
11
0.176167
21
0.35038
0
LINE
8
BLACK
6
CONTINUOUS
10
0.176167
20
0.35038
11
0.175591
21
0.351772
0
LINE
8
BLACK
6
CONTINUOUS
10
0.175591
20
0.351772
11
0.175591
21
0.420669
0
LINE
8
BLACK
6
CONTINUOUS
10
0.175591
20
0.420669
11
0.120472
21
0.420669
0
LINE
8
BLACK
6
CONTINUOUS
10
0.120472
20
0.420669
11
0.119081
21
0.421246
0
LINE
8
BLACK
6
CONTINUOUS
10
0.119081
20
0.421246
11
0.118504
21
0.422638
0
LINE
8
BLACK
6
CONTINUOUS
10
0.118504
20
0.422638
11
0.119081
21
0.42403
0
LINE
8
BLACK
6
CONTINUOUS
10
0.119081
20
0.42403
11
0.120472
21
0.424606
0
LINE
8
BLACK
6
CONTINUOUS
10
0.120472
20
0.424606
11
0.177559
21
0.424606
0
LINE
8
BLACK
6
CONTINUOUS
10
0.177559
20
0.424606
11
0.178951
21
0.42403
0
LINE
8
BLACK
6
CONTINUOUS
10
0.656963
20
0.393213
11
0.657539
21
0.391821
0
LINE
8
BLACK
6
CONTINUOUS
10
0.657539
20
0.391821
11
0.657539
21
0.373139
0
LINE
8
BLACK
6
CONTINUOUS
10
0.657539
20
0.373139
11
0.656963
21
0.371748
0
LINE
8
BLACK
6
CONTINUOUS
10
0.656963
20
0.371748
11
0.655571
21
0.371171
0
LINE
8
BLACK
6
CONTINUOUS
10
0.655571
20
0.371171
11
0.654179
21
0.371748
0
LINE
8
BLACK
6
CONTINUOUS
10
0.654179
20
0.371748
11
0.653602
21
0.373139
0
LINE
8
BLACK
6
CONTINUOUS
10
0.653602
20
0.373139
11
0.653602
21
0.391821
0
LINE
8
BLACK
6
CONTINUOUS
10
0.653602
20
0.391821
11
0.654179
21
0.393213
0
LINE
8
BLACK
6
CONTINUOUS
10
0.654179
20
0.393213
11
0.655571
21
0.39379
0
LINE
8
BLACK
6
CONTINUOUS
10
0.655571
20
0.39379
11
0.656963
21
0.393213
0
LINE
8
BLACK
6
CONTINUOUS
10
0.726963
20
0.393213
11
0.727539
21
0.391821
0
LINE
8
BLACK
6
CONTINUOUS
10
0.727539
20
0.391821
11
0.727539
21
0.373139
0
LINE
8
BLACK
6
CONTINUOUS
10
0.727539
20
0.373139
11
0.726963
21
0.371748
0
LINE
8
BLACK
6
CONTINUOUS
10
0.726963
20
0.371748
11
0.725571
21
0.371171
0
LINE
8
BLACK
6
CONTINUOUS
10
0.725571
20
0.371171
11
0.724179
21
0.371748
0
LINE
8
BLACK
6
CONTINUOUS
10
0.724179
20
0.371748
11
0.723602
21
0.373139
0
LINE
8
BLACK
6
CONTINUOUS
10
0.723602
20
0.373139
11
0.723602
21
0.391821
0
LINE
8
BLACK
6
CONTINUOUS
10
0.723602
20
0.391821
11
0.724179
21
0.393213
0
LINE
8
BLACK
6
CONTINUOUS
10
0.724179
20
0.393213
11
0.725571
21
0.39379
0
LINE
8
BLACK
6
CONTINUOUS
10
0.725571
20
0.39379
11
0.726963
21
0.393213
0
LINE
8
BLACK
6
CONTINUOUS
10
0.615821
20
0.393213
11
0.616398
21
0.391821
0
LINE
8
BLACK
6
CONTINUOUS
10
0.616398
20
0.391821
11
0.616398
21
0.373139
0
LINE
8
BLACK
6
CONTINUOUS
10
0.616398
20
0.373139
11
0.615821
21
0.371748
0
LINE
8
BLACK
6
CONTINUOUS
10
0.615821
20
0.371748
11
0.614429
21
0.371171
0
LINE
8
BLACK
6
CONTINUOUS
10
0.614429
20
0.371171
11
0.613037
21
0.371748
0
LINE
8
BLACK
6
CONTINUOUS
10
0.613037
20
0.371748
11
0.612461
21
0.373139
0
LINE
8
BLACK
6
CONTINUOUS
10
0.612461
20
0.373139
11
0.612461
21
0.391821
0
LINE
8
BLACK
6
CONTINUOUS
10
0.612461
20
0.391821
11
0.613037
21
0.393213
0
LINE
8
BLACK
6
CONTINUOUS
10
0.613037
20
0.393213
11
0.614429
21
0.39379
0
LINE
8
BLACK
6
CONTINUOUS
10
0.614429
20
0.39379
11
0.615821
21
0.393213
0
LINE
8
BLACK
6
CONTINUOUS
10
0.685821
20
0.393213
11
0.686398
21
0.391821
0
LINE
8
BLACK
6
CONTINUOUS
10
0.686398
20
0.391821
11
0.686398
21
0.373139
0
LINE
8
BLACK
6
CONTINUOUS
10
0.686398
20
0.373139
11
0.685821
21
0.371748
0
LINE
8
BLACK
6
CONTINUOUS
10
0.685821
20
0.371748
11
0.684429
21
0.371171
0
LINE
8
BLACK
6
CONTINUOUS
10
0.684429
20
0.371171
11
0.683037
21
0.371748
0
LINE
8
BLACK
6
CONTINUOUS
10
0.683037
20
0.371748
11
0.682461
21
0.373139
0
LINE
8
BLACK
6
CONTINUOUS
10
0.682461
20
0.373139
11
0.682461
21
0.391821
0
LINE
8
BLACK
6
CONTINUOUS
10
0.682461
20
0.391821
11
0.683037
21
0.393213
0
LINE
8
BLACK
6
CONTINUOUS
10
0.683037
20
0.393213
11
0.684429
21
0.39379
0
LINE
8
BLACK
6
CONTINUOUS
10
0.684429
20
0.39379
11
0.685821
21
0.393213
0
LINE
8
BLACK
6
CONTINUOUS
10
0.320821
20
0.452733
11
0.321398
21
0.451341
0
LINE
8
BLACK
6
CONTINUOUS
10
0.321398
20
0.451341
11
0.321398
21
0.432659
0
LINE
8
BLACK
6
CONTINUOUS
10
0.321398
20
0.432659
11
0.320821
21
0.431267
0
LINE
8
BLACK
6
CONTINUOUS
10
0.320821
20
0.431267
11
0.319429
21
0.430691
0
LINE
8
BLACK
6
CONTINUOUS
10
0.319429
20
0.430691
11
0.318037
21
0.431267
0
LINE
8
BLACK
6
CONTINUOUS
10
0.318037
20
0.431267
11
0.317461
21
0.432659
0
LINE
8
BLACK
6
CONTINUOUS
10
0.317461
20
0.432659
11
0.317461
21
0.451341
0
LINE
8
BLACK
6
CONTINUOUS
10
0.317461
20
0.451341
11
0.318037
21
0.452733
0
LINE
8
BLACK
6
CONTINUOUS
10
0.318037
20
0.452733
11
0.319429
21
0.453309
0
LINE
8
BLACK
6
CONTINUOUS
10
0.319429
20
0.453309
11
0.320821
21
0.452733
0
LINE
8
BLACK
6
CONTINUOUS
10
0.361963
20
0.452733
11
0.362539
21
0.451341
0
LINE
8
BLACK
6
CONTINUOUS
10
0.362539
20
0.451341
11
0.362539
21
0.432659
0
LINE
8
BLACK
6
CONTINUOUS
10
0.362539
20
0.432659
11
0.361963
21
0.431267
0
LINE
8
BLACK
6
CONTINUOUS
10
0.361963
20
0.431267
11
0.360571
21
0.430691
0
LINE
8
BLACK
6
CONTINUOUS
10
0.360571
20
0.430691
11
0.359179
21
0.431267
0
LINE
8
BLACK
6
CONTINUOUS
10
0.359179
20
0.431267
11
0.358602
21
0.432659
0
LINE
8
BLACK
6
CONTINUOUS
10
0.358602
20
0.432659
11
0.358602
21
0.451341
0
LINE
8
BLACK
6
CONTINUOUS
10
0.358602
20
0.451341
11
0.359179
21
0.452733
0
LINE
8
BLACK
6
CONTINUOUS
10
0.359179
20
0.452733
11
0.360571
21
0.453309
0
LINE
8
BLACK
6
CONTINUOUS
10
0.360571
20
0.453309
11
0.361963
21
0.452733
0
LINE
8
BLACK
6
CONTINUOUS
10
0.596864
20
0.566447
11
0.597441
21
0.565055
0
LINE
8
BLACK
6
CONTINUOUS
10
0.597441
20
0.565055
11
0.597441
21
0.446945
0
LINE
8
BLACK
6
CONTINUOUS
10
0.597441
20
0.446945
11
0.596864
21
0.445553
0
LINE
8
BLACK
6
CONTINUOUS
10
0.596864
20
0.445553
11
0.595472
21
0.444976
0
LINE
8
BLACK
6
CONTINUOUS
10
0.595472
20
0.444976
11
0.594081
21
0.445553
0
LINE
8
BLACK
6
CONTINUOUS
10
0.594081
20
0.445553
11
0.593504
21
0.446945
0
LINE
8
BLACK
6
CONTINUOUS
10
0.593504
20
0.446945
11
0.593504
21
0.565055
0
LINE
8
BLACK
6
CONTINUOUS
10
0.593504
20
0.565055
11
0.594081
21
0.566447
0
LINE
8
BLACK
6
CONTINUOUS
10
0.594081
20
0.566447
11
0.595472
21
0.567024
0
LINE
8
BLACK
6
CONTINUOUS
10
0.595472
20
0.567024
11
0.596864
21
0.566447
0
LINE
8
BLACK
6
CONTINUOUS
10
0.390171
20
0.507392
11
0.390748
21
0.506
0
LINE
8
BLACK
6
CONTINUOUS
10
0.390748
20
0.506
11
0.390748
21
0.446945
0
LINE
8
BLACK
6
CONTINUOUS
10
0.390748
20
0.446945
11
0.390171
21
0.445553
0
LINE
8
BLACK
6
CONTINUOUS
10
0.390171
20
0.445553
11
0.38878
21
0.444976
0
LINE
8
BLACK
6
CONTINUOUS
10
0.38878
20
0.444976
11
0.387388
21
0.445553
0
LINE
8
BLACK
6
CONTINUOUS
10
0.387388
20
0.445553
11
0.386811
21
0.446945
0
LINE
8
BLACK
6
CONTINUOUS
10
0.386811
20
0.446945
11
0.386811
21
0.506
0
LINE
8
BLACK
6
CONTINUOUS
10
0.386811
20
0.506
11
0.387388
21
0.507392
0
LINE
8
BLACK
6
CONTINUOUS
10
0.387388
20
0.507392
11
0.38878
21
0.507969
0
LINE
8
BLACK
6
CONTINUOUS
10
0.38878
20
0.507969
11
0.390171
21
0.507392
0
LINE
8
BLACK
6
CONTINUOUS
10
0.808085
20
0.555132
11
0.808661
21
0.55374
0
LINE
8
BLACK
6
CONTINUOUS
10
0.808661
20
0.55374
11
0.808661
21
0.484843
0
LINE
8
BLACK
6
CONTINUOUS
10
0.808661
20
0.484843
11
0.86378
21
0.484843
0
LINE
8
BLACK
6
CONTINUOUS
10
0.86378
20
0.484843
11
0.865171
21
0.484266
0
LINE
8
BLACK
6
CONTINUOUS
10
0.865171
20
0.484266
11
0.865748
21
0.482874
0
LINE
8
BLACK
6
CONTINUOUS
10
0.865748
20
0.482874
11
0.865171
21
0.481482
0
LINE
8
BLACK
6
CONTINUOUS
10
0.865171
20
0.481482
11
0.86378
21
0.480906
0
LINE
8
BLACK
6
CONTINUOUS
10
0.86378
20
0.480906
11
0.806693
21
0.480906
0
LINE
8
BLACK
6
CONTINUOUS
10
0.806693
20
0.480906
11
0.805301
21
0.481482
0
LINE
8
BLACK
6
CONTINUOUS
10
0.805301
20
0.481482
11
0.804724
21
0.482874
0
LINE
8
BLACK
6
CONTINUOUS
10
0.804724
20
0.482874
11
0.804724
21
0.55374
0
LINE
8
BLACK
6
CONTINUOUS
10
0.804724
20
0.55374
11
0.805301
21
0.555132
0
LINE
8
BLACK
6
CONTINUOUS
10
0.805301
20
0.555132
11
0.806693
21
0.555709
0
LINE
8
BLACK
6
CONTINUOUS
10
0.806693
20
0.555709
11
0.808085
21
0.555132
0
LINE
8
BLACK
6
CONTINUOUS
10
0.119081
20
0.481482
11
0.118504
21
0.482874
0
LINE
8
BLACK
6
CONTINUOUS
10
0.118504
20
0.482874
11
0.119081
21
0.484266
0
LINE
8
BLACK
6
CONTINUOUS
10
0.119081
20
0.484266
11
0.120472
21
0.484843
0
LINE
8
BLACK
6
CONTINUOUS
10
0.120472
20
0.484843
11
0.175591
21
0.484843
0
LINE
8
BLACK
6
CONTINUOUS
10
0.175591
20
0.484843
11
0.175591
21
0.55374
0
LINE
8
BLACK
6
CONTINUOUS
10
0.175591
20
0.55374
11
0.176167
21
0.555132
0
LINE
8
BLACK
6
CONTINUOUS
10
0.176167
20
0.555132
11
0.177559
21
0.555709
0
LINE
8
BLACK
6
CONTINUOUS
10
0.177559
20
0.555709
11
0.216535
21
0.555709
0
LINE
8
BLACK
6
CONTINUOUS
10
0.216535
20
0.555709
11
0.217927
21
0.555132
0
LINE
8
BLACK
6
CONTINUOUS
10
0.217927
20
0.555132
11
0.218504
21
0.55374
0
LINE
8
BLACK
6
CONTINUOUS
10
0.218504
20
0.55374
11
0.217927
21
0.552348
0
LINE
8
BLACK
6
CONTINUOUS
10
0.217927
20
0.552348
11
0.216535
21
0.551772
0
LINE
8
BLACK
6
CONTINUOUS
10
0.216535
20
0.551772
11
0.179528
21
0.551772
0
LINE
8
BLACK
6
CONTINUOUS
10
0.179528
20
0.551772
11
0.179528
21
0.482874
0
LINE
8
BLACK
6
CONTINUOUS
10
0.179528
20
0.482874
11
0.178951
21
0.481482
0
LINE
8
BLACK
6
CONTINUOUS
10
0.178951
20
0.481482
11
0.177559
21
0.480906
0
LINE
8
BLACK
6
CONTINUOUS
10
0.177559
20
0.480906
11
0.120472
21
0.480906
0
LINE
8
BLACK
6
CONTINUOUS
10
0.120472
20
0.480906
11
0.119081
21
0.481482
0
LINE
8
BLACK
6
CONTINUOUS
10
0.626313
20
0.531415
11
0.62689
21
0.530023
0
LINE
8
BLACK
6
CONTINUOUS
10
0.62689
20
0.530023
11
0.62689
21
0.518954
0
LINE
8
BLACK
6
CONTINUOUS
10
0.62689
20
0.518954
11
0.626313
21
0.517562
0
LINE
8
BLACK
6
CONTINUOUS
10
0.626313
20
0.517562
11
0.624921
21
0.516985
0
LINE
8
BLACK
6
CONTINUOUS
10
0.624921
20
0.516985
11
0.623529
21
0.517562
0
LINE
8
BLACK
6
CONTINUOUS
10
0.623529
20
0.517562
11
0.622953
21
0.518954
0
LINE
8
BLACK
6
CONTINUOUS
10
0.622953
20
0.518954
11
0.622953
21
0.530023
0
LINE
8
BLACK
6
CONTINUOUS
10
0.622953
20
0.530023
11
0.623529
21
0.531415
0
LINE
8
BLACK
6
CONTINUOUS
10
0.623529
20
0.531415
11
0.624921
21
0.531991
0
LINE
8
BLACK
6
CONTINUOUS
10
0.624921
20
0.531991
11
0.626313
21
0.531415
0
LINE
8
BLACK
6
CONTINUOUS
10
0.666471
20
0.531415
11
0.667047
21
0.530023
0
LINE
8
BLACK
6
CONTINUOUS
10
0.667047
20
0.530023
11
0.667047
21
0.518954
0
LINE
8
BLACK
6
CONTINUOUS
10
0.667047
20
0.518954
11
0.666471
21
0.517562
0
LINE
8
BLACK
6
CONTINUOUS
10
0.666471
20
0.517562
11
0.665079
21
0.516985
0
LINE
8
BLACK
6
CONTINUOUS
10
0.665079
20
0.516985
11
0.663687
21
0.517562
0
LINE
8
BLACK
6
CONTINUOUS
10
0.663687
20
0.517562
11
0.66311
21
0.518954
0
LINE
8
BLACK
6
CONTINUOUS
10
0.66311
20
0.518954
11
0.66311
21
0.530023
0
LINE
8
BLACK
6
CONTINUOUS
10
0.66311
20
0.530023
11
0.663687
21
0.531415
0
LINE
8
BLACK
6
CONTINUOUS
10
0.663687
20
0.531415
11
0.665079
21
0.531991
0
LINE
8
BLACK
6
CONTINUOUS
10
0.665079
20
0.531991
11
0.666471
21
0.531415
0
LINE
8
BLACK
6
CONTINUOUS
10
0.322252
20
0.522821
11
0.322829
21
0.521429
0
LINE
8
BLACK
6
CONTINUOUS
10
0.322829
20
0.521429
11
0.322252
21
0.520037
0
LINE
8
BLACK
6
CONTINUOUS
10
0.322252
20
0.520037
11
0.320861
21
0.519461
0
LINE
8
BLACK
6
CONTINUOUS
10
0.320861
20
0.519461
11
0.302179
21
0.519461
0
LINE
8
BLACK
6
CONTINUOUS
10
0.302179
20
0.519461
11
0.300787
21
0.520037
0
LINE
8
BLACK
6
CONTINUOUS
10
0.300787
20
0.520037
11
0.30021
21
0.521429
0
LINE
8
BLACK
6
CONTINUOUS
10
0.30021
20
0.521429
11
0.300787
21
0.522821
0
LINE
8
BLACK
6
CONTINUOUS
10
0.300787
20
0.522821
11
0.302179
21
0.523398
0
LINE
8
BLACK
6
CONTINUOUS
10
0.302179
20
0.523398
11
0.320861
21
0.523398
0
LINE
8
BLACK
6
CONTINUOUS
10
0.320861
20
0.523398
11
0.322252
21
0.522821
0
LINE
8
BLACK
6
CONTINUOUS
10
0.0108407
20
0.767731
11
0.0114173
21
0.766339
0
LINE
8
BLACK
6
CONTINUOUS
10
0.0114173
20
0.766339
11
0.0114173
21
0.532874
0
LINE
8
BLACK
6
CONTINUOUS
10
0.0114173
20
0.532874
11
0.0108407
21
0.531482
0
LINE
8
BLACK
6
CONTINUOUS
10
0.0108407
20
0.531482
11
0.00944882
21
0.530906
0
LINE
8
BLACK
6
CONTINUOUS
10
0.00944882
20
0.530906
11
0.00805689
21
0.531482
0
LINE
8
BLACK
6
CONTINUOUS
10
0.00805689
20
0.531482
11
0.00748031
21
0.532874
0
LINE
8
BLACK
6
CONTINUOUS
10
0.00748031
20
0.532874
11
0.00748031
21
0.766339
0
LINE
8
BLACK
6
CONTINUOUS
10
0.00748031
20
0.766339
11
0.00805689
21
0.767731
0
LINE
8
BLACK
6
CONTINUOUS
10
0.00805689
20
0.767731
11
0.00944882
21
0.768307
0
LINE
8
BLACK
6
CONTINUOUS
10
0.00944882
20
0.768307
11
0.0108407
21
0.767731
0
LINE
8
BLACK
6
CONTINUOUS
10
0.976195
20
0.767731
11
0.976772
21
0.766339
0
LINE
8
BLACK
6
CONTINUOUS
10
0.976772
20
0.766339
11
0.976772
21
0.532874
0
LINE
8
BLACK
6
CONTINUOUS
10
0.976772
20
0.532874
11
0.976195
21
0.531482
0
LINE
8
BLACK
6
CONTINUOUS
10
0.976195
20
0.531482
11
0.974803
21
0.530906
0
LINE
8
BLACK
6
CONTINUOUS
10
0.974803
20
0.530906
11
0.973411
21
0.531482
0
LINE
8
BLACK
6
CONTINUOUS
10
0.973411
20
0.531482
11
0.972835
21
0.532874
0
LINE
8
BLACK
6
CONTINUOUS
10
0.972835
20
0.532874
11
0.972835
21
0.766339
0
LINE
8
BLACK
6
CONTINUOUS
10
0.972835
20
0.766339
11
0.973411
21
0.767731
0
LINE
8
BLACK
6
CONTINUOUS
10
0.973411
20
0.767731
11
0.974803
21
0.768307
0
LINE
8
BLACK
6
CONTINUOUS
10
0.974803
20
0.768307
11
0.976195
21
0.767731
0
LINE
8
BLACK
6
CONTINUOUS
10
0.322252
20
0.563963
11
0.322829
21
0.562571
0
LINE
8
BLACK
6
CONTINUOUS
10
0.322829
20
0.562571
11
0.322252
21
0.561179
0
LINE
8
BLACK
6
CONTINUOUS
10
0.322252
20
0.561179
11
0.320861
21
0.560602
0
LINE
8
BLACK
6
CONTINUOUS
10
0.320861
20
0.560602
11
0.302179
21
0.560602
0
LINE
8
BLACK
6
CONTINUOUS
10
0.302179
20
0.560602
11
0.300787
21
0.561179
0
LINE
8
BLACK
6
CONTINUOUS
10
0.300787
20
0.561179
11
0.30021
21
0.562571
0
LINE
8
BLACK
6
CONTINUOUS
10
0.30021
20
0.562571
11
0.300787
21
0.563963
0
LINE
8
BLACK
6
CONTINUOUS
10
0.300787
20
0.563963
11
0.302179
21
0.564539
0
LINE
8
BLACK
6
CONTINUOUS
10
0.302179
20
0.564539
11
0.320861
21
0.564539
0
LINE
8
BLACK
6
CONTINUOUS
10
0.320861
20
0.564539
11
0.322252
21
0.563963
0
LINE
8
BLACK
6
CONTINUOUS
10
0.276149
20
0.610779
11
0.278023
21
0.608904
0
LINE
8
BLACK
6
CONTINUOUS
10
0.278023
20
0.608904
11
0.27853
21
0.608181
0
LINE
8
BLACK
6
CONTINUOUS
10
0.27853
20
0.608181
11
0.278576
21
0.608136
0
LINE
8
BLACK
6
CONTINUOUS
10
0.278576
20
0.608136
11
0.280451
21
0.604387
0
LINE
8
BLACK
6
CONTINUOUS
10
0.280451
20
0.604387
11
0.280744
21
0.603404
0
LINE
8
BLACK
6
CONTINUOUS
10
0.280744
20
0.603404
11
0.280703
21
0.603232
0
LINE
8
BLACK
6
CONTINUOUS
10
0.280703
20
0.603232
11
0.280763
21
0.603066
0
LINE
8
BLACK
6
CONTINUOUS
10
0.280763
20
0.603066
11
0.280763
21
0.591818
0
LINE
8
BLACK
6
CONTINUOUS
10
0.280763
20
0.591818
11
0.280585
21
0.590808
0
LINE
8
BLACK
6
CONTINUOUS
10
0.280585
20
0.590808
11
0.280471
21
0.590673
0
LINE
8
BLACK
6
CONTINUOUS
10
0.280471
20
0.590673
11
0.280451
21
0.590497
0
LINE
8
BLACK
6
CONTINUOUS
10
0.280451
20
0.590497
11
0.278576
21
0.586748
0
LINE
8
BLACK
6
CONTINUOUS
10
0.278576
20
0.586748
11
0.278051
21
0.586039
0
LINE
8
BLACK
6
CONTINUOUS
10
0.278051
20
0.586039
11
0.278023
21
0.58598
0
LINE
8
BLACK
6
CONTINUOUS
10
0.278023
20
0.58598
11
0.276149
21
0.584106
0
LINE
8
BLACK
6
CONTINUOUS
10
0.276149
20
0.584106
11
0.275426
21
0.583599
0
LINE
8
BLACK
6
CONTINUOUS
10
0.275426
20
0.583599
11
0.275381
21
0.583552
0
LINE
8
BLACK
6
CONTINUOUS
10
0.275381
20
0.583552
11
0.271632
21
0.581678
0
LINE
8
BLACK
6
CONTINUOUS
10
0.271632
20
0.581678
11
0.270649
21
0.581385
0
LINE
8
BLACK
6
CONTINUOUS
10
0.270649
20
0.581385
11
0.270477
21
0.581426
0
LINE
8
BLACK
6
CONTINUOUS
10
0.270477
20
0.581426
11
0.270311
21
0.581366
0
LINE
8
BLACK
6
CONTINUOUS
10
0.270311
20
0.581366
11
0.260937
21
0.581366
0
LINE
8
BLACK
6
CONTINUOUS
10
0.260937
20
0.581366
11
0.259927
21
0.581544
0
LINE
8
BLACK
6
CONTINUOUS
10
0.259927
20
0.581544
11
0.259792
21
0.581658
0
LINE
8
BLACK
6
CONTINUOUS
10
0.259792
20
0.581658
11
0.259617
21
0.581678
0
LINE
8
BLACK
6
CONTINUOUS
10
0.259617
20
0.581678
11
0.255867
21
0.583552
0
LINE
8
BLACK
6
CONTINUOUS
10
0.255867
20
0.583552
11
0.255158
21
0.584078
0
LINE
8
BLACK
6
CONTINUOUS
10
0.255158
20
0.584078
11
0.2551
21
0.584106
0
LINE
8
BLACK
6
CONTINUOUS
10
0.2551
20
0.584106
11
0.253225
21
0.58598
0
LINE
8
BLACK
6
CONTINUOUS
10
0.253225
20
0.58598
11
0.252719
21
0.586703
0
LINE
8
BLACK
6
CONTINUOUS
10
0.252719
20
0.586703
11
0.252672
21
0.586748
0
LINE
8
BLACK
6
CONTINUOUS
10
0.252672
20
0.586748
11
0.250797
21
0.590497
0
LINE
8
BLACK
6
CONTINUOUS
10
0.250797
20
0.590497
11
0.25063
21
0.591061
0
LINE
8
BLACK
6
CONTINUOUS
10
0.25063
20
0.591061
11
0.240385
21
0.582097
0
LINE
8
BLACK
6
CONTINUOUS
10
0.240385
20
0.582097
11
0.240005
21
0.581867
0
LINE
8
BLACK
6
CONTINUOUS
10
0.240005
20
0.581867
11
0.239917
21
0.581762
0
LINE
8
BLACK
6
CONTINUOUS
10
0.239917
20
0.581762
11
0.239796
21
0.58174
0
LINE
8
BLACK
6
CONTINUOUS
10
0.239796
20
0.58174
11
0.239507
21
0.581566
0
LINE
8
BLACK
6
CONTINUOUS
10
0.239507
20
0.581566
11
0.238711
21
0.581549
0
LINE
8
BLACK
6
CONTINUOUS
10
0.238711
20
0.581549
11
0.237927
21
0.581411
0
LINE
8
BLACK
6
CONTINUOUS
10
0.237927
20
0.581411
11
0.237723
21
0.581529
0
LINE
8
BLACK
6
CONTINUOUS
10
0.237723
20
0.581529
11
0.237488
21
0.581524
0
LINE
8
BLACK
6
CONTINUOUS
10
0.237488
20
0.581524
11
0.236868
21
0.582023
0
LINE
8
BLACK
6
CONTINUOUS
10
0.236868
20
0.582023
11
0.236178
21
0.582421
0
LINE
8
BLACK
6
CONTINUOUS
10
0.236178
20
0.582421
11
0.236098
21
0.582642
0
LINE
8
BLACK
6
CONTINUOUS
10
0.236098
20
0.582642
11
0.235914
21
0.58279
0
LINE
8
BLACK
6
CONTINUOUS
10
0.235914
20
0.58279
11
0.23576
21
0.583571
0
LINE
8
BLACK
6
CONTINUOUS
10
0.23576
20
0.583571
11
0.235487
21
0.584319
0
LINE
8
BLACK
6
CONTINUOUS
10
0.235487
20
0.584319
11
0.235487
21
0.608691
0
LINE
8
BLACK
6
CONTINUOUS
10
0.235487
20
0.608691
11
0.235665
21
0.609701
0
LINE
8
BLACK
6
CONTINUOUS
10
0.235665
20
0.609701
11
0.236964
21
0.611248
0
LINE
8
BLACK
6
CONTINUOUS
10
0.236964
20
0.611248
11
0.238953
21
0.611599
0
LINE
8
BLACK
6
CONTINUOUS
10
0.238953
20
0.611599
11
0.240702
21
0.610589
0
LINE
8
BLACK
6
CONTINUOUS
10
0.240702
20
0.610589
11
0.241393
21
0.608691
0
LINE
8
BLACK
6
CONTINUOUS
10
0.241393
20
0.608691
11
0.241393
21
0.590826
0
LINE
8
BLACK
6
CONTINUOUS
10
0.241393
20
0.590826
11
0.251494
21
0.599664
0
LINE
8
BLACK
6
CONTINUOUS
10
0.251494
20
0.599664
11
0.251874
21
0.599894
0
LINE
8
BLACK
6
CONTINUOUS
10
0.251874
20
0.599894
11
0.251962
21
0.599999
0
LINE
8
BLACK
6
CONTINUOUS
10
0.251962
20
0.599999
11
0.252082
21
0.600021
0
LINE
8
BLACK
6
CONTINUOUS
10
0.252082
20
0.600021
11
0.252371
21
0.600195
0
LINE
8
BLACK
6
CONTINUOUS
10
0.252371
20
0.600195
11
0.253167
21
0.600212
0
LINE
8
BLACK
6
CONTINUOUS
10
0.253167
20
0.600212
11
0.253951
21
0.60035
0
LINE
8
BLACK
6
CONTINUOUS
10
0.253951
20
0.60035
11
0.254155
21
0.600232
0
LINE
8
BLACK
6
CONTINUOUS
10
0.254155
20
0.600232
11
0.254391
21
0.600237
0
LINE
8
BLACK
6
CONTINUOUS
10
0.254391
20
0.600237
11
0.255011
21
0.599738
0
LINE
8
BLACK
6
CONTINUOUS
10
0.255011
20
0.599738
11
0.2557
21
0.59934
0
LINE
8
BLACK
6
CONTINUOUS
10
0.2557
20
0.59934
11
0.255781
21
0.599119
0
LINE
8
BLACK
6
CONTINUOUS
10
0.255781
20
0.599119
11
0.255964
21
0.598971
0
LINE
8
BLACK
6
CONTINUOUS
10
0.255964
20
0.598971
11
0.256119
21
0.59819
0
LINE
8
BLACK
6
CONTINUOUS
10
0.256119
20
0.59819
11
0.256391
21
0.597442
0
LINE
8
BLACK
6
CONTINUOUS
10
0.256391
20
0.597442
11
0.256391
21
0.592515
0
LINE
8
BLACK
6
CONTINUOUS
10
0.256391
20
0.592515
11
0.25774
21
0.589817
0
LINE
8
BLACK
6
CONTINUOUS
10
0.25774
20
0.589817
11
0.258937
21
0.58862
0
LINE
8
BLACK
6
CONTINUOUS
10
0.258937
20
0.58862
11
0.261634
21
0.587271
0
LINE
8
BLACK
6
CONTINUOUS
10
0.261634
20
0.587271
11
0.269614
21
0.587271
0
LINE
8
BLACK
6
CONTINUOUS
10
0.269614
20
0.587271
11
0.272312
21
0.58862
0
LINE
8
BLACK
6
CONTINUOUS
10
0.272312
20
0.58862
11
0.273509
21
0.589817
0
LINE
8
BLACK
6
CONTINUOUS
10
0.273509
20
0.589817
11
0.274857
21
0.592515
0
LINE
8
BLACK
6
CONTINUOUS
10
0.274857
20
0.592515
11
0.274857
21
0.602369
0
LINE
8
BLACK
6
CONTINUOUS
10
0.274857
20
0.602369
11
0.273509
21
0.605067
0
LINE
8
BLACK
6
CONTINUOUS
10
0.273509
20
0.605067
11
0.271973
21
0.606603
0
LINE
8
BLACK
6
CONTINUOUS
10
0.271973
20
0.606603
11
0.271385
21
0.607443
0
LINE
8
BLACK
6
CONTINUOUS
10
0.271385
20
0.607443
11
0.271209
21
0.609455
0
LINE
8
BLACK
6
CONTINUOUS
10
0.271209
20
0.609455
11
0.272367
21
0.611109
0
LINE
8
BLACK
6
CONTINUOUS
10
0.272367
20
0.611109
11
0.274318
21
0.611632
0
LINE
8
BLACK
6
CONTINUOUS
10
0.274318
20
0.611632
11
0.276149
21
0.610779
0
LINE
8
BLACK
6
CONTINUOUS
10
0.728983
20
0.627666
11
0.729119
21
0.627681
0
LINE
8
BLACK
6
CONTINUOUS
10
0.729119
20
0.627681
11
0.736618
21
0.625806
0
LINE
8
BLACK
6
CONTINUOUS
10
0.736618
20
0.625806
11
0.737083
21
0.625598
0
LINE
8
BLACK
6
CONTINUOUS
10
0.737083
20
0.625598
11
0.737222
21
0.625582
0
LINE
8
BLACK
6
CONTINUOUS
10
0.737222
20
0.625582
11
0.740972
21
0.623707
0
LINE
8
BLACK
6
CONTINUOUS
10
0.740972
20
0.623707
11
0.741681
21
0.623181
0
LINE
8
BLACK
6
CONTINUOUS
10
0.741681
20
0.623181
11
0.741739
21
0.623154
0
LINE
8
BLACK
6
CONTINUOUS
10
0.741739
20
0.623154
11
0.743614
21
0.62128
0
LINE
8
BLACK
6
CONTINUOUS
10
0.743614
20
0.62128
11
0.74412
21
0.620556
0
LINE
8
BLACK
6
CONTINUOUS
10
0.74412
20
0.620556
11
0.744167
21
0.620512
0
LINE
8
BLACK
6
CONTINUOUS
10
0.744167
20
0.620512
11
0.746042
21
0.616763
0
LINE
8
BLACK
6
CONTINUOUS
10
0.746042
20
0.616763
11
0.746334
21
0.61578
0
LINE
8
BLACK
6
CONTINUOUS
10
0.746334
20
0.61578
11
0.746293
21
0.615608
0
LINE
8
BLACK
6
CONTINUOUS
10
0.746293
20
0.615608
11
0.746354
21
0.615442
0
LINE
8
BLACK
6
CONTINUOUS
10
0.746354
20
0.615442
11
0.746354
21
0.611693
0
LINE
8
BLACK
6
CONTINUOUS
10
0.746354
20
0.611693
11
0.746175
21
0.610683
0
LINE
8
BLACK
6
CONTINUOUS
10
0.746175
20
0.610683
11
0.746062
21
0.610547
0
LINE
8
BLACK
6
CONTINUOUS
10
0.746062
20
0.610547
11
0.746042
21
0.610372
0
LINE
8
BLACK
6
CONTINUOUS
10
0.746042
20
0.610372
11
0.744167
21
0.606623
0
LINE
8
BLACK
6
CONTINUOUS
10
0.744167
20
0.606623
11
0.743641
21
0.605913
0
LINE
8
BLACK
6
CONTINUOUS
10
0.743641
20
0.605913
11
0.743614
21
0.605855
0
LINE
8
BLACK
6
CONTINUOUS
10
0.743614
20
0.605855
11
0.741739
21
0.60398
0
LINE
8
BLACK
6
CONTINUOUS
10
0.741739
20
0.60398
11
0.741016
21
0.603474
0
LINE
8
BLACK
6
CONTINUOUS
10
0.741016
20
0.603474
11
0.740972
21
0.603427
0
LINE
8
BLACK
6
CONTINUOUS
10
0.740972
20
0.603427
11
0.737222
21
0.601552
0
LINE
8
BLACK
6
CONTINUOUS
10
0.737222
20
0.601552
11
0.736734
21
0.601407
0
LINE
8
BLACK
6
CONTINUOUS
10
0.736734
20
0.601407
11
0.736618
21
0.601329
0
LINE
8
BLACK
6
CONTINUOUS
10
0.736618
20
0.601329
11
0.729119
21
0.599454
0
LINE
8
BLACK
6
CONTINUOUS
10
0.729119
20
0.599454
11
0.728531
21
0.599413
0
LINE
8
BLACK
6
CONTINUOUS
10
0.728531
20
0.599413
11
0.728403
21
0.599366
0
LINE
8
BLACK
6
CONTINUOUS
10
0.728403
20
0.599366
11
0.719029
21
0.599366
0
LINE
8
BLACK
6
CONTINUOUS
10
0.719029
20
0.599366
11
0.718448
21
0.599468
0
LINE
8
BLACK
6
CONTINUOUS
10
0.718448
20
0.599468
11
0.718313
21
0.599454
0
LINE
8
BLACK
6
CONTINUOUS
10
0.718313
20
0.599454
11
0.710814
21
0.601329
0
LINE
8
BLACK
6
CONTINUOUS
10
0.710814
20
0.601329
11
0.710348
21
0.601536
0
LINE
8
BLACK
6
CONTINUOUS
10
0.710348
20
0.601536
11
0.710209
21
0.601552
0
LINE
8
BLACK
6
CONTINUOUS
10
0.710209
20
0.601552
11
0.70646
21
0.603427
0
LINE
8
BLACK
6
CONTINUOUS
10
0.70646
20
0.603427
11
0.705751
21
0.603953
0
LINE
8
BLACK
6
CONTINUOUS
10
0.705751
20
0.603953
11
0.705692
21
0.60398
0
LINE
8
BLACK
6
CONTINUOUS
10
0.705692
20
0.60398
11
0.703818
21
0.605855
0
LINE
8
BLACK
6
CONTINUOUS
10
0.703818
20
0.605855
11
0.703311
21
0.606578
0
LINE
8
BLACK
6
CONTINUOUS
10
0.703311
20
0.606578
11
0.703264
21
0.606622
0
LINE
8
BLACK
6
CONTINUOUS
10
0.703264
20
0.606622
11
0.70139
21
0.610372
0
LINE
8
BLACK
6
CONTINUOUS
10
0.70139
20
0.610372
11
0.701097
21
0.611355
0
LINE
8
BLACK
6
CONTINUOUS
10
0.701097
20
0.611355
11
0.701138
21
0.611527
0
LINE
8
BLACK
6
CONTINUOUS
10
0.701138
20
0.611527
11
0.701078
21
0.611693
0
LINE
8
BLACK
6
CONTINUOUS
10
0.701078
20
0.611693
11
0.701078
21
0.615442
0
LINE
8
BLACK
6
CONTINUOUS
10
0.701078
20
0.615442
11
0.701256
21
0.616452
0
LINE
8
BLACK
6
CONTINUOUS
10
0.701256
20
0.616452
11
0.701369
21
0.616587
0
LINE
8
BLACK
6
CONTINUOUS
10
0.701369
20
0.616587
11
0.70139
21
0.616763
0
LINE
8
BLACK
6
CONTINUOUS
10
0.70139
20
0.616763
11
0.703264
21
0.620512
0
LINE
8
BLACK
6
CONTINUOUS
10
0.703264
20
0.620512
11
0.70379
21
0.621221
0
LINE
8
BLACK
6
CONTINUOUS
10
0.70379
20
0.621221
11
0.703818
21
0.62128
0
LINE
8
BLACK
6
CONTINUOUS
10
0.703818
20
0.62128
11
0.705692
21
0.623154
0
LINE
8
BLACK
6
CONTINUOUS
10
0.705692
20
0.623154
11
0.706415
21
0.623661
0
LINE
8
BLACK
6
CONTINUOUS
10
0.706415
20
0.623661
11
0.70646
21
0.623707
0
LINE
8
BLACK
6
CONTINUOUS
10
0.70646
20
0.623707
11
0.710209
21
0.625582
0
LINE
8
BLACK
6
CONTINUOUS
10
0.710209
20
0.625582
11
0.710698
21
0.625727
0
LINE
8
BLACK
6
CONTINUOUS
10
0.710698
20
0.625727
11
0.710814
21
0.625806
0
LINE
8
BLACK
6
CONTINUOUS
10
0.710814
20
0.625806
11
0.718313
21
0.627681
0
LINE
8
BLACK
6
CONTINUOUS
10
0.718313
20
0.627681
11
0.718901
21
0.627722
0
LINE
8
BLACK
6
CONTINUOUS
10
0.718901
20
0.627722
11
0.719029
21
0.627769
0
LINE
8
BLACK
6
CONTINUOUS
10
0.719029
20
0.627769
11
0.728403
21
0.627769
0
LINE
8
BLACK
6
CONTINUOUS
10
0.728403
20
0.627769
11
0.728983
21
0.627666
0
LINE
8
BLACK
6
CONTINUOUS
10
0.719392
20
0.621863
11
0.71256
21
0.620155
0
LINE
8
BLACK
6
CONTINUOUS
10
0.71256
20
0.620155
11
0.709529
21
0.61864
0
LINE
8
BLACK
6
CONTINUOUS
10
0.709529
20
0.61864
11
0.708332
21
0.617443
0
LINE
8
BLACK
6
CONTINUOUS
10
0.708332
20
0.617443
11
0.706983
21
0.614745
0
LINE
8
BLACK
6
CONTINUOUS
10
0.706983
20
0.614745
11
0.706983
21
0.61239
0
LINE
8
BLACK
6
CONTINUOUS
10
0.706983
20
0.61239
11
0.708332
21
0.609692
0
LINE
8
BLACK
6
CONTINUOUS
10
0.708332
20
0.609692
11
0.709529
21
0.608495
0
LINE
8
BLACK
6
CONTINUOUS
10
0.709529
20
0.608495
11
0.71256
21
0.606979
0
LINE
8
BLACK
6
CONTINUOUS
10
0.71256
20
0.606979
11
0.719392
21
0.605271
0
LINE
8
BLACK
6
CONTINUOUS
10
0.719392
20
0.605271
11
0.728039
21
0.605271
0
LINE
8
BLACK
6
CONTINUOUS
10
0.728039
20
0.605271
11
0.734871
21
0.606979
0
LINE
8
BLACK
6
CONTINUOUS
10
0.734871
20
0.606979
11
0.737902
21
0.608495
0
LINE
8
BLACK
6
CONTINUOUS
10
0.737902
20
0.608495
11
0.739099
21
0.609692
0
LINE
8
BLACK
6
CONTINUOUS
10
0.739099
20
0.609692
11
0.740448
21
0.61239
0
LINE
8
BLACK
6
CONTINUOUS
10
0.740448
20
0.61239
11
0.740448
21
0.614745
0
LINE
8
BLACK
6
CONTINUOUS
10
0.740448
20
0.614745
11
0.739099
21
0.617443
0
LINE
8
BLACK
6
CONTINUOUS
10
0.739099
20
0.617443
11
0.737902
21
0.61864
0
LINE
8
BLACK
6
CONTINUOUS
10
0.737902
20
0.61864
11
0.734871
21
0.620155
0
LINE
8
BLACK
6
CONTINUOUS
10
0.734871
20
0.620155
11
0.728039
21
0.621863
0
LINE
8
BLACK
6
CONTINUOUS
10
0.728039
20
0.621863
11
0.719392
21
0.621863
0
LINE
8
BLACK
6
CONTINUOUS
10
0.251448
20
0.646683
11
0.252561
21
0.644997
0
LINE
8
BLACK
6
CONTINUOUS
10
0.252561
20
0.644997
11
0.25233
21
0.642991
0
LINE
8
BLACK
6
CONTINUOUS
10
0.25233
20
0.642991
11
0.250455
21
0.639241
0
LINE
8
BLACK
6
CONTINUOUS
10
0.250455
20
0.639241
11
0.249929
21
0.638532
0
LINE
8
BLACK
6
CONTINUOUS
10
0.249929
20
0.638532
11
0.249902
21
0.638474
0
LINE
8
BLACK
6
CONTINUOUS
10
0.249902
20
0.638474
11
0.247444
21
0.636015
0
LINE
8
BLACK
6
CONTINUOUS
10
0.247444
20
0.636015
11
0.274857
21
0.636015
0
LINE
8
BLACK
6
CONTINUOUS
10
0.274857
20
0.636015
11
0.274857
21
0.644311
0
LINE
8
BLACK
6
CONTINUOUS
10
0.274857
20
0.644311
11
0.275036
21
0.645321
0
LINE
8
BLACK
6
CONTINUOUS
10
0.275036
20
0.645321
11
0.276334
21
0.646868
0
LINE
8
BLACK
6
CONTINUOUS
10
0.276334
20
0.646868
11
0.278323
21
0.647219
0
LINE
8
BLACK
6
CONTINUOUS
10
0.278323
20
0.647219
11
0.280072
21
0.646209
0
LINE
8
BLACK
6
CONTINUOUS
10
0.280072
20
0.646209
11
0.280763
21
0.644311
0
LINE
8
BLACK
6
CONTINUOUS
10
0.280763
20
0.644311
11
0.280763
21
0.621814
0
LINE
8
BLACK
6
CONTINUOUS
10
0.280763
20
0.621814
11
0.280585
21
0.620804
0
LINE
8
BLACK
6
CONTINUOUS
10
0.280585
20
0.620804
11
0.279287
21
0.619257
0
LINE
8
BLACK
6
CONTINUOUS
10
0.279287
20
0.619257
11
0.277297
21
0.618906
0
LINE
8
BLACK
6
CONTINUOUS
10
0.277297
20
0.618906
11
0.275548
21
0.619916
0
LINE
8
BLACK
6
CONTINUOUS
10
0.275548
20
0.619916
11
0.274857
21
0.621814
0
LINE
8
BLACK
6
CONTINUOUS
10
0.274857
20
0.621814
11
0.274857
21
0.63011
0
LINE
8
BLACK
6
CONTINUOUS
10
0.274857
20
0.63011
11
0.23844
21
0.63011
0
LINE
8
BLACK
6
CONTINUOUS
10
0.23844
20
0.63011
11
0.23743
21
0.630288
0
LINE
8
BLACK
6
CONTINUOUS
10
0.23743
20
0.630288
11
0.2373
21
0.630397
0
LINE
8
BLACK
6
CONTINUOUS
10
0.2373
20
0.630397
11
0.237131
21
0.630416
0
LINE
8
BLACK
6
CONTINUOUS
10
0.237131
20
0.630416
11
0.236539
21
0.631035
0
LINE
8
BLACK
6
CONTINUOUS
10
0.236539
20
0.631035
11
0.235883
21
0.631586
0
LINE
8
BLACK
6
CONTINUOUS
10
0.235883
20
0.631586
11
0.235854
21
0.631753
0
LINE
8
BLACK
6
CONTINUOUS
10
0.235854
20
0.631753
11
0.235736
21
0.631876
0
LINE
8
BLACK
6
CONTINUOUS
10
0.235736
20
0.631876
11
0.235681
21
0.632731
0
LINE
8
BLACK
6
CONTINUOUS
10
0.235681
20
0.632731
11
0.235532
21
0.633575
0
LINE
8
BLACK
6
CONTINUOUS
10
0.235532
20
0.633575
11
0.235617
21
0.633722
0
LINE
8
BLACK
6
CONTINUOUS
10
0.235617
20
0.633722
11
0.235606
21
0.633892
0
LINE
8
BLACK
6
CONTINUOUS
10
0.235606
20
0.633892
11
0.236114
21
0.634582
0
LINE
8
BLACK
6
CONTINUOUS
10
0.236114
20
0.634582
11
0.236542
21
0.635325
0
LINE
8
BLACK
6
CONTINUOUS
10
0.236542
20
0.635325
11
0.236702
21
0.635383
0
LINE
8
BLACK
6
CONTINUOUS
10
0.236702
20
0.635383
11
0.236802
21
0.635519
0
LINE
8
BLACK
6
CONTINUOUS
10
0.236802
20
0.635519
11
0.242183
21
0.639107
0
LINE
8
BLACK
6
CONTINUOUS
10
0.242183
20
0.639107
11
0.245387
21
0.642311
0
LINE
8
BLACK
6
CONTINUOUS
10
0.245387
20
0.642311
11
0.247048
21
0.645632
0
LINE
8
BLACK
6
CONTINUOUS
10
0.247048
20
0.645632
11
0.247659
21
0.646455
0
LINE
8
BLACK
6
CONTINUOUS
10
0.247659
20
0.646455
11
0.249512
21
0.647259
0
LINE
8
BLACK
6
CONTINUOUS
10
0.249512
20
0.647259
11
0.251448
21
0.646683
0
LINE
8
BLACK
6
CONTINUOUS
10
0.547074
20
0.668335
11
0.54721
21
0.668221
0
LINE
8
BLACK
6
CONTINUOUS
10
0.54721
20
0.668221
11
0.547385
21
0.668201
0
LINE
8
BLACK
6
CONTINUOUS
10
0.547385
20
0.668201
11
0.551135
21
0.666326
0
LINE
8
BLACK
6
CONTINUOUS
10
0.551135
20
0.666326
11
0.551844
21
0.6658
0
LINE
8
BLACK
6
CONTINUOUS
10
0.551844
20
0.6658
11
0.551902
21
0.665773
0
LINE
8
BLACK
6
CONTINUOUS
10
0.551902
20
0.665773
11
0.553777
21
0.663898
0
LINE
8
BLACK
6
CONTINUOUS
10
0.553777
20
0.663898
11
0.554283
21
0.663175
0
LINE
8
BLACK
6
CONTINUOUS
10
0.554283
20
0.663175
11
0.55433
21
0.663131
0
LINE
8
BLACK
6
CONTINUOUS
10
0.55433
20
0.663131
11
0.556205
21
0.659381
0
LINE
8
BLACK
6
CONTINUOUS
10
0.556205
20
0.659381
11
0.556497
21
0.658398
0
LINE
8
BLACK
6
CONTINUOUS
10
0.556497
20
0.658398
11
0.556456
21
0.658227
0
LINE
8
BLACK
6
CONTINUOUS
10
0.556456
20
0.658227
11
0.556516
21
0.658061
0
LINE
8
BLACK
6
CONTINUOUS
10
0.556516
20
0.658061
11
0.556516
21
0.648687
0
LINE
8
BLACK
6
CONTINUOUS
10
0.556516
20
0.648687
11
0.556338
21
0.647677
0
LINE
8
BLACK
6
CONTINUOUS
10
0.556338
20
0.647677
11
0.556225
21
0.647542
0
LINE
8
BLACK
6
CONTINUOUS
10
0.556225
20
0.647542
11
0.556205
21
0.647366
0
LINE
8
BLACK
6
CONTINUOUS
10
0.556205
20
0.647366
11
0.55433
21
0.643617
0
LINE
8
BLACK
6
CONTINUOUS
10
0.55433
20
0.643617
11
0.553804
21
0.642908
0
LINE
8
BLACK
6
CONTINUOUS
10
0.553804
20
0.642908
11
0.553777
21
0.642849
0
LINE
8
BLACK
6
CONTINUOUS
10
0.553777
20
0.642849
11
0.551902
21
0.640975
0
LINE
8
BLACK
6
CONTINUOUS
10
0.551902
20
0.640975
11
0.551179
21
0.640468
0
LINE
8
BLACK
6
CONTINUOUS
10
0.551179
20
0.640468
11
0.551135
21
0.640422
0
LINE
8
BLACK
6
CONTINUOUS
10
0.551135
20
0.640422
11
0.547385
21
0.638547
0
LINE
8
BLACK
6
CONTINUOUS
10
0.547385
20
0.638547
11
0.546402
21
0.638254
0
LINE
8
BLACK
6
CONTINUOUS
10
0.546402
20
0.638254
11
0.54623
21
0.638296
0
LINE
8
BLACK
6
CONTINUOUS
10
0.54623
20
0.638296
11
0.546064
21
0.638235
0
LINE
8
BLACK
6
CONTINUOUS
10
0.546064
20
0.638235
11
0.538565
21
0.638235
0
LINE
8
BLACK
6
CONTINUOUS
10
0.538565
20
0.638235
11
0.537555
21
0.638413
0
LINE
8
BLACK
6
CONTINUOUS
10
0.537555
20
0.638413
11
0.53742
21
0.638527
0
LINE
8
BLACK
6
CONTINUOUS
10
0.53742
20
0.638527
11
0.537245
21
0.638547
0
LINE
8
BLACK
6
CONTINUOUS
10
0.537245
20
0.638547
11
0.534952
21
0.639693
0
LINE
8
BLACK
6
CONTINUOUS
10
0.534952
20
0.639693
11
0.535682
21
0.636776
0
LINE
8
BLACK
6
CONTINUOUS
10
0.535682
20
0.636776
11
0.538985
21
0.63182
0
LINE
8
BLACK
6
CONTINUOUS
10
0.538985
20
0.63182
11
0.540314
21
0.630491
0
LINE
8
BLACK
6
CONTINUOUS
10
0.540314
20
0.630491
11
0.543012
21
0.629143
0
LINE
8
BLACK
6
CONTINUOUS
10
0.543012
20
0.629143
11
0.549814
21
0.629143
0
LINE
8
BLACK
6
CONTINUOUS
10
0.549814
20
0.629143
11
0.550824
21
0.628964
0
LINE
8
BLACK
6
CONTINUOUS
10
0.550824
20
0.628964
11
0.552371
21
0.627666
0
LINE
8
BLACK
6
CONTINUOUS
10
0.552371
20
0.627666
11
0.552722
21
0.625677
0
LINE
8
BLACK
6
CONTINUOUS
10
0.552722
20
0.625677
11
0.551712
21
0.623928
0
LINE
8
BLACK
6
CONTINUOUS
10
0.551712
20
0.623928
11
0.549814
21
0.623237
0
LINE
8
BLACK
6
CONTINUOUS
10
0.549814
20
0.623237
11
0.542315
21
0.623237
0
LINE
8
BLACK
6
CONTINUOUS
10
0.542315
20
0.623237
11
0.541305
21
0.623415
0
LINE
8
BLACK
6
CONTINUOUS
10
0.541305
20
0.623415
11
0.54117
21
0.623529
0
LINE
8
BLACK
6
CONTINUOUS
10
0.54117
20
0.623529
11
0.540994
21
0.623549
0
LINE
8
BLACK
6
CONTINUOUS
10
0.540994
20
0.623549
11
0.537245
21
0.625424
0
LINE
8
BLACK
6
CONTINUOUS
10
0.537245
20
0.625424
11
0.536536
21
0.625949
0
LINE
8
BLACK
6
CONTINUOUS
10
0.536536
20
0.625949
11
0.536477
21
0.625977
0
LINE
8
BLACK
6
CONTINUOUS
10
0.536477
20
0.625977
11
0.534603
21
0.627851
0
LINE
8
BLACK
6
CONTINUOUS
10
0.534603
20
0.627851
11
0.534345
21
0.62822
0
LINE
8
BLACK
6
CONTINUOUS
10
0.534345
20
0.62822
11
0.534234
21
0.628301
0
LINE
8
BLACK
6
CONTINUOUS
10
0.534234
20
0.628301
11
0.530484
21
0.633926
0
LINE
8
BLACK
6
CONTINUOUS
10
0.530484
20
0.633926
11
0.530086
21
0.634833
0
LINE
8
BLACK
6
CONTINUOUS
10
0.530086
20
0.634833
11
0.530076
21
0.634847
0
LINE
8
BLACK
6
CONTINUOUS
10
0.530076
20
0.634847
11
0.528202
21
0.642346
0
LINE
8
BLACK
6
CONTINUOUS
10
0.528202
20
0.642346
11
0.52816
21
0.642934
0
LINE
8
BLACK
6
CONTINUOUS
10
0.52816
20
0.642934
11
0.528114
21
0.643063
0
LINE
8
BLACK
6
CONTINUOUS
10
0.528114
20
0.643063
11
0.528114
21
0.658061
0
LINE
8
BLACK
6
CONTINUOUS
10
0.528114
20
0.658061
11
0.528292
21
0.659071
0
LINE
8
BLACK
6
CONTINUOUS
10
0.528292
20
0.659071
11
0.528405
21
0.659206
0
LINE
8
BLACK
6
CONTINUOUS
10
0.528405
20
0.659206
11
0.528425
21
0.659381
0
LINE
8
BLACK
6
CONTINUOUS
10
0.528425
20
0.659381
11
0.5303
21
0.663131
0
LINE
8
BLACK
6
CONTINUOUS
10
0.5303
20
0.663131
11
0.530826
21
0.66384
0
LINE
8
BLACK
6
CONTINUOUS
10
0.530826
20
0.66384
11
0.530853
21
0.663898
0
LINE
8
BLACK
6
CONTINUOUS
10
0.530853
20
0.663898
11
0.532728
21
0.665773
0
LINE
8
BLACK
6
CONTINUOUS
10
0.532728
20
0.665773
11
0.533451
21
0.666279
0
LINE
8
BLACK
6
CONTINUOUS
10
0.533451
20
0.666279
11
0.533495
21
0.666326
0
LINE
8
BLACK
6
CONTINUOUS
10
0.533495
20
0.666326
11
0.537245
21
0.668201
0
LINE
8
BLACK
6
CONTINUOUS
10
0.537245
20
0.668201
11
0.538228
21
0.668493
0
LINE
8
BLACK
6
CONTINUOUS
10
0.538228
20
0.668493
11
0.538399
21
0.668452
0
LINE
8
BLACK
6
CONTINUOUS
10
0.538399
20
0.668452
11
0.538565
21
0.668513
0
LINE
8
BLACK
6
CONTINUOUS
10
0.538565
20
0.668513
11
0.546064
21
0.668513
0
LINE
8
BLACK
6
CONTINUOUS
10
0.546064
20
0.668513
11
0.547074
21
0.668335
0
LINE
8
BLACK
6
CONTINUOUS
10
0.539262
20
0.662607
11
0.536565
21
0.661258
0
LINE
8
BLACK
6
CONTINUOUS
10
0.536565
20
0.661258
11
0.535368
21
0.660061
0
LINE
8
BLACK
6
CONTINUOUS
10
0.535368
20
0.660061
11
0.534019
21
0.657364
0
LINE
8
BLACK
6
CONTINUOUS
10
0.534019
20
0.657364
11
0.534019
21
0.649384
0
LINE
8
BLACK
6
CONTINUOUS
10
0.534019
20
0.649384
11
0.535368
21
0.646686
0
LINE
8
BLACK
6
CONTINUOUS
10
0.535368
20
0.646686
11
0.536565
21
0.645489
0
LINE
8
BLACK
6
CONTINUOUS
10
0.536565
20
0.645489
11
0.539262
21
0.644141
0
LINE
8
BLACK
6
CONTINUOUS
10
0.539262
20
0.644141
11
0.545367
21
0.644141
0
LINE
8
BLACK
6
CONTINUOUS
10
0.545367
20
0.644141
11
0.548065
21
0.645489
0
LINE
8
BLACK
6
CONTINUOUS
10
0.548065
20
0.645489
11
0.549262
21
0.646686
0
LINE
8
BLACK
6
CONTINUOUS
10
0.549262
20
0.646686
11
0.550611
21
0.649384
0
LINE
8
BLACK
6
CONTINUOUS
10
0.550611
20
0.649384
11
0.550611
21
0.657364
0
LINE
8
BLACK
6
CONTINUOUS
10
0.550611
20
0.657364
11
0.549262
21
0.660061
0
LINE
8
BLACK
6
CONTINUOUS
10
0.549262
20
0.660061
11
0.548065
21
0.661258
0
LINE
8
BLACK
6
CONTINUOUS
10
0.548065
20
0.661258
11
0.545367
21
0.662607
0
LINE
8
BLACK
6
CONTINUOUS
10
0.545367
20
0.662607
11
0.539262
21
0.662607
0
LINE
8
BLACK
6
CONTINUOUS
10
0.591442
20
0.668445
11
0.591572
21
0.668468
0
LINE
8
BLACK
6
CONTINUOUS
10
0.591572
20
0.668468
11
0.591685
21
0.668402
0
LINE
8
BLACK
6
CONTINUOUS
10
0.591685
20
0.668402
11
0.592069
21
0.668335
0
LINE
8
BLACK
6
CONTINUOUS
10
0.592069
20
0.668335
11
0.592656
21
0.667841
0
LINE
8
BLACK
6
CONTINUOUS
10
0.592656
20
0.667841
11
0.593321
21
0.667458
0
LINE
8
BLACK
6
CONTINUOUS
10
0.593321
20
0.667458
11
0.593412
21
0.667207
0
LINE
8
BLACK
6
CONTINUOUS
10
0.593412
20
0.667207
11
0.593616
21
0.667036
0
LINE
8
BLACK
6
CONTINUOUS
10
0.593616
20
0.667036
11
0.593749
21
0.666281
0
LINE
8
BLACK
6
CONTINUOUS
10
0.593749
20
0.666281
11
0.594012
21
0.66556
0
LINE
8
BLACK
6
CONTINUOUS
10
0.594012
20
0.66556
11
0.594012
21
0.62619
0
LINE
8
BLACK
6
CONTINUOUS
10
0.594012
20
0.62619
11
0.593834
21
0.62518
0
LINE
8
BLACK
6
CONTINUOUS
10
0.593834
20
0.62518
11
0.592535
21
0.623633
0
LINE
8
BLACK
6
CONTINUOUS
10
0.592535
20
0.623633
11
0.590546
21
0.623282
0
LINE
8
BLACK
6
CONTINUOUS
10
0.590546
20
0.623282
11
0.588797
21
0.624292
0
LINE
8
BLACK
6
CONTINUOUS
10
0.588797
20
0.624292
11
0.588106
21
0.62619
0
LINE
8
BLACK
6
CONTINUOUS
10
0.588106
20
0.62619
11
0.588106
21
0.641985
0
LINE
8
BLACK
6
CONTINUOUS
10
0.588106
20
0.641985
11
0.583222
21
0.641985
0
LINE
8
BLACK
6
CONTINUOUS
10
0.583222
20
0.641985
11
0.570981
21
0.624496
0
LINE
8
BLACK
6
CONTINUOUS
10
0.570981
20
0.624496
11
0.570256
21
0.623771
0
LINE
8
BLACK
6
CONTINUOUS
10
0.570256
20
0.623771
11
0.568305
21
0.623248
0
LINE
8
BLACK
6
CONTINUOUS
10
0.568305
20
0.623248
11
0.566474
21
0.624102
0
LINE
8
BLACK
6
CONTINUOUS
10
0.566474
20
0.624102
11
0.56562
21
0.625932
0
LINE
8
BLACK
6
CONTINUOUS
10
0.56562
20
0.625932
11
0.566143
21
0.627883
0
LINE
8
BLACK
6
CONTINUOUS
10
0.566143
20
0.627883
11
0.576019
21
0.641992
0
LINE
8
BLACK
6
CONTINUOUS
10
0.576019
20
0.641992
11
0.575051
21
0.642163
0
LINE
8
BLACK
6
CONTINUOUS
10
0.575051
20
0.642163
11
0.574916
21
0.642276
0
LINE
8
BLACK
6
CONTINUOUS
10
0.574916
20
0.642276
11
0.57474
21
0.642296
0
LINE
8
BLACK
6
CONTINUOUS
10
0.57474
20
0.642296
11
0.570991
21
0.644171
0
LINE
8
BLACK
6
CONTINUOUS
10
0.570991
20
0.644171
11
0.570282
21
0.644697
0
LINE
8
BLACK
6
CONTINUOUS
10
0.570282
20
0.644697
11
0.570223
21
0.644724
0
LINE
8
BLACK
6
CONTINUOUS
10
0.570223
20
0.644724
11
0.568349
21
0.646599
0
LINE
8
BLACK
6
CONTINUOUS
10
0.568349
20
0.646599
11
0.567842
21
0.647322
0
LINE
8
BLACK
6
CONTINUOUS
10
0.567842
20
0.647322
11
0.567795
21
0.647366
0
LINE
8
BLACK
6
CONTINUOUS
10
0.567795
20
0.647366
11
0.565921
21
0.651116
0
LINE
8
BLACK
6
CONTINUOUS
10
0.565921
20
0.651116
11
0.565628
21
0.652099
0
LINE
8
BLACK
6
CONTINUOUS
10
0.565628
20
0.652099
11
0.565669
21
0.652271
0
LINE
8
BLACK
6
CONTINUOUS
10
0.565669
20
0.652271
11
0.565609
21
0.652436
0
LINE
8
BLACK
6
CONTINUOUS
10
0.565609
20
0.652436
11
0.565609
21
0.658061
0
LINE
8
BLACK
6
CONTINUOUS
10
0.565609
20
0.658061
11
0.565787
21
0.659071
0
LINE
8
BLACK
6
CONTINUOUS
10
0.565787
20
0.659071
11
0.5659
21
0.659206
0
LINE
8
BLACK
6
CONTINUOUS
10
0.5659
20
0.659206
11
0.565921
21
0.659381
0
LINE
8
BLACK
6
CONTINUOUS
10
0.565921
20
0.659381
11
0.567795
21
0.663131
0
LINE
8
BLACK
6
CONTINUOUS
10
0.567795
20
0.663131
11
0.568321
21
0.66384
0
LINE
8
BLACK
6
CONTINUOUS
10
0.568321
20
0.66384
11
0.568349
21
0.663898
0
LINE
8
BLACK
6
CONTINUOUS
10
0.568349
20
0.663898
11
0.570223
21
0.665773
0
LINE
8
BLACK
6
CONTINUOUS
10
0.570223
20
0.665773
11
0.570946
21
0.666279
0
LINE
8
BLACK
6
CONTINUOUS
10
0.570946
20
0.666279
11
0.570991
21
0.666326
0
LINE
8
BLACK
6
CONTINUOUS
10
0.570991
20
0.666326
11
0.57474
21
0.668201
0
LINE
8
BLACK
6
CONTINUOUS
10
0.57474
20
0.668201
11
0.575723
21
0.668493
0
LINE
8
BLACK
6
CONTINUOUS
10
0.575723
20
0.668493
11
0.575895
21
0.668452
0
LINE
8
BLACK
6
CONTINUOUS
10
0.575895
20
0.668452
11
0.576061
21
0.668513
0
LINE
8
BLACK
6
CONTINUOUS
10
0.576061
20
0.668513
11
0.591059
21
0.668513
0
LINE
8
BLACK
6
CONTINUOUS
10
0.591059
20
0.668513
11
0.591442
21
0.668445
0
LINE
8
BLACK
6
CONTINUOUS
10
0.576758
20
0.662607
11
0.57406
21
0.661258
0
LINE
8
BLACK
6
CONTINUOUS
10
0.57406
20
0.661258
11
0.572863
21
0.660061
0
LINE
8
BLACK
6
CONTINUOUS
10
0.572863
20
0.660061
11
0.571514
21
0.657364
0
LINE
8
BLACK
6
CONTINUOUS
10
0.571514
20
0.657364
11
0.571514
21
0.653134
0
LINE
8
BLACK
6
CONTINUOUS
10
0.571514
20
0.653134
11
0.572863
21
0.650436
0
LINE
8
BLACK
6
CONTINUOUS
10
0.572863
20
0.650436
11
0.57406
21
0.649239
0
LINE
8
BLACK
6
CONTINUOUS
10
0.57406
20
0.649239
11
0.576758
21
0.64789
0
LINE
8
BLACK
6
CONTINUOUS
10
0.576758
20
0.64789
11
0.588106
21
0.64789
0
LINE
8
BLACK
6
CONTINUOUS
10
0.588106
20
0.64789
11
0.588106
21
0.662607
0
LINE
8
BLACK
6
CONTINUOUS
10
0.588106
20
0.662607
11
0.576758
21
0.662607
0
LINE
8
BLACK
6
CONTINUOUS
10
0.393398
20
0.673035
11
0.393534
21
0.672922
0
LINE
8
BLACK
6
CONTINUOUS
10
0.393534
20
0.672922
11
0.393709
21
0.672902
0
LINE
8
BLACK
6
CONTINUOUS
10
0.393709
20
0.672902
11
0.397459
21
0.671027
0
LINE
8
BLACK
6
CONTINUOUS
10
0.397459
20
0.671027
11
0.398168
21
0.670501
0
LINE
8
BLACK
6
CONTINUOUS
10
0.398168
20
0.670501
11
0.398226
21
0.670474
0
LINE
8
BLACK
6
CONTINUOUS
10
0.398226
20
0.670474
11
0.400101
21
0.668599
0
LINE
8
BLACK
6
CONTINUOUS
10
0.400101
20
0.668599
11
0.400689
21
0.667759
0
LINE
8
BLACK
6
CONTINUOUS
10
0.400689
20
0.667759
11
0.400865
21
0.665747
0
LINE
8
BLACK
6
CONTINUOUS
10
0.400865
20
0.665747
11
0.399706
21
0.664092
0
LINE
8
BLACK
6
CONTINUOUS
10
0.399706
20
0.664092
11
0.397755
21
0.66357
0
LINE
8
BLACK
6
CONTINUOUS
10
0.397755
20
0.66357
11
0.395925
21
0.664423
0
LINE
8
BLACK
6
CONTINUOUS
10
0.395925
20
0.664423
11
0.394389
21
0.665959
0
LINE
8
BLACK
6
CONTINUOUS
10
0.394389
20
0.665959
11
0.391691
21
0.667308
0
LINE
8
BLACK
6
CONTINUOUS
10
0.391691
20
0.667308
11
0.383712
21
0.667308
0
LINE
8
BLACK
6
CONTINUOUS
10
0.383712
20
0.667308
11
0.381014
21
0.665959
0
LINE
8
BLACK
6
CONTINUOUS
10
0.381014
20
0.665959
11
0.379817
21
0.664762
0
LINE
8
BLACK
6
CONTINUOUS
10
0.379817
20
0.664762
11
0.378468
21
0.662064
0
LINE
8
BLACK
6
CONTINUOUS
10
0.378468
20
0.662064
11
0.378468
21
0.659491
0
LINE
8
BLACK
6
CONTINUOUS
10
0.378468
20
0.659491
11
0.379971
21
0.654983
0
LINE
8
BLACK
6
CONTINUOUS
10
0.379971
20
0.654983
11
0.401975
21
0.632978
0
LINE
8
BLACK
6
CONTINUOUS
10
0.401975
20
0.632978
11
0.402345
21
0.63245
0
LINE
8
BLACK
6
CONTINUOUS
10
0.402345
20
0.63245
11
0.402445
21
0.632367
0
LINE
8
BLACK
6
CONTINUOUS
10
0.402445
20
0.632367
11
0.402458
21
0.632289
0
LINE
8
BLACK
6
CONTINUOUS
10
0.402458
20
0.632289
11
0.402564
21
0.632138
0
LINE
8
BLACK
6
CONTINUOUS
10
0.402564
20
0.632138
11
0.402641
21
0.631253
0
LINE
8
BLACK
6
CONTINUOUS
10
0.402641
20
0.631253
11
0.402795
21
0.630378
0
LINE
8
BLACK
6
CONTINUOUS
10
0.402795
20
0.630378
11
0.402728
21
0.630261
0
LINE
8
BLACK
6
CONTINUOUS
10
0.402728
20
0.630261
11
0.40274
21
0.630126
0
LINE
8
BLACK
6
CONTINUOUS
10
0.40274
20
0.630126
11
0.40223
21
0.629398
0
LINE
8
BLACK
6
CONTINUOUS
10
0.40223
20
0.629398
11
0.401785
21
0.628629
0
LINE
8
BLACK
6
CONTINUOUS
10
0.401785
20
0.628629
11
0.401659
21
0.628582
0
LINE
8
BLACK
6
CONTINUOUS
10
0.401659
20
0.628582
11
0.401581
21
0.628472
0
LINE
8
BLACK
6
CONTINUOUS
10
0.401581
20
0.628472
11
0.400723
21
0.628242
0
LINE
8
BLACK
6
CONTINUOUS
10
0.400723
20
0.628242
11
0.399887
21
0.627938
0
LINE
8
BLACK
6
CONTINUOUS
10
0.399887
20
0.627938
11
0.375516
21
0.627938
0
LINE
8
BLACK
6
CONTINUOUS
10
0.375516
20
0.627938
11
0.374506
21
0.628116
0
LINE
8
BLACK
6
CONTINUOUS
10
0.374506
20
0.628116
11
0.372958
21
0.629414
0
LINE
8
BLACK
6
CONTINUOUS
10
0.372958
20
0.629414
11
0.372608
21
0.631403
0
LINE
8
BLACK
6
CONTINUOUS
10
0.372608
20
0.631403
11
0.373618
21
0.633152
0
LINE
8
BLACK
6
CONTINUOUS
10
0.373618
20
0.633152
11
0.375516
21
0.633843
0
LINE
8
BLACK
6
CONTINUOUS
10
0.375516
20
0.633843
11
0.392759
21
0.633843
0
LINE
8
BLACK
6
CONTINUOUS
10
0.392759
20
0.633843
11
0.375302
21
0.6513
0
LINE
8
BLACK
6
CONTINUOUS
10
0.375302
20
0.6513
11
0.374714
21
0.65214
0
LINE
8
BLACK
6
CONTINUOUS
10
0.374714
20
0.65214
11
0.374699
21
0.652316
0
LINE
8
BLACK
6
CONTINUOUS
10
0.374699
20
0.652316
11
0.374589
21
0.652454
0
LINE
8
BLACK
6
CONTINUOUS
10
0.374589
20
0.652454
11
0.372714
21
0.658078
0
LINE
8
BLACK
6
CONTINUOUS
10
0.372714
20
0.658078
11
0.372585
21
0.658951
0
LINE
8
BLACK
6
CONTINUOUS
10
0.372585
20
0.658951
11
0.372563
21
0.659012
0
LINE
8
BLACK
6
CONTINUOUS
10
0.372563
20
0.659012
11
0.372563
21
0.662762
0
LINE
8
BLACK
6
CONTINUOUS
10
0.372563
20
0.662762
11
0.372741
21
0.663771
0
LINE
8
BLACK
6
CONTINUOUS
10
0.372741
20
0.663771
11
0.372854
21
0.663907
0
LINE
8
BLACK
6
CONTINUOUS
10
0.372854
20
0.663907
11
0.372875
21
0.664082
0
LINE
8
BLACK
6
CONTINUOUS
10
0.372875
20
0.664082
11
0.374749
21
0.667832
0
LINE
8
BLACK
6
CONTINUOUS
10
0.374749
20
0.667832
11
0.375275
21
0.668541
0
LINE
8
BLACK
6
CONTINUOUS
10
0.375275
20
0.668541
11
0.375302
21
0.668599
0
LINE
8
BLACK
6
CONTINUOUS
10
0.375302
20
0.668599
11
0.377177
21
0.670474
0
LINE
8
BLACK
6
CONTINUOUS
10
0.377177
20
0.670474
11
0.3779
21
0.67098
0
LINE
8
BLACK
6
CONTINUOUS
10
0.3779
20
0.67098
11
0.377945
21
0.671027
0
LINE
8
BLACK
6
CONTINUOUS
10
0.377945
20
0.671027
11
0.381694
21
0.672902
0
LINE
8
BLACK
6
CONTINUOUS
10
0.381694
20
0.672902
11
0.382677
21
0.673194
0
LINE
8
BLACK
6
CONTINUOUS
10
0.382677
20
0.673194
11
0.382849
21
0.673153
0
LINE
8
BLACK
6
CONTINUOUS
10
0.382849
20
0.673153
11
0.383015
21
0.673213
0
LINE
8
BLACK
6
CONTINUOUS
10
0.383015
20
0.673213
11
0.392388
21
0.673213
0
LINE
8
BLACK
6
CONTINUOUS
10
0.392388
20
0.673213
11
0.393398
21
0.673035
0
LINE
8
BLACK
6
CONTINUOUS
10
0.424919
20
0.673084
11
0.425089
21
0.673095
0
LINE
8
BLACK
6
CONTINUOUS
10
0.425089
20
0.673095
11
0.425779
21
0.672587
0
LINE
8
BLACK
6
CONTINUOUS
10
0.425779
20
0.672587
11
0.426521
21
0.672159
0
LINE
8
BLACK
6
CONTINUOUS
10
0.426521
20
0.672159
11
0.426579
21
0.671999
0
LINE
8
BLACK
6
CONTINUOUS
10
0.426579
20
0.671999
11
0.426716
21
0.671899
0
LINE
8
BLACK
6
CONTINUOUS
10
0.426716
20
0.671899
11
0.430304
21
0.666517
0
LINE
8
BLACK
6
CONTINUOUS
10
0.430304
20
0.666517
11
0.433508
21
0.663314
0
LINE
8
BLACK
6
CONTINUOUS
10
0.433508
20
0.663314
11
0.436829
21
0.661653
0
LINE
8
BLACK
6
CONTINUOUS
10
0.436829
20
0.661653
11
0.437652
21
0.661042
0
LINE
8
BLACK
6
CONTINUOUS
10
0.437652
20
0.661042
11
0.438455
21
0.659189
0
LINE
8
BLACK
6
CONTINUOUS
10
0.438455
20
0.659189
11
0.43788
21
0.657253
0
LINE
8
BLACK
6
CONTINUOUS
10
0.43788
20
0.657253
11
0.436194
21
0.65614
0
LINE
8
BLACK
6
CONTINUOUS
10
0.436194
20
0.65614
11
0.434188
21
0.656371
0
LINE
8
BLACK
6
CONTINUOUS
10
0.434188
20
0.656371
11
0.430438
21
0.658246
0
LINE
8
BLACK
6
CONTINUOUS
10
0.430438
20
0.658246
11
0.429729
21
0.658772
0
LINE
8
BLACK
6
CONTINUOUS
10
0.429729
20
0.658772
11
0.429671
21
0.658799
0
LINE
8
BLACK
6
CONTINUOUS
10
0.429671
20
0.658799
11
0.427212
21
0.661257
0
LINE
8
BLACK
6
CONTINUOUS
10
0.427212
20
0.661257
11
0.427212
21
0.633843
0
LINE
8
BLACK
6
CONTINUOUS
10
0.427212
20
0.633843
11
0.435508
21
0.633843
0
LINE
8
BLACK
6
CONTINUOUS
10
0.435508
20
0.633843
11
0.436518
21
0.633665
0
LINE
8
BLACK
6
CONTINUOUS
10
0.436518
20
0.633665
11
0.438065
21
0.632367
0
LINE
8
BLACK
6
CONTINUOUS
10
0.438065
20
0.632367
11
0.438416
21
0.630378
0
LINE
8
BLACK
6
CONTINUOUS
10
0.438416
20
0.630378
11
0.437406
21
0.628629
0
LINE
8
BLACK
6
CONTINUOUS
10
0.437406
20
0.628629
11
0.435508
21
0.627938
0
LINE
8
BLACK
6
CONTINUOUS
10
0.435508
20
0.627938
11
0.413011
21
0.627938
0
LINE
8
BLACK
6
CONTINUOUS
10
0.413011
20
0.627938
11
0.412001
21
0.628116
0
LINE
8
BLACK
6
CONTINUOUS
10
0.412001
20
0.628116
11
0.410454
21
0.629414
0
LINE
8
BLACK
6
CONTINUOUS
10
0.410454
20
0.629414
11
0.410103
21
0.631403
0
LINE
8
BLACK
6
CONTINUOUS
10
0.410103
20
0.631403
11
0.411113
21
0.633152
0
LINE
8
BLACK
6
CONTINUOUS
10
0.411113
20
0.633152
11
0.413011
21
0.633843
0
LINE
8
BLACK
6
CONTINUOUS
10
0.413011
20
0.633843
11
0.421307
21
0.633843
0
LINE
8
BLACK
6
CONTINUOUS
10
0.421307
20
0.633843
11
0.421307
21
0.670261
0
LINE
8
BLACK
6
CONTINUOUS
10
0.421307
20
0.670261
11
0.421485
21
0.671271
0
LINE
8
BLACK
6
CONTINUOUS
10
0.421485
20
0.671271
11
0.421594
21
0.671401
0
LINE
8
BLACK
6
CONTINUOUS
10
0.421594
20
0.671401
11
0.421613
21
0.671569
0
LINE
8
BLACK
6
CONTINUOUS
10
0.421613
20
0.671569
11
0.422232
21
0.672161
0
LINE
8
BLACK
6
CONTINUOUS
10
0.422232
20
0.672161
11
0.422783
21
0.672818
0
LINE
8
BLACK
6
CONTINUOUS
10
0.422783
20
0.672818
11
0.42295
21
0.672847
0
LINE
8
BLACK
6
CONTINUOUS
10
0.42295
20
0.672847
11
0.423073
21
0.672965
0
LINE
8
BLACK
6
CONTINUOUS
10
0.423073
20
0.672965
11
0.423928
21
0.67302
0
LINE
8
BLACK
6
CONTINUOUS
10
0.423928
20
0.67302
11
0.424772
21
0.673169
0
LINE
8
BLACK
6
CONTINUOUS
10
0.424772
20
0.673169
11
0.424919
21
0.673084
0
LINE
8
BLACK
6
CONTINUOUS
10
0.473387
20
0.673146
11
0.473516
21
0.673169
0
LINE
8
BLACK
6
CONTINUOUS
10
0.473516
20
0.673169
11
0.47363
21
0.673103
0
LINE
8
BLACK
6
CONTINUOUS
10
0.47363
20
0.673103
11
0.474013
21
0.673035
0
LINE
8
BLACK
6
CONTINUOUS
10
0.474013
20
0.673035
11
0.474601
21
0.672542
0
LINE
8
BLACK
6
CONTINUOUS
10
0.474601
20
0.672542
11
0.475265
21
0.672159
0
LINE
8
BLACK
6
CONTINUOUS
10
0.475265
20
0.672159
11
0.475356
21
0.671908
0
LINE
8
BLACK
6
CONTINUOUS
10
0.475356
20
0.671908
11
0.475561
21
0.671737
0
LINE
8
BLACK
6
CONTINUOUS
10
0.475561
20
0.671737
11
0.475694
21
0.670981
0
LINE
8
BLACK
6
CONTINUOUS
10
0.475694
20
0.670981
11
0.475956
21
0.670261
0
LINE
8
BLACK
6
CONTINUOUS
10
0.475956
20
0.670261
11
0.475956
21
0.630891
0
LINE
8
BLACK
6
CONTINUOUS
10
0.475956
20
0.630891
11
0.475778
21
0.629881
0
LINE
8
BLACK
6
CONTINUOUS
10
0.475778
20
0.629881
11
0.47448
21
0.628333
0
LINE
8
BLACK
6
CONTINUOUS
10
0.47448
20
0.628333
11
0.472491
21
0.627983
0
LINE
8
BLACK
6
CONTINUOUS
10
0.472491
20
0.627983
11
0.470741
21
0.628993
0
LINE
8
BLACK
6
CONTINUOUS
10
0.470741
20
0.628993
11
0.470051
21
0.630891
0
LINE
8
BLACK
6
CONTINUOUS
10
0.470051
20
0.630891
11
0.470051
21
0.646685
0
LINE
8
BLACK
6
CONTINUOUS
10
0.470051
20
0.646685
11
0.465167
21
0.646685
0
LINE
8
BLACK
6
CONTINUOUS
10
0.465167
20
0.646685
11
0.452925
21
0.629197
0
LINE
8
BLACK
6
CONTINUOUS
10
0.452925
20
0.629197
11
0.4522
21
0.628472
0
LINE
8
BLACK
6
CONTINUOUS
10
0.4522
20
0.628472
11
0.450249
21
0.627949
0
LINE
8
BLACK
6
CONTINUOUS
10
0.450249
20
0.627949
11
0.448419
21
0.628802
0
LINE
8
BLACK
6
CONTINUOUS
10
0.448419
20
0.628802
11
0.447565
21
0.630633
0
LINE
8
BLACK
6
CONTINUOUS
10
0.447565
20
0.630633
11
0.448087
21
0.632584
0
LINE
8
BLACK
6
CONTINUOUS
10
0.448087
20
0.632584
11
0.457963
21
0.646693
0
LINE
8
BLACK
6
CONTINUOUS
10
0.457963
20
0.646693
11
0.456995
21
0.646864
0
LINE
8
BLACK
6
CONTINUOUS
10
0.456995
20
0.646864
11
0.45686
21
0.646977
0
LINE
8
BLACK
6
CONTINUOUS
10
0.45686
20
0.646977
11
0.456685
21
0.646997
0
LINE
8
BLACK
6
CONTINUOUS
10
0.456685
20
0.646997
11
0.452935
21
0.648872
0
LINE
8
BLACK
6
CONTINUOUS
10
0.452935
20
0.648872
11
0.452226
21
0.649398
0
LINE
8
BLACK
6
CONTINUOUS
10
0.452226
20
0.649398
11
0.452168
21
0.649425
0
LINE
8
BLACK
6
CONTINUOUS
10
0.452168
20
0.649425
11
0.450293
21
0.6513
0
LINE
8
BLACK
6
CONTINUOUS
10
0.450293
20
0.6513
11
0.449787
21
0.652023
0
LINE
8
BLACK
6
CONTINUOUS
10
0.449787
20
0.652023
11
0.44974
21
0.652067
0
LINE
8
BLACK
6
CONTINUOUS
10
0.44974
20
0.652067
11
0.447865
21
0.655817
0
LINE
8
BLACK
6
CONTINUOUS
10
0.447865
20
0.655817
11
0.447573
21
0.6568
0
LINE
8
BLACK
6
CONTINUOUS
10
0.447573
20
0.6568
11
0.447614
21
0.656971
0
LINE
8
BLACK
6
CONTINUOUS
10
0.447614
20
0.656971
11
0.447553
21
0.657137
0
LINE
8
BLACK
6
CONTINUOUS
10
0.447553
20
0.657137
11
0.447553
21
0.662762
0
LINE
8
BLACK
6
CONTINUOUS
10
0.447553
20
0.662762
11
0.447731
21
0.663771
0
LINE
8
BLACK
6
CONTINUOUS
10
0.447731
20
0.663771
11
0.447845
21
0.663907
0
LINE
8
BLACK
6
CONTINUOUS
10
0.447845
20
0.663907
11
0.447865
21
0.664082
0
LINE
8
BLACK
6
CONTINUOUS
10
0.447865
20
0.664082
11
0.44974
21
0.667832
0
LINE
8
BLACK
6
CONTINUOUS
10
0.44974
20
0.667832
11
0.450266
21
0.668541
0
LINE
8
BLACK
6
CONTINUOUS
10
0.450266
20
0.668541
11
0.450293
21
0.668599
0
LINE
8
BLACK
6
CONTINUOUS
10
0.450293
20
0.668599
11
0.452168
21
0.670474
0
LINE
8
BLACK
6
CONTINUOUS
10
0.452168
20
0.670474
11
0.452891
21
0.67098
0
LINE
8
BLACK
6
CONTINUOUS
10
0.452891
20
0.67098
11
0.452935
21
0.671027
0
LINE
8
BLACK
6
CONTINUOUS
10
0.452935
20
0.671027
11
0.456685
21
0.672902
0
LINE
8
BLACK
6
CONTINUOUS
10
0.456685
20
0.672902
11
0.457668
21
0.673194
0
LINE
8
BLACK
6
CONTINUOUS
10
0.457668
20
0.673194
11
0.457839
21
0.673153
0
LINE
8
BLACK
6
CONTINUOUS
10
0.457839
20
0.673153
11
0.458005
21
0.673213
0
LINE
8
BLACK
6
CONTINUOUS
10
0.458005
20
0.673213
11
0.473003
21
0.673213
0
LINE
8
BLACK
6
CONTINUOUS
10
0.473003
20
0.673213
11
0.473387
21
0.673146
0
LINE
8
BLACK
6
CONTINUOUS
10
0.458702
20
0.667308
11
0.456005
21
0.665959
0
LINE
8
BLACK
6
CONTINUOUS
10
0.456005
20
0.665959
11
0.454808
21
0.664762
0
LINE
8
BLACK
6
CONTINUOUS
10
0.454808
20
0.664762
11
0.453459
21
0.662064
0
LINE
8
BLACK
6
CONTINUOUS
10
0.453459
20
0.662064
11
0.453459
21
0.657834
0
LINE
8
BLACK
6
CONTINUOUS
10
0.453459
20
0.657834
11
0.454808
21
0.655137
0
LINE
8
BLACK
6
CONTINUOUS
10
0.454808
20
0.655137
11
0.456005
21
0.65394
0
LINE
8
BLACK
6
CONTINUOUS
10
0.456005
20
0.65394
11
0.458702
21
0.652591
0
LINE
8
BLACK
6
CONTINUOUS
10
0.458702
20
0.652591
11
0.470051
21
0.652591
0
LINE
8
BLACK
6
CONTINUOUS
10
0.470051
20
0.652591
11
0.470051
21
0.667308
0
LINE
8
BLACK
6
CONTINUOUS
10
0.470051
20
0.667308
11
0.458702
21
0.667308
0
LINE
8
BLACK
6
CONTINUOUS
10
0.717038
20
0.664683
11
0.718151
21
0.662997
0
LINE
8
BLACK
6
CONTINUOUS
10
0.718151
20
0.662997
11
0.71792
21
0.660991
0
LINE
8
BLACK
6
CONTINUOUS
10
0.71792
20
0.660991
11
0.716046
21
0.657241
0
LINE
8
BLACK
6
CONTINUOUS
10
0.716046
20
0.657241
11
0.71552
21
0.656532
0
LINE
8
BLACK
6
CONTINUOUS
10
0.71552
20
0.656532
11
0.715492
21
0.656474
0
LINE
8
BLACK
6
CONTINUOUS
10
0.715492
20
0.656474
11
0.713034
21
0.654015
0
LINE
8
BLACK
6
CONTINUOUS
10
0.713034
20
0.654015
11
0.740448
21
0.654015
0
LINE
8
BLACK
6
CONTINUOUS
10
0.740448
20
0.654015
11
0.740448
21
0.662311
0
LINE
8
BLACK
6
CONTINUOUS
10
0.740448
20
0.662311
11
0.740626
21
0.663321
0
LINE
8
BLACK
6
CONTINUOUS
10
0.740626
20
0.663321
11
0.741924
21
0.664868
0
LINE
8
BLACK
6
CONTINUOUS
10
0.741924
20
0.664868
11
0.743914
21
0.665219
0
LINE
8
BLACK
6
CONTINUOUS
10
0.743914
20
0.665219
11
0.745663
21
0.664209
0
LINE
8
BLACK
6
CONTINUOUS
10
0.745663
20
0.664209
11
0.746354
21
0.662311
0
LINE
8
BLACK
6
CONTINUOUS
10
0.746354
20
0.662311
11
0.746354
21
0.639814
0
LINE
8
BLACK
6
CONTINUOUS
10
0.746354
20
0.639814
11
0.746175
21
0.638804
0
LINE
8
BLACK
6
CONTINUOUS
10
0.746175
20
0.638804
11
0.744877
21
0.637257
0
LINE
8
BLACK
6
CONTINUOUS
10
0.744877
20
0.637257
11
0.742888
21
0.636906
0
LINE
8
BLACK
6
CONTINUOUS
10
0.742888
20
0.636906
11
0.741139
21
0.637916
0
LINE
8
BLACK
6
CONTINUOUS
10
0.741139
20
0.637916
11
0.740448
21
0.639814
0
LINE
8
BLACK
6
CONTINUOUS
10
0.740448
20
0.639814
11
0.740448
21
0.64811
0
LINE
8
BLACK
6
CONTINUOUS
10
0.740448
20
0.64811
11
0.704031
21
0.64811
0
LINE
8
BLACK
6
CONTINUOUS
10
0.704031
20
0.64811
11
0.703021
21
0.648288
0
LINE
8
BLACK
6
CONTINUOUS
10
0.703021
20
0.648288
11
0.702891
21
0.648397
0
LINE
8
BLACK
6
CONTINUOUS
10
0.702891
20
0.648397
11
0.702722
21
0.648416
0
LINE
8
BLACK
6
CONTINUOUS
10
0.702722
20
0.648416
11
0.70213
21
0.649035
0
LINE
8
BLACK
6
CONTINUOUS
10
0.70213
20
0.649035
11
0.701474
21
0.649586
0
LINE
8
BLACK
6
CONTINUOUS
10
0.701474
20
0.649586
11
0.701444
21
0.649753
0
LINE
8
BLACK
6
CONTINUOUS
10
0.701444
20
0.649753
11
0.701327
21
0.649876
0
LINE
8
BLACK
6
CONTINUOUS
10
0.701327
20
0.649876
11
0.701272
21
0.650731
0
LINE
8
BLACK
6
CONTINUOUS
10
0.701272
20
0.650731
11
0.701123
21
0.651575
0
LINE
8
BLACK
6
CONTINUOUS
10
0.701123
20
0.651575
11
0.701208
21
0.651722
0
LINE
8
BLACK
6
CONTINUOUS
10
0.701208
20
0.651722
11
0.701197
21
0.651892
0
LINE
8
BLACK
6
CONTINUOUS
10
0.701197
20
0.651892
11
0.701704
21
0.652582
0
LINE
8
BLACK
6
CONTINUOUS
10
0.701704
20
0.652582
11
0.702133
21
0.653325
0
LINE
8
BLACK
6
CONTINUOUS
10
0.702133
20
0.653325
11
0.702292
21
0.653383
0
LINE
8
BLACK
6
CONTINUOUS
10
0.702292
20
0.653383
11
0.702393
21
0.653519
0
LINE
8
BLACK
6
CONTINUOUS
10
0.702393
20
0.653519
11
0.707774
21
0.657107
0
LINE
8
BLACK
6
CONTINUOUS
10
0.707774
20
0.657107
11
0.710978
21
0.660311
0
LINE
8
BLACK
6
CONTINUOUS
10
0.710978
20
0.660311
11
0.712638
21
0.663632
0
LINE
8
BLACK
6
CONTINUOUS
10
0.712638
20
0.663632
11
0.713249
21
0.664455
0
LINE
8
BLACK
6
CONTINUOUS
10
0.713249
20
0.664455
11
0.715102
21
0.665259
0
LINE
8
BLACK
6
CONTINUOUS
10
0.715102
20
0.665259
11
0.717038
21
0.664683
0
LINE
8
BLACK
6
CONTINUOUS
10
0.336923
20
0.661213
11
0.3375
21
0.659821
0
LINE
8
BLACK
6
CONTINUOUS
10
0.3375
20
0.659821
11
0.3375
21
0.641139
0
LINE
8
BLACK
6
CONTINUOUS
10
0.3375
20
0.641139
11
0.336923
21
0.639748
0
LINE
8
BLACK
6
CONTINUOUS
10
0.336923
20
0.639748
11
0.335531
21
0.639171
0
LINE
8
BLACK
6
CONTINUOUS
10
0.335531
20
0.639171
11
0.33414
21
0.639748
0
LINE
8
BLACK
6
CONTINUOUS
10
0.33414
20
0.639748
11
0.333563
21
0.641139
0
LINE
8
BLACK
6
CONTINUOUS
10
0.333563
20
0.641139
11
0.333563
21
0.659821
0
LINE
8
BLACK
6
CONTINUOUS
10
0.333563
20
0.659821
11
0.33414
21
0.661213
0
LINE
8
BLACK
6
CONTINUOUS
10
0.33414
20
0.661213
11
0.335531
21
0.66179
0
LINE
8
BLACK
6
CONTINUOUS
10
0.335531
20
0.66179
11
0.336923
21
0.661213
0
LINE
8
BLACK
6
CONTINUOUS
10
0.295782
20
0.661213
11
0.296358
21
0.659821
0
LINE
8
BLACK
6
CONTINUOUS
10
0.296358
20
0.659821
11
0.296358
21
0.641139
0
LINE
8
BLACK
6
CONTINUOUS
10
0.296358
20
0.641139
11
0.295782
21
0.639748
0
LINE
8
BLACK
6
CONTINUOUS
10
0.295782
20
0.639748
11
0.29439
21
0.639171
0
LINE
8
BLACK
6
CONTINUOUS
10
0.29439
20
0.639171
11
0.292998
21
0.639748
0
LINE
8
BLACK
6
CONTINUOUS
10
0.292998
20
0.639748
11
0.292421
21
0.641139
0
LINE
8
BLACK
6
CONTINUOUS
10
0.292421
20
0.641139
11
0.292421
21
0.659821
0
LINE
8
BLACK
6
CONTINUOUS
10
0.292421
20
0.659821
11
0.292998
21
0.661213
0
LINE
8
BLACK
6
CONTINUOUS
10
0.292998
20
0.661213
11
0.29439
21
0.66179
0
LINE
8
BLACK
6
CONTINUOUS
10
0.29439
20
0.66179
11
0.295782
21
0.661213
0
LINE
8
BLACK
6
CONTINUOUS
10
0.691254
20
0.662733
11
0.691831
21
0.661341
0
LINE
8
BLACK
6
CONTINUOUS
10
0.691831
20
0.661341
11
0.691831
21
0.642659
0
LINE
8
BLACK
6
CONTINUOUS
10
0.691831
20
0.642659
11
0.691254
21
0.641267
0
LINE
8
BLACK
6
CONTINUOUS
10
0.691254
20
0.641267
11
0.689862
21
0.640691
0
LINE
8
BLACK
6
CONTINUOUS
10
0.689862
20
0.640691
11
0.68847
21
0.641267
0
LINE
8
BLACK
6
CONTINUOUS
10
0.68847
20
0.641267
11
0.687894
21
0.642659
0
LINE
8
BLACK
6
CONTINUOUS
10
0.687894
20
0.642659
11
0.687894
21
0.661341
0
LINE
8
BLACK
6
CONTINUOUS
10
0.687894
20
0.661341
11
0.68847
21
0.662733
0
LINE
8
BLACK
6
CONTINUOUS
10
0.68847
20
0.662733
11
0.689862
21
0.663309
0
LINE
8
BLACK
6
CONTINUOUS
10
0.689862
20
0.663309
11
0.691254
21
0.662733
0
LINE
8
BLACK
6
CONTINUOUS
10
0.650112
20
0.662733
11
0.650689
21
0.661341
0
LINE
8
BLACK
6
CONTINUOUS
10
0.650689
20
0.661341
11
0.650689
21
0.642659
0
LINE
8
BLACK
6
CONTINUOUS
10
0.650689
20
0.642659
11
0.650112
21
0.641267
0
LINE
8
BLACK
6
CONTINUOUS
10
0.650112
20
0.641267
11
0.64872
21
0.640691
0
LINE
8
BLACK
6
CONTINUOUS
10
0.64872
20
0.640691
11
0.647329
21
0.641267
0
LINE
8
BLACK
6
CONTINUOUS
10
0.647329
20
0.641267
11
0.646752
21
0.642659
0
LINE
8
BLACK
6
CONTINUOUS
10
0.646752
20
0.642659
11
0.646752
21
0.661341
0
LINE
8
BLACK
6
CONTINUOUS
10
0.646752
20
0.661341
11
0.647329
21
0.662733
0
LINE
8
BLACK
6
CONTINUOUS
10
0.647329
20
0.662733
11
0.64872
21
0.663309
0
LINE
8
BLACK
6
CONTINUOUS
10
0.64872
20
0.663309
11
0.650112
21
0.662733
0
LINE
8
BLACK
6
CONTINUOUS
10
0.27882
20
0.684581
11
0.280367
21
0.683283
0
LINE
8
BLACK
6
CONTINUOUS
10
0.280367
20
0.683283
11
0.280718
21
0.681294
0
LINE
8
BLACK
6
CONTINUOUS
10
0.280718
20
0.681294
11
0.279708
21
0.679545
0
LINE
8
BLACK
6
CONTINUOUS
10
0.279708
20
0.679545
11
0.27781
21
0.678854
0
LINE
8
BLACK
6
CONTINUOUS
10
0.27781
20
0.678854
11
0.262015
21
0.678854
0
LINE
8
BLACK
6
CONTINUOUS
10
0.262015
20
0.678854
11
0.262015
21
0.67397
0
LINE
8
BLACK
6
CONTINUOUS
10
0.262015
20
0.67397
11
0.279504
21
0.661728
0
LINE
8
BLACK
6
CONTINUOUS
10
0.279504
20
0.661728
11
0.280229
21
0.661003
0
LINE
8
BLACK
6
CONTINUOUS
10
0.280229
20
0.661003
11
0.280752
21
0.659052
0
LINE
8
BLACK
6
CONTINUOUS
10
0.280752
20
0.659052
11
0.279898
21
0.657222
0
LINE
8
BLACK
6
CONTINUOUS
10
0.279898
20
0.657222
11
0.278068
21
0.656368
0
LINE
8
BLACK
6
CONTINUOUS
10
0.278068
20
0.656368
11
0.276117
21
0.65689
0
LINE
8
BLACK
6
CONTINUOUS
10
0.276117
20
0.65689
11
0.262008
21
0.666767
0
LINE
8
BLACK
6
CONTINUOUS
10
0.262008
20
0.666767
11
0.261837
21
0.665799
0
LINE
8
BLACK
6
CONTINUOUS
10
0.261837
20
0.665799
11
0.261724
21
0.665663
0
LINE
8
BLACK
6
CONTINUOUS
10
0.261724
20
0.665663
11
0.261704
21
0.665488
0
LINE
8
BLACK
6
CONTINUOUS
10
0.261704
20
0.665488
11
0.259829
21
0.661738
0
LINE
8
BLACK
6
CONTINUOUS
10
0.259829
20
0.661738
11
0.259303
21
0.661029
0
LINE
8
BLACK
6
CONTINUOUS
10
0.259303
20
0.661029
11
0.259276
21
0.660971
0
LINE
8
BLACK
6
CONTINUOUS
10
0.259276
20
0.660971
11
0.257401
21
0.659096
0
LINE
8
BLACK
6
CONTINUOUS
10
0.257401
20
0.659096
11
0.256678
21
0.65859
0
LINE
8
BLACK
6
CONTINUOUS
10
0.256678
20
0.65859
11
0.256634
21
0.658543
0
LINE
8
BLACK
6
CONTINUOUS
10
0.256634
20
0.658543
11
0.252884
21
0.656668
0
LINE
8
BLACK
6
CONTINUOUS
10
0.252884
20
0.656668
11
0.251901
21
0.656376
0
LINE
8
BLACK
6
CONTINUOUS
10
0.251901
20
0.656376
11
0.251729
21
0.656417
0
LINE
8
BLACK
6
CONTINUOUS
10
0.251729
20
0.656417
11
0.251564
21
0.656357
0
LINE
8
BLACK
6
CONTINUOUS
10
0.251564
20
0.656357
11
0.245939
21
0.656357
0
LINE
8
BLACK
6
CONTINUOUS
10
0.245939
20
0.656357
11
0.244929
21
0.656535
0
LINE
8
BLACK
6
CONTINUOUS
10
0.244929
20
0.656535
11
0.244794
21
0.656648
0
LINE
8
BLACK
6
CONTINUOUS
10
0.244794
20
0.656648
11
0.244619
21
0.656668
0
LINE
8
BLACK
6
CONTINUOUS
10
0.244619
20
0.656668
11
0.240869
21
0.658543
0
LINE
8
BLACK
6
CONTINUOUS
10
0.240869
20
0.658543
11
0.24016
21
0.659069
0
LINE
8
BLACK
6
CONTINUOUS
10
0.24016
20
0.659069
11
0.240102
21
0.659096
0
LINE
8
BLACK
6
CONTINUOUS
10
0.240102
20
0.659096
11
0.238227
21
0.660971
0
LINE
8
BLACK
6
CONTINUOUS
10
0.238227
20
0.660971
11
0.237721
21
0.661694
0
LINE
8
BLACK
6
CONTINUOUS
10
0.237721
20
0.661694
11
0.237674
21
0.661738
0
LINE
8
BLACK
6
CONTINUOUS
10
0.237674
20
0.661738
11
0.235799
21
0.665488
0
LINE
8
BLACK
6
CONTINUOUS
10
0.235799
20
0.665488
11
0.235507
21
0.666471
0
LINE
8
BLACK
6
CONTINUOUS
10
0.235507
20
0.666471
11
0.235548
21
0.666643
0
LINE
8
BLACK
6
CONTINUOUS
10
0.235548
20
0.666643
11
0.235487
21
0.666808
0
LINE
8
BLACK
6
CONTINUOUS
10
0.235487
20
0.666808
11
0.235487
21
0.681807
0
LINE
8
BLACK
6
CONTINUOUS
10
0.235487
20
0.681807
11
0.235555
21
0.68219
0
LINE
8
BLACK
6
CONTINUOUS
10
0.235555
20
0.68219
11
0.235532
21
0.682319
0
LINE
8
BLACK
6
CONTINUOUS
10
0.235532
20
0.682319
11
0.235598
21
0.682433
0
LINE
8
BLACK
6
CONTINUOUS
10
0.235598
20
0.682433
11
0.235665
21
0.682816
0
LINE
8
BLACK
6
CONTINUOUS
10
0.235665
20
0.682816
11
0.236159
21
0.683404
0
LINE
8
BLACK
6
CONTINUOUS
10
0.236159
20
0.683404
11
0.236542
21
0.684068
0
LINE
8
BLACK
6
CONTINUOUS
10
0.236542
20
0.684068
11
0.236793
21
0.68416
0
LINE
8
BLACK
6
CONTINUOUS
10
0.236793
20
0.68416
11
0.236964
21
0.684364
0
LINE
8
BLACK
6
CONTINUOUS
10
0.236964
20
0.684364
11
0.237719
21
0.684497
0
LINE
8
BLACK
6
CONTINUOUS
10
0.237719
20
0.684497
11
0.23844
21
0.684759
0
LINE
8
BLACK
6
CONTINUOUS
10
0.23844
20
0.684759
11
0.27781
21
0.684759
0
LINE
8
BLACK
6
CONTINUOUS
10
0.27781
20
0.684759
11
0.27882
21
0.684581
0
LINE
8
BLACK
6
CONTINUOUS
10
0.241393
20
0.678854
11
0.241393
21
0.667506
0
LINE
8
BLACK
6
CONTINUOUS
10
0.241393
20
0.667506
11
0.242742
21
0.664808
0
LINE
8
BLACK
6
CONTINUOUS
10
0.242742
20
0.664808
11
0.243939
21
0.663611
0
LINE
8
BLACK
6
CONTINUOUS
10
0.243939
20
0.663611
11
0.246636
21
0.662262
0
LINE
8
BLACK
6
CONTINUOUS
10
0.246636
20
0.662262
11
0.250866
21
0.662262
0
LINE
8
BLACK
6
CONTINUOUS
10
0.250866
20
0.662262
11
0.253564
21
0.663611
0
LINE
8
BLACK
6
CONTINUOUS
10
0.253564
20
0.663611
11
0.254761
21
0.664808
0
LINE
8
BLACK
6
CONTINUOUS
10
0.254761
20
0.664808
11
0.25611
21
0.667505
0
LINE
8
BLACK
6
CONTINUOUS
10
0.25611
20
0.667505
11
0.25611
21
0.678854
0
LINE
8
BLACK
6
CONTINUOUS
10
0.25611
20
0.678854
11
0.241393
21
0.678854
0
LINE
8
BLACK
6
CONTINUOUS
10
0.744411
20
0.702581
11
0.745958
21
0.701283
0
LINE
8
BLACK
6
CONTINUOUS
10
0.745958
20
0.701283
11
0.746309
21
0.699294
0
LINE
8
BLACK
6
CONTINUOUS
10
0.746309
20
0.699294
11
0.745299
21
0.697545
0
LINE
8
BLACK
6
CONTINUOUS
10
0.745299
20
0.697545
11
0.743401
21
0.696854
0
LINE
8
BLACK
6
CONTINUOUS
10
0.743401
20
0.696854
11
0.727606
21
0.696854
0
LINE
8
BLACK
6
CONTINUOUS
10
0.727606
20
0.696854
11
0.727606
21
0.69197
0
LINE
8
BLACK
6
CONTINUOUS
10
0.727606
20
0.69197
11
0.745094
21
0.679728
0
LINE
8
BLACK
6
CONTINUOUS
10
0.745094
20
0.679728
11
0.745819
21
0.679003
0
LINE
8
BLACK
6
CONTINUOUS
10
0.745819
20
0.679003
11
0.746342
21
0.677052
0
LINE
8
BLACK
6
CONTINUOUS
10
0.746342
20
0.677052
11
0.745489
21
0.675222
0
LINE
8
BLACK
6
CONTINUOUS
10
0.745489
20
0.675222
11
0.743659
21
0.674368
0
LINE
8
BLACK
6
CONTINUOUS
10
0.743659
20
0.674368
11
0.741707
21
0.67489
0
LINE
8
BLACK
6
CONTINUOUS
10
0.741707
20
0.67489
11
0.727599
21
0.684767
0
LINE
8
BLACK
6
CONTINUOUS
10
0.727599
20
0.684767
11
0.727428
21
0.683799
0
LINE
8
BLACK
6
CONTINUOUS
10
0.727428
20
0.683799
11
0.727314
21
0.683663
0
LINE
8
BLACK
6
CONTINUOUS
10
0.727314
20
0.683663
11
0.727294
21
0.683488
0
LINE
8
BLACK
6
CONTINUOUS
10
0.727294
20
0.683488
11
0.725419
21
0.679738
0
LINE
8
BLACK
6
CONTINUOUS
10
0.725419
20
0.679738
11
0.724894
21
0.679029
0
LINE
8
BLACK
6
CONTINUOUS
10
0.724894
20
0.679029
11
0.724866
21
0.678971
0
LINE
8
BLACK
6
CONTINUOUS
10
0.724866
20
0.678971
11
0.722992
21
0.677096
0
LINE
8
BLACK
6
CONTINUOUS
10
0.722992
20
0.677096
11
0.722268
21
0.67659
0
LINE
8
BLACK
6
CONTINUOUS
10
0.722268
20
0.67659
11
0.722224
21
0.676543
0
LINE
8
BLACK
6
CONTINUOUS
10
0.722224
20
0.676543
11
0.718475
21
0.674668
0
LINE
8
BLACK
6
CONTINUOUS
10
0.718475
20
0.674668
11
0.717492
21
0.674376
0
LINE
8
BLACK
6
CONTINUOUS
10
0.717492
20
0.674376
11
0.71732
21
0.674417
0
LINE
8
BLACK
6
CONTINUOUS
10
0.71732
20
0.674417
11
0.717154
21
0.674357
0
LINE
8
BLACK
6
CONTINUOUS
10
0.717154
20
0.674357
11
0.71153
21
0.674357
0
LINE
8
BLACK
6
CONTINUOUS
10
0.71153
20
0.674357
11
0.71052
21
0.674535
0
LINE
8
BLACK
6
CONTINUOUS
10
0.71052
20
0.674535
11
0.710385
21
0.674648
0
LINE
8
BLACK
6
CONTINUOUS
10
0.710385
20
0.674648
11
0.710209
21
0.674668
0
LINE
8
BLACK
6
CONTINUOUS
10
0.710209
20
0.674668
11
0.70646
21
0.676543
0
LINE
8
BLACK
6
CONTINUOUS
10
0.70646
20
0.676543
11
0.705751
21
0.677069
0
LINE
8
BLACK
6
CONTINUOUS
10
0.705751
20
0.677069
11
0.705692
21
0.677096
0
LINE
8
BLACK
6
CONTINUOUS
10
0.705692
20
0.677096
11
0.703818
21
0.678971
0
LINE
8
BLACK
6
CONTINUOUS
10
0.703818
20
0.678971
11
0.703311
21
0.679694
0
LINE
8
BLACK
6
CONTINUOUS
10
0.703311
20
0.679694
11
0.703264
21
0.679738
0
LINE
8
BLACK
6
CONTINUOUS
10
0.703264
20
0.679738
11
0.70139
21
0.683488
0
LINE
8
BLACK
6
CONTINUOUS
10
0.70139
20
0.683488
11
0.701097
21
0.684471
0
LINE
8
BLACK
6
CONTINUOUS
10
0.701097
20
0.684471
11
0.701138
21
0.684643
0
LINE
8
BLACK
6
CONTINUOUS
10
0.701138
20
0.684643
11
0.701078
21
0.684808
0
LINE
8
BLACK
6
CONTINUOUS
10
0.701078
20
0.684808
11
0.701078
21
0.699807
0
LINE
8
BLACK
6
CONTINUOUS
10
0.701078
20
0.699807
11
0.701146
21
0.70019
0
LINE
8
BLACK
6
CONTINUOUS
10
0.701146
20
0.70019
11
0.701123
21
0.700319
0
LINE
8
BLACK
6
CONTINUOUS
10
0.701123
20
0.700319
11
0.701188
21
0.700433
0
LINE
8
BLACK
6
CONTINUOUS
10
0.701188
20
0.700433
11
0.701256
21
0.700816
0
LINE
8
BLACK
6
CONTINUOUS
10
0.701256
20
0.700816
11
0.701749
21
0.701404
0
LINE
8
BLACK
6
CONTINUOUS
10
0.701749
20
0.701404
11
0.702133
21
0.702068
0
LINE
8
BLACK
6
CONTINUOUS
10
0.702133
20
0.702068
11
0.702383
21
0.70216
0
LINE
8
BLACK
6
CONTINUOUS
10
0.702383
20
0.70216
11
0.702554
21
0.702364
0
LINE
8
BLACK
6
CONTINUOUS
10
0.702554
20
0.702364
11
0.70331
21
0.702497
0
LINE
8
BLACK
6
CONTINUOUS
10
0.70331
20
0.702497
11
0.704031
21
0.702759
0
LINE
8
BLACK
6
CONTINUOUS
10
0.704031
20
0.702759
11
0.743401
21
0.702759
0
LINE
8
BLACK
6
CONTINUOUS
10
0.743401
20
0.702759
11
0.744411
21
0.702581
0
LINE
8
BLACK
6
CONTINUOUS
10
0.706983
20
0.696854
11
0.706983
21
0.685506
0
LINE
8
BLACK
6
CONTINUOUS
10
0.706983
20
0.685506
11
0.708332
21
0.682808
0
LINE
8
BLACK
6
CONTINUOUS
10
0.708332
20
0.682808
11
0.709529
21
0.681611
0
LINE
8
BLACK
6
CONTINUOUS
10
0.709529
20
0.681611
11
0.712227
21
0.680262
0
LINE
8
BLACK
6
CONTINUOUS
10
0.712227
20
0.680262
11
0.716457
21
0.680262
0
LINE
8
BLACK
6
CONTINUOUS
10
0.716457
20
0.680262
11
0.719155
21
0.681611
0
LINE
8
BLACK
6
CONTINUOUS
10
0.719155
20
0.681611
11
0.720352
21
0.682808
0
LINE
8
BLACK
6
CONTINUOUS
10
0.720352
20
0.682808
11
0.7217
21
0.685505
0
LINE
8
BLACK
6
CONTINUOUS
10
0.7217
20
0.685505
11
0.7217
21
0.696854
0
LINE
8
BLACK
6
CONTINUOUS
10
0.7217
20
0.696854
11
0.706983
21
0.696854
0
LINE
8
BLACK
6
CONTINUOUS
10
0.43593
20
0.685821
11
0.436506
21
0.684429
0
LINE
8
BLACK
6
CONTINUOUS
10
0.436506
20
0.684429
11
0.43593
21
0.683037
0
LINE
8
BLACK
6
CONTINUOUS
10
0.43593
20
0.683037
11
0.434538
21
0.682461
0
LINE
8
BLACK
6
CONTINUOUS
10
0.434538
20
0.682461
11
0.415856
21
0.682461
0
LINE
8
BLACK
6
CONTINUOUS
10
0.415856
20
0.682461
11
0.414464
21
0.683037
0
LINE
8
BLACK
6
CONTINUOUS
10
0.414464
20
0.683037
11
0.413887
21
0.684429
0
LINE
8
BLACK
6
CONTINUOUS
10
0.413887
20
0.684429
11
0.414464
21
0.685821
0
LINE
8
BLACK
6
CONTINUOUS
10
0.414464
20
0.685821
11
0.415856
21
0.686398
0
LINE
8
BLACK
6
CONTINUOUS
10
0.415856
20
0.686398
11
0.434538
21
0.686398
0
LINE
8
BLACK
6
CONTINUOUS
10
0.434538
20
0.686398
11
0.43593
21
0.685821
0
LINE
8
BLACK
6
CONTINUOUS
10
0.569788
20
0.685821
11
0.570364
21
0.684429
0
LINE
8
BLACK
6
CONTINUOUS
10
0.570364
20
0.684429
11
0.569788
21
0.683037
0
LINE
8
BLACK
6
CONTINUOUS
10
0.569788
20
0.683037
11
0.568396
21
0.682461
0
LINE
8
BLACK
6
CONTINUOUS
10
0.568396
20
0.682461
11
0.549714
21
0.682461
0
LINE
8
BLACK
6
CONTINUOUS
10
0.549714
20
0.682461
11
0.548322
21
0.683037
0
LINE
8
BLACK
6
CONTINUOUS
10
0.548322
20
0.683037
11
0.547746
21
0.684429
0
LINE
8
BLACK
6
CONTINUOUS
10
0.547746
20
0.684429
11
0.548322
21
0.685821
0
LINE
8
BLACK
6
CONTINUOUS
10
0.548322
20
0.685821
11
0.549714
21
0.686398
0
LINE
8
BLACK
6
CONTINUOUS
10
0.549714
20
0.686398
11
0.568396
21
0.686398
0
LINE
8
BLACK
6
CONTINUOUS
10
0.568396
20
0.686398
11
0.569788
21
0.685821
0
LINE
8
BLACK
6
CONTINUOUS
10
0.43593
20
0.726963
11
0.436506
21
0.725571
0
LINE
8
BLACK
6
CONTINUOUS
10
0.436506
20
0.725571
11
0.43593
21
0.724179
0
LINE
8
BLACK
6
CONTINUOUS
10
0.43593
20
0.724179
11
0.434538
21
0.723602
0
LINE
8
BLACK
6
CONTINUOUS
10
0.434538
20
0.723602
11
0.415856
21
0.723602
0
LINE
8
BLACK
6
CONTINUOUS
10
0.415856
20
0.723602
11
0.414464
21
0.724179
0
LINE
8
BLACK
6
CONTINUOUS
10
0.414464
20
0.724179
11
0.413887
21
0.725571
0
LINE
8
BLACK
6
CONTINUOUS
10
0.413887
20
0.725571
11
0.414464
21
0.726963
0
LINE
8
BLACK
6
CONTINUOUS
10
0.414464
20
0.726963
11
0.415856
21
0.727539
0
LINE
8
BLACK
6
CONTINUOUS
10
0.415856
20
0.727539
11
0.434538
21
0.727539
0
LINE
8
BLACK
6
CONTINUOUS
10
0.434538
20
0.727539
11
0.43593
21
0.726963
0
LINE
8
BLACK
6
CONTINUOUS
10
0.569788
20
0.726963
11
0.570364
21
0.725571
0
LINE
8
BLACK
6
CONTINUOUS
10
0.570364
20
0.725571
11
0.569788
21
0.724179
0
LINE
8
BLACK
6
CONTINUOUS
10
0.569788
20
0.724179
11
0.568396
21
0.723602
0
LINE
8
BLACK
6
CONTINUOUS
10
0.568396
20
0.723602
11
0.549714
21
0.723602
0
LINE
8
BLACK
6
CONTINUOUS
10
0.549714
20
0.723602
11
0.548322
21
0.724179
0
LINE
8
BLACK
6
CONTINUOUS
10
0.548322
20
0.724179
11
0.547746
21
0.725571
0
LINE
8
BLACK
6
CONTINUOUS
10
0.547746
20
0.725571
11
0.548322
21
0.726963
0
LINE
8
BLACK
6
CONTINUOUS
10
0.548322
20
0.726963
11
0.549714
21
0.727539
0
LINE
8
BLACK
6
CONTINUOUS
10
0.549714
20
0.727539
11
0.568396
21
0.727539
0
LINE
8
BLACK
6
CONTINUOUS
10
0.568396
20
0.727539
11
0.569788
21
0.726963
0
LINE
8
BLACK
6
CONTINUOUS
10
0.27481
20
0.751384
11
0.276685
21
0.749509
0
LINE
8
BLACK
6
CONTINUOUS
10
0.276685
20
0.749509
11
0.277191
21
0.748786
0
LINE
8
BLACK
6
CONTINUOUS
10
0.277191
20
0.748786
11
0.277238
21
0.748742
0
LINE
8
BLACK
6
CONTINUOUS
10
0.277238
20
0.748742
11
0.279113
21
0.744992
0
LINE
8
BLACK
6
CONTINUOUS
10
0.279113
20
0.744992
11
0.279405
21
0.74401
0
LINE
8
BLACK
6
CONTINUOUS
10
0.279405
20
0.74401
11
0.279364
21
0.743838
0
LINE
8
BLACK
6
CONTINUOUS
10
0.279364
20
0.743838
11
0.279424
21
0.743672
0
LINE
8
BLACK
6
CONTINUOUS
10
0.279424
20
0.743672
11
0.279424
21
0.734298
0
LINE
8
BLACK
6
CONTINUOUS
10
0.279424
20
0.734298
11
0.279246
21
0.733288
0
LINE
8
BLACK
6
CONTINUOUS
10
0.279246
20
0.733288
11
0.279133
21
0.733153
0
LINE
8
BLACK
6
CONTINUOUS
10
0.279133
20
0.733153
11
0.279113
21
0.732978
0
LINE
8
BLACK
6
CONTINUOUS
10
0.279113
20
0.732978
11
0.277238
21
0.729228
0
LINE
8
BLACK
6
CONTINUOUS
10
0.277238
20
0.729228
11
0.276712
21
0.728519
0
LINE
8
BLACK
6
CONTINUOUS
10
0.276712
20
0.728519
11
0.276685
21
0.728461
0
LINE
8
BLACK
6
CONTINUOUS
10
0.276685
20
0.728461
11
0.27481
21
0.726586
0
LINE
8
BLACK
6
CONTINUOUS
10
0.27481
20
0.726586
11
0.274087
21
0.72608
0
LINE
8
BLACK
6
CONTINUOUS
10
0.274087
20
0.72608
11
0.274043
21
0.726033
0
LINE
8
BLACK
6
CONTINUOUS
10
0.274043
20
0.726033
11
0.270293
21
0.724158
0
LINE
8
BLACK
6
CONTINUOUS
10
0.270293
20
0.724158
11
0.26931
21
0.723866
0
LINE
8
BLACK
6
CONTINUOUS
10
0.26931
20
0.723866
11
0.269139
21
0.723907
0
LINE
8
BLACK
6
CONTINUOUS
10
0.269139
20
0.723907
11
0.268973
21
0.723846
0
LINE
8
BLACK
6
CONTINUOUS
10
0.268973
20
0.723846
11
0.259599
21
0.723846
0
LINE
8
BLACK
6
CONTINUOUS
10
0.259599
20
0.723846
11
0.258589
21
0.724024
0
LINE
8
BLACK
6
CONTINUOUS
10
0.258589
20
0.724024
11
0.258454
21
0.724138
0
LINE
8
BLACK
6
CONTINUOUS
10
0.258454
20
0.724138
11
0.258278
21
0.724158
0
LINE
8
BLACK
6
CONTINUOUS
10
0.258278
20
0.724158
11
0.254529
21
0.726033
0
LINE
8
BLACK
6
CONTINUOUS
10
0.254529
20
0.726033
11
0.25382
21
0.726559
0
LINE
8
BLACK
6
CONTINUOUS
10
0.25382
20
0.726559
11
0.253761
21
0.726586
0
LINE
8
BLACK
6
CONTINUOUS
10
0.253761
20
0.726586
11
0.251887
21
0.728461
0
LINE
8
BLACK
6
CONTINUOUS
10
0.251887
20
0.728461
11
0.25138
21
0.729184
0
LINE
8
BLACK
6
CONTINUOUS
10
0.25138
20
0.729184
11
0.251333
21
0.729228
0
LINE
8
BLACK
6
CONTINUOUS
10
0.251333
20
0.729228
11
0.249459
21
0.732978
0
LINE
8
BLACK
6
CONTINUOUS
10
0.249459
20
0.732978
11
0.249166
21
0.733961
0
LINE
8
BLACK
6
CONTINUOUS
10
0.249166
20
0.733961
11
0.249207
21
0.734132
0
LINE
8
BLACK
6
CONTINUOUS
10
0.249207
20
0.734132
11
0.249147
21
0.734298
0
LINE
8
BLACK
6
CONTINUOUS
10
0.249147
20
0.734298
11
0.249147
21
0.743672
0
LINE
8
BLACK
6
CONTINUOUS
10
0.249147
20
0.743672
11
0.249325
21
0.744682
0
LINE
8
BLACK
6
CONTINUOUS
10
0.249325
20
0.744682
11
0.249439
21
0.744817
0
LINE
8
BLACK
6
CONTINUOUS
10
0.249439
20
0.744817
11
0.249459
21
0.744992
0
LINE
8
BLACK
6
CONTINUOUS
10
0.249459
20
0.744992
11
0.249826
21
0.745726
0
LINE
8
BLACK
6
CONTINUOUS
10
0.249826
20
0.745726
11
0.240054
21
0.744749
0
LINE
8
BLACK
6
CONTINUOUS
10
0.240054
20
0.744749
11
0.240054
21
0.728674
0
LINE
8
BLACK
6
CONTINUOUS
10
0.240054
20
0.728674
11
0.239876
21
0.727664
0
LINE
8
BLACK
6
CONTINUOUS
10
0.239876
20
0.727664
11
0.238578
21
0.726117
0
LINE
8
BLACK
6
CONTINUOUS
10
0.238578
20
0.726117
11
0.236589
21
0.725766
0
LINE
8
BLACK
6
CONTINUOUS
10
0.236589
20
0.725766
11
0.23484
21
0.726776
0
LINE
8
BLACK
6
CONTINUOUS
10
0.23484
20
0.726776
11
0.234149
21
0.728674
0
LINE
8
BLACK
6
CONTINUOUS
10
0.234149
20
0.728674
11
0.234149
21
0.747421
0
LINE
8
BLACK
6
CONTINUOUS
10
0.234149
20
0.747421
11
0.234176
21
0.747575
0
LINE
8
BLACK
6
CONTINUOUS
10
0.234176
20
0.747575
11
0.234157
21
0.747642
0
LINE
8
BLACK
6
CONTINUOUS
10
0.234157
20
0.747642
11
0.234207
21
0.747754
0
LINE
8
BLACK
6
CONTINUOUS
10
0.234207
20
0.747754
11
0.234327
21
0.748431
0
LINE
8
BLACK
6
CONTINUOUS
10
0.234327
20
0.748431
11
0.23473
21
0.748912
0
LINE
8
BLACK
6
CONTINUOUS
10
0.23473
20
0.748912
11
0.234988
21
0.749483
0
LINE
8
BLACK
6
CONTINUOUS
10
0.234988
20
0.749483
11
0.23536
21
0.749662
0
LINE
8
BLACK
6
CONTINUOUS
10
0.23536
20
0.749662
11
0.235625
21
0.749979
0
LINE
8
BLACK
6
CONTINUOUS
10
0.235625
20
0.749979
11
0.236243
21
0.750088
0
LINE
8
BLACK
6
CONTINUOUS
10
0.236243
20
0.750088
11
0.236808
21
0.75036
0
LINE
8
BLACK
6
CONTINUOUS
10
0.236808
20
0.75036
11
0.255555
21
0.752234
0
LINE
8
BLACK
6
CONTINUOUS
10
0.255555
20
0.752234
11
0.256578
21
0.752158
0
LINE
8
BLACK
6
CONTINUOUS
10
0.256578
20
0.752158
11
0.256594
21
0.752147
0
LINE
8
BLACK
6
CONTINUOUS
10
0.256594
20
0.752147
11
0.256613
21
0.752148
0
LINE
8
BLACK
6
CONTINUOUS
10
0.256613
20
0.752148
11
0.257425
21
0.75158
0
LINE
8
BLACK
6
CONTINUOUS
10
0.257425
20
0.75158
11
0.258247
21
0.75102
0
LINE
8
BLACK
6
CONTINUOUS
10
0.258247
20
0.75102
11
0.258252
21
0.751001
0
LINE
8
BLACK
6
CONTINUOUS
10
0.258252
20
0.751001
11
0.258268
21
0.75099
0
LINE
8
BLACK
6
CONTINUOUS
10
0.258268
20
0.75099
11
0.258525
21
0.750031
0
LINE
8
BLACK
6
CONTINUOUS
10
0.258525
20
0.750031
11
0.258794
21
0.749075
0
LINE
8
BLACK
6
CONTINUOUS
10
0.258794
20
0.749075
11
0.258786
21
0.749058
0
LINE
8
BLACK
6
CONTINUOUS
10
0.258786
20
0.749058
11
0.258791
21
0.749039
0
LINE
8
BLACK
6
CONTINUOUS
10
0.258791
20
0.749039
11
0.258372
21
0.748141
0
LINE
8
BLACK
6
CONTINUOUS
10
0.258372
20
0.748141
11
0.257963
21
0.747234
0
LINE
8
BLACK
6
CONTINUOUS
10
0.257963
20
0.747234
11
0.257945
21
0.747226
0
LINE
8
BLACK
6
CONTINUOUS
10
0.257945
20
0.747226
11
0.257937
21
0.747208
0
LINE
8
BLACK
6
CONTINUOUS
10
0.257937
20
0.747208
11
0.256401
21
0.745672
0
LINE
8
BLACK
6
CONTINUOUS
10
0.256401
20
0.745672
11
0.255052
21
0.742975
0
LINE
8
BLACK
6
CONTINUOUS
10
0.255052
20
0.742975
11
0.255052
21
0.734995
0
LINE
8
BLACK
6
CONTINUOUS
10
0.255052
20
0.734995
11
0.256401
21
0.732298
0
LINE
8
BLACK
6
CONTINUOUS
10
0.256401
20
0.732298
11
0.257598
21
0.731101
0
LINE
8
BLACK
6
CONTINUOUS
10
0.257598
20
0.731101
11
0.260296
21
0.729752
0
LINE
8
BLACK
6
CONTINUOUS
10
0.260296
20
0.729752
11
0.268276
21
0.729752
0
LINE
8
BLACK
6
CONTINUOUS
10
0.268276
20
0.729752
11
0.270973
21
0.731101
0
LINE
8
BLACK
6
CONTINUOUS
10
0.270973
20
0.731101
11
0.27217
21
0.732298
0
LINE
8
BLACK
6
CONTINUOUS
10
0.27217
20
0.732298
11
0.273519
21
0.734995
0
LINE
8
BLACK
6
CONTINUOUS
10
0.273519
20
0.734995
11
0.273519
21
0.742975
0
LINE
8
BLACK
6
CONTINUOUS
10
0.273519
20
0.742975
11
0.27217
21
0.745672
0
LINE
8
BLACK
6
CONTINUOUS
10
0.27217
20
0.745672
11
0.270634
21
0.747208
0
LINE
8
BLACK
6
CONTINUOUS
10
0.270634
20
0.747208
11
0.270046
21
0.748048
0
LINE
8
BLACK
6
CONTINUOUS
10
0.270046
20
0.748048
11
0.26987
21
0.75006
0
LINE
8
BLACK
6
CONTINUOUS
10
0.26987
20
0.75006
11
0.271029
21
0.751715
0
LINE
8
BLACK
6
CONTINUOUS
10
0.271029
20
0.751715
11
0.272979
21
0.752238
0
LINE
8
BLACK
6
CONTINUOUS
10
0.272979
20
0.752238
11
0.27481
21
0.751384
0
LINE
8
BLACK
6
CONTINUOUS
10
0.178951
20
0.817731
11
0.179528
21
0.816339
0
LINE
8
BLACK
6
CONTINUOUS
10
0.179528
20
0.816339
11
0.179528
21
0.745472
0
LINE
8
BLACK
6
CONTINUOUS
10
0.179528
20
0.745472
11
0.178951
21
0.744081
0
LINE
8
BLACK
6
CONTINUOUS
10
0.178951
20
0.744081
11
0.177559
21
0.743504
0
LINE
8
BLACK
6
CONTINUOUS
10
0.177559
20
0.743504
11
0.176167
21
0.744081
0
LINE
8
BLACK
6
CONTINUOUS
10
0.176167
20
0.744081
11
0.175591
21
0.745472
0
LINE
8
BLACK
6
CONTINUOUS
10
0.175591
20
0.745472
11
0.175591
21
0.81437
0
LINE
8
BLACK
6
CONTINUOUS
10
0.175591
20
0.81437
11
0.120472
21
0.81437
0
LINE
8
BLACK
6
CONTINUOUS
10
0.120472
20
0.81437
11
0.119081
21
0.814947
0
LINE
8
BLACK
6
CONTINUOUS
10
0.119081
20
0.814947
11
0.118504
21
0.816339
0
LINE
8
BLACK
6
CONTINUOUS
10
0.118504
20
0.816339
11
0.119081
21
0.817731
0
LINE
8
BLACK
6
CONTINUOUS
10
0.119081
20
0.817731
11
0.120472
21
0.818307
0
LINE
8
BLACK
6
CONTINUOUS
10
0.120472
20
0.818307
11
0.177559
21
0.818307
0
LINE
8
BLACK
6
CONTINUOUS
10
0.177559
20
0.818307
11
0.178951
21
0.817731
0
LINE
8
BLACK
6
CONTINUOUS
10
0.766325
20
0.744081
11
0.765748
21
0.745472
0
LINE
8
BLACK
6
CONTINUOUS
10
0.765748
20
0.745472
11
0.766325
21
0.746864
0
LINE
8
BLACK
6
CONTINUOUS
10
0.766325
20
0.746864
11
0.767717
21
0.747441
0
LINE
8
BLACK
6
CONTINUOUS
10
0.767717
20
0.747441
11
0.804724
21
0.747441
0
LINE
8
BLACK
6
CONTINUOUS
10
0.804724
20
0.747441
11
0.804724
21
0.816339
0
LINE
8
BLACK
6
CONTINUOUS
10
0.804724
20
0.816339
11
0.805301
21
0.817731
0
LINE
8
BLACK
6
CONTINUOUS
10
0.805301
20
0.817731
11
0.806693
21
0.818307
0
LINE
8
BLACK
6
CONTINUOUS
10
0.806693
20
0.818307
11
0.86378
21
0.818307
0
LINE
8
BLACK
6
CONTINUOUS
10
0.86378
20
0.818307
11
0.865171
21
0.817731
0
LINE
8
BLACK
6
CONTINUOUS
10
0.865171
20
0.817731
11
0.865748
21
0.816339
0
LINE
8
BLACK
6
CONTINUOUS
10
0.865748
20
0.816339
11
0.865171
21
0.814947
0
LINE
8
BLACK
6
CONTINUOUS
10
0.865171
20
0.814947
11
0.86378
21
0.81437
0
LINE
8
BLACK
6
CONTINUOUS
10
0.86378
20
0.81437
11
0.808661
21
0.81437
0
LINE
8
BLACK
6
CONTINUOUS
10
0.808661
20
0.81437
11
0.808661
21
0.745472
0
LINE
8
BLACK
6
CONTINUOUS
10
0.808661
20
0.745472
11
0.808085
21
0.744081
0
LINE
8
BLACK
6
CONTINUOUS
10
0.808085
20
0.744081
11
0.806693
21
0.743504
0
LINE
8
BLACK
6
CONTINUOUS
10
0.806693
20
0.743504
11
0.767717
21
0.743504
0
LINE
8
BLACK
6
CONTINUOUS
10
0.767717
20
0.743504
11
0.766325
21
0.744081
0
LINE
8
BLACK
6
CONTINUOUS
10
0.720824
20
0.772338
11
0.720959
21
0.772225
0
LINE
8
BLACK
6
CONTINUOUS
10
0.720959
20
0.772225
11
0.721135
21
0.772205
0
LINE
8
BLACK
6
CONTINUOUS
10
0.721135
20
0.772205
11
0.724884
21
0.77033
0
LINE
8
BLACK
6
CONTINUOUS
10
0.724884
20
0.77033
11
0.725593
21
0.769804
0
LINE
8
BLACK
6
CONTINUOUS
10
0.725593
20
0.769804
11
0.725651
21
0.769777
0
LINE
8
BLACK
6
CONTINUOUS
10
0.725651
20
0.769777
11
0.727313
21
0.768115
0
LINE
8
BLACK
6
CONTINUOUS
10
0.727313
20
0.768115
11
0.728975
21
0.769777
0
LINE
8
BLACK
6
CONTINUOUS
10
0.728975
20
0.769777
11
0.729698
21
0.770283
0
LINE
8
BLACK
6
CONTINUOUS
10
0.729698
20
0.770283
11
0.729742
21
0.77033
0
LINE
8
BLACK
6
CONTINUOUS
10
0.729742
20
0.77033
11
0.733492
21
0.772205
0
LINE
8
BLACK
6
CONTINUOUS
10
0.733492
20
0.772205
11
0.734475
21
0.772497
0
LINE
8
BLACK
6
CONTINUOUS
10
0.734475
20
0.772497
11
0.734646
21
0.772456
0
LINE
8
BLACK
6
CONTINUOUS
10
0.734646
20
0.772456
11
0.734812
21
0.772516
0
LINE
8
BLACK
6
CONTINUOUS
10
0.734812
20
0.772516
11
0.742311
21
0.772516
0
LINE
8
BLACK
6
CONTINUOUS
10
0.742311
20
0.772516
11
0.743321
21
0.772338
0
LINE
8
BLACK
6
CONTINUOUS
10
0.743321
20
0.772338
11
0.743456
21
0.772225
0
LINE
8
BLACK
6
CONTINUOUS
10
0.743456
20
0.772225
11
0.743632
21
0.772205
0
LINE
8
BLACK
6
CONTINUOUS
10
0.743632
20
0.772205
11
0.747381
21
0.77033
0
LINE
8
BLACK
6
CONTINUOUS
10
0.747381
20
0.77033
11
0.74809
21
0.769804
0
LINE
8
BLACK
6
CONTINUOUS
10
0.74809
20
0.769804
11
0.748149
21
0.769777
0
LINE
8
BLACK
6
CONTINUOUS
10
0.748149
20
0.769777
11
0.750023
21
0.767902
0
LINE
8
BLACK
6
CONTINUOUS
10
0.750023
20
0.767902
11
0.75053
21
0.767179
0
LINE
8
BLACK
6
CONTINUOUS
10
0.75053
20
0.767179
11
0.750576
21
0.767135
0
LINE
8
BLACK
6
CONTINUOUS
10
0.750576
20
0.767135
11
0.752451
21
0.763385
0
LINE
8
BLACK
6
CONTINUOUS
10
0.752451
20
0.763385
11
0.752744
21
0.762402
0
LINE
8
BLACK
6
CONTINUOUS
10
0.752744
20
0.762402
11
0.752703
21
0.76223
0
LINE
8
BLACK
6
CONTINUOUS
10
0.752703
20
0.76223
11
0.752763
21
0.762065
0
LINE
8
BLACK
6
CONTINUOUS
10
0.752763
20
0.762065
11
0.752763
21
0.754565
0
LINE
8
BLACK
6
CONTINUOUS
10
0.752763
20
0.754565
11
0.752585
21
0.753556
0
LINE
8
BLACK
6
CONTINUOUS
10
0.752585
20
0.753556
11
0.752471
21
0.75342
0
LINE
8
BLACK
6
CONTINUOUS
10
0.752471
20
0.75342
11
0.752451
21
0.753245
0
LINE
8
BLACK
6
CONTINUOUS
10
0.752451
20
0.753245
11
0.750576
21
0.749495
0
LINE
8
BLACK
6
CONTINUOUS
10
0.750576
20
0.749495
11
0.750051
21
0.748786
0
LINE
8
BLACK
6
CONTINUOUS
10
0.750051
20
0.748786
11
0.750023
21
0.748728
0
LINE
8
BLACK
6
CONTINUOUS
10
0.750023
20
0.748728
11
0.748149
21
0.746853
0
LINE
8
BLACK
6
CONTINUOUS
10
0.748149
20
0.746853
11
0.747426
21
0.746347
0
LINE
8
BLACK
6
CONTINUOUS
10
0.747426
20
0.746347
11
0.747381
21
0.7463
0
LINE
8
BLACK
6
CONTINUOUS
10
0.747381
20
0.7463
11
0.743632
21
0.744425
0
LINE
8
BLACK
6
CONTINUOUS
10
0.743632
20
0.744425
11
0.742649
21
0.744133
0
LINE
8
BLACK
6
CONTINUOUS
10
0.742649
20
0.744133
11
0.742477
21
0.744174
0
LINE
8
BLACK
6
CONTINUOUS
10
0.742477
20
0.744174
11
0.742311
21
0.744114
0
LINE
8
BLACK
6
CONTINUOUS
10
0.742311
20
0.744114
11
0.734812
21
0.744114
0
LINE
8
BLACK
6
CONTINUOUS
10
0.734812
20
0.744114
11
0.733802
21
0.744292
0
LINE
8
BLACK
6
CONTINUOUS
10
0.733802
20
0.744292
11
0.733667
21
0.744405
0
LINE
8
BLACK
6
CONTINUOUS
10
0.733667
20
0.744405
11
0.733492
21
0.744425
0
LINE
8
BLACK
6
CONTINUOUS
10
0.733492
20
0.744425
11
0.729742
21
0.7463
0
LINE
8
BLACK
6
CONTINUOUS
10
0.729742
20
0.7463
11
0.729033
21
0.746826
0
LINE
8
BLACK
6
CONTINUOUS
10
0.729033
20
0.746826
11
0.728975
21
0.746853
0
LINE
8
BLACK
6
CONTINUOUS
10
0.728975
20
0.746853
11
0.727313
21
0.748515
0
LINE
8
BLACK
6
CONTINUOUS
10
0.727313
20
0.748515
11
0.725651
21
0.746853
0
LINE
8
BLACK
6
CONTINUOUS
10
0.725651
20
0.746853
11
0.724928
21
0.746347
0
LINE
8
BLACK
6
CONTINUOUS
10
0.724928
20
0.746347
11
0.724884
21
0.7463
0
LINE
8
BLACK
6
CONTINUOUS
10
0.724884
20
0.7463
11
0.721135
21
0.744425
0
LINE
8
BLACK
6
CONTINUOUS
10
0.721135
20
0.744425
11
0.720152
21
0.744133
0
LINE
8
BLACK
6
CONTINUOUS
10
0.720152
20
0.744133
11
0.71998
21
0.744174
0
LINE
8
BLACK
6
CONTINUOUS
10
0.71998
20
0.744174
11
0.719814
21
0.744114
0
LINE
8
BLACK
6
CONTINUOUS
10
0.719814
20
0.744114
11
0.717939
21
0.744114
0
LINE
8
BLACK
6
CONTINUOUS
10
0.717939
20
0.744114
11
0.716929
21
0.744292
0
LINE
8
BLACK
6
CONTINUOUS
10
0.716929
20
0.744292
11
0.716794
21
0.744405
0
LINE
8
BLACK
6
CONTINUOUS
10
0.716794
20
0.744405
11
0.716619
21
0.744425
0
LINE
8
BLACK
6
CONTINUOUS
10
0.716619
20
0.744425
11
0.712869
21
0.7463
0
LINE
8
BLACK
6
CONTINUOUS
10
0.712869
20
0.7463
11
0.71216
21
0.746826
0
LINE
8
BLACK
6
CONTINUOUS
10
0.71216
20
0.746826
11
0.712102
21
0.746853
0
LINE
8
BLACK
6
CONTINUOUS
10
0.712102
20
0.746853
11
0.710227
21
0.748728
0
LINE
8
BLACK
6
CONTINUOUS
10
0.710227
20
0.748728
11
0.709721
21
0.749451
0
LINE
8
BLACK
6
CONTINUOUS
10
0.709721
20
0.749451
11
0.709674
21
0.749495
0
LINE
8
BLACK
6
CONTINUOUS
10
0.709674
20
0.749495
11
0.707799
21
0.753245
0
LINE
8
BLACK
6
CONTINUOUS
10
0.707799
20
0.753245
11
0.707507
21
0.754228
0
LINE
8
BLACK
6
CONTINUOUS
10
0.707507
20
0.754228
11
0.707548
21
0.7544
0
LINE
8
BLACK
6
CONTINUOUS
10
0.707548
20
0.7544
11
0.707487
21
0.754565
0
LINE
8
BLACK
6
CONTINUOUS
10
0.707487
20
0.754565
11
0.707487
21
0.762065
0
LINE
8
BLACK
6
CONTINUOUS
10
0.707487
20
0.762065
11
0.707665
21
0.763074
0
LINE
8
BLACK
6
CONTINUOUS
10
0.707665
20
0.763074
11
0.707779
21
0.76321
0
LINE
8
BLACK
6
CONTINUOUS
10
0.707779
20
0.76321
11
0.707799
21
0.763385
0
LINE
8
BLACK
6
CONTINUOUS
10
0.707799
20
0.763385
11
0.709674
21
0.767135
0
LINE
8
BLACK
6
CONTINUOUS
10
0.709674
20
0.767135
11
0.7102
21
0.767844
0
LINE
8
BLACK
6
CONTINUOUS
10
0.7102
20
0.767844
11
0.710227
21
0.767902
0
LINE
8
BLACK
6
CONTINUOUS
10
0.710227
20
0.767902
11
0.712102
21
0.769777
0
LINE
8
BLACK
6
CONTINUOUS
10
0.712102
20
0.769777
11
0.712825
21
0.770283
0
LINE
8
BLACK
6
CONTINUOUS
10
0.712825
20
0.770283
11
0.712869
21
0.77033
0
LINE
8
BLACK
6
CONTINUOUS
10
0.712869
20
0.77033
11
0.716619
21
0.772205
0
LINE
8
BLACK
6
CONTINUOUS
10
0.716619
20
0.772205
11
0.717602
21
0.772497
0
LINE
8
BLACK
6
CONTINUOUS
10
0.717602
20
0.772497
11
0.717773
21
0.772456
0
LINE
8
BLACK
6
CONTINUOUS
10
0.717773
20
0.772456
11
0.717939
21
0.772516
0
LINE
8
BLACK
6
CONTINUOUS
10
0.717939
20
0.772516
11
0.719814
21
0.772516
0
LINE
8
BLACK
6
CONTINUOUS
10
0.719814
20
0.772516
11
0.720824
21
0.772338
0
LINE
8
BLACK
6
CONTINUOUS
10
0.735509
20
0.766611
11
0.732812
21
0.765262
0
LINE
8
BLACK
6
CONTINUOUS
10
0.732812
20
0.765262
11
0.731615
21
0.764065
0
LINE
8
BLACK
6
CONTINUOUS
10
0.731615
20
0.764065
11
0.730266
21
0.761367
0
LINE
8
BLACK
6
CONTINUOUS
10
0.730266
20
0.761367
11
0.730266
21
0.755262
0
LINE
8
BLACK
6
CONTINUOUS
10
0.730266
20
0.755262
11
0.731615
21
0.752565
0
LINE
8
BLACK
6
CONTINUOUS
10
0.731615
20
0.752565
11
0.732812
21
0.751368
0
LINE
8
BLACK
6
CONTINUOUS
10
0.732812
20
0.751368
11
0.735509
21
0.750019
0
LINE
8
BLACK
6
CONTINUOUS
10
0.735509
20
0.750019
11
0.741614
21
0.750019
0
LINE
8
BLACK
6
CONTINUOUS
10
0.741614
20
0.750019
11
0.744312
21
0.751368
0
LINE
8
BLACK
6
CONTINUOUS
10
0.744312
20
0.751368
11
0.745509
21
0.752565
0
LINE
8
BLACK
6
CONTINUOUS
10
0.745509
20
0.752565
11
0.746857
21
0.755262
0
LINE
8
BLACK
6
CONTINUOUS
10
0.746857
20
0.755262
11
0.746857
21
0.761367
0
LINE
8
BLACK
6
CONTINUOUS
10
0.746857
20
0.761367
11
0.745509
21
0.764065
0
LINE
8
BLACK
6
CONTINUOUS
10
0.745509
20
0.764065
11
0.744312
21
0.765262
0
LINE
8
BLACK
6
CONTINUOUS
10
0.744312
20
0.765262
11
0.741614
21
0.766611
0
LINE
8
BLACK
6
CONTINUOUS
10
0.741614
20
0.766611
11
0.735509
21
0.766611
0
LINE
8
BLACK
6
CONTINUOUS
10
0.718636
20
0.766611
11
0.715939
21
0.765262
0
LINE
8
BLACK
6
CONTINUOUS
10
0.715939
20
0.765262
11
0.714742
21
0.764065
0
LINE
8
BLACK
6
CONTINUOUS
10
0.714742
20
0.764065
11
0.713393
21
0.761367
0
LINE
8
BLACK
6
CONTINUOUS
10
0.713393
20
0.761367
11
0.713393
21
0.755263
0
LINE
8
BLACK
6
CONTINUOUS
10
0.713393
20
0.755263
11
0.714742
21
0.752565
0
LINE
8
BLACK
6
CONTINUOUS
10
0.714742
20
0.752565
11
0.715939
21
0.751368
0
LINE
8
BLACK
6
CONTINUOUS
10
0.715939
20
0.751368
11
0.718636
21
0.750019
0
LINE
8
BLACK
6
CONTINUOUS
10
0.718636
20
0.750019
11
0.719117
21
0.750019
0
LINE
8
BLACK
6
CONTINUOUS
10
0.719117
20
0.750019
11
0.721814
21
0.751368
0
LINE
8
BLACK
6
CONTINUOUS
10
0.721814
20
0.751368
11
0.723012
21
0.752565
0
LINE
8
BLACK
6
CONTINUOUS
10
0.723012
20
0.752565
11
0.72436
21
0.755262
0
LINE
8
BLACK
6
CONTINUOUS
10
0.72436
20
0.755262
11
0.72436
21
0.761367
0
LINE
8
BLACK
6
CONTINUOUS
10
0.72436
20
0.761367
11
0.723012
21
0.764065
0
LINE
8
BLACK
6
CONTINUOUS
10
0.723012
20
0.764065
11
0.721814
21
0.765262
0
LINE
8
BLACK
6
CONTINUOUS
10
0.721814
20
0.765262
11
0.719117
21
0.766611
0
LINE
8
BLACK
6
CONTINUOUS
10
0.719117
20
0.766611
11
0.718636
21
0.766611
0
LINE
8
BLACK
6
CONTINUOUS
10
0.250109
20
0.789163
11
0.251222
21
0.787478
0
LINE
8
BLACK
6
CONTINUOUS
10
0.251222
20
0.787478
11
0.250991
21
0.785471
0
LINE
8
BLACK
6
CONTINUOUS
10
0.250991
20
0.785471
11
0.249116
21
0.781721
0
LINE
8
BLACK
6
CONTINUOUS
10
0.249116
20
0.781721
11
0.248591
21
0.781012
0
LINE
8
BLACK
6
CONTINUOUS
10
0.248591
20
0.781012
11
0.248563
21
0.780954
0
LINE
8
BLACK
6
CONTINUOUS
10
0.248563
20
0.780954
11
0.246105
21
0.778496
0
LINE
8
BLACK
6
CONTINUOUS
10
0.246105
20
0.778496
11
0.273519
21
0.778496
0
LINE
8
BLACK
6
CONTINUOUS
10
0.273519
20
0.778496
11
0.273519
21
0.786792
0
LINE
8
BLACK
6
CONTINUOUS
10
0.273519
20
0.786792
11
0.273697
21
0.787801
0
LINE
8
BLACK
6
CONTINUOUS
10
0.273697
20
0.787801
11
0.274995
21
0.789349
0
LINE
8
BLACK
6
CONTINUOUS
10
0.274995
20
0.789349
11
0.276984
21
0.789699
0
LINE
8
BLACK
6
CONTINUOUS
10
0.276984
20
0.789699
11
0.278734
21
0.78869
0
LINE
8
BLACK
6
CONTINUOUS
10
0.278734
20
0.78869
11
0.279424
21
0.786792
0
LINE
8
BLACK
6
CONTINUOUS
10
0.279424
20
0.786792
11
0.279424
21
0.764294
0
LINE
8
BLACK
6
CONTINUOUS
10
0.279424
20
0.764294
11
0.279246
21
0.763284
0
LINE
8
BLACK
6
CONTINUOUS
10
0.279246
20
0.763284
11
0.277948
21
0.761737
0
LINE
8
BLACK
6
CONTINUOUS
10
0.277948
20
0.761737
11
0.275959
21
0.761386
0
LINE
8
BLACK
6
CONTINUOUS
10
0.275959
20
0.761386
11
0.27421
21
0.762396
0
LINE
8
BLACK
6
CONTINUOUS
10
0.27421
20
0.762396
11
0.273519
21
0.764294
0
LINE
8
BLACK
6
CONTINUOUS
10
0.273519
20
0.764294
11
0.273519
21
0.77259
0
LINE
8
BLACK
6
CONTINUOUS
10
0.273519
20
0.77259
11
0.237102
21
0.77259
0
LINE
8
BLACK
6
CONTINUOUS
10
0.237102
20
0.77259
11
0.236092
21
0.772768
0
LINE
8
BLACK
6
CONTINUOUS
10
0.236092
20
0.772768
11
0.235962
21
0.772877
0
LINE
8
BLACK
6
CONTINUOUS
10
0.235962
20
0.772877
11
0.235793
21
0.772896
0
LINE
8
BLACK
6
CONTINUOUS
10
0.235793
20
0.772896
11
0.235201
21
0.773516
0
LINE
8
BLACK
6
CONTINUOUS
10
0.235201
20
0.773516
11
0.234544
21
0.774067
0
LINE
8
BLACK
6
CONTINUOUS
10
0.234544
20
0.774067
11
0.234515
21
0.774234
0
LINE
8
BLACK
6
CONTINUOUS
10
0.234515
20
0.774234
11
0.234398
21
0.774357
0
LINE
8
BLACK
6
CONTINUOUS
10
0.234398
20
0.774357
11
0.234342
21
0.775212
0
LINE
8
BLACK
6
CONTINUOUS
10
0.234342
20
0.775212
11
0.234194
21
0.776056
0
LINE
8
BLACK
6
CONTINUOUS
10
0.234194
20
0.776056
11
0.234279
21
0.776203
0
LINE
8
BLACK
6
CONTINUOUS
10
0.234279
20
0.776203
11
0.234268
21
0.776372
0
LINE
8
BLACK
6
CONTINUOUS
10
0.234268
20
0.776372
11
0.234775
21
0.777063
0
LINE
8
BLACK
6
CONTINUOUS
10
0.234775
20
0.777063
11
0.235204
21
0.777805
0
LINE
8
BLACK
6
CONTINUOUS
10
0.235204
20
0.777805
11
0.235363
21
0.777863
0
LINE
8
BLACK
6
CONTINUOUS
10
0.235363
20
0.777863
11
0.235464
21
0.778
0
LINE
8
BLACK
6
CONTINUOUS
10
0.235464
20
0.778
11
0.240845
21
0.781587
0
LINE
8
BLACK
6
CONTINUOUS
10
0.240845
20
0.781587
11
0.244049
21
0.784791
0
LINE
8
BLACK
6
CONTINUOUS
10
0.244049
20
0.784791
11
0.245709
21
0.788112
0
LINE
8
BLACK
6
CONTINUOUS
10
0.245709
20
0.788112
11
0.24632
21
0.788936
0
LINE
8
BLACK
6
CONTINUOUS
10
0.24632
20
0.788936
11
0.248173
21
0.789739
0
LINE
8
BLACK
6
CONTINUOUS
10
0.248173
20
0.789739
11
0.250109
21
0.789163
0
LINE
8
BLACK
6
CONTINUOUS
10
0.691254
20
0.786733
11
0.691831
21
0.785341
0
LINE
8
BLACK
6
CONTINUOUS
10
0.691831
20
0.785341
11
0.691831
21
0.766659
0
LINE
8
BLACK
6
CONTINUOUS
10
0.691831
20
0.766659
11
0.691254
21
0.765267
0
LINE
8
BLACK
6
CONTINUOUS
10
0.691254
20
0.765267
11
0.689862
21
0.764691
0
LINE
8
BLACK
6
CONTINUOUS
10
0.689862
20
0.764691
11
0.68847
21
0.765267
0
LINE
8
BLACK
6
CONTINUOUS
10
0.68847
20
0.765267
11
0.687894
21
0.766659
0
LINE
8
BLACK
6
CONTINUOUS
10
0.687894
20
0.766659
11
0.687894
21
0.785341
0
LINE
8
BLACK
6
CONTINUOUS
10
0.687894
20
0.785341
11
0.68847
21
0.786733
0
LINE
8
BLACK
6
CONTINUOUS
10
0.68847
20
0.786733
11
0.689862
21
0.787309
0
LINE
8
BLACK
6
CONTINUOUS
10
0.689862
20
0.787309
11
0.691254
21
0.786733
0
LINE
8
BLACK
6
CONTINUOUS
10
0.650112
20
0.786733
11
0.650689
21
0.785341
0
LINE
8
BLACK
6
CONTINUOUS
10
0.650689
20
0.785341
11
0.650689
21
0.766659
0
LINE
8
BLACK
6
CONTINUOUS
10
0.650689
20
0.766659
11
0.650112
21
0.765267
0
LINE
8
BLACK
6
CONTINUOUS
10
0.650112
20
0.765267
11
0.64872
21
0.764691
0
LINE
8
BLACK
6
CONTINUOUS
10
0.64872
20
0.764691
11
0.647329
21
0.765267
0
LINE
8
BLACK
6
CONTINUOUS
10
0.647329
20
0.765267
11
0.646752
21
0.766659
0
LINE
8
BLACK
6
CONTINUOUS
10
0.646752
20
0.766659
11
0.646752
21
0.785341
0
LINE
8
BLACK
6
CONTINUOUS
10
0.646752
20
0.785341
11
0.647329
21
0.786733
0
LINE
8
BLACK
6
CONTINUOUS
10
0.647329
20
0.786733
11
0.64872
21
0.787309
0
LINE
8
BLACK
6
CONTINUOUS
10
0.64872
20
0.787309
11
0.650112
21
0.786733
0
LINE
8
BLACK
6
CONTINUOUS
10
0.295782
20
0.787213
11
0.296358
21
0.785821
0
LINE
8
BLACK
6
CONTINUOUS
10
0.296358
20
0.785821
11
0.296358
21
0.767139
0
LINE
8
BLACK
6
CONTINUOUS
10
0.296358
20
0.767139
11
0.295782
21
0.765748
0
LINE
8
BLACK
6
CONTINUOUS
10
0.295782
20
0.765748
11
0.29439
21
0.765171
0
LINE
8
BLACK
6
CONTINUOUS
10
0.29439
20
0.765171
11
0.292998
21
0.765748
0
LINE
8
BLACK
6
CONTINUOUS
10
0.292998
20
0.765748
11
0.292421
21
0.767139
0
LINE
8
BLACK
6
CONTINUOUS
10
0.292421
20
0.767139
11
0.292421
21
0.785821
0
LINE
8
BLACK
6
CONTINUOUS
10
0.292421
20
0.785821
11
0.292998
21
0.787213
0
LINE
8
BLACK
6
CONTINUOUS
10
0.292998
20
0.787213
11
0.29439
21
0.78779
0
LINE
8
BLACK
6
CONTINUOUS
10
0.29439
20
0.78779
11
0.295782
21
0.787213
0
LINE
8
BLACK
6
CONTINUOUS
10
0.336923
20
0.787213
11
0.3375
21
0.785821
0
LINE
8
BLACK
6
CONTINUOUS
10
0.3375
20
0.785821
11
0.3375
21
0.767139
0
LINE
8
BLACK
6
CONTINUOUS
10
0.3375
20
0.767139
11
0.336923
21
0.765748
0
LINE
8
BLACK
6
CONTINUOUS
10
0.336923
20
0.765748
11
0.335531
21
0.765171
0
LINE
8
BLACK
6
CONTINUOUS
10
0.335531
20
0.765171
11
0.33414
21
0.765748
0
LINE
8
BLACK
6
CONTINUOUS
10
0.33414
20
0.765748
11
0.333563
21
0.767139
0
LINE
8
BLACK
6
CONTINUOUS
10
0.333563
20
0.767139
11
0.333563
21
0.785821
0
LINE
8
BLACK
6
CONTINUOUS
10
0.333563
20
0.785821
11
0.33414
21
0.787213
0
LINE
8
BLACK
6
CONTINUOUS
10
0.33414
20
0.787213
11
0.335531
21
0.78779
0
LINE
8
BLACK
6
CONTINUOUS
10
0.335531
20
0.78779
11
0.336923
21
0.787213
0
LINE
8
BLACK
6
CONTINUOUS
10
0.569788
20
0.778821
11
0.570364
21
0.777429
0
LINE
8
BLACK
6
CONTINUOUS
10
0.570364
20
0.777429
11
0.569788
21
0.776037
0
LINE
8
BLACK
6
CONTINUOUS
10
0.569788
20
0.776037
11
0.568396
21
0.775461
0
LINE
8
BLACK
6
CONTINUOUS
10
0.568396
20
0.775461
11
0.549714
21
0.775461
0
LINE
8
BLACK
6
CONTINUOUS
10
0.549714
20
0.775461
11
0.548322
21
0.776037
0
LINE
8
BLACK
6
CONTINUOUS
10
0.548322
20
0.776037
11
0.547746
21
0.777429
0
LINE
8
BLACK
6
CONTINUOUS
10
0.547746
20
0.777429
11
0.548322
21
0.778821
0
LINE
8
BLACK
6
CONTINUOUS
10
0.548322
20
0.778821
11
0.549714
21
0.779398
0
LINE
8
BLACK
6
CONTINUOUS
10
0.549714
20
0.779398
11
0.568396
21
0.779398
0
LINE
8
BLACK
6
CONTINUOUS
10
0.568396
20
0.779398
11
0.569788
21
0.778821
0
LINE
8
BLACK
6
CONTINUOUS
10
0.43593
20
0.778821
11
0.436506
21
0.777429
0
LINE
8
BLACK
6
CONTINUOUS
10
0.436506
20
0.777429
11
0.43593
21
0.776037
0
LINE
8
BLACK
6
CONTINUOUS
10
0.43593
20
0.776037
11
0.434538
21
0.775461
0
LINE
8
BLACK
6
CONTINUOUS
10
0.434538
20
0.775461
11
0.415856
21
0.775461
0
LINE
8
BLACK
6
CONTINUOUS
10
0.415856
20
0.775461
11
0.414464
21
0.776037
0
LINE
8
BLACK
6
CONTINUOUS
10
0.414464
20
0.776037
11
0.413887
21
0.777429
0
LINE
8
BLACK
6
CONTINUOUS
10
0.413887
20
0.777429
11
0.414464
21
0.778821
0
LINE
8
BLACK
6
CONTINUOUS
10
0.414464
20
0.778821
11
0.415856
21
0.779398
0
LINE
8
BLACK
6
CONTINUOUS
10
0.415856
20
0.779398
11
0.434538
21
0.779398
0
LINE
8
BLACK
6
CONTINUOUS
10
0.434538
20
0.779398
11
0.43593
21
0.778821
0
LINE
8
BLACK
6
CONTINUOUS
10
0.75082
20
0.809834
11
0.752367
21
0.808535
0
LINE
8
BLACK
6
CONTINUOUS
10
0.752367
20
0.808535
11
0.752718
21
0.806546
0
LINE
8
BLACK
6
CONTINUOUS
10
0.752718
20
0.806546
11
0.751708
21
0.804797
0
LINE
8
BLACK
6
CONTINUOUS
10
0.751708
20
0.804797
11
0.74981
21
0.804106
0
LINE
8
BLACK
6
CONTINUOUS
10
0.74981
20
0.804106
11
0.734015
21
0.804106
0
LINE
8
BLACK
6
CONTINUOUS
10
0.734015
20
0.804106
11
0.734015
21
0.799222
0
LINE
8
BLACK
6
CONTINUOUS
10
0.734015
20
0.799222
11
0.751504
21
0.786981
0
LINE
8
BLACK
6
CONTINUOUS
10
0.751504
20
0.786981
11
0.752229
21
0.786256
0
LINE
8
BLACK
6
CONTINUOUS
10
0.752229
20
0.786256
11
0.752752
21
0.784305
0
LINE
8
BLACK
6
CONTINUOUS
10
0.752752
20
0.784305
11
0.751898
21
0.782474
0
LINE
8
BLACK
6
CONTINUOUS
10
0.751898
20
0.782474
11
0.750068
21
0.78162
0
LINE
8
BLACK
6
CONTINUOUS
10
0.750068
20
0.78162
11
0.748117
21
0.782143
0
LINE
8
BLACK
6
CONTINUOUS
10
0.748117
20
0.782143
11
0.734008
21
0.792019
0
LINE
8
BLACK
6
CONTINUOUS
10
0.734008
20
0.792019
11
0.733837
21
0.791051
0
LINE
8
BLACK
6
CONTINUOUS
10
0.733837
20
0.791051
11
0.733724
21
0.790916
0
LINE
8
BLACK
6
CONTINUOUS
10
0.733724
20
0.790916
11
0.733704
21
0.79074
0
LINE
8
BLACK
6
CONTINUOUS
10
0.733704
20
0.79074
11
0.731829
21
0.786991
0
LINE
8
BLACK
6
CONTINUOUS
10
0.731829
20
0.786991
11
0.731303
21
0.786282
0
LINE
8
BLACK
6
CONTINUOUS
10
0.731303
20
0.786282
11
0.731276
21
0.786223
0
LINE
8
BLACK
6
CONTINUOUS
10
0.731276
20
0.786223
11
0.729401
21
0.784349
0
LINE
8
BLACK
6
CONTINUOUS
10
0.729401
20
0.784349
11
0.728678
21
0.783842
0
LINE
8
BLACK
6
CONTINUOUS
10
0.728678
20
0.783842
11
0.728634
21
0.783795
0
LINE
8
BLACK
6
CONTINUOUS
10
0.728634
20
0.783795
11
0.724884
21
0.781921
0
LINE
8
BLACK
6
CONTINUOUS
10
0.724884
20
0.781921
11
0.723901
21
0.781628
0
LINE
8
BLACK
6
CONTINUOUS
10
0.723901
20
0.781628
11
0.723729
21
0.781669
0
LINE
8
BLACK
6
CONTINUOUS
10
0.723729
20
0.781669
11
0.723564
21
0.781609
0
LINE
8
BLACK
6
CONTINUOUS
10
0.723564
20
0.781609
11
0.717939
21
0.781609
0
LINE
8
BLACK
6
CONTINUOUS
10
0.717939
20
0.781609
11
0.716929
21
0.781787
0
LINE
8
BLACK
6
CONTINUOUS
10
0.716929
20
0.781787
11
0.716794
21
0.7819
0
LINE
8
BLACK
6
CONTINUOUS
10
0.716794
20
0.7819
11
0.716619
21
0.781921
0
LINE
8
BLACK
6
CONTINUOUS
10
0.716619
20
0.781921
11
0.712869
21
0.783795
0
LINE
8
BLACK
6
CONTINUOUS
10
0.712869
20
0.783795
11
0.71216
21
0.784321
0
LINE
8
BLACK
6
CONTINUOUS
10
0.71216
20
0.784321
11
0.712102
21
0.784349
0
LINE
8
BLACK
6
CONTINUOUS
10
0.712102
20
0.784349
11
0.710227
21
0.786223
0
LINE
8
BLACK
6
CONTINUOUS
10
0.710227
20
0.786223
11
0.709721
21
0.786946
0
LINE
8
BLACK
6
CONTINUOUS
10
0.709721
20
0.786946
11
0.709674
21
0.786991
0
LINE
8
BLACK
6
CONTINUOUS
10
0.709674
20
0.786991
11
0.707799
21
0.79074
0
LINE
8
BLACK
6
CONTINUOUS
10
0.707799
20
0.79074
11
0.707507
21
0.791723
0
LINE
8
BLACK
6
CONTINUOUS
10
0.707507
20
0.791723
11
0.707548
21
0.791895
0
LINE
8
BLACK
6
CONTINUOUS
10
0.707548
20
0.791895
11
0.707487
21
0.792061
0
LINE
8
BLACK
6
CONTINUOUS
10
0.707487
20
0.792061
11
0.707487
21
0.807059
0
LINE
8
BLACK
6
CONTINUOUS
10
0.707487
20
0.807059
11
0.707555
21
0.807442
0
LINE
8
BLACK
6
CONTINUOUS
10
0.707555
20
0.807442
11
0.707532
21
0.807572
0
LINE
8
BLACK
6
CONTINUOUS
10
0.707532
20
0.807572
11
0.707598
21
0.807685
0
LINE
8
BLACK
6
CONTINUOUS
10
0.707598
20
0.807685
11
0.707665
21
0.808069
0
LINE
8
BLACK
6
CONTINUOUS
10
0.707665
20
0.808069
11
0.708159
21
0.808656
0
LINE
8
BLACK
6
CONTINUOUS
10
0.708159
20
0.808656
11
0.708542
21
0.809321
0
LINE
8
BLACK
6
CONTINUOUS
10
0.708542
20
0.809321
11
0.708793
21
0.809412
0
LINE
8
BLACK
6
CONTINUOUS
10
0.708793
20
0.809412
11
0.708964
21
0.809616
0
LINE
8
BLACK
6
CONTINUOUS
10
0.708964
20
0.809616
11
0.709719
21
0.809749
0
LINE
8
BLACK
6
CONTINUOUS
10
0.709719
20
0.809749
11
0.71044
21
0.810012
0
LINE
8
BLACK
6
CONTINUOUS
10
0.71044
20
0.810012
11
0.74981
21
0.810012
0
LINE
8
BLACK
6
CONTINUOUS
10
0.74981
20
0.810012
11
0.75082
21
0.809834
0
LINE
8
BLACK
6
CONTINUOUS
10
0.713393
20
0.804106
11
0.713393
21
0.792758
0
LINE
8
BLACK
6
CONTINUOUS
10
0.713393
20
0.792758
11
0.714742
21
0.79006
0
LINE
8
BLACK
6
CONTINUOUS
10
0.714742
20
0.79006
11
0.715939
21
0.788863
0
LINE
8
BLACK
6
CONTINUOUS
10
0.715939
20
0.788863
11
0.718636
21
0.787514
0
LINE
8
BLACK
6
CONTINUOUS
10
0.718636
20
0.787514
11
0.722866
21
0.787514
0
LINE
8
BLACK
6
CONTINUOUS
10
0.722866
20
0.787514
11
0.725564
21
0.788863
0
LINE
8
BLACK
6
CONTINUOUS
10
0.725564
20
0.788863
11
0.726761
21
0.79006
0
LINE
8
BLACK
6
CONTINUOUS
10
0.726761
20
0.79006
11
0.72811
21
0.792758
0
LINE
8
BLACK
6
CONTINUOUS
10
0.72811
20
0.792758
11
0.72811
21
0.804106
0
LINE
8
BLACK
6
CONTINUOUS
10
0.72811
20
0.804106
11
0.713393
21
0.804106
0
LINE
8
BLACK
6
CONTINUOUS
10
0.277482
20
0.827062
11
0.279029
21
0.825763
0
LINE
8
BLACK
6
CONTINUOUS
10
0.279029
20
0.825763
11
0.27938
21
0.823774
0
LINE
8
BLACK
6
CONTINUOUS
10
0.27938
20
0.823774
11
0.27837
21
0.822025
0
LINE
8
BLACK
6
CONTINUOUS
10
0.27837
20
0.822025
11
0.276472
21
0.821334
0
LINE
8
BLACK
6
CONTINUOUS
10
0.276472
20
0.821334
11
0.260677
21
0.821334
0
LINE
8
BLACK
6
CONTINUOUS
10
0.260677
20
0.821334
11
0.260677
21
0.81645
0
LINE
8
BLACK
6
CONTINUOUS
10
0.260677
20
0.81645
11
0.278165
21
0.804209
0
LINE
8
BLACK
6
CONTINUOUS
10
0.278165
20
0.804209
11
0.27889
21
0.803484
0
LINE
8
BLACK
6
CONTINUOUS
10
0.27889
20
0.803484
11
0.279413
21
0.801533
0
LINE
8
BLACK
6
CONTINUOUS
10
0.279413
20
0.801533
11
0.27856
21
0.799702
0
LINE
8
BLACK
6
CONTINUOUS
10
0.27856
20
0.799702
11
0.276729
21
0.798848
0
LINE
8
BLACK
6
CONTINUOUS
10
0.276729
20
0.798848
11
0.274778
21
0.799371
0
LINE
8
BLACK
6
CONTINUOUS
10
0.274778
20
0.799371
11
0.260669
21
0.809247
0
LINE
8
BLACK
6
CONTINUOUS
10
0.260669
20
0.809247
11
0.260499
21
0.808279
0
LINE
8
BLACK
6
CONTINUOUS
10
0.260499
20
0.808279
11
0.260385
21
0.808144
0
LINE
8
BLACK
6
CONTINUOUS
10
0.260385
20
0.808144
11
0.260365
21
0.807968
0
LINE
8
BLACK
6
CONTINUOUS
10
0.260365
20
0.807968
11
0.25849
21
0.804219
0
LINE
8
BLACK
6
CONTINUOUS
10
0.25849
20
0.804219
11
0.257964
21
0.80351
0
LINE
8
BLACK
6
CONTINUOUS
10
0.257964
20
0.80351
11
0.257937
21
0.803451
0
LINE
8
BLACK
6
CONTINUOUS
10
0.257937
20
0.803451
11
0.256062
21
0.801577
0
LINE
8
BLACK
6
CONTINUOUS
10
0.256062
20
0.801577
11
0.255339
21
0.80107
0
LINE
8
BLACK
6
CONTINUOUS
10
0.255339
20
0.80107
11
0.255295
21
0.801023
0
LINE
8
BLACK
6
CONTINUOUS
10
0.255295
20
0.801023
11
0.251545
21
0.799149
0
LINE
8
BLACK
6
CONTINUOUS
10
0.251545
20
0.799149
11
0.250563
21
0.798856
0
LINE
8
BLACK
6
CONTINUOUS
10
0.250563
20
0.798856
11
0.250391
21
0.798897
0
LINE
8
BLACK
6
CONTINUOUS
10
0.250391
20
0.798897
11
0.250225
21
0.798837
0
LINE
8
BLACK
6
CONTINUOUS
10
0.250225
20
0.798837
11
0.244601
21
0.798837
0
LINE
8
BLACK
6
CONTINUOUS
10
0.244601
20
0.798837
11
0.243591
21
0.799015
0
LINE
8
BLACK
6
CONTINUOUS
10
0.243591
20
0.799015
11
0.243456
21
0.799128
0
LINE
8
BLACK
6
CONTINUOUS
10
0.243456
20
0.799128
11
0.24328
21
0.799149
0
LINE
8
BLACK
6
CONTINUOUS
10
0.24328
20
0.799149
11
0.239531
21
0.801023
0
LINE
8
BLACK
6
CONTINUOUS
10
0.239531
20
0.801023
11
0.238822
21
0.801549
0
LINE
8
BLACK
6
CONTINUOUS
10
0.238822
20
0.801549
11
0.238763
21
0.801577
0
LINE
8
BLACK
6
CONTINUOUS
10
0.238763
20
0.801577
11
0.236888
21
0.803451
0
LINE
8
BLACK
6
CONTINUOUS
10
0.236888
20
0.803451
11
0.236382
21
0.804174
0
LINE
8
BLACK
6
CONTINUOUS
10
0.236382
20
0.804174
11
0.236335
21
0.804219
0
LINE
8
BLACK
6
CONTINUOUS
10
0.236335
20
0.804219
11
0.234461
21
0.807968
0
LINE
8
BLACK
6
CONTINUOUS
10
0.234461
20
0.807968
11
0.234168
21
0.808951
0
LINE
8
BLACK
6
CONTINUOUS
10
0.234168
20
0.808951
11
0.234209
21
0.809123
0
LINE
8
BLACK
6
CONTINUOUS
10
0.234209
20
0.809123
11
0.234149
21
0.809289
0
LINE
8
BLACK
6
CONTINUOUS
10
0.234149
20
0.809289
11
0.234149
21
0.824287
0
LINE
8
BLACK
6
CONTINUOUS
10
0.234149
20
0.824287
11
0.234216
21
0.82467
0
LINE
8
BLACK
6
CONTINUOUS
10
0.234216
20
0.82467
11
0.234194
21
0.8248
0
LINE
8
BLACK
6
CONTINUOUS
10
0.234194
20
0.8248
11
0.234259
21
0.824913
0
LINE
8
BLACK
6
CONTINUOUS
10
0.234259
20
0.824913
11
0.234327
21
0.825297
0
LINE
8
BLACK
6
CONTINUOUS
10
0.234327
20
0.825297
11
0.23482
21
0.825884
0
LINE
8
BLACK
6
CONTINUOUS
10
0.23482
20
0.825884
11
0.235204
21
0.826549
0
LINE
8
BLACK
6
CONTINUOUS
10
0.235204
20
0.826549
11
0.235454
21
0.82664
0
LINE
8
BLACK
6
CONTINUOUS
10
0.235454
20
0.82664
11
0.235625
21
0.826844
0
LINE
8
BLACK
6
CONTINUOUS
10
0.235625
20
0.826844
11
0.236381
21
0.826977
0
LINE
8
BLACK
6
CONTINUOUS
10
0.236381
20
0.826977
11
0.237102
21
0.82724
0
LINE
8
BLACK
6
CONTINUOUS
10
0.237102
20
0.82724
11
0.276472
21
0.82724
0
LINE
8
BLACK
6
CONTINUOUS
10
0.276472
20
0.82724
11
0.277482
21
0.827062
0
LINE
8
BLACK
6
CONTINUOUS
10
0.240054
20
0.821334
11
0.240054
21
0.809986
0
LINE
8
BLACK
6
CONTINUOUS
10
0.240054
20
0.809986
11
0.241403
21
0.807288
0
LINE
8
BLACK
6
CONTINUOUS
10
0.241403
20
0.807288
11
0.2426
21
0.806091
0
LINE
8
BLACK
6
CONTINUOUS
10
0.2426
20
0.806091
11
0.245298
21
0.804742
0
LINE
8
BLACK
6
CONTINUOUS
10
0.245298
20
0.804742
11
0.249528
21
0.804742
0
LINE
8
BLACK
6
CONTINUOUS
10
0.249528
20
0.804742
11
0.252225
21
0.806091
0
LINE
8
BLACK
6
CONTINUOUS
10
0.252225
20
0.806091
11
0.253423
21
0.807288
0
LINE
8
BLACK
6
CONTINUOUS
10
0.253423
20
0.807288
11
0.254771
21
0.809986
0
LINE
8
BLACK
6
CONTINUOUS
10
0.254771
20
0.809986
11
0.254771
21
0.821334
0
LINE
8
BLACK
6
CONTINUOUS
10
0.254771
20
0.821334
11
0.240054
21
0.821334
0
LINE
8
BLACK
6
CONTINUOUS
10
0.569788
20
0.819963
11
0.570364
21
0.818571
0
LINE
8
BLACK
6
CONTINUOUS
10
0.570364
20
0.818571
11
0.569788
21
0.817179
0
LINE
8
BLACK
6
CONTINUOUS
10
0.569788
20
0.817179
11
0.568396
21
0.816602
0
LINE
8
BLACK
6
CONTINUOUS
10
0.568396
20
0.816602
11
0.549714
21
0.816602
0
LINE
8
BLACK
6
CONTINUOUS
10
0.549714
20
0.816602
11
0.548322
21
0.817179
0
LINE
8
BLACK
6
CONTINUOUS
10
0.548322
20
0.817179
11
0.547746
21
0.818571
0
LINE
8
BLACK
6
CONTINUOUS
10
0.547746
20
0.818571
11
0.548322
21
0.819963
0
LINE
8
BLACK
6
CONTINUOUS
10
0.548322
20
0.819963
11
0.549714
21
0.820539
0
LINE
8
BLACK
6
CONTINUOUS
10
0.549714
20
0.820539
11
0.568396
21
0.820539
0
LINE
8
BLACK
6
CONTINUOUS
10
0.568396
20
0.820539
11
0.569788
21
0.819963
0
LINE
8
BLACK
6
CONTINUOUS
10
0.43593
20
0.819963
11
0.436506
21
0.818571
0
LINE
8
BLACK
6
CONTINUOUS
10
0.436506
20
0.818571
11
0.43593
21
0.817179
0
LINE
8
BLACK
6
CONTINUOUS
10
0.43593
20
0.817179
11
0.434538
21
0.816602
0
LINE
8
BLACK
6
CONTINUOUS
10
0.434538
20
0.816602
11
0.415856
21
0.816602
0
LINE
8
BLACK
6
CONTINUOUS
10
0.415856
20
0.816602
11
0.414464
21
0.817179
0
LINE
8
BLACK
6
CONTINUOUS
10
0.414464
20
0.817179
11
0.413887
21
0.818571
0
LINE
8
BLACK
6
CONTINUOUS
10
0.413887
20
0.818571
11
0.414464
21
0.819963
0
LINE
8
BLACK
6
CONTINUOUS
10
0.414464
20
0.819963
11
0.415856
21
0.820539
0
LINE
8
BLACK
6
CONTINUOUS
10
0.415856
20
0.820539
11
0.434538
21
0.820539
0
LINE
8
BLACK
6
CONTINUOUS
10
0.434538
20
0.820539
11
0.43593
21
0.819963
0
LINE
8
BLACK
6
CONTINUOUS
10
0.183636
20
0.874335
11
0.183771
21
0.874221
0
LINE
8
BLACK
6
CONTINUOUS
10
0.183771
20
0.874221
11
0.183947
21
0.874201
0
LINE
8
BLACK
6
CONTINUOUS
10
0.183947
20
0.874201
11
0.187696
21
0.872326
0
LINE
8
BLACK
6
CONTINUOUS
10
0.187696
20
0.872326
11
0.188405
21
0.8718
0
LINE
8
BLACK
6
CONTINUOUS
10
0.188405
20
0.8718
11
0.188464
21
0.871773
0
LINE
8
BLACK
6
CONTINUOUS
10
0.188464
20
0.871773
11
0.190338
21
0.869898
0
LINE
8
BLACK
6
CONTINUOUS
10
0.190338
20
0.869898
11
0.190927
21
0.869058
0
LINE
8
BLACK
6
CONTINUOUS
10
0.190927
20
0.869058
11
0.191103
21
0.867046
0
LINE
8
BLACK
6
CONTINUOUS
10
0.191103
20
0.867046
11
0.189944
21
0.865391
0
LINE
8
BLACK
6
CONTINUOUS
10
0.189944
20
0.865391
11
0.187993
21
0.864869
0
LINE
8
BLACK
6
CONTINUOUS
10
0.187993
20
0.864869
11
0.186163
21
0.865722
0
LINE
8
BLACK
6
CONTINUOUS
10
0.186163
20
0.865722
11
0.184627
21
0.867258
0
LINE
8
BLACK
6
CONTINUOUS
10
0.184627
20
0.867258
11
0.181929
21
0.868607
0
LINE
8
BLACK
6
CONTINUOUS
10
0.181929
20
0.868607
11
0.173949
21
0.868607
0
LINE
8
BLACK
6
CONTINUOUS
10
0.173949
20
0.868607
11
0.171252
21
0.867258
0
LINE
8
BLACK
6
CONTINUOUS
10
0.171252
20
0.867258
11
0.170055
21
0.866061
0
LINE
8
BLACK
6
CONTINUOUS
10
0.170055
20
0.866061
11
0.168706
21
0.863364
0
LINE
8
BLACK
6
CONTINUOUS
10
0.168706
20
0.863364
11
0.168706
21
0.86079
0
LINE
8
BLACK
6
CONTINUOUS
10
0.168706
20
0.86079
11
0.170209
21
0.856282
0
LINE
8
BLACK
6
CONTINUOUS
10
0.170209
20
0.856282
11
0.192213
21
0.834278
0
LINE
8
BLACK
6
CONTINUOUS
10
0.192213
20
0.834278
11
0.192583
21
0.83375
0
LINE
8
BLACK
6
CONTINUOUS
10
0.192583
20
0.83375
11
0.192682
21
0.833666
0
LINE
8
BLACK
6
CONTINUOUS
10
0.192682
20
0.833666
11
0.192696
21
0.833588
0
LINE
8
BLACK
6
CONTINUOUS
10
0.192696
20
0.833588
11
0.192801
21
0.833438
0
LINE
8
BLACK
6
CONTINUOUS
10
0.192801
20
0.833438
11
0.192879
21
0.832552
0
LINE
8
BLACK
6
CONTINUOUS
10
0.192879
20
0.832552
11
0.193033
21
0.831677
0
LINE
8
BLACK
6
CONTINUOUS
10
0.193033
20
0.831677
11
0.192966
21
0.83156
0
LINE
8
BLACK
6
CONTINUOUS
10
0.192966
20
0.83156
11
0.192977
21
0.831426
0
LINE
8
BLACK
6
CONTINUOUS
10
0.192977
20
0.831426
11
0.192468
21
0.830698
0
LINE
8
BLACK
6
CONTINUOUS
10
0.192468
20
0.830698
11
0.192023
21
0.829928
0
LINE
8
BLACK
6
CONTINUOUS
10
0.192023
20
0.829928
11
0.191896
21
0.829882
0
LINE
8
BLACK
6
CONTINUOUS
10
0.191896
20
0.829882
11
0.191819
21
0.829771
0
LINE
8
BLACK
6
CONTINUOUS
10
0.191819
20
0.829771
11
0.19096
21
0.829541
0
LINE
8
BLACK
6
CONTINUOUS
10
0.19096
20
0.829541
11
0.190125
21
0.829237
0
LINE
8
BLACK
6
CONTINUOUS
10
0.190125
20
0.829237
11
0.165753
21
0.829237
0
LINE
8
BLACK
6
CONTINUOUS
10
0.165753
20
0.829237
11
0.164743
21
0.829415
0
LINE
8
BLACK
6
CONTINUOUS
10
0.164743
20
0.829415
11
0.163196
21
0.830713
0
LINE
8
BLACK
6
CONTINUOUS
10
0.163196
20
0.830713
11
0.162845
21
0.832703
0
LINE
8
BLACK
6
CONTINUOUS
10
0.162845
20
0.832703
11
0.163855
21
0.834452
0
LINE
8
BLACK
6
CONTINUOUS
10
0.163855
20
0.834452
11
0.165753
21
0.835143
0
LINE
8
BLACK
6
CONTINUOUS
10
0.165753
20
0.835143
11
0.182997
21
0.835143
0
LINE
8
BLACK
6
CONTINUOUS
10
0.182997
20
0.835143
11
0.16554
21
0.852599
0
LINE
8
BLACK
6
CONTINUOUS
10
0.16554
20
0.852599
11
0.164952
21
0.853439
0
LINE
8
BLACK
6
CONTINUOUS
10
0.164952
20
0.853439
11
0.164937
21
0.853615
0
LINE
8
BLACK
6
CONTINUOUS
10
0.164937
20
0.853615
11
0.164827
21
0.853753
0
LINE
8
BLACK
6
CONTINUOUS
10
0.164827
20
0.853753
11
0.162952
21
0.859377
0
LINE
8
BLACK
6
CONTINUOUS
10
0.162952
20
0.859377
11
0.162823
21
0.860251
0
LINE
8
BLACK
6
CONTINUOUS
10
0.162823
20
0.860251
11
0.162801
21
0.860311
0
LINE
8
BLACK
6
CONTINUOUS
10
0.162801
20
0.860311
11
0.162801
21
0.864061
0
LINE
8
BLACK
6
CONTINUOUS
10
0.162801
20
0.864061
11
0.162979
21
0.865071
0
LINE
8
BLACK
6
CONTINUOUS
10
0.162979
20
0.865071
11
0.163092
21
0.865206
0
LINE
8
BLACK
6
CONTINUOUS
10
0.163092
20
0.865206
11
0.163112
21
0.865381
0
LINE
8
BLACK
6
CONTINUOUS
10
0.163112
20
0.865381
11
0.164987
21
0.869131
0
LINE
8
BLACK
6
CONTINUOUS
10
0.164987
20
0.869131
11
0.165513
21
0.86984
0
LINE
8
BLACK
6
CONTINUOUS
10
0.165513
20
0.86984
11
0.16554
21
0.869898
0
LINE
8
BLACK
6
CONTINUOUS
10
0.16554
20
0.869898
11
0.167415
21
0.871773
0
LINE
8
BLACK
6
CONTINUOUS
10
0.167415
20
0.871773
11
0.168138
21
0.872279
0
LINE
8
BLACK
6
CONTINUOUS
10
0.168138
20
0.872279
11
0.168182
21
0.872326
0
LINE
8
BLACK
6
CONTINUOUS
10
0.168182
20
0.872326
11
0.171932
21
0.874201
0
LINE
8
BLACK
6
CONTINUOUS
10
0.171932
20
0.874201
11
0.172915
21
0.874493
0
LINE
8
BLACK
6
CONTINUOUS
10
0.172915
20
0.874493
11
0.173086
21
0.874452
0
LINE
8
BLACK
6
CONTINUOUS
10
0.173086
20
0.874452
11
0.173252
21
0.874513
0
LINE
8
BLACK
6
CONTINUOUS
10
0.173252
20
0.874513
11
0.182626
21
0.874513
0
LINE
8
BLACK
6
CONTINUOUS
10
0.182626
20
0.874513
11
0.183636
21
0.874335
0
LINE
8
BLACK
6
CONTINUOUS
10
0.207385
20
0.873458
11
0.208076
21
0.87156
0
LINE
8
BLACK
6
CONTINUOUS
10
0.208076
20
0.87156
11
0.208076
21
0.843917
0
LINE
8
BLACK
6
CONTINUOUS
10
0.208076
20
0.843917
11
0.209579
21
0.839409
0
LINE
8
BLACK
6
CONTINUOUS
10
0.209579
20
0.839409
11
0.212343
21
0.836645
0
LINE
8
BLACK
6
CONTINUOUS
10
0.212343
20
0.836645
11
0.216851
21
0.835143
0
LINE
8
BLACK
6
CONTINUOUS
10
0.216851
20
0.835143
11
0.220121
21
0.835143
0
LINE
8
BLACK
6
CONTINUOUS
10
0.220121
20
0.835143
11
0.221131
21
0.834964
0
LINE
8
BLACK
6
CONTINUOUS
10
0.221131
20
0.834964
11
0.222679
21
0.833666
0
LINE
8
BLACK
6
CONTINUOUS
10
0.222679
20
0.833666
11
0.223029
21
0.831677
0
LINE
8
BLACK
6
CONTINUOUS
10
0.223029
20
0.831677
11
0.222019
21
0.829928
0
LINE
8
BLACK
6
CONTINUOUS
10
0.222019
20
0.829928
11
0.220121
21
0.829237
0
LINE
8
BLACK
6
CONTINUOUS
10
0.220121
20
0.829237
11
0.216372
21
0.829237
0
LINE
8
BLACK
6
CONTINUOUS
10
0.216372
20
0.829237
11
0.215503
21
0.82939
0
LINE
8
BLACK
6
CONTINUOUS
10
0.215503
20
0.82939
11
0.215438
21
0.829389
0
LINE
8
BLACK
6
CONTINUOUS
10
0.215438
20
0.829389
11
0.209814
21
0.831263
0
LINE
8
BLACK
6
CONTINUOUS
10
0.209814
20
0.831263
11
0.208912
21
0.831752
0
LINE
8
BLACK
6
CONTINUOUS
10
0.208912
20
0.831752
11
0.20882
21
0.831902
0
LINE
8
BLACK
6
CONTINUOUS
10
0.20882
20
0.831902
11
0.20866
21
0.831977
0
LINE
8
BLACK
6
CONTINUOUS
10
0.20866
20
0.831977
11
0.20491
21
0.835726
0
LINE
8
BLACK
6
CONTINUOUS
10
0.20491
20
0.835726
11
0.204322
21
0.836566
0
LINE
8
BLACK
6
CONTINUOUS
10
0.204322
20
0.836566
11
0.204307
21
0.836742
0
LINE
8
BLACK
6
CONTINUOUS
10
0.204307
20
0.836742
11
0.204197
21
0.83688
0
LINE
8
BLACK
6
CONTINUOUS
10
0.204197
20
0.83688
11
0.202322
21
0.842505
0
LINE
8
BLACK
6
CONTINUOUS
10
0.202322
20
0.842505
11
0.202193
21
0.843378
0
LINE
8
BLACK
6
CONTINUOUS
10
0.202193
20
0.843378
11
0.202171
21
0.843438
0
LINE
8
BLACK
6
CONTINUOUS
10
0.202171
20
0.843438
11
0.202171
21
0.87156
0
LINE
8
BLACK
6
CONTINUOUS
10
0.202171
20
0.87156
11
0.202349
21
0.87257
0
LINE
8
BLACK
6
CONTINUOUS
10
0.202349
20
0.87257
11
0.203647
21
0.874117
0
LINE
8
BLACK
6
CONTINUOUS
10
0.203647
20
0.874117
11
0.205636
21
0.874468
0
LINE
8
BLACK
6
CONTINUOUS
10
0.205636
20
0.874468
11
0.207385
21
0.873458
0
LINE
8
BLACK
6
CONTINUOUS
10
0.625442
20
0.878445
11
0.625572
21
0.878468
0
LINE
8
BLACK
6
CONTINUOUS
10
0.625572
20
0.878468
11
0.625685
21
0.878402
0
LINE
8
BLACK
6
CONTINUOUS
10
0.625685
20
0.878402
11
0.626069
21
0.878335
0
LINE
8
BLACK
6
CONTINUOUS
10
0.626069
20
0.878335
11
0.626656
21
0.877841
0
LINE
8
BLACK
6
CONTINUOUS
10
0.626656
20
0.877841
11
0.627321
21
0.877458
0
LINE
8
BLACK
6
CONTINUOUS
10
0.627321
20
0.877458
11
0.627412
21
0.877207
0
LINE
8
BLACK
6
CONTINUOUS
10
0.627412
20
0.877207
11
0.627616
21
0.877036
0
LINE
8
BLACK
6
CONTINUOUS
10
0.627616
20
0.877036
11
0.627749
21
0.876281
0
LINE
8
BLACK
6
CONTINUOUS
10
0.627749
20
0.876281
11
0.628012
21
0.87556
0
LINE
8
BLACK
6
CONTINUOUS
10
0.628012
20
0.87556
11
0.628012
21
0.83619
0
LINE
8
BLACK
6
CONTINUOUS
10
0.628012
20
0.83619
11
0.627834
21
0.83518
0
LINE
8
BLACK
6
CONTINUOUS
10
0.627834
20
0.83518
11
0.626535
21
0.833633
0
LINE
8
BLACK
6
CONTINUOUS
10
0.626535
20
0.833633
11
0.624546
21
0.833282
0
LINE
8
BLACK
6
CONTINUOUS
10
0.624546
20
0.833282
11
0.622797
21
0.834292
0
LINE
8
BLACK
6
CONTINUOUS
10
0.622797
20
0.834292
11
0.622106
21
0.83619
0
LINE
8
BLACK
6
CONTINUOUS
10
0.622106
20
0.83619
11
0.622106
21
0.851985
0
LINE
8
BLACK
6
CONTINUOUS
10
0.622106
20
0.851985
11
0.617222
21
0.851985
0
LINE
8
BLACK
6
CONTINUOUS
10
0.617222
20
0.851985
11
0.604981
21
0.834496
0
LINE
8
BLACK
6
CONTINUOUS
10
0.604981
20
0.834496
11
0.604256
21
0.833771
0
LINE
8
BLACK
6
CONTINUOUS
10
0.604256
20
0.833771
11
0.602305
21
0.833248
0
LINE
8
BLACK
6
CONTINUOUS
10
0.602305
20
0.833248
11
0.600474
21
0.834102
0
LINE
8
BLACK
6
CONTINUOUS
10
0.600474
20
0.834102
11
0.59962
21
0.835932
0
LINE
8
BLACK
6
CONTINUOUS
10
0.59962
20
0.835932
11
0.600143
21
0.837883
0
LINE
8
BLACK
6
CONTINUOUS
10
0.600143
20
0.837883
11
0.610019
21
0.851992
0
LINE
8
BLACK
6
CONTINUOUS
10
0.610019
20
0.851992
11
0.609051
21
0.852163
0
LINE
8
BLACK
6
CONTINUOUS
10
0.609051
20
0.852163
11
0.608916
21
0.852276
0
LINE
8
BLACK
6
CONTINUOUS
10
0.608916
20
0.852276
11
0.60874
21
0.852296
0
LINE
8
BLACK
6
CONTINUOUS
10
0.60874
20
0.852296
11
0.604991
21
0.854171
0
LINE
8
BLACK
6
CONTINUOUS
10
0.604991
20
0.854171
11
0.604282
21
0.854697
0
LINE
8
BLACK
6
CONTINUOUS
10
0.604282
20
0.854697
11
0.604223
21
0.854724
0
LINE
8
BLACK
6
CONTINUOUS
10
0.604223
20
0.854724
11
0.602349
21
0.856599
0
LINE
8
BLACK
6
CONTINUOUS
10
0.602349
20
0.856599
11
0.601842
21
0.857322
0
LINE
8
BLACK
6
CONTINUOUS
10
0.601842
20
0.857322
11
0.601795
21
0.857366
0
LINE
8
BLACK
6
CONTINUOUS
10
0.601795
20
0.857366
11
0.599921
21
0.861116
0
LINE
8
BLACK
6
CONTINUOUS
10
0.599921
20
0.861116
11
0.599628
21
0.862099
0
LINE
8
BLACK
6
CONTINUOUS
10
0.599628
20
0.862099
11
0.599669
21
0.862271
0
LINE
8
BLACK
6
CONTINUOUS
10
0.599669
20
0.862271
11
0.599609
21
0.862436
0
LINE
8
BLACK
6
CONTINUOUS
10
0.599609
20
0.862436
11
0.599609
21
0.868061
0
LINE
8
BLACK
6
CONTINUOUS
10
0.599609
20
0.868061
11
0.599787
21
0.869071
0
LINE
8
BLACK
6
CONTINUOUS
10
0.599787
20
0.869071
11
0.5999
21
0.869206
0
LINE
8
BLACK
6
CONTINUOUS
10
0.5999
20
0.869206
11
0.599921
21
0.869381
0
LINE
8
BLACK
6
CONTINUOUS
10
0.599921
20
0.869381
11
0.601795
21
0.873131
0
LINE
8
BLACK
6
CONTINUOUS
10
0.601795
20
0.873131
11
0.602321
21
0.87384
0
LINE
8
BLACK
6
CONTINUOUS
10
0.602321
20
0.87384
11
0.602349
21
0.873898
0
LINE
8
BLACK
6
CONTINUOUS
10
0.602349
20
0.873898
11
0.604223
21
0.875773
0
LINE
8
BLACK
6
CONTINUOUS
10
0.604223
20
0.875773
11
0.604946
21
0.876279
0
LINE
8
BLACK
6
CONTINUOUS
10
0.604946
20
0.876279
11
0.604991
21
0.876326
0
LINE
8
BLACK
6
CONTINUOUS
10
0.604991
20
0.876326
11
0.60874
21
0.878201
0
LINE
8
BLACK
6
CONTINUOUS
10
0.60874
20
0.878201
11
0.609723
21
0.878493
0
LINE
8
BLACK
6
CONTINUOUS
10
0.609723
20
0.878493
11
0.609895
21
0.878452
0
LINE
8
BLACK
6
CONTINUOUS
10
0.609895
20
0.878452
11
0.610061
21
0.878513
0
LINE
8
BLACK
6
CONTINUOUS
10
0.610061
20
0.878513
11
0.625059
21
0.878513
0
LINE
8
BLACK
6
CONTINUOUS
10
0.625059
20
0.878513
11
0.625442
21
0.878445
0
LINE
8
BLACK
6
CONTINUOUS
10
0.610758
20
0.872607
11
0.60806
21
0.871258
0
LINE
8
BLACK
6
CONTINUOUS
10
0.60806
20
0.871258
11
0.606863
21
0.870061
0
LINE
8
BLACK
6
CONTINUOUS
10
0.606863
20
0.870061
11
0.605514
21
0.867364
0
LINE
8
BLACK
6
CONTINUOUS
10
0.605514
20
0.867364
11
0.605514
21
0.863134
0
LINE
8
BLACK
6
CONTINUOUS
10
0.605514
20
0.863134
11
0.606863
21
0.860436
0
LINE
8
BLACK
6
CONTINUOUS
10
0.606863
20
0.860436
11
0.60806
21
0.859239
0
LINE
8
BLACK
6
CONTINUOUS
10
0.60806
20
0.859239
11
0.610758
21
0.85789
0
LINE
8
BLACK
6
CONTINUOUS
10
0.610758
20
0.85789
11
0.622106
21
0.85789
0
LINE
8
BLACK
6
CONTINUOUS
10
0.622106
20
0.85789
11
0.622106
21
0.872607
0
LINE
8
BLACK
6
CONTINUOUS
10
0.622106
20
0.872607
11
0.610758
21
0.872607
0
LINE
8
BLACK
6
CONTINUOUS
10
0.590448
20
0.878335
11
0.591995
21
0.877036
0
LINE
8
BLACK
6
CONTINUOUS
10
0.591995
20
0.877036
11
0.592346
21
0.875047
0
LINE
8
BLACK
6
CONTINUOUS
10
0.592346
20
0.875047
11
0.591336
21
0.873298
0
LINE
8
BLACK
6
CONTINUOUS
10
0.591336
20
0.873298
11
0.589438
21
0.872607
0
LINE
8
BLACK
6
CONTINUOUS
10
0.589438
20
0.872607
11
0.56767
21
0.872607
0
LINE
8
BLACK
6
CONTINUOUS
10
0.56767
20
0.872607
11
0.582779
21
0.837353
0
LINE
8
BLACK
6
CONTINUOUS
10
0.582779
20
0.837353
11
0.583013
21
0.836354
0
LINE
8
BLACK
6
CONTINUOUS
10
0.583013
20
0.836354
11
0.582429
21
0.834421
0
LINE
8
BLACK
6
CONTINUOUS
10
0.582429
20
0.834421
11
0.580739
21
0.833315
0
LINE
8
BLACK
6
CONTINUOUS
10
0.580739
20
0.833315
11
0.578733
21
0.833554
0
LINE
8
BLACK
6
CONTINUOUS
10
0.578733
20
0.833554
11
0.57735
21
0.835027
0
LINE
8
BLACK
6
CONTINUOUS
10
0.57735
20
0.835027
11
0.560478
21
0.874397
0
LINE
8
BLACK
6
CONTINUOUS
10
0.560478
20
0.874397
11
0.560243
21
0.875395
0
LINE
8
BLACK
6
CONTINUOUS
10
0.560243
20
0.875395
11
0.560344
21
0.875729
0
LINE
8
BLACK
6
CONTINUOUS
10
0.560344
20
0.875729
11
0.560284
21
0.876073
0
LINE
8
BLACK
6
CONTINUOUS
10
0.560284
20
0.876073
11
0.560628
21
0.876669
0
LINE
8
BLACK
6
CONTINUOUS
10
0.560628
20
0.876669
11
0.560827
21
0.877329
0
LINE
8
BLACK
6
CONTINUOUS
10
0.560827
20
0.877329
11
0.561119
21
0.87752
0
LINE
8
BLACK
6
CONTINUOUS
10
0.561119
20
0.87752
11
0.561294
21
0.877822
0
LINE
8
BLACK
6
CONTINUOUS
10
0.561294
20
0.877822
11
0.561941
21
0.878057
0
LINE
8
BLACK
6
CONTINUOUS
10
0.561941
20
0.878057
11
0.562517
21
0.878435
0
LINE
8
BLACK
6
CONTINUOUS
10
0.562517
20
0.878435
11
0.562864
21
0.878393
0
LINE
8
BLACK
6
CONTINUOUS
10
0.562864
20
0.878393
11
0.563192
21
0.878513
0
LINE
8
BLACK
6
CONTINUOUS
10
0.563192
20
0.878513
11
0.589438
21
0.878513
0
LINE
8
BLACK
6
CONTINUOUS
10
0.589438
20
0.878513
11
0.590448
21
0.878335
0
LINE
8
BLACK
6
CONTINUOUS
10
0.365722
20
0.882383
11
0.365892
21
0.882394
0
LINE
8
BLACK
6
CONTINUOUS
10
0.365892
20
0.882394
11
0.366582
21
0.881886
0
LINE
8
BLACK
6
CONTINUOUS
10
0.366582
20
0.881886
11
0.367325
21
0.881458
0
LINE
8
BLACK
6
CONTINUOUS
10
0.367325
20
0.881458
11
0.367383
21
0.881298
0
LINE
8
BLACK
6
CONTINUOUS
10
0.367383
20
0.881298
11
0.367519
21
0.881198
0
LINE
8
BLACK
6
CONTINUOUS
10
0.367519
20
0.881198
11
0.371107
21
0.875817
0
LINE
8
BLACK
6
CONTINUOUS
10
0.371107
20
0.875817
11
0.374311
21
0.872613
0
LINE
8
BLACK
6
CONTINUOUS
10
0.374311
20
0.872613
11
0.377632
21
0.870952
0
LINE
8
BLACK
6
CONTINUOUS
10
0.377632
20
0.870952
11
0.378455
21
0.870341
0
LINE
8
BLACK
6
CONTINUOUS
10
0.378455
20
0.870341
11
0.379259
21
0.868488
0
LINE
8
BLACK
6
CONTINUOUS
10
0.379259
20
0.868488
11
0.378683
21
0.866552
0
LINE
8
BLACK
6
CONTINUOUS
10
0.378683
20
0.866552
11
0.376997
21
0.865439
0
LINE
8
BLACK
6
CONTINUOUS
10
0.376997
20
0.865439
11
0.374991
21
0.86567
0
LINE
8
BLACK
6
CONTINUOUS
10
0.374991
20
0.86567
11
0.371241
21
0.867545
0
LINE
8
BLACK
6
CONTINUOUS
10
0.371241
20
0.867545
11
0.370532
21
0.868071
0
LINE
8
BLACK
6
CONTINUOUS
10
0.370532
20
0.868071
11
0.370474
21
0.868098
0
LINE
8
BLACK
6
CONTINUOUS
10
0.370474
20
0.868098
11
0.368015
21
0.870556
0
LINE
8
BLACK
6
CONTINUOUS
10
0.368015
20
0.870556
11
0.368015
21
0.843143
0
LINE
8
BLACK
6
CONTINUOUS
10
0.368015
20
0.843143
11
0.376311
21
0.843143
0
LINE
8
BLACK
6
CONTINUOUS
10
0.376311
20
0.843143
11
0.377321
21
0.842964
0
LINE
8
BLACK
6
CONTINUOUS
10
0.377321
20
0.842964
11
0.378868
21
0.841666
0
LINE
8
BLACK
6
CONTINUOUS
10
0.378868
20
0.841666
11
0.379219
21
0.839677
0
LINE
8
BLACK
6
CONTINUOUS
10
0.379219
20
0.839677
11
0.378209
21
0.837928
0
LINE
8
BLACK
6
CONTINUOUS
10
0.378209
20
0.837928
11
0.376311
21
0.837237
0
LINE
8
BLACK
6
CONTINUOUS
10
0.376311
20
0.837237
11
0.353814
21
0.837237
0
LINE
8
BLACK
6
CONTINUOUS
10
0.353814
20
0.837237
11
0.352804
21
0.837415
0
LINE
8
BLACK
6
CONTINUOUS
10
0.352804
20
0.837415
11
0.351257
21
0.838713
0
LINE
8
BLACK
6
CONTINUOUS
10
0.351257
20
0.838713
11
0.350906
21
0.840703
0
LINE
8
BLACK
6
CONTINUOUS
10
0.350906
20
0.840703
11
0.351916
21
0.842452
0
LINE
8
BLACK
6
CONTINUOUS
10
0.351916
20
0.842452
11
0.353814
21
0.843143
0
LINE
8
BLACK
6
CONTINUOUS
10
0.353814
20
0.843143
11
0.36211
21
0.843143
0
LINE
8
BLACK
6
CONTINUOUS
10
0.36211
20
0.843143
11
0.36211
21
0.87956
0
LINE
8
BLACK
6
CONTINUOUS
10
0.36211
20
0.87956
11
0.362288
21
0.88057
0
LINE
8
BLACK
6
CONTINUOUS
10
0.362288
20
0.88057
11
0.362397
21
0.8807
0
LINE
8
BLACK
6
CONTINUOUS
10
0.362397
20
0.8807
11
0.362416
21
0.880869
0
LINE
8
BLACK
6
CONTINUOUS
10
0.362416
20
0.880869
11
0.363035
21
0.881461
0
LINE
8
BLACK
6
CONTINUOUS
10
0.363035
20
0.881461
11
0.363586
21
0.882117
0
LINE
8
BLACK
6
CONTINUOUS
10
0.363586
20
0.882117
11
0.363753
21
0.882146
0
LINE
8
BLACK
6
CONTINUOUS
10
0.363753
20
0.882146
11
0.363876
21
0.882264
0
LINE
8
BLACK
6
CONTINUOUS
10
0.363876
20
0.882264
11
0.364731
21
0.882319
0
LINE
8
BLACK
6
CONTINUOUS
10
0.364731
20
0.882319
11
0.365575
21
0.882468
0
LINE
8
BLACK
6
CONTINUOUS
10
0.365575
20
0.882468
11
0.365722
21
0.882383
0
LINE
8
BLACK
6
CONTINUOUS
10
0.41419
20
0.882445
11
0.414319
21
0.882468
0
LINE
8
BLACK
6
CONTINUOUS
10
0.414319
20
0.882468
11
0.414433
21
0.882402
0
LINE
8
BLACK
6
CONTINUOUS
10
0.414433
20
0.882402
11
0.414816
21
0.882335
0
LINE
8
BLACK
6
CONTINUOUS
10
0.414816
20
0.882335
11
0.415404
21
0.881841
0
LINE
8
BLACK
6
CONTINUOUS
10
0.415404
20
0.881841
11
0.416068
21
0.881458
0
LINE
8
BLACK
6
CONTINUOUS
10
0.416068
20
0.881458
11
0.41616
21
0.881207
0
LINE
8
BLACK
6
CONTINUOUS
10
0.41616
20
0.881207
11
0.416364
21
0.881036
0
LINE
8
BLACK
6
CONTINUOUS
10
0.416364
20
0.881036
11
0.416497
21
0.880281
0
LINE
8
BLACK
6
CONTINUOUS
10
0.416497
20
0.880281
11
0.416759
21
0.87956
0
LINE
8
BLACK
6
CONTINUOUS
10
0.416759
20
0.87956
11
0.416759
21
0.84019
0
LINE
8
BLACK
6
CONTINUOUS
10
0.416759
20
0.84019
11
0.416581
21
0.83918
0
LINE
8
BLACK
6
CONTINUOUS
10
0.416581
20
0.83918
11
0.415283
21
0.837633
0
LINE
8
BLACK
6
CONTINUOUS
10
0.415283
20
0.837633
11
0.413294
21
0.837282
0
LINE
8
BLACK
6
CONTINUOUS
10
0.413294
20
0.837282
11
0.411545
21
0.838292
0
LINE
8
BLACK
6
CONTINUOUS
10
0.411545
20
0.838292
11
0.410854
21
0.84019
0
LINE
8
BLACK
6
CONTINUOUS
10
0.410854
20
0.84019
11
0.410854
21
0.855985
0
LINE
8
BLACK
6
CONTINUOUS
10
0.410854
20
0.855985
11
0.40597
21
0.855985
0
LINE
8
BLACK
6
CONTINUOUS
10
0.40597
20
0.855985
11
0.393728
21
0.838496
0
LINE
8
BLACK
6
CONTINUOUS
10
0.393728
20
0.838496
11
0.393003
21
0.837771
0
LINE
8
BLACK
6
CONTINUOUS
10
0.393003
20
0.837771
11
0.391052
21
0.837248
0
LINE
8
BLACK
6
CONTINUOUS
10
0.391052
20
0.837248
11
0.389222
21
0.838102
0
LINE
8
BLACK
6
CONTINUOUS
10
0.389222
20
0.838102
11
0.388368
21
0.839932
0
LINE
8
BLACK
6
CONTINUOUS
10
0.388368
20
0.839932
11
0.38889
21
0.841883
0
LINE
8
BLACK
6
CONTINUOUS
10
0.38889
20
0.841883
11
0.398767
21
0.855992
0
LINE
8
BLACK
6
CONTINUOUS
10
0.398767
20
0.855992
11
0.397798
21
0.856163
0
LINE
8
BLACK
6
CONTINUOUS
10
0.397798
20
0.856163
11
0.397663
21
0.856276
0
LINE
8
BLACK
6
CONTINUOUS
10
0.397663
20
0.856276
11
0.397488
21
0.856296
0
LINE
8
BLACK
6
CONTINUOUS
10
0.397488
20
0.856296
11
0.393738
21
0.858171
0
LINE
8
BLACK
6
CONTINUOUS
10
0.393738
20
0.858171
11
0.393029
21
0.858697
0
LINE
8
BLACK
6
CONTINUOUS
10
0.393029
20
0.858697
11
0.392971
21
0.858724
0
LINE
8
BLACK
6
CONTINUOUS
10
0.392971
20
0.858724
11
0.391096
21
0.860599
0
LINE
8
BLACK
6
CONTINUOUS
10
0.391096
20
0.860599
11
0.39059
21
0.861322
0
LINE
8
BLACK
6
CONTINUOUS
10
0.39059
20
0.861322
11
0.390543
21
0.861366
0
LINE
8
BLACK
6
CONTINUOUS
10
0.390543
20
0.861366
11
0.388668
21
0.865116
0
LINE
8
BLACK
6
CONTINUOUS
10
0.388668
20
0.865116
11
0.388376
21
0.866099
0
LINE
8
BLACK
6
CONTINUOUS
10
0.388376
20
0.866099
11
0.388417
21
0.866271
0
LINE
8
BLACK
6
CONTINUOUS
10
0.388417
20
0.866271
11
0.388357
21
0.866436
0
LINE
8
BLACK
6
CONTINUOUS
10
0.388357
20
0.866436
11
0.388357
21
0.872061
0
LINE
8
BLACK
6
CONTINUOUS
10
0.388357
20
0.872061
11
0.388535
21
0.873071
0
LINE
8
BLACK
6
CONTINUOUS
10
0.388535
20
0.873071
11
0.388648
21
0.873206
0
LINE
8
BLACK
6
CONTINUOUS
10
0.388648
20
0.873206
11
0.388668
21
0.873381
0
LINE
8
BLACK
6
CONTINUOUS
10
0.388668
20
0.873381
11
0.390543
21
0.877131
0
LINE
8
BLACK
6
CONTINUOUS
10
0.390543
20
0.877131
11
0.391069
21
0.87784
0
LINE
8
BLACK
6
CONTINUOUS
10
0.391069
20
0.87784
11
0.391096
21
0.877898
0
LINE
8
BLACK
6
CONTINUOUS
10
0.391096
20
0.877898
11
0.392971
21
0.879773
0
LINE
8
BLACK
6
CONTINUOUS
10
0.392971
20
0.879773
11
0.393694
21
0.880279
0
LINE
8
BLACK
6
CONTINUOUS
10
0.393694
20
0.880279
11
0.393738
21
0.880326
0
LINE
8
BLACK
6
CONTINUOUS
10
0.393738
20
0.880326
11
0.397488
21
0.882201
0
LINE
8
BLACK
6
CONTINUOUS
10
0.397488
20
0.882201
11
0.398471
21
0.882493
0
LINE
8
BLACK
6
CONTINUOUS
10
0.398471
20
0.882493
11
0.398642
21
0.882452
0
LINE
8
BLACK
6
CONTINUOUS
10
0.398642
20
0.882452
11
0.398808
21
0.882513
0
LINE
8
BLACK
6
CONTINUOUS
10
0.398808
20
0.882513
11
0.413806
21
0.882513
0
LINE
8
BLACK
6
CONTINUOUS
10
0.413806
20
0.882513
11
0.41419
21
0.882445
0
LINE
8
BLACK
6
CONTINUOUS
10
0.399505
20
0.876607
11
0.396808
21
0.875258
0
LINE
8
BLACK
6
CONTINUOUS
10
0.396808
20
0.875258
11
0.395611
21
0.874061
0
LINE
8
BLACK
6
CONTINUOUS
10
0.395611
20
0.874061
11
0.394262
21
0.871364
0
LINE
8
BLACK
6
CONTINUOUS
10
0.394262
20
0.871364
11
0.394262
21
0.867134
0
LINE
8
BLACK
6
CONTINUOUS
10
0.394262
20
0.867134
11
0.395611
21
0.864436
0
LINE
8
BLACK
6
CONTINUOUS
10
0.395611
20
0.864436
11
0.396808
21
0.863239
0
LINE
8
BLACK
6
CONTINUOUS
10
0.396808
20
0.863239
11
0.399505
21
0.86189
0
LINE
8
BLACK
6
CONTINUOUS
10
0.399505
20
0.86189
11
0.410854
21
0.86189
0
LINE
8
BLACK
6
CONTINUOUS
10
0.410854
20
0.86189
11
0.410854
21
0.876607
0
LINE
8
BLACK
6
CONTINUOUS
10
0.410854
20
0.876607
11
0.399505
21
0.876607
0
LINE
8
BLACK
6
CONTINUOUS
10
0.330988
20
0.88395
11
0.332243
21
0.882368
0
LINE
8
BLACK
6
CONTINUOUS
10
0.332243
20
0.882368
11
0.341617
21
0.854247
0
LINE
8
BLACK
6
CONTINUOUS
10
0.341617
20
0.854247
11
0.341768
21
0.853232
0
LINE
8
BLACK
6
CONTINUOUS
10
0.341768
20
0.853232
11
0.341685
21
0.853023
0
LINE
8
BLACK
6
CONTINUOUS
10
0.341685
20
0.853023
11
0.341724
21
0.8528
0
LINE
8
BLACK
6
CONTINUOUS
10
0.341724
20
0.8528
11
0.341321
21
0.852103
0
LINE
8
BLACK
6
CONTINUOUS
10
0.341321
20
0.852103
11
0.341025
21
0.851354
0
LINE
8
BLACK
6
CONTINUOUS
10
0.341025
20
0.851354
11
0.340827
21
0.851247
0
LINE
8
BLACK
6
CONTINUOUS
10
0.340827
20
0.851247
11
0.340714
21
0.851051
0
LINE
8
BLACK
6
CONTINUOUS
10
0.340714
20
0.851051
11
0.339957
21
0.850776
0
LINE
8
BLACK
6
CONTINUOUS
10
0.339957
20
0.850776
11
0.339249
21
0.850392
0
LINE
8
BLACK
6
CONTINUOUS
10
0.339249
20
0.850392
11
0.339028
21
0.850438
0
LINE
8
BLACK
6
CONTINUOUS
10
0.339028
20
0.850438
11
0.338816
21
0.85036
0
LINE
8
BLACK
6
CONTINUOUS
10
0.338816
20
0.85036
11
0.323021
21
0.85036
0
LINE
8
BLACK
6
CONTINUOUS
10
0.323021
20
0.85036
11
0.323021
21
0.84019
0
LINE
8
BLACK
6
CONTINUOUS
10
0.323021
20
0.84019
11
0.322843
21
0.83918
0
LINE
8
BLACK
6
CONTINUOUS
10
0.322843
20
0.83918
11
0.321545
21
0.837633
0
LINE
8
BLACK
6
CONTINUOUS
10
0.321545
20
0.837633
11
0.319555
21
0.837282
0
LINE
8
BLACK
6
CONTINUOUS
10
0.319555
20
0.837282
11
0.317806
21
0.838292
0
LINE
8
BLACK
6
CONTINUOUS
10
0.317806
20
0.838292
11
0.317115
21
0.84019
0
LINE
8
BLACK
6
CONTINUOUS
10
0.317115
20
0.84019
11
0.317115
21
0.85036
0
LINE
8
BLACK
6
CONTINUOUS
10
0.317115
20
0.85036
11
0.314444
21
0.85036
0
LINE
8
BLACK
6
CONTINUOUS
10
0.314444
20
0.85036
11
0.313434
21
0.850538
0
LINE
8
BLACK
6
CONTINUOUS
10
0.313434
20
0.850538
11
0.311887
21
0.851837
0
LINE
8
BLACK
6
CONTINUOUS
10
0.311887
20
0.851837
11
0.311536
21
0.853826
0
LINE
8
BLACK
6
CONTINUOUS
10
0.311536
20
0.853826
11
0.312546
21
0.855575
0
LINE
8
BLACK
6
CONTINUOUS
10
0.312546
20
0.855575
11
0.314444
21
0.856266
0
LINE
8
BLACK
6
CONTINUOUS
10
0.314444
20
0.856266
11
0.317115
21
0.856266
0
LINE
8
BLACK
6
CONTINUOUS
10
0.317115
20
0.856266
11
0.317115
21
0.866436
0
LINE
8
BLACK
6
CONTINUOUS
10
0.317115
20
0.866436
11
0.317294
21
0.867446
0
LINE
8
BLACK
6
CONTINUOUS
10
0.317294
20
0.867446
11
0.318592
21
0.868994
0
LINE
8
BLACK
6
CONTINUOUS
10
0.318592
20
0.868994
11
0.320581
21
0.869344
0
LINE
8
BLACK
6
CONTINUOUS
10
0.320581
20
0.869344
11
0.32233
21
0.868334
0
LINE
8
BLACK
6
CONTINUOUS
10
0.32233
20
0.868334
11
0.323021
21
0.866436
0
LINE
8
BLACK
6
CONTINUOUS
10
0.323021
20
0.866436
11
0.323021
21
0.856266
0
LINE
8
BLACK
6
CONTINUOUS
10
0.323021
20
0.856266
11
0.334719
21
0.856266
0
LINE
8
BLACK
6
CONTINUOUS
10
0.334719
20
0.856266
11
0.326641
21
0.880501
0
LINE
8
BLACK
6
CONTINUOUS
10
0.326641
20
0.880501
11
0.32649
21
0.881515
0
LINE
8
BLACK
6
CONTINUOUS
10
0.32649
20
0.881515
11
0.327233
21
0.883394
0
LINE
8
BLACK
6
CONTINUOUS
10
0.327233
20
0.883394
11
0.329009
21
0.884355
0
LINE
8
BLACK
6
CONTINUOUS
10
0.329009
20
0.884355
11
0.330988
21
0.88395
  0
ENDSEC
  0
EOF
