  0
SECTION
  2
HEADER
  9
$ANGBASE
  50
0.0
  9
$ANGDIR
  70
1
  9
$MEASUREMENT
  70
0
  0
ENDSEC
  0
SECTION
  2
TABLES
  0
TABLE
  2
LTYPE
  70
4
  0
LTYPE
  5
40F
  2
CONTINUOUS
  70
0
  3
Solid line
  72
65
  73
0
  40
0.0
  0
LTYPE
  5
410
  2
DASHDOT
 70
0
  3
Dash Dot ____ _ ____ _
 72
65
 73
4
 40
2.0
 49
1.25
 49
-0.25
 49
0.25
 49
-0.25
  0
LTYPE
  5
411
  2
DASHED
 70
0
  3
Dashed __ __ __ __ __
 72
65
 73
2
 40
0.75
 49
0.5
 49
-0.25
  0
LTYPE
  5
43B
  2
DOTTED
 70
0
  3
Dotted .  .  .  .
 72
65
 73
2
 40
0.2
 49
0.0
 49
-0.2
  0
ENDTAB
  0
TABLE
  2
STYLE
  70
4
  0
STYLE
  2
KICAD
  70
0
  40
0
  41
1
  42
1
  50
0
  71
0
  3
isocp.shx
  0
STYLE
  2
KICADB
  70
0
  40
0
  41
1
  42
1
  50
0
  71
0
  3
isocp.shx
  0
STYLE
  2
KICADI
  70
0
  40
0
  41
1
  42
1
  50
15
  71
0
  3
isocp.shx
  0
STYLE
  2
KICADBI
  70
0
  40
0
  41
1
  42
1
  50
15
  71
0
  3
isocp.shx
  0
ENDTAB
  0
TABLE
  2
LAYER
  70
1
  0
LAYER
  2
BLACK
  70
0
  62
7
  6
CONTINUOUS
  0
ENDTAB
  0
ENDSEC
  0
SECTION
  2
ENTITIES
0
LINE
8
BLACK
6
CONTINUOUS
10
0.980315
20
0.443701
11
0.981707
21
0.443124
0
LINE
8
BLACK
6
CONTINUOUS
10
0.981707
20
0.443124
11
0.982283
21
0.441732
0
LINE
8
BLACK
6
CONTINUOUS
10
0.982283
20
0.441732
11
0.982283
21
0.0700787
0
LINE
8
BLACK
6
CONTINUOUS
10
0.982283
20
0.0700787
11
0.981707
21
0.0686868
0
LINE
8
BLACK
6
CONTINUOUS
10
0.981707
20
0.0686868
11
0.980315
21
0.0681102
0
LINE
8
BLACK
6
CONTINUOUS
10
0.980315
20
0.0681102
11
0.728346
21
0.0681102
0
LINE
8
BLACK
6
CONTINUOUS
10
0.728346
20
0.0681102
11
0.726955
21
0.0686868
0
LINE
8
BLACK
6
CONTINUOUS
10
0.726955
20
0.0686868
11
0.726378
21
0.0700787
0
LINE
8
BLACK
6
CONTINUOUS
10
0.726378
20
0.0700787
11
0.726378
21
0.0700788
0
LINE
8
BLACK
6
CONTINUOUS
10
0.726378
20
0.0700788
11
0.726378
21
0.441732
0
LINE
8
BLACK
6
CONTINUOUS
10
0.726378
20
0.441732
11
0.726955
21
0.443124
0
LINE
8
BLACK
6
CONTINUOUS
10
0.726955
20
0.443124
11
0.728346
21
0.443701
0
LINE
8
BLACK
6
CONTINUOUS
10
0.728346
20
0.443701
11
0.980315
21
0.443701
0
LINE
8
BLACK
6
CONTINUOUS
10
0.730315
20
0.439764
11
0.730315
21
0.0720472
0
LINE
8
BLACK
6
CONTINUOUS
10
0.730315
20
0.0720472
11
0.978346
21
0.0720472
0
LINE
8
BLACK
6
CONTINUOUS
10
0.978346
20
0.0720472
11
0.978346
21
0.439764
0
LINE
8
BLACK
6
CONTINUOUS
10
0.978346
20
0.439764
11
0.730315
21
0.439764
0
LINE
8
BLACK
6
CONTINUOUS
10
0.614016
20
0.322598
11
0.615408
21
0.322022
0
LINE
8
BLACK
6
CONTINUOUS
10
0.615408
20
0.322022
11
0.615984
21
0.32063
0
LINE
8
BLACK
6
CONTINUOUS
10
0.615984
20
0.32063
11
0.615984
21
0.190709
0
LINE
8
BLACK
6
CONTINUOUS
10
0.615984
20
0.190709
11
0.615408
21
0.189317
0
LINE
8
BLACK
6
CONTINUOUS
10
0.615408
20
0.189317
11
0.614016
21
0.18874
0
LINE
8
BLACK
6
CONTINUOUS
10
0.614016
20
0.18874
11
0.515591
21
0.18874
0
LINE
8
BLACK
6
CONTINUOUS
10
0.515591
20
0.18874
11
0.514199
21
0.189317
0
LINE
8
BLACK
6
CONTINUOUS
10
0.514199
20
0.189317
11
0.513622
21
0.190709
0
LINE
8
BLACK
6
CONTINUOUS
10
0.513622
20
0.190709
11
0.513622
21
0.32063
0
LINE
8
BLACK
6
CONTINUOUS
10
0.513622
20
0.32063
11
0.514199
21
0.322022
0
LINE
8
BLACK
6
CONTINUOUS
10
0.514199
20
0.322022
11
0.515591
21
0.322598
0
LINE
8
BLACK
6
CONTINUOUS
10
0.515591
20
0.322598
11
0.614016
21
0.322598
0
LINE
8
BLACK
6
CONTINUOUS
10
0.517559
20
0.318661
11
0.517559
21
0.192677
0
LINE
8
BLACK
6
CONTINUOUS
10
0.517559
20
0.192677
11
0.612047
21
0.192677
0
LINE
8
BLACK
6
CONTINUOUS
10
0.612047
20
0.192677
11
0.612047
21
0.318661
0
LINE
8
BLACK
6
CONTINUOUS
10
0.612047
20
0.318661
11
0.517559
21
0.318661
0
LINE
8
BLACK
6
CONTINUOUS
10
0.980315
20
0.837402
11
0.981707
21
0.836825
0
LINE
8
BLACK
6
CONTINUOUS
10
0.981707
20
0.836825
11
0.982283
21
0.835433
0
LINE
8
BLACK
6
CONTINUOUS
10
0.982283
20
0.835433
11
0.982283
21
0.46378
0
LINE
8
BLACK
6
CONTINUOUS
10
0.982283
20
0.46378
11
0.981707
21
0.462388
0
LINE
8
BLACK
6
CONTINUOUS
10
0.981707
20
0.462388
11
0.980315
21
0.461811
0
LINE
8
BLACK
6
CONTINUOUS
10
0.980315
20
0.461811
11
0.728346
21
0.461811
0
LINE
8
BLACK
6
CONTINUOUS
10
0.728346
20
0.461811
11
0.726955
21
0.462388
0
LINE
8
BLACK
6
CONTINUOUS
10
0.726955
20
0.462388
11
0.726378
21
0.46378
0
LINE
8
BLACK
6
CONTINUOUS
10
0.726378
20
0.46378
11
0.726378
21
0.46378
0
LINE
8
BLACK
6
CONTINUOUS
10
0.726378
20
0.46378
11
0.726378
21
0.835433
0
LINE
8
BLACK
6
CONTINUOUS
10
0.726378
20
0.835433
11
0.726955
21
0.836825
0
LINE
8
BLACK
6
CONTINUOUS
10
0.726955
20
0.836825
11
0.728346
21
0.837402
0
LINE
8
BLACK
6
CONTINUOUS
10
0.728346
20
0.837402
11
0.980315
21
0.837402
0
LINE
8
BLACK
6
CONTINUOUS
10
0.730315
20
0.833465
11
0.730315
21
0.465748
0
LINE
8
BLACK
6
CONTINUOUS
10
0.730315
20
0.465748
11
0.978346
21
0.465748
0
LINE
8
BLACK
6
CONTINUOUS
10
0.978346
20
0.465748
11
0.978346
21
0.833465
0
LINE
8
BLACK
6
CONTINUOUS
10
0.978346
20
0.833465
11
0.730315
21
0.833465
0
LINE
8
BLACK
6
CONTINUOUS
10
0.614016
20
0.716299
11
0.615408
21
0.715723
0
LINE
8
BLACK
6
CONTINUOUS
10
0.615408
20
0.715723
11
0.615984
21
0.714331
0
LINE
8
BLACK
6
CONTINUOUS
10
0.615984
20
0.714331
11
0.615984
21
0.584409
0
LINE
8
BLACK
6
CONTINUOUS
10
0.615984
20
0.584409
11
0.615408
21
0.583018
0
LINE
8
BLACK
6
CONTINUOUS
10
0.615408
20
0.583018
11
0.614016
21
0.582441
0
LINE
8
BLACK
6
CONTINUOUS
10
0.614016
20
0.582441
11
0.515591
21
0.582441
0
LINE
8
BLACK
6
CONTINUOUS
10
0.515591
20
0.582441
11
0.514199
21
0.583018
0
LINE
8
BLACK
6
CONTINUOUS
10
0.514199
20
0.583018
11
0.513622
21
0.584409
0
LINE
8
BLACK
6
CONTINUOUS
10
0.513622
20
0.584409
11
0.513622
21
0.714331
0
LINE
8
BLACK
6
CONTINUOUS
10
0.513622
20
0.714331
11
0.514199
21
0.715723
0
LINE
8
BLACK
6
CONTINUOUS
10
0.514199
20
0.715723
11
0.515591
21
0.716299
0
LINE
8
BLACK
6
CONTINUOUS
10
0.515591
20
0.716299
11
0.614016
21
0.716299
0
LINE
8
BLACK
6
CONTINUOUS
10
0.517559
20
0.712362
11
0.517559
21
0.586378
0
LINE
8
BLACK
6
CONTINUOUS
10
0.517559
20
0.586378
11
0.612047
21
0.586378
0
LINE
8
BLACK
6
CONTINUOUS
10
0.612047
20
0.586378
11
0.612047
21
0.712362
0
LINE
8
BLACK
6
CONTINUOUS
10
0.612047
20
0.712362
11
0.517559
21
0.712362
  0
ENDSEC
  0
EOF
