  0
SECTION
  2
HEADER
  9
$ANGBASE
  50
0.0
  9
$ANGDIR
  70
1
  9
$MEASUREMENT
  70
0
  0
ENDSEC
  0
SECTION
  2
TABLES
  0
TABLE
  2
LTYPE
  70
4
  0
LTYPE
  5
40F
  2
CONTINUOUS
  70
0
  3
Solid line
  72
65
  73
0
  40
0.0
  0
LTYPE
  5
410
  2
DASHDOT
 70
0
  3
Dash Dot ____ _ ____ _
 72
65
 73
4
 40
2.0
 49
1.25
 49
-0.25
 49
0.25
 49
-0.25
  0
LTYPE
  5
411
  2
DASHED
 70
0
  3
Dashed __ __ __ __ __
 72
65
 73
2
 40
0.75
 49
0.5
 49
-0.25
  0
LTYPE
  5
43B
  2
DOTTED
 70
0
  3
Dotted .  .  .  .
 72
65
 73
2
 40
0.2
 49
0.0
 49
-0.2
  0
ENDTAB
  0
TABLE
  2
STYLE
  70
4
  0
STYLE
  2
KICAD
  70
0
  40
0
  41
1
  42
1
  50
0
  71
0
  3
isocp.shx
  0
STYLE
  2
KICADB
  70
0
  40
0
  41
1
  42
1
  50
0
  71
0
  3
isocp.shx
  0
STYLE
  2
KICADI
  70
0
  40
0
  41
1
  42
1
  50
15
  71
0
  3
isocp.shx
  0
STYLE
  2
KICADBI
  70
0
  40
0
  41
1
  42
1
  50
15
  71
0
  3
isocp.shx
  0
ENDTAB
  0
TABLE
  2
LAYER
  70
1
  0
LAYER
  2
BLACK
  70
0
  62
7
  6
CONTINUOUS
  0
ENDTAB
  0
ENDSEC
  0
SECTION
  2
ENTITIES
0
LINE
8
BLACK
6
CONTINUOUS
10
0.112922
20
0.057248
11
0.122147
21
0.0540811
0
LINE
8
BLACK
6
CONTINUOUS
10
0.122147
20
0.0540811
11
0.130725
21
0.049439
0
LINE
8
BLACK
6
CONTINUOUS
10
0.130725
20
0.049439
11
0.138422
21
0.0434483
0
LINE
8
BLACK
6
CONTINUOUS
10
0.138422
20
0.0434483
11
0.145028
21
0.0362724
0
LINE
8
BLACK
6
CONTINUOUS
10
0.145028
20
0.0362724
11
0.150363
21
0.0281071
0
LINE
8
BLACK
6
CONTINUOUS
10
0.150363
20
0.0281071
11
0.154281
21
0.0191752
0
LINE
8
BLACK
6
CONTINUOUS
10
0.154281
20
0.0191752
11
0.156675
21
0.00972016
0
LINE
8
BLACK
6
CONTINUOUS
10
0.156675
20
0.00972016
11
0.15748
21
0
0
LINE
8
BLACK
6
CONTINUOUS
10
0.15748
20
0
11
0.156675
21
-0.00972016
0
LINE
8
BLACK
6
CONTINUOUS
10
0.156675
20
-0.00972016
11
0.154281
21
-0.0191752
0
LINE
8
BLACK
6
CONTINUOUS
10
0.154281
20
-0.0191752
11
0.150363
21
-0.0281071
0
LINE
8
BLACK
6
CONTINUOUS
10
0.150363
20
-0.0281071
11
0.145028
21
-0.0362724
0
LINE
8
BLACK
6
CONTINUOUS
10
0.145028
20
-0.0362724
11
0.138422
21
-0.0434483
0
LINE
8
BLACK
6
CONTINUOUS
10
0.138422
20
-0.0434483
11
0.130725
21
-0.049439
0
LINE
8
BLACK
6
CONTINUOUS
10
0.130725
20
-0.049439
11
0.122147
21
-0.0540811
0
LINE
8
BLACK
6
CONTINUOUS
10
0.122147
20
-0.0540811
11
0.112922
21
-0.057248
0
LINE
8
BLACK
6
CONTINUOUS
10
0.112922
20
-0.057248
11
0.103302
21
-0.0588534
0
LINE
8
BLACK
6
CONTINUOUS
10
0.103302
20
-0.0588534
11
0.0935485
21
-0.0588534
0
LINE
8
BLACK
6
CONTINUOUS
10
0.0935485
20
-0.0588534
11
0.083928
21
-0.057248
0
LINE
8
BLACK
6
CONTINUOUS
10
0.083928
20
-0.057248
11
0.074703
21
-0.0540811
0
LINE
8
BLACK
6
CONTINUOUS
10
0.074703
20
-0.0540811
11
0.0661251
21
-0.049439
0
LINE
8
BLACK
6
CONTINUOUS
10
0.0661251
20
-0.049439
11
0.0584283
21
-0.0434483
0
LINE
8
BLACK
6
CONTINUOUS
10
0.0584283
20
-0.0434483
11
0.0518224
21
-0.0362724
0
LINE
8
BLACK
6
CONTINUOUS
10
0.0518224
20
-0.0362724
11
0.0464878
21
-0.0281071
0
LINE
8
BLACK
6
CONTINUOUS
10
0.0464878
20
-0.0281071
11
0.0425698
21
-0.0191752
0
LINE
8
BLACK
6
CONTINUOUS
10
0.0425698
20
-0.0191752
11
0.0401755
21
-0.00972016
0
LINE
8
BLACK
6
CONTINUOUS
10
0.0401755
20
-0.00972016
11
0.0393701
21
0
0
LINE
8
BLACK
6
CONTINUOUS
10
0.0393701
20
0
11
0.0401755
21
0.00972016
0
LINE
8
BLACK
6
CONTINUOUS
10
0.0401755
20
0.00972016
11
0.0425698
21
0.0191752
0
LINE
8
BLACK
6
CONTINUOUS
10
0.0425698
20
0.0191752
11
0.0464878
21
0.0281071
0
LINE
8
BLACK
6
CONTINUOUS
10
0.0464878
20
0.0281071
11
0.0518224
21
0.0362724
0
LINE
8
BLACK
6
CONTINUOUS
10
0.0518224
20
0.0362724
11
0.0584283
21
0.0434483
0
LINE
8
BLACK
6
CONTINUOUS
10
0.0584283
20
0.0434483
11
0.0661251
21
0.049439
0
LINE
8
BLACK
6
CONTINUOUS
10
0.0661251
20
0.049439
11
0.074703
21
0.0540811
0
LINE
8
BLACK
6
CONTINUOUS
10
0.074703
20
0.0540811
11
0.083928
21
0.057248
0
LINE
8
BLACK
6
CONTINUOUS
10
0.083928
20
0.057248
11
0.0935485
21
0.0588534
0
LINE
8
BLACK
6
CONTINUOUS
10
0.0935485
20
0.0588534
11
0.103302
21
0.0588534
0
LINE
8
BLACK
6
CONTINUOUS
10
0.103302
20
0.0588534
11
0.112922
21
0.057248
0
LINE
8
BLACK
6
CONTINUOUS
10
0.506623
20
0.057248
11
0.515848
21
0.0540811
0
LINE
8
BLACK
6
CONTINUOUS
10
0.515848
20
0.0540811
11
0.524426
21
0.049439
0
LINE
8
BLACK
6
CONTINUOUS
10
0.524426
20
0.049439
11
0.532123
21
0.0434483
0
LINE
8
BLACK
6
CONTINUOUS
10
0.532123
20
0.0434483
11
0.538729
21
0.0362724
0
LINE
8
BLACK
6
CONTINUOUS
10
0.538729
20
0.0362724
11
0.544063
21
0.0281071
0
LINE
8
BLACK
6
CONTINUOUS
10
0.544063
20
0.0281071
11
0.547981
21
0.0191752
0
LINE
8
BLACK
6
CONTINUOUS
10
0.547981
20
0.0191752
11
0.550376
21
0.00972016
0
LINE
8
BLACK
6
CONTINUOUS
10
0.550376
20
0.00972016
11
0.551181
21
0
0
LINE
8
BLACK
6
CONTINUOUS
10
0.551181
20
0
11
0.550376
21
-0.00972016
0
LINE
8
BLACK
6
CONTINUOUS
10
0.550376
20
-0.00972016
11
0.547981
21
-0.0191752
0
LINE
8
BLACK
6
CONTINUOUS
10
0.547981
20
-0.0191752
11
0.544063
21
-0.0281071
0
LINE
8
BLACK
6
CONTINUOUS
10
0.544063
20
-0.0281071
11
0.538729
21
-0.0362724
0
LINE
8
BLACK
6
CONTINUOUS
10
0.538729
20
-0.0362724
11
0.532123
21
-0.0434483
0
LINE
8
BLACK
6
CONTINUOUS
10
0.532123
20
-0.0434483
11
0.524426
21
-0.049439
0
LINE
8
BLACK
6
CONTINUOUS
10
0.524426
20
-0.049439
11
0.515848
21
-0.0540811
0
LINE
8
BLACK
6
CONTINUOUS
10
0.515848
20
-0.0540811
11
0.506623
21
-0.057248
0
LINE
8
BLACK
6
CONTINUOUS
10
0.506623
20
-0.057248
11
0.497003
21
-0.0588534
0
LINE
8
BLACK
6
CONTINUOUS
10
0.497003
20
-0.0588534
11
0.487249
21
-0.0588534
0
LINE
8
BLACK
6
CONTINUOUS
10
0.487249
20
-0.0588534
11
0.477629
21
-0.057248
0
LINE
8
BLACK
6
CONTINUOUS
10
0.477629
20
-0.057248
11
0.468404
21
-0.0540811
0
LINE
8
BLACK
6
CONTINUOUS
10
0.468404
20
-0.0540811
11
0.459826
21
-0.049439
0
LINE
8
BLACK
6
CONTINUOUS
10
0.459826
20
-0.049439
11
0.452129
21
-0.0434483
0
LINE
8
BLACK
6
CONTINUOUS
10
0.452129
20
-0.0434483
11
0.445523
21
-0.0362724
0
LINE
8
BLACK
6
CONTINUOUS
10
0.445523
20
-0.0362724
11
0.440189
21
-0.0281071
0
LINE
8
BLACK
6
CONTINUOUS
10
0.440189
20
-0.0281071
11
0.436271
21
-0.0191752
0
LINE
8
BLACK
6
CONTINUOUS
10
0.436271
20
-0.0191752
11
0.433876
21
-0.00972016
0
LINE
8
BLACK
6
CONTINUOUS
10
0.433876
20
-0.00972016
11
0.433071
21
0
0
LINE
8
BLACK
6
CONTINUOUS
10
0.433071
20
0
11
0.433876
21
0.00972016
0
LINE
8
BLACK
6
CONTINUOUS
10
0.433876
20
0.00972016
11
0.436271
21
0.0191752
0
LINE
8
BLACK
6
CONTINUOUS
10
0.436271
20
0.0191752
11
0.440189
21
0.0281071
0
LINE
8
BLACK
6
CONTINUOUS
10
0.440189
20
0.0281071
11
0.445523
21
0.0362724
0
LINE
8
BLACK
6
CONTINUOUS
10
0.445523
20
0.0362724
11
0.452129
21
0.0434483
0
LINE
8
BLACK
6
CONTINUOUS
10
0.452129
20
0.0434483
11
0.459826
21
0.049439
0
LINE
8
BLACK
6
CONTINUOUS
10
0.459826
20
0.049439
11
0.468404
21
0.0540811
0
LINE
8
BLACK
6
CONTINUOUS
10
0.468404
20
0.0540811
11
0.477629
21
0.057248
0
LINE
8
BLACK
6
CONTINUOUS
10
0.477629
20
0.057248
11
0.487249
21
0.0588534
0
LINE
8
BLACK
6
CONTINUOUS
10
0.487249
20
0.0588534
11
0.497003
21
0.0588534
0
LINE
8
BLACK
6
CONTINUOUS
10
0.497003
20
0.0588534
11
0.506623
21
0.057248
0
LINE
8
BLACK
6
CONTINUOUS
10
0.900324
20
0.057248
11
0.909549
21
0.0540811
0
LINE
8
BLACK
6
CONTINUOUS
10
0.909549
20
0.0540811
11
0.918127
21
0.049439
0
LINE
8
BLACK
6
CONTINUOUS
10
0.918127
20
0.049439
11
0.925824
21
0.0434483
0
LINE
8
BLACK
6
CONTINUOUS
10
0.925824
20
0.0434483
11
0.93243
21
0.0362724
0
LINE
8
BLACK
6
CONTINUOUS
10
0.93243
20
0.0362724
11
0.937764
21
0.0281071
0
LINE
8
BLACK
6
CONTINUOUS
10
0.937764
20
0.0281071
11
0.941682
21
0.0191752
0
LINE
8
BLACK
6
CONTINUOUS
10
0.941682
20
0.0191752
11
0.944076
21
0.00972016
0
LINE
8
BLACK
6
CONTINUOUS
10
0.944076
20
0.00972016
11
0.944882
21
0
0
LINE
8
BLACK
6
CONTINUOUS
10
0.944882
20
0
11
0.944076
21
-0.00972016
0
LINE
8
BLACK
6
CONTINUOUS
10
0.944076
20
-0.00972016
11
0.941682
21
-0.0191752
0
LINE
8
BLACK
6
CONTINUOUS
10
0.941682
20
-0.0191752
11
0.937764
21
-0.0281071
0
LINE
8
BLACK
6
CONTINUOUS
10
0.937764
20
-0.0281071
11
0.93243
21
-0.0362724
0
LINE
8
BLACK
6
CONTINUOUS
10
0.93243
20
-0.0362724
11
0.925824
21
-0.0434483
0
LINE
8
BLACK
6
CONTINUOUS
10
0.925824
20
-0.0434483
11
0.918127
21
-0.049439
0
LINE
8
BLACK
6
CONTINUOUS
10
0.918127
20
-0.049439
11
0.909549
21
-0.0540811
0
LINE
8
BLACK
6
CONTINUOUS
10
0.909549
20
-0.0540811
11
0.900324
21
-0.057248
0
LINE
8
BLACK
6
CONTINUOUS
10
0.900324
20
-0.057248
11
0.890704
21
-0.0588534
0
LINE
8
BLACK
6
CONTINUOUS
10
0.890704
20
-0.0588534
11
0.88095
21
-0.0588534
0
LINE
8
BLACK
6
CONTINUOUS
10
0.88095
20
-0.0588534
11
0.87133
21
-0.057248
0
LINE
8
BLACK
6
CONTINUOUS
10
0.87133
20
-0.057248
11
0.862105
21
-0.0540811
0
LINE
8
BLACK
6
CONTINUOUS
10
0.862105
20
-0.0540811
11
0.853527
21
-0.049439
0
LINE
8
BLACK
6
CONTINUOUS
10
0.853527
20
-0.049439
11
0.84583
21
-0.0434483
0
LINE
8
BLACK
6
CONTINUOUS
10
0.84583
20
-0.0434483
11
0.839224
21
-0.0362724
0
LINE
8
BLACK
6
CONTINUOUS
10
0.839224
20
-0.0362724
11
0.833889
21
-0.0281071
0
LINE
8
BLACK
6
CONTINUOUS
10
0.833889
20
-0.0281071
11
0.829971
21
-0.0191752
0
LINE
8
BLACK
6
CONTINUOUS
10
0.829971
20
-0.0191752
11
0.827577
21
-0.00972016
0
LINE
8
BLACK
6
CONTINUOUS
10
0.827577
20
-0.00972016
11
0.826772
21
0
0
LINE
8
BLACK
6
CONTINUOUS
10
0.826772
20
0
11
0.827577
21
0.00972016
0
LINE
8
BLACK
6
CONTINUOUS
10
0.827577
20
0.00972016
11
0.829971
21
0.0191752
0
LINE
8
BLACK
6
CONTINUOUS
10
0.829971
20
0.0191752
11
0.833889
21
0.0281071
0
LINE
8
BLACK
6
CONTINUOUS
10
0.833889
20
0.0281071
11
0.839224
21
0.0362724
0
LINE
8
BLACK
6
CONTINUOUS
10
0.839224
20
0.0362724
11
0.84583
21
0.0434483
0
LINE
8
BLACK
6
CONTINUOUS
10
0.84583
20
0.0434483
11
0.853527
21
0.049439
0
LINE
8
BLACK
6
CONTINUOUS
10
0.853527
20
0.049439
11
0.862105
21
0.0540811
0
LINE
8
BLACK
6
CONTINUOUS
10
0.862105
20
0.0540811
11
0.87133
21
0.057248
0
LINE
8
BLACK
6
CONTINUOUS
10
0.87133
20
0.057248
11
0.88095
21
0.0588534
0
LINE
8
BLACK
6
CONTINUOUS
10
0.88095
20
0.0588534
11
0.890704
21
0.0588534
0
LINE
8
BLACK
6
CONTINUOUS
10
0.890704
20
0.0588534
11
0.900324
21
0.057248
0
LINE
8
BLACK
6
CONTINUOUS
10
0.954081
20
0.136502
11
0.959066
21
0.134758
0
LINE
8
BLACK
6
CONTINUOUS
10
0.959066
20
0.134758
11
0.963315
21
0.131622
0
LINE
8
BLACK
6
CONTINUOUS
10
0.963315
20
0.131622
11
0.966451
21
0.127373
0
LINE
8
BLACK
6
CONTINUOUS
10
0.966451
20
0.127373
11
0.968195
21
0.122388
0
LINE
8
BLACK
6
CONTINUOUS
10
0.968195
20
0.122388
11
0.968504
21
0.119094
0
LINE
8
BLACK
6
CONTINUOUS
10
0.968504
20
0.119094
11
0.968504
21
0.0994094
0
LINE
8
BLACK
6
CONTINUOUS
10
0.968504
20
0.0994094
11
0.968195
21
0.0961157
0
LINE
8
BLACK
6
CONTINUOUS
10
0.968195
20
0.0961157
11
0.966451
21
0.0911311
0
LINE
8
BLACK
6
CONTINUOUS
10
0.966451
20
0.0911311
11
0.963315
21
0.086882
0
LINE
8
BLACK
6
CONTINUOUS
10
0.963315
20
0.086882
11
0.959066
21
0.083746
0
LINE
8
BLACK
6
CONTINUOUS
10
0.959066
20
0.083746
11
0.954081
21
0.0820018
0
LINE
8
BLACK
6
CONTINUOUS
10
0.954081
20
0.0820018
11
0.950787
21
0.0816929
0
LINE
8
BLACK
6
CONTINUOUS
10
0.950787
20
0.0816929
11
0.864173
21
0.0816929
0
LINE
8
BLACK
6
CONTINUOUS
10
0.864173
20
0.0816929
11
0.86088
21
0.0820018
0
LINE
8
BLACK
6
CONTINUOUS
10
0.86088
20
0.0820018
11
0.855895
21
0.083746
0
LINE
8
BLACK
6
CONTINUOUS
10
0.855895
20
0.083746
11
0.851646
21
0.086882
0
LINE
8
BLACK
6
CONTINUOUS
10
0.851646
20
0.086882
11
0.84851
21
0.0911311
0
LINE
8
BLACK
6
CONTINUOUS
10
0.84851
20
0.0911311
11
0.846766
21
0.0961157
0
LINE
8
BLACK
6
CONTINUOUS
10
0.846766
20
0.0961157
11
0.846457
21
0.0994094
0
LINE
8
BLACK
6
CONTINUOUS
10
0.846457
20
0.0994094
11
0.846457
21
0.119094
0
LINE
8
BLACK
6
CONTINUOUS
10
0.846457
20
0.119094
11
0.846766
21
0.122388
0
LINE
8
BLACK
6
CONTINUOUS
10
0.846766
20
0.122388
11
0.84851
21
0.127373
0
LINE
8
BLACK
6
CONTINUOUS
10
0.84851
20
0.127373
11
0.851646
21
0.131622
0
LINE
8
BLACK
6
CONTINUOUS
10
0.851646
20
0.131622
11
0.855895
21
0.134758
0
LINE
8
BLACK
6
CONTINUOUS
10
0.855895
20
0.134758
11
0.86088
21
0.136502
0
LINE
8
BLACK
6
CONTINUOUS
10
0.86088
20
0.136502
11
0.864173
21
0.136811
0
LINE
8
BLACK
6
CONTINUOUS
10
0.864173
20
0.136811
11
0.950787
21
0.136811
0
LINE
8
BLACK
6
CONTINUOUS
10
0.950787
20
0.136811
11
0.954081
21
0.136502
0
LINE
8
BLACK
6
CONTINUOUS
10
0.812987
20
0.201199
11
0.817062
21
0.199207
0
LINE
8
BLACK
6
CONTINUOUS
10
0.817062
20
0.199207
11
0.82027
21
0.195999
0
LINE
8
BLACK
6
CONTINUOUS
10
0.82027
20
0.195999
11
0.822262
21
0.191924
0
LINE
8
BLACK
6
CONTINUOUS
10
0.822262
20
0.191924
11
0.822835
21
0.187992
0
LINE
8
BLACK
6
CONTINUOUS
10
0.822835
20
0.187992
11
0.822835
21
0.176181
0
LINE
8
BLACK
6
CONTINUOUS
10
0.822835
20
0.176181
11
0.822262
21
0.172249
0
LINE
8
BLACK
6
CONTINUOUS
10
0.822262
20
0.172249
11
0.82027
21
0.168174
0
LINE
8
BLACK
6
CONTINUOUS
10
0.82027
20
0.168174
11
0.817062
21
0.164967
0
LINE
8
BLACK
6
CONTINUOUS
10
0.817062
20
0.164967
11
0.812987
21
0.162974
0
LINE
8
BLACK
6
CONTINUOUS
10
0.812987
20
0.162974
11
0.809055
21
0.162402
0
LINE
8
BLACK
6
CONTINUOUS
10
0.809055
20
0.162402
11
0.753937
21
0.162402
0
LINE
8
BLACK
6
CONTINUOUS
10
0.753937
20
0.162402
11
0.750005
21
0.162974
0
LINE
8
BLACK
6
CONTINUOUS
10
0.750005
20
0.162974
11
0.74593
21
0.164967
0
LINE
8
BLACK
6
CONTINUOUS
10
0.74593
20
0.164967
11
0.742723
21
0.168174
0
LINE
8
BLACK
6
CONTINUOUS
10
0.742723
20
0.168174
11
0.74073
21
0.172249
0
LINE
8
BLACK
6
CONTINUOUS
10
0.74073
20
0.172249
11
0.740157
21
0.176181
0
LINE
8
BLACK
6
CONTINUOUS
10
0.740157
20
0.176181
11
0.740157
21
0.187992
0
LINE
8
BLACK
6
CONTINUOUS
10
0.740157
20
0.187992
11
0.74073
21
0.191924
0
LINE
8
BLACK
6
CONTINUOUS
10
0.74073
20
0.191924
11
0.742723
21
0.195999
0
LINE
8
BLACK
6
CONTINUOUS
10
0.742723
20
0.195999
11
0.74593
21
0.199207
0
LINE
8
BLACK
6
CONTINUOUS
10
0.74593
20
0.199207
11
0.750005
21
0.201199
0
LINE
8
BLACK
6
CONTINUOUS
10
0.750005
20
0.201199
11
0.753937
21
0.201772
0
LINE
8
BLACK
6
CONTINUOUS
10
0.753937
20
0.201772
11
0.809055
21
0.201772
0
LINE
8
BLACK
6
CONTINUOUS
10
0.809055
20
0.201772
11
0.812987
21
0.201199
0
LINE
8
BLACK
6
CONTINUOUS
10
0.575766
20
0.308739
11
0.581312
21
0.307941
0
LINE
8
BLACK
6
CONTINUOUS
10
0.581312
20
0.307941
11
0.583463
21
0.30731
0
LINE
8
BLACK
6
CONTINUOUS
10
0.583463
20
0.30731
11
0.588559
21
0.304982
0
LINE
8
BLACK
6
CONTINUOUS
10
0.588559
20
0.304982
11
0.590445
21
0.303771
0
LINE
8
BLACK
6
CONTINUOUS
10
0.590445
20
0.303771
11
0.594679
21
0.300102
0
LINE
8
BLACK
6
CONTINUOUS
10
0.594679
20
0.300102
11
0.596147
21
0.298408
0
LINE
8
BLACK
6
CONTINUOUS
10
0.596147
20
0.298408
11
0.599176
21
0.293694
0
LINE
8
BLACK
6
CONTINUOUS
10
0.599176
20
0.293694
11
0.600107
21
0.291656
0
LINE
8
BLACK
6
CONTINUOUS
10
0.600107
20
0.291656
11
0.601685
21
0.28628
0
LINE
8
BLACK
6
CONTINUOUS
10
0.601685
20
0.28628
11
0.602004
21
0.284061
0
LINE
8
BLACK
6
CONTINUOUS
10
0.602004
20
0.284061
11
0.602004
21
0.282267
0
LINE
8
BLACK
6
CONTINUOUS
10
0.602004
20
0.282267
11
0.602205
21
0.28126
0
LINE
8
BLACK
6
CONTINUOUS
10
0.602205
20
0.28126
11
0.602205
21
0.261575
0
LINE
8
BLACK
6
CONTINUOUS
10
0.602205
20
0.261575
11
0.601605
21
0.258562
0
LINE
8
BLACK
6
CONTINUOUS
10
0.601605
20
0.258562
11
0.599898
21
0.256007
0
LINE
8
BLACK
6
CONTINUOUS
10
0.599898
20
0.256007
11
0.599393
21
0.255669
0
LINE
8
BLACK
6
CONTINUOUS
10
0.599393
20
0.255669
11
0.599898
21
0.255332
0
LINE
8
BLACK
6
CONTINUOUS
10
0.599898
20
0.255332
11
0.601605
21
0.252777
0
LINE
8
BLACK
6
CONTINUOUS
10
0.601605
20
0.252777
11
0.602205
21
0.249764
0
LINE
8
BLACK
6
CONTINUOUS
10
0.602205
20
0.249764
11
0.602205
21
0.230079
0
LINE
8
BLACK
6
CONTINUOUS
10
0.602205
20
0.230079
11
0.602004
21
0.229071
0
LINE
8
BLACK
6
CONTINUOUS
10
0.602004
20
0.229071
11
0.602004
21
0.227277
0
LINE
8
BLACK
6
CONTINUOUS
10
0.602004
20
0.227277
11
0.601685
21
0.225059
0
LINE
8
BLACK
6
CONTINUOUS
10
0.601685
20
0.225059
11
0.600107
21
0.219683
0
LINE
8
BLACK
6
CONTINUOUS
10
0.600107
20
0.219683
11
0.599176
21
0.217644
0
LINE
8
BLACK
6
CONTINUOUS
10
0.599176
20
0.217644
11
0.596147
21
0.212931
0
LINE
8
BLACK
6
CONTINUOUS
10
0.596147
20
0.212931
11
0.594679
21
0.211237
0
LINE
8
BLACK
6
CONTINUOUS
10
0.594679
20
0.211237
11
0.590445
21
0.207568
0
LINE
8
BLACK
6
CONTINUOUS
10
0.590445
20
0.207568
11
0.588559
21
0.206356
0
LINE
8
BLACK
6
CONTINUOUS
10
0.588559
20
0.206356
11
0.583463
21
0.204029
0
LINE
8
BLACK
6
CONTINUOUS
10
0.583463
20
0.204029
11
0.581312
21
0.203397
0
LINE
8
BLACK
6
CONTINUOUS
10
0.581312
20
0.203397
11
0.575766
21
0.2026
0
LINE
8
BLACK
6
CONTINUOUS
10
0.575766
20
0.2026
11
0.574646
21
0.20252
0
LINE
8
BLACK
6
CONTINUOUS
10
0.574646
20
0.20252
11
0.554961
21
0.20252
0
LINE
8
BLACK
6
CONTINUOUS
10
0.554961
20
0.20252
11
0.55384
21
0.2026
0
LINE
8
BLACK
6
CONTINUOUS
10
0.55384
20
0.2026
11
0.548294
21
0.203397
0
LINE
8
BLACK
6
CONTINUOUS
10
0.548294
20
0.203397
11
0.546144
21
0.204029
0
LINE
8
BLACK
6
CONTINUOUS
10
0.546144
20
0.204029
11
0.541047
21
0.206356
0
LINE
8
BLACK
6
CONTINUOUS
10
0.541047
20
0.206356
11
0.539162
21
0.207568
0
LINE
8
BLACK
6
CONTINUOUS
10
0.539162
20
0.207568
11
0.534927
21
0.211237
0
LINE
8
BLACK
6
CONTINUOUS
10
0.534927
20
0.211237
11
0.53346
21
0.212931
0
LINE
8
BLACK
6
CONTINUOUS
10
0.53346
20
0.212931
11
0.53043
21
0.217644
0
LINE
8
BLACK
6
CONTINUOUS
10
0.53043
20
0.217644
11
0.529499
21
0.219683
0
LINE
8
BLACK
6
CONTINUOUS
10
0.529499
20
0.219683
11
0.527921
21
0.225059
0
LINE
8
BLACK
6
CONTINUOUS
10
0.527921
20
0.225059
11
0.527602
21
0.227277
0
LINE
8
BLACK
6
CONTINUOUS
10
0.527602
20
0.227277
11
0.527602
21
0.229071
0
LINE
8
BLACK
6
CONTINUOUS
10
0.527602
20
0.229071
11
0.527402
21
0.230079
0
LINE
8
BLACK
6
CONTINUOUS
10
0.527402
20
0.230079
11
0.527402
21
0.249764
0
LINE
8
BLACK
6
CONTINUOUS
10
0.527402
20
0.249764
11
0.528001
21
0.252777
0
LINE
8
BLACK
6
CONTINUOUS
10
0.528001
20
0.252777
11
0.529708
21
0.255332
0
LINE
8
BLACK
6
CONTINUOUS
10
0.529708
20
0.255332
11
0.530213
21
0.255669
0
LINE
8
BLACK
6
CONTINUOUS
10
0.530213
20
0.255669
11
0.529708
21
0.256007
0
LINE
8
BLACK
6
CONTINUOUS
10
0.529708
20
0.256007
11
0.528001
21
0.258562
0
LINE
8
BLACK
6
CONTINUOUS
10
0.528001
20
0.258562
11
0.527402
21
0.261575
0
LINE
8
BLACK
6
CONTINUOUS
10
0.527402
20
0.261575
11
0.527402
21
0.28126
0
LINE
8
BLACK
6
CONTINUOUS
10
0.527402
20
0.28126
11
0.527602
21
0.282267
0
LINE
8
BLACK
6
CONTINUOUS
10
0.527602
20
0.282267
11
0.527602
21
0.284061
0
LINE
8
BLACK
6
CONTINUOUS
10
0.527602
20
0.284061
11
0.527921
21
0.28628
0
LINE
8
BLACK
6
CONTINUOUS
10
0.527921
20
0.28628
11
0.529499
21
0.291656
0
LINE
8
BLACK
6
CONTINUOUS
10
0.529499
20
0.291656
11
0.53043
21
0.293694
0
LINE
8
BLACK
6
CONTINUOUS
10
0.53043
20
0.293694
11
0.53346
21
0.298408
0
LINE
8
BLACK
6
CONTINUOUS
10
0.53346
20
0.298408
11
0.534927
21
0.300102
0
LINE
8
BLACK
6
CONTINUOUS
10
0.534927
20
0.300102
11
0.539162
21
0.303771
0
LINE
8
BLACK
6
CONTINUOUS
10
0.539162
20
0.303771
11
0.541047
21
0.304982
0
LINE
8
BLACK
6
CONTINUOUS
10
0.541047
20
0.304982
11
0.546144
21
0.30731
0
LINE
8
BLACK
6
CONTINUOUS
10
0.546144
20
0.30731
11
0.548294
21
0.307941
0
LINE
8
BLACK
6
CONTINUOUS
10
0.548294
20
0.307941
11
0.55384
21
0.308739
0
LINE
8
BLACK
6
CONTINUOUS
10
0.55384
20
0.308739
11
0.554961
21
0.308819
0
LINE
8
BLACK
6
CONTINUOUS
10
0.554961
20
0.308819
11
0.574646
21
0.308819
0
LINE
8
BLACK
6
CONTINUOUS
10
0.574646
20
0.308819
11
0.575766
21
0.308739
0
LINE
8
BLACK
6
CONTINUOUS
10
0.812987
20
0.250411
11
0.817062
21
0.248419
0
LINE
8
BLACK
6
CONTINUOUS
10
0.817062
20
0.248419
11
0.82027
21
0.245212
0
LINE
8
BLACK
6
CONTINUOUS
10
0.82027
20
0.245212
11
0.822262
21
0.241137
0
LINE
8
BLACK
6
CONTINUOUS
10
0.822262
20
0.241137
11
0.822835
21
0.237205
0
LINE
8
BLACK
6
CONTINUOUS
10
0.822835
20
0.237205
11
0.822835
21
0.225394
0
LINE
8
BLACK
6
CONTINUOUS
10
0.822835
20
0.225394
11
0.822262
21
0.221462
0
LINE
8
BLACK
6
CONTINUOUS
10
0.822262
20
0.221462
11
0.82027
21
0.217387
0
LINE
8
BLACK
6
CONTINUOUS
10
0.82027
20
0.217387
11
0.817062
21
0.214179
0
LINE
8
BLACK
6
CONTINUOUS
10
0.817062
20
0.214179
11
0.812987
21
0.212187
0
LINE
8
BLACK
6
CONTINUOUS
10
0.812987
20
0.212187
11
0.809055
21
0.211614
0
LINE
8
BLACK
6
CONTINUOUS
10
0.809055
20
0.211614
11
0.753937
21
0.211614
0
LINE
8
BLACK
6
CONTINUOUS
10
0.753937
20
0.211614
11
0.750005
21
0.212187
0
LINE
8
BLACK
6
CONTINUOUS
10
0.750005
20
0.212187
11
0.74593
21
0.214179
0
LINE
8
BLACK
6
CONTINUOUS
10
0.74593
20
0.214179
11
0.742723
21
0.217387
0
LINE
8
BLACK
6
CONTINUOUS
10
0.742723
20
0.217387
11
0.74073
21
0.221462
0
LINE
8
BLACK
6
CONTINUOUS
10
0.74073
20
0.221462
11
0.740157
21
0.225394
0
LINE
8
BLACK
6
CONTINUOUS
10
0.740157
20
0.225394
11
0.740157
21
0.237205
0
LINE
8
BLACK
6
CONTINUOUS
10
0.740157
20
0.237205
11
0.74073
21
0.241137
0
LINE
8
BLACK
6
CONTINUOUS
10
0.74073
20
0.241137
11
0.742723
21
0.245212
0
LINE
8
BLACK
6
CONTINUOUS
10
0.742723
20
0.245212
11
0.74593
21
0.248419
0
LINE
8
BLACK
6
CONTINUOUS
10
0.74593
20
0.248419
11
0.750005
21
0.250411
0
LINE
8
BLACK
6
CONTINUOUS
10
0.750005
20
0.250411
11
0.753937
21
0.250984
0
LINE
8
BLACK
6
CONTINUOUS
10
0.753937
20
0.250984
11
0.809055
21
0.250984
0
LINE
8
BLACK
6
CONTINUOUS
10
0.809055
20
0.250984
11
0.812987
21
0.250411
0
LINE
8
BLACK
6
CONTINUOUS
10
0.812987
20
0.299624
11
0.817062
21
0.297632
0
LINE
8
BLACK
6
CONTINUOUS
10
0.817062
20
0.297632
11
0.82027
21
0.294424
0
LINE
8
BLACK
6
CONTINUOUS
10
0.82027
20
0.294424
11
0.822262
21
0.290349
0
LINE
8
BLACK
6
CONTINUOUS
10
0.822262
20
0.290349
11
0.822835
21
0.286417
0
LINE
8
BLACK
6
CONTINUOUS
10
0.822835
20
0.286417
11
0.822835
21
0.274606
0
LINE
8
BLACK
6
CONTINUOUS
10
0.822835
20
0.274606
11
0.822262
21
0.270674
0
LINE
8
BLACK
6
CONTINUOUS
10
0.822262
20
0.270674
11
0.82027
21
0.266599
0
LINE
8
BLACK
6
CONTINUOUS
10
0.82027
20
0.266599
11
0.817062
21
0.263392
0
LINE
8
BLACK
6
CONTINUOUS
10
0.817062
20
0.263392
11
0.812987
21
0.2614
0
LINE
8
BLACK
6
CONTINUOUS
10
0.812987
20
0.2614
11
0.809055
21
0.260827
0
LINE
8
BLACK
6
CONTINUOUS
10
0.809055
20
0.260827
11
0.753937
21
0.260827
0
LINE
8
BLACK
6
CONTINUOUS
10
0.753937
20
0.260827
11
0.750005
21
0.2614
0
LINE
8
BLACK
6
CONTINUOUS
10
0.750005
20
0.2614
11
0.74593
21
0.263392
0
LINE
8
BLACK
6
CONTINUOUS
10
0.74593
20
0.263392
11
0.742723
21
0.266599
0
LINE
8
BLACK
6
CONTINUOUS
10
0.742723
20
0.266599
11
0.74073
21
0.270674
0
LINE
8
BLACK
6
CONTINUOUS
10
0.74073
20
0.270674
11
0.740157
21
0.274606
0
LINE
8
BLACK
6
CONTINUOUS
10
0.740157
20
0.274606
11
0.740157
21
0.286417
0
LINE
8
BLACK
6
CONTINUOUS
10
0.740157
20
0.286417
11
0.74073
21
0.290349
0
LINE
8
BLACK
6
CONTINUOUS
10
0.74073
20
0.290349
11
0.742723
21
0.294424
0
LINE
8
BLACK
6
CONTINUOUS
10
0.742723
20
0.294424
11
0.74593
21
0.297632
0
LINE
8
BLACK
6
CONTINUOUS
10
0.74593
20
0.297632
11
0.750005
21
0.299624
0
LINE
8
BLACK
6
CONTINUOUS
10
0.750005
20
0.299624
11
0.753937
21
0.300197
0
LINE
8
BLACK
6
CONTINUOUS
10
0.753937
20
0.300197
11
0.809055
21
0.300197
0
LINE
8
BLACK
6
CONTINUOUS
10
0.809055
20
0.300197
11
0.812987
21
0.299624
0
LINE
8
BLACK
6
CONTINUOUS
10
0.812987
20
0.348837
11
0.817062
21
0.346844
0
LINE
8
BLACK
6
CONTINUOUS
10
0.817062
20
0.346844
11
0.82027
21
0.343637
0
LINE
8
BLACK
6
CONTINUOUS
10
0.82027
20
0.343637
11
0.822262
21
0.339562
0
LINE
8
BLACK
6
CONTINUOUS
10
0.822262
20
0.339562
11
0.822835
21
0.33563
0
LINE
8
BLACK
6
CONTINUOUS
10
0.822835
20
0.33563
11
0.822835
21
0.323819
0
LINE
8
BLACK
6
CONTINUOUS
10
0.822835
20
0.323819
11
0.822262
21
0.319887
0
LINE
8
BLACK
6
CONTINUOUS
10
0.822262
20
0.319887
11
0.82027
21
0.315812
0
LINE
8
BLACK
6
CONTINUOUS
10
0.82027
20
0.315812
11
0.817062
21
0.312604
0
LINE
8
BLACK
6
CONTINUOUS
10
0.817062
20
0.312604
11
0.812987
21
0.310612
0
LINE
8
BLACK
6
CONTINUOUS
10
0.812987
20
0.310612
11
0.809055
21
0.310039
0
LINE
8
BLACK
6
CONTINUOUS
10
0.809055
20
0.310039
11
0.753937
21
0.310039
0
LINE
8
BLACK
6
CONTINUOUS
10
0.753937
20
0.310039
11
0.750005
21
0.310612
0
LINE
8
BLACK
6
CONTINUOUS
10
0.750005
20
0.310612
11
0.74593
21
0.312604
0
LINE
8
BLACK
6
CONTINUOUS
10
0.74593
20
0.312604
11
0.742723
21
0.315812
0
LINE
8
BLACK
6
CONTINUOUS
10
0.742723
20
0.315812
11
0.74073
21
0.319887
0
LINE
8
BLACK
6
CONTINUOUS
10
0.74073
20
0.319887
11
0.740157
21
0.323819
0
LINE
8
BLACK
6
CONTINUOUS
10
0.740157
20
0.323819
11
0.740157
21
0.33563
0
LINE
8
BLACK
6
CONTINUOUS
10
0.740157
20
0.33563
11
0.74073
21
0.339562
0
LINE
8
BLACK
6
CONTINUOUS
10
0.74073
20
0.339562
11
0.742723
21
0.343637
0
LINE
8
BLACK
6
CONTINUOUS
10
0.742723
20
0.343637
11
0.74593
21
0.346844
0
LINE
8
BLACK
6
CONTINUOUS
10
0.74593
20
0.346844
11
0.750005
21
0.348837
0
LINE
8
BLACK
6
CONTINUOUS
10
0.750005
20
0.348837
11
0.753937
21
0.349409
0
LINE
8
BLACK
6
CONTINUOUS
10
0.753937
20
0.349409
11
0.809055
21
0.349409
0
LINE
8
BLACK
6
CONTINUOUS
10
0.809055
20
0.349409
11
0.812987
21
0.348837
0
LINE
8
BLACK
6
CONTINUOUS
10
0.954081
20
0.429809
11
0.959066
21
0.428065
0
LINE
8
BLACK
6
CONTINUOUS
10
0.959066
20
0.428065
11
0.963315
21
0.424929
0
LINE
8
BLACK
6
CONTINUOUS
10
0.963315
20
0.424929
11
0.966451
21
0.42068
0
LINE
8
BLACK
6
CONTINUOUS
10
0.966451
20
0.42068
11
0.968195
21
0.415695
0
LINE
8
BLACK
6
CONTINUOUS
10
0.968195
20
0.415695
11
0.968504
21
0.412402
0
LINE
8
BLACK
6
CONTINUOUS
10
0.968504
20
0.412402
11
0.968504
21
0.392717
0
LINE
8
BLACK
6
CONTINUOUS
10
0.968504
20
0.392717
11
0.968195
21
0.389423
0
LINE
8
BLACK
6
CONTINUOUS
10
0.968195
20
0.389423
11
0.966451
21
0.384438
0
LINE
8
BLACK
6
CONTINUOUS
10
0.966451
20
0.384438
11
0.963315
21
0.380189
0
LINE
8
BLACK
6
CONTINUOUS
10
0.963315
20
0.380189
11
0.959066
21
0.377053
0
LINE
8
BLACK
6
CONTINUOUS
10
0.959066
20
0.377053
11
0.954081
21
0.375309
0
LINE
8
BLACK
6
CONTINUOUS
10
0.954081
20
0.375309
11
0.950787
21
0.375
0
LINE
8
BLACK
6
CONTINUOUS
10
0.950787
20
0.375
11
0.864173
21
0.375
0
LINE
8
BLACK
6
CONTINUOUS
10
0.864173
20
0.375
11
0.86088
21
0.375309
0
LINE
8
BLACK
6
CONTINUOUS
10
0.86088
20
0.375309
11
0.855895
21
0.377053
0
LINE
8
BLACK
6
CONTINUOUS
10
0.855895
20
0.377053
11
0.851646
21
0.380189
0
LINE
8
BLACK
6
CONTINUOUS
10
0.851646
20
0.380189
11
0.84851
21
0.384438
0
LINE
8
BLACK
6
CONTINUOUS
10
0.84851
20
0.384438
11
0.846766
21
0.389423
0
LINE
8
BLACK
6
CONTINUOUS
10
0.846766
20
0.389423
11
0.846457
21
0.392717
0
LINE
8
BLACK
6
CONTINUOUS
10
0.846457
20
0.392717
11
0.846457
21
0.412402
0
LINE
8
BLACK
6
CONTINUOUS
10
0.846457
20
0.412402
11
0.846766
21
0.415695
0
LINE
8
BLACK
6
CONTINUOUS
10
0.846766
20
0.415695
11
0.84851
21
0.42068
0
LINE
8
BLACK
6
CONTINUOUS
10
0.84851
20
0.42068
11
0.851646
21
0.424929
0
LINE
8
BLACK
6
CONTINUOUS
10
0.851646
20
0.424929
11
0.855895
21
0.428065
0
LINE
8
BLACK
6
CONTINUOUS
10
0.855895
20
0.428065
11
0.86088
21
0.429809
0
LINE
8
BLACK
6
CONTINUOUS
10
0.86088
20
0.429809
11
0.864173
21
0.430118
0
LINE
8
BLACK
6
CONTINUOUS
10
0.864173
20
0.430118
11
0.950787
21
0.430118
0
LINE
8
BLACK
6
CONTINUOUS
10
0.950787
20
0.430118
11
0.954081
21
0.429809
0
LINE
8
BLACK
6
CONTINUOUS
10
0.954081
20
0.530203
11
0.959066
21
0.528459
0
LINE
8
BLACK
6
CONTINUOUS
10
0.959066
20
0.528459
11
0.963315
21
0.525323
0
LINE
8
BLACK
6
CONTINUOUS
10
0.963315
20
0.525323
11
0.966451
21
0.521074
0
LINE
8
BLACK
6
CONTINUOUS
10
0.966451
20
0.521074
11
0.968195
21
0.516089
0
LINE
8
BLACK
6
CONTINUOUS
10
0.968195
20
0.516089
11
0.968504
21
0.512795
0
LINE
8
BLACK
6
CONTINUOUS
10
0.968504
20
0.512795
11
0.968504
21
0.49311
0
LINE
8
BLACK
6
CONTINUOUS
10
0.968504
20
0.49311
11
0.968195
21
0.489817
0
LINE
8
BLACK
6
CONTINUOUS
10
0.968195
20
0.489817
11
0.966451
21
0.484832
0
LINE
8
BLACK
6
CONTINUOUS
10
0.966451
20
0.484832
11
0.963315
21
0.480583
0
LINE
8
BLACK
6
CONTINUOUS
10
0.963315
20
0.480583
11
0.959066
21
0.477447
0
LINE
8
BLACK
6
CONTINUOUS
10
0.959066
20
0.477447
11
0.954081
21
0.475703
0
LINE
8
BLACK
6
CONTINUOUS
10
0.954081
20
0.475703
11
0.950787
21
0.475394
0
LINE
8
BLACK
6
CONTINUOUS
10
0.950787
20
0.475394
11
0.864173
21
0.475394
0
LINE
8
BLACK
6
CONTINUOUS
10
0.864173
20
0.475394
11
0.86088
21
0.475703
0
LINE
8
BLACK
6
CONTINUOUS
10
0.86088
20
0.475703
11
0.855895
21
0.477447
0
LINE
8
BLACK
6
CONTINUOUS
10
0.855895
20
0.477447
11
0.851646
21
0.480583
0
LINE
8
BLACK
6
CONTINUOUS
10
0.851646
20
0.480583
11
0.84851
21
0.484832
0
LINE
8
BLACK
6
CONTINUOUS
10
0.84851
20
0.484832
11
0.846766
21
0.489817
0
LINE
8
BLACK
6
CONTINUOUS
10
0.846766
20
0.489817
11
0.846457
21
0.49311
0
LINE
8
BLACK
6
CONTINUOUS
10
0.846457
20
0.49311
11
0.846457
21
0.512795
0
LINE
8
BLACK
6
CONTINUOUS
10
0.846457
20
0.512795
11
0.846766
21
0.516089
0
LINE
8
BLACK
6
CONTINUOUS
10
0.846766
20
0.516089
11
0.84851
21
0.521074
0
LINE
8
BLACK
6
CONTINUOUS
10
0.84851
20
0.521074
11
0.851646
21
0.525323
0
LINE
8
BLACK
6
CONTINUOUS
10
0.851646
20
0.525323
11
0.855895
21
0.528459
0
LINE
8
BLACK
6
CONTINUOUS
10
0.855895
20
0.528459
11
0.86088
21
0.530203
0
LINE
8
BLACK
6
CONTINUOUS
10
0.86088
20
0.530203
11
0.864173
21
0.530512
0
LINE
8
BLACK
6
CONTINUOUS
10
0.864173
20
0.530512
11
0.950787
21
0.530512
0
LINE
8
BLACK
6
CONTINUOUS
10
0.950787
20
0.530512
11
0.954081
21
0.530203
0
LINE
8
BLACK
6
CONTINUOUS
10
0.812987
20
0.5949
11
0.817062
21
0.592907
0
LINE
8
BLACK
6
CONTINUOUS
10
0.817062
20
0.592907
11
0.82027
21
0.5897
0
LINE
8
BLACK
6
CONTINUOUS
10
0.82027
20
0.5897
11
0.822262
21
0.585625
0
LINE
8
BLACK
6
CONTINUOUS
10
0.822262
20
0.585625
11
0.822835
21
0.581693
0
LINE
8
BLACK
6
CONTINUOUS
10
0.822835
20
0.581693
11
0.822835
21
0.569882
0
LINE
8
BLACK
6
CONTINUOUS
10
0.822835
20
0.569882
11
0.822262
21
0.56595
0
LINE
8
BLACK
6
CONTINUOUS
10
0.822262
20
0.56595
11
0.82027
21
0.561875
0
LINE
8
BLACK
6
CONTINUOUS
10
0.82027
20
0.561875
11
0.817062
21
0.558667
0
LINE
8
BLACK
6
CONTINUOUS
10
0.817062
20
0.558667
11
0.812987
21
0.556675
0
LINE
8
BLACK
6
CONTINUOUS
10
0.812987
20
0.556675
11
0.809055
21
0.556102
0
LINE
8
BLACK
6
CONTINUOUS
10
0.809055
20
0.556102
11
0.753937
21
0.556102
0
LINE
8
BLACK
6
CONTINUOUS
10
0.753937
20
0.556102
11
0.750005
21
0.556675
0
LINE
8
BLACK
6
CONTINUOUS
10
0.750005
20
0.556675
11
0.74593
21
0.558667
0
LINE
8
BLACK
6
CONTINUOUS
10
0.74593
20
0.558667
11
0.742723
21
0.561875
0
LINE
8
BLACK
6
CONTINUOUS
10
0.742723
20
0.561875
11
0.74073
21
0.56595
0
LINE
8
BLACK
6
CONTINUOUS
10
0.74073
20
0.56595
11
0.740157
21
0.569882
0
LINE
8
BLACK
6
CONTINUOUS
10
0.740157
20
0.569882
11
0.740157
21
0.581693
0
LINE
8
BLACK
6
CONTINUOUS
10
0.740157
20
0.581693
11
0.74073
21
0.585625
0
LINE
8
BLACK
6
CONTINUOUS
10
0.74073
20
0.585625
11
0.742723
21
0.5897
0
LINE
8
BLACK
6
CONTINUOUS
10
0.742723
20
0.5897
11
0.74593
21
0.592907
0
LINE
8
BLACK
6
CONTINUOUS
10
0.74593
20
0.592907
11
0.750005
21
0.5949
0
LINE
8
BLACK
6
CONTINUOUS
10
0.750005
20
0.5949
11
0.753937
21
0.595472
0
LINE
8
BLACK
6
CONTINUOUS
10
0.753937
20
0.595472
11
0.809055
21
0.595472
0
LINE
8
BLACK
6
CONTINUOUS
10
0.809055
20
0.595472
11
0.812987
21
0.5949
0
LINE
8
BLACK
6
CONTINUOUS
10
0.575766
20
0.70244
11
0.581312
21
0.701642
0
LINE
8
BLACK
6
CONTINUOUS
10
0.581312
20
0.701642
11
0.583463
21
0.701011
0
LINE
8
BLACK
6
CONTINUOUS
10
0.583463
20
0.701011
11
0.588559
21
0.698683
0
LINE
8
BLACK
6
CONTINUOUS
10
0.588559
20
0.698683
11
0.590445
21
0.697472
0
LINE
8
BLACK
6
CONTINUOUS
10
0.590445
20
0.697472
11
0.594679
21
0.693802
0
LINE
8
BLACK
6
CONTINUOUS
10
0.594679
20
0.693802
11
0.596147
21
0.692109
0
LINE
8
BLACK
6
CONTINUOUS
10
0.596147
20
0.692109
11
0.599176
21
0.687395
0
LINE
8
BLACK
6
CONTINUOUS
10
0.599176
20
0.687395
11
0.600107
21
0.685356
0
LINE
8
BLACK
6
CONTINUOUS
10
0.600107
20
0.685356
11
0.601685
21
0.67998
0
LINE
8
BLACK
6
CONTINUOUS
10
0.601685
20
0.67998
11
0.602004
21
0.677762
0
LINE
8
BLACK
6
CONTINUOUS
10
0.602004
20
0.677762
11
0.602004
21
0.675968
0
LINE
8
BLACK
6
CONTINUOUS
10
0.602004
20
0.675968
11
0.602205
21
0.674961
0
LINE
8
BLACK
6
CONTINUOUS
10
0.602205
20
0.674961
11
0.602205
21
0.655276
0
LINE
8
BLACK
6
CONTINUOUS
10
0.602205
20
0.655276
11
0.601605
21
0.652262
0
LINE
8
BLACK
6
CONTINUOUS
10
0.601605
20
0.652262
11
0.599898
21
0.649708
0
LINE
8
BLACK
6
CONTINUOUS
10
0.599898
20
0.649708
11
0.599393
21
0.64937
0
LINE
8
BLACK
6
CONTINUOUS
10
0.599393
20
0.64937
11
0.599898
21
0.649032
0
LINE
8
BLACK
6
CONTINUOUS
10
0.599898
20
0.649032
11
0.601605
21
0.646478
0
LINE
8
BLACK
6
CONTINUOUS
10
0.601605
20
0.646478
11
0.602205
21
0.643465
0
LINE
8
BLACK
6
CONTINUOUS
10
0.602205
20
0.643465
11
0.602205
21
0.62378
0
LINE
8
BLACK
6
CONTINUOUS
10
0.602205
20
0.62378
11
0.602004
21
0.622772
0
LINE
8
BLACK
6
CONTINUOUS
10
0.602004
20
0.622772
11
0.602004
21
0.620978
0
LINE
8
BLACK
6
CONTINUOUS
10
0.602004
20
0.620978
11
0.601685
21
0.61876
0
LINE
8
BLACK
6
CONTINUOUS
10
0.601685
20
0.61876
11
0.600107
21
0.613384
0
LINE
8
BLACK
6
CONTINUOUS
10
0.600107
20
0.613384
11
0.599176
21
0.611345
0
LINE
8
BLACK
6
CONTINUOUS
10
0.599176
20
0.611345
11
0.596147
21
0.606632
0
LINE
8
BLACK
6
CONTINUOUS
10
0.596147
20
0.606632
11
0.594679
21
0.604938
0
LINE
8
BLACK
6
CONTINUOUS
10
0.594679
20
0.604938
11
0.590445
21
0.601269
0
LINE
8
BLACK
6
CONTINUOUS
10
0.590445
20
0.601269
11
0.588559
21
0.600057
0
LINE
8
BLACK
6
CONTINUOUS
10
0.588559
20
0.600057
11
0.583463
21
0.597729
0
LINE
8
BLACK
6
CONTINUOUS
10
0.583463
20
0.597729
11
0.581312
21
0.597098
0
LINE
8
BLACK
6
CONTINUOUS
10
0.581312
20
0.597098
11
0.575766
21
0.596301
0
LINE
8
BLACK
6
CONTINUOUS
10
0.575766
20
0.596301
11
0.574646
21
0.59622
0
LINE
8
BLACK
6
CONTINUOUS
10
0.574646
20
0.59622
11
0.554961
21
0.59622
0
LINE
8
BLACK
6
CONTINUOUS
10
0.554961
20
0.59622
11
0.55384
21
0.596301
0
LINE
8
BLACK
6
CONTINUOUS
10
0.55384
20
0.596301
11
0.548294
21
0.597098
0
LINE
8
BLACK
6
CONTINUOUS
10
0.548294
20
0.597098
11
0.546144
21
0.597729
0
LINE
8
BLACK
6
CONTINUOUS
10
0.546144
20
0.597729
11
0.541047
21
0.600057
0
LINE
8
BLACK
6
CONTINUOUS
10
0.541047
20
0.600057
11
0.539162
21
0.601269
0
LINE
8
BLACK
6
CONTINUOUS
10
0.539162
20
0.601269
11
0.534927
21
0.604938
0
LINE
8
BLACK
6
CONTINUOUS
10
0.534927
20
0.604938
11
0.53346
21
0.606632
0
LINE
8
BLACK
6
CONTINUOUS
10
0.53346
20
0.606632
11
0.53043
21
0.611345
0
LINE
8
BLACK
6
CONTINUOUS
10
0.53043
20
0.611345
11
0.529499
21
0.613384
0
LINE
8
BLACK
6
CONTINUOUS
10
0.529499
20
0.613384
11
0.527921
21
0.61876
0
LINE
8
BLACK
6
CONTINUOUS
10
0.527921
20
0.61876
11
0.527602
21
0.620978
0
LINE
8
BLACK
6
CONTINUOUS
10
0.527602
20
0.620978
11
0.527602
21
0.622772
0
LINE
8
BLACK
6
CONTINUOUS
10
0.527602
20
0.622772
11
0.527402
21
0.62378
0
LINE
8
BLACK
6
CONTINUOUS
10
0.527402
20
0.62378
11
0.527402
21
0.643465
0
LINE
8
BLACK
6
CONTINUOUS
10
0.527402
20
0.643465
11
0.528001
21
0.646478
0
LINE
8
BLACK
6
CONTINUOUS
10
0.528001
20
0.646478
11
0.529708
21
0.649032
0
LINE
8
BLACK
6
CONTINUOUS
10
0.529708
20
0.649032
11
0.530213
21
0.64937
0
LINE
8
BLACK
6
CONTINUOUS
10
0.530213
20
0.64937
11
0.529708
21
0.649708
0
LINE
8
BLACK
6
CONTINUOUS
10
0.529708
20
0.649708
11
0.528001
21
0.652262
0
LINE
8
BLACK
6
CONTINUOUS
10
0.528001
20
0.652262
11
0.527402
21
0.655276
0
LINE
8
BLACK
6
CONTINUOUS
10
0.527402
20
0.655276
11
0.527402
21
0.674961
0
LINE
8
BLACK
6
CONTINUOUS
10
0.527402
20
0.674961
11
0.527602
21
0.675968
0
LINE
8
BLACK
6
CONTINUOUS
10
0.527602
20
0.675968
11
0.527602
21
0.677762
0
LINE
8
BLACK
6
CONTINUOUS
10
0.527602
20
0.677762
11
0.527921
21
0.67998
0
LINE
8
BLACK
6
CONTINUOUS
10
0.527921
20
0.67998
11
0.529499
21
0.685356
0
LINE
8
BLACK
6
CONTINUOUS
10
0.529499
20
0.685356
11
0.53043
21
0.687395
0
LINE
8
BLACK
6
CONTINUOUS
10
0.53043
20
0.687395
11
0.53346
21
0.692109
0
LINE
8
BLACK
6
CONTINUOUS
10
0.53346
20
0.692109
11
0.534927
21
0.693802
0
LINE
8
BLACK
6
CONTINUOUS
10
0.534927
20
0.693802
11
0.539162
21
0.697472
0
LINE
8
BLACK
6
CONTINUOUS
10
0.539162
20
0.697472
11
0.541047
21
0.698683
0
LINE
8
BLACK
6
CONTINUOUS
10
0.541047
20
0.698683
11
0.546144
21
0.701011
0
LINE
8
BLACK
6
CONTINUOUS
10
0.546144
20
0.701011
11
0.548294
21
0.701642
0
LINE
8
BLACK
6
CONTINUOUS
10
0.548294
20
0.701642
11
0.55384
21
0.70244
0
LINE
8
BLACK
6
CONTINUOUS
10
0.55384
20
0.70244
11
0.554961
21
0.70252
0
LINE
8
BLACK
6
CONTINUOUS
10
0.554961
20
0.70252
11
0.574646
21
0.70252
0
LINE
8
BLACK
6
CONTINUOUS
10
0.574646
20
0.70252
11
0.575766
21
0.70244
0
LINE
8
BLACK
6
CONTINUOUS
10
0.812987
20
0.644112
11
0.817062
21
0.64212
0
LINE
8
BLACK
6
CONTINUOUS
10
0.817062
20
0.64212
11
0.82027
21
0.638912
0
LINE
8
BLACK
6
CONTINUOUS
10
0.82027
20
0.638912
11
0.822262
21
0.634837
0
LINE
8
BLACK
6
CONTINUOUS
10
0.822262
20
0.634837
11
0.822835
21
0.630906
0
LINE
8
BLACK
6
CONTINUOUS
10
0.822835
20
0.630906
11
0.822835
21
0.619094
0
LINE
8
BLACK
6
CONTINUOUS
10
0.822835
20
0.619094
11
0.822262
21
0.615163
0
LINE
8
BLACK
6
CONTINUOUS
10
0.822262
20
0.615163
11
0.82027
21
0.611088
0
LINE
8
BLACK
6
CONTINUOUS
10
0.82027
20
0.611088
11
0.817062
21
0.60788
0
LINE
8
BLACK
6
CONTINUOUS
10
0.817062
20
0.60788
11
0.812987
21
0.605888
0
LINE
8
BLACK
6
CONTINUOUS
10
0.812987
20
0.605888
11
0.809055
21
0.605315
0
LINE
8
BLACK
6
CONTINUOUS
10
0.809055
20
0.605315
11
0.753937
21
0.605315
0
LINE
8
BLACK
6
CONTINUOUS
10
0.753937
20
0.605315
11
0.750005
21
0.605888
0
LINE
8
BLACK
6
CONTINUOUS
10
0.750005
20
0.605888
11
0.74593
21
0.60788
0
LINE
8
BLACK
6
CONTINUOUS
10
0.74593
20
0.60788
11
0.742723
21
0.611088
0
LINE
8
BLACK
6
CONTINUOUS
10
0.742723
20
0.611088
11
0.74073
21
0.615163
0
LINE
8
BLACK
6
CONTINUOUS
10
0.74073
20
0.615163
11
0.740157
21
0.619094
0
LINE
8
BLACK
6
CONTINUOUS
10
0.740157
20
0.619094
11
0.740157
21
0.630906
0
LINE
8
BLACK
6
CONTINUOUS
10
0.740157
20
0.630906
11
0.74073
21
0.634837
0
LINE
8
BLACK
6
CONTINUOUS
10
0.74073
20
0.634837
11
0.742723
21
0.638912
0
LINE
8
BLACK
6
CONTINUOUS
10
0.742723
20
0.638912
11
0.74593
21
0.64212
0
LINE
8
BLACK
6
CONTINUOUS
10
0.74593
20
0.64212
11
0.750005
21
0.644112
0
LINE
8
BLACK
6
CONTINUOUS
10
0.750005
20
0.644112
11
0.753937
21
0.644685
0
LINE
8
BLACK
6
CONTINUOUS
10
0.753937
20
0.644685
11
0.809055
21
0.644685
0
LINE
8
BLACK
6
CONTINUOUS
10
0.809055
20
0.644685
11
0.812987
21
0.644112
0
LINE
8
BLACK
6
CONTINUOUS
10
0.812987
20
0.693325
11
0.817062
21
0.691333
0
LINE
8
BLACK
6
CONTINUOUS
10
0.817062
20
0.691333
11
0.82027
21
0.688125
0
LINE
8
BLACK
6
CONTINUOUS
10
0.82027
20
0.688125
11
0.822262
21
0.68405
0
LINE
8
BLACK
6
CONTINUOUS
10
0.822262
20
0.68405
11
0.822835
21
0.680118
0
LINE
8
BLACK
6
CONTINUOUS
10
0.822835
20
0.680118
11
0.822835
21
0.668307
0
LINE
8
BLACK
6
CONTINUOUS
10
0.822835
20
0.668307
11
0.822262
21
0.664375
0
LINE
8
BLACK
6
CONTINUOUS
10
0.822262
20
0.664375
11
0.82027
21
0.6603
0
LINE
8
BLACK
6
CONTINUOUS
10
0.82027
20
0.6603
11
0.817062
21
0.657093
0
LINE
8
BLACK
6
CONTINUOUS
10
0.817062
20
0.657093
11
0.812987
21
0.6551
0
LINE
8
BLACK
6
CONTINUOUS
10
0.812987
20
0.6551
11
0.809055
21
0.654528
0
LINE
8
BLACK
6
CONTINUOUS
10
0.809055
20
0.654528
11
0.753937
21
0.654528
0
LINE
8
BLACK
6
CONTINUOUS
10
0.753937
20
0.654528
11
0.750005
21
0.6551
0
LINE
8
BLACK
6
CONTINUOUS
10
0.750005
20
0.6551
11
0.74593
21
0.657093
0
LINE
8
BLACK
6
CONTINUOUS
10
0.74593
20
0.657093
11
0.742723
21
0.6603
0
LINE
8
BLACK
6
CONTINUOUS
10
0.742723
20
0.6603
11
0.74073
21
0.664375
0
LINE
8
BLACK
6
CONTINUOUS
10
0.74073
20
0.664375
11
0.740157
21
0.668307
0
LINE
8
BLACK
6
CONTINUOUS
10
0.740157
20
0.668307
11
0.740157
21
0.680118
0
LINE
8
BLACK
6
CONTINUOUS
10
0.740157
20
0.680118
11
0.74073
21
0.68405
0
LINE
8
BLACK
6
CONTINUOUS
10
0.74073
20
0.68405
11
0.742723
21
0.688125
0
LINE
8
BLACK
6
CONTINUOUS
10
0.742723
20
0.688125
11
0.74593
21
0.691333
0
LINE
8
BLACK
6
CONTINUOUS
10
0.74593
20
0.691333
11
0.750005
21
0.693325
0
LINE
8
BLACK
6
CONTINUOUS
10
0.750005
20
0.693325
11
0.753937
21
0.693898
0
LINE
8
BLACK
6
CONTINUOUS
10
0.753937
20
0.693898
11
0.809055
21
0.693898
0
LINE
8
BLACK
6
CONTINUOUS
10
0.809055
20
0.693898
11
0.812987
21
0.693325
0
LINE
8
BLACK
6
CONTINUOUS
10
0.812987
20
0.742537
11
0.817062
21
0.740545
0
LINE
8
BLACK
6
CONTINUOUS
10
0.817062
20
0.740545
11
0.82027
21
0.737338
0
LINE
8
BLACK
6
CONTINUOUS
10
0.82027
20
0.737338
11
0.822262
21
0.733263
0
LINE
8
BLACK
6
CONTINUOUS
10
0.822262
20
0.733263
11
0.822835
21
0.729331
0
LINE
8
BLACK
6
CONTINUOUS
10
0.822835
20
0.729331
11
0.822835
21
0.71752
0
LINE
8
BLACK
6
CONTINUOUS
10
0.822835
20
0.71752
11
0.822262
21
0.713588
0
LINE
8
BLACK
6
CONTINUOUS
10
0.822262
20
0.713588
11
0.82027
21
0.709513
0
LINE
8
BLACK
6
CONTINUOUS
10
0.82027
20
0.709513
11
0.817062
21
0.706305
0
LINE
8
BLACK
6
CONTINUOUS
10
0.817062
20
0.706305
11
0.812987
21
0.704313
0
LINE
8
BLACK
6
CONTINUOUS
10
0.812987
20
0.704313
11
0.809055
21
0.70374
0
LINE
8
BLACK
6
CONTINUOUS
10
0.809055
20
0.70374
11
0.753937
21
0.70374
0
LINE
8
BLACK
6
CONTINUOUS
10
0.753937
20
0.70374
11
0.750005
21
0.704313
0
LINE
8
BLACK
6
CONTINUOUS
10
0.750005
20
0.704313
11
0.74593
21
0.706305
0
LINE
8
BLACK
6
CONTINUOUS
10
0.74593
20
0.706305
11
0.742723
21
0.709513
0
LINE
8
BLACK
6
CONTINUOUS
10
0.742723
20
0.709513
11
0.74073
21
0.713588
0
LINE
8
BLACK
6
CONTINUOUS
10
0.74073
20
0.713588
11
0.740157
21
0.71752
0
LINE
8
BLACK
6
CONTINUOUS
10
0.740157
20
0.71752
11
0.740157
21
0.729331
0
LINE
8
BLACK
6
CONTINUOUS
10
0.740157
20
0.729331
11
0.74073
21
0.733263
0
LINE
8
BLACK
6
CONTINUOUS
10
0.74073
20
0.733263
11
0.742723
21
0.737338
0
LINE
8
BLACK
6
CONTINUOUS
10
0.742723
20
0.737338
11
0.74593
21
0.740545
0
LINE
8
BLACK
6
CONTINUOUS
10
0.74593
20
0.740545
11
0.750005
21
0.742537
0
LINE
8
BLACK
6
CONTINUOUS
10
0.750005
20
0.742537
11
0.753937
21
0.74311
0
LINE
8
BLACK
6
CONTINUOUS
10
0.753937
20
0.74311
11
0.809055
21
0.74311
0
LINE
8
BLACK
6
CONTINUOUS
10
0.809055
20
0.74311
11
0.812987
21
0.742537
0
LINE
8
BLACK
6
CONTINUOUS
10
0.954081
20
0.82351
11
0.959066
21
0.821766
0
LINE
8
BLACK
6
CONTINUOUS
10
0.959066
20
0.821766
11
0.963315
21
0.81863
0
LINE
8
BLACK
6
CONTINUOUS
10
0.963315
20
0.81863
11
0.966451
21
0.814381
0
LINE
8
BLACK
6
CONTINUOUS
10
0.966451
20
0.814381
11
0.968195
21
0.809396
0
LINE
8
BLACK
6
CONTINUOUS
10
0.968195
20
0.809396
11
0.968504
21
0.806102
0
LINE
8
BLACK
6
CONTINUOUS
10
0.968504
20
0.806102
11
0.968504
21
0.786417
0
LINE
8
BLACK
6
CONTINUOUS
10
0.968504
20
0.786417
11
0.968195
21
0.783124
0
LINE
8
BLACK
6
CONTINUOUS
10
0.968195
20
0.783124
11
0.966451
21
0.778139
0
LINE
8
BLACK
6
CONTINUOUS
10
0.966451
20
0.778139
11
0.963315
21
0.77389
0
LINE
8
BLACK
6
CONTINUOUS
10
0.963315
20
0.77389
11
0.959066
21
0.770754
0
LINE
8
BLACK
6
CONTINUOUS
10
0.959066
20
0.770754
11
0.954081
21
0.76901
0
LINE
8
BLACK
6
CONTINUOUS
10
0.954081
20
0.76901
11
0.950787
21
0.768701
0
LINE
8
BLACK
6
CONTINUOUS
10
0.950787
20
0.768701
11
0.864173
21
0.768701
0
LINE
8
BLACK
6
CONTINUOUS
10
0.864173
20
0.768701
11
0.86088
21
0.76901
0
LINE
8
BLACK
6
CONTINUOUS
10
0.86088
20
0.76901
11
0.855895
21
0.770754
0
LINE
8
BLACK
6
CONTINUOUS
10
0.855895
20
0.770754
11
0.851646
21
0.77389
0
LINE
8
BLACK
6
CONTINUOUS
10
0.851646
20
0.77389
11
0.84851
21
0.778139
0
LINE
8
BLACK
6
CONTINUOUS
10
0.84851
20
0.778139
11
0.846766
21
0.783124
0
LINE
8
BLACK
6
CONTINUOUS
10
0.846766
20
0.783124
11
0.846457
21
0.786417
0
LINE
8
BLACK
6
CONTINUOUS
10
0.846457
20
0.786417
11
0.846457
21
0.806102
0
LINE
8
BLACK
6
CONTINUOUS
10
0.846457
20
0.806102
11
0.846766
21
0.809396
0
LINE
8
BLACK
6
CONTINUOUS
10
0.846766
20
0.809396
11
0.84851
21
0.814381
0
LINE
8
BLACK
6
CONTINUOUS
10
0.84851
20
0.814381
11
0.851646
21
0.81863
0
LINE
8
BLACK
6
CONTINUOUS
10
0.851646
20
0.81863
11
0.855895
21
0.821766
0
LINE
8
BLACK
6
CONTINUOUS
10
0.855895
20
0.821766
11
0.86088
21
0.82351
0
LINE
8
BLACK
6
CONTINUOUS
10
0.86088
20
0.82351
11
0.864173
21
0.823819
0
LINE
8
BLACK
6
CONTINUOUS
10
0.864173
20
0.823819
11
0.950787
21
0.823819
0
LINE
8
BLACK
6
CONTINUOUS
10
0.950787
20
0.823819
11
0.954081
21
0.82351
0
LINE
8
BLACK
6
CONTINUOUS
10
0.112922
20
0.96276
11
0.122147
21
0.959593
0
LINE
8
BLACK
6
CONTINUOUS
10
0.122147
20
0.959593
11
0.130725
21
0.954951
0
LINE
8
BLACK
6
CONTINUOUS
10
0.130725
20
0.954951
11
0.138422
21
0.94896
0
LINE
8
BLACK
6
CONTINUOUS
10
0.138422
20
0.94896
11
0.145028
21
0.941784
0
LINE
8
BLACK
6
CONTINUOUS
10
0.145028
20
0.941784
11
0.150363
21
0.933619
0
LINE
8
BLACK
6
CONTINUOUS
10
0.150363
20
0.933619
11
0.154281
21
0.924687
0
LINE
8
BLACK
6
CONTINUOUS
10
0.154281
20
0.924687
11
0.156675
21
0.915232
0
LINE
8
BLACK
6
CONTINUOUS
10
0.156675
20
0.915232
11
0.15748
21
0.905512
0
LINE
8
BLACK
6
CONTINUOUS
10
0.15748
20
0.905512
11
0.156675
21
0.895792
0
LINE
8
BLACK
6
CONTINUOUS
10
0.156675
20
0.895792
11
0.154281
21
0.886337
0
LINE
8
BLACK
6
CONTINUOUS
10
0.154281
20
0.886337
11
0.150363
21
0.877405
0
LINE
8
BLACK
6
CONTINUOUS
10
0.150363
20
0.877405
11
0.145028
21
0.869239
0
LINE
8
BLACK
6
CONTINUOUS
10
0.145028
20
0.869239
11
0.138422
21
0.862064
0
LINE
8
BLACK
6
CONTINUOUS
10
0.138422
20
0.862064
11
0.130725
21
0.856073
0
LINE
8
BLACK
6
CONTINUOUS
10
0.130725
20
0.856073
11
0.122147
21
0.851431
0
LINE
8
BLACK
6
CONTINUOUS
10
0.122147
20
0.851431
11
0.112922
21
0.848264
0
LINE
8
BLACK
6
CONTINUOUS
10
0.112922
20
0.848264
11
0.103302
21
0.846658
0
LINE
8
BLACK
6
CONTINUOUS
10
0.103302
20
0.846658
11
0.0935485
21
0.846658
0
LINE
8
BLACK
6
CONTINUOUS
10
0.0935485
20
0.846658
11
0.083928
21
0.848264
0
LINE
8
BLACK
6
CONTINUOUS
10
0.083928
20
0.848264
11
0.074703
21
0.851431
0
LINE
8
BLACK
6
CONTINUOUS
10
0.074703
20
0.851431
11
0.0661251
21
0.856073
0
LINE
8
BLACK
6
CONTINUOUS
10
0.0661251
20
0.856073
11
0.0584283
21
0.862064
0
LINE
8
BLACK
6
CONTINUOUS
10
0.0584283
20
0.862064
11
0.0518224
21
0.869239
0
LINE
8
BLACK
6
CONTINUOUS
10
0.0518224
20
0.869239
11
0.0464878
21
0.877405
0
LINE
8
BLACK
6
CONTINUOUS
10
0.0464878
20
0.877405
11
0.0425698
21
0.886337
0
LINE
8
BLACK
6
CONTINUOUS
10
0.0425698
20
0.886337
11
0.0401755
21
0.895792
0
LINE
8
BLACK
6
CONTINUOUS
10
0.0401755
20
0.895792
11
0.0393701
21
0.905512
0
LINE
8
BLACK
6
CONTINUOUS
10
0.0393701
20
0.905512
11
0.0401755
21
0.915232
0
LINE
8
BLACK
6
CONTINUOUS
10
0.0401755
20
0.915232
11
0.0425698
21
0.924687
0
LINE
8
BLACK
6
CONTINUOUS
10
0.0425698
20
0.924687
11
0.0464878
21
0.933619
0
LINE
8
BLACK
6
CONTINUOUS
10
0.0464878
20
0.933619
11
0.0518224
21
0.941784
0
LINE
8
BLACK
6
CONTINUOUS
10
0.0518224
20
0.941784
11
0.0584283
21
0.94896
0
LINE
8
BLACK
6
CONTINUOUS
10
0.0584283
20
0.94896
11
0.0661251
21
0.954951
0
LINE
8
BLACK
6
CONTINUOUS
10
0.0661251
20
0.954951
11
0.074703
21
0.959593
0
LINE
8
BLACK
6
CONTINUOUS
10
0.074703
20
0.959593
11
0.083928
21
0.96276
0
LINE
8
BLACK
6
CONTINUOUS
10
0.083928
20
0.96276
11
0.0935485
21
0.964365
0
LINE
8
BLACK
6
CONTINUOUS
10
0.0935485
20
0.964365
11
0.103302
21
0.964365
0
LINE
8
BLACK
6
CONTINUOUS
10
0.103302
20
0.964365
11
0.112922
21
0.96276
0
LINE
8
BLACK
6
CONTINUOUS
10
0.506623
20
0.96276
11
0.515848
21
0.959593
0
LINE
8
BLACK
6
CONTINUOUS
10
0.515848
20
0.959593
11
0.524426
21
0.954951
0
LINE
8
BLACK
6
CONTINUOUS
10
0.524426
20
0.954951
11
0.532123
21
0.94896
0
LINE
8
BLACK
6
CONTINUOUS
10
0.532123
20
0.94896
11
0.538729
21
0.941784
0
LINE
8
BLACK
6
CONTINUOUS
10
0.538729
20
0.941784
11
0.544063
21
0.933619
0
LINE
8
BLACK
6
CONTINUOUS
10
0.544063
20
0.933619
11
0.547981
21
0.924687
0
LINE
8
BLACK
6
CONTINUOUS
10
0.547981
20
0.924687
11
0.550376
21
0.915232
0
LINE
8
BLACK
6
CONTINUOUS
10
0.550376
20
0.915232
11
0.551181
21
0.905512
0
LINE
8
BLACK
6
CONTINUOUS
10
0.551181
20
0.905512
11
0.550376
21
0.895792
0
LINE
8
BLACK
6
CONTINUOUS
10
0.550376
20
0.895792
11
0.547981
21
0.886337
0
LINE
8
BLACK
6
CONTINUOUS
10
0.547981
20
0.886337
11
0.544063
21
0.877405
0
LINE
8
BLACK
6
CONTINUOUS
10
0.544063
20
0.877405
11
0.538729
21
0.869239
0
LINE
8
BLACK
6
CONTINUOUS
10
0.538729
20
0.869239
11
0.532123
21
0.862064
0
LINE
8
BLACK
6
CONTINUOUS
10
0.532123
20
0.862064
11
0.524426
21
0.856073
0
LINE
8
BLACK
6
CONTINUOUS
10
0.524426
20
0.856073
11
0.515848
21
0.851431
0
LINE
8
BLACK
6
CONTINUOUS
10
0.515848
20
0.851431
11
0.506623
21
0.848264
0
LINE
8
BLACK
6
CONTINUOUS
10
0.506623
20
0.848264
11
0.497003
21
0.846658
0
LINE
8
BLACK
6
CONTINUOUS
10
0.497003
20
0.846658
11
0.487249
21
0.846658
0
LINE
8
BLACK
6
CONTINUOUS
10
0.487249
20
0.846658
11
0.477629
21
0.848264
0
LINE
8
BLACK
6
CONTINUOUS
10
0.477629
20
0.848264
11
0.468404
21
0.851431
0
LINE
8
BLACK
6
CONTINUOUS
10
0.468404
20
0.851431
11
0.459826
21
0.856073
0
LINE
8
BLACK
6
CONTINUOUS
10
0.459826
20
0.856073
11
0.452129
21
0.862064
0
LINE
8
BLACK
6
CONTINUOUS
10
0.452129
20
0.862064
11
0.445523
21
0.869239
0
LINE
8
BLACK
6
CONTINUOUS
10
0.445523
20
0.869239
11
0.440189
21
0.877405
0
LINE
8
BLACK
6
CONTINUOUS
10
0.440189
20
0.877405
11
0.436271
21
0.886337
0
LINE
8
BLACK
6
CONTINUOUS
10
0.436271
20
0.886337
11
0.433876
21
0.895792
0
LINE
8
BLACK
6
CONTINUOUS
10
0.433876
20
0.895792
11
0.433071
21
0.905512
0
LINE
8
BLACK
6
CONTINUOUS
10
0.433071
20
0.905512
11
0.433876
21
0.915232
0
LINE
8
BLACK
6
CONTINUOUS
10
0.433876
20
0.915232
11
0.436271
21
0.924687
0
LINE
8
BLACK
6
CONTINUOUS
10
0.436271
20
0.924687
11
0.440189
21
0.933619
0
LINE
8
BLACK
6
CONTINUOUS
10
0.440189
20
0.933619
11
0.445523
21
0.941784
0
LINE
8
BLACK
6
CONTINUOUS
10
0.445523
20
0.941784
11
0.452129
21
0.94896
0
LINE
8
BLACK
6
CONTINUOUS
10
0.452129
20
0.94896
11
0.459826
21
0.954951
0
LINE
8
BLACK
6
CONTINUOUS
10
0.459826
20
0.954951
11
0.468404
21
0.959593
0
LINE
8
BLACK
6
CONTINUOUS
10
0.468404
20
0.959593
11
0.477629
21
0.96276
0
LINE
8
BLACK
6
CONTINUOUS
10
0.477629
20
0.96276
11
0.487249
21
0.964365
0
LINE
8
BLACK
6
CONTINUOUS
10
0.487249
20
0.964365
11
0.497003
21
0.964365
0
LINE
8
BLACK
6
CONTINUOUS
10
0.497003
20
0.964365
11
0.506623
21
0.96276
0
LINE
8
BLACK
6
CONTINUOUS
10
0.900324
20
0.96276
11
0.909549
21
0.959593
0
LINE
8
BLACK
6
CONTINUOUS
10
0.909549
20
0.959593
11
0.918127
21
0.954951
0
LINE
8
BLACK
6
CONTINUOUS
10
0.918127
20
0.954951
11
0.925824
21
0.94896
0
LINE
8
BLACK
6
CONTINUOUS
10
0.925824
20
0.94896
11
0.93243
21
0.941784
0
LINE
8
BLACK
6
CONTINUOUS
10
0.93243
20
0.941784
11
0.937764
21
0.933619
0
LINE
8
BLACK
6
CONTINUOUS
10
0.937764
20
0.933619
11
0.941682
21
0.924687
0
LINE
8
BLACK
6
CONTINUOUS
10
0.941682
20
0.924687
11
0.944076
21
0.915232
0
LINE
8
BLACK
6
CONTINUOUS
10
0.944076
20
0.915232
11
0.944882
21
0.905512
0
LINE
8
BLACK
6
CONTINUOUS
10
0.944882
20
0.905512
11
0.944076
21
0.895792
0
LINE
8
BLACK
6
CONTINUOUS
10
0.944076
20
0.895792
11
0.941682
21
0.886337
0
LINE
8
BLACK
6
CONTINUOUS
10
0.941682
20
0.886337
11
0.937764
21
0.877405
0
LINE
8
BLACK
6
CONTINUOUS
10
0.937764
20
0.877405
11
0.93243
21
0.869239
0
LINE
8
BLACK
6
CONTINUOUS
10
0.93243
20
0.869239
11
0.925824
21
0.862064
0
LINE
8
BLACK
6
CONTINUOUS
10
0.925824
20
0.862064
11
0.918127
21
0.856073
0
LINE
8
BLACK
6
CONTINUOUS
10
0.918127
20
0.856073
11
0.909549
21
0.851431
0
LINE
8
BLACK
6
CONTINUOUS
10
0.909549
20
0.851431
11
0.900324
21
0.848264
0
LINE
8
BLACK
6
CONTINUOUS
10
0.900324
20
0.848264
11
0.890704
21
0.846658
0
LINE
8
BLACK
6
CONTINUOUS
10
0.890704
20
0.846658
11
0.88095
21
0.846658
0
LINE
8
BLACK
6
CONTINUOUS
10
0.88095
20
0.846658
11
0.87133
21
0.848264
0
LINE
8
BLACK
6
CONTINUOUS
10
0.87133
20
0.848264
11
0.862105
21
0.851431
0
LINE
8
BLACK
6
CONTINUOUS
10
0.862105
20
0.851431
11
0.853527
21
0.856073
0
LINE
8
BLACK
6
CONTINUOUS
10
0.853527
20
0.856073
11
0.84583
21
0.862064
0
LINE
8
BLACK
6
CONTINUOUS
10
0.84583
20
0.862064
11
0.839224
21
0.869239
0
LINE
8
BLACK
6
CONTINUOUS
10
0.839224
20
0.869239
11
0.833889
21
0.877405
0
LINE
8
BLACK
6
CONTINUOUS
10
0.833889
20
0.877405
11
0.829971
21
0.886337
0
LINE
8
BLACK
6
CONTINUOUS
10
0.829971
20
0.886337
11
0.827577
21
0.895792
0
LINE
8
BLACK
6
CONTINUOUS
10
0.827577
20
0.895792
11
0.826772
21
0.905512
0
LINE
8
BLACK
6
CONTINUOUS
10
0.826772
20
0.905512
11
0.827577
21
0.915232
0
LINE
8
BLACK
6
CONTINUOUS
10
0.827577
20
0.915232
11
0.829971
21
0.924687
0
LINE
8
BLACK
6
CONTINUOUS
10
0.829971
20
0.924687
11
0.833889
21
0.933619
0
LINE
8
BLACK
6
CONTINUOUS
10
0.833889
20
0.933619
11
0.839224
21
0.941784
0
LINE
8
BLACK
6
CONTINUOUS
10
0.839224
20
0.941784
11
0.84583
21
0.94896
0
LINE
8
BLACK
6
CONTINUOUS
10
0.84583
20
0.94896
11
0.853527
21
0.954951
0
LINE
8
BLACK
6
CONTINUOUS
10
0.853527
20
0.954951
11
0.862105
21
0.959593
0
LINE
8
BLACK
6
CONTINUOUS
10
0.862105
20
0.959593
11
0.87133
21
0.96276
0
LINE
8
BLACK
6
CONTINUOUS
10
0.87133
20
0.96276
11
0.88095
21
0.964365
0
LINE
8
BLACK
6
CONTINUOUS
10
0.88095
20
0.964365
11
0.890704
21
0.964365
0
LINE
8
BLACK
6
CONTINUOUS
10
0.890704
20
0.964365
11
0.900324
21
0.96276
  0
ENDSEC
  0
EOF
