  0
SECTION
  2
HEADER
  9
$ANGBASE
  50
0.0
  9
$ANGDIR
  70
1
  9
$MEASUREMENT
  70
0
  0
ENDSEC
  0
SECTION
  2
TABLES
  0
TABLE
  2
LTYPE
  70
4
  0
LTYPE
  5
40F
  2
CONTINUOUS
  70
0
  3
Solid line
  72
65
  73
0
  40
0.0
  0
LTYPE
  5
410
  2
DASHDOT
 70
0
  3
Dash Dot ____ _ ____ _
 72
65
 73
4
 40
2.0
 49
1.25
 49
-0.25
 49
0.25
 49
-0.25
  0
LTYPE
  5
411
  2
DASHED
 70
0
  3
Dashed __ __ __ __ __
 72
65
 73
2
 40
0.75
 49
0.5
 49
-0.25
  0
LTYPE
  5
43B
  2
DOTTED
 70
0
  3
Dotted .  .  .  .
 72
65
 73
2
 40
0.2
 49
0.0
 49
-0.2
  0
ENDTAB
  0
TABLE
  2
STYLE
  70
4
  0
STYLE
  2
KICAD
  70
0
  40
0
  41
1
  42
1
  50
0
  71
0
  3
isocp.shx
  0
STYLE
  2
KICADB
  70
0
  40
0
  41
1
  42
1
  50
0
  71
0
  3
isocp.shx
  0
STYLE
  2
KICADI
  70
0
  40
0
  41
1
  42
1
  50
15
  71
0
  3
isocp.shx
  0
STYLE
  2
KICADBI
  70
0
  40
0
  41
1
  42
1
  50
15
  71
0
  3
isocp.shx
  0
ENDTAB
  0
TABLE
  2
LAYER
  70
1
  0
LAYER
  2
BLACK
  70
0
  62
7
  6
CONTINUOUS
  0
ENDTAB
  0
ENDSEC
  0
SECTION
  2
ENTITIES
0
LINE
8
BLACK
6
CONTINUOUS
10
0.954554
20
0.128188
11
0.957747
21
0.126054
0
LINE
8
BLACK
6
CONTINUOUS
10
0.957747
20
0.126054
11
0.959881
21
0.122861
0
LINE
8
BLACK
6
CONTINUOUS
10
0.959881
20
0.122861
11
0.96063
21
0.119094
0
LINE
8
BLACK
6
CONTINUOUS
10
0.96063
20
0.119094
11
0.96063
21
0.0994094
0
LINE
8
BLACK
6
CONTINUOUS
10
0.96063
20
0.0994094
11
0.959881
21
0.0956429
0
LINE
8
BLACK
6
CONTINUOUS
10
0.959881
20
0.0956429
11
0.957747
21
0.0924497
0
LINE
8
BLACK
6
CONTINUOUS
10
0.957747
20
0.0924497
11
0.954554
21
0.0903161
0
LINE
8
BLACK
6
CONTINUOUS
10
0.954554
20
0.0903161
11
0.950787
21
0.0895669
0
LINE
8
BLACK
6
CONTINUOUS
10
0.950787
20
0.0895669
11
0.864173
21
0.0895669
0
LINE
8
BLACK
6
CONTINUOUS
10
0.864173
20
0.0895669
11
0.860407
21
0.0903161
0
LINE
8
BLACK
6
CONTINUOUS
10
0.860407
20
0.0903161
11
0.857214
21
0.0924497
0
LINE
8
BLACK
6
CONTINUOUS
10
0.857214
20
0.0924497
11
0.85508
21
0.0956429
0
LINE
8
BLACK
6
CONTINUOUS
10
0.85508
20
0.0956429
11
0.854331
21
0.0994094
0
LINE
8
BLACK
6
CONTINUOUS
10
0.854331
20
0.0994094
11
0.854331
21
0.119094
0
LINE
8
BLACK
6
CONTINUOUS
10
0.854331
20
0.119094
11
0.85508
21
0.122861
0
LINE
8
BLACK
6
CONTINUOUS
10
0.85508
20
0.122861
11
0.857214
21
0.126054
0
LINE
8
BLACK
6
CONTINUOUS
10
0.857214
20
0.126054
11
0.860407
21
0.128188
0
LINE
8
BLACK
6
CONTINUOUS
10
0.860407
20
0.128188
11
0.864173
21
0.128937
0
LINE
8
BLACK
6
CONTINUOUS
10
0.864173
20
0.128937
11
0.950787
21
0.128937
0
LINE
8
BLACK
6
CONTINUOUS
10
0.950787
20
0.128937
11
0.954554
21
0.128188
0
LINE
8
BLACK
6
CONTINUOUS
10
0.811315
20
0.193448
11
0.813231
21
0.192168
0
LINE
8
BLACK
6
CONTINUOUS
10
0.813231
20
0.192168
11
0.814511
21
0.190252
0
LINE
8
BLACK
6
CONTINUOUS
10
0.814511
20
0.190252
11
0.814961
21
0.187992
0
LINE
8
BLACK
6
CONTINUOUS
10
0.814961
20
0.187992
11
0.814961
21
0.176181
0
LINE
8
BLACK
6
CONTINUOUS
10
0.814961
20
0.176181
11
0.814511
21
0.173921
0
LINE
8
BLACK
6
CONTINUOUS
10
0.814511
20
0.173921
11
0.813231
21
0.172005
0
LINE
8
BLACK
6
CONTINUOUS
10
0.813231
20
0.172005
11
0.811315
21
0.170725
0
LINE
8
BLACK
6
CONTINUOUS
10
0.811315
20
0.170725
11
0.809055
21
0.170276
0
LINE
8
BLACK
6
CONTINUOUS
10
0.809055
20
0.170276
11
0.753937
21
0.170276
0
LINE
8
BLACK
6
CONTINUOUS
10
0.753937
20
0.170276
11
0.751677
21
0.170725
0
LINE
8
BLACK
6
CONTINUOUS
10
0.751677
20
0.170725
11
0.749761
21
0.172005
0
LINE
8
BLACK
6
CONTINUOUS
10
0.749761
20
0.172005
11
0.748481
21
0.173921
0
LINE
8
BLACK
6
CONTINUOUS
10
0.748481
20
0.173921
11
0.748031
21
0.176181
0
LINE
8
BLACK
6
CONTINUOUS
10
0.748031
20
0.176181
11
0.748031
21
0.187992
0
LINE
8
BLACK
6
CONTINUOUS
10
0.748031
20
0.187992
11
0.748481
21
0.190252
0
LINE
8
BLACK
6
CONTINUOUS
10
0.748481
20
0.190252
11
0.749761
21
0.192168
0
LINE
8
BLACK
6
CONTINUOUS
10
0.749761
20
0.192168
11
0.751677
21
0.193448
0
LINE
8
BLACK
6
CONTINUOUS
10
0.751677
20
0.193448
11
0.753937
21
0.193898
0
LINE
8
BLACK
6
CONTINUOUS
10
0.753937
20
0.193898
11
0.809055
21
0.193898
0
LINE
8
BLACK
6
CONTINUOUS
10
0.809055
20
0.193898
11
0.811315
21
0.193448
0
LINE
8
BLACK
6
CONTINUOUS
10
0.811315
20
0.242661
11
0.813231
21
0.241381
0
LINE
8
BLACK
6
CONTINUOUS
10
0.813231
20
0.241381
11
0.814511
21
0.239465
0
LINE
8
BLACK
6
CONTINUOUS
10
0.814511
20
0.239465
11
0.814961
21
0.237205
0
LINE
8
BLACK
6
CONTINUOUS
10
0.814961
20
0.237205
11
0.814961
21
0.225394
0
LINE
8
BLACK
6
CONTINUOUS
10
0.814961
20
0.225394
11
0.814511
21
0.223134
0
LINE
8
BLACK
6
CONTINUOUS
10
0.814511
20
0.223134
11
0.813231
21
0.221218
0
LINE
8
BLACK
6
CONTINUOUS
10
0.813231
20
0.221218
11
0.811315
21
0.219938
0
LINE
8
BLACK
6
CONTINUOUS
10
0.811315
20
0.219938
11
0.809055
21
0.219488
0
LINE
8
BLACK
6
CONTINUOUS
10
0.809055
20
0.219488
11
0.753937
21
0.219488
0
LINE
8
BLACK
6
CONTINUOUS
10
0.753937
20
0.219488
11
0.751677
21
0.219938
0
LINE
8
BLACK
6
CONTINUOUS
10
0.751677
20
0.219938
11
0.749761
21
0.221218
0
LINE
8
BLACK
6
CONTINUOUS
10
0.749761
20
0.221218
11
0.748481
21
0.223134
0
LINE
8
BLACK
6
CONTINUOUS
10
0.748481
20
0.223134
11
0.748031
21
0.225394
0
LINE
8
BLACK
6
CONTINUOUS
10
0.748031
20
0.225394
11
0.748031
21
0.237205
0
LINE
8
BLACK
6
CONTINUOUS
10
0.748031
20
0.237205
11
0.748481
21
0.239465
0
LINE
8
BLACK
6
CONTINUOUS
10
0.748481
20
0.239465
11
0.749761
21
0.241381
0
LINE
8
BLACK
6
CONTINUOUS
10
0.749761
20
0.241381
11
0.751677
21
0.242661
0
LINE
8
BLACK
6
CONTINUOUS
10
0.751677
20
0.242661
11
0.753937
21
0.24311
0
LINE
8
BLACK
6
CONTINUOUS
10
0.753937
20
0.24311
11
0.809055
21
0.24311
0
LINE
8
BLACK
6
CONTINUOUS
10
0.809055
20
0.24311
11
0.811315
21
0.242661
0
LINE
8
BLACK
6
CONTINUOUS
10
0.811315
20
0.291873
11
0.813231
21
0.290593
0
LINE
8
BLACK
6
CONTINUOUS
10
0.813231
20
0.290593
11
0.814511
21
0.288677
0
LINE
8
BLACK
6
CONTINUOUS
10
0.814511
20
0.288677
11
0.814961
21
0.286417
0
LINE
8
BLACK
6
CONTINUOUS
10
0.814961
20
0.286417
11
0.814961
21
0.274606
0
LINE
8
BLACK
6
CONTINUOUS
10
0.814961
20
0.274606
11
0.814511
21
0.272346
0
LINE
8
BLACK
6
CONTINUOUS
10
0.814511
20
0.272346
11
0.813231
21
0.27043
0
LINE
8
BLACK
6
CONTINUOUS
10
0.813231
20
0.27043
11
0.811315
21
0.26915
0
LINE
8
BLACK
6
CONTINUOUS
10
0.811315
20
0.26915
11
0.809055
21
0.268701
0
LINE
8
BLACK
6
CONTINUOUS
10
0.809055
20
0.268701
11
0.753937
21
0.268701
0
LINE
8
BLACK
6
CONTINUOUS
10
0.753937
20
0.268701
11
0.751677
21
0.26915
0
LINE
8
BLACK
6
CONTINUOUS
10
0.751677
20
0.26915
11
0.749761
21
0.27043
0
LINE
8
BLACK
6
CONTINUOUS
10
0.749761
20
0.27043
11
0.748481
21
0.272346
0
LINE
8
BLACK
6
CONTINUOUS
10
0.748481
20
0.272346
11
0.748031
21
0.274606
0
LINE
8
BLACK
6
CONTINUOUS
10
0.748031
20
0.274606
11
0.748031
21
0.286417
0
LINE
8
BLACK
6
CONTINUOUS
10
0.748031
20
0.286417
11
0.748481
21
0.288677
0
LINE
8
BLACK
6
CONTINUOUS
10
0.748481
20
0.288677
11
0.749761
21
0.290593
0
LINE
8
BLACK
6
CONTINUOUS
10
0.749761
20
0.290593
11
0.751677
21
0.291873
0
LINE
8
BLACK
6
CONTINUOUS
10
0.751677
20
0.291873
11
0.753937
21
0.292323
0
LINE
8
BLACK
6
CONTINUOUS
10
0.753937
20
0.292323
11
0.809055
21
0.292323
0
LINE
8
BLACK
6
CONTINUOUS
10
0.809055
20
0.292323
11
0.811315
21
0.291873
0
LINE
8
BLACK
6
CONTINUOUS
10
0.811315
20
0.341086
11
0.813231
21
0.339806
0
LINE
8
BLACK
6
CONTINUOUS
10
0.813231
20
0.339806
11
0.814511
21
0.33789
0
LINE
8
BLACK
6
CONTINUOUS
10
0.814511
20
0.33789
11
0.814961
21
0.33563
0
LINE
8
BLACK
6
CONTINUOUS
10
0.814961
20
0.33563
11
0.814961
21
0.323819
0
LINE
8
BLACK
6
CONTINUOUS
10
0.814961
20
0.323819
11
0.814511
21
0.321559
0
LINE
8
BLACK
6
CONTINUOUS
10
0.814511
20
0.321559
11
0.813231
21
0.319643
0
LINE
8
BLACK
6
CONTINUOUS
10
0.813231
20
0.319643
11
0.811315
21
0.318363
0
LINE
8
BLACK
6
CONTINUOUS
10
0.811315
20
0.318363
11
0.809055
21
0.317913
0
LINE
8
BLACK
6
CONTINUOUS
10
0.809055
20
0.317913
11
0.753937
21
0.317913
0
LINE
8
BLACK
6
CONTINUOUS
10
0.753937
20
0.317913
11
0.751677
21
0.318363
0
LINE
8
BLACK
6
CONTINUOUS
10
0.751677
20
0.318363
11
0.749761
21
0.319643
0
LINE
8
BLACK
6
CONTINUOUS
10
0.749761
20
0.319643
11
0.748481
21
0.321559
0
LINE
8
BLACK
6
CONTINUOUS
10
0.748481
20
0.321559
11
0.748031
21
0.323819
0
LINE
8
BLACK
6
CONTINUOUS
10
0.748031
20
0.323819
11
0.748031
21
0.33563
0
LINE
8
BLACK
6
CONTINUOUS
10
0.748031
20
0.33563
11
0.748481
21
0.33789
0
LINE
8
BLACK
6
CONTINUOUS
10
0.748481
20
0.33789
11
0.749761
21
0.339806
0
LINE
8
BLACK
6
CONTINUOUS
10
0.749761
20
0.339806
11
0.751677
21
0.341086
0
LINE
8
BLACK
6
CONTINUOUS
10
0.751677
20
0.341086
11
0.753937
21
0.341535
0
LINE
8
BLACK
6
CONTINUOUS
10
0.753937
20
0.341535
11
0.809055
21
0.341535
0
LINE
8
BLACK
6
CONTINUOUS
10
0.809055
20
0.341535
11
0.811315
21
0.341086
0
LINE
8
BLACK
6
CONTINUOUS
10
0.954554
20
0.421495
11
0.957747
21
0.419361
0
LINE
8
BLACK
6
CONTINUOUS
10
0.957747
20
0.419361
11
0.959881
21
0.416168
0
LINE
8
BLACK
6
CONTINUOUS
10
0.959881
20
0.416168
11
0.96063
21
0.412402
0
LINE
8
BLACK
6
CONTINUOUS
10
0.96063
20
0.412402
11
0.96063
21
0.392717
0
LINE
8
BLACK
6
CONTINUOUS
10
0.96063
20
0.392717
11
0.959881
21
0.38895
0
LINE
8
BLACK
6
CONTINUOUS
10
0.959881
20
0.38895
11
0.957747
21
0.385757
0
LINE
8
BLACK
6
CONTINUOUS
10
0.957747
20
0.385757
11
0.954554
21
0.383623
0
LINE
8
BLACK
6
CONTINUOUS
10
0.954554
20
0.383623
11
0.950787
21
0.382874
0
LINE
8
BLACK
6
CONTINUOUS
10
0.950787
20
0.382874
11
0.864173
21
0.382874
0
LINE
8
BLACK
6
CONTINUOUS
10
0.864173
20
0.382874
11
0.860407
21
0.383623
0
LINE
8
BLACK
6
CONTINUOUS
10
0.860407
20
0.383623
11
0.857214
21
0.385757
0
LINE
8
BLACK
6
CONTINUOUS
10
0.857214
20
0.385757
11
0.85508
21
0.38895
0
LINE
8
BLACK
6
CONTINUOUS
10
0.85508
20
0.38895
11
0.854331
21
0.392717
0
LINE
8
BLACK
6
CONTINUOUS
10
0.854331
20
0.392717
11
0.854331
21
0.412402
0
LINE
8
BLACK
6
CONTINUOUS
10
0.854331
20
0.412402
11
0.85508
21
0.416168
0
LINE
8
BLACK
6
CONTINUOUS
10
0.85508
20
0.416168
11
0.857214
21
0.419361
0
LINE
8
BLACK
6
CONTINUOUS
10
0.857214
20
0.419361
11
0.860407
21
0.421495
0
LINE
8
BLACK
6
CONTINUOUS
10
0.860407
20
0.421495
11
0.864173
21
0.422244
0
LINE
8
BLACK
6
CONTINUOUS
10
0.864173
20
0.422244
11
0.950787
21
0.422244
0
LINE
8
BLACK
6
CONTINUOUS
10
0.950787
20
0.422244
11
0.954554
21
0.421495
0
LINE
8
BLACK
6
CONTINUOUS
10
0.954554
20
0.521889
11
0.957747
21
0.519755
0
LINE
8
BLACK
6
CONTINUOUS
10
0.957747
20
0.519755
11
0.959881
21
0.516562
0
LINE
8
BLACK
6
CONTINUOUS
10
0.959881
20
0.516562
11
0.96063
21
0.512795
0
LINE
8
BLACK
6
CONTINUOUS
10
0.96063
20
0.512795
11
0.96063
21
0.49311
0
LINE
8
BLACK
6
CONTINUOUS
10
0.96063
20
0.49311
11
0.959881
21
0.489344
0
LINE
8
BLACK
6
CONTINUOUS
10
0.959881
20
0.489344
11
0.957747
21
0.486151
0
LINE
8
BLACK
6
CONTINUOUS
10
0.957747
20
0.486151
11
0.954554
21
0.484017
0
LINE
8
BLACK
6
CONTINUOUS
10
0.954554
20
0.484017
11
0.950787
21
0.483268
0
LINE
8
BLACK
6
CONTINUOUS
10
0.950787
20
0.483268
11
0.864173
21
0.483268
0
LINE
8
BLACK
6
CONTINUOUS
10
0.864173
20
0.483268
11
0.860407
21
0.484017
0
LINE
8
BLACK
6
CONTINUOUS
10
0.860407
20
0.484017
11
0.857214
21
0.486151
0
LINE
8
BLACK
6
CONTINUOUS
10
0.857214
20
0.486151
11
0.85508
21
0.489344
0
LINE
8
BLACK
6
CONTINUOUS
10
0.85508
20
0.489344
11
0.854331
21
0.49311
0
LINE
8
BLACK
6
CONTINUOUS
10
0.854331
20
0.49311
11
0.854331
21
0.512795
0
LINE
8
BLACK
6
CONTINUOUS
10
0.854331
20
0.512795
11
0.85508
21
0.516562
0
LINE
8
BLACK
6
CONTINUOUS
10
0.85508
20
0.516562
11
0.857214
21
0.519755
0
LINE
8
BLACK
6
CONTINUOUS
10
0.857214
20
0.519755
11
0.860407
21
0.521889
0
LINE
8
BLACK
6
CONTINUOUS
10
0.860407
20
0.521889
11
0.864173
21
0.522638
0
LINE
8
BLACK
6
CONTINUOUS
10
0.864173
20
0.522638
11
0.950787
21
0.522638
0
LINE
8
BLACK
6
CONTINUOUS
10
0.950787
20
0.522638
11
0.954554
21
0.521889
0
LINE
8
BLACK
6
CONTINUOUS
10
0.811315
20
0.587149
11
0.813231
21
0.585869
0
LINE
8
BLACK
6
CONTINUOUS
10
0.813231
20
0.585869
11
0.814511
21
0.583953
0
LINE
8
BLACK
6
CONTINUOUS
10
0.814511
20
0.583953
11
0.814961
21
0.581693
0
LINE
8
BLACK
6
CONTINUOUS
10
0.814961
20
0.581693
11
0.814961
21
0.569882
0
LINE
8
BLACK
6
CONTINUOUS
10
0.814961
20
0.569882
11
0.814511
21
0.567622
0
LINE
8
BLACK
6
CONTINUOUS
10
0.814511
20
0.567622
11
0.813231
21
0.565706
0
LINE
8
BLACK
6
CONTINUOUS
10
0.813231
20
0.565706
11
0.811315
21
0.564426
0
LINE
8
BLACK
6
CONTINUOUS
10
0.811315
20
0.564426
11
0.809055
21
0.563976
0
LINE
8
BLACK
6
CONTINUOUS
10
0.809055
20
0.563976
11
0.753937
21
0.563976
0
LINE
8
BLACK
6
CONTINUOUS
10
0.753937
20
0.563976
11
0.751677
21
0.564426
0
LINE
8
BLACK
6
CONTINUOUS
10
0.751677
20
0.564426
11
0.749761
21
0.565706
0
LINE
8
BLACK
6
CONTINUOUS
10
0.749761
20
0.565706
11
0.748481
21
0.567622
0
LINE
8
BLACK
6
CONTINUOUS
10
0.748481
20
0.567622
11
0.748031
21
0.569882
0
LINE
8
BLACK
6
CONTINUOUS
10
0.748031
20
0.569882
11
0.748031
21
0.581693
0
LINE
8
BLACK
6
CONTINUOUS
10
0.748031
20
0.581693
11
0.748481
21
0.583953
0
LINE
8
BLACK
6
CONTINUOUS
10
0.748481
20
0.583953
11
0.749761
21
0.585869
0
LINE
8
BLACK
6
CONTINUOUS
10
0.749761
20
0.585869
11
0.751677
21
0.587149
0
LINE
8
BLACK
6
CONTINUOUS
10
0.751677
20
0.587149
11
0.753937
21
0.587598
0
LINE
8
BLACK
6
CONTINUOUS
10
0.753937
20
0.587598
11
0.809055
21
0.587598
0
LINE
8
BLACK
6
CONTINUOUS
10
0.809055
20
0.587598
11
0.811315
21
0.587149
0
LINE
8
BLACK
6
CONTINUOUS
10
0.811315
20
0.636361
11
0.813231
21
0.635081
0
LINE
8
BLACK
6
CONTINUOUS
10
0.813231
20
0.635081
11
0.814511
21
0.633165
0
LINE
8
BLACK
6
CONTINUOUS
10
0.814511
20
0.633165
11
0.814961
21
0.630906
0
LINE
8
BLACK
6
CONTINUOUS
10
0.814961
20
0.630906
11
0.814961
21
0.619094
0
LINE
8
BLACK
6
CONTINUOUS
10
0.814961
20
0.619094
11
0.814511
21
0.616835
0
LINE
8
BLACK
6
CONTINUOUS
10
0.814511
20
0.616835
11
0.813231
21
0.614919
0
LINE
8
BLACK
6
CONTINUOUS
10
0.813231
20
0.614919
11
0.811315
21
0.613639
0
LINE
8
BLACK
6
CONTINUOUS
10
0.811315
20
0.613639
11
0.809055
21
0.613189
0
LINE
8
BLACK
6
CONTINUOUS
10
0.809055
20
0.613189
11
0.753937
21
0.613189
0
LINE
8
BLACK
6
CONTINUOUS
10
0.753937
20
0.613189
11
0.751677
21
0.613639
0
LINE
8
BLACK
6
CONTINUOUS
10
0.751677
20
0.613639
11
0.749761
21
0.614919
0
LINE
8
BLACK
6
CONTINUOUS
10
0.749761
20
0.614919
11
0.748481
21
0.616835
0
LINE
8
BLACK
6
CONTINUOUS
10
0.748481
20
0.616835
11
0.748031
21
0.619094
0
LINE
8
BLACK
6
CONTINUOUS
10
0.748031
20
0.619094
11
0.748031
21
0.630906
0
LINE
8
BLACK
6
CONTINUOUS
10
0.748031
20
0.630906
11
0.748481
21
0.633165
0
LINE
8
BLACK
6
CONTINUOUS
10
0.748481
20
0.633165
11
0.749761
21
0.635081
0
LINE
8
BLACK
6
CONTINUOUS
10
0.749761
20
0.635081
11
0.751677
21
0.636361
0
LINE
8
BLACK
6
CONTINUOUS
10
0.751677
20
0.636361
11
0.753937
21
0.636811
0
LINE
8
BLACK
6
CONTINUOUS
10
0.753937
20
0.636811
11
0.809055
21
0.636811
0
LINE
8
BLACK
6
CONTINUOUS
10
0.809055
20
0.636811
11
0.811315
21
0.636361
0
LINE
8
BLACK
6
CONTINUOUS
10
0.811315
20
0.685574
11
0.813231
21
0.684294
0
LINE
8
BLACK
6
CONTINUOUS
10
0.813231
20
0.684294
11
0.814511
21
0.682378
0
LINE
8
BLACK
6
CONTINUOUS
10
0.814511
20
0.682378
11
0.814961
21
0.680118
0
LINE
8
BLACK
6
CONTINUOUS
10
0.814961
20
0.680118
11
0.814961
21
0.668307
0
LINE
8
BLACK
6
CONTINUOUS
10
0.814961
20
0.668307
11
0.814511
21
0.666047
0
LINE
8
BLACK
6
CONTINUOUS
10
0.814511
20
0.666047
11
0.813231
21
0.664131
0
LINE
8
BLACK
6
CONTINUOUS
10
0.813231
20
0.664131
11
0.811315
21
0.662851
0
LINE
8
BLACK
6
CONTINUOUS
10
0.811315
20
0.662851
11
0.809055
21
0.662402
0
LINE
8
BLACK
6
CONTINUOUS
10
0.809055
20
0.662402
11
0.753937
21
0.662402
0
LINE
8
BLACK
6
CONTINUOUS
10
0.753937
20
0.662402
11
0.751677
21
0.662851
0
LINE
8
BLACK
6
CONTINUOUS
10
0.751677
20
0.662851
11
0.749761
21
0.664131
0
LINE
8
BLACK
6
CONTINUOUS
10
0.749761
20
0.664131
11
0.748481
21
0.666047
0
LINE
8
BLACK
6
CONTINUOUS
10
0.748481
20
0.666047
11
0.748031
21
0.668307
0
LINE
8
BLACK
6
CONTINUOUS
10
0.748031
20
0.668307
11
0.748031
21
0.680118
0
LINE
8
BLACK
6
CONTINUOUS
10
0.748031
20
0.680118
11
0.748481
21
0.682378
0
LINE
8
BLACK
6
CONTINUOUS
10
0.748481
20
0.682378
11
0.749761
21
0.684294
0
LINE
8
BLACK
6
CONTINUOUS
10
0.749761
20
0.684294
11
0.751677
21
0.685574
0
LINE
8
BLACK
6
CONTINUOUS
10
0.751677
20
0.685574
11
0.753937
21
0.686024
0
LINE
8
BLACK
6
CONTINUOUS
10
0.753937
20
0.686024
11
0.809055
21
0.686024
0
LINE
8
BLACK
6
CONTINUOUS
10
0.809055
20
0.686024
11
0.811315
21
0.685574
0
LINE
8
BLACK
6
CONTINUOUS
10
0.811315
20
0.734787
11
0.813231
21
0.733507
0
LINE
8
BLACK
6
CONTINUOUS
10
0.813231
20
0.733507
11
0.814511
21
0.731591
0
LINE
8
BLACK
6
CONTINUOUS
10
0.814511
20
0.731591
11
0.814961
21
0.729331
0
LINE
8
BLACK
6
CONTINUOUS
10
0.814961
20
0.729331
11
0.814961
21
0.71752
0
LINE
8
BLACK
6
CONTINUOUS
10
0.814961
20
0.71752
11
0.814511
21
0.71526
0
LINE
8
BLACK
6
CONTINUOUS
10
0.814511
20
0.71526
11
0.813231
21
0.713344
0
LINE
8
BLACK
6
CONTINUOUS
10
0.813231
20
0.713344
11
0.811315
21
0.712064
0
LINE
8
BLACK
6
CONTINUOUS
10
0.811315
20
0.712064
11
0.809055
21
0.711614
0
LINE
8
BLACK
6
CONTINUOUS
10
0.809055
20
0.711614
11
0.753937
21
0.711614
0
LINE
8
BLACK
6
CONTINUOUS
10
0.753937
20
0.711614
11
0.751677
21
0.712064
0
LINE
8
BLACK
6
CONTINUOUS
10
0.751677
20
0.712064
11
0.749761
21
0.713344
0
LINE
8
BLACK
6
CONTINUOUS
10
0.749761
20
0.713344
11
0.748481
21
0.71526
0
LINE
8
BLACK
6
CONTINUOUS
10
0.748481
20
0.71526
11
0.748031
21
0.71752
0
LINE
8
BLACK
6
CONTINUOUS
10
0.748031
20
0.71752
11
0.748031
21
0.729331
0
LINE
8
BLACK
6
CONTINUOUS
10
0.748031
20
0.729331
11
0.748481
21
0.731591
0
LINE
8
BLACK
6
CONTINUOUS
10
0.748481
20
0.731591
11
0.749761
21
0.733507
0
LINE
8
BLACK
6
CONTINUOUS
10
0.749761
20
0.733507
11
0.751677
21
0.734787
0
LINE
8
BLACK
6
CONTINUOUS
10
0.751677
20
0.734787
11
0.753937
21
0.735236
0
LINE
8
BLACK
6
CONTINUOUS
10
0.753937
20
0.735236
11
0.809055
21
0.735236
0
LINE
8
BLACK
6
CONTINUOUS
10
0.809055
20
0.735236
11
0.811315
21
0.734787
0
LINE
8
BLACK
6
CONTINUOUS
10
0.954554
20
0.815196
11
0.957747
21
0.813062
0
LINE
8
BLACK
6
CONTINUOUS
10
0.957747
20
0.813062
11
0.959881
21
0.809869
0
LINE
8
BLACK
6
CONTINUOUS
10
0.959881
20
0.809869
11
0.96063
21
0.806102
0
LINE
8
BLACK
6
CONTINUOUS
10
0.96063
20
0.806102
11
0.96063
21
0.786417
0
LINE
8
BLACK
6
CONTINUOUS
10
0.96063
20
0.786417
11
0.959881
21
0.782651
0
LINE
8
BLACK
6
CONTINUOUS
10
0.959881
20
0.782651
11
0.957747
21
0.779458
0
LINE
8
BLACK
6
CONTINUOUS
10
0.957747
20
0.779458
11
0.954554
21
0.777324
0
LINE
8
BLACK
6
CONTINUOUS
10
0.954554
20
0.777324
11
0.950787
21
0.776575
0
LINE
8
BLACK
6
CONTINUOUS
10
0.950787
20
0.776575
11
0.864173
21
0.776575
0
LINE
8
BLACK
6
CONTINUOUS
10
0.864173
20
0.776575
11
0.860407
21
0.777324
0
LINE
8
BLACK
6
CONTINUOUS
10
0.860407
20
0.777324
11
0.857214
21
0.779458
0
LINE
8
BLACK
6
CONTINUOUS
10
0.857214
20
0.779458
11
0.85508
21
0.782651
0
LINE
8
BLACK
6
CONTINUOUS
10
0.85508
20
0.782651
11
0.854331
21
0.786417
0
LINE
8
BLACK
6
CONTINUOUS
10
0.854331
20
0.786417
11
0.854331
21
0.806102
0
LINE
8
BLACK
6
CONTINUOUS
10
0.854331
20
0.806102
11
0.85508
21
0.809869
0
LINE
8
BLACK
6
CONTINUOUS
10
0.85508
20
0.809869
11
0.857214
21
0.813062
0
LINE
8
BLACK
6
CONTINUOUS
10
0.857214
20
0.813062
11
0.860407
21
0.815196
0
LINE
8
BLACK
6
CONTINUOUS
10
0.860407
20
0.815196
11
0.864173
21
0.815945
0
LINE
8
BLACK
6
CONTINUOUS
10
0.864173
20
0.815945
11
0.950787
21
0.815945
0
LINE
8
BLACK
6
CONTINUOUS
10
0.950787
20
0.815945
11
0.954554
21
0.815196
  0
ENDSEC
  0
EOF
