  0
SECTION
  2
HEADER
  9
$ANGBASE
  50
0.0
  9
$ANGDIR
  70
1
  9
$MEASUREMENT
  70
0
  0
ENDSEC
  0
SECTION
  2
TABLES
  0
TABLE
  2
LTYPE
  70
4
  0
LTYPE
  5
40F
  2
CONTINUOUS
  70
0
  3
Solid line
  72
65
  73
0
  40
0.0
  0
LTYPE
  5
410
  2
DASHDOT
 70
0
  3
Dash Dot ____ _ ____ _
 72
65
 73
4
 40
2.0
 49
1.25
 49
-0.25
 49
0.25
 49
-0.25
  0
LTYPE
  5
411
  2
DASHED
 70
0
  3
Dashed __ __ __ __ __
 72
65
 73
2
 40
0.75
 49
0.5
 49
-0.25
  0
LTYPE
  5
43B
  2
DOTTED
 70
0
  3
Dotted .  .  .  .
 72
65
 73
2
 40
0.2
 49
0.0
 49
-0.2
  0
ENDTAB
  0
TABLE
  2
STYLE
  70
4
  0
STYLE
  2
KICAD
  70
0
  40
0
  41
1
  42
1
  50
0
  71
0
  3
isocp.shx
  0
STYLE
  2
KICADB
  70
0
  40
0
  41
1
  42
1
  50
0
  71
0
  3
isocp.shx
  0
STYLE
  2
KICADI
  70
0
  40
0
  41
1
  42
1
  50
15
  71
0
  3
isocp.shx
  0
STYLE
  2
KICADBI
  70
0
  40
0
  41
1
  42
1
  50
15
  71
0
  3
isocp.shx
  0
ENDTAB
  0
TABLE
  2
LAYER
  70
1
  0
LAYER
  2
BLACK
  70
0
  62
7
  6
CONTINUOUS
  0
ENDTAB
  0
ENDSEC
  0
SECTION
  2
ENTITIES
0
LINE
8
BLACK
6
CONTINUOUS
10
0.1122113385826772
20
0.0574234251968504
11
0.1210246062992126
21
0.0545598031496063
0
LINE
8
BLACK
6
CONTINUOUS
10
0.1210246062992126
20
0.0545598031496063
11
0.1292814173228346
21
0.0503527559055118
0
LINE
8
BLACK
6
CONTINUOUS
10
0.1292814173228346
20
0.0503527559055118
11
0.1367784251968504
21
0.0449058661417323
0
LINE
8
BLACK
6
CONTINUOUS
10
0.1367784251968504
20
0.0449058661417323
11
0.143331062992126
21
0.0383532283464567
0
LINE
8
BLACK
6
CONTINUOUS
10
0.143331062992126
20
0.0383532283464567
11
0.1487779527559055
21
0.0308562204724409
0
LINE
8
BLACK
6
CONTINUOUS
10
0.1487779527559055
20
0.0308562204724409
11
0.152985
21
0.0225994094488189
0
LINE
8
BLACK
6
CONTINUOUS
10
0.152985
20
0.0225994094488189
11
0.1558486220472441
21
0.0137861417322835
0
LINE
8
BLACK
6
CONTINUOUS
10
0.1558486220472441
20
0.0137861417322835
11
0.1572982677165354
21
0.0046334251968504
0
LINE
8
BLACK
6
CONTINUOUS
10
0.1572982677165354
20
0.0046334251968504
11
0.1572982677165354
21
-0.0046334251968504
0
LINE
8
BLACK
6
CONTINUOUS
10
0.1572982677165354
20
-0.0046334251968504
11
0.1558486220472441
21
-0.0137861417322835
0
LINE
8
BLACK
6
CONTINUOUS
10
0.1558486220472441
20
-0.0137861417322835
11
0.152985
21
-0.0225994094488189
0
LINE
8
BLACK
6
CONTINUOUS
10
0.152985
20
-0.0225994094488189
11
0.1487779527559055
21
-0.0308562204724409
0
LINE
8
BLACK
6
CONTINUOUS
10
0.1487779527559055
20
-0.0308562204724409
11
0.143331062992126
21
-0.0383532283464567
0
LINE
8
BLACK
6
CONTINUOUS
10
0.143331062992126
20
-0.0383532283464567
11
0.1367784251968504
21
-0.0449058661417323
0
LINE
8
BLACK
6
CONTINUOUS
10
0.1367784251968504
20
-0.0449058661417323
11
0.1292814173228346
21
-0.0503527559055118
0
LINE
8
BLACK
6
CONTINUOUS
10
0.1292814173228346
20
-0.0503527559055118
11
0.1210246062992126
21
-0.0545598031496063
0
LINE
8
BLACK
6
CONTINUOUS
10
0.1210246062992126
20
-0.0545598031496063
11
0.1122113385826772
21
-0.0574234251968504
0
LINE
8
BLACK
6
CONTINUOUS
10
0.1122113385826772
20
-0.0574234251968504
11
0.1030586220472441
21
-0.0588730708661417
0
LINE
8
BLACK
6
CONTINUOUS
10
0.1030586220472441
20
-0.0588730708661417
11
0.0937917716535433
21
-0.0588730708661417
0
LINE
8
BLACK
6
CONTINUOUS
10
0.0937917716535433
20
-0.0588730708661417
11
0.0846390551181102
21
-0.0574234251968504
0
LINE
8
BLACK
6
CONTINUOUS
10
0.0846390551181102
20
-0.0574234251968504
11
0.0758257874015748
21
-0.0545598031496063
0
LINE
8
BLACK
6
CONTINUOUS
10
0.0758257874015748
20
-0.0545598031496063
11
0.0675689763779528
21
-0.0503527559055118
0
LINE
8
BLACK
6
CONTINUOUS
10
0.0675689763779528
20
-0.0503527559055118
11
0.060071968503937
21
-0.0449058661417323
0
LINE
8
BLACK
6
CONTINUOUS
10
0.060071968503937
20
-0.0449058661417323
11
0.0535193307086614
21
-0.0383532283464567
0
LINE
8
BLACK
6
CONTINUOUS
10
0.0535193307086614
20
-0.0383532283464567
11
0.0480724409448819
21
-0.0308562204724409
0
LINE
8
BLACK
6
CONTINUOUS
10
0.0480724409448819
20
-0.0308562204724409
11
0.0438653937007874
21
-0.0225994094488189
0
LINE
8
BLACK
6
CONTINUOUS
10
0.0438653937007874
20
-0.0225994094488189
11
0.0410017716535433
21
-0.0137861417322835
0
LINE
8
BLACK
6
CONTINUOUS
10
0.0410017716535433
20
-0.0137861417322835
11
0.039552125984252
21
-0.0046334251968504
0
LINE
8
BLACK
6
CONTINUOUS
10
0.039552125984252
20
-0.0046334251968504
11
0.039552125984252
21
0.0046334251968504
0
LINE
8
BLACK
6
CONTINUOUS
10
0.039552125984252
20
0.0046334251968504
11
0.0410017716535433
21
0.0137861417322835
0
LINE
8
BLACK
6
CONTINUOUS
10
0.0410017716535433
20
0.0137861417322835
11
0.0438653937007874
21
0.0225994094488189
0
LINE
8
BLACK
6
CONTINUOUS
10
0.0438653937007874
20
0.0225994094488189
11
0.0480724409448819
21
0.0308562204724409
0
LINE
8
BLACK
6
CONTINUOUS
10
0.0480724409448819
20
0.0308562204724409
11
0.0535193307086614
21
0.0383532283464567
0
LINE
8
BLACK
6
CONTINUOUS
10
0.0535193307086614
20
0.0383532283464567
11
0.060071968503937
21
0.0449058661417323
0
LINE
8
BLACK
6
CONTINUOUS
10
0.060071968503937
20
0.0449058661417323
11
0.0675689763779528
21
0.0503527559055118
0
LINE
8
BLACK
6
CONTINUOUS
10
0.0675689763779528
20
0.0503527559055118
11
0.0758257874015748
21
0.0545598031496063
0
LINE
8
BLACK
6
CONTINUOUS
10
0.0758257874015748
20
0.0545598031496063
11
0.0846390551181102
21
0.0574234251968504
0
LINE
8
BLACK
6
CONTINUOUS
10
0.0846390551181102
20
0.0574234251968504
11
0.0937917716535433
21
0.0588730708661417
0
LINE
8
BLACK
6
CONTINUOUS
10
0.0937917716535433
20
0.0588730708661417
11
0.1030586220472441
21
0.0588730708661417
0
LINE
8
BLACK
6
CONTINUOUS
10
0.1030586220472441
20
0.0588730708661417
11
0.1122113385826772
21
0.0574234251968504
0
LINE
8
BLACK
6
CONTINUOUS
10
0.5059121259842519
20
0.0574234251968504
11
0.5147253937007874
21
0.0545598031496063
0
LINE
8
BLACK
6
CONTINUOUS
10
0.5147253937007874
20
0.0545598031496063
11
0.5229822047244095
21
0.0503527559055118
0
LINE
8
BLACK
6
CONTINUOUS
10
0.5229822047244095
20
0.0503527559055118
11
0.5304792125984252
21
0.0449058661417323
0
LINE
8
BLACK
6
CONTINUOUS
10
0.5304792125984252
20
0.0449058661417323
11
0.5370318503937008
21
0.0383532283464567
0
LINE
8
BLACK
6
CONTINUOUS
10
0.5370318503937008
20
0.0383532283464567
11
0.5424787401574803
21
0.0308562204724409
0
LINE
8
BLACK
6
CONTINUOUS
10
0.5424787401574803
20
0.0308562204724409
11
0.5466857874015748
21
0.0225994094488189
0
LINE
8
BLACK
6
CONTINUOUS
10
0.5466857874015748
20
0.0225994094488189
11
0.5495494094488189
21
0.0137861417322835
0
LINE
8
BLACK
6
CONTINUOUS
10
0.5495494094488189
20
0.0137861417322835
11
0.5509990551181102
21
0.0046334251968504
0
LINE
8
BLACK
6
CONTINUOUS
10
0.5509990551181102
20
0.0046334251968504
11
0.5509990551181102
21
-0.0046334251968504
0
LINE
8
BLACK
6
CONTINUOUS
10
0.5509990551181102
20
-0.0046334251968504
11
0.5495494094488189
21
-0.0137861417322835
0
LINE
8
BLACK
6
CONTINUOUS
10
0.5495494094488189
20
-0.0137861417322835
11
0.5466857874015748
21
-0.0225994094488189
0
LINE
8
BLACK
6
CONTINUOUS
10
0.5466857874015748
20
-0.0225994094488189
11
0.5424787401574803
21
-0.0308562204724409
0
LINE
8
BLACK
6
CONTINUOUS
10
0.5424787401574803
20
-0.0308562204724409
11
0.5370318503937008
21
-0.0383532283464567
0
LINE
8
BLACK
6
CONTINUOUS
10
0.5370318503937008
20
-0.0383532283464567
11
0.5304792125984252
21
-0.0449058661417323
0
LINE
8
BLACK
6
CONTINUOUS
10
0.5304792125984252
20
-0.0449058661417323
11
0.5229822047244095
21
-0.0503527559055118
0
LINE
8
BLACK
6
CONTINUOUS
10
0.5229822047244095
20
-0.0503527559055118
11
0.5147253937007874
21
-0.0545598031496063
0
LINE
8
BLACK
6
CONTINUOUS
10
0.5147253937007874
20
-0.0545598031496063
11
0.5059121259842519
21
-0.0574234251968504
0
LINE
8
BLACK
6
CONTINUOUS
10
0.5059121259842519
20
-0.0574234251968504
11
0.4967594094488189
21
-0.0588730708661417
0
LINE
8
BLACK
6
CONTINUOUS
10
0.4967594094488189
20
-0.0588730708661417
11
0.4874925590551181
21
-0.0588730708661417
0
LINE
8
BLACK
6
CONTINUOUS
10
0.4874925590551181
20
-0.0588730708661417
11
0.478339842519685
21
-0.0574234251968504
0
LINE
8
BLACK
6
CONTINUOUS
10
0.478339842519685
20
-0.0574234251968504
11
0.4695265748031496
21
-0.0545598031496063
0
LINE
8
BLACK
6
CONTINUOUS
10
0.4695265748031496
20
-0.0545598031496063
11
0.4612697637795276
21
-0.0503527559055118
0
LINE
8
BLACK
6
CONTINUOUS
10
0.4612697637795276
20
-0.0503527559055118
11
0.4537727559055118
21
-0.0449058661417323
0
LINE
8
BLACK
6
CONTINUOUS
10
0.4537727559055118
20
-0.0449058661417323
11
0.4472201181102362
21
-0.0383532283464567
0
LINE
8
BLACK
6
CONTINUOUS
10
0.4472201181102362
20
-0.0383532283464567
11
0.4417732283464567
21
-0.0308562204724409
0
LINE
8
BLACK
6
CONTINUOUS
10
0.4417732283464567
20
-0.0308562204724409
11
0.4375661811023622
21
-0.0225994094488189
0
LINE
8
BLACK
6
CONTINUOUS
10
0.4375661811023622
20
-0.0225994094488189
11
0.4347025590551181
21
-0.0137861417322835
0
LINE
8
BLACK
6
CONTINUOUS
10
0.4347025590551181
20
-0.0137861417322835
11
0.4332529133858268
21
-0.0046334251968504
0
LINE
8
BLACK
6
CONTINUOUS
10
0.4332529133858268
20
-0.0046334251968504
11
0.4332529133858268
21
0.0046334251968504
0
LINE
8
BLACK
6
CONTINUOUS
10
0.4332529133858268
20
0.0046334251968504
11
0.4347025590551181
21
0.0137861417322835
0
LINE
8
BLACK
6
CONTINUOUS
10
0.4347025590551181
20
0.0137861417322835
11
0.4375661811023622
21
0.0225994094488189
0
LINE
8
BLACK
6
CONTINUOUS
10
0.4375661811023622
20
0.0225994094488189
11
0.4417732283464567
21
0.0308562204724409
0
LINE
8
BLACK
6
CONTINUOUS
10
0.4417732283464567
20
0.0308562204724409
11
0.4472201181102362
21
0.0383532283464567
0
LINE
8
BLACK
6
CONTINUOUS
10
0.4472201181102362
20
0.0383532283464567
11
0.4537727559055118
21
0.0449058661417323
0
LINE
8
BLACK
6
CONTINUOUS
10
0.4537727559055118
20
0.0449058661417323
11
0.4612697637795276
21
0.0503527559055118
0
LINE
8
BLACK
6
CONTINUOUS
10
0.4612697637795276
20
0.0503527559055118
11
0.4695265748031496
21
0.0545598031496063
0
LINE
8
BLACK
6
CONTINUOUS
10
0.4695265748031496
20
0.0545598031496063
11
0.478339842519685
21
0.0574234251968504
0
LINE
8
BLACK
6
CONTINUOUS
10
0.478339842519685
20
0.0574234251968504
11
0.4874925590551181
21
0.0588730708661417
0
LINE
8
BLACK
6
CONTINUOUS
10
0.4874925590551181
20
0.0588730708661417
11
0.4967594094488189
21
0.0588730708661417
0
LINE
8
BLACK
6
CONTINUOUS
10
0.4967594094488189
20
0.0588730708661417
11
0.5059121259842519
21
0.0574234251968504
0
LINE
8
BLACK
6
CONTINUOUS
10
0.8996129133858267
20
0.0574234251968504
11
0.9084261811023622
21
0.0545598031496063
0
LINE
8
BLACK
6
CONTINUOUS
10
0.9084261811023622
20
0.0545598031496063
11
0.9166829921259843
21
0.0503527559055118
0
LINE
8
BLACK
6
CONTINUOUS
10
0.9166829921259843
20
0.0503527559055118
11
0.92418
21
0.0449058661417323
0
LINE
8
BLACK
6
CONTINUOUS
10
0.92418
20
0.0449058661417323
11
0.9307326377952756
21
0.0383532283464567
0
LINE
8
BLACK
6
CONTINUOUS
10
0.9307326377952756
20
0.0383532283464567
11
0.9361795275590551
21
0.0308562204724409
0
LINE
8
BLACK
6
CONTINUOUS
10
0.9361795275590551
20
0.0308562204724409
11
0.9403865748031496
21
0.0225994094488189
0
LINE
8
BLACK
6
CONTINUOUS
10
0.9403865748031496
20
0.0225994094488189
11
0.9432501968503937
21
0.0137861417322835
0
LINE
8
BLACK
6
CONTINUOUS
10
0.9432501968503937
20
0.0137861417322835
11
0.944699842519685
21
0.0046334251968504
0
LINE
8
BLACK
6
CONTINUOUS
10
0.944699842519685
20
0.0046334251968504
11
0.944699842519685
21
-0.0046334251968504
0
LINE
8
BLACK
6
CONTINUOUS
10
0.944699842519685
20
-0.0046334251968504
11
0.9432501968503937
21
-0.0137861417322835
0
LINE
8
BLACK
6
CONTINUOUS
10
0.9432501968503937
20
-0.0137861417322835
11
0.9403865748031496
21
-0.0225994094488189
0
LINE
8
BLACK
6
CONTINUOUS
10
0.9403865748031496
20
-0.0225994094488189
11
0.9361795275590551
21
-0.0308562204724409
0
LINE
8
BLACK
6
CONTINUOUS
10
0.9361795275590551
20
-0.0308562204724409
11
0.9307326377952756
21
-0.0383532283464567
0
LINE
8
BLACK
6
CONTINUOUS
10
0.9307326377952756
20
-0.0383532283464567
11
0.92418
21
-0.0449058661417323
0
LINE
8
BLACK
6
CONTINUOUS
10
0.92418
20
-0.0449058661417323
11
0.9166829921259843
21
-0.0503527559055118
0
LINE
8
BLACK
6
CONTINUOUS
10
0.9166829921259843
20
-0.0503527559055118
11
0.9084261811023622
21
-0.0545598031496063
0
LINE
8
BLACK
6
CONTINUOUS
10
0.9084261811023622
20
-0.0545598031496063
11
0.8996129133858267
21
-0.0574234251968504
0
LINE
8
BLACK
6
CONTINUOUS
10
0.8996129133858267
20
-0.0574234251968504
11
0.8904601968503937
21
-0.0588730708661417
0
LINE
8
BLACK
6
CONTINUOUS
10
0.8904601968503937
20
-0.0588730708661417
11
0.8811933464566929
21
-0.0588730708661417
0
LINE
8
BLACK
6
CONTINUOUS
10
0.8811933464566929
20
-0.0588730708661417
11
0.8720406299212599
21
-0.0574234251968504
0
LINE
8
BLACK
6
CONTINUOUS
10
0.8720406299212599
20
-0.0574234251968504
11
0.8632273622047244
21
-0.0545598031496063
0
LINE
8
BLACK
6
CONTINUOUS
10
0.8632273622047244
20
-0.0545598031496063
11
0.8549705511811023
21
-0.0503527559055118
0
LINE
8
BLACK
6
CONTINUOUS
10
0.8549705511811023
20
-0.0503527559055118
11
0.8474735433070866
21
-0.0449058661417323
0
LINE
8
BLACK
6
CONTINUOUS
10
0.8474735433070866
20
-0.0449058661417323
11
0.840920905511811
21
-0.0383532283464567
0
LINE
8
BLACK
6
CONTINUOUS
10
0.840920905511811
20
-0.0383532283464567
11
0.8354740157480315
21
-0.0308562204724409
0
LINE
8
BLACK
6
CONTINUOUS
10
0.8354740157480315
20
-0.0308562204724409
11
0.831266968503937
21
-0.0225994094488189
0
LINE
8
BLACK
6
CONTINUOUS
10
0.831266968503937
20
-0.0225994094488189
11
0.8284033464566929
21
-0.0137861417322835
0
LINE
8
BLACK
6
CONTINUOUS
10
0.8284033464566929
20
-0.0137861417322835
11
0.8269537007874016
21
-0.0046334251968504
0
LINE
8
BLACK
6
CONTINUOUS
10
0.8269537007874016
20
-0.0046334251968504
11
0.8269537007874016
21
0.0046334251968504
0
LINE
8
BLACK
6
CONTINUOUS
10
0.8269537007874016
20
0.0046334251968504
11
0.8284033464566929
21
0.0137861417322835
0
LINE
8
BLACK
6
CONTINUOUS
10
0.8284033464566929
20
0.0137861417322835
11
0.831266968503937
21
0.0225994094488189
0
LINE
8
BLACK
6
CONTINUOUS
10
0.831266968503937
20
0.0225994094488189
11
0.8354740157480315
21
0.0308562204724409
0
LINE
8
BLACK
6
CONTINUOUS
10
0.8354740157480315
20
0.0308562204724409
11
0.840920905511811
21
0.0383532283464567
0
LINE
8
BLACK
6
CONTINUOUS
10
0.840920905511811
20
0.0383532283464567
11
0.8474735433070866
21
0.0449058661417323
0
LINE
8
BLACK
6
CONTINUOUS
10
0.8474735433070866
20
0.0449058661417323
11
0.8549705511811023
21
0.0503527559055118
0
LINE
8
BLACK
6
CONTINUOUS
10
0.8549705511811023
20
0.0503527559055118
11
0.8632273622047244
21
0.0545598031496063
0
LINE
8
BLACK
6
CONTINUOUS
10
0.8632273622047244
20
0.0545598031496063
11
0.8720406299212599
21
0.0574234251968504
0
LINE
8
BLACK
6
CONTINUOUS
10
0.8720406299212599
20
0.0574234251968504
11
0.8811933464566929
21
0.0588730708661417
0
LINE
8
BLACK
6
CONTINUOUS
10
0.8811933464566929
20
0.0588730708661417
11
0.8904601968503937
21
0.0588730708661417
0
LINE
8
BLACK
6
CONTINUOUS
10
0.8904601968503937
20
0.0588730708661417
11
0.8996129133858267
21
0.0574234251968504
0
LINE
8
BLACK
6
CONTINUOUS
10
0.9540811023622047
20
0.1365021653543307
11
0.9590657874015748
21
0.1347579527559055
0
LINE
8
BLACK
6
CONTINUOUS
10
0.9590657874015748
20
0.1347579527559055
11
0.9633148818897638
21
0.131621968503937
0
LINE
8
BLACK
6
CONTINUOUS
10
0.9633148818897638
20
0.131621968503937
11
0.9664508661417323
21
0.127372874015748
0
LINE
8
BLACK
6
CONTINUOUS
10
0.9664508661417323
20
0.127372874015748
11
0.9681950787401574
21
0.1223881889763779
0
LINE
8
BLACK
6
CONTINUOUS
10
0.9681950787401574
20
0.1223881889763779
11
0.968503937007874
21
0.1190944881889764
0
LINE
8
BLACK
6
CONTINUOUS
10
0.968503937007874
20
0.1190944881889764
11
0.968503937007874
21
0.0994094488188976
0
LINE
8
BLACK
6
CONTINUOUS
10
0.968503937007874
20
0.0994094488188976
11
0.9681950787401574
21
0.0961157480314961
0
LINE
8
BLACK
6
CONTINUOUS
10
0.9681950787401574
20
0.0961157480314961
11
0.9664508661417323
21
0.091131062992126
0
LINE
8
BLACK
6
CONTINUOUS
10
0.9664508661417323
20
0.091131062992126
11
0.9633148818897638
21
0.086881968503937
0
LINE
8
BLACK
6
CONTINUOUS
10
0.9633148818897638
20
0.086881968503937
11
0.9590657874015748
21
0.0837459842519685
0
LINE
8
BLACK
6
CONTINUOUS
10
0.9590657874015748
20
0.0837459842519685
11
0.9540811023622047
21
0.0820017716535433
0
LINE
8
BLACK
6
CONTINUOUS
10
0.9540811023622047
20
0.0820017716535433
11
0.9507874015748031
21
0.0816929133858268
0
LINE
8
BLACK
6
CONTINUOUS
10
0.9507874015748031
20
0.0816929133858268
11
0.8641732283464567
21
0.0816929133858268
0
LINE
8
BLACK
6
CONTINUOUS
10
0.8641732283464567
20
0.0816929133858268
11
0.8608795275590551
21
0.0820017716535433
0
LINE
8
BLACK
6
CONTINUOUS
10
0.8608795275590551
20
0.0820017716535433
11
0.8558948425196851
21
0.0837459842519685
0
LINE
8
BLACK
6
CONTINUOUS
10
0.8558948425196851
20
0.0837459842519685
11
0.8516457480314961
21
0.086881968503937
0
LINE
8
BLACK
6
CONTINUOUS
10
0.8516457480314961
20
0.086881968503937
11
0.8485097637795276
21
0.091131062992126
0
LINE
8
BLACK
6
CONTINUOUS
10
0.8485097637795276
20
0.091131062992126
11
0.8467655511811023
21
0.0961157480314961
0
LINE
8
BLACK
6
CONTINUOUS
10
0.8467655511811023
20
0.0961157480314961
11
0.8464566929133858
21
0.0994094488188976
0
LINE
8
BLACK
6
CONTINUOUS
10
0.8464566929133858
20
0.0994094488188976
11
0.8464566929133858
21
0.1190944881889764
0
LINE
8
BLACK
6
CONTINUOUS
10
0.8464566929133858
20
0.1190944881889764
11
0.8467655511811023
21
0.1223881889763779
0
LINE
8
BLACK
6
CONTINUOUS
10
0.8467655511811023
20
0.1223881889763779
11
0.8485097637795276
21
0.127372874015748
0
LINE
8
BLACK
6
CONTINUOUS
10
0.8485097637795276
20
0.127372874015748
11
0.8516457480314961
21
0.131621968503937
0
LINE
8
BLACK
6
CONTINUOUS
10
0.8516457480314961
20
0.131621968503937
11
0.8558948425196851
21
0.1347579527559055
0
LINE
8
BLACK
6
CONTINUOUS
10
0.8558948425196851
20
0.1347579527559055
11
0.8608795275590551
21
0.1365021653543307
0
LINE
8
BLACK
6
CONTINUOUS
10
0.8608795275590551
20
0.1365021653543307
11
0.8641732283464567
21
0.1368110236220473
0
LINE
8
BLACK
6
CONTINUOUS
10
0.8641732283464567
20
0.1368110236220473
11
0.9507874015748031
21
0.1368110236220473
0
LINE
8
BLACK
6
CONTINUOUS
10
0.9507874015748031
20
0.1368110236220473
11
0.9540811023622047
21
0.1365021653543307
0
LINE
8
BLACK
6
CONTINUOUS
10
0.8129869291338583
20
0.2011988188976378
11
0.8170620866141732
21
0.1992065748031496
0
LINE
8
BLACK
6
CONTINUOUS
10
0.8170620866141732
20
0.1992065748031496
11
0.8202695669291339
21
0.195999094488189
0
LINE
8
BLACK
6
CONTINUOUS
10
0.8202695669291339
20
0.195999094488189
11
0.8222618110236221
21
0.191923937007874
0
LINE
8
BLACK
6
CONTINUOUS
10
0.8222618110236221
20
0.191923937007874
11
0.8228346456692913
21
0.187992125984252
0
LINE
8
BLACK
6
CONTINUOUS
10
0.8228346456692913
20
0.187992125984252
11
0.8228346456692913
21
0.1761811023622047
0
LINE
8
BLACK
6
CONTINUOUS
10
0.8228346456692913
20
0.1761811023622047
11
0.8222618110236221
21
0.1722492913385827
0
LINE
8
BLACK
6
CONTINUOUS
10
0.8222618110236221
20
0.1722492913385827
11
0.8202695669291339
21
0.1681741338582677
0
LINE
8
BLACK
6
CONTINUOUS
10
0.8202695669291339
20
0.1681741338582677
11
0.8170620866141732
21
0.1649666535433071
0
LINE
8
BLACK
6
CONTINUOUS
10
0.8170620866141732
20
0.1649666535433071
11
0.8129869291338583
21
0.1629744094488189
0
LINE
8
BLACK
6
CONTINUOUS
10
0.8129869291338583
20
0.1629744094488189
11
0.8090551181102362
21
0.1624015748031496
0
LINE
8
BLACK
6
CONTINUOUS
10
0.8090551181102362
20
0.1624015748031496
11
0.7539370078740157
21
0.1624015748031496
0
LINE
8
BLACK
6
CONTINUOUS
10
0.7539370078740157
20
0.1624015748031496
11
0.7500051968503937
21
0.1629744094488189
0
LINE
8
BLACK
6
CONTINUOUS
10
0.7500051968503937
20
0.1629744094488189
11
0.7459300393700787
21
0.1649666535433071
0
LINE
8
BLACK
6
CONTINUOUS
10
0.7459300393700787
20
0.1649666535433071
11
0.7427225590551181
21
0.1681741338582677
0
LINE
8
BLACK
6
CONTINUOUS
10
0.7427225590551181
20
0.1681741338582677
11
0.7407303149606299
21
0.1722492913385827
0
LINE
8
BLACK
6
CONTINUOUS
10
0.7407303149606299
20
0.1722492913385827
11
0.7401574803149606
21
0.1761811023622047
0
LINE
8
BLACK
6
CONTINUOUS
10
0.7401574803149606
20
0.1761811023622047
11
0.7401574803149606
21
0.187992125984252
0
LINE
8
BLACK
6
CONTINUOUS
10
0.7401574803149606
20
0.187992125984252
11
0.7407303149606299
21
0.191923937007874
0
LINE
8
BLACK
6
CONTINUOUS
10
0.7407303149606299
20
0.191923937007874
11
0.7427225590551181
21
0.195999094488189
0
LINE
8
BLACK
6
CONTINUOUS
10
0.7427225590551181
20
0.195999094488189
11
0.7459300393700787
21
0.1992065748031496
0
LINE
8
BLACK
6
CONTINUOUS
10
0.7459300393700787
20
0.1992065748031496
11
0.7500051968503937
21
0.2011988188976378
0
LINE
8
BLACK
6
CONTINUOUS
10
0.7500051968503937
20
0.2011988188976378
11
0.7539370078740157
21
0.2017716535433071
0
LINE
8
BLACK
6
CONTINUOUS
10
0.7539370078740157
20
0.2017716535433071
11
0.8090551181102362
21
0.2017716535433071
0
LINE
8
BLACK
6
CONTINUOUS
10
0.8090551181102362
20
0.2017716535433071
11
0.8129869291338583
21
0.2011988188976378
0
LINE
8
BLACK
6
CONTINUOUS
10
0.5753835826771654
20
0.3086504724409449
11
0.5772150787401574
21
0.3086504724409449
0
LINE
8
BLACK
6
CONTINUOUS
10
0.5772150787401574
20
0.3086504724409449
11
0.5792529921259842
21
0.3083821653543307
0
LINE
8
BLACK
6
CONTINUOUS
10
0.5792529921259842
20
0.3083821653543307
11
0.5842167322834646
21
0.3070521653543307
0
LINE
8
BLACK
6
CONTINUOUS
10
0.5842167322834646
20
0.3070521653543307
11
0.5861158267716535
21
0.3062655511811024
0
LINE
8
BLACK
6
CONTINUOUS
10
0.5861158267716535
20
0.3062655511811024
11
0.5905661811023621
21
0.3036961417322834
0
LINE
8
BLACK
6
CONTINUOUS
10
0.5905661811023621
20
0.3036961417322834
11
0.5921969291338582
21
0.3024448031496063
0
LINE
8
BLACK
6
CONTINUOUS
10
0.5921969291338582
20
0.3024448031496063
11
0.5958306299212598
21
0.2988111023622047
0
LINE
8
BLACK
6
CONTINUOUS
10
0.5958306299212598
20
0.2988111023622047
11
0.597081968503937
21
0.2971803543307087
0
LINE
8
BLACK
6
CONTINUOUS
10
0.597081968503937
20
0.2971803543307087
11
0.5996513779527559
21
0.29273
0
LINE
8
BLACK
6
CONTINUOUS
10
0.5996513779527559
20
0.29273
11
0.6004379921259843
21
0.290830905511811
0
LINE
8
BLACK
6
CONTINUOUS
10
0.6004379921259843
20
0.290830905511811
11
0.6017679921259842
21
0.2858671653543307
0
LINE
8
BLACK
6
CONTINUOUS
10
0.6017679921259842
20
0.2858671653543307
11
0.6020362992125984
21
0.2838292519685039
0
LINE
8
BLACK
6
CONTINUOUS
10
0.6020362992125984
20
0.2838292519685039
11
0.6020362992125984
21
0.2827548031496063
0
LINE
8
BLACK
6
CONTINUOUS
10
0.6020362992125984
20
0.2827548031496063
11
0.6022047244094488
21
0.2812598425196851
0
LINE
8
BLACK
6
CONTINUOUS
10
0.6022047244094488
20
0.2812598425196851
11
0.6022047244094488
21
0.2615748031496063
0
LINE
8
BLACK
6
CONTINUOUS
10
0.6022047244094488
20
0.2615748031496063
11
0.6014249606299212
21
0.2581583858267716
0
LINE
8
BLACK
6
CONTINUOUS
10
0.6014249606299212
20
0.2581583858267716
11
0.5993613385826772
21
0.255570748031496
0
LINE
8
BLACK
6
CONTINUOUS
10
0.5993613385826772
20
0.255570748031496
11
0.6004868503937008
21
0.2546731496062992
0
LINE
8
BLACK
6
CONTINUOUS
10
0.6004868503937008
20
0.2546731496062992
11
0.6020073228346456
21
0.251515905511811
0
LINE
8
BLACK
6
CONTINUOUS
10
0.6020073228346456
20
0.251515905511811
11
0.6022047244094488
21
0.249763779527559
0
LINE
8
BLACK
6
CONTINUOUS
10
0.6022047244094488
20
0.249763779527559
11
0.6022047244094488
21
0.2300787401574803
0
LINE
8
BLACK
6
CONTINUOUS
10
0.6022047244094488
20
0.2300787401574803
11
0.6020362992125984
21
0.2293408267716535
0
LINE
8
BLACK
6
CONTINUOUS
10
0.6020362992125984
20
0.2293408267716535
11
0.6020362992125984
21
0.2275093307086614
0
LINE
8
BLACK
6
CONTINUOUS
10
0.6020362992125984
20
0.2275093307086614
11
0.6017679921259842
21
0.2254714173228346
0
LINE
8
BLACK
6
CONTINUOUS
10
0.6017679921259842
20
0.2254714173228346
11
0.6004379921259843
21
0.2205076771653543
0
LINE
8
BLACK
6
CONTINUOUS
10
0.6004379921259843
20
0.2205076771653543
11
0.5996513779527559
21
0.2186085826771653
0
LINE
8
BLACK
6
CONTINUOUS
10
0.5996513779527559
20
0.2186085826771653
11
0.597081968503937
21
0.2141582283464567
0
LINE
8
BLACK
6
CONTINUOUS
10
0.597081968503937
20
0.2141582283464567
11
0.5958306299212598
21
0.2125274803149606
0
LINE
8
BLACK
6
CONTINUOUS
10
0.5958306299212598
20
0.2125274803149606
11
0.5921969291338582
21
0.2088937795275591
0
LINE
8
BLACK
6
CONTINUOUS
10
0.5921969291338582
20
0.2088937795275591
11
0.5905661811023621
21
0.2076424409448819
0
LINE
8
BLACK
6
CONTINUOUS
10
0.5905661811023621
20
0.2076424409448819
11
0.5861158267716535
21
0.205073031496063
0
LINE
8
BLACK
6
CONTINUOUS
10
0.5861158267716535
20
0.205073031496063
11
0.5842167322834646
21
0.2042864173228346
0
LINE
8
BLACK
6
CONTINUOUS
10
0.5842167322834646
20
0.2042864173228346
11
0.5792529921259842
21
0.2029564173228346
0
LINE
8
BLACK
6
CONTINUOUS
10
0.5792529921259842
20
0.2029564173228346
11
0.5772150787401574
21
0.2026881102362205
0
LINE
8
BLACK
6
CONTINUOUS
10
0.5772150787401574
20
0.2026881102362205
11
0.5761405905511811
21
0.2026881102362205
0
LINE
8
BLACK
6
CONTINUOUS
10
0.5761405905511811
20
0.2026881102362205
11
0.5746456692913385
21
0.2025196850393701
0
LINE
8
BLACK
6
CONTINUOUS
10
0.5746456692913385
20
0.2025196850393701
11
0.5549606299212598
21
0.2025196850393701
0
LINE
8
BLACK
6
CONTINUOUS
10
0.5549606299212598
20
0.2025196850393701
11
0.5542227165354331
21
0.2026881102362205
0
LINE
8
BLACK
6
CONTINUOUS
10
0.5542227165354331
20
0.2026881102362205
11
0.5523912204724409
21
0.2026881102362205
0
LINE
8
BLACK
6
CONTINUOUS
10
0.5523912204724409
20
0.2026881102362205
11
0.5503533070866141
21
0.2029564173228346
0
LINE
8
BLACK
6
CONTINUOUS
10
0.5503533070866141
20
0.2029564173228346
11
0.5453895669291339
21
0.2042864173228346
0
LINE
8
BLACK
6
CONTINUOUS
10
0.5453895669291339
20
0.2042864173228346
11
0.5434904724409448
21
0.205073031496063
0
LINE
8
BLACK
6
CONTINUOUS
10
0.5434904724409448
20
0.205073031496063
11
0.5390401181102362
21
0.2076424409448819
0
LINE
8
BLACK
6
CONTINUOUS
10
0.5390401181102362
20
0.2076424409448819
11
0.5374093700787401
21
0.2088937795275591
0
LINE
8
BLACK
6
CONTINUOUS
10
0.5374093700787401
20
0.2088937795275591
11
0.5337756692913386
21
0.2125274803149606
0
LINE
8
BLACK
6
CONTINUOUS
10
0.5337756692913386
20
0.2125274803149606
11
0.5325243307086615
21
0.2141582283464567
0
LINE
8
BLACK
6
CONTINUOUS
10
0.5325243307086615
20
0.2141582283464567
11
0.5299549212598426
21
0.2186085826771653
0
LINE
8
BLACK
6
CONTINUOUS
10
0.5299549212598426
20
0.2186085826771653
11
0.5291683070866141
21
0.2205076771653543
0
LINE
8
BLACK
6
CONTINUOUS
10
0.5291683070866141
20
0.2205076771653543
11
0.5278383070866142
21
0.2254714173228346
0
LINE
8
BLACK
6
CONTINUOUS
10
0.5278383070866142
20
0.2254714173228346
11
0.52757
21
0.2275093307086614
0
LINE
8
BLACK
6
CONTINUOUS
10
0.52757
20
0.2275093307086614
11
0.52757
21
0.2285838188976378
0
LINE
8
BLACK
6
CONTINUOUS
10
0.52757
20
0.2285838188976378
11
0.5274015748031496
21
0.2300787401574803
0
LINE
8
BLACK
6
CONTINUOUS
10
0.5274015748031496
20
0.2300787401574803
11
0.5274015748031496
21
0.249763779527559
0
LINE
8
BLACK
6
CONTINUOUS
10
0.5274015748031496
20
0.249763779527559
11
0.5281813385826771
21
0.2531801968503937
0
LINE
8
BLACK
6
CONTINUOUS
10
0.5281813385826771
20
0.2531801968503937
11
0.5302449212598425
21
0.255767874015748
0
LINE
8
BLACK
6
CONTINUOUS
10
0.5302449212598425
20
0.255767874015748
11
0.5291194488188976
21
0.2566654330708661
0
LINE
8
BLACK
6
CONTINUOUS
10
0.5291194488188976
20
0.2566654330708661
11
0.5275989763779527
21
0.2598226771653543
0
LINE
8
BLACK
6
CONTINUOUS
10
0.5275989763779527
20
0.2598226771653543
11
0.5274015748031496
21
0.2615748031496063
0
LINE
8
BLACK
6
CONTINUOUS
10
0.5274015748031496
20
0.2615748031496063
11
0.5274015748031496
21
0.2812598425196851
0
LINE
8
BLACK
6
CONTINUOUS
10
0.5274015748031496
20
0.2812598425196851
11
0.52757
21
0.2819977952755905
0
LINE
8
BLACK
6
CONTINUOUS
10
0.52757
20
0.2819977952755905
11
0.52757
21
0.2838292519685039
0
LINE
8
BLACK
6
CONTINUOUS
10
0.52757
20
0.2838292519685039
11
0.5278383070866142
21
0.2858671653543307
0
LINE
8
BLACK
6
CONTINUOUS
10
0.5278383070866142
20
0.2858671653543307
11
0.5291683070866141
21
0.290830905511811
0
LINE
8
BLACK
6
CONTINUOUS
10
0.5291683070866141
20
0.290830905511811
11
0.5299549212598426
21
0.29273
0
LINE
8
BLACK
6
CONTINUOUS
10
0.5299549212598426
20
0.29273
11
0.5325243307086615
21
0.2971803543307087
0
LINE
8
BLACK
6
CONTINUOUS
10
0.5325243307086615
20
0.2971803543307087
11
0.5337756692913386
21
0.2988111023622047
0
LINE
8
BLACK
6
CONTINUOUS
10
0.5337756692913386
20
0.2988111023622047
11
0.5374093700787401
21
0.3024448031496063
0
LINE
8
BLACK
6
CONTINUOUS
10
0.5374093700787401
20
0.3024448031496063
11
0.5390401181102362
21
0.3036961417322834
0
LINE
8
BLACK
6
CONTINUOUS
10
0.5390401181102362
20
0.3036961417322834
11
0.5434904724409448
21
0.3062655511811024
0
LINE
8
BLACK
6
CONTINUOUS
10
0.5434904724409448
20
0.3062655511811024
11
0.5453895669291339
21
0.3070521653543307
0
LINE
8
BLACK
6
CONTINUOUS
10
0.5453895669291339
20
0.3070521653543307
11
0.5503533070866141
21
0.3083821653543307
0
LINE
8
BLACK
6
CONTINUOUS
10
0.5503533070866141
20
0.3083821653543307
11
0.5523912204724409
21
0.3086504724409449
0
LINE
8
BLACK
6
CONTINUOUS
10
0.5523912204724409
20
0.3086504724409449
11
0.5534657086614173
21
0.3086504724409449
0
LINE
8
BLACK
6
CONTINUOUS
10
0.5534657086614173
20
0.3086504724409449
11
0.5549606299212598
21
0.3088188976377952
0
LINE
8
BLACK
6
CONTINUOUS
10
0.5549606299212598
20
0.3088188976377952
11
0.5746456692913385
21
0.3088188976377952
0
LINE
8
BLACK
6
CONTINUOUS
10
0.5746456692913385
20
0.3088188976377952
11
0.5753835826771654
21
0.3086504724409449
0
LINE
8
BLACK
6
CONTINUOUS
10
0.8129869291338583
20
0.2504114173228346
11
0.8170620866141732
21
0.2484191732283464
0
LINE
8
BLACK
6
CONTINUOUS
10
0.8170620866141732
20
0.2484191732283464
11
0.8202695669291339
21
0.2452116929133858
0
LINE
8
BLACK
6
CONTINUOUS
10
0.8202695669291339
20
0.2452116929133858
11
0.8222618110236221
21
0.2411365354330709
0
LINE
8
BLACK
6
CONTINUOUS
10
0.8222618110236221
20
0.2411365354330709
11
0.8228346456692913
21
0.2372047244094488
0
LINE
8
BLACK
6
CONTINUOUS
10
0.8228346456692913
20
0.2372047244094488
11
0.8228346456692913
21
0.2253937007874016
0
LINE
8
BLACK
6
CONTINUOUS
10
0.8228346456692913
20
0.2253937007874016
11
0.8222618110236221
21
0.2214618897637795
0
LINE
8
BLACK
6
CONTINUOUS
10
0.8222618110236221
20
0.2214618897637795
11
0.8202695669291339
21
0.2173867322834646
0
LINE
8
BLACK
6
CONTINUOUS
10
0.8202695669291339
20
0.2173867322834646
11
0.8170620866141732
21
0.2141792519685039
0
LINE
8
BLACK
6
CONTINUOUS
10
0.8170620866141732
20
0.2141792519685039
11
0.8129869291338583
21
0.2121870078740157
0
LINE
8
BLACK
6
CONTINUOUS
10
0.8129869291338583
20
0.2121870078740157
11
0.8090551181102362
21
0.2116141732283464
0
LINE
8
BLACK
6
CONTINUOUS
10
0.8090551181102362
20
0.2116141732283464
11
0.7539370078740157
21
0.2116141732283464
0
LINE
8
BLACK
6
CONTINUOUS
10
0.7539370078740157
20
0.2116141732283464
11
0.7500051968503937
21
0.2121870078740157
0
LINE
8
BLACK
6
CONTINUOUS
10
0.7500051968503937
20
0.2121870078740157
11
0.7459300393700787
21
0.2141792519685039
0
LINE
8
BLACK
6
CONTINUOUS
10
0.7459300393700787
20
0.2141792519685039
11
0.7427225590551181
21
0.2173867322834646
0
LINE
8
BLACK
6
CONTINUOUS
10
0.7427225590551181
20
0.2173867322834646
11
0.7407303149606299
21
0.2214618897637795
0
LINE
8
BLACK
6
CONTINUOUS
10
0.7407303149606299
20
0.2214618897637795
11
0.7401574803149606
21
0.2253937007874016
0
LINE
8
BLACK
6
CONTINUOUS
10
0.7401574803149606
20
0.2253937007874016
11
0.7401574803149606
21
0.2372047244094488
0
LINE
8
BLACK
6
CONTINUOUS
10
0.7401574803149606
20
0.2372047244094488
11
0.7407303149606299
21
0.2411365354330709
0
LINE
8
BLACK
6
CONTINUOUS
10
0.7407303149606299
20
0.2411365354330709
11
0.7427225590551181
21
0.2452116929133858
0
LINE
8
BLACK
6
CONTINUOUS
10
0.7427225590551181
20
0.2452116929133858
11
0.7459300393700787
21
0.2484191732283464
0
LINE
8
BLACK
6
CONTINUOUS
10
0.7459300393700787
20
0.2484191732283464
11
0.7500051968503937
21
0.2504114173228346
0
LINE
8
BLACK
6
CONTINUOUS
10
0.7500051968503937
20
0.2504114173228346
11
0.7539370078740157
21
0.2509842519685039
0
LINE
8
BLACK
6
CONTINUOUS
10
0.7539370078740157
20
0.2509842519685039
11
0.8090551181102362
21
0.2509842519685039
0
LINE
8
BLACK
6
CONTINUOUS
10
0.8090551181102362
20
0.2509842519685039
11
0.8129869291338583
21
0.2504114173228346
0
LINE
8
BLACK
6
CONTINUOUS
10
0.8129869291338583
20
0.2996240157480315
11
0.8170620866141732
21
0.2976317716535433
0
LINE
8
BLACK
6
CONTINUOUS
10
0.8170620866141732
20
0.2976317716535433
11
0.8202695669291339
21
0.2944242913385827
0
LINE
8
BLACK
6
CONTINUOUS
10
0.8202695669291339
20
0.2944242913385827
11
0.8222618110236221
21
0.2903491338582677
0
LINE
8
BLACK
6
CONTINUOUS
10
0.8222618110236221
20
0.2903491338582677
11
0.8228346456692913
21
0.2864173228346457
0
LINE
8
BLACK
6
CONTINUOUS
10
0.8228346456692913
20
0.2864173228346457
11
0.8228346456692913
21
0.2746062992125984
0
LINE
8
BLACK
6
CONTINUOUS
10
0.8228346456692913
20
0.2746062992125984
11
0.8222618110236221
21
0.2706744881889764
0
LINE
8
BLACK
6
CONTINUOUS
10
0.8222618110236221
20
0.2706744881889764
11
0.8202695669291339
21
0.2665993307086614
0
LINE
8
BLACK
6
CONTINUOUS
10
0.8202695669291339
20
0.2665993307086614
11
0.8170620866141732
21
0.2633918503937008
0
LINE
8
BLACK
6
CONTINUOUS
10
0.8170620866141732
20
0.2633918503937008
11
0.8129869291338583
21
0.2613996062992126
0
LINE
8
BLACK
6
CONTINUOUS
10
0.8129869291338583
20
0.2613996062992126
11
0.8090551181102362
21
0.2608267716535433
0
LINE
8
BLACK
6
CONTINUOUS
10
0.8090551181102362
20
0.2608267716535433
11
0.7539370078740157
21
0.2608267716535433
0
LINE
8
BLACK
6
CONTINUOUS
10
0.7539370078740157
20
0.2608267716535433
11
0.7500051968503937
21
0.2613996062992126
0
LINE
8
BLACK
6
CONTINUOUS
10
0.7500051968503937
20
0.2613996062992126
11
0.7459300393700787
21
0.2633918503937008
0
LINE
8
BLACK
6
CONTINUOUS
10
0.7459300393700787
20
0.2633918503937008
11
0.7427225590551181
21
0.2665993307086614
0
LINE
8
BLACK
6
CONTINUOUS
10
0.7427225590551181
20
0.2665993307086614
11
0.7407303149606299
21
0.2706744881889764
0
LINE
8
BLACK
6
CONTINUOUS
10
0.7407303149606299
20
0.2706744881889764
11
0.7401574803149606
21
0.2746062992125984
0
LINE
8
BLACK
6
CONTINUOUS
10
0.7401574803149606
20
0.2746062992125984
11
0.7401574803149606
21
0.2864173228346457
0
LINE
8
BLACK
6
CONTINUOUS
10
0.7401574803149606
20
0.2864173228346457
11
0.7407303149606299
21
0.2903491338582677
0
LINE
8
BLACK
6
CONTINUOUS
10
0.7407303149606299
20
0.2903491338582677
11
0.7427225590551181
21
0.2944242913385827
0
LINE
8
BLACK
6
CONTINUOUS
10
0.7427225590551181
20
0.2944242913385827
11
0.7459300393700787
21
0.2976317716535433
0
LINE
8
BLACK
6
CONTINUOUS
10
0.7459300393700787
20
0.2976317716535433
11
0.7500051968503937
21
0.2996240157480315
0
LINE
8
BLACK
6
CONTINUOUS
10
0.7500051968503937
20
0.2996240157480315
11
0.7539370078740157
21
0.3001968503937008
0
LINE
8
BLACK
6
CONTINUOUS
10
0.7539370078740157
20
0.3001968503937008
11
0.8090551181102362
21
0.3001968503937008
0
LINE
8
BLACK
6
CONTINUOUS
10
0.8090551181102362
20
0.3001968503937008
11
0.8129869291338583
21
0.2996240157480315
0
LINE
8
BLACK
6
CONTINUOUS
10
0.8129869291338583
20
0.3488366141732284
11
0.8170620866141732
21
0.3468443700787401
0
LINE
8
BLACK
6
CONTINUOUS
10
0.8170620866141732
20
0.3468443700787401
11
0.8202695669291339
21
0.3436368897637795
0
LINE
8
BLACK
6
CONTINUOUS
10
0.8202695669291339
20
0.3436368897637795
11
0.8222618110236221
21
0.3395617322834645
0
LINE
8
BLACK
6
CONTINUOUS
10
0.8222618110236221
20
0.3395617322834645
11
0.8228346456692913
21
0.3356299212598425
0
LINE
8
BLACK
6
CONTINUOUS
10
0.8228346456692913
20
0.3356299212598425
11
0.8228346456692913
21
0.3238188976377953
0
LINE
8
BLACK
6
CONTINUOUS
10
0.8228346456692913
20
0.3238188976377953
11
0.8222618110236221
21
0.3198870866141732
0
LINE
8
BLACK
6
CONTINUOUS
10
0.8222618110236221
20
0.3198870866141732
11
0.8202695669291339
21
0.3158119291338582
0
LINE
8
BLACK
6
CONTINUOUS
10
0.8202695669291339
20
0.3158119291338582
11
0.8170620866141732
21
0.3126044488188977
0
LINE
8
BLACK
6
CONTINUOUS
10
0.8170620866141732
20
0.3126044488188977
11
0.8129869291338583
21
0.3106122047244094
0
LINE
8
BLACK
6
CONTINUOUS
10
0.8129869291338583
20
0.3106122047244094
11
0.8090551181102362
21
0.3100393700787402
0
LINE
8
BLACK
6
CONTINUOUS
10
0.8090551181102362
20
0.3100393700787402
11
0.7539370078740157
21
0.3100393700787402
0
LINE
8
BLACK
6
CONTINUOUS
10
0.7539370078740157
20
0.3100393700787402
11
0.7500051968503937
21
0.3106122047244094
0
LINE
8
BLACK
6
CONTINUOUS
10
0.7500051968503937
20
0.3106122047244094
11
0.7459300393700787
21
0.3126044488188977
0
LINE
8
BLACK
6
CONTINUOUS
10
0.7459300393700787
20
0.3126044488188977
11
0.7427225590551181
21
0.3158119291338582
0
LINE
8
BLACK
6
CONTINUOUS
10
0.7427225590551181
20
0.3158119291338582
11
0.7407303149606299
21
0.3198870866141732
0
LINE
8
BLACK
6
CONTINUOUS
10
0.7407303149606299
20
0.3198870866141732
11
0.7401574803149606
21
0.3238188976377953
0
LINE
8
BLACK
6
CONTINUOUS
10
0.7401574803149606
20
0.3238188976377953
11
0.7401574803149606
21
0.3356299212598425
0
LINE
8
BLACK
6
CONTINUOUS
10
0.7401574803149606
20
0.3356299212598425
11
0.7407303149606299
21
0.3395617322834645
0
LINE
8
BLACK
6
CONTINUOUS
10
0.7407303149606299
20
0.3395617322834645
11
0.7427225590551181
21
0.3436368897637795
0
LINE
8
BLACK
6
CONTINUOUS
10
0.7427225590551181
20
0.3436368897637795
11
0.7459300393700787
21
0.3468443700787401
0
LINE
8
BLACK
6
CONTINUOUS
10
0.7459300393700787
20
0.3468443700787401
11
0.7500051968503937
21
0.3488366141732284
0
LINE
8
BLACK
6
CONTINUOUS
10
0.7500051968503937
20
0.3488366141732284
11
0.7539370078740157
21
0.3494094488188976
0
LINE
8
BLACK
6
CONTINUOUS
10
0.7539370078740157
20
0.3494094488188976
11
0.8090551181102362
21
0.3494094488188976
0
LINE
8
BLACK
6
CONTINUOUS
10
0.8090551181102362
20
0.3494094488188976
11
0.8129869291338583
21
0.3488366141732284
0
LINE
8
BLACK
6
CONTINUOUS
10
0.9540811023622047
20
0.4298092519685039
11
0.9590657874015748
21
0.4280650393700787
0
LINE
8
BLACK
6
CONTINUOUS
10
0.9590657874015748
20
0.4280650393700787
11
0.9633148818897638
21
0.4249290551181102
0
LINE
8
BLACK
6
CONTINUOUS
10
0.9633148818897638
20
0.4249290551181102
11
0.9664508661417323
21
0.4206799606299212
0
LINE
8
BLACK
6
CONTINUOUS
10
0.9664508661417323
20
0.4206799606299212
11
0.9681950787401574
21
0.4156952755905512
0
LINE
8
BLACK
6
CONTINUOUS
10
0.9681950787401574
20
0.4156952755905512
11
0.968503937007874
21
0.4124015748031496
0
LINE
8
BLACK
6
CONTINUOUS
10
0.968503937007874
20
0.4124015748031496
11
0.968503937007874
21
0.3927165354330708
0
LINE
8
BLACK
6
CONTINUOUS
10
0.968503937007874
20
0.3927165354330708
11
0.9681950787401574
21
0.3894228346456693
0
LINE
8
BLACK
6
CONTINUOUS
10
0.9681950787401574
20
0.3894228346456693
11
0.9664508661417323
21
0.3844381496062992
0
LINE
8
BLACK
6
CONTINUOUS
10
0.9664508661417323
20
0.3844381496062992
11
0.9633148818897638
21
0.3801890551181102
0
LINE
8
BLACK
6
CONTINUOUS
10
0.9633148818897638
20
0.3801890551181102
11
0.9590657874015748
21
0.3770530708661417
0
LINE
8
BLACK
6
CONTINUOUS
10
0.9590657874015748
20
0.3770530708661417
11
0.9540811023622047
21
0.3753088582677165
0
LINE
8
BLACK
6
CONTINUOUS
10
0.9540811023622047
20
0.3753088582677165
11
0.9507874015748031
21
0.375
0
LINE
8
BLACK
6
CONTINUOUS
10
0.9507874015748031
20
0.375
11
0.8641732283464567
21
0.375
0
LINE
8
BLACK
6
CONTINUOUS
10
0.8641732283464567
20
0.375
11
0.8608795275590551
21
0.3753088582677165
0
LINE
8
BLACK
6
CONTINUOUS
10
0.8608795275590551
20
0.3753088582677165
11
0.8558948425196851
21
0.3770530708661417
0
LINE
8
BLACK
6
CONTINUOUS
10
0.8558948425196851
20
0.3770530708661417
11
0.8516457480314961
21
0.3801890551181102
0
LINE
8
BLACK
6
CONTINUOUS
10
0.8516457480314961
20
0.3801890551181102
11
0.8485097637795276
21
0.3844381496062992
0
LINE
8
BLACK
6
CONTINUOUS
10
0.8485097637795276
20
0.3844381496062992
11
0.8467655511811023
21
0.3894228346456693
0
LINE
8
BLACK
6
CONTINUOUS
10
0.8467655511811023
20
0.3894228346456693
11
0.8464566929133858
21
0.3927165354330708
0
LINE
8
BLACK
6
CONTINUOUS
10
0.8464566929133858
20
0.3927165354330708
11
0.8464566929133858
21
0.4124015748031496
0
LINE
8
BLACK
6
CONTINUOUS
10
0.8464566929133858
20
0.4124015748031496
11
0.8467655511811023
21
0.4156952755905512
0
LINE
8
BLACK
6
CONTINUOUS
10
0.8467655511811023
20
0.4156952755905512
11
0.8485097637795276
21
0.4206799606299212
0
LINE
8
BLACK
6
CONTINUOUS
10
0.8485097637795276
20
0.4206799606299212
11
0.8516457480314961
21
0.4249290551181102
0
LINE
8
BLACK
6
CONTINUOUS
10
0.8516457480314961
20
0.4249290551181102
11
0.8558948425196851
21
0.4280650393700787
0
LINE
8
BLACK
6
CONTINUOUS
10
0.8558948425196851
20
0.4280650393700787
11
0.8608795275590551
21
0.4298092519685039
0
LINE
8
BLACK
6
CONTINUOUS
10
0.8608795275590551
20
0.4298092519685039
11
0.8641732283464567
21
0.4301181102362205
0
LINE
8
BLACK
6
CONTINUOUS
10
0.8641732283464567
20
0.4301181102362205
11
0.9507874015748031
21
0.4301181102362205
0
LINE
8
BLACK
6
CONTINUOUS
10
0.9507874015748031
20
0.4301181102362205
11
0.9540811023622047
21
0.4298092519685039
0
LINE
8
BLACK
6
CONTINUOUS
10
0.9540811023622047
20
0.5302029527559055
11
0.9590657874015748
21
0.5284587401574803
0
LINE
8
BLACK
6
CONTINUOUS
10
0.9590657874015748
20
0.5284587401574803
11
0.9633148818897638
21
0.5253227559055118
0
LINE
8
BLACK
6
CONTINUOUS
10
0.9633148818897638
20
0.5253227559055118
11
0.9664508661417323
21
0.5210736614173228
0
LINE
8
BLACK
6
CONTINUOUS
10
0.9664508661417323
20
0.5210736614173228
11
0.9681950787401574
21
0.5160889763779527
0
LINE
8
BLACK
6
CONTINUOUS
10
0.9681950787401574
20
0.5160889763779527
11
0.968503937007874
21
0.5127952755905512
0
LINE
8
BLACK
6
CONTINUOUS
10
0.968503937007874
20
0.5127952755905512
11
0.968503937007874
21
0.4931102362204725
0
LINE
8
BLACK
6
CONTINUOUS
10
0.968503937007874
20
0.4931102362204725
11
0.9681950787401574
21
0.4898165354330709
0
LINE
8
BLACK
6
CONTINUOUS
10
0.9681950787401574
20
0.4898165354330709
11
0.9664508661417323
21
0.4848318503937008
0
LINE
8
BLACK
6
CONTINUOUS
10
0.9664508661417323
20
0.4848318503937008
11
0.9633148818897638
21
0.4805827559055118
0
LINE
8
BLACK
6
CONTINUOUS
10
0.9633148818897638
20
0.4805827559055118
11
0.9590657874015748
21
0.4774467716535433
0
LINE
8
BLACK
6
CONTINUOUS
10
0.9590657874015748
20
0.4774467716535433
11
0.9540811023622047
21
0.4757025590551181
0
LINE
8
BLACK
6
CONTINUOUS
10
0.9540811023622047
20
0.4757025590551181
11
0.9507874015748031
21
0.4753937007874016
0
LINE
8
BLACK
6
CONTINUOUS
10
0.9507874015748031
20
0.4753937007874016
11
0.8641732283464567
21
0.4753937007874016
0
LINE
8
BLACK
6
CONTINUOUS
10
0.8641732283464567
20
0.4753937007874016
11
0.8608795275590551
21
0.4757025590551181
0
LINE
8
BLACK
6
CONTINUOUS
10
0.8608795275590551
20
0.4757025590551181
11
0.8558948425196851
21
0.4774467716535433
0
LINE
8
BLACK
6
CONTINUOUS
10
0.8558948425196851
20
0.4774467716535433
11
0.8516457480314961
21
0.4805827559055118
0
LINE
8
BLACK
6
CONTINUOUS
10
0.8516457480314961
20
0.4805827559055118
11
0.8485097637795276
21
0.4848318503937008
0
LINE
8
BLACK
6
CONTINUOUS
10
0.8485097637795276
20
0.4848318503937008
11
0.8467655511811023
21
0.4898165354330709
0
LINE
8
BLACK
6
CONTINUOUS
10
0.8467655511811023
20
0.4898165354330709
11
0.8464566929133858
21
0.4931102362204725
0
LINE
8
BLACK
6
CONTINUOUS
10
0.8464566929133858
20
0.4931102362204725
11
0.8464566929133858
21
0.5127952755905512
0
LINE
8
BLACK
6
CONTINUOUS
10
0.8464566929133858
20
0.5127952755905512
11
0.8467655511811023
21
0.5160889763779527
0
LINE
8
BLACK
6
CONTINUOUS
10
0.8467655511811023
20
0.5160889763779527
11
0.8485097637795276
21
0.5210736614173228
0
LINE
8
BLACK
6
CONTINUOUS
10
0.8485097637795276
20
0.5210736614173228
11
0.8516457480314961
21
0.5253227559055118
0
LINE
8
BLACK
6
CONTINUOUS
10
0.8516457480314961
20
0.5253227559055118
11
0.8558948425196851
21
0.5284587401574803
0
LINE
8
BLACK
6
CONTINUOUS
10
0.8558948425196851
20
0.5284587401574803
11
0.8608795275590551
21
0.5302029527559055
0
LINE
8
BLACK
6
CONTINUOUS
10
0.8608795275590551
20
0.5302029527559055
11
0.8641732283464567
21
0.530511811023622
0
LINE
8
BLACK
6
CONTINUOUS
10
0.8641732283464567
20
0.530511811023622
11
0.9507874015748031
21
0.530511811023622
0
LINE
8
BLACK
6
CONTINUOUS
10
0.9507874015748031
20
0.530511811023622
11
0.9540811023622047
21
0.5302029527559055
0
LINE
8
BLACK
6
CONTINUOUS
10
0.8129869291338583
20
0.5948996062992126
11
0.8170620866141732
21
0.5929073622047244
0
LINE
8
BLACK
6
CONTINUOUS
10
0.8170620866141732
20
0.5929073622047244
11
0.8202695669291339
21
0.5896998818897637
0
LINE
8
BLACK
6
CONTINUOUS
10
0.8202695669291339
20
0.5896998818897637
11
0.8222618110236221
21
0.5856247244094488
0
LINE
8
BLACK
6
CONTINUOUS
10
0.8222618110236221
20
0.5856247244094488
11
0.8228346456692913
21
0.5816929133858267
0
LINE
8
BLACK
6
CONTINUOUS
10
0.8228346456692913
20
0.5816929133858267
11
0.8228346456692913
21
0.5698818897637795
0
LINE
8
BLACK
6
CONTINUOUS
10
0.8228346456692913
20
0.5698818897637795
11
0.8222618110236221
21
0.5659500787401575
0
LINE
8
BLACK
6
CONTINUOUS
10
0.8222618110236221
20
0.5659500787401575
11
0.8202695669291339
21
0.5618749212598425
0
LINE
8
BLACK
6
CONTINUOUS
10
0.8202695669291339
20
0.5618749212598425
11
0.8170620866141732
21
0.5586674409448819
0
LINE
8
BLACK
6
CONTINUOUS
10
0.8170620866141732
20
0.5586674409448819
11
0.8129869291338583
21
0.5566751968503937
0
LINE
8
BLACK
6
CONTINUOUS
10
0.8129869291338583
20
0.5566751968503937
11
0.8090551181102362
21
0.5561023622047244
0
LINE
8
BLACK
6
CONTINUOUS
10
0.8090551181102362
20
0.5561023622047244
11
0.7539370078740157
21
0.5561023622047244
0
LINE
8
BLACK
6
CONTINUOUS
10
0.7539370078740157
20
0.5561023622047244
11
0.7500051968503937
21
0.5566751968503937
0
LINE
8
BLACK
6
CONTINUOUS
10
0.7500051968503937
20
0.5566751968503937
11
0.7459300393700787
21
0.5586674409448819
0
LINE
8
BLACK
6
CONTINUOUS
10
0.7459300393700787
20
0.5586674409448819
11
0.7427225590551181
21
0.5618749212598425
0
LINE
8
BLACK
6
CONTINUOUS
10
0.7427225590551181
20
0.5618749212598425
11
0.7407303149606299
21
0.5659500787401575
0
LINE
8
BLACK
6
CONTINUOUS
10
0.7407303149606299
20
0.5659500787401575
11
0.7401574803149606
21
0.5698818897637795
0
LINE
8
BLACK
6
CONTINUOUS
10
0.7401574803149606
20
0.5698818897637795
11
0.7401574803149606
21
0.5816929133858267
0
LINE
8
BLACK
6
CONTINUOUS
10
0.7401574803149606
20
0.5816929133858267
11
0.7407303149606299
21
0.5856247244094488
0
LINE
8
BLACK
6
CONTINUOUS
10
0.7407303149606299
20
0.5856247244094488
11
0.7427225590551181
21
0.5896998818897637
0
LINE
8
BLACK
6
CONTINUOUS
10
0.7427225590551181
20
0.5896998818897637
11
0.7459300393700787
21
0.5929073622047244
0
LINE
8
BLACK
6
CONTINUOUS
10
0.7459300393700787
20
0.5929073622047244
11
0.7500051968503937
21
0.5948996062992126
0
LINE
8
BLACK
6
CONTINUOUS
10
0.7500051968503937
20
0.5948996062992126
11
0.7539370078740157
21
0.5954724409448818
0
LINE
8
BLACK
6
CONTINUOUS
10
0.7539370078740157
20
0.5954724409448818
11
0.8090551181102362
21
0.5954724409448818
0
LINE
8
BLACK
6
CONTINUOUS
10
0.8090551181102362
20
0.5954724409448818
11
0.8129869291338583
21
0.5948996062992126
0
LINE
8
BLACK
6
CONTINUOUS
10
0.5753835826771654
20
0.7023512598425197
11
0.5772150787401574
21
0.7023512598425197
0
LINE
8
BLACK
6
CONTINUOUS
10
0.5772150787401574
20
0.7023512598425197
11
0.5792529921259842
21
0.7020829527559055
0
LINE
8
BLACK
6
CONTINUOUS
10
0.5792529921259842
20
0.7020829527559055
11
0.5842167322834646
21
0.7007529527559055
0
LINE
8
BLACK
6
CONTINUOUS
10
0.5842167322834646
20
0.7007529527559055
11
0.5861158267716535
21
0.6999663385826771
0
LINE
8
BLACK
6
CONTINUOUS
10
0.5861158267716535
20
0.6999663385826771
11
0.5905661811023621
21
0.6973969291338582
0
LINE
8
BLACK
6
CONTINUOUS
10
0.5905661811023621
20
0.6973969291338582
11
0.5921969291338582
21
0.6961455905511811
0
LINE
8
BLACK
6
CONTINUOUS
10
0.5921969291338582
20
0.6961455905511811
11
0.5958306299212598
21
0.6925118897637795
0
LINE
8
BLACK
6
CONTINUOUS
10
0.5958306299212598
20
0.6925118897637795
11
0.597081968503937
21
0.6908811417322834
0
LINE
8
BLACK
6
CONTINUOUS
10
0.597081968503937
20
0.6908811417322834
11
0.5996513779527559
21
0.6864307874015748
0
LINE
8
BLACK
6
CONTINUOUS
10
0.5996513779527559
20
0.6864307874015748
11
0.6004379921259843
21
0.6845316929133858
0
LINE
8
BLACK
6
CONTINUOUS
10
0.6004379921259843
20
0.6845316929133858
11
0.6017679921259842
21
0.6795679527559055
0
LINE
8
BLACK
6
CONTINUOUS
10
0.6017679921259842
20
0.6795679527559055
11
0.6020362992125984
21
0.6775300393700787
0
LINE
8
BLACK
6
CONTINUOUS
10
0.6020362992125984
20
0.6775300393700787
11
0.6020362992125984
21
0.6764555905511811
0
LINE
8
BLACK
6
CONTINUOUS
10
0.6020362992125984
20
0.6764555905511811
11
0.6022047244094488
21
0.6749606299212598
0
LINE
8
BLACK
6
CONTINUOUS
10
0.6022047244094488
20
0.6749606299212598
11
0.6022047244094488
21
0.6552755905511811
0
LINE
8
BLACK
6
CONTINUOUS
10
0.6022047244094488
20
0.6552755905511811
11
0.6014249606299212
21
0.6518591732283464
0
LINE
8
BLACK
6
CONTINUOUS
10
0.6014249606299212
20
0.6518591732283464
11
0.5993613385826772
21
0.6492715354330708
0
LINE
8
BLACK
6
CONTINUOUS
10
0.5993613385826772
20
0.6492715354330708
11
0.6004868503937008
21
0.648373937007874
0
LINE
8
BLACK
6
CONTINUOUS
10
0.6004868503937008
20
0.648373937007874
11
0.6020073228346456
21
0.6452166929133858
0
LINE
8
BLACK
6
CONTINUOUS
10
0.6020073228346456
20
0.6452166929133858
11
0.6022047244094488
21
0.6434645669291339
0
LINE
8
BLACK
6
CONTINUOUS
10
0.6022047244094488
20
0.6434645669291339
11
0.6022047244094488
21
0.6237795275590551
0
LINE
8
BLACK
6
CONTINUOUS
10
0.6022047244094488
20
0.6237795275590551
11
0.6020362992125984
21
0.6230416141732283
0
LINE
8
BLACK
6
CONTINUOUS
10
0.6020362992125984
20
0.6230416141732283
11
0.6020362992125984
21
0.6212101181102362
0
LINE
8
BLACK
6
CONTINUOUS
10
0.6020362992125984
20
0.6212101181102362
11
0.6017679921259842
21
0.6191722047244095
0
LINE
8
BLACK
6
CONTINUOUS
10
0.6017679921259842
20
0.6191722047244095
11
0.6004379921259843
21
0.6142084645669291
0
LINE
8
BLACK
6
CONTINUOUS
10
0.6004379921259843
20
0.6142084645669291
11
0.5996513779527559
21
0.6123093700787401
0
LINE
8
BLACK
6
CONTINUOUS
10
0.5996513779527559
20
0.6123093700787401
11
0.597081968503937
21
0.6078590157480315
0
LINE
8
BLACK
6
CONTINUOUS
10
0.597081968503937
20
0.6078590157480315
11
0.5958306299212598
21
0.6062282677165354
0
LINE
8
BLACK
6
CONTINUOUS
10
0.5958306299212598
20
0.6062282677165354
11
0.5921969291338582
21
0.6025945669291338
0
LINE
8
BLACK
6
CONTINUOUS
10
0.5921969291338582
20
0.6025945669291338
11
0.5905661811023621
21
0.6013432283464567
0
LINE
8
BLACK
6
CONTINUOUS
10
0.5905661811023621
20
0.6013432283464567
11
0.5861158267716535
21
0.5987738188976378
0
LINE
8
BLACK
6
CONTINUOUS
10
0.5861158267716535
20
0.5987738188976378
11
0.5842167322834646
21
0.5979872047244095
0
LINE
8
BLACK
6
CONTINUOUS
10
0.5842167322834646
20
0.5979872047244095
11
0.5792529921259842
21
0.5966572047244094
0
LINE
8
BLACK
6
CONTINUOUS
10
0.5792529921259842
20
0.5966572047244094
11
0.5772150787401574
21
0.5963888976377952
0
LINE
8
BLACK
6
CONTINUOUS
10
0.5772150787401574
20
0.5963888976377952
11
0.5761405905511811
21
0.5963888976377952
0
LINE
8
BLACK
6
CONTINUOUS
10
0.5761405905511811
20
0.5963888976377952
11
0.5746456692913385
21
0.5962204724409449
0
LINE
8
BLACK
6
CONTINUOUS
10
0.5746456692913385
20
0.5962204724409449
11
0.5549606299212598
21
0.5962204724409449
0
LINE
8
BLACK
6
CONTINUOUS
10
0.5549606299212598
20
0.5962204724409449
11
0.5542227165354331
21
0.5963888976377952
0
LINE
8
BLACK
6
CONTINUOUS
10
0.5542227165354331
20
0.5963888976377952
11
0.5523912204724409
21
0.5963888976377952
0
LINE
8
BLACK
6
CONTINUOUS
10
0.5523912204724409
20
0.5963888976377952
11
0.5503533070866141
21
0.5966572047244094
0
LINE
8
BLACK
6
CONTINUOUS
10
0.5503533070866141
20
0.5966572047244094
11
0.5453895669291339
21
0.5979872047244095
0
LINE
8
BLACK
6
CONTINUOUS
10
0.5453895669291339
20
0.5979872047244095
11
0.5434904724409448
21
0.5987738188976378
0
LINE
8
BLACK
6
CONTINUOUS
10
0.5434904724409448
20
0.5987738188976378
11
0.5390401181102362
21
0.6013432283464567
0
LINE
8
BLACK
6
CONTINUOUS
10
0.5390401181102362
20
0.6013432283464567
11
0.5374093700787401
21
0.6025945669291338
0
LINE
8
BLACK
6
CONTINUOUS
10
0.5374093700787401
20
0.6025945669291338
11
0.5337756692913386
21
0.6062282677165354
0
LINE
8
BLACK
6
CONTINUOUS
10
0.5337756692913386
20
0.6062282677165354
11
0.5325243307086615
21
0.6078590157480315
0
LINE
8
BLACK
6
CONTINUOUS
10
0.5325243307086615
20
0.6078590157480315
11
0.5299549212598426
21
0.6123093700787401
0
LINE
8
BLACK
6
CONTINUOUS
10
0.5299549212598426
20
0.6123093700787401
11
0.5291683070866141
21
0.6142084645669291
0
LINE
8
BLACK
6
CONTINUOUS
10
0.5291683070866141
20
0.6142084645669291
11
0.5278383070866142
21
0.6191722047244095
0
LINE
8
BLACK
6
CONTINUOUS
10
0.5278383070866142
20
0.6191722047244095
11
0.52757
21
0.6212101181102362
0
LINE
8
BLACK
6
CONTINUOUS
10
0.52757
20
0.6212101181102362
11
0.52757
21
0.6222846062992126
0
LINE
8
BLACK
6
CONTINUOUS
10
0.52757
20
0.6222846062992126
11
0.5274015748031496
21
0.6237795275590551
0
LINE
8
BLACK
6
CONTINUOUS
10
0.5274015748031496
20
0.6237795275590551
11
0.5274015748031496
21
0.6434645669291339
0
LINE
8
BLACK
6
CONTINUOUS
10
0.5274015748031496
20
0.6434645669291339
11
0.5281813385826771
21
0.6468809842519685
0
LINE
8
BLACK
6
CONTINUOUS
10
0.5281813385826771
20
0.6468809842519685
11
0.5302449212598425
21
0.6494686614173228
0
LINE
8
BLACK
6
CONTINUOUS
10
0.5302449212598425
20
0.6494686614173228
11
0.5291194488188976
21
0.650366220472441
0
LINE
8
BLACK
6
CONTINUOUS
10
0.5291194488188976
20
0.650366220472441
11
0.5275989763779527
21
0.6535234645669291
0
LINE
8
BLACK
6
CONTINUOUS
10
0.5275989763779527
20
0.6535234645669291
11
0.5274015748031496
21
0.6552755905511811
0
LINE
8
BLACK
6
CONTINUOUS
10
0.5274015748031496
20
0.6552755905511811
11
0.5274015748031496
21
0.6749606299212598
0
LINE
8
BLACK
6
CONTINUOUS
10
0.5274015748031496
20
0.6749606299212598
11
0.52757
21
0.6756985826771653
0
LINE
8
BLACK
6
CONTINUOUS
10
0.52757
20
0.6756985826771653
11
0.52757
21
0.6775300393700787
0
LINE
8
BLACK
6
CONTINUOUS
10
0.52757
20
0.6775300393700787
11
0.5278383070866142
21
0.6795679527559055
0
LINE
8
BLACK
6
CONTINUOUS
10
0.5278383070866142
20
0.6795679527559055
11
0.5291683070866141
21
0.6845316929133858
0
LINE
8
BLACK
6
CONTINUOUS
10
0.5291683070866141
20
0.6845316929133858
11
0.5299549212598426
21
0.6864307874015748
0
LINE
8
BLACK
6
CONTINUOUS
10
0.5299549212598426
20
0.6864307874015748
11
0.5325243307086615
21
0.6908811417322834
0
LINE
8
BLACK
6
CONTINUOUS
10
0.5325243307086615
20
0.6908811417322834
11
0.5337756692913386
21
0.6925118897637795
0
LINE
8
BLACK
6
CONTINUOUS
10
0.5337756692913386
20
0.6925118897637795
11
0.5374093700787401
21
0.6961455905511811
0
LINE
8
BLACK
6
CONTINUOUS
10
0.5374093700787401
20
0.6961455905511811
11
0.5390401181102362
21
0.6973969291338582
0
LINE
8
BLACK
6
CONTINUOUS
10
0.5390401181102362
20
0.6973969291338582
11
0.5434904724409448
21
0.6999663385826771
0
LINE
8
BLACK
6
CONTINUOUS
10
0.5434904724409448
20
0.6999663385826771
11
0.5453895669291339
21
0.7007529527559055
0
LINE
8
BLACK
6
CONTINUOUS
10
0.5453895669291339
20
0.7007529527559055
11
0.5503533070866141
21
0.7020829527559055
0
LINE
8
BLACK
6
CONTINUOUS
10
0.5503533070866141
20
0.7020829527559055
11
0.5523912204724409
21
0.7023512598425197
0
LINE
8
BLACK
6
CONTINUOUS
10
0.5523912204724409
20
0.7023512598425197
11
0.5534657086614173
21
0.7023512598425197
0
LINE
8
BLACK
6
CONTINUOUS
10
0.5534657086614173
20
0.7023512598425197
11
0.5549606299212598
21
0.70251968503937
0
LINE
8
BLACK
6
CONTINUOUS
10
0.5549606299212598
20
0.70251968503937
11
0.5746456692913385
21
0.70251968503937
0
LINE
8
BLACK
6
CONTINUOUS
10
0.5746456692913385
20
0.70251968503937
11
0.5753835826771654
21
0.7023512598425197
0
LINE
8
BLACK
6
CONTINUOUS
10
0.8129869291338583
20
0.6441122047244094
11
0.8170620866141732
21
0.6421199606299213
0
LINE
8
BLACK
6
CONTINUOUS
10
0.8170620866141732
20
0.6421199606299213
11
0.8202695669291339
21
0.6389124803149606
0
LINE
8
BLACK
6
CONTINUOUS
10
0.8202695669291339
20
0.6389124803149606
11
0.8222618110236221
21
0.6348373228346457
0
LINE
8
BLACK
6
CONTINUOUS
10
0.8222618110236221
20
0.6348373228346457
11
0.8228346456692913
21
0.6309055118110236
0
LINE
8
BLACK
6
CONTINUOUS
10
0.8228346456692913
20
0.6309055118110236
11
0.8228346456692913
21
0.6190944881889764
0
LINE
8
BLACK
6
CONTINUOUS
10
0.8228346456692913
20
0.6190944881889764
11
0.8222618110236221
21
0.6151626771653543
0
LINE
8
BLACK
6
CONTINUOUS
10
0.8222618110236221
20
0.6151626771653543
11
0.8202695669291339
21
0.6110875196850394
0
LINE
8
BLACK
6
CONTINUOUS
10
0.8202695669291339
20
0.6110875196850394
11
0.8170620866141732
21
0.6078800393700787
0
LINE
8
BLACK
6
CONTINUOUS
10
0.8170620866141732
20
0.6078800393700787
11
0.8129869291338583
21
0.6058877952755906
0
LINE
8
BLACK
6
CONTINUOUS
10
0.8129869291338583
20
0.6058877952755906
11
0.8090551181102362
21
0.6053149606299213
0
LINE
8
BLACK
6
CONTINUOUS
10
0.8090551181102362
20
0.6053149606299213
11
0.7539370078740157
21
0.6053149606299213
0
LINE
8
BLACK
6
CONTINUOUS
10
0.7539370078740157
20
0.6053149606299213
11
0.7500051968503937
21
0.6058877952755906
0
LINE
8
BLACK
6
CONTINUOUS
10
0.7500051968503937
20
0.6058877952755906
11
0.7459300393700787
21
0.6078800393700787
0
LINE
8
BLACK
6
CONTINUOUS
10
0.7459300393700787
20
0.6078800393700787
11
0.7427225590551181
21
0.6110875196850394
0
LINE
8
BLACK
6
CONTINUOUS
10
0.7427225590551181
20
0.6110875196850394
11
0.7407303149606299
21
0.6151626771653543
0
LINE
8
BLACK
6
CONTINUOUS
10
0.7407303149606299
20
0.6151626771653543
11
0.7401574803149606
21
0.6190944881889764
0
LINE
8
BLACK
6
CONTINUOUS
10
0.7401574803149606
20
0.6190944881889764
11
0.7401574803149606
21
0.6309055118110236
0
LINE
8
BLACK
6
CONTINUOUS
10
0.7401574803149606
20
0.6309055118110236
11
0.7407303149606299
21
0.6348373228346457
0
LINE
8
BLACK
6
CONTINUOUS
10
0.7407303149606299
20
0.6348373228346457
11
0.7427225590551181
21
0.6389124803149606
0
LINE
8
BLACK
6
CONTINUOUS
10
0.7427225590551181
20
0.6389124803149606
11
0.7459300393700787
21
0.6421199606299213
0
LINE
8
BLACK
6
CONTINUOUS
10
0.7459300393700787
20
0.6421199606299213
11
0.7500051968503937
21
0.6441122047244094
0
LINE
8
BLACK
6
CONTINUOUS
10
0.7500051968503937
20
0.6441122047244094
11
0.7539370078740157
21
0.6446850393700787
0
LINE
8
BLACK
6
CONTINUOUS
10
0.7539370078740157
20
0.6446850393700787
11
0.8090551181102362
21
0.6446850393700787
0
LINE
8
BLACK
6
CONTINUOUS
10
0.8090551181102362
20
0.6446850393700787
11
0.8129869291338583
21
0.6441122047244094
0
LINE
8
BLACK
6
CONTINUOUS
10
0.8129869291338583
20
0.6933248031496063
11
0.8170620866141732
21
0.6913325590551181
0
LINE
8
BLACK
6
CONTINUOUS
10
0.8170620866141732
20
0.6913325590551181
11
0.8202695669291339
21
0.6881250787401575
0
LINE
8
BLACK
6
CONTINUOUS
10
0.8202695669291339
20
0.6881250787401575
11
0.8222618110236221
21
0.6840499212598425
0
LINE
8
BLACK
6
CONTINUOUS
10
0.8222618110236221
20
0.6840499212598425
11
0.8228346456692913
21
0.6801181102362205
0
LINE
8
BLACK
6
CONTINUOUS
10
0.8228346456692913
20
0.6801181102362205
11
0.8228346456692913
21
0.6683070866141733
0
LINE
8
BLACK
6
CONTINUOUS
10
0.8228346456692913
20
0.6683070866141733
11
0.8222618110236221
21
0.6643752755905512
0
LINE
8
BLACK
6
CONTINUOUS
10
0.8222618110236221
20
0.6643752755905512
11
0.8202695669291339
21
0.6603001181102363
0
LINE
8
BLACK
6
CONTINUOUS
10
0.8202695669291339
20
0.6603001181102363
11
0.8170620866141732
21
0.6570926377952756
0
LINE
8
BLACK
6
CONTINUOUS
10
0.8170620866141732
20
0.6570926377952756
11
0.8129869291338583
21
0.6551003937007874
0
LINE
8
BLACK
6
CONTINUOUS
10
0.8129869291338583
20
0.6551003937007874
11
0.8090551181102362
21
0.6545275590551181
0
LINE
8
BLACK
6
CONTINUOUS
10
0.8090551181102362
20
0.6545275590551181
11
0.7539370078740157
21
0.6545275590551181
0
LINE
8
BLACK
6
CONTINUOUS
10
0.7539370078740157
20
0.6545275590551181
11
0.7500051968503937
21
0.6551003937007874
0
LINE
8
BLACK
6
CONTINUOUS
10
0.7500051968503937
20
0.6551003937007874
11
0.7459300393700787
21
0.6570926377952756
0
LINE
8
BLACK
6
CONTINUOUS
10
0.7459300393700787
20
0.6570926377952756
11
0.7427225590551181
21
0.6603001181102363
0
LINE
8
BLACK
6
CONTINUOUS
10
0.7427225590551181
20
0.6603001181102363
11
0.7407303149606299
21
0.6643752755905512
0
LINE
8
BLACK
6
CONTINUOUS
10
0.7407303149606299
20
0.6643752755905512
11
0.7401574803149606
21
0.6683070866141733
0
LINE
8
BLACK
6
CONTINUOUS
10
0.7401574803149606
20
0.6683070866141733
11
0.7401574803149606
21
0.6801181102362205
0
LINE
8
BLACK
6
CONTINUOUS
10
0.7401574803149606
20
0.6801181102362205
11
0.7407303149606299
21
0.6840499212598425
0
LINE
8
BLACK
6
CONTINUOUS
10
0.7407303149606299
20
0.6840499212598425
11
0.7427225590551181
21
0.6881250787401575
0
LINE
8
BLACK
6
CONTINUOUS
10
0.7427225590551181
20
0.6881250787401575
11
0.7459300393700787
21
0.6913325590551181
0
LINE
8
BLACK
6
CONTINUOUS
10
0.7459300393700787
20
0.6913325590551181
11
0.7500051968503937
21
0.6933248031496063
0
LINE
8
BLACK
6
CONTINUOUS
10
0.7500051968503937
20
0.6933248031496063
11
0.7539370078740157
21
0.6938976377952756
0
LINE
8
BLACK
6
CONTINUOUS
10
0.7539370078740157
20
0.6938976377952756
11
0.8090551181102362
21
0.6938976377952756
0
LINE
8
BLACK
6
CONTINUOUS
10
0.8090551181102362
20
0.6938976377952756
11
0.8129869291338583
21
0.6933248031496063
0
LINE
8
BLACK
6
CONTINUOUS
10
0.8129869291338583
20
0.7425374015748031
11
0.8170620866141732
21
0.7405451574803149
0
LINE
8
BLACK
6
CONTINUOUS
10
0.8170620866141732
20
0.7405451574803149
11
0.8202695669291339
21
0.7373376771653544
0
LINE
8
BLACK
6
CONTINUOUS
10
0.8202695669291339
20
0.7373376771653544
11
0.8222618110236221
21
0.7332625196850393
0
LINE
8
BLACK
6
CONTINUOUS
10
0.8222618110236221
20
0.7332625196850393
11
0.8228346456692913
21
0.7293307086614174
0
LINE
8
BLACK
6
CONTINUOUS
10
0.8228346456692913
20
0.7293307086614174
11
0.8228346456692913
21
0.71751968503937
0
LINE
8
BLACK
6
CONTINUOUS
10
0.8228346456692913
20
0.71751968503937
11
0.8222618110236221
21
0.713587874015748
0
LINE
8
BLACK
6
CONTINUOUS
10
0.8222618110236221
20
0.713587874015748
11
0.8202695669291339
21
0.709512716535433
0
LINE
8
BLACK
6
CONTINUOUS
10
0.8202695669291339
20
0.709512716535433
11
0.8170620866141732
21
0.7063052362204725
0
LINE
8
BLACK
6
CONTINUOUS
10
0.8170620866141732
20
0.7063052362204725
11
0.8129869291338583
21
0.7043129921259842
0
LINE
8
BLACK
6
CONTINUOUS
10
0.8129869291338583
20
0.7043129921259842
11
0.8090551181102362
21
0.7037401574803149
0
LINE
8
BLACK
6
CONTINUOUS
10
0.8090551181102362
20
0.7037401574803149
11
0.7539370078740157
21
0.7037401574803149
0
LINE
8
BLACK
6
CONTINUOUS
10
0.7539370078740157
20
0.7037401574803149
11
0.7500051968503937
21
0.7043129921259842
0
LINE
8
BLACK
6
CONTINUOUS
10
0.7500051968503937
20
0.7043129921259842
11
0.7459300393700787
21
0.7063052362204725
0
LINE
8
BLACK
6
CONTINUOUS
10
0.7459300393700787
20
0.7063052362204725
11
0.7427225590551181
21
0.709512716535433
0
LINE
8
BLACK
6
CONTINUOUS
10
0.7427225590551181
20
0.709512716535433
11
0.7407303149606299
21
0.713587874015748
0
LINE
8
BLACK
6
CONTINUOUS
10
0.7407303149606299
20
0.713587874015748
11
0.7401574803149606
21
0.71751968503937
0
LINE
8
BLACK
6
CONTINUOUS
10
0.7401574803149606
20
0.71751968503937
11
0.7401574803149606
21
0.7293307086614174
0
LINE
8
BLACK
6
CONTINUOUS
10
0.7401574803149606
20
0.7293307086614174
11
0.7407303149606299
21
0.7332625196850393
0
LINE
8
BLACK
6
CONTINUOUS
10
0.7407303149606299
20
0.7332625196850393
11
0.7427225590551181
21
0.7373376771653544
0
LINE
8
BLACK
6
CONTINUOUS
10
0.7427225590551181
20
0.7373376771653544
11
0.7459300393700787
21
0.7405451574803149
0
LINE
8
BLACK
6
CONTINUOUS
10
0.7459300393700787
20
0.7405451574803149
11
0.7500051968503937
21
0.7425374015748031
0
LINE
8
BLACK
6
CONTINUOUS
10
0.7500051968503937
20
0.7425374015748031
11
0.7539370078740157
21
0.7431102362204725
0
LINE
8
BLACK
6
CONTINUOUS
10
0.7539370078740157
20
0.7431102362204725
11
0.8090551181102362
21
0.7431102362204725
0
LINE
8
BLACK
6
CONTINUOUS
10
0.8090551181102362
20
0.7431102362204725
11
0.8129869291338583
21
0.7425374015748031
0
LINE
8
BLACK
6
CONTINUOUS
10
0.9540811023622047
20
0.8235100393700787
11
0.9590657874015748
21
0.8217658267716536
0
LINE
8
BLACK
6
CONTINUOUS
10
0.9590657874015748
20
0.8217658267716536
11
0.9633148818897638
21
0.8186298425196851
0
LINE
8
BLACK
6
CONTINUOUS
10
0.9633148818897638
20
0.8186298425196851
11
0.9664508661417323
21
0.8143807480314961
0
LINE
8
BLACK
6
CONTINUOUS
10
0.9664508661417323
20
0.8143807480314961
11
0.9681950787401574
21
0.809396062992126
0
LINE
8
BLACK
6
CONTINUOUS
10
0.9681950787401574
20
0.809396062992126
11
0.968503937007874
21
0.8061023622047244
0
LINE
8
BLACK
6
CONTINUOUS
10
0.968503937007874
20
0.8061023622047244
11
0.968503937007874
21
0.7864173228346456
0
LINE
8
BLACK
6
CONTINUOUS
10
0.968503937007874
20
0.7864173228346456
11
0.9681950787401574
21
0.7831236220472441
0
LINE
8
BLACK
6
CONTINUOUS
10
0.9681950787401574
20
0.7831236220472441
11
0.9664508661417323
21
0.778138937007874
0
LINE
8
BLACK
6
CONTINUOUS
10
0.9664508661417323
20
0.778138937007874
11
0.9633148818897638
21
0.7738898425196851
0
LINE
8
BLACK
6
CONTINUOUS
10
0.9633148818897638
20
0.7738898425196851
11
0.9590657874015748
21
0.7707538582677165
0
LINE
8
BLACK
6
CONTINUOUS
10
0.9590657874015748
20
0.7707538582677165
11
0.9540811023622047
21
0.7690096456692913
0
LINE
8
BLACK
6
CONTINUOUS
10
0.9540811023622047
20
0.7690096456692913
11
0.9507874015748031
21
0.7687007874015748
0
LINE
8
BLACK
6
CONTINUOUS
10
0.9507874015748031
20
0.7687007874015748
11
0.8641732283464567
21
0.7687007874015748
0
LINE
8
BLACK
6
CONTINUOUS
10
0.8641732283464567
20
0.7687007874015748
11
0.8608795275590551
21
0.7690096456692913
0
LINE
8
BLACK
6
CONTINUOUS
10
0.8608795275590551
20
0.7690096456692913
11
0.8558948425196851
21
0.7707538582677165
0
LINE
8
BLACK
6
CONTINUOUS
10
0.8558948425196851
20
0.7707538582677165
11
0.8516457480314961
21
0.7738898425196851
0
LINE
8
BLACK
6
CONTINUOUS
10
0.8516457480314961
20
0.7738898425196851
11
0.8485097637795276
21
0.778138937007874
0
LINE
8
BLACK
6
CONTINUOUS
10
0.8485097637795276
20
0.778138937007874
11
0.8467655511811023
21
0.7831236220472441
0
LINE
8
BLACK
6
CONTINUOUS
10
0.8467655511811023
20
0.7831236220472441
11
0.8464566929133858
21
0.7864173228346456
0
LINE
8
BLACK
6
CONTINUOUS
10
0.8464566929133858
20
0.7864173228346456
11
0.8464566929133858
21
0.8061023622047244
0
LINE
8
BLACK
6
CONTINUOUS
10
0.8464566929133858
20
0.8061023622047244
11
0.8467655511811023
21
0.809396062992126
0
LINE
8
BLACK
6
CONTINUOUS
10
0.8467655511811023
20
0.809396062992126
11
0.8485097637795276
21
0.8143807480314961
0
LINE
8
BLACK
6
CONTINUOUS
10
0.8485097637795276
20
0.8143807480314961
11
0.8516457480314961
21
0.8186298425196851
0
LINE
8
BLACK
6
CONTINUOUS
10
0.8516457480314961
20
0.8186298425196851
11
0.8558948425196851
21
0.8217658267716536
0
LINE
8
BLACK
6
CONTINUOUS
10
0.8558948425196851
20
0.8217658267716536
11
0.8608795275590551
21
0.8235100393700787
0
LINE
8
BLACK
6
CONTINUOUS
10
0.8608795275590551
20
0.8235100393700787
11
0.8641732283464567
21
0.8238188976377953
0
LINE
8
BLACK
6
CONTINUOUS
10
0.8641732283464567
20
0.8238188976377953
11
0.9507874015748031
21
0.8238188976377953
0
LINE
8
BLACK
6
CONTINUOUS
10
0.9507874015748031
20
0.8238188976377953
11
0.9540811023622047
21
0.8235100393700787
0
LINE
8
BLACK
6
CONTINUOUS
10
0.1122113385826772
20
0.9629352362204724
11
0.1210246062992126
21
0.9600716141732283
0
LINE
8
BLACK
6
CONTINUOUS
10
0.1210246062992126
20
0.9600716141732283
11
0.1292814173228346
21
0.9558645669291338
0
LINE
8
BLACK
6
CONTINUOUS
10
0.1292814173228346
20
0.9558645669291338
11
0.1367784251968504
21
0.9504176771653543
0
LINE
8
BLACK
6
CONTINUOUS
10
0.1367784251968504
20
0.9504176771653543
11
0.143331062992126
21
0.9438650393700787
0
LINE
8
BLACK
6
CONTINUOUS
10
0.143331062992126
20
0.9438650393700787
11
0.1487779527559055
21
0.936368031496063
0
LINE
8
BLACK
6
CONTINUOUS
10
0.1487779527559055
20
0.936368031496063
11
0.152985
21
0.9281112204724409
0
LINE
8
BLACK
6
CONTINUOUS
10
0.152985
20
0.9281112204724409
11
0.1558486220472441
21
0.9192979527559055
0
LINE
8
BLACK
6
CONTINUOUS
10
0.1558486220472441
20
0.9192979527559055
11
0.1572982677165354
21
0.9101452362204724
0
LINE
8
BLACK
6
CONTINUOUS
10
0.1572982677165354
20
0.9101452362204724
11
0.1572982677165354
21
0.9008783858267716
0
LINE
8
BLACK
6
CONTINUOUS
10
0.1572982677165354
20
0.9008783858267716
11
0.1558486220472441
21
0.8917256692913386
0
LINE
8
BLACK
6
CONTINUOUS
10
0.1558486220472441
20
0.8917256692913386
11
0.152985
21
0.8829124015748031
0
LINE
8
BLACK
6
CONTINUOUS
10
0.152985
20
0.8829124015748031
11
0.1487779527559055
21
0.874655590551181
0
LINE
8
BLACK
6
CONTINUOUS
10
0.1487779527559055
20
0.874655590551181
11
0.143331062992126
21
0.8671585826771653
0
LINE
8
BLACK
6
CONTINUOUS
10
0.143331062992126
20
0.8671585826771653
11
0.1367784251968504
21
0.8606059448818898
0
LINE
8
BLACK
6
CONTINUOUS
10
0.1367784251968504
20
0.8606059448818898
11
0.1292814173228346
21
0.8551590551181102
0
LINE
8
BLACK
6
CONTINUOUS
10
0.1292814173228346
20
0.8551590551181102
11
0.1210246062992126
21
0.8509520078740157
0
LINE
8
BLACK
6
CONTINUOUS
10
0.1210246062992126
20
0.8509520078740157
11
0.1122113385826772
21
0.8480883858267716
0
LINE
8
BLACK
6
CONTINUOUS
10
0.1122113385826772
20
0.8480883858267716
11
0.1030586220472441
21
0.8466387401574803
0
LINE
8
BLACK
6
CONTINUOUS
10
0.1030586220472441
20
0.8466387401574803
11
0.0937917716535433
21
0.8466387401574803
0
LINE
8
BLACK
6
CONTINUOUS
10
0.0937917716535433
20
0.8466387401574803
11
0.0846390551181102
21
0.8480883858267716
0
LINE
8
BLACK
6
CONTINUOUS
10
0.0846390551181102
20
0.8480883858267716
11
0.0758257874015748
21
0.8509520078740157
0
LINE
8
BLACK
6
CONTINUOUS
10
0.0758257874015748
20
0.8509520078740157
11
0.0675689763779528
21
0.8551590551181102
0
LINE
8
BLACK
6
CONTINUOUS
10
0.0675689763779528
20
0.8551590551181102
11
0.060071968503937
21
0.8606059448818898
0
LINE
8
BLACK
6
CONTINUOUS
10
0.060071968503937
20
0.8606059448818898
11
0.0535193307086614
21
0.8671585826771653
0
LINE
8
BLACK
6
CONTINUOUS
10
0.0535193307086614
20
0.8671585826771653
11
0.0480724409448819
21
0.874655590551181
0
LINE
8
BLACK
6
CONTINUOUS
10
0.0480724409448819
20
0.874655590551181
11
0.0438653937007874
21
0.8829124015748031
0
LINE
8
BLACK
6
CONTINUOUS
10
0.0438653937007874
20
0.8829124015748031
11
0.0410017716535433
21
0.8917256692913386
0
LINE
8
BLACK
6
CONTINUOUS
10
0.0410017716535433
20
0.8917256692913386
11
0.039552125984252
21
0.9008783858267716
0
LINE
8
BLACK
6
CONTINUOUS
10
0.039552125984252
20
0.9008783858267716
11
0.039552125984252
21
0.9101452362204724
0
LINE
8
BLACK
6
CONTINUOUS
10
0.039552125984252
20
0.9101452362204724
11
0.0410017716535433
21
0.9192979527559055
0
LINE
8
BLACK
6
CONTINUOUS
10
0.0410017716535433
20
0.9192979527559055
11
0.0438653937007874
21
0.9281112204724409
0
LINE
8
BLACK
6
CONTINUOUS
10
0.0438653937007874
20
0.9281112204724409
11
0.0480724409448819
21
0.936368031496063
0
LINE
8
BLACK
6
CONTINUOUS
10
0.0480724409448819
20
0.936368031496063
11
0.0535193307086614
21
0.9438650393700787
0
LINE
8
BLACK
6
CONTINUOUS
10
0.0535193307086614
20
0.9438650393700787
11
0.060071968503937
21
0.9504176771653543
0
LINE
8
BLACK
6
CONTINUOUS
10
0.060071968503937
20
0.9504176771653543
11
0.0675689763779528
21
0.9558645669291338
0
LINE
8
BLACK
6
CONTINUOUS
10
0.0675689763779528
20
0.9558645669291338
11
0.0758257874015748
21
0.9600716141732283
0
LINE
8
BLACK
6
CONTINUOUS
10
0.0758257874015748
20
0.9600716141732283
11
0.0846390551181102
21
0.9629352362204724
0
LINE
8
BLACK
6
CONTINUOUS
10
0.0846390551181102
20
0.9629352362204724
11
0.0937917716535433
21
0.9643848818897638
0
LINE
8
BLACK
6
CONTINUOUS
10
0.0937917716535433
20
0.9643848818897638
11
0.1030586220472441
21
0.9643848818897638
0
LINE
8
BLACK
6
CONTINUOUS
10
0.1030586220472441
20
0.9643848818897638
11
0.1122113385826772
21
0.9629352362204724
0
LINE
8
BLACK
6
CONTINUOUS
10
0.5059121259842519
20
0.9629352362204724
11
0.5147253937007874
21
0.9600716141732283
0
LINE
8
BLACK
6
CONTINUOUS
10
0.5147253937007874
20
0.9600716141732283
11
0.5229822047244095
21
0.9558645669291338
0
LINE
8
BLACK
6
CONTINUOUS
10
0.5229822047244095
20
0.9558645669291338
11
0.5304792125984252
21
0.9504176771653543
0
LINE
8
BLACK
6
CONTINUOUS
10
0.5304792125984252
20
0.9504176771653543
11
0.5370318503937008
21
0.9438650393700787
0
LINE
8
BLACK
6
CONTINUOUS
10
0.5370318503937008
20
0.9438650393700787
11
0.5424787401574803
21
0.936368031496063
0
LINE
8
BLACK
6
CONTINUOUS
10
0.5424787401574803
20
0.936368031496063
11
0.5466857874015748
21
0.9281112204724409
0
LINE
8
BLACK
6
CONTINUOUS
10
0.5466857874015748
20
0.9281112204724409
11
0.5495494094488189
21
0.9192979527559055
0
LINE
8
BLACK
6
CONTINUOUS
10
0.5495494094488189
20
0.9192979527559055
11
0.5509990551181102
21
0.9101452362204724
0
LINE
8
BLACK
6
CONTINUOUS
10
0.5509990551181102
20
0.9101452362204724
11
0.5509990551181102
21
0.9008783858267716
0
LINE
8
BLACK
6
CONTINUOUS
10
0.5509990551181102
20
0.9008783858267716
11
0.5495494094488189
21
0.8917256692913386
0
LINE
8
BLACK
6
CONTINUOUS
10
0.5495494094488189
20
0.8917256692913386
11
0.5466857874015748
21
0.8829124015748031
0
LINE
8
BLACK
6
CONTINUOUS
10
0.5466857874015748
20
0.8829124015748031
11
0.5424787401574803
21
0.874655590551181
0
LINE
8
BLACK
6
CONTINUOUS
10
0.5424787401574803
20
0.874655590551181
11
0.5370318503937008
21
0.8671585826771653
0
LINE
8
BLACK
6
CONTINUOUS
10
0.5370318503937008
20
0.8671585826771653
11
0.5304792125984252
21
0.8606059448818898
0
LINE
8
BLACK
6
CONTINUOUS
10
0.5304792125984252
20
0.8606059448818898
11
0.5229822047244095
21
0.8551590551181102
0
LINE
8
BLACK
6
CONTINUOUS
10
0.5229822047244095
20
0.8551590551181102
11
0.5147253937007874
21
0.8509520078740157
0
LINE
8
BLACK
6
CONTINUOUS
10
0.5147253937007874
20
0.8509520078740157
11
0.5059121259842519
21
0.8480883858267716
0
LINE
8
BLACK
6
CONTINUOUS
10
0.5059121259842519
20
0.8480883858267716
11
0.4967594094488189
21
0.8466387401574803
0
LINE
8
BLACK
6
CONTINUOUS
10
0.4967594094488189
20
0.8466387401574803
11
0.4874925590551181
21
0.8466387401574803
0
LINE
8
BLACK
6
CONTINUOUS
10
0.4874925590551181
20
0.8466387401574803
11
0.478339842519685
21
0.8480883858267716
0
LINE
8
BLACK
6
CONTINUOUS
10
0.478339842519685
20
0.8480883858267716
11
0.4695265748031496
21
0.8509520078740157
0
LINE
8
BLACK
6
CONTINUOUS
10
0.4695265748031496
20
0.8509520078740157
11
0.4612697637795276
21
0.8551590551181102
0
LINE
8
BLACK
6
CONTINUOUS
10
0.4612697637795276
20
0.8551590551181102
11
0.4537727559055118
21
0.8606059448818898
0
LINE
8
BLACK
6
CONTINUOUS
10
0.4537727559055118
20
0.8606059448818898
11
0.4472201181102362
21
0.8671585826771653
0
LINE
8
BLACK
6
CONTINUOUS
10
0.4472201181102362
20
0.8671585826771653
11
0.4417732283464567
21
0.874655590551181
0
LINE
8
BLACK
6
CONTINUOUS
10
0.4417732283464567
20
0.874655590551181
11
0.4375661811023622
21
0.8829124015748031
0
LINE
8
BLACK
6
CONTINUOUS
10
0.4375661811023622
20
0.8829124015748031
11
0.4347025590551181
21
0.8917256692913386
0
LINE
8
BLACK
6
CONTINUOUS
10
0.4347025590551181
20
0.8917256692913386
11
0.4332529133858268
21
0.9008783858267716
0
LINE
8
BLACK
6
CONTINUOUS
10
0.4332529133858268
20
0.9008783858267716
11
0.4332529133858268
21
0.9101452362204724
0
LINE
8
BLACK
6
CONTINUOUS
10
0.4332529133858268
20
0.9101452362204724
11
0.4347025590551181
21
0.9192979527559055
0
LINE
8
BLACK
6
CONTINUOUS
10
0.4347025590551181
20
0.9192979527559055
11
0.4375661811023622
21
0.9281112204724409
0
LINE
8
BLACK
6
CONTINUOUS
10
0.4375661811023622
20
0.9281112204724409
11
0.4417732283464567
21
0.936368031496063
0
LINE
8
BLACK
6
CONTINUOUS
10
0.4417732283464567
20
0.936368031496063
11
0.4472201181102362
21
0.9438650393700787
0
LINE
8
BLACK
6
CONTINUOUS
10
0.4472201181102362
20
0.9438650393700787
11
0.4537727559055118
21
0.9504176771653543
0
LINE
8
BLACK
6
CONTINUOUS
10
0.4537727559055118
20
0.9504176771653543
11
0.4612697637795276
21
0.9558645669291338
0
LINE
8
BLACK
6
CONTINUOUS
10
0.4612697637795276
20
0.9558645669291338
11
0.4695265748031496
21
0.9600716141732283
0
LINE
8
BLACK
6
CONTINUOUS
10
0.4695265748031496
20
0.9600716141732283
11
0.478339842519685
21
0.9629352362204724
0
LINE
8
BLACK
6
CONTINUOUS
10
0.478339842519685
20
0.9629352362204724
11
0.4874925590551181
21
0.9643848818897638
0
LINE
8
BLACK
6
CONTINUOUS
10
0.4874925590551181
20
0.9643848818897638
11
0.4967594094488189
21
0.9643848818897638
0
LINE
8
BLACK
6
CONTINUOUS
10
0.4967594094488189
20
0.9643848818897638
11
0.5059121259842519
21
0.9629352362204724
0
LINE
8
BLACK
6
CONTINUOUS
10
0.8996129133858267
20
0.9629352362204724
11
0.9084261811023622
21
0.9600716141732283
0
LINE
8
BLACK
6
CONTINUOUS
10
0.9084261811023622
20
0.9600716141732283
11
0.9166829921259843
21
0.9558645669291338
0
LINE
8
BLACK
6
CONTINUOUS
10
0.9166829921259843
20
0.9558645669291338
11
0.92418
21
0.9504176771653543
0
LINE
8
BLACK
6
CONTINUOUS
10
0.92418
20
0.9504176771653543
11
0.9307326377952756
21
0.9438650393700787
0
LINE
8
BLACK
6
CONTINUOUS
10
0.9307326377952756
20
0.9438650393700787
11
0.9361795275590551
21
0.936368031496063
0
LINE
8
BLACK
6
CONTINUOUS
10
0.9361795275590551
20
0.936368031496063
11
0.9403865748031496
21
0.9281112204724409
0
LINE
8
BLACK
6
CONTINUOUS
10
0.9403865748031496
20
0.9281112204724409
11
0.9432501968503937
21
0.9192979527559055
0
LINE
8
BLACK
6
CONTINUOUS
10
0.9432501968503937
20
0.9192979527559055
11
0.944699842519685
21
0.9101452362204724
0
LINE
8
BLACK
6
CONTINUOUS
10
0.944699842519685
20
0.9101452362204724
11
0.944699842519685
21
0.9008783858267716
0
LINE
8
BLACK
6
CONTINUOUS
10
0.944699842519685
20
0.9008783858267716
11
0.9432501968503937
21
0.8917256692913386
0
LINE
8
BLACK
6
CONTINUOUS
10
0.9432501968503937
20
0.8917256692913386
11
0.9403865748031496
21
0.8829124015748031
0
LINE
8
BLACK
6
CONTINUOUS
10
0.9403865748031496
20
0.8829124015748031
11
0.9361795275590551
21
0.874655590551181
0
LINE
8
BLACK
6
CONTINUOUS
10
0.9361795275590551
20
0.874655590551181
11
0.9307326377952756
21
0.8671585826771653
0
LINE
8
BLACK
6
CONTINUOUS
10
0.9307326377952756
20
0.8671585826771653
11
0.92418
21
0.8606059448818898
0
LINE
8
BLACK
6
CONTINUOUS
10
0.92418
20
0.8606059448818898
11
0.9166829921259843
21
0.8551590551181102
0
LINE
8
BLACK
6
CONTINUOUS
10
0.9166829921259843
20
0.8551590551181102
11
0.9084261811023622
21
0.8509520078740157
0
LINE
8
BLACK
6
CONTINUOUS
10
0.9084261811023622
20
0.8509520078740157
11
0.8996129133858267
21
0.8480883858267716
0
LINE
8
BLACK
6
CONTINUOUS
10
0.8996129133858267
20
0.8480883858267716
11
0.8904601968503937
21
0.8466387401574803
0
LINE
8
BLACK
6
CONTINUOUS
10
0.8904601968503937
20
0.8466387401574803
11
0.8811933464566929
21
0.8466387401574803
0
LINE
8
BLACK
6
CONTINUOUS
10
0.8811933464566929
20
0.8466387401574803
11
0.8720406299212599
21
0.8480883858267716
0
LINE
8
BLACK
6
CONTINUOUS
10
0.8720406299212599
20
0.8480883858267716
11
0.8632273622047244
21
0.8509520078740157
0
LINE
8
BLACK
6
CONTINUOUS
10
0.8632273622047244
20
0.8509520078740157
11
0.8549705511811023
21
0.8551590551181102
0
LINE
8
BLACK
6
CONTINUOUS
10
0.8549705511811023
20
0.8551590551181102
11
0.8474735433070866
21
0.8606059448818898
0
LINE
8
BLACK
6
CONTINUOUS
10
0.8474735433070866
20
0.8606059448818898
11
0.840920905511811
21
0.8671585826771653
0
LINE
8
BLACK
6
CONTINUOUS
10
0.840920905511811
20
0.8671585826771653
11
0.8354740157480315
21
0.874655590551181
0
LINE
8
BLACK
6
CONTINUOUS
10
0.8354740157480315
20
0.874655590551181
11
0.831266968503937
21
0.8829124015748031
0
LINE
8
BLACK
6
CONTINUOUS
10
0.831266968503937
20
0.8829124015748031
11
0.8284033464566929
21
0.8917256692913386
0
LINE
8
BLACK
6
CONTINUOUS
10
0.8284033464566929
20
0.8917256692913386
11
0.8269537007874016
21
0.9008783858267716
0
LINE
8
BLACK
6
CONTINUOUS
10
0.8269537007874016
20
0.9008783858267716
11
0.8269537007874016
21
0.9101452362204724
0
LINE
8
BLACK
6
CONTINUOUS
10
0.8269537007874016
20
0.9101452362204724
11
0.8284033464566929
21
0.9192979527559055
0
LINE
8
BLACK
6
CONTINUOUS
10
0.8284033464566929
20
0.9192979527559055
11
0.831266968503937
21
0.9281112204724409
0
LINE
8
BLACK
6
CONTINUOUS
10
0.831266968503937
20
0.9281112204724409
11
0.8354740157480315
21
0.936368031496063
0
LINE
8
BLACK
6
CONTINUOUS
10
0.8354740157480315
20
0.936368031496063
11
0.840920905511811
21
0.9438650393700787
0
LINE
8
BLACK
6
CONTINUOUS
10
0.840920905511811
20
0.9438650393700787
11
0.8474735433070866
21
0.9504176771653543
0
LINE
8
BLACK
6
CONTINUOUS
10
0.8474735433070866
20
0.9504176771653543
11
0.8549705511811023
21
0.9558645669291338
0
LINE
8
BLACK
6
CONTINUOUS
10
0.8549705511811023
20
0.9558645669291338
11
0.8632273622047244
21
0.9600716141732283
0
LINE
8
BLACK
6
CONTINUOUS
10
0.8632273622047244
20
0.9600716141732283
11
0.8720406299212599
21
0.9629352362204724
0
LINE
8
BLACK
6
CONTINUOUS
10
0.8720406299212599
20
0.9629352362204724
11
0.8811933464566929
21
0.9643848818897638
0
LINE
8
BLACK
6
CONTINUOUS
10
0.8811933464566929
20
0.9643848818897638
11
0.8904601968503937
21
0.9643848818897638
0
LINE
8
BLACK
6
CONTINUOUS
10
0.8904601968503937
20
0.9643848818897638
11
0.8996129133858267
21
0.9629352362204724
  0
ENDSEC
  0
EOF
