  0
SECTION
  2
HEADER
  9
$ANGBASE
  50
0.0
  9
$ANGDIR
  70
1
  9
$MEASUREMENT
  70
0
  0
ENDSEC
  0
SECTION
  2
TABLES
  0
TABLE
  2
LTYPE
  70
4
  0
LTYPE
  5
40F
  2
CONTINUOUS
  70
0
  3
Solid line
  72
65
  73
0
  40
0.0
  0
LTYPE
  5
410
  2
DASHDOT
 70
0
  3
Dash Dot ____ _ ____ _
 72
65
 73
4
 40
2.0
 49
1.25
 49
-0.25
 49
0.25
 49
-0.25
  0
LTYPE
  5
411
  2
DASHED
 70
0
  3
Dashed __ __ __ __ __
 72
65
 73
2
 40
0.75
 49
0.5
 49
-0.25
  0
LTYPE
  5
43B
  2
DOTTED
 70
0
  3
Dotted .  .  .  .
 72
65
 73
2
 40
0.2
 49
0.0
 49
-0.2
  0
ENDTAB
  0
TABLE
  2
STYLE
  70
4
  0
STYLE
  2
KICAD
  70
0
  40
0
  41
1
  42
1
  50
0
  71
0
  3
isocp.shx
  0
STYLE
  2
KICADB
  70
0
  40
0
  41
1
  42
1
  50
0
  71
0
  3
isocp.shx
  0
STYLE
  2
KICADI
  70
0
  40
0
  41
1
  42
1
  50
15
  71
0
  3
isocp.shx
  0
STYLE
  2
KICADBI
  70
0
  40
0
  41
1
  42
1
  50
15
  71
0
  3
isocp.shx
  0
ENDTAB
  0
TABLE
  2
LAYER
  70
1
  0
LAYER
  2
BLACK
  70
0
  62
7
  6
CONTINUOUS
  0
ENDTAB
  0
ENDSEC
  0
SECTION
  2
ENTITIES
0
LINE
8
BLACK
6
CONTINUOUS
10
0.619736
20
0.0980265
11
0.62261
21
0.0961063
0
LINE
8
BLACK
6
CONTINUOUS
10
0.62261
20
0.0961063
11
0.62453
21
0.0932324
0
LINE
8
BLACK
6
CONTINUOUS
10
0.62453
20
0.0932324
11
0.625205
21
0.0898425
0
LINE
8
BLACK
6
CONTINUOUS
10
0.625205
20
0.0898425
11
0.625205
21
0.0701575
0
LINE
8
BLACK
6
CONTINUOUS
10
0.625205
20
0.0701575
11
0.62453
21
0.0667676
0
LINE
8
BLACK
6
CONTINUOUS
10
0.62453
20
0.0667676
11
0.62261
21
0.0638937
0
LINE
8
BLACK
6
CONTINUOUS
10
0.62261
20
0.0638937
11
0.619736
21
0.0619735
0
LINE
8
BLACK
6
CONTINUOUS
10
0.619736
20
0.0619735
11
0.616346
21
0.0612992
0
LINE
8
BLACK
6
CONTINUOUS
10
0.616346
20
0.0612992
11
0.59863
21
0.0612992
0
LINE
8
BLACK
6
CONTINUOUS
10
0.59863
20
0.0612992
11
0.59524
21
0.0619735
0
LINE
8
BLACK
6
CONTINUOUS
10
0.59524
20
0.0619735
11
0.592366
21
0.0638937
0
LINE
8
BLACK
6
CONTINUOUS
10
0.592366
20
0.0638937
11
0.590446
21
0.0667676
0
LINE
8
BLACK
6
CONTINUOUS
10
0.590446
20
0.0667676
11
0.589772
21
0.0701575
0
LINE
8
BLACK
6
CONTINUOUS
10
0.589772
20
0.0701575
11
0.589772
21
0.0898425
0
LINE
8
BLACK
6
CONTINUOUS
10
0.589772
20
0.0898425
11
0.590446
21
0.0932324
0
LINE
8
BLACK
6
CONTINUOUS
10
0.590446
20
0.0932324
11
0.592366
21
0.0961063
0
LINE
8
BLACK
6
CONTINUOUS
10
0.592366
20
0.0961063
11
0.59524
21
0.0980265
0
LINE
8
BLACK
6
CONTINUOUS
10
0.59524
20
0.0980265
11
0.59863
21
0.0987008
0
LINE
8
BLACK
6
CONTINUOUS
10
0.59863
20
0.0987008
11
0.616346
21
0.0987008
0
LINE
8
BLACK
6
CONTINUOUS
10
0.616346
20
0.0987008
11
0.619736
21
0.0980265
0
LINE
8
BLACK
6
CONTINUOUS
10
0.68076
20
0.0980265
11
0.683634
21
0.0961063
0
LINE
8
BLACK
6
CONTINUOUS
10
0.683634
20
0.0961063
11
0.685554
21
0.0932324
0
LINE
8
BLACK
6
CONTINUOUS
10
0.685554
20
0.0932324
11
0.686228
21
0.0898425
0
LINE
8
BLACK
6
CONTINUOUS
10
0.686228
20
0.0898425
11
0.686228
21
0.0701575
0
LINE
8
BLACK
6
CONTINUOUS
10
0.686228
20
0.0701575
11
0.685554
21
0.0667676
0
LINE
8
BLACK
6
CONTINUOUS
10
0.685554
20
0.0667676
11
0.683634
21
0.0638937
0
LINE
8
BLACK
6
CONTINUOUS
10
0.683634
20
0.0638937
11
0.68076
21
0.0619735
0
LINE
8
BLACK
6
CONTINUOUS
10
0.68076
20
0.0619735
11
0.67737
21
0.0612992
0
LINE
8
BLACK
6
CONTINUOUS
10
0.67737
20
0.0612992
11
0.659654
21
0.0612992
0
LINE
8
BLACK
6
CONTINUOUS
10
0.659654
20
0.0612992
11
0.656264
21
0.0619735
0
LINE
8
BLACK
6
CONTINUOUS
10
0.656264
20
0.0619735
11
0.65339
21
0.0638937
0
LINE
8
BLACK
6
CONTINUOUS
10
0.65339
20
0.0638937
11
0.65147
21
0.0667676
0
LINE
8
BLACK
6
CONTINUOUS
10
0.65147
20
0.0667676
11
0.650795
21
0.0701575
0
LINE
8
BLACK
6
CONTINUOUS
10
0.650795
20
0.0701575
11
0.650795
21
0.0898425
0
LINE
8
BLACK
6
CONTINUOUS
10
0.650795
20
0.0898425
11
0.65147
21
0.0932324
0
LINE
8
BLACK
6
CONTINUOUS
10
0.65147
20
0.0932324
11
0.65339
21
0.0961063
0
LINE
8
BLACK
6
CONTINUOUS
10
0.65339
20
0.0961063
11
0.656264
21
0.0980265
0
LINE
8
BLACK
6
CONTINUOUS
10
0.656264
20
0.0980265
11
0.659654
21
0.0987008
0
LINE
8
BLACK
6
CONTINUOUS
10
0.659654
20
0.0987008
11
0.67737
21
0.0987008
0
LINE
8
BLACK
6
CONTINUOUS
10
0.67737
20
0.0987008
11
0.68076
21
0.0980265
0
LINE
8
BLACK
6
CONTINUOUS
10
0.386467
20
0.119534
11
0.389661
21
0.117401
0
LINE
8
BLACK
6
CONTINUOUS
10
0.389661
20
0.117401
11
0.391794
21
0.114208
0
LINE
8
BLACK
6
CONTINUOUS
10
0.391794
20
0.114208
11
0.392543
21
0.110441
0
LINE
8
BLACK
6
CONTINUOUS
10
0.392543
20
0.110441
11
0.392543
21
0.0907559
0
LINE
8
BLACK
6
CONTINUOUS
10
0.392543
20
0.0907559
11
0.391794
21
0.0869893
0
LINE
8
BLACK
6
CONTINUOUS
10
0.391794
20
0.0869893
11
0.389661
21
0.0837962
0
LINE
8
BLACK
6
CONTINUOUS
10
0.389661
20
0.0837962
11
0.386467
21
0.0816626
0
LINE
8
BLACK
6
CONTINUOUS
10
0.386467
20
0.0816626
11
0.382701
21
0.0809134
0
LINE
8
BLACK
6
CONTINUOUS
10
0.382701
20
0.0809134
11
0.345299
21
0.0809134
0
LINE
8
BLACK
6
CONTINUOUS
10
0.345299
20
0.0809134
11
0.341533
21
0.0816626
0
LINE
8
BLACK
6
CONTINUOUS
10
0.341533
20
0.0816626
11
0.338339
21
0.0837962
0
LINE
8
BLACK
6
CONTINUOUS
10
0.338339
20
0.0837962
11
0.336206
21
0.0869893
0
LINE
8
BLACK
6
CONTINUOUS
10
0.336206
20
0.0869893
11
0.335457
21
0.0907559
0
LINE
8
BLACK
6
CONTINUOUS
10
0.335457
20
0.0907559
11
0.335457
21
0.110441
0
LINE
8
BLACK
6
CONTINUOUS
10
0.335457
20
0.110441
11
0.336206
21
0.114208
0
LINE
8
BLACK
6
CONTINUOUS
10
0.336206
20
0.114208
11
0.338339
21
0.117401
0
LINE
8
BLACK
6
CONTINUOUS
10
0.338339
20
0.117401
11
0.341533
21
0.119534
0
LINE
8
BLACK
6
CONTINUOUS
10
0.341533
20
0.119534
11
0.345299
21
0.120283
0
LINE
8
BLACK
6
CONTINUOUS
10
0.345299
20
0.120283
11
0.382701
21
0.120283
0
LINE
8
BLACK
6
CONTINUOUS
10
0.382701
20
0.120283
11
0.386467
21
0.119534
0
LINE
8
BLACK
6
CONTINUOUS
10
0.10416
20
0.128188
11
0.107353
21
0.126054
0
LINE
8
BLACK
6
CONTINUOUS
10
0.107353
20
0.126054
11
0.109487
21
0.122861
0
LINE
8
BLACK
6
CONTINUOUS
10
0.109487
20
0.122861
11
0.110236
21
0.119094
0
LINE
8
BLACK
6
CONTINUOUS
10
0.110236
20
0.119094
11
0.110236
21
0.0994094
0
LINE
8
BLACK
6
CONTINUOUS
10
0.110236
20
0.0994094
11
0.109487
21
0.0956429
0
LINE
8
BLACK
6
CONTINUOUS
10
0.109487
20
0.0956429
11
0.107353
21
0.0924497
0
LINE
8
BLACK
6
CONTINUOUS
10
0.107353
20
0.0924497
11
0.10416
21
0.0903161
0
LINE
8
BLACK
6
CONTINUOUS
10
0.10416
20
0.0903161
11
0.100394
21
0.0895669
0
LINE
8
BLACK
6
CONTINUOUS
10
0.100394
20
0.0895669
11
0.0137795
21
0.0895669
0
LINE
8
BLACK
6
CONTINUOUS
10
0.0137795
20
0.0895669
11
0.010013
21
0.0903161
0
LINE
8
BLACK
6
CONTINUOUS
10
0.010013
20
0.0903161
11
0.0068198
21
0.0924497
0
LINE
8
BLACK
6
CONTINUOUS
10
0.0068198
20
0.0924497
11
0.00468622
21
0.0956429
0
LINE
8
BLACK
6
CONTINUOUS
10
0.00468622
20
0.0956429
11
0.00393701
21
0.0994094
0
LINE
8
BLACK
6
CONTINUOUS
10
0.00393701
20
0.0994094
11
0.00393701
21
0.119094
0
LINE
8
BLACK
6
CONTINUOUS
10
0.00393701
20
0.119094
11
0.00468622
21
0.122861
0
LINE
8
BLACK
6
CONTINUOUS
10
0.00468622
20
0.122861
11
0.0068198
21
0.126054
0
LINE
8
BLACK
6
CONTINUOUS
10
0.0068198
20
0.126054
11
0.010013
21
0.128188
0
LINE
8
BLACK
6
CONTINUOUS
10
0.010013
20
0.128188
11
0.0137795
21
0.128937
0
LINE
8
BLACK
6
CONTINUOUS
10
0.0137795
20
0.128937
11
0.100394
21
0.128937
0
LINE
8
BLACK
6
CONTINUOUS
10
0.100394
20
0.128937
11
0.10416
21
0.128188
0
LINE
8
BLACK
6
CONTINUOUS
10
0.974239
20
0.128188
11
0.977432
21
0.126054
0
LINE
8
BLACK
6
CONTINUOUS
10
0.977432
20
0.126054
11
0.979566
21
0.122861
0
LINE
8
BLACK
6
CONTINUOUS
10
0.979566
20
0.122861
11
0.980315
21
0.119094
0
LINE
8
BLACK
6
CONTINUOUS
10
0.980315
20
0.119094
11
0.980315
21
0.0994094
0
LINE
8
BLACK
6
CONTINUOUS
10
0.980315
20
0.0994094
11
0.979566
21
0.0956429
0
LINE
8
BLACK
6
CONTINUOUS
10
0.979566
20
0.0956429
11
0.977432
21
0.0924497
0
LINE
8
BLACK
6
CONTINUOUS
10
0.977432
20
0.0924497
11
0.974239
21
0.0903161
0
LINE
8
BLACK
6
CONTINUOUS
10
0.974239
20
0.0903161
11
0.970472
21
0.0895669
0
LINE
8
BLACK
6
CONTINUOUS
10
0.970472
20
0.0895669
11
0.883858
21
0.0895669
0
LINE
8
BLACK
6
CONTINUOUS
10
0.883858
20
0.0895669
11
0.880092
21
0.0903161
0
LINE
8
BLACK
6
CONTINUOUS
10
0.880092
20
0.0903161
11
0.876899
21
0.0924497
0
LINE
8
BLACK
6
CONTINUOUS
10
0.876899
20
0.0924497
11
0.874765
21
0.0956429
0
LINE
8
BLACK
6
CONTINUOUS
10
0.874765
20
0.0956429
11
0.874016
21
0.0994094
0
LINE
8
BLACK
6
CONTINUOUS
10
0.874016
20
0.0994094
11
0.874016
21
0.119094
0
LINE
8
BLACK
6
CONTINUOUS
10
0.874016
20
0.119094
11
0.874765
21
0.122861
0
LINE
8
BLACK
6
CONTINUOUS
10
0.874765
20
0.122861
11
0.876899
21
0.126054
0
LINE
8
BLACK
6
CONTINUOUS
10
0.876899
20
0.126054
11
0.880092
21
0.128188
0
LINE
8
BLACK
6
CONTINUOUS
10
0.880092
20
0.128188
11
0.883858
21
0.128937
0
LINE
8
BLACK
6
CONTINUOUS
10
0.883858
20
0.128937
11
0.970472
21
0.128937
0
LINE
8
BLACK
6
CONTINUOUS
10
0.970472
20
0.128937
11
0.974239
21
0.128188
0
LINE
8
BLACK
6
CONTINUOUS
10
0.537567
20
0.16085
11
0.539483
21
0.15957
0
LINE
8
BLACK
6
CONTINUOUS
10
0.539483
20
0.15957
11
0.540763
21
0.157654
0
LINE
8
BLACK
6
CONTINUOUS
10
0.540763
20
0.157654
11
0.541213
21
0.155394
0
LINE
8
BLACK
6
CONTINUOUS
10
0.541213
20
0.155394
11
0.541213
21
0.115039
0
LINE
8
BLACK
6
CONTINUOUS
10
0.541213
20
0.115039
11
0.540763
21
0.112779
0
LINE
8
BLACK
6
CONTINUOUS
10
0.540763
20
0.112779
11
0.539483
21
0.110864
0
LINE
8
BLACK
6
CONTINUOUS
10
0.539483
20
0.110864
11
0.537567
21
0.109583
0
LINE
8
BLACK
6
CONTINUOUS
10
0.537567
20
0.109583
11
0.535307
21
0.109134
0
LINE
8
BLACK
6
CONTINUOUS
10
0.535307
20
0.109134
11
0.523496
21
0.109134
0
LINE
8
BLACK
6
CONTINUOUS
10
0.523496
20
0.109134
11
0.521236
21
0.109583
0
LINE
8
BLACK
6
CONTINUOUS
10
0.521236
20
0.109583
11
0.51932
21
0.110864
0
LINE
8
BLACK
6
CONTINUOUS
10
0.51932
20
0.110864
11
0.51804
21
0.112779
0
LINE
8
BLACK
6
CONTINUOUS
10
0.51804
20
0.112779
11
0.517591
21
0.115039
0
LINE
8
BLACK
6
CONTINUOUS
10
0.517591
20
0.115039
11
0.517591
21
0.155394
0
LINE
8
BLACK
6
CONTINUOUS
10
0.517591
20
0.155394
11
0.51804
21
0.157654
0
LINE
8
BLACK
6
CONTINUOUS
10
0.51804
20
0.157654
11
0.51932
21
0.15957
0
LINE
8
BLACK
6
CONTINUOUS
10
0.51932
20
0.15957
11
0.521236
21
0.16085
0
LINE
8
BLACK
6
CONTINUOUS
10
0.521236
20
0.16085
11
0.523496
21
0.161299
0
LINE
8
BLACK
6
CONTINUOUS
10
0.523496
20
0.161299
11
0.535307
21
0.161299
0
LINE
8
BLACK
6
CONTINUOUS
10
0.535307
20
0.161299
11
0.537567
21
0.16085
0
LINE
8
BLACK
6
CONTINUOUS
10
0.462764
20
0.16085
11
0.46468
21
0.15957
0
LINE
8
BLACK
6
CONTINUOUS
10
0.46468
20
0.15957
11
0.46596
21
0.157654
0
LINE
8
BLACK
6
CONTINUOUS
10
0.46596
20
0.157654
11
0.466409
21
0.155394
0
LINE
8
BLACK
6
CONTINUOUS
10
0.466409
20
0.155394
11
0.466409
21
0.115039
0
LINE
8
BLACK
6
CONTINUOUS
10
0.466409
20
0.115039
11
0.46596
21
0.112779
0
LINE
8
BLACK
6
CONTINUOUS
10
0.46596
20
0.112779
11
0.46468
21
0.110864
0
LINE
8
BLACK
6
CONTINUOUS
10
0.46468
20
0.110864
11
0.462764
21
0.109583
0
LINE
8
BLACK
6
CONTINUOUS
10
0.462764
20
0.109583
11
0.460504
21
0.109134
0
LINE
8
BLACK
6
CONTINUOUS
10
0.460504
20
0.109134
11
0.448693
21
0.109134
0
LINE
8
BLACK
6
CONTINUOUS
10
0.448693
20
0.109134
11
0.446433
21
0.109583
0
LINE
8
BLACK
6
CONTINUOUS
10
0.446433
20
0.109583
11
0.444517
21
0.110864
0
LINE
8
BLACK
6
CONTINUOUS
10
0.444517
20
0.110864
11
0.443237
21
0.112779
0
LINE
8
BLACK
6
CONTINUOUS
10
0.443237
20
0.112779
11
0.442787
21
0.115039
0
LINE
8
BLACK
6
CONTINUOUS
10
0.442787
20
0.115039
11
0.442787
21
0.155394
0
LINE
8
BLACK
6
CONTINUOUS
10
0.442787
20
0.155394
11
0.443237
21
0.157654
0
LINE
8
BLACK
6
CONTINUOUS
10
0.443237
20
0.157654
11
0.444517
21
0.15957
0
LINE
8
BLACK
6
CONTINUOUS
10
0.444517
20
0.15957
11
0.446433
21
0.16085
0
LINE
8
BLACK
6
CONTINUOUS
10
0.446433
20
0.16085
11
0.448693
21
0.161299
0
LINE
8
BLACK
6
CONTINUOUS
10
0.448693
20
0.161299
11
0.460504
21
0.161299
0
LINE
8
BLACK
6
CONTINUOUS
10
0.460504
20
0.161299
11
0.462764
21
0.16085
0
LINE
8
BLACK
6
CONTINUOUS
10
0.500165
20
0.16085
11
0.502081
21
0.15957
0
LINE
8
BLACK
6
CONTINUOUS
10
0.502081
20
0.15957
11
0.503361
21
0.157654
0
LINE
8
BLACK
6
CONTINUOUS
10
0.503361
20
0.157654
11
0.503811
21
0.155394
0
LINE
8
BLACK
6
CONTINUOUS
10
0.503811
20
0.155394
11
0.503811
21
0.115039
0
LINE
8
BLACK
6
CONTINUOUS
10
0.503811
20
0.115039
11
0.503361
21
0.112779
0
LINE
8
BLACK
6
CONTINUOUS
10
0.503361
20
0.112779
11
0.502081
21
0.110864
0
LINE
8
BLACK
6
CONTINUOUS
10
0.502081
20
0.110864
11
0.500165
21
0.109583
0
LINE
8
BLACK
6
CONTINUOUS
10
0.500165
20
0.109583
11
0.497906
21
0.109134
0
LINE
8
BLACK
6
CONTINUOUS
10
0.497906
20
0.109134
11
0.486094
21
0.109134
0
LINE
8
BLACK
6
CONTINUOUS
10
0.486094
20
0.109134
11
0.483835
21
0.109583
0
LINE
8
BLACK
6
CONTINUOUS
10
0.483835
20
0.109583
11
0.481919
21
0.110864
0
LINE
8
BLACK
6
CONTINUOUS
10
0.481919
20
0.110864
11
0.480639
21
0.112779
0
LINE
8
BLACK
6
CONTINUOUS
10
0.480639
20
0.112779
11
0.480189
21
0.115039
0
LINE
8
BLACK
6
CONTINUOUS
10
0.480189
20
0.115039
11
0.480189
21
0.155394
0
LINE
8
BLACK
6
CONTINUOUS
10
0.480189
20
0.155394
11
0.480639
21
0.157654
0
LINE
8
BLACK
6
CONTINUOUS
10
0.480639
20
0.157654
11
0.481919
21
0.15957
0
LINE
8
BLACK
6
CONTINUOUS
10
0.481919
20
0.15957
11
0.483835
21
0.16085
0
LINE
8
BLACK
6
CONTINUOUS
10
0.483835
20
0.16085
11
0.486094
21
0.161299
0
LINE
8
BLACK
6
CONTINUOUS
10
0.486094
20
0.161299
11
0.497906
21
0.161299
0
LINE
8
BLACK
6
CONTINUOUS
10
0.497906
20
0.161299
11
0.500165
21
0.16085
0
LINE
8
BLACK
6
CONTINUOUS
10
0.29378
20
0.11463
11
0.26622
21
0.11463
0
LINE
8
BLACK
6
CONTINUOUS
10
0.26622
20
0.11463
11
0.26622
21
0.138252
0
LINE
8
BLACK
6
CONTINUOUS
10
0.26622
20
0.138252
11
0.29378
21
0.138252
0
LINE
8
BLACK
6
CONTINUOUS
10
0.29378
20
0.138252
11
0.29378
21
0.11463
0
LINE
8
BLACK
6
CONTINUOUS
10
0.619736
20
0.16346
11
0.62261
21
0.161539
0
LINE
8
BLACK
6
CONTINUOUS
10
0.62261
20
0.161539
11
0.62453
21
0.158666
0
LINE
8
BLACK
6
CONTINUOUS
10
0.62453
20
0.158666
11
0.625205
21
0.155276
0
LINE
8
BLACK
6
CONTINUOUS
10
0.625205
20
0.155276
11
0.625205
21
0.135591
0
LINE
8
BLACK
6
CONTINUOUS
10
0.625205
20
0.135591
11
0.62453
21
0.132201
0
LINE
8
BLACK
6
CONTINUOUS
10
0.62453
20
0.132201
11
0.62261
21
0.129327
0
LINE
8
BLACK
6
CONTINUOUS
10
0.62261
20
0.129327
11
0.619736
21
0.127407
0
LINE
8
BLACK
6
CONTINUOUS
10
0.619736
20
0.127407
11
0.616346
21
0.126732
0
LINE
8
BLACK
6
CONTINUOUS
10
0.616346
20
0.126732
11
0.59863
21
0.126732
0
LINE
8
BLACK
6
CONTINUOUS
10
0.59863
20
0.126732
11
0.59524
21
0.127407
0
LINE
8
BLACK
6
CONTINUOUS
10
0.59524
20
0.127407
11
0.592366
21
0.129327
0
LINE
8
BLACK
6
CONTINUOUS
10
0.592366
20
0.129327
11
0.590446
21
0.132201
0
LINE
8
BLACK
6
CONTINUOUS
10
0.590446
20
0.132201
11
0.589772
21
0.135591
0
LINE
8
BLACK
6
CONTINUOUS
10
0.589772
20
0.135591
11
0.589772
21
0.155276
0
LINE
8
BLACK
6
CONTINUOUS
10
0.589772
20
0.155276
11
0.590446
21
0.158666
0
LINE
8
BLACK
6
CONTINUOUS
10
0.590446
20
0.158666
11
0.592366
21
0.161539
0
LINE
8
BLACK
6
CONTINUOUS
10
0.592366
20
0.161539
11
0.59524
21
0.16346
0
LINE
8
BLACK
6
CONTINUOUS
10
0.59524
20
0.16346
11
0.59863
21
0.164134
0
LINE
8
BLACK
6
CONTINUOUS
10
0.59863
20
0.164134
11
0.616346
21
0.164134
0
LINE
8
BLACK
6
CONTINUOUS
10
0.616346
20
0.164134
11
0.619736
21
0.16346
0
LINE
8
BLACK
6
CONTINUOUS
10
0.68076
20
0.16346
11
0.683634
21
0.161539
0
LINE
8
BLACK
6
CONTINUOUS
10
0.683634
20
0.161539
11
0.685554
21
0.158666
0
LINE
8
BLACK
6
CONTINUOUS
10
0.685554
20
0.158666
11
0.686228
21
0.155276
0
LINE
8
BLACK
6
CONTINUOUS
10
0.686228
20
0.155276
11
0.686228
21
0.135591
0
LINE
8
BLACK
6
CONTINUOUS
10
0.686228
20
0.135591
11
0.685554
21
0.132201
0
LINE
8
BLACK
6
CONTINUOUS
10
0.685554
20
0.132201
11
0.683634
21
0.129327
0
LINE
8
BLACK
6
CONTINUOUS
10
0.683634
20
0.129327
11
0.68076
21
0.127407
0
LINE
8
BLACK
6
CONTINUOUS
10
0.68076
20
0.127407
11
0.67737
21
0.126732
0
LINE
8
BLACK
6
CONTINUOUS
10
0.67737
20
0.126732
11
0.659654
21
0.126732
0
LINE
8
BLACK
6
CONTINUOUS
10
0.659654
20
0.126732
11
0.656264
21
0.127407
0
LINE
8
BLACK
6
CONTINUOUS
10
0.656264
20
0.127407
11
0.65339
21
0.129327
0
LINE
8
BLACK
6
CONTINUOUS
10
0.65339
20
0.129327
11
0.65147
21
0.132201
0
LINE
8
BLACK
6
CONTINUOUS
10
0.65147
20
0.132201
11
0.650795
21
0.135591
0
LINE
8
BLACK
6
CONTINUOUS
10
0.650795
20
0.135591
11
0.650795
21
0.155276
0
LINE
8
BLACK
6
CONTINUOUS
10
0.650795
20
0.155276
11
0.65147
21
0.158666
0
LINE
8
BLACK
6
CONTINUOUS
10
0.65147
20
0.158666
11
0.65339
21
0.161539
0
LINE
8
BLACK
6
CONTINUOUS
10
0.65339
20
0.161539
11
0.656264
21
0.16346
0
LINE
8
BLACK
6
CONTINUOUS
10
0.656264
20
0.16346
11
0.659654
21
0.164134
0
LINE
8
BLACK
6
CONTINUOUS
10
0.659654
20
0.164134
11
0.67737
21
0.164134
0
LINE
8
BLACK
6
CONTINUOUS
10
0.67737
20
0.164134
11
0.68076
21
0.16346
0
LINE
8
BLACK
6
CONTINUOUS
10
0.386467
20
0.194337
11
0.389661
21
0.192204
0
LINE
8
BLACK
6
CONTINUOUS
10
0.389661
20
0.192204
11
0.391794
21
0.189011
0
LINE
8
BLACK
6
CONTINUOUS
10
0.391794
20
0.189011
11
0.392543
21
0.185244
0
LINE
8
BLACK
6
CONTINUOUS
10
0.392543
20
0.185244
11
0.392543
21
0.165559
0
LINE
8
BLACK
6
CONTINUOUS
10
0.392543
20
0.165559
11
0.391794
21
0.161792
0
LINE
8
BLACK
6
CONTINUOUS
10
0.391794
20
0.161792
11
0.389661
21
0.158599
0
LINE
8
BLACK
6
CONTINUOUS
10
0.389661
20
0.158599
11
0.386467
21
0.156466
0
LINE
8
BLACK
6
CONTINUOUS
10
0.386467
20
0.156466
11
0.382701
21
0.155717
0
LINE
8
BLACK
6
CONTINUOUS
10
0.382701
20
0.155717
11
0.345299
21
0.155717
0
LINE
8
BLACK
6
CONTINUOUS
10
0.345299
20
0.155717
11
0.341533
21
0.156466
0
LINE
8
BLACK
6
CONTINUOUS
10
0.341533
20
0.156466
11
0.338339
21
0.158599
0
LINE
8
BLACK
6
CONTINUOUS
10
0.338339
20
0.158599
11
0.336206
21
0.161792
0
LINE
8
BLACK
6
CONTINUOUS
10
0.336206
20
0.161792
11
0.335457
21
0.165559
0
LINE
8
BLACK
6
CONTINUOUS
10
0.335457
20
0.165559
11
0.335457
21
0.185244
0
LINE
8
BLACK
6
CONTINUOUS
10
0.335457
20
0.185244
11
0.336206
21
0.189011
0
LINE
8
BLACK
6
CONTINUOUS
10
0.336206
20
0.189011
11
0.338339
21
0.192204
0
LINE
8
BLACK
6
CONTINUOUS
10
0.338339
20
0.192204
11
0.341533
21
0.194337
0
LINE
8
BLACK
6
CONTINUOUS
10
0.341533
20
0.194337
11
0.345299
21
0.195087
0
LINE
8
BLACK
6
CONTINUOUS
10
0.345299
20
0.195087
11
0.382701
21
0.195087
0
LINE
8
BLACK
6
CONTINUOUS
10
0.382701
20
0.195087
11
0.386467
21
0.194337
0
LINE
8
BLACK
6
CONTINUOUS
10
0.29378
20
0.169748
11
0.26622
21
0.169748
0
LINE
8
BLACK
6
CONTINUOUS
10
0.26622
20
0.169748
11
0.26622
21
0.19337
0
LINE
8
BLACK
6
CONTINUOUS
10
0.26622
20
0.19337
11
0.29378
21
0.19337
0
LINE
8
BLACK
6
CONTINUOUS
10
0.29378
20
0.19337
11
0.29378
21
0.169748
0
LINE
8
BLACK
6
CONTINUOUS
10
0.831
20
0.193448
11
0.832916
21
0.192168
0
LINE
8
BLACK
6
CONTINUOUS
10
0.832916
20
0.192168
11
0.834196
21
0.190252
0
LINE
8
BLACK
6
CONTINUOUS
10
0.834196
20
0.190252
11
0.834646
21
0.187992
0
LINE
8
BLACK
6
CONTINUOUS
10
0.834646
20
0.187992
11
0.834646
21
0.176181
0
LINE
8
BLACK
6
CONTINUOUS
10
0.834646
20
0.176181
11
0.834196
21
0.173921
0
LINE
8
BLACK
6
CONTINUOUS
10
0.834196
20
0.173921
11
0.832916
21
0.172005
0
LINE
8
BLACK
6
CONTINUOUS
10
0.832916
20
0.172005
11
0.831
21
0.170725
0
LINE
8
BLACK
6
CONTINUOUS
10
0.831
20
0.170725
11
0.82874
21
0.170276
0
LINE
8
BLACK
6
CONTINUOUS
10
0.82874
20
0.170276
11
0.773622
21
0.170276
0
LINE
8
BLACK
6
CONTINUOUS
10
0.773622
20
0.170276
11
0.771362
21
0.170725
0
LINE
8
BLACK
6
CONTINUOUS
10
0.771362
20
0.170725
11
0.769446
21
0.172005
0
LINE
8
BLACK
6
CONTINUOUS
10
0.769446
20
0.172005
11
0.768166
21
0.173921
0
LINE
8
BLACK
6
CONTINUOUS
10
0.768166
20
0.173921
11
0.767717
21
0.176181
0
LINE
8
BLACK
6
CONTINUOUS
10
0.767717
20
0.176181
11
0.767717
21
0.187992
0
LINE
8
BLACK
6
CONTINUOUS
10
0.767717
20
0.187992
11
0.768166
21
0.190252
0
LINE
8
BLACK
6
CONTINUOUS
10
0.768166
20
0.190252
11
0.769446
21
0.192168
0
LINE
8
BLACK
6
CONTINUOUS
10
0.769446
20
0.192168
11
0.771362
21
0.193448
0
LINE
8
BLACK
6
CONTINUOUS
10
0.771362
20
0.193448
11
0.773622
21
0.193898
0
LINE
8
BLACK
6
CONTINUOUS
10
0.773622
20
0.193898
11
0.82874
21
0.193898
0
LINE
8
BLACK
6
CONTINUOUS
10
0.82874
20
0.193898
11
0.831
21
0.193448
0
LINE
8
BLACK
6
CONTINUOUS
10
0.21289
20
0.193448
11
0.214806
21
0.192168
0
LINE
8
BLACK
6
CONTINUOUS
10
0.214806
20
0.192168
11
0.216086
21
0.190252
0
LINE
8
BLACK
6
CONTINUOUS
10
0.216086
20
0.190252
11
0.216535
21
0.187992
0
LINE
8
BLACK
6
CONTINUOUS
10
0.216535
20
0.187992
11
0.216535
21
0.176181
0
LINE
8
BLACK
6
CONTINUOUS
10
0.216535
20
0.176181
11
0.216086
21
0.173921
0
LINE
8
BLACK
6
CONTINUOUS
10
0.216086
20
0.173921
11
0.214806
21
0.172005
0
LINE
8
BLACK
6
CONTINUOUS
10
0.214806
20
0.172005
11
0.21289
21
0.170725
0
LINE
8
BLACK
6
CONTINUOUS
10
0.21289
20
0.170725
11
0.21063
21
0.170276
0
LINE
8
BLACK
6
CONTINUOUS
10
0.21063
20
0.170276
11
0.155512
21
0.170276
0
LINE
8
BLACK
6
CONTINUOUS
10
0.155512
20
0.170276
11
0.153252
21
0.170725
0
LINE
8
BLACK
6
CONTINUOUS
10
0.153252
20
0.170725
11
0.151336
21
0.172005
0
LINE
8
BLACK
6
CONTINUOUS
10
0.151336
20
0.172005
11
0.150056
21
0.173921
0
LINE
8
BLACK
6
CONTINUOUS
10
0.150056
20
0.173921
11
0.149606
21
0.176181
0
LINE
8
BLACK
6
CONTINUOUS
10
0.149606
20
0.176181
11
0.149606
21
0.187992
0
LINE
8
BLACK
6
CONTINUOUS
10
0.149606
20
0.187992
11
0.150056
21
0.190252
0
LINE
8
BLACK
6
CONTINUOUS
10
0.150056
20
0.190252
11
0.151336
21
0.192168
0
LINE
8
BLACK
6
CONTINUOUS
10
0.151336
20
0.192168
11
0.153252
21
0.193448
0
LINE
8
BLACK
6
CONTINUOUS
10
0.153252
20
0.193448
11
0.155512
21
0.193898
0
LINE
8
BLACK
6
CONTINUOUS
10
0.155512
20
0.193898
11
0.21063
21
0.193898
0
LINE
8
BLACK
6
CONTINUOUS
10
0.21063
20
0.193898
11
0.21289
21
0.193448
0
LINE
8
BLACK
6
CONTINUOUS
10
0.537567
20
0.250417
11
0.539483
21
0.249136
0
LINE
8
BLACK
6
CONTINUOUS
10
0.539483
20
0.249136
11
0.540763
21
0.247221
0
LINE
8
BLACK
6
CONTINUOUS
10
0.540763
20
0.247221
11
0.541213
21
0.244961
0
LINE
8
BLACK
6
CONTINUOUS
10
0.541213
20
0.244961
11
0.541213
21
0.204606
0
LINE
8
BLACK
6
CONTINUOUS
10
0.541213
20
0.204606
11
0.540763
21
0.202346
0
LINE
8
BLACK
6
CONTINUOUS
10
0.540763
20
0.202346
11
0.539483
21
0.20043
0
LINE
8
BLACK
6
CONTINUOUS
10
0.539483
20
0.20043
11
0.537567
21
0.19915
0
LINE
8
BLACK
6
CONTINUOUS
10
0.537567
20
0.19915
11
0.535307
21
0.198701
0
LINE
8
BLACK
6
CONTINUOUS
10
0.535307
20
0.198701
11
0.523496
21
0.198701
0
LINE
8
BLACK
6
CONTINUOUS
10
0.523496
20
0.198701
11
0.521236
21
0.19915
0
LINE
8
BLACK
6
CONTINUOUS
10
0.521236
20
0.19915
11
0.51932
21
0.20043
0
LINE
8
BLACK
6
CONTINUOUS
10
0.51932
20
0.20043
11
0.51804
21
0.202346
0
LINE
8
BLACK
6
CONTINUOUS
10
0.51804
20
0.202346
11
0.517591
21
0.204606
0
LINE
8
BLACK
6
CONTINUOUS
10
0.517591
20
0.204606
11
0.517591
21
0.244961
0
LINE
8
BLACK
6
CONTINUOUS
10
0.517591
20
0.244961
11
0.51804
21
0.247221
0
LINE
8
BLACK
6
CONTINUOUS
10
0.51804
20
0.247221
11
0.51932
21
0.249136
0
LINE
8
BLACK
6
CONTINUOUS
10
0.51932
20
0.249136
11
0.521236
21
0.250417
0
LINE
8
BLACK
6
CONTINUOUS
10
0.521236
20
0.250417
11
0.523496
21
0.250866
0
LINE
8
BLACK
6
CONTINUOUS
10
0.523496
20
0.250866
11
0.535307
21
0.250866
0
LINE
8
BLACK
6
CONTINUOUS
10
0.535307
20
0.250866
11
0.537567
21
0.250417
0
LINE
8
BLACK
6
CONTINUOUS
10
0.462764
20
0.250417
11
0.46468
21
0.249136
0
LINE
8
BLACK
6
CONTINUOUS
10
0.46468
20
0.249136
11
0.46596
21
0.247221
0
LINE
8
BLACK
6
CONTINUOUS
10
0.46596
20
0.247221
11
0.466409
21
0.244961
0
LINE
8
BLACK
6
CONTINUOUS
10
0.466409
20
0.244961
11
0.466409
21
0.204606
0
LINE
8
BLACK
6
CONTINUOUS
10
0.466409
20
0.204606
11
0.46596
21
0.202346
0
LINE
8
BLACK
6
CONTINUOUS
10
0.46596
20
0.202346
11
0.46468
21
0.20043
0
LINE
8
BLACK
6
CONTINUOUS
10
0.46468
20
0.20043
11
0.462764
21
0.19915
0
LINE
8
BLACK
6
CONTINUOUS
10
0.462764
20
0.19915
11
0.460504
21
0.198701
0
LINE
8
BLACK
6
CONTINUOUS
10
0.460504
20
0.198701
11
0.448693
21
0.198701
0
LINE
8
BLACK
6
CONTINUOUS
10
0.448693
20
0.198701
11
0.446433
21
0.19915
0
LINE
8
BLACK
6
CONTINUOUS
10
0.446433
20
0.19915
11
0.444517
21
0.20043
0
LINE
8
BLACK
6
CONTINUOUS
10
0.444517
20
0.20043
11
0.443237
21
0.202346
0
LINE
8
BLACK
6
CONTINUOUS
10
0.443237
20
0.202346
11
0.442787
21
0.204606
0
LINE
8
BLACK
6
CONTINUOUS
10
0.442787
20
0.204606
11
0.442787
21
0.244961
0
LINE
8
BLACK
6
CONTINUOUS
10
0.442787
20
0.244961
11
0.443237
21
0.247221
0
LINE
8
BLACK
6
CONTINUOUS
10
0.443237
20
0.247221
11
0.444517
21
0.249136
0
LINE
8
BLACK
6
CONTINUOUS
10
0.444517
20
0.249136
11
0.446433
21
0.250417
0
LINE
8
BLACK
6
CONTINUOUS
10
0.446433
20
0.250417
11
0.448693
21
0.250866
0
LINE
8
BLACK
6
CONTINUOUS
10
0.448693
20
0.250866
11
0.460504
21
0.250866
0
LINE
8
BLACK
6
CONTINUOUS
10
0.460504
20
0.250866
11
0.462764
21
0.250417
0
LINE
8
BLACK
6
CONTINUOUS
10
0.64784
20
0.236188
11
0.650395
21
0.234481
0
LINE
8
BLACK
6
CONTINUOUS
10
0.650395
20
0.234481
11
0.652101
21
0.231927
0
LINE
8
BLACK
6
CONTINUOUS
10
0.652101
20
0.231927
11
0.652701
21
0.228913
0
LINE
8
BLACK
6
CONTINUOUS
10
0.652701
20
0.228913
11
0.652701
21
0.213165
0
LINE
8
BLACK
6
CONTINUOUS
10
0.652701
20
0.213165
11
0.652101
21
0.210152
0
LINE
8
BLACK
6
CONTINUOUS
10
0.652101
20
0.210152
11
0.650395
21
0.207598
0
LINE
8
BLACK
6
CONTINUOUS
10
0.650395
20
0.207598
11
0.64784
21
0.205891
0
LINE
8
BLACK
6
CONTINUOUS
10
0.64784
20
0.205891
11
0.644827
21
0.205291
0
LINE
8
BLACK
6
CONTINUOUS
10
0.644827
20
0.205291
11
0.623173
21
0.205291
0
LINE
8
BLACK
6
CONTINUOUS
10
0.623173
20
0.205291
11
0.62016
21
0.205891
0
LINE
8
BLACK
6
CONTINUOUS
10
0.62016
20
0.205891
11
0.617605
21
0.207598
0
LINE
8
BLACK
6
CONTINUOUS
10
0.617605
20
0.207598
11
0.615899
21
0.210152
0
LINE
8
BLACK
6
CONTINUOUS
10
0.615899
20
0.210152
11
0.615299
21
0.213165
0
LINE
8
BLACK
6
CONTINUOUS
10
0.615299
20
0.213165
11
0.615299
21
0.228913
0
LINE
8
BLACK
6
CONTINUOUS
10
0.615299
20
0.228913
11
0.615899
21
0.231927
0
LINE
8
BLACK
6
CONTINUOUS
10
0.615899
20
0.231927
11
0.617605
21
0.234481
0
LINE
8
BLACK
6
CONTINUOUS
10
0.617605
20
0.234481
11
0.62016
21
0.236188
0
LINE
8
BLACK
6
CONTINUOUS
10
0.62016
20
0.236188
11
0.623173
21
0.236787
0
LINE
8
BLACK
6
CONTINUOUS
10
0.623173
20
0.236787
11
0.644827
21
0.236787
0
LINE
8
BLACK
6
CONTINUOUS
10
0.644827
20
0.236787
11
0.64784
21
0.236188
0
LINE
8
BLACK
6
CONTINUOUS
10
0.71784
20
0.237149
11
0.720395
21
0.235442
0
LINE
8
BLACK
6
CONTINUOUS
10
0.720395
20
0.235442
11
0.722101
21
0.232887
0
LINE
8
BLACK
6
CONTINUOUS
10
0.722101
20
0.232887
11
0.722701
21
0.229874
0
LINE
8
BLACK
6
CONTINUOUS
10
0.722701
20
0.229874
11
0.722701
21
0.214126
0
LINE
8
BLACK
6
CONTINUOUS
10
0.722701
20
0.214126
11
0.722101
21
0.211113
0
LINE
8
BLACK
6
CONTINUOUS
10
0.722101
20
0.211113
11
0.720395
21
0.208558
0
LINE
8
BLACK
6
CONTINUOUS
10
0.720395
20
0.208558
11
0.71784
21
0.206851
0
LINE
8
BLACK
6
CONTINUOUS
10
0.71784
20
0.206851
11
0.714827
21
0.206252
0
LINE
8
BLACK
6
CONTINUOUS
10
0.714827
20
0.206252
11
0.693173
21
0.206252
0
LINE
8
BLACK
6
CONTINUOUS
10
0.693173
20
0.206252
11
0.69016
21
0.206851
0
LINE
8
BLACK
6
CONTINUOUS
10
0.69016
20
0.206851
11
0.687605
21
0.208558
0
LINE
8
BLACK
6
CONTINUOUS
10
0.687605
20
0.208558
11
0.685899
21
0.211113
0
LINE
8
BLACK
6
CONTINUOUS
10
0.685899
20
0.211113
11
0.685299
21
0.214126
0
LINE
8
BLACK
6
CONTINUOUS
10
0.685299
20
0.214126
11
0.685299
21
0.229874
0
LINE
8
BLACK
6
CONTINUOUS
10
0.685299
20
0.229874
11
0.685899
21
0.232887
0
LINE
8
BLACK
6
CONTINUOUS
10
0.685899
20
0.232887
11
0.687605
21
0.235442
0
LINE
8
BLACK
6
CONTINUOUS
10
0.687605
20
0.235442
11
0.69016
21
0.237149
0
LINE
8
BLACK
6
CONTINUOUS
10
0.69016
20
0.237149
11
0.693173
21
0.237748
0
LINE
8
BLACK
6
CONTINUOUS
10
0.693173
20
0.237748
11
0.714827
21
0.237748
0
LINE
8
BLACK
6
CONTINUOUS
10
0.714827
20
0.237748
11
0.71784
21
0.237149
0
LINE
8
BLACK
6
CONTINUOUS
10
0.21289
20
0.242661
11
0.214806
21
0.241381
0
LINE
8
BLACK
6
CONTINUOUS
10
0.214806
20
0.241381
11
0.216086
21
0.239465
0
LINE
8
BLACK
6
CONTINUOUS
10
0.216086
20
0.239465
11
0.216535
21
0.237205
0
LINE
8
BLACK
6
CONTINUOUS
10
0.216535
20
0.237205
11
0.216535
21
0.225394
0
LINE
8
BLACK
6
CONTINUOUS
10
0.216535
20
0.225394
11
0.216086
21
0.223134
0
LINE
8
BLACK
6
CONTINUOUS
10
0.216086
20
0.223134
11
0.214806
21
0.221218
0
LINE
8
BLACK
6
CONTINUOUS
10
0.214806
20
0.221218
11
0.21289
21
0.219938
0
LINE
8
BLACK
6
CONTINUOUS
10
0.21289
20
0.219938
11
0.21063
21
0.219488
0
LINE
8
BLACK
6
CONTINUOUS
10
0.21063
20
0.219488
11
0.155512
21
0.219488
0
LINE
8
BLACK
6
CONTINUOUS
10
0.155512
20
0.219488
11
0.153252
21
0.219938
0
LINE
8
BLACK
6
CONTINUOUS
10
0.153252
20
0.219938
11
0.151336
21
0.221218
0
LINE
8
BLACK
6
CONTINUOUS
10
0.151336
20
0.221218
11
0.150056
21
0.223134
0
LINE
8
BLACK
6
CONTINUOUS
10
0.150056
20
0.223134
11
0.149606
21
0.225394
0
LINE
8
BLACK
6
CONTINUOUS
10
0.149606
20
0.225394
11
0.149606
21
0.237205
0
LINE
8
BLACK
6
CONTINUOUS
10
0.149606
20
0.237205
11
0.150056
21
0.239465
0
LINE
8
BLACK
6
CONTINUOUS
10
0.150056
20
0.239465
11
0.151336
21
0.241381
0
LINE
8
BLACK
6
CONTINUOUS
10
0.151336
20
0.241381
11
0.153252
21
0.242661
0
LINE
8
BLACK
6
CONTINUOUS
10
0.153252
20
0.242661
11
0.155512
21
0.24311
0
LINE
8
BLACK
6
CONTINUOUS
10
0.155512
20
0.24311
11
0.21063
21
0.24311
0
LINE
8
BLACK
6
CONTINUOUS
10
0.21063
20
0.24311
11
0.21289
21
0.242661
0
LINE
8
BLACK
6
CONTINUOUS
10
0.831
20
0.242661
11
0.832916
21
0.241381
0
LINE
8
BLACK
6
CONTINUOUS
10
0.832916
20
0.241381
11
0.834196
21
0.239465
0
LINE
8
BLACK
6
CONTINUOUS
10
0.834196
20
0.239465
11
0.834646
21
0.237205
0
LINE
8
BLACK
6
CONTINUOUS
10
0.834646
20
0.237205
11
0.834646
21
0.225394
0
LINE
8
BLACK
6
CONTINUOUS
10
0.834646
20
0.225394
11
0.834196
21
0.223134
0
LINE
8
BLACK
6
CONTINUOUS
10
0.834196
20
0.223134
11
0.832916
21
0.221218
0
LINE
8
BLACK
6
CONTINUOUS
10
0.832916
20
0.221218
11
0.831
21
0.219938
0
LINE
8
BLACK
6
CONTINUOUS
10
0.831
20
0.219938
11
0.82874
21
0.219488
0
LINE
8
BLACK
6
CONTINUOUS
10
0.82874
20
0.219488
11
0.773622
21
0.219488
0
LINE
8
BLACK
6
CONTINUOUS
10
0.773622
20
0.219488
11
0.771362
21
0.219938
0
LINE
8
BLACK
6
CONTINUOUS
10
0.771362
20
0.219938
11
0.769446
21
0.221218
0
LINE
8
BLACK
6
CONTINUOUS
10
0.769446
20
0.221218
11
0.768166
21
0.223134
0
LINE
8
BLACK
6
CONTINUOUS
10
0.768166
20
0.223134
11
0.767717
21
0.225394
0
LINE
8
BLACK
6
CONTINUOUS
10
0.767717
20
0.225394
11
0.767717
21
0.237205
0
LINE
8
BLACK
6
CONTINUOUS
10
0.767717
20
0.237205
11
0.768166
21
0.239465
0
LINE
8
BLACK
6
CONTINUOUS
10
0.768166
20
0.239465
11
0.769446
21
0.241381
0
LINE
8
BLACK
6
CONTINUOUS
10
0.769446
20
0.241381
11
0.771362
21
0.242661
0
LINE
8
BLACK
6
CONTINUOUS
10
0.771362
20
0.242661
11
0.773622
21
0.24311
0
LINE
8
BLACK
6
CONTINUOUS
10
0.773622
20
0.24311
11
0.82874
21
0.24311
0
LINE
8
BLACK
6
CONTINUOUS
10
0.82874
20
0.24311
11
0.831
21
0.242661
0
LINE
8
BLACK
6
CONTINUOUS
10
0.328345
20
0.261155
11
0.331139
21
0.259289
0
LINE
8
BLACK
6
CONTINUOUS
10
0.331139
20
0.259289
11
0.333006
21
0.256495
0
LINE
8
BLACK
6
CONTINUOUS
10
0.333006
20
0.256495
11
0.333661
21
0.253199
0
LINE
8
BLACK
6
CONTINUOUS
10
0.333661
20
0.253199
11
0.333661
21
0.235974
0
LINE
8
BLACK
6
CONTINUOUS
10
0.333661
20
0.235974
11
0.333006
21
0.232679
0
LINE
8
BLACK
6
CONTINUOUS
10
0.333006
20
0.232679
11
0.331139
21
0.229885
0
LINE
8
BLACK
6
CONTINUOUS
10
0.331139
20
0.229885
11
0.328345
21
0.228018
0
LINE
8
BLACK
6
CONTINUOUS
10
0.328345
20
0.228018
11
0.325049
21
0.227362
0
LINE
8
BLACK
6
CONTINUOUS
10
0.325049
20
0.227362
11
0.304872
21
0.227362
0
LINE
8
BLACK
6
CONTINUOUS
10
0.304872
20
0.227362
11
0.301576
21
0.228018
0
LINE
8
BLACK
6
CONTINUOUS
10
0.301576
20
0.228018
11
0.298782
21
0.229885
0
LINE
8
BLACK
6
CONTINUOUS
10
0.298782
20
0.229885
11
0.296915
21
0.232679
0
LINE
8
BLACK
6
CONTINUOUS
10
0.296915
20
0.232679
11
0.29626
21
0.235974
0
LINE
8
BLACK
6
CONTINUOUS
10
0.29626
20
0.235974
11
0.29626
21
0.253199
0
LINE
8
BLACK
6
CONTINUOUS
10
0.29626
20
0.253199
11
0.296915
21
0.256495
0
LINE
8
BLACK
6
CONTINUOUS
10
0.296915
20
0.256495
11
0.298782
21
0.259289
0
LINE
8
BLACK
6
CONTINUOUS
10
0.298782
20
0.259289
11
0.301576
21
0.261155
0
LINE
8
BLACK
6
CONTINUOUS
10
0.301576
20
0.261155
11
0.304872
21
0.261811
0
LINE
8
BLACK
6
CONTINUOUS
10
0.304872
20
0.261811
11
0.325049
21
0.261811
0
LINE
8
BLACK
6
CONTINUOUS
10
0.325049
20
0.261811
11
0.328345
21
0.261155
0
LINE
8
BLACK
6
CONTINUOUS
10
0.39984
20
0.260668
11
0.402395
21
0.258961
0
LINE
8
BLACK
6
CONTINUOUS
10
0.402395
20
0.258961
11
0.404101
21
0.256407
0
LINE
8
BLACK
6
CONTINUOUS
10
0.404101
20
0.256407
11
0.404701
21
0.253394
0
LINE
8
BLACK
6
CONTINUOUS
10
0.404701
20
0.253394
11
0.404701
21
0.237646
0
LINE
8
BLACK
6
CONTINUOUS
10
0.404701
20
0.237646
11
0.404101
21
0.234632
0
LINE
8
BLACK
6
CONTINUOUS
10
0.404101
20
0.234632
11
0.402395
21
0.232078
0
LINE
8
BLACK
6
CONTINUOUS
10
0.402395
20
0.232078
11
0.39984
21
0.230371
0
LINE
8
BLACK
6
CONTINUOUS
10
0.39984
20
0.230371
11
0.396827
21
0.229772
0
LINE
8
BLACK
6
CONTINUOUS
10
0.396827
20
0.229772
11
0.375173
21
0.229772
0
LINE
8
BLACK
6
CONTINUOUS
10
0.375173
20
0.229772
11
0.37216
21
0.230371
0
LINE
8
BLACK
6
CONTINUOUS
10
0.37216
20
0.230371
11
0.369605
21
0.232078
0
LINE
8
BLACK
6
CONTINUOUS
10
0.369605
20
0.232078
11
0.367899
21
0.234632
0
LINE
8
BLACK
6
CONTINUOUS
10
0.367899
20
0.234632
11
0.367299
21
0.237646
0
LINE
8
BLACK
6
CONTINUOUS
10
0.367299
20
0.237646
11
0.367299
21
0.253394
0
LINE
8
BLACK
6
CONTINUOUS
10
0.367299
20
0.253394
11
0.367899
21
0.256407
0
LINE
8
BLACK
6
CONTINUOUS
10
0.367899
20
0.256407
11
0.369605
21
0.258961
0
LINE
8
BLACK
6
CONTINUOUS
10
0.369605
20
0.258961
11
0.37216
21
0.260668
0
LINE
8
BLACK
6
CONTINUOUS
10
0.37216
20
0.260668
11
0.375173
21
0.261268
0
LINE
8
BLACK
6
CONTINUOUS
10
0.375173
20
0.261268
11
0.396827
21
0.261268
0
LINE
8
BLACK
6
CONTINUOUS
10
0.396827
20
0.261268
11
0.39984
21
0.260668
0
LINE
8
BLACK
6
CONTINUOUS
10
0.831
20
0.291873
11
0.832916
21
0.290593
0
LINE
8
BLACK
6
CONTINUOUS
10
0.832916
20
0.290593
11
0.834196
21
0.288677
0
LINE
8
BLACK
6
CONTINUOUS
10
0.834196
20
0.288677
11
0.834646
21
0.286417
0
LINE
8
BLACK
6
CONTINUOUS
10
0.834646
20
0.286417
11
0.834646
21
0.274606
0
LINE
8
BLACK
6
CONTINUOUS
10
0.834646
20
0.274606
11
0.834196
21
0.272346
0
LINE
8
BLACK
6
CONTINUOUS
10
0.834196
20
0.272346
11
0.832916
21
0.27043
0
LINE
8
BLACK
6
CONTINUOUS
10
0.832916
20
0.27043
11
0.831
21
0.26915
0
LINE
8
BLACK
6
CONTINUOUS
10
0.831
20
0.26915
11
0.82874
21
0.268701
0
LINE
8
BLACK
6
CONTINUOUS
10
0.82874
20
0.268701
11
0.773622
21
0.268701
0
LINE
8
BLACK
6
CONTINUOUS
10
0.773622
20
0.268701
11
0.771362
21
0.26915
0
LINE
8
BLACK
6
CONTINUOUS
10
0.771362
20
0.26915
11
0.769446
21
0.27043
0
LINE
8
BLACK
6
CONTINUOUS
10
0.769446
20
0.27043
11
0.768166
21
0.272346
0
LINE
8
BLACK
6
CONTINUOUS
10
0.768166
20
0.272346
11
0.767717
21
0.274606
0
LINE
8
BLACK
6
CONTINUOUS
10
0.767717
20
0.274606
11
0.767717
21
0.286417
0
LINE
8
BLACK
6
CONTINUOUS
10
0.767717
20
0.286417
11
0.768166
21
0.288677
0
LINE
8
BLACK
6
CONTINUOUS
10
0.768166
20
0.288677
11
0.769446
21
0.290593
0
LINE
8
BLACK
6
CONTINUOUS
10
0.769446
20
0.290593
11
0.771362
21
0.291873
0
LINE
8
BLACK
6
CONTINUOUS
10
0.771362
20
0.291873
11
0.773622
21
0.292323
0
LINE
8
BLACK
6
CONTINUOUS
10
0.773622
20
0.292323
11
0.82874
21
0.292323
0
LINE
8
BLACK
6
CONTINUOUS
10
0.82874
20
0.292323
11
0.831
21
0.291873
0
LINE
8
BLACK
6
CONTINUOUS
10
0.21289
20
0.291873
11
0.214806
21
0.290593
0
LINE
8
BLACK
6
CONTINUOUS
10
0.214806
20
0.290593
11
0.216086
21
0.288677
0
LINE
8
BLACK
6
CONTINUOUS
10
0.216086
20
0.288677
11
0.216535
21
0.286417
0
LINE
8
BLACK
6
CONTINUOUS
10
0.216535
20
0.286417
11
0.216535
21
0.274606
0
LINE
8
BLACK
6
CONTINUOUS
10
0.216535
20
0.274606
11
0.216086
21
0.272346
0
LINE
8
BLACK
6
CONTINUOUS
10
0.216086
20
0.272346
11
0.214806
21
0.27043
0
LINE
8
BLACK
6
CONTINUOUS
10
0.214806
20
0.27043
11
0.21289
21
0.26915
0
LINE
8
BLACK
6
CONTINUOUS
10
0.21289
20
0.26915
11
0.21063
21
0.268701
0
LINE
8
BLACK
6
CONTINUOUS
10
0.21063
20
0.268701
11
0.155512
21
0.268701
0
LINE
8
BLACK
6
CONTINUOUS
10
0.155512
20
0.268701
11
0.153252
21
0.26915
0
LINE
8
BLACK
6
CONTINUOUS
10
0.153252
20
0.26915
11
0.151336
21
0.27043
0
LINE
8
BLACK
6
CONTINUOUS
10
0.151336
20
0.27043
11
0.150056
21
0.272346
0
LINE
8
BLACK
6
CONTINUOUS
10
0.150056
20
0.272346
11
0.149606
21
0.274606
0
LINE
8
BLACK
6
CONTINUOUS
10
0.149606
20
0.274606
11
0.149606
21
0.286417
0
LINE
8
BLACK
6
CONTINUOUS
10
0.149606
20
0.286417
11
0.150056
21
0.288677
0
LINE
8
BLACK
6
CONTINUOUS
10
0.150056
20
0.288677
11
0.151336
21
0.290593
0
LINE
8
BLACK
6
CONTINUOUS
10
0.151336
20
0.290593
11
0.153252
21
0.291873
0
LINE
8
BLACK
6
CONTINUOUS
10
0.153252
20
0.291873
11
0.155512
21
0.292323
0
LINE
8
BLACK
6
CONTINUOUS
10
0.155512
20
0.292323
11
0.21063
21
0.292323
0
LINE
8
BLACK
6
CONTINUOUS
10
0.21063
20
0.292323
11
0.21289
21
0.291873
0
LINE
8
BLACK
6
CONTINUOUS
10
0.64784
20
0.301149
11
0.650395
21
0.299442
0
LINE
8
BLACK
6
CONTINUOUS
10
0.650395
20
0.299442
11
0.652101
21
0.296887
0
LINE
8
BLACK
6
CONTINUOUS
10
0.652101
20
0.296887
11
0.652701
21
0.293874
0
LINE
8
BLACK
6
CONTINUOUS
10
0.652701
20
0.293874
11
0.652701
21
0.278126
0
LINE
8
BLACK
6
CONTINUOUS
10
0.652701
20
0.278126
11
0.652101
21
0.275113
0
LINE
8
BLACK
6
CONTINUOUS
10
0.652101
20
0.275113
11
0.650395
21
0.272558
0
LINE
8
BLACK
6
CONTINUOUS
10
0.650395
20
0.272558
11
0.64784
21
0.270851
0
LINE
8
BLACK
6
CONTINUOUS
10
0.64784
20
0.270851
11
0.644827
21
0.270252
0
LINE
8
BLACK
6
CONTINUOUS
10
0.644827
20
0.270252
11
0.623173
21
0.270252
0
LINE
8
BLACK
6
CONTINUOUS
10
0.623173
20
0.270252
11
0.62016
21
0.270851
0
LINE
8
BLACK
6
CONTINUOUS
10
0.62016
20
0.270851
11
0.617605
21
0.272558
0
LINE
8
BLACK
6
CONTINUOUS
10
0.617605
20
0.272558
11
0.615899
21
0.275113
0
LINE
8
BLACK
6
CONTINUOUS
10
0.615899
20
0.275113
11
0.615299
21
0.278126
0
LINE
8
BLACK
6
CONTINUOUS
10
0.615299
20
0.278126
11
0.615299
21
0.293874
0
LINE
8
BLACK
6
CONTINUOUS
10
0.615299
20
0.293874
11
0.615899
21
0.296887
0
LINE
8
BLACK
6
CONTINUOUS
10
0.615899
20
0.296887
11
0.617605
21
0.299442
0
LINE
8
BLACK
6
CONTINUOUS
10
0.617605
20
0.299442
11
0.62016
21
0.301149
0
LINE
8
BLACK
6
CONTINUOUS
10
0.62016
20
0.301149
11
0.623173
21
0.301748
0
LINE
8
BLACK
6
CONTINUOUS
10
0.623173
20
0.301748
11
0.644827
21
0.301748
0
LINE
8
BLACK
6
CONTINUOUS
10
0.644827
20
0.301748
11
0.64784
21
0.301149
0
LINE
8
BLACK
6
CONTINUOUS
10
0.71784
20
0.302109
11
0.720395
21
0.300402
0
LINE
8
BLACK
6
CONTINUOUS
10
0.720395
20
0.300402
11
0.722101
21
0.297848
0
LINE
8
BLACK
6
CONTINUOUS
10
0.722101
20
0.297848
11
0.722701
21
0.294835
0
LINE
8
BLACK
6
CONTINUOUS
10
0.722701
20
0.294835
11
0.722701
21
0.279087
0
LINE
8
BLACK
6
CONTINUOUS
10
0.722701
20
0.279087
11
0.722101
21
0.276073
0
LINE
8
BLACK
6
CONTINUOUS
10
0.722101
20
0.276073
11
0.720395
21
0.273519
0
LINE
8
BLACK
6
CONTINUOUS
10
0.720395
20
0.273519
11
0.71784
21
0.271812
0
LINE
8
BLACK
6
CONTINUOUS
10
0.71784
20
0.271812
11
0.714827
21
0.271213
0
LINE
8
BLACK
6
CONTINUOUS
10
0.714827
20
0.271213
11
0.693173
21
0.271213
0
LINE
8
BLACK
6
CONTINUOUS
10
0.693173
20
0.271213
11
0.69016
21
0.271812
0
LINE
8
BLACK
6
CONTINUOUS
10
0.69016
20
0.271812
11
0.687605
21
0.273519
0
LINE
8
BLACK
6
CONTINUOUS
10
0.687605
20
0.273519
11
0.685899
21
0.276073
0
LINE
8
BLACK
6
CONTINUOUS
10
0.685899
20
0.276073
11
0.685299
21
0.279087
0
LINE
8
BLACK
6
CONTINUOUS
10
0.685299
20
0.279087
11
0.685299
21
0.294835
0
LINE
8
BLACK
6
CONTINUOUS
10
0.685299
20
0.294835
11
0.685899
21
0.297848
0
LINE
8
BLACK
6
CONTINUOUS
10
0.685899
20
0.297848
11
0.687605
21
0.300402
0
LINE
8
BLACK
6
CONTINUOUS
10
0.687605
20
0.300402
11
0.69016
21
0.302109
0
LINE
8
BLACK
6
CONTINUOUS
10
0.69016
20
0.302109
11
0.693173
21
0.302709
0
LINE
8
BLACK
6
CONTINUOUS
10
0.693173
20
0.302709
11
0.714827
21
0.302709
0
LINE
8
BLACK
6
CONTINUOUS
10
0.714827
20
0.302709
11
0.71784
21
0.302109
0
LINE
8
BLACK
6
CONTINUOUS
10
0.328345
20
0.323163
11
0.331139
21
0.321296
0
LINE
8
BLACK
6
CONTINUOUS
10
0.331139
20
0.321296
11
0.333006
21
0.318502
0
LINE
8
BLACK
6
CONTINUOUS
10
0.333006
20
0.318502
11
0.333661
21
0.315207
0
LINE
8
BLACK
6
CONTINUOUS
10
0.333661
20
0.315207
11
0.333661
21
0.297982
0
LINE
8
BLACK
6
CONTINUOUS
10
0.333661
20
0.297982
11
0.333006
21
0.294687
0
LINE
8
BLACK
6
CONTINUOUS
10
0.333006
20
0.294687
11
0.331139
21
0.291893
0
LINE
8
BLACK
6
CONTINUOUS
10
0.331139
20
0.291893
11
0.328345
21
0.290026
0
LINE
8
BLACK
6
CONTINUOUS
10
0.328345
20
0.290026
11
0.325049
21
0.28937
0
LINE
8
BLACK
6
CONTINUOUS
10
0.325049
20
0.28937
11
0.304872
21
0.28937
0
LINE
8
BLACK
6
CONTINUOUS
10
0.304872
20
0.28937
11
0.301576
21
0.290026
0
LINE
8
BLACK
6
CONTINUOUS
10
0.301576
20
0.290026
11
0.298782
21
0.291893
0
LINE
8
BLACK
6
CONTINUOUS
10
0.298782
20
0.291893
11
0.296915
21
0.294687
0
LINE
8
BLACK
6
CONTINUOUS
10
0.296915
20
0.294687
11
0.29626
21
0.297982
0
LINE
8
BLACK
6
CONTINUOUS
10
0.29626
20
0.297982
11
0.29626
21
0.315207
0
LINE
8
BLACK
6
CONTINUOUS
10
0.29626
20
0.315207
11
0.296915
21
0.318502
0
LINE
8
BLACK
6
CONTINUOUS
10
0.296915
20
0.318502
11
0.298782
21
0.321296
0
LINE
8
BLACK
6
CONTINUOUS
10
0.298782
20
0.321296
11
0.301576
21
0.323163
0
LINE
8
BLACK
6
CONTINUOUS
10
0.301576
20
0.323163
11
0.304872
21
0.323819
0
LINE
8
BLACK
6
CONTINUOUS
10
0.304872
20
0.323819
11
0.325049
21
0.323819
0
LINE
8
BLACK
6
CONTINUOUS
10
0.325049
20
0.323819
11
0.328345
21
0.323163
0
LINE
8
BLACK
6
CONTINUOUS
10
0.39984
20
0.325629
11
0.402395
21
0.323922
0
LINE
8
BLACK
6
CONTINUOUS
10
0.402395
20
0.323922
11
0.404101
21
0.321368
0
LINE
8
BLACK
6
CONTINUOUS
10
0.404101
20
0.321368
11
0.404701
21
0.318354
0
LINE
8
BLACK
6
CONTINUOUS
10
0.404701
20
0.318354
11
0.404701
21
0.302606
0
LINE
8
BLACK
6
CONTINUOUS
10
0.404701
20
0.302606
11
0.404101
21
0.299593
0
LINE
8
BLACK
6
CONTINUOUS
10
0.404101
20
0.299593
11
0.402395
21
0.297039
0
LINE
8
BLACK
6
CONTINUOUS
10
0.402395
20
0.297039
11
0.39984
21
0.295332
0
LINE
8
BLACK
6
CONTINUOUS
10
0.39984
20
0.295332
11
0.396827
21
0.294732
0
LINE
8
BLACK
6
CONTINUOUS
10
0.396827
20
0.294732
11
0.375173
21
0.294732
0
LINE
8
BLACK
6
CONTINUOUS
10
0.375173
20
0.294732
11
0.37216
21
0.295332
0
LINE
8
BLACK
6
CONTINUOUS
10
0.37216
20
0.295332
11
0.369605
21
0.297039
0
LINE
8
BLACK
6
CONTINUOUS
10
0.369605
20
0.297039
11
0.367899
21
0.299593
0
LINE
8
BLACK
6
CONTINUOUS
10
0.367899
20
0.299593
11
0.367299
21
0.302606
0
LINE
8
BLACK
6
CONTINUOUS
10
0.367299
20
0.302606
11
0.367299
21
0.318354
0
LINE
8
BLACK
6
CONTINUOUS
10
0.367299
20
0.318354
11
0.367899
21
0.321368
0
LINE
8
BLACK
6
CONTINUOUS
10
0.367899
20
0.321368
11
0.369605
21
0.323922
0
LINE
8
BLACK
6
CONTINUOUS
10
0.369605
20
0.323922
11
0.37216
21
0.325629
0
LINE
8
BLACK
6
CONTINUOUS
10
0.37216
20
0.325629
11
0.375173
21
0.326228
0
LINE
8
BLACK
6
CONTINUOUS
10
0.375173
20
0.326228
11
0.396827
21
0.326228
0
LINE
8
BLACK
6
CONTINUOUS
10
0.396827
20
0.326228
11
0.39984
21
0.325629
0
LINE
8
BLACK
6
CONTINUOUS
10
0.831
20
0.341086
11
0.832916
21
0.339806
0
LINE
8
BLACK
6
CONTINUOUS
10
0.832916
20
0.339806
11
0.834196
21
0.33789
0
LINE
8
BLACK
6
CONTINUOUS
10
0.834196
20
0.33789
11
0.834646
21
0.33563
0
LINE
8
BLACK
6
CONTINUOUS
10
0.834646
20
0.33563
11
0.834646
21
0.323819
0
LINE
8
BLACK
6
CONTINUOUS
10
0.834646
20
0.323819
11
0.834196
21
0.321559
0
LINE
8
BLACK
6
CONTINUOUS
10
0.834196
20
0.321559
11
0.832916
21
0.319643
0
LINE
8
BLACK
6
CONTINUOUS
10
0.832916
20
0.319643
11
0.831
21
0.318363
0
LINE
8
BLACK
6
CONTINUOUS
10
0.831
20
0.318363
11
0.82874
21
0.317913
0
LINE
8
BLACK
6
CONTINUOUS
10
0.82874
20
0.317913
11
0.773622
21
0.317913
0
LINE
8
BLACK
6
CONTINUOUS
10
0.773622
20
0.317913
11
0.771362
21
0.318363
0
LINE
8
BLACK
6
CONTINUOUS
10
0.771362
20
0.318363
11
0.769446
21
0.319643
0
LINE
8
BLACK
6
CONTINUOUS
10
0.769446
20
0.319643
11
0.768166
21
0.321559
0
LINE
8
BLACK
6
CONTINUOUS
10
0.768166
20
0.321559
11
0.767717
21
0.323819
0
LINE
8
BLACK
6
CONTINUOUS
10
0.767717
20
0.323819
11
0.767717
21
0.33563
0
LINE
8
BLACK
6
CONTINUOUS
10
0.767717
20
0.33563
11
0.768166
21
0.33789
0
LINE
8
BLACK
6
CONTINUOUS
10
0.768166
20
0.33789
11
0.769446
21
0.339806
0
LINE
8
BLACK
6
CONTINUOUS
10
0.769446
20
0.339806
11
0.771362
21
0.341086
0
LINE
8
BLACK
6
CONTINUOUS
10
0.771362
20
0.341086
11
0.773622
21
0.341535
0
LINE
8
BLACK
6
CONTINUOUS
10
0.773622
20
0.341535
11
0.82874
21
0.341535
0
LINE
8
BLACK
6
CONTINUOUS
10
0.82874
20
0.341535
11
0.831
21
0.341086
0
LINE
8
BLACK
6
CONTINUOUS
10
0.21289
20
0.341086
11
0.214806
21
0.339806
0
LINE
8
BLACK
6
CONTINUOUS
10
0.214806
20
0.339806
11
0.216086
21
0.33789
0
LINE
8
BLACK
6
CONTINUOUS
10
0.216086
20
0.33789
11
0.216535
21
0.33563
0
LINE
8
BLACK
6
CONTINUOUS
10
0.216535
20
0.33563
11
0.216535
21
0.323819
0
LINE
8
BLACK
6
CONTINUOUS
10
0.216535
20
0.323819
11
0.216086
21
0.321559
0
LINE
8
BLACK
6
CONTINUOUS
10
0.216086
20
0.321559
11
0.214806
21
0.319643
0
LINE
8
BLACK
6
CONTINUOUS
10
0.214806
20
0.319643
11
0.21289
21
0.318363
0
LINE
8
BLACK
6
CONTINUOUS
10
0.21289
20
0.318363
11
0.21063
21
0.317913
0
LINE
8
BLACK
6
CONTINUOUS
10
0.21063
20
0.317913
11
0.155512
21
0.317913
0
LINE
8
BLACK
6
CONTINUOUS
10
0.155512
20
0.317913
11
0.153252
21
0.318363
0
LINE
8
BLACK
6
CONTINUOUS
10
0.153252
20
0.318363
11
0.151336
21
0.319643
0
LINE
8
BLACK
6
CONTINUOUS
10
0.151336
20
0.319643
11
0.150056
21
0.321559
0
LINE
8
BLACK
6
CONTINUOUS
10
0.150056
20
0.321559
11
0.149606
21
0.323819
0
LINE
8
BLACK
6
CONTINUOUS
10
0.149606
20
0.323819
11
0.149606
21
0.33563
0
LINE
8
BLACK
6
CONTINUOUS
10
0.149606
20
0.33563
11
0.150056
21
0.33789
0
LINE
8
BLACK
6
CONTINUOUS
10
0.150056
20
0.33789
11
0.151336
21
0.339806
0
LINE
8
BLACK
6
CONTINUOUS
10
0.151336
20
0.339806
11
0.153252
21
0.341086
0
LINE
8
BLACK
6
CONTINUOUS
10
0.153252
20
0.341086
11
0.155512
21
0.341535
0
LINE
8
BLACK
6
CONTINUOUS
10
0.155512
20
0.341535
11
0.21063
21
0.341535
0
LINE
8
BLACK
6
CONTINUOUS
10
0.21063
20
0.341535
11
0.21289
21
0.341086
0
LINE
8
BLACK
6
CONTINUOUS
10
0.71884
20
0.365149
11
0.721395
21
0.363442
0
LINE
8
BLACK
6
CONTINUOUS
10
0.721395
20
0.363442
11
0.723101
21
0.360887
0
LINE
8
BLACK
6
CONTINUOUS
10
0.723101
20
0.360887
11
0.723701
21
0.357874
0
LINE
8
BLACK
6
CONTINUOUS
10
0.723701
20
0.357874
11
0.723701
21
0.342126
0
LINE
8
BLACK
6
CONTINUOUS
10
0.723701
20
0.342126
11
0.723101
21
0.339113
0
LINE
8
BLACK
6
CONTINUOUS
10
0.723101
20
0.339113
11
0.721395
21
0.336558
0
LINE
8
BLACK
6
CONTINUOUS
10
0.721395
20
0.336558
11
0.71884
21
0.334851
0
LINE
8
BLACK
6
CONTINUOUS
10
0.71884
20
0.334851
11
0.715827
21
0.334252
0
LINE
8
BLACK
6
CONTINUOUS
10
0.715827
20
0.334252
11
0.694173
21
0.334252
0
LINE
8
BLACK
6
CONTINUOUS
10
0.694173
20
0.334252
11
0.69116
21
0.334851
0
LINE
8
BLACK
6
CONTINUOUS
10
0.69116
20
0.334851
11
0.688605
21
0.336558
0
LINE
8
BLACK
6
CONTINUOUS
10
0.688605
20
0.336558
11
0.686899
21
0.339113
0
LINE
8
BLACK
6
CONTINUOUS
10
0.686899
20
0.339113
11
0.686299
21
0.342126
0
LINE
8
BLACK
6
CONTINUOUS
10
0.686299
20
0.342126
11
0.686299
21
0.357874
0
LINE
8
BLACK
6
CONTINUOUS
10
0.686299
20
0.357874
11
0.686899
21
0.360887
0
LINE
8
BLACK
6
CONTINUOUS
10
0.686899
20
0.360887
11
0.688605
21
0.363442
0
LINE
8
BLACK
6
CONTINUOUS
10
0.688605
20
0.363442
11
0.69116
21
0.365149
0
LINE
8
BLACK
6
CONTINUOUS
10
0.69116
20
0.365149
11
0.694173
21
0.365748
0
LINE
8
BLACK
6
CONTINUOUS
10
0.694173
20
0.365748
11
0.715827
21
0.365748
0
LINE
8
BLACK
6
CONTINUOUS
10
0.715827
20
0.365748
11
0.71884
21
0.365149
0
LINE
8
BLACK
6
CONTINUOUS
10
0.64884
20
0.365149
11
0.651395
21
0.363442
0
LINE
8
BLACK
6
CONTINUOUS
10
0.651395
20
0.363442
11
0.653101
21
0.360887
0
LINE
8
BLACK
6
CONTINUOUS
10
0.653101
20
0.360887
11
0.653701
21
0.357874
0
LINE
8
BLACK
6
CONTINUOUS
10
0.653701
20
0.357874
11
0.653701
21
0.342126
0
LINE
8
BLACK
6
CONTINUOUS
10
0.653701
20
0.342126
11
0.653101
21
0.339113
0
LINE
8
BLACK
6
CONTINUOUS
10
0.653101
20
0.339113
11
0.651395
21
0.336558
0
LINE
8
BLACK
6
CONTINUOUS
10
0.651395
20
0.336558
11
0.64884
21
0.334851
0
LINE
8
BLACK
6
CONTINUOUS
10
0.64884
20
0.334851
11
0.645827
21
0.334252
0
LINE
8
BLACK
6
CONTINUOUS
10
0.645827
20
0.334252
11
0.624173
21
0.334252
0
LINE
8
BLACK
6
CONTINUOUS
10
0.624173
20
0.334252
11
0.62116
21
0.334851
0
LINE
8
BLACK
6
CONTINUOUS
10
0.62116
20
0.334851
11
0.618605
21
0.336558
0
LINE
8
BLACK
6
CONTINUOUS
10
0.618605
20
0.336558
11
0.616899
21
0.339113
0
LINE
8
BLACK
6
CONTINUOUS
10
0.616899
20
0.339113
11
0.616299
21
0.342126
0
LINE
8
BLACK
6
CONTINUOUS
10
0.616299
20
0.342126
11
0.616299
21
0.357874
0
LINE
8
BLACK
6
CONTINUOUS
10
0.616299
20
0.357874
11
0.616899
21
0.360887
0
LINE
8
BLACK
6
CONTINUOUS
10
0.616899
20
0.360887
11
0.618605
21
0.363442
0
LINE
8
BLACK
6
CONTINUOUS
10
0.618605
20
0.363442
11
0.62116
21
0.365149
0
LINE
8
BLACK
6
CONTINUOUS
10
0.62116
20
0.365149
11
0.624173
21
0.365748
0
LINE
8
BLACK
6
CONTINUOUS
10
0.624173
20
0.365748
11
0.645827
21
0.365748
0
LINE
8
BLACK
6
CONTINUOUS
10
0.645827
20
0.365748
11
0.64884
21
0.365149
0
LINE
8
BLACK
6
CONTINUOUS
10
0.10416
20
0.421495
11
0.107353
21
0.419361
0
LINE
8
BLACK
6
CONTINUOUS
10
0.107353
20
0.419361
11
0.109487
21
0.416168
0
LINE
8
BLACK
6
CONTINUOUS
10
0.109487
20
0.416168
11
0.110236
21
0.412402
0
LINE
8
BLACK
6
CONTINUOUS
10
0.110236
20
0.412402
11
0.110236
21
0.392717
0
LINE
8
BLACK
6
CONTINUOUS
10
0.110236
20
0.392717
11
0.109487
21
0.38895
0
LINE
8
BLACK
6
CONTINUOUS
10
0.109487
20
0.38895
11
0.107353
21
0.385757
0
LINE
8
BLACK
6
CONTINUOUS
10
0.107353
20
0.385757
11
0.10416
21
0.383623
0
LINE
8
BLACK
6
CONTINUOUS
10
0.10416
20
0.383623
11
0.100394
21
0.382874
0
LINE
8
BLACK
6
CONTINUOUS
10
0.100394
20
0.382874
11
0.0137795
21
0.382874
0
LINE
8
BLACK
6
CONTINUOUS
10
0.0137795
20
0.382874
11
0.010013
21
0.383623
0
LINE
8
BLACK
6
CONTINUOUS
10
0.010013
20
0.383623
11
0.0068198
21
0.385757
0
LINE
8
BLACK
6
CONTINUOUS
10
0.0068198
20
0.385757
11
0.00468622
21
0.38895
0
LINE
8
BLACK
6
CONTINUOUS
10
0.00468622
20
0.38895
11
0.00393701
21
0.392717
0
LINE
8
BLACK
6
CONTINUOUS
10
0.00393701
20
0.392717
11
0.00393701
21
0.412402
0
LINE
8
BLACK
6
CONTINUOUS
10
0.00393701
20
0.412402
11
0.00468622
21
0.416168
0
LINE
8
BLACK
6
CONTINUOUS
10
0.00468622
20
0.416168
11
0.0068198
21
0.419361
0
LINE
8
BLACK
6
CONTINUOUS
10
0.0068198
20
0.419361
11
0.010013
21
0.421495
0
LINE
8
BLACK
6
CONTINUOUS
10
0.010013
20
0.421495
11
0.0137795
21
0.422244
0
LINE
8
BLACK
6
CONTINUOUS
10
0.0137795
20
0.422244
11
0.100394
21
0.422244
0
LINE
8
BLACK
6
CONTINUOUS
10
0.100394
20
0.422244
11
0.10416
21
0.421495
0
LINE
8
BLACK
6
CONTINUOUS
10
0.974239
20
0.421495
11
0.977432
21
0.419361
0
LINE
8
BLACK
6
CONTINUOUS
10
0.977432
20
0.419361
11
0.979566
21
0.416168
0
LINE
8
BLACK
6
CONTINUOUS
10
0.979566
20
0.416168
11
0.980315
21
0.412402
0
LINE
8
BLACK
6
CONTINUOUS
10
0.980315
20
0.412402
11
0.980315
21
0.392717
0
LINE
8
BLACK
6
CONTINUOUS
10
0.980315
20
0.392717
11
0.979566
21
0.38895
0
LINE
8
BLACK
6
CONTINUOUS
10
0.979566
20
0.38895
11
0.977432
21
0.385757
0
LINE
8
BLACK
6
CONTINUOUS
10
0.977432
20
0.385757
11
0.974239
21
0.383623
0
LINE
8
BLACK
6
CONTINUOUS
10
0.974239
20
0.383623
11
0.970472
21
0.382874
0
LINE
8
BLACK
6
CONTINUOUS
10
0.970472
20
0.382874
11
0.883858
21
0.382874
0
LINE
8
BLACK
6
CONTINUOUS
10
0.883858
20
0.382874
11
0.880092
21
0.383623
0
LINE
8
BLACK
6
CONTINUOUS
10
0.880092
20
0.383623
11
0.876899
21
0.385757
0
LINE
8
BLACK
6
CONTINUOUS
10
0.876899
20
0.385757
11
0.874765
21
0.38895
0
LINE
8
BLACK
6
CONTINUOUS
10
0.874765
20
0.38895
11
0.874016
21
0.392717
0
LINE
8
BLACK
6
CONTINUOUS
10
0.874016
20
0.392717
11
0.874016
21
0.412402
0
LINE
8
BLACK
6
CONTINUOUS
10
0.874016
20
0.412402
11
0.874765
21
0.416168
0
LINE
8
BLACK
6
CONTINUOUS
10
0.874765
20
0.416168
11
0.876899
21
0.419361
0
LINE
8
BLACK
6
CONTINUOUS
10
0.876899
20
0.419361
11
0.880092
21
0.421495
0
LINE
8
BLACK
6
CONTINUOUS
10
0.880092
20
0.421495
11
0.883858
21
0.422244
0
LINE
8
BLACK
6
CONTINUOUS
10
0.883858
20
0.422244
11
0.970472
21
0.422244
0
LINE
8
BLACK
6
CONTINUOUS
10
0.970472
20
0.422244
11
0.974239
21
0.421495
0
LINE
8
BLACK
6
CONTINUOUS
10
0.35384
20
0.424668
11
0.356395
21
0.422961
0
LINE
8
BLACK
6
CONTINUOUS
10
0.356395
20
0.422961
11
0.358101
21
0.420407
0
LINE
8
BLACK
6
CONTINUOUS
10
0.358101
20
0.420407
11
0.358701
21
0.417394
0
LINE
8
BLACK
6
CONTINUOUS
10
0.358701
20
0.417394
11
0.358701
21
0.401646
0
LINE
8
BLACK
6
CONTINUOUS
10
0.358701
20
0.401646
11
0.358101
21
0.398632
0
LINE
8
BLACK
6
CONTINUOUS
10
0.358101
20
0.398632
11
0.356395
21
0.396078
0
LINE
8
BLACK
6
CONTINUOUS
10
0.356395
20
0.396078
11
0.35384
21
0.394371
0
LINE
8
BLACK
6
CONTINUOUS
10
0.35384
20
0.394371
11
0.350827
21
0.393772
0
LINE
8
BLACK
6
CONTINUOUS
10
0.350827
20
0.393772
11
0.329173
21
0.393772
0
LINE
8
BLACK
6
CONTINUOUS
10
0.329173
20
0.393772
11
0.32616
21
0.394371
0
LINE
8
BLACK
6
CONTINUOUS
10
0.32616
20
0.394371
11
0.323605
21
0.396078
0
LINE
8
BLACK
6
CONTINUOUS
10
0.323605
20
0.396078
11
0.321899
21
0.398632
0
LINE
8
BLACK
6
CONTINUOUS
10
0.321899
20
0.398632
11
0.321299
21
0.401646
0
LINE
8
BLACK
6
CONTINUOUS
10
0.321299
20
0.401646
11
0.321299
21
0.417394
0
LINE
8
BLACK
6
CONTINUOUS
10
0.321299
20
0.417394
11
0.321899
21
0.420407
0
LINE
8
BLACK
6
CONTINUOUS
10
0.321899
20
0.420407
11
0.323605
21
0.422961
0
LINE
8
BLACK
6
CONTINUOUS
10
0.323605
20
0.422961
11
0.32616
21
0.424668
0
LINE
8
BLACK
6
CONTINUOUS
10
0.32616
20
0.424668
11
0.329173
21
0.425268
0
LINE
8
BLACK
6
CONTINUOUS
10
0.329173
20
0.425268
11
0.350827
21
0.425268
0
LINE
8
BLACK
6
CONTINUOUS
10
0.350827
20
0.425268
11
0.35384
21
0.424668
0
LINE
8
BLACK
6
CONTINUOUS
10
0.71884
20
0.430109
11
0.721395
21
0.428402
0
LINE
8
BLACK
6
CONTINUOUS
10
0.721395
20
0.428402
11
0.723101
21
0.425848
0
LINE
8
BLACK
6
CONTINUOUS
10
0.723101
20
0.425848
11
0.723701
21
0.422835
0
LINE
8
BLACK
6
CONTINUOUS
10
0.723701
20
0.422835
11
0.723701
21
0.407087
0
LINE
8
BLACK
6
CONTINUOUS
10
0.723701
20
0.407087
11
0.723101
21
0.404073
0
LINE
8
BLACK
6
CONTINUOUS
10
0.723101
20
0.404073
11
0.721395
21
0.401519
0
LINE
8
BLACK
6
CONTINUOUS
10
0.721395
20
0.401519
11
0.71884
21
0.399812
0
LINE
8
BLACK
6
CONTINUOUS
10
0.71884
20
0.399812
11
0.715827
21
0.399213
0
LINE
8
BLACK
6
CONTINUOUS
10
0.715827
20
0.399213
11
0.694173
21
0.399213
0
LINE
8
BLACK
6
CONTINUOUS
10
0.694173
20
0.399213
11
0.69116
21
0.399812
0
LINE
8
BLACK
6
CONTINUOUS
10
0.69116
20
0.399812
11
0.688605
21
0.401519
0
LINE
8
BLACK
6
CONTINUOUS
10
0.688605
20
0.401519
11
0.686899
21
0.404073
0
LINE
8
BLACK
6
CONTINUOUS
10
0.686899
20
0.404073
11
0.686299
21
0.407087
0
LINE
8
BLACK
6
CONTINUOUS
10
0.686299
20
0.407087
11
0.686299
21
0.422835
0
LINE
8
BLACK
6
CONTINUOUS
10
0.686299
20
0.422835
11
0.686899
21
0.425848
0
LINE
8
BLACK
6
CONTINUOUS
10
0.686899
20
0.425848
11
0.688605
21
0.428402
0
LINE
8
BLACK
6
CONTINUOUS
10
0.688605
20
0.428402
11
0.69116
21
0.430109
0
LINE
8
BLACK
6
CONTINUOUS
10
0.69116
20
0.430109
11
0.694173
21
0.430709
0
LINE
8
BLACK
6
CONTINUOUS
10
0.694173
20
0.430709
11
0.715827
21
0.430709
0
LINE
8
BLACK
6
CONTINUOUS
10
0.715827
20
0.430709
11
0.71884
21
0.430109
0
LINE
8
BLACK
6
CONTINUOUS
10
0.64884
20
0.430109
11
0.651395
21
0.428402
0
LINE
8
BLACK
6
CONTINUOUS
10
0.651395
20
0.428402
11
0.653101
21
0.425848
0
LINE
8
BLACK
6
CONTINUOUS
10
0.653101
20
0.425848
11
0.653701
21
0.422835
0
LINE
8
BLACK
6
CONTINUOUS
10
0.653701
20
0.422835
11
0.653701
21
0.407087
0
LINE
8
BLACK
6
CONTINUOUS
10
0.653701
20
0.407087
11
0.653101
21
0.404073
0
LINE
8
BLACK
6
CONTINUOUS
10
0.653101
20
0.404073
11
0.651395
21
0.401519
0
LINE
8
BLACK
6
CONTINUOUS
10
0.651395
20
0.401519
11
0.64884
21
0.399812
0
LINE
8
BLACK
6
CONTINUOUS
10
0.64884
20
0.399812
11
0.645827
21
0.399213
0
LINE
8
BLACK
6
CONTINUOUS
10
0.645827
20
0.399213
11
0.624173
21
0.399213
0
LINE
8
BLACK
6
CONTINUOUS
10
0.624173
20
0.399213
11
0.62116
21
0.399812
0
LINE
8
BLACK
6
CONTINUOUS
10
0.62116
20
0.399812
11
0.618605
21
0.401519
0
LINE
8
BLACK
6
CONTINUOUS
10
0.618605
20
0.401519
11
0.616899
21
0.404073
0
LINE
8
BLACK
6
CONTINUOUS
10
0.616899
20
0.404073
11
0.616299
21
0.407087
0
LINE
8
BLACK
6
CONTINUOUS
10
0.616299
20
0.407087
11
0.616299
21
0.422835
0
LINE
8
BLACK
6
CONTINUOUS
10
0.616299
20
0.422835
11
0.616899
21
0.425848
0
LINE
8
BLACK
6
CONTINUOUS
10
0.616899
20
0.425848
11
0.618605
21
0.428402
0
LINE
8
BLACK
6
CONTINUOUS
10
0.618605
20
0.428402
11
0.62116
21
0.430109
0
LINE
8
BLACK
6
CONTINUOUS
10
0.62116
20
0.430109
11
0.624173
21
0.430709
0
LINE
8
BLACK
6
CONTINUOUS
10
0.624173
20
0.430709
11
0.645827
21
0.430709
0
LINE
8
BLACK
6
CONTINUOUS
10
0.645827
20
0.430709
11
0.64884
21
0.430109
0
LINE
8
BLACK
6
CONTINUOUS
10
0.526575
20
0.437102
11
0.516732
21
0.437102
0
LINE
8
BLACK
6
CONTINUOUS
10
0.516732
20
0.437102
11
0.516732
21
0.462693
0
LINE
8
BLACK
6
CONTINUOUS
10
0.516732
20
0.462693
11
0.526575
21
0.462693
0
LINE
8
BLACK
6
CONTINUOUS
10
0.526575
20
0.462693
11
0.526575
21
0.437102
0
LINE
8
BLACK
6
CONTINUOUS
10
0.447835
20
0.437102
11
0.437992
21
0.437102
0
LINE
8
BLACK
6
CONTINUOUS
10
0.437992
20
0.437102
11
0.437992
21
0.462693
0
LINE
8
BLACK
6
CONTINUOUS
10
0.437992
20
0.462693
11
0.447835
21
0.462693
0
LINE
8
BLACK
6
CONTINUOUS
10
0.447835
20
0.462693
11
0.447835
21
0.437102
0
LINE
8
BLACK
6
CONTINUOUS
10
0.54626
20
0.437102
11
0.536417
21
0.437102
0
LINE
8
BLACK
6
CONTINUOUS
10
0.536417
20
0.437102
11
0.536417
21
0.462693
0
LINE
8
BLACK
6
CONTINUOUS
10
0.536417
20
0.462693
11
0.54626
21
0.462693
0
LINE
8
BLACK
6
CONTINUOUS
10
0.54626
20
0.462693
11
0.54626
21
0.437102
0
LINE
8
BLACK
6
CONTINUOUS
10
0.50689
20
0.437102
11
0.497047
21
0.437102
0
LINE
8
BLACK
6
CONTINUOUS
10
0.497047
20
0.437102
11
0.497047
21
0.462693
0
LINE
8
BLACK
6
CONTINUOUS
10
0.497047
20
0.462693
11
0.50689
21
0.462693
0
LINE
8
BLACK
6
CONTINUOUS
10
0.50689
20
0.462693
11
0.50689
21
0.437102
0
LINE
8
BLACK
6
CONTINUOUS
10
0.487205
20
0.437102
11
0.477362
21
0.437102
0
LINE
8
BLACK
6
CONTINUOUS
10
0.477362
20
0.437102
11
0.477362
21
0.462693
0
LINE
8
BLACK
6
CONTINUOUS
10
0.477362
20
0.462693
11
0.487205
21
0.462693
0
LINE
8
BLACK
6
CONTINUOUS
10
0.487205
20
0.462693
11
0.487205
21
0.437102
0
LINE
8
BLACK
6
CONTINUOUS
10
0.46752
20
0.437102
11
0.457677
21
0.437102
0
LINE
8
BLACK
6
CONTINUOUS
10
0.457677
20
0.437102
11
0.457677
21
0.462693
0
LINE
8
BLACK
6
CONTINUOUS
10
0.457677
20
0.462693
11
0.46752
21
0.462693
0
LINE
8
BLACK
6
CONTINUOUS
10
0.46752
20
0.462693
11
0.46752
21
0.437102
0
LINE
8
BLACK
6
CONTINUOUS
10
0.42815
20
0.437102
11
0.418307
21
0.437102
0
LINE
8
BLACK
6
CONTINUOUS
10
0.418307
20
0.437102
11
0.418307
21
0.462693
0
LINE
8
BLACK
6
CONTINUOUS
10
0.418307
20
0.462693
11
0.42815
21
0.462693
0
LINE
8
BLACK
6
CONTINUOUS
10
0.42815
20
0.462693
11
0.42815
21
0.437102
0
LINE
8
BLACK
6
CONTINUOUS
10
0.565945
20
0.437102
11
0.556102
21
0.437102
0
LINE
8
BLACK
6
CONTINUOUS
10
0.556102
20
0.437102
11
0.556102
21
0.462693
0
LINE
8
BLACK
6
CONTINUOUS
10
0.556102
20
0.462693
11
0.565945
21
0.462693
0
LINE
8
BLACK
6
CONTINUOUS
10
0.565945
20
0.462693
11
0.565945
21
0.437102
0
LINE
8
BLACK
6
CONTINUOUS
10
0.35384
20
0.489629
11
0.356395
21
0.487922
0
LINE
8
BLACK
6
CONTINUOUS
10
0.356395
20
0.487922
11
0.358101
21
0.485368
0
LINE
8
BLACK
6
CONTINUOUS
10
0.358101
20
0.485368
11
0.358701
21
0.482354
0
LINE
8
BLACK
6
CONTINUOUS
10
0.358701
20
0.482354
11
0.358701
21
0.466606
0
LINE
8
BLACK
6
CONTINUOUS
10
0.358701
20
0.466606
11
0.358101
21
0.463593
0
LINE
8
BLACK
6
CONTINUOUS
10
0.358101
20
0.463593
11
0.356395
21
0.461039
0
LINE
8
BLACK
6
CONTINUOUS
10
0.356395
20
0.461039
11
0.35384
21
0.459332
0
LINE
8
BLACK
6
CONTINUOUS
10
0.35384
20
0.459332
11
0.350827
21
0.458732
0
LINE
8
BLACK
6
CONTINUOUS
10
0.350827
20
0.458732
11
0.329173
21
0.458732
0
LINE
8
BLACK
6
CONTINUOUS
10
0.329173
20
0.458732
11
0.32616
21
0.459332
0
LINE
8
BLACK
6
CONTINUOUS
10
0.32616
20
0.459332
11
0.323605
21
0.461039
0
LINE
8
BLACK
6
CONTINUOUS
10
0.323605
20
0.461039
11
0.321899
21
0.463593
0
LINE
8
BLACK
6
CONTINUOUS
10
0.321899
20
0.463593
11
0.321299
21
0.466606
0
LINE
8
BLACK
6
CONTINUOUS
10
0.321299
20
0.466606
11
0.321299
21
0.482354
0
LINE
8
BLACK
6
CONTINUOUS
10
0.321299
20
0.482354
11
0.321899
21
0.485368
0
LINE
8
BLACK
6
CONTINUOUS
10
0.321899
20
0.485368
11
0.323605
21
0.487922
0
LINE
8
BLACK
6
CONTINUOUS
10
0.323605
20
0.487922
11
0.32616
21
0.489629
0
LINE
8
BLACK
6
CONTINUOUS
10
0.32616
20
0.489629
11
0.329173
21
0.490228
0
LINE
8
BLACK
6
CONTINUOUS
10
0.329173
20
0.490228
11
0.350827
21
0.490228
0
LINE
8
BLACK
6
CONTINUOUS
10
0.350827
20
0.490228
11
0.35384
21
0.489629
0
LINE
8
BLACK
6
CONTINUOUS
10
0.658232
20
0.511019
11
0.661106
21
0.509098
0
LINE
8
BLACK
6
CONTINUOUS
10
0.661106
20
0.509098
11
0.663026
21
0.506225
0
LINE
8
BLACK
6
CONTINUOUS
10
0.663026
20
0.506225
11
0.663701
21
0.502835
0
LINE
8
BLACK
6
CONTINUOUS
10
0.663701
20
0.502835
11
0.663701
21
0.485118
0
LINE
8
BLACK
6
CONTINUOUS
10
0.663701
20
0.485118
11
0.663026
21
0.481728
0
LINE
8
BLACK
6
CONTINUOUS
10
0.663026
20
0.481728
11
0.661106
21
0.478854
0
LINE
8
BLACK
6
CONTINUOUS
10
0.661106
20
0.478854
11
0.658232
21
0.476934
0
LINE
8
BLACK
6
CONTINUOUS
10
0.658232
20
0.476934
11
0.654843
21
0.47626
0
LINE
8
BLACK
6
CONTINUOUS
10
0.654843
20
0.47626
11
0.635157
21
0.47626
0
LINE
8
BLACK
6
CONTINUOUS
10
0.635157
20
0.47626
11
0.631768
21
0.476934
0
LINE
8
BLACK
6
CONTINUOUS
10
0.631768
20
0.476934
11
0.628894
21
0.478854
0
LINE
8
BLACK
6
CONTINUOUS
10
0.628894
20
0.478854
11
0.626974
21
0.481728
0
LINE
8
BLACK
6
CONTINUOUS
10
0.626974
20
0.481728
11
0.626299
21
0.485118
0
LINE
8
BLACK
6
CONTINUOUS
10
0.626299
20
0.485118
11
0.626299
21
0.502835
0
LINE
8
BLACK
6
CONTINUOUS
10
0.626299
20
0.502835
11
0.626974
21
0.506225
0
LINE
8
BLACK
6
CONTINUOUS
10
0.626974
20
0.506225
11
0.628894
21
0.509098
0
LINE
8
BLACK
6
CONTINUOUS
10
0.628894
20
0.509098
11
0.631768
21
0.511019
0
LINE
8
BLACK
6
CONTINUOUS
10
0.631768
20
0.511019
11
0.635157
21
0.511693
0
LINE
8
BLACK
6
CONTINUOUS
10
0.635157
20
0.511693
11
0.654843
21
0.511693
0
LINE
8
BLACK
6
CONTINUOUS
10
0.654843
20
0.511693
11
0.658232
21
0.511019
0
LINE
8
BLACK
6
CONTINUOUS
10
0.506102
20
0.476472
11
0.47815
21
0.476472
0
LINE
8
BLACK
6
CONTINUOUS
10
0.47815
20
0.476472
11
0.47815
21
0.50285
0
LINE
8
BLACK
6
CONTINUOUS
10
0.47815
20
0.50285
11
0.506102
21
0.50285
0
LINE
8
BLACK
6
CONTINUOUS
10
0.506102
20
0.50285
11
0.506102
21
0.476472
0
LINE
8
BLACK
6
CONTINUOUS
10
0.540748
20
0.476472
11
0.512795
21
0.476472
0
LINE
8
BLACK
6
CONTINUOUS
10
0.512795
20
0.476472
11
0.512795
21
0.50285
0
LINE
8
BLACK
6
CONTINUOUS
10
0.512795
20
0.50285
11
0.540748
21
0.50285
0
LINE
8
BLACK
6
CONTINUOUS
10
0.540748
20
0.50285
11
0.540748
21
0.476472
0
LINE
8
BLACK
6
CONTINUOUS
10
0.436811
20
0.476472
11
0.408858
21
0.476472
0
LINE
8
BLACK
6
CONTINUOUS
10
0.408858
20
0.476472
11
0.408858
21
0.50285
0
LINE
8
BLACK
6
CONTINUOUS
10
0.408858
20
0.50285
11
0.436811
21
0.50285
0
LINE
8
BLACK
6
CONTINUOUS
10
0.436811
20
0.50285
11
0.436811
21
0.476472
0
LINE
8
BLACK
6
CONTINUOUS
10
0.575394
20
0.476472
11
0.547441
21
0.476472
0
LINE
8
BLACK
6
CONTINUOUS
10
0.547441
20
0.476472
11
0.547441
21
0.50285
0
LINE
8
BLACK
6
CONTINUOUS
10
0.547441
20
0.50285
11
0.575394
21
0.50285
0
LINE
8
BLACK
6
CONTINUOUS
10
0.575394
20
0.50285
11
0.575394
21
0.476472
0
LINE
8
BLACK
6
CONTINUOUS
10
0.471457
20
0.476472
11
0.443504
21
0.476472
0
LINE
8
BLACK
6
CONTINUOUS
10
0.443504
20
0.476472
11
0.443504
21
0.50285
0
LINE
8
BLACK
6
CONTINUOUS
10
0.443504
20
0.50285
11
0.471457
21
0.50285
0
LINE
8
BLACK
6
CONTINUOUS
10
0.471457
20
0.50285
11
0.471457
21
0.476472
0
LINE
8
BLACK
6
CONTINUOUS
10
0.974239
20
0.521889
11
0.977432
21
0.519755
0
LINE
8
BLACK
6
CONTINUOUS
10
0.977432
20
0.519755
11
0.979566
21
0.516562
0
LINE
8
BLACK
6
CONTINUOUS
10
0.979566
20
0.516562
11
0.980315
21
0.512795
0
LINE
8
BLACK
6
CONTINUOUS
10
0.980315
20
0.512795
11
0.980315
21
0.49311
0
LINE
8
BLACK
6
CONTINUOUS
10
0.980315
20
0.49311
11
0.979566
21
0.489344
0
LINE
8
BLACK
6
CONTINUOUS
10
0.979566
20
0.489344
11
0.977432
21
0.486151
0
LINE
8
BLACK
6
CONTINUOUS
10
0.977432
20
0.486151
11
0.974239
21
0.484017
0
LINE
8
BLACK
6
CONTINUOUS
10
0.974239
20
0.484017
11
0.970472
21
0.483268
0
LINE
8
BLACK
6
CONTINUOUS
10
0.970472
20
0.483268
11
0.883858
21
0.483268
0
LINE
8
BLACK
6
CONTINUOUS
10
0.883858
20
0.483268
11
0.880092
21
0.484017
0
LINE
8
BLACK
6
CONTINUOUS
10
0.880092
20
0.484017
11
0.876899
21
0.486151
0
LINE
8
BLACK
6
CONTINUOUS
10
0.876899
20
0.486151
11
0.874765
21
0.489344
0
LINE
8
BLACK
6
CONTINUOUS
10
0.874765
20
0.489344
11
0.874016
21
0.49311
0
LINE
8
BLACK
6
CONTINUOUS
10
0.874016
20
0.49311
11
0.874016
21
0.512795
0
LINE
8
BLACK
6
CONTINUOUS
10
0.874016
20
0.512795
11
0.874765
21
0.516562
0
LINE
8
BLACK
6
CONTINUOUS
10
0.874765
20
0.516562
11
0.876899
21
0.519755
0
LINE
8
BLACK
6
CONTINUOUS
10
0.876899
20
0.519755
11
0.880092
21
0.521889
0
LINE
8
BLACK
6
CONTINUOUS
10
0.880092
20
0.521889
11
0.883858
21
0.522638
0
LINE
8
BLACK
6
CONTINUOUS
10
0.883858
20
0.522638
11
0.970472
21
0.522638
0
LINE
8
BLACK
6
CONTINUOUS
10
0.970472
20
0.522638
11
0.974239
21
0.521889
0
LINE
8
BLACK
6
CONTINUOUS
10
0.10416
20
0.521889
11
0.107353
21
0.519755
0
LINE
8
BLACK
6
CONTINUOUS
10
0.107353
20
0.519755
11
0.109487
21
0.516562
0
LINE
8
BLACK
6
CONTINUOUS
10
0.109487
20
0.516562
11
0.110236
21
0.512795
0
LINE
8
BLACK
6
CONTINUOUS
10
0.110236
20
0.512795
11
0.110236
21
0.49311
0
LINE
8
BLACK
6
CONTINUOUS
10
0.110236
20
0.49311
11
0.109487
21
0.489344
0
LINE
8
BLACK
6
CONTINUOUS
10
0.109487
20
0.489344
11
0.107353
21
0.486151
0
LINE
8
BLACK
6
CONTINUOUS
10
0.107353
20
0.486151
11
0.10416
21
0.484017
0
LINE
8
BLACK
6
CONTINUOUS
10
0.10416
20
0.484017
11
0.100394
21
0.483268
0
LINE
8
BLACK
6
CONTINUOUS
10
0.100394
20
0.483268
11
0.0137795
21
0.483268
0
LINE
8
BLACK
6
CONTINUOUS
10
0.0137795
20
0.483268
11
0.010013
21
0.484017
0
LINE
8
BLACK
6
CONTINUOUS
10
0.010013
20
0.484017
11
0.0068198
21
0.486151
0
LINE
8
BLACK
6
CONTINUOUS
10
0.0068198
20
0.486151
11
0.00468622
21
0.489344
0
LINE
8
BLACK
6
CONTINUOUS
10
0.00468622
20
0.489344
11
0.00393701
21
0.49311
0
LINE
8
BLACK
6
CONTINUOUS
10
0.00393701
20
0.49311
11
0.00393701
21
0.512795
0
LINE
8
BLACK
6
CONTINUOUS
10
0.00393701
20
0.512795
11
0.00468622
21
0.516562
0
LINE
8
BLACK
6
CONTINUOUS
10
0.00468622
20
0.516562
11
0.0068198
21
0.519755
0
LINE
8
BLACK
6
CONTINUOUS
10
0.0068198
20
0.519755
11
0.010013
21
0.521889
0
LINE
8
BLACK
6
CONTINUOUS
10
0.010013
20
0.521889
11
0.0137795
21
0.522638
0
LINE
8
BLACK
6
CONTINUOUS
10
0.0137795
20
0.522638
11
0.100394
21
0.522638
0
LINE
8
BLACK
6
CONTINUOUS
10
0.100394
20
0.522638
11
0.10416
21
0.521889
0
LINE
8
BLACK
6
CONTINUOUS
10
0.540748
20
0.50915
11
0.512795
21
0.50915
0
LINE
8
BLACK
6
CONTINUOUS
10
0.512795
20
0.50915
11
0.512795
21
0.535528
0
LINE
8
BLACK
6
CONTINUOUS
10
0.512795
20
0.535528
11
0.540748
21
0.535528
0
LINE
8
BLACK
6
CONTINUOUS
10
0.540748
20
0.535528
11
0.540748
21
0.50915
0
LINE
8
BLACK
6
CONTINUOUS
10
0.436811
20
0.50915
11
0.408858
21
0.50915
0
LINE
8
BLACK
6
CONTINUOUS
10
0.408858
20
0.50915
11
0.408858
21
0.535528
0
LINE
8
BLACK
6
CONTINUOUS
10
0.408858
20
0.535528
11
0.436811
21
0.535528
0
LINE
8
BLACK
6
CONTINUOUS
10
0.436811
20
0.535528
11
0.436811
21
0.50915
0
LINE
8
BLACK
6
CONTINUOUS
10
0.575394
20
0.50915
11
0.547441
21
0.50915
0
LINE
8
BLACK
6
CONTINUOUS
10
0.547441
20
0.50915
11
0.547441
21
0.535528
0
LINE
8
BLACK
6
CONTINUOUS
10
0.547441
20
0.535528
11
0.575394
21
0.535528
0
LINE
8
BLACK
6
CONTINUOUS
10
0.575394
20
0.535528
11
0.575394
21
0.50915
0
LINE
8
BLACK
6
CONTINUOUS
10
0.471457
20
0.50915
11
0.443504
21
0.50915
0
LINE
8
BLACK
6
CONTINUOUS
10
0.443504
20
0.50915
11
0.443504
21
0.535528
0
LINE
8
BLACK
6
CONTINUOUS
10
0.443504
20
0.535528
11
0.471457
21
0.535528
0
LINE
8
BLACK
6
CONTINUOUS
10
0.471457
20
0.535528
11
0.471457
21
0.50915
0
LINE
8
BLACK
6
CONTINUOUS
10
0.506102
20
0.50915
11
0.47815
21
0.50915
0
LINE
8
BLACK
6
CONTINUOUS
10
0.47815
20
0.50915
11
0.47815
21
0.535528
0
LINE
8
BLACK
6
CONTINUOUS
10
0.47815
20
0.535528
11
0.506102
21
0.535528
0
LINE
8
BLACK
6
CONTINUOUS
10
0.506102
20
0.535528
11
0.506102
21
0.50915
0
LINE
8
BLACK
6
CONTINUOUS
10
0.354887
20
0.560101
11
0.357442
21
0.558395
0
LINE
8
BLACK
6
CONTINUOUS
10
0.357442
20
0.558395
11
0.359149
21
0.55584
0
LINE
8
BLACK
6
CONTINUOUS
10
0.359149
20
0.55584
11
0.359748
21
0.552827
0
LINE
8
BLACK
6
CONTINUOUS
10
0.359748
20
0.552827
11
0.359748
21
0.531173
0
LINE
8
BLACK
6
CONTINUOUS
10
0.359748
20
0.531173
11
0.359149
21
0.52816
0
LINE
8
BLACK
6
CONTINUOUS
10
0.359149
20
0.52816
11
0.357442
21
0.525605
0
LINE
8
BLACK
6
CONTINUOUS
10
0.357442
20
0.525605
11
0.354887
21
0.523899
0
LINE
8
BLACK
6
CONTINUOUS
10
0.354887
20
0.523899
11
0.351874
21
0.523299
0
LINE
8
BLACK
6
CONTINUOUS
10
0.351874
20
0.523299
11
0.336126
21
0.523299
0
LINE
8
BLACK
6
CONTINUOUS
10
0.336126
20
0.523299
11
0.333113
21
0.523899
0
LINE
8
BLACK
6
CONTINUOUS
10
0.333113
20
0.523899
11
0.330558
21
0.525605
0
LINE
8
BLACK
6
CONTINUOUS
10
0.330558
20
0.525605
11
0.328851
21
0.52816
0
LINE
8
BLACK
6
CONTINUOUS
10
0.328851
20
0.52816
11
0.328252
21
0.531173
0
LINE
8
BLACK
6
CONTINUOUS
10
0.328252
20
0.531173
11
0.328252
21
0.552827
0
LINE
8
BLACK
6
CONTINUOUS
10
0.328252
20
0.552827
11
0.328851
21
0.55584
0
LINE
8
BLACK
6
CONTINUOUS
10
0.328851
20
0.55584
11
0.330558
21
0.558395
0
LINE
8
BLACK
6
CONTINUOUS
10
0.330558
20
0.558395
11
0.333113
21
0.560101
0
LINE
8
BLACK
6
CONTINUOUS
10
0.333113
20
0.560101
11
0.336126
21
0.560701
0
LINE
8
BLACK
6
CONTINUOUS
10
0.336126
20
0.560701
11
0.351874
21
0.560701
0
LINE
8
BLACK
6
CONTINUOUS
10
0.351874
20
0.560701
11
0.354887
21
0.560101
0
LINE
8
BLACK
6
CONTINUOUS
10
0.289927
20
0.560101
11
0.292481
21
0.558395
0
LINE
8
BLACK
6
CONTINUOUS
10
0.292481
20
0.558395
11
0.294188
21
0.55584
0
LINE
8
BLACK
6
CONTINUOUS
10
0.294188
20
0.55584
11
0.294787
21
0.552827
0
LINE
8
BLACK
6
CONTINUOUS
10
0.294787
20
0.552827
11
0.294787
21
0.531173
0
LINE
8
BLACK
6
CONTINUOUS
10
0.294787
20
0.531173
11
0.294188
21
0.52816
0
LINE
8
BLACK
6
CONTINUOUS
10
0.294188
20
0.52816
11
0.292481
21
0.525605
0
LINE
8
BLACK
6
CONTINUOUS
10
0.292481
20
0.525605
11
0.289927
21
0.523899
0
LINE
8
BLACK
6
CONTINUOUS
10
0.289927
20
0.523899
11
0.286913
21
0.523299
0
LINE
8
BLACK
6
CONTINUOUS
10
0.286913
20
0.523299
11
0.271165
21
0.523299
0
LINE
8
BLACK
6
CONTINUOUS
10
0.271165
20
0.523299
11
0.268152
21
0.523899
0
LINE
8
BLACK
6
CONTINUOUS
10
0.268152
20
0.523899
11
0.265598
21
0.525605
0
LINE
8
BLACK
6
CONTINUOUS
10
0.265598
20
0.525605
11
0.263891
21
0.52816
0
LINE
8
BLACK
6
CONTINUOUS
10
0.263891
20
0.52816
11
0.263291
21
0.531173
0
LINE
8
BLACK
6
CONTINUOUS
10
0.263291
20
0.531173
11
0.263291
21
0.552827
0
LINE
8
BLACK
6
CONTINUOUS
10
0.263291
20
0.552827
11
0.263891
21
0.55584
0
LINE
8
BLACK
6
CONTINUOUS
10
0.263891
20
0.55584
11
0.265598
21
0.558395
0
LINE
8
BLACK
6
CONTINUOUS
10
0.265598
20
0.558395
11
0.268152
21
0.560101
0
LINE
8
BLACK
6
CONTINUOUS
10
0.268152
20
0.560101
11
0.271165
21
0.560701
0
LINE
8
BLACK
6
CONTINUOUS
10
0.271165
20
0.560701
11
0.286913
21
0.560701
0
LINE
8
BLACK
6
CONTINUOUS
10
0.286913
20
0.560701
11
0.289927
21
0.560101
0
LINE
8
BLACK
6
CONTINUOUS
10
0.658232
20
0.572042
11
0.661106
21
0.570122
0
LINE
8
BLACK
6
CONTINUOUS
10
0.661106
20
0.570122
11
0.663026
21
0.567248
0
LINE
8
BLACK
6
CONTINUOUS
10
0.663026
20
0.567248
11
0.663701
21
0.563858
0
LINE
8
BLACK
6
CONTINUOUS
10
0.663701
20
0.563858
11
0.663701
21
0.546142
0
LINE
8
BLACK
6
CONTINUOUS
10
0.663701
20
0.546142
11
0.663026
21
0.542752
0
LINE
8
BLACK
6
CONTINUOUS
10
0.663026
20
0.542752
11
0.661106
21
0.539878
0
LINE
8
BLACK
6
CONTINUOUS
10
0.661106
20
0.539878
11
0.658232
21
0.537958
0
LINE
8
BLACK
6
CONTINUOUS
10
0.658232
20
0.537958
11
0.654843
21
0.537283
0
LINE
8
BLACK
6
CONTINUOUS
10
0.654843
20
0.537283
11
0.635157
21
0.537283
0
LINE
8
BLACK
6
CONTINUOUS
10
0.635157
20
0.537283
11
0.631768
21
0.537958
0
LINE
8
BLACK
6
CONTINUOUS
10
0.631768
20
0.537958
11
0.628894
21
0.539878
0
LINE
8
BLACK
6
CONTINUOUS
10
0.628894
20
0.539878
11
0.626974
21
0.542752
0
LINE
8
BLACK
6
CONTINUOUS
10
0.626974
20
0.542752
11
0.626299
21
0.546142
0
LINE
8
BLACK
6
CONTINUOUS
10
0.626299
20
0.546142
11
0.626299
21
0.563858
0
LINE
8
BLACK
6
CONTINUOUS
10
0.626299
20
0.563858
11
0.626974
21
0.567248
0
LINE
8
BLACK
6
CONTINUOUS
10
0.626974
20
0.567248
11
0.628894
21
0.570122
0
LINE
8
BLACK
6
CONTINUOUS
10
0.628894
20
0.570122
11
0.631768
21
0.572042
0
LINE
8
BLACK
6
CONTINUOUS
10
0.631768
20
0.572042
11
0.635157
21
0.572717
0
LINE
8
BLACK
6
CONTINUOUS
10
0.635157
20
0.572717
11
0.654843
21
0.572717
0
LINE
8
BLACK
6
CONTINUOUS
10
0.654843
20
0.572717
11
0.658232
21
0.572042
0
LINE
8
BLACK
6
CONTINUOUS
10
0.54626
20
0.549307
11
0.536417
21
0.549307
0
LINE
8
BLACK
6
CONTINUOUS
10
0.536417
20
0.549307
11
0.536417
21
0.574898
0
LINE
8
BLACK
6
CONTINUOUS
10
0.536417
20
0.574898
11
0.54626
21
0.574898
0
LINE
8
BLACK
6
CONTINUOUS
10
0.54626
20
0.574898
11
0.54626
21
0.549307
0
LINE
8
BLACK
6
CONTINUOUS
10
0.565945
20
0.549307
11
0.556102
21
0.549307
0
LINE
8
BLACK
6
CONTINUOUS
10
0.556102
20
0.549307
11
0.556102
21
0.574898
0
LINE
8
BLACK
6
CONTINUOUS
10
0.556102
20
0.574898
11
0.565945
21
0.574898
0
LINE
8
BLACK
6
CONTINUOUS
10
0.565945
20
0.574898
11
0.565945
21
0.549307
0
LINE
8
BLACK
6
CONTINUOUS
10
0.526575
20
0.549307
11
0.516732
21
0.549307
0
LINE
8
BLACK
6
CONTINUOUS
10
0.516732
20
0.549307
11
0.516732
21
0.574898
0
LINE
8
BLACK
6
CONTINUOUS
10
0.516732
20
0.574898
11
0.526575
21
0.574898
0
LINE
8
BLACK
6
CONTINUOUS
10
0.526575
20
0.574898
11
0.526575
21
0.549307
0
LINE
8
BLACK
6
CONTINUOUS
10
0.50689
20
0.549307
11
0.497047
21
0.549307
0
LINE
8
BLACK
6
CONTINUOUS
10
0.497047
20
0.549307
11
0.497047
21
0.574898
0
LINE
8
BLACK
6
CONTINUOUS
10
0.497047
20
0.574898
11
0.50689
21
0.574898
0
LINE
8
BLACK
6
CONTINUOUS
10
0.50689
20
0.574898
11
0.50689
21
0.549307
0
LINE
8
BLACK
6
CONTINUOUS
10
0.487205
20
0.549307
11
0.477362
21
0.549307
0
LINE
8
BLACK
6
CONTINUOUS
10
0.477362
20
0.549307
11
0.477362
21
0.574898
0
LINE
8
BLACK
6
CONTINUOUS
10
0.477362
20
0.574898
11
0.487205
21
0.574898
0
LINE
8
BLACK
6
CONTINUOUS
10
0.487205
20
0.574898
11
0.487205
21
0.549307
0
LINE
8
BLACK
6
CONTINUOUS
10
0.46752
20
0.549307
11
0.457677
21
0.549307
0
LINE
8
BLACK
6
CONTINUOUS
10
0.457677
20
0.549307
11
0.457677
21
0.574898
0
LINE
8
BLACK
6
CONTINUOUS
10
0.457677
20
0.574898
11
0.46752
21
0.574898
0
LINE
8
BLACK
6
CONTINUOUS
10
0.46752
20
0.574898
11
0.46752
21
0.549307
0
LINE
8
BLACK
6
CONTINUOUS
10
0.447835
20
0.549307
11
0.437992
21
0.549307
0
LINE
8
BLACK
6
CONTINUOUS
10
0.437992
20
0.549307
11
0.437992
21
0.574898
0
LINE
8
BLACK
6
CONTINUOUS
10
0.437992
20
0.574898
11
0.447835
21
0.574898
0
LINE
8
BLACK
6
CONTINUOUS
10
0.447835
20
0.574898
11
0.447835
21
0.549307
0
LINE
8
BLACK
6
CONTINUOUS
10
0.42815
20
0.549307
11
0.418307
21
0.549307
0
LINE
8
BLACK
6
CONTINUOUS
10
0.418307
20
0.549307
11
0.418307
21
0.574898
0
LINE
8
BLACK
6
CONTINUOUS
10
0.418307
20
0.574898
11
0.42815
21
0.574898
0
LINE
8
BLACK
6
CONTINUOUS
10
0.42815
20
0.574898
11
0.42815
21
0.549307
0
LINE
8
BLACK
6
CONTINUOUS
10
0.831
20
0.587149
11
0.832916
21
0.585869
0
LINE
8
BLACK
6
CONTINUOUS
10
0.832916
20
0.585869
11
0.834196
21
0.583953
0
LINE
8
BLACK
6
CONTINUOUS
10
0.834196
20
0.583953
11
0.834646
21
0.581693
0
LINE
8
BLACK
6
CONTINUOUS
10
0.834646
20
0.581693
11
0.834646
21
0.569882
0
LINE
8
BLACK
6
CONTINUOUS
10
0.834646
20
0.569882
11
0.834196
21
0.567622
0
LINE
8
BLACK
6
CONTINUOUS
10
0.834196
20
0.567622
11
0.832916
21
0.565706
0
LINE
8
BLACK
6
CONTINUOUS
10
0.832916
20
0.565706
11
0.831
21
0.564426
0
LINE
8
BLACK
6
CONTINUOUS
10
0.831
20
0.564426
11
0.82874
21
0.563976
0
LINE
8
BLACK
6
CONTINUOUS
10
0.82874
20
0.563976
11
0.773622
21
0.563976
0
LINE
8
BLACK
6
CONTINUOUS
10
0.773622
20
0.563976
11
0.771362
21
0.564426
0
LINE
8
BLACK
6
CONTINUOUS
10
0.771362
20
0.564426
11
0.769446
21
0.565706
0
LINE
8
BLACK
6
CONTINUOUS
10
0.769446
20
0.565706
11
0.768166
21
0.567622
0
LINE
8
BLACK
6
CONTINUOUS
10
0.768166
20
0.567622
11
0.767717
21
0.569882
0
LINE
8
BLACK
6
CONTINUOUS
10
0.767717
20
0.569882
11
0.767717
21
0.581693
0
LINE
8
BLACK
6
CONTINUOUS
10
0.767717
20
0.581693
11
0.768166
21
0.583953
0
LINE
8
BLACK
6
CONTINUOUS
10
0.768166
20
0.583953
11
0.769446
21
0.585869
0
LINE
8
BLACK
6
CONTINUOUS
10
0.769446
20
0.585869
11
0.771362
21
0.587149
0
LINE
8
BLACK
6
CONTINUOUS
10
0.771362
20
0.587149
11
0.773622
21
0.587598
0
LINE
8
BLACK
6
CONTINUOUS
10
0.773622
20
0.587598
11
0.82874
21
0.587598
0
LINE
8
BLACK
6
CONTINUOUS
10
0.82874
20
0.587598
11
0.831
21
0.587149
0
LINE
8
BLACK
6
CONTINUOUS
10
0.21289
20
0.587149
11
0.214806
21
0.585869
0
LINE
8
BLACK
6
CONTINUOUS
10
0.214806
20
0.585869
11
0.216086
21
0.583953
0
LINE
8
BLACK
6
CONTINUOUS
10
0.216086
20
0.583953
11
0.216535
21
0.581693
0
LINE
8
BLACK
6
CONTINUOUS
10
0.216535
20
0.581693
11
0.216535
21
0.569882
0
LINE
8
BLACK
6
CONTINUOUS
10
0.216535
20
0.569882
11
0.216086
21
0.567622
0
LINE
8
BLACK
6
CONTINUOUS
10
0.216086
20
0.567622
11
0.214806
21
0.565706
0
LINE
8
BLACK
6
CONTINUOUS
10
0.214806
20
0.565706
11
0.21289
21
0.564426
0
LINE
8
BLACK
6
CONTINUOUS
10
0.21289
20
0.564426
11
0.21063
21
0.563976
0
LINE
8
BLACK
6
CONTINUOUS
10
0.21063
20
0.563976
11
0.155512
21
0.563976
0
LINE
8
BLACK
6
CONTINUOUS
10
0.155512
20
0.563976
11
0.153252
21
0.564426
0
LINE
8
BLACK
6
CONTINUOUS
10
0.153252
20
0.564426
11
0.151336
21
0.565706
0
LINE
8
BLACK
6
CONTINUOUS
10
0.151336
20
0.565706
11
0.150056
21
0.567622
0
LINE
8
BLACK
6
CONTINUOUS
10
0.150056
20
0.567622
11
0.149606
21
0.569882
0
LINE
8
BLACK
6
CONTINUOUS
10
0.149606
20
0.569882
11
0.149606
21
0.581693
0
LINE
8
BLACK
6
CONTINUOUS
10
0.149606
20
0.581693
11
0.150056
21
0.583953
0
LINE
8
BLACK
6
CONTINUOUS
10
0.150056
20
0.583953
11
0.151336
21
0.585869
0
LINE
8
BLACK
6
CONTINUOUS
10
0.151336
20
0.585869
11
0.153252
21
0.587149
0
LINE
8
BLACK
6
CONTINUOUS
10
0.153252
20
0.587149
11
0.155512
21
0.587598
0
LINE
8
BLACK
6
CONTINUOUS
10
0.155512
20
0.587598
11
0.21063
21
0.587598
0
LINE
8
BLACK
6
CONTINUOUS
10
0.21063
20
0.587598
11
0.21289
21
0.587149
0
LINE
8
BLACK
6
CONTINUOUS
10
0.328801
20
0.633149
11
0.331355
21
0.631442
0
LINE
8
BLACK
6
CONTINUOUS
10
0.331355
20
0.631442
11
0.333062
21
0.628887
0
LINE
8
BLACK
6
CONTINUOUS
10
0.333062
20
0.628887
11
0.333661
21
0.625874
0
LINE
8
BLACK
6
CONTINUOUS
10
0.333661
20
0.625874
11
0.333661
21
0.610126
0
LINE
8
BLACK
6
CONTINUOUS
10
0.333661
20
0.610126
11
0.333062
21
0.607113
0
LINE
8
BLACK
6
CONTINUOUS
10
0.333062
20
0.607113
11
0.331355
21
0.604558
0
LINE
8
BLACK
6
CONTINUOUS
10
0.331355
20
0.604558
11
0.328801
21
0.602851
0
LINE
8
BLACK
6
CONTINUOUS
10
0.328801
20
0.602851
11
0.325787
21
0.602252
0
LINE
8
BLACK
6
CONTINUOUS
10
0.325787
20
0.602252
11
0.304134
21
0.602252
0
LINE
8
BLACK
6
CONTINUOUS
10
0.304134
20
0.602252
11
0.301121
21
0.602851
0
LINE
8
BLACK
6
CONTINUOUS
10
0.301121
20
0.602851
11
0.298566
21
0.604558
0
LINE
8
BLACK
6
CONTINUOUS
10
0.298566
20
0.604558
11
0.296859
21
0.607113
0
LINE
8
BLACK
6
CONTINUOUS
10
0.296859
20
0.607113
11
0.29626
21
0.610126
0
LINE
8
BLACK
6
CONTINUOUS
10
0.29626
20
0.610126
11
0.29626
21
0.625874
0
LINE
8
BLACK
6
CONTINUOUS
10
0.29626
20
0.625874
11
0.296859
21
0.628887
0
LINE
8
BLACK
6
CONTINUOUS
10
0.296859
20
0.628887
11
0.298566
21
0.631442
0
LINE
8
BLACK
6
CONTINUOUS
10
0.298566
20
0.631442
11
0.301121
21
0.633149
0
LINE
8
BLACK
6
CONTINUOUS
10
0.301121
20
0.633149
11
0.304134
21
0.633748
0
LINE
8
BLACK
6
CONTINUOUS
10
0.304134
20
0.633748
11
0.325787
21
0.633748
0
LINE
8
BLACK
6
CONTINUOUS
10
0.325787
20
0.633748
11
0.328801
21
0.633149
0
LINE
8
BLACK
6
CONTINUOUS
10
0.683131
20
0.634668
11
0.685686
21
0.632961
0
LINE
8
BLACK
6
CONTINUOUS
10
0.685686
20
0.632961
11
0.687393
21
0.630407
0
LINE
8
BLACK
6
CONTINUOUS
10
0.687393
20
0.630407
11
0.687992
21
0.627394
0
LINE
8
BLACK
6
CONTINUOUS
10
0.687992
20
0.627394
11
0.687992
21
0.611646
0
LINE
8
BLACK
6
CONTINUOUS
10
0.687992
20
0.611646
11
0.687393
21
0.608632
0
LINE
8
BLACK
6
CONTINUOUS
10
0.687393
20
0.608632
11
0.685686
21
0.606078
0
LINE
8
BLACK
6
CONTINUOUS
10
0.685686
20
0.606078
11
0.683131
21
0.604371
0
LINE
8
BLACK
6
CONTINUOUS
10
0.683131
20
0.604371
11
0.680118
21
0.603772
0
LINE
8
BLACK
6
CONTINUOUS
10
0.680118
20
0.603772
11
0.658465
21
0.603772
0
LINE
8
BLACK
6
CONTINUOUS
10
0.658465
20
0.603772
11
0.655451
21
0.604371
0
LINE
8
BLACK
6
CONTINUOUS
10
0.655451
20
0.604371
11
0.652897
21
0.606078
0
LINE
8
BLACK
6
CONTINUOUS
10
0.652897
20
0.606078
11
0.65119
21
0.608632
0
LINE
8
BLACK
6
CONTINUOUS
10
0.65119
20
0.608632
11
0.650591
21
0.611646
0
LINE
8
BLACK
6
CONTINUOUS
10
0.650591
20
0.611646
11
0.650591
21
0.627394
0
LINE
8
BLACK
6
CONTINUOUS
10
0.650591
20
0.627394
11
0.65119
21
0.630407
0
LINE
8
BLACK
6
CONTINUOUS
10
0.65119
20
0.630407
11
0.652897
21
0.632961
0
LINE
8
BLACK
6
CONTINUOUS
10
0.652897
20
0.632961
11
0.655451
21
0.634668
0
LINE
8
BLACK
6
CONTINUOUS
10
0.655451
20
0.634668
11
0.658465
21
0.635268
0
LINE
8
BLACK
6
CONTINUOUS
10
0.658465
20
0.635268
11
0.680118
21
0.635268
0
LINE
8
BLACK
6
CONTINUOUS
10
0.680118
20
0.635268
11
0.683131
21
0.634668
0
LINE
8
BLACK
6
CONTINUOUS
10
0.831
20
0.636361
11
0.832916
21
0.635081
0
LINE
8
BLACK
6
CONTINUOUS
10
0.832916
20
0.635081
11
0.834196
21
0.633165
0
LINE
8
BLACK
6
CONTINUOUS
10
0.834196
20
0.633165
11
0.834646
21
0.630906
0
LINE
8
BLACK
6
CONTINUOUS
10
0.834646
20
0.630906
11
0.834646
21
0.619094
0
LINE
8
BLACK
6
CONTINUOUS
10
0.834646
20
0.619094
11
0.834196
21
0.616835
0
LINE
8
BLACK
6
CONTINUOUS
10
0.834196
20
0.616835
11
0.832916
21
0.614919
0
LINE
8
BLACK
6
CONTINUOUS
10
0.832916
20
0.614919
11
0.831
21
0.613639
0
LINE
8
BLACK
6
CONTINUOUS
10
0.831
20
0.613639
11
0.82874
21
0.613189
0
LINE
8
BLACK
6
CONTINUOUS
10
0.82874
20
0.613189
11
0.773622
21
0.613189
0
LINE
8
BLACK
6
CONTINUOUS
10
0.773622
20
0.613189
11
0.771362
21
0.613639
0
LINE
8
BLACK
6
CONTINUOUS
10
0.771362
20
0.613639
11
0.769446
21
0.614919
0
LINE
8
BLACK
6
CONTINUOUS
10
0.769446
20
0.614919
11
0.768166
21
0.616835
0
LINE
8
BLACK
6
CONTINUOUS
10
0.768166
20
0.616835
11
0.767717
21
0.619094
0
LINE
8
BLACK
6
CONTINUOUS
10
0.767717
20
0.619094
11
0.767717
21
0.630906
0
LINE
8
BLACK
6
CONTINUOUS
10
0.767717
20
0.630906
11
0.768166
21
0.633165
0
LINE
8
BLACK
6
CONTINUOUS
10
0.768166
20
0.633165
11
0.769446
21
0.635081
0
LINE
8
BLACK
6
CONTINUOUS
10
0.769446
20
0.635081
11
0.771362
21
0.636361
0
LINE
8
BLACK
6
CONTINUOUS
10
0.771362
20
0.636361
11
0.773622
21
0.636811
0
LINE
8
BLACK
6
CONTINUOUS
10
0.773622
20
0.636811
11
0.82874
21
0.636811
0
LINE
8
BLACK
6
CONTINUOUS
10
0.82874
20
0.636811
11
0.831
21
0.636361
0
LINE
8
BLACK
6
CONTINUOUS
10
0.21289
20
0.636361
11
0.214806
21
0.635081
0
LINE
8
BLACK
6
CONTINUOUS
10
0.214806
20
0.635081
11
0.216086
21
0.633165
0
LINE
8
BLACK
6
CONTINUOUS
10
0.216086
20
0.633165
11
0.216535
21
0.630906
0
LINE
8
BLACK
6
CONTINUOUS
10
0.216535
20
0.630906
11
0.216535
21
0.619094
0
LINE
8
BLACK
6
CONTINUOUS
10
0.216535
20
0.619094
11
0.216086
21
0.616835
0
LINE
8
BLACK
6
CONTINUOUS
10
0.216086
20
0.616835
11
0.214806
21
0.614919
0
LINE
8
BLACK
6
CONTINUOUS
10
0.214806
20
0.614919
11
0.21289
21
0.613639
0
LINE
8
BLACK
6
CONTINUOUS
10
0.21289
20
0.613639
11
0.21063
21
0.613189
0
LINE
8
BLACK
6
CONTINUOUS
10
0.21063
20
0.613189
11
0.155512
21
0.613189
0
LINE
8
BLACK
6
CONTINUOUS
10
0.155512
20
0.613189
11
0.153252
21
0.613639
0
LINE
8
BLACK
6
CONTINUOUS
10
0.153252
20
0.613639
11
0.151336
21
0.614919
0
LINE
8
BLACK
6
CONTINUOUS
10
0.151336
20
0.614919
11
0.150056
21
0.616835
0
LINE
8
BLACK
6
CONTINUOUS
10
0.150056
20
0.616835
11
0.149606
21
0.619094
0
LINE
8
BLACK
6
CONTINUOUS
10
0.149606
20
0.619094
11
0.149606
21
0.630906
0
LINE
8
BLACK
6
CONTINUOUS
10
0.149606
20
0.630906
11
0.150056
21
0.633165
0
LINE
8
BLACK
6
CONTINUOUS
10
0.150056
20
0.633165
11
0.151336
21
0.635081
0
LINE
8
BLACK
6
CONTINUOUS
10
0.151336
20
0.635081
11
0.153252
21
0.636361
0
LINE
8
BLACK
6
CONTINUOUS
10
0.153252
20
0.636361
11
0.155512
21
0.636811
0
LINE
8
BLACK
6
CONTINUOUS
10
0.155512
20
0.636811
11
0.21063
21
0.636811
0
LINE
8
BLACK
6
CONTINUOUS
10
0.21063
20
0.636811
11
0.21289
21
0.636361
0
LINE
8
BLACK
6
CONTINUOUS
10
0.21289
20
0.685574
11
0.214806
21
0.684294
0
LINE
8
BLACK
6
CONTINUOUS
10
0.214806
20
0.684294
11
0.216086
21
0.682378
0
LINE
8
BLACK
6
CONTINUOUS
10
0.216086
20
0.682378
11
0.216535
21
0.680118
0
LINE
8
BLACK
6
CONTINUOUS
10
0.216535
20
0.680118
11
0.216535
21
0.668307
0
LINE
8
BLACK
6
CONTINUOUS
10
0.216535
20
0.668307
11
0.216086
21
0.666047
0
LINE
8
BLACK
6
CONTINUOUS
10
0.216086
20
0.666047
11
0.214806
21
0.664131
0
LINE
8
BLACK
6
CONTINUOUS
10
0.214806
20
0.664131
11
0.21289
21
0.662851
0
LINE
8
BLACK
6
CONTINUOUS
10
0.21289
20
0.662851
11
0.21063
21
0.662402
0
LINE
8
BLACK
6
CONTINUOUS
10
0.21063
20
0.662402
11
0.155512
21
0.662402
0
LINE
8
BLACK
6
CONTINUOUS
10
0.155512
20
0.662402
11
0.153252
21
0.662851
0
LINE
8
BLACK
6
CONTINUOUS
10
0.153252
20
0.662851
11
0.151336
21
0.664131
0
LINE
8
BLACK
6
CONTINUOUS
10
0.151336
20
0.664131
11
0.150056
21
0.666047
0
LINE
8
BLACK
6
CONTINUOUS
10
0.150056
20
0.666047
11
0.149606
21
0.668307
0
LINE
8
BLACK
6
CONTINUOUS
10
0.149606
20
0.668307
11
0.149606
21
0.680118
0
LINE
8
BLACK
6
CONTINUOUS
10
0.149606
20
0.680118
11
0.150056
21
0.682378
0
LINE
8
BLACK
6
CONTINUOUS
10
0.150056
20
0.682378
11
0.151336
21
0.684294
0
LINE
8
BLACK
6
CONTINUOUS
10
0.151336
20
0.684294
11
0.153252
21
0.685574
0
LINE
8
BLACK
6
CONTINUOUS
10
0.153252
20
0.685574
11
0.155512
21
0.686024
0
LINE
8
BLACK
6
CONTINUOUS
10
0.155512
20
0.686024
11
0.21063
21
0.686024
0
LINE
8
BLACK
6
CONTINUOUS
10
0.21063
20
0.686024
11
0.21289
21
0.685574
0
LINE
8
BLACK
6
CONTINUOUS
10
0.831
20
0.685574
11
0.832916
21
0.684294
0
LINE
8
BLACK
6
CONTINUOUS
10
0.832916
20
0.684294
11
0.834196
21
0.682378
0
LINE
8
BLACK
6
CONTINUOUS
10
0.834196
20
0.682378
11
0.834646
21
0.680118
0
LINE
8
BLACK
6
CONTINUOUS
10
0.834646
20
0.680118
11
0.834646
21
0.668307
0
LINE
8
BLACK
6
CONTINUOUS
10
0.834646
20
0.668307
11
0.834196
21
0.666047
0
LINE
8
BLACK
6
CONTINUOUS
10
0.834196
20
0.666047
11
0.832916
21
0.664131
0
LINE
8
BLACK
6
CONTINUOUS
10
0.832916
20
0.664131
11
0.831
21
0.662851
0
LINE
8
BLACK
6
CONTINUOUS
10
0.831
20
0.662851
11
0.82874
21
0.662402
0
LINE
8
BLACK
6
CONTINUOUS
10
0.82874
20
0.662402
11
0.773622
21
0.662402
0
LINE
8
BLACK
6
CONTINUOUS
10
0.773622
20
0.662402
11
0.771362
21
0.662851
0
LINE
8
BLACK
6
CONTINUOUS
10
0.771362
20
0.662851
11
0.769446
21
0.664131
0
LINE
8
BLACK
6
CONTINUOUS
10
0.769446
20
0.664131
11
0.768166
21
0.666047
0
LINE
8
BLACK
6
CONTINUOUS
10
0.768166
20
0.666047
11
0.767717
21
0.668307
0
LINE
8
BLACK
6
CONTINUOUS
10
0.767717
20
0.668307
11
0.767717
21
0.680118
0
LINE
8
BLACK
6
CONTINUOUS
10
0.767717
20
0.680118
11
0.768166
21
0.682378
0
LINE
8
BLACK
6
CONTINUOUS
10
0.768166
20
0.682378
11
0.769446
21
0.684294
0
LINE
8
BLACK
6
CONTINUOUS
10
0.769446
20
0.684294
11
0.771362
21
0.685574
0
LINE
8
BLACK
6
CONTINUOUS
10
0.771362
20
0.685574
11
0.773622
21
0.686024
0
LINE
8
BLACK
6
CONTINUOUS
10
0.773622
20
0.686024
11
0.82874
21
0.686024
0
LINE
8
BLACK
6
CONTINUOUS
10
0.82874
20
0.686024
11
0.831
21
0.685574
0
LINE
8
BLACK
6
CONTINUOUS
10
0.328801
20
0.698109
11
0.331355
21
0.696402
0
LINE
8
BLACK
6
CONTINUOUS
10
0.331355
20
0.696402
11
0.333062
21
0.693848
0
LINE
8
BLACK
6
CONTINUOUS
10
0.333062
20
0.693848
11
0.333661
21
0.690835
0
LINE
8
BLACK
6
CONTINUOUS
10
0.333661
20
0.690835
11
0.333661
21
0.675087
0
LINE
8
BLACK
6
CONTINUOUS
10
0.333661
20
0.675087
11
0.333062
21
0.672073
0
LINE
8
BLACK
6
CONTINUOUS
10
0.333062
20
0.672073
11
0.331355
21
0.669519
0
LINE
8
BLACK
6
CONTINUOUS
10
0.331355
20
0.669519
11
0.328801
21
0.667812
0
LINE
8
BLACK
6
CONTINUOUS
10
0.328801
20
0.667812
11
0.325787
21
0.667213
0
LINE
8
BLACK
6
CONTINUOUS
10
0.325787
20
0.667213
11
0.304134
21
0.667213
0
LINE
8
BLACK
6
CONTINUOUS
10
0.304134
20
0.667213
11
0.301121
21
0.667812
0
LINE
8
BLACK
6
CONTINUOUS
10
0.301121
20
0.667812
11
0.298566
21
0.669519
0
LINE
8
BLACK
6
CONTINUOUS
10
0.298566
20
0.669519
11
0.296859
21
0.672073
0
LINE
8
BLACK
6
CONTINUOUS
10
0.296859
20
0.672073
11
0.29626
21
0.675087
0
LINE
8
BLACK
6
CONTINUOUS
10
0.29626
20
0.675087
11
0.29626
21
0.690835
0
LINE
8
BLACK
6
CONTINUOUS
10
0.29626
20
0.690835
11
0.296859
21
0.693848
0
LINE
8
BLACK
6
CONTINUOUS
10
0.296859
20
0.693848
11
0.298566
21
0.696402
0
LINE
8
BLACK
6
CONTINUOUS
10
0.298566
20
0.696402
11
0.301121
21
0.698109
0
LINE
8
BLACK
6
CONTINUOUS
10
0.301121
20
0.698109
11
0.304134
21
0.698709
0
LINE
8
BLACK
6
CONTINUOUS
10
0.304134
20
0.698709
11
0.325787
21
0.698709
0
LINE
8
BLACK
6
CONTINUOUS
10
0.325787
20
0.698709
11
0.328801
21
0.698109
0
LINE
8
BLACK
6
CONTINUOUS
10
0.683131
20
0.699629
11
0.685686
21
0.697922
0
LINE
8
BLACK
6
CONTINUOUS
10
0.685686
20
0.697922
11
0.687393
21
0.695368
0
LINE
8
BLACK
6
CONTINUOUS
10
0.687393
20
0.695368
11
0.687992
21
0.692354
0
LINE
8
BLACK
6
CONTINUOUS
10
0.687992
20
0.692354
11
0.687992
21
0.676606
0
LINE
8
BLACK
6
CONTINUOUS
10
0.687992
20
0.676606
11
0.687393
21
0.673593
0
LINE
8
BLACK
6
CONTINUOUS
10
0.687393
20
0.673593
11
0.685686
21
0.671039
0
LINE
8
BLACK
6
CONTINUOUS
10
0.685686
20
0.671039
11
0.683131
21
0.669332
0
LINE
8
BLACK
6
CONTINUOUS
10
0.683131
20
0.669332
11
0.680118
21
0.668732
0
LINE
8
BLACK
6
CONTINUOUS
10
0.680118
20
0.668732
11
0.658465
21
0.668732
0
LINE
8
BLACK
6
CONTINUOUS
10
0.658465
20
0.668732
11
0.655451
21
0.669332
0
LINE
8
BLACK
6
CONTINUOUS
10
0.655451
20
0.669332
11
0.652897
21
0.671039
0
LINE
8
BLACK
6
CONTINUOUS
10
0.652897
20
0.671039
11
0.65119
21
0.673593
0
LINE
8
BLACK
6
CONTINUOUS
10
0.65119
20
0.673593
11
0.650591
21
0.676606
0
LINE
8
BLACK
6
CONTINUOUS
10
0.650591
20
0.676606
11
0.650591
21
0.692354
0
LINE
8
BLACK
6
CONTINUOUS
10
0.650591
20
0.692354
11
0.65119
21
0.695368
0
LINE
8
BLACK
6
CONTINUOUS
10
0.65119
20
0.695368
11
0.652897
21
0.697922
0
LINE
8
BLACK
6
CONTINUOUS
10
0.652897
20
0.697922
11
0.655451
21
0.699629
0
LINE
8
BLACK
6
CONTINUOUS
10
0.655451
20
0.699629
11
0.658465
21
0.700228
0
LINE
8
BLACK
6
CONTINUOUS
10
0.658465
20
0.700228
11
0.680118
21
0.700228
0
LINE
8
BLACK
6
CONTINUOUS
10
0.680118
20
0.700228
11
0.683131
21
0.699629
0
LINE
8
BLACK
6
CONTINUOUS
10
0.537462
20
0.723101
11
0.540017
21
0.721395
0
LINE
8
BLACK
6
CONTINUOUS
10
0.540017
20
0.721395
11
0.541723
21
0.71884
0
LINE
8
BLACK
6
CONTINUOUS
10
0.541723
20
0.71884
11
0.542323
21
0.715827
0
LINE
8
BLACK
6
CONTINUOUS
10
0.542323
20
0.715827
11
0.542323
21
0.694173
0
LINE
8
BLACK
6
CONTINUOUS
10
0.542323
20
0.694173
11
0.541723
21
0.69116
0
LINE
8
BLACK
6
CONTINUOUS
10
0.541723
20
0.69116
11
0.540017
21
0.688605
0
LINE
8
BLACK
6
CONTINUOUS
10
0.540017
20
0.688605
11
0.537462
21
0.686899
0
LINE
8
BLACK
6
CONTINUOUS
10
0.537462
20
0.686899
11
0.534449
21
0.686299
0
LINE
8
BLACK
6
CONTINUOUS
10
0.534449
20
0.686299
11
0.518701
21
0.686299
0
LINE
8
BLACK
6
CONTINUOUS
10
0.518701
20
0.686299
11
0.515688
21
0.686899
0
LINE
8
BLACK
6
CONTINUOUS
10
0.515688
20
0.686899
11
0.513133
21
0.688605
0
LINE
8
BLACK
6
CONTINUOUS
10
0.513133
20
0.688605
11
0.511426
21
0.69116
0
LINE
8
BLACK
6
CONTINUOUS
10
0.511426
20
0.69116
11
0.510827
21
0.694173
0
LINE
8
BLACK
6
CONTINUOUS
10
0.510827
20
0.694173
11
0.510827
21
0.715827
0
LINE
8
BLACK
6
CONTINUOUS
10
0.510827
20
0.715827
11
0.511426
21
0.71884
0
LINE
8
BLACK
6
CONTINUOUS
10
0.511426
20
0.71884
11
0.513133
21
0.721395
0
LINE
8
BLACK
6
CONTINUOUS
10
0.513133
20
0.721395
11
0.515688
21
0.723101
0
LINE
8
BLACK
6
CONTINUOUS
10
0.515688
20
0.723101
11
0.518701
21
0.723701
0
LINE
8
BLACK
6
CONTINUOUS
10
0.518701
20
0.723701
11
0.534449
21
0.723701
0
LINE
8
BLACK
6
CONTINUOUS
10
0.534449
20
0.723701
11
0.537462
21
0.723101
0
LINE
8
BLACK
6
CONTINUOUS
10
0.602423
20
0.723101
11
0.604977
21
0.721395
0
LINE
8
BLACK
6
CONTINUOUS
10
0.604977
20
0.721395
11
0.606684
21
0.71884
0
LINE
8
BLACK
6
CONTINUOUS
10
0.606684
20
0.71884
11
0.607283
21
0.715827
0
LINE
8
BLACK
6
CONTINUOUS
10
0.607283
20
0.715827
11
0.607283
21
0.694173
0
LINE
8
BLACK
6
CONTINUOUS
10
0.607283
20
0.694173
11
0.606684
21
0.69116
0
LINE
8
BLACK
6
CONTINUOUS
10
0.606684
20
0.69116
11
0.604977
21
0.688605
0
LINE
8
BLACK
6
CONTINUOUS
10
0.604977
20
0.688605
11
0.602423
21
0.686899
0
LINE
8
BLACK
6
CONTINUOUS
10
0.602423
20
0.686899
11
0.599409
21
0.686299
0
LINE
8
BLACK
6
CONTINUOUS
10
0.599409
20
0.686299
11
0.583661
21
0.686299
0
LINE
8
BLACK
6
CONTINUOUS
10
0.583661
20
0.686299
11
0.580648
21
0.686899
0
LINE
8
BLACK
6
CONTINUOUS
10
0.580648
20
0.686899
11
0.578094
21
0.688605
0
LINE
8
BLACK
6
CONTINUOUS
10
0.578094
20
0.688605
11
0.576387
21
0.69116
0
LINE
8
BLACK
6
CONTINUOUS
10
0.576387
20
0.69116
11
0.575787
21
0.694173
0
LINE
8
BLACK
6
CONTINUOUS
10
0.575787
20
0.694173
11
0.575787
21
0.715827
0
LINE
8
BLACK
6
CONTINUOUS
10
0.575787
20
0.715827
11
0.576387
21
0.71884
0
LINE
8
BLACK
6
CONTINUOUS
10
0.576387
20
0.71884
11
0.578094
21
0.721395
0
LINE
8
BLACK
6
CONTINUOUS
10
0.578094
20
0.721395
11
0.580648
21
0.723101
0
LINE
8
BLACK
6
CONTINUOUS
10
0.580648
20
0.723101
11
0.583661
21
0.723701
0
LINE
8
BLACK
6
CONTINUOUS
10
0.583661
20
0.723701
11
0.599409
21
0.723701
0
LINE
8
BLACK
6
CONTINUOUS
10
0.599409
20
0.723701
11
0.602423
21
0.723101
0
LINE
8
BLACK
6
CONTINUOUS
10
0.468564
20
0.723101
11
0.471119
21
0.721395
0
LINE
8
BLACK
6
CONTINUOUS
10
0.471119
20
0.721395
11
0.472826
21
0.71884
0
LINE
8
BLACK
6
CONTINUOUS
10
0.472826
20
0.71884
11
0.473425
21
0.715827
0
LINE
8
BLACK
6
CONTINUOUS
10
0.473425
20
0.715827
11
0.473425
21
0.694173
0
LINE
8
BLACK
6
CONTINUOUS
10
0.473425
20
0.694173
11
0.472826
21
0.69116
0
LINE
8
BLACK
6
CONTINUOUS
10
0.472826
20
0.69116
11
0.471119
21
0.688605
0
LINE
8
BLACK
6
CONTINUOUS
10
0.471119
20
0.688605
11
0.468564
21
0.686899
0
LINE
8
BLACK
6
CONTINUOUS
10
0.468564
20
0.686899
11
0.465551
21
0.686299
0
LINE
8
BLACK
6
CONTINUOUS
10
0.465551
20
0.686299
11
0.449803
21
0.686299
0
LINE
8
BLACK
6
CONTINUOUS
10
0.449803
20
0.686299
11
0.44679
21
0.686899
0
LINE
8
BLACK
6
CONTINUOUS
10
0.44679
20
0.686899
11
0.444235
21
0.688605
0
LINE
8
BLACK
6
CONTINUOUS
10
0.444235
20
0.688605
11
0.442529
21
0.69116
0
LINE
8
BLACK
6
CONTINUOUS
10
0.442529
20
0.69116
11
0.441929
21
0.694173
0
LINE
8
BLACK
6
CONTINUOUS
10
0.441929
20
0.694173
11
0.441929
21
0.715827
0
LINE
8
BLACK
6
CONTINUOUS
10
0.441929
20
0.715827
11
0.442529
21
0.71884
0
LINE
8
BLACK
6
CONTINUOUS
10
0.442529
20
0.71884
11
0.444235
21
0.721395
0
LINE
8
BLACK
6
CONTINUOUS
10
0.444235
20
0.721395
11
0.44679
21
0.723101
0
LINE
8
BLACK
6
CONTINUOUS
10
0.44679
20
0.723101
11
0.449803
21
0.723701
0
LINE
8
BLACK
6
CONTINUOUS
10
0.449803
20
0.723701
11
0.465551
21
0.723701
0
LINE
8
BLACK
6
CONTINUOUS
10
0.465551
20
0.723701
11
0.468564
21
0.723101
0
LINE
8
BLACK
6
CONTINUOUS
10
0.403604
20
0.723101
11
0.406158
21
0.721395
0
LINE
8
BLACK
6
CONTINUOUS
10
0.406158
20
0.721395
11
0.407865
21
0.71884
0
LINE
8
BLACK
6
CONTINUOUS
10
0.407865
20
0.71884
11
0.408465
21
0.715827
0
LINE
8
BLACK
6
CONTINUOUS
10
0.408465
20
0.715827
11
0.408465
21
0.694173
0
LINE
8
BLACK
6
CONTINUOUS
10
0.408465
20
0.694173
11
0.407865
21
0.69116
0
LINE
8
BLACK
6
CONTINUOUS
10
0.407865
20
0.69116
11
0.406158
21
0.688605
0
LINE
8
BLACK
6
CONTINUOUS
10
0.406158
20
0.688605
11
0.403604
21
0.686899
0
LINE
8
BLACK
6
CONTINUOUS
10
0.403604
20
0.686899
11
0.400591
21
0.686299
0
LINE
8
BLACK
6
CONTINUOUS
10
0.400591
20
0.686299
11
0.384843
21
0.686299
0
LINE
8
BLACK
6
CONTINUOUS
10
0.384843
20
0.686299
11
0.381829
21
0.686899
0
LINE
8
BLACK
6
CONTINUOUS
10
0.381829
20
0.686899
11
0.379275
21
0.688605
0
LINE
8
BLACK
6
CONTINUOUS
10
0.379275
20
0.688605
11
0.377568
21
0.69116
0
LINE
8
BLACK
6
CONTINUOUS
10
0.377568
20
0.69116
11
0.376969
21
0.694173
0
LINE
8
BLACK
6
CONTINUOUS
10
0.376969
20
0.694173
11
0.376969
21
0.715827
0
LINE
8
BLACK
6
CONTINUOUS
10
0.376969
20
0.715827
11
0.377568
21
0.71884
0
LINE
8
BLACK
6
CONTINUOUS
10
0.377568
20
0.71884
11
0.379275
21
0.721395
0
LINE
8
BLACK
6
CONTINUOUS
10
0.379275
20
0.721395
11
0.381829
21
0.723101
0
LINE
8
BLACK
6
CONTINUOUS
10
0.381829
20
0.723101
11
0.384843
21
0.723701
0
LINE
8
BLACK
6
CONTINUOUS
10
0.384843
20
0.723701
11
0.400591
21
0.723701
0
LINE
8
BLACK
6
CONTINUOUS
10
0.400591
20
0.723701
11
0.403604
21
0.723101
0
LINE
8
BLACK
6
CONTINUOUS
10
0.21289
20
0.734787
11
0.214806
21
0.733507
0
LINE
8
BLACK
6
CONTINUOUS
10
0.214806
20
0.733507
11
0.216086
21
0.731591
0
LINE
8
BLACK
6
CONTINUOUS
10
0.216086
20
0.731591
11
0.216535
21
0.729331
0
LINE
8
BLACK
6
CONTINUOUS
10
0.216535
20
0.729331
11
0.216535
21
0.71752
0
LINE
8
BLACK
6
CONTINUOUS
10
0.216535
20
0.71752
11
0.216086
21
0.71526
0
LINE
8
BLACK
6
CONTINUOUS
10
0.216086
20
0.71526
11
0.214806
21
0.713344
0
LINE
8
BLACK
6
CONTINUOUS
10
0.214806
20
0.713344
11
0.21289
21
0.712064
0
LINE
8
BLACK
6
CONTINUOUS
10
0.21289
20
0.712064
11
0.21063
21
0.711614
0
LINE
8
BLACK
6
CONTINUOUS
10
0.21063
20
0.711614
11
0.155512
21
0.711614
0
LINE
8
BLACK
6
CONTINUOUS
10
0.155512
20
0.711614
11
0.153252
21
0.712064
0
LINE
8
BLACK
6
CONTINUOUS
10
0.153252
20
0.712064
11
0.151336
21
0.713344
0
LINE
8
BLACK
6
CONTINUOUS
10
0.151336
20
0.713344
11
0.150056
21
0.71526
0
LINE
8
BLACK
6
CONTINUOUS
10
0.150056
20
0.71526
11
0.149606
21
0.71752
0
LINE
8
BLACK
6
CONTINUOUS
10
0.149606
20
0.71752
11
0.149606
21
0.729331
0
LINE
8
BLACK
6
CONTINUOUS
10
0.149606
20
0.729331
11
0.150056
21
0.731591
0
LINE
8
BLACK
6
CONTINUOUS
10
0.150056
20
0.731591
11
0.151336
21
0.733507
0
LINE
8
BLACK
6
CONTINUOUS
10
0.151336
20
0.733507
11
0.153252
21
0.734787
0
LINE
8
BLACK
6
CONTINUOUS
10
0.153252
20
0.734787
11
0.155512
21
0.735236
0
LINE
8
BLACK
6
CONTINUOUS
10
0.155512
20
0.735236
11
0.21063
21
0.735236
0
LINE
8
BLACK
6
CONTINUOUS
10
0.21063
20
0.735236
11
0.21289
21
0.734787
0
LINE
8
BLACK
6
CONTINUOUS
10
0.831
20
0.734787
11
0.832916
21
0.733507
0
LINE
8
BLACK
6
CONTINUOUS
10
0.832916
20
0.733507
11
0.834196
21
0.731591
0
LINE
8
BLACK
6
CONTINUOUS
10
0.834196
20
0.731591
11
0.834646
21
0.729331
0
LINE
8
BLACK
6
CONTINUOUS
10
0.834646
20
0.729331
11
0.834646
21
0.71752
0
LINE
8
BLACK
6
CONTINUOUS
10
0.834646
20
0.71752
11
0.834196
21
0.71526
0
LINE
8
BLACK
6
CONTINUOUS
10
0.834196
20
0.71526
11
0.832916
21
0.713344
0
LINE
8
BLACK
6
CONTINUOUS
10
0.832916
20
0.713344
11
0.831
21
0.712064
0
LINE
8
BLACK
6
CONTINUOUS
10
0.831
20
0.712064
11
0.82874
21
0.711614
0
LINE
8
BLACK
6
CONTINUOUS
10
0.82874
20
0.711614
11
0.773622
21
0.711614
0
LINE
8
BLACK
6
CONTINUOUS
10
0.773622
20
0.711614
11
0.771362
21
0.712064
0
LINE
8
BLACK
6
CONTINUOUS
10
0.771362
20
0.712064
11
0.769446
21
0.713344
0
LINE
8
BLACK
6
CONTINUOUS
10
0.769446
20
0.713344
11
0.768166
21
0.71526
0
LINE
8
BLACK
6
CONTINUOUS
10
0.768166
20
0.71526
11
0.767717
21
0.71752
0
LINE
8
BLACK
6
CONTINUOUS
10
0.767717
20
0.71752
11
0.767717
21
0.729331
0
LINE
8
BLACK
6
CONTINUOUS
10
0.767717
20
0.729331
11
0.768166
21
0.731591
0
LINE
8
BLACK
6
CONTINUOUS
10
0.768166
20
0.731591
11
0.769446
21
0.733507
0
LINE
8
BLACK
6
CONTINUOUS
10
0.769446
20
0.733507
11
0.771362
21
0.734787
0
LINE
8
BLACK
6
CONTINUOUS
10
0.771362
20
0.734787
11
0.773622
21
0.735236
0
LINE
8
BLACK
6
CONTINUOUS
10
0.773622
20
0.735236
11
0.82874
21
0.735236
0
LINE
8
BLACK
6
CONTINUOUS
10
0.82874
20
0.735236
11
0.831
21
0.734787
0
LINE
8
BLACK
6
CONTINUOUS
10
0.683131
20
0.758668
11
0.685686
21
0.756961
0
LINE
8
BLACK
6
CONTINUOUS
10
0.685686
20
0.756961
11
0.687393
21
0.754407
0
LINE
8
BLACK
6
CONTINUOUS
10
0.687393
20
0.754407
11
0.687992
21
0.751394
0
LINE
8
BLACK
6
CONTINUOUS
10
0.687992
20
0.751394
11
0.687992
21
0.735646
0
LINE
8
BLACK
6
CONTINUOUS
10
0.687992
20
0.735646
11
0.687393
21
0.732632
0
LINE
8
BLACK
6
CONTINUOUS
10
0.687393
20
0.732632
11
0.685686
21
0.730078
0
LINE
8
BLACK
6
CONTINUOUS
10
0.685686
20
0.730078
11
0.683131
21
0.728371
0
LINE
8
BLACK
6
CONTINUOUS
10
0.683131
20
0.728371
11
0.680118
21
0.727772
0
LINE
8
BLACK
6
CONTINUOUS
10
0.680118
20
0.727772
11
0.658465
21
0.727772
0
LINE
8
BLACK
6
CONTINUOUS
10
0.658465
20
0.727772
11
0.655451
21
0.728371
0
LINE
8
BLACK
6
CONTINUOUS
10
0.655451
20
0.728371
11
0.652897
21
0.730078
0
LINE
8
BLACK
6
CONTINUOUS
10
0.652897
20
0.730078
11
0.65119
21
0.732632
0
LINE
8
BLACK
6
CONTINUOUS
10
0.65119
20
0.732632
11
0.650591
21
0.735646
0
LINE
8
BLACK
6
CONTINUOUS
10
0.650591
20
0.735646
11
0.650591
21
0.751394
0
LINE
8
BLACK
6
CONTINUOUS
10
0.650591
20
0.751394
11
0.65119
21
0.754407
0
LINE
8
BLACK
6
CONTINUOUS
10
0.65119
20
0.754407
11
0.652897
21
0.756961
0
LINE
8
BLACK
6
CONTINUOUS
10
0.652897
20
0.756961
11
0.655451
21
0.758668
0
LINE
8
BLACK
6
CONTINUOUS
10
0.655451
20
0.758668
11
0.658465
21
0.759268
0
LINE
8
BLACK
6
CONTINUOUS
10
0.658465
20
0.759268
11
0.680118
21
0.759268
0
LINE
8
BLACK
6
CONTINUOUS
10
0.680118
20
0.759268
11
0.683131
21
0.758668
0
LINE
8
BLACK
6
CONTINUOUS
10
0.328801
20
0.759149
11
0.331355
21
0.757442
0
LINE
8
BLACK
6
CONTINUOUS
10
0.331355
20
0.757442
11
0.333062
21
0.754887
0
LINE
8
BLACK
6
CONTINUOUS
10
0.333062
20
0.754887
11
0.333661
21
0.751874
0
LINE
8
BLACK
6
CONTINUOUS
10
0.333661
20
0.751874
11
0.333661
21
0.736126
0
LINE
8
BLACK
6
CONTINUOUS
10
0.333661
20
0.736126
11
0.333062
21
0.733113
0
LINE
8
BLACK
6
CONTINUOUS
10
0.333062
20
0.733113
11
0.331355
21
0.730558
0
LINE
8
BLACK
6
CONTINUOUS
10
0.331355
20
0.730558
11
0.328801
21
0.728851
0
LINE
8
BLACK
6
CONTINUOUS
10
0.328801
20
0.728851
11
0.325787
21
0.728252
0
LINE
8
BLACK
6
CONTINUOUS
10
0.325787
20
0.728252
11
0.304134
21
0.728252
0
LINE
8
BLACK
6
CONTINUOUS
10
0.304134
20
0.728252
11
0.301121
21
0.728851
0
LINE
8
BLACK
6
CONTINUOUS
10
0.301121
20
0.728851
11
0.298566
21
0.730558
0
LINE
8
BLACK
6
CONTINUOUS
10
0.298566
20
0.730558
11
0.296859
21
0.733113
0
LINE
8
BLACK
6
CONTINUOUS
10
0.296859
20
0.733113
11
0.29626
21
0.736126
0
LINE
8
BLACK
6
CONTINUOUS
10
0.29626
20
0.736126
11
0.29626
21
0.751874
0
LINE
8
BLACK
6
CONTINUOUS
10
0.29626
20
0.751874
11
0.296859
21
0.754887
0
LINE
8
BLACK
6
CONTINUOUS
10
0.296859
20
0.754887
11
0.298566
21
0.757442
0
LINE
8
BLACK
6
CONTINUOUS
10
0.298566
20
0.757442
11
0.301121
21
0.759149
0
LINE
8
BLACK
6
CONTINUOUS
10
0.301121
20
0.759149
11
0.304134
21
0.759748
0
LINE
8
BLACK
6
CONTINUOUS
10
0.304134
20
0.759748
11
0.325787
21
0.759748
0
LINE
8
BLACK
6
CONTINUOUS
10
0.325787
20
0.759748
11
0.328801
21
0.759149
0
LINE
8
BLACK
6
CONTINUOUS
10
0.10416
20
0.815196
11
0.107353
21
0.813062
0
LINE
8
BLACK
6
CONTINUOUS
10
0.107353
20
0.813062
11
0.109487
21
0.809869
0
LINE
8
BLACK
6
CONTINUOUS
10
0.109487
20
0.809869
11
0.110236
21
0.806102
0
LINE
8
BLACK
6
CONTINUOUS
10
0.110236
20
0.806102
11
0.110236
21
0.786417
0
LINE
8
BLACK
6
CONTINUOUS
10
0.110236
20
0.786417
11
0.109487
21
0.782651
0
LINE
8
BLACK
6
CONTINUOUS
10
0.109487
20
0.782651
11
0.107353
21
0.779458
0
LINE
8
BLACK
6
CONTINUOUS
10
0.107353
20
0.779458
11
0.10416
21
0.777324
0
LINE
8
BLACK
6
CONTINUOUS
10
0.10416
20
0.777324
11
0.100394
21
0.776575
0
LINE
8
BLACK
6
CONTINUOUS
10
0.100394
20
0.776575
11
0.0137795
21
0.776575
0
LINE
8
BLACK
6
CONTINUOUS
10
0.0137795
20
0.776575
11
0.010013
21
0.777324
0
LINE
8
BLACK
6
CONTINUOUS
10
0.010013
20
0.777324
11
0.0068198
21
0.779458
0
LINE
8
BLACK
6
CONTINUOUS
10
0.0068198
20
0.779458
11
0.00468622
21
0.782651
0
LINE
8
BLACK
6
CONTINUOUS
10
0.00468622
20
0.782651
11
0.00393701
21
0.786417
0
LINE
8
BLACK
6
CONTINUOUS
10
0.00393701
20
0.786417
11
0.00393701
21
0.806102
0
LINE
8
BLACK
6
CONTINUOUS
10
0.00393701
20
0.806102
11
0.00468622
21
0.809869
0
LINE
8
BLACK
6
CONTINUOUS
10
0.00468622
20
0.809869
11
0.0068198
21
0.813062
0
LINE
8
BLACK
6
CONTINUOUS
10
0.0068198
20
0.813062
11
0.010013
21
0.815196
0
LINE
8
BLACK
6
CONTINUOUS
10
0.010013
20
0.815196
11
0.0137795
21
0.815945
0
LINE
8
BLACK
6
CONTINUOUS
10
0.0137795
20
0.815945
11
0.100394
21
0.815945
0
LINE
8
BLACK
6
CONTINUOUS
10
0.100394
20
0.815945
11
0.10416
21
0.815196
0
LINE
8
BLACK
6
CONTINUOUS
10
0.974239
20
0.815196
11
0.977432
21
0.813062
0
LINE
8
BLACK
6
CONTINUOUS
10
0.977432
20
0.813062
11
0.979566
21
0.809869
0
LINE
8
BLACK
6
CONTINUOUS
10
0.979566
20
0.809869
11
0.980315
21
0.806102
0
LINE
8
BLACK
6
CONTINUOUS
10
0.980315
20
0.806102
11
0.980315
21
0.786417
0
LINE
8
BLACK
6
CONTINUOUS
10
0.980315
20
0.786417
11
0.979566
21
0.782651
0
LINE
8
BLACK
6
CONTINUOUS
10
0.979566
20
0.782651
11
0.977432
21
0.779458
0
LINE
8
BLACK
6
CONTINUOUS
10
0.977432
20
0.779458
11
0.974239
21
0.777324
0
LINE
8
BLACK
6
CONTINUOUS
10
0.974239
20
0.777324
11
0.970472
21
0.776575
0
LINE
8
BLACK
6
CONTINUOUS
10
0.970472
20
0.776575
11
0.883858
21
0.776575
0
LINE
8
BLACK
6
CONTINUOUS
10
0.883858
20
0.776575
11
0.880092
21
0.777324
0
LINE
8
BLACK
6
CONTINUOUS
10
0.880092
20
0.777324
11
0.876899
21
0.779458
0
LINE
8
BLACK
6
CONTINUOUS
10
0.876899
20
0.779458
11
0.874765
21
0.782651
0
LINE
8
BLACK
6
CONTINUOUS
10
0.874765
20
0.782651
11
0.874016
21
0.786417
0
LINE
8
BLACK
6
CONTINUOUS
10
0.874016
20
0.786417
11
0.874016
21
0.806102
0
LINE
8
BLACK
6
CONTINUOUS
10
0.874016
20
0.806102
11
0.874765
21
0.809869
0
LINE
8
BLACK
6
CONTINUOUS
10
0.874765
20
0.809869
11
0.876899
21
0.813062
0
LINE
8
BLACK
6
CONTINUOUS
10
0.876899
20
0.813062
11
0.880092
21
0.815196
0
LINE
8
BLACK
6
CONTINUOUS
10
0.880092
20
0.815196
11
0.883858
21
0.815945
0
LINE
8
BLACK
6
CONTINUOUS
10
0.883858
20
0.815945
11
0.970472
21
0.815945
0
LINE
8
BLACK
6
CONTINUOUS
10
0.970472
20
0.815945
11
0.974239
21
0.815196
0
LINE
8
BLACK
6
CONTINUOUS
10
0.602423
20
0.816101
11
0.604977
21
0.814395
0
LINE
8
BLACK
6
CONTINUOUS
10
0.604977
20
0.814395
11
0.606684
21
0.81184
0
LINE
8
BLACK
6
CONTINUOUS
10
0.606684
20
0.81184
11
0.607283
21
0.808827
0
LINE
8
BLACK
6
CONTINUOUS
10
0.607283
20
0.808827
11
0.607283
21
0.787173
0
LINE
8
BLACK
6
CONTINUOUS
10
0.607283
20
0.787173
11
0.606684
21
0.78416
0
LINE
8
BLACK
6
CONTINUOUS
10
0.606684
20
0.78416
11
0.604977
21
0.781605
0
LINE
8
BLACK
6
CONTINUOUS
10
0.604977
20
0.781605
11
0.602423
21
0.779899
0
LINE
8
BLACK
6
CONTINUOUS
10
0.602423
20
0.779899
11
0.599409
21
0.779299
0
LINE
8
BLACK
6
CONTINUOUS
10
0.599409
20
0.779299
11
0.583661
21
0.779299
0
LINE
8
BLACK
6
CONTINUOUS
10
0.583661
20
0.779299
11
0.580648
21
0.779899
0
LINE
8
BLACK
6
CONTINUOUS
10
0.580648
20
0.779899
11
0.578094
21
0.781605
0
LINE
8
BLACK
6
CONTINUOUS
10
0.578094
20
0.781605
11
0.576387
21
0.78416
0
LINE
8
BLACK
6
CONTINUOUS
10
0.576387
20
0.78416
11
0.575787
21
0.787173
0
LINE
8
BLACK
6
CONTINUOUS
10
0.575787
20
0.787173
11
0.575787
21
0.808827
0
LINE
8
BLACK
6
CONTINUOUS
10
0.575787
20
0.808827
11
0.576387
21
0.81184
0
LINE
8
BLACK
6
CONTINUOUS
10
0.576387
20
0.81184
11
0.578094
21
0.814395
0
LINE
8
BLACK
6
CONTINUOUS
10
0.578094
20
0.814395
11
0.580648
21
0.816101
0
LINE
8
BLACK
6
CONTINUOUS
10
0.580648
20
0.816101
11
0.583661
21
0.816701
0
LINE
8
BLACK
6
CONTINUOUS
10
0.583661
20
0.816701
11
0.599409
21
0.816701
0
LINE
8
BLACK
6
CONTINUOUS
10
0.599409
20
0.816701
11
0.602423
21
0.816101
0
LINE
8
BLACK
6
CONTINUOUS
10
0.468564
20
0.816101
11
0.471119
21
0.814395
0
LINE
8
BLACK
6
CONTINUOUS
10
0.471119
20
0.814395
11
0.472826
21
0.81184
0
LINE
8
BLACK
6
CONTINUOUS
10
0.472826
20
0.81184
11
0.473425
21
0.808827
0
LINE
8
BLACK
6
CONTINUOUS
10
0.473425
20
0.808827
11
0.473425
21
0.787173
0
LINE
8
BLACK
6
CONTINUOUS
10
0.473425
20
0.787173
11
0.472826
21
0.78416
0
LINE
8
BLACK
6
CONTINUOUS
10
0.472826
20
0.78416
11
0.471119
21
0.781605
0
LINE
8
BLACK
6
CONTINUOUS
10
0.471119
20
0.781605
11
0.468564
21
0.779899
0
LINE
8
BLACK
6
CONTINUOUS
10
0.468564
20
0.779899
11
0.465551
21
0.779299
0
LINE
8
BLACK
6
CONTINUOUS
10
0.465551
20
0.779299
11
0.449803
21
0.779299
0
LINE
8
BLACK
6
CONTINUOUS
10
0.449803
20
0.779299
11
0.44679
21
0.779899
0
LINE
8
BLACK
6
CONTINUOUS
10
0.44679
20
0.779899
11
0.444235
21
0.781605
0
LINE
8
BLACK
6
CONTINUOUS
10
0.444235
20
0.781605
11
0.442529
21
0.78416
0
LINE
8
BLACK
6
CONTINUOUS
10
0.442529
20
0.78416
11
0.441929
21
0.787173
0
LINE
8
BLACK
6
CONTINUOUS
10
0.441929
20
0.787173
11
0.441929
21
0.808827
0
LINE
8
BLACK
6
CONTINUOUS
10
0.441929
20
0.808827
11
0.442529
21
0.81184
0
LINE
8
BLACK
6
CONTINUOUS
10
0.442529
20
0.81184
11
0.444235
21
0.814395
0
LINE
8
BLACK
6
CONTINUOUS
10
0.444235
20
0.814395
11
0.44679
21
0.816101
0
LINE
8
BLACK
6
CONTINUOUS
10
0.44679
20
0.816101
11
0.449803
21
0.816701
0
LINE
8
BLACK
6
CONTINUOUS
10
0.449803
20
0.816701
11
0.465551
21
0.816701
0
LINE
8
BLACK
6
CONTINUOUS
10
0.465551
20
0.816701
11
0.468564
21
0.816101
0
LINE
8
BLACK
6
CONTINUOUS
10
0.403604
20
0.816101
11
0.406158
21
0.814395
0
LINE
8
BLACK
6
CONTINUOUS
10
0.406158
20
0.814395
11
0.407865
21
0.81184
0
LINE
8
BLACK
6
CONTINUOUS
10
0.407865
20
0.81184
11
0.408465
21
0.808827
0
LINE
8
BLACK
6
CONTINUOUS
10
0.408465
20
0.808827
11
0.408465
21
0.787173
0
LINE
8
BLACK
6
CONTINUOUS
10
0.408465
20
0.787173
11
0.407865
21
0.78416
0
LINE
8
BLACK
6
CONTINUOUS
10
0.407865
20
0.78416
11
0.406158
21
0.781605
0
LINE
8
BLACK
6
CONTINUOUS
10
0.406158
20
0.781605
11
0.403604
21
0.779899
0
LINE
8
BLACK
6
CONTINUOUS
10
0.403604
20
0.779899
11
0.400591
21
0.779299
0
LINE
8
BLACK
6
CONTINUOUS
10
0.400591
20
0.779299
11
0.384843
21
0.779299
0
LINE
8
BLACK
6
CONTINUOUS
10
0.384843
20
0.779299
11
0.381829
21
0.779899
0
LINE
8
BLACK
6
CONTINUOUS
10
0.381829
20
0.779899
11
0.379275
21
0.781605
0
LINE
8
BLACK
6
CONTINUOUS
10
0.379275
20
0.781605
11
0.377568
21
0.78416
0
LINE
8
BLACK
6
CONTINUOUS
10
0.377568
20
0.78416
11
0.376969
21
0.787173
0
LINE
8
BLACK
6
CONTINUOUS
10
0.376969
20
0.787173
11
0.376969
21
0.808827
0
LINE
8
BLACK
6
CONTINUOUS
10
0.376969
20
0.808827
11
0.377568
21
0.81184
0
LINE
8
BLACK
6
CONTINUOUS
10
0.377568
20
0.81184
11
0.379275
21
0.814395
0
LINE
8
BLACK
6
CONTINUOUS
10
0.379275
20
0.814395
11
0.381829
21
0.816101
0
LINE
8
BLACK
6
CONTINUOUS
10
0.381829
20
0.816101
11
0.384843
21
0.816701
0
LINE
8
BLACK
6
CONTINUOUS
10
0.384843
20
0.816701
11
0.400591
21
0.816701
0
LINE
8
BLACK
6
CONTINUOUS
10
0.400591
20
0.816701
11
0.403604
21
0.816101
0
LINE
8
BLACK
6
CONTINUOUS
10
0.537462
20
0.816101
11
0.540017
21
0.814395
0
LINE
8
BLACK
6
CONTINUOUS
10
0.540017
20
0.814395
11
0.541723
21
0.81184
0
LINE
8
BLACK
6
CONTINUOUS
10
0.541723
20
0.81184
11
0.542323
21
0.808827
0
LINE
8
BLACK
6
CONTINUOUS
10
0.542323
20
0.808827
11
0.542323
21
0.787173
0
LINE
8
BLACK
6
CONTINUOUS
10
0.542323
20
0.787173
11
0.541723
21
0.78416
0
LINE
8
BLACK
6
CONTINUOUS
10
0.541723
20
0.78416
11
0.540017
21
0.781605
0
LINE
8
BLACK
6
CONTINUOUS
10
0.540017
20
0.781605
11
0.537462
21
0.779899
0
LINE
8
BLACK
6
CONTINUOUS
10
0.537462
20
0.779899
11
0.534449
21
0.779299
0
LINE
8
BLACK
6
CONTINUOUS
10
0.534449
20
0.779299
11
0.518701
21
0.779299
0
LINE
8
BLACK
6
CONTINUOUS
10
0.518701
20
0.779299
11
0.515688
21
0.779899
0
LINE
8
BLACK
6
CONTINUOUS
10
0.515688
20
0.779899
11
0.513133
21
0.781605
0
LINE
8
BLACK
6
CONTINUOUS
10
0.513133
20
0.781605
11
0.511426
21
0.78416
0
LINE
8
BLACK
6
CONTINUOUS
10
0.511426
20
0.78416
11
0.510827
21
0.787173
0
LINE
8
BLACK
6
CONTINUOUS
10
0.510827
20
0.787173
11
0.510827
21
0.808827
0
LINE
8
BLACK
6
CONTINUOUS
10
0.510827
20
0.808827
11
0.511426
21
0.81184
0
LINE
8
BLACK
6
CONTINUOUS
10
0.511426
20
0.81184
11
0.513133
21
0.814395
0
LINE
8
BLACK
6
CONTINUOUS
10
0.513133
20
0.814395
11
0.515688
21
0.816101
0
LINE
8
BLACK
6
CONTINUOUS
10
0.515688
20
0.816101
11
0.518701
21
0.816701
0
LINE
8
BLACK
6
CONTINUOUS
10
0.518701
20
0.816701
11
0.534449
21
0.816701
0
LINE
8
BLACK
6
CONTINUOUS
10
0.534449
20
0.816701
11
0.537462
21
0.816101
0
LINE
8
BLACK
6
CONTINUOUS
10
0.683131
20
0.823629
11
0.685686
21
0.821922
0
LINE
8
BLACK
6
CONTINUOUS
10
0.685686
20
0.821922
11
0.687393
21
0.819368
0
LINE
8
BLACK
6
CONTINUOUS
10
0.687393
20
0.819368
11
0.687992
21
0.816354
0
LINE
8
BLACK
6
CONTINUOUS
10
0.687992
20
0.816354
11
0.687992
21
0.800606
0
LINE
8
BLACK
6
CONTINUOUS
10
0.687992
20
0.800606
11
0.687393
21
0.797593
0
LINE
8
BLACK
6
CONTINUOUS
10
0.687393
20
0.797593
11
0.685686
21
0.795039
0
LINE
8
BLACK
6
CONTINUOUS
10
0.685686
20
0.795039
11
0.683131
21
0.793332
0
LINE
8
BLACK
6
CONTINUOUS
10
0.683131
20
0.793332
11
0.680118
21
0.792732
0
LINE
8
BLACK
6
CONTINUOUS
10
0.680118
20
0.792732
11
0.658465
21
0.792732
0
LINE
8
BLACK
6
CONTINUOUS
10
0.658465
20
0.792732
11
0.655451
21
0.793332
0
LINE
8
BLACK
6
CONTINUOUS
10
0.655451
20
0.793332
11
0.652897
21
0.795039
0
LINE
8
BLACK
6
CONTINUOUS
10
0.652897
20
0.795039
11
0.65119
21
0.797593
0
LINE
8
BLACK
6
CONTINUOUS
10
0.65119
20
0.797593
11
0.650591
21
0.800606
0
LINE
8
BLACK
6
CONTINUOUS
10
0.650591
20
0.800606
11
0.650591
21
0.816354
0
LINE
8
BLACK
6
CONTINUOUS
10
0.650591
20
0.816354
11
0.65119
21
0.819368
0
LINE
8
BLACK
6
CONTINUOUS
10
0.65119
20
0.819368
11
0.652897
21
0.821922
0
LINE
8
BLACK
6
CONTINUOUS
10
0.652897
20
0.821922
11
0.655451
21
0.823629
0
LINE
8
BLACK
6
CONTINUOUS
10
0.655451
20
0.823629
11
0.658465
21
0.824228
0
LINE
8
BLACK
6
CONTINUOUS
10
0.658465
20
0.824228
11
0.680118
21
0.824228
0
LINE
8
BLACK
6
CONTINUOUS
10
0.680118
20
0.824228
11
0.683131
21
0.823629
0
LINE
8
BLACK
6
CONTINUOUS
10
0.328801
20
0.824109
11
0.331355
21
0.822402
0
LINE
8
BLACK
6
CONTINUOUS
10
0.331355
20
0.822402
11
0.333062
21
0.819848
0
LINE
8
BLACK
6
CONTINUOUS
10
0.333062
20
0.819848
11
0.333661
21
0.816835
0
LINE
8
BLACK
6
CONTINUOUS
10
0.333661
20
0.816835
11
0.333661
21
0.801087
0
LINE
8
BLACK
6
CONTINUOUS
10
0.333661
20
0.801087
11
0.333062
21
0.798073
0
LINE
8
BLACK
6
CONTINUOUS
10
0.333062
20
0.798073
11
0.331355
21
0.795519
0
LINE
8
BLACK
6
CONTINUOUS
10
0.331355
20
0.795519
11
0.328801
21
0.793812
0
LINE
8
BLACK
6
CONTINUOUS
10
0.328801
20
0.793812
11
0.325787
21
0.793213
0
LINE
8
BLACK
6
CONTINUOUS
10
0.325787
20
0.793213
11
0.304134
21
0.793213
0
LINE
8
BLACK
6
CONTINUOUS
10
0.304134
20
0.793213
11
0.301121
21
0.793812
0
LINE
8
BLACK
6
CONTINUOUS
10
0.301121
20
0.793812
11
0.298566
21
0.795519
0
LINE
8
BLACK
6
CONTINUOUS
10
0.298566
20
0.795519
11
0.296859
21
0.798073
0
LINE
8
BLACK
6
CONTINUOUS
10
0.296859
20
0.798073
11
0.29626
21
0.801087
0
LINE
8
BLACK
6
CONTINUOUS
10
0.29626
20
0.801087
11
0.29626
21
0.816835
0
LINE
8
BLACK
6
CONTINUOUS
10
0.29626
20
0.816835
11
0.296859
21
0.819848
0
LINE
8
BLACK
6
CONTINUOUS
10
0.296859
20
0.819848
11
0.298566
21
0.822402
0
LINE
8
BLACK
6
CONTINUOUS
10
0.298566
20
0.822402
11
0.301121
21
0.824109
0
LINE
8
BLACK
6
CONTINUOUS
10
0.301121
20
0.824109
11
0.304134
21
0.824709
0
LINE
8
BLACK
6
CONTINUOUS
10
0.304134
20
0.824709
11
0.325787
21
0.824709
0
LINE
8
BLACK
6
CONTINUOUS
10
0.325787
20
0.824709
11
0.328801
21
0.824109
  0
ENDSEC
  0
EOF
