  0
SECTION
  2
HEADER
  9
$ANGBASE
  50
0.0
  9
$ANGDIR
  70
1
  9
$MEASUREMENT
  70
0
  0
ENDSEC
  0
SECTION
  2
TABLES
  0
TABLE
  2
LTYPE
  70
4
  0
LTYPE
  5
40F
  2
CONTINUOUS
  70
0
  3
Solid line
  72
65
  73
0
  40
0.0
  0
LTYPE
  5
410
  2
DASHDOT
 70
0
  3
Dash Dot ____ _ ____ _
 72
65
 73
4
 40
2.0
 49
1.25
 49
-0.25
 49
0.25
 49
-0.25
  0
LTYPE
  5
411
  2
DASHED
 70
0
  3
Dashed __ __ __ __ __
 72
65
 73
2
 40
0.75
 49
0.5
 49
-0.25
  0
LTYPE
  5
43B
  2
DOTTED
 70
0
  3
Dotted .  .  .  .
 72
65
 73
2
 40
0.2
 49
0.0
 49
-0.2
  0
ENDTAB
  0
TABLE
  2
STYLE
  70
4
  0
STYLE
  2
KICAD
  70
0
  40
0
  41
1
  42
1
  50
0
  71
0
  3
isocp.shx
  0
STYLE
  2
KICADB
  70
0
  40
0
  41
1
  42
1
  50
0
  71
0
  3
isocp.shx
  0
STYLE
  2
KICADI
  70
0
  40
0
  41
1
  42
1
  50
15
  71
0
  3
isocp.shx
  0
STYLE
  2
KICADBI
  70
0
  40
0
  41
1
  42
1
  50
15
  71
0
  3
isocp.shx
  0
ENDTAB
  0
TABLE
  2
LAYER
  70
1
  0
LAYER
  2
BLACK
  70
0
  62
7
  6
CONTINUOUS
  0
ENDTAB
  0
ENDSEC
  0
SECTION
  2
ENTITIES
0
LINE
8
BLACK
6
CONTINUOUS
10
0.9856438976377953
20
-0.0182931102362205
11
0.9862204724409449
21
-0.0196850393700787
0
LINE
8
BLACK
6
CONTINUOUS
10
0.9862204724409449
20
-0.0196850393700787
11
0.9862204724409449
21
-0.2152527559055118
0
LINE
8
BLACK
6
CONTINUOUS
10
0.9862204724409449
20
-0.2152527559055118
11
0.9856438976377953
21
-0.2166446850393701
0
LINE
8
BLACK
6
CONTINUOUS
10
0.9856438976377953
20
-0.2166446850393701
11
0.984251968503937
21
-0.2172212598425197
0
LINE
8
BLACK
6
CONTINUOUS
10
0.984251968503937
20
-0.2172212598425197
11
0.9828600393700787
21
-0.2166446850393701
0
LINE
8
BLACK
6
CONTINUOUS
10
0.9828600393700787
20
-0.2166446850393701
11
0.9822834645669292
21
-0.2152527559055118
0
LINE
8
BLACK
6
CONTINUOUS
10
0.9822834645669292
20
-0.2152527559055118
11
0.9822834645669292
21
-0.1954093307086614
0
LINE
8
BLACK
6
CONTINUOUS
10
0.9822834645669292
20
-0.1954093307086614
11
0.9408103543307086
21
-0.2169988976377953
0
LINE
8
BLACK
6
CONTINUOUS
10
0.9408103543307086
20
-0.2169988976377953
11
0.9393094881889763
21
-0.2171301574803149
0
LINE
8
BLACK
6
CONTINUOUS
10
0.9393094881889763
20
-0.2171301574803149
11
0.9381553149606299
21
-0.2161617322834646
0
LINE
8
BLACK
6
CONTINUOUS
10
0.9381553149606299
20
-0.2161617322834646
11
0.9380240551181103
21
-0.2146608661417323
0
LINE
8
BLACK
6
CONTINUOUS
10
0.9380240551181103
20
-0.2146608661417323
11
0.9389924803149606
21
-0.2135066929133858
0
LINE
8
BLACK
6
CONTINUOUS
10
0.9389924803149606
20
-0.2135066929133858
11
0.9762073622047244
21
-0.1941338582677165
0
LINE
8
BLACK
6
CONTINUOUS
10
0.9762073622047244
20
-0.1941338582677165
11
0.0080446456692913
21
-0.1941338582677165
0
LINE
8
BLACK
6
CONTINUOUS
10
0.0080446456692913
20
-0.1941338582677165
11
0.0452594881889764
21
-0.2135066929133858
0
LINE
8
BLACK
6
CONTINUOUS
10
0.0452594881889764
20
-0.2135066929133858
11
0.0462279133858268
21
-0.2146608661417323
0
LINE
8
BLACK
6
CONTINUOUS
10
0.0462279133858268
20
-0.2146608661417323
11
0.0460966141732283
21
-0.2161617322834646
0
LINE
8
BLACK
6
CONTINUOUS
10
0.0460966141732283
20
-0.2161617322834646
11
0.0449424803149606
21
-0.2171301574803149
0
LINE
8
BLACK
6
CONTINUOUS
10
0.0449424803149606
20
-0.2171301574803149
11
0.0434415748031496
21
-0.2169988582677165
0
LINE
8
BLACK
6
CONTINUOUS
10
0.0434415748031496
20
-0.2169988582677165
11
0.0019685039370079
21
-0.1954093307086614
0
LINE
8
BLACK
6
CONTINUOUS
10
0.0019685039370079
20
-0.1954093307086614
11
0.0019685039370079
21
-0.2152527559055118
0
LINE
8
BLACK
6
CONTINUOUS
10
0.0019685039370079
20
-0.2152527559055118
11
0.0013919291338583
21
-0.2166446850393701
0
LINE
8
BLACK
6
CONTINUOUS
10
0.0013919291338583
20
-0.2166446850393701
11
0.
21
-0.2172212598425197
0
LINE
8
BLACK
6
CONTINUOUS
10
0.
20
-0.2172212598425197
11
-0.0013919291338583
21
-0.2166446850393701
0
LINE
8
BLACK
6
CONTINUOUS
10
-0.0013919291338583
20
-0.2166446850393701
11
-0.0019685039370079
21
-0.2152527559055118
0
LINE
8
BLACK
6
CONTINUOUS
10
-0.0019685039370079
20
-0.2152527559055118
11
-0.0019685039370079
21
-0.0196850393700787
0
LINE
8
BLACK
6
CONTINUOUS
10
-0.0019685039370079
20
-0.0196850393700787
11
-0.0013919291338583
21
-0.0182931102362205
0
LINE
8
BLACK
6
CONTINUOUS
10
-0.0013919291338583
20
-0.0182931102362205
11
0.
21
-0.0177165354330709
0
LINE
8
BLACK
6
CONTINUOUS
10
0.
20
-0.0177165354330709
11
0.0013919291338583
21
-0.0182931102362205
0
LINE
8
BLACK
6
CONTINUOUS
10
0.0013919291338583
20
-0.0182931102362205
11
0.0019685039370079
21
-0.0196850393700787
0
LINE
8
BLACK
6
CONTINUOUS
10
0.0019685039370079
20
-0.0196850393700787
11
0.0019685039370079
21
-0.1889213385826772
0
LINE
8
BLACK
6
CONTINUOUS
10
0.0019685039370079
20
-0.1889213385826772
11
0.0434415748031496
21
-0.1673318503937008
0
LINE
8
BLACK
6
CONTINUOUS
10
0.0434415748031496
20
-0.1673318503937008
11
0.0449424803149606
21
-0.1672005511811024
0
LINE
8
BLACK
6
CONTINUOUS
10
0.0449424803149606
20
-0.1672005511811024
11
0.0460966141732283
21
-0.1681689763779528
0
LINE
8
BLACK
6
CONTINUOUS
10
0.0460966141732283
20
-0.1681689763779528
11
0.0462279133858268
21
-0.169669842519685
0
LINE
8
BLACK
6
CONTINUOUS
10
0.0462279133858268
20
-0.169669842519685
11
0.0452594881889764
21
-0.1708240157480315
0
LINE
8
BLACK
6
CONTINUOUS
10
0.0452594881889764
20
-0.1708240157480315
11
0.0080446456692913
21
-0.1901968503937008
0
LINE
8
BLACK
6
CONTINUOUS
10
0.0080446456692913
20
-0.1901968503937008
11
0.9762073622047244
21
-0.1901968503937008
0
LINE
8
BLACK
6
CONTINUOUS
10
0.9762073622047244
20
-0.1901968503937008
11
0.9389924803149606
21
-0.1708240157480315
0
LINE
8
BLACK
6
CONTINUOUS
10
0.9389924803149606
20
-0.1708240157480315
11
0.9380240551181103
21
-0.169669842519685
0
LINE
8
BLACK
6
CONTINUOUS
10
0.9380240551181103
20
-0.169669842519685
11
0.9381553149606299
21
-0.1681689763779528
0
LINE
8
BLACK
6
CONTINUOUS
10
0.9381553149606299
20
-0.1681689763779528
11
0.9393094881889763
21
-0.1672005511811024
0
LINE
8
BLACK
6
CONTINUOUS
10
0.9393094881889763
20
-0.1672005511811024
11
0.9408103543307086
21
-0.167331811023622
0
LINE
8
BLACK
6
CONTINUOUS
10
0.9408103543307086
20
-0.167331811023622
11
0.9822834645669292
21
-0.1889213385826772
0
LINE
8
BLACK
6
CONTINUOUS
10
0.9822834645669292
20
-0.1889213385826772
11
0.9822834645669292
21
-0.0196850393700787
0
LINE
8
BLACK
6
CONTINUOUS
10
0.9822834645669292
20
-0.0196850393700787
11
0.9828600393700787
21
-0.0182931102362205
0
LINE
8
BLACK
6
CONTINUOUS
10
0.9828600393700787
20
-0.0182931102362205
11
0.984251968503937
21
-0.0177165354330709
0
LINE
8
BLACK
6
CONTINUOUS
10
0.984251968503937
20
-0.0177165354330709
11
0.9856438976377953
21
-0.0182931102362205
0
LINE
8
BLACK
6
CONTINUOUS
10
0.4106462204724409
20
-0.1226512598425197
11
0.4107814566929134
21
-0.1227647244094488
0
LINE
8
BLACK
6
CONTINUOUS
10
0.4107814566929134
20
-0.1227647244094488
11
0.410956811023622
21
-0.1227849212598425
0
LINE
8
BLACK
6
CONTINUOUS
10
0.410956811023622
20
-0.1227849212598425
11
0.4147063385826771
21
-0.1246596850393701
0
LINE
8
BLACK
6
CONTINUOUS
10
0.4147063385826771
20
-0.1246596850393701
11
0.4154153937007874
21
-0.1251855905511811
0
LINE
8
BLACK
6
CONTINUOUS
10
0.4154153937007874
20
-0.1251855905511811
11
0.4154737401574803
21
-0.1252127952755905
0
LINE
8
BLACK
6
CONTINUOUS
10
0.4154737401574803
20
-0.1252127952755905
11
0.4173485039370078
21
-0.1270875590551181
0
LINE
8
BLACK
6
CONTINUOUS
10
0.4173485039370078
20
-0.1270875590551181
11
0.4178547637795276
21
-0.1278106299212598
0
LINE
8
BLACK
6
CONTINUOUS
10
0.4178547637795276
20
-0.1278106299212598
11
0.4179016141732284
21
-0.1278549606299212
0
LINE
8
BLACK
6
CONTINUOUS
10
0.4179016141732284
20
-0.1278549606299212
11
0.4197763779527559
21
-0.1316044881889764
0
LINE
8
BLACK
6
CONTINUOUS
10
0.4197763779527559
20
-0.1316044881889764
11
0.4200687401574803
21
-0.1325874015748031
0
LINE
8
BLACK
6
CONTINUOUS
10
0.4200687401574803
20
-0.1325874015748031
11
0.4200277165354331
21
-0.132759094488189
0
LINE
8
BLACK
6
CONTINUOUS
10
0.4200277165354331
20
-0.132759094488189
11
0.4200881102362204
21
-0.132925
0
LINE
8
BLACK
6
CONTINUOUS
10
0.4200881102362204
20
-0.132925
11
0.4200881102362204
21
-0.1366745275590551
0
LINE
8
BLACK
6
CONTINUOUS
10
0.4200881102362204
20
-0.1366745275590551
11
0.4199348031496063
21
-0.1375438976377953
0
LINE
8
BLACK
6
CONTINUOUS
10
0.4199348031496063
20
-0.1375438976377953
11
0.4199365748031496
21
-0.1376083070866142
0
LINE
8
BLACK
6
CONTINUOUS
10
0.4199365748031496
20
-0.1376083070866142
11
0.4180618110236221
21
-0.1432325590551181
0
LINE
8
BLACK
6
CONTINUOUS
10
0.4180618110236221
20
-0.1432325590551181
11
0.4175735039370079
21
-0.1441343307086614
0
LINE
8
BLACK
6
CONTINUOUS
10
0.4175735039370079
20
-0.1441343307086614
11
0.4174231102362205
21
-0.1442266929133858
0
LINE
8
BLACK
6
CONTINUOUS
10
0.4174231102362205
20
-0.1442266929133858
11
0.4173485039370078
21
-0.1443867322834646
0
LINE
8
BLACK
6
CONTINUOUS
10
0.4173485039370078
20
-0.1443867322834646
11
0.3998920078740157
21
-0.1618432677165354
0
LINE
8
BLACK
6
CONTINUOUS
10
0.3998920078740157
20
-0.1618432677165354
11
0.4171353543307086
21
-0.1618432677165354
0
LINE
8
BLACK
6
CONTINUOUS
10
0.4171353543307086
20
-0.1618432677165354
11
0.4181452755905511
21
-0.1620213385826772
0
LINE
8
BLACK
6
CONTINUOUS
10
0.4181452755905511
20
-0.1620213385826772
11
0.4196925196850393
21
-0.1633196456692913
0
LINE
8
BLACK
6
CONTINUOUS
10
0.4196925196850393
20
-0.1633196456692913
11
0.4200432677165354
21
-0.165308779527559
0
LINE
8
BLACK
6
CONTINUOUS
10
0.4200432677165354
20
-0.165308779527559
11
0.4190333464566929
21
-0.1670579527559055
0
LINE
8
BLACK
6
CONTINUOUS
10
0.4190333464566929
20
-0.1670579527559055
11
0.4171353543307086
21
-0.167748779527559
0
LINE
8
BLACK
6
CONTINUOUS
10
0.4171353543307086
20
-0.167748779527559
11
0.3927634251968504
21
-0.167748779527559
0
LINE
8
BLACK
6
CONTINUOUS
10
0.3927634251968504
20
-0.167748779527559
11
0.3921286614173228
21
-0.1676368503937008
0
LINE
8
BLACK
6
CONTINUOUS
10
0.3921286614173228
20
-0.1676368503937008
11
0.3919992125984252
21
-0.167648188976378
0
LINE
8
BLACK
6
CONTINUOUS
10
0.3919992125984252
20
-0.167648188976378
11
0.3919339763779527
21
-0.1676025196850394
0
LINE
8
BLACK
6
CONTINUOUS
10
0.3919339763779527
20
-0.1676025196850394
11
0.3917535039370079
21
-0.1675707086614173
0
LINE
8
BLACK
6
CONTINUOUS
10
0.3917535039370079
20
-0.1675707086614173
11
0.3910726377952756
21
-0.1669994094488189
0
LINE
8
BLACK
6
CONTINUOUS
10
0.3910726377952756
20
-0.1669994094488189
11
0.3903446456692913
21
-0.1664896456692913
0
LINE
8
BLACK
6
CONTINUOUS
10
0.3903446456692913
20
-0.1664896456692913
11
0.3903096850393701
21
-0.1663591732283465
0
LINE
8
BLACK
6
CONTINUOUS
10
0.3903096850393701
20
-0.1663591732283465
11
0.3902062598425197
21
-0.1662724015748031
0
LINE
8
BLACK
6
CONTINUOUS
10
0.3902062598425197
20
-0.1662724015748031
11
0.3900518897637795
21
-0.1653970472440945
0
LINE
8
BLACK
6
CONTINUOUS
10
0.3900518897637795
20
-0.1653970472440945
11
0.3898219291338583
21
-0.1645387007874016
0
LINE
8
BLACK
6
CONTINUOUS
10
0.3898219291338583
20
-0.1645387007874016
11
0.3898789763779528
21
-0.1644163385826772
0
LINE
8
BLACK
6
CONTINUOUS
10
0.3898789763779528
20
-0.1644163385826772
11
0.3898555118110236
21
-0.1642832677165354
0
LINE
8
BLACK
6
CONTINUOUS
10
0.3898555118110236
20
-0.1642832677165354
11
0.3903
21
-0.1635133464566929
0
LINE
8
BLACK
6
CONTINUOUS
10
0.3903
20
-0.1635133464566929
11
0.3906755118110236
21
-0.1627081102362205
0
LINE
8
BLACK
6
CONTINUOUS
10
0.3906755118110236
20
-0.1627081102362205
11
0.4126797637795275
21
-0.1407037795275591
0
LINE
8
BLACK
6
CONTINUOUS
10
0.4126797637795275
20
-0.1407037795275591
11
0.4141825984251968
21
-0.1361953937007874
0
LINE
8
BLACK
6
CONTINUOUS
10
0.4141825984251968
20
-0.1361953937007874
11
0.4141825984251968
21
-0.1336220472440945
0
LINE
8
BLACK
6
CONTINUOUS
10
0.4141825984251968
20
-0.1336220472440945
11
0.4128338582677165
21
-0.1309245669291338
0
LINE
8
BLACK
6
CONTINUOUS
10
0.4128338582677165
20
-0.1309245669291338
11
0.4116367322834645
21
-0.1297274409448819
0
LINE
8
BLACK
6
CONTINUOUS
10
0.4116367322834645
20
-0.1297274409448819
11
0.4089392519685039
21
-0.1283787007874016
0
LINE
8
BLACK
6
CONTINUOUS
10
0.4089392519685039
20
-0.1283787007874016
11
0.4009595275590551
21
-0.1283787007874016
0
LINE
8
BLACK
6
CONTINUOUS
10
0.4009595275590551
20
-0.1283787007874016
11
0.3982620472440945
21
-0.1297274409448819
0
LINE
8
BLACK
6
CONTINUOUS
10
0.3982620472440945
20
-0.1297274409448819
11
0.3967261023622047
21
-0.1312633858267717
0
LINE
8
BLACK
6
CONTINUOUS
10
0.3967261023622047
20
-0.1312633858267717
11
0.395886062992126
21
-0.1318515748031496
0
LINE
8
BLACK
6
CONTINUOUS
10
0.395886062992126
20
-0.1318515748031496
11
0.3938739763779527
21
-0.1320276377952756
0
LINE
8
BLACK
6
CONTINUOUS
10
0.3938739763779527
20
-0.1320276377952756
11
0.3922194094488189
21
-0.130869094488189
0
LINE
8
BLACK
6
CONTINUOUS
10
0.3922194094488189
20
-0.130869094488189
11
0.3916966929133858
21
-0.1289181496062992
0
LINE
8
BLACK
6
CONTINUOUS
10
0.3916966929133858
20
-0.1289181496062992
11
0.3925502755905512
21
-0.1270875590551181
0
LINE
8
BLACK
6
CONTINUOUS
10
0.3925502755905512
20
-0.1270875590551181
11
0.3944250393700787
21
-0.1252127952755905
0
LINE
8
BLACK
6
CONTINUOUS
10
0.3944250393700787
20
-0.1252127952755905
11
0.3951481102362205
21
-0.1247064960629921
0
LINE
8
BLACK
6
CONTINUOUS
10
0.3951481102362205
20
-0.1247064960629921
11
0.3951924409448819
21
-0.1246596850393701
0
LINE
8
BLACK
6
CONTINUOUS
10
0.3951924409448819
20
-0.1246596850393701
11
0.398941968503937
21
-0.1227849212598425
0
LINE
8
BLACK
6
CONTINUOUS
10
0.398941968503937
20
-0.1227849212598425
11
0.3999248818897638
21
-0.1224925590551181
0
LINE
8
BLACK
6
CONTINUOUS
10
0.3999248818897638
20
-0.1224925590551181
11
0.4000965748031496
21
-0.1225335433070866
0
LINE
8
BLACK
6
CONTINUOUS
10
0.4000965748031496
20
-0.1225335433070866
11
0.4002624803149606
21
-0.1224731889763779
0
LINE
8
BLACK
6
CONTINUOUS
10
0.4002624803149606
20
-0.1224731889763779
11
0.4096362992125984
21
-0.1224731889763779
0
LINE
8
BLACK
6
CONTINUOUS
10
0.4096362992125984
20
-0.1224731889763779
11
0.4106462204724409
21
-0.1226512598425197
0
LINE
8
BLACK
6
CONTINUOUS
10
0.4537658267716536
20
-0.1226512598425197
11
0.4553130708661417
21
-0.1239495669291339
0
LINE
8
BLACK
6
CONTINUOUS
10
0.4553130708661417
20
-0.1239495669291339
11
0.4556638188976378
21
-0.1259387007874016
0
LINE
8
BLACK
6
CONTINUOUS
10
0.4556638188976378
20
-0.1259387007874016
11
0.4546538976377953
21
-0.127687874015748
0
LINE
8
BLACK
6
CONTINUOUS
10
0.4546538976377953
20
-0.127687874015748
11
0.452755905511811
21
-0.1283787007874016
0
LINE
8
BLACK
6
CONTINUOUS
10
0.452755905511811
20
-0.1283787007874016
11
0.4366804724409449
21
-0.1283787007874016
0
LINE
8
BLACK
6
CONTINUOUS
10
0.4366804724409449
20
-0.1283787007874016
11
0.4357033464566929
21
-0.1381499606299213
0
LINE
8
BLACK
6
CONTINUOUS
10
0.4357033464566929
20
-0.1381499606299213
11
0.4364372834645669
21
-0.137783031496063
0
LINE
8
BLACK
6
CONTINUOUS
10
0.4364372834645669
20
-0.137783031496063
11
0.4374201968503937
21
-0.1374906692913386
0
LINE
8
BLACK
6
CONTINUOUS
10
0.4374201968503937
20
-0.1374906692913386
11
0.4375918897637795
21
-0.1375316535433071
0
LINE
8
BLACK
6
CONTINUOUS
10
0.4375918897637795
20
-0.1375316535433071
11
0.4377577952755906
21
-0.1374712992125984
0
LINE
8
BLACK
6
CONTINUOUS
10
0.4377577952755906
20
-0.1374712992125984
11
0.4471316141732283
21
-0.1374712992125984
0
LINE
8
BLACK
6
CONTINUOUS
10
0.4471316141732283
20
-0.1374712992125984
11
0.4481415354330708
21
-0.1376493700787401
0
LINE
8
BLACK
6
CONTINUOUS
10
0.4481415354330708
20
-0.1376493700787401
11
0.4482767716535433
21
-0.1377628346456693
0
LINE
8
BLACK
6
CONTINUOUS
10
0.4482767716535433
20
-0.1377628346456693
11
0.4484521259842519
21
-0.137783031496063
0
LINE
8
BLACK
6
CONTINUOUS
10
0.4484521259842519
20
-0.137783031496063
11
0.4522016535433071
21
-0.1396577952755906
0
LINE
8
BLACK
6
CONTINUOUS
10
0.4522016535433071
20
-0.1396577952755906
11
0.4529107086614173
21
-0.1401837007874016
0
LINE
8
BLACK
6
CONTINUOUS
10
0.4529107086614173
20
-0.1401837007874016
11
0.4529690551181103
21
-0.140210905511811
0
LINE
8
BLACK
6
CONTINUOUS
10
0.4529690551181103
20
-0.140210905511811
11
0.4548438188976378
21
-0.1420856692913386
0
LINE
8
BLACK
6
CONTINUOUS
10
0.4548438188976378
20
-0.1420856692913386
11
0.4553500787401575
21
-0.1428087401574803
0
LINE
8
BLACK
6
CONTINUOUS
10
0.4553500787401575
20
-0.1428087401574803
11
0.4553969291338583
21
-0.1428530708661417
0
LINE
8
BLACK
6
CONTINUOUS
10
0.4553969291338583
20
-0.1428530708661417
11
0.4572716929133858
21
-0.1466025984251969
0
LINE
8
BLACK
6
CONTINUOUS
10
0.4572716929133858
20
-0.1466025984251969
11
0.4575640551181102
21
-0.1475855118110236
0
LINE
8
BLACK
6
CONTINUOUS
10
0.4575640551181102
20
-0.1475855118110236
11
0.457523031496063
21
-0.1477572047244095
0
LINE
8
BLACK
6
CONTINUOUS
10
0.457523031496063
20
-0.1477572047244095
11
0.4575834251968504
21
-0.1479231102362205
0
LINE
8
BLACK
6
CONTINUOUS
10
0.4575834251968504
20
-0.1479231102362205
11
0.4575834251968504
21
-0.1572969291338583
0
LINE
8
BLACK
6
CONTINUOUS
10
0.4575834251968504
20
-0.1572969291338583
11
0.4574053543307087
21
-0.1583068503937008
0
LINE
8
BLACK
6
CONTINUOUS
10
0.4574053543307087
20
-0.1583068503937008
11
0.4572918503937008
21
-0.1584420866141732
0
LINE
8
BLACK
6
CONTINUOUS
10
0.4572918503937008
20
-0.1584420866141732
11
0.4572716929133858
21
-0.1586174409448819
0
LINE
8
BLACK
6
CONTINUOUS
10
0.4572716929133858
20
-0.1586174409448819
11
0.4553969291338583
21
-0.162366968503937
0
LINE
8
BLACK
6
CONTINUOUS
10
0.4553969291338583
20
-0.162366968503937
11
0.4548709842519685
21
-0.1630760236220472
0
LINE
8
BLACK
6
CONTINUOUS
10
0.4548709842519685
20
-0.1630760236220472
11
0.4548438188976378
21
-0.1631343700787402
0
LINE
8
BLACK
6
CONTINUOUS
10
0.4548438188976378
20
-0.1631343700787402
11
0.452969094488189
21
-0.1650091338582677
0
LINE
8
BLACK
6
CONTINUOUS
10
0.452969094488189
20
-0.1650091338582677
11
0.452245905511811
21
-0.1655155118110236
0
LINE
8
BLACK
6
CONTINUOUS
10
0.452245905511811
20
-0.1655155118110236
11
0.4522016535433071
21
-0.1655622834645669
0
LINE
8
BLACK
6
CONTINUOUS
10
0.4522016535433071
20
-0.1655622834645669
11
0.4484521259842519
21
-0.1674370472440945
0
LINE
8
BLACK
6
CONTINUOUS
10
0.4484521259842519
20
-0.1674370472440945
11
0.4474691732283465
21
-0.1677294094488189
0
LINE
8
BLACK
6
CONTINUOUS
10
0.4474691732283465
20
-0.1677294094488189
11
0.4472974803149606
21
-0.1676883858267716
0
LINE
8
BLACK
6
CONTINUOUS
10
0.4472974803149606
20
-0.1676883858267716
11
0.4471316141732283
21
-0.167748779527559
0
LINE
8
BLACK
6
CONTINUOUS
10
0.4471316141732283
20
-0.167748779527559
11
0.4377577952755906
21
-0.167748779527559
0
LINE
8
BLACK
6
CONTINUOUS
10
0.4377577952755906
20
-0.167748779527559
11
0.436747874015748
21
-0.1675707086614173
0
LINE
8
BLACK
6
CONTINUOUS
10
0.436747874015748
20
-0.1675707086614173
11
0.4366125984251968
21
-0.1674572047244094
0
LINE
8
BLACK
6
CONTINUOUS
10
0.4366125984251968
20
-0.1674572047244094
11
0.4364372834645669
21
-0.1674370472440945
0
LINE
8
BLACK
6
CONTINUOUS
10
0.4364372834645669
20
-0.1674370472440945
11
0.4326877559055118
21
-0.1655622834645669
0
LINE
8
BLACK
6
CONTINUOUS
10
0.4326877559055118
20
-0.1655622834645669
11
0.4319786220472441
21
-0.1650362992125984
0
LINE
8
BLACK
6
CONTINUOUS
10
0.4319786220472441
20
-0.1650362992125984
11
0.4319203149606299
21
-0.1650091338582677
0
LINE
8
BLACK
6
CONTINUOUS
10
0.4319203149606299
20
-0.1650091338582677
11
0.4300455511811023
21
-0.1631343307086614
0
LINE
8
BLACK
6
CONTINUOUS
10
0.4300455511811023
20
-0.1631343307086614
11
0.4294573622047244
21
-0.1622942913385827
0
LINE
8
BLACK
6
CONTINUOUS
10
0.4294573622047244
20
-0.1622942913385827
11
0.4292813779527559
21
-0.1602822047244094
0
LINE
8
BLACK
6
CONTINUOUS
10
0.4292813779527559
20
-0.1602822047244094
11
0.4304398818897638
21
-0.1586276771653543
0
LINE
8
BLACK
6
CONTINUOUS
10
0.4304398818897638
20
-0.1586276771653543
11
0.4323908661417323
21
-0.1581049606299212
0
LINE
8
BLACK
6
CONTINUOUS
10
0.4323908661417323
20
-0.1581049606299212
11
0.4342214566929134
21
-0.1589585826771653
0
LINE
8
BLACK
6
CONTINUOUS
10
0.4342214566929134
20
-0.1589585826771653
11
0.4357573622047244
21
-0.1604945275590551
0
LINE
8
BLACK
6
CONTINUOUS
10
0.4357573622047244
20
-0.1604945275590551
11
0.438454842519685
21
-0.1618432677165354
0
LINE
8
BLACK
6
CONTINUOUS
10
0.438454842519685
20
-0.1618432677165354
11
0.4464345669291339
21
-0.1618432677165354
0
LINE
8
BLACK
6
CONTINUOUS
10
0.4464345669291339
20
-0.1618432677165354
11
0.4491320078740157
21
-0.1604945275590551
0
LINE
8
BLACK
6
CONTINUOUS
10
0.4491320078740157
20
-0.1604945275590551
11
0.4503291338582677
21
-0.1592973622047244
0
LINE
8
BLACK
6
CONTINUOUS
10
0.4503291338582677
20
-0.1592973622047244
11
0.4516779133858267
21
-0.1565998818897638
0
LINE
8
BLACK
6
CONTINUOUS
10
0.4516779133858267
20
-0.1565998818897638
11
0.4516779133858267
21
-0.148620157480315
0
LINE
8
BLACK
6
CONTINUOUS
10
0.4516779133858267
20
-0.148620157480315
11
0.4503291732283464
21
-0.1459226771653543
0
LINE
8
BLACK
6
CONTINUOUS
10
0.4503291732283464
20
-0.1459226771653543
11
0.4491320472440945
21
-0.1447255511811024
0
LINE
8
BLACK
6
CONTINUOUS
10
0.4491320472440945
20
-0.1447255511811024
11
0.4464345669291339
21
-0.143376811023622
0
LINE
8
BLACK
6
CONTINUOUS
10
0.4464345669291339
20
-0.143376811023622
11
0.438454842519685
21
-0.143376811023622
0
LINE
8
BLACK
6
CONTINUOUS
10
0.438454842519685
20
-0.143376811023622
11
0.4357573622047244
21
-0.1447255511811024
0
LINE
8
BLACK
6
CONTINUOUS
10
0.4357573622047244
20
-0.1447255511811024
11
0.4342214173228346
21
-0.1462614960629921
0
LINE
8
BLACK
6
CONTINUOUS
10
0.4342214173228346
20
-0.1462614960629921
11
0.4333813779527559
21
-0.1468496850393701
0
LINE
8
BLACK
6
CONTINUOUS
10
0.4333813779527559
20
-0.1468496850393701
11
0.4333620078740157
21
-0.1468513385826772
0
LINE
8
BLACK
6
CONTINUOUS
10
0.4333620078740157
20
-0.1468513385826772
11
0.4333481102362204
21
-0.1468649606299212
0
LINE
8
BLACK
6
CONTINUOUS
10
0.4333481102362204
20
-0.1468649606299212
11
0.4323575984251968
21
-0.1469392519685039
0
LINE
8
BLACK
6
CONTINUOUS
10
0.4323575984251968
20
-0.1469392519685039
11
0.4313692913385826
21
-0.1470257480314961
0
LINE
8
BLACK
6
CONTINUOUS
10
0.4313692913385826
20
-0.1470257480314961
11
0.4313533464566929
21
-0.1470145669291339
0
LINE
8
BLACK
6
CONTINUOUS
10
0.4313533464566929
20
-0.1470145669291339
11
0.431333937007874
21
-0.147016062992126
0
LINE
8
BLACK
6
CONTINUOUS
10
0.431333937007874
20
-0.147016062992126
11
0.4305270866141732
21
-0.1464360236220472
0
LINE
8
BLACK
6
CONTINUOUS
10
0.4305270866141732
20
-0.1464360236220472
11
0.4297147244094488
21
-0.1458672047244094
0
LINE
8
BLACK
6
CONTINUOUS
10
0.4297147244094488
20
-0.1458672047244094
11
0.4297096850393701
21
-0.1458483858267716
0
LINE
8
BLACK
6
CONTINUOUS
10
0.4297096850393701
20
-0.1458483858267716
11
0.429693937007874
21
-0.1458370866141732
0
LINE
8
BLACK
6
CONTINUOUS
10
0.429693937007874
20
-0.1458370866141732
11
0.429448937007874
21
-0.1448752755905512
0
LINE
8
BLACK
6
CONTINUOUS
10
0.429448937007874
20
-0.1448752755905512
11
0.4291920078740157
21
-0.1439162598425197
0
LINE
8
BLACK
6
CONTINUOUS
10
0.4291920078740157
20
-0.1439162598425197
11
0.4292001968503937
21
-0.1438986614173228
0
LINE
8
BLACK
6
CONTINUOUS
10
0.4292001968503937
20
-0.1438986614173228
11
0.4291953937007874
21
-0.1438797637795275
0
LINE
8
BLACK
6
CONTINUOUS
10
0.4291953937007874
20
-0.1438797637795275
11
0.431070157480315
21
-0.125132125984252
0
LINE
8
BLACK
6
CONTINUOUS
10
0.431070157480315
20
-0.125132125984252
11
0.4311124409448819
21
-0.1249817716535433
0
LINE
8
BLACK
6
CONTINUOUS
10
0.4311124409448819
20
-0.1249817716535433
11
0.4311003543307086
21
-0.1249131889763779
0
LINE
8
BLACK
6
CONTINUOUS
10
0.4311003543307086
20
-0.1249131889763779
11
0.4311615354330708
21
-0.1248071653543307
0
LINE
8
BLACK
6
CONTINUOUS
10
0.4311615354330708
20
-0.1248071653543307
11
0.4313478346456693
21
-0.1241449606299213
0
LINE
8
BLACK
6
CONTINUOUS
10
0.4313478346456693
20
-0.1241449606299213
11
0.4317967322834645
21
-0.1237070472440945
0
LINE
8
BLACK
6
CONTINUOUS
10
0.4317967322834645
20
-0.1237070472440945
11
0.4321102755905512
21
-0.1231640157480315
0
LINE
8
BLACK
6
CONTINUOUS
10
0.4321102755905512
20
-0.1231640157480315
11
0.4324981102362205
21
-0.1230228346456693
0
LINE
8
BLACK
6
CONTINUOUS
10
0.4324981102362205
20
-0.1230228346456693
11
0.4327936614173228
21
-0.1227345669291339
0
LINE
8
BLACK
6
CONTINUOUS
10
0.4327936614173228
20
-0.1227345669291339
11
0.4334189763779527
21
-0.1226876377952756
0
LINE
8
BLACK
6
CONTINUOUS
10
0.4334189763779527
20
-0.1226876377952756
11
0.4340082677165354
21
-0.1224731889763779
0
LINE
8
BLACK
6
CONTINUOUS
10
0.4340082677165354
20
-0.1224731889763779
11
0.452755905511811
21
-0.1224731889763779
0
LINE
8
BLACK
6
CONTINUOUS
10
0.452755905511811
20
-0.1224731889763779
11
0.4537658267716536
21
-0.1226512598425197
0
LINE
8
BLACK
6
CONTINUOUS
10
0.5137583464566929
20
-0.1357746062992126
11
0.5138935826771653
21
-0.1358880708661417
0
LINE
8
BLACK
6
CONTINUOUS
10
0.5138935826771653
20
-0.1358880708661417
11
0.514068937007874
21
-0.1359082677165354
0
LINE
8
BLACK
6
CONTINUOUS
10
0.514068937007874
20
-0.1359082677165354
11
0.5178184645669291
21
-0.137783031496063
0
LINE
8
BLACK
6
CONTINUOUS
10
0.5178184645669291
20
-0.137783031496063
11
0.5183883858267716
21
-0.1382057086614173
0
LINE
8
BLACK
6
CONTINUOUS
10
0.5183883858267716
20
-0.1382057086614173
11
0.5186230314960629
21
-0.1381040157480315
0
LINE
8
BLACK
6
CONTINUOUS
10
0.5186230314960629
20
-0.1381040157480315
11
0.518926968503937
21
-0.137783031496063
0
LINE
8
BLACK
6
CONTINUOUS
10
0.518926968503937
20
-0.137783031496063
11
0.5226764960629922
21
-0.1359082677165354
0
LINE
8
BLACK
6
CONTINUOUS
10
0.5226764960629922
20
-0.1359082677165354
11
0.5236594094488188
21
-0.135615905511811
0
LINE
8
BLACK
6
CONTINUOUS
10
0.5236594094488188
20
-0.135615905511811
11
0.5238311023622048
21
-0.1356568897637795
0
LINE
8
BLACK
6
CONTINUOUS
10
0.5238311023622048
20
-0.1356568897637795
11
0.5239970078740157
21
-0.1355965354330709
0
LINE
8
BLACK
6
CONTINUOUS
10
0.5239970078740157
20
-0.1355965354330709
11
0.5296212992125984
21
-0.1355965354330709
0
LINE
8
BLACK
6
CONTINUOUS
10
0.5296212992125984
20
-0.1355965354330709
11
0.5306312204724409
21
-0.1357746062992126
0
LINE
8
BLACK
6
CONTINUOUS
10
0.5306312204724409
20
-0.1357746062992126
11
0.5307664566929133
21
-0.1358880708661417
0
LINE
8
BLACK
6
CONTINUOUS
10
0.5307664566929133
20
-0.1358880708661417
11
0.530941811023622
21
-0.1359082677165354
0
LINE
8
BLACK
6
CONTINUOUS
10
0.530941811023622
20
-0.1359082677165354
11
0.5346913779527559
21
-0.137783031496063
0
LINE
8
BLACK
6
CONTINUOUS
10
0.5346913779527559
20
-0.137783031496063
11
0.5355150393700787
21
-0.138393937007874
0
LINE
8
BLACK
6
CONTINUOUS
10
0.5355150393700787
20
-0.138393937007874
11
0.5356908661417322
21
-0.1387996062992126
0
LINE
8
BLACK
6
CONTINUOUS
10
0.5356908661417322
20
-0.1387996062992126
11
0.5360118897637796
21
-0.1391035433070866
0
LINE
8
BLACK
6
CONTINUOUS
10
0.5360118897637796
20
-0.1391035433070866
11
0.5378866535433071
21
-0.1428530708661417
0
LINE
8
BLACK
6
CONTINUOUS
10
0.5378866535433071
20
-0.1428530708661417
11
0.5381790157480315
21
-0.1438359842519685
0
LINE
8
BLACK
6
CONTINUOUS
10
0.5381790157480315
20
-0.1438359842519685
11
0.5381379921259842
21
-0.1440076771653543
0
LINE
8
BLACK
6
CONTINUOUS
10
0.5381379921259842
20
-0.1440076771653543
11
0.5381983858267716
21
-0.1441735826771653
0
LINE
8
BLACK
6
CONTINUOUS
10
0.5381983858267716
20
-0.1441735826771653
11
0.5381983858267716
21
-0.1647960236220472
0
LINE
8
BLACK
6
CONTINUOUS
10
0.5381983858267716
20
-0.1647960236220472
11
0.53802031496063
21
-0.1658059448818898
0
LINE
8
BLACK
6
CONTINUOUS
10
0.53802031496063
20
-0.1658059448818898
11
0.5367220078740157
21
-0.1673531889763779
0
LINE
8
BLACK
6
CONTINUOUS
10
0.5367220078740157
20
-0.1673531889763779
11
0.534732874015748
21
-0.167703937007874
0
LINE
8
BLACK
6
CONTINUOUS
10
0.534732874015748
20
-0.167703937007874
11
0.5329837007874015
21
-0.1666940157480315
0
LINE
8
BLACK
6
CONTINUOUS
10
0.5329837007874015
20
-0.1666940157480315
11
0.532292874015748
21
-0.1647960236220472
0
LINE
8
BLACK
6
CONTINUOUS
10
0.532292874015748
20
-0.1647960236220472
11
0.532292874015748
21
-0.1448706299212598
0
LINE
8
BLACK
6
CONTINUOUS
10
0.532292874015748
20
-0.1448706299212598
11
0.53117
21
-0.1426248818897638
0
LINE
8
BLACK
6
CONTINUOUS
10
0.53117
20
-0.1426248818897638
11
0.5289242519685039
21
-0.1415020472440945
0
LINE
8
BLACK
6
CONTINUOUS
10
0.5289242519685039
20
-0.1415020472440945
11
0.5246940551181102
21
-0.1415020472440945
0
LINE
8
BLACK
6
CONTINUOUS
10
0.5246940551181102
20
-0.1415020472440945
11
0.5224483070866142
21
-0.1426248818897638
0
LINE
8
BLACK
6
CONTINUOUS
10
0.5224483070866142
20
-0.1426248818897638
11
0.5213254724409448
21
-0.1448706299212598
0
LINE
8
BLACK
6
CONTINUOUS
10
0.5213254724409448
20
-0.1448706299212598
11
0.5213254724409448
21
-0.1647960236220472
0
LINE
8
BLACK
6
CONTINUOUS
10
0.5213254724409448
20
-0.1647960236220472
11
0.5211474015748031
21
-0.1658059448818898
0
LINE
8
BLACK
6
CONTINUOUS
10
0.5211474015748031
20
-0.1658059448818898
11
0.5198490944881889
21
-0.1673531889763779
0
LINE
8
BLACK
6
CONTINUOUS
10
0.5198490944881889
20
-0.1673531889763779
11
0.5178599606299212
21
-0.167703937007874
0
LINE
8
BLACK
6
CONTINUOUS
10
0.5178599606299212
20
-0.167703937007874
11
0.5161107874015748
21
-0.1666940157480315
0
LINE
8
BLACK
6
CONTINUOUS
10
0.5161107874015748
20
-0.1666940157480315
11
0.5154199606299212
21
-0.1647960236220472
0
LINE
8
BLACK
6
CONTINUOUS
10
0.5154199606299212
20
-0.1647960236220472
11
0.5154199606299212
21
-0.1448706299212598
0
LINE
8
BLACK
6
CONTINUOUS
10
0.5154199606299212
20
-0.1448706299212598
11
0.5142970866141732
21
-0.1426248818897638
0
LINE
8
BLACK
6
CONTINUOUS
10
0.5142970866141732
20
-0.1426248818897638
11
0.5120513779527559
21
-0.1415020472440945
0
LINE
8
BLACK
6
CONTINUOUS
10
0.5120513779527559
20
-0.1415020472440945
11
0.5078211811023622
21
-0.1415020472440945
0
LINE
8
BLACK
6
CONTINUOUS
10
0.5078211811023622
20
-0.1415020472440945
11
0.5051237007874015
21
-0.1428507874015748
0
LINE
8
BLACK
6
CONTINUOUS
10
0.5051237007874015
20
-0.1428507874015748
11
0.5044525984251969
21
-0.1435218897637795
0
LINE
8
BLACK
6
CONTINUOUS
10
0.5044525984251969
20
-0.1435218897637795
11
0.5044525984251969
21
-0.1647960236220472
0
LINE
8
BLACK
6
CONTINUOUS
10
0.5044525984251969
20
-0.1647960236220472
11
0.5042745275590551
21
-0.1658059448818898
0
LINE
8
BLACK
6
CONTINUOUS
10
0.5042745275590551
20
-0.1658059448818898
11
0.5029762204724409
21
-0.1673531889763779
0
LINE
8
BLACK
6
CONTINUOUS
10
0.5029762204724409
20
-0.1673531889763779
11
0.5009870866141732
21
-0.167703937007874
0
LINE
8
BLACK
6
CONTINUOUS
10
0.5009870866141732
20
-0.167703937007874
11
0.4992379133858267
21
-0.1666940157480315
0
LINE
8
BLACK
6
CONTINUOUS
10
0.4992379133858267
20
-0.1666940157480315
11
0.4985470866141732
21
-0.1647960236220472
0
LINE
8
BLACK
6
CONTINUOUS
10
0.4985470866141732
20
-0.1647960236220472
11
0.4985470866141732
21
-0.1385492913385827
0
LINE
8
BLACK
6
CONTINUOUS
10
0.4985470866141732
20
-0.1385492913385827
11
0.4987251574803149
21
-0.1375393700787401
0
LINE
8
BLACK
6
CONTINUOUS
10
0.4987251574803149
20
-0.1375393700787401
11
0.5000234645669291
21
-0.135992125984252
0
LINE
8
BLACK
6
CONTINUOUS
10
0.5000234645669291
20
-0.135992125984252
11
0.5020125984251969
21
-0.1356413779527559
0
LINE
8
BLACK
6
CONTINUOUS
10
0.5020125984251969
20
-0.1356413779527559
11
0.5037617716535433
21
-0.1366512992125984
0
LINE
8
BLACK
6
CONTINUOUS
10
0.5037617716535433
20
-0.1366512992125984
11
0.5038473228346456
21
-0.1368863779527559
0
LINE
8
BLACK
6
CONTINUOUS
10
0.5038473228346456
20
-0.1368863779527559
11
0.5058036220472441
21
-0.1359082677165354
0
LINE
8
BLACK
6
CONTINUOUS
10
0.5058036220472441
20
-0.1359082677165354
11
0.5067865354330708
21
-0.135615905511811
0
LINE
8
BLACK
6
CONTINUOUS
10
0.5067865354330708
20
-0.135615905511811
11
0.5069582283464567
21
-0.1356568897637795
0
LINE
8
BLACK
6
CONTINUOUS
10
0.5069582283464567
20
-0.1356568897637795
11
0.5071241338582677
21
-0.1355965354330709
0
LINE
8
BLACK
6
CONTINUOUS
10
0.5071241338582677
20
-0.1355965354330709
11
0.5127484251968504
21
-0.1355965354330709
0
LINE
8
BLACK
6
CONTINUOUS
10
0.5127484251968504
20
-0.1355965354330709
11
0.5137583464566929
21
-0.1357746062992126
0
LINE
8
BLACK
6
CONTINUOUS
10
0.5662517716535433
20
-0.1357746062992126
11
0.5663870078740157
21
-0.1358880708661417
0
LINE
8
BLACK
6
CONTINUOUS
10
0.5663870078740157
20
-0.1358880708661417
11
0.5665623622047244
21
-0.1359082677165354
0
LINE
8
BLACK
6
CONTINUOUS
10
0.5665623622047244
20
-0.1359082677165354
11
0.5703118897637796
21
-0.137783031496063
0
LINE
8
BLACK
6
CONTINUOUS
10
0.5703118897637796
20
-0.137783031496063
11
0.570881811023622
21
-0.1382057086614173
0
LINE
8
BLACK
6
CONTINUOUS
10
0.570881811023622
20
-0.1382057086614173
11
0.5711164566929133
21
-0.1381040157480315
0
LINE
8
BLACK
6
CONTINUOUS
10
0.5711164566929133
20
-0.1381040157480315
11
0.5714203937007873
21
-0.137783031496063
0
LINE
8
BLACK
6
CONTINUOUS
10
0.5714203937007873
20
-0.137783031496063
11
0.5751699212598425
21
-0.1359082677165354
0
LINE
8
BLACK
6
CONTINUOUS
10
0.5751699212598425
20
-0.1359082677165354
11
0.5761528346456692
21
-0.135615905511811
0
LINE
8
BLACK
6
CONTINUOUS
10
0.5761528346456692
20
-0.135615905511811
11
0.5763245275590551
21
-0.1356568897637795
0
LINE
8
BLACK
6
CONTINUOUS
10
0.5763245275590551
20
-0.1356568897637795
11
0.5764904330708661
21
-0.1355965354330709
0
LINE
8
BLACK
6
CONTINUOUS
10
0.5764904330708661
20
-0.1355965354330709
11
0.5821147244094488
21
-0.1355965354330709
0
LINE
8
BLACK
6
CONTINUOUS
10
0.5821147244094488
20
-0.1355965354330709
11
0.5831246456692913
21
-0.1357746062992126
0
LINE
8
BLACK
6
CONTINUOUS
10
0.5831246456692913
20
-0.1357746062992126
11
0.5832598818897637
21
-0.1358880708661417
0
LINE
8
BLACK
6
CONTINUOUS
10
0.5832598818897637
20
-0.1358880708661417
11
0.5834352362204724
21
-0.1359082677165354
0
LINE
8
BLACK
6
CONTINUOUS
10
0.5834352362204724
20
-0.1359082677165354
11
0.5871848031496063
21
-0.137783031496063
0
LINE
8
BLACK
6
CONTINUOUS
10
0.5871848031496063
20
-0.137783031496063
11
0.5880084645669291
21
-0.138393937007874
0
LINE
8
BLACK
6
CONTINUOUS
10
0.5880084645669291
20
-0.138393937007874
11
0.5881842913385826
21
-0.1387996062992126
0
LINE
8
BLACK
6
CONTINUOUS
10
0.5881842913385826
20
-0.1387996062992126
11
0.5885053149606299
21
-0.1391035433070866
0
LINE
8
BLACK
6
CONTINUOUS
10
0.5885053149606299
20
-0.1391035433070866
11
0.5903800787401575
21
-0.1428530708661417
0
LINE
8
BLACK
6
CONTINUOUS
10
0.5903800787401575
20
-0.1428530708661417
11
0.5906724409448819
21
-0.1438359842519685
0
LINE
8
BLACK
6
CONTINUOUS
10
0.5906724409448819
20
-0.1438359842519685
11
0.5906314173228346
21
-0.1440076771653543
0
LINE
8
BLACK
6
CONTINUOUS
10
0.5906314173228346
20
-0.1440076771653543
11
0.590691811023622
21
-0.1441735826771653
0
LINE
8
BLACK
6
CONTINUOUS
10
0.590691811023622
20
-0.1441735826771653
11
0.590691811023622
21
-0.1647960236220472
0
LINE
8
BLACK
6
CONTINUOUS
10
0.590691811023622
20
-0.1647960236220472
11
0.5905137401574803
21
-0.1658059448818898
0
LINE
8
BLACK
6
CONTINUOUS
10
0.5905137401574803
20
-0.1658059448818898
11
0.5892154330708661
21
-0.1673531889763779
0
LINE
8
BLACK
6
CONTINUOUS
10
0.5892154330708661
20
-0.1673531889763779
11
0.5872262992125984
21
-0.167703937007874
0
LINE
8
BLACK
6
CONTINUOUS
10
0.5872262992125984
20
-0.167703937007874
11
0.5854771259842519
21
-0.1666940157480315
0
LINE
8
BLACK
6
CONTINUOUS
10
0.5854771259842519
20
-0.1666940157480315
11
0.5847862992125984
21
-0.1647960236220472
0
LINE
8
BLACK
6
CONTINUOUS
10
0.5847862992125984
20
-0.1647960236220472
11
0.5847862992125984
21
-0.1448706299212598
0
LINE
8
BLACK
6
CONTINUOUS
10
0.5847862992125984
20
-0.1448706299212598
11
0.5836634251968503
21
-0.1426248818897638
0
LINE
8
BLACK
6
CONTINUOUS
10
0.5836634251968503
20
-0.1426248818897638
11
0.5814176771653543
21
-0.1415020472440945
0
LINE
8
BLACK
6
CONTINUOUS
10
0.5814176771653543
20
-0.1415020472440945
11
0.5771874803149606
21
-0.1415020472440945
0
LINE
8
BLACK
6
CONTINUOUS
10
0.5771874803149606
20
-0.1415020472440945
11
0.5749417322834646
21
-0.1426248818897638
0
LINE
8
BLACK
6
CONTINUOUS
10
0.5749417322834646
20
-0.1426248818897638
11
0.5738188976377953
21
-0.1448706299212598
0
LINE
8
BLACK
6
CONTINUOUS
10
0.5738188976377953
20
-0.1448706299212598
11
0.5738188976377953
21
-0.1647960236220472
0
LINE
8
BLACK
6
CONTINUOUS
10
0.5738188976377953
20
-0.1647960236220472
11
0.5736408267716535
21
-0.1658059448818898
0
LINE
8
BLACK
6
CONTINUOUS
10
0.5736408267716535
20
-0.1658059448818898
11
0.5723425196850394
21
-0.1673531889763779
0
LINE
8
BLACK
6
CONTINUOUS
10
0.5723425196850394
20
-0.1673531889763779
11
0.5703533858267716
21
-0.167703937007874
0
LINE
8
BLACK
6
CONTINUOUS
10
0.5703533858267716
20
-0.167703937007874
11
0.5686042125984252
21
-0.1666940157480315
0
LINE
8
BLACK
6
CONTINUOUS
10
0.5686042125984252
20
-0.1666940157480315
11
0.5679133858267716
21
-0.1647960236220472
0
LINE
8
BLACK
6
CONTINUOUS
10
0.5679133858267716
20
-0.1647960236220472
11
0.5679133858267716
21
-0.1448706299212598
0
LINE
8
BLACK
6
CONTINUOUS
10
0.5679133858267716
20
-0.1448706299212598
11
0.5667905118110236
21
-0.1426248818897638
0
LINE
8
BLACK
6
CONTINUOUS
10
0.5667905118110236
20
-0.1426248818897638
11
0.5645448031496063
21
-0.1415020472440945
0
LINE
8
BLACK
6
CONTINUOUS
10
0.5645448031496063
20
-0.1415020472440945
11
0.5603146062992126
21
-0.1415020472440945
0
LINE
8
BLACK
6
CONTINUOUS
10
0.5603146062992126
20
-0.1415020472440945
11
0.5576171259842519
21
-0.1428507874015748
0
LINE
8
BLACK
6
CONTINUOUS
10
0.5576171259842519
20
-0.1428507874015748
11
0.5569460236220473
21
-0.1435218897637795
0
LINE
8
BLACK
6
CONTINUOUS
10
0.5569460236220473
20
-0.1435218897637795
11
0.5569460236220473
21
-0.1647960236220472
0
LINE
8
BLACK
6
CONTINUOUS
10
0.5569460236220473
20
-0.1647960236220472
11
0.5567679527559055
21
-0.1658059448818898
0
LINE
8
BLACK
6
CONTINUOUS
10
0.5567679527559055
20
-0.1658059448818898
11
0.5554696456692914
21
-0.1673531889763779
0
LINE
8
BLACK
6
CONTINUOUS
10
0.5554696456692914
20
-0.1673531889763779
11
0.5534805118110236
21
-0.167703937007874
0
LINE
8
BLACK
6
CONTINUOUS
10
0.5534805118110236
20
-0.167703937007874
11
0.5517313385826772
21
-0.1666940157480315
0
LINE
8
BLACK
6
CONTINUOUS
10
0.5517313385826772
20
-0.1666940157480315
11
0.5510405118110236
21
-0.1647960236220472
0
LINE
8
BLACK
6
CONTINUOUS
10
0.5510405118110236
20
-0.1647960236220472
11
0.5510405118110236
21
-0.1385492913385827
0
LINE
8
BLACK
6
CONTINUOUS
10
0.5510405118110236
20
-0.1385492913385827
11
0.5512185826771654
21
-0.1375393700787401
0
LINE
8
BLACK
6
CONTINUOUS
10
0.5512185826771654
20
-0.1375393700787401
11
0.5525168897637796
21
-0.135992125984252
0
LINE
8
BLACK
6
CONTINUOUS
10
0.5525168897637796
20
-0.135992125984252
11
0.5545060236220473
21
-0.1356413779527559
0
LINE
8
BLACK
6
CONTINUOUS
10
0.5545060236220473
20
-0.1356413779527559
11
0.5562551968503937
21
-0.1366512992125984
0
LINE
8
BLACK
6
CONTINUOUS
10
0.5562551968503937
20
-0.1366512992125984
11
0.556340748031496
21
-0.1368863779527559
0
LINE
8
BLACK
6
CONTINUOUS
10
0.556340748031496
20
-0.1368863779527559
11
0.5582970472440945
21
-0.1359082677165354
0
LINE
8
BLACK
6
CONTINUOUS
10
0.5582970472440945
20
-0.1359082677165354
11
0.5592799606299212
21
-0.135615905511811
0
LINE
8
BLACK
6
CONTINUOUS
10
0.5592799606299212
20
-0.135615905511811
11
0.5594516535433071
21
-0.1356568897637795
0
LINE
8
BLACK
6
CONTINUOUS
10
0.5594516535433071
20
-0.1356568897637795
11
0.5596175590551181
21
-0.1355965354330709
0
LINE
8
BLACK
6
CONTINUOUS
10
0.5596175590551181
20
-0.1355965354330709
11
0.5652418503937008
21
-0.1355965354330709
0
LINE
8
BLACK
6
CONTINUOUS
10
0.5652418503937008
20
-0.1355965354330709
11
0.5662517716535433
21
-0.1357746062992126
0
LINE
8
BLACK
6
CONTINUOUS
10
1.1119202755905511
20
0.9069037401574803
11
1.1124968503937007
21
0.905511811023622
0
LINE
8
BLACK
6
CONTINUOUS
10
1.1124968503937007
20
0.905511811023622
11
1.1119202755905511
21
0.9041198818897638
0
LINE
8
BLACK
6
CONTINUOUS
10
1.1119202755905511
20
0.9041198818897638
11
1.1105283464566928
21
0.9035433070866141
0
LINE
8
BLACK
6
CONTINUOUS
10
1.1105283464566928
20
0.9035433070866141
11
1.0906849606299212
21
0.9035433070866141
0
LINE
8
BLACK
6
CONTINUOUS
10
1.0906849606299212
20
0.9035433070866141
11
1.1122744488188976
21
0.8620702362204724
0
LINE
8
BLACK
6
CONTINUOUS
10
1.1122744488188976
20
0.8620702362204724
11
1.1124057480314959
21
0.8605693307086614
0
LINE
8
BLACK
6
CONTINUOUS
10
1.1124057480314959
20
0.8605693307086614
11
1.1114373228346457
21
0.8594151968503937
0
LINE
8
BLACK
6
CONTINUOUS
10
1.1114373228346457
20
0.8594151968503937
11
1.1099364566929133
21
0.8592838976377952
0
LINE
8
BLACK
6
CONTINUOUS
10
1.1099364566929133
20
0.8592838976377952
11
1.1087822834645669
21
0.8602523228346457
0
LINE
8
BLACK
6
CONTINUOUS
10
1.1087822834645669
20
0.8602523228346457
11
1.0894094488188977
21
0.8974672047244094
0
LINE
8
BLACK
6
CONTINUOUS
10
1.0894094488188977
20
0.8974672047244094
11
1.0894094488188977
21
0.0080446456692913
0
LINE
8
BLACK
6
CONTINUOUS
10
1.0894094488188977
20
0.0080446456692913
11
1.1087822834645669
21
0.0452594881889764
0
LINE
8
BLACK
6
CONTINUOUS
10
1.1087822834645669
20
0.0452594881889764
11
1.1099364566929133
21
0.0462279133858268
0
LINE
8
BLACK
6
CONTINUOUS
10
1.1099364566929133
20
0.0462279133858268
11
1.1114373228346457
21
0.0460966141732283
0
LINE
8
BLACK
6
CONTINUOUS
10
1.1114373228346457
20
0.0460966141732283
11
1.1124057480314959
21
0.0449424803149606
0
LINE
8
BLACK
6
CONTINUOUS
10
1.1124057480314959
20
0.0449424803149606
11
1.1122744488188976
21
0.0434415748031496
0
LINE
8
BLACK
6
CONTINUOUS
10
1.1122744488188976
20
0.0434415748031496
11
1.0906849606299212
21
0.0019685039370079
0
LINE
8
BLACK
6
CONTINUOUS
10
1.0906849606299212
20
0.0019685039370079
11
1.1105283464566928
21
0.0019685039370079
0
LINE
8
BLACK
6
CONTINUOUS
10
1.1105283464566928
20
0.0019685039370079
11
1.1119202755905511
21
0.0013919291338583
0
LINE
8
BLACK
6
CONTINUOUS
10
1.1119202755905511
20
0.0013919291338583
11
1.1124968503937007
21
0.
0
LINE
8
BLACK
6
CONTINUOUS
10
1.1124968503937007
20
0.
11
1.1119202755905511
21
-0.0013919291338583
0
LINE
8
BLACK
6
CONTINUOUS
10
1.1119202755905511
20
-0.0013919291338583
11
1.1105283464566928
21
-0.0019685039370079
0
LINE
8
BLACK
6
CONTINUOUS
10
1.1105283464566928
20
-0.0019685039370079
11
1.0874409448818898
21
-0.0019685039370079
0
LINE
8
BLACK
6
CONTINUOUS
10
1.0874409448818898
20
-0.0019685039370079
11
1.0039370078740157
21
-0.0019685039370079
0
LINE
8
BLACK
6
CONTINUOUS
10
1.0039370078740157
20
-0.0019685039370079
11
1.0025450787401575
21
-0.0013919291338583
0
LINE
8
BLACK
6
CONTINUOUS
10
1.0025450787401575
20
-0.0013919291338583
11
1.0019685039370079
21
0.
0
LINE
8
BLACK
6
CONTINUOUS
10
1.0019685039370079
20
0.
11
1.0025450787401575
21
0.0013919291338583
0
LINE
8
BLACK
6
CONTINUOUS
10
1.0025450787401575
20
0.0013919291338583
11
1.0039370078740157
21
0.0019685039370079
0
LINE
8
BLACK
6
CONTINUOUS
10
1.0039370078740157
20
0.0019685039370079
11
1.0841969291338582
21
0.0019685039370079
0
LINE
8
BLACK
6
CONTINUOUS
10
1.0841969291338582
20
0.0019685039370079
11
1.062607401574803
21
0.0434416141732283
0
LINE
8
BLACK
6
CONTINUOUS
10
1.062607401574803
20
0.0434416141732283
11
1.0624761417322834
21
0.0449424803149606
0
LINE
8
BLACK
6
CONTINUOUS
10
1.0624761417322834
20
0.0449424803149606
11
1.0634445669291339
21
0.0460966535433071
0
LINE
8
BLACK
6
CONTINUOUS
10
1.0634445669291339
20
0.0460966535433071
11
1.0649454330708661
21
0.0462279133858268
0
LINE
8
BLACK
6
CONTINUOUS
10
1.0649454330708661
20
0.0462279133858268
11
1.0660996062992125
21
0.0452594881889764
0
LINE
8
BLACK
6
CONTINUOUS
10
1.0660996062992125
20
0.0452594881889764
11
1.0854724409448819
21
0.0080446062992126
0
LINE
8
BLACK
6
CONTINUOUS
10
1.0854724409448819
20
0.0080446062992126
11
1.0854724409448819
21
0.8974672440944882
0
LINE
8
BLACK
6
CONTINUOUS
10
1.0854724409448819
20
0.8974672440944882
11
1.0660996062992125
21
0.8602523228346457
0
LINE
8
BLACK
6
CONTINUOUS
10
1.0660996062992125
20
0.8602523228346457
11
1.0649454330708661
21
0.8592838976377952
0
LINE
8
BLACK
6
CONTINUOUS
10
1.0649454330708661
20
0.8592838976377952
11
1.0634445669291339
21
0.8594151574803149
0
LINE
8
BLACK
6
CONTINUOUS
10
1.0634445669291339
20
0.8594151574803149
11
1.0624761417322834
21
0.8605693307086614
0
LINE
8
BLACK
6
CONTINUOUS
10
1.0624761417322834
20
0.8605693307086614
11
1.062607401574803
21
0.8620701968503937
0
LINE
8
BLACK
6
CONTINUOUS
10
1.062607401574803
20
0.8620701968503937
11
1.0841969291338582
21
0.9035433070866141
0
LINE
8
BLACK
6
CONTINUOUS
10
1.0841969291338582
20
0.9035433070866141
11
1.0039370078740157
21
0.9035433070866141
0
LINE
8
BLACK
6
CONTINUOUS
10
1.0039370078740157
20
0.9035433070866141
11
1.0025450787401575
21
0.9041198818897638
0
LINE
8
BLACK
6
CONTINUOUS
10
1.0025450787401575
20
0.9041198818897638
11
1.0019685039370079
21
0.905511811023622
0
LINE
8
BLACK
6
CONTINUOUS
10
1.0019685039370079
20
0.905511811023622
11
1.0025450787401575
21
0.9069037401574803
0
LINE
8
BLACK
6
CONTINUOUS
10
1.0025450787401575
20
0.9069037401574803
11
1.0039370078740157
21
0.9074803149606299
0
LINE
8
BLACK
6
CONTINUOUS
10
1.0039370078740157
20
0.9074803149606299
11
1.1105283464566928
21
0.9074803149606299
0
LINE
8
BLACK
6
CONTINUOUS
10
1.1105283464566928
20
0.9074803149606299
11
1.1119202755905511
21
0.9069037401574803
0
LINE
8
BLACK
6
CONTINUOUS
10
1.0328194881889763
20
0.3805648031496063
11
1.0328838582677164
21
0.3805665354330708
0
LINE
8
BLACK
6
CONTINUOUS
10
1.0328838582677164
20
0.3805665354330708
11
1.0385081496062991
21
0.3786917716535433
0
LINE
8
BLACK
6
CONTINUOUS
10
1.0385081496062991
20
0.3786917716535433
11
1.0394099212598424
21
0.3782035039370079
0
LINE
8
BLACK
6
CONTINUOUS
10
1.0394099212598424
20
0.3782035039370079
11
1.0395023228346456
21
0.3780530708661417
0
LINE
8
BLACK
6
CONTINUOUS
10
1.0395023228346456
20
0.3780530708661417
11
1.0396623228346455
21
0.3779784645669291
0
LINE
8
BLACK
6
CONTINUOUS
10
1.0396623228346455
20
0.3779784645669291
11
1.0571188582677165
21
0.360521968503937
0
LINE
8
BLACK
6
CONTINUOUS
10
1.0571188582677165
20
0.360521968503937
11
1.0571188582677165
21
0.3777653149606299
0
LINE
8
BLACK
6
CONTINUOUS
10
1.0571188582677165
20
0.3777653149606299
11
1.0572969291338583
21
0.3787752362204724
0
LINE
8
BLACK
6
CONTINUOUS
10
1.0572969291338583
20
0.3787752362204724
11
1.0585952362204725
21
0.3803224803149606
0
LINE
8
BLACK
6
CONTINUOUS
10
1.0585952362204725
20
0.3803224803149606
11
1.0605843700787401
21
0.3806732283464567
0
LINE
8
BLACK
6
CONTINUOUS
10
1.0605843700787401
20
0.3806732283464567
11
1.0623335433070866
21
0.3796633070866142
0
LINE
8
BLACK
6
CONTINUOUS
10
1.0623335433070866
20
0.3796633070866142
11
1.0630243700787401
21
0.3777653149606299
0
LINE
8
BLACK
6
CONTINUOUS
10
1.0630243700787401
20
0.3777653149606299
11
1.0630243700787401
21
0.3533933858267717
0
LINE
8
BLACK
6
CONTINUOUS
10
1.0630243700787401
20
0.3533933858267717
11
1.0629124409448818
21
0.3527586614173228
0
LINE
8
BLACK
6
CONTINUOUS
10
1.0629124409448818
20
0.3527586614173228
11
1.062923779527559
21
0.3526291732283465
0
LINE
8
BLACK
6
CONTINUOUS
10
1.062923779527559
20
0.3526291732283465
11
1.0628781102362204
21
0.3525639763779527
0
LINE
8
BLACK
6
CONTINUOUS
10
1.0628781102362204
20
0.3525639763779527
11
1.0628462992125984
21
0.3523834645669291
0
LINE
8
BLACK
6
CONTINUOUS
10
1.0628462992125984
20
0.3523834645669291
11
1.0622750000000001
21
0.3517026377952756
0
LINE
8
BLACK
6
CONTINUOUS
10
1.0622750000000001
20
0.3517026377952756
11
1.0617652362204724
21
0.3509746062992126
0
LINE
8
BLACK
6
CONTINUOUS
10
1.0617652362204724
20
0.3509746062992126
11
1.0616347637795276
21
0.3509396850393701
0
LINE
8
BLACK
6
CONTINUOUS
10
1.0616347637795276
20
0.3509396850393701
11
1.0615479921259843
21
0.350836220472441
0
LINE
8
BLACK
6
CONTINUOUS
10
1.0615479921259843
20
0.350836220472441
11
1.0606726377952755
21
0.3506818897637795
0
LINE
8
BLACK
6
CONTINUOUS
10
1.0606726377952755
20
0.3506818897637795
11
1.0598142913385826
21
0.3504518897637795
0
LINE
8
BLACK
6
CONTINUOUS
10
1.0598142913385826
20
0.3504518897637795
11
1.0596919291338582
21
0.3505089763779528
0
LINE
8
BLACK
6
CONTINUOUS
10
1.0596919291338582
20
0.3505089763779528
11
1.0595588582677165
21
0.3504854724409449
0
LINE
8
BLACK
6
CONTINUOUS
10
1.0595588582677165
20
0.3504854724409449
11
1.058788937007874
21
0.35093
0
LINE
8
BLACK
6
CONTINUOUS
10
1.058788937007874
20
0.35093
11
1.0579837007874016
21
0.3513054724409449
0
LINE
8
BLACK
6
CONTINUOUS
10
1.0579837007874016
20
0.3513054724409449
11
1.0359793700787401
21
0.3733097637795276
0
LINE
8
BLACK
6
CONTINUOUS
10
1.0359793700787401
20
0.3733097637795276
11
1.0314709842519685
21
0.3748125590551181
0
LINE
8
BLACK
6
CONTINUOUS
10
1.0314709842519685
20
0.3748125590551181
11
1.0288976377952757
21
0.3748125590551181
0
LINE
8
BLACK
6
CONTINUOUS
10
1.0288976377952757
20
0.3748125590551181
11
1.026200157480315
21
0.3734638188976378
0
LINE
8
BLACK
6
CONTINUOUS
10
1.026200157480315
20
0.3734638188976378
11
1.025003031496063
21
0.3722666929133858
0
LINE
8
BLACK
6
CONTINUOUS
10
1.025003031496063
20
0.3722666929133858
11
1.0236542913385827
21
0.3695692125984252
0
LINE
8
BLACK
6
CONTINUOUS
10
1.0236542913385827
20
0.3695692125984252
11
1.0236542913385827
21
0.3615894881889763
0
LINE
8
BLACK
6
CONTINUOUS
10
1.0236542913385827
20
0.3615894881889763
11
1.025003031496063
21
0.3588920078740158
0
LINE
8
BLACK
6
CONTINUOUS
10
1.025003031496063
20
0.3588920078740158
11
1.0265389763779527
21
0.357356062992126
0
LINE
8
BLACK
6
CONTINUOUS
10
1.0265389763779527
20
0.357356062992126
11
1.0271271653543308
21
0.3565160236220473
0
LINE
8
BLACK
6
CONTINUOUS
10
1.0271271653543308
20
0.3565160236220473
11
1.027303188976378
21
0.354503937007874
0
LINE
8
BLACK
6
CONTINUOUS
10
1.027303188976378
20
0.354503937007874
11
1.0261446850393701
21
0.3528493700787402
0
LINE
8
BLACK
6
CONTINUOUS
10
1.0261446850393701
20
0.3528493700787402
11
1.0241937007874016
21
0.3523266535433071
0
LINE
8
BLACK
6
CONTINUOUS
10
1.0241937007874016
20
0.3523266535433071
11
1.0223631496062993
21
0.3531802362204725
0
LINE
8
BLACK
6
CONTINUOUS
10
1.0223631496062993
20
0.3531802362204725
11
1.0204883858267717
21
0.355055
0
LINE
8
BLACK
6
CONTINUOUS
10
1.0204883858267717
20
0.355055
11
1.0199820866141731
21
0.3557781102362205
0
LINE
8
BLACK
6
CONTINUOUS
10
1.0199820866141731
20
0.3557781102362205
11
1.0199352755905511
21
0.3558224015748032
0
LINE
8
BLACK
6
CONTINUOUS
10
1.0199352755905511
20
0.3558224015748032
11
1.0180605118110235
21
0.3595719291338583
0
LINE
8
BLACK
6
CONTINUOUS
10
1.0180605118110235
20
0.3595719291338583
11
1.0177681496062991
21
0.3605548818897638
0
LINE
8
BLACK
6
CONTINUOUS
10
1.0177681496062991
20
0.3605548818897638
11
1.0178091338582678
21
0.3607265748031496
0
LINE
8
BLACK
6
CONTINUOUS
10
1.0178091338582678
20
0.3607265748031496
11
1.017748779527559
21
0.3608924409448819
0
LINE
8
BLACK
6
CONTINUOUS
10
1.017748779527559
20
0.3608924409448819
11
1.017748779527559
21
0.3702662598425197
0
LINE
8
BLACK
6
CONTINUOUS
10
1.017748779527559
20
0.3702662598425197
11
1.0179268503937007
21
0.3712761811023622
0
LINE
8
BLACK
6
CONTINUOUS
10
1.0179268503937007
20
0.3712761811023622
11
1.0180403149606299
21
0.3714114566929134
0
LINE
8
BLACK
6
CONTINUOUS
10
1.0180403149606299
20
0.3714114566929134
11
1.0180605118110235
21
0.3715867716535433
0
LINE
8
BLACK
6
CONTINUOUS
10
1.0180605118110235
20
0.3715867716535433
11
1.0199352755905511
21
0.3753362992125984
0
LINE
8
BLACK
6
CONTINUOUS
10
1.0199352755905511
20
0.3753362992125984
11
1.0204611811023623
21
0.3760453937007874
0
LINE
8
BLACK
6
CONTINUOUS
10
1.0204611811023623
20
0.3760453937007874
11
1.0204883858267717
21
0.3761037007874016
0
LINE
8
BLACK
6
CONTINUOUS
10
1.0204883858267717
20
0.3761037007874016
11
1.0223631496062993
21
0.3779784645669291
0
LINE
8
BLACK
6
CONTINUOUS
10
1.0223631496062993
20
0.3779784645669291
11
1.0230862204724409
21
0.3784847637795276
0
LINE
8
BLACK
6
CONTINUOUS
10
1.0230862204724409
20
0.3784847637795276
11
1.0231305511811024
21
0.3785315748031496
0
LINE
8
BLACK
6
CONTINUOUS
10
1.0231305511811024
20
0.3785315748031496
11
1.0268800787401575
21
0.3804063385826771
0
LINE
8
BLACK
6
CONTINUOUS
10
1.0268800787401575
20
0.3804063385826771
11
1.0278629921259843
21
0.3806987007874016
0
LINE
8
BLACK
6
CONTINUOUS
10
1.0278629921259843
20
0.3806987007874016
11
1.02803468503937
21
0.3806577165354331
0
LINE
8
BLACK
6
CONTINUOUS
10
1.02803468503937
20
0.3806577165354331
11
1.0282005905511811
21
0.3807180708661417
0
LINE
8
BLACK
6
CONTINUOUS
10
1.0282005905511811
20
0.3807180708661417
11
1.0319501181102362
21
0.3807180708661417
0
LINE
8
BLACK
6
CONTINUOUS
10
1.0319501181102362
20
0.3807180708661417
11
1.0328194881889763
21
0.3805648031496063
0
LINE
8
BLACK
6
CONTINUOUS
10
1.053582440944882
20
0.4180353149606299
11
1.0537176771653542
21
0.4179218503937008
0
LINE
8
BLACK
6
CONTINUOUS
10
1.0537176771653542
20
0.4179218503937008
11
1.0538930314960631
21
0.4179016535433071
0
LINE
8
BLACK
6
CONTINUOUS
10
1.0538930314960631
20
0.4179016535433071
11
1.0576425590551182
21
0.4160268897637795
0
LINE
8
BLACK
6
CONTINUOUS
10
1.0576425590551182
20
0.4160268897637795
11
1.0583515354330708
21
0.415501062992126
0
LINE
8
BLACK
6
CONTINUOUS
10
1.0583515354330708
20
0.415501062992126
11
1.0584099212598426
21
0.4154738188976378
0
LINE
8
BLACK
6
CONTINUOUS
10
1.0584099212598426
20
0.4154738188976378
11
1.0602847244094489
21
0.4135990551181102
0
LINE
8
BLACK
6
CONTINUOUS
10
1.0602847244094489
20
0.4135990551181102
11
1.0607911023622048
21
0.412875905511811
0
LINE
8
BLACK
6
CONTINUOUS
10
1.0607911023622048
20
0.412875905511811
11
1.060837874015748
21
0.4128316141732283
0
LINE
8
BLACK
6
CONTINUOUS
10
1.060837874015748
20
0.4128316141732283
11
1.0627126377952756
21
0.4090820866141732
0
LINE
8
BLACK
6
CONTINUOUS
10
1.0627126377952756
20
0.4090820866141732
11
1.063005
21
0.4080991732283464
0
LINE
8
BLACK
6
CONTINUOUS
10
1.063005
20
0.4080991732283464
11
1.0629639763779528
21
0.4079274803149606
0
LINE
8
BLACK
6
CONTINUOUS
10
1.0629639763779528
20
0.4079274803149606
11
1.0630243700787401
21
0.4077615748031496
0
LINE
8
BLACK
6
CONTINUOUS
10
1.0630243700787401
20
0.4077615748031496
11
1.0630243700787401
21
0.3965129921259842
0
LINE
8
BLACK
6
CONTINUOUS
10
1.0630243700787401
20
0.3965129921259842
11
1.0628462992125984
21
0.3955030708661417
0
LINE
8
BLACK
6
CONTINUOUS
10
1.0628462992125984
20
0.3955030708661417
11
1.0627327952755905
21
0.3953678346456693
0
LINE
8
BLACK
6
CONTINUOUS
10
1.0627327952755905
20
0.3953678346456693
11
1.0627126377952756
21
0.3951924803149606
0
LINE
8
BLACK
6
CONTINUOUS
10
1.0627126377952756
20
0.3951924803149606
11
1.060837874015748
21
0.3914429527559055
0
LINE
8
BLACK
6
CONTINUOUS
10
1.060837874015748
20
0.3914429527559055
11
1.0603118897637795
21
0.3907338582677165
0
LINE
8
BLACK
6
CONTINUOUS
10
1.0603118897637795
20
0.3907338582677165
11
1.0602847244094489
21
0.3906755118110236
0
LINE
8
BLACK
6
CONTINUOUS
10
1.0602847244094489
20
0.3906755118110236
11
1.0584099212598426
21
0.3888007480314961
0
LINE
8
BLACK
6
CONTINUOUS
10
1.0584099212598426
20
0.3888007480314961
11
1.0575698818897639
21
0.3882125590551181
0
LINE
8
BLACK
6
CONTINUOUS
10
1.0575698818897639
20
0.3882125590551181
11
1.0555577952755906
21
0.3880365748031496
0
LINE
8
BLACK
6
CONTINUOUS
10
1.0555577952755906
20
0.3880365748031496
11
1.0539032677165354
21
0.3891950787401575
0
LINE
8
BLACK
6
CONTINUOUS
10
1.0539032677165354
20
0.3891950787401575
11
1.0533805511811023
21
0.391146062992126
0
LINE
8
BLACK
6
CONTINUOUS
10
1.0533805511811023
20
0.391146062992126
11
1.0542341732283464
21
0.3929766535433071
0
LINE
8
BLACK
6
CONTINUOUS
10
1.0542341732283464
20
0.3929766535433071
11
1.0557701181102361
21
0.3945125984251968
0
LINE
8
BLACK
6
CONTINUOUS
10
1.0557701181102361
20
0.3945125984251968
11
1.0571188582677165
21
0.3972100393700787
0
LINE
8
BLACK
6
CONTINUOUS
10
1.0571188582677165
20
0.3972100393700787
11
1.0571188582677165
21
0.4070645275590551
0
LINE
8
BLACK
6
CONTINUOUS
10
1.0571188582677165
20
0.4070645275590551
11
1.0557701181102361
21
0.4097620078740157
0
LINE
8
BLACK
6
CONTINUOUS
10
1.0557701181102361
20
0.4097620078740157
11
1.0545729527559056
21
0.4109591338582677
0
LINE
8
BLACK
6
CONTINUOUS
10
1.0545729527559056
20
0.4109591338582677
11
1.0518754724409449
21
0.412307874015748
0
LINE
8
BLACK
6
CONTINUOUS
10
1.0518754724409449
20
0.412307874015748
11
1.0438957480314961
21
0.412307874015748
0
LINE
8
BLACK
6
CONTINUOUS
10
1.0438957480314961
20
0.412307874015748
11
1.0411982677165355
21
0.4109591338582677
0
LINE
8
BLACK
6
CONTINUOUS
10
1.0411982677165355
20
0.4109591338582677
11
1.0400011417322834
21
0.4097620078740157
0
LINE
8
BLACK
6
CONTINUOUS
10
1.0400011417322834
20
0.4097620078740157
11
1.0386524015748031
21
0.4070645275590551
0
LINE
8
BLACK
6
CONTINUOUS
10
1.0386524015748031
20
0.4070645275590551
11
1.0386524015748031
21
0.4021372834645669
0
LINE
8
BLACK
6
CONTINUOUS
10
1.0386524015748031
20
0.4021372834645669
11
1.0385752755905511
21
0.4016999606299212
0
LINE
8
BLACK
6
CONTINUOUS
10
1.0385752755905511
20
0.4016999606299212
11
1.0385962992125983
21
0.4015644488188976
0
LINE
8
BLACK
6
CONTINUOUS
10
1.0385962992125983
20
0.4015644488188976
11
1.0385329133858268
21
0.4014598031496063
0
LINE
8
BLACK
6
CONTINUOUS
10
1.0385329133858268
20
0.4014598031496063
11
1.0384743307086615
21
0.4011273622047244
0
LINE
8
BLACK
6
CONTINUOUS
10
1.0384743307086615
20
0.4011273622047244
11
1.0379626377952755
21
0.4005175984251969
0
LINE
8
BLACK
6
CONTINUOUS
10
1.0379626377952755
20
0.4005175984251969
11
1.037550433070866
21
0.3998365354330708
0
LINE
8
BLACK
6
CONTINUOUS
10
1.037550433070866
20
0.3998365354330708
11
1.0373274015748031
21
0.3997605905511811
0
LINE
8
BLACK
6
CONTINUOUS
10
1.0373274015748031
20
0.3997605905511811
11
1.0371760236220473
21
0.3995801181102362
0
LINE
8
BLACK
6
CONTINUOUS
10
1.0371760236220473
20
0.3995801181102362
11
1.0363920472440944
21
0.3994418897637795
0
LINE
8
BLACK
6
CONTINUOUS
10
1.0363920472440944
20
0.3994418897637795
11
1.0356385433070865
21
0.399185157480315
0
LINE
8
BLACK
6
CONTINUOUS
10
1.0356385433070865
20
0.399185157480315
11
1.0354188976377952
21
0.3992703149606299
0
LINE
8
BLACK
6
CONTINUOUS
10
1.0354188976377952
20
0.3992703149606299
11
1.0351868897637795
21
0.3992293700787402
0
LINE
8
BLACK
6
CONTINUOUS
10
1.0351868897637795
20
0.3992293700787402
11
1.0344974015748032
21
0.3996274803149606
0
LINE
8
BLACK
6
CONTINUOUS
10
1.0344974015748032
20
0.3996274803149606
11
1.0337552362204725
21
0.3999151181102362
0
LINE
8
BLACK
6
CONTINUOUS
10
1.0337552362204725
20
0.3999151181102362
11
1.0236542913385827
21
0.4087534645669291
0
LINE
8
BLACK
6
CONTINUOUS
10
1.0236542913385827
20
0.4087534645669291
11
1.0236542913385827
21
0.3908887007874016
0
LINE
8
BLACK
6
CONTINUOUS
10
1.0236542913385827
20
0.3908887007874016
11
1.023476220472441
21
0.3898787795275591
0
LINE
8
BLACK
6
CONTINUOUS
10
1.023476220472441
20
0.3898787795275591
11
1.0221779133858266
21
0.3883315354330709
0
LINE
8
BLACK
6
CONTINUOUS
10
1.0221779133858266
20
0.3883315354330709
11
1.020188779527559
21
0.3879807874015748
0
LINE
8
BLACK
6
CONTINUOUS
10
1.020188779527559
20
0.3879807874015748
11
1.0184396062992125
21
0.3889907086614173
0
LINE
8
BLACK
6
CONTINUOUS
10
1.0184396062992125
20
0.3889907086614173
11
1.017748779527559
21
0.3908887007874016
0
LINE
8
BLACK
6
CONTINUOUS
10
1.017748779527559
20
0.3908887007874016
11
1.017748779527559
21
0.4152606299212598
0
LINE
8
BLACK
6
CONTINUOUS
10
1.017748779527559
20
0.4152606299212598
11
1.0178258661417323
21
0.4156979921259842
0
LINE
8
BLACK
6
CONTINUOUS
10
1.0178258661417323
20
0.4156979921259842
11
1.0178048818897638
21
0.4158334645669291
0
LINE
8
BLACK
6
CONTINUOUS
10
1.0178048818897638
20
0.4158334645669291
11
1.0178682283464566
21
0.4159381496062992
0
LINE
8
BLACK
6
CONTINUOUS
10
1.0178682283464566
20
0.4159381496062992
11
1.0179268503937007
21
0.4162705511811023
0
LINE
8
BLACK
6
CONTINUOUS
10
1.0179268503937007
20
0.4162705511811023
11
1.0184385039370079
21
0.4168803543307086
0
LINE
8
BLACK
6
CONTINUOUS
10
1.0184385039370079
20
0.4168803543307086
11
1.0188507480314961
21
0.4175613779527559
0
LINE
8
BLACK
6
CONTINUOUS
10
1.0188507480314961
20
0.4175613779527559
11
1.0190737401574803
21
0.4176373622047244
0
LINE
8
BLACK
6
CONTINUOUS
10
1.0190737401574803
20
0.4176373622047244
11
1.0192251574803148
21
0.4178177952755905
0
LINE
8
BLACK
6
CONTINUOUS
10
1.0192251574803148
20
0.4178177952755905
11
1.020009094488189
21
0.417956062992126
0
LINE
8
BLACK
6
CONTINUOUS
10
1.020009094488189
20
0.417956062992126
11
1.0207626377952757
21
0.4182127559055118
0
LINE
8
BLACK
6
CONTINUOUS
10
1.0207626377952757
20
0.4182127559055118
11
1.0209822440944882
21
0.4181276377952756
0
LINE
8
BLACK
6
CONTINUOUS
10
1.0209822440944882
20
0.4181276377952756
11
1.0212142913385827
21
0.4181685433070866
0
LINE
8
BLACK
6
CONTINUOUS
10
1.0212142913385827
20
0.4181685433070866
11
1.0219037401574802
21
0.4177704724409449
0
LINE
8
BLACK
6
CONTINUOUS
10
1.0219037401574802
20
0.4177704724409449
11
1.0226459448818896
21
0.4174827952755906
0
LINE
8
BLACK
6
CONTINUOUS
10
1.0226459448818896
20
0.4174827952755906
11
1.0328817322834645
21
0.4085264960629921
0
LINE
8
BLACK
6
CONTINUOUS
10
1.0328817322834645
20
0.4085264960629921
11
1.0329249606299213
21
0.4087714960629921
0
LINE
8
BLACK
6
CONTINUOUS
10
1.0329249606299213
20
0.4087714960629921
11
1.0330384251968503
21
0.4089067716535433
0
LINE
8
BLACK
6
CONTINUOUS
10
1.0330384251968503
20
0.4089067716535433
11
1.033058622047244
21
0.4090820866141732
0
LINE
8
BLACK
6
CONTINUOUS
10
1.033058622047244
20
0.4090820866141732
11
1.0349333858267715
21
0.4128316141732283
0
LINE
8
BLACK
6
CONTINUOUS
10
1.0349333858267715
20
0.4128316141732283
11
1.0354592913385827
21
0.4135407086614173
0
LINE
8
BLACK
6
CONTINUOUS
10
1.0354592913385827
20
0.4135407086614173
11
1.0354864960629921
21
0.4135990157480315
0
LINE
8
BLACK
6
CONTINUOUS
10
1.0354864960629921
20
0.4135990157480315
11
1.0373612598425197
21
0.415473779527559
0
LINE
8
BLACK
6
CONTINUOUS
10
1.0373612598425197
20
0.415473779527559
11
1.0380843307086614
21
0.4159800787401575
0
LINE
8
BLACK
6
CONTINUOUS
10
1.0380843307086614
20
0.4159800787401575
11
1.0381286614173229
21
0.4160268897637795
0
LINE
8
BLACK
6
CONTINUOUS
10
1.0381286614173229
20
0.4160268897637795
11
1.041878188976378
21
0.4179016535433071
0
LINE
8
BLACK
6
CONTINUOUS
10
1.041878188976378
20
0.4179016535433071
11
1.0428611023622048
21
0.4181940157480315
0
LINE
8
BLACK
6
CONTINUOUS
10
1.0428611023622048
20
0.4181940157480315
11
1.0430327952755905
21
0.418153031496063
0
LINE
8
BLACK
6
CONTINUOUS
10
1.0430327952755905
20
0.418153031496063
11
1.0431987007874015
21
0.4182133858267716
0
LINE
8
BLACK
6
CONTINUOUS
10
1.0431987007874015
20
0.4182133858267716
11
1.0525725196850393
21
0.4182133858267716
0
LINE
8
BLACK
6
CONTINUOUS
10
1.0525725196850393
20
0.4182133858267716
11
1.053582440944882
21
0.4180353149606299
0
LINE
8
BLACK
6
CONTINUOUS
10
1.0610815354330709
20
0.4986502755905512
11
1.0626287795275591
21
0.497351968503937
0
LINE
8
BLACK
6
CONTINUOUS
10
1.0626287795275591
20
0.497351968503937
11
1.062979527559055
21
0.4953628346456693
0
LINE
8
BLACK
6
CONTINUOUS
10
1.062979527559055
20
0.4953628346456693
11
1.0619696062992126
21
0.4936136614173228
0
LINE
8
BLACK
6
CONTINUOUS
10
1.0619696062992126
20
0.4936136614173228
11
1.0600716141732283
21
0.4929228346456693
0
LINE
8
BLACK
6
CONTINUOUS
10
1.0600716141732283
20
0.4929228346456693
11
1.040146220472441
21
0.4929228346456693
0
LINE
8
BLACK
6
CONTINUOUS
10
1.040146220472441
20
0.4929228346456693
11
1.0379004724409449
21
0.4918
0
LINE
8
BLACK
6
CONTINUOUS
10
1.0379004724409449
20
0.4918
11
1.0367776377952755
21
0.4895542519685039
0
LINE
8
BLACK
6
CONTINUOUS
10
1.0367776377952755
20
0.4895542519685039
11
1.0367776377952755
21
0.4853240157480315
0
LINE
8
BLACK
6
CONTINUOUS
10
1.0367776377952755
20
0.4853240157480315
11
1.0379004724409449
21
0.4830783070866141
0
LINE
8
BLACK
6
CONTINUOUS
10
1.0379004724409449
20
0.4830783070866141
11
1.040146220472441
21
0.4819554330708661
0
LINE
8
BLACK
6
CONTINUOUS
10
1.040146220472441
20
0.4819554330708661
11
1.0600716141732283
21
0.4819554330708661
0
LINE
8
BLACK
6
CONTINUOUS
10
1.0600716141732283
20
0.4819554330708661
11
1.0610815354330709
21
0.4817773622047244
0
LINE
8
BLACK
6
CONTINUOUS
10
1.0610815354330709
20
0.4817773622047244
11
1.0626287795275591
21
0.4804790551181102
0
LINE
8
BLACK
6
CONTINUOUS
10
1.0626287795275591
20
0.4804790551181102
11
1.062979527559055
21
0.4784899212598425
0
LINE
8
BLACK
6
CONTINUOUS
10
1.062979527559055
20
0.4784899212598425
11
1.0619696062992126
21
0.4767407480314961
0
LINE
8
BLACK
6
CONTINUOUS
10
1.0619696062992126
20
0.4767407480314961
11
1.0600716141732283
21
0.4760499212598425
0
LINE
8
BLACK
6
CONTINUOUS
10
1.0600716141732283
20
0.4760499212598425
11
1.040146220472441
21
0.4760499212598425
0
LINE
8
BLACK
6
CONTINUOUS
10
1.040146220472441
20
0.4760499212598425
11
1.0379004724409449
21
0.4749270866141732
0
LINE
8
BLACK
6
CONTINUOUS
10
1.0379004724409449
20
0.4749270866141732
11
1.0367776377952755
21
0.4726813385826771
0
LINE
8
BLACK
6
CONTINUOUS
10
1.0367776377952755
20
0.4726813385826771
11
1.0367776377952755
21
0.4684511417322835
0
LINE
8
BLACK
6
CONTINUOUS
10
1.0367776377952755
20
0.4684511417322835
11
1.0381263779527559
21
0.4657536614173228
0
LINE
8
BLACK
6
CONTINUOUS
10
1.0381263779527559
20
0.4657536614173228
11
1.0387974803149607
21
0.4650825590551181
0
LINE
8
BLACK
6
CONTINUOUS
10
1.0387974803149607
20
0.4650825590551181
11
1.0600716141732283
21
0.4650825590551181
0
LINE
8
BLACK
6
CONTINUOUS
10
1.0600716141732283
20
0.4650825590551181
11
1.0610815354330709
21
0.4649044881889764
0
LINE
8
BLACK
6
CONTINUOUS
10
1.0610815354330709
20
0.4649044881889764
11
1.0626287795275591
21
0.4636061811023622
0
LINE
8
BLACK
6
CONTINUOUS
10
1.0626287795275591
20
0.4636061811023622
11
1.062979527559055
21
0.4616170472440945
0
LINE
8
BLACK
6
CONTINUOUS
10
1.062979527559055
20
0.4616170472440945
11
1.0619696062992126
21
0.459867874015748
0
LINE
8
BLACK
6
CONTINUOUS
10
1.0619696062992126
20
0.459867874015748
11
1.0600716141732283
21
0.4591770472440945
0
LINE
8
BLACK
6
CONTINUOUS
10
1.0600716141732283
20
0.4591770472440945
11
1.0338248818897637
21
0.4591770472440945
0
LINE
8
BLACK
6
CONTINUOUS
10
1.0338248818897637
20
0.4591770472440945
11
1.0328149606299213
21
0.4593551181102362
0
LINE
8
BLACK
6
CONTINUOUS
10
1.0328149606299213
20
0.4593551181102362
11
1.0312677165354331
21
0.4606534251968504
0
LINE
8
BLACK
6
CONTINUOUS
10
1.0312677165354331
20
0.4606534251968504
11
1.030916968503937
21
0.4626425590551181
0
LINE
8
BLACK
6
CONTINUOUS
10
1.030916968503937
20
0.4626425590551181
11
1.0319268897637794
21
0.4643917322834645
0
LINE
8
BLACK
6
CONTINUOUS
10
1.0319268897637794
20
0.4643917322834645
11
1.0321619685039369
21
0.4644773228346457
0
LINE
8
BLACK
6
CONTINUOUS
10
1.0321619685039369
20
0.4644773228346457
11
1.0311838582677164
21
0.4664335826771653
0
LINE
8
BLACK
6
CONTINUOUS
10
1.0311838582677164
20
0.4664335826771653
11
1.030891496062992
21
0.4674165354330709
0
LINE
8
BLACK
6
CONTINUOUS
10
1.030891496062992
20
0.4674165354330709
11
1.0309324803149607
21
0.4675882283464567
0
LINE
8
BLACK
6
CONTINUOUS
10
1.0309324803149607
20
0.4675882283464567
11
1.0308721259842519
21
0.4677540944881889
0
LINE
8
BLACK
6
CONTINUOUS
10
1.0308721259842519
20
0.4677540944881889
11
1.0308721259842519
21
0.4733783858267717
0
LINE
8
BLACK
6
CONTINUOUS
10
1.0308721259842519
20
0.4733783858267717
11
1.0310501968503938
21
0.4743883070866142
0
LINE
8
BLACK
6
CONTINUOUS
10
1.0310501968503938
20
0.4743883070866142
11
1.0311636614173227
21
0.4745235826771653
0
LINE
8
BLACK
6
CONTINUOUS
10
1.0311636614173227
20
0.4745235826771653
11
1.0311838582677164
21
0.4746988976377953
0
LINE
8
BLACK
6
CONTINUOUS
10
1.0311838582677164
20
0.4746988976377953
11
1.033058622047244
21
0.4784484251968504
0
LINE
8
BLACK
6
CONTINUOUS
10
1.033058622047244
20
0.4784484251968504
11
1.0334812992125983
21
0.4790183858267716
0
LINE
8
BLACK
6
CONTINUOUS
10
1.0334812992125983
20
0.4790183858267716
11
1.0333796062992127
21
0.479253031496063
0
LINE
8
BLACK
6
CONTINUOUS
10
1.0333796062992127
20
0.479253031496063
11
1.033058622047244
21
0.4795569291338583
0
LINE
8
BLACK
6
CONTINUOUS
10
1.033058622047244
20
0.4795569291338583
11
1.0311838582677164
21
0.4833064566929134
0
LINE
8
BLACK
6
CONTINUOUS
10
1.0311838582677164
20
0.4833064566929134
11
1.030891496062992
21
0.4842894094488189
0
LINE
8
BLACK
6
CONTINUOUS
10
1.030891496062992
20
0.4842894094488189
11
1.0309324803149607
21
0.4844611023622047
0
LINE
8
BLACK
6
CONTINUOUS
10
1.0309324803149607
20
0.4844611023622047
11
1.0308721259842519
21
0.484626968503937
0
LINE
8
BLACK
6
CONTINUOUS
10
1.0308721259842519
20
0.484626968503937
11
1.0308721259842519
21
0.4902512598425197
0
LINE
8
BLACK
6
CONTINUOUS
10
1.0308721259842519
20
0.4902512598425197
11
1.0310501968503938
21
0.4912611811023622
0
LINE
8
BLACK
6
CONTINUOUS
10
1.0310501968503938
20
0.4912611811023622
11
1.0311636614173227
21
0.4913964566929134
0
LINE
8
BLACK
6
CONTINUOUS
10
1.0311636614173227
20
0.4913964566929134
11
1.0311838582677164
21
0.4915717716535433
0
LINE
8
BLACK
6
CONTINUOUS
10
1.0311838582677164
20
0.4915717716535433
11
1.033058622047244
21
0.4953213385826771
0
LINE
8
BLACK
6
CONTINUOUS
10
1.033058622047244
20
0.4953213385826771
11
1.0336695275590551
21
0.496145
0
LINE
8
BLACK
6
CONTINUOUS
10
1.0336695275590551
20
0.496145
11
1.0340751968503936
21
0.4963208661417323
0
LINE
8
BLACK
6
CONTINUOUS
10
1.0340751968503936
20
0.4963208661417323
11
1.0343791338582677
21
0.4966418503937008
0
LINE
8
BLACK
6
CONTINUOUS
10
1.0343791338582677
20
0.4966418503937008
11
1.0381286614173229
21
0.4985166141732283
0
LINE
8
BLACK
6
CONTINUOUS
10
1.0381286614173229
20
0.4985166141732283
11
1.0391115748031496
21
0.4988089763779527
0
LINE
8
BLACK
6
CONTINUOUS
10
1.0391115748031496
20
0.4988089763779527
11
1.0392832677165353
21
0.4987679921259842
0
LINE
8
BLACK
6
CONTINUOUS
10
1.0392832677165353
20
0.4987679921259842
11
1.0394491732283464
21
0.4988283464566929
0
LINE
8
BLACK
6
CONTINUOUS
10
1.0394491732283464
20
0.4988283464566929
11
1.0600716141732283
21
0.4988283464566929
0
LINE
8
BLACK
6
CONTINUOUS
10
1.0600716141732283
20
0.4988283464566929
11
1.0610815354330709
21
0.4986502755905512
0
LINE
8
BLACK
6
CONTINUOUS
10
1.0610815354330709
20
0.5511437007874016
11
1.0626287795275591
21
0.5498453937007874
0
LINE
8
BLACK
6
CONTINUOUS
10
1.0626287795275591
20
0.5498453937007874
11
1.062979527559055
21
0.5478562598425196
0
LINE
8
BLACK
6
CONTINUOUS
10
1.062979527559055
20
0.5478562598425196
11
1.0619696062992126
21
0.5461070866141732
0
LINE
8
BLACK
6
CONTINUOUS
10
1.0619696062992126
20
0.5461070866141732
11
1.0600716141732283
21
0.5454162598425196
0
LINE
8
BLACK
6
CONTINUOUS
10
1.0600716141732283
20
0.5454162598425196
11
1.040146220472441
21
0.5454162598425196
0
LINE
8
BLACK
6
CONTINUOUS
10
1.040146220472441
20
0.5454162598425196
11
1.0379004724409449
21
0.5442934251968504
0
LINE
8
BLACK
6
CONTINUOUS
10
1.0379004724409449
20
0.5442934251968504
11
1.0367776377952755
21
0.5420476771653543
0
LINE
8
BLACK
6
CONTINUOUS
10
1.0367776377952755
20
0.5420476771653543
11
1.0367776377952755
21
0.5378174409448819
0
LINE
8
BLACK
6
CONTINUOUS
10
1.0367776377952755
20
0.5378174409448819
11
1.0379004724409449
21
0.5355717322834646
0
LINE
8
BLACK
6
CONTINUOUS
10
1.0379004724409449
20
0.5355717322834646
11
1.040146220472441
21
0.5344488582677165
0
LINE
8
BLACK
6
CONTINUOUS
10
1.040146220472441
20
0.5344488582677165
11
1.0600716141732283
21
0.5344488582677165
0
LINE
8
BLACK
6
CONTINUOUS
10
1.0600716141732283
20
0.5344488582677165
11
1.0610815354330709
21
0.5342707874015747
0
LINE
8
BLACK
6
CONTINUOUS
10
1.0610815354330709
20
0.5342707874015747
11
1.0626287795275591
21
0.5329724803149606
0
LINE
8
BLACK
6
CONTINUOUS
10
1.0626287795275591
20
0.5329724803149606
11
1.062979527559055
21
0.5309833464566929
0
LINE
8
BLACK
6
CONTINUOUS
10
1.062979527559055
20
0.5309833464566929
11
1.0619696062992126
21
0.5292341732283464
0
LINE
8
BLACK
6
CONTINUOUS
10
1.0619696062992126
20
0.5292341732283464
11
1.0600716141732283
21
0.5285433464566929
0
LINE
8
BLACK
6
CONTINUOUS
10
1.0600716141732283
20
0.5285433464566929
11
1.040146220472441
21
0.5285433464566929
0
LINE
8
BLACK
6
CONTINUOUS
10
1.040146220472441
20
0.5285433464566929
11
1.0379004724409449
21
0.5274205118110236
0
LINE
8
BLACK
6
CONTINUOUS
10
1.0379004724409449
20
0.5274205118110236
11
1.0367776377952755
21
0.5251747637795275
0
LINE
8
BLACK
6
CONTINUOUS
10
1.0367776377952755
20
0.5251747637795275
11
1.0367776377952755
21
0.5209445669291338
0
LINE
8
BLACK
6
CONTINUOUS
10
1.0367776377952755
20
0.5209445669291338
11
1.0381263779527559
21
0.5182470866141732
0
LINE
8
BLACK
6
CONTINUOUS
10
1.0381263779527559
20
0.5182470866141732
11
1.0387974803149607
21
0.5175759842519685
0
LINE
8
BLACK
6
CONTINUOUS
10
1.0387974803149607
20
0.5175759842519685
11
1.0600716141732283
21
0.5175759842519685
0
LINE
8
BLACK
6
CONTINUOUS
10
1.0600716141732283
20
0.5175759842519685
11
1.0610815354330709
21
0.5173979133858267
0
LINE
8
BLACK
6
CONTINUOUS
10
1.0610815354330709
20
0.5173979133858267
11
1.0626287795275591
21
0.5160996062992126
0
LINE
8
BLACK
6
CONTINUOUS
10
1.0626287795275591
20
0.5160996062992126
11
1.062979527559055
21
0.5141104724409449
0
LINE
8
BLACK
6
CONTINUOUS
10
1.062979527559055
20
0.5141104724409449
11
1.0619696062992126
21
0.5123612992125984
0
LINE
8
BLACK
6
CONTINUOUS
10
1.0619696062992126
20
0.5123612992125984
11
1.0600716141732283
21
0.5116704724409449
0
LINE
8
BLACK
6
CONTINUOUS
10
1.0600716141732283
20
0.5116704724409449
11
1.0338248818897637
21
0.5116704724409449
0
LINE
8
BLACK
6
CONTINUOUS
10
1.0338248818897637
20
0.5116704724409449
11
1.0328149606299213
21
0.5118485433070866
0
LINE
8
BLACK
6
CONTINUOUS
10
1.0328149606299213
20
0.5118485433070866
11
1.0312677165354331
21
0.5131468503937008
0
LINE
8
BLACK
6
CONTINUOUS
10
1.0312677165354331
20
0.5131468503937008
11
1.030916968503937
21
0.5151359842519685
0
LINE
8
BLACK
6
CONTINUOUS
10
1.030916968503937
20
0.5151359842519685
11
1.0319268897637794
21
0.5168851574803149
0
LINE
8
BLACK
6
CONTINUOUS
10
1.0319268897637794
20
0.5168851574803149
11
1.0321619685039369
21
0.516970748031496
0
LINE
8
BLACK
6
CONTINUOUS
10
1.0321619685039369
20
0.516970748031496
11
1.0311838582677164
21
0.5189270078740157
0
LINE
8
BLACK
6
CONTINUOUS
10
1.0311838582677164
20
0.5189270078740157
11
1.030891496062992
21
0.5199099606299212
0
LINE
8
BLACK
6
CONTINUOUS
10
1.030891496062992
20
0.5199099606299212
11
1.0309324803149607
21
0.520081653543307
0
LINE
8
BLACK
6
CONTINUOUS
10
1.0309324803149607
20
0.520081653543307
11
1.0308721259842519
21
0.5202475196850394
0
LINE
8
BLACK
6
CONTINUOUS
10
1.0308721259842519
20
0.5202475196850394
11
1.0308721259842519
21
0.525871811023622
0
LINE
8
BLACK
6
CONTINUOUS
10
1.0308721259842519
20
0.525871811023622
11
1.0310501968503938
21
0.5268817322834646
0
LINE
8
BLACK
6
CONTINUOUS
10
1.0310501968503938
20
0.5268817322834646
11
1.0311636614173227
21
0.5270170078740157
0
LINE
8
BLACK
6
CONTINUOUS
10
1.0311636614173227
20
0.5270170078740157
11
1.0311838582677164
21
0.5271923228346457
0
LINE
8
BLACK
6
CONTINUOUS
10
1.0311838582677164
20
0.5271923228346457
11
1.033058622047244
21
0.5309418503937008
0
LINE
8
BLACK
6
CONTINUOUS
10
1.033058622047244
20
0.5309418503937008
11
1.0334812992125983
21
0.531511811023622
0
LINE
8
BLACK
6
CONTINUOUS
10
1.0334812992125983
20
0.531511811023622
11
1.0333796062992127
21
0.5317464566929134
0
LINE
8
BLACK
6
CONTINUOUS
10
1.0333796062992127
20
0.5317464566929134
11
1.033058622047244
21
0.5320503543307087
0
LINE
8
BLACK
6
CONTINUOUS
10
1.033058622047244
20
0.5320503543307087
11
1.0311838582677164
21
0.5357998818897638
0
LINE
8
BLACK
6
CONTINUOUS
10
1.0311838582677164
20
0.5357998818897638
11
1.030891496062992
21
0.5367828346456692
0
LINE
8
BLACK
6
CONTINUOUS
10
1.030891496062992
20
0.5367828346456692
11
1.0309324803149607
21
0.5369545275590552
0
LINE
8
BLACK
6
CONTINUOUS
10
1.0309324803149607
20
0.5369545275590552
11
1.0308721259842519
21
0.5371203937007873
0
LINE
8
BLACK
6
CONTINUOUS
10
1.0308721259842519
20
0.5371203937007873
11
1.0308721259842519
21
0.54274468503937
0
LINE
8
BLACK
6
CONTINUOUS
10
1.0308721259842519
20
0.54274468503937
11
1.0310501968503938
21
0.5437546062992126
0
LINE
8
BLACK
6
CONTINUOUS
10
1.0310501968503938
20
0.5437546062992126
11
1.0311636614173227
21
0.5438898818897637
0
LINE
8
BLACK
6
CONTINUOUS
10
1.0311636614173227
20
0.5438898818897637
11
1.0311838582677164
21
0.5440651968503937
0
LINE
8
BLACK
6
CONTINUOUS
10
1.0311838582677164
20
0.5440651968503937
11
1.033058622047244
21
0.5478147637795275
0
LINE
8
BLACK
6
CONTINUOUS
10
1.033058622047244
20
0.5478147637795275
11
1.0336695275590551
21
0.5486384251968504
0
LINE
8
BLACK
6
CONTINUOUS
10
1.0336695275590551
20
0.5486384251968504
11
1.0340751968503936
21
0.5488142913385826
0
LINE
8
BLACK
6
CONTINUOUS
10
1.0340751968503936
20
0.5488142913385826
11
1.0343791338582677
21
0.5491352755905512
0
LINE
8
BLACK
6
CONTINUOUS
10
1.0343791338582677
20
0.5491352755905512
11
1.0381286614173229
21
0.5510100393700788
0
LINE
8
BLACK
6
CONTINUOUS
10
1.0381286614173229
20
0.5510100393700788
11
1.0391115748031496
21
0.5513024015748031
0
LINE
8
BLACK
6
CONTINUOUS
10
1.0391115748031496
20
0.5513024015748031
11
1.0392832677165353
21
0.5512614173228346
0
LINE
8
BLACK
6
CONTINUOUS
10
1.0392832677165353
20
0.5512614173228346
11
1.0394491732283464
21
0.5513217716535433
0
LINE
8
BLACK
6
CONTINUOUS
10
1.0394491732283464
20
0.5513217716535433
11
1.0600716141732283
21
0.5513217716535433
0
LINE
8
BLACK
6
CONTINUOUS
10
1.0600716141732283
20
0.5513217716535433
11
1.0610815354330709
21
0.5511437007874016
  0
ENDSEC
  0
EOF
