  0
SECTION
  2
HEADER
  9
$ANGBASE
  50
0.0
  9
$ANGDIR
  70
1
  9
$MEASUREMENT
  70
0
  0
ENDSEC
  0
SECTION
  2
TABLES
  0
TABLE
  2
LTYPE
  70
4
  0
LTYPE
  5
40F
  2
CONTINUOUS
  70
0
  3
Solid line
  72
65
  73
0
  40
0.0
  0
LTYPE
  5
410
  2
DASHDOT
 70
0
  3
Dash Dot ____ _ ____ _
 72
65
 73
4
 40
2.0
 49
1.25
 49
-0.25
 49
0.25
 49
-0.25
  0
LTYPE
  5
411
  2
DASHED
 70
0
  3
Dashed __ __ __ __ __
 72
65
 73
2
 40
0.75
 49
0.5
 49
-0.25
  0
LTYPE
  5
43B
  2
DOTTED
 70
0
  3
Dotted .  .  .  .
 72
65
 73
2
 40
0.2
 49
0.0
 49
-0.2
  0
ENDTAB
  0
TABLE
  2
STYLE
  70
4
  0
STYLE
  2
KICAD
  70
0
  40
0
  41
1
  42
1
  50
0
  71
0
  3
isocp.shx
  0
STYLE
  2
KICADB
  70
0
  40
0
  41
1
  42
1
  50
0
  71
0
  3
isocp.shx
  0
STYLE
  2
KICADI
  70
0
  40
0
  41
1
  42
1
  50
15
  71
0
  3
isocp.shx
  0
STYLE
  2
KICADBI
  70
0
  40
0
  41
1
  42
1
  50
15
  71
0
  3
isocp.shx
  0
ENDTAB
  0
TABLE
  2
LAYER
  70
1
  0
LAYER
  2
BLACK
  70
0
  62
7
  6
CONTINUOUS
  0
ENDTAB
  0
ENDSEC
  0
SECTION
  2
ENTITIES
0
LINE
8
BLACK
6
CONTINUOUS
10
0.57834
20
0.0498679
11
0.577764
21
0.0512598
0
LINE
8
BLACK
6
CONTINUOUS
10
0.577764
20
0.0512598
11
0.577764
21
0.10874
0
LINE
8
BLACK
6
CONTINUOUS
10
0.577764
20
0.10874
11
0.57834
21
0.110132
0
LINE
8
BLACK
6
CONTINUOUS
10
0.57834
20
0.110132
11
0.579732
21
0.110709
0
LINE
8
BLACK
6
CONTINUOUS
10
0.579732
20
0.110709
11
0.696268
21
0.110709
0
LINE
8
BLACK
6
CONTINUOUS
10
0.696268
20
0.110709
11
0.69766
21
0.110132
0
LINE
8
BLACK
6
CONTINUOUS
10
0.69766
20
0.110132
11
0.698236
21
0.10874
0
LINE
8
BLACK
6
CONTINUOUS
10
0.698236
20
0.10874
11
0.698236
21
0.0512598
0
LINE
8
BLACK
6
CONTINUOUS
10
0.698236
20
0.0512598
11
0.69766
21
0.0498679
0
LINE
8
BLACK
6
CONTINUOUS
10
0.69766
20
0.0498679
11
0.696268
21
0.0492913
0
LINE
8
BLACK
6
CONTINUOUS
10
0.696268
20
0.0492913
11
0.579732
21
0.0492913
0
LINE
8
BLACK
6
CONTINUOUS
10
0.579732
20
0.0492913
11
0.57834
21
0.0498679
0
LINE
8
BLACK
6
CONTINUOUS
10
0.581701
20
0.106772
11
0.581701
21
0.0532283
0
LINE
8
BLACK
6
CONTINUOUS
10
0.581701
20
0.0532283
11
0.694299
21
0.0532283
0
LINE
8
BLACK
6
CONTINUOUS
10
0.694299
20
0.0532283
11
0.694299
21
0.106772
0
LINE
8
BLACK
6
CONTINUOUS
10
0.694299
20
0.106772
11
0.581701
21
0.106772
0
LINE
8
BLACK
6
CONTINUOUS
10
0.74664
20
0.0686868
11
0.746063
21
0.0700787
0
LINE
8
BLACK
6
CONTINUOUS
10
0.746063
20
0.0700787
11
0.746063
21
0.441732
0
LINE
8
BLACK
6
CONTINUOUS
10
0.746063
20
0.441732
11
0.74664
21
0.443124
0
LINE
8
BLACK
6
CONTINUOUS
10
0.74664
20
0.443124
11
0.748031
21
0.443701
0
LINE
8
BLACK
6
CONTINUOUS
10
0.748031
20
0.443701
11
1
21
0.443701
0
LINE
8
BLACK
6
CONTINUOUS
10
1
20
0.443701
11
1.00139
21
0.443124
0
LINE
8
BLACK
6
CONTINUOUS
10
1.00139
20
0.443124
11
1.00197
21
0.441732
0
LINE
8
BLACK
6
CONTINUOUS
10
1.00197
20
0.441732
11
1.00197
21
0.0700787
0
LINE
8
BLACK
6
CONTINUOUS
10
1.00197
20
0.0700787
11
1.00139
21
0.0686868
0
LINE
8
BLACK
6
CONTINUOUS
10
1.00139
20
0.0686868
11
1
21
0.0681102
0
LINE
8
BLACK
6
CONTINUOUS
10
1
20
0.0681102
11
0.748031
21
0.0681102
0
LINE
8
BLACK
6
CONTINUOUS
10
0.748031
20
0.0681102
11
0.74664
21
0.0686868
0
LINE
8
BLACK
6
CONTINUOUS
10
0.75
20
0.439764
11
0.75
21
0.0720472
0
LINE
8
BLACK
6
CONTINUOUS
10
0.75
20
0.0720472
11
0.998031
21
0.0720472
0
LINE
8
BLACK
6
CONTINUOUS
10
0.998031
20
0.0720472
11
0.998031
21
0.439764
0
LINE
8
BLACK
6
CONTINUOUS
10
0.998031
20
0.439764
11
0.75
21
0.439764
0
LINE
8
BLACK
6
CONTINUOUS
10
-0.01714
20
0.0686868
11
-0.0177165
21
0.0700787
0
LINE
8
BLACK
6
CONTINUOUS
10
-0.0177165
20
0.0700787
11
-0.0177165
21
0.441732
0
LINE
8
BLACK
6
CONTINUOUS
10
-0.0177165
20
0.441732
11
-0.01714
21
0.443124
0
LINE
8
BLACK
6
CONTINUOUS
10
-0.01714
20
0.443124
11
-0.015748
21
0.443701
0
LINE
8
BLACK
6
CONTINUOUS
10
-0.015748
20
0.443701
11
0.23622
21
0.443701
0
LINE
8
BLACK
6
CONTINUOUS
10
0.23622
20
0.443701
11
0.237612
21
0.443124
0
LINE
8
BLACK
6
CONTINUOUS
10
0.237612
20
0.443124
11
0.238189
21
0.441732
0
LINE
8
BLACK
6
CONTINUOUS
10
0.238189
20
0.441732
11
0.238189
21
0.0700787
0
LINE
8
BLACK
6
CONTINUOUS
10
0.238189
20
0.0700787
11
0.237612
21
0.0686868
0
LINE
8
BLACK
6
CONTINUOUS
10
0.237612
20
0.0686868
11
0.23622
21
0.0681102
0
LINE
8
BLACK
6
CONTINUOUS
10
0.23622
20
0.0681102
11
-0.015748
21
0.0681102
0
LINE
8
BLACK
6
CONTINUOUS
10
-0.015748
20
0.0681102
11
-0.01714
21
0.0686868
0
LINE
8
BLACK
6
CONTINUOUS
10
-0.0137795
20
0.439764
11
-0.0137795
21
0.0720472
0
LINE
8
BLACK
6
CONTINUOUS
10
-0.0137795
20
0.0720472
11
0.234252
21
0.0720472
0
LINE
8
BLACK
6
CONTINUOUS
10
0.234252
20
0.0720472
11
0.234252
21
0.439764
0
LINE
8
BLACK
6
CONTINUOUS
10
0.234252
20
0.439764
11
-0.0137795
21
0.439764
0
LINE
8
BLACK
6
CONTINUOUS
10
0.324025
20
0.0696789
11
0.323449
21
0.0710709
0
LINE
8
BLACK
6
CONTINUOUS
10
0.323449
20
0.0710709
11
0.323449
21
0.204929
0
LINE
8
BLACK
6
CONTINUOUS
10
0.323449
20
0.204929
11
0.324025
21
0.206321
0
LINE
8
BLACK
6
CONTINUOUS
10
0.324025
20
0.206321
11
0.325417
21
0.206898
0
LINE
8
BLACK
6
CONTINUOUS
10
0.325417
20
0.206898
11
0.402583
21
0.206898
0
LINE
8
BLACK
6
CONTINUOUS
10
0.402583
20
0.206898
11
0.403975
21
0.206321
0
LINE
8
BLACK
6
CONTINUOUS
10
0.403975
20
0.206321
11
0.404551
21
0.204929
0
LINE
8
BLACK
6
CONTINUOUS
10
0.404551
20
0.204929
11
0.404551
21
0.0710709
0
LINE
8
BLACK
6
CONTINUOUS
10
0.404551
20
0.0710709
11
0.403975
21
0.0696789
0
LINE
8
BLACK
6
CONTINUOUS
10
0.403975
20
0.0696789
11
0.402583
21
0.0691024
0
LINE
8
BLACK
6
CONTINUOUS
10
0.402583
20
0.0691024
11
0.325417
21
0.0691024
0
LINE
8
BLACK
6
CONTINUOUS
10
0.325417
20
0.0691024
11
0.324025
21
0.0696789
0
LINE
8
BLACK
6
CONTINUOUS
10
0.327386
20
0.202961
11
0.327386
21
0.0730394
0
LINE
8
BLACK
6
CONTINUOUS
10
0.327386
20
0.0730394
11
0.400614
21
0.0730394
0
LINE
8
BLACK
6
CONTINUOUS
10
0.400614
20
0.0730394
11
0.400614
21
0.202961
0
LINE
8
BLACK
6
CONTINUOUS
10
0.400614
20
0.202961
11
0.327386
21
0.202961
0
LINE
8
BLACK
6
CONTINUOUS
10
0.423679
20
0.0978994
11
0.423102
21
0.0992913
0
LINE
8
BLACK
6
CONTINUOUS
10
0.423102
20
0.0992913
11
0.423102
21
0.260709
0
LINE
8
BLACK
6
CONTINUOUS
10
0.423102
20
0.260709
11
0.423679
21
0.262101
0
LINE
8
BLACK
6
CONTINUOUS
10
0.423679
20
0.262101
11
0.425071
21
0.262677
0
LINE
8
BLACK
6
CONTINUOUS
10
0.425071
20
0.262677
11
0.558929
21
0.262677
0
LINE
8
BLACK
6
CONTINUOUS
10
0.558929
20
0.262677
11
0.560321
21
0.262101
0
LINE
8
BLACK
6
CONTINUOUS
10
0.560321
20
0.262101
11
0.560898
21
0.260709
0
LINE
8
BLACK
6
CONTINUOUS
10
0.560898
20
0.260709
11
0.560898
21
0.0992913
0
LINE
8
BLACK
6
CONTINUOUS
10
0.560898
20
0.0992913
11
0.560321
21
0.0978994
0
LINE
8
BLACK
6
CONTINUOUS
10
0.560321
20
0.0978994
11
0.558929
21
0.0973228
0
LINE
8
BLACK
6
CONTINUOUS
10
0.558929
20
0.0973228
11
0.425071
21
0.0973228
0
LINE
8
BLACK
6
CONTINUOUS
10
0.425071
20
0.0973228
11
0.423679
21
0.0978994
0
LINE
8
BLACK
6
CONTINUOUS
10
0.427039
20
0.25874
11
0.427039
21
0.10126
0
LINE
8
BLACK
6
CONTINUOUS
10
0.427039
20
0.10126
11
0.556961
21
0.10126
0
LINE
8
BLACK
6
CONTINUOUS
10
0.556961
20
0.10126
11
0.556961
21
0.25874
0
LINE
8
BLACK
6
CONTINUOUS
10
0.556961
20
0.25874
11
0.427039
21
0.25874
0
LINE
8
BLACK
6
CONTINUOUS
10
0.251049
20
0.103395
11
0.250472
21
0.104787
0
LINE
8
BLACK
6
CONTINUOUS
10
0.250472
20
0.104787
11
0.250472
21
0.203213
0
LINE
8
BLACK
6
CONTINUOUS
10
0.250472
20
0.203213
11
0.251049
21
0.204605
0
LINE
8
BLACK
6
CONTINUOUS
10
0.251049
20
0.204605
11
0.252441
21
0.205181
0
LINE
8
BLACK
6
CONTINUOUS
10
0.252441
20
0.205181
11
0.307559
21
0.205181
0
LINE
8
BLACK
6
CONTINUOUS
10
0.307559
20
0.205181
11
0.308951
21
0.204605
0
LINE
8
BLACK
6
CONTINUOUS
10
0.308951
20
0.204605
11
0.309528
21
0.203213
0
LINE
8
BLACK
6
CONTINUOUS
10
0.309528
20
0.203213
11
0.309528
21
0.104787
0
LINE
8
BLACK
6
CONTINUOUS
10
0.309528
20
0.104787
11
0.308951
21
0.103395
0
LINE
8
BLACK
6
CONTINUOUS
10
0.308951
20
0.103395
11
0.307559
21
0.102819
0
LINE
8
BLACK
6
CONTINUOUS
10
0.307559
20
0.102819
11
0.252441
21
0.102819
0
LINE
8
BLACK
6
CONTINUOUS
10
0.252441
20
0.102819
11
0.251049
21
0.103395
0
LINE
8
BLACK
6
CONTINUOUS
10
0.254409
20
0.201244
11
0.254409
21
0.106756
0
LINE
8
BLACK
6
CONTINUOUS
10
0.254409
20
0.106756
11
0.305591
21
0.106756
0
LINE
8
BLACK
6
CONTINUOUS
10
0.305591
20
0.106756
11
0.305591
21
0.201244
0
LINE
8
BLACK
6
CONTINUOUS
10
0.305591
20
0.201244
11
0.254409
21
0.201244
0
LINE
8
BLACK
6
CONTINUOUS
10
0.57834
20
0.115301
11
0.577764
21
0.116693
0
LINE
8
BLACK
6
CONTINUOUS
10
0.577764
20
0.116693
11
0.577764
21
0.174173
0
LINE
8
BLACK
6
CONTINUOUS
10
0.577764
20
0.174173
11
0.57834
21
0.175565
0
LINE
8
BLACK
6
CONTINUOUS
10
0.57834
20
0.175565
11
0.579732
21
0.176142
0
LINE
8
BLACK
6
CONTINUOUS
10
0.579732
20
0.176142
11
0.696268
21
0.176142
0
LINE
8
BLACK
6
CONTINUOUS
10
0.696268
20
0.176142
11
0.69766
21
0.175565
0
LINE
8
BLACK
6
CONTINUOUS
10
0.69766
20
0.175565
11
0.698236
21
0.174173
0
LINE
8
BLACK
6
CONTINUOUS
10
0.698236
20
0.174173
11
0.698236
21
0.116693
0
LINE
8
BLACK
6
CONTINUOUS
10
0.698236
20
0.116693
11
0.69766
21
0.115301
0
LINE
8
BLACK
6
CONTINUOUS
10
0.69766
20
0.115301
11
0.696268
21
0.114724
0
LINE
8
BLACK
6
CONTINUOUS
10
0.696268
20
0.114724
11
0.579732
21
0.114724
0
LINE
8
BLACK
6
CONTINUOUS
10
0.579732
20
0.114724
11
0.57834
21
0.115301
0
LINE
8
BLACK
6
CONTINUOUS
10
0.581701
20
0.172205
11
0.581701
21
0.118661
0
LINE
8
BLACK
6
CONTINUOUS
10
0.581701
20
0.118661
11
0.694299
21
0.118661
0
LINE
8
BLACK
6
CONTINUOUS
10
0.694299
20
0.118661
11
0.694299
21
0.172205
0
LINE
8
BLACK
6
CONTINUOUS
10
0.694299
20
0.172205
11
0.581701
21
0.172205
0
LINE
8
BLACK
6
CONTINUOUS
10
0.603868
20
0.19386
11
0.603291
21
0.195252
0
LINE
8
BLACK
6
CONTINUOUS
10
0.603291
20
0.195252
11
0.603291
21
0.311787
0
LINE
8
BLACK
6
CONTINUOUS
10
0.603291
20
0.311787
11
0.603868
21
0.313179
0
LINE
8
BLACK
6
CONTINUOUS
10
0.603868
20
0.313179
11
0.60526
21
0.313756
0
LINE
8
BLACK
6
CONTINUOUS
10
0.60526
20
0.313756
11
0.66274
21
0.313756
0
LINE
8
BLACK
6
CONTINUOUS
10
0.66274
20
0.313756
11
0.664132
21
0.313179
0
LINE
8
BLACK
6
CONTINUOUS
10
0.664132
20
0.313179
11
0.664709
21
0.311787
0
LINE
8
BLACK
6
CONTINUOUS
10
0.664709
20
0.311787
11
0.664709
21
0.195252
0
LINE
8
BLACK
6
CONTINUOUS
10
0.664709
20
0.195252
11
0.664132
21
0.19386
0
LINE
8
BLACK
6
CONTINUOUS
10
0.664132
20
0.19386
11
0.66274
21
0.193283
0
LINE
8
BLACK
6
CONTINUOUS
10
0.66274
20
0.193283
11
0.60526
21
0.193283
0
LINE
8
BLACK
6
CONTINUOUS
10
0.60526
20
0.193283
11
0.603868
21
0.19386
0
LINE
8
BLACK
6
CONTINUOUS
10
0.607228
20
0.309819
11
0.607228
21
0.19722
0
LINE
8
BLACK
6
CONTINUOUS
10
0.607228
20
0.19722
11
0.660772
21
0.19722
0
LINE
8
BLACK
6
CONTINUOUS
10
0.660772
20
0.19722
11
0.660772
21
0.309819
0
LINE
8
BLACK
6
CONTINUOUS
10
0.660772
20
0.309819
11
0.607228
21
0.309819
0
LINE
8
BLACK
6
CONTINUOUS
10
0.673868
20
0.194821
11
0.673291
21
0.196213
0
LINE
8
BLACK
6
CONTINUOUS
10
0.673291
20
0.196213
11
0.673291
21
0.312748
0
LINE
8
BLACK
6
CONTINUOUS
10
0.673291
20
0.312748
11
0.673868
21
0.31414
0
LINE
8
BLACK
6
CONTINUOUS
10
0.673868
20
0.31414
11
0.67526
21
0.314717
0
LINE
8
BLACK
6
CONTINUOUS
10
0.67526
20
0.314717
11
0.73274
21
0.314717
0
LINE
8
BLACK
6
CONTINUOUS
10
0.73274
20
0.314717
11
0.734132
21
0.31414
0
LINE
8
BLACK
6
CONTINUOUS
10
0.734132
20
0.31414
11
0.734709
21
0.312748
0
LINE
8
BLACK
6
CONTINUOUS
10
0.734709
20
0.312748
11
0.734709
21
0.196213
0
LINE
8
BLACK
6
CONTINUOUS
10
0.734709
20
0.196213
11
0.734132
21
0.194821
0
LINE
8
BLACK
6
CONTINUOUS
10
0.734132
20
0.194821
11
0.73274
21
0.194244
0
LINE
8
BLACK
6
CONTINUOUS
10
0.73274
20
0.194244
11
0.67526
21
0.194244
0
LINE
8
BLACK
6
CONTINUOUS
10
0.67526
20
0.194244
11
0.673868
21
0.194821
0
LINE
8
BLACK
6
CONTINUOUS
10
0.677228
20
0.31078
11
0.677228
21
0.198181
0
LINE
8
BLACK
6
CONTINUOUS
10
0.677228
20
0.198181
11
0.730772
21
0.198181
0
LINE
8
BLACK
6
CONTINUOUS
10
0.730772
20
0.198181
11
0.730772
21
0.31078
0
LINE
8
BLACK
6
CONTINUOUS
10
0.730772
20
0.31078
11
0.677228
21
0.31078
0
LINE
8
BLACK
6
CONTINUOUS
10
0.284829
20
0.215931
11
0.284252
21
0.217323
0
LINE
8
BLACK
6
CONTINUOUS
10
0.284252
20
0.217323
11
0.284252
21
0.333858
0
LINE
8
BLACK
6
CONTINUOUS
10
0.284252
20
0.333858
11
0.284829
21
0.33525
0
LINE
8
BLACK
6
CONTINUOUS
10
0.284829
20
0.33525
11
0.28622
21
0.335827
0
LINE
8
BLACK
6
CONTINUOUS
10
0.28622
20
0.335827
11
0.343701
21
0.335827
0
LINE
8
BLACK
6
CONTINUOUS
10
0.343701
20
0.335827
11
0.345093
21
0.33525
0
LINE
8
BLACK
6
CONTINUOUS
10
0.345093
20
0.33525
11
0.345669
21
0.333858
0
LINE
8
BLACK
6
CONTINUOUS
10
0.345669
20
0.333858
11
0.345669
21
0.217323
0
LINE
8
BLACK
6
CONTINUOUS
10
0.345669
20
0.217323
11
0.345093
21
0.215931
0
LINE
8
BLACK
6
CONTINUOUS
10
0.345093
20
0.215931
11
0.343701
21
0.215354
0
LINE
8
BLACK
6
CONTINUOUS
10
0.343701
20
0.215354
11
0.28622
21
0.215354
0
LINE
8
BLACK
6
CONTINUOUS
10
0.28622
20
0.215354
11
0.284829
21
0.215931
0
LINE
8
BLACK
6
CONTINUOUS
10
0.288189
20
0.33189
11
0.288189
21
0.219291
0
LINE
8
BLACK
6
CONTINUOUS
10
0.288189
20
0.219291
11
0.341732
21
0.219291
0
LINE
8
BLACK
6
CONTINUOUS
10
0.341732
20
0.219291
11
0.341732
21
0.33189
0
LINE
8
BLACK
6
CONTINUOUS
10
0.341732
20
0.33189
11
0.288189
21
0.33189
0
LINE
8
BLACK
6
CONTINUOUS
10
0.355868
20
0.21834
11
0.355291
21
0.219732
0
LINE
8
BLACK
6
CONTINUOUS
10
0.355291
20
0.219732
11
0.355291
21
0.336268
0
LINE
8
BLACK
6
CONTINUOUS
10
0.355291
20
0.336268
11
0.355868
21
0.33766
0
LINE
8
BLACK
6
CONTINUOUS
10
0.355868
20
0.33766
11
0.35726
21
0.338236
0
LINE
8
BLACK
6
CONTINUOUS
10
0.35726
20
0.338236
11
0.41474
21
0.338236
0
LINE
8
BLACK
6
CONTINUOUS
10
0.41474
20
0.338236
11
0.416132
21
0.33766
0
LINE
8
BLACK
6
CONTINUOUS
10
0.416132
20
0.33766
11
0.416709
21
0.336268
0
LINE
8
BLACK
6
CONTINUOUS
10
0.416709
20
0.336268
11
0.416709
21
0.219732
0
LINE
8
BLACK
6
CONTINUOUS
10
0.416709
20
0.219732
11
0.416132
21
0.21834
0
LINE
8
BLACK
6
CONTINUOUS
10
0.416132
20
0.21834
11
0.41474
21
0.217764
0
LINE
8
BLACK
6
CONTINUOUS
10
0.41474
20
0.217764
11
0.35726
21
0.217764
0
LINE
8
BLACK
6
CONTINUOUS
10
0.35726
20
0.217764
11
0.355868
21
0.21834
0
LINE
8
BLACK
6
CONTINUOUS
10
0.359228
20
0.334299
11
0.359228
21
0.221701
0
LINE
8
BLACK
6
CONTINUOUS
10
0.359228
20
0.221701
11
0.412772
21
0.221701
0
LINE
8
BLACK
6
CONTINUOUS
10
0.412772
20
0.221701
11
0.412772
21
0.334299
0
LINE
8
BLACK
6
CONTINUOUS
10
0.412772
20
0.334299
11
0.359228
21
0.334299
0
LINE
8
BLACK
6
CONTINUOUS
10
0.665709
20
0.440748
11
0.665709
21
0.324213
0
LINE
8
BLACK
6
CONTINUOUS
10
0.665709
20
0.324213
11
0.665132
21
0.322821
0
LINE
8
BLACK
6
CONTINUOUS
10
0.665132
20
0.322821
11
0.66374
21
0.322244
0
LINE
8
BLACK
6
CONTINUOUS
10
0.66374
20
0.322244
11
0.60626
21
0.322244
0
LINE
8
BLACK
6
CONTINUOUS
10
0.60626
20
0.322244
11
0.604868
21
0.322821
0
LINE
8
BLACK
6
CONTINUOUS
10
0.604868
20
0.322821
11
0.604291
21
0.324213
0
LINE
8
BLACK
6
CONTINUOUS
10
0.604291
20
0.324213
11
0.604291
21
0.427165
0
LINE
8
BLACK
6
CONTINUOUS
10
0.604291
20
0.427165
11
0.603754
21
0.425868
0
LINE
8
BLACK
6
CONTINUOUS
10
0.603754
20
0.425868
11
0.602362
21
0.425291
0
LINE
8
BLACK
6
CONTINUOUS
10
0.602362
20
0.425291
11
0.38189
21
0.425291
0
LINE
8
BLACK
6
CONTINUOUS
10
0.38189
20
0.425291
11
0.380498
21
0.425868
0
LINE
8
BLACK
6
CONTINUOUS
10
0.380498
20
0.425868
11
0.379921
21
0.42726
0
LINE
8
BLACK
6
CONTINUOUS
10
0.379921
20
0.42726
11
0.379921
21
0.58474
0
LINE
8
BLACK
6
CONTINUOUS
10
0.379921
20
0.58474
11
0.380498
21
0.586132
0
LINE
8
BLACK
6
CONTINUOUS
10
0.380498
20
0.586132
11
0.38189
21
0.586709
0
LINE
8
BLACK
6
CONTINUOUS
10
0.38189
20
0.586709
11
0.602362
21
0.586709
0
LINE
8
BLACK
6
CONTINUOUS
10
0.602362
20
0.586709
11
0.603754
21
0.586132
0
LINE
8
BLACK
6
CONTINUOUS
10
0.603754
20
0.586132
11
0.604331
21
0.58474
0
LINE
8
BLACK
6
CONTINUOUS
10
0.604331
20
0.58474
11
0.604331
21
0.440843
0
LINE
8
BLACK
6
CONTINUOUS
10
0.604331
20
0.440843
11
0.604868
21
0.44214
0
LINE
8
BLACK
6
CONTINUOUS
10
0.604868
20
0.44214
11
0.60626
21
0.442717
0
LINE
8
BLACK
6
CONTINUOUS
10
0.60626
20
0.442717
11
0.66374
21
0.442717
0
LINE
8
BLACK
6
CONTINUOUS
10
0.66374
20
0.442717
11
0.665132
21
0.44214
0
LINE
8
BLACK
6
CONTINUOUS
10
0.665132
20
0.44214
11
0.665709
21
0.440748
0
LINE
8
BLACK
6
CONTINUOUS
10
0.608228
20
0.43878
11
0.608228
21
0.326181
0
LINE
8
BLACK
6
CONTINUOUS
10
0.608228
20
0.326181
11
0.661772
21
0.326181
0
LINE
8
BLACK
6
CONTINUOUS
10
0.661772
20
0.326181
11
0.661772
21
0.43878
0
LINE
8
BLACK
6
CONTINUOUS
10
0.661772
20
0.43878
11
0.608228
21
0.43878
0
LINE
8
BLACK
6
CONTINUOUS
10
0.383858
20
0.582772
11
0.383858
21
0.429228
0
LINE
8
BLACK
6
CONTINUOUS
10
0.383858
20
0.429228
11
0.600394
21
0.429228
0
LINE
8
BLACK
6
CONTINUOUS
10
0.600394
20
0.429228
11
0.600394
21
0.582772
0
LINE
8
BLACK
6
CONTINUOUS
10
0.600394
20
0.582772
11
0.383858
21
0.582772
0
LINE
8
BLACK
6
CONTINUOUS
10
0.674868
20
0.322821
11
0.674291
21
0.324213
0
LINE
8
BLACK
6
CONTINUOUS
10
0.674291
20
0.324213
11
0.674291
21
0.440748
0
LINE
8
BLACK
6
CONTINUOUS
10
0.674291
20
0.440748
11
0.674868
21
0.44214
0
LINE
8
BLACK
6
CONTINUOUS
10
0.674868
20
0.44214
11
0.67626
21
0.442717
0
LINE
8
BLACK
6
CONTINUOUS
10
0.67626
20
0.442717
11
0.73374
21
0.442717
0
LINE
8
BLACK
6
CONTINUOUS
10
0.73374
20
0.442717
11
0.735132
21
0.44214
0
LINE
8
BLACK
6
CONTINUOUS
10
0.735132
20
0.44214
11
0.735709
21
0.440748
0
LINE
8
BLACK
6
CONTINUOUS
10
0.735709
20
0.440748
11
0.735709
21
0.324213
0
LINE
8
BLACK
6
CONTINUOUS
10
0.735709
20
0.324213
11
0.735132
21
0.322821
0
LINE
8
BLACK
6
CONTINUOUS
10
0.735132
20
0.322821
11
0.73374
21
0.322244
0
LINE
8
BLACK
6
CONTINUOUS
10
0.73374
20
0.322244
11
0.67626
21
0.322244
0
LINE
8
BLACK
6
CONTINUOUS
10
0.67626
20
0.322244
11
0.674868
21
0.322821
0
LINE
8
BLACK
6
CONTINUOUS
10
0.678228
20
0.43878
11
0.678228
21
0.326181
0
LINE
8
BLACK
6
CONTINUOUS
10
0.678228
20
0.326181
11
0.731772
21
0.326181
0
LINE
8
BLACK
6
CONTINUOUS
10
0.731772
20
0.326181
11
0.731772
21
0.43878
0
LINE
8
BLACK
6
CONTINUOUS
10
0.731772
20
0.43878
11
0.678228
21
0.43878
0
LINE
8
BLACK
6
CONTINUOUS
10
0.309868
20
0.38234
11
0.309291
21
0.383732
0
LINE
8
BLACK
6
CONTINUOUS
10
0.309291
20
0.383732
11
0.309291
21
0.500268
0
LINE
8
BLACK
6
CONTINUOUS
10
0.309291
20
0.500268
11
0.309868
21
0.50166
0
LINE
8
BLACK
6
CONTINUOUS
10
0.309868
20
0.50166
11
0.31126
21
0.502236
0
LINE
8
BLACK
6
CONTINUOUS
10
0.31126
20
0.502236
11
0.36874
21
0.502236
0
LINE
8
BLACK
6
CONTINUOUS
10
0.36874
20
0.502236
11
0.370132
21
0.50166
0
LINE
8
BLACK
6
CONTINUOUS
10
0.370132
20
0.50166
11
0.370709
21
0.500268
0
LINE
8
BLACK
6
CONTINUOUS
10
0.370709
20
0.500268
11
0.370709
21
0.383732
0
LINE
8
BLACK
6
CONTINUOUS
10
0.370709
20
0.383732
11
0.370132
21
0.38234
0
LINE
8
BLACK
6
CONTINUOUS
10
0.370132
20
0.38234
11
0.36874
21
0.381764
0
LINE
8
BLACK
6
CONTINUOUS
10
0.36874
20
0.381764
11
0.31126
21
0.381764
0
LINE
8
BLACK
6
CONTINUOUS
10
0.31126
20
0.381764
11
0.309868
21
0.38234
0
LINE
8
BLACK
6
CONTINUOUS
10
0.313228
20
0.498299
11
0.313228
21
0.385701
0
LINE
8
BLACK
6
CONTINUOUS
10
0.313228
20
0.385701
11
0.366772
21
0.385701
0
LINE
8
BLACK
6
CONTINUOUS
10
0.366772
20
0.385701
11
0.366772
21
0.498299
0
LINE
8
BLACK
6
CONTINUOUS
10
0.366772
20
0.498299
11
0.313228
21
0.498299
0
LINE
8
BLACK
6
CONTINUOUS
10
-0.01714
20
0.462388
11
-0.0177165
21
0.46378
0
LINE
8
BLACK
6
CONTINUOUS
10
-0.0177165
20
0.46378
11
-0.0177165
21
0.835433
0
LINE
8
BLACK
6
CONTINUOUS
10
-0.0177165
20
0.835433
11
-0.01714
21
0.836825
0
LINE
8
BLACK
6
CONTINUOUS
10
-0.01714
20
0.836825
11
-0.015748
21
0.837402
0
LINE
8
BLACK
6
CONTINUOUS
10
-0.015748
20
0.837402
11
0.23622
21
0.837402
0
LINE
8
BLACK
6
CONTINUOUS
10
0.23622
20
0.837402
11
0.237612
21
0.836825
0
LINE
8
BLACK
6
CONTINUOUS
10
0.237612
20
0.836825
11
0.238189
21
0.835433
0
LINE
8
BLACK
6
CONTINUOUS
10
0.238189
20
0.835433
11
0.238189
21
0.46378
0
LINE
8
BLACK
6
CONTINUOUS
10
0.238189
20
0.46378
11
0.237612
21
0.462388
0
LINE
8
BLACK
6
CONTINUOUS
10
0.237612
20
0.462388
11
0.23622
21
0.461811
0
LINE
8
BLACK
6
CONTINUOUS
10
0.23622
20
0.461811
11
-0.015748
21
0.461811
0
LINE
8
BLACK
6
CONTINUOUS
10
-0.015748
20
0.461811
11
-0.01714
21
0.462388
0
LINE
8
BLACK
6
CONTINUOUS
10
-0.0137795
20
0.833465
11
-0.0137795
21
0.465748
0
LINE
8
BLACK
6
CONTINUOUS
10
-0.0137795
20
0.465748
11
0.234252
21
0.465748
0
LINE
8
BLACK
6
CONTINUOUS
10
0.234252
20
0.465748
11
0.234252
21
0.833465
0
LINE
8
BLACK
6
CONTINUOUS
10
0.234252
20
0.833465
11
-0.0137795
21
0.833465
0
LINE
8
BLACK
6
CONTINUOUS
10
0.74664
20
0.462388
11
0.746063
21
0.46378
0
LINE
8
BLACK
6
CONTINUOUS
10
0.746063
20
0.46378
11
0.746063
21
0.835433
0
LINE
8
BLACK
6
CONTINUOUS
10
0.746063
20
0.835433
11
0.74664
21
0.836825
0
LINE
8
BLACK
6
CONTINUOUS
10
0.74664
20
0.836825
11
0.748031
21
0.837402
0
LINE
8
BLACK
6
CONTINUOUS
10
0.748031
20
0.837402
11
1
21
0.837402
0
LINE
8
BLACK
6
CONTINUOUS
10
1
20
0.837402
11
1.00139
21
0.836825
0
LINE
8
BLACK
6
CONTINUOUS
10
1.00139
20
0.836825
11
1.00197
21
0.835433
0
LINE
8
BLACK
6
CONTINUOUS
10
1.00197
20
0.835433
11
1.00197
21
0.46378
0
LINE
8
BLACK
6
CONTINUOUS
10
1.00197
20
0.46378
11
1.00139
21
0.462388
0
LINE
8
BLACK
6
CONTINUOUS
10
1.00139
20
0.462388
11
1
21
0.461811
0
LINE
8
BLACK
6
CONTINUOUS
10
1
20
0.461811
11
0.748031
21
0.461811
0
LINE
8
BLACK
6
CONTINUOUS
10
0.748031
20
0.461811
11
0.74664
21
0.462388
0
LINE
8
BLACK
6
CONTINUOUS
10
0.75
20
0.833465
11
0.75
21
0.465748
0
LINE
8
BLACK
6
CONTINUOUS
10
0.75
20
0.465748
11
0.998031
21
0.465748
0
LINE
8
BLACK
6
CONTINUOUS
10
0.998031
20
0.465748
11
0.998031
21
0.833465
0
LINE
8
BLACK
6
CONTINUOUS
10
0.998031
20
0.833465
11
0.75
21
0.833465
0
LINE
8
BLACK
6
CONTINUOUS
10
0.614868
20
0.464829
11
0.614291
21
0.46622
0
LINE
8
BLACK
6
CONTINUOUS
10
0.614291
20
0.46622
11
0.614291
21
0.582756
0
LINE
8
BLACK
6
CONTINUOUS
10
0.614291
20
0.582756
11
0.614868
21
0.584148
0
LINE
8
BLACK
6
CONTINUOUS
10
0.614868
20
0.584148
11
0.61626
21
0.584724
0
LINE
8
BLACK
6
CONTINUOUS
10
0.61626
20
0.584724
11
0.67374
21
0.584724
0
LINE
8
BLACK
6
CONTINUOUS
10
0.67374
20
0.584724
11
0.675132
21
0.584148
0
LINE
8
BLACK
6
CONTINUOUS
10
0.675132
20
0.584148
11
0.675709
21
0.582756
0
LINE
8
BLACK
6
CONTINUOUS
10
0.675709
20
0.582756
11
0.675709
21
0.46622
0
LINE
8
BLACK
6
CONTINUOUS
10
0.675709
20
0.46622
11
0.675132
21
0.464829
0
LINE
8
BLACK
6
CONTINUOUS
10
0.675132
20
0.464829
11
0.67374
21
0.464252
0
LINE
8
BLACK
6
CONTINUOUS
10
0.67374
20
0.464252
11
0.61626
21
0.464252
0
LINE
8
BLACK
6
CONTINUOUS
10
0.61626
20
0.464252
11
0.614868
21
0.464829
0
LINE
8
BLACK
6
CONTINUOUS
10
0.618228
20
0.580787
11
0.618228
21
0.468189
0
LINE
8
BLACK
6
CONTINUOUS
10
0.618228
20
0.468189
11
0.671772
21
0.468189
0
LINE
8
BLACK
6
CONTINUOUS
10
0.671772
20
0.468189
11
0.671772
21
0.580787
0
LINE
8
BLACK
6
CONTINUOUS
10
0.671772
20
0.580787
11
0.618228
21
0.580787
0
LINE
8
BLACK
6
CONTINUOUS
10
0.25186
20
0.511868
11
0.251283
21
0.51326
0
LINE
8
BLACK
6
CONTINUOUS
10
0.251283
20
0.51326
11
0.251283
21
0.57074
0
LINE
8
BLACK
6
CONTINUOUS
10
0.251283
20
0.57074
11
0.25186
21
0.572132
0
LINE
8
BLACK
6
CONTINUOUS
10
0.25186
20
0.572132
11
0.253252
21
0.572709
0
LINE
8
BLACK
6
CONTINUOUS
10
0.253252
20
0.572709
11
0.369787
21
0.572709
0
LINE
8
BLACK
6
CONTINUOUS
10
0.369787
20
0.572709
11
0.371179
21
0.572132
0
LINE
8
BLACK
6
CONTINUOUS
10
0.371179
20
0.572132
11
0.371756
21
0.57074
0
LINE
8
BLACK
6
CONTINUOUS
10
0.371756
20
0.57074
11
0.371756
21
0.51326
0
LINE
8
BLACK
6
CONTINUOUS
10
0.371756
20
0.51326
11
0.371179
21
0.511868
0
LINE
8
BLACK
6
CONTINUOUS
10
0.371179
20
0.511868
11
0.369787
21
0.511291
0
LINE
8
BLACK
6
CONTINUOUS
10
0.369787
20
0.511291
11
0.253252
21
0.511291
0
LINE
8
BLACK
6
CONTINUOUS
10
0.253252
20
0.511291
11
0.25186
21
0.511868
0
LINE
8
BLACK
6
CONTINUOUS
10
0.25522
20
0.568772
11
0.25522
21
0.515228
0
LINE
8
BLACK
6
CONTINUOUS
10
0.25522
20
0.515228
11
0.367819
21
0.515228
0
LINE
8
BLACK
6
CONTINUOUS
10
0.367819
20
0.515228
11
0.367819
21
0.568772
0
LINE
8
BLACK
6
CONTINUOUS
10
0.367819
20
0.568772
11
0.25522
21
0.568772
0
LINE
8
BLACK
6
CONTINUOUS
10
0.284829
20
0.590821
11
0.284252
21
0.592213
0
LINE
8
BLACK
6
CONTINUOUS
10
0.284252
20
0.592213
11
0.284252
21
0.708748
0
LINE
8
BLACK
6
CONTINUOUS
10
0.284252
20
0.708748
11
0.284829
21
0.71014
0
LINE
8
BLACK
6
CONTINUOUS
10
0.284829
20
0.71014
11
0.28622
21
0.710717
0
LINE
8
BLACK
6
CONTINUOUS
10
0.28622
20
0.710717
11
0.343701
21
0.710717
0
LINE
8
BLACK
6
CONTINUOUS
10
0.343701
20
0.710717
11
0.345093
21
0.71014
0
LINE
8
BLACK
6
CONTINUOUS
10
0.345093
20
0.71014
11
0.345669
21
0.708748
0
LINE
8
BLACK
6
CONTINUOUS
10
0.345669
20
0.708748
11
0.345669
21
0.592213
0
LINE
8
BLACK
6
CONTINUOUS
10
0.345669
20
0.592213
11
0.345093
21
0.590821
0
LINE
8
BLACK
6
CONTINUOUS
10
0.345093
20
0.590821
11
0.343701
21
0.590244
0
LINE
8
BLACK
6
CONTINUOUS
10
0.343701
20
0.590244
11
0.28622
21
0.590244
0
LINE
8
BLACK
6
CONTINUOUS
10
0.28622
20
0.590244
11
0.284829
21
0.590821
0
LINE
8
BLACK
6
CONTINUOUS
10
0.288189
20
0.70678
11
0.288189
21
0.594181
0
LINE
8
BLACK
6
CONTINUOUS
10
0.288189
20
0.594181
11
0.341732
21
0.594181
0
LINE
8
BLACK
6
CONTINUOUS
10
0.341732
20
0.594181
11
0.341732
21
0.70678
0
LINE
8
BLACK
6
CONTINUOUS
10
0.341732
20
0.70678
11
0.288189
21
0.70678
0
LINE
8
BLACK
6
CONTINUOUS
10
0.639159
20
0.59234
11
0.638583
21
0.593732
0
LINE
8
BLACK
6
CONTINUOUS
10
0.638583
20
0.593732
11
0.638583
21
0.710268
0
LINE
8
BLACK
6
CONTINUOUS
10
0.638583
20
0.710268
11
0.639159
21
0.71166
0
LINE
8
BLACK
6
CONTINUOUS
10
0.639159
20
0.71166
11
0.640551
21
0.712236
0
LINE
8
BLACK
6
CONTINUOUS
10
0.640551
20
0.712236
11
0.698031
21
0.712236
0
LINE
8
BLACK
6
CONTINUOUS
10
0.698031
20
0.712236
11
0.699423
21
0.71166
0
LINE
8
BLACK
6
CONTINUOUS
10
0.699423
20
0.71166
11
0.7
21
0.710268
0
LINE
8
BLACK
6
CONTINUOUS
10
0.7
20
0.710268
11
0.7
21
0.593732
0
LINE
8
BLACK
6
CONTINUOUS
10
0.7
20
0.593732
11
0.699423
21
0.59234
0
LINE
8
BLACK
6
CONTINUOUS
10
0.699423
20
0.59234
11
0.698031
21
0.591764
0
LINE
8
BLACK
6
CONTINUOUS
10
0.698031
20
0.591764
11
0.640551
21
0.591764
0
LINE
8
BLACK
6
CONTINUOUS
10
0.640551
20
0.591764
11
0.639159
21
0.59234
0
LINE
8
BLACK
6
CONTINUOUS
10
0.64252
20
0.708299
11
0.64252
21
0.595701
0
LINE
8
BLACK
6
CONTINUOUS
10
0.64252
20
0.595701
11
0.696063
21
0.595701
0
LINE
8
BLACK
6
CONTINUOUS
10
0.696063
20
0.595701
11
0.696063
21
0.708299
0
LINE
8
BLACK
6
CONTINUOUS
10
0.696063
20
0.708299
11
0.64252
21
0.708299
0
LINE
8
BLACK
6
CONTINUOUS
10
0.365537
20
0.674868
11
0.364961
21
0.67626
0
LINE
8
BLACK
6
CONTINUOUS
10
0.364961
20
0.67626
11
0.364961
21
0.73374
0
LINE
8
BLACK
6
CONTINUOUS
10
0.364961
20
0.73374
11
0.365537
21
0.735132
0
LINE
8
BLACK
6
CONTINUOUS
10
0.365537
20
0.735132
11
0.366929
21
0.735709
0
LINE
8
BLACK
6
CONTINUOUS
10
0.366929
20
0.735709
11
0.483465
21
0.735709
0
LINE
8
BLACK
6
CONTINUOUS
10
0.483465
20
0.735709
11
0.484856
21
0.735132
0
LINE
8
BLACK
6
CONTINUOUS
10
0.484856
20
0.735132
11
0.485433
21
0.73374
0
LINE
8
BLACK
6
CONTINUOUS
10
0.485433
20
0.73374
11
0.485433
21
0.67626
0
LINE
8
BLACK
6
CONTINUOUS
10
0.485433
20
0.67626
11
0.484856
21
0.674868
0
LINE
8
BLACK
6
CONTINUOUS
10
0.484856
20
0.674868
11
0.483465
21
0.674291
0
LINE
8
BLACK
6
CONTINUOUS
10
0.483465
20
0.674291
11
0.366929
21
0.674291
0
LINE
8
BLACK
6
CONTINUOUS
10
0.366929
20
0.674291
11
0.365537
21
0.674868
0
LINE
8
BLACK
6
CONTINUOUS
10
0.368898
20
0.731772
11
0.368898
21
0.678228
0
LINE
8
BLACK
6
CONTINUOUS
10
0.368898
20
0.678228
11
0.481496
21
0.678228
0
LINE
8
BLACK
6
CONTINUOUS
10
0.481496
20
0.678228
11
0.481496
21
0.731772
0
LINE
8
BLACK
6
CONTINUOUS
10
0.481496
20
0.731772
11
0.368898
21
0.731772
0
LINE
8
BLACK
6
CONTINUOUS
10
0.499395
20
0.674868
11
0.498819
21
0.67626
0
LINE
8
BLACK
6
CONTINUOUS
10
0.498819
20
0.67626
11
0.498819
21
0.73374
0
LINE
8
BLACK
6
CONTINUOUS
10
0.498819
20
0.73374
11
0.499395
21
0.735132
0
LINE
8
BLACK
6
CONTINUOUS
10
0.499395
20
0.735132
11
0.500787
21
0.735709
0
LINE
8
BLACK
6
CONTINUOUS
10
0.500787
20
0.735709
11
0.617323
21
0.735709
0
LINE
8
BLACK
6
CONTINUOUS
10
0.617323
20
0.735709
11
0.618715
21
0.735132
0
LINE
8
BLACK
6
CONTINUOUS
10
0.618715
20
0.735132
11
0.619291
21
0.73374
0
LINE
8
BLACK
6
CONTINUOUS
10
0.619291
20
0.73374
11
0.619291
21
0.67626
0
LINE
8
BLACK
6
CONTINUOUS
10
0.619291
20
0.67626
11
0.618715
21
0.674868
0
LINE
8
BLACK
6
CONTINUOUS
10
0.618715
20
0.674868
11
0.617323
21
0.674291
0
LINE
8
BLACK
6
CONTINUOUS
10
0.617323
20
0.674291
11
0.500787
21
0.674291
0
LINE
8
BLACK
6
CONTINUOUS
10
0.500787
20
0.674291
11
0.499395
21
0.674868
0
LINE
8
BLACK
6
CONTINUOUS
10
0.502756
20
0.731772
11
0.502756
21
0.678228
0
LINE
8
BLACK
6
CONTINUOUS
10
0.502756
20
0.678228
11
0.615354
21
0.678228
0
LINE
8
BLACK
6
CONTINUOUS
10
0.615354
20
0.678228
11
0.615354
21
0.731772
0
LINE
8
BLACK
6
CONTINUOUS
10
0.615354
20
0.731772
11
0.502756
21
0.731772
0
LINE
8
BLACK
6
CONTINUOUS
10
0.639159
20
0.71634
11
0.638583
21
0.717732
0
LINE
8
BLACK
6
CONTINUOUS
10
0.638583
20
0.717732
11
0.638583
21
0.834268
0
LINE
8
BLACK
6
CONTINUOUS
10
0.638583
20
0.834268
11
0.639159
21
0.83566
0
LINE
8
BLACK
6
CONTINUOUS
10
0.639159
20
0.83566
11
0.640551
21
0.836236
0
LINE
8
BLACK
6
CONTINUOUS
10
0.640551
20
0.836236
11
0.698031
21
0.836236
0
LINE
8
BLACK
6
CONTINUOUS
10
0.698031
20
0.836236
11
0.699423
21
0.83566
0
LINE
8
BLACK
6
CONTINUOUS
10
0.699423
20
0.83566
11
0.7
21
0.834268
0
LINE
8
BLACK
6
CONTINUOUS
10
0.7
20
0.834268
11
0.7
21
0.717732
0
LINE
8
BLACK
6
CONTINUOUS
10
0.7
20
0.717732
11
0.699423
21
0.71634
0
LINE
8
BLACK
6
CONTINUOUS
10
0.699423
20
0.71634
11
0.698031
21
0.715764
0
LINE
8
BLACK
6
CONTINUOUS
10
0.698031
20
0.715764
11
0.640551
21
0.715764
0
LINE
8
BLACK
6
CONTINUOUS
10
0.640551
20
0.715764
11
0.639159
21
0.71634
0
LINE
8
BLACK
6
CONTINUOUS
10
0.64252
20
0.832299
11
0.64252
21
0.719701
0
LINE
8
BLACK
6
CONTINUOUS
10
0.64252
20
0.719701
11
0.696063
21
0.719701
0
LINE
8
BLACK
6
CONTINUOUS
10
0.696063
20
0.719701
11
0.696063
21
0.832299
0
LINE
8
BLACK
6
CONTINUOUS
10
0.696063
20
0.832299
11
0.64252
21
0.832299
0
LINE
8
BLACK
6
CONTINUOUS
10
0.284829
20
0.716821
11
0.284252
21
0.718213
0
LINE
8
BLACK
6
CONTINUOUS
10
0.284252
20
0.718213
11
0.284252
21
0.834748
0
LINE
8
BLACK
6
CONTINUOUS
10
0.284252
20
0.834748
11
0.284829
21
0.83614
0
LINE
8
BLACK
6
CONTINUOUS
10
0.284829
20
0.83614
11
0.28622
21
0.836717
0
LINE
8
BLACK
6
CONTINUOUS
10
0.28622
20
0.836717
11
0.343701
21
0.836717
0
LINE
8
BLACK
6
CONTINUOUS
10
0.343701
20
0.836717
11
0.345093
21
0.83614
0
LINE
8
BLACK
6
CONTINUOUS
10
0.345093
20
0.83614
11
0.345669
21
0.834748
0
LINE
8
BLACK
6
CONTINUOUS
10
0.345669
20
0.834748
11
0.345669
21
0.718213
0
LINE
8
BLACK
6
CONTINUOUS
10
0.345669
20
0.718213
11
0.345093
21
0.716821
0
LINE
8
BLACK
6
CONTINUOUS
10
0.345093
20
0.716821
11
0.343701
21
0.716244
0
LINE
8
BLACK
6
CONTINUOUS
10
0.343701
20
0.716244
11
0.28622
21
0.716244
0
LINE
8
BLACK
6
CONTINUOUS
10
0.28622
20
0.716244
11
0.284829
21
0.716821
0
LINE
8
BLACK
6
CONTINUOUS
10
0.288189
20
0.83278
11
0.288189
21
0.720181
0
LINE
8
BLACK
6
CONTINUOUS
10
0.288189
20
0.720181
11
0.341732
21
0.720181
0
LINE
8
BLACK
6
CONTINUOUS
10
0.341732
20
0.720181
11
0.341732
21
0.83278
0
LINE
8
BLACK
6
CONTINUOUS
10
0.341732
20
0.83278
11
0.288189
21
0.83278
0
LINE
8
BLACK
6
CONTINUOUS
10
0.499395
20
0.767868
11
0.498819
21
0.76926
0
LINE
8
BLACK
6
CONTINUOUS
10
0.498819
20
0.76926
11
0.498819
21
0.82674
0
LINE
8
BLACK
6
CONTINUOUS
10
0.498819
20
0.82674
11
0.499395
21
0.828132
0
LINE
8
BLACK
6
CONTINUOUS
10
0.499395
20
0.828132
11
0.500787
21
0.828709
0
LINE
8
BLACK
6
CONTINUOUS
10
0.500787
20
0.828709
11
0.617323
21
0.828709
0
LINE
8
BLACK
6
CONTINUOUS
10
0.617323
20
0.828709
11
0.618715
21
0.828132
0
LINE
8
BLACK
6
CONTINUOUS
10
0.618715
20
0.828132
11
0.619291
21
0.82674
0
LINE
8
BLACK
6
CONTINUOUS
10
0.619291
20
0.82674
11
0.619291
21
0.76926
0
LINE
8
BLACK
6
CONTINUOUS
10
0.619291
20
0.76926
11
0.618715
21
0.767868
0
LINE
8
BLACK
6
CONTINUOUS
10
0.618715
20
0.767868
11
0.617323
21
0.767291
0
LINE
8
BLACK
6
CONTINUOUS
10
0.617323
20
0.767291
11
0.500787
21
0.767291
0
LINE
8
BLACK
6
CONTINUOUS
10
0.500787
20
0.767291
11
0.499395
21
0.767868
0
LINE
8
BLACK
6
CONTINUOUS
10
0.502756
20
0.824772
11
0.502756
21
0.771228
0
LINE
8
BLACK
6
CONTINUOUS
10
0.502756
20
0.771228
11
0.615354
21
0.771228
0
LINE
8
BLACK
6
CONTINUOUS
10
0.615354
20
0.771228
11
0.615354
21
0.824772
0
LINE
8
BLACK
6
CONTINUOUS
10
0.615354
20
0.824772
11
0.502756
21
0.824772
0
LINE
8
BLACK
6
CONTINUOUS
10
0.365537
20
0.767868
11
0.364961
21
0.76926
0
LINE
8
BLACK
6
CONTINUOUS
10
0.364961
20
0.76926
11
0.364961
21
0.82674
0
LINE
8
BLACK
6
CONTINUOUS
10
0.364961
20
0.82674
11
0.365537
21
0.828132
0
LINE
8
BLACK
6
CONTINUOUS
10
0.365537
20
0.828132
11
0.366929
21
0.828709
0
LINE
8
BLACK
6
CONTINUOUS
10
0.366929
20
0.828709
11
0.483465
21
0.828709
0
LINE
8
BLACK
6
CONTINUOUS
10
0.483465
20
0.828709
11
0.484856
21
0.828132
0
LINE
8
BLACK
6
CONTINUOUS
10
0.484856
20
0.828132
11
0.485433
21
0.82674
0
LINE
8
BLACK
6
CONTINUOUS
10
0.485433
20
0.82674
11
0.485433
21
0.76926
0
LINE
8
BLACK
6
CONTINUOUS
10
0.485433
20
0.76926
11
0.484856
21
0.767868
0
LINE
8
BLACK
6
CONTINUOUS
10
0.484856
20
0.767868
11
0.483465
21
0.767291
0
LINE
8
BLACK
6
CONTINUOUS
10
0.483465
20
0.767291
11
0.366929
21
0.767291
0
LINE
8
BLACK
6
CONTINUOUS
10
0.366929
20
0.767291
11
0.365537
21
0.767868
0
LINE
8
BLACK
6
CONTINUOUS
10
0.368898
20
0.824772
11
0.368898
21
0.771228
0
LINE
8
BLACK
6
CONTINUOUS
10
0.368898
20
0.771228
11
0.481496
21
0.771228
0
LINE
8
BLACK
6
CONTINUOUS
10
0.481496
20
0.771228
11
0.481496
21
0.824772
0
LINE
8
BLACK
6
CONTINUOUS
10
0.481496
20
0.824772
11
0.368898
21
0.824772
  0
ENDSEC
  0
EOF
