  0
SECTION
  2
HEADER
  9
$ANGBASE
  50
0.0
  9
$ANGDIR
  70
1
  9
$MEASUREMENT
  70
0
  0
ENDSEC
  0
SECTION
  2
TABLES
  0
TABLE
  2
LTYPE
  70
4
  0
LTYPE
  5
40F
  2
CONTINUOUS
  70
0
  3
Solid line
  72
65
  73
0
  40
0.0
  0
LTYPE
  5
410
  2
DASHDOT
 70
0
  3
Dash Dot ____ _ ____ _
 72
65
 73
4
 40
2.0
 49
1.25
 49
-0.25
 49
0.25
 49
-0.25
  0
LTYPE
  5
411
  2
DASHED
 70
0
  3
Dashed __ __ __ __ __
 72
65
 73
2
 40
0.75
 49
0.5
 49
-0.25
  0
LTYPE
  5
43B
  2
DOTTED
 70
0
  3
Dotted .  .  .  .
 72
65
 73
2
 40
0.2
 49
0.0
 49
-0.2
  0
ENDTAB
  0
TABLE
  2
STYLE
  70
4
  0
STYLE
  2
KICAD
  70
0
  40
0
  41
1
  42
1
  50
0
  71
0
  3
isocp.shx
  0
STYLE
  2
KICADB
  70
0
  40
0
  41
1
  42
1
  50
0
  71
0
  3
isocp.shx
  0
STYLE
  2
KICADI
  70
0
  40
0
  41
1
  42
1
  50
15
  71
0
  3
isocp.shx
  0
STYLE
  2
KICADBI
  70
0
  40
0
  41
1
  42
1
  50
15
  71
0
  3
isocp.shx
  0
ENDTAB
  0
TABLE
  2
LAYER
  70
1
  0
LAYER
  2
BLACK
  70
0
  62
7
  6
CONTINUOUS
  0
ENDTAB
  0
ENDSEC
  0
SECTION
  2
ENTITIES
0
LINE
8
BLACK
6
CONTINUOUS
10
0.1129223622047244
20
0.057248031496063
11
0.1221473622047244
21
0.0540811023622047
0
LINE
8
BLACK
6
CONTINUOUS
10
0.1221473622047244
20
0.0540811023622047
11
0.1307252755905512
21
0.0494389763779528
0
LINE
8
BLACK
6
CONTINUOUS
10
0.1307252755905512
20
0.0494389763779528
11
0.138422125984252
21
0.0434482677165354
0
LINE
8
BLACK
6
CONTINUOUS
10
0.138422125984252
20
0.0434482677165354
11
0.1450279921259842
21
0.0362724015748032
0
LINE
8
BLACK
6
CONTINUOUS
10
0.1450279921259842
20
0.0362724015748032
11
0.1503626377952756
21
0.028107125984252
0
LINE
8
BLACK
6
CONTINUOUS
10
0.1503626377952756
20
0.028107125984252
11
0.1542805511811024
21
0.019175157480315
0
LINE
8
BLACK
6
CONTINUOUS
10
0.1542805511811024
20
0.019175157480315
11
0.1566748818897638
21
0.009720157480315
0
LINE
8
BLACK
6
CONTINUOUS
10
0.1566748818897638
20
0.009720157480315
11
0.1574803149606299
21
0.
0
LINE
8
BLACK
6
CONTINUOUS
10
0.1574803149606299
20
0.
11
0.1566748818897638
21
-0.009720157480315
0
LINE
8
BLACK
6
CONTINUOUS
10
0.1566748818897638
20
-0.009720157480315
11
0.1542805511811024
21
-0.019175157480315
0
LINE
8
BLACK
6
CONTINUOUS
10
0.1542805511811024
20
-0.019175157480315
11
0.1503626377952756
21
-0.028107125984252
0
LINE
8
BLACK
6
CONTINUOUS
10
0.1503626377952756
20
-0.028107125984252
11
0.1450279921259842
21
-0.0362724015748032
0
LINE
8
BLACK
6
CONTINUOUS
10
0.1450279921259842
20
-0.0362724015748032
11
0.138422125984252
21
-0.0434482677165354
0
LINE
8
BLACK
6
CONTINUOUS
10
0.138422125984252
20
-0.0434482677165354
11
0.1307252755905512
21
-0.0494389763779528
0
LINE
8
BLACK
6
CONTINUOUS
10
0.1307252755905512
20
-0.0494389763779528
11
0.1221473622047244
21
-0.0540811023622047
0
LINE
8
BLACK
6
CONTINUOUS
10
0.1221473622047244
20
-0.0540811023622047
11
0.1129223622047244
21
-0.057248031496063
0
LINE
8
BLACK
6
CONTINUOUS
10
0.1129223622047244
20
-0.057248031496063
11
0.1033019291338583
21
-0.0588534251968504
0
LINE
8
BLACK
6
CONTINUOUS
10
0.1033019291338583
20
-0.0588534251968504
11
0.0935484645669291
21
-0.0588534251968504
0
LINE
8
BLACK
6
CONTINUOUS
10
0.0935484645669291
20
-0.0588534251968504
11
0.083928031496063
21
-0.057248031496063
0
LINE
8
BLACK
6
CONTINUOUS
10
0.083928031496063
20
-0.057248031496063
11
0.074703031496063
21
-0.0540811023622047
0
LINE
8
BLACK
6
CONTINUOUS
10
0.074703031496063
20
-0.0540811023622047
11
0.0661251181102362
21
-0.0494389763779528
0
LINE
8
BLACK
6
CONTINUOUS
10
0.0661251181102362
20
-0.0494389763779528
11
0.0584282677165354
21
-0.0434482677165354
0
LINE
8
BLACK
6
CONTINUOUS
10
0.0584282677165354
20
-0.0434482677165354
11
0.0518224015748031
21
-0.0362724015748032
0
LINE
8
BLACK
6
CONTINUOUS
10
0.0518224015748031
20
-0.0362724015748032
11
0.0464877559055118
21
-0.028107125984252
0
LINE
8
BLACK
6
CONTINUOUS
10
0.0464877559055118
20
-0.028107125984252
11
0.042569842519685
21
-0.019175157480315
0
LINE
8
BLACK
6
CONTINUOUS
10
0.042569842519685
20
-0.019175157480315
11
0.0401755118110236
21
-0.009720157480315
0
LINE
8
BLACK
6
CONTINUOUS
10
0.0401755118110236
20
-0.009720157480315
11
0.0393700787401575
21
0.
0
LINE
8
BLACK
6
CONTINUOUS
10
0.0393700787401575
20
0.
11
0.0401755118110236
21
0.009720157480315
0
LINE
8
BLACK
6
CONTINUOUS
10
0.0401755118110236
20
0.009720157480315
11
0.042569842519685
21
0.019175157480315
0
LINE
8
BLACK
6
CONTINUOUS
10
0.042569842519685
20
0.019175157480315
11
0.0464877559055118
21
0.028107125984252
0
LINE
8
BLACK
6
CONTINUOUS
10
0.0464877559055118
20
0.028107125984252
11
0.0518224015748031
21
0.0362724015748032
0
LINE
8
BLACK
6
CONTINUOUS
10
0.0518224015748031
20
0.0362724015748032
11
0.0584282677165354
21
0.0434482677165354
0
LINE
8
BLACK
6
CONTINUOUS
10
0.0584282677165354
20
0.0434482677165354
11
0.0661251181102362
21
0.0494389763779528
0
LINE
8
BLACK
6
CONTINUOUS
10
0.0661251181102362
20
0.0494389763779528
11
0.074703031496063
21
0.0540811023622047
0
LINE
8
BLACK
6
CONTINUOUS
10
0.074703031496063
20
0.0540811023622047
11
0.083928031496063
21
0.057248031496063
0
LINE
8
BLACK
6
CONTINUOUS
10
0.083928031496063
20
0.057248031496063
11
0.0935484645669291
21
0.0588534251968504
0
LINE
8
BLACK
6
CONTINUOUS
10
0.0935484645669291
20
0.0588534251968504
11
0.1033019291338583
21
0.0588534251968504
0
LINE
8
BLACK
6
CONTINUOUS
10
0.1033019291338583
20
0.0588534251968504
11
0.1129223622047244
21
0.057248031496063
0
LINE
8
BLACK
6
CONTINUOUS
10
0.5066231496062992
20
0.057248031496063
11
0.5158481496062992
21
0.0540811023622047
0
LINE
8
BLACK
6
CONTINUOUS
10
0.5158481496062992
20
0.0540811023622047
11
0.524426062992126
21
0.0494389763779528
0
LINE
8
BLACK
6
CONTINUOUS
10
0.524426062992126
20
0.0494389763779528
11
0.5321229133858267
21
0.0434482677165354
0
LINE
8
BLACK
6
CONTINUOUS
10
0.5321229133858267
20
0.0434482677165354
11
0.538728779527559
21
0.0362724015748032
0
LINE
8
BLACK
6
CONTINUOUS
10
0.538728779527559
20
0.0362724015748032
11
0.5440634251968504
21
0.028107125984252
0
LINE
8
BLACK
6
CONTINUOUS
10
0.5440634251968504
20
0.028107125984252
11
0.5479813385826772
21
0.019175157480315
0
LINE
8
BLACK
6
CONTINUOUS
10
0.5479813385826772
20
0.019175157480315
11
0.5503756692913385
21
0.009720157480315
0
LINE
8
BLACK
6
CONTINUOUS
10
0.5503756692913385
20
0.009720157480315
11
0.5511811023622047
21
0.
0
LINE
8
BLACK
6
CONTINUOUS
10
0.5511811023622047
20
0.
11
0.5503756692913385
21
-0.009720157480315
0
LINE
8
BLACK
6
CONTINUOUS
10
0.5503756692913385
20
-0.009720157480315
11
0.5479813385826772
21
-0.019175157480315
0
LINE
8
BLACK
6
CONTINUOUS
10
0.5479813385826772
20
-0.019175157480315
11
0.5440634251968504
21
-0.028107125984252
0
LINE
8
BLACK
6
CONTINUOUS
10
0.5440634251968504
20
-0.028107125984252
11
0.538728779527559
21
-0.0362724015748032
0
LINE
8
BLACK
6
CONTINUOUS
10
0.538728779527559
20
-0.0362724015748032
11
0.5321229133858267
21
-0.0434482677165354
0
LINE
8
BLACK
6
CONTINUOUS
10
0.5321229133858267
20
-0.0434482677165354
11
0.524426062992126
21
-0.0494389763779528
0
LINE
8
BLACK
6
CONTINUOUS
10
0.524426062992126
20
-0.0494389763779528
11
0.5158481496062992
21
-0.0540811023622047
0
LINE
8
BLACK
6
CONTINUOUS
10
0.5158481496062992
20
-0.0540811023622047
11
0.5066231496062992
21
-0.057248031496063
0
LINE
8
BLACK
6
CONTINUOUS
10
0.5066231496062992
20
-0.057248031496063
11
0.497002716535433
21
-0.0588534251968504
0
LINE
8
BLACK
6
CONTINUOUS
10
0.497002716535433
20
-0.0588534251968504
11
0.4872492519685039
21
-0.0588534251968504
0
LINE
8
BLACK
6
CONTINUOUS
10
0.4872492519685039
20
-0.0588534251968504
11
0.4776288188976378
21
-0.057248031496063
0
LINE
8
BLACK
6
CONTINUOUS
10
0.4776288188976378
20
-0.057248031496063
11
0.4684038188976378
21
-0.0540811023622047
0
LINE
8
BLACK
6
CONTINUOUS
10
0.4684038188976378
20
-0.0540811023622047
11
0.459825905511811
21
-0.0494389763779528
0
LINE
8
BLACK
6
CONTINUOUS
10
0.459825905511811
20
-0.0494389763779528
11
0.4521290551181102
21
-0.0434482677165354
0
LINE
8
BLACK
6
CONTINUOUS
10
0.4521290551181102
20
-0.0434482677165354
11
0.4455231889763779
21
-0.0362724015748032
0
LINE
8
BLACK
6
CONTINUOUS
10
0.4455231889763779
20
-0.0362724015748032
11
0.4401885433070866
21
-0.028107125984252
0
LINE
8
BLACK
6
CONTINUOUS
10
0.4401885433070866
20
-0.028107125984252
11
0.4362706299212598
21
-0.019175157480315
0
LINE
8
BLACK
6
CONTINUOUS
10
0.4362706299212598
20
-0.019175157480315
11
0.4338762992125984
21
-0.009720157480315
0
LINE
8
BLACK
6
CONTINUOUS
10
0.4338762992125984
20
-0.009720157480315
11
0.4330708661417323
21
0.
0
LINE
8
BLACK
6
CONTINUOUS
10
0.4330708661417323
20
0.
11
0.4338762992125984
21
0.009720157480315
0
LINE
8
BLACK
6
CONTINUOUS
10
0.4338762992125984
20
0.009720157480315
11
0.4362706299212598
21
0.019175157480315
0
LINE
8
BLACK
6
CONTINUOUS
10
0.4362706299212598
20
0.019175157480315
11
0.4401885433070866
21
0.028107125984252
0
LINE
8
BLACK
6
CONTINUOUS
10
0.4401885433070866
20
0.028107125984252
11
0.4455231889763779
21
0.0362724015748032
0
LINE
8
BLACK
6
CONTINUOUS
10
0.4455231889763779
20
0.0362724015748032
11
0.4521290551181102
21
0.0434482677165354
0
LINE
8
BLACK
6
CONTINUOUS
10
0.4521290551181102
20
0.0434482677165354
11
0.459825905511811
21
0.0494389763779528
0
LINE
8
BLACK
6
CONTINUOUS
10
0.459825905511811
20
0.0494389763779528
11
0.4684038188976378
21
0.0540811023622047
0
LINE
8
BLACK
6
CONTINUOUS
10
0.4684038188976378
20
0.0540811023622047
11
0.4776288188976378
21
0.057248031496063
0
LINE
8
BLACK
6
CONTINUOUS
10
0.4776288188976378
20
0.057248031496063
11
0.4872492519685039
21
0.0588534251968504
0
LINE
8
BLACK
6
CONTINUOUS
10
0.4872492519685039
20
0.0588534251968504
11
0.497002716535433
21
0.0588534251968504
0
LINE
8
BLACK
6
CONTINUOUS
10
0.497002716535433
20
0.0588534251968504
11
0.5066231496062992
21
0.057248031496063
0
LINE
8
BLACK
6
CONTINUOUS
10
0.9003239370078739
20
0.057248031496063
11
0.909548937007874
21
0.0540811023622047
0
LINE
8
BLACK
6
CONTINUOUS
10
0.909548937007874
20
0.0540811023622047
11
0.9181268503937008
21
0.0494389763779528
0
LINE
8
BLACK
6
CONTINUOUS
10
0.9181268503937008
20
0.0494389763779528
11
0.9258237007874015
21
0.0434482677165354
0
LINE
8
BLACK
6
CONTINUOUS
10
0.9258237007874015
20
0.0434482677165354
11
0.9324295669291338
21
0.0362724015748032
0
LINE
8
BLACK
6
CONTINUOUS
10
0.9324295669291338
20
0.0362724015748032
11
0.9377642125984251
21
0.028107125984252
0
LINE
8
BLACK
6
CONTINUOUS
10
0.9377642125984251
20
0.028107125984252
11
0.9416821259842519
21
0.019175157480315
0
LINE
8
BLACK
6
CONTINUOUS
10
0.9416821259842519
20
0.019175157480315
11
0.9440764566929134
21
0.009720157480315
0
LINE
8
BLACK
6
CONTINUOUS
10
0.9440764566929134
20
0.009720157480315
11
0.9448818897637795
21
0.
0
LINE
8
BLACK
6
CONTINUOUS
10
0.9448818897637795
20
0.
11
0.9440764566929134
21
-0.009720157480315
0
LINE
8
BLACK
6
CONTINUOUS
10
0.9440764566929134
20
-0.009720157480315
11
0.9416821259842519
21
-0.019175157480315
0
LINE
8
BLACK
6
CONTINUOUS
10
0.9416821259842519
20
-0.019175157480315
11
0.9377642125984251
21
-0.028107125984252
0
LINE
8
BLACK
6
CONTINUOUS
10
0.9377642125984251
20
-0.028107125984252
11
0.9324295669291338
21
-0.0362724015748032
0
LINE
8
BLACK
6
CONTINUOUS
10
0.9324295669291338
20
-0.0362724015748032
11
0.9258237007874015
21
-0.0434482677165354
0
LINE
8
BLACK
6
CONTINUOUS
10
0.9258237007874015
20
-0.0434482677165354
11
0.9181268503937008
21
-0.0494389763779528
0
LINE
8
BLACK
6
CONTINUOUS
10
0.9181268503937008
20
-0.0494389763779528
11
0.909548937007874
21
-0.0540811023622047
0
LINE
8
BLACK
6
CONTINUOUS
10
0.909548937007874
20
-0.0540811023622047
11
0.9003239370078739
21
-0.057248031496063
0
LINE
8
BLACK
6
CONTINUOUS
10
0.9003239370078739
20
-0.057248031496063
11
0.8907035039370078
21
-0.0588534251968504
0
LINE
8
BLACK
6
CONTINUOUS
10
0.8907035039370078
20
-0.0588534251968504
11
0.8809500393700788
21
-0.0588534251968504
0
LINE
8
BLACK
6
CONTINUOUS
10
0.8809500393700788
20
-0.0588534251968504
11
0.8713296062992126
21
-0.057248031496063
0
LINE
8
BLACK
6
CONTINUOUS
10
0.8713296062992126
20
-0.057248031496063
11
0.8621046062992126
21
-0.0540811023622047
0
LINE
8
BLACK
6
CONTINUOUS
10
0.8621046062992126
20
-0.0540811023622047
11
0.8535266929133858
21
-0.0494389763779528
0
LINE
8
BLACK
6
CONTINUOUS
10
0.8535266929133858
20
-0.0494389763779528
11
0.8458298425196851
21
-0.0434482677165354
0
LINE
8
BLACK
6
CONTINUOUS
10
0.8458298425196851
20
-0.0434482677165354
11
0.8392239763779528
21
-0.0362724015748032
0
LINE
8
BLACK
6
CONTINUOUS
10
0.8392239763779528
20
-0.0362724015748032
11
0.8338893307086614
21
-0.028107125984252
0
LINE
8
BLACK
6
CONTINUOUS
10
0.8338893307086614
20
-0.028107125984252
11
0.8299714173228346
21
-0.019175157480315
0
LINE
8
BLACK
6
CONTINUOUS
10
0.8299714173228346
20
-0.019175157480315
11
0.8275770866141732
21
-0.009720157480315
0
LINE
8
BLACK
6
CONTINUOUS
10
0.8275770866141732
20
-0.009720157480315
11
0.8267716535433071
21
0.
0
LINE
8
BLACK
6
CONTINUOUS
10
0.8267716535433071
20
0.
11
0.8275770866141732
21
0.009720157480315
0
LINE
8
BLACK
6
CONTINUOUS
10
0.8275770866141732
20
0.009720157480315
11
0.8299714173228346
21
0.019175157480315
0
LINE
8
BLACK
6
CONTINUOUS
10
0.8299714173228346
20
0.019175157480315
11
0.8338893307086614
21
0.028107125984252
0
LINE
8
BLACK
6
CONTINUOUS
10
0.8338893307086614
20
0.028107125984252
11
0.8392239763779528
21
0.0362724015748032
0
LINE
8
BLACK
6
CONTINUOUS
10
0.8392239763779528
20
0.0362724015748032
11
0.8458298425196851
21
0.0434482677165354
0
LINE
8
BLACK
6
CONTINUOUS
10
0.8458298425196851
20
0.0434482677165354
11
0.8535266929133858
21
0.0494389763779528
0
LINE
8
BLACK
6
CONTINUOUS
10
0.8535266929133858
20
0.0494389763779528
11
0.8621046062992126
21
0.0540811023622047
0
LINE
8
BLACK
6
CONTINUOUS
10
0.8621046062992126
20
0.0540811023622047
11
0.8713296062992126
21
0.057248031496063
0
LINE
8
BLACK
6
CONTINUOUS
10
0.8713296062992126
20
0.057248031496063
11
0.8809500393700788
21
0.0588534251968504
0
LINE
8
BLACK
6
CONTINUOUS
10
0.8809500393700788
20
0.0588534251968504
11
0.8907035039370078
21
0.0588534251968504
0
LINE
8
BLACK
6
CONTINUOUS
10
0.8907035039370078
20
0.0588534251968504
11
0.9003239370078739
21
0.057248031496063
0
LINE
8
BLACK
6
CONTINUOUS
10
0.9540811023622047
20
0.1365021653543307
11
0.9590657874015748
21
0.1347579527559055
0
LINE
8
BLACK
6
CONTINUOUS
10
0.9590657874015748
20
0.1347579527559055
11
0.9633148818897638
21
0.131621968503937
0
LINE
8
BLACK
6
CONTINUOUS
10
0.9633148818897638
20
0.131621968503937
11
0.9664508661417323
21
0.127372874015748
0
LINE
8
BLACK
6
CONTINUOUS
10
0.9664508661417323
20
0.127372874015748
11
0.9681950787401574
21
0.1223881889763779
0
LINE
8
BLACK
6
CONTINUOUS
10
0.9681950787401574
20
0.1223881889763779
11
0.968503937007874
21
0.1190944881889764
0
LINE
8
BLACK
6
CONTINUOUS
10
0.968503937007874
20
0.1190944881889764
11
0.968503937007874
21
0.0994094488188976
0
LINE
8
BLACK
6
CONTINUOUS
10
0.968503937007874
20
0.0994094488188976
11
0.9681950787401574
21
0.0961157480314961
0
LINE
8
BLACK
6
CONTINUOUS
10
0.9681950787401574
20
0.0961157480314961
11
0.9664508661417323
21
0.091131062992126
0
LINE
8
BLACK
6
CONTINUOUS
10
0.9664508661417323
20
0.091131062992126
11
0.9633148818897638
21
0.086881968503937
0
LINE
8
BLACK
6
CONTINUOUS
10
0.9633148818897638
20
0.086881968503937
11
0.9590657874015748
21
0.0837459842519685
0
LINE
8
BLACK
6
CONTINUOUS
10
0.9590657874015748
20
0.0837459842519685
11
0.9540811023622047
21
0.0820017716535433
0
LINE
8
BLACK
6
CONTINUOUS
10
0.9540811023622047
20
0.0820017716535433
11
0.9507874015748031
21
0.0816929133858268
0
LINE
8
BLACK
6
CONTINUOUS
10
0.9507874015748031
20
0.0816929133858268
11
0.8641732283464567
21
0.0816929133858268
0
LINE
8
BLACK
6
CONTINUOUS
10
0.8641732283464567
20
0.0816929133858268
11
0.8608795275590551
21
0.0820017716535433
0
LINE
8
BLACK
6
CONTINUOUS
10
0.8608795275590551
20
0.0820017716535433
11
0.8558948425196851
21
0.0837459842519685
0
LINE
8
BLACK
6
CONTINUOUS
10
0.8558948425196851
20
0.0837459842519685
11
0.8516457480314961
21
0.086881968503937
0
LINE
8
BLACK
6
CONTINUOUS
10
0.8516457480314961
20
0.086881968503937
11
0.8485097637795276
21
0.091131062992126
0
LINE
8
BLACK
6
CONTINUOUS
10
0.8485097637795276
20
0.091131062992126
11
0.8467655511811023
21
0.0961157480314961
0
LINE
8
BLACK
6
CONTINUOUS
10
0.8467655511811023
20
0.0961157480314961
11
0.8464566929133858
21
0.0994094488188976
0
LINE
8
BLACK
6
CONTINUOUS
10
0.8464566929133858
20
0.0994094488188976
11
0.8464566929133858
21
0.1190944881889764
0
LINE
8
BLACK
6
CONTINUOUS
10
0.8464566929133858
20
0.1190944881889764
11
0.8467655511811023
21
0.1223881889763779
0
LINE
8
BLACK
6
CONTINUOUS
10
0.8467655511811023
20
0.1223881889763779
11
0.8485097637795276
21
0.127372874015748
0
LINE
8
BLACK
6
CONTINUOUS
10
0.8485097637795276
20
0.127372874015748
11
0.8516457480314961
21
0.131621968503937
0
LINE
8
BLACK
6
CONTINUOUS
10
0.8516457480314961
20
0.131621968503937
11
0.8558948425196851
21
0.1347579527559055
0
LINE
8
BLACK
6
CONTINUOUS
10
0.8558948425196851
20
0.1347579527559055
11
0.8608795275590551
21
0.1365021653543307
0
LINE
8
BLACK
6
CONTINUOUS
10
0.8608795275590551
20
0.1365021653543307
11
0.8641732283464567
21
0.1368110236220473
0
LINE
8
BLACK
6
CONTINUOUS
10
0.8641732283464567
20
0.1368110236220473
11
0.9507874015748031
21
0.1368110236220473
0
LINE
8
BLACK
6
CONTINUOUS
10
0.9507874015748031
20
0.1368110236220473
11
0.9540811023622047
21
0.1365021653543307
0
LINE
8
BLACK
6
CONTINUOUS
10
0.8129869291338583
20
0.2011988188976378
11
0.8170620866141732
21
0.1992065748031496
0
LINE
8
BLACK
6
CONTINUOUS
10
0.8170620866141732
20
0.1992065748031496
11
0.8202695669291339
21
0.195999094488189
0
LINE
8
BLACK
6
CONTINUOUS
10
0.8202695669291339
20
0.195999094488189
11
0.8222618110236221
21
0.191923937007874
0
LINE
8
BLACK
6
CONTINUOUS
10
0.8222618110236221
20
0.191923937007874
11
0.8228346456692913
21
0.187992125984252
0
LINE
8
BLACK
6
CONTINUOUS
10
0.8228346456692913
20
0.187992125984252
11
0.8228346456692913
21
0.1761811023622047
0
LINE
8
BLACK
6
CONTINUOUS
10
0.8228346456692913
20
0.1761811023622047
11
0.8222618110236221
21
0.1722492913385827
0
LINE
8
BLACK
6
CONTINUOUS
10
0.8222618110236221
20
0.1722492913385827
11
0.8202695669291339
21
0.1681741338582677
0
LINE
8
BLACK
6
CONTINUOUS
10
0.8202695669291339
20
0.1681741338582677
11
0.8170620866141732
21
0.1649666535433071
0
LINE
8
BLACK
6
CONTINUOUS
10
0.8170620866141732
20
0.1649666535433071
11
0.8129869291338583
21
0.1629744094488189
0
LINE
8
BLACK
6
CONTINUOUS
10
0.8129869291338583
20
0.1629744094488189
11
0.8090551181102362
21
0.1624015748031496
0
LINE
8
BLACK
6
CONTINUOUS
10
0.8090551181102362
20
0.1624015748031496
11
0.7539370078740157
21
0.1624015748031496
0
LINE
8
BLACK
6
CONTINUOUS
10
0.7539370078740157
20
0.1624015748031496
11
0.7500051968503937
21
0.1629744094488189
0
LINE
8
BLACK
6
CONTINUOUS
10
0.7500051968503937
20
0.1629744094488189
11
0.7459300393700787
21
0.1649666535433071
0
LINE
8
BLACK
6
CONTINUOUS
10
0.7459300393700787
20
0.1649666535433071
11
0.7427225590551181
21
0.1681741338582677
0
LINE
8
BLACK
6
CONTINUOUS
10
0.7427225590551181
20
0.1681741338582677
11
0.7407303149606299
21
0.1722492913385827
0
LINE
8
BLACK
6
CONTINUOUS
10
0.7407303149606299
20
0.1722492913385827
11
0.7401574803149606
21
0.1761811023622047
0
LINE
8
BLACK
6
CONTINUOUS
10
0.7401574803149606
20
0.1761811023622047
11
0.7401574803149606
21
0.187992125984252
0
LINE
8
BLACK
6
CONTINUOUS
10
0.7401574803149606
20
0.187992125984252
11
0.7407303149606299
21
0.191923937007874
0
LINE
8
BLACK
6
CONTINUOUS
10
0.7407303149606299
20
0.191923937007874
11
0.7427225590551181
21
0.195999094488189
0
LINE
8
BLACK
6
CONTINUOUS
10
0.7427225590551181
20
0.195999094488189
11
0.7459300393700787
21
0.1992065748031496
0
LINE
8
BLACK
6
CONTINUOUS
10
0.7459300393700787
20
0.1992065748031496
11
0.7500051968503937
21
0.2011988188976378
0
LINE
8
BLACK
6
CONTINUOUS
10
0.7500051968503937
20
0.2011988188976378
11
0.7539370078740157
21
0.2017716535433071
0
LINE
8
BLACK
6
CONTINUOUS
10
0.7539370078740157
20
0.2017716535433071
11
0.8090551181102362
21
0.2017716535433071
0
LINE
8
BLACK
6
CONTINUOUS
10
0.8090551181102362
20
0.2017716535433071
11
0.8129869291338583
21
0.2011988188976378
0
LINE
8
BLACK
6
CONTINUOUS
10
0.5757662992125984
20
0.3087387401574803
11
0.5813122047244095
21
0.3079413385826771
0
LINE
8
BLACK
6
CONTINUOUS
10
0.5813122047244095
20
0.3079413385826771
11
0.5834625196850394
21
0.3073099606299213
0
LINE
8
BLACK
6
CONTINUOUS
10
0.5834625196850394
20
0.3073099606299213
11
0.5885591338582677
21
0.3049824409448819
0
LINE
8
BLACK
6
CONTINUOUS
10
0.5885591338582677
20
0.3049824409448819
11
0.5904445669291338
21
0.3037707480314961
0
LINE
8
BLACK
6
CONTINUOUS
10
0.5904445669291338
20
0.3037707480314961
11
0.5946790157480315
21
0.3001015748031496
0
LINE
8
BLACK
6
CONTINUOUS
10
0.5946790157480315
20
0.3001015748031496
11
0.5961466535433071
21
0.2984078346456693
0
LINE
8
BLACK
6
CONTINUOUS
10
0.5961466535433071
20
0.2984078346456693
11
0.5991758267716535
21
0.2936943700787402
0
LINE
8
BLACK
6
CONTINUOUS
10
0.5991758267716535
20
0.2936943700787402
11
0.6001068897637795
21
0.2916557086614173
0
LINE
8
BLACK
6
CONTINUOUS
10
0.6001068897637795
20
0.2916557086614173
11
0.6016854330708661
21
0.2862796850393701
0
LINE
8
BLACK
6
CONTINUOUS
10
0.6016854330708661
20
0.2862796850393701
11
0.6020043700787402
21
0.2840612992125984
0
LINE
8
BLACK
6
CONTINUOUS
10
0.6020043700787402
20
0.2840612992125984
11
0.6020043700787402
21
0.282267125984252
0
LINE
8
BLACK
6
CONTINUOUS
10
0.6020043700787402
20
0.282267125984252
11
0.6022047244094488
21
0.2812598425196851
0
LINE
8
BLACK
6
CONTINUOUS
10
0.6022047244094488
20
0.2812598425196851
11
0.6022047244094488
21
0.2615748031496063
0
LINE
8
BLACK
6
CONTINUOUS
10
0.6022047244094488
20
0.2615748031496063
11
0.6016053543307086
21
0.2585615354330709
0
LINE
8
BLACK
6
CONTINUOUS
10
0.6016053543307086
20
0.2585615354330709
11
0.5998984645669291
21
0.2560070472440945
0
LINE
8
BLACK
6
CONTINUOUS
10
0.5998984645669291
20
0.2560070472440945
11
0.5993929527559055
21
0.2556692913385827
0
LINE
8
BLACK
6
CONTINUOUS
10
0.5993929527559055
20
0.2556692913385827
11
0.5998984645669291
21
0.2553315354330709
0
LINE
8
BLACK
6
CONTINUOUS
10
0.5998984645669291
20
0.2553315354330709
11
0.6016053543307086
21
0.2527770472440945
0
LINE
8
BLACK
6
CONTINUOUS
10
0.6016053543307086
20
0.2527770472440945
11
0.6022047244094488
21
0.249763779527559
0
LINE
8
BLACK
6
CONTINUOUS
10
0.6022047244094488
20
0.249763779527559
11
0.6022047244094488
21
0.2300787401574803
0
LINE
8
BLACK
6
CONTINUOUS
10
0.6022047244094488
20
0.2300787401574803
11
0.6020043700787402
21
0.2290714960629921
0
LINE
8
BLACK
6
CONTINUOUS
10
0.6020043700787402
20
0.2290714960629921
11
0.6020043700787402
21
0.2272772834645669
0
LINE
8
BLACK
6
CONTINUOUS
10
0.6020043700787402
20
0.2272772834645669
11
0.6016854330708661
21
0.2250588976377953
0
LINE
8
BLACK
6
CONTINUOUS
10
0.6016854330708661
20
0.2250588976377953
11
0.6001068897637795
21
0.219682874015748
0
LINE
8
BLACK
6
CONTINUOUS
10
0.6001068897637795
20
0.219682874015748
11
0.5991758267716535
21
0.2176442125984252
0
LINE
8
BLACK
6
CONTINUOUS
10
0.5991758267716535
20
0.2176442125984252
11
0.5961466535433071
21
0.2129307480314961
0
LINE
8
BLACK
6
CONTINUOUS
10
0.5961466535433071
20
0.2129307480314961
11
0.5946790157480315
21
0.2112370078740158
0
LINE
8
BLACK
6
CONTINUOUS
10
0.5946790157480315
20
0.2112370078740158
11
0.5904445669291338
21
0.2075678346456693
0
LINE
8
BLACK
6
CONTINUOUS
10
0.5904445669291338
20
0.2075678346456693
11
0.5885591338582677
21
0.2063561417322834
0
LINE
8
BLACK
6
CONTINUOUS
10
0.5885591338582677
20
0.2063561417322834
11
0.5834625196850394
21
0.2040286220472441
0
LINE
8
BLACK
6
CONTINUOUS
10
0.5834625196850394
20
0.2040286220472441
11
0.5813122047244095
21
0.2033972440944882
0
LINE
8
BLACK
6
CONTINUOUS
10
0.5813122047244095
20
0.2033972440944882
11
0.5757662992125984
21
0.202599842519685
0
LINE
8
BLACK
6
CONTINUOUS
10
0.5757662992125984
20
0.202599842519685
11
0.5746456692913385
21
0.2025196850393701
0
LINE
8
BLACK
6
CONTINUOUS
10
0.5746456692913385
20
0.2025196850393701
11
0.5549606299212598
21
0.2025196850393701
0
LINE
8
BLACK
6
CONTINUOUS
10
0.5549606299212598
20
0.2025196850393701
11
0.55384
21
0.202599842519685
0
LINE
8
BLACK
6
CONTINUOUS
10
0.55384
20
0.202599842519685
11
0.548294094488189
21
0.2033972440944882
0
LINE
8
BLACK
6
CONTINUOUS
10
0.548294094488189
20
0.2033972440944882
11
0.546143779527559
21
0.2040286220472441
0
LINE
8
BLACK
6
CONTINUOUS
10
0.546143779527559
20
0.2040286220472441
11
0.5410471653543307
21
0.2063561417322834
0
LINE
8
BLACK
6
CONTINUOUS
10
0.5410471653543307
20
0.2063561417322834
11
0.5391617322834645
21
0.2075678346456693
0
LINE
8
BLACK
6
CONTINUOUS
10
0.5391617322834645
20
0.2075678346456693
11
0.534927283464567
21
0.2112370078740158
0
LINE
8
BLACK
6
CONTINUOUS
10
0.534927283464567
20
0.2112370078740158
11
0.5334596456692913
21
0.2129307480314961
0
LINE
8
BLACK
6
CONTINUOUS
10
0.5334596456692913
20
0.2129307480314961
11
0.5304304724409449
21
0.2176442125984252
0
LINE
8
BLACK
6
CONTINUOUS
10
0.5304304724409449
20
0.2176442125984252
11
0.5294994094488189
21
0.219682874015748
0
LINE
8
BLACK
6
CONTINUOUS
10
0.5294994094488189
20
0.219682874015748
11
0.5279208661417323
21
0.2250588976377953
0
LINE
8
BLACK
6
CONTINUOUS
10
0.5279208661417323
20
0.2250588976377953
11
0.5276019291338583
21
0.2272772834645669
0
LINE
8
BLACK
6
CONTINUOUS
10
0.5276019291338583
20
0.2272772834645669
11
0.5276019291338583
21
0.2290714960629921
0
LINE
8
BLACK
6
CONTINUOUS
10
0.5276019291338583
20
0.2290714960629921
11
0.5274015748031496
21
0.2300787401574803
0
LINE
8
BLACK
6
CONTINUOUS
10
0.5274015748031496
20
0.2300787401574803
11
0.5274015748031496
21
0.249763779527559
0
LINE
8
BLACK
6
CONTINUOUS
10
0.5274015748031496
20
0.249763779527559
11
0.5280009448818898
21
0.2527770472440945
0
LINE
8
BLACK
6
CONTINUOUS
10
0.5280009448818898
20
0.2527770472440945
11
0.5297078346456693
21
0.2553315354330709
0
LINE
8
BLACK
6
CONTINUOUS
10
0.5297078346456693
20
0.2553315354330709
11
0.5302133070866142
21
0.2556692913385827
0
LINE
8
BLACK
6
CONTINUOUS
10
0.5302133070866142
20
0.2556692913385827
11
0.5297078346456693
21
0.2560070472440945
0
LINE
8
BLACK
6
CONTINUOUS
10
0.5297078346456693
20
0.2560070472440945
11
0.5280009448818898
21
0.2585615354330709
0
LINE
8
BLACK
6
CONTINUOUS
10
0.5280009448818898
20
0.2585615354330709
11
0.5274015748031496
21
0.2615748031496063
0
LINE
8
BLACK
6
CONTINUOUS
10
0.5274015748031496
20
0.2615748031496063
11
0.5274015748031496
21
0.2812598425196851
0
LINE
8
BLACK
6
CONTINUOUS
10
0.5274015748031496
20
0.2812598425196851
11
0.5276019291338583
21
0.282267125984252
0
LINE
8
BLACK
6
CONTINUOUS
10
0.5276019291338583
20
0.282267125984252
11
0.5276019291338583
21
0.2840612992125984
0
LINE
8
BLACK
6
CONTINUOUS
10
0.5276019291338583
20
0.2840612992125984
11
0.5279208661417323
21
0.2862796850393701
0
LINE
8
BLACK
6
CONTINUOUS
10
0.5279208661417323
20
0.2862796850393701
11
0.5294994094488189
21
0.2916557086614173
0
LINE
8
BLACK
6
CONTINUOUS
10
0.5294994094488189
20
0.2916557086614173
11
0.5304304724409449
21
0.2936943700787402
0
LINE
8
BLACK
6
CONTINUOUS
10
0.5304304724409449
20
0.2936943700787402
11
0.5334596456692913
21
0.2984078346456693
0
LINE
8
BLACK
6
CONTINUOUS
10
0.5334596456692913
20
0.2984078346456693
11
0.534927283464567
21
0.3001015748031496
0
LINE
8
BLACK
6
CONTINUOUS
10
0.534927283464567
20
0.3001015748031496
11
0.5391617322834645
21
0.3037707480314961
0
LINE
8
BLACK
6
CONTINUOUS
10
0.5391617322834645
20
0.3037707480314961
11
0.5410471653543307
21
0.3049824409448819
0
LINE
8
BLACK
6
CONTINUOUS
10
0.5410471653543307
20
0.3049824409448819
11
0.546143779527559
21
0.3073099606299213
0
LINE
8
BLACK
6
CONTINUOUS
10
0.546143779527559
20
0.3073099606299213
11
0.548294094488189
21
0.3079413385826771
0
LINE
8
BLACK
6
CONTINUOUS
10
0.548294094488189
20
0.3079413385826771
11
0.55384
21
0.3087387401574803
0
LINE
8
BLACK
6
CONTINUOUS
10
0.55384
20
0.3087387401574803
11
0.5549606299212598
21
0.3088188976377952
0
LINE
8
BLACK
6
CONTINUOUS
10
0.5549606299212598
20
0.3088188976377952
11
0.5746456692913385
21
0.3088188976377952
0
LINE
8
BLACK
6
CONTINUOUS
10
0.5746456692913385
20
0.3088188976377952
11
0.5757662992125984
21
0.3087387401574803
0
LINE
8
BLACK
6
CONTINUOUS
10
0.8129869291338583
20
0.2504114173228346
11
0.8170620866141732
21
0.2484191732283464
0
LINE
8
BLACK
6
CONTINUOUS
10
0.8170620866141732
20
0.2484191732283464
11
0.8202695669291339
21
0.2452116929133858
0
LINE
8
BLACK
6
CONTINUOUS
10
0.8202695669291339
20
0.2452116929133858
11
0.8222618110236221
21
0.2411365354330709
0
LINE
8
BLACK
6
CONTINUOUS
10
0.8222618110236221
20
0.2411365354330709
11
0.8228346456692913
21
0.2372047244094488
0
LINE
8
BLACK
6
CONTINUOUS
10
0.8228346456692913
20
0.2372047244094488
11
0.8228346456692913
21
0.2253937007874016
0
LINE
8
BLACK
6
CONTINUOUS
10
0.8228346456692913
20
0.2253937007874016
11
0.8222618110236221
21
0.2214618897637795
0
LINE
8
BLACK
6
CONTINUOUS
10
0.8222618110236221
20
0.2214618897637795
11
0.8202695669291339
21
0.2173867322834646
0
LINE
8
BLACK
6
CONTINUOUS
10
0.8202695669291339
20
0.2173867322834646
11
0.8170620866141732
21
0.2141792519685039
0
LINE
8
BLACK
6
CONTINUOUS
10
0.8170620866141732
20
0.2141792519685039
11
0.8129869291338583
21
0.2121870078740157
0
LINE
8
BLACK
6
CONTINUOUS
10
0.8129869291338583
20
0.2121870078740157
11
0.8090551181102362
21
0.2116141732283464
0
LINE
8
BLACK
6
CONTINUOUS
10
0.8090551181102362
20
0.2116141732283464
11
0.7539370078740157
21
0.2116141732283464
0
LINE
8
BLACK
6
CONTINUOUS
10
0.7539370078740157
20
0.2116141732283464
11
0.7500051968503937
21
0.2121870078740157
0
LINE
8
BLACK
6
CONTINUOUS
10
0.7500051968503937
20
0.2121870078740157
11
0.7459300393700787
21
0.2141792519685039
0
LINE
8
BLACK
6
CONTINUOUS
10
0.7459300393700787
20
0.2141792519685039
11
0.7427225590551181
21
0.2173867322834646
0
LINE
8
BLACK
6
CONTINUOUS
10
0.7427225590551181
20
0.2173867322834646
11
0.7407303149606299
21
0.2214618897637795
0
LINE
8
BLACK
6
CONTINUOUS
10
0.7407303149606299
20
0.2214618897637795
11
0.7401574803149606
21
0.2253937007874016
0
LINE
8
BLACK
6
CONTINUOUS
10
0.7401574803149606
20
0.2253937007874016
11
0.7401574803149606
21
0.2372047244094488
0
LINE
8
BLACK
6
CONTINUOUS
10
0.7401574803149606
20
0.2372047244094488
11
0.7407303149606299
21
0.2411365354330709
0
LINE
8
BLACK
6
CONTINUOUS
10
0.7407303149606299
20
0.2411365354330709
11
0.7427225590551181
21
0.2452116929133858
0
LINE
8
BLACK
6
CONTINUOUS
10
0.7427225590551181
20
0.2452116929133858
11
0.7459300393700787
21
0.2484191732283464
0
LINE
8
BLACK
6
CONTINUOUS
10
0.7459300393700787
20
0.2484191732283464
11
0.7500051968503937
21
0.2504114173228346
0
LINE
8
BLACK
6
CONTINUOUS
10
0.7500051968503937
20
0.2504114173228346
11
0.7539370078740157
21
0.2509842519685039
0
LINE
8
BLACK
6
CONTINUOUS
10
0.7539370078740157
20
0.2509842519685039
11
0.8090551181102362
21
0.2509842519685039
0
LINE
8
BLACK
6
CONTINUOUS
10
0.8090551181102362
20
0.2509842519685039
11
0.8129869291338583
21
0.2504114173228346
0
LINE
8
BLACK
6
CONTINUOUS
10
0.8129869291338583
20
0.2996240157480315
11
0.8170620866141732
21
0.2976317716535433
0
LINE
8
BLACK
6
CONTINUOUS
10
0.8170620866141732
20
0.2976317716535433
11
0.8202695669291339
21
0.2944242913385827
0
LINE
8
BLACK
6
CONTINUOUS
10
0.8202695669291339
20
0.2944242913385827
11
0.8222618110236221
21
0.2903491338582677
0
LINE
8
BLACK
6
CONTINUOUS
10
0.8222618110236221
20
0.2903491338582677
11
0.8228346456692913
21
0.2864173228346457
0
LINE
8
BLACK
6
CONTINUOUS
10
0.8228346456692913
20
0.2864173228346457
11
0.8228346456692913
21
0.2746062992125984
0
LINE
8
BLACK
6
CONTINUOUS
10
0.8228346456692913
20
0.2746062992125984
11
0.8222618110236221
21
0.2706744881889764
0
LINE
8
BLACK
6
CONTINUOUS
10
0.8222618110236221
20
0.2706744881889764
11
0.8202695669291339
21
0.2665993307086614
0
LINE
8
BLACK
6
CONTINUOUS
10
0.8202695669291339
20
0.2665993307086614
11
0.8170620866141732
21
0.2633918503937008
0
LINE
8
BLACK
6
CONTINUOUS
10
0.8170620866141732
20
0.2633918503937008
11
0.8129869291338583
21
0.2613996062992126
0
LINE
8
BLACK
6
CONTINUOUS
10
0.8129869291338583
20
0.2613996062992126
11
0.8090551181102362
21
0.2608267716535433
0
LINE
8
BLACK
6
CONTINUOUS
10
0.8090551181102362
20
0.2608267716535433
11
0.7539370078740157
21
0.2608267716535433
0
LINE
8
BLACK
6
CONTINUOUS
10
0.7539370078740157
20
0.2608267716535433
11
0.7500051968503937
21
0.2613996062992126
0
LINE
8
BLACK
6
CONTINUOUS
10
0.7500051968503937
20
0.2613996062992126
11
0.7459300393700787
21
0.2633918503937008
0
LINE
8
BLACK
6
CONTINUOUS
10
0.7459300393700787
20
0.2633918503937008
11
0.7427225590551181
21
0.2665993307086614
0
LINE
8
BLACK
6
CONTINUOUS
10
0.7427225590551181
20
0.2665993307086614
11
0.7407303149606299
21
0.2706744881889764
0
LINE
8
BLACK
6
CONTINUOUS
10
0.7407303149606299
20
0.2706744881889764
11
0.7401574803149606
21
0.2746062992125984
0
LINE
8
BLACK
6
CONTINUOUS
10
0.7401574803149606
20
0.2746062992125984
11
0.7401574803149606
21
0.2864173228346457
0
LINE
8
BLACK
6
CONTINUOUS
10
0.7401574803149606
20
0.2864173228346457
11
0.7407303149606299
21
0.2903491338582677
0
LINE
8
BLACK
6
CONTINUOUS
10
0.7407303149606299
20
0.2903491338582677
11
0.7427225590551181
21
0.2944242913385827
0
LINE
8
BLACK
6
CONTINUOUS
10
0.7427225590551181
20
0.2944242913385827
11
0.7459300393700787
21
0.2976317716535433
0
LINE
8
BLACK
6
CONTINUOUS
10
0.7459300393700787
20
0.2976317716535433
11
0.7500051968503937
21
0.2996240157480315
0
LINE
8
BLACK
6
CONTINUOUS
10
0.7500051968503937
20
0.2996240157480315
11
0.7539370078740157
21
0.3001968503937008
0
LINE
8
BLACK
6
CONTINUOUS
10
0.7539370078740157
20
0.3001968503937008
11
0.8090551181102362
21
0.3001968503937008
0
LINE
8
BLACK
6
CONTINUOUS
10
0.8090551181102362
20
0.3001968503937008
11
0.8129869291338583
21
0.2996240157480315
0
LINE
8
BLACK
6
CONTINUOUS
10
0.8129869291338583
20
0.3488366141732284
11
0.8170620866141732
21
0.3468443700787401
0
LINE
8
BLACK
6
CONTINUOUS
10
0.8170620866141732
20
0.3468443700787401
11
0.8202695669291339
21
0.3436368897637795
0
LINE
8
BLACK
6
CONTINUOUS
10
0.8202695669291339
20
0.3436368897637795
11
0.8222618110236221
21
0.3395617322834645
0
LINE
8
BLACK
6
CONTINUOUS
10
0.8222618110236221
20
0.3395617322834645
11
0.8228346456692913
21
0.3356299212598425
0
LINE
8
BLACK
6
CONTINUOUS
10
0.8228346456692913
20
0.3356299212598425
11
0.8228346456692913
21
0.3238188976377953
0
LINE
8
BLACK
6
CONTINUOUS
10
0.8228346456692913
20
0.3238188976377953
11
0.8222618110236221
21
0.3198870866141732
0
LINE
8
BLACK
6
CONTINUOUS
10
0.8222618110236221
20
0.3198870866141732
11
0.8202695669291339
21
0.3158119291338582
0
LINE
8
BLACK
6
CONTINUOUS
10
0.8202695669291339
20
0.3158119291338582
11
0.8170620866141732
21
0.3126044488188977
0
LINE
8
BLACK
6
CONTINUOUS
10
0.8170620866141732
20
0.3126044488188977
11
0.8129869291338583
21
0.3106122047244094
0
LINE
8
BLACK
6
CONTINUOUS
10
0.8129869291338583
20
0.3106122047244094
11
0.8090551181102362
21
0.3100393700787402
0
LINE
8
BLACK
6
CONTINUOUS
10
0.8090551181102362
20
0.3100393700787402
11
0.7539370078740157
21
0.3100393700787402
0
LINE
8
BLACK
6
CONTINUOUS
10
0.7539370078740157
20
0.3100393700787402
11
0.7500051968503937
21
0.3106122047244094
0
LINE
8
BLACK
6
CONTINUOUS
10
0.7500051968503937
20
0.3106122047244094
11
0.7459300393700787
21
0.3126044488188977
0
LINE
8
BLACK
6
CONTINUOUS
10
0.7459300393700787
20
0.3126044488188977
11
0.7427225590551181
21
0.3158119291338582
0
LINE
8
BLACK
6
CONTINUOUS
10
0.7427225590551181
20
0.3158119291338582
11
0.7407303149606299
21
0.3198870866141732
0
LINE
8
BLACK
6
CONTINUOUS
10
0.7407303149606299
20
0.3198870866141732
11
0.7401574803149606
21
0.3238188976377953
0
LINE
8
BLACK
6
CONTINUOUS
10
0.7401574803149606
20
0.3238188976377953
11
0.7401574803149606
21
0.3356299212598425
0
LINE
8
BLACK
6
CONTINUOUS
10
0.7401574803149606
20
0.3356299212598425
11
0.7407303149606299
21
0.3395617322834645
0
LINE
8
BLACK
6
CONTINUOUS
10
0.7407303149606299
20
0.3395617322834645
11
0.7427225590551181
21
0.3436368897637795
0
LINE
8
BLACK
6
CONTINUOUS
10
0.7427225590551181
20
0.3436368897637795
11
0.7459300393700787
21
0.3468443700787401
0
LINE
8
BLACK
6
CONTINUOUS
10
0.7459300393700787
20
0.3468443700787401
11
0.7500051968503937
21
0.3488366141732284
0
LINE
8
BLACK
6
CONTINUOUS
10
0.7500051968503937
20
0.3488366141732284
11
0.7539370078740157
21
0.3494094488188976
0
LINE
8
BLACK
6
CONTINUOUS
10
0.7539370078740157
20
0.3494094488188976
11
0.8090551181102362
21
0.3494094488188976
0
LINE
8
BLACK
6
CONTINUOUS
10
0.8090551181102362
20
0.3494094488188976
11
0.8129869291338583
21
0.3488366141732284
0
LINE
8
BLACK
6
CONTINUOUS
10
0.9540811023622047
20
0.4298092519685039
11
0.9590657874015748
21
0.4280650393700787
0
LINE
8
BLACK
6
CONTINUOUS
10
0.9590657874015748
20
0.4280650393700787
11
0.9633148818897638
21
0.4249290551181102
0
LINE
8
BLACK
6
CONTINUOUS
10
0.9633148818897638
20
0.4249290551181102
11
0.9664508661417323
21
0.4206799606299212
0
LINE
8
BLACK
6
CONTINUOUS
10
0.9664508661417323
20
0.4206799606299212
11
0.9681950787401574
21
0.4156952755905512
0
LINE
8
BLACK
6
CONTINUOUS
10
0.9681950787401574
20
0.4156952755905512
11
0.968503937007874
21
0.4124015748031496
0
LINE
8
BLACK
6
CONTINUOUS
10
0.968503937007874
20
0.4124015748031496
11
0.968503937007874
21
0.3927165354330708
0
LINE
8
BLACK
6
CONTINUOUS
10
0.968503937007874
20
0.3927165354330708
11
0.9681950787401574
21
0.3894228346456693
0
LINE
8
BLACK
6
CONTINUOUS
10
0.9681950787401574
20
0.3894228346456693
11
0.9664508661417323
21
0.3844381496062992
0
LINE
8
BLACK
6
CONTINUOUS
10
0.9664508661417323
20
0.3844381496062992
11
0.9633148818897638
21
0.3801890551181102
0
LINE
8
BLACK
6
CONTINUOUS
10
0.9633148818897638
20
0.3801890551181102
11
0.9590657874015748
21
0.3770530708661417
0
LINE
8
BLACK
6
CONTINUOUS
10
0.9590657874015748
20
0.3770530708661417
11
0.9540811023622047
21
0.3753088582677165
0
LINE
8
BLACK
6
CONTINUOUS
10
0.9540811023622047
20
0.3753088582677165
11
0.9507874015748031
21
0.375
0
LINE
8
BLACK
6
CONTINUOUS
10
0.9507874015748031
20
0.375
11
0.8641732283464567
21
0.375
0
LINE
8
BLACK
6
CONTINUOUS
10
0.8641732283464567
20
0.375
11
0.8608795275590551
21
0.3753088582677165
0
LINE
8
BLACK
6
CONTINUOUS
10
0.8608795275590551
20
0.3753088582677165
11
0.8558948425196851
21
0.3770530708661417
0
LINE
8
BLACK
6
CONTINUOUS
10
0.8558948425196851
20
0.3770530708661417
11
0.8516457480314961
21
0.3801890551181102
0
LINE
8
BLACK
6
CONTINUOUS
10
0.8516457480314961
20
0.3801890551181102
11
0.8485097637795276
21
0.3844381496062992
0
LINE
8
BLACK
6
CONTINUOUS
10
0.8485097637795276
20
0.3844381496062992
11
0.8467655511811023
21
0.3894228346456693
0
LINE
8
BLACK
6
CONTINUOUS
10
0.8467655511811023
20
0.3894228346456693
11
0.8464566929133858
21
0.3927165354330708
0
LINE
8
BLACK
6
CONTINUOUS
10
0.8464566929133858
20
0.3927165354330708
11
0.8464566929133858
21
0.4124015748031496
0
LINE
8
BLACK
6
CONTINUOUS
10
0.8464566929133858
20
0.4124015748031496
11
0.8467655511811023
21
0.4156952755905512
0
LINE
8
BLACK
6
CONTINUOUS
10
0.8467655511811023
20
0.4156952755905512
11
0.8485097637795276
21
0.4206799606299212
0
LINE
8
BLACK
6
CONTINUOUS
10
0.8485097637795276
20
0.4206799606299212
11
0.8516457480314961
21
0.4249290551181102
0
LINE
8
BLACK
6
CONTINUOUS
10
0.8516457480314961
20
0.4249290551181102
11
0.8558948425196851
21
0.4280650393700787
0
LINE
8
BLACK
6
CONTINUOUS
10
0.8558948425196851
20
0.4280650393700787
11
0.8608795275590551
21
0.4298092519685039
0
LINE
8
BLACK
6
CONTINUOUS
10
0.8608795275590551
20
0.4298092519685039
11
0.8641732283464567
21
0.4301181102362205
0
LINE
8
BLACK
6
CONTINUOUS
10
0.8641732283464567
20
0.4301181102362205
11
0.9507874015748031
21
0.4301181102362205
0
LINE
8
BLACK
6
CONTINUOUS
10
0.9507874015748031
20
0.4301181102362205
11
0.9540811023622047
21
0.4298092519685039
0
LINE
8
BLACK
6
CONTINUOUS
10
0.9540811023622047
20
0.5302029527559055
11
0.9590657874015748
21
0.5284587401574803
0
LINE
8
BLACK
6
CONTINUOUS
10
0.9590657874015748
20
0.5284587401574803
11
0.9633148818897638
21
0.5253227559055118
0
LINE
8
BLACK
6
CONTINUOUS
10
0.9633148818897638
20
0.5253227559055118
11
0.9664508661417323
21
0.5210736614173228
0
LINE
8
BLACK
6
CONTINUOUS
10
0.9664508661417323
20
0.5210736614173228
11
0.9681950787401574
21
0.5160889763779527
0
LINE
8
BLACK
6
CONTINUOUS
10
0.9681950787401574
20
0.5160889763779527
11
0.968503937007874
21
0.5127952755905512
0
LINE
8
BLACK
6
CONTINUOUS
10
0.968503937007874
20
0.5127952755905512
11
0.968503937007874
21
0.4931102362204725
0
LINE
8
BLACK
6
CONTINUOUS
10
0.968503937007874
20
0.4931102362204725
11
0.9681950787401574
21
0.4898165354330709
0
LINE
8
BLACK
6
CONTINUOUS
10
0.9681950787401574
20
0.4898165354330709
11
0.9664508661417323
21
0.4848318503937008
0
LINE
8
BLACK
6
CONTINUOUS
10
0.9664508661417323
20
0.4848318503937008
11
0.9633148818897638
21
0.4805827559055118
0
LINE
8
BLACK
6
CONTINUOUS
10
0.9633148818897638
20
0.4805827559055118
11
0.9590657874015748
21
0.4774467716535433
0
LINE
8
BLACK
6
CONTINUOUS
10
0.9590657874015748
20
0.4774467716535433
11
0.9540811023622047
21
0.4757025590551181
0
LINE
8
BLACK
6
CONTINUOUS
10
0.9540811023622047
20
0.4757025590551181
11
0.9507874015748031
21
0.4753937007874016
0
LINE
8
BLACK
6
CONTINUOUS
10
0.9507874015748031
20
0.4753937007874016
11
0.8641732283464567
21
0.4753937007874016
0
LINE
8
BLACK
6
CONTINUOUS
10
0.8641732283464567
20
0.4753937007874016
11
0.8608795275590551
21
0.4757025590551181
0
LINE
8
BLACK
6
CONTINUOUS
10
0.8608795275590551
20
0.4757025590551181
11
0.8558948425196851
21
0.4774467716535433
0
LINE
8
BLACK
6
CONTINUOUS
10
0.8558948425196851
20
0.4774467716535433
11
0.8516457480314961
21
0.4805827559055118
0
LINE
8
BLACK
6
CONTINUOUS
10
0.8516457480314961
20
0.4805827559055118
11
0.8485097637795276
21
0.4848318503937008
0
LINE
8
BLACK
6
CONTINUOUS
10
0.8485097637795276
20
0.4848318503937008
11
0.8467655511811023
21
0.4898165354330709
0
LINE
8
BLACK
6
CONTINUOUS
10
0.8467655511811023
20
0.4898165354330709
11
0.8464566929133858
21
0.4931102362204725
0
LINE
8
BLACK
6
CONTINUOUS
10
0.8464566929133858
20
0.4931102362204725
11
0.8464566929133858
21
0.5127952755905512
0
LINE
8
BLACK
6
CONTINUOUS
10
0.8464566929133858
20
0.5127952755905512
11
0.8467655511811023
21
0.5160889763779527
0
LINE
8
BLACK
6
CONTINUOUS
10
0.8467655511811023
20
0.5160889763779527
11
0.8485097637795276
21
0.5210736614173228
0
LINE
8
BLACK
6
CONTINUOUS
10
0.8485097637795276
20
0.5210736614173228
11
0.8516457480314961
21
0.5253227559055118
0
LINE
8
BLACK
6
CONTINUOUS
10
0.8516457480314961
20
0.5253227559055118
11
0.8558948425196851
21
0.5284587401574803
0
LINE
8
BLACK
6
CONTINUOUS
10
0.8558948425196851
20
0.5284587401574803
11
0.8608795275590551
21
0.5302029527559055
0
LINE
8
BLACK
6
CONTINUOUS
10
0.8608795275590551
20
0.5302029527559055
11
0.8641732283464567
21
0.530511811023622
0
LINE
8
BLACK
6
CONTINUOUS
10
0.8641732283464567
20
0.530511811023622
11
0.9507874015748031
21
0.530511811023622
0
LINE
8
BLACK
6
CONTINUOUS
10
0.9507874015748031
20
0.530511811023622
11
0.9540811023622047
21
0.5302029527559055
0
LINE
8
BLACK
6
CONTINUOUS
10
0.8129869291338583
20
0.5948996062992126
11
0.8170620866141732
21
0.5929073622047244
0
LINE
8
BLACK
6
CONTINUOUS
10
0.8170620866141732
20
0.5929073622047244
11
0.8202695669291339
21
0.5896998818897637
0
LINE
8
BLACK
6
CONTINUOUS
10
0.8202695669291339
20
0.5896998818897637
11
0.8222618110236221
21
0.5856247244094488
0
LINE
8
BLACK
6
CONTINUOUS
10
0.8222618110236221
20
0.5856247244094488
11
0.8228346456692913
21
0.5816929133858267
0
LINE
8
BLACK
6
CONTINUOUS
10
0.8228346456692913
20
0.5816929133858267
11
0.8228346456692913
21
0.5698818897637795
0
LINE
8
BLACK
6
CONTINUOUS
10
0.8228346456692913
20
0.5698818897637795
11
0.8222618110236221
21
0.5659500787401575
0
LINE
8
BLACK
6
CONTINUOUS
10
0.8222618110236221
20
0.5659500787401575
11
0.8202695669291339
21
0.5618749212598425
0
LINE
8
BLACK
6
CONTINUOUS
10
0.8202695669291339
20
0.5618749212598425
11
0.8170620866141732
21
0.5586674409448819
0
LINE
8
BLACK
6
CONTINUOUS
10
0.8170620866141732
20
0.5586674409448819
11
0.8129869291338583
21
0.5566751968503937
0
LINE
8
BLACK
6
CONTINUOUS
10
0.8129869291338583
20
0.5566751968503937
11
0.8090551181102362
21
0.5561023622047244
0
LINE
8
BLACK
6
CONTINUOUS
10
0.8090551181102362
20
0.5561023622047244
11
0.7539370078740157
21
0.5561023622047244
0
LINE
8
BLACK
6
CONTINUOUS
10
0.7539370078740157
20
0.5561023622047244
11
0.7500051968503937
21
0.5566751968503937
0
LINE
8
BLACK
6
CONTINUOUS
10
0.7500051968503937
20
0.5566751968503937
11
0.7459300393700787
21
0.5586674409448819
0
LINE
8
BLACK
6
CONTINUOUS
10
0.7459300393700787
20
0.5586674409448819
11
0.7427225590551181
21
0.5618749212598425
0
LINE
8
BLACK
6
CONTINUOUS
10
0.7427225590551181
20
0.5618749212598425
11
0.7407303149606299
21
0.5659500787401575
0
LINE
8
BLACK
6
CONTINUOUS
10
0.7407303149606299
20
0.5659500787401575
11
0.7401574803149606
21
0.5698818897637795
0
LINE
8
BLACK
6
CONTINUOUS
10
0.7401574803149606
20
0.5698818897637795
11
0.7401574803149606
21
0.5816929133858267
0
LINE
8
BLACK
6
CONTINUOUS
10
0.7401574803149606
20
0.5816929133858267
11
0.7407303149606299
21
0.5856247244094488
0
LINE
8
BLACK
6
CONTINUOUS
10
0.7407303149606299
20
0.5856247244094488
11
0.7427225590551181
21
0.5896998818897637
0
LINE
8
BLACK
6
CONTINUOUS
10
0.7427225590551181
20
0.5896998818897637
11
0.7459300393700787
21
0.5929073622047244
0
LINE
8
BLACK
6
CONTINUOUS
10
0.7459300393700787
20
0.5929073622047244
11
0.7500051968503937
21
0.5948996062992126
0
LINE
8
BLACK
6
CONTINUOUS
10
0.7500051968503937
20
0.5948996062992126
11
0.7539370078740157
21
0.5954724409448818
0
LINE
8
BLACK
6
CONTINUOUS
10
0.7539370078740157
20
0.5954724409448818
11
0.8090551181102362
21
0.5954724409448818
0
LINE
8
BLACK
6
CONTINUOUS
10
0.8090551181102362
20
0.5954724409448818
11
0.8129869291338583
21
0.5948996062992126
0
LINE
8
BLACK
6
CONTINUOUS
10
0.5757662992125984
20
0.7024395275590551
11
0.5813122047244095
21
0.7016421259842519
0
LINE
8
BLACK
6
CONTINUOUS
10
0.5813122047244095
20
0.7016421259842519
11
0.5834625196850394
21
0.7010107480314961
0
LINE
8
BLACK
6
CONTINUOUS
10
0.5834625196850394
20
0.7010107480314961
11
0.5885591338582677
21
0.6986832283464567
0
LINE
8
BLACK
6
CONTINUOUS
10
0.5885591338582677
20
0.6986832283464567
11
0.5904445669291338
21
0.6974715354330708
0
LINE
8
BLACK
6
CONTINUOUS
10
0.5904445669291338
20
0.6974715354330708
11
0.5946790157480315
21
0.6938023622047244
0
LINE
8
BLACK
6
CONTINUOUS
10
0.5946790157480315
20
0.6938023622047244
11
0.5961466535433071
21
0.6921086220472441
0
LINE
8
BLACK
6
CONTINUOUS
10
0.5961466535433071
20
0.6921086220472441
11
0.5991758267716535
21
0.687395157480315
0
LINE
8
BLACK
6
CONTINUOUS
10
0.5991758267716535
20
0.687395157480315
11
0.6001068897637795
21
0.6853564960629921
0
LINE
8
BLACK
6
CONTINUOUS
10
0.6001068897637795
20
0.6853564960629921
11
0.6016854330708661
21
0.6799804724409448
0
LINE
8
BLACK
6
CONTINUOUS
10
0.6016854330708661
20
0.6799804724409448
11
0.6020043700787402
21
0.6777620866141733
0
LINE
8
BLACK
6
CONTINUOUS
10
0.6020043700787402
20
0.6777620866141733
11
0.6020043700787402
21
0.6759679133858267
0
LINE
8
BLACK
6
CONTINUOUS
10
0.6020043700787402
20
0.6759679133858267
11
0.6022047244094488
21
0.6749606299212598
0
LINE
8
BLACK
6
CONTINUOUS
10
0.6022047244094488
20
0.6749606299212598
11
0.6022047244094488
21
0.6552755905511811
0
LINE
8
BLACK
6
CONTINUOUS
10
0.6022047244094488
20
0.6552755905511811
11
0.6016053543307086
21
0.6522623228346457
0
LINE
8
BLACK
6
CONTINUOUS
10
0.6016053543307086
20
0.6522623228346457
11
0.5998984645669291
21
0.6497078346456693
0
LINE
8
BLACK
6
CONTINUOUS
10
0.5998984645669291
20
0.6497078346456693
11
0.5993929527559055
21
0.6493700787401575
0
LINE
8
BLACK
6
CONTINUOUS
10
0.5993929527559055
20
0.6493700787401575
11
0.5998984645669291
21
0.6490323228346456
0
LINE
8
BLACK
6
CONTINUOUS
10
0.5998984645669291
20
0.6490323228346456
11
0.6016053543307086
21
0.6464778346456693
0
LINE
8
BLACK
6
CONTINUOUS
10
0.6016053543307086
20
0.6464778346456693
11
0.6022047244094488
21
0.6434645669291339
0
LINE
8
BLACK
6
CONTINUOUS
10
0.6022047244094488
20
0.6434645669291339
11
0.6022047244094488
21
0.6237795275590551
0
LINE
8
BLACK
6
CONTINUOUS
10
0.6022047244094488
20
0.6237795275590551
11
0.6020043700787402
21
0.6227722834645669
0
LINE
8
BLACK
6
CONTINUOUS
10
0.6020043700787402
20
0.6227722834645669
11
0.6020043700787402
21
0.6209780708661418
0
LINE
8
BLACK
6
CONTINUOUS
10
0.6020043700787402
20
0.6209780708661418
11
0.6016854330708661
21
0.6187596850393701
0
LINE
8
BLACK
6
CONTINUOUS
10
0.6016854330708661
20
0.6187596850393701
11
0.6001068897637795
21
0.6133836614173228
0
LINE
8
BLACK
6
CONTINUOUS
10
0.6001068897637795
20
0.6133836614173228
11
0.5991758267716535
21
0.611345
0
LINE
8
BLACK
6
CONTINUOUS
10
0.5991758267716535
20
0.611345
11
0.5961466535433071
21
0.6066315354330708
0
LINE
8
BLACK
6
CONTINUOUS
10
0.5961466535433071
20
0.6066315354330708
11
0.5946790157480315
21
0.6049377952755906
0
LINE
8
BLACK
6
CONTINUOUS
10
0.5946790157480315
20
0.6049377952755906
11
0.5904445669291338
21
0.6012686220472441
0
LINE
8
BLACK
6
CONTINUOUS
10
0.5904445669291338
20
0.6012686220472441
11
0.5885591338582677
21
0.6000569291338582
0
LINE
8
BLACK
6
CONTINUOUS
10
0.5885591338582677
20
0.6000569291338582
11
0.5834625196850394
21
0.5977294094488189
0
LINE
8
BLACK
6
CONTINUOUS
10
0.5834625196850394
20
0.5977294094488189
11
0.5813122047244095
21
0.597098031496063
0
LINE
8
BLACK
6
CONTINUOUS
10
0.5813122047244095
20
0.597098031496063
11
0.5757662992125984
21
0.5963006299212599
0
LINE
8
BLACK
6
CONTINUOUS
10
0.5757662992125984
20
0.5963006299212599
11
0.5746456692913385
21
0.5962204724409449
0
LINE
8
BLACK
6
CONTINUOUS
10
0.5746456692913385
20
0.5962204724409449
11
0.5549606299212598
21
0.5962204724409449
0
LINE
8
BLACK
6
CONTINUOUS
10
0.5549606299212598
20
0.5962204724409449
11
0.55384
21
0.5963006299212599
0
LINE
8
BLACK
6
CONTINUOUS
10
0.55384
20
0.5963006299212599
11
0.548294094488189
21
0.597098031496063
0
LINE
8
BLACK
6
CONTINUOUS
10
0.548294094488189
20
0.597098031496063
11
0.546143779527559
21
0.5977294094488189
0
LINE
8
BLACK
6
CONTINUOUS
10
0.546143779527559
20
0.5977294094488189
11
0.5410471653543307
21
0.6000569291338582
0
LINE
8
BLACK
6
CONTINUOUS
10
0.5410471653543307
20
0.6000569291338582
11
0.5391617322834645
21
0.6012686220472441
0
LINE
8
BLACK
6
CONTINUOUS
10
0.5391617322834645
20
0.6012686220472441
11
0.534927283464567
21
0.6049377952755906
0
LINE
8
BLACK
6
CONTINUOUS
10
0.534927283464567
20
0.6049377952755906
11
0.5334596456692913
21
0.6066315354330708
0
LINE
8
BLACK
6
CONTINUOUS
10
0.5334596456692913
20
0.6066315354330708
11
0.5304304724409449
21
0.611345
0
LINE
8
BLACK
6
CONTINUOUS
10
0.5304304724409449
20
0.611345
11
0.5294994094488189
21
0.6133836614173228
0
LINE
8
BLACK
6
CONTINUOUS
10
0.5294994094488189
20
0.6133836614173228
11
0.5279208661417323
21
0.6187596850393701
0
LINE
8
BLACK
6
CONTINUOUS
10
0.5279208661417323
20
0.6187596850393701
11
0.5276019291338583
21
0.6209780708661418
0
LINE
8
BLACK
6
CONTINUOUS
10
0.5276019291338583
20
0.6209780708661418
11
0.5276019291338583
21
0.6227722834645669
0
LINE
8
BLACK
6
CONTINUOUS
10
0.5276019291338583
20
0.6227722834645669
11
0.5274015748031496
21
0.6237795275590551
0
LINE
8
BLACK
6
CONTINUOUS
10
0.5274015748031496
20
0.6237795275590551
11
0.5274015748031496
21
0.6434645669291339
0
LINE
8
BLACK
6
CONTINUOUS
10
0.5274015748031496
20
0.6434645669291339
11
0.5280009448818898
21
0.6464778346456693
0
LINE
8
BLACK
6
CONTINUOUS
10
0.5280009448818898
20
0.6464778346456693
11
0.5297078346456693
21
0.6490323228346456
0
LINE
8
BLACK
6
CONTINUOUS
10
0.5297078346456693
20
0.6490323228346456
11
0.5302133070866142
21
0.6493700787401575
0
LINE
8
BLACK
6
CONTINUOUS
10
0.5302133070866142
20
0.6493700787401575
11
0.5297078346456693
21
0.6497078346456693
0
LINE
8
BLACK
6
CONTINUOUS
10
0.5297078346456693
20
0.6497078346456693
11
0.5280009448818898
21
0.6522623228346457
0
LINE
8
BLACK
6
CONTINUOUS
10
0.5280009448818898
20
0.6522623228346457
11
0.5274015748031496
21
0.6552755905511811
0
LINE
8
BLACK
6
CONTINUOUS
10
0.5274015748031496
20
0.6552755905511811
11
0.5274015748031496
21
0.6749606299212598
0
LINE
8
BLACK
6
CONTINUOUS
10
0.5274015748031496
20
0.6749606299212598
11
0.5276019291338583
21
0.6759679133858267
0
LINE
8
BLACK
6
CONTINUOUS
10
0.5276019291338583
20
0.6759679133858267
11
0.5276019291338583
21
0.6777620866141733
0
LINE
8
BLACK
6
CONTINUOUS
10
0.5276019291338583
20
0.6777620866141733
11
0.5279208661417323
21
0.6799804724409448
0
LINE
8
BLACK
6
CONTINUOUS
10
0.5279208661417323
20
0.6799804724409448
11
0.5294994094488189
21
0.6853564960629921
0
LINE
8
BLACK
6
CONTINUOUS
10
0.5294994094488189
20
0.6853564960629921
11
0.5304304724409449
21
0.687395157480315
0
LINE
8
BLACK
6
CONTINUOUS
10
0.5304304724409449
20
0.687395157480315
11
0.5334596456692913
21
0.6921086220472441
0
LINE
8
BLACK
6
CONTINUOUS
10
0.5334596456692913
20
0.6921086220472441
11
0.534927283464567
21
0.6938023622047244
0
LINE
8
BLACK
6
CONTINUOUS
10
0.534927283464567
20
0.6938023622047244
11
0.5391617322834645
21
0.6974715354330708
0
LINE
8
BLACK
6
CONTINUOUS
10
0.5391617322834645
20
0.6974715354330708
11
0.5410471653543307
21
0.6986832283464567
0
LINE
8
BLACK
6
CONTINUOUS
10
0.5410471653543307
20
0.6986832283464567
11
0.546143779527559
21
0.7010107480314961
0
LINE
8
BLACK
6
CONTINUOUS
10
0.546143779527559
20
0.7010107480314961
11
0.548294094488189
21
0.7016421259842519
0
LINE
8
BLACK
6
CONTINUOUS
10
0.548294094488189
20
0.7016421259842519
11
0.55384
21
0.7024395275590551
0
LINE
8
BLACK
6
CONTINUOUS
10
0.55384
20
0.7024395275590551
11
0.5549606299212598
21
0.70251968503937
0
LINE
8
BLACK
6
CONTINUOUS
10
0.5549606299212598
20
0.70251968503937
11
0.5746456692913385
21
0.70251968503937
0
LINE
8
BLACK
6
CONTINUOUS
10
0.5746456692913385
20
0.70251968503937
11
0.5757662992125984
21
0.7024395275590551
0
LINE
8
BLACK
6
CONTINUOUS
10
0.8129869291338583
20
0.6441122047244094
11
0.8170620866141732
21
0.6421199606299213
0
LINE
8
BLACK
6
CONTINUOUS
10
0.8170620866141732
20
0.6421199606299213
11
0.8202695669291339
21
0.6389124803149606
0
LINE
8
BLACK
6
CONTINUOUS
10
0.8202695669291339
20
0.6389124803149606
11
0.8222618110236221
21
0.6348373228346457
0
LINE
8
BLACK
6
CONTINUOUS
10
0.8222618110236221
20
0.6348373228346457
11
0.8228346456692913
21
0.6309055118110236
0
LINE
8
BLACK
6
CONTINUOUS
10
0.8228346456692913
20
0.6309055118110236
11
0.8228346456692913
21
0.6190944881889764
0
LINE
8
BLACK
6
CONTINUOUS
10
0.8228346456692913
20
0.6190944881889764
11
0.8222618110236221
21
0.6151626771653543
0
LINE
8
BLACK
6
CONTINUOUS
10
0.8222618110236221
20
0.6151626771653543
11
0.8202695669291339
21
0.6110875196850394
0
LINE
8
BLACK
6
CONTINUOUS
10
0.8202695669291339
20
0.6110875196850394
11
0.8170620866141732
21
0.6078800393700787
0
LINE
8
BLACK
6
CONTINUOUS
10
0.8170620866141732
20
0.6078800393700787
11
0.8129869291338583
21
0.6058877952755906
0
LINE
8
BLACK
6
CONTINUOUS
10
0.8129869291338583
20
0.6058877952755906
11
0.8090551181102362
21
0.6053149606299213
0
LINE
8
BLACK
6
CONTINUOUS
10
0.8090551181102362
20
0.6053149606299213
11
0.7539370078740157
21
0.6053149606299213
0
LINE
8
BLACK
6
CONTINUOUS
10
0.7539370078740157
20
0.6053149606299213
11
0.7500051968503937
21
0.6058877952755906
0
LINE
8
BLACK
6
CONTINUOUS
10
0.7500051968503937
20
0.6058877952755906
11
0.7459300393700787
21
0.6078800393700787
0
LINE
8
BLACK
6
CONTINUOUS
10
0.7459300393700787
20
0.6078800393700787
11
0.7427225590551181
21
0.6110875196850394
0
LINE
8
BLACK
6
CONTINUOUS
10
0.7427225590551181
20
0.6110875196850394
11
0.7407303149606299
21
0.6151626771653543
0
LINE
8
BLACK
6
CONTINUOUS
10
0.7407303149606299
20
0.6151626771653543
11
0.7401574803149606
21
0.6190944881889764
0
LINE
8
BLACK
6
CONTINUOUS
10
0.7401574803149606
20
0.6190944881889764
11
0.7401574803149606
21
0.6309055118110236
0
LINE
8
BLACK
6
CONTINUOUS
10
0.7401574803149606
20
0.6309055118110236
11
0.7407303149606299
21
0.6348373228346457
0
LINE
8
BLACK
6
CONTINUOUS
10
0.7407303149606299
20
0.6348373228346457
11
0.7427225590551181
21
0.6389124803149606
0
LINE
8
BLACK
6
CONTINUOUS
10
0.7427225590551181
20
0.6389124803149606
11
0.7459300393700787
21
0.6421199606299213
0
LINE
8
BLACK
6
CONTINUOUS
10
0.7459300393700787
20
0.6421199606299213
11
0.7500051968503937
21
0.6441122047244094
0
LINE
8
BLACK
6
CONTINUOUS
10
0.7500051968503937
20
0.6441122047244094
11
0.7539370078740157
21
0.6446850393700787
0
LINE
8
BLACK
6
CONTINUOUS
10
0.7539370078740157
20
0.6446850393700787
11
0.8090551181102362
21
0.6446850393700787
0
LINE
8
BLACK
6
CONTINUOUS
10
0.8090551181102362
20
0.6446850393700787
11
0.8129869291338583
21
0.6441122047244094
0
LINE
8
BLACK
6
CONTINUOUS
10
0.8129869291338583
20
0.6933248031496063
11
0.8170620866141732
21
0.6913325590551181
0
LINE
8
BLACK
6
CONTINUOUS
10
0.8170620866141732
20
0.6913325590551181
11
0.8202695669291339
21
0.6881250787401575
0
LINE
8
BLACK
6
CONTINUOUS
10
0.8202695669291339
20
0.6881250787401575
11
0.8222618110236221
21
0.6840499212598425
0
LINE
8
BLACK
6
CONTINUOUS
10
0.8222618110236221
20
0.6840499212598425
11
0.8228346456692913
21
0.6801181102362205
0
LINE
8
BLACK
6
CONTINUOUS
10
0.8228346456692913
20
0.6801181102362205
11
0.8228346456692913
21
0.6683070866141733
0
LINE
8
BLACK
6
CONTINUOUS
10
0.8228346456692913
20
0.6683070866141733
11
0.8222618110236221
21
0.6643752755905512
0
LINE
8
BLACK
6
CONTINUOUS
10
0.8222618110236221
20
0.6643752755905512
11
0.8202695669291339
21
0.6603001181102363
0
LINE
8
BLACK
6
CONTINUOUS
10
0.8202695669291339
20
0.6603001181102363
11
0.8170620866141732
21
0.6570926377952756
0
LINE
8
BLACK
6
CONTINUOUS
10
0.8170620866141732
20
0.6570926377952756
11
0.8129869291338583
21
0.6551003937007874
0
LINE
8
BLACK
6
CONTINUOUS
10
0.8129869291338583
20
0.6551003937007874
11
0.8090551181102362
21
0.6545275590551181
0
LINE
8
BLACK
6
CONTINUOUS
10
0.8090551181102362
20
0.6545275590551181
11
0.7539370078740157
21
0.6545275590551181
0
LINE
8
BLACK
6
CONTINUOUS
10
0.7539370078740157
20
0.6545275590551181
11
0.7500051968503937
21
0.6551003937007874
0
LINE
8
BLACK
6
CONTINUOUS
10
0.7500051968503937
20
0.6551003937007874
11
0.7459300393700787
21
0.6570926377952756
0
LINE
8
BLACK
6
CONTINUOUS
10
0.7459300393700787
20
0.6570926377952756
11
0.7427225590551181
21
0.6603001181102363
0
LINE
8
BLACK
6
CONTINUOUS
10
0.7427225590551181
20
0.6603001181102363
11
0.7407303149606299
21
0.6643752755905512
0
LINE
8
BLACK
6
CONTINUOUS
10
0.7407303149606299
20
0.6643752755905512
11
0.7401574803149606
21
0.6683070866141733
0
LINE
8
BLACK
6
CONTINUOUS
10
0.7401574803149606
20
0.6683070866141733
11
0.7401574803149606
21
0.6801181102362205
0
LINE
8
BLACK
6
CONTINUOUS
10
0.7401574803149606
20
0.6801181102362205
11
0.7407303149606299
21
0.6840499212598425
0
LINE
8
BLACK
6
CONTINUOUS
10
0.7407303149606299
20
0.6840499212598425
11
0.7427225590551181
21
0.6881250787401575
0
LINE
8
BLACK
6
CONTINUOUS
10
0.7427225590551181
20
0.6881250787401575
11
0.7459300393700787
21
0.6913325590551181
0
LINE
8
BLACK
6
CONTINUOUS
10
0.7459300393700787
20
0.6913325590551181
11
0.7500051968503937
21
0.6933248031496063
0
LINE
8
BLACK
6
CONTINUOUS
10
0.7500051968503937
20
0.6933248031496063
11
0.7539370078740157
21
0.6938976377952756
0
LINE
8
BLACK
6
CONTINUOUS
10
0.7539370078740157
20
0.6938976377952756
11
0.8090551181102362
21
0.6938976377952756
0
LINE
8
BLACK
6
CONTINUOUS
10
0.8090551181102362
20
0.6938976377952756
11
0.8129869291338583
21
0.6933248031496063
0
LINE
8
BLACK
6
CONTINUOUS
10
0.8129869291338583
20
0.7425374015748031
11
0.8170620866141732
21
0.7405451574803149
0
LINE
8
BLACK
6
CONTINUOUS
10
0.8170620866141732
20
0.7405451574803149
11
0.8202695669291339
21
0.7373376771653544
0
LINE
8
BLACK
6
CONTINUOUS
10
0.8202695669291339
20
0.7373376771653544
11
0.8222618110236221
21
0.7332625196850393
0
LINE
8
BLACK
6
CONTINUOUS
10
0.8222618110236221
20
0.7332625196850393
11
0.8228346456692913
21
0.7293307086614174
0
LINE
8
BLACK
6
CONTINUOUS
10
0.8228346456692913
20
0.7293307086614174
11
0.8228346456692913
21
0.71751968503937
0
LINE
8
BLACK
6
CONTINUOUS
10
0.8228346456692913
20
0.71751968503937
11
0.8222618110236221
21
0.713587874015748
0
LINE
8
BLACK
6
CONTINUOUS
10
0.8222618110236221
20
0.713587874015748
11
0.8202695669291339
21
0.709512716535433
0
LINE
8
BLACK
6
CONTINUOUS
10
0.8202695669291339
20
0.709512716535433
11
0.8170620866141732
21
0.7063052362204725
0
LINE
8
BLACK
6
CONTINUOUS
10
0.8170620866141732
20
0.7063052362204725
11
0.8129869291338583
21
0.7043129921259842
0
LINE
8
BLACK
6
CONTINUOUS
10
0.8129869291338583
20
0.7043129921259842
11
0.8090551181102362
21
0.7037401574803149
0
LINE
8
BLACK
6
CONTINUOUS
10
0.8090551181102362
20
0.7037401574803149
11
0.7539370078740157
21
0.7037401574803149
0
LINE
8
BLACK
6
CONTINUOUS
10
0.7539370078740157
20
0.7037401574803149
11
0.7500051968503937
21
0.7043129921259842
0
LINE
8
BLACK
6
CONTINUOUS
10
0.7500051968503937
20
0.7043129921259842
11
0.7459300393700787
21
0.7063052362204725
0
LINE
8
BLACK
6
CONTINUOUS
10
0.7459300393700787
20
0.7063052362204725
11
0.7427225590551181
21
0.709512716535433
0
LINE
8
BLACK
6
CONTINUOUS
10
0.7427225590551181
20
0.709512716535433
11
0.7407303149606299
21
0.713587874015748
0
LINE
8
BLACK
6
CONTINUOUS
10
0.7407303149606299
20
0.713587874015748
11
0.7401574803149606
21
0.71751968503937
0
LINE
8
BLACK
6
CONTINUOUS
10
0.7401574803149606
20
0.71751968503937
11
0.7401574803149606
21
0.7293307086614174
0
LINE
8
BLACK
6
CONTINUOUS
10
0.7401574803149606
20
0.7293307086614174
11
0.7407303149606299
21
0.7332625196850393
0
LINE
8
BLACK
6
CONTINUOUS
10
0.7407303149606299
20
0.7332625196850393
11
0.7427225590551181
21
0.7373376771653544
0
LINE
8
BLACK
6
CONTINUOUS
10
0.7427225590551181
20
0.7373376771653544
11
0.7459300393700787
21
0.7405451574803149
0
LINE
8
BLACK
6
CONTINUOUS
10
0.7459300393700787
20
0.7405451574803149
11
0.7500051968503937
21
0.7425374015748031
0
LINE
8
BLACK
6
CONTINUOUS
10
0.7500051968503937
20
0.7425374015748031
11
0.7539370078740157
21
0.7431102362204725
0
LINE
8
BLACK
6
CONTINUOUS
10
0.7539370078740157
20
0.7431102362204725
11
0.8090551181102362
21
0.7431102362204725
0
LINE
8
BLACK
6
CONTINUOUS
10
0.8090551181102362
20
0.7431102362204725
11
0.8129869291338583
21
0.7425374015748031
0
LINE
8
BLACK
6
CONTINUOUS
10
0.9540811023622047
20
0.8235100393700787
11
0.9590657874015748
21
0.8217658267716536
0
LINE
8
BLACK
6
CONTINUOUS
10
0.9590657874015748
20
0.8217658267716536
11
0.9633148818897638
21
0.8186298425196851
0
LINE
8
BLACK
6
CONTINUOUS
10
0.9633148818897638
20
0.8186298425196851
11
0.9664508661417323
21
0.8143807480314961
0
LINE
8
BLACK
6
CONTINUOUS
10
0.9664508661417323
20
0.8143807480314961
11
0.9681950787401574
21
0.809396062992126
0
LINE
8
BLACK
6
CONTINUOUS
10
0.9681950787401574
20
0.809396062992126
11
0.968503937007874
21
0.8061023622047244
0
LINE
8
BLACK
6
CONTINUOUS
10
0.968503937007874
20
0.8061023622047244
11
0.968503937007874
21
0.7864173228346456
0
LINE
8
BLACK
6
CONTINUOUS
10
0.968503937007874
20
0.7864173228346456
11
0.9681950787401574
21
0.7831236220472441
0
LINE
8
BLACK
6
CONTINUOUS
10
0.9681950787401574
20
0.7831236220472441
11
0.9664508661417323
21
0.778138937007874
0
LINE
8
BLACK
6
CONTINUOUS
10
0.9664508661417323
20
0.778138937007874
11
0.9633148818897638
21
0.7738898425196851
0
LINE
8
BLACK
6
CONTINUOUS
10
0.9633148818897638
20
0.7738898425196851
11
0.9590657874015748
21
0.7707538582677165
0
LINE
8
BLACK
6
CONTINUOUS
10
0.9590657874015748
20
0.7707538582677165
11
0.9540811023622047
21
0.7690096456692913
0
LINE
8
BLACK
6
CONTINUOUS
10
0.9540811023622047
20
0.7690096456692913
11
0.9507874015748031
21
0.7687007874015748
0
LINE
8
BLACK
6
CONTINUOUS
10
0.9507874015748031
20
0.7687007874015748
11
0.8641732283464567
21
0.7687007874015748
0
LINE
8
BLACK
6
CONTINUOUS
10
0.8641732283464567
20
0.7687007874015748
11
0.8608795275590551
21
0.7690096456692913
0
LINE
8
BLACK
6
CONTINUOUS
10
0.8608795275590551
20
0.7690096456692913
11
0.8558948425196851
21
0.7707538582677165
0
LINE
8
BLACK
6
CONTINUOUS
10
0.8558948425196851
20
0.7707538582677165
11
0.8516457480314961
21
0.7738898425196851
0
LINE
8
BLACK
6
CONTINUOUS
10
0.8516457480314961
20
0.7738898425196851
11
0.8485097637795276
21
0.778138937007874
0
LINE
8
BLACK
6
CONTINUOUS
10
0.8485097637795276
20
0.778138937007874
11
0.8467655511811023
21
0.7831236220472441
0
LINE
8
BLACK
6
CONTINUOUS
10
0.8467655511811023
20
0.7831236220472441
11
0.8464566929133858
21
0.7864173228346456
0
LINE
8
BLACK
6
CONTINUOUS
10
0.8464566929133858
20
0.7864173228346456
11
0.8464566929133858
21
0.8061023622047244
0
LINE
8
BLACK
6
CONTINUOUS
10
0.8464566929133858
20
0.8061023622047244
11
0.8467655511811023
21
0.809396062992126
0
LINE
8
BLACK
6
CONTINUOUS
10
0.8467655511811023
20
0.809396062992126
11
0.8485097637795276
21
0.8143807480314961
0
LINE
8
BLACK
6
CONTINUOUS
10
0.8485097637795276
20
0.8143807480314961
11
0.8516457480314961
21
0.8186298425196851
0
LINE
8
BLACK
6
CONTINUOUS
10
0.8516457480314961
20
0.8186298425196851
11
0.8558948425196851
21
0.8217658267716536
0
LINE
8
BLACK
6
CONTINUOUS
10
0.8558948425196851
20
0.8217658267716536
11
0.8608795275590551
21
0.8235100393700787
0
LINE
8
BLACK
6
CONTINUOUS
10
0.8608795275590551
20
0.8235100393700787
11
0.8641732283464567
21
0.8238188976377953
0
LINE
8
BLACK
6
CONTINUOUS
10
0.8641732283464567
20
0.8238188976377953
11
0.9507874015748031
21
0.8238188976377953
0
LINE
8
BLACK
6
CONTINUOUS
10
0.9507874015748031
20
0.8238188976377953
11
0.9540811023622047
21
0.8235100393700787
0
LINE
8
BLACK
6
CONTINUOUS
10
0.1129223622047244
20
0.962759842519685
11
0.1221473622047244
21
0.9595929133858268
0
LINE
8
BLACK
6
CONTINUOUS
10
0.1221473622047244
20
0.9595929133858268
11
0.1307252755905512
21
0.9549507874015748
0
LINE
8
BLACK
6
CONTINUOUS
10
0.1307252755905512
20
0.9549507874015748
11
0.138422125984252
21
0.9489600787401574
0
LINE
8
BLACK
6
CONTINUOUS
10
0.138422125984252
20
0.9489600787401574
11
0.1450279921259842
21
0.9417842125984252
0
LINE
8
BLACK
6
CONTINUOUS
10
0.1450279921259842
20
0.9417842125984252
11
0.1503626377952756
21
0.933618937007874
0
LINE
8
BLACK
6
CONTINUOUS
10
0.1503626377952756
20
0.933618937007874
11
0.1542805511811024
21
0.9246869685039369
0
LINE
8
BLACK
6
CONTINUOUS
10
0.1542805511811024
20
0.9246869685039369
11
0.1566748818897638
21
0.915231968503937
0
LINE
8
BLACK
6
CONTINUOUS
10
0.1566748818897638
20
0.915231968503937
11
0.1574803149606299
21
0.905511811023622
0
LINE
8
BLACK
6
CONTINUOUS
10
0.1574803149606299
20
0.905511811023622
11
0.1566748818897638
21
0.895791653543307
0
LINE
8
BLACK
6
CONTINUOUS
10
0.1566748818897638
20
0.895791653543307
11
0.1542805511811024
21
0.886336653543307
0
LINE
8
BLACK
6
CONTINUOUS
10
0.1542805511811024
20
0.886336653543307
11
0.1503626377952756
21
0.8774046850393701
0
LINE
8
BLACK
6
CONTINUOUS
10
0.1503626377952756
20
0.8774046850393701
11
0.1450279921259842
21
0.8692394094488188
0
LINE
8
BLACK
6
CONTINUOUS
10
0.1450279921259842
20
0.8692394094488188
11
0.138422125984252
21
0.8620635433070866
0
LINE
8
BLACK
6
CONTINUOUS
10
0.138422125984252
20
0.8620635433070866
11
0.1307252755905512
21
0.8560728346456693
0
LINE
8
BLACK
6
CONTINUOUS
10
0.1307252755905512
20
0.8560728346456693
11
0.1221473622047244
21
0.8514307086614173
0
LINE
8
BLACK
6
CONTINUOUS
10
0.1221473622047244
20
0.8514307086614173
11
0.1129223622047244
21
0.848263779527559
0
LINE
8
BLACK
6
CONTINUOUS
10
0.1129223622047244
20
0.848263779527559
11
0.1033019291338583
21
0.8466583858267717
0
LINE
8
BLACK
6
CONTINUOUS
10
0.1033019291338583
20
0.8466583858267717
11
0.0935484645669291
21
0.8466583858267717
0
LINE
8
BLACK
6
CONTINUOUS
10
0.0935484645669291
20
0.8466583858267717
11
0.083928031496063
21
0.848263779527559
0
LINE
8
BLACK
6
CONTINUOUS
10
0.083928031496063
20
0.848263779527559
11
0.074703031496063
21
0.8514307086614173
0
LINE
8
BLACK
6
CONTINUOUS
10
0.074703031496063
20
0.8514307086614173
11
0.0661251181102362
21
0.8560728346456693
0
LINE
8
BLACK
6
CONTINUOUS
10
0.0661251181102362
20
0.8560728346456693
11
0.0584282677165354
21
0.8620635433070866
0
LINE
8
BLACK
6
CONTINUOUS
10
0.0584282677165354
20
0.8620635433070866
11
0.0518224015748031
21
0.8692394094488188
0
LINE
8
BLACK
6
CONTINUOUS
10
0.0518224015748031
20
0.8692394094488188
11
0.0464877559055118
21
0.8774046850393701
0
LINE
8
BLACK
6
CONTINUOUS
10
0.0464877559055118
20
0.8774046850393701
11
0.042569842519685
21
0.886336653543307
0
LINE
8
BLACK
6
CONTINUOUS
10
0.042569842519685
20
0.886336653543307
11
0.0401755118110236
21
0.895791653543307
0
LINE
8
BLACK
6
CONTINUOUS
10
0.0401755118110236
20
0.895791653543307
11
0.0393700787401575
21
0.905511811023622
0
LINE
8
BLACK
6
CONTINUOUS
10
0.0393700787401575
20
0.905511811023622
11
0.0401755118110236
21
0.915231968503937
0
LINE
8
BLACK
6
CONTINUOUS
10
0.0401755118110236
20
0.915231968503937
11
0.042569842519685
21
0.9246869685039369
0
LINE
8
BLACK
6
CONTINUOUS
10
0.042569842519685
20
0.9246869685039369
11
0.0464877559055118
21
0.933618937007874
0
LINE
8
BLACK
6
CONTINUOUS
10
0.0464877559055118
20
0.933618937007874
11
0.0518224015748031
21
0.9417842125984252
0
LINE
8
BLACK
6
CONTINUOUS
10
0.0518224015748031
20
0.9417842125984252
11
0.0584282677165354
21
0.9489600787401574
0
LINE
8
BLACK
6
CONTINUOUS
10
0.0584282677165354
20
0.9489600787401574
11
0.0661251181102362
21
0.9549507874015748
0
LINE
8
BLACK
6
CONTINUOUS
10
0.0661251181102362
20
0.9549507874015748
11
0.074703031496063
21
0.9595929133858268
0
LINE
8
BLACK
6
CONTINUOUS
10
0.074703031496063
20
0.9595929133858268
11
0.083928031496063
21
0.962759842519685
0
LINE
8
BLACK
6
CONTINUOUS
10
0.083928031496063
20
0.962759842519685
11
0.0935484645669291
21
0.9643652362204724
0
LINE
8
BLACK
6
CONTINUOUS
10
0.0935484645669291
20
0.9643652362204724
11
0.1033019291338583
21
0.9643652362204724
0
LINE
8
BLACK
6
CONTINUOUS
10
0.1033019291338583
20
0.9643652362204724
11
0.1129223622047244
21
0.962759842519685
0
LINE
8
BLACK
6
CONTINUOUS
10
0.5066231496062992
20
0.962759842519685
11
0.5158481496062992
21
0.9595929133858268
0
LINE
8
BLACK
6
CONTINUOUS
10
0.5158481496062992
20
0.9595929133858268
11
0.524426062992126
21
0.9549507874015748
0
LINE
8
BLACK
6
CONTINUOUS
10
0.524426062992126
20
0.9549507874015748
11
0.5321229133858267
21
0.9489600787401574
0
LINE
8
BLACK
6
CONTINUOUS
10
0.5321229133858267
20
0.9489600787401574
11
0.538728779527559
21
0.9417842125984252
0
LINE
8
BLACK
6
CONTINUOUS
10
0.538728779527559
20
0.9417842125984252
11
0.5440634251968504
21
0.933618937007874
0
LINE
8
BLACK
6
CONTINUOUS
10
0.5440634251968504
20
0.933618937007874
11
0.5479813385826772
21
0.9246869685039369
0
LINE
8
BLACK
6
CONTINUOUS
10
0.5479813385826772
20
0.9246869685039369
11
0.5503756692913385
21
0.915231968503937
0
LINE
8
BLACK
6
CONTINUOUS
10
0.5503756692913385
20
0.915231968503937
11
0.5511811023622047
21
0.905511811023622
0
LINE
8
BLACK
6
CONTINUOUS
10
0.5511811023622047
20
0.905511811023622
11
0.5503756692913385
21
0.895791653543307
0
LINE
8
BLACK
6
CONTINUOUS
10
0.5503756692913385
20
0.895791653543307
11
0.5479813385826772
21
0.886336653543307
0
LINE
8
BLACK
6
CONTINUOUS
10
0.5479813385826772
20
0.886336653543307
11
0.5440634251968504
21
0.8774046850393701
0
LINE
8
BLACK
6
CONTINUOUS
10
0.5440634251968504
20
0.8774046850393701
11
0.538728779527559
21
0.8692394094488188
0
LINE
8
BLACK
6
CONTINUOUS
10
0.538728779527559
20
0.8692394094488188
11
0.5321229133858267
21
0.8620635433070866
0
LINE
8
BLACK
6
CONTINUOUS
10
0.5321229133858267
20
0.8620635433070866
11
0.524426062992126
21
0.8560728346456693
0
LINE
8
BLACK
6
CONTINUOUS
10
0.524426062992126
20
0.8560728346456693
11
0.5158481496062992
21
0.8514307086614173
0
LINE
8
BLACK
6
CONTINUOUS
10
0.5158481496062992
20
0.8514307086614173
11
0.5066231496062992
21
0.848263779527559
0
LINE
8
BLACK
6
CONTINUOUS
10
0.5066231496062992
20
0.848263779527559
11
0.497002716535433
21
0.8466583858267717
0
LINE
8
BLACK
6
CONTINUOUS
10
0.497002716535433
20
0.8466583858267717
11
0.4872492519685039
21
0.8466583858267717
0
LINE
8
BLACK
6
CONTINUOUS
10
0.4872492519685039
20
0.8466583858267717
11
0.4776288188976378
21
0.848263779527559
0
LINE
8
BLACK
6
CONTINUOUS
10
0.4776288188976378
20
0.848263779527559
11
0.4684038188976378
21
0.8514307086614173
0
LINE
8
BLACK
6
CONTINUOUS
10
0.4684038188976378
20
0.8514307086614173
11
0.459825905511811
21
0.8560728346456693
0
LINE
8
BLACK
6
CONTINUOUS
10
0.459825905511811
20
0.8560728346456693
11
0.4521290551181102
21
0.8620635433070866
0
LINE
8
BLACK
6
CONTINUOUS
10
0.4521290551181102
20
0.8620635433070866
11
0.4455231889763779
21
0.8692394094488188
0
LINE
8
BLACK
6
CONTINUOUS
10
0.4455231889763779
20
0.8692394094488188
11
0.4401885433070866
21
0.8774046850393701
0
LINE
8
BLACK
6
CONTINUOUS
10
0.4401885433070866
20
0.8774046850393701
11
0.4362706299212598
21
0.886336653543307
0
LINE
8
BLACK
6
CONTINUOUS
10
0.4362706299212598
20
0.886336653543307
11
0.4338762992125984
21
0.895791653543307
0
LINE
8
BLACK
6
CONTINUOUS
10
0.4338762992125984
20
0.895791653543307
11
0.4330708661417323
21
0.905511811023622
0
LINE
8
BLACK
6
CONTINUOUS
10
0.4330708661417323
20
0.905511811023622
11
0.4338762992125984
21
0.915231968503937
0
LINE
8
BLACK
6
CONTINUOUS
10
0.4338762992125984
20
0.915231968503937
11
0.4362706299212598
21
0.9246869685039369
0
LINE
8
BLACK
6
CONTINUOUS
10
0.4362706299212598
20
0.9246869685039369
11
0.4401885433070866
21
0.933618937007874
0
LINE
8
BLACK
6
CONTINUOUS
10
0.4401885433070866
20
0.933618937007874
11
0.4455231889763779
21
0.9417842125984252
0
LINE
8
BLACK
6
CONTINUOUS
10
0.4455231889763779
20
0.9417842125984252
11
0.4521290551181102
21
0.9489600787401574
0
LINE
8
BLACK
6
CONTINUOUS
10
0.4521290551181102
20
0.9489600787401574
11
0.459825905511811
21
0.9549507874015748
0
LINE
8
BLACK
6
CONTINUOUS
10
0.459825905511811
20
0.9549507874015748
11
0.4684038188976378
21
0.9595929133858268
0
LINE
8
BLACK
6
CONTINUOUS
10
0.4684038188976378
20
0.9595929133858268
11
0.4776288188976378
21
0.962759842519685
0
LINE
8
BLACK
6
CONTINUOUS
10
0.4776288188976378
20
0.962759842519685
11
0.4872492519685039
21
0.9643652362204724
0
LINE
8
BLACK
6
CONTINUOUS
10
0.4872492519685039
20
0.9643652362204724
11
0.497002716535433
21
0.9643652362204724
0
LINE
8
BLACK
6
CONTINUOUS
10
0.497002716535433
20
0.9643652362204724
11
0.5066231496062992
21
0.962759842519685
0
LINE
8
BLACK
6
CONTINUOUS
10
0.9003239370078739
20
0.962759842519685
11
0.909548937007874
21
0.9595929133858268
0
LINE
8
BLACK
6
CONTINUOUS
10
0.909548937007874
20
0.9595929133858268
11
0.9181268503937008
21
0.9549507874015748
0
LINE
8
BLACK
6
CONTINUOUS
10
0.9181268503937008
20
0.9549507874015748
11
0.9258237007874015
21
0.9489600787401574
0
LINE
8
BLACK
6
CONTINUOUS
10
0.9258237007874015
20
0.9489600787401574
11
0.9324295669291338
21
0.9417842125984252
0
LINE
8
BLACK
6
CONTINUOUS
10
0.9324295669291338
20
0.9417842125984252
11
0.9377642125984251
21
0.933618937007874
0
LINE
8
BLACK
6
CONTINUOUS
10
0.9377642125984251
20
0.933618937007874
11
0.9416821259842519
21
0.9246869685039369
0
LINE
8
BLACK
6
CONTINUOUS
10
0.9416821259842519
20
0.9246869685039369
11
0.9440764566929134
21
0.915231968503937
0
LINE
8
BLACK
6
CONTINUOUS
10
0.9440764566929134
20
0.915231968503937
11
0.9448818897637795
21
0.905511811023622
0
LINE
8
BLACK
6
CONTINUOUS
10
0.9448818897637795
20
0.905511811023622
11
0.9440764566929134
21
0.895791653543307
0
LINE
8
BLACK
6
CONTINUOUS
10
0.9440764566929134
20
0.895791653543307
11
0.9416821259842519
21
0.886336653543307
0
LINE
8
BLACK
6
CONTINUOUS
10
0.9416821259842519
20
0.886336653543307
11
0.9377642125984251
21
0.8774046850393701
0
LINE
8
BLACK
6
CONTINUOUS
10
0.9377642125984251
20
0.8774046850393701
11
0.9324295669291338
21
0.8692394094488188
0
LINE
8
BLACK
6
CONTINUOUS
10
0.9324295669291338
20
0.8692394094488188
11
0.9258237007874015
21
0.8620635433070866
0
LINE
8
BLACK
6
CONTINUOUS
10
0.9258237007874015
20
0.8620635433070866
11
0.9181268503937008
21
0.8560728346456693
0
LINE
8
BLACK
6
CONTINUOUS
10
0.9181268503937008
20
0.8560728346456693
11
0.909548937007874
21
0.8514307086614173
0
LINE
8
BLACK
6
CONTINUOUS
10
0.909548937007874
20
0.8514307086614173
11
0.9003239370078739
21
0.848263779527559
0
LINE
8
BLACK
6
CONTINUOUS
10
0.9003239370078739
20
0.848263779527559
11
0.8907035039370078
21
0.8466583858267717
0
LINE
8
BLACK
6
CONTINUOUS
10
0.8907035039370078
20
0.8466583858267717
11
0.8809500393700788
21
0.8466583858267717
0
LINE
8
BLACK
6
CONTINUOUS
10
0.8809500393700788
20
0.8466583858267717
11
0.8713296062992126
21
0.848263779527559
0
LINE
8
BLACK
6
CONTINUOUS
10
0.8713296062992126
20
0.848263779527559
11
0.8621046062992126
21
0.8514307086614173
0
LINE
8
BLACK
6
CONTINUOUS
10
0.8621046062992126
20
0.8514307086614173
11
0.8535266929133858
21
0.8560728346456693
0
LINE
8
BLACK
6
CONTINUOUS
10
0.8535266929133858
20
0.8560728346456693
11
0.8458298425196851
21
0.8620635433070866
0
LINE
8
BLACK
6
CONTINUOUS
10
0.8458298425196851
20
0.8620635433070866
11
0.8392239763779528
21
0.8692394094488188
0
LINE
8
BLACK
6
CONTINUOUS
10
0.8392239763779528
20
0.8692394094488188
11
0.8338893307086614
21
0.8774046850393701
0
LINE
8
BLACK
6
CONTINUOUS
10
0.8338893307086614
20
0.8774046850393701
11
0.8299714173228346
21
0.886336653543307
0
LINE
8
BLACK
6
CONTINUOUS
10
0.8299714173228346
20
0.886336653543307
11
0.8275770866141732
21
0.895791653543307
0
LINE
8
BLACK
6
CONTINUOUS
10
0.8275770866141732
20
0.895791653543307
11
0.8267716535433071
21
0.905511811023622
0
LINE
8
BLACK
6
CONTINUOUS
10
0.8267716535433071
20
0.905511811023622
11
0.8275770866141732
21
0.915231968503937
0
LINE
8
BLACK
6
CONTINUOUS
10
0.8275770866141732
20
0.915231968503937
11
0.8299714173228346
21
0.9246869685039369
0
LINE
8
BLACK
6
CONTINUOUS
10
0.8299714173228346
20
0.9246869685039369
11
0.8338893307086614
21
0.933618937007874
0
LINE
8
BLACK
6
CONTINUOUS
10
0.8338893307086614
20
0.933618937007874
11
0.8392239763779528
21
0.9417842125984252
0
LINE
8
BLACK
6
CONTINUOUS
10
0.8392239763779528
20
0.9417842125984252
11
0.8458298425196851
21
0.9489600787401574
0
LINE
8
BLACK
6
CONTINUOUS
10
0.8458298425196851
20
0.9489600787401574
11
0.8535266929133858
21
0.9549507874015748
0
LINE
8
BLACK
6
CONTINUOUS
10
0.8535266929133858
20
0.9549507874015748
11
0.8621046062992126
21
0.9595929133858268
0
LINE
8
BLACK
6
CONTINUOUS
10
0.8621046062992126
20
0.9595929133858268
11
0.8713296062992126
21
0.962759842519685
0
LINE
8
BLACK
6
CONTINUOUS
10
0.8713296062992126
20
0.962759842519685
11
0.8809500393700788
21
0.9643652362204724
0
LINE
8
BLACK
6
CONTINUOUS
10
0.8809500393700788
20
0.9643652362204724
11
0.8907035039370078
21
0.9643652362204724
0
LINE
8
BLACK
6
CONTINUOUS
10
0.8907035039370078
20
0.9643652362204724
11
0.9003239370078739
21
0.962759842519685
  0
ENDSEC
  0
EOF
