  0
SECTION
  2
HEADER
  9
$ANGBASE
  50
0.0
  9
$ANGDIR
  70
1
  9
$MEASUREMENT
  70
0
  0
ENDSEC
  0
SECTION
  2
TABLES
  0
TABLE
  2
LTYPE
  70
4
  0
LTYPE
  5
40F
  2
CONTINUOUS
  70
0
  3
Solid line
  72
65
  73
0
  40
0.0
  0
LTYPE
  5
410
  2
DASHDOT
 70
0
  3
Dash Dot ____ _ ____ _
 72
65
 73
4
 40
2.0
 49
1.25
 49
-0.25
 49
0.25
 49
-0.25
  0
LTYPE
  5
411
  2
DASHED
 70
0
  3
Dashed __ __ __ __ __
 72
65
 73
2
 40
0.75
 49
0.5
 49
-0.25
  0
LTYPE
  5
43B
  2
DOTTED
 70
0
  3
Dotted .  .  .  .
 72
65
 73
2
 40
0.2
 49
0.0
 49
-0.2
  0
ENDTAB
  0
TABLE
  2
STYLE
  70
4
  0
STYLE
  2
KICAD
  70
0
  40
0
  41
1
  42
1
  50
0
  71
0
  3
isocp.shx
  0
STYLE
  2
KICADB
  70
0
  40
0
  41
1
  42
1
  50
0
  71
0
  3
isocp.shx
  0
STYLE
  2
KICADI
  70
0
  40
0
  41
1
  42
1
  50
15
  71
0
  3
isocp.shx
  0
STYLE
  2
KICADBI
  70
0
  40
0
  41
1
  42
1
  50
15
  71
0
  3
isocp.shx
  0
ENDTAB
  0
TABLE
  2
LAYER
  70
1
  0
LAYER
  2
BLACK
  70
0
  62
7
  6
CONTINUOUS
  0
ENDTAB
  0
ENDSEC
  0
SECTION
  2
ENTITIES
0
LINE
8
BLACK
6
CONTINUOUS
10
0.497684
20
0.058793
11
0.507211
21
0.0570959
0
LINE
8
BLACK
6
CONTINUOUS
10
0.507211
20
0.0570959
11
0.516334
21
0.0538654
0
LINE
8
BLACK
6
CONTINUOUS
10
0.516334
20
0.0538654
11
0.524807
21
0.0491883
0
LINE
8
BLACK
6
CONTINUOUS
10
0.524807
20
0.0491883
11
0.532401
21
0.0431902
0
LINE
8
BLACK
6
CONTINUOUS
10
0.532401
20
0.0431902
11
0.538915
21
0.0360322
0
LINE
8
BLACK
6
CONTINUOUS
10
0.538915
20
0.0360322
11
0.544171
21
0.0279065
0
LINE
8
BLACK
6
CONTINUOUS
10
0.544171
20
0.0279065
11
0.54803
21
0.0190315
0
LINE
8
BLACK
6
CONTINUOUS
10
0.54803
20
0.0190315
11
0.550388
21
0.00964524
0
LINE
8
BLACK
6
CONTINUOUS
10
0.550388
20
0.00964524
11
0.551181
21
0
0
LINE
8
BLACK
6
CONTINUOUS
10
0.551181
20
0
11
0.551111
21
-0.00288484
0
LINE
8
BLACK
6
CONTINUOUS
10
0.551111
20
-0.00288484
11
0.549847
21
-0.0124798
0
LINE
8
BLACK
6
CONTINUOUS
10
0.549847
20
-0.0124798
11
0.547034
21
-0.0217396
0
LINE
8
BLACK
6
CONTINUOUS
10
0.547034
20
-0.0217396
11
0.542746
21
-0.0304156
0
LINE
8
BLACK
6
CONTINUOUS
10
0.542746
20
-0.0304156
11
0.537099
21
-0.0382748
0
LINE
8
BLACK
6
CONTINUOUS
10
0.537099
20
-0.0382748
11
0.530244
21
-0.0451061
0
LINE
8
BLACK
6
CONTINUOUS
10
0.530244
20
-0.0451061
11
0.522365
21
-0.050726
0
LINE
8
BLACK
6
CONTINUOUS
10
0.522365
20
-0.050726
11
0.513674
21
-0.0549836
0
LINE
8
BLACK
6
CONTINUOUS
10
0.513674
20
-0.0549836
11
0.504404
21
-0.0577646
0
LINE
8
BLACK
6
CONTINUOUS
10
0.504404
20
-0.0577646
11
0.494805
21
-0.0589943
0
LINE
8
BLACK
6
CONTINUOUS
10
0.494805
20
-0.0589943
11
0.485134
21
-0.0586397
0
LINE
8
BLACK
6
CONTINUOUS
10
0.485134
20
-0.0586397
11
0.47565
21
-0.0567103
0
LINE
8
BLACK
6
CONTINUOUS
10
0.47565
20
-0.0567103
11
0.466609
21
-0.0532578
0
LINE
8
BLACK
6
CONTINUOUS
10
0.466609
20
-0.0532578
11
0.458253
21
-0.0483751
0
LINE
8
BLACK
6
CONTINUOUS
10
0.458253
20
-0.0483751
11
0.450807
21
-0.0421933
0
LINE
8
BLACK
6
CONTINUOUS
10
0.450807
20
-0.0421933
11
0.444471
21
-0.0348783
0
LINE
8
BLACK
6
CONTINUOUS
10
0.444471
20
-0.0348783
11
0.439414
21
-0.0266266
0
LINE
8
BLACK
6
CONTINUOUS
10
0.439414
20
-0.0266266
11
0.435773
21
-0.0176599
0
LINE
8
BLACK
6
CONTINUOUS
10
0.435773
20
-0.0176599
11
0.433646
21
-0.0082189
0
LINE
8
BLACK
6
CONTINUOUS
10
0.433646
20
-0.0082189
11
0.433089
21
0.00144283
0
LINE
8
BLACK
6
CONTINUOUS
10
0.433089
20
0.00144283
11
0.434117
21
0.0110658
0
LINE
8
BLACK
6
CONTINUOUS
10
0.434117
20
0.0110658
11
0.436703
21
0.0203916
0
LINE
8
BLACK
6
CONTINUOUS
10
0.436703
20
0.0203916
11
0.440778
21
0.0291698
0
LINE
8
BLACK
6
CONTINUOUS
10
0.440778
20
0.0291698
11
0.446232
21
0.0371646
0
LINE
8
BLACK
6
CONTINUOUS
10
0.446232
20
0.0371646
11
0.452918
21
0.0441613
0
LINE
8
BLACK
6
CONTINUOUS
10
0.452918
20
0.0441613
11
0.460657
21
0.049972
0
LINE
8
BLACK
6
CONTINUOUS
10
0.460657
20
0.049972
11
0.469241
21
0.0544407
0
LINE
8
BLACK
6
CONTINUOUS
10
0.469241
20
0.0544407
11
0.47844
21
0.0574474
0
LINE
8
BLACK
6
CONTINUOUS
10
0.47844
20
0.0574474
11
0.488006
21
0.0589113
0
LINE
8
BLACK
6
CONTINUOUS
10
0.488006
20
0.0589113
11
0.497684
21
0.058793
0
LINE
8
BLACK
6
CONTINUOUS
10
0.103983
20
0.058793
11
0.113511
21
0.0570959
0
LINE
8
BLACK
6
CONTINUOUS
10
0.113511
20
0.0570959
11
0.122633
21
0.0538654
0
LINE
8
BLACK
6
CONTINUOUS
10
0.122633
20
0.0538654
11
0.131106
21
0.0491883
0
LINE
8
BLACK
6
CONTINUOUS
10
0.131106
20
0.0491883
11
0.138701
21
0.0431902
0
LINE
8
BLACK
6
CONTINUOUS
10
0.138701
20
0.0431902
11
0.145214
21
0.0360322
0
LINE
8
BLACK
6
CONTINUOUS
10
0.145214
20
0.0360322
11
0.150471
21
0.0279065
0
LINE
8
BLACK
6
CONTINUOUS
10
0.150471
20
0.0279065
11
0.15433
21
0.0190315
0
LINE
8
BLACK
6
CONTINUOUS
10
0.15433
20
0.0190315
11
0.156687
21
0.00964524
0
LINE
8
BLACK
6
CONTINUOUS
10
0.156687
20
0.00964524
11
0.15748
21
0
0
LINE
8
BLACK
6
CONTINUOUS
10
0.15748
20
0
11
0.15741
21
-0.00288484
0
LINE
8
BLACK
6
CONTINUOUS
10
0.15741
20
-0.00288484
11
0.156147
21
-0.0124798
0
LINE
8
BLACK
6
CONTINUOUS
10
0.156147
20
-0.0124798
11
0.153333
21
-0.0217396
0
LINE
8
BLACK
6
CONTINUOUS
10
0.153333
20
-0.0217396
11
0.149045
21
-0.0304156
0
LINE
8
BLACK
6
CONTINUOUS
10
0.149045
20
-0.0304156
11
0.143398
21
-0.0382748
0
LINE
8
BLACK
6
CONTINUOUS
10
0.143398
20
-0.0382748
11
0.136543
21
-0.0451061
0
LINE
8
BLACK
6
CONTINUOUS
10
0.136543
20
-0.0451061
11
0.128664
21
-0.050726
0
LINE
8
BLACK
6
CONTINUOUS
10
0.128664
20
-0.050726
11
0.119973
21
-0.0549836
0
LINE
8
BLACK
6
CONTINUOUS
10
0.119973
20
-0.0549836
11
0.110703
21
-0.0577646
0
LINE
8
BLACK
6
CONTINUOUS
10
0.110703
20
-0.0577646
11
0.101104
21
-0.0589943
0
LINE
8
BLACK
6
CONTINUOUS
10
0.101104
20
-0.0589943
11
0.0914328
21
-0.0586397
0
LINE
8
BLACK
6
CONTINUOUS
10
0.0914328
20
-0.0586397
11
0.0819493
21
-0.0567103
0
LINE
8
BLACK
6
CONTINUOUS
10
0.0819493
20
-0.0567103
11
0.0729083
21
-0.0532578
0
LINE
8
BLACK
6
CONTINUOUS
10
0.0729083
20
-0.0532578
11
0.0645526
21
-0.0483751
0
LINE
8
BLACK
6
CONTINUOUS
10
0.0645526
20
-0.0483751
11
0.0571065
21
-0.0421933
0
LINE
8
BLACK
6
CONTINUOUS
10
0.0571065
20
-0.0421933
11
0.0507701
21
-0.0348783
0
LINE
8
BLACK
6
CONTINUOUS
10
0.0507701
20
-0.0348783
11
0.0457134
21
-0.0266266
0
LINE
8
BLACK
6
CONTINUOUS
10
0.0457134
20
-0.0266266
11
0.0420724
21
-0.0176599
0
LINE
8
BLACK
6
CONTINUOUS
10
0.0420724
20
-0.0176599
11
0.0399448
21
-0.0082189
0
LINE
8
BLACK
6
CONTINUOUS
10
0.0399448
20
-0.0082189
11
0.0393877
21
0.00144283
0
LINE
8
BLACK
6
CONTINUOUS
10
0.0393877
20
0.00144283
11
0.0404161
21
0.0110658
0
LINE
8
BLACK
6
CONTINUOUS
10
0.0404161
20
0.0110658
11
0.0430024
21
0.0203916
0
LINE
8
BLACK
6
CONTINUOUS
10
0.0430024
20
0.0203916
11
0.0470771
21
0.0291698
0
LINE
8
BLACK
6
CONTINUOUS
10
0.0470771
20
0.0291698
11
0.0525307
21
0.0371646
0
LINE
8
BLACK
6
CONTINUOUS
10
0.0525307
20
0.0371646
11
0.059217
21
0.0441613
0
LINE
8
BLACK
6
CONTINUOUS
10
0.059217
20
0.0441613
11
0.0669561
21
0.049972
0
LINE
8
BLACK
6
CONTINUOUS
10
0.0669561
20
0.049972
11
0.0755404
21
0.0544407
0
LINE
8
BLACK
6
CONTINUOUS
10
0.0755404
20
0.0544407
11
0.0847393
21
0.0574474
0
LINE
8
BLACK
6
CONTINUOUS
10
0.0847393
20
0.0574474
11
0.0943057
21
0.0589113
0
LINE
8
BLACK
6
CONTINUOUS
10
0.0943057
20
0.0589113
11
0.103983
21
0.058793
0
LINE
8
BLACK
6
CONTINUOUS
10
0.891384
20
0.058793
11
0.900912
21
0.0570959
0
LINE
8
BLACK
6
CONTINUOUS
10
0.900912
20
0.0570959
11
0.910035
21
0.0538654
0
LINE
8
BLACK
6
CONTINUOUS
10
0.910035
20
0.0538654
11
0.918507
21
0.0491883
0
LINE
8
BLACK
6
CONTINUOUS
10
0.918507
20
0.0491883
11
0.926102
21
0.0431902
0
LINE
8
BLACK
6
CONTINUOUS
10
0.926102
20
0.0431902
11
0.932616
21
0.0360322
0
LINE
8
BLACK
6
CONTINUOUS
10
0.932616
20
0.0360322
11
0.937872
21
0.0279065
0
LINE
8
BLACK
6
CONTINUOUS
10
0.937872
20
0.0279065
11
0.941731
21
0.0190315
0
LINE
8
BLACK
6
CONTINUOUS
10
0.941731
20
0.0190315
11
0.944089
21
0.00964524
0
LINE
8
BLACK
6
CONTINUOUS
10
0.944089
20
0.00964524
11
0.944882
21
0
0
LINE
8
BLACK
6
CONTINUOUS
10
0.944882
20
0
11
0.944811
21
-0.00288484
0
LINE
8
BLACK
6
CONTINUOUS
10
0.944811
20
-0.00288484
11
0.943548
21
-0.0124798
0
LINE
8
BLACK
6
CONTINUOUS
10
0.943548
20
-0.0124798
11
0.940735
21
-0.0217396
0
LINE
8
BLACK
6
CONTINUOUS
10
0.940735
20
-0.0217396
11
0.936447
21
-0.0304156
0
LINE
8
BLACK
6
CONTINUOUS
10
0.936447
20
-0.0304156
11
0.930799
21
-0.0382748
0
LINE
8
BLACK
6
CONTINUOUS
10
0.930799
20
-0.0382748
11
0.923944
21
-0.0451061
0
LINE
8
BLACK
6
CONTINUOUS
10
0.923944
20
-0.0451061
11
0.916066
21
-0.050726
0
LINE
8
BLACK
6
CONTINUOUS
10
0.916066
20
-0.050726
11
0.907375
21
-0.0549836
0
LINE
8
BLACK
6
CONTINUOUS
10
0.907375
20
-0.0549836
11
0.898105
21
-0.0577646
0
LINE
8
BLACK
6
CONTINUOUS
10
0.898105
20
-0.0577646
11
0.888506
21
-0.0589943
0
LINE
8
BLACK
6
CONTINUOUS
10
0.888506
20
-0.0589943
11
0.878834
21
-0.0586397
0
LINE
8
BLACK
6
CONTINUOUS
10
0.878834
20
-0.0586397
11
0.869351
21
-0.0567103
0
LINE
8
BLACK
6
CONTINUOUS
10
0.869351
20
-0.0567103
11
0.86031
21
-0.0532578
0
LINE
8
BLACK
6
CONTINUOUS
10
0.86031
20
-0.0532578
11
0.851954
21
-0.0483751
0
LINE
8
BLACK
6
CONTINUOUS
10
0.851954
20
-0.0483751
11
0.844508
21
-0.0421933
0
LINE
8
BLACK
6
CONTINUOUS
10
0.844508
20
-0.0421933
11
0.838172
21
-0.0348783
0
LINE
8
BLACK
6
CONTINUOUS
10
0.838172
20
-0.0348783
11
0.833115
21
-0.0266266
0
LINE
8
BLACK
6
CONTINUOUS
10
0.833115
20
-0.0266266
11
0.829474
21
-0.0176599
0
LINE
8
BLACK
6
CONTINUOUS
10
0.829474
20
-0.0176599
11
0.827346
21
-0.0082189
0
LINE
8
BLACK
6
CONTINUOUS
10
0.827346
20
-0.0082189
11
0.826789
21
0.00144283
0
LINE
8
BLACK
6
CONTINUOUS
10
0.826789
20
0.00144283
11
0.827818
21
0.0110658
0
LINE
8
BLACK
6
CONTINUOUS
10
0.827818
20
0.0110658
11
0.830404
21
0.0203916
0
LINE
8
BLACK
6
CONTINUOUS
10
0.830404
20
0.0203916
11
0.834479
21
0.0291698
0
LINE
8
BLACK
6
CONTINUOUS
10
0.834479
20
0.0291698
11
0.839932
21
0.0371646
0
LINE
8
BLACK
6
CONTINUOUS
10
0.839932
20
0.0371646
11
0.846619
21
0.0441613
0
LINE
8
BLACK
6
CONTINUOUS
10
0.846619
20
0.0441613
11
0.854358
21
0.049972
0
LINE
8
BLACK
6
CONTINUOUS
10
0.854358
20
0.049972
11
0.862942
21
0.0544407
0
LINE
8
BLACK
6
CONTINUOUS
10
0.862942
20
0.0544407
11
0.872141
21
0.0574474
0
LINE
8
BLACK
6
CONTINUOUS
10
0.872141
20
0.0574474
11
0.881707
21
0.0589113
0
LINE
8
BLACK
6
CONTINUOUS
10
0.881707
20
0.0589113
11
0.891384
21
0.058793
0
LINE
8
BLACK
6
CONTINUOUS
10
0.973792
20
0.136497
11
0.978763
21
0.134752
0
LINE
8
BLACK
6
CONTINUOUS
10
0.978763
20
0.134752
11
0.983
21
0.131622
0
LINE
8
BLACK
6
CONTINUOUS
10
0.983
20
0.131622
11
0.98613
21
0.127385
0
LINE
8
BLACK
6
CONTINUOUS
10
0.98613
20
0.127385
11
0.987875
21
0.122414
0
LINE
8
BLACK
6
CONTINUOUS
10
0.987875
20
0.122414
11
0.988189
21
0.119094
0
LINE
8
BLACK
6
CONTINUOUS
10
0.988189
20
0.119094
11
0.988189
21
0.0994094
0
LINE
8
BLACK
6
CONTINUOUS
10
0.988189
20
0.0994094
11
0.987875
21
0.0960897
0
LINE
8
BLACK
6
CONTINUOUS
10
0.987875
20
0.0960897
11
0.98613
21
0.0911194
0
LINE
8
BLACK
6
CONTINUOUS
10
0.98613
20
0.0911194
11
0.983
21
0.086882
0
LINE
8
BLACK
6
CONTINUOUS
10
0.983
20
0.086882
11
0.978763
21
0.0837522
0
LINE
8
BLACK
6
CONTINUOUS
10
0.978763
20
0.0837522
11
0.973792
21
0.0820067
0
LINE
8
BLACK
6
CONTINUOUS
10
0.973792
20
0.0820067
11
0.970472
21
0.0816929
0
LINE
8
BLACK
6
CONTINUOUS
10
0.970472
20
0.0816929
11
0.883858
21
0.0816929
0
LINE
8
BLACK
6
CONTINUOUS
10
0.883858
20
0.0816929
11
0.880539
21
0.0820067
0
LINE
8
BLACK
6
CONTINUOUS
10
0.880539
20
0.0820067
11
0.875568
21
0.0837522
0
LINE
8
BLACK
6
CONTINUOUS
10
0.875568
20
0.0837522
11
0.871331
21
0.086882
0
LINE
8
BLACK
6
CONTINUOUS
10
0.871331
20
0.086882
11
0.868201
21
0.0911194
0
LINE
8
BLACK
6
CONTINUOUS
10
0.868201
20
0.0911194
11
0.866456
21
0.0960897
0
LINE
8
BLACK
6
CONTINUOUS
10
0.866456
20
0.0960897
11
0.866142
21
0.0994094
0
LINE
8
BLACK
6
CONTINUOUS
10
0.866142
20
0.0994094
11
0.866142
21
0.119094
0
LINE
8
BLACK
6
CONTINUOUS
10
0.866142
20
0.119094
11
0.866456
21
0.122414
0
LINE
8
BLACK
6
CONTINUOUS
10
0.866456
20
0.122414
11
0.868201
21
0.127385
0
LINE
8
BLACK
6
CONTINUOUS
10
0.868201
20
0.127385
11
0.871331
21
0.131622
0
LINE
8
BLACK
6
CONTINUOUS
10
0.871331
20
0.131622
11
0.875568
21
0.134752
0
LINE
8
BLACK
6
CONTINUOUS
10
0.875568
20
0.134752
11
0.880539
21
0.136497
0
LINE
8
BLACK
6
CONTINUOUS
10
0.880539
20
0.136497
11
0.883858
21
0.136811
0
LINE
8
BLACK
6
CONTINUOUS
10
0.883858
20
0.136811
11
0.970472
21
0.136811
0
LINE
8
BLACK
6
CONTINUOUS
10
0.970472
20
0.136811
11
0.973792
21
0.136497
0
LINE
8
BLACK
6
CONTINUOUS
10
0.832677
20
0.201197
11
0.836742
21
0.19921
0
LINE
8
BLACK
6
CONTINUOUS
10
0.836742
20
0.19921
11
0.839944
21
0.196014
0
LINE
8
BLACK
6
CONTINUOUS
10
0.839944
20
0.196014
11
0.841939
21
0.191952
0
LINE
8
BLACK
6
CONTINUOUS
10
0.841939
20
0.191952
11
0.84252
21
0.187992
0
LINE
8
BLACK
6
CONTINUOUS
10
0.84252
20
0.187992
11
0.84252
21
0.176181
0
LINE
8
BLACK
6
CONTINUOUS
10
0.84252
20
0.176181
11
0.841945
21
0.172244
0
LINE
8
BLACK
6
CONTINUOUS
10
0.841945
20
0.172244
11
0.839958
21
0.168179
0
LINE
8
BLACK
6
CONTINUOUS
10
0.839958
20
0.168179
11
0.836762
21
0.164977
0
LINE
8
BLACK
6
CONTINUOUS
10
0.836762
20
0.164977
11
0.8327
21
0.162983
0
LINE
8
BLACK
6
CONTINUOUS
10
0.8327
20
0.162983
11
0.82874
21
0.162402
0
LINE
8
BLACK
6
CONTINUOUS
10
0.82874
20
0.162402
11
0.773622
21
0.162402
0
LINE
8
BLACK
6
CONTINUOUS
10
0.773622
20
0.162402
11
0.769685
21
0.162976
0
LINE
8
BLACK
6
CONTINUOUS
10
0.769685
20
0.162976
11
0.76562
21
0.164963
0
LINE
8
BLACK
6
CONTINUOUS
10
0.76562
20
0.164963
11
0.762418
21
0.16816
0
LINE
8
BLACK
6
CONTINUOUS
10
0.762418
20
0.16816
11
0.760424
21
0.172221
0
LINE
8
BLACK
6
CONTINUOUS
10
0.760424
20
0.172221
11
0.759843
21
0.176181
0
LINE
8
BLACK
6
CONTINUOUS
10
0.759843
20
0.176181
11
0.759843
21
0.187992
0
LINE
8
BLACK
6
CONTINUOUS
10
0.759843
20
0.187992
11
0.760417
21
0.191929
0
LINE
8
BLACK
6
CONTINUOUS
10
0.760417
20
0.191929
11
0.762404
21
0.195994
0
LINE
8
BLACK
6
CONTINUOUS
10
0.762404
20
0.195994
11
0.765601
21
0.199196
0
LINE
8
BLACK
6
CONTINUOUS
10
0.765601
20
0.199196
11
0.769662
21
0.20119
0
LINE
8
BLACK
6
CONTINUOUS
10
0.769662
20
0.20119
11
0.773622
21
0.201772
0
LINE
8
BLACK
6
CONTINUOUS
10
0.773622
20
0.201772
11
0.82874
21
0.201772
0
LINE
8
BLACK
6
CONTINUOUS
10
0.82874
20
0.201772
11
0.832677
21
0.201197
0
LINE
8
BLACK
6
CONTINUOUS
10
0.594746
20
0.308736
11
0.595783
21
0.308724
0
LINE
8
BLACK
6
CONTINUOUS
10
0.595783
20
0.308724
11
0.601298
21
0.307865
0
LINE
8
BLACK
6
CONTINUOUS
10
0.601298
20
0.307865
11
0.603432
21
0.307212
0
LINE
8
BLACK
6
CONTINUOUS
10
0.603432
20
0.307212
11
0.608485
21
0.30484
0
LINE
8
BLACK
6
CONTINUOUS
10
0.608485
20
0.30484
11
0.610351
21
0.303615
0
LINE
8
BLACK
6
CONTINUOUS
10
0.610351
20
0.303615
11
0.614534
21
0.29992
0
LINE
8
BLACK
6
CONTINUOUS
10
0.614534
20
0.29992
11
0.615981
21
0.29822
0
LINE
8
BLACK
6
CONTINUOUS
10
0.615981
20
0.29822
11
0.618959
21
0.2935
0
LINE
8
BLACK
6
CONTINUOUS
10
0.618959
20
0.2935
11
0.619871
21
0.291462
0
LINE
8
BLACK
6
CONTINUOUS
10
0.619871
20
0.291462
11
0.621404
21
0.286095
0
LINE
8
BLACK
6
CONTINUOUS
10
0.621404
20
0.286095
11
0.621707
21
0.283883
0
LINE
8
BLACK
6
CONTINUOUS
10
0.621707
20
0.283883
11
0.621697
21
0.282227
0
LINE
8
BLACK
6
CONTINUOUS
10
0.621697
20
0.282227
11
0.62189
21
0.28126
0
LINE
8
BLACK
6
CONTINUOUS
10
0.62189
20
0.28126
11
0.62189
21
0.261575
0
LINE
8
BLACK
6
CONTINUOUS
10
0.62189
20
0.261575
11
0.62129
21
0.258562
0
LINE
8
BLACK
6
CONTINUOUS
10
0.62129
20
0.258562
11
0.619584
21
0.256007
0
LINE
8
BLACK
6
CONTINUOUS
10
0.619584
20
0.256007
11
0.619078
21
0.255669
0
LINE
8
BLACK
6
CONTINUOUS
10
0.619078
20
0.255669
11
0.619584
21
0.255332
0
LINE
8
BLACK
6
CONTINUOUS
10
0.619584
20
0.255332
11
0.62129
21
0.252777
0
LINE
8
BLACK
6
CONTINUOUS
10
0.62129
20
0.252777
11
0.62189
21
0.249764
0
LINE
8
BLACK
6
CONTINUOUS
10
0.62189
20
0.249764
11
0.62189
21
0.230079
0
LINE
8
BLACK
6
CONTINUOUS
10
0.62189
20
0.230079
11
0.621685
21
0.22905
0
LINE
8
BLACK
6
CONTINUOUS
10
0.621685
20
0.22905
11
0.621673
21
0.227121
0
LINE
8
BLACK
6
CONTINUOUS
10
0.621673
20
0.227121
11
0.621343
21
0.224913
0
LINE
8
BLACK
6
CONTINUOUS
10
0.621343
20
0.224913
11
0.619744
21
0.219566
0
LINE
8
BLACK
6
CONTINUOUS
10
0.619744
20
0.219566
11
0.618808
21
0.217539
0
LINE
8
BLACK
6
CONTINUOUS
10
0.618808
20
0.217539
11
0.615772
21
0.212856
0
LINE
8
BLACK
6
CONTINUOUS
10
0.615772
20
0.212856
11
0.614304
21
0.211173
0
LINE
8
BLACK
6
CONTINUOUS
10
0.614304
20
0.211173
11
0.610076
21
0.20753
0
LINE
8
BLACK
6
CONTINUOUS
10
0.610076
20
0.20753
11
0.608195
21
0.206327
0
LINE
8
BLACK
6
CONTINUOUS
10
0.608195
20
0.206327
11
0.603115
21
0.204017
0
LINE
8
BLACK
6
CONTINUOUS
10
0.603115
20
0.204017
11
0.600972
21
0.20339
0
LINE
8
BLACK
6
CONTINUOUS
10
0.600972
20
0.20339
11
0.595447
21
0.202599
0
LINE
8
BLACK
6
CONTINUOUS
10
0.595447
20
0.202599
11
0.594331
21
0.20252
0
LINE
8
BLACK
6
CONTINUOUS
10
0.594331
20
0.20252
11
0.574646
21
0.20252
0
LINE
8
BLACK
6
CONTINUOUS
10
0.574646
20
0.20252
11
0.57455
21
0.20252
0
LINE
8
BLACK
6
CONTINUOUS
10
0.57455
20
0.20252
11
0.574069
21
0.202526
0
LINE
8
BLACK
6
CONTINUOUS
10
0.574069
20
0.202526
11
0.572858
21
0.202635
0
LINE
8
BLACK
6
CONTINUOUS
10
0.572858
20
0.202635
11
0.567354
21
0.203561
0
LINE
8
BLACK
6
CONTINUOUS
10
0.567354
20
0.203561
11
0.565228
21
0.204239
0
LINE
8
BLACK
6
CONTINUOUS
10
0.565228
20
0.204239
11
0.560205
21
0.206673
0
LINE
8
BLACK
6
CONTINUOUS
10
0.560205
20
0.206673
11
0.558354
21
0.207921
0
LINE
8
BLACK
6
CONTINUOUS
10
0.558354
20
0.207921
11
0.554216
21
0.211667
0
LINE
8
BLACK
6
CONTINUOUS
10
0.554216
20
0.211667
11
0.55279
21
0.213385
0
LINE
8
BLACK
6
CONTINUOUS
10
0.55279
20
0.213385
11
0.54987
21
0.218141
0
LINE
8
BLACK
6
CONTINUOUS
10
0.54987
20
0.218141
11
0.548983
21
0.22019
0
LINE
8
BLACK
6
CONTINUOUS
10
0.548983
20
0.22019
11
0.547515
21
0.225574
0
LINE
8
BLACK
6
CONTINUOUS
10
0.547515
20
0.225574
11
0.547239
21
0.22779
0
LINE
8
BLACK
6
CONTINUOUS
10
0.547239
20
0.22779
11
0.547264
21
0.229185
0
LINE
8
BLACK
6
CONTINUOUS
10
0.547264
20
0.229185
11
0.547087
21
0.230079
0
LINE
8
BLACK
6
CONTINUOUS
10
0.547087
20
0.230079
11
0.547087
21
0.249764
0
LINE
8
BLACK
6
CONTINUOUS
10
0.547087
20
0.249764
11
0.547686
21
0.252777
0
LINE
8
BLACK
6
CONTINUOUS
10
0.547686
20
0.252777
11
0.549393
21
0.255332
0
LINE
8
BLACK
6
CONTINUOUS
10
0.549393
20
0.255332
11
0.549898
21
0.255669
0
LINE
8
BLACK
6
CONTINUOUS
10
0.549898
20
0.255669
11
0.549393
21
0.256007
0
LINE
8
BLACK
6
CONTINUOUS
10
0.549393
20
0.256007
11
0.547686
21
0.258562
0
LINE
8
BLACK
6
CONTINUOUS
10
0.547686
20
0.258562
11
0.547087
21
0.261575
0
LINE
8
BLACK
6
CONTINUOUS
10
0.547087
20
0.261575
11
0.547087
21
0.28126
0
LINE
8
BLACK
6
CONTINUOUS
10
0.547087
20
0.28126
11
0.547301
21
0.282336
0
LINE
8
BLACK
6
CONTINUOUS
10
0.547301
20
0.282336
11
0.547341
21
0.284551
0
LINE
8
BLACK
6
CONTINUOUS
10
0.547341
20
0.284551
11
0.547698
21
0.286755
0
LINE
8
BLACK
6
CONTINUOUS
10
0.547698
20
0.286755
11
0.549362
21
0.292083
0
LINE
8
BLACK
6
CONTINUOUS
10
0.549362
20
0.292083
11
0.550324
21
0.294098
0
LINE
8
BLACK
6
CONTINUOUS
10
0.550324
20
0.294098
11
0.553416
21
0.298744
0
LINE
8
BLACK
6
CONTINUOUS
10
0.553416
20
0.298744
11
0.554904
21
0.300408
0
LINE
8
BLACK
6
CONTINUOUS
10
0.554904
20
0.300408
11
0.559177
21
0.303999
0
LINE
8
BLACK
6
CONTINUOUS
10
0.559177
20
0.303999
11
0.561072
21
0.305179
0
LINE
8
BLACK
6
CONTINUOUS
10
0.561072
20
0.305179
11
0.566181
21
0.307427
0
LINE
8
BLACK
6
CONTINUOUS
10
0.566181
20
0.307427
11
0.568331
21
0.308027
0
LINE
8
BLACK
6
CONTINUOUS
10
0.568331
20
0.308027
11
0.573625
21
0.30872
0
LINE
8
BLACK
6
CONTINUOUS
10
0.573625
20
0.30872
11
0.573638
21
0.308618
0
LINE
8
BLACK
6
CONTINUOUS
10
0.573638
20
0.308618
11
0.574646
21
0.308819
0
LINE
8
BLACK
6
CONTINUOUS
10
0.574646
20
0.308819
11
0.594331
21
0.308819
0
LINE
8
BLACK
6
CONTINUOUS
10
0.594331
20
0.308819
11
0.594746
21
0.308736
0
LINE
8
BLACK
6
CONTINUOUS
10
0.832677
20
0.25041
11
0.836742
21
0.248423
0
LINE
8
BLACK
6
CONTINUOUS
10
0.836742
20
0.248423
11
0.839944
21
0.245226
0
LINE
8
BLACK
6
CONTINUOUS
10
0.839944
20
0.245226
11
0.841939
21
0.241164
0
LINE
8
BLACK
6
CONTINUOUS
10
0.841939
20
0.241164
11
0.84252
21
0.237205
0
LINE
8
BLACK
6
CONTINUOUS
10
0.84252
20
0.237205
11
0.84252
21
0.225394
0
LINE
8
BLACK
6
CONTINUOUS
10
0.84252
20
0.225394
11
0.841945
21
0.221457
0
LINE
8
BLACK
6
CONTINUOUS
10
0.841945
20
0.221457
11
0.839958
21
0.217392
0
LINE
8
BLACK
6
CONTINUOUS
10
0.839958
20
0.217392
11
0.836762
21
0.21419
0
LINE
8
BLACK
6
CONTINUOUS
10
0.836762
20
0.21419
11
0.8327
21
0.212195
0
LINE
8
BLACK
6
CONTINUOUS
10
0.8327
20
0.212195
11
0.82874
21
0.211614
0
LINE
8
BLACK
6
CONTINUOUS
10
0.82874
20
0.211614
11
0.773622
21
0.211614
0
LINE
8
BLACK
6
CONTINUOUS
10
0.773622
20
0.211614
11
0.769685
21
0.212188
0
LINE
8
BLACK
6
CONTINUOUS
10
0.769685
20
0.212188
11
0.76562
21
0.214176
0
LINE
8
BLACK
6
CONTINUOUS
10
0.76562
20
0.214176
11
0.762418
21
0.217372
0
LINE
8
BLACK
6
CONTINUOUS
10
0.762418
20
0.217372
11
0.760424
21
0.221434
0
LINE
8
BLACK
6
CONTINUOUS
10
0.760424
20
0.221434
11
0.759843
21
0.225394
0
LINE
8
BLACK
6
CONTINUOUS
10
0.759843
20
0.225394
11
0.759843
21
0.237205
0
LINE
8
BLACK
6
CONTINUOUS
10
0.759843
20
0.237205
11
0.760417
21
0.241141
0
LINE
8
BLACK
6
CONTINUOUS
10
0.760417
20
0.241141
11
0.762404
21
0.245207
0
LINE
8
BLACK
6
CONTINUOUS
10
0.762404
20
0.245207
11
0.765601
21
0.248409
0
LINE
8
BLACK
6
CONTINUOUS
10
0.765601
20
0.248409
11
0.769662
21
0.250403
0
LINE
8
BLACK
6
CONTINUOUS
10
0.769662
20
0.250403
11
0.773622
21
0.250984
0
LINE
8
BLACK
6
CONTINUOUS
10
0.773622
20
0.250984
11
0.82874
21
0.250984
0
LINE
8
BLACK
6
CONTINUOUS
10
0.82874
20
0.250984
11
0.832677
21
0.25041
0
LINE
8
BLACK
6
CONTINUOUS
10
0.832677
20
0.299623
11
0.836742
21
0.297635
0
LINE
8
BLACK
6
CONTINUOUS
10
0.836742
20
0.297635
11
0.839944
21
0.294439
0
LINE
8
BLACK
6
CONTINUOUS
10
0.839944
20
0.294439
11
0.841939
21
0.290377
0
LINE
8
BLACK
6
CONTINUOUS
10
0.841939
20
0.290377
11
0.84252
21
0.286417
0
LINE
8
BLACK
6
CONTINUOUS
10
0.84252
20
0.286417
11
0.84252
21
0.274606
0
LINE
8
BLACK
6
CONTINUOUS
10
0.84252
20
0.274606
11
0.841945
21
0.27067
0
LINE
8
BLACK
6
CONTINUOUS
10
0.841945
20
0.27067
11
0.839958
21
0.266604
0
LINE
8
BLACK
6
CONTINUOUS
10
0.839958
20
0.266604
11
0.836762
21
0.263402
0
LINE
8
BLACK
6
CONTINUOUS
10
0.836762
20
0.263402
11
0.8327
21
0.261408
0
LINE
8
BLACK
6
CONTINUOUS
10
0.8327
20
0.261408
11
0.82874
21
0.260827
0
LINE
8
BLACK
6
CONTINUOUS
10
0.82874
20
0.260827
11
0.773622
21
0.260827
0
LINE
8
BLACK
6
CONTINUOUS
10
0.773622
20
0.260827
11
0.769685
21
0.261401
0
LINE
8
BLACK
6
CONTINUOUS
10
0.769685
20
0.261401
11
0.76562
21
0.263388
0
LINE
8
BLACK
6
CONTINUOUS
10
0.76562
20
0.263388
11
0.762418
21
0.266585
0
LINE
8
BLACK
6
CONTINUOUS
10
0.762418
20
0.266585
11
0.760424
21
0.270647
0
LINE
8
BLACK
6
CONTINUOUS
10
0.760424
20
0.270647
11
0.759843
21
0.274606
0
LINE
8
BLACK
6
CONTINUOUS
10
0.759843
20
0.274606
11
0.759843
21
0.286417
0
LINE
8
BLACK
6
CONTINUOUS
10
0.759843
20
0.286417
11
0.760417
21
0.290354
0
LINE
8
BLACK
6
CONTINUOUS
10
0.760417
20
0.290354
11
0.762404
21
0.294419
0
LINE
8
BLACK
6
CONTINUOUS
10
0.762404
20
0.294419
11
0.765601
21
0.297621
0
LINE
8
BLACK
6
CONTINUOUS
10
0.765601
20
0.297621
11
0.769662
21
0.299616
0
LINE
8
BLACK
6
CONTINUOUS
10
0.769662
20
0.299616
11
0.773622
21
0.300197
0
LINE
8
BLACK
6
CONTINUOUS
10
0.773622
20
0.300197
11
0.82874
21
0.300197
0
LINE
8
BLACK
6
CONTINUOUS
10
0.82874
20
0.300197
11
0.832677
21
0.299623
0
LINE
8
BLACK
6
CONTINUOUS
10
0.832677
20
0.348835
11
0.836742
21
0.346848
0
LINE
8
BLACK
6
CONTINUOUS
10
0.836742
20
0.346848
11
0.839944
21
0.343651
0
LINE
8
BLACK
6
CONTINUOUS
10
0.839944
20
0.343651
11
0.841939
21
0.33959
0
LINE
8
BLACK
6
CONTINUOUS
10
0.841939
20
0.33959
11
0.84252
21
0.33563
0
LINE
8
BLACK
6
CONTINUOUS
10
0.84252
20
0.33563
11
0.84252
21
0.323819
0
LINE
8
BLACK
6
CONTINUOUS
10
0.84252
20
0.323819
11
0.841945
21
0.319882
0
LINE
8
BLACK
6
CONTINUOUS
10
0.841945
20
0.319882
11
0.839958
21
0.315817
0
LINE
8
BLACK
6
CONTINUOUS
10
0.839958
20
0.315817
11
0.836762
21
0.312615
0
LINE
8
BLACK
6
CONTINUOUS
10
0.836762
20
0.312615
11
0.8327
21
0.310621
0
LINE
8
BLACK
6
CONTINUOUS
10
0.8327
20
0.310621
11
0.82874
21
0.310039
0
LINE
8
BLACK
6
CONTINUOUS
10
0.82874
20
0.310039
11
0.773622
21
0.310039
0
LINE
8
BLACK
6
CONTINUOUS
10
0.773622
20
0.310039
11
0.769685
21
0.310614
0
LINE
8
BLACK
6
CONTINUOUS
10
0.769685
20
0.310614
11
0.76562
21
0.312601
0
LINE
8
BLACK
6
CONTINUOUS
10
0.76562
20
0.312601
11
0.762418
21
0.315798
0
LINE
8
BLACK
6
CONTINUOUS
10
0.762418
20
0.315798
11
0.760424
21
0.319859
0
LINE
8
BLACK
6
CONTINUOUS
10
0.760424
20
0.319859
11
0.759843
21
0.323819
0
LINE
8
BLACK
6
CONTINUOUS
10
0.759843
20
0.323819
11
0.759843
21
0.33563
0
LINE
8
BLACK
6
CONTINUOUS
10
0.759843
20
0.33563
11
0.760417
21
0.339567
0
LINE
8
BLACK
6
CONTINUOUS
10
0.760417
20
0.339567
11
0.762404
21
0.343632
0
LINE
8
BLACK
6
CONTINUOUS
10
0.762404
20
0.343632
11
0.765601
21
0.346834
0
LINE
8
BLACK
6
CONTINUOUS
10
0.765601
20
0.346834
11
0.769662
21
0.348828
0
LINE
8
BLACK
6
CONTINUOUS
10
0.769662
20
0.348828
11
0.773622
21
0.349409
0
LINE
8
BLACK
6
CONTINUOUS
10
0.773622
20
0.349409
11
0.82874
21
0.349409
0
LINE
8
BLACK
6
CONTINUOUS
10
0.82874
20
0.349409
11
0.832677
21
0.348835
0
LINE
8
BLACK
6
CONTINUOUS
10
0.973792
20
0.429804
11
0.978763
21
0.428059
0
LINE
8
BLACK
6
CONTINUOUS
10
0.978763
20
0.428059
11
0.983
21
0.424929
0
LINE
8
BLACK
6
CONTINUOUS
10
0.983
20
0.424929
11
0.98613
21
0.420692
0
LINE
8
BLACK
6
CONTINUOUS
10
0.98613
20
0.420692
11
0.987875
21
0.415721
0
LINE
8
BLACK
6
CONTINUOUS
10
0.987875
20
0.415721
11
0.988189
21
0.412402
0
LINE
8
BLACK
6
CONTINUOUS
10
0.988189
20
0.412402
11
0.988189
21
0.392717
0
LINE
8
BLACK
6
CONTINUOUS
10
0.988189
20
0.392717
11
0.987875
21
0.389397
0
LINE
8
BLACK
6
CONTINUOUS
10
0.987875
20
0.389397
11
0.98613
21
0.384426
0
LINE
8
BLACK
6
CONTINUOUS
10
0.98613
20
0.384426
11
0.983
21
0.380189
0
LINE
8
BLACK
6
CONTINUOUS
10
0.983
20
0.380189
11
0.978763
21
0.377059
0
LINE
8
BLACK
6
CONTINUOUS
10
0.978763
20
0.377059
11
0.973792
21
0.375314
0
LINE
8
BLACK
6
CONTINUOUS
10
0.973792
20
0.375314
11
0.970472
21
0.375
0
LINE
8
BLACK
6
CONTINUOUS
10
0.970472
20
0.375
11
0.883858
21
0.375
0
LINE
8
BLACK
6
CONTINUOUS
10
0.883858
20
0.375
11
0.880539
21
0.375314
0
LINE
8
BLACK
6
CONTINUOUS
10
0.880539
20
0.375314
11
0.875568
21
0.377059
0
LINE
8
BLACK
6
CONTINUOUS
10
0.875568
20
0.377059
11
0.871331
21
0.380189
0
LINE
8
BLACK
6
CONTINUOUS
10
0.871331
20
0.380189
11
0.868201
21
0.384426
0
LINE
8
BLACK
6
CONTINUOUS
10
0.868201
20
0.384426
11
0.866456
21
0.389397
0
LINE
8
BLACK
6
CONTINUOUS
10
0.866456
20
0.389397
11
0.866142
21
0.392717
0
LINE
8
BLACK
6
CONTINUOUS
10
0.866142
20
0.392717
11
0.866142
21
0.412402
0
LINE
8
BLACK
6
CONTINUOUS
10
0.866142
20
0.412402
11
0.866456
21
0.415721
0
LINE
8
BLACK
6
CONTINUOUS
10
0.866456
20
0.415721
11
0.868201
21
0.420692
0
LINE
8
BLACK
6
CONTINUOUS
10
0.868201
20
0.420692
11
0.871331
21
0.424929
0
LINE
8
BLACK
6
CONTINUOUS
10
0.871331
20
0.424929
11
0.875568
21
0.428059
0
LINE
8
BLACK
6
CONTINUOUS
10
0.875568
20
0.428059
11
0.880539
21
0.429804
0
LINE
8
BLACK
6
CONTINUOUS
10
0.880539
20
0.429804
11
0.883858
21
0.430118
0
LINE
8
BLACK
6
CONTINUOUS
10
0.883858
20
0.430118
11
0.970472
21
0.430118
0
LINE
8
BLACK
6
CONTINUOUS
10
0.970472
20
0.430118
11
0.973792
21
0.429804
0
LINE
8
BLACK
6
CONTINUOUS
10
0.973792
20
0.530198
11
0.978763
21
0.528453
0
LINE
8
BLACK
6
CONTINUOUS
10
0.978763
20
0.528453
11
0.983
21
0.525323
0
LINE
8
BLACK
6
CONTINUOUS
10
0.983
20
0.525323
11
0.98613
21
0.521085
0
LINE
8
BLACK
6
CONTINUOUS
10
0.98613
20
0.521085
11
0.987875
21
0.516115
0
LINE
8
BLACK
6
CONTINUOUS
10
0.987875
20
0.516115
11
0.988189
21
0.512795
0
LINE
8
BLACK
6
CONTINUOUS
10
0.988189
20
0.512795
11
0.988189
21
0.49311
0
LINE
8
BLACK
6
CONTINUOUS
10
0.988189
20
0.49311
11
0.987875
21
0.48979
0
LINE
8
BLACK
6
CONTINUOUS
10
0.987875
20
0.48979
11
0.98613
21
0.48482
0
LINE
8
BLACK
6
CONTINUOUS
10
0.98613
20
0.48482
11
0.983
21
0.480583
0
LINE
8
BLACK
6
CONTINUOUS
10
0.983
20
0.480583
11
0.978763
21
0.477453
0
LINE
8
BLACK
6
CONTINUOUS
10
0.978763
20
0.477453
11
0.973792
21
0.475708
0
LINE
8
BLACK
6
CONTINUOUS
10
0.973792
20
0.475708
11
0.970472
21
0.475394
0
LINE
8
BLACK
6
CONTINUOUS
10
0.970472
20
0.475394
11
0.883858
21
0.475394
0
LINE
8
BLACK
6
CONTINUOUS
10
0.883858
20
0.475394
11
0.880539
21
0.475708
0
LINE
8
BLACK
6
CONTINUOUS
10
0.880539
20
0.475708
11
0.875568
21
0.477453
0
LINE
8
BLACK
6
CONTINUOUS
10
0.875568
20
0.477453
11
0.871331
21
0.480583
0
LINE
8
BLACK
6
CONTINUOUS
10
0.871331
20
0.480583
11
0.868201
21
0.48482
0
LINE
8
BLACK
6
CONTINUOUS
10
0.868201
20
0.48482
11
0.866456
21
0.48979
0
LINE
8
BLACK
6
CONTINUOUS
10
0.866456
20
0.48979
11
0.866142
21
0.49311
0
LINE
8
BLACK
6
CONTINUOUS
10
0.866142
20
0.49311
11
0.866142
21
0.512795
0
LINE
8
BLACK
6
CONTINUOUS
10
0.866142
20
0.512795
11
0.866456
21
0.516115
0
LINE
8
BLACK
6
CONTINUOUS
10
0.866456
20
0.516115
11
0.868201
21
0.521085
0
LINE
8
BLACK
6
CONTINUOUS
10
0.868201
20
0.521085
11
0.871331
21
0.525323
0
LINE
8
BLACK
6
CONTINUOUS
10
0.871331
20
0.525323
11
0.875568
21
0.528453
0
LINE
8
BLACK
6
CONTINUOUS
10
0.875568
20
0.528453
11
0.880539
21
0.530198
0
LINE
8
BLACK
6
CONTINUOUS
10
0.880539
20
0.530198
11
0.883858
21
0.530512
0
LINE
8
BLACK
6
CONTINUOUS
10
0.883858
20
0.530512
11
0.970472
21
0.530512
0
LINE
8
BLACK
6
CONTINUOUS
10
0.970472
20
0.530512
11
0.973792
21
0.530198
0
LINE
8
BLACK
6
CONTINUOUS
10
0.832677
20
0.594898
11
0.836742
21
0.592911
0
LINE
8
BLACK
6
CONTINUOUS
10
0.836742
20
0.592911
11
0.839944
21
0.589714
0
LINE
8
BLACK
6
CONTINUOUS
10
0.839944
20
0.589714
11
0.841939
21
0.585653
0
LINE
8
BLACK
6
CONTINUOUS
10
0.841939
20
0.585653
11
0.84252
21
0.581693
0
LINE
8
BLACK
6
CONTINUOUS
10
0.84252
20
0.581693
11
0.84252
21
0.569882
0
LINE
8
BLACK
6
CONTINUOUS
10
0.84252
20
0.569882
11
0.841945
21
0.565945
0
LINE
8
BLACK
6
CONTINUOUS
10
0.841945
20
0.565945
11
0.839958
21
0.56188
0
LINE
8
BLACK
6
CONTINUOUS
10
0.839958
20
0.56188
11
0.836762
21
0.558678
0
LINE
8
BLACK
6
CONTINUOUS
10
0.836762
20
0.558678
11
0.8327
21
0.556684
0
LINE
8
BLACK
6
CONTINUOUS
10
0.8327
20
0.556684
11
0.82874
21
0.556102
0
LINE
8
BLACK
6
CONTINUOUS
10
0.82874
20
0.556102
11
0.773622
21
0.556102
0
LINE
8
BLACK
6
CONTINUOUS
10
0.773622
20
0.556102
11
0.769685
21
0.556677
0
LINE
8
BLACK
6
CONTINUOUS
10
0.769685
20
0.556677
11
0.76562
21
0.558664
0
LINE
8
BLACK
6
CONTINUOUS
10
0.76562
20
0.558664
11
0.762418
21
0.561861
0
LINE
8
BLACK
6
CONTINUOUS
10
0.762418
20
0.561861
11
0.760424
21
0.565922
0
LINE
8
BLACK
6
CONTINUOUS
10
0.760424
20
0.565922
11
0.759843
21
0.569882
0
LINE
8
BLACK
6
CONTINUOUS
10
0.759843
20
0.569882
11
0.759843
21
0.581693
0
LINE
8
BLACK
6
CONTINUOUS
10
0.759843
20
0.581693
11
0.760417
21
0.58563
0
LINE
8
BLACK
6
CONTINUOUS
10
0.760417
20
0.58563
11
0.762404
21
0.589695
0
LINE
8
BLACK
6
CONTINUOUS
10
0.762404
20
0.589695
11
0.765601
21
0.592897
0
LINE
8
BLACK
6
CONTINUOUS
10
0.765601
20
0.592897
11
0.769662
21
0.594891
0
LINE
8
BLACK
6
CONTINUOUS
10
0.769662
20
0.594891
11
0.773622
21
0.595472
0
LINE
8
BLACK
6
CONTINUOUS
10
0.773622
20
0.595472
11
0.82874
21
0.595472
0
LINE
8
BLACK
6
CONTINUOUS
10
0.82874
20
0.595472
11
0.832677
21
0.594898
0
LINE
8
BLACK
6
CONTINUOUS
10
0.594427
20
0.702519
11
0.594908
21
0.702513
0
LINE
8
BLACK
6
CONTINUOUS
10
0.594908
20
0.702513
11
0.596118
21
0.702405
0
LINE
8
BLACK
6
CONTINUOUS
10
0.596118
20
0.702405
11
0.601622
21
0.701479
0
LINE
8
BLACK
6
CONTINUOUS
10
0.601622
20
0.701479
11
0.603749
21
0.7008
0
LINE
8
BLACK
6
CONTINUOUS
10
0.603749
20
0.7008
11
0.608772
21
0.698366
0
LINE
8
BLACK
6
CONTINUOUS
10
0.608772
20
0.698366
11
0.610622
21
0.697118
0
LINE
8
BLACK
6
CONTINUOUS
10
0.610622
20
0.697118
11
0.61476
21
0.693373
0
LINE
8
BLACK
6
CONTINUOUS
10
0.61476
20
0.693373
11
0.616186
21
0.691655
0
LINE
8
BLACK
6
CONTINUOUS
10
0.616186
20
0.691655
11
0.619107
21
0.686899
0
LINE
8
BLACK
6
CONTINUOUS
10
0.619107
20
0.686899
11
0.619993
21
0.68485
0
LINE
8
BLACK
6
CONTINUOUS
10
0.619993
20
0.68485
11
0.621462
21
0.679465
0
LINE
8
BLACK
6
CONTINUOUS
10
0.621462
20
0.679465
11
0.621737
21
0.677249
0
LINE
8
BLACK
6
CONTINUOUS
10
0.621737
20
0.677249
11
0.621712
21
0.675855
0
LINE
8
BLACK
6
CONTINUOUS
10
0.621712
20
0.675855
11
0.62189
21
0.674961
0
LINE
8
BLACK
6
CONTINUOUS
10
0.62189
20
0.674961
11
0.62189
21
0.655276
0
LINE
8
BLACK
6
CONTINUOUS
10
0.62189
20
0.655276
11
0.62129
21
0.652262
0
LINE
8
BLACK
6
CONTINUOUS
10
0.62129
20
0.652262
11
0.619584
21
0.649708
0
LINE
8
BLACK
6
CONTINUOUS
10
0.619584
20
0.649708
11
0.619078
21
0.64937
0
LINE
8
BLACK
6
CONTINUOUS
10
0.619078
20
0.64937
11
0.619584
21
0.649032
0
LINE
8
BLACK
6
CONTINUOUS
10
0.619584
20
0.649032
11
0.62129
21
0.646478
0
LINE
8
BLACK
6
CONTINUOUS
10
0.62129
20
0.646478
11
0.62189
21
0.643465
0
LINE
8
BLACK
6
CONTINUOUS
10
0.62189
20
0.643465
11
0.62189
21
0.62378
0
LINE
8
BLACK
6
CONTINUOUS
10
0.62189
20
0.62378
11
0.621676
21
0.622704
0
LINE
8
BLACK
6
CONTINUOUS
10
0.621676
20
0.622704
11
0.621635
21
0.620488
0
LINE
8
BLACK
6
CONTINUOUS
10
0.621635
20
0.620488
11
0.621278
21
0.618284
0
LINE
8
BLACK
6
CONTINUOUS
10
0.621278
20
0.618284
11
0.619614
21
0.612957
0
LINE
8
BLACK
6
CONTINUOUS
10
0.619614
20
0.612957
11
0.618653
21
0.610942
0
LINE
8
BLACK
6
CONTINUOUS
10
0.618653
20
0.610942
11
0.61556
21
0.606296
0
LINE
8
BLACK
6
CONTINUOUS
10
0.61556
20
0.606296
11
0.614072
21
0.604631
0
LINE
8
BLACK
6
CONTINUOUS
10
0.614072
20
0.604631
11
0.6098
21
0.60104
0
LINE
8
BLACK
6
CONTINUOUS
10
0.6098
20
0.60104
11
0.607904
21
0.59986
0
LINE
8
BLACK
6
CONTINUOUS
10
0.607904
20
0.59986
11
0.602796
21
0.597612
0
LINE
8
BLACK
6
CONTINUOUS
10
0.602796
20
0.597612
11
0.600645
21
0.597012
0
LINE
8
BLACK
6
CONTINUOUS
10
0.600645
20
0.597012
11
0.595352
21
0.59632
0
LINE
8
BLACK
6
CONTINUOUS
10
0.595352
20
0.59632
11
0.595338
21
0.596421
0
LINE
8
BLACK
6
CONTINUOUS
10
0.595338
20
0.596421
11
0.594331
21
0.59622
0
LINE
8
BLACK
6
CONTINUOUS
10
0.594331
20
0.59622
11
0.574646
21
0.59622
0
LINE
8
BLACK
6
CONTINUOUS
10
0.574646
20
0.59622
11
0.574231
21
0.596303
0
LINE
8
BLACK
6
CONTINUOUS
10
0.574231
20
0.596303
11
0.573194
21
0.596316
0
LINE
8
BLACK
6
CONTINUOUS
10
0.573194
20
0.596316
11
0.567679
21
0.597174
0
LINE
8
BLACK
6
CONTINUOUS
10
0.567679
20
0.597174
11
0.565544
21
0.597827
0
LINE
8
BLACK
6
CONTINUOUS
10
0.565544
20
0.597827
11
0.560492
21
0.600199
0
LINE
8
BLACK
6
CONTINUOUS
10
0.560492
20
0.600199
11
0.558626
21
0.601425
0
LINE
8
BLACK
6
CONTINUOUS
10
0.558626
20
0.601425
11
0.554442
21
0.605119
0
LINE
8
BLACK
6
CONTINUOUS
10
0.554442
20
0.605119
11
0.552995
21
0.60682
0
LINE
8
BLACK
6
CONTINUOUS
10
0.552995
20
0.60682
11
0.550017
21
0.61154
0
LINE
8
BLACK
6
CONTINUOUS
10
0.550017
20
0.61154
11
0.549106
21
0.613578
0
LINE
8
BLACK
6
CONTINUOUS
10
0.549106
20
0.613578
11
0.547572
21
0.618944
0
LINE
8
BLACK
6
CONTINUOUS
10
0.547572
20
0.618944
11
0.547269
21
0.621156
0
LINE
8
BLACK
6
CONTINUOUS
10
0.547269
20
0.621156
11
0.547279
21
0.622812
0
LINE
8
BLACK
6
CONTINUOUS
10
0.547279
20
0.622812
11
0.547087
21
0.62378
0
LINE
8
BLACK
6
CONTINUOUS
10
0.547087
20
0.62378
11
0.547087
21
0.643465
0
LINE
8
BLACK
6
CONTINUOUS
10
0.547087
20
0.643465
11
0.547686
21
0.646478
0
LINE
8
BLACK
6
CONTINUOUS
10
0.547686
20
0.646478
11
0.549393
21
0.649032
0
LINE
8
BLACK
6
CONTINUOUS
10
0.549393
20
0.649032
11
0.549898
21
0.64937
0
LINE
8
BLACK
6
CONTINUOUS
10
0.549898
20
0.64937
11
0.549393
21
0.649708
0
LINE
8
BLACK
6
CONTINUOUS
10
0.549393
20
0.649708
11
0.547686
21
0.652262
0
LINE
8
BLACK
6
CONTINUOUS
10
0.547686
20
0.652262
11
0.547087
21
0.655276
0
LINE
8
BLACK
6
CONTINUOUS
10
0.547087
20
0.655276
11
0.547087
21
0.674961
0
LINE
8
BLACK
6
CONTINUOUS
10
0.547087
20
0.674961
11
0.547291
21
0.675989
0
LINE
8
BLACK
6
CONTINUOUS
10
0.547291
20
0.675989
11
0.547303
21
0.677918
0
LINE
8
BLACK
6
CONTINUOUS
10
0.547303
20
0.677918
11
0.547633
21
0.680126
0
LINE
8
BLACK
6
CONTINUOUS
10
0.547633
20
0.680126
11
0.549232
21
0.685474
0
LINE
8
BLACK
6
CONTINUOUS
10
0.549232
20
0.685474
11
0.550169
21
0.6875
0
LINE
8
BLACK
6
CONTINUOUS
10
0.550169
20
0.6875
11
0.553204
21
0.692184
0
LINE
8
BLACK
6
CONTINUOUS
10
0.553204
20
0.692184
11
0.554672
21
0.693866
0
LINE
8
BLACK
6
CONTINUOUS
10
0.554672
20
0.693866
11
0.5589
21
0.697509
0
LINE
8
BLACK
6
CONTINUOUS
10
0.5589
20
0.697509
11
0.560781
21
0.698712
0
LINE
8
BLACK
6
CONTINUOUS
10
0.560781
20
0.698712
11
0.565862
21
0.701022
0
LINE
8
BLACK
6
CONTINUOUS
10
0.565862
20
0.701022
11
0.568004
21
0.701649
0
LINE
8
BLACK
6
CONTINUOUS
10
0.568004
20
0.701649
11
0.573529
21
0.70244
0
LINE
8
BLACK
6
CONTINUOUS
10
0.573529
20
0.70244
11
0.574646
21
0.70252
0
LINE
8
BLACK
6
CONTINUOUS
10
0.574646
20
0.70252
11
0.594331
21
0.70252
0
LINE
8
BLACK
6
CONTINUOUS
10
0.594331
20
0.70252
11
0.594427
21
0.702519
0
LINE
8
BLACK
6
CONTINUOUS
10
0.832677
20
0.644111
11
0.836742
21
0.642124
0
LINE
8
BLACK
6
CONTINUOUS
10
0.836742
20
0.642124
11
0.839944
21
0.638927
0
LINE
8
BLACK
6
CONTINUOUS
10
0.839944
20
0.638927
11
0.841939
21
0.634865
0
LINE
8
BLACK
6
CONTINUOUS
10
0.841939
20
0.634865
11
0.84252
21
0.630906
0
LINE
8
BLACK
6
CONTINUOUS
10
0.84252
20
0.630906
11
0.84252
21
0.619094
0
LINE
8
BLACK
6
CONTINUOUS
10
0.84252
20
0.619094
11
0.841945
21
0.615158
0
LINE
8
BLACK
6
CONTINUOUS
10
0.841945
20
0.615158
11
0.839958
21
0.611093
0
LINE
8
BLACK
6
CONTINUOUS
10
0.839958
20
0.611093
11
0.836762
21
0.60789
0
LINE
8
BLACK
6
CONTINUOUS
10
0.836762
20
0.60789
11
0.8327
21
0.605896
0
LINE
8
BLACK
6
CONTINUOUS
10
0.8327
20
0.605896
11
0.82874
21
0.605315
0
LINE
8
BLACK
6
CONTINUOUS
10
0.82874
20
0.605315
11
0.773622
21
0.605315
0
LINE
8
BLACK
6
CONTINUOUS
10
0.773622
20
0.605315
11
0.769685
21
0.605889
0
LINE
8
BLACK
6
CONTINUOUS
10
0.769685
20
0.605889
11
0.76562
21
0.607876
0
LINE
8
BLACK
6
CONTINUOUS
10
0.76562
20
0.607876
11
0.762418
21
0.611073
0
LINE
8
BLACK
6
CONTINUOUS
10
0.762418
20
0.611073
11
0.760424
21
0.615135
0
LINE
8
BLACK
6
CONTINUOUS
10
0.760424
20
0.615135
11
0.759843
21
0.619094
0
LINE
8
BLACK
6
CONTINUOUS
10
0.759843
20
0.619094
11
0.759843
21
0.630906
0
LINE
8
BLACK
6
CONTINUOUS
10
0.759843
20
0.630906
11
0.760417
21
0.634842
0
LINE
8
BLACK
6
CONTINUOUS
10
0.760417
20
0.634842
11
0.762404
21
0.638907
0
LINE
8
BLACK
6
CONTINUOUS
10
0.762404
20
0.638907
11
0.765601
21
0.64211
0
LINE
8
BLACK
6
CONTINUOUS
10
0.765601
20
0.64211
11
0.769662
21
0.644104
0
LINE
8
BLACK
6
CONTINUOUS
10
0.769662
20
0.644104
11
0.773622
21
0.644685
0
LINE
8
BLACK
6
CONTINUOUS
10
0.773622
20
0.644685
11
0.82874
21
0.644685
0
LINE
8
BLACK
6
CONTINUOUS
10
0.82874
20
0.644685
11
0.832677
21
0.644111
0
LINE
8
BLACK
6
CONTINUOUS
10
0.832677
20
0.693323
11
0.836742
21
0.691336
0
LINE
8
BLACK
6
CONTINUOUS
10
0.836742
20
0.691336
11
0.839944
21
0.688139
0
LINE
8
BLACK
6
CONTINUOUS
10
0.839944
20
0.688139
11
0.841939
21
0.684078
0
LINE
8
BLACK
6
CONTINUOUS
10
0.841939
20
0.684078
11
0.84252
21
0.680118
0
LINE
8
BLACK
6
CONTINUOUS
10
0.84252
20
0.680118
11
0.84252
21
0.668307
0
LINE
8
BLACK
6
CONTINUOUS
10
0.84252
20
0.668307
11
0.841945
21
0.66437
0
LINE
8
BLACK
6
CONTINUOUS
10
0.841945
20
0.66437
11
0.839958
21
0.660305
0
LINE
8
BLACK
6
CONTINUOUS
10
0.839958
20
0.660305
11
0.836762
21
0.657103
0
LINE
8
BLACK
6
CONTINUOUS
10
0.836762
20
0.657103
11
0.8327
21
0.655109
0
LINE
8
BLACK
6
CONTINUOUS
10
0.8327
20
0.655109
11
0.82874
21
0.654528
0
LINE
8
BLACK
6
CONTINUOUS
10
0.82874
20
0.654528
11
0.773622
21
0.654528
0
LINE
8
BLACK
6
CONTINUOUS
10
0.773622
20
0.654528
11
0.769685
21
0.655102
0
LINE
8
BLACK
6
CONTINUOUS
10
0.769685
20
0.655102
11
0.76562
21
0.657089
0
LINE
8
BLACK
6
CONTINUOUS
10
0.76562
20
0.657089
11
0.762418
21
0.660286
0
LINE
8
BLACK
6
CONTINUOUS
10
0.762418
20
0.660286
11
0.760424
21
0.664347
0
LINE
8
BLACK
6
CONTINUOUS
10
0.760424
20
0.664347
11
0.759843
21
0.668307
0
LINE
8
BLACK
6
CONTINUOUS
10
0.759843
20
0.668307
11
0.759843
21
0.680118
0
LINE
8
BLACK
6
CONTINUOUS
10
0.759843
20
0.680118
11
0.760417
21
0.684055
0
LINE
8
BLACK
6
CONTINUOUS
10
0.760417
20
0.684055
11
0.762404
21
0.68812
0
LINE
8
BLACK
6
CONTINUOUS
10
0.762404
20
0.68812
11
0.765601
21
0.691322
0
LINE
8
BLACK
6
CONTINUOUS
10
0.765601
20
0.691322
11
0.769662
21
0.693316
0
LINE
8
BLACK
6
CONTINUOUS
10
0.769662
20
0.693316
11
0.773622
21
0.693898
0
LINE
8
BLACK
6
CONTINUOUS
10
0.773622
20
0.693898
11
0.82874
21
0.693898
0
LINE
8
BLACK
6
CONTINUOUS
10
0.82874
20
0.693898
11
0.832677
21
0.693323
0
LINE
8
BLACK
6
CONTINUOUS
10
0.832677
20
0.742536
11
0.836742
21
0.740549
0
LINE
8
BLACK
6
CONTINUOUS
10
0.836742
20
0.740549
11
0.839944
21
0.737352
0
LINE
8
BLACK
6
CONTINUOUS
10
0.839944
20
0.737352
11
0.841939
21
0.73329
0
LINE
8
BLACK
6
CONTINUOUS
10
0.841939
20
0.73329
11
0.84252
21
0.729331
0
LINE
8
BLACK
6
CONTINUOUS
10
0.84252
20
0.729331
11
0.84252
21
0.71752
0
LINE
8
BLACK
6
CONTINUOUS
10
0.84252
20
0.71752
11
0.841945
21
0.713583
0
LINE
8
BLACK
6
CONTINUOUS
10
0.841945
20
0.713583
11
0.839958
21
0.709518
0
LINE
8
BLACK
6
CONTINUOUS
10
0.839958
20
0.709518
11
0.836762
21
0.706316
0
LINE
8
BLACK
6
CONTINUOUS
10
0.836762
20
0.706316
11
0.8327
21
0.704321
0
LINE
8
BLACK
6
CONTINUOUS
10
0.8327
20
0.704321
11
0.82874
21
0.70374
0
LINE
8
BLACK
6
CONTINUOUS
10
0.82874
20
0.70374
11
0.773622
21
0.70374
0
LINE
8
BLACK
6
CONTINUOUS
10
0.773622
20
0.70374
11
0.769685
21
0.704314
0
LINE
8
BLACK
6
CONTINUOUS
10
0.769685
20
0.704314
11
0.76562
21
0.706302
0
LINE
8
BLACK
6
CONTINUOUS
10
0.76562
20
0.706302
11
0.762418
21
0.709498
0
LINE
8
BLACK
6
CONTINUOUS
10
0.762418
20
0.709498
11
0.760424
21
0.71356
0
LINE
8
BLACK
6
CONTINUOUS
10
0.760424
20
0.71356
11
0.759843
21
0.71752
0
LINE
8
BLACK
6
CONTINUOUS
10
0.759843
20
0.71752
11
0.759843
21
0.729331
0
LINE
8
BLACK
6
CONTINUOUS
10
0.759843
20
0.729331
11
0.760417
21
0.733267
0
LINE
8
BLACK
6
CONTINUOUS
10
0.760417
20
0.733267
11
0.762404
21
0.737333
0
LINE
8
BLACK
6
CONTINUOUS
10
0.762404
20
0.737333
11
0.765601
21
0.740535
0
LINE
8
BLACK
6
CONTINUOUS
10
0.765601
20
0.740535
11
0.769662
21
0.742529
0
LINE
8
BLACK
6
CONTINUOUS
10
0.769662
20
0.742529
11
0.773622
21
0.74311
0
LINE
8
BLACK
6
CONTINUOUS
10
0.773622
20
0.74311
11
0.82874
21
0.74311
0
LINE
8
BLACK
6
CONTINUOUS
10
0.82874
20
0.74311
11
0.832677
21
0.742536
0
LINE
8
BLACK
6
CONTINUOUS
10
0.973792
20
0.823505
11
0.978763
21
0.82176
0
LINE
8
BLACK
6
CONTINUOUS
10
0.978763
20
0.82176
11
0.983
21
0.81863
0
LINE
8
BLACK
6
CONTINUOUS
10
0.983
20
0.81863
11
0.98613
21
0.814392
0
LINE
8
BLACK
6
CONTINUOUS
10
0.98613
20
0.814392
11
0.987875
21
0.809422
0
LINE
8
BLACK
6
CONTINUOUS
10
0.987875
20
0.809422
11
0.988189
21
0.806102
0
LINE
8
BLACK
6
CONTINUOUS
10
0.988189
20
0.806102
11
0.988189
21
0.786417
0
LINE
8
BLACK
6
CONTINUOUS
10
0.988189
20
0.786417
11
0.987875
21
0.783098
0
LINE
8
BLACK
6
CONTINUOUS
10
0.987875
20
0.783098
11
0.98613
21
0.778127
0
LINE
8
BLACK
6
CONTINUOUS
10
0.98613
20
0.778127
11
0.983
21
0.77389
0
LINE
8
BLACK
6
CONTINUOUS
10
0.983
20
0.77389
11
0.978763
21
0.77076
0
LINE
8
BLACK
6
CONTINUOUS
10
0.978763
20
0.77076
11
0.973792
21
0.769015
0
LINE
8
BLACK
6
CONTINUOUS
10
0.973792
20
0.769015
11
0.970472
21
0.768701
0
LINE
8
BLACK
6
CONTINUOUS
10
0.970472
20
0.768701
11
0.883858
21
0.768701
0
LINE
8
BLACK
6
CONTINUOUS
10
0.883858
20
0.768701
11
0.880539
21
0.769015
0
LINE
8
BLACK
6
CONTINUOUS
10
0.880539
20
0.769015
11
0.875568
21
0.77076
0
LINE
8
BLACK
6
CONTINUOUS
10
0.875568
20
0.77076
11
0.871331
21
0.77389
0
LINE
8
BLACK
6
CONTINUOUS
10
0.871331
20
0.77389
11
0.868201
21
0.778127
0
LINE
8
BLACK
6
CONTINUOUS
10
0.868201
20
0.778127
11
0.866456
21
0.783098
0
LINE
8
BLACK
6
CONTINUOUS
10
0.866456
20
0.783098
11
0.866142
21
0.786417
0
LINE
8
BLACK
6
CONTINUOUS
10
0.866142
20
0.786417
11
0.866142
21
0.806102
0
LINE
8
BLACK
6
CONTINUOUS
10
0.866142
20
0.806102
11
0.866456
21
0.809422
0
LINE
8
BLACK
6
CONTINUOUS
10
0.866456
20
0.809422
11
0.868201
21
0.814392
0
LINE
8
BLACK
6
CONTINUOUS
10
0.868201
20
0.814392
11
0.871331
21
0.81863
0
LINE
8
BLACK
6
CONTINUOUS
10
0.871331
20
0.81863
11
0.875568
21
0.82176
0
LINE
8
BLACK
6
CONTINUOUS
10
0.875568
20
0.82176
11
0.880539
21
0.823505
0
LINE
8
BLACK
6
CONTINUOUS
10
0.880539
20
0.823505
11
0.883858
21
0.823819
0
LINE
8
BLACK
6
CONTINUOUS
10
0.883858
20
0.823819
11
0.970472
21
0.823819
0
LINE
8
BLACK
6
CONTINUOUS
10
0.970472
20
0.823819
11
0.973792
21
0.823505
0
LINE
8
BLACK
6
CONTINUOUS
10
0.497684
20
0.964305
11
0.507211
21
0.962608
0
LINE
8
BLACK
6
CONTINUOUS
10
0.507211
20
0.962608
11
0.516334
21
0.959377
0
LINE
8
BLACK
6
CONTINUOUS
10
0.516334
20
0.959377
11
0.524807
21
0.9547
0
LINE
8
BLACK
6
CONTINUOUS
10
0.524807
20
0.9547
11
0.532401
21
0.948702
0
LINE
8
BLACK
6
CONTINUOUS
10
0.532401
20
0.948702
11
0.538915
21
0.941544
0
LINE
8
BLACK
6
CONTINUOUS
10
0.538915
20
0.941544
11
0.544171
21
0.933418
0
LINE
8
BLACK
6
CONTINUOUS
10
0.544171
20
0.933418
11
0.54803
21
0.924543
0
LINE
8
BLACK
6
CONTINUOUS
10
0.54803
20
0.924543
11
0.550388
21
0.915157
0
LINE
8
BLACK
6
CONTINUOUS
10
0.550388
20
0.915157
11
0.551181
21
0.905512
0
LINE
8
BLACK
6
CONTINUOUS
10
0.551181
20
0.905512
11
0.551111
21
0.902627
0
LINE
8
BLACK
6
CONTINUOUS
10
0.551111
20
0.902627
11
0.549847
21
0.893032
0
LINE
8
BLACK
6
CONTINUOUS
10
0.549847
20
0.893032
11
0.547034
21
0.883772
0
LINE
8
BLACK
6
CONTINUOUS
10
0.547034
20
0.883772
11
0.542746
21
0.875096
0
LINE
8
BLACK
6
CONTINUOUS
10
0.542746
20
0.875096
11
0.537099
21
0.867237
0
LINE
8
BLACK
6
CONTINUOUS
10
0.537099
20
0.867237
11
0.530244
21
0.860406
0
LINE
8
BLACK
6
CONTINUOUS
10
0.530244
20
0.860406
11
0.522365
21
0.854786
0
LINE
8
BLACK
6
CONTINUOUS
10
0.522365
20
0.854786
11
0.513674
21
0.850528
0
LINE
8
BLACK
6
CONTINUOUS
10
0.513674
20
0.850528
11
0.504404
21
0.847747
0
LINE
8
BLACK
6
CONTINUOUS
10
0.504404
20
0.847747
11
0.494805
21
0.846517
0
LINE
8
BLACK
6
CONTINUOUS
10
0.494805
20
0.846517
11
0.485134
21
0.846872
0
LINE
8
BLACK
6
CONTINUOUS
10
0.485134
20
0.846872
11
0.47565
21
0.848802
0
LINE
8
BLACK
6
CONTINUOUS
10
0.47565
20
0.848802
11
0.466609
21
0.852254
0
LINE
8
BLACK
6
CONTINUOUS
10
0.466609
20
0.852254
11
0.458253
21
0.857137
0
LINE
8
BLACK
6
CONTINUOUS
10
0.458253
20
0.857137
11
0.450807
21
0.863319
0
LINE
8
BLACK
6
CONTINUOUS
10
0.450807
20
0.863319
11
0.444471
21
0.870634
0
LINE
8
BLACK
6
CONTINUOUS
10
0.444471
20
0.870634
11
0.439414
21
0.878885
0
LINE
8
BLACK
6
CONTINUOUS
10
0.439414
20
0.878885
11
0.435773
21
0.887852
0
LINE
8
BLACK
6
CONTINUOUS
10
0.435773
20
0.887852
11
0.433646
21
0.897293
0
LINE
8
BLACK
6
CONTINUOUS
10
0.433646
20
0.897293
11
0.433089
21
0.906955
0
LINE
8
BLACK
6
CONTINUOUS
10
0.433089
20
0.906955
11
0.434117
21
0.916578
0
LINE
8
BLACK
6
CONTINUOUS
10
0.434117
20
0.916578
11
0.436703
21
0.925903
0
LINE
8
BLACK
6
CONTINUOUS
10
0.436703
20
0.925903
11
0.440778
21
0.934682
0
LINE
8
BLACK
6
CONTINUOUS
10
0.440778
20
0.934682
11
0.446232
21
0.942676
0
LINE
8
BLACK
6
CONTINUOUS
10
0.446232
20
0.942676
11
0.452918
21
0.949673
0
LINE
8
BLACK
6
CONTINUOUS
10
0.452918
20
0.949673
11
0.460657
21
0.955484
0
LINE
8
BLACK
6
CONTINUOUS
10
0.460657
20
0.955484
11
0.469241
21
0.959953
0
LINE
8
BLACK
6
CONTINUOUS
10
0.469241
20
0.959953
11
0.47844
21
0.962959
0
LINE
8
BLACK
6
CONTINUOUS
10
0.47844
20
0.962959
11
0.488006
21
0.964423
0
LINE
8
BLACK
6
CONTINUOUS
10
0.488006
20
0.964423
11
0.497684
21
0.964305
0
LINE
8
BLACK
6
CONTINUOUS
10
0.891384
20
0.964305
11
0.900912
21
0.962608
0
LINE
8
BLACK
6
CONTINUOUS
10
0.900912
20
0.962608
11
0.910035
21
0.959377
0
LINE
8
BLACK
6
CONTINUOUS
10
0.910035
20
0.959377
11
0.918507
21
0.9547
0
LINE
8
BLACK
6
CONTINUOUS
10
0.918507
20
0.9547
11
0.926102
21
0.948702
0
LINE
8
BLACK
6
CONTINUOUS
10
0.926102
20
0.948702
11
0.932616
21
0.941544
0
LINE
8
BLACK
6
CONTINUOUS
10
0.932616
20
0.941544
11
0.937872
21
0.933418
0
LINE
8
BLACK
6
CONTINUOUS
10
0.937872
20
0.933418
11
0.941731
21
0.924543
0
LINE
8
BLACK
6
CONTINUOUS
10
0.941731
20
0.924543
11
0.944089
21
0.915157
0
LINE
8
BLACK
6
CONTINUOUS
10
0.944089
20
0.915157
11
0.944882
21
0.905512
0
LINE
8
BLACK
6
CONTINUOUS
10
0.944882
20
0.905512
11
0.944811
21
0.902627
0
LINE
8
BLACK
6
CONTINUOUS
10
0.944811
20
0.902627
11
0.943548
21
0.893032
0
LINE
8
BLACK
6
CONTINUOUS
10
0.943548
20
0.893032
11
0.940735
21
0.883772
0
LINE
8
BLACK
6
CONTINUOUS
10
0.940735
20
0.883772
11
0.936447
21
0.875096
0
LINE
8
BLACK
6
CONTINUOUS
10
0.936447
20
0.875096
11
0.930799
21
0.867237
0
LINE
8
BLACK
6
CONTINUOUS
10
0.930799
20
0.867237
11
0.923944
21
0.860406
0
LINE
8
BLACK
6
CONTINUOUS
10
0.923944
20
0.860406
11
0.916066
21
0.854786
0
LINE
8
BLACK
6
CONTINUOUS
10
0.916066
20
0.854786
11
0.907375
21
0.850528
0
LINE
8
BLACK
6
CONTINUOUS
10
0.907375
20
0.850528
11
0.898105
21
0.847747
0
LINE
8
BLACK
6
CONTINUOUS
10
0.898105
20
0.847747
11
0.888506
21
0.846517
0
LINE
8
BLACK
6
CONTINUOUS
10
0.888506
20
0.846517
11
0.878834
21
0.846872
0
LINE
8
BLACK
6
CONTINUOUS
10
0.878834
20
0.846872
11
0.869351
21
0.848802
0
LINE
8
BLACK
6
CONTINUOUS
10
0.869351
20
0.848802
11
0.86031
21
0.852254
0
LINE
8
BLACK
6
CONTINUOUS
10
0.86031
20
0.852254
11
0.851954
21
0.857137
0
LINE
8
BLACK
6
CONTINUOUS
10
0.851954
20
0.857137
11
0.844508
21
0.863319
0
LINE
8
BLACK
6
CONTINUOUS
10
0.844508
20
0.863319
11
0.838172
21
0.870634
0
LINE
8
BLACK
6
CONTINUOUS
10
0.838172
20
0.870634
11
0.833115
21
0.878885
0
LINE
8
BLACK
6
CONTINUOUS
10
0.833115
20
0.878885
11
0.829474
21
0.887852
0
LINE
8
BLACK
6
CONTINUOUS
10
0.829474
20
0.887852
11
0.827346
21
0.897293
0
LINE
8
BLACK
6
CONTINUOUS
10
0.827346
20
0.897293
11
0.826789
21
0.906955
0
LINE
8
BLACK
6
CONTINUOUS
10
0.826789
20
0.906955
11
0.827818
21
0.916578
0
LINE
8
BLACK
6
CONTINUOUS
10
0.827818
20
0.916578
11
0.830404
21
0.925903
0
LINE
8
BLACK
6
CONTINUOUS
10
0.830404
20
0.925903
11
0.834479
21
0.934682
0
LINE
8
BLACK
6
CONTINUOUS
10
0.834479
20
0.934682
11
0.839932
21
0.942676
0
LINE
8
BLACK
6
CONTINUOUS
10
0.839932
20
0.942676
11
0.846619
21
0.949673
0
LINE
8
BLACK
6
CONTINUOUS
10
0.846619
20
0.949673
11
0.854358
21
0.955484
0
LINE
8
BLACK
6
CONTINUOUS
10
0.854358
20
0.955484
11
0.862942
21
0.959953
0
LINE
8
BLACK
6
CONTINUOUS
10
0.862942
20
0.959953
11
0.872141
21
0.962959
0
LINE
8
BLACK
6
CONTINUOUS
10
0.872141
20
0.962959
11
0.881707
21
0.964423
0
LINE
8
BLACK
6
CONTINUOUS
10
0.881707
20
0.964423
11
0.891384
21
0.964305
0
LINE
8
BLACK
6
CONTINUOUS
10
0.103983
20
0.964305
11
0.113511
21
0.962608
0
LINE
8
BLACK
6
CONTINUOUS
10
0.113511
20
0.962608
11
0.122633
21
0.959377
0
LINE
8
BLACK
6
CONTINUOUS
10
0.122633
20
0.959377
11
0.131106
21
0.9547
0
LINE
8
BLACK
6
CONTINUOUS
10
0.131106
20
0.9547
11
0.138701
21
0.948702
0
LINE
8
BLACK
6
CONTINUOUS
10
0.138701
20
0.948702
11
0.145214
21
0.941544
0
LINE
8
BLACK
6
CONTINUOUS
10
0.145214
20
0.941544
11
0.150471
21
0.933418
0
LINE
8
BLACK
6
CONTINUOUS
10
0.150471
20
0.933418
11
0.15433
21
0.924543
0
LINE
8
BLACK
6
CONTINUOUS
10
0.15433
20
0.924543
11
0.156687
21
0.915157
0
LINE
8
BLACK
6
CONTINUOUS
10
0.156687
20
0.915157
11
0.15748
21
0.905512
0
LINE
8
BLACK
6
CONTINUOUS
10
0.15748
20
0.905512
11
0.15741
21
0.902627
0
LINE
8
BLACK
6
CONTINUOUS
10
0.15741
20
0.902627
11
0.156147
21
0.893032
0
LINE
8
BLACK
6
CONTINUOUS
10
0.156147
20
0.893032
11
0.153333
21
0.883772
0
LINE
8
BLACK
6
CONTINUOUS
10
0.153333
20
0.883772
11
0.149045
21
0.875096
0
LINE
8
BLACK
6
CONTINUOUS
10
0.149045
20
0.875096
11
0.143398
21
0.867237
0
LINE
8
BLACK
6
CONTINUOUS
10
0.143398
20
0.867237
11
0.136543
21
0.860406
0
LINE
8
BLACK
6
CONTINUOUS
10
0.136543
20
0.860406
11
0.128664
21
0.854786
0
LINE
8
BLACK
6
CONTINUOUS
10
0.128664
20
0.854786
11
0.119973
21
0.850528
0
LINE
8
BLACK
6
CONTINUOUS
10
0.119973
20
0.850528
11
0.110703
21
0.847747
0
LINE
8
BLACK
6
CONTINUOUS
10
0.110703
20
0.847747
11
0.101104
21
0.846517
0
LINE
8
BLACK
6
CONTINUOUS
10
0.101104
20
0.846517
11
0.0914328
21
0.846872
0
LINE
8
BLACK
6
CONTINUOUS
10
0.0914328
20
0.846872
11
0.0819493
21
0.848802
0
LINE
8
BLACK
6
CONTINUOUS
10
0.0819493
20
0.848802
11
0.0729083
21
0.852254
0
LINE
8
BLACK
6
CONTINUOUS
10
0.0729083
20
0.852254
11
0.0645526
21
0.857137
0
LINE
8
BLACK
6
CONTINUOUS
10
0.0645526
20
0.857137
11
0.0571065
21
0.863319
0
LINE
8
BLACK
6
CONTINUOUS
10
0.0571065
20
0.863319
11
0.0507701
21
0.870634
0
LINE
8
BLACK
6
CONTINUOUS
10
0.0507701
20
0.870634
11
0.0457134
21
0.878885
0
LINE
8
BLACK
6
CONTINUOUS
10
0.0457134
20
0.878885
11
0.0420724
21
0.887852
0
LINE
8
BLACK
6
CONTINUOUS
10
0.0420724
20
0.887852
11
0.0399448
21
0.897293
0
LINE
8
BLACK
6
CONTINUOUS
10
0.0399448
20
0.897293
11
0.0393877
21
0.906955
0
LINE
8
BLACK
6
CONTINUOUS
10
0.0393877
20
0.906955
11
0.0404161
21
0.916578
0
LINE
8
BLACK
6
CONTINUOUS
10
0.0404161
20
0.916578
11
0.0430024
21
0.925903
0
LINE
8
BLACK
6
CONTINUOUS
10
0.0430024
20
0.925903
11
0.0470771
21
0.934682
0
LINE
8
BLACK
6
CONTINUOUS
10
0.0470771
20
0.934682
11
0.0525307
21
0.942676
0
LINE
8
BLACK
6
CONTINUOUS
10
0.0525307
20
0.942676
11
0.059217
21
0.949673
0
LINE
8
BLACK
6
CONTINUOUS
10
0.059217
20
0.949673
11
0.0669561
21
0.955484
0
LINE
8
BLACK
6
CONTINUOUS
10
0.0669561
20
0.955484
11
0.0755404
21
0.959953
0
LINE
8
BLACK
6
CONTINUOUS
10
0.0755404
20
0.959953
11
0.0847393
21
0.962959
0
LINE
8
BLACK
6
CONTINUOUS
10
0.0847393
20
0.962959
11
0.0943057
21
0.964423
0
LINE
8
BLACK
6
CONTINUOUS
10
0.0943057
20
0.964423
11
0.103983
21
0.964305
  0
ENDSEC
  0
EOF
