  0
SECTION
  2
HEADER
  9
$ANGBASE
  50
0.0
  9
$ANGDIR
  70
1
  9
$MEASUREMENT
  70
0
  0
ENDSEC
  0
SECTION
  2
TABLES
  0
TABLE
  2
LTYPE
  70
4
  0
LTYPE
  5
40F
  2
CONTINUOUS
  70
0
  3
Solid line
  72
65
  73
0
  40
0.0
  0
LTYPE
  5
410
  2
DASHDOT
 70
0
  3
Dash Dot ____ _ ____ _
 72
65
 73
4
 40
2.0
 49
1.25
 49
-0.25
 49
0.25
 49
-0.25
  0
LTYPE
  5
411
  2
DASHED
 70
0
  3
Dashed __ __ __ __ __
 72
65
 73
2
 40
0.75
 49
0.5
 49
-0.25
  0
LTYPE
  5
43B
  2
DOTTED
 70
0
  3
Dotted .  .  .  .
 72
65
 73
2
 40
0.2
 49
0.0
 49
-0.2
  0
ENDTAB
  0
TABLE
  2
STYLE
  70
4
  0
STYLE
  2
KICAD
  70
0
  40
0
  41
1
  42
1
  50
0
  71
0
  3
isocp.shx
  0
STYLE
  2
KICADB
  70
0
  40
0
  41
1
  42
1
  50
0
  71
0
  3
isocp.shx
  0
STYLE
  2
KICADI
  70
0
  40
0
  41
1
  42
1
  50
15
  71
0
  3
isocp.shx
  0
STYLE
  2
KICADBI
  70
0
  40
0
  41
1
  42
1
  50
15
  71
0
  3
isocp.shx
  0
ENDTAB
  0
TABLE
  2
LAYER
  70
1
  0
LAYER
  2
BLACK
  70
0
  62
7
  6
CONTINUOUS
  0
ENDTAB
  0
ENDSEC
  0
SECTION
  2
ENTITIES
0
LINE
8
BLACK
6
CONTINUOUS
10
0.6970210236220472
20
0.1105588188976378
11
0.6980863779527559
21
0.1094934645669291
0
LINE
8
BLACK
6
CONTINUOUS
10
0.6980863779527559
20
0.1094934645669291
11
0.6982362204724409
21
0.108740157480315
0
LINE
8
BLACK
6
CONTINUOUS
10
0.6982362204724409
20
0.108740157480315
11
0.6982362204724409
21
0.051259842519685
0
LINE
8
BLACK
6
CONTINUOUS
10
0.6982362204724409
20
0.051259842519685
11
0.6980863779527559
21
0.0505065354330709
0
LINE
8
BLACK
6
CONTINUOUS
10
0.6980863779527559
20
0.0505065354330709
11
0.6970210236220472
21
0.0494411811023622
0
LINE
8
BLACK
6
CONTINUOUS
10
0.6970210236220472
20
0.0494411811023622
11
0.6962677165354331
21
0.0492913385826772
0
LINE
8
BLACK
6
CONTINUOUS
10
0.6962677165354331
20
0.0492913385826772
11
0.579732283464567
21
0.0492913385826772
0
LINE
8
BLACK
6
CONTINUOUS
10
0.579732283464567
20
0.0492913385826772
11
0.5789789763779527
21
0.0494411811023622
0
LINE
8
BLACK
6
CONTINUOUS
10
0.5789789763779527
20
0.0494411811023622
11
0.5779136220472441
21
0.0505065354330709
0
LINE
8
BLACK
6
CONTINUOUS
10
0.5779136220472441
20
0.0505065354330709
11
0.5777637795275591
21
0.051259842519685
0
LINE
8
BLACK
6
CONTINUOUS
10
0.5777637795275591
20
0.051259842519685
11
0.5777637795275591
21
0.108740157480315
0
LINE
8
BLACK
6
CONTINUOUS
10
0.5777637795275591
20
0.108740157480315
11
0.5779136220472441
21
0.1094934645669291
0
LINE
8
BLACK
6
CONTINUOUS
10
0.5779136220472441
20
0.1094934645669291
11
0.5789789763779527
21
0.1105588188976378
0
LINE
8
BLACK
6
CONTINUOUS
10
0.5789789763779527
20
0.1105588188976378
11
0.579732283464567
21
0.1107086614173228
0
LINE
8
BLACK
6
CONTINUOUS
10
0.579732283464567
20
0.1107086614173228
11
0.6962677165354331
21
0.1107086614173228
0
LINE
8
BLACK
6
CONTINUOUS
10
0.6962677165354331
20
0.1107086614173228
11
0.6970210236220472
21
0.1105588188976378
0
LINE
8
BLACK
6
CONTINUOUS
10
0.5817007874015748
20
0.1067716535433071
11
0.5817007874015748
21
0.0532283464566929
0
LINE
8
BLACK
6
CONTINUOUS
10
0.5817007874015748
20
0.0532283464566929
11
0.6942992125984252
21
0.0532283464566929
0
LINE
8
BLACK
6
CONTINUOUS
10
0.6942992125984252
20
0.0532283464566929
11
0.6942992125984252
21
0.1067716535433071
0
LINE
8
BLACK
6
CONTINUOUS
10
0.6942992125984252
20
0.1067716535433071
11
0.5817007874015748
21
0.1067716535433071
0
LINE
8
BLACK
6
CONTINUOUS
10
0.2566588188976378
20
0.4435509448818897
11
0.2577241732283465
21
0.4424855905511811
0
LINE
8
BLACK
6
CONTINUOUS
10
0.2577241732283465
20
0.4424855905511811
11
0.2578740157480315
21
0.4417322834645669
0
LINE
8
BLACK
6
CONTINUOUS
10
0.2578740157480315
20
0.4417322834645669
11
0.2578740157480315
21
0.0700787401574803
0
LINE
8
BLACK
6
CONTINUOUS
10
0.2578740157480315
20
0.0700787401574803
11
0.2577241732283465
21
0.0693254330708661
0
LINE
8
BLACK
6
CONTINUOUS
10
0.2577241732283465
20
0.0693254330708661
11
0.2566588188976378
21
0.0682600787401575
0
LINE
8
BLACK
6
CONTINUOUS
10
0.2566588188976378
20
0.0682600787401575
11
0.2559055118110236
21
0.0681102362204724
0
LINE
8
BLACK
6
CONTINUOUS
10
0.2559055118110236
20
0.0681102362204724
11
0.0039370078740157
21
0.0681102362204724
0
LINE
8
BLACK
6
CONTINUOUS
10
0.0039370078740157
20
0.0681102362204724
11
0.0031837007874016
21
0.0682600787401575
0
LINE
8
BLACK
6
CONTINUOUS
10
0.0031837007874016
20
0.0682600787401575
11
0.0021183464566929
21
0.0693254330708661
0
LINE
8
BLACK
6
CONTINUOUS
10
0.0021183464566929
20
0.0693254330708661
11
0.0019685039370079
21
0.0700787401574803
0
LINE
8
BLACK
6
CONTINUOUS
10
0.0019685039370079
20
0.0700787401574803
11
0.0019685039370079
21
0.4417322834645669
0
LINE
8
BLACK
6
CONTINUOUS
10
0.0019685039370079
20
0.4417322834645669
11
0.0021183464566929
21
0.4424855905511811
0
LINE
8
BLACK
6
CONTINUOUS
10
0.0021183464566929
20
0.4424855905511811
11
0.0031837007874016
21
0.4435509448818897
0
LINE
8
BLACK
6
CONTINUOUS
10
0.0031837007874016
20
0.4435509448818897
11
0.0039370078740157
21
0.4437007874015748
0
LINE
8
BLACK
6
CONTINUOUS
10
0.0039370078740157
20
0.4437007874015748
11
0.2559055118110236
21
0.4437007874015748
0
LINE
8
BLACK
6
CONTINUOUS
10
0.2559055118110236
20
0.4437007874015748
11
0.2566588188976378
21
0.4435509448818897
0
LINE
8
BLACK
6
CONTINUOUS
10
0.0059055118110236
20
0.439763779527559
11
0.0059055118110236
21
0.0720472440944882
0
LINE
8
BLACK
6
CONTINUOUS
10
0.0059055118110236
20
0.0720472440944882
11
0.2539370078740157
21
0.0720472440944882
0
LINE
8
BLACK
6
CONTINUOUS
10
0.2539370078740157
20
0.0720472440944882
11
0.2539370078740157
21
0.439763779527559
0
LINE
8
BLACK
6
CONTINUOUS
10
0.2539370078740157
20
0.439763779527559
11
0.0059055118110236
21
0.439763779527559
0
LINE
8
BLACK
6
CONTINUOUS
10
0.9810682677165354
20
0.4435509448818897
11
0.9821336220472441
21
0.4424855905511811
0
LINE
8
BLACK
6
CONTINUOUS
10
0.9821336220472441
20
0.4424855905511811
11
0.9822834645669292
21
0.4417322834645669
0
LINE
8
BLACK
6
CONTINUOUS
10
0.9822834645669292
20
0.4417322834645669
11
0.9822834645669292
21
0.0700787401574803
0
LINE
8
BLACK
6
CONTINUOUS
10
0.9822834645669292
20
0.0700787401574803
11
0.9821336220472441
21
0.0693254330708661
0
LINE
8
BLACK
6
CONTINUOUS
10
0.9821336220472441
20
0.0693254330708661
11
0.9810682677165354
21
0.0682600787401575
0
LINE
8
BLACK
6
CONTINUOUS
10
0.9810682677165354
20
0.0682600787401575
11
0.9803149606299212
21
0.0681102362204724
0
LINE
8
BLACK
6
CONTINUOUS
10
0.9803149606299212
20
0.0681102362204724
11
0.7283464566929134
21
0.0681102362204724
0
LINE
8
BLACK
6
CONTINUOUS
10
0.7283464566929134
20
0.0681102362204724
11
0.7275931496062992
21
0.0682600787401575
0
LINE
8
BLACK
6
CONTINUOUS
10
0.7275931496062992
20
0.0682600787401575
11
0.7265277952755905
21
0.0693254330708661
0
LINE
8
BLACK
6
CONTINUOUS
10
0.7265277952755905
20
0.0693254330708661
11
0.7263779527559054
21
0.0700787401574803
0
LINE
8
BLACK
6
CONTINUOUS
10
0.7263779527559054
20
0.0700787401574803
11
0.7263779527559054
21
0.194244094488189
0
LINE
8
BLACK
6
CONTINUOUS
10
0.7263779527559054
20
0.194244094488189
11
0.6712598425196851
21
0.194244094488189
0
LINE
8
BLACK
6
CONTINUOUS
10
0.6712598425196851
20
0.194244094488189
11
0.6705065354330708
21
0.194393937007874
0
LINE
8
BLACK
6
CONTINUOUS
10
0.6705065354330708
20
0.194393937007874
11
0.6694411811023622
21
0.1954592913385827
0
LINE
8
BLACK
6
CONTINUOUS
10
0.6694411811023622
20
0.1954592913385827
11
0.6692913385826772
21
0.1962125984251968
0
LINE
8
BLACK
6
CONTINUOUS
10
0.6692913385826772
20
0.1962125984251968
11
0.6692913385826772
21
0.312748031496063
0
LINE
8
BLACK
6
CONTINUOUS
10
0.6692913385826772
20
0.312748031496063
11
0.6694411811023622
21
0.3135013385826771
0
LINE
8
BLACK
6
CONTINUOUS
10
0.6694411811023622
20
0.3135013385826771
11
0.6705065354330708
21
0.3145666929133858
0
LINE
8
BLACK
6
CONTINUOUS
10
0.6705065354330708
20
0.3145666929133858
11
0.6712598425196851
21
0.3147165354330709
0
LINE
8
BLACK
6
CONTINUOUS
10
0.6712598425196851
20
0.3147165354330709
11
0.7263779527559054
21
0.3147165354330709
0
LINE
8
BLACK
6
CONTINUOUS
10
0.7263779527559054
20
0.3147165354330709
11
0.7263779527559054
21
0.322244094488189
0
LINE
8
BLACK
6
CONTINUOUS
10
0.7263779527559054
20
0.322244094488189
11
0.6712598425196851
21
0.322244094488189
0
LINE
8
BLACK
6
CONTINUOUS
10
0.6712598425196851
20
0.322244094488189
11
0.6705065354330708
21
0.322393937007874
0
LINE
8
BLACK
6
CONTINUOUS
10
0.6705065354330708
20
0.322393937007874
11
0.6694411811023622
21
0.3234592913385826
0
LINE
8
BLACK
6
CONTINUOUS
10
0.6694411811023622
20
0.3234592913385826
11
0.6692913385826772
21
0.3242125984251968
0
LINE
8
BLACK
6
CONTINUOUS
10
0.6692913385826772
20
0.3242125984251968
11
0.6692913385826772
21
0.440748031496063
0
LINE
8
BLACK
6
CONTINUOUS
10
0.6692913385826772
20
0.440748031496063
11
0.6694411811023622
21
0.4415013385826771
0
LINE
8
BLACK
6
CONTINUOUS
10
0.6694411811023622
20
0.4415013385826771
11
0.6705065354330708
21
0.4425666929133858
0
LINE
8
BLACK
6
CONTINUOUS
10
0.6705065354330708
20
0.4425666929133858
11
0.6712598425196851
21
0.4427165354330709
0
LINE
8
BLACK
6
CONTINUOUS
10
0.6712598425196851
20
0.4427165354330709
11
0.7267587401574803
21
0.4427165354330709
0
LINE
8
BLACK
6
CONTINUOUS
10
0.7267587401574803
20
0.4427165354330709
11
0.7275931496062992
21
0.4435509448818897
0
LINE
8
BLACK
6
CONTINUOUS
10
0.7275931496062992
20
0.4435509448818897
11
0.7283464566929134
21
0.4437007874015748
0
LINE
8
BLACK
6
CONTINUOUS
10
0.7283464566929134
20
0.4437007874015748
11
0.9803149606299212
21
0.4437007874015748
0
LINE
8
BLACK
6
CONTINUOUS
10
0.9803149606299212
20
0.4437007874015748
11
0.9810682677165354
21
0.4435509448818897
0
LINE
8
BLACK
6
CONTINUOUS
10
0.7307086614173228
20
0.439763779527559
11
0.7307086614173228
21
0.3242125984251968
0
LINE
8
BLACK
6
CONTINUOUS
10
0.7307086614173228
20
0.3242125984251968
11
0.7305588188976377
21
0.3234592913385826
0
LINE
8
BLACK
6
CONTINUOUS
10
0.7305588188976377
20
0.3234592913385826
11
0.7303149606299213
21
0.3232154330708661
0
LINE
8
BLACK
6
CONTINUOUS
10
0.7303149606299213
20
0.3232154330708661
11
0.7303149606299213
21
0.3137451968503937
0
LINE
8
BLACK
6
CONTINUOUS
10
0.7303149606299213
20
0.3137451968503937
11
0.7305588188976377
21
0.3135013385826771
0
LINE
8
BLACK
6
CONTINUOUS
10
0.7305588188976377
20
0.3135013385826771
11
0.7307086614173228
21
0.312748031496063
0
LINE
8
BLACK
6
CONTINUOUS
10
0.7307086614173228
20
0.312748031496063
11
0.7307086614173228
21
0.1962125984251968
0
LINE
8
BLACK
6
CONTINUOUS
10
0.7307086614173228
20
0.1962125984251968
11
0.7305588188976377
21
0.1954592913385827
0
LINE
8
BLACK
6
CONTINUOUS
10
0.7305588188976377
20
0.1954592913385827
11
0.7303149606299213
21
0.1952154330708661
0
LINE
8
BLACK
6
CONTINUOUS
10
0.7303149606299213
20
0.1952154330708661
11
0.7303149606299213
21
0.0720472440944882
0
LINE
8
BLACK
6
CONTINUOUS
10
0.7303149606299213
20
0.0720472440944882
11
0.9783464566929133
21
0.0720472440944882
0
LINE
8
BLACK
6
CONTINUOUS
10
0.9783464566929133
20
0.0720472440944882
11
0.9783464566929133
21
0.439763779527559
0
LINE
8
BLACK
6
CONTINUOUS
10
0.9783464566929133
20
0.439763779527559
11
0.7307086614173228
21
0.439763779527559
0
LINE
8
BLACK
6
CONTINUOUS
10
0.6732283464566929
20
0.3107795275590551
11
0.6732283464566929
21
0.1981811023622047
0
LINE
8
BLACK
6
CONTINUOUS
10
0.6732283464566929
20
0.1981811023622047
11
0.7263779527559054
21
0.1981811023622047
0
LINE
8
BLACK
6
CONTINUOUS
10
0.7263779527559054
20
0.1981811023622047
11
0.7263779527559054
21
0.3107795275590551
0
LINE
8
BLACK
6
CONTINUOUS
10
0.7263779527559054
20
0.3107795275590551
11
0.6732283464566929
21
0.3107795275590551
0
LINE
8
BLACK
6
CONTINUOUS
10
0.6732283464566929
20
0.4387795275590551
11
0.6732283464566929
21
0.3261811023622047
0
LINE
8
BLACK
6
CONTINUOUS
10
0.6732283464566929
20
0.3261811023622047
11
0.7263779527559054
21
0.3261811023622047
0
LINE
8
BLACK
6
CONTINUOUS
10
0.7263779527559054
20
0.3261811023622047
11
0.7263779527559054
21
0.4387795275590551
0
LINE
8
BLACK
6
CONTINUOUS
10
0.7263779527559054
20
0.4387795275590551
11
0.6732283464566929
21
0.4387795275590551
0
LINE
8
BLACK
6
CONTINUOUS
10
0.4033359842519685
20
0.2067477952755905
11
0.4044013385826772
21
0.2056824409448819
0
LINE
8
BLACK
6
CONTINUOUS
10
0.4044013385826772
20
0.2056824409448819
11
0.4045511811023622
21
0.2049291338582677
0
LINE
8
BLACK
6
CONTINUOUS
10
0.4045511811023622
20
0.2049291338582677
11
0.4045511811023622
21
0.0710708661417323
0
LINE
8
BLACK
6
CONTINUOUS
10
0.4045511811023622
20
0.0710708661417323
11
0.4044013385826772
21
0.0703175590551181
0
LINE
8
BLACK
6
CONTINUOUS
10
0.4044013385826772
20
0.0703175590551181
11
0.4033359842519685
21
0.0692522047244094
0
LINE
8
BLACK
6
CONTINUOUS
10
0.4033359842519685
20
0.0692522047244094
11
0.4025826771653543
21
0.0691023622047244
0
LINE
8
BLACK
6
CONTINUOUS
10
0.4025826771653543
20
0.0691023622047244
11
0.3254173228346456
21
0.0691023622047244
0
LINE
8
BLACK
6
CONTINUOUS
10
0.3254173228346456
20
0.0691023622047244
11
0.3246640157480315
21
0.0692522047244094
0
LINE
8
BLACK
6
CONTINUOUS
10
0.3246640157480315
20
0.0692522047244094
11
0.3235986614173229
21
0.0703175590551181
0
LINE
8
BLACK
6
CONTINUOUS
10
0.3235986614173229
20
0.0703175590551181
11
0.3234488188976378
21
0.0710708661417323
0
LINE
8
BLACK
6
CONTINUOUS
10
0.3234488188976378
20
0.0710708661417323
11
0.3234488188976378
21
0.2049291338582677
0
LINE
8
BLACK
6
CONTINUOUS
10
0.3234488188976378
20
0.2049291338582677
11
0.3235986614173229
21
0.2056824409448819
0
LINE
8
BLACK
6
CONTINUOUS
10
0.3235986614173229
20
0.2056824409448819
11
0.3246640157480315
21
0.2067477952755905
0
LINE
8
BLACK
6
CONTINUOUS
10
0.3246640157480315
20
0.2067477952755905
11
0.3254173228346456
21
0.2068976377952756
0
LINE
8
BLACK
6
CONTINUOUS
10
0.3254173228346456
20
0.2068976377952756
11
0.4025826771653543
21
0.2068976377952756
0
LINE
8
BLACK
6
CONTINUOUS
10
0.4025826771653543
20
0.2068976377952756
11
0.4033359842519685
21
0.2067477952755905
0
LINE
8
BLACK
6
CONTINUOUS
10
0.3273858267716535
20
0.2029606299212598
11
0.3273858267716535
21
0.0730393700787402
0
LINE
8
BLACK
6
CONTINUOUS
10
0.3273858267716535
20
0.0730393700787402
11
0.4006141732283465
21
0.0730393700787402
0
LINE
8
BLACK
6
CONTINUOUS
10
0.4006141732283465
20
0.0730393700787402
11
0.4006141732283465
21
0.2029606299212598
0
LINE
8
BLACK
6
CONTINUOUS
10
0.4006141732283465
20
0.2029606299212598
11
0.3273858267716535
21
0.2029606299212598
0
LINE
8
BLACK
6
CONTINUOUS
10
0.5596824409448818
20
0.2625273228346456
11
0.5607477952755905
21
0.261461968503937
0
LINE
8
BLACK
6
CONTINUOUS
10
0.5607477952755905
20
0.261461968503937
11
0.5608976377952756
21
0.2607086614173229
0
LINE
8
BLACK
6
CONTINUOUS
10
0.5608976377952756
20
0.2607086614173229
11
0.5608976377952756
21
0.0992913385826772
0
LINE
8
BLACK
6
CONTINUOUS
10
0.5608976377952756
20
0.0992913385826772
11
0.5607477952755905
21
0.098538031496063
0
LINE
8
BLACK
6
CONTINUOUS
10
0.5607477952755905
20
0.098538031496063
11
0.5596824409448818
21
0.0974726771653543
0
LINE
8
BLACK
6
CONTINUOUS
10
0.5596824409448818
20
0.0974726771653543
11
0.5589291338582677
21
0.0973228346456693
0
LINE
8
BLACK
6
CONTINUOUS
10
0.5589291338582677
20
0.0973228346456693
11
0.4250708661417323
21
0.0973228346456693
0
LINE
8
BLACK
6
CONTINUOUS
10
0.4250708661417323
20
0.0973228346456693
11
0.4243175590551181
21
0.0974726771653543
0
LINE
8
BLACK
6
CONTINUOUS
10
0.4243175590551181
20
0.0974726771653543
11
0.4232522047244094
21
0.098538031496063
0
LINE
8
BLACK
6
CONTINUOUS
10
0.4232522047244094
20
0.098538031496063
11
0.4231023622047244
21
0.0992913385826772
0
LINE
8
BLACK
6
CONTINUOUS
10
0.4231023622047244
20
0.0992913385826772
11
0.4231023622047244
21
0.2607086614173229
0
LINE
8
BLACK
6
CONTINUOUS
10
0.4231023622047244
20
0.2607086614173229
11
0.4232522047244094
21
0.261461968503937
0
LINE
8
BLACK
6
CONTINUOUS
10
0.4232522047244094
20
0.261461968503937
11
0.4243175590551181
21
0.2625273228346456
0
LINE
8
BLACK
6
CONTINUOUS
10
0.4243175590551181
20
0.2625273228346456
11
0.4250708661417323
21
0.2626771653543307
0
LINE
8
BLACK
6
CONTINUOUS
10
0.4250708661417323
20
0.2626771653543307
11
0.5589291338582677
21
0.2626771653543307
0
LINE
8
BLACK
6
CONTINUOUS
10
0.5589291338582677
20
0.2626771653543307
11
0.5596824409448818
21
0.2625273228346456
0
LINE
8
BLACK
6
CONTINUOUS
10
0.4270393700787402
20
0.258740157480315
11
0.4270393700787402
21
0.101259842519685
0
LINE
8
BLACK
6
CONTINUOUS
10
0.4270393700787402
20
0.101259842519685
11
0.5569606299212598
21
0.101259842519685
0
LINE
8
BLACK
6
CONTINUOUS
10
0.5569606299212598
20
0.101259842519685
11
0.5569606299212598
21
0.258740157480315
0
LINE
8
BLACK
6
CONTINUOUS
10
0.5569606299212598
20
0.258740157480315
11
0.4270393700787402
21
0.258740157480315
0
LINE
8
BLACK
6
CONTINUOUS
10
0.3183123622047244
20
0.2060312598425197
11
0.3193777165354331
21
0.204965905511811
0
LINE
8
BLACK
6
CONTINUOUS
10
0.3193777165354331
20
0.204965905511811
11
0.3195275590551181
21
0.2042125984251968
0
LINE
8
BLACK
6
CONTINUOUS
10
0.3195275590551181
20
0.2042125984251968
11
0.3195275590551181
21
0.1057874015748032
0
LINE
8
BLACK
6
CONTINUOUS
10
0.3195275590551181
20
0.1057874015748032
11
0.3193777165354331
21
0.105034094488189
0
LINE
8
BLACK
6
CONTINUOUS
10
0.3193777165354331
20
0.105034094488189
11
0.3183123622047244
21
0.1039687401574803
0
LINE
8
BLACK
6
CONTINUOUS
10
0.3183123622047244
20
0.1039687401574803
11
0.3175590551181102
21
0.1038188976377953
0
LINE
8
BLACK
6
CONTINUOUS
10
0.3175590551181102
20
0.1038188976377953
11
0.2624409448818897
21
0.1038188976377953
0
LINE
8
BLACK
6
CONTINUOUS
10
0.2624409448818897
20
0.1038188976377953
11
0.2616876377952756
21
0.1039687401574803
0
LINE
8
BLACK
6
CONTINUOUS
10
0.2616876377952756
20
0.1039687401574803
11
0.260622283464567
21
0.105034094488189
0
LINE
8
BLACK
6
CONTINUOUS
10
0.260622283464567
20
0.105034094488189
11
0.2604724409448819
21
0.1057874015748032
0
LINE
8
BLACK
6
CONTINUOUS
10
0.2604724409448819
20
0.1057874015748032
11
0.2604724409448819
21
0.2042125984251968
0
LINE
8
BLACK
6
CONTINUOUS
10
0.2604724409448819
20
0.2042125984251968
11
0.260622283464567
21
0.204965905511811
0
LINE
8
BLACK
6
CONTINUOUS
10
0.260622283464567
20
0.204965905511811
11
0.2616876377952756
21
0.2060312598425197
0
LINE
8
BLACK
6
CONTINUOUS
10
0.2616876377952756
20
0.2060312598425197
11
0.2624409448818897
21
0.2061811023622047
0
LINE
8
BLACK
6
CONTINUOUS
10
0.2624409448818897
20
0.2061811023622047
11
0.3175590551181102
21
0.2061811023622047
0
LINE
8
BLACK
6
CONTINUOUS
10
0.3175590551181102
20
0.2061811023622047
11
0.3183123622047244
21
0.2060312598425197
0
LINE
8
BLACK
6
CONTINUOUS
10
0.2644094488188976
20
0.202244094488189
11
0.2644094488188976
21
0.107755905511811
0
LINE
8
BLACK
6
CONTINUOUS
10
0.2644094488188976
20
0.107755905511811
11
0.3155905511811024
21
0.107755905511811
0
LINE
8
BLACK
6
CONTINUOUS
10
0.3155905511811024
20
0.107755905511811
11
0.3155905511811024
21
0.202244094488189
0
LINE
8
BLACK
6
CONTINUOUS
10
0.3155905511811024
20
0.202244094488189
11
0.2644094488188976
21
0.202244094488189
0
LINE
8
BLACK
6
CONTINUOUS
10
0.6970210236220472
20
0.1759918897637795
11
0.6980863779527559
21
0.1749265354330709
0
LINE
8
BLACK
6
CONTINUOUS
10
0.6980863779527559
20
0.1749265354330709
11
0.6982362204724409
21
0.1741732283464567
0
LINE
8
BLACK
6
CONTINUOUS
10
0.6982362204724409
20
0.1741732283464567
11
0.6982362204724409
21
0.1166929133858268
0
LINE
8
BLACK
6
CONTINUOUS
10
0.6982362204724409
20
0.1166929133858268
11
0.6980863779527559
21
0.1159396062992126
0
LINE
8
BLACK
6
CONTINUOUS
10
0.6980863779527559
20
0.1159396062992126
11
0.6970210236220472
21
0.1148742519685039
0
LINE
8
BLACK
6
CONTINUOUS
10
0.6970210236220472
20
0.1148742519685039
11
0.6962677165354331
21
0.1147244094488189
0
LINE
8
BLACK
6
CONTINUOUS
10
0.6962677165354331
20
0.1147244094488189
11
0.579732283464567
21
0.1147244094488189
0
LINE
8
BLACK
6
CONTINUOUS
10
0.579732283464567
20
0.1147244094488189
11
0.5789789763779527
21
0.1148742519685039
0
LINE
8
BLACK
6
CONTINUOUS
10
0.5789789763779527
20
0.1148742519685039
11
0.5779136220472441
21
0.1159396062992126
0
LINE
8
BLACK
6
CONTINUOUS
10
0.5779136220472441
20
0.1159396062992126
11
0.5777637795275591
21
0.1166929133858268
0
LINE
8
BLACK
6
CONTINUOUS
10
0.5777637795275591
20
0.1166929133858268
11
0.5777637795275591
21
0.1741732283464567
0
LINE
8
BLACK
6
CONTINUOUS
10
0.5777637795275591
20
0.1741732283464567
11
0.5779136220472441
21
0.1749265354330709
0
LINE
8
BLACK
6
CONTINUOUS
10
0.5779136220472441
20
0.1749265354330709
11
0.5789789763779527
21
0.1759918897637795
0
LINE
8
BLACK
6
CONTINUOUS
10
0.5789789763779527
20
0.1759918897637795
11
0.579732283464567
21
0.1761417322834646
0
LINE
8
BLACK
6
CONTINUOUS
10
0.579732283464567
20
0.1761417322834646
11
0.6962677165354331
21
0.1761417322834646
0
LINE
8
BLACK
6
CONTINUOUS
10
0.6962677165354331
20
0.1761417322834646
11
0.6970210236220472
21
0.1759918897637795
0
LINE
8
BLACK
6
CONTINUOUS
10
0.5817007874015748
20
0.1722047244094488
11
0.5817007874015748
21
0.1186614173228346
0
LINE
8
BLACK
6
CONTINUOUS
10
0.5817007874015748
20
0.1186614173228346
11
0.6942992125984252
21
0.1186614173228346
0
LINE
8
BLACK
6
CONTINUOUS
10
0.6942992125984252
20
0.1186614173228346
11
0.6942992125984252
21
0.1722047244094488
0
LINE
8
BLACK
6
CONTINUOUS
10
0.6942992125984252
20
0.1722047244094488
11
0.5817007874015748
21
0.1722047244094488
0
LINE
8
BLACK
6
CONTINUOUS
10
0.6634934645669291
20
0.313606062992126
11
0.6645588188976378
21
0.3125407086614173
0
LINE
8
BLACK
6
CONTINUOUS
10
0.6645588188976378
20
0.3125407086614173
11
0.6647086614173228
21
0.3117874015748032
0
LINE
8
BLACK
6
CONTINUOUS
10
0.6647086614173228
20
0.3117874015748032
11
0.6647086614173228
21
0.195251968503937
0
LINE
8
BLACK
6
CONTINUOUS
10
0.6647086614173228
20
0.195251968503937
11
0.6645588188976378
21
0.1944986614173228
0
LINE
8
BLACK
6
CONTINUOUS
10
0.6645588188976378
20
0.1944986614173228
11
0.6634934645669291
21
0.1934333070866142
0
LINE
8
BLACK
6
CONTINUOUS
10
0.6634934645669291
20
0.1934333070866142
11
0.6627401574803149
21
0.1932834645669291
0
LINE
8
BLACK
6
CONTINUOUS
10
0.6627401574803149
20
0.1932834645669291
11
0.605259842519685
21
0.1932834645669291
0
LINE
8
BLACK
6
CONTINUOUS
10
0.605259842519685
20
0.1932834645669291
11
0.6045065354330709
21
0.1934333070866142
0
LINE
8
BLACK
6
CONTINUOUS
10
0.6045065354330709
20
0.1934333070866142
11
0.6034411811023622
21
0.1944986614173228
0
LINE
8
BLACK
6
CONTINUOUS
10
0.6034411811023622
20
0.1944986614173228
11
0.6032913385826771
21
0.195251968503937
0
LINE
8
BLACK
6
CONTINUOUS
10
0.6032913385826771
20
0.195251968503937
11
0.6032913385826771
21
0.3117874015748032
0
LINE
8
BLACK
6
CONTINUOUS
10
0.6032913385826771
20
0.3117874015748032
11
0.6034411811023622
21
0.3125407086614173
0
LINE
8
BLACK
6
CONTINUOUS
10
0.6034411811023622
20
0.3125407086614173
11
0.6045065354330709
21
0.313606062992126
0
LINE
8
BLACK
6
CONTINUOUS
10
0.6045065354330709
20
0.313606062992126
11
0.605259842519685
21
0.313755905511811
0
LINE
8
BLACK
6
CONTINUOUS
10
0.605259842519685
20
0.313755905511811
11
0.6627401574803149
21
0.313755905511811
0
LINE
8
BLACK
6
CONTINUOUS
10
0.6627401574803149
20
0.313755905511811
11
0.6634934645669291
21
0.313606062992126
0
LINE
8
BLACK
6
CONTINUOUS
10
0.6072283464566929
20
0.3098188976377952
11
0.6072283464566929
21
0.1972204724409449
0
LINE
8
BLACK
6
CONTINUOUS
10
0.6072283464566929
20
0.1972204724409449
11
0.660771653543307
21
0.1972204724409449
0
LINE
8
BLACK
6
CONTINUOUS
10
0.660771653543307
20
0.1972204724409449
11
0.660771653543307
21
0.3098188976377952
0
LINE
8
BLACK
6
CONTINUOUS
10
0.660771653543307
20
0.3098188976377952
11
0.6072283464566929
21
0.3098188976377952
0
LINE
8
BLACK
6
CONTINUOUS
10
0.344454094488189
20
0.3356769291338583
11
0.3455194488188976
21
0.3346115748031496
0
LINE
8
BLACK
6
CONTINUOUS
10
0.3455194488188976
20
0.3346115748031496
11
0.3456692913385827
21
0.3338582677165354
0
LINE
8
BLACK
6
CONTINUOUS
10
0.3456692913385827
20
0.3338582677165354
11
0.3456692913385827
21
0.2173228346456693
0
LINE
8
BLACK
6
CONTINUOUS
10
0.3456692913385827
20
0.2173228346456693
11
0.3455194488188976
21
0.2165695275590551
0
LINE
8
BLACK
6
CONTINUOUS
10
0.3455194488188976
20
0.2165695275590551
11
0.344454094488189
21
0.2155041732283464
0
LINE
8
BLACK
6
CONTINUOUS
10
0.344454094488189
20
0.2155041732283464
11
0.3437007874015748
21
0.2153543307086614
0
LINE
8
BLACK
6
CONTINUOUS
10
0.3437007874015748
20
0.2153543307086614
11
0.2862204724409449
21
0.2153543307086614
0
LINE
8
BLACK
6
CONTINUOUS
10
0.2862204724409449
20
0.2153543307086614
11
0.2854671653543307
21
0.2155041732283464
0
LINE
8
BLACK
6
CONTINUOUS
10
0.2854671653543307
20
0.2155041732283464
11
0.2844018110236221
21
0.2165695275590551
0
LINE
8
BLACK
6
CONTINUOUS
10
0.2844018110236221
20
0.2165695275590551
11
0.284251968503937
21
0.2173228346456693
0
LINE
8
BLACK
6
CONTINUOUS
10
0.284251968503937
20
0.2173228346456693
11
0.284251968503937
21
0.3338582677165354
0
LINE
8
BLACK
6
CONTINUOUS
10
0.284251968503937
20
0.3338582677165354
11
0.2844018110236221
21
0.3346115748031496
0
LINE
8
BLACK
6
CONTINUOUS
10
0.2844018110236221
20
0.3346115748031496
11
0.2854671653543307
21
0.3356769291338583
0
LINE
8
BLACK
6
CONTINUOUS
10
0.2854671653543307
20
0.3356769291338583
11
0.2862204724409449
21
0.3358267716535433
0
LINE
8
BLACK
6
CONTINUOUS
10
0.2862204724409449
20
0.3358267716535433
11
0.3437007874015748
21
0.3358267716535433
0
LINE
8
BLACK
6
CONTINUOUS
10
0.3437007874015748
20
0.3358267716535433
11
0.344454094488189
21
0.3356769291338583
0
LINE
8
BLACK
6
CONTINUOUS
10
0.2881889763779528
20
0.3318897637795276
11
0.2881889763779528
21
0.2192913385826772
0
LINE
8
BLACK
6
CONTINUOUS
10
0.2881889763779528
20
0.2192913385826772
11
0.3417322834645669
21
0.2192913385826772
0
LINE
8
BLACK
6
CONTINUOUS
10
0.3417322834645669
20
0.2192913385826772
11
0.3417322834645669
21
0.3318897637795276
0
LINE
8
BLACK
6
CONTINUOUS
10
0.3417322834645669
20
0.3318897637795276
11
0.2881889763779528
21
0.3318897637795276
0
LINE
8
BLACK
6
CONTINUOUS
10
0.4154934645669291
20
0.3380863779527559
11
0.4165588188976378
21
0.3370210236220472
0
LINE
8
BLACK
6
CONTINUOUS
10
0.4165588188976378
20
0.3370210236220472
11
0.4167086614173228
21
0.3362677165354331
0
LINE
8
BLACK
6
CONTINUOUS
10
0.4167086614173228
20
0.3362677165354331
11
0.4167086614173228
21
0.2197322834645669
0
LINE
8
BLACK
6
CONTINUOUS
10
0.4167086614173228
20
0.2197322834645669
11
0.4165588188976378
21
0.2189789763779527
0
LINE
8
BLACK
6
CONTINUOUS
10
0.4165588188976378
20
0.2189789763779527
11
0.4154934645669291
21
0.2179136220472441
0
LINE
8
BLACK
6
CONTINUOUS
10
0.4154934645669291
20
0.2179136220472441
11
0.414740157480315
21
0.217763779527559
0
LINE
8
BLACK
6
CONTINUOUS
10
0.414740157480315
20
0.217763779527559
11
0.357259842519685
21
0.217763779527559
0
LINE
8
BLACK
6
CONTINUOUS
10
0.357259842519685
20
0.217763779527559
11
0.3565065354330709
21
0.2179136220472441
0
LINE
8
BLACK
6
CONTINUOUS
10
0.3565065354330709
20
0.2179136220472441
11
0.3554411811023622
21
0.2189789763779527
0
LINE
8
BLACK
6
CONTINUOUS
10
0.3554411811023622
20
0.2189789763779527
11
0.3552913385826771
21
0.2197322834645669
0
LINE
8
BLACK
6
CONTINUOUS
10
0.3552913385826771
20
0.2197322834645669
11
0.3552913385826771
21
0.3362677165354331
0
LINE
8
BLACK
6
CONTINUOUS
10
0.3552913385826771
20
0.3362677165354331
11
0.3554411811023622
21
0.3370210236220472
0
LINE
8
BLACK
6
CONTINUOUS
10
0.3554411811023622
20
0.3370210236220472
11
0.3565065354330709
21
0.3380863779527559
0
LINE
8
BLACK
6
CONTINUOUS
10
0.3565065354330709
20
0.3380863779527559
11
0.357259842519685
21
0.338236220472441
0
LINE
8
BLACK
6
CONTINUOUS
10
0.357259842519685
20
0.338236220472441
11
0.414740157480315
21
0.338236220472441
0
LINE
8
BLACK
6
CONTINUOUS
10
0.414740157480315
20
0.338236220472441
11
0.4154934645669291
21
0.3380863779527559
0
LINE
8
BLACK
6
CONTINUOUS
10
0.3592283464566929
20
0.3342992125984252
11
0.3592283464566929
21
0.2217007874015748
0
LINE
8
BLACK
6
CONTINUOUS
10
0.3592283464566929
20
0.2217007874015748
11
0.4127716535433071
21
0.2217007874015748
0
LINE
8
BLACK
6
CONTINUOUS
10
0.4127716535433071
20
0.2217007874015748
11
0.4127716535433071
21
0.3342992125984252
0
LINE
8
BLACK
6
CONTINUOUS
10
0.4127716535433071
20
0.3342992125984252
11
0.3592283464566929
21
0.3342992125984252
0
LINE
8
BLACK
6
CONTINUOUS
10
0.6031155118110236
20
0.5865588188976378
11
0.6041808661417323
21
0.5854934645669291
0
LINE
8
BLACK
6
CONTINUOUS
10
0.6041808661417323
20
0.5854934645669291
11
0.6043307086614174
21
0.5847401574803149
0
LINE
8
BLACK
6
CONTINUOUS
10
0.6043307086614174
20
0.5847401574803149
11
0.6043307086614174
21
0.4409459842519685
0
LINE
8
BLACK
6
CONTINUOUS
10
0.6043307086614174
20
0.4409459842519685
11
0.6044411811023622
21
0.4415013385826771
0
LINE
8
BLACK
6
CONTINUOUS
10
0.6044411811023622
20
0.4415013385826771
11
0.6055065354330709
21
0.4425666929133858
0
LINE
8
BLACK
6
CONTINUOUS
10
0.6055065354330709
20
0.4425666929133858
11
0.606259842519685
21
0.4427165354330709
0
LINE
8
BLACK
6
CONTINUOUS
10
0.606259842519685
20
0.4427165354330709
11
0.6637401574803149
21
0.4427165354330709
0
LINE
8
BLACK
6
CONTINUOUS
10
0.6637401574803149
20
0.4427165354330709
11
0.6644934645669291
21
0.4425666929133858
0
LINE
8
BLACK
6
CONTINUOUS
10
0.6644934645669291
20
0.4425666929133858
11
0.6655588188976378
21
0.4415013385826771
0
LINE
8
BLACK
6
CONTINUOUS
10
0.6655588188976378
20
0.4415013385826771
11
0.6657086614173228
21
0.440748031496063
0
LINE
8
BLACK
6
CONTINUOUS
10
0.6657086614173228
20
0.440748031496063
11
0.6657086614173228
21
0.3242125984251968
0
LINE
8
BLACK
6
CONTINUOUS
10
0.6657086614173228
20
0.3242125984251968
11
0.6655588188976378
21
0.3234592913385826
0
LINE
8
BLACK
6
CONTINUOUS
10
0.6655588188976378
20
0.3234592913385826
11
0.6644934645669291
21
0.322393937007874
0
LINE
8
BLACK
6
CONTINUOUS
10
0.6644934645669291
20
0.322393937007874
11
0.6637401574803149
21
0.322244094488189
0
LINE
8
BLACK
6
CONTINUOUS
10
0.6637401574803149
20
0.322244094488189
11
0.606259842519685
21
0.322244094488189
0
LINE
8
BLACK
6
CONTINUOUS
10
0.606259842519685
20
0.322244094488189
11
0.6055065354330709
21
0.322393937007874
0
LINE
8
BLACK
6
CONTINUOUS
10
0.6055065354330709
20
0.322393937007874
11
0.6044411811023622
21
0.3234592913385826
0
LINE
8
BLACK
6
CONTINUOUS
10
0.6044411811023622
20
0.3234592913385826
11
0.6042913385826771
21
0.3242125984251968
0
LINE
8
BLACK
6
CONTINUOUS
10
0.6042913385826771
20
0.3242125984251968
11
0.6042913385826771
21
0.4270619291338583
0
LINE
8
BLACK
6
CONTINUOUS
10
0.6042913385826771
20
0.4270619291338583
11
0.6041808661417323
21
0.4265065354330709
0
LINE
8
BLACK
6
CONTINUOUS
10
0.6041808661417323
20
0.4265065354330709
11
0.6031155118110236
21
0.4254411811023622
0
LINE
8
BLACK
6
CONTINUOUS
10
0.6031155118110236
20
0.4254411811023622
11
0.6023622047244095
21
0.4252913385826771
0
LINE
8
BLACK
6
CONTINUOUS
10
0.6023622047244095
20
0.4252913385826771
11
0.3818897637795275
21
0.4252913385826771
0
LINE
8
BLACK
6
CONTINUOUS
10
0.3818897637795275
20
0.4252913385826771
11
0.3811364566929134
21
0.4254411811023622
0
LINE
8
BLACK
6
CONTINUOUS
10
0.3811364566929134
20
0.4254411811023622
11
0.3800711023622047
21
0.4265065354330709
0
LINE
8
BLACK
6
CONTINUOUS
10
0.3800711023622047
20
0.4265065354330709
11
0.3799212598425197
21
0.427259842519685
0
LINE
8
BLACK
6
CONTINUOUS
10
0.3799212598425197
20
0.427259842519685
11
0.3799212598425197
21
0.5847401574803149
0
LINE
8
BLACK
6
CONTINUOUS
10
0.3799212598425197
20
0.5847401574803149
11
0.3800711023622047
21
0.5854934645669291
0
LINE
8
BLACK
6
CONTINUOUS
10
0.3800711023622047
20
0.5854934645669291
11
0.3811364566929134
21
0.5865588188976378
0
LINE
8
BLACK
6
CONTINUOUS
10
0.3811364566929134
20
0.5865588188976378
11
0.3818897637795275
21
0.5867086614173228
0
LINE
8
BLACK
6
CONTINUOUS
10
0.3818897637795275
20
0.5867086614173228
11
0.6023622047244095
21
0.5867086614173228
0
LINE
8
BLACK
6
CONTINUOUS
10
0.6023622047244095
20
0.5867086614173228
11
0.6031155118110236
21
0.5865588188976378
0
LINE
8
BLACK
6
CONTINUOUS
10
0.6082283464566929
20
0.4387795275590551
11
0.6082283464566929
21
0.3261811023622047
0
LINE
8
BLACK
6
CONTINUOUS
10
0.6082283464566929
20
0.3261811023622047
11
0.661771653543307
21
0.3261811023622047
0
LINE
8
BLACK
6
CONTINUOUS
10
0.661771653543307
20
0.3261811023622047
11
0.661771653543307
21
0.4387795275590551
0
LINE
8
BLACK
6
CONTINUOUS
10
0.661771653543307
20
0.4387795275590551
11
0.6082283464566929
21
0.4387795275590551
0
LINE
8
BLACK
6
CONTINUOUS
10
0.3838582677165354
20
0.5827716535433071
11
0.3838582677165354
21
0.4292283464566929
0
LINE
8
BLACK
6
CONTINUOUS
10
0.3838582677165354
20
0.4292283464566929
11
0.6003937007874015
21
0.4292283464566929
0
LINE
8
BLACK
6
CONTINUOUS
10
0.6003937007874015
20
0.4292283464566929
11
0.6003937007874015
21
0.5827716535433071
0
LINE
8
BLACK
6
CONTINUOUS
10
0.6003937007874015
20
0.5827716535433071
11
0.3838582677165354
21
0.5827716535433071
0
LINE
8
BLACK
6
CONTINUOUS
10
0.3694934645669291
20
0.5020863779527559
11
0.3705588188976378
21
0.5010210236220473
0
LINE
8
BLACK
6
CONTINUOUS
10
0.3705588188976378
20
0.5010210236220473
11
0.3707086614173228
21
0.500267716535433
0
LINE
8
BLACK
6
CONTINUOUS
10
0.3707086614173228
20
0.500267716535433
11
0.3707086614173228
21
0.3837322834645669
0
LINE
8
BLACK
6
CONTINUOUS
10
0.3707086614173228
20
0.3837322834645669
11
0.3705588188976378
21
0.3829789763779528
0
LINE
8
BLACK
6
CONTINUOUS
10
0.3705588188976378
20
0.3829789763779528
11
0.3694934645669291
21
0.3819136220472441
0
LINE
8
BLACK
6
CONTINUOUS
10
0.3694934645669291
20
0.3819136220472441
11
0.368740157480315
21
0.381763779527559
0
LINE
8
BLACK
6
CONTINUOUS
10
0.368740157480315
20
0.381763779527559
11
0.311259842519685
21
0.381763779527559
0
LINE
8
BLACK
6
CONTINUOUS
10
0.311259842519685
20
0.381763779527559
11
0.3105065354330709
21
0.3819136220472441
0
LINE
8
BLACK
6
CONTINUOUS
10
0.3105065354330709
20
0.3819136220472441
11
0.3094411811023622
21
0.3829789763779528
0
LINE
8
BLACK
6
CONTINUOUS
10
0.3094411811023622
20
0.3829789763779528
11
0.3092913385826772
21
0.3837322834645669
0
LINE
8
BLACK
6
CONTINUOUS
10
0.3092913385826772
20
0.3837322834645669
11
0.3092913385826772
21
0.500267716535433
0
LINE
8
BLACK
6
CONTINUOUS
10
0.3092913385826772
20
0.500267716535433
11
0.3094411811023622
21
0.5010210236220473
0
LINE
8
BLACK
6
CONTINUOUS
10
0.3094411811023622
20
0.5010210236220473
11
0.3105065354330709
21
0.5020863779527559
0
LINE
8
BLACK
6
CONTINUOUS
10
0.3105065354330709
20
0.5020863779527559
11
0.311259842519685
21
0.502236220472441
0
LINE
8
BLACK
6
CONTINUOUS
10
0.311259842519685
20
0.502236220472441
11
0.368740157480315
21
0.502236220472441
0
LINE
8
BLACK
6
CONTINUOUS
10
0.368740157480315
20
0.502236220472441
11
0.3694934645669291
21
0.5020863779527559
0
LINE
8
BLACK
6
CONTINUOUS
10
0.3132283464566929
20
0.4982992125984252
11
0.3132283464566929
21
0.3857007874015748
0
LINE
8
BLACK
6
CONTINUOUS
10
0.3132283464566929
20
0.3857007874015748
11
0.3667716535433071
21
0.3857007874015748
0
LINE
8
BLACK
6
CONTINUOUS
10
0.3667716535433071
20
0.3857007874015748
11
0.3667716535433071
21
0.4982992125984252
0
LINE
8
BLACK
6
CONTINUOUS
10
0.3667716535433071
20
0.4982992125984252
11
0.3132283464566929
21
0.4982992125984252
0
LINE
8
BLACK
6
CONTINUOUS
10
0.2566588188976378
20
0.8372517322834645
11
0.2577241732283465
21
0.8361863779527559
0
LINE
8
BLACK
6
CONTINUOUS
10
0.2577241732283465
20
0.8361863779527559
11
0.2578740157480315
21
0.8354330708661417
0
LINE
8
BLACK
6
CONTINUOUS
10
0.2578740157480315
20
0.8354330708661417
11
0.2578740157480315
21
0.5727086614173228
0
LINE
8
BLACK
6
CONTINUOUS
10
0.2578740157480315
20
0.5727086614173228
11
0.3732677165354331
21
0.5727086614173228
0
LINE
8
BLACK
6
CONTINUOUS
10
0.3732677165354331
20
0.5727086614173228
11
0.3740210236220473
21
0.5725588188976378
0
LINE
8
BLACK
6
CONTINUOUS
10
0.3740210236220473
20
0.5725588188976378
11
0.3750863779527559
21
0.5714934645669291
0
LINE
8
BLACK
6
CONTINUOUS
10
0.3750863779527559
20
0.5714934645669291
11
0.3752362204724409
21
0.5707401574803149
0
LINE
8
BLACK
6
CONTINUOUS
10
0.3752362204724409
20
0.5707401574803149
11
0.3752362204724409
21
0.513259842519685
0
LINE
8
BLACK
6
CONTINUOUS
10
0.3752362204724409
20
0.513259842519685
11
0.3750863779527559
21
0.5125065354330709
0
LINE
8
BLACK
6
CONTINUOUS
10
0.3750863779527559
20
0.5125065354330709
11
0.3740210236220473
21
0.5114411811023621
0
LINE
8
BLACK
6
CONTINUOUS
10
0.3740210236220473
20
0.5114411811023621
11
0.3732677165354331
21
0.5112913385826772
0
LINE
8
BLACK
6
CONTINUOUS
10
0.3732677165354331
20
0.5112913385826772
11
0.2578740157480315
21
0.5112913385826772
0
LINE
8
BLACK
6
CONTINUOUS
10
0.2578740157480315
20
0.5112913385826772
11
0.2578740157480315
21
0.4637795275590551
0
LINE
8
BLACK
6
CONTINUOUS
10
0.2578740157480315
20
0.4637795275590551
11
0.2577241732283465
21
0.4630262204724409
0
LINE
8
BLACK
6
CONTINUOUS
10
0.2577241732283465
20
0.4630262204724409
11
0.2566588188976378
21
0.4619608661417323
0
LINE
8
BLACK
6
CONTINUOUS
10
0.2566588188976378
20
0.4619608661417323
11
0.2559055118110236
21
0.4618110236220472
0
LINE
8
BLACK
6
CONTINUOUS
10
0.2559055118110236
20
0.4618110236220472
11
0.0039370078740157
21
0.4618110236220472
0
LINE
8
BLACK
6
CONTINUOUS
10
0.0039370078740157
20
0.4618110236220472
11
0.0031837007874016
21
0.4619608661417323
0
LINE
8
BLACK
6
CONTINUOUS
10
0.0031837007874016
20
0.4619608661417323
11
0.0021183464566929
21
0.4630262204724409
0
LINE
8
BLACK
6
CONTINUOUS
10
0.0021183464566929
20
0.4630262204724409
11
0.0019685039370079
21
0.4637795275590551
0
LINE
8
BLACK
6
CONTINUOUS
10
0.0019685039370079
20
0.4637795275590551
11
0.0019685039370079
21
0.8354330708661417
0
LINE
8
BLACK
6
CONTINUOUS
10
0.0019685039370079
20
0.8354330708661417
11
0.0021183464566929
21
0.8361863779527559
0
LINE
8
BLACK
6
CONTINUOUS
10
0.0021183464566929
20
0.8361863779527559
11
0.0031837007874016
21
0.8372517322834645
0
LINE
8
BLACK
6
CONTINUOUS
10
0.0031837007874016
20
0.8372517322834645
11
0.0039370078740157
21
0.8374015748031496
0
LINE
8
BLACK
6
CONTINUOUS
10
0.0039370078740157
20
0.8374015748031496
11
0.2559055118110236
21
0.8374015748031496
0
LINE
8
BLACK
6
CONTINUOUS
10
0.2559055118110236
20
0.8374015748031496
11
0.2566588188976378
21
0.8372517322834645
0
LINE
8
BLACK
6
CONTINUOUS
10
0.0059055118110236
20
0.8334645669291338
11
0.0059055118110236
21
0.465748031496063
0
LINE
8
BLACK
6
CONTINUOUS
10
0.0059055118110236
20
0.465748031496063
11
0.2539370078740157
21
0.465748031496063
0
LINE
8
BLACK
6
CONTINUOUS
10
0.2539370078740157
20
0.465748031496063
11
0.2539370078740157
21
0.8334645669291338
0
LINE
8
BLACK
6
CONTINUOUS
10
0.2539370078740157
20
0.8334645669291338
11
0.0059055118110236
21
0.8334645669291338
0
LINE
8
BLACK
6
CONTINUOUS
10
0.2587007874015748
20
0.5687716535433071
11
0.2587007874015748
21
0.5152283464566929
0
LINE
8
BLACK
6
CONTINUOUS
10
0.2587007874015748
20
0.5152283464566929
11
0.3712992125984252
21
0.5152283464566929
0
LINE
8
BLACK
6
CONTINUOUS
10
0.3712992125984252
20
0.5152283464566929
11
0.3712992125984252
21
0.5687716535433071
0
LINE
8
BLACK
6
CONTINUOUS
10
0.3712992125984252
20
0.5687716535433071
11
0.2587007874015748
21
0.5687716535433071
0
LINE
8
BLACK
6
CONTINUOUS
10
0.9810682677165354
20
0.8372517322834645
11
0.9821336220472441
21
0.8361863779527559
0
LINE
8
BLACK
6
CONTINUOUS
10
0.9821336220472441
20
0.8361863779527559
11
0.9822834645669292
21
0.8354330708661417
0
LINE
8
BLACK
6
CONTINUOUS
10
0.9822834645669292
20
0.8354330708661417
11
0.9822834645669292
21
0.4637795275590551
0
LINE
8
BLACK
6
CONTINUOUS
10
0.9822834645669292
20
0.4637795275590551
11
0.9821336220472441
21
0.4630262204724409
0
LINE
8
BLACK
6
CONTINUOUS
10
0.9821336220472441
20
0.4630262204724409
11
0.9810682677165354
21
0.4619608661417323
0
LINE
8
BLACK
6
CONTINUOUS
10
0.9810682677165354
20
0.4619608661417323
11
0.9803149606299212
21
0.4618110236220472
0
LINE
8
BLACK
6
CONTINUOUS
10
0.9803149606299212
20
0.4618110236220472
11
0.7283464566929134
21
0.4618110236220472
0
LINE
8
BLACK
6
CONTINUOUS
10
0.7283464566929134
20
0.4618110236220472
11
0.7275931496062992
21
0.4619608661417323
0
LINE
8
BLACK
6
CONTINUOUS
10
0.7275931496062992
20
0.4619608661417323
11
0.7265277952755905
21
0.4630262204724409
0
LINE
8
BLACK
6
CONTINUOUS
10
0.7265277952755905
20
0.4630262204724409
11
0.7263779527559054
21
0.4637795275590551
0
LINE
8
BLACK
6
CONTINUOUS
10
0.7263779527559054
20
0.4637795275590551
11
0.7263779527559054
21
0.8354330708661417
0
LINE
8
BLACK
6
CONTINUOUS
10
0.7263779527559054
20
0.8354330708661417
11
0.7265277952755905
21
0.8361863779527559
0
LINE
8
BLACK
6
CONTINUOUS
10
0.7265277952755905
20
0.8361863779527559
11
0.7275931496062992
21
0.8372517322834645
0
LINE
8
BLACK
6
CONTINUOUS
10
0.7275931496062992
20
0.8372517322834645
11
0.7283464566929134
21
0.8374015748031496
0
LINE
8
BLACK
6
CONTINUOUS
10
0.7283464566929134
20
0.8374015748031496
11
0.9803149606299212
21
0.8374015748031496
0
LINE
8
BLACK
6
CONTINUOUS
10
0.9803149606299212
20
0.8374015748031496
11
0.9810682677165354
21
0.8372517322834645
0
LINE
8
BLACK
6
CONTINUOUS
10
0.7303149606299213
20
0.8334645669291338
11
0.7303149606299213
21
0.465748031496063
0
LINE
8
BLACK
6
CONTINUOUS
10
0.7303149606299213
20
0.465748031496063
11
0.9783464566929133
21
0.465748031496063
0
LINE
8
BLACK
6
CONTINUOUS
10
0.9783464566929133
20
0.465748031496063
11
0.9783464566929133
21
0.8334645669291338
0
LINE
8
BLACK
6
CONTINUOUS
10
0.9783464566929133
20
0.8334645669291338
11
0.7303149606299213
21
0.8334645669291338
0
LINE
8
BLACK
6
CONTINUOUS
10
0.6744934645669292
20
0.5845745669291339
11
0.6755588188976378
21
0.5835092125984251
0
LINE
8
BLACK
6
CONTINUOUS
10
0.6755588188976378
20
0.5835092125984251
11
0.6757086614173228
21
0.582755905511811
0
LINE
8
BLACK
6
CONTINUOUS
10
0.6757086614173228
20
0.582755905511811
11
0.6757086614173228
21
0.4662204724409449
0
LINE
8
BLACK
6
CONTINUOUS
10
0.6757086614173228
20
0.4662204724409449
11
0.6755588188976378
21
0.4654671653543307
0
LINE
8
BLACK
6
CONTINUOUS
10
0.6755588188976378
20
0.4654671653543307
11
0.6744934645669292
21
0.464401811023622
0
LINE
8
BLACK
6
CONTINUOUS
10
0.6744934645669292
20
0.464401811023622
11
0.6737401574803149
21
0.464251968503937
0
LINE
8
BLACK
6
CONTINUOUS
10
0.6737401574803149
20
0.464251968503937
11
0.616259842519685
21
0.464251968503937
0
LINE
8
BLACK
6
CONTINUOUS
10
0.616259842519685
20
0.464251968503937
11
0.6155065354330709
21
0.464401811023622
0
LINE
8
BLACK
6
CONTINUOUS
10
0.6155065354330709
20
0.464401811023622
11
0.6144411811023622
21
0.4654671653543307
0
LINE
8
BLACK
6
CONTINUOUS
10
0.6144411811023622
20
0.4654671653543307
11
0.6142913385826771
21
0.4662204724409449
0
LINE
8
BLACK
6
CONTINUOUS
10
0.6142913385826771
20
0.4662204724409449
11
0.6142913385826771
21
0.582755905511811
0
LINE
8
BLACK
6
CONTINUOUS
10
0.6142913385826771
20
0.582755905511811
11
0.6144411811023622
21
0.5835092125984251
0
LINE
8
BLACK
6
CONTINUOUS
10
0.6144411811023622
20
0.5835092125984251
11
0.6155065354330709
21
0.5845745669291339
0
LINE
8
BLACK
6
CONTINUOUS
10
0.6155065354330709
20
0.5845745669291339
11
0.616259842519685
21
0.5847244094488189
0
LINE
8
BLACK
6
CONTINUOUS
10
0.616259842519685
20
0.5847244094488189
11
0.6737401574803149
21
0.5847244094488189
0
LINE
8
BLACK
6
CONTINUOUS
10
0.6737401574803149
20
0.5847244094488189
11
0.6744934645669292
21
0.5845745669291339
0
LINE
8
BLACK
6
CONTINUOUS
10
0.6182283464566929
20
0.5807874015748031
11
0.6182283464566929
21
0.4681889763779528
0
LINE
8
BLACK
6
CONTINUOUS
10
0.6182283464566929
20
0.4681889763779528
11
0.671771653543307
21
0.4681889763779528
0
LINE
8
BLACK
6
CONTINUOUS
10
0.671771653543307
20
0.4681889763779528
11
0.671771653543307
21
0.5807874015748031
0
LINE
8
BLACK
6
CONTINUOUS
10
0.671771653543307
20
0.5807874015748031
11
0.6182283464566929
21
0.5807874015748031
0
LINE
8
BLACK
6
CONTINUOUS
10
0.3544934645669292
20
0.7105666929133858
11
0.3555588188976378
21
0.7095013385826772
0
LINE
8
BLACK
6
CONTINUOUS
10
0.3555588188976378
20
0.7095013385826772
11
0.3557086614173228
21
0.708748031496063
0
LINE
8
BLACK
6
CONTINUOUS
10
0.3557086614173228
20
0.708748031496063
11
0.3557086614173228
21
0.5922125984251968
0
LINE
8
BLACK
6
CONTINUOUS
10
0.3557086614173228
20
0.5922125984251968
11
0.3555588188976378
21
0.5914592913385827
0
LINE
8
BLACK
6
CONTINUOUS
10
0.3555588188976378
20
0.5914592913385827
11
0.3544934645669292
21
0.590393937007874
0
LINE
8
BLACK
6
CONTINUOUS
10
0.3544934645669292
20
0.590393937007874
11
0.353740157480315
21
0.5902440944881889
0
LINE
8
BLACK
6
CONTINUOUS
10
0.353740157480315
20
0.5902440944881889
11
0.296259842519685
21
0.5902440944881889
0
LINE
8
BLACK
6
CONTINUOUS
10
0.296259842519685
20
0.5902440944881889
11
0.2955065354330709
21
0.590393937007874
0
LINE
8
BLACK
6
CONTINUOUS
10
0.2955065354330709
20
0.590393937007874
11
0.2944411811023622
21
0.5914592913385827
0
LINE
8
BLACK
6
CONTINUOUS
10
0.2944411811023622
20
0.5914592913385827
11
0.2942913385826771
21
0.5922125984251968
0
LINE
8
BLACK
6
CONTINUOUS
10
0.2942913385826771
20
0.5922125984251968
11
0.2942913385826771
21
0.708748031496063
0
LINE
8
BLACK
6
CONTINUOUS
10
0.2942913385826771
20
0.708748031496063
11
0.2944411811023622
21
0.7095013385826772
0
LINE
8
BLACK
6
CONTINUOUS
10
0.2944411811023622
20
0.7095013385826772
11
0.2955065354330709
21
0.7105666929133858
0
LINE
8
BLACK
6
CONTINUOUS
10
0.2955065354330709
20
0.7105666929133858
11
0.296259842519685
21
0.7107165354330709
0
LINE
8
BLACK
6
CONTINUOUS
10
0.296259842519685
20
0.7107165354330709
11
0.353740157480315
21
0.7107165354330709
0
LINE
8
BLACK
6
CONTINUOUS
10
0.353740157480315
20
0.7107165354330709
11
0.3544934645669292
21
0.7105666929133858
0
LINE
8
BLACK
6
CONTINUOUS
10
0.2982283464566929
20
0.7067795275590552
11
0.2982283464566929
21
0.5941811023622047
0
LINE
8
BLACK
6
CONTINUOUS
10
0.2982283464566929
20
0.5941811023622047
11
0.3517716535433071
21
0.5941811023622047
0
LINE
8
BLACK
6
CONTINUOUS
10
0.3517716535433071
20
0.5941811023622047
11
0.3517716535433071
21
0.7067795275590552
0
LINE
8
BLACK
6
CONTINUOUS
10
0.3517716535433071
20
0.7067795275590552
11
0.2982283464566929
21
0.7067795275590552
0
LINE
8
BLACK
6
CONTINUOUS
10
0.6894934645669292
20
0.7120863779527559
11
0.6905588188976378
21
0.7110210236220472
0
LINE
8
BLACK
6
CONTINUOUS
10
0.6905588188976378
20
0.7110210236220472
11
0.6907086614173228
21
0.7102677165354331
0
LINE
8
BLACK
6
CONTINUOUS
10
0.6907086614173228
20
0.7102677165354331
11
0.6907086614173228
21
0.593732283464567
0
LINE
8
BLACK
6
CONTINUOUS
10
0.6907086614173228
20
0.593732283464567
11
0.6905588188976378
21
0.5929789763779527
0
LINE
8
BLACK
6
CONTINUOUS
10
0.6905588188976378
20
0.5929789763779527
11
0.6894934645669292
21
0.5919136220472441
0
LINE
8
BLACK
6
CONTINUOUS
10
0.6894934645669292
20
0.5919136220472441
11
0.6887401574803149
21
0.591763779527559
0
LINE
8
BLACK
6
CONTINUOUS
10
0.6887401574803149
20
0.591763779527559
11
0.631259842519685
21
0.591763779527559
0
LINE
8
BLACK
6
CONTINUOUS
10
0.631259842519685
20
0.591763779527559
11
0.6305065354330709
21
0.5919136220472441
0
LINE
8
BLACK
6
CONTINUOUS
10
0.6305065354330709
20
0.5919136220472441
11
0.6294411811023621
21
0.5929789763779527
0
LINE
8
BLACK
6
CONTINUOUS
10
0.6294411811023621
20
0.5929789763779527
11
0.6292913385826772
21
0.593732283464567
0
LINE
8
BLACK
6
CONTINUOUS
10
0.6292913385826772
20
0.593732283464567
11
0.6292913385826772
21
0.7102677165354331
0
LINE
8
BLACK
6
CONTINUOUS
10
0.6292913385826772
20
0.7102677165354331
11
0.6294411811023621
21
0.7110210236220472
0
LINE
8
BLACK
6
CONTINUOUS
10
0.6294411811023621
20
0.7110210236220472
11
0.6305065354330709
21
0.7120863779527559
0
LINE
8
BLACK
6
CONTINUOUS
10
0.6305065354330709
20
0.7120863779527559
11
0.631259842519685
21
0.712236220472441
0
LINE
8
BLACK
6
CONTINUOUS
10
0.631259842519685
20
0.712236220472441
11
0.6887401574803149
21
0.712236220472441
0
LINE
8
BLACK
6
CONTINUOUS
10
0.6887401574803149
20
0.712236220472441
11
0.6894934645669292
21
0.7120863779527559
0
LINE
8
BLACK
6
CONTINUOUS
10
0.6332283464566929
20
0.7082992125984252
11
0.6332283464566929
21
0.5957007874015748
0
LINE
8
BLACK
6
CONTINUOUS
10
0.6332283464566929
20
0.5957007874015748
11
0.686771653543307
21
0.5957007874015748
0
LINE
8
BLACK
6
CONTINUOUS
10
0.686771653543307
20
0.5957007874015748
11
0.686771653543307
21
0.7082992125984252
0
LINE
8
BLACK
6
CONTINUOUS
10
0.686771653543307
20
0.7082992125984252
11
0.6332283464566929
21
0.7082992125984252
0
LINE
8
BLACK
6
CONTINUOUS
10
0.484217874015748
20
0.7355588188976377
11
0.4852832283464567
21
0.7344934645669291
0
LINE
8
BLACK
6
CONTINUOUS
10
0.4852832283464567
20
0.7344934645669291
11
0.4854330708661417
21
0.733740157480315
0
LINE
8
BLACK
6
CONTINUOUS
10
0.4854330708661417
20
0.733740157480315
11
0.4854330708661417
21
0.6762598425196851
0
LINE
8
BLACK
6
CONTINUOUS
10
0.4854330708661417
20
0.6762598425196851
11
0.4852832283464567
21
0.6755065354330708
0
LINE
8
BLACK
6
CONTINUOUS
10
0.4852832283464567
20
0.6755065354330708
11
0.484217874015748
21
0.6744411811023622
0
LINE
8
BLACK
6
CONTINUOUS
10
0.484217874015748
20
0.6744411811023622
11
0.4834645669291339
21
0.6742913385826772
0
LINE
8
BLACK
6
CONTINUOUS
10
0.4834645669291339
20
0.6742913385826772
11
0.3669291338582677
21
0.6742913385826772
0
LINE
8
BLACK
6
CONTINUOUS
10
0.3669291338582677
20
0.6742913385826772
11
0.3661758267716536
21
0.6744411811023622
0
LINE
8
BLACK
6
CONTINUOUS
10
0.3661758267716536
20
0.6744411811023622
11
0.3651104724409449
21
0.6755065354330708
0
LINE
8
BLACK
6
CONTINUOUS
10
0.3651104724409449
20
0.6755065354330708
11
0.3649606299212598
21
0.6762598425196851
0
LINE
8
BLACK
6
CONTINUOUS
10
0.3649606299212598
20
0.6762598425196851
11
0.3649606299212598
21
0.733740157480315
0
LINE
8
BLACK
6
CONTINUOUS
10
0.3649606299212598
20
0.733740157480315
11
0.3651104724409449
21
0.7344934645669291
0
LINE
8
BLACK
6
CONTINUOUS
10
0.3651104724409449
20
0.7344934645669291
11
0.3661758267716536
21
0.7355588188976377
0
LINE
8
BLACK
6
CONTINUOUS
10
0.3661758267716536
20
0.7355588188976377
11
0.3669291338582677
21
0.7357086614173228
0
LINE
8
BLACK
6
CONTINUOUS
10
0.3669291338582677
20
0.7357086614173228
11
0.4834645669291339
21
0.7357086614173228
0
LINE
8
BLACK
6
CONTINUOUS
10
0.4834645669291339
20
0.7357086614173228
11
0.484217874015748
21
0.7355588188976377
0
LINE
8
BLACK
6
CONTINUOUS
10
0.3688976377952756
20
0.7317716535433071
11
0.3688976377952756
21
0.6782283464566929
0
LINE
8
BLACK
6
CONTINUOUS
10
0.3688976377952756
20
0.6782283464566929
11
0.481496062992126
21
0.6782283464566929
0
LINE
8
BLACK
6
CONTINUOUS
10
0.481496062992126
20
0.6782283464566929
11
0.481496062992126
21
0.7317716535433071
0
LINE
8
BLACK
6
CONTINUOUS
10
0.481496062992126
20
0.7317716535433071
11
0.3688976377952756
21
0.7317716535433071
0
LINE
8
BLACK
6
CONTINUOUS
10
0.6180761417322834
20
0.7355588188976377
11
0.6191414960629921
21
0.7344934645669291
0
LINE
8
BLACK
6
CONTINUOUS
10
0.6191414960629921
20
0.7344934645669291
11
0.6192913385826772
21
0.733740157480315
0
LINE
8
BLACK
6
CONTINUOUS
10
0.6192913385826772
20
0.733740157480315
11
0.6192913385826772
21
0.6762598425196851
0
LINE
8
BLACK
6
CONTINUOUS
10
0.6192913385826772
20
0.6762598425196851
11
0.6191414960629921
21
0.6755065354330708
0
LINE
8
BLACK
6
CONTINUOUS
10
0.6191414960629921
20
0.6755065354330708
11
0.6180761417322834
21
0.6744411811023622
0
LINE
8
BLACK
6
CONTINUOUS
10
0.6180761417322834
20
0.6744411811023622
11
0.6173228346456693
21
0.6742913385826772
0
LINE
8
BLACK
6
CONTINUOUS
10
0.6173228346456693
20
0.6742913385826772
11
0.5007874015748032
21
0.6742913385826772
0
LINE
8
BLACK
6
CONTINUOUS
10
0.5007874015748032
20
0.6742913385826772
11
0.5000340944881889
21
0.6744411811023622
0
LINE
8
BLACK
6
CONTINUOUS
10
0.5000340944881889
20
0.6744411811023622
11
0.4989687401574803
21
0.6755065354330708
0
LINE
8
BLACK
6
CONTINUOUS
10
0.4989687401574803
20
0.6755065354330708
11
0.4988188976377952
21
0.6762598425196851
0
LINE
8
BLACK
6
CONTINUOUS
10
0.4988188976377952
20
0.6762598425196851
11
0.4988188976377952
21
0.733740157480315
0
LINE
8
BLACK
6
CONTINUOUS
10
0.4988188976377952
20
0.733740157480315
11
0.4989687401574803
21
0.7344934645669291
0
LINE
8
BLACK
6
CONTINUOUS
10
0.4989687401574803
20
0.7344934645669291
11
0.5000340944881889
21
0.7355588188976377
0
LINE
8
BLACK
6
CONTINUOUS
10
0.5000340944881889
20
0.7355588188976377
11
0.5007874015748032
21
0.7357086614173228
0
LINE
8
BLACK
6
CONTINUOUS
10
0.5007874015748032
20
0.7357086614173228
11
0.6173228346456693
21
0.7357086614173228
0
LINE
8
BLACK
6
CONTINUOUS
10
0.6173228346456693
20
0.7357086614173228
11
0.6180761417322834
21
0.7355588188976377
0
LINE
8
BLACK
6
CONTINUOUS
10
0.502755905511811
20
0.7317716535433071
11
0.502755905511811
21
0.6782283464566929
0
LINE
8
BLACK
6
CONTINUOUS
10
0.502755905511811
20
0.6782283464566929
11
0.6153543307086614
21
0.6782283464566929
0
LINE
8
BLACK
6
CONTINUOUS
10
0.6153543307086614
20
0.6782283464566929
11
0.6153543307086614
21
0.7317716535433071
0
LINE
8
BLACK
6
CONTINUOUS
10
0.6153543307086614
20
0.7317716535433071
11
0.502755905511811
21
0.7317716535433071
0
LINE
8
BLACK
6
CONTINUOUS
10
0.6894934645669292
20
0.8360863779527559
11
0.6905588188976378
21
0.8350210236220472
0
LINE
8
BLACK
6
CONTINUOUS
10
0.6905588188976378
20
0.8350210236220472
11
0.6907086614173228
21
0.8342677165354331
0
LINE
8
BLACK
6
CONTINUOUS
10
0.6907086614173228
20
0.8342677165354331
11
0.6907086614173228
21
0.717732283464567
0
LINE
8
BLACK
6
CONTINUOUS
10
0.6907086614173228
20
0.717732283464567
11
0.6905588188976378
21
0.7169789763779527
0
LINE
8
BLACK
6
CONTINUOUS
10
0.6905588188976378
20
0.7169789763779527
11
0.6894934645669292
21
0.7159136220472441
0
LINE
8
BLACK
6
CONTINUOUS
10
0.6894934645669292
20
0.7159136220472441
11
0.6887401574803149
21
0.715763779527559
0
LINE
8
BLACK
6
CONTINUOUS
10
0.6887401574803149
20
0.715763779527559
11
0.631259842519685
21
0.715763779527559
0
LINE
8
BLACK
6
CONTINUOUS
10
0.631259842519685
20
0.715763779527559
11
0.6305065354330709
21
0.7159136220472441
0
LINE
8
BLACK
6
CONTINUOUS
10
0.6305065354330709
20
0.7159136220472441
11
0.6294411811023621
21
0.7169789763779527
0
LINE
8
BLACK
6
CONTINUOUS
10
0.6294411811023621
20
0.7169789763779527
11
0.6292913385826772
21
0.717732283464567
0
LINE
8
BLACK
6
CONTINUOUS
10
0.6292913385826772
20
0.717732283464567
11
0.6292913385826772
21
0.8342677165354331
0
LINE
8
BLACK
6
CONTINUOUS
10
0.6292913385826772
20
0.8342677165354331
11
0.6294411811023621
21
0.8350210236220472
0
LINE
8
BLACK
6
CONTINUOUS
10
0.6294411811023621
20
0.8350210236220472
11
0.6305065354330709
21
0.8360863779527559
0
LINE
8
BLACK
6
CONTINUOUS
10
0.6305065354330709
20
0.8360863779527559
11
0.631259842519685
21
0.8362362204724409
0
LINE
8
BLACK
6
CONTINUOUS
10
0.631259842519685
20
0.8362362204724409
11
0.6887401574803149
21
0.8362362204724409
0
LINE
8
BLACK
6
CONTINUOUS
10
0.6887401574803149
20
0.8362362204724409
11
0.6894934645669292
21
0.8360863779527559
0
LINE
8
BLACK
6
CONTINUOUS
10
0.6332283464566929
20
0.8322992125984252
11
0.6332283464566929
21
0.7197007874015748
0
LINE
8
BLACK
6
CONTINUOUS
10
0.6332283464566929
20
0.7197007874015748
11
0.686771653543307
21
0.7197007874015748
0
LINE
8
BLACK
6
CONTINUOUS
10
0.686771653543307
20
0.7197007874015748
11
0.686771653543307
21
0.8322992125984252
0
LINE
8
BLACK
6
CONTINUOUS
10
0.686771653543307
20
0.8322992125984252
11
0.6332283464566929
21
0.8322992125984252
0
LINE
8
BLACK
6
CONTINUOUS
10
0.3544934645669292
20
0.8365666929133858
11
0.3555588188976378
21
0.8355013385826772
0
LINE
8
BLACK
6
CONTINUOUS
10
0.3555588188976378
20
0.8355013385826772
11
0.3557086614173228
21
0.834748031496063
0
LINE
8
BLACK
6
CONTINUOUS
10
0.3557086614173228
20
0.834748031496063
11
0.3557086614173228
21
0.7182125984251968
0
LINE
8
BLACK
6
CONTINUOUS
10
0.3557086614173228
20
0.7182125984251968
11
0.3555588188976378
21
0.7174592913385827
0
LINE
8
BLACK
6
CONTINUOUS
10
0.3555588188976378
20
0.7174592913385827
11
0.3544934645669292
21
0.716393937007874
0
LINE
8
BLACK
6
CONTINUOUS
10
0.3544934645669292
20
0.716393937007874
11
0.353740157480315
21
0.7162440944881889
0
LINE
8
BLACK
6
CONTINUOUS
10
0.353740157480315
20
0.7162440944881889
11
0.296259842519685
21
0.7162440944881889
0
LINE
8
BLACK
6
CONTINUOUS
10
0.296259842519685
20
0.7162440944881889
11
0.2955065354330709
21
0.716393937007874
0
LINE
8
BLACK
6
CONTINUOUS
10
0.2955065354330709
20
0.716393937007874
11
0.2944411811023622
21
0.7174592913385827
0
LINE
8
BLACK
6
CONTINUOUS
10
0.2944411811023622
20
0.7174592913385827
11
0.2942913385826771
21
0.7182125984251968
0
LINE
8
BLACK
6
CONTINUOUS
10
0.2942913385826771
20
0.7182125984251968
11
0.2942913385826771
21
0.834748031496063
0
LINE
8
BLACK
6
CONTINUOUS
10
0.2942913385826771
20
0.834748031496063
11
0.2944411811023622
21
0.8355013385826772
0
LINE
8
BLACK
6
CONTINUOUS
10
0.2944411811023622
20
0.8355013385826772
11
0.2955065354330709
21
0.8365666929133858
0
LINE
8
BLACK
6
CONTINUOUS
10
0.2955065354330709
20
0.8365666929133858
11
0.296259842519685
21
0.8367165354330709
0
LINE
8
BLACK
6
CONTINUOUS
10
0.296259842519685
20
0.8367165354330709
11
0.353740157480315
21
0.8367165354330709
0
LINE
8
BLACK
6
CONTINUOUS
10
0.353740157480315
20
0.8367165354330709
11
0.3544934645669292
21
0.8365666929133858
0
LINE
8
BLACK
6
CONTINUOUS
10
0.2982283464566929
20
0.832779527559055
11
0.2982283464566929
21
0.7201811023622047
0
LINE
8
BLACK
6
CONTINUOUS
10
0.2982283464566929
20
0.7201811023622047
11
0.3517716535433071
21
0.7201811023622047
0
LINE
8
BLACK
6
CONTINUOUS
10
0.3517716535433071
20
0.7201811023622047
11
0.3517716535433071
21
0.832779527559055
0
LINE
8
BLACK
6
CONTINUOUS
10
0.3517716535433071
20
0.832779527559055
11
0.2982283464566929
21
0.832779527559055
0
LINE
8
BLACK
6
CONTINUOUS
10
0.484217874015748
20
0.8285588188976378
11
0.4852832283464567
21
0.8274934645669291
0
LINE
8
BLACK
6
CONTINUOUS
10
0.4852832283464567
20
0.8274934645669291
11
0.4854330708661417
21
0.8267401574803149
0
LINE
8
BLACK
6
CONTINUOUS
10
0.4854330708661417
20
0.8267401574803149
11
0.4854330708661417
21
0.769259842519685
0
LINE
8
BLACK
6
CONTINUOUS
10
0.4854330708661417
20
0.769259842519685
11
0.4852832283464567
21
0.7685065354330709
0
LINE
8
BLACK
6
CONTINUOUS
10
0.4852832283464567
20
0.7685065354330709
11
0.484217874015748
21
0.7674411811023621
0
LINE
8
BLACK
6
CONTINUOUS
10
0.484217874015748
20
0.7674411811023621
11
0.4834645669291339
21
0.7672913385826772
0
LINE
8
BLACK
6
CONTINUOUS
10
0.4834645669291339
20
0.7672913385826772
11
0.3669291338582677
21
0.7672913385826772
0
LINE
8
BLACK
6
CONTINUOUS
10
0.3669291338582677
20
0.7672913385826772
11
0.3661758267716536
21
0.7674411811023621
0
LINE
8
BLACK
6
CONTINUOUS
10
0.3661758267716536
20
0.7674411811023621
11
0.3651104724409449
21
0.7685065354330709
0
LINE
8
BLACK
6
CONTINUOUS
10
0.3651104724409449
20
0.7685065354330709
11
0.3649606299212598
21
0.769259842519685
0
LINE
8
BLACK
6
CONTINUOUS
10
0.3649606299212598
20
0.769259842519685
11
0.3649606299212598
21
0.8267401574803149
0
LINE
8
BLACK
6
CONTINUOUS
10
0.3649606299212598
20
0.8267401574803149
11
0.3651104724409449
21
0.8274934645669291
0
LINE
8
BLACK
6
CONTINUOUS
10
0.3651104724409449
20
0.8274934645669291
11
0.3661758267716536
21
0.8285588188976378
0
LINE
8
BLACK
6
CONTINUOUS
10
0.3661758267716536
20
0.8285588188976378
11
0.3669291338582677
21
0.8287086614173228
0
LINE
8
BLACK
6
CONTINUOUS
10
0.3669291338582677
20
0.8287086614173228
11
0.4834645669291339
21
0.8287086614173228
0
LINE
8
BLACK
6
CONTINUOUS
10
0.4834645669291339
20
0.8287086614173228
11
0.484217874015748
21
0.8285588188976378
0
LINE
8
BLACK
6
CONTINUOUS
10
0.3688976377952756
20
0.8247716535433071
11
0.3688976377952756
21
0.7712283464566929
0
LINE
8
BLACK
6
CONTINUOUS
10
0.3688976377952756
20
0.7712283464566929
11
0.481496062992126
21
0.7712283464566929
0
LINE
8
BLACK
6
CONTINUOUS
10
0.481496062992126
20
0.7712283464566929
11
0.481496062992126
21
0.8247716535433071
0
LINE
8
BLACK
6
CONTINUOUS
10
0.481496062992126
20
0.8247716535433071
11
0.3688976377952756
21
0.8247716535433071
0
LINE
8
BLACK
6
CONTINUOUS
10
0.6180761417322834
20
0.8285588188976378
11
0.6191414960629921
21
0.8274934645669291
0
LINE
8
BLACK
6
CONTINUOUS
10
0.6191414960629921
20
0.8274934645669291
11
0.6192913385826772
21
0.8267401574803149
0
LINE
8
BLACK
6
CONTINUOUS
10
0.6192913385826772
20
0.8267401574803149
11
0.6192913385826772
21
0.769259842519685
0
LINE
8
BLACK
6
CONTINUOUS
10
0.6192913385826772
20
0.769259842519685
11
0.6191414960629921
21
0.7685065354330709
0
LINE
8
BLACK
6
CONTINUOUS
10
0.6191414960629921
20
0.7685065354330709
11
0.6180761417322834
21
0.7674411811023621
0
LINE
8
BLACK
6
CONTINUOUS
10
0.6180761417322834
20
0.7674411811023621
11
0.6173228346456693
21
0.7672913385826772
0
LINE
8
BLACK
6
CONTINUOUS
10
0.6173228346456693
20
0.7672913385826772
11
0.5007874015748032
21
0.7672913385826772
0
LINE
8
BLACK
6
CONTINUOUS
10
0.5007874015748032
20
0.7672913385826772
11
0.5000340944881889
21
0.7674411811023621
0
LINE
8
BLACK
6
CONTINUOUS
10
0.5000340944881889
20
0.7674411811023621
11
0.4989687401574803
21
0.7685065354330709
0
LINE
8
BLACK
6
CONTINUOUS
10
0.4989687401574803
20
0.7685065354330709
11
0.4988188976377952
21
0.769259842519685
0
LINE
8
BLACK
6
CONTINUOUS
10
0.4988188976377952
20
0.769259842519685
11
0.4988188976377952
21
0.8267401574803149
0
LINE
8
BLACK
6
CONTINUOUS
10
0.4988188976377952
20
0.8267401574803149
11
0.4989687401574803
21
0.8274934645669291
0
LINE
8
BLACK
6
CONTINUOUS
10
0.4989687401574803
20
0.8274934645669291
11
0.5000340944881889
21
0.8285588188976378
0
LINE
8
BLACK
6
CONTINUOUS
10
0.5000340944881889
20
0.8285588188976378
11
0.5007874015748032
21
0.8287086614173228
0
LINE
8
BLACK
6
CONTINUOUS
10
0.5007874015748032
20
0.8287086614173228
11
0.6173228346456693
21
0.8287086614173228
0
LINE
8
BLACK
6
CONTINUOUS
10
0.6173228346456693
20
0.8287086614173228
11
0.6180761417322834
21
0.8285588188976378
0
LINE
8
BLACK
6
CONTINUOUS
10
0.502755905511811
20
0.8247716535433071
11
0.502755905511811
21
0.7712283464566929
0
LINE
8
BLACK
6
CONTINUOUS
10
0.502755905511811
20
0.7712283464566929
11
0.6153543307086614
21
0.7712283464566929
0
LINE
8
BLACK
6
CONTINUOUS
10
0.6153543307086614
20
0.7712283464566929
11
0.6153543307086614
21
0.8247716535433071
0
LINE
8
BLACK
6
CONTINUOUS
10
0.6153543307086614
20
0.8247716535433071
11
0.502755905511811
21
0.8247716535433071
0
CIRCLE
8
BLACK
10
0.0984251968503937
20
0.
40
0.0068897637795276
0
CIRCLE
8
BLACK
10
0.0984251968503937
20
0.905511811023622
40
0.0068897637795276
0
CIRCLE
8
BLACK
10
0.8858267716535433
20
0.905511811023622
40
0.0068897637795276
0
CIRCLE
8
BLACK
10
0.4921259842519685
20
0.905511811023622
40
0.0068897637795276
0
CIRCLE
8
BLACK
10
0.8858267716535433
20
0.
40
0.0068897637795276
0
CIRCLE
8
BLACK
10
0.4921259842519685
20
0.
40
0.0068897637795276
  0
ENDSEC
  0
EOF
