  0
SECTION
  2
HEADER
  9
$ANGBASE
  50
0.0
  9
$ANGDIR
  70
1
  9
$MEASUREMENT
  70
0
  0
ENDSEC
  0
SECTION
  2
TABLES
  0
TABLE
  2
LTYPE
  70
4
  0
LTYPE
  5
40F
  2
CONTINUOUS
  70
0
  3
Solid line
  72
65
  73
0
  40
0.0
  0
LTYPE
  5
410
  2
DASHDOT
 70
0
  3
Dash Dot ____ _ ____ _
 72
65
 73
4
 40
2.0
 49
1.25
 49
-0.25
 49
0.25
 49
-0.25
  0
LTYPE
  5
411
  2
DASHED
 70
0
  3
Dashed __ __ __ __ __
 72
65
 73
2
 40
0.75
 49
0.5
 49
-0.25
  0
LTYPE
  5
43B
  2
DOTTED
 70
0
  3
Dotted .  .  .  .
 72
65
 73
2
 40
0.2
 49
0.0
 49
-0.2
  0
ENDTAB
  0
TABLE
  2
STYLE
  70
4
  0
STYLE
  2
KICAD
  70
0
  40
0
  41
1
  42
1
  50
0
  71
0
  3
isocp.shx
  0
STYLE
  2
KICADB
  70
0
  40
0
  41
1
  42
1
  50
0
  71
0
  3
isocp.shx
  0
STYLE
  2
KICADI
  70
0
  40
0
  41
1
  42
1
  50
15
  71
0
  3
isocp.shx
  0
STYLE
  2
KICADBI
  70
0
  40
0
  41
1
  42
1
  50
15
  71
0
  3
isocp.shx
  0
ENDTAB
  0
TABLE
  2
LAYER
  70
1
  0
LAYER
  2
BLACK
  70
0
  62
7
  6
CONTINUOUS
  0
ENDTAB
  0
ENDSEC
  0
SECTION
  2
ENTITIES
0
LINE
8
BLACK
6
CONTINUOUS
10
0.103983
20
0.058793
11
0.113511
21
0.0570959
0
LINE
8
BLACK
6
CONTINUOUS
10
0.113511
20
0.0570959
11
0.122633
21
0.0538654
0
LINE
8
BLACK
6
CONTINUOUS
10
0.122633
20
0.0538654
11
0.131106
21
0.0491883
0
LINE
8
BLACK
6
CONTINUOUS
10
0.131106
20
0.0491883
11
0.138701
21
0.0431902
0
LINE
8
BLACK
6
CONTINUOUS
10
0.138701
20
0.0431902
11
0.145214
21
0.0360322
0
LINE
8
BLACK
6
CONTINUOUS
10
0.145214
20
0.0360322
11
0.150471
21
0.0279065
0
LINE
8
BLACK
6
CONTINUOUS
10
0.150471
20
0.0279065
11
0.15433
21
0.0190315
0
LINE
8
BLACK
6
CONTINUOUS
10
0.15433
20
0.0190315
11
0.156687
21
0.00964524
0
LINE
8
BLACK
6
CONTINUOUS
10
0.156687
20
0.00964524
11
0.15748
21
0
0
LINE
8
BLACK
6
CONTINUOUS
10
0.15748
20
0
11
0.15741
21
-0.00288484
0
LINE
8
BLACK
6
CONTINUOUS
10
0.15741
20
-0.00288484
11
0.156147
21
-0.0124798
0
LINE
8
BLACK
6
CONTINUOUS
10
0.156147
20
-0.0124798
11
0.153333
21
-0.0217396
0
LINE
8
BLACK
6
CONTINUOUS
10
0.153333
20
-0.0217396
11
0.149045
21
-0.0304156
0
LINE
8
BLACK
6
CONTINUOUS
10
0.149045
20
-0.0304156
11
0.143398
21
-0.0382748
0
LINE
8
BLACK
6
CONTINUOUS
10
0.143398
20
-0.0382748
11
0.136543
21
-0.0451061
0
LINE
8
BLACK
6
CONTINUOUS
10
0.136543
20
-0.0451061
11
0.128664
21
-0.050726
0
LINE
8
BLACK
6
CONTINUOUS
10
0.128664
20
-0.050726
11
0.119973
21
-0.0549836
0
LINE
8
BLACK
6
CONTINUOUS
10
0.119973
20
-0.0549836
11
0.110703
21
-0.0577646
0
LINE
8
BLACK
6
CONTINUOUS
10
0.110703
20
-0.0577646
11
0.101104
21
-0.0589943
0
LINE
8
BLACK
6
CONTINUOUS
10
0.101104
20
-0.0589943
11
0.0914328
21
-0.0586397
0
LINE
8
BLACK
6
CONTINUOUS
10
0.0914328
20
-0.0586397
11
0.0819493
21
-0.0567103
0
LINE
8
BLACK
6
CONTINUOUS
10
0.0819493
20
-0.0567103
11
0.0729083
21
-0.0532578
0
LINE
8
BLACK
6
CONTINUOUS
10
0.0729083
20
-0.0532578
11
0.0645526
21
-0.0483751
0
LINE
8
BLACK
6
CONTINUOUS
10
0.0645526
20
-0.0483751
11
0.0571065
21
-0.0421933
0
LINE
8
BLACK
6
CONTINUOUS
10
0.0571065
20
-0.0421933
11
0.0507701
21
-0.0348783
0
LINE
8
BLACK
6
CONTINUOUS
10
0.0507701
20
-0.0348783
11
0.0457134
21
-0.0266266
0
LINE
8
BLACK
6
CONTINUOUS
10
0.0457134
20
-0.0266266
11
0.0420724
21
-0.0176599
0
LINE
8
BLACK
6
CONTINUOUS
10
0.0420724
20
-0.0176599
11
0.0399448
21
-0.0082189
0
LINE
8
BLACK
6
CONTINUOUS
10
0.0399448
20
-0.0082189
11
0.0393877
21
0.00144283
0
LINE
8
BLACK
6
CONTINUOUS
10
0.0393877
20
0.00144283
11
0.0404161
21
0.0110658
0
LINE
8
BLACK
6
CONTINUOUS
10
0.0404161
20
0.0110658
11
0.0430024
21
0.0203916
0
LINE
8
BLACK
6
CONTINUOUS
10
0.0430024
20
0.0203916
11
0.0470771
21
0.0291698
0
LINE
8
BLACK
6
CONTINUOUS
10
0.0470771
20
0.0291698
11
0.0525307
21
0.0371646
0
LINE
8
BLACK
6
CONTINUOUS
10
0.0525307
20
0.0371646
11
0.059217
21
0.0441613
0
LINE
8
BLACK
6
CONTINUOUS
10
0.059217
20
0.0441613
11
0.0669561
21
0.049972
0
LINE
8
BLACK
6
CONTINUOUS
10
0.0669561
20
0.049972
11
0.0755404
21
0.0544407
0
LINE
8
BLACK
6
CONTINUOUS
10
0.0755404
20
0.0544407
11
0.0847393
21
0.0574474
0
LINE
8
BLACK
6
CONTINUOUS
10
0.0847393
20
0.0574474
11
0.0943057
21
0.0589113
0
LINE
8
BLACK
6
CONTINUOUS
10
0.0943057
20
0.0589113
11
0.103983
21
0.058793
0
LINE
8
BLACK
6
CONTINUOUS
10
0.891384
20
0.058793
11
0.900912
21
0.0570959
0
LINE
8
BLACK
6
CONTINUOUS
10
0.900912
20
0.0570959
11
0.910035
21
0.0538654
0
LINE
8
BLACK
6
CONTINUOUS
10
0.910035
20
0.0538654
11
0.918507
21
0.0491883
0
LINE
8
BLACK
6
CONTINUOUS
10
0.918507
20
0.0491883
11
0.926102
21
0.0431902
0
LINE
8
BLACK
6
CONTINUOUS
10
0.926102
20
0.0431902
11
0.932616
21
0.0360322
0
LINE
8
BLACK
6
CONTINUOUS
10
0.932616
20
0.0360322
11
0.937872
21
0.0279065
0
LINE
8
BLACK
6
CONTINUOUS
10
0.937872
20
0.0279065
11
0.941731
21
0.0190315
0
LINE
8
BLACK
6
CONTINUOUS
10
0.941731
20
0.0190315
11
0.944089
21
0.00964524
0
LINE
8
BLACK
6
CONTINUOUS
10
0.944089
20
0.00964524
11
0.944882
21
0
0
LINE
8
BLACK
6
CONTINUOUS
10
0.944882
20
0
11
0.944811
21
-0.00288484
0
LINE
8
BLACK
6
CONTINUOUS
10
0.944811
20
-0.00288484
11
0.943548
21
-0.0124798
0
LINE
8
BLACK
6
CONTINUOUS
10
0.943548
20
-0.0124798
11
0.940735
21
-0.0217396
0
LINE
8
BLACK
6
CONTINUOUS
10
0.940735
20
-0.0217396
11
0.936447
21
-0.0304156
0
LINE
8
BLACK
6
CONTINUOUS
10
0.936447
20
-0.0304156
11
0.930799
21
-0.0382748
0
LINE
8
BLACK
6
CONTINUOUS
10
0.930799
20
-0.0382748
11
0.923944
21
-0.0451061
0
LINE
8
BLACK
6
CONTINUOUS
10
0.923944
20
-0.0451061
11
0.916066
21
-0.050726
0
LINE
8
BLACK
6
CONTINUOUS
10
0.916066
20
-0.050726
11
0.907375
21
-0.0549836
0
LINE
8
BLACK
6
CONTINUOUS
10
0.907375
20
-0.0549836
11
0.898105
21
-0.0577646
0
LINE
8
BLACK
6
CONTINUOUS
10
0.898105
20
-0.0577646
11
0.888506
21
-0.0589943
0
LINE
8
BLACK
6
CONTINUOUS
10
0.888506
20
-0.0589943
11
0.878834
21
-0.0586397
0
LINE
8
BLACK
6
CONTINUOUS
10
0.878834
20
-0.0586397
11
0.869351
21
-0.0567103
0
LINE
8
BLACK
6
CONTINUOUS
10
0.869351
20
-0.0567103
11
0.86031
21
-0.0532578
0
LINE
8
BLACK
6
CONTINUOUS
10
0.86031
20
-0.0532578
11
0.851954
21
-0.0483751
0
LINE
8
BLACK
6
CONTINUOUS
10
0.851954
20
-0.0483751
11
0.844508
21
-0.0421933
0
LINE
8
BLACK
6
CONTINUOUS
10
0.844508
20
-0.0421933
11
0.838172
21
-0.0348783
0
LINE
8
BLACK
6
CONTINUOUS
10
0.838172
20
-0.0348783
11
0.833115
21
-0.0266266
0
LINE
8
BLACK
6
CONTINUOUS
10
0.833115
20
-0.0266266
11
0.829474
21
-0.0176599
0
LINE
8
BLACK
6
CONTINUOUS
10
0.829474
20
-0.0176599
11
0.827346
21
-0.0082189
0
LINE
8
BLACK
6
CONTINUOUS
10
0.827346
20
-0.0082189
11
0.826789
21
0.00144283
0
LINE
8
BLACK
6
CONTINUOUS
10
0.826789
20
0.00144283
11
0.827818
21
0.0110658
0
LINE
8
BLACK
6
CONTINUOUS
10
0.827818
20
0.0110658
11
0.830404
21
0.0203916
0
LINE
8
BLACK
6
CONTINUOUS
10
0.830404
20
0.0203916
11
0.834479
21
0.0291698
0
LINE
8
BLACK
6
CONTINUOUS
10
0.834479
20
0.0291698
11
0.839932
21
0.0371646
0
LINE
8
BLACK
6
CONTINUOUS
10
0.839932
20
0.0371646
11
0.846619
21
0.0441613
0
LINE
8
BLACK
6
CONTINUOUS
10
0.846619
20
0.0441613
11
0.854358
21
0.049972
0
LINE
8
BLACK
6
CONTINUOUS
10
0.854358
20
0.049972
11
0.862942
21
0.0544407
0
LINE
8
BLACK
6
CONTINUOUS
10
0.862942
20
0.0544407
11
0.872141
21
0.0574474
0
LINE
8
BLACK
6
CONTINUOUS
10
0.872141
20
0.0574474
11
0.881707
21
0.0589113
0
LINE
8
BLACK
6
CONTINUOUS
10
0.881707
20
0.0589113
11
0.891384
21
0.058793
0
LINE
8
BLACK
6
CONTINUOUS
10
0.497684
20
0.058793
11
0.507211
21
0.0570959
0
LINE
8
BLACK
6
CONTINUOUS
10
0.507211
20
0.0570959
11
0.516334
21
0.0538654
0
LINE
8
BLACK
6
CONTINUOUS
10
0.516334
20
0.0538654
11
0.524807
21
0.0491883
0
LINE
8
BLACK
6
CONTINUOUS
10
0.524807
20
0.0491883
11
0.532401
21
0.0431902
0
LINE
8
BLACK
6
CONTINUOUS
10
0.532401
20
0.0431902
11
0.538915
21
0.0360322
0
LINE
8
BLACK
6
CONTINUOUS
10
0.538915
20
0.0360322
11
0.544171
21
0.0279065
0
LINE
8
BLACK
6
CONTINUOUS
10
0.544171
20
0.0279065
11
0.54803
21
0.0190315
0
LINE
8
BLACK
6
CONTINUOUS
10
0.54803
20
0.0190315
11
0.550388
21
0.00964524
0
LINE
8
BLACK
6
CONTINUOUS
10
0.550388
20
0.00964524
11
0.551181
21
0
0
LINE
8
BLACK
6
CONTINUOUS
10
0.551181
20
0
11
0.551111
21
-0.00288484
0
LINE
8
BLACK
6
CONTINUOUS
10
0.551111
20
-0.00288484
11
0.549847
21
-0.0124798
0
LINE
8
BLACK
6
CONTINUOUS
10
0.549847
20
-0.0124798
11
0.547034
21
-0.0217396
0
LINE
8
BLACK
6
CONTINUOUS
10
0.547034
20
-0.0217396
11
0.542746
21
-0.0304156
0
LINE
8
BLACK
6
CONTINUOUS
10
0.542746
20
-0.0304156
11
0.537099
21
-0.0382748
0
LINE
8
BLACK
6
CONTINUOUS
10
0.537099
20
-0.0382748
11
0.530244
21
-0.0451061
0
LINE
8
BLACK
6
CONTINUOUS
10
0.530244
20
-0.0451061
11
0.522365
21
-0.050726
0
LINE
8
BLACK
6
CONTINUOUS
10
0.522365
20
-0.050726
11
0.513674
21
-0.0549836
0
LINE
8
BLACK
6
CONTINUOUS
10
0.513674
20
-0.0549836
11
0.504404
21
-0.0577646
0
LINE
8
BLACK
6
CONTINUOUS
10
0.504404
20
-0.0577646
11
0.494805
21
-0.0589943
0
LINE
8
BLACK
6
CONTINUOUS
10
0.494805
20
-0.0589943
11
0.485134
21
-0.0586397
0
LINE
8
BLACK
6
CONTINUOUS
10
0.485134
20
-0.0586397
11
0.47565
21
-0.0567103
0
LINE
8
BLACK
6
CONTINUOUS
10
0.47565
20
-0.0567103
11
0.466609
21
-0.0532578
0
LINE
8
BLACK
6
CONTINUOUS
10
0.466609
20
-0.0532578
11
0.458253
21
-0.0483751
0
LINE
8
BLACK
6
CONTINUOUS
10
0.458253
20
-0.0483751
11
0.450807
21
-0.0421933
0
LINE
8
BLACK
6
CONTINUOUS
10
0.450807
20
-0.0421933
11
0.444471
21
-0.0348783
0
LINE
8
BLACK
6
CONTINUOUS
10
0.444471
20
-0.0348783
11
0.439414
21
-0.0266266
0
LINE
8
BLACK
6
CONTINUOUS
10
0.439414
20
-0.0266266
11
0.435773
21
-0.0176599
0
LINE
8
BLACK
6
CONTINUOUS
10
0.435773
20
-0.0176599
11
0.433646
21
-0.0082189
0
LINE
8
BLACK
6
CONTINUOUS
10
0.433646
20
-0.0082189
11
0.433089
21
0.00144283
0
LINE
8
BLACK
6
CONTINUOUS
10
0.433089
20
0.00144283
11
0.434117
21
0.0110658
0
LINE
8
BLACK
6
CONTINUOUS
10
0.434117
20
0.0110658
11
0.436703
21
0.0203916
0
LINE
8
BLACK
6
CONTINUOUS
10
0.436703
20
0.0203916
11
0.440778
21
0.0291698
0
LINE
8
BLACK
6
CONTINUOUS
10
0.440778
20
0.0291698
11
0.446232
21
0.0371646
0
LINE
8
BLACK
6
CONTINUOUS
10
0.446232
20
0.0371646
11
0.452918
21
0.0441613
0
LINE
8
BLACK
6
CONTINUOUS
10
0.452918
20
0.0441613
11
0.460657
21
0.049972
0
LINE
8
BLACK
6
CONTINUOUS
10
0.460657
20
0.049972
11
0.469241
21
0.0544407
0
LINE
8
BLACK
6
CONTINUOUS
10
0.469241
20
0.0544407
11
0.47844
21
0.0574474
0
LINE
8
BLACK
6
CONTINUOUS
10
0.47844
20
0.0574474
11
0.488006
21
0.0589113
0
LINE
8
BLACK
6
CONTINUOUS
10
0.488006
20
0.0589113
11
0.497684
21
0.058793
0
LINE
8
BLACK
6
CONTINUOUS
10
0.682541
20
0.105756
11
0.687205
21
0.103379
0
LINE
8
BLACK
6
CONTINUOUS
10
0.687205
20
0.103379
11
0.690907
21
0.0996775
0
LINE
8
BLACK
6
CONTINUOUS
10
0.690907
20
0.0996775
11
0.693283
21
0.0950131
0
LINE
8
BLACK
6
CONTINUOUS
10
0.693283
20
0.0950131
11
0.694102
21
0.0898425
0
LINE
8
BLACK
6
CONTINUOUS
10
0.694102
20
0.0898425
11
0.694102
21
0.0701575
0
LINE
8
BLACK
6
CONTINUOUS
10
0.694102
20
0.0701575
11
0.693283
21
0.0649869
0
LINE
8
BLACK
6
CONTINUOUS
10
0.693283
20
0.0649869
11
0.690907
21
0.0603225
0
LINE
8
BLACK
6
CONTINUOUS
10
0.690907
20
0.0603225
11
0.687205
21
0.0566208
0
LINE
8
BLACK
6
CONTINUOUS
10
0.687205
20
0.0566208
11
0.682541
21
0.0542441
0
LINE
8
BLACK
6
CONTINUOUS
10
0.682541
20
0.0542441
11
0.67737
21
0.0534252
0
LINE
8
BLACK
6
CONTINUOUS
10
0.67737
20
0.0534252
11
0.659654
21
0.0534252
0
LINE
8
BLACK
6
CONTINUOUS
10
0.659654
20
0.0534252
11
0.654483
21
0.0542441
0
LINE
8
BLACK
6
CONTINUOUS
10
0.654483
20
0.0542441
11
0.649819
21
0.0566208
0
LINE
8
BLACK
6
CONTINUOUS
10
0.649819
20
0.0566208
11
0.646117
21
0.0603225
0
LINE
8
BLACK
6
CONTINUOUS
10
0.646117
20
0.0603225
11
0.64374
21
0.0649869
0
LINE
8
BLACK
6
CONTINUOUS
10
0.64374
20
0.0649869
11
0.642921
21
0.0701575
0
LINE
8
BLACK
6
CONTINUOUS
10
0.642921
20
0.0701575
11
0.642921
21
0.0898425
0
LINE
8
BLACK
6
CONTINUOUS
10
0.642921
20
0.0898425
11
0.64374
21
0.0950131
0
LINE
8
BLACK
6
CONTINUOUS
10
0.64374
20
0.0950131
11
0.646117
21
0.0996775
0
LINE
8
BLACK
6
CONTINUOUS
10
0.646117
20
0.0996775
11
0.649819
21
0.103379
0
LINE
8
BLACK
6
CONTINUOUS
10
0.649819
20
0.103379
11
0.654483
21
0.105756
0
LINE
8
BLACK
6
CONTINUOUS
10
0.654483
20
0.105756
11
0.659654
21
0.106575
0
LINE
8
BLACK
6
CONTINUOUS
10
0.659654
20
0.106575
11
0.67737
21
0.106575
0
LINE
8
BLACK
6
CONTINUOUS
10
0.67737
20
0.106575
11
0.682541
21
0.105756
0
LINE
8
BLACK
6
CONTINUOUS
10
0.621517
20
0.105756
11
0.626181
21
0.103379
0
LINE
8
BLACK
6
CONTINUOUS
10
0.626181
20
0.103379
11
0.629883
21
0.0996775
0
LINE
8
BLACK
6
CONTINUOUS
10
0.629883
20
0.0996775
11
0.63226
21
0.0950131
0
LINE
8
BLACK
6
CONTINUOUS
10
0.63226
20
0.0950131
11
0.633079
21
0.0898425
0
LINE
8
BLACK
6
CONTINUOUS
10
0.633079
20
0.0898425
11
0.633079
21
0.0701575
0
LINE
8
BLACK
6
CONTINUOUS
10
0.633079
20
0.0701575
11
0.63226
21
0.0649869
0
LINE
8
BLACK
6
CONTINUOUS
10
0.63226
20
0.0649869
11
0.629883
21
0.0603225
0
LINE
8
BLACK
6
CONTINUOUS
10
0.629883
20
0.0603225
11
0.626181
21
0.0566208
0
LINE
8
BLACK
6
CONTINUOUS
10
0.626181
20
0.0566208
11
0.621517
21
0.0542441
0
LINE
8
BLACK
6
CONTINUOUS
10
0.621517
20
0.0542441
11
0.616346
21
0.0534252
0
LINE
8
BLACK
6
CONTINUOUS
10
0.616346
20
0.0534252
11
0.59863
21
0.0534252
0
LINE
8
BLACK
6
CONTINUOUS
10
0.59863
20
0.0534252
11
0.593459
21
0.0542441
0
LINE
8
BLACK
6
CONTINUOUS
10
0.593459
20
0.0542441
11
0.588795
21
0.0566208
0
LINE
8
BLACK
6
CONTINUOUS
10
0.588795
20
0.0566208
11
0.585093
21
0.0603225
0
LINE
8
BLACK
6
CONTINUOUS
10
0.585093
20
0.0603225
11
0.582717
21
0.0649869
0
LINE
8
BLACK
6
CONTINUOUS
10
0.582717
20
0.0649869
11
0.581898
21
0.0701575
0
LINE
8
BLACK
6
CONTINUOUS
10
0.581898
20
0.0701575
11
0.581898
21
0.0898425
0
LINE
8
BLACK
6
CONTINUOUS
10
0.581898
20
0.0898425
11
0.582717
21
0.0950131
0
LINE
8
BLACK
6
CONTINUOUS
10
0.582717
20
0.0950131
11
0.585093
21
0.0996775
0
LINE
8
BLACK
6
CONTINUOUS
10
0.585093
20
0.0996775
11
0.588795
21
0.103379
0
LINE
8
BLACK
6
CONTINUOUS
10
0.588795
20
0.103379
11
0.593459
21
0.105756
0
LINE
8
BLACK
6
CONTINUOUS
10
0.593459
20
0.105756
11
0.59863
21
0.106575
0
LINE
8
BLACK
6
CONTINUOUS
10
0.59863
20
0.106575
11
0.616346
21
0.106575
0
LINE
8
BLACK
6
CONTINUOUS
10
0.616346
20
0.106575
11
0.621517
21
0.105756
0
LINE
8
BLACK
6
CONTINUOUS
10
0.386021
20
0.127844
11
0.390991
21
0.126098
0
LINE
8
BLACK
6
CONTINUOUS
10
0.390991
20
0.126098
11
0.395228
21
0.122968
0
LINE
8
BLACK
6
CONTINUOUS
10
0.395228
20
0.122968
11
0.398358
21
0.118731
0
LINE
8
BLACK
6
CONTINUOUS
10
0.398358
20
0.118731
11
0.400104
21
0.113761
0
LINE
8
BLACK
6
CONTINUOUS
10
0.400104
20
0.113761
11
0.400417
21
0.110441
0
LINE
8
BLACK
6
CONTINUOUS
10
0.400417
20
0.110441
11
0.400417
21
0.0907559
0
LINE
8
BLACK
6
CONTINUOUS
10
0.400417
20
0.0907559
11
0.400104
21
0.0874361
0
LINE
8
BLACK
6
CONTINUOUS
10
0.400104
20
0.0874361
11
0.398358
21
0.0824658
0
LINE
8
BLACK
6
CONTINUOUS
10
0.398358
20
0.0824658
11
0.395228
21
0.0782284
0
LINE
8
BLACK
6
CONTINUOUS
10
0.395228
20
0.0782284
11
0.390991
21
0.0750986
0
LINE
8
BLACK
6
CONTINUOUS
10
0.390991
20
0.0750986
11
0.386021
21
0.0733532
0
LINE
8
BLACK
6
CONTINUOUS
10
0.386021
20
0.0733532
11
0.382701
21
0.0730394
0
LINE
8
BLACK
6
CONTINUOUS
10
0.382701
20
0.0730394
11
0.345299
21
0.0730394
0
LINE
8
BLACK
6
CONTINUOUS
10
0.345299
20
0.0730394
11
0.341979
21
0.0733532
0
LINE
8
BLACK
6
CONTINUOUS
10
0.341979
20
0.0733532
11
0.337009
21
0.0750986
0
LINE
8
BLACK
6
CONTINUOUS
10
0.337009
20
0.0750986
11
0.332772
21
0.0782284
0
LINE
8
BLACK
6
CONTINUOUS
10
0.332772
20
0.0782284
11
0.329642
21
0.0824658
0
LINE
8
BLACK
6
CONTINUOUS
10
0.329642
20
0.0824658
11
0.327896
21
0.0874361
0
LINE
8
BLACK
6
CONTINUOUS
10
0.327896
20
0.0874361
11
0.327583
21
0.0907559
0
LINE
8
BLACK
6
CONTINUOUS
10
0.327583
20
0.0907559
11
0.327583
21
0.110441
0
LINE
8
BLACK
6
CONTINUOUS
10
0.327583
20
0.110441
11
0.327896
21
0.113761
0
LINE
8
BLACK
6
CONTINUOUS
10
0.327896
20
0.113761
11
0.329642
21
0.118731
0
LINE
8
BLACK
6
CONTINUOUS
10
0.329642
20
0.118731
11
0.332772
21
0.122968
0
LINE
8
BLACK
6
CONTINUOUS
10
0.332772
20
0.122968
11
0.337009
21
0.126098
0
LINE
8
BLACK
6
CONTINUOUS
10
0.337009
20
0.126098
11
0.341979
21
0.127844
0
LINE
8
BLACK
6
CONTINUOUS
10
0.341979
20
0.127844
11
0.345299
21
0.128157
0
LINE
8
BLACK
6
CONTINUOUS
10
0.345299
20
0.128157
11
0.382701
21
0.128157
0
LINE
8
BLACK
6
CONTINUOUS
10
0.382701
20
0.128157
11
0.386021
21
0.127844
0
LINE
8
BLACK
6
CONTINUOUS
10
0.103713
20
0.136497
11
0.108684
21
0.134752
0
LINE
8
BLACK
6
CONTINUOUS
10
0.108684
20
0.134752
11
0.112921
21
0.131622
0
LINE
8
BLACK
6
CONTINUOUS
10
0.112921
20
0.131622
11
0.116051
21
0.127385
0
LINE
8
BLACK
6
CONTINUOUS
10
0.116051
20
0.127385
11
0.117796
21
0.122414
0
LINE
8
BLACK
6
CONTINUOUS
10
0.117796
20
0.122414
11
0.11811
21
0.119094
0
LINE
8
BLACK
6
CONTINUOUS
10
0.11811
20
0.119094
11
0.11811
21
0.0994094
0
LINE
8
BLACK
6
CONTINUOUS
10
0.11811
20
0.0994094
11
0.117796
21
0.0960897
0
LINE
8
BLACK
6
CONTINUOUS
10
0.117796
20
0.0960897
11
0.116051
21
0.0911194
0
LINE
8
BLACK
6
CONTINUOUS
10
0.116051
20
0.0911194
11
0.112921
21
0.086882
0
LINE
8
BLACK
6
CONTINUOUS
10
0.112921
20
0.086882
11
0.108684
21
0.0837522
0
LINE
8
BLACK
6
CONTINUOUS
10
0.108684
20
0.0837522
11
0.103713
21
0.0820067
0
LINE
8
BLACK
6
CONTINUOUS
10
0.103713
20
0.0820067
11
0.100394
21
0.0816929
0
LINE
8
BLACK
6
CONTINUOUS
10
0.100394
20
0.0816929
11
0.0137795
21
0.0816929
0
LINE
8
BLACK
6
CONTINUOUS
10
0.0137795
20
0.0816929
11
0.0104598
21
0.0820067
0
LINE
8
BLACK
6
CONTINUOUS
10
0.0104598
20
0.0820067
11
0.00548945
21
0.0837522
0
LINE
8
BLACK
6
CONTINUOUS
10
0.00548945
20
0.0837522
11
0.00125205
21
0.086882
0
LINE
8
BLACK
6
CONTINUOUS
10
0.00125205
20
0.086882
11
-0.00187776
21
0.0911194
0
LINE
8
BLACK
6
CONTINUOUS
10
-0.00187776
20
0.0911194
11
-0.00362319
21
0.0960897
0
LINE
8
BLACK
6
CONTINUOUS
10
-0.00362319
20
0.0960897
11
-0.00393701
21
0.0994094
0
LINE
8
BLACK
6
CONTINUOUS
10
-0.00393701
20
0.0994094
11
-0.00393701
21
0.119094
0
LINE
8
BLACK
6
CONTINUOUS
10
-0.00393701
20
0.119094
11
-0.00362319
21
0.122414
0
LINE
8
BLACK
6
CONTINUOUS
10
-0.00362319
20
0.122414
11
-0.00187776
21
0.127385
0
LINE
8
BLACK
6
CONTINUOUS
10
-0.00187776
20
0.127385
11
0.00125205
21
0.131622
0
LINE
8
BLACK
6
CONTINUOUS
10
0.00125205
20
0.131622
11
0.00548945
21
0.134752
0
LINE
8
BLACK
6
CONTINUOUS
10
0.00548945
20
0.134752
11
0.0104598
21
0.136497
0
LINE
8
BLACK
6
CONTINUOUS
10
0.0104598
20
0.136497
11
0.0137795
21
0.136811
0
LINE
8
BLACK
6
CONTINUOUS
10
0.0137795
20
0.136811
11
0.100394
21
0.136811
0
LINE
8
BLACK
6
CONTINUOUS
10
0.100394
20
0.136811
11
0.103713
21
0.136497
0
LINE
8
BLACK
6
CONTINUOUS
10
0.973792
20
0.136497
11
0.978763
21
0.134752
0
LINE
8
BLACK
6
CONTINUOUS
10
0.978763
20
0.134752
11
0.983
21
0.131622
0
LINE
8
BLACK
6
CONTINUOUS
10
0.983
20
0.131622
11
0.98613
21
0.127385
0
LINE
8
BLACK
6
CONTINUOUS
10
0.98613
20
0.127385
11
0.987875
21
0.122414
0
LINE
8
BLACK
6
CONTINUOUS
10
0.987875
20
0.122414
11
0.988189
21
0.119094
0
LINE
8
BLACK
6
CONTINUOUS
10
0.988189
20
0.119094
11
0.988189
21
0.0994094
0
LINE
8
BLACK
6
CONTINUOUS
10
0.988189
20
0.0994094
11
0.987875
21
0.0960897
0
LINE
8
BLACK
6
CONTINUOUS
10
0.987875
20
0.0960897
11
0.98613
21
0.0911194
0
LINE
8
BLACK
6
CONTINUOUS
10
0.98613
20
0.0911194
11
0.983
21
0.086882
0
LINE
8
BLACK
6
CONTINUOUS
10
0.983
20
0.086882
11
0.978763
21
0.0837522
0
LINE
8
BLACK
6
CONTINUOUS
10
0.978763
20
0.0837522
11
0.973792
21
0.0820067
0
LINE
8
BLACK
6
CONTINUOUS
10
0.973792
20
0.0820067
11
0.970472
21
0.0816929
0
LINE
8
BLACK
6
CONTINUOUS
10
0.970472
20
0.0816929
11
0.883858
21
0.0816929
0
LINE
8
BLACK
6
CONTINUOUS
10
0.883858
20
0.0816929
11
0.880539
21
0.0820067
0
LINE
8
BLACK
6
CONTINUOUS
10
0.880539
20
0.0820067
11
0.875568
21
0.0837522
0
LINE
8
BLACK
6
CONTINUOUS
10
0.875568
20
0.0837522
11
0.871331
21
0.086882
0
LINE
8
BLACK
6
CONTINUOUS
10
0.871331
20
0.086882
11
0.868201
21
0.0911194
0
LINE
8
BLACK
6
CONTINUOUS
10
0.868201
20
0.0911194
11
0.866456
21
0.0960897
0
LINE
8
BLACK
6
CONTINUOUS
10
0.866456
20
0.0960897
11
0.866142
21
0.0994094
0
LINE
8
BLACK
6
CONTINUOUS
10
0.866142
20
0.0994094
11
0.866142
21
0.119094
0
LINE
8
BLACK
6
CONTINUOUS
10
0.866142
20
0.119094
11
0.866456
21
0.122414
0
LINE
8
BLACK
6
CONTINUOUS
10
0.866456
20
0.122414
11
0.868201
21
0.127385
0
LINE
8
BLACK
6
CONTINUOUS
10
0.868201
20
0.127385
11
0.871331
21
0.131622
0
LINE
8
BLACK
6
CONTINUOUS
10
0.871331
20
0.131622
11
0.875568
21
0.134752
0
LINE
8
BLACK
6
CONTINUOUS
10
0.875568
20
0.134752
11
0.880539
21
0.136497
0
LINE
8
BLACK
6
CONTINUOUS
10
0.880539
20
0.136497
11
0.883858
21
0.136811
0
LINE
8
BLACK
6
CONTINUOUS
10
0.883858
20
0.136811
11
0.970472
21
0.136811
0
LINE
8
BLACK
6
CONTINUOUS
10
0.970472
20
0.136811
11
0.973792
21
0.136497
0
LINE
8
BLACK
6
CONTINUOUS
10
0.464441
20
0.168599
11
0.468506
21
0.166612
0
LINE
8
BLACK
6
CONTINUOUS
10
0.468506
20
0.166612
11
0.471708
21
0.163415
0
LINE
8
BLACK
6
CONTINUOUS
10
0.471708
20
0.163415
11
0.473301
21
0.160172
0
LINE
8
BLACK
6
CONTINUOUS
10
0.473301
20
0.160172
11
0.474876
21
0.163396
0
LINE
8
BLACK
6
CONTINUOUS
10
0.474876
20
0.163396
11
0.478073
21
0.166598
0
LINE
8
BLACK
6
CONTINUOUS
10
0.478073
20
0.166598
11
0.482135
21
0.168592
0
LINE
8
BLACK
6
CONTINUOUS
10
0.482135
20
0.168592
11
0.486094
21
0.169173
0
LINE
8
BLACK
6
CONTINUOUS
10
0.486094
20
0.169173
11
0.497906
21
0.169173
0
LINE
8
BLACK
6
CONTINUOUS
10
0.497906
20
0.169173
11
0.501842
21
0.168599
0
LINE
8
BLACK
6
CONTINUOUS
10
0.501842
20
0.168599
11
0.505907
21
0.166612
0
LINE
8
BLACK
6
CONTINUOUS
10
0.505907
20
0.166612
11
0.50911
21
0.163415
0
LINE
8
BLACK
6
CONTINUOUS
10
0.50911
20
0.163415
11
0.510702
21
0.160172
0
LINE
8
BLACK
6
CONTINUOUS
10
0.510702
20
0.160172
11
0.512278
21
0.163396
0
LINE
8
BLACK
6
CONTINUOUS
10
0.512278
20
0.163396
11
0.515475
21
0.166598
0
LINE
8
BLACK
6
CONTINUOUS
10
0.515475
20
0.166598
11
0.519536
21
0.168592
0
LINE
8
BLACK
6
CONTINUOUS
10
0.519536
20
0.168592
11
0.523496
21
0.169173
0
LINE
8
BLACK
6
CONTINUOUS
10
0.523496
20
0.169173
11
0.535307
21
0.169173
0
LINE
8
BLACK
6
CONTINUOUS
10
0.535307
20
0.169173
11
0.539244
21
0.168599
0
LINE
8
BLACK
6
CONTINUOUS
10
0.539244
20
0.168599
11
0.543309
21
0.166612
0
LINE
8
BLACK
6
CONTINUOUS
10
0.543309
20
0.166612
11
0.546511
21
0.163415
0
LINE
8
BLACK
6
CONTINUOUS
10
0.546511
20
0.163415
11
0.548505
21
0.159353
0
LINE
8
BLACK
6
CONTINUOUS
10
0.548505
20
0.159353
11
0.549087
21
0.155394
0
LINE
8
BLACK
6
CONTINUOUS
10
0.549087
20
0.155394
11
0.549087
21
0.115039
0
LINE
8
BLACK
6
CONTINUOUS
10
0.549087
20
0.115039
11
0.548512
21
0.111103
0
LINE
8
BLACK
6
CONTINUOUS
10
0.548512
20
0.111103
11
0.546525
21
0.107038
0
LINE
8
BLACK
6
CONTINUOUS
10
0.546525
20
0.107038
11
0.543328
21
0.103835
0
LINE
8
BLACK
6
CONTINUOUS
10
0.543328
20
0.103835
11
0.539267
21
0.101841
0
LINE
8
BLACK
6
CONTINUOUS
10
0.539267
20
0.101841
11
0.535307
21
0.10126
0
LINE
8
BLACK
6
CONTINUOUS
10
0.535307
20
0.10126
11
0.523496
21
0.10126
0
LINE
8
BLACK
6
CONTINUOUS
10
0.523496
20
0.10126
11
0.519559
21
0.101834
0
LINE
8
BLACK
6
CONTINUOUS
10
0.519559
20
0.101834
11
0.515494
21
0.103821
0
LINE
8
BLACK
6
CONTINUOUS
10
0.515494
20
0.103821
11
0.512292
21
0.107018
0
LINE
8
BLACK
6
CONTINUOUS
10
0.512292
20
0.107018
11
0.510699
21
0.110261
0
LINE
8
BLACK
6
CONTINUOUS
10
0.510699
20
0.110261
11
0.509124
21
0.107038
0
LINE
8
BLACK
6
CONTINUOUS
10
0.509124
20
0.107038
11
0.505927
21
0.103835
0
LINE
8
BLACK
6
CONTINUOUS
10
0.505927
20
0.103835
11
0.501865
21
0.101841
0
LINE
8
BLACK
6
CONTINUOUS
10
0.501865
20
0.101841
11
0.497906
21
0.10126
0
LINE
8
BLACK
6
CONTINUOUS
10
0.497906
20
0.10126
11
0.486094
21
0.10126
0
LINE
8
BLACK
6
CONTINUOUS
10
0.486094
20
0.10126
11
0.482158
21
0.101834
0
LINE
8
BLACK
6
CONTINUOUS
10
0.482158
20
0.101834
11
0.478093
21
0.103821
0
LINE
8
BLACK
6
CONTINUOUS
10
0.478093
20
0.103821
11
0.47489
21
0.107018
0
LINE
8
BLACK
6
CONTINUOUS
10
0.47489
20
0.107018
11
0.473298
21
0.110261
0
LINE
8
BLACK
6
CONTINUOUS
10
0.473298
20
0.110261
11
0.471722
21
0.107038
0
LINE
8
BLACK
6
CONTINUOUS
10
0.471722
20
0.107038
11
0.468525
21
0.103835
0
LINE
8
BLACK
6
CONTINUOUS
10
0.468525
20
0.103835
11
0.464464
21
0.101841
0
LINE
8
BLACK
6
CONTINUOUS
10
0.464464
20
0.101841
11
0.460504
21
0.10126
0
LINE
8
BLACK
6
CONTINUOUS
10
0.460504
20
0.10126
11
0.448693
21
0.10126
0
LINE
8
BLACK
6
CONTINUOUS
10
0.448693
20
0.10126
11
0.444756
21
0.101834
0
LINE
8
BLACK
6
CONTINUOUS
10
0.444756
20
0.101834
11
0.440691
21
0.103821
0
LINE
8
BLACK
6
CONTINUOUS
10
0.440691
20
0.103821
11
0.437489
21
0.107018
0
LINE
8
BLACK
6
CONTINUOUS
10
0.437489
20
0.107018
11
0.435495
21
0.11108
0
LINE
8
BLACK
6
CONTINUOUS
10
0.435495
20
0.11108
11
0.434913
21
0.115039
0
LINE
8
BLACK
6
CONTINUOUS
10
0.434913
20
0.115039
11
0.434913
21
0.155394
0
LINE
8
BLACK
6
CONTINUOUS
10
0.434913
20
0.155394
11
0.435488
21
0.15933
0
LINE
8
BLACK
6
CONTINUOUS
10
0.435488
20
0.15933
11
0.437475
21
0.163396
0
LINE
8
BLACK
6
CONTINUOUS
10
0.437475
20
0.163396
11
0.440672
21
0.166598
0
LINE
8
BLACK
6
CONTINUOUS
10
0.440672
20
0.166598
11
0.444733
21
0.168592
0
LINE
8
BLACK
6
CONTINUOUS
10
0.444733
20
0.168592
11
0.448693
21
0.169173
0
LINE
8
BLACK
6
CONTINUOUS
10
0.448693
20
0.169173
11
0.460504
21
0.169173
0
LINE
8
BLACK
6
CONTINUOUS
10
0.460504
20
0.169173
11
0.464441
21
0.168599
0
LINE
8
BLACK
6
CONTINUOUS
10
0.296793
20
0.145527
11
0.299347
21
0.14382
0
LINE
8
BLACK
6
CONTINUOUS
10
0.299347
20
0.14382
11
0.301054
21
0.141265
0
LINE
8
BLACK
6
CONTINUOUS
10
0.301054
20
0.141265
11
0.301654
21
0.138252
0
LINE
8
BLACK
6
CONTINUOUS
10
0.301654
20
0.138252
11
0.301654
21
0.11463
0
LINE
8
BLACK
6
CONTINUOUS
10
0.301654
20
0.11463
11
0.301054
21
0.111617
0
LINE
8
BLACK
6
CONTINUOUS
10
0.301054
20
0.111617
11
0.299347
21
0.109062
0
LINE
8
BLACK
6
CONTINUOUS
10
0.299347
20
0.109062
11
0.296793
21
0.107355
0
LINE
8
BLACK
6
CONTINUOUS
10
0.296793
20
0.107355
11
0.29378
21
0.106756
0
LINE
8
BLACK
6
CONTINUOUS
10
0.29378
20
0.106756
11
0.26622
21
0.106756
0
LINE
8
BLACK
6
CONTINUOUS
10
0.26622
20
0.106756
11
0.263207
21
0.107355
0
LINE
8
BLACK
6
CONTINUOUS
10
0.263207
20
0.107355
11
0.260653
21
0.109062
0
LINE
8
BLACK
6
CONTINUOUS
10
0.260653
20
0.109062
11
0.258946
21
0.111617
0
LINE
8
BLACK
6
CONTINUOUS
10
0.258946
20
0.111617
11
0.258346
21
0.11463
0
LINE
8
BLACK
6
CONTINUOUS
10
0.258346
20
0.11463
11
0.258346
21
0.138252
0
LINE
8
BLACK
6
CONTINUOUS
10
0.258346
20
0.138252
11
0.258946
21
0.141265
0
LINE
8
BLACK
6
CONTINUOUS
10
0.258946
20
0.141265
11
0.260653
21
0.14382
0
LINE
8
BLACK
6
CONTINUOUS
10
0.260653
20
0.14382
11
0.263207
21
0.145527
0
LINE
8
BLACK
6
CONTINUOUS
10
0.263207
20
0.145527
11
0.26622
21
0.146126
0
LINE
8
BLACK
6
CONTINUOUS
10
0.26622
20
0.146126
11
0.29378
21
0.146126
0
LINE
8
BLACK
6
CONTINUOUS
10
0.29378
20
0.146126
11
0.296793
21
0.145527
0
LINE
8
BLACK
6
CONTINUOUS
10
0.621517
20
0.171189
11
0.626181
21
0.168812
0
LINE
8
BLACK
6
CONTINUOUS
10
0.626181
20
0.168812
11
0.629883
21
0.165111
0
LINE
8
BLACK
6
CONTINUOUS
10
0.629883
20
0.165111
11
0.63226
21
0.160446
0
LINE
8
BLACK
6
CONTINUOUS
10
0.63226
20
0.160446
11
0.633079
21
0.155276
0
LINE
8
BLACK
6
CONTINUOUS
10
0.633079
20
0.155276
11
0.633079
21
0.135591
0
LINE
8
BLACK
6
CONTINUOUS
10
0.633079
20
0.135591
11
0.63226
21
0.13042
0
LINE
8
BLACK
6
CONTINUOUS
10
0.63226
20
0.13042
11
0.629883
21
0.125756
0
LINE
8
BLACK
6
CONTINUOUS
10
0.629883
20
0.125756
11
0.626181
21
0.122054
0
LINE
8
BLACK
6
CONTINUOUS
10
0.626181
20
0.122054
11
0.621517
21
0.119677
0
LINE
8
BLACK
6
CONTINUOUS
10
0.621517
20
0.119677
11
0.616346
21
0.118858
0
LINE
8
BLACK
6
CONTINUOUS
10
0.616346
20
0.118858
11
0.59863
21
0.118858
0
LINE
8
BLACK
6
CONTINUOUS
10
0.59863
20
0.118858
11
0.593459
21
0.119677
0
LINE
8
BLACK
6
CONTINUOUS
10
0.593459
20
0.119677
11
0.588795
21
0.122054
0
LINE
8
BLACK
6
CONTINUOUS
10
0.588795
20
0.122054
11
0.585093
21
0.125756
0
LINE
8
BLACK
6
CONTINUOUS
10
0.585093
20
0.125756
11
0.582717
21
0.13042
0
LINE
8
BLACK
6
CONTINUOUS
10
0.582717
20
0.13042
11
0.581898
21
0.135591
0
LINE
8
BLACK
6
CONTINUOUS
10
0.581898
20
0.135591
11
0.581898
21
0.155276
0
LINE
8
BLACK
6
CONTINUOUS
10
0.581898
20
0.155276
11
0.582717
21
0.160446
0
LINE
8
BLACK
6
CONTINUOUS
10
0.582717
20
0.160446
11
0.585093
21
0.165111
0
LINE
8
BLACK
6
CONTINUOUS
10
0.585093
20
0.165111
11
0.588795
21
0.168812
0
LINE
8
BLACK
6
CONTINUOUS
10
0.588795
20
0.168812
11
0.593459
21
0.171189
0
LINE
8
BLACK
6
CONTINUOUS
10
0.593459
20
0.171189
11
0.59863
21
0.172008
0
LINE
8
BLACK
6
CONTINUOUS
10
0.59863
20
0.172008
11
0.616346
21
0.172008
0
LINE
8
BLACK
6
CONTINUOUS
10
0.616346
20
0.172008
11
0.621517
21
0.171189
0
LINE
8
BLACK
6
CONTINUOUS
10
0.682541
20
0.171189
11
0.687205
21
0.168812
0
LINE
8
BLACK
6
CONTINUOUS
10
0.687205
20
0.168812
11
0.690907
21
0.165111
0
LINE
8
BLACK
6
CONTINUOUS
10
0.690907
20
0.165111
11
0.693283
21
0.160446
0
LINE
8
BLACK
6
CONTINUOUS
10
0.693283
20
0.160446
11
0.694102
21
0.155276
0
LINE
8
BLACK
6
CONTINUOUS
10
0.694102
20
0.155276
11
0.694102
21
0.135591
0
LINE
8
BLACK
6
CONTINUOUS
10
0.694102
20
0.135591
11
0.693283
21
0.13042
0
LINE
8
BLACK
6
CONTINUOUS
10
0.693283
20
0.13042
11
0.690907
21
0.125756
0
LINE
8
BLACK
6
CONTINUOUS
10
0.690907
20
0.125756
11
0.687205
21
0.122054
0
LINE
8
BLACK
6
CONTINUOUS
10
0.687205
20
0.122054
11
0.682541
21
0.119677
0
LINE
8
BLACK
6
CONTINUOUS
10
0.682541
20
0.119677
11
0.67737
21
0.118858
0
LINE
8
BLACK
6
CONTINUOUS
10
0.67737
20
0.118858
11
0.659654
21
0.118858
0
LINE
8
BLACK
6
CONTINUOUS
10
0.659654
20
0.118858
11
0.654483
21
0.119677
0
LINE
8
BLACK
6
CONTINUOUS
10
0.654483
20
0.119677
11
0.649819
21
0.122054
0
LINE
8
BLACK
6
CONTINUOUS
10
0.649819
20
0.122054
11
0.646117
21
0.125756
0
LINE
8
BLACK
6
CONTINUOUS
10
0.646117
20
0.125756
11
0.64374
21
0.13042
0
LINE
8
BLACK
6
CONTINUOUS
10
0.64374
20
0.13042
11
0.642921
21
0.135591
0
LINE
8
BLACK
6
CONTINUOUS
10
0.642921
20
0.135591
11
0.642921
21
0.155276
0
LINE
8
BLACK
6
CONTINUOUS
10
0.642921
20
0.155276
11
0.64374
21
0.160446
0
LINE
8
BLACK
6
CONTINUOUS
10
0.64374
20
0.160446
11
0.646117
21
0.165111
0
LINE
8
BLACK
6
CONTINUOUS
10
0.646117
20
0.165111
11
0.649819
21
0.168812
0
LINE
8
BLACK
6
CONTINUOUS
10
0.649819
20
0.168812
11
0.654483
21
0.171189
0
LINE
8
BLACK
6
CONTINUOUS
10
0.654483
20
0.171189
11
0.659654
21
0.172008
0
LINE
8
BLACK
6
CONTINUOUS
10
0.659654
20
0.172008
11
0.67737
21
0.172008
0
LINE
8
BLACK
6
CONTINUOUS
10
0.67737
20
0.172008
11
0.682541
21
0.171189
0
LINE
8
BLACK
6
CONTINUOUS
10
0.386021
20
0.202647
11
0.390991
21
0.200901
0
LINE
8
BLACK
6
CONTINUOUS
10
0.390991
20
0.200901
11
0.395228
21
0.197772
0
LINE
8
BLACK
6
CONTINUOUS
10
0.395228
20
0.197772
11
0.398358
21
0.193534
0
LINE
8
BLACK
6
CONTINUOUS
10
0.398358
20
0.193534
11
0.400104
21
0.188564
0
LINE
8
BLACK
6
CONTINUOUS
10
0.400104
20
0.188564
11
0.400417
21
0.185244
0
LINE
8
BLACK
6
CONTINUOUS
10
0.400417
20
0.185244
11
0.400417
21
0.165559
0
LINE
8
BLACK
6
CONTINUOUS
10
0.400417
20
0.165559
11
0.400104
21
0.162239
0
LINE
8
BLACK
6
CONTINUOUS
10
0.400104
20
0.162239
11
0.398358
21
0.157269
0
LINE
8
BLACK
6
CONTINUOUS
10
0.398358
20
0.157269
11
0.395228
21
0.153032
0
LINE
8
BLACK
6
CONTINUOUS
10
0.395228
20
0.153032
11
0.390991
21
0.149902
0
LINE
8
BLACK
6
CONTINUOUS
10
0.390991
20
0.149902
11
0.386021
21
0.148156
0
LINE
8
BLACK
6
CONTINUOUS
10
0.386021
20
0.148156
11
0.382701
21
0.147843
0
LINE
8
BLACK
6
CONTINUOUS
10
0.382701
20
0.147843
11
0.345299
21
0.147843
0
LINE
8
BLACK
6
CONTINUOUS
10
0.345299
20
0.147843
11
0.341979
21
0.148156
0
LINE
8
BLACK
6
CONTINUOUS
10
0.341979
20
0.148156
11
0.337009
21
0.149902
0
LINE
8
BLACK
6
CONTINUOUS
10
0.337009
20
0.149902
11
0.332772
21
0.153032
0
LINE
8
BLACK
6
CONTINUOUS
10
0.332772
20
0.153032
11
0.329642
21
0.157269
0
LINE
8
BLACK
6
CONTINUOUS
10
0.329642
20
0.157269
11
0.327896
21
0.162239
0
LINE
8
BLACK
6
CONTINUOUS
10
0.327896
20
0.162239
11
0.327583
21
0.165559
0
LINE
8
BLACK
6
CONTINUOUS
10
0.327583
20
0.165559
11
0.327583
21
0.185244
0
LINE
8
BLACK
6
CONTINUOUS
10
0.327583
20
0.185244
11
0.327896
21
0.188564
0
LINE
8
BLACK
6
CONTINUOUS
10
0.327896
20
0.188564
11
0.329642
21
0.193534
0
LINE
8
BLACK
6
CONTINUOUS
10
0.329642
20
0.193534
11
0.332772
21
0.197772
0
LINE
8
BLACK
6
CONTINUOUS
10
0.332772
20
0.197772
11
0.337009
21
0.200901
0
LINE
8
BLACK
6
CONTINUOUS
10
0.337009
20
0.200901
11
0.341979
21
0.202647
0
LINE
8
BLACK
6
CONTINUOUS
10
0.341979
20
0.202647
11
0.345299
21
0.202961
0
LINE
8
BLACK
6
CONTINUOUS
10
0.345299
20
0.202961
11
0.382701
21
0.202961
0
LINE
8
BLACK
6
CONTINUOUS
10
0.382701
20
0.202961
11
0.386021
21
0.202647
0
LINE
8
BLACK
6
CONTINUOUS
10
0.296793
20
0.200645
11
0.299347
21
0.198938
0
LINE
8
BLACK
6
CONTINUOUS
10
0.299347
20
0.198938
11
0.301054
21
0.196383
0
LINE
8
BLACK
6
CONTINUOUS
10
0.301054
20
0.196383
11
0.301654
21
0.19337
0
LINE
8
BLACK
6
CONTINUOUS
10
0.301654
20
0.19337
11
0.301654
21
0.169748
0
LINE
8
BLACK
6
CONTINUOUS
10
0.301654
20
0.169748
11
0.301054
21
0.166735
0
LINE
8
BLACK
6
CONTINUOUS
10
0.301054
20
0.166735
11
0.299347
21
0.16418
0
LINE
8
BLACK
6
CONTINUOUS
10
0.299347
20
0.16418
11
0.296793
21
0.162473
0
LINE
8
BLACK
6
CONTINUOUS
10
0.296793
20
0.162473
11
0.29378
21
0.161874
0
LINE
8
BLACK
6
CONTINUOUS
10
0.29378
20
0.161874
11
0.26622
21
0.161874
0
LINE
8
BLACK
6
CONTINUOUS
10
0.26622
20
0.161874
11
0.263207
21
0.162473
0
LINE
8
BLACK
6
CONTINUOUS
10
0.263207
20
0.162473
11
0.260653
21
0.16418
0
LINE
8
BLACK
6
CONTINUOUS
10
0.260653
20
0.16418
11
0.258946
21
0.166735
0
LINE
8
BLACK
6
CONTINUOUS
10
0.258946
20
0.166735
11
0.258346
21
0.169748
0
LINE
8
BLACK
6
CONTINUOUS
10
0.258346
20
0.169748
11
0.258346
21
0.19337
0
LINE
8
BLACK
6
CONTINUOUS
10
0.258346
20
0.19337
11
0.258946
21
0.196383
0
LINE
8
BLACK
6
CONTINUOUS
10
0.258946
20
0.196383
11
0.260653
21
0.198938
0
LINE
8
BLACK
6
CONTINUOUS
10
0.260653
20
0.198938
11
0.263207
21
0.200645
0
LINE
8
BLACK
6
CONTINUOUS
10
0.263207
20
0.200645
11
0.26622
21
0.201244
0
LINE
8
BLACK
6
CONTINUOUS
10
0.26622
20
0.201244
11
0.29378
21
0.201244
0
LINE
8
BLACK
6
CONTINUOUS
10
0.29378
20
0.201244
11
0.296793
21
0.200645
0
LINE
8
BLACK
6
CONTINUOUS
10
0.832677
20
0.201197
11
0.836742
21
0.19921
0
LINE
8
BLACK
6
CONTINUOUS
10
0.836742
20
0.19921
11
0.839944
21
0.196014
0
LINE
8
BLACK
6
CONTINUOUS
10
0.839944
20
0.196014
11
0.841939
21
0.191952
0
LINE
8
BLACK
6
CONTINUOUS
10
0.841939
20
0.191952
11
0.84252
21
0.187992
0
LINE
8
BLACK
6
CONTINUOUS
10
0.84252
20
0.187992
11
0.84252
21
0.176181
0
LINE
8
BLACK
6
CONTINUOUS
10
0.84252
20
0.176181
11
0.841945
21
0.172244
0
LINE
8
BLACK
6
CONTINUOUS
10
0.841945
20
0.172244
11
0.839958
21
0.168179
0
LINE
8
BLACK
6
CONTINUOUS
10
0.839958
20
0.168179
11
0.836762
21
0.164977
0
LINE
8
BLACK
6
CONTINUOUS
10
0.836762
20
0.164977
11
0.8327
21
0.162983
0
LINE
8
BLACK
6
CONTINUOUS
10
0.8327
20
0.162983
11
0.82874
21
0.162402
0
LINE
8
BLACK
6
CONTINUOUS
10
0.82874
20
0.162402
11
0.773622
21
0.162402
0
LINE
8
BLACK
6
CONTINUOUS
10
0.773622
20
0.162402
11
0.769685
21
0.162976
0
LINE
8
BLACK
6
CONTINUOUS
10
0.769685
20
0.162976
11
0.76562
21
0.164963
0
LINE
8
BLACK
6
CONTINUOUS
10
0.76562
20
0.164963
11
0.762418
21
0.16816
0
LINE
8
BLACK
6
CONTINUOUS
10
0.762418
20
0.16816
11
0.760424
21
0.172221
0
LINE
8
BLACK
6
CONTINUOUS
10
0.760424
20
0.172221
11
0.759843
21
0.176181
0
LINE
8
BLACK
6
CONTINUOUS
10
0.759843
20
0.176181
11
0.759843
21
0.187992
0
LINE
8
BLACK
6
CONTINUOUS
10
0.759843
20
0.187992
11
0.760417
21
0.191929
0
LINE
8
BLACK
6
CONTINUOUS
10
0.760417
20
0.191929
11
0.762404
21
0.195994
0
LINE
8
BLACK
6
CONTINUOUS
10
0.762404
20
0.195994
11
0.765601
21
0.199196
0
LINE
8
BLACK
6
CONTINUOUS
10
0.765601
20
0.199196
11
0.769662
21
0.20119
0
LINE
8
BLACK
6
CONTINUOUS
10
0.769662
20
0.20119
11
0.773622
21
0.201772
0
LINE
8
BLACK
6
CONTINUOUS
10
0.773622
20
0.201772
11
0.82874
21
0.201772
0
LINE
8
BLACK
6
CONTINUOUS
10
0.82874
20
0.201772
11
0.832677
21
0.201197
0
LINE
8
BLACK
6
CONTINUOUS
10
0.214567
20
0.201197
11
0.218632
21
0.19921
0
LINE
8
BLACK
6
CONTINUOUS
10
0.218632
20
0.19921
11
0.221834
21
0.196014
0
LINE
8
BLACK
6
CONTINUOUS
10
0.221834
20
0.196014
11
0.223828
21
0.191952
0
LINE
8
BLACK
6
CONTINUOUS
10
0.223828
20
0.191952
11
0.224409
21
0.187992
0
LINE
8
BLACK
6
CONTINUOUS
10
0.224409
20
0.187992
11
0.224409
21
0.176181
0
LINE
8
BLACK
6
CONTINUOUS
10
0.224409
20
0.176181
11
0.223835
21
0.172244
0
LINE
8
BLACK
6
CONTINUOUS
10
0.223835
20
0.172244
11
0.221848
21
0.168179
0
LINE
8
BLACK
6
CONTINUOUS
10
0.221848
20
0.168179
11
0.218651
21
0.164977
0
LINE
8
BLACK
6
CONTINUOUS
10
0.218651
20
0.164977
11
0.21459
21
0.162983
0
LINE
8
BLACK
6
CONTINUOUS
10
0.21459
20
0.162983
11
0.21063
21
0.162402
0
LINE
8
BLACK
6
CONTINUOUS
10
0.21063
20
0.162402
11
0.155512
21
0.162402
0
LINE
8
BLACK
6
CONTINUOUS
10
0.155512
20
0.162402
11
0.151575
21
0.162976
0
LINE
8
BLACK
6
CONTINUOUS
10
0.151575
20
0.162976
11
0.14751
21
0.164963
0
LINE
8
BLACK
6
CONTINUOUS
10
0.14751
20
0.164963
11
0.144308
21
0.16816
0
LINE
8
BLACK
6
CONTINUOUS
10
0.144308
20
0.16816
11
0.142313
21
0.172221
0
LINE
8
BLACK
6
CONTINUOUS
10
0.142313
20
0.172221
11
0.141732
21
0.176181
0
LINE
8
BLACK
6
CONTINUOUS
10
0.141732
20
0.176181
11
0.141732
21
0.187992
0
LINE
8
BLACK
6
CONTINUOUS
10
0.141732
20
0.187992
11
0.142307
21
0.191929
0
LINE
8
BLACK
6
CONTINUOUS
10
0.142307
20
0.191929
11
0.144294
21
0.195994
0
LINE
8
BLACK
6
CONTINUOUS
10
0.144294
20
0.195994
11
0.14749
21
0.199196
0
LINE
8
BLACK
6
CONTINUOUS
10
0.14749
20
0.199196
11
0.151552
21
0.20119
0
LINE
8
BLACK
6
CONTINUOUS
10
0.151552
20
0.20119
11
0.155512
21
0.201772
0
LINE
8
BLACK
6
CONTINUOUS
10
0.155512
20
0.201772
11
0.21063
21
0.201772
0
LINE
8
BLACK
6
CONTINUOUS
10
0.21063
20
0.201772
11
0.214567
21
0.201197
0
LINE
8
BLACK
6
CONTINUOUS
10
0.464441
20
0.258166
11
0.468506
21
0.256179
0
LINE
8
BLACK
6
CONTINUOUS
10
0.468506
20
0.256179
11
0.471708
21
0.252982
0
LINE
8
BLACK
6
CONTINUOUS
10
0.471708
20
0.252982
11
0.473702
21
0.24892
0
LINE
8
BLACK
6
CONTINUOUS
10
0.473702
20
0.24892
11
0.474283
21
0.244961
0
LINE
8
BLACK
6
CONTINUOUS
10
0.474283
20
0.244961
11
0.474283
21
0.204606
0
LINE
8
BLACK
6
CONTINUOUS
10
0.474283
20
0.204606
11
0.473709
21
0.20067
0
LINE
8
BLACK
6
CONTINUOUS
10
0.473709
20
0.20067
11
0.471722
21
0.196604
0
LINE
8
BLACK
6
CONTINUOUS
10
0.471722
20
0.196604
11
0.468525
21
0.193402
0
LINE
8
BLACK
6
CONTINUOUS
10
0.468525
20
0.193402
11
0.464464
21
0.191408
0
LINE
8
BLACK
6
CONTINUOUS
10
0.464464
20
0.191408
11
0.460504
21
0.190827
0
LINE
8
BLACK
6
CONTINUOUS
10
0.460504
20
0.190827
11
0.448693
21
0.190827
0
LINE
8
BLACK
6
CONTINUOUS
10
0.448693
20
0.190827
11
0.444756
21
0.191401
0
LINE
8
BLACK
6
CONTINUOUS
10
0.444756
20
0.191401
11
0.440691
21
0.193388
0
LINE
8
BLACK
6
CONTINUOUS
10
0.440691
20
0.193388
11
0.437489
21
0.196585
0
LINE
8
BLACK
6
CONTINUOUS
10
0.437489
20
0.196585
11
0.435495
21
0.200647
0
LINE
8
BLACK
6
CONTINUOUS
10
0.435495
20
0.200647
11
0.434913
21
0.204606
0
LINE
8
BLACK
6
CONTINUOUS
10
0.434913
20
0.204606
11
0.434913
21
0.244961
0
LINE
8
BLACK
6
CONTINUOUS
10
0.434913
20
0.244961
11
0.435488
21
0.248897
0
LINE
8
BLACK
6
CONTINUOUS
10
0.435488
20
0.248897
11
0.437475
21
0.252962
0
LINE
8
BLACK
6
CONTINUOUS
10
0.437475
20
0.252962
11
0.440672
21
0.256165
0
LINE
8
BLACK
6
CONTINUOUS
10
0.440672
20
0.256165
11
0.444733
21
0.258159
0
LINE
8
BLACK
6
CONTINUOUS
10
0.444733
20
0.258159
11
0.448693
21
0.25874
0
LINE
8
BLACK
6
CONTINUOUS
10
0.448693
20
0.25874
11
0.460504
21
0.25874
0
LINE
8
BLACK
6
CONTINUOUS
10
0.460504
20
0.25874
11
0.464441
21
0.258166
0
LINE
8
BLACK
6
CONTINUOUS
10
0.539244
20
0.258166
11
0.543309
21
0.256179
0
LINE
8
BLACK
6
CONTINUOUS
10
0.543309
20
0.256179
11
0.546511
21
0.252982
0
LINE
8
BLACK
6
CONTINUOUS
10
0.546511
20
0.252982
11
0.548505
21
0.24892
0
LINE
8
BLACK
6
CONTINUOUS
10
0.548505
20
0.24892
11
0.549087
21
0.244961
0
LINE
8
BLACK
6
CONTINUOUS
10
0.549087
20
0.244961
11
0.549087
21
0.204606
0
LINE
8
BLACK
6
CONTINUOUS
10
0.549087
20
0.204606
11
0.548512
21
0.20067
0
LINE
8
BLACK
6
CONTINUOUS
10
0.548512
20
0.20067
11
0.546525
21
0.196604
0
LINE
8
BLACK
6
CONTINUOUS
10
0.546525
20
0.196604
11
0.543328
21
0.193402
0
LINE
8
BLACK
6
CONTINUOUS
10
0.543328
20
0.193402
11
0.539267
21
0.191408
0
LINE
8
BLACK
6
CONTINUOUS
10
0.539267
20
0.191408
11
0.535307
21
0.190827
0
LINE
8
BLACK
6
CONTINUOUS
10
0.535307
20
0.190827
11
0.523496
21
0.190827
0
LINE
8
BLACK
6
CONTINUOUS
10
0.523496
20
0.190827
11
0.519559
21
0.191401
0
LINE
8
BLACK
6
CONTINUOUS
10
0.519559
20
0.191401
11
0.515494
21
0.193388
0
LINE
8
BLACK
6
CONTINUOUS
10
0.515494
20
0.193388
11
0.512292
21
0.196585
0
LINE
8
BLACK
6
CONTINUOUS
10
0.512292
20
0.196585
11
0.510298
21
0.200647
0
LINE
8
BLACK
6
CONTINUOUS
10
0.510298
20
0.200647
11
0.509717
21
0.204606
0
LINE
8
BLACK
6
CONTINUOUS
10
0.509717
20
0.204606
11
0.509717
21
0.244961
0
LINE
8
BLACK
6
CONTINUOUS
10
0.509717
20
0.244961
11
0.510291
21
0.248897
0
LINE
8
BLACK
6
CONTINUOUS
10
0.510291
20
0.248897
11
0.512278
21
0.252962
0
LINE
8
BLACK
6
CONTINUOUS
10
0.512278
20
0.252962
11
0.515475
21
0.256165
0
LINE
8
BLACK
6
CONTINUOUS
10
0.515475
20
0.256165
11
0.519536
21
0.258159
0
LINE
8
BLACK
6
CONTINUOUS
10
0.519536
20
0.258159
11
0.523496
21
0.25874
0
LINE
8
BLACK
6
CONTINUOUS
10
0.523496
20
0.25874
11
0.535307
21
0.25874
0
LINE
8
BLACK
6
CONTINUOUS
10
0.535307
20
0.25874
11
0.539244
21
0.258166
0
LINE
8
BLACK
6
CONTINUOUS
10
0.649693
20
0.243891
11
0.654083
21
0.241654
0
LINE
8
BLACK
6
CONTINUOUS
10
0.654083
20
0.241654
11
0.657567
21
0.23817
0
LINE
8
BLACK
6
CONTINUOUS
10
0.657567
20
0.23817
11
0.659804
21
0.23378
0
LINE
8
BLACK
6
CONTINUOUS
10
0.659804
20
0.23378
11
0.660575
21
0.228913
0
LINE
8
BLACK
6
CONTINUOUS
10
0.660575
20
0.228913
11
0.660575
21
0.213165
0
LINE
8
BLACK
6
CONTINUOUS
10
0.660575
20
0.213165
11
0.659804
21
0.208299
0
LINE
8
BLACK
6
CONTINUOUS
10
0.659804
20
0.208299
11
0.657567
21
0.203909
0
LINE
8
BLACK
6
CONTINUOUS
10
0.657567
20
0.203909
11
0.654083
21
0.200425
0
LINE
8
BLACK
6
CONTINUOUS
10
0.654083
20
0.200425
11
0.649693
21
0.198188
0
LINE
8
BLACK
6
CONTINUOUS
10
0.649693
20
0.198188
11
0.644827
21
0.197417
0
LINE
8
BLACK
6
CONTINUOUS
10
0.644827
20
0.197417
11
0.623173
21
0.197417
0
LINE
8
BLACK
6
CONTINUOUS
10
0.623173
20
0.197417
11
0.618307
21
0.198188
0
LINE
8
BLACK
6
CONTINUOUS
10
0.618307
20
0.198188
11
0.613917
21
0.200425
0
LINE
8
BLACK
6
CONTINUOUS
10
0.613917
20
0.200425
11
0.610433
21
0.203909
0
LINE
8
BLACK
6
CONTINUOUS
10
0.610433
20
0.203909
11
0.608196
21
0.208299
0
LINE
8
BLACK
6
CONTINUOUS
10
0.608196
20
0.208299
11
0.607425
21
0.213165
0
LINE
8
BLACK
6
CONTINUOUS
10
0.607425
20
0.213165
11
0.607425
21
0.228913
0
LINE
8
BLACK
6
CONTINUOUS
10
0.607425
20
0.228913
11
0.608196
21
0.23378
0
LINE
8
BLACK
6
CONTINUOUS
10
0.608196
20
0.23378
11
0.610433
21
0.23817
0
LINE
8
BLACK
6
CONTINUOUS
10
0.610433
20
0.23817
11
0.613917
21
0.241654
0
LINE
8
BLACK
6
CONTINUOUS
10
0.613917
20
0.241654
11
0.618307
21
0.243891
0
LINE
8
BLACK
6
CONTINUOUS
10
0.618307
20
0.243891
11
0.623173
21
0.244661
0
LINE
8
BLACK
6
CONTINUOUS
10
0.623173
20
0.244661
11
0.644827
21
0.244661
0
LINE
8
BLACK
6
CONTINUOUS
10
0.644827
20
0.244661
11
0.649693
21
0.243891
0
LINE
8
BLACK
6
CONTINUOUS
10
0.719693
20
0.244851
11
0.724083
21
0.242614
0
LINE
8
BLACK
6
CONTINUOUS
10
0.724083
20
0.242614
11
0.727567
21
0.23913
0
LINE
8
BLACK
6
CONTINUOUS
10
0.727567
20
0.23913
11
0.729804
21
0.23474
0
LINE
8
BLACK
6
CONTINUOUS
10
0.729804
20
0.23474
11
0.730575
21
0.229874
0
LINE
8
BLACK
6
CONTINUOUS
10
0.730575
20
0.229874
11
0.730575
21
0.214126
0
LINE
8
BLACK
6
CONTINUOUS
10
0.730575
20
0.214126
11
0.729804
21
0.20926
0
LINE
8
BLACK
6
CONTINUOUS
10
0.729804
20
0.20926
11
0.727567
21
0.20487
0
LINE
8
BLACK
6
CONTINUOUS
10
0.727567
20
0.20487
11
0.724083
21
0.201386
0
LINE
8
BLACK
6
CONTINUOUS
10
0.724083
20
0.201386
11
0.719693
21
0.199149
0
LINE
8
BLACK
6
CONTINUOUS
10
0.719693
20
0.199149
11
0.714827
21
0.198378
0
LINE
8
BLACK
6
CONTINUOUS
10
0.714827
20
0.198378
11
0.693173
21
0.198378
0
LINE
8
BLACK
6
CONTINUOUS
10
0.693173
20
0.198378
11
0.688307
21
0.199149
0
LINE
8
BLACK
6
CONTINUOUS
10
0.688307
20
0.199149
11
0.683917
21
0.201386
0
LINE
8
BLACK
6
CONTINUOUS
10
0.683917
20
0.201386
11
0.680433
21
0.20487
0
LINE
8
BLACK
6
CONTINUOUS
10
0.680433
20
0.20487
11
0.678196
21
0.20926
0
LINE
8
BLACK
6
CONTINUOUS
10
0.678196
20
0.20926
11
0.677425
21
0.214126
0
LINE
8
BLACK
6
CONTINUOUS
10
0.677425
20
0.214126
11
0.677425
21
0.229874
0
LINE
8
BLACK
6
CONTINUOUS
10
0.677425
20
0.229874
11
0.678196
21
0.23474
0
LINE
8
BLACK
6
CONTINUOUS
10
0.678196
20
0.23474
11
0.680433
21
0.23913
0
LINE
8
BLACK
6
CONTINUOUS
10
0.680433
20
0.23913
11
0.683917
21
0.242614
0
LINE
8
BLACK
6
CONTINUOUS
10
0.683917
20
0.242614
11
0.688307
21
0.244851
0
LINE
8
BLACK
6
CONTINUOUS
10
0.688307
20
0.244851
11
0.693173
21
0.245622
0
LINE
8
BLACK
6
CONTINUOUS
10
0.693173
20
0.245622
11
0.714827
21
0.245622
0
LINE
8
BLACK
6
CONTINUOUS
10
0.714827
20
0.245622
11
0.719693
21
0.244851
0
LINE
8
BLACK
6
CONTINUOUS
10
0.832677
20
0.25041
11
0.836742
21
0.248423
0
LINE
8
BLACK
6
CONTINUOUS
10
0.836742
20
0.248423
11
0.839944
21
0.245226
0
LINE
8
BLACK
6
CONTINUOUS
10
0.839944
20
0.245226
11
0.841939
21
0.241164
0
LINE
8
BLACK
6
CONTINUOUS
10
0.841939
20
0.241164
11
0.84252
21
0.237205
0
LINE
8
BLACK
6
CONTINUOUS
10
0.84252
20
0.237205
11
0.84252
21
0.225394
0
LINE
8
BLACK
6
CONTINUOUS
10
0.84252
20
0.225394
11
0.841945
21
0.221457
0
LINE
8
BLACK
6
CONTINUOUS
10
0.841945
20
0.221457
11
0.839958
21
0.217392
0
LINE
8
BLACK
6
CONTINUOUS
10
0.839958
20
0.217392
11
0.836762
21
0.21419
0
LINE
8
BLACK
6
CONTINUOUS
10
0.836762
20
0.21419
11
0.8327
21
0.212195
0
LINE
8
BLACK
6
CONTINUOUS
10
0.8327
20
0.212195
11
0.82874
21
0.211614
0
LINE
8
BLACK
6
CONTINUOUS
10
0.82874
20
0.211614
11
0.773622
21
0.211614
0
LINE
8
BLACK
6
CONTINUOUS
10
0.773622
20
0.211614
11
0.769685
21
0.212188
0
LINE
8
BLACK
6
CONTINUOUS
10
0.769685
20
0.212188
11
0.76562
21
0.214176
0
LINE
8
BLACK
6
CONTINUOUS
10
0.76562
20
0.214176
11
0.762418
21
0.217372
0
LINE
8
BLACK
6
CONTINUOUS
10
0.762418
20
0.217372
11
0.760424
21
0.221434
0
LINE
8
BLACK
6
CONTINUOUS
10
0.760424
20
0.221434
11
0.759843
21
0.225394
0
LINE
8
BLACK
6
CONTINUOUS
10
0.759843
20
0.225394
11
0.759843
21
0.237205
0
LINE
8
BLACK
6
CONTINUOUS
10
0.759843
20
0.237205
11
0.760417
21
0.241141
0
LINE
8
BLACK
6
CONTINUOUS
10
0.760417
20
0.241141
11
0.762404
21
0.245207
0
LINE
8
BLACK
6
CONTINUOUS
10
0.762404
20
0.245207
11
0.765601
21
0.248409
0
LINE
8
BLACK
6
CONTINUOUS
10
0.765601
20
0.248409
11
0.769662
21
0.250403
0
LINE
8
BLACK
6
CONTINUOUS
10
0.769662
20
0.250403
11
0.773622
21
0.250984
0
LINE
8
BLACK
6
CONTINUOUS
10
0.773622
20
0.250984
11
0.82874
21
0.250984
0
LINE
8
BLACK
6
CONTINUOUS
10
0.82874
20
0.250984
11
0.832677
21
0.25041
0
LINE
8
BLACK
6
CONTINUOUS
10
0.214567
20
0.25041
11
0.218632
21
0.248423
0
LINE
8
BLACK
6
CONTINUOUS
10
0.218632
20
0.248423
11
0.221834
21
0.245226
0
LINE
8
BLACK
6
CONTINUOUS
10
0.221834
20
0.245226
11
0.223828
21
0.241164
0
LINE
8
BLACK
6
CONTINUOUS
10
0.223828
20
0.241164
11
0.224409
21
0.237205
0
LINE
8
BLACK
6
CONTINUOUS
10
0.224409
20
0.237205
11
0.224409
21
0.225394
0
LINE
8
BLACK
6
CONTINUOUS
10
0.224409
20
0.225394
11
0.223835
21
0.221457
0
LINE
8
BLACK
6
CONTINUOUS
10
0.223835
20
0.221457
11
0.221848
21
0.217392
0
LINE
8
BLACK
6
CONTINUOUS
10
0.221848
20
0.217392
11
0.218651
21
0.21419
0
LINE
8
BLACK
6
CONTINUOUS
10
0.218651
20
0.21419
11
0.21459
21
0.212195
0
LINE
8
BLACK
6
CONTINUOUS
10
0.21459
20
0.212195
11
0.21063
21
0.211614
0
LINE
8
BLACK
6
CONTINUOUS
10
0.21063
20
0.211614
11
0.155512
21
0.211614
0
LINE
8
BLACK
6
CONTINUOUS
10
0.155512
20
0.211614
11
0.151575
21
0.212188
0
LINE
8
BLACK
6
CONTINUOUS
10
0.151575
20
0.212188
11
0.14751
21
0.214176
0
LINE
8
BLACK
6
CONTINUOUS
10
0.14751
20
0.214176
11
0.144308
21
0.217372
0
LINE
8
BLACK
6
CONTINUOUS
10
0.144308
20
0.217372
11
0.142313
21
0.221434
0
LINE
8
BLACK
6
CONTINUOUS
10
0.142313
20
0.221434
11
0.141732
21
0.225394
0
LINE
8
BLACK
6
CONTINUOUS
10
0.141732
20
0.225394
11
0.141732
21
0.237205
0
LINE
8
BLACK
6
CONTINUOUS
10
0.141732
20
0.237205
11
0.142307
21
0.241141
0
LINE
8
BLACK
6
CONTINUOUS
10
0.142307
20
0.241141
11
0.144294
21
0.245207
0
LINE
8
BLACK
6
CONTINUOUS
10
0.144294
20
0.245207
11
0.14749
21
0.248409
0
LINE
8
BLACK
6
CONTINUOUS
10
0.14749
20
0.248409
11
0.151552
21
0.250403
0
LINE
8
BLACK
6
CONTINUOUS
10
0.151552
20
0.250403
11
0.155512
21
0.250984
0
LINE
8
BLACK
6
CONTINUOUS
10
0.155512
20
0.250984
11
0.21063
21
0.250984
0
LINE
8
BLACK
6
CONTINUOUS
10
0.21063
20
0.250984
11
0.214567
21
0.25041
0
LINE
8
BLACK
6
CONTINUOUS
10
0.330144
20
0.268878
11
0.33474
21
0.266536
0
LINE
8
BLACK
6
CONTINUOUS
10
0.33474
20
0.266536
11
0.338387
21
0.262889
0
LINE
8
BLACK
6
CONTINUOUS
10
0.338387
20
0.262889
11
0.340729
21
0.258293
0
LINE
8
BLACK
6
CONTINUOUS
10
0.340729
20
0.258293
11
0.341535
21
0.253199
0
LINE
8
BLACK
6
CONTINUOUS
10
0.341535
20
0.253199
11
0.341535
21
0.235974
0
LINE
8
BLACK
6
CONTINUOUS
10
0.341535
20
0.235974
11
0.340729
21
0.23088
0
LINE
8
BLACK
6
CONTINUOUS
10
0.340729
20
0.23088
11
0.338387
21
0.226284
0
LINE
8
BLACK
6
CONTINUOUS
10
0.338387
20
0.226284
11
0.33474
21
0.222637
0
LINE
8
BLACK
6
CONTINUOUS
10
0.33474
20
0.222637
11
0.330144
21
0.220295
0
LINE
8
BLACK
6
CONTINUOUS
10
0.330144
20
0.220295
11
0.325049
21
0.219488
0
LINE
8
BLACK
6
CONTINUOUS
10
0.325049
20
0.219488
11
0.304872
21
0.219488
0
LINE
8
BLACK
6
CONTINUOUS
10
0.304872
20
0.219488
11
0.299778
21
0.220295
0
LINE
8
BLACK
6
CONTINUOUS
10
0.299778
20
0.220295
11
0.295182
21
0.222637
0
LINE
8
BLACK
6
CONTINUOUS
10
0.295182
20
0.222637
11
0.291534
21
0.226284
0
LINE
8
BLACK
6
CONTINUOUS
10
0.291534
20
0.226284
11
0.289193
21
0.23088
0
LINE
8
BLACK
6
CONTINUOUS
10
0.289193
20
0.23088
11
0.288386
21
0.235974
0
LINE
8
BLACK
6
CONTINUOUS
10
0.288386
20
0.235974
11
0.288386
21
0.253199
0
LINE
8
BLACK
6
CONTINUOUS
10
0.288386
20
0.253199
11
0.289193
21
0.258293
0
LINE
8
BLACK
6
CONTINUOUS
10
0.289193
20
0.258293
11
0.291534
21
0.262889
0
LINE
8
BLACK
6
CONTINUOUS
10
0.291534
20
0.262889
11
0.295182
21
0.266536
0
LINE
8
BLACK
6
CONTINUOUS
10
0.295182
20
0.266536
11
0.299778
21
0.268878
0
LINE
8
BLACK
6
CONTINUOUS
10
0.299778
20
0.268878
11
0.304872
21
0.269685
0
LINE
8
BLACK
6
CONTINUOUS
10
0.304872
20
0.269685
11
0.325049
21
0.269685
0
LINE
8
BLACK
6
CONTINUOUS
10
0.325049
20
0.269685
11
0.330144
21
0.268878
0
LINE
8
BLACK
6
CONTINUOUS
10
0.401693
20
0.268371
11
0.406083
21
0.266134
0
LINE
8
BLACK
6
CONTINUOUS
10
0.406083
20
0.266134
11
0.409567
21
0.26265
0
LINE
8
BLACK
6
CONTINUOUS
10
0.409567
20
0.26265
11
0.411804
21
0.25826
0
LINE
8
BLACK
6
CONTINUOUS
10
0.411804
20
0.25826
11
0.412575
21
0.253394
0
LINE
8
BLACK
6
CONTINUOUS
10
0.412575
20
0.253394
11
0.412575
21
0.237646
0
LINE
8
BLACK
6
CONTINUOUS
10
0.412575
20
0.237646
11
0.411804
21
0.232779
0
LINE
8
BLACK
6
CONTINUOUS
10
0.411804
20
0.232779
11
0.409567
21
0.228389
0
LINE
8
BLACK
6
CONTINUOUS
10
0.409567
20
0.228389
11
0.406083
21
0.224905
0
LINE
8
BLACK
6
CONTINUOUS
10
0.406083
20
0.224905
11
0.401693
21
0.222668
0
LINE
8
BLACK
6
CONTINUOUS
10
0.401693
20
0.222668
11
0.396827
21
0.221898
0
LINE
8
BLACK
6
CONTINUOUS
10
0.396827
20
0.221898
11
0.375173
21
0.221898
0
LINE
8
BLACK
6
CONTINUOUS
10
0.375173
20
0.221898
11
0.370307
21
0.222668
0
LINE
8
BLACK
6
CONTINUOUS
10
0.370307
20
0.222668
11
0.365917
21
0.224905
0
LINE
8
BLACK
6
CONTINUOUS
10
0.365917
20
0.224905
11
0.362433
21
0.228389
0
LINE
8
BLACK
6
CONTINUOUS
10
0.362433
20
0.228389
11
0.360196
21
0.232779
0
LINE
8
BLACK
6
CONTINUOUS
10
0.360196
20
0.232779
11
0.359425
21
0.237646
0
LINE
8
BLACK
6
CONTINUOUS
10
0.359425
20
0.237646
11
0.359425
21
0.253394
0
LINE
8
BLACK
6
CONTINUOUS
10
0.359425
20
0.253394
11
0.360196
21
0.25826
0
LINE
8
BLACK
6
CONTINUOUS
10
0.360196
20
0.25826
11
0.362433
21
0.26265
0
LINE
8
BLACK
6
CONTINUOUS
10
0.362433
20
0.26265
11
0.365917
21
0.266134
0
LINE
8
BLACK
6
CONTINUOUS
10
0.365917
20
0.266134
11
0.370307
21
0.268371
0
LINE
8
BLACK
6
CONTINUOUS
10
0.370307
20
0.268371
11
0.375173
21
0.269142
0
LINE
8
BLACK
6
CONTINUOUS
10
0.375173
20
0.269142
11
0.396827
21
0.269142
0
LINE
8
BLACK
6
CONTINUOUS
10
0.396827
20
0.269142
11
0.401693
21
0.268371
0
LINE
8
BLACK
6
CONTINUOUS
10
0.214567
20
0.299623
11
0.218632
21
0.297635
0
LINE
8
BLACK
6
CONTINUOUS
10
0.218632
20
0.297635
11
0.221834
21
0.294439
0
LINE
8
BLACK
6
CONTINUOUS
10
0.221834
20
0.294439
11
0.223828
21
0.290377
0
LINE
8
BLACK
6
CONTINUOUS
10
0.223828
20
0.290377
11
0.224409
21
0.286417
0
LINE
8
BLACK
6
CONTINUOUS
10
0.224409
20
0.286417
11
0.224409
21
0.274606
0
LINE
8
BLACK
6
CONTINUOUS
10
0.224409
20
0.274606
11
0.223835
21
0.27067
0
LINE
8
BLACK
6
CONTINUOUS
10
0.223835
20
0.27067
11
0.221848
21
0.266604
0
LINE
8
BLACK
6
CONTINUOUS
10
0.221848
20
0.266604
11
0.218651
21
0.263402
0
LINE
8
BLACK
6
CONTINUOUS
10
0.218651
20
0.263402
11
0.21459
21
0.261408
0
LINE
8
BLACK
6
CONTINUOUS
10
0.21459
20
0.261408
11
0.21063
21
0.260827
0
LINE
8
BLACK
6
CONTINUOUS
10
0.21063
20
0.260827
11
0.155512
21
0.260827
0
LINE
8
BLACK
6
CONTINUOUS
10
0.155512
20
0.260827
11
0.151575
21
0.261401
0
LINE
8
BLACK
6
CONTINUOUS
10
0.151575
20
0.261401
11
0.14751
21
0.263388
0
LINE
8
BLACK
6
CONTINUOUS
10
0.14751
20
0.263388
11
0.144308
21
0.266585
0
LINE
8
BLACK
6
CONTINUOUS
10
0.144308
20
0.266585
11
0.142313
21
0.270647
0
LINE
8
BLACK
6
CONTINUOUS
10
0.142313
20
0.270647
11
0.141732
21
0.274606
0
LINE
8
BLACK
6
CONTINUOUS
10
0.141732
20
0.274606
11
0.141732
21
0.286417
0
LINE
8
BLACK
6
CONTINUOUS
10
0.141732
20
0.286417
11
0.142307
21
0.290354
0
LINE
8
BLACK
6
CONTINUOUS
10
0.142307
20
0.290354
11
0.144294
21
0.294419
0
LINE
8
BLACK
6
CONTINUOUS
10
0.144294
20
0.294419
11
0.14749
21
0.297621
0
LINE
8
BLACK
6
CONTINUOUS
10
0.14749
20
0.297621
11
0.151552
21
0.299616
0
LINE
8
BLACK
6
CONTINUOUS
10
0.151552
20
0.299616
11
0.155512
21
0.300197
0
LINE
8
BLACK
6
CONTINUOUS
10
0.155512
20
0.300197
11
0.21063
21
0.300197
0
LINE
8
BLACK
6
CONTINUOUS
10
0.21063
20
0.300197
11
0.214567
21
0.299623
0
LINE
8
BLACK
6
CONTINUOUS
10
0.832677
20
0.299623
11
0.836742
21
0.297635
0
LINE
8
BLACK
6
CONTINUOUS
10
0.836742
20
0.297635
11
0.839944
21
0.294439
0
LINE
8
BLACK
6
CONTINUOUS
10
0.839944
20
0.294439
11
0.841939
21
0.290377
0
LINE
8
BLACK
6
CONTINUOUS
10
0.841939
20
0.290377
11
0.84252
21
0.286417
0
LINE
8
BLACK
6
CONTINUOUS
10
0.84252
20
0.286417
11
0.84252
21
0.274606
0
LINE
8
BLACK
6
CONTINUOUS
10
0.84252
20
0.274606
11
0.841945
21
0.27067
0
LINE
8
BLACK
6
CONTINUOUS
10
0.841945
20
0.27067
11
0.839958
21
0.266604
0
LINE
8
BLACK
6
CONTINUOUS
10
0.839958
20
0.266604
11
0.836762
21
0.263402
0
LINE
8
BLACK
6
CONTINUOUS
10
0.836762
20
0.263402
11
0.8327
21
0.261408
0
LINE
8
BLACK
6
CONTINUOUS
10
0.8327
20
0.261408
11
0.82874
21
0.260827
0
LINE
8
BLACK
6
CONTINUOUS
10
0.82874
20
0.260827
11
0.773622
21
0.260827
0
LINE
8
BLACK
6
CONTINUOUS
10
0.773622
20
0.260827
11
0.769685
21
0.261401
0
LINE
8
BLACK
6
CONTINUOUS
10
0.769685
20
0.261401
11
0.76562
21
0.263388
0
LINE
8
BLACK
6
CONTINUOUS
10
0.76562
20
0.263388
11
0.762418
21
0.266585
0
LINE
8
BLACK
6
CONTINUOUS
10
0.762418
20
0.266585
11
0.760424
21
0.270647
0
LINE
8
BLACK
6
CONTINUOUS
10
0.760424
20
0.270647
11
0.759843
21
0.274606
0
LINE
8
BLACK
6
CONTINUOUS
10
0.759843
20
0.274606
11
0.759843
21
0.286417
0
LINE
8
BLACK
6
CONTINUOUS
10
0.759843
20
0.286417
11
0.760417
21
0.290354
0
LINE
8
BLACK
6
CONTINUOUS
10
0.760417
20
0.290354
11
0.762404
21
0.294419
0
LINE
8
BLACK
6
CONTINUOUS
10
0.762404
20
0.294419
11
0.765601
21
0.297621
0
LINE
8
BLACK
6
CONTINUOUS
10
0.765601
20
0.297621
11
0.769662
21
0.299616
0
LINE
8
BLACK
6
CONTINUOUS
10
0.769662
20
0.299616
11
0.773622
21
0.300197
0
LINE
8
BLACK
6
CONTINUOUS
10
0.773622
20
0.300197
11
0.82874
21
0.300197
0
LINE
8
BLACK
6
CONTINUOUS
10
0.82874
20
0.300197
11
0.832677
21
0.299623
0
LINE
8
BLACK
6
CONTINUOUS
10
0.649693
20
0.308851
11
0.654083
21
0.306614
0
LINE
8
BLACK
6
CONTINUOUS
10
0.654083
20
0.306614
11
0.657567
21
0.30313
0
LINE
8
BLACK
6
CONTINUOUS
10
0.657567
20
0.30313
11
0.659804
21
0.29874
0
LINE
8
BLACK
6
CONTINUOUS
10
0.659804
20
0.29874
11
0.660575
21
0.293874
0
LINE
8
BLACK
6
CONTINUOUS
10
0.660575
20
0.293874
11
0.660575
21
0.278126
0
LINE
8
BLACK
6
CONTINUOUS
10
0.660575
20
0.278126
11
0.659804
21
0.27326
0
LINE
8
BLACK
6
CONTINUOUS
10
0.659804
20
0.27326
11
0.657567
21
0.26887
0
LINE
8
BLACK
6
CONTINUOUS
10
0.657567
20
0.26887
11
0.654083
21
0.265386
0
LINE
8
BLACK
6
CONTINUOUS
10
0.654083
20
0.265386
11
0.649693
21
0.263149
0
LINE
8
BLACK
6
CONTINUOUS
10
0.649693
20
0.263149
11
0.644827
21
0.262378
0
LINE
8
BLACK
6
CONTINUOUS
10
0.644827
20
0.262378
11
0.623173
21
0.262378
0
LINE
8
BLACK
6
CONTINUOUS
10
0.623173
20
0.262378
11
0.618307
21
0.263149
0
LINE
8
BLACK
6
CONTINUOUS
10
0.618307
20
0.263149
11
0.613917
21
0.265386
0
LINE
8
BLACK
6
CONTINUOUS
10
0.613917
20
0.265386
11
0.610433
21
0.26887
0
LINE
8
BLACK
6
CONTINUOUS
10
0.610433
20
0.26887
11
0.608196
21
0.27326
0
LINE
8
BLACK
6
CONTINUOUS
10
0.608196
20
0.27326
11
0.607425
21
0.278126
0
LINE
8
BLACK
6
CONTINUOUS
10
0.607425
20
0.278126
11
0.607425
21
0.293874
0
LINE
8
BLACK
6
CONTINUOUS
10
0.607425
20
0.293874
11
0.608196
21
0.29874
0
LINE
8
BLACK
6
CONTINUOUS
10
0.608196
20
0.29874
11
0.610433
21
0.30313
0
LINE
8
BLACK
6
CONTINUOUS
10
0.610433
20
0.30313
11
0.613917
21
0.306614
0
LINE
8
BLACK
6
CONTINUOUS
10
0.613917
20
0.306614
11
0.618307
21
0.308851
0
LINE
8
BLACK
6
CONTINUOUS
10
0.618307
20
0.308851
11
0.623173
21
0.309622
0
LINE
8
BLACK
6
CONTINUOUS
10
0.623173
20
0.309622
11
0.644827
21
0.309622
0
LINE
8
BLACK
6
CONTINUOUS
10
0.644827
20
0.309622
11
0.649693
21
0.308851
0
LINE
8
BLACK
6
CONTINUOUS
10
0.719693
20
0.309812
11
0.724083
21
0.307575
0
LINE
8
BLACK
6
CONTINUOUS
10
0.724083
20
0.307575
11
0.727567
21
0.304091
0
LINE
8
BLACK
6
CONTINUOUS
10
0.727567
20
0.304091
11
0.729804
21
0.299701
0
LINE
8
BLACK
6
CONTINUOUS
10
0.729804
20
0.299701
11
0.730575
21
0.294835
0
LINE
8
BLACK
6
CONTINUOUS
10
0.730575
20
0.294835
11
0.730575
21
0.279087
0
LINE
8
BLACK
6
CONTINUOUS
10
0.730575
20
0.279087
11
0.729804
21
0.27422
0
LINE
8
BLACK
6
CONTINUOUS
10
0.729804
20
0.27422
11
0.727567
21
0.26983
0
LINE
8
BLACK
6
CONTINUOUS
10
0.727567
20
0.26983
11
0.724083
21
0.266346
0
LINE
8
BLACK
6
CONTINUOUS
10
0.724083
20
0.266346
11
0.719693
21
0.264109
0
LINE
8
BLACK
6
CONTINUOUS
10
0.719693
20
0.264109
11
0.714827
21
0.263339
0
LINE
8
BLACK
6
CONTINUOUS
10
0.714827
20
0.263339
11
0.693173
21
0.263339
0
LINE
8
BLACK
6
CONTINUOUS
10
0.693173
20
0.263339
11
0.688307
21
0.264109
0
LINE
8
BLACK
6
CONTINUOUS
10
0.688307
20
0.264109
11
0.683917
21
0.266346
0
LINE
8
BLACK
6
CONTINUOUS
10
0.683917
20
0.266346
11
0.680433
21
0.26983
0
LINE
8
BLACK
6
CONTINUOUS
10
0.680433
20
0.26983
11
0.678196
21
0.27422
0
LINE
8
BLACK
6
CONTINUOUS
10
0.678196
20
0.27422
11
0.677425
21
0.279087
0
LINE
8
BLACK
6
CONTINUOUS
10
0.677425
20
0.279087
11
0.677425
21
0.294835
0
LINE
8
BLACK
6
CONTINUOUS
10
0.677425
20
0.294835
11
0.678196
21
0.299701
0
LINE
8
BLACK
6
CONTINUOUS
10
0.678196
20
0.299701
11
0.680433
21
0.304091
0
LINE
8
BLACK
6
CONTINUOUS
10
0.680433
20
0.304091
11
0.683917
21
0.307575
0
LINE
8
BLACK
6
CONTINUOUS
10
0.683917
20
0.307575
11
0.688307
21
0.309812
0
LINE
8
BLACK
6
CONTINUOUS
10
0.688307
20
0.309812
11
0.693173
21
0.310583
0
LINE
8
BLACK
6
CONTINUOUS
10
0.693173
20
0.310583
11
0.714827
21
0.310583
0
LINE
8
BLACK
6
CONTINUOUS
10
0.714827
20
0.310583
11
0.719693
21
0.309812
0
LINE
8
BLACK
6
CONTINUOUS
10
0.330144
20
0.330886
11
0.33474
21
0.328544
0
LINE
8
BLACK
6
CONTINUOUS
10
0.33474
20
0.328544
11
0.338387
21
0.324897
0
LINE
8
BLACK
6
CONTINUOUS
10
0.338387
20
0.324897
11
0.340729
21
0.320301
0
LINE
8
BLACK
6
CONTINUOUS
10
0.340729
20
0.320301
11
0.341535
21
0.315207
0
LINE
8
BLACK
6
CONTINUOUS
10
0.341535
20
0.315207
11
0.341535
21
0.297982
0
LINE
8
BLACK
6
CONTINUOUS
10
0.341535
20
0.297982
11
0.340729
21
0.292888
0
LINE
8
BLACK
6
CONTINUOUS
10
0.340729
20
0.292888
11
0.338387
21
0.288292
0
LINE
8
BLACK
6
CONTINUOUS
10
0.338387
20
0.288292
11
0.33474
21
0.284645
0
LINE
8
BLACK
6
CONTINUOUS
10
0.33474
20
0.284645
11
0.330144
21
0.282303
0
LINE
8
BLACK
6
CONTINUOUS
10
0.330144
20
0.282303
11
0.325049
21
0.281496
0
LINE
8
BLACK
6
CONTINUOUS
10
0.325049
20
0.281496
11
0.304872
21
0.281496
0
LINE
8
BLACK
6
CONTINUOUS
10
0.304872
20
0.281496
11
0.299778
21
0.282303
0
LINE
8
BLACK
6
CONTINUOUS
10
0.299778
20
0.282303
11
0.295182
21
0.284645
0
LINE
8
BLACK
6
CONTINUOUS
10
0.295182
20
0.284645
11
0.291534
21
0.288292
0
LINE
8
BLACK
6
CONTINUOUS
10
0.291534
20
0.288292
11
0.289193
21
0.292888
0
LINE
8
BLACK
6
CONTINUOUS
10
0.289193
20
0.292888
11
0.288386
21
0.297982
0
LINE
8
BLACK
6
CONTINUOUS
10
0.288386
20
0.297982
11
0.288386
21
0.315207
0
LINE
8
BLACK
6
CONTINUOUS
10
0.288386
20
0.315207
11
0.289193
21
0.320301
0
LINE
8
BLACK
6
CONTINUOUS
10
0.289193
20
0.320301
11
0.291534
21
0.324897
0
LINE
8
BLACK
6
CONTINUOUS
10
0.291534
20
0.324897
11
0.295182
21
0.328544
0
LINE
8
BLACK
6
CONTINUOUS
10
0.295182
20
0.328544
11
0.299778
21
0.330886
0
LINE
8
BLACK
6
CONTINUOUS
10
0.299778
20
0.330886
11
0.304872
21
0.331693
0
LINE
8
BLACK
6
CONTINUOUS
10
0.304872
20
0.331693
11
0.325049
21
0.331693
0
LINE
8
BLACK
6
CONTINUOUS
10
0.325049
20
0.331693
11
0.330144
21
0.330886
0
LINE
8
BLACK
6
CONTINUOUS
10
0.401693
20
0.333332
11
0.406083
21
0.331095
0
LINE
8
BLACK
6
CONTINUOUS
10
0.406083
20
0.331095
11
0.409567
21
0.327611
0
LINE
8
BLACK
6
CONTINUOUS
10
0.409567
20
0.327611
11
0.411804
21
0.323221
0
LINE
8
BLACK
6
CONTINUOUS
10
0.411804
20
0.323221
11
0.412575
21
0.318354
0
LINE
8
BLACK
6
CONTINUOUS
10
0.412575
20
0.318354
11
0.412575
21
0.302606
0
LINE
8
BLACK
6
CONTINUOUS
10
0.412575
20
0.302606
11
0.411804
21
0.29774
0
LINE
8
BLACK
6
CONTINUOUS
10
0.411804
20
0.29774
11
0.409567
21
0.29335
0
LINE
8
BLACK
6
CONTINUOUS
10
0.409567
20
0.29335
11
0.406083
21
0.289866
0
LINE
8
BLACK
6
CONTINUOUS
10
0.406083
20
0.289866
11
0.401693
21
0.287629
0
LINE
8
BLACK
6
CONTINUOUS
10
0.401693
20
0.287629
11
0.396827
21
0.286858
0
LINE
8
BLACK
6
CONTINUOUS
10
0.396827
20
0.286858
11
0.375173
21
0.286858
0
LINE
8
BLACK
6
CONTINUOUS
10
0.375173
20
0.286858
11
0.370307
21
0.287629
0
LINE
8
BLACK
6
CONTINUOUS
10
0.370307
20
0.287629
11
0.365917
21
0.289866
0
LINE
8
BLACK
6
CONTINUOUS
10
0.365917
20
0.289866
11
0.362433
21
0.29335
0
LINE
8
BLACK
6
CONTINUOUS
10
0.362433
20
0.29335
11
0.360196
21
0.29774
0
LINE
8
BLACK
6
CONTINUOUS
10
0.360196
20
0.29774
11
0.359425
21
0.302606
0
LINE
8
BLACK
6
CONTINUOUS
10
0.359425
20
0.302606
11
0.359425
21
0.318354
0
LINE
8
BLACK
6
CONTINUOUS
10
0.359425
20
0.318354
11
0.360196
21
0.323221
0
LINE
8
BLACK
6
CONTINUOUS
10
0.360196
20
0.323221
11
0.362433
21
0.327611
0
LINE
8
BLACK
6
CONTINUOUS
10
0.362433
20
0.327611
11
0.365917
21
0.331095
0
LINE
8
BLACK
6
CONTINUOUS
10
0.365917
20
0.331095
11
0.370307
21
0.333332
0
LINE
8
BLACK
6
CONTINUOUS
10
0.370307
20
0.333332
11
0.375173
21
0.334102
0
LINE
8
BLACK
6
CONTINUOUS
10
0.375173
20
0.334102
11
0.396827
21
0.334102
0
LINE
8
BLACK
6
CONTINUOUS
10
0.396827
20
0.334102
11
0.401693
21
0.333332
0
LINE
8
BLACK
6
CONTINUOUS
10
0.214567
20
0.348835
11
0.218632
21
0.346848
0
LINE
8
BLACK
6
CONTINUOUS
10
0.218632
20
0.346848
11
0.221834
21
0.343651
0
LINE
8
BLACK
6
CONTINUOUS
10
0.221834
20
0.343651
11
0.223828
21
0.33959
0
LINE
8
BLACK
6
CONTINUOUS
10
0.223828
20
0.33959
11
0.224409
21
0.33563
0
LINE
8
BLACK
6
CONTINUOUS
10
0.224409
20
0.33563
11
0.224409
21
0.323819
0
LINE
8
BLACK
6
CONTINUOUS
10
0.224409
20
0.323819
11
0.223835
21
0.319882
0
LINE
8
BLACK
6
CONTINUOUS
10
0.223835
20
0.319882
11
0.221848
21
0.315817
0
LINE
8
BLACK
6
CONTINUOUS
10
0.221848
20
0.315817
11
0.218651
21
0.312615
0
LINE
8
BLACK
6
CONTINUOUS
10
0.218651
20
0.312615
11
0.21459
21
0.310621
0
LINE
8
BLACK
6
CONTINUOUS
10
0.21459
20
0.310621
11
0.21063
21
0.310039
0
LINE
8
BLACK
6
CONTINUOUS
10
0.21063
20
0.310039
11
0.155512
21
0.310039
0
LINE
8
BLACK
6
CONTINUOUS
10
0.155512
20
0.310039
11
0.151575
21
0.310614
0
LINE
8
BLACK
6
CONTINUOUS
10
0.151575
20
0.310614
11
0.14751
21
0.312601
0
LINE
8
BLACK
6
CONTINUOUS
10
0.14751
20
0.312601
11
0.144308
21
0.315798
0
LINE
8
BLACK
6
CONTINUOUS
10
0.144308
20
0.315798
11
0.142313
21
0.319859
0
LINE
8
BLACK
6
CONTINUOUS
10
0.142313
20
0.319859
11
0.141732
21
0.323819
0
LINE
8
BLACK
6
CONTINUOUS
10
0.141732
20
0.323819
11
0.141732
21
0.33563
0
LINE
8
BLACK
6
CONTINUOUS
10
0.141732
20
0.33563
11
0.142307
21
0.339567
0
LINE
8
BLACK
6
CONTINUOUS
10
0.142307
20
0.339567
11
0.144294
21
0.343632
0
LINE
8
BLACK
6
CONTINUOUS
10
0.144294
20
0.343632
11
0.14749
21
0.346834
0
LINE
8
BLACK
6
CONTINUOUS
10
0.14749
20
0.346834
11
0.151552
21
0.348828
0
LINE
8
BLACK
6
CONTINUOUS
10
0.151552
20
0.348828
11
0.155512
21
0.349409
0
LINE
8
BLACK
6
CONTINUOUS
10
0.155512
20
0.349409
11
0.21063
21
0.349409
0
LINE
8
BLACK
6
CONTINUOUS
10
0.21063
20
0.349409
11
0.214567
21
0.348835
0
LINE
8
BLACK
6
CONTINUOUS
10
0.832677
20
0.348835
11
0.836742
21
0.346848
0
LINE
8
BLACK
6
CONTINUOUS
10
0.836742
20
0.346848
11
0.839944
21
0.343651
0
LINE
8
BLACK
6
CONTINUOUS
10
0.839944
20
0.343651
11
0.841939
21
0.33959
0
LINE
8
BLACK
6
CONTINUOUS
10
0.841939
20
0.33959
11
0.84252
21
0.33563
0
LINE
8
BLACK
6
CONTINUOUS
10
0.84252
20
0.33563
11
0.84252
21
0.323819
0
LINE
8
BLACK
6
CONTINUOUS
10
0.84252
20
0.323819
11
0.841945
21
0.319882
0
LINE
8
BLACK
6
CONTINUOUS
10
0.841945
20
0.319882
11
0.839958
21
0.315817
0
LINE
8
BLACK
6
CONTINUOUS
10
0.839958
20
0.315817
11
0.836762
21
0.312615
0
LINE
8
BLACK
6
CONTINUOUS
10
0.836762
20
0.312615
11
0.8327
21
0.310621
0
LINE
8
BLACK
6
CONTINUOUS
10
0.8327
20
0.310621
11
0.82874
21
0.310039
0
LINE
8
BLACK
6
CONTINUOUS
10
0.82874
20
0.310039
11
0.773622
21
0.310039
0
LINE
8
BLACK
6
CONTINUOUS
10
0.773622
20
0.310039
11
0.769685
21
0.310614
0
LINE
8
BLACK
6
CONTINUOUS
10
0.769685
20
0.310614
11
0.76562
21
0.312601
0
LINE
8
BLACK
6
CONTINUOUS
10
0.76562
20
0.312601
11
0.762418
21
0.315798
0
LINE
8
BLACK
6
CONTINUOUS
10
0.762418
20
0.315798
11
0.760424
21
0.319859
0
LINE
8
BLACK
6
CONTINUOUS
10
0.760424
20
0.319859
11
0.759843
21
0.323819
0
LINE
8
BLACK
6
CONTINUOUS
10
0.759843
20
0.323819
11
0.759843
21
0.33563
0
LINE
8
BLACK
6
CONTINUOUS
10
0.759843
20
0.33563
11
0.760417
21
0.339567
0
LINE
8
BLACK
6
CONTINUOUS
10
0.760417
20
0.339567
11
0.762404
21
0.343632
0
LINE
8
BLACK
6
CONTINUOUS
10
0.762404
20
0.343632
11
0.765601
21
0.346834
0
LINE
8
BLACK
6
CONTINUOUS
10
0.765601
20
0.346834
11
0.769662
21
0.348828
0
LINE
8
BLACK
6
CONTINUOUS
10
0.769662
20
0.348828
11
0.773622
21
0.349409
0
LINE
8
BLACK
6
CONTINUOUS
10
0.773622
20
0.349409
11
0.82874
21
0.349409
0
LINE
8
BLACK
6
CONTINUOUS
10
0.82874
20
0.349409
11
0.832677
21
0.348835
0
LINE
8
BLACK
6
CONTINUOUS
10
0.720693
20
0.372851
11
0.725083
21
0.370614
0
LINE
8
BLACK
6
CONTINUOUS
10
0.725083
20
0.370614
11
0.728567
21
0.36713
0
LINE
8
BLACK
6
CONTINUOUS
10
0.728567
20
0.36713
11
0.730804
21
0.36274
0
LINE
8
BLACK
6
CONTINUOUS
10
0.730804
20
0.36274
11
0.731575
21
0.357874
0
LINE
8
BLACK
6
CONTINUOUS
10
0.731575
20
0.357874
11
0.731575
21
0.342126
0
LINE
8
BLACK
6
CONTINUOUS
10
0.731575
20
0.342126
11
0.730804
21
0.33726
0
LINE
8
BLACK
6
CONTINUOUS
10
0.730804
20
0.33726
11
0.728567
21
0.33287
0
LINE
8
BLACK
6
CONTINUOUS
10
0.728567
20
0.33287
11
0.725083
21
0.329386
0
LINE
8
BLACK
6
CONTINUOUS
10
0.725083
20
0.329386
11
0.720693
21
0.327149
0
LINE
8
BLACK
6
CONTINUOUS
10
0.720693
20
0.327149
11
0.715827
21
0.326378
0
LINE
8
BLACK
6
CONTINUOUS
10
0.715827
20
0.326378
11
0.694173
21
0.326378
0
LINE
8
BLACK
6
CONTINUOUS
10
0.694173
20
0.326378
11
0.689307
21
0.327149
0
LINE
8
BLACK
6
CONTINUOUS
10
0.689307
20
0.327149
11
0.684917
21
0.329386
0
LINE
8
BLACK
6
CONTINUOUS
10
0.684917
20
0.329386
11
0.681433
21
0.33287
0
LINE
8
BLACK
6
CONTINUOUS
10
0.681433
20
0.33287
11
0.679196
21
0.33726
0
LINE
8
BLACK
6
CONTINUOUS
10
0.679196
20
0.33726
11
0.678425
21
0.342126
0
LINE
8
BLACK
6
CONTINUOUS
10
0.678425
20
0.342126
11
0.678425
21
0.357874
0
LINE
8
BLACK
6
CONTINUOUS
10
0.678425
20
0.357874
11
0.679196
21
0.36274
0
LINE
8
BLACK
6
CONTINUOUS
10
0.679196
20
0.36274
11
0.681433
21
0.36713
0
LINE
8
BLACK
6
CONTINUOUS
10
0.681433
20
0.36713
11
0.684917
21
0.370614
0
LINE
8
BLACK
6
CONTINUOUS
10
0.684917
20
0.370614
11
0.689307
21
0.372851
0
LINE
8
BLACK
6
CONTINUOUS
10
0.689307
20
0.372851
11
0.694173
21
0.373622
0
LINE
8
BLACK
6
CONTINUOUS
10
0.694173
20
0.373622
11
0.715827
21
0.373622
0
LINE
8
BLACK
6
CONTINUOUS
10
0.715827
20
0.373622
11
0.720693
21
0.372851
0
LINE
8
BLACK
6
CONTINUOUS
10
0.650693
20
0.372851
11
0.655083
21
0.370614
0
LINE
8
BLACK
6
CONTINUOUS
10
0.655083
20
0.370614
11
0.658567
21
0.36713
0
LINE
8
BLACK
6
CONTINUOUS
10
0.658567
20
0.36713
11
0.660804
21
0.36274
0
LINE
8
BLACK
6
CONTINUOUS
10
0.660804
20
0.36274
11
0.661575
21
0.357874
0
LINE
8
BLACK
6
CONTINUOUS
10
0.661575
20
0.357874
11
0.661575
21
0.342126
0
LINE
8
BLACK
6
CONTINUOUS
10
0.661575
20
0.342126
11
0.660804
21
0.33726
0
LINE
8
BLACK
6
CONTINUOUS
10
0.660804
20
0.33726
11
0.658567
21
0.33287
0
LINE
8
BLACK
6
CONTINUOUS
10
0.658567
20
0.33287
11
0.655083
21
0.329386
0
LINE
8
BLACK
6
CONTINUOUS
10
0.655083
20
0.329386
11
0.650693
21
0.327149
0
LINE
8
BLACK
6
CONTINUOUS
10
0.650693
20
0.327149
11
0.645827
21
0.326378
0
LINE
8
BLACK
6
CONTINUOUS
10
0.645827
20
0.326378
11
0.624173
21
0.326378
0
LINE
8
BLACK
6
CONTINUOUS
10
0.624173
20
0.326378
11
0.619307
21
0.327149
0
LINE
8
BLACK
6
CONTINUOUS
10
0.619307
20
0.327149
11
0.614917
21
0.329386
0
LINE
8
BLACK
6
CONTINUOUS
10
0.614917
20
0.329386
11
0.611433
21
0.33287
0
LINE
8
BLACK
6
CONTINUOUS
10
0.611433
20
0.33287
11
0.609196
21
0.33726
0
LINE
8
BLACK
6
CONTINUOUS
10
0.609196
20
0.33726
11
0.608425
21
0.342126
0
LINE
8
BLACK
6
CONTINUOUS
10
0.608425
20
0.342126
11
0.608425
21
0.357874
0
LINE
8
BLACK
6
CONTINUOUS
10
0.608425
20
0.357874
11
0.609196
21
0.36274
0
LINE
8
BLACK
6
CONTINUOUS
10
0.609196
20
0.36274
11
0.611433
21
0.36713
0
LINE
8
BLACK
6
CONTINUOUS
10
0.611433
20
0.36713
11
0.614917
21
0.370614
0
LINE
8
BLACK
6
CONTINUOUS
10
0.614917
20
0.370614
11
0.619307
21
0.372851
0
LINE
8
BLACK
6
CONTINUOUS
10
0.619307
20
0.372851
11
0.624173
21
0.373622
0
LINE
8
BLACK
6
CONTINUOUS
10
0.624173
20
0.373622
11
0.645827
21
0.373622
0
LINE
8
BLACK
6
CONTINUOUS
10
0.645827
20
0.373622
11
0.650693
21
0.372851
0
LINE
8
BLACK
6
CONTINUOUS
10
0.973792
20
0.429804
11
0.978763
21
0.428059
0
LINE
8
BLACK
6
CONTINUOUS
10
0.978763
20
0.428059
11
0.983
21
0.424929
0
LINE
8
BLACK
6
CONTINUOUS
10
0.983
20
0.424929
11
0.98613
21
0.420692
0
LINE
8
BLACK
6
CONTINUOUS
10
0.98613
20
0.420692
11
0.987875
21
0.415721
0
LINE
8
BLACK
6
CONTINUOUS
10
0.987875
20
0.415721
11
0.988189
21
0.412402
0
LINE
8
BLACK
6
CONTINUOUS
10
0.988189
20
0.412402
11
0.988189
21
0.392717
0
LINE
8
BLACK
6
CONTINUOUS
10
0.988189
20
0.392717
11
0.987875
21
0.389397
0
LINE
8
BLACK
6
CONTINUOUS
10
0.987875
20
0.389397
11
0.98613
21
0.384426
0
LINE
8
BLACK
6
CONTINUOUS
10
0.98613
20
0.384426
11
0.983
21
0.380189
0
LINE
8
BLACK
6
CONTINUOUS
10
0.983
20
0.380189
11
0.978763
21
0.377059
0
LINE
8
BLACK
6
CONTINUOUS
10
0.978763
20
0.377059
11
0.973792
21
0.375314
0
LINE
8
BLACK
6
CONTINUOUS
10
0.973792
20
0.375314
11
0.970472
21
0.375
0
LINE
8
BLACK
6
CONTINUOUS
10
0.970472
20
0.375
11
0.883858
21
0.375
0
LINE
8
BLACK
6
CONTINUOUS
10
0.883858
20
0.375
11
0.880539
21
0.375314
0
LINE
8
BLACK
6
CONTINUOUS
10
0.880539
20
0.375314
11
0.875568
21
0.377059
0
LINE
8
BLACK
6
CONTINUOUS
10
0.875568
20
0.377059
11
0.871331
21
0.380189
0
LINE
8
BLACK
6
CONTINUOUS
10
0.871331
20
0.380189
11
0.868201
21
0.384426
0
LINE
8
BLACK
6
CONTINUOUS
10
0.868201
20
0.384426
11
0.866456
21
0.389397
0
LINE
8
BLACK
6
CONTINUOUS
10
0.866456
20
0.389397
11
0.866142
21
0.392717
0
LINE
8
BLACK
6
CONTINUOUS
10
0.866142
20
0.392717
11
0.866142
21
0.412402
0
LINE
8
BLACK
6
CONTINUOUS
10
0.866142
20
0.412402
11
0.866456
21
0.415721
0
LINE
8
BLACK
6
CONTINUOUS
10
0.866456
20
0.415721
11
0.868201
21
0.420692
0
LINE
8
BLACK
6
CONTINUOUS
10
0.868201
20
0.420692
11
0.871331
21
0.424929
0
LINE
8
BLACK
6
CONTINUOUS
10
0.871331
20
0.424929
11
0.875568
21
0.428059
0
LINE
8
BLACK
6
CONTINUOUS
10
0.875568
20
0.428059
11
0.880539
21
0.429804
0
LINE
8
BLACK
6
CONTINUOUS
10
0.880539
20
0.429804
11
0.883858
21
0.430118
0
LINE
8
BLACK
6
CONTINUOUS
10
0.883858
20
0.430118
11
0.970472
21
0.430118
0
LINE
8
BLACK
6
CONTINUOUS
10
0.970472
20
0.430118
11
0.973792
21
0.429804
0
LINE
8
BLACK
6
CONTINUOUS
10
0.103713
20
0.429804
11
0.108684
21
0.428059
0
LINE
8
BLACK
6
CONTINUOUS
10
0.108684
20
0.428059
11
0.112921
21
0.424929
0
LINE
8
BLACK
6
CONTINUOUS
10
0.112921
20
0.424929
11
0.116051
21
0.420692
0
LINE
8
BLACK
6
CONTINUOUS
10
0.116051
20
0.420692
11
0.117796
21
0.415721
0
LINE
8
BLACK
6
CONTINUOUS
10
0.117796
20
0.415721
11
0.11811
21
0.412402
0
LINE
8
BLACK
6
CONTINUOUS
10
0.11811
20
0.412402
11
0.11811
21
0.392717
0
LINE
8
BLACK
6
CONTINUOUS
10
0.11811
20
0.392717
11
0.117796
21
0.389397
0
LINE
8
BLACK
6
CONTINUOUS
10
0.117796
20
0.389397
11
0.116051
21
0.384426
0
LINE
8
BLACK
6
CONTINUOUS
10
0.116051
20
0.384426
11
0.112921
21
0.380189
0
LINE
8
BLACK
6
CONTINUOUS
10
0.112921
20
0.380189
11
0.108684
21
0.377059
0
LINE
8
BLACK
6
CONTINUOUS
10
0.108684
20
0.377059
11
0.103713
21
0.375314
0
LINE
8
BLACK
6
CONTINUOUS
10
0.103713
20
0.375314
11
0.100394
21
0.375
0
LINE
8
BLACK
6
CONTINUOUS
10
0.100394
20
0.375
11
0.0137795
21
0.375
0
LINE
8
BLACK
6
CONTINUOUS
10
0.0137795
20
0.375
11
0.0104598
21
0.375314
0
LINE
8
BLACK
6
CONTINUOUS
10
0.0104598
20
0.375314
11
0.00548945
21
0.377059
0
LINE
8
BLACK
6
CONTINUOUS
10
0.00548945
20
0.377059
11
0.00125205
21
0.380189
0
LINE
8
BLACK
6
CONTINUOUS
10
0.00125205
20
0.380189
11
-0.00187776
21
0.384426
0
LINE
8
BLACK
6
CONTINUOUS
10
-0.00187776
20
0.384426
11
-0.00362319
21
0.389397
0
LINE
8
BLACK
6
CONTINUOUS
10
-0.00362319
20
0.389397
11
-0.00393701
21
0.392717
0
LINE
8
BLACK
6
CONTINUOUS
10
-0.00393701
20
0.392717
11
-0.00393701
21
0.412402
0
LINE
8
BLACK
6
CONTINUOUS
10
-0.00393701
20
0.412402
11
-0.00362319
21
0.415721
0
LINE
8
BLACK
6
CONTINUOUS
10
-0.00362319
20
0.415721
11
-0.00187776
21
0.420692
0
LINE
8
BLACK
6
CONTINUOUS
10
-0.00187776
20
0.420692
11
0.00125205
21
0.424929
0
LINE
8
BLACK
6
CONTINUOUS
10
0.00125205
20
0.424929
11
0.00548945
21
0.428059
0
LINE
8
BLACK
6
CONTINUOUS
10
0.00548945
20
0.428059
11
0.0104598
21
0.429804
0
LINE
8
BLACK
6
CONTINUOUS
10
0.0104598
20
0.429804
11
0.0137795
21
0.430118
0
LINE
8
BLACK
6
CONTINUOUS
10
0.0137795
20
0.430118
11
0.100394
21
0.430118
0
LINE
8
BLACK
6
CONTINUOUS
10
0.100394
20
0.430118
11
0.103713
21
0.429804
0
LINE
8
BLACK
6
CONTINUOUS
10
0.355693
20
0.432371
11
0.360083
21
0.430134
0
LINE
8
BLACK
6
CONTINUOUS
10
0.360083
20
0.430134
11
0.363567
21
0.42665
0
LINE
8
BLACK
6
CONTINUOUS
10
0.363567
20
0.42665
11
0.365804
21
0.42226
0
LINE
8
BLACK
6
CONTINUOUS
10
0.365804
20
0.42226
11
0.366575
21
0.417394
0
LINE
8
BLACK
6
CONTINUOUS
10
0.366575
20
0.417394
11
0.366575
21
0.401646
0
LINE
8
BLACK
6
CONTINUOUS
10
0.366575
20
0.401646
11
0.365804
21
0.396779
0
LINE
8
BLACK
6
CONTINUOUS
10
0.365804
20
0.396779
11
0.363567
21
0.392389
0
LINE
8
BLACK
6
CONTINUOUS
10
0.363567
20
0.392389
11
0.360083
21
0.388905
0
LINE
8
BLACK
6
CONTINUOUS
10
0.360083
20
0.388905
11
0.355693
21
0.386668
0
LINE
8
BLACK
6
CONTINUOUS
10
0.355693
20
0.386668
11
0.350827
21
0.385898
0
LINE
8
BLACK
6
CONTINUOUS
10
0.350827
20
0.385898
11
0.329173
21
0.385898
0
LINE
8
BLACK
6
CONTINUOUS
10
0.329173
20
0.385898
11
0.324307
21
0.386668
0
LINE
8
BLACK
6
CONTINUOUS
10
0.324307
20
0.386668
11
0.319917
21
0.388905
0
LINE
8
BLACK
6
CONTINUOUS
10
0.319917
20
0.388905
11
0.316433
21
0.392389
0
LINE
8
BLACK
6
CONTINUOUS
10
0.316433
20
0.392389
11
0.314196
21
0.396779
0
LINE
8
BLACK
6
CONTINUOUS
10
0.314196
20
0.396779
11
0.313425
21
0.401646
0
LINE
8
BLACK
6
CONTINUOUS
10
0.313425
20
0.401646
11
0.313425
21
0.417394
0
LINE
8
BLACK
6
CONTINUOUS
10
0.313425
20
0.417394
11
0.314196
21
0.42226
0
LINE
8
BLACK
6
CONTINUOUS
10
0.314196
20
0.42226
11
0.316433
21
0.42665
0
LINE
8
BLACK
6
CONTINUOUS
10
0.316433
20
0.42665
11
0.319917
21
0.430134
0
LINE
8
BLACK
6
CONTINUOUS
10
0.319917
20
0.430134
11
0.324307
21
0.432371
0
LINE
8
BLACK
6
CONTINUOUS
10
0.324307
20
0.432371
11
0.329173
21
0.433142
0
LINE
8
BLACK
6
CONTINUOUS
10
0.329173
20
0.433142
11
0.350827
21
0.433142
0
LINE
8
BLACK
6
CONTINUOUS
10
0.350827
20
0.433142
11
0.355693
21
0.432371
0
LINE
8
BLACK
6
CONTINUOUS
10
0.650693
20
0.437812
11
0.655083
21
0.435575
0
LINE
8
BLACK
6
CONTINUOUS
10
0.655083
20
0.435575
11
0.658567
21
0.432091
0
LINE
8
BLACK
6
CONTINUOUS
10
0.658567
20
0.432091
11
0.660804
21
0.427701
0
LINE
8
BLACK
6
CONTINUOUS
10
0.660804
20
0.427701
11
0.661575
21
0.422835
0
LINE
8
BLACK
6
CONTINUOUS
10
0.661575
20
0.422835
11
0.661575
21
0.407087
0
LINE
8
BLACK
6
CONTINUOUS
10
0.661575
20
0.407087
11
0.660804
21
0.40222
0
LINE
8
BLACK
6
CONTINUOUS
10
0.660804
20
0.40222
11
0.658567
21
0.39783
0
LINE
8
BLACK
6
CONTINUOUS
10
0.658567
20
0.39783
11
0.655083
21
0.394346
0
LINE
8
BLACK
6
CONTINUOUS
10
0.655083
20
0.394346
11
0.650693
21
0.392109
0
LINE
8
BLACK
6
CONTINUOUS
10
0.650693
20
0.392109
11
0.645827
21
0.391339
0
LINE
8
BLACK
6
CONTINUOUS
10
0.645827
20
0.391339
11
0.624173
21
0.391339
0
LINE
8
BLACK
6
CONTINUOUS
10
0.624173
20
0.391339
11
0.619307
21
0.392109
0
LINE
8
BLACK
6
CONTINUOUS
10
0.619307
20
0.392109
11
0.614917
21
0.394346
0
LINE
8
BLACK
6
CONTINUOUS
10
0.614917
20
0.394346
11
0.611433
21
0.39783
0
LINE
8
BLACK
6
CONTINUOUS
10
0.611433
20
0.39783
11
0.609196
21
0.40222
0
LINE
8
BLACK
6
CONTINUOUS
10
0.609196
20
0.40222
11
0.608425
21
0.407087
0
LINE
8
BLACK
6
CONTINUOUS
10
0.608425
20
0.407087
11
0.608425
21
0.422835
0
LINE
8
BLACK
6
CONTINUOUS
10
0.608425
20
0.422835
11
0.609196
21
0.427701
0
LINE
8
BLACK
6
CONTINUOUS
10
0.609196
20
0.427701
11
0.611433
21
0.432091
0
LINE
8
BLACK
6
CONTINUOUS
10
0.611433
20
0.432091
11
0.614917
21
0.435575
0
LINE
8
BLACK
6
CONTINUOUS
10
0.614917
20
0.435575
11
0.619307
21
0.437812
0
LINE
8
BLACK
6
CONTINUOUS
10
0.619307
20
0.437812
11
0.624173
21
0.438583
0
LINE
8
BLACK
6
CONTINUOUS
10
0.624173
20
0.438583
11
0.645827
21
0.438583
0
LINE
8
BLACK
6
CONTINUOUS
10
0.645827
20
0.438583
11
0.650693
21
0.437812
0
LINE
8
BLACK
6
CONTINUOUS
10
0.720693
20
0.437812
11
0.725083
21
0.435575
0
LINE
8
BLACK
6
CONTINUOUS
10
0.725083
20
0.435575
11
0.728567
21
0.432091
0
LINE
8
BLACK
6
CONTINUOUS
10
0.728567
20
0.432091
11
0.730804
21
0.427701
0
LINE
8
BLACK
6
CONTINUOUS
10
0.730804
20
0.427701
11
0.731575
21
0.422835
0
LINE
8
BLACK
6
CONTINUOUS
10
0.731575
20
0.422835
11
0.731575
21
0.407087
0
LINE
8
BLACK
6
CONTINUOUS
10
0.731575
20
0.407087
11
0.730804
21
0.40222
0
LINE
8
BLACK
6
CONTINUOUS
10
0.730804
20
0.40222
11
0.728567
21
0.39783
0
LINE
8
BLACK
6
CONTINUOUS
10
0.728567
20
0.39783
11
0.725083
21
0.394346
0
LINE
8
BLACK
6
CONTINUOUS
10
0.725083
20
0.394346
11
0.720693
21
0.392109
0
LINE
8
BLACK
6
CONTINUOUS
10
0.720693
20
0.392109
11
0.715827
21
0.391339
0
LINE
8
BLACK
6
CONTINUOUS
10
0.715827
20
0.391339
11
0.694173
21
0.391339
0
LINE
8
BLACK
6
CONTINUOUS
10
0.694173
20
0.391339
11
0.689307
21
0.392109
0
LINE
8
BLACK
6
CONTINUOUS
10
0.689307
20
0.392109
11
0.684917
21
0.394346
0
LINE
8
BLACK
6
CONTINUOUS
10
0.684917
20
0.394346
11
0.681433
21
0.39783
0
LINE
8
BLACK
6
CONTINUOUS
10
0.681433
20
0.39783
11
0.679196
21
0.40222
0
LINE
8
BLACK
6
CONTINUOUS
10
0.679196
20
0.40222
11
0.678425
21
0.407087
0
LINE
8
BLACK
6
CONTINUOUS
10
0.678425
20
0.407087
11
0.678425
21
0.422835
0
LINE
8
BLACK
6
CONTINUOUS
10
0.678425
20
0.422835
11
0.679196
21
0.427701
0
LINE
8
BLACK
6
CONTINUOUS
10
0.679196
20
0.427701
11
0.681433
21
0.432091
0
LINE
8
BLACK
6
CONTINUOUS
10
0.681433
20
0.432091
11
0.684917
21
0.435575
0
LINE
8
BLACK
6
CONTINUOUS
10
0.684917
20
0.435575
11
0.689307
21
0.437812
0
LINE
8
BLACK
6
CONTINUOUS
10
0.689307
20
0.437812
11
0.694173
21
0.438583
0
LINE
8
BLACK
6
CONTINUOUS
10
0.694173
20
0.438583
11
0.715827
21
0.438583
0
LINE
8
BLACK
6
CONTINUOUS
10
0.715827
20
0.438583
11
0.720693
21
0.437812
0
LINE
8
BLACK
6
CONTINUOUS
10
0.431163
20
0.582172
11
0.433071
21
0.580897
0
LINE
8
BLACK
6
CONTINUOUS
10
0.433071
20
0.580897
11
0.434979
21
0.582172
0
LINE
8
BLACK
6
CONTINUOUS
10
0.434979
20
0.582172
11
0.437992
21
0.582772
0
LINE
8
BLACK
6
CONTINUOUS
10
0.437992
20
0.582772
11
0.447835
21
0.582772
0
LINE
8
BLACK
6
CONTINUOUS
10
0.447835
20
0.582772
11
0.450848
21
0.582172
0
LINE
8
BLACK
6
CONTINUOUS
10
0.450848
20
0.582172
11
0.452756
21
0.580897
0
LINE
8
BLACK
6
CONTINUOUS
10
0.452756
20
0.580897
11
0.454664
21
0.582172
0
LINE
8
BLACK
6
CONTINUOUS
10
0.454664
20
0.582172
11
0.457677
21
0.582772
0
LINE
8
BLACK
6
CONTINUOUS
10
0.457677
20
0.582772
11
0.46752
21
0.582772
0
LINE
8
BLACK
6
CONTINUOUS
10
0.46752
20
0.582772
11
0.470533
21
0.582172
0
LINE
8
BLACK
6
CONTINUOUS
10
0.470533
20
0.582172
11
0.472441
21
0.580897
0
LINE
8
BLACK
6
CONTINUOUS
10
0.472441
20
0.580897
11
0.474349
21
0.582172
0
LINE
8
BLACK
6
CONTINUOUS
10
0.474349
20
0.582172
11
0.477362
21
0.582772
0
LINE
8
BLACK
6
CONTINUOUS
10
0.477362
20
0.582772
11
0.487205
21
0.582772
0
LINE
8
BLACK
6
CONTINUOUS
10
0.487205
20
0.582772
11
0.490218
21
0.582172
0
LINE
8
BLACK
6
CONTINUOUS
10
0.490218
20
0.582172
11
0.492126
21
0.580897
0
LINE
8
BLACK
6
CONTINUOUS
10
0.492126
20
0.580897
11
0.494034
21
0.582172
0
LINE
8
BLACK
6
CONTINUOUS
10
0.494034
20
0.582172
11
0.497047
21
0.582772
0
LINE
8
BLACK
6
CONTINUOUS
10
0.497047
20
0.582772
11
0.50689
21
0.582772
0
LINE
8
BLACK
6
CONTINUOUS
10
0.50689
20
0.582772
11
0.509903
21
0.582172
0
LINE
8
BLACK
6
CONTINUOUS
10
0.509903
20
0.582172
11
0.511811
21
0.580897
0
LINE
8
BLACK
6
CONTINUOUS
10
0.511811
20
0.580897
11
0.513719
21
0.582172
0
LINE
8
BLACK
6
CONTINUOUS
10
0.513719
20
0.582172
11
0.516732
21
0.582772
0
LINE
8
BLACK
6
CONTINUOUS
10
0.516732
20
0.582772
11
0.526575
21
0.582772
0
LINE
8
BLACK
6
CONTINUOUS
10
0.526575
20
0.582772
11
0.529588
21
0.582172
0
LINE
8
BLACK
6
CONTINUOUS
10
0.529588
20
0.582172
11
0.531496
21
0.580897
0
LINE
8
BLACK
6
CONTINUOUS
10
0.531496
20
0.580897
11
0.533404
21
0.582172
0
LINE
8
BLACK
6
CONTINUOUS
10
0.533404
20
0.582172
11
0.536417
21
0.582772
0
LINE
8
BLACK
6
CONTINUOUS
10
0.536417
20
0.582772
11
0.54626
21
0.582772
0
LINE
8
BLACK
6
CONTINUOUS
10
0.54626
20
0.582772
11
0.549273
21
0.582172
0
LINE
8
BLACK
6
CONTINUOUS
10
0.549273
20
0.582172
11
0.551181
21
0.580897
0
LINE
8
BLACK
6
CONTINUOUS
10
0.551181
20
0.580897
11
0.553089
21
0.582172
0
LINE
8
BLACK
6
CONTINUOUS
10
0.553089
20
0.582172
11
0.556102
21
0.582772
0
LINE
8
BLACK
6
CONTINUOUS
10
0.556102
20
0.582772
11
0.565945
21
0.582772
0
LINE
8
BLACK
6
CONTINUOUS
10
0.565945
20
0.582772
11
0.568958
21
0.582172
0
LINE
8
BLACK
6
CONTINUOUS
10
0.568958
20
0.582172
11
0.571513
21
0.580465
0
LINE
8
BLACK
6
CONTINUOUS
10
0.571513
20
0.580465
11
0.57322
21
0.577911
0
LINE
8
BLACK
6
CONTINUOUS
10
0.57322
20
0.577911
11
0.573819
21
0.574898
0
LINE
8
BLACK
6
CONTINUOUS
10
0.573819
20
0.574898
11
0.573819
21
0.549307
0
LINE
8
BLACK
6
CONTINUOUS
10
0.573819
20
0.549307
11
0.573271
21
0.546551
0
LINE
8
BLACK
6
CONTINUOUS
10
0.573271
20
0.546551
11
0.57874
21
0.546551
0
LINE
8
BLACK
6
CONTINUOUS
10
0.57874
20
0.546551
11
0.581753
21
0.545952
0
LINE
8
BLACK
6
CONTINUOUS
10
0.581753
20
0.545952
11
0.584308
21
0.544245
0
LINE
8
BLACK
6
CONTINUOUS
10
0.584308
20
0.544245
11
0.586015
21
0.54169
0
LINE
8
BLACK
6
CONTINUOUS
10
0.586015
20
0.54169
11
0.586614
21
0.538677
0
LINE
8
BLACK
6
CONTINUOUS
10
0.586614
20
0.538677
11
0.586614
21
0.473323
0
LINE
8
BLACK
6
CONTINUOUS
10
0.586614
20
0.473323
11
0.586015
21
0.47031
0
LINE
8
BLACK
6
CONTINUOUS
10
0.586015
20
0.47031
11
0.584308
21
0.467755
0
LINE
8
BLACK
6
CONTINUOUS
10
0.584308
20
0.467755
11
0.581753
21
0.466048
0
LINE
8
BLACK
6
CONTINUOUS
10
0.581753
20
0.466048
11
0.57874
21
0.465449
0
LINE
8
BLACK
6
CONTINUOUS
10
0.57874
20
0.465449
11
0.573271
21
0.465449
0
LINE
8
BLACK
6
CONTINUOUS
10
0.573271
20
0.465449
11
0.573819
21
0.462693
0
LINE
8
BLACK
6
CONTINUOUS
10
0.573819
20
0.462693
11
0.573819
21
0.437102
0
LINE
8
BLACK
6
CONTINUOUS
10
0.573819
20
0.437102
11
0.57322
21
0.434089
0
LINE
8
BLACK
6
CONTINUOUS
10
0.57322
20
0.434089
11
0.571513
21
0.431535
0
LINE
8
BLACK
6
CONTINUOUS
10
0.571513
20
0.431535
11
0.568958
21
0.429828
0
LINE
8
BLACK
6
CONTINUOUS
10
0.568958
20
0.429828
11
0.565945
21
0.429228
0
LINE
8
BLACK
6
CONTINUOUS
10
0.565945
20
0.429228
11
0.556102
21
0.429228
0
LINE
8
BLACK
6
CONTINUOUS
10
0.556102
20
0.429228
11
0.553089
21
0.429828
0
LINE
8
BLACK
6
CONTINUOUS
10
0.553089
20
0.429828
11
0.551181
21
0.431103
0
LINE
8
BLACK
6
CONTINUOUS
10
0.551181
20
0.431103
11
0.549273
21
0.429828
0
LINE
8
BLACK
6
CONTINUOUS
10
0.549273
20
0.429828
11
0.54626
21
0.429228
0
LINE
8
BLACK
6
CONTINUOUS
10
0.54626
20
0.429228
11
0.536417
21
0.429228
0
LINE
8
BLACK
6
CONTINUOUS
10
0.536417
20
0.429228
11
0.533404
21
0.429828
0
LINE
8
BLACK
6
CONTINUOUS
10
0.533404
20
0.429828
11
0.531496
21
0.431103
0
LINE
8
BLACK
6
CONTINUOUS
10
0.531496
20
0.431103
11
0.529588
21
0.429828
0
LINE
8
BLACK
6
CONTINUOUS
10
0.529588
20
0.429828
11
0.526575
21
0.429228
0
LINE
8
BLACK
6
CONTINUOUS
10
0.526575
20
0.429228
11
0.516732
21
0.429228
0
LINE
8
BLACK
6
CONTINUOUS
10
0.516732
20
0.429228
11
0.513719
21
0.429828
0
LINE
8
BLACK
6
CONTINUOUS
10
0.513719
20
0.429828
11
0.511811
21
0.431103
0
LINE
8
BLACK
6
CONTINUOUS
10
0.511811
20
0.431103
11
0.509903
21
0.429828
0
LINE
8
BLACK
6
CONTINUOUS
10
0.509903
20
0.429828
11
0.50689
21
0.429228
0
LINE
8
BLACK
6
CONTINUOUS
10
0.50689
20
0.429228
11
0.497047
21
0.429228
0
LINE
8
BLACK
6
CONTINUOUS
10
0.497047
20
0.429228
11
0.494034
21
0.429828
0
LINE
8
BLACK
6
CONTINUOUS
10
0.494034
20
0.429828
11
0.492126
21
0.431103
0
LINE
8
BLACK
6
CONTINUOUS
10
0.492126
20
0.431103
11
0.490218
21
0.429828
0
LINE
8
BLACK
6
CONTINUOUS
10
0.490218
20
0.429828
11
0.487205
21
0.429228
0
LINE
8
BLACK
6
CONTINUOUS
10
0.487205
20
0.429228
11
0.477362
21
0.429228
0
LINE
8
BLACK
6
CONTINUOUS
10
0.477362
20
0.429228
11
0.474349
21
0.429828
0
LINE
8
BLACK
6
CONTINUOUS
10
0.474349
20
0.429828
11
0.472441
21
0.431103
0
LINE
8
BLACK
6
CONTINUOUS
10
0.472441
20
0.431103
11
0.470533
21
0.429828
0
LINE
8
BLACK
6
CONTINUOUS
10
0.470533
20
0.429828
11
0.46752
21
0.429228
0
LINE
8
BLACK
6
CONTINUOUS
10
0.46752
20
0.429228
11
0.457677
21
0.429228
0
LINE
8
BLACK
6
CONTINUOUS
10
0.457677
20
0.429228
11
0.454664
21
0.429828
0
LINE
8
BLACK
6
CONTINUOUS
10
0.454664
20
0.429828
11
0.452756
21
0.431103
0
LINE
8
BLACK
6
CONTINUOUS
10
0.452756
20
0.431103
11
0.450848
21
0.429828
0
LINE
8
BLACK
6
CONTINUOUS
10
0.450848
20
0.429828
11
0.447835
21
0.429228
0
LINE
8
BLACK
6
CONTINUOUS
10
0.447835
20
0.429228
11
0.437992
21
0.429228
0
LINE
8
BLACK
6
CONTINUOUS
10
0.437992
20
0.429228
11
0.434979
21
0.429828
0
LINE
8
BLACK
6
CONTINUOUS
10
0.434979
20
0.429828
11
0.433071
21
0.431103
0
LINE
8
BLACK
6
CONTINUOUS
10
0.433071
20
0.431103
11
0.431163
21
0.429828
0
LINE
8
BLACK
6
CONTINUOUS
10
0.431163
20
0.429828
11
0.42815
21
0.429228
0
LINE
8
BLACK
6
CONTINUOUS
10
0.42815
20
0.429228
11
0.418307
21
0.429228
0
LINE
8
BLACK
6
CONTINUOUS
10
0.418307
20
0.429228
11
0.415294
21
0.429828
0
LINE
8
BLACK
6
CONTINUOUS
10
0.415294
20
0.429828
11
0.412739
21
0.431535
0
LINE
8
BLACK
6
CONTINUOUS
10
0.412739
20
0.431535
11
0.411032
21
0.434089
0
LINE
8
BLACK
6
CONTINUOUS
10
0.411032
20
0.434089
11
0.410433
21
0.437102
0
LINE
8
BLACK
6
CONTINUOUS
10
0.410433
20
0.437102
11
0.410433
21
0.462693
0
LINE
8
BLACK
6
CONTINUOUS
10
0.410433
20
0.462693
11
0.410981
21
0.465449
0
LINE
8
BLACK
6
CONTINUOUS
10
0.410981
20
0.465449
11
0.405512
21
0.465449
0
LINE
8
BLACK
6
CONTINUOUS
10
0.405512
20
0.465449
11
0.402499
21
0.466048
0
LINE
8
BLACK
6
CONTINUOUS
10
0.402499
20
0.466048
11
0.399944
21
0.467755
0
LINE
8
BLACK
6
CONTINUOUS
10
0.399944
20
0.467755
11
0.398237
21
0.47031
0
LINE
8
BLACK
6
CONTINUOUS
10
0.398237
20
0.47031
11
0.397638
21
0.473323
0
LINE
8
BLACK
6
CONTINUOUS
10
0.397638
20
0.473323
11
0.397638
21
0.538677
0
LINE
8
BLACK
6
CONTINUOUS
10
0.397638
20
0.538677
11
0.398237
21
0.54169
0
LINE
8
BLACK
6
CONTINUOUS
10
0.398237
20
0.54169
11
0.399944
21
0.544245
0
LINE
8
BLACK
6
CONTINUOUS
10
0.399944
20
0.544245
11
0.402499
21
0.545952
0
LINE
8
BLACK
6
CONTINUOUS
10
0.402499
20
0.545952
11
0.405512
21
0.546551
0
LINE
8
BLACK
6
CONTINUOUS
10
0.405512
20
0.546551
11
0.410981
21
0.546551
0
LINE
8
BLACK
6
CONTINUOUS
10
0.410981
20
0.546551
11
0.410433
21
0.549307
0
LINE
8
BLACK
6
CONTINUOUS
10
0.410433
20
0.549307
11
0.410433
21
0.574898
0
LINE
8
BLACK
6
CONTINUOUS
10
0.410433
20
0.574898
11
0.411032
21
0.577911
0
LINE
8
BLACK
6
CONTINUOUS
10
0.411032
20
0.577911
11
0.412739
21
0.580465
0
LINE
8
BLACK
6
CONTINUOUS
10
0.412739
20
0.580465
11
0.415294
21
0.582172
0
LINE
8
BLACK
6
CONTINUOUS
10
0.415294
20
0.582172
11
0.418307
21
0.582772
0
LINE
8
BLACK
6
CONTINUOUS
10
0.418307
20
0.582772
11
0.42815
21
0.582772
0
LINE
8
BLACK
6
CONTINUOUS
10
0.42815
20
0.582772
11
0.431163
21
0.582172
0
LINE
8
BLACK
6
CONTINUOUS
10
0.355693
20
0.497332
11
0.360083
21
0.495095
0
LINE
8
BLACK
6
CONTINUOUS
10
0.360083
20
0.495095
11
0.363567
21
0.491611
0
LINE
8
BLACK
6
CONTINUOUS
10
0.363567
20
0.491611
11
0.365804
21
0.487221
0
LINE
8
BLACK
6
CONTINUOUS
10
0.365804
20
0.487221
11
0.366575
21
0.482354
0
LINE
8
BLACK
6
CONTINUOUS
10
0.366575
20
0.482354
11
0.366575
21
0.466606
0
LINE
8
BLACK
6
CONTINUOUS
10
0.366575
20
0.466606
11
0.365804
21
0.46174
0
LINE
8
BLACK
6
CONTINUOUS
10
0.365804
20
0.46174
11
0.363567
21
0.45735
0
LINE
8
BLACK
6
CONTINUOUS
10
0.363567
20
0.45735
11
0.360083
21
0.453866
0
LINE
8
BLACK
6
CONTINUOUS
10
0.360083
20
0.453866
11
0.355693
21
0.451629
0
LINE
8
BLACK
6
CONTINUOUS
10
0.355693
20
0.451629
11
0.350827
21
0.450858
0
LINE
8
BLACK
6
CONTINUOUS
10
0.350827
20
0.450858
11
0.329173
21
0.450858
0
LINE
8
BLACK
6
CONTINUOUS
10
0.329173
20
0.450858
11
0.324307
21
0.451629
0
LINE
8
BLACK
6
CONTINUOUS
10
0.324307
20
0.451629
11
0.319917
21
0.453866
0
LINE
8
BLACK
6
CONTINUOUS
10
0.319917
20
0.453866
11
0.316433
21
0.45735
0
LINE
8
BLACK
6
CONTINUOUS
10
0.316433
20
0.45735
11
0.314196
21
0.46174
0
LINE
8
BLACK
6
CONTINUOUS
10
0.314196
20
0.46174
11
0.313425
21
0.466606
0
LINE
8
BLACK
6
CONTINUOUS
10
0.313425
20
0.466606
11
0.313425
21
0.482354
0
LINE
8
BLACK
6
CONTINUOUS
10
0.313425
20
0.482354
11
0.314196
21
0.487221
0
LINE
8
BLACK
6
CONTINUOUS
10
0.314196
20
0.487221
11
0.316433
21
0.491611
0
LINE
8
BLACK
6
CONTINUOUS
10
0.316433
20
0.491611
11
0.319917
21
0.495095
0
LINE
8
BLACK
6
CONTINUOUS
10
0.319917
20
0.495095
11
0.324307
21
0.497332
0
LINE
8
BLACK
6
CONTINUOUS
10
0.324307
20
0.497332
11
0.329173
21
0.498102
0
LINE
8
BLACK
6
CONTINUOUS
10
0.329173
20
0.498102
11
0.350827
21
0.498102
0
LINE
8
BLACK
6
CONTINUOUS
10
0.350827
20
0.498102
11
0.355693
21
0.497332
0
LINE
8
BLACK
6
CONTINUOUS
10
0.660013
20
0.518748
11
0.664678
21
0.516371
0
LINE
8
BLACK
6
CONTINUOUS
10
0.664678
20
0.516371
11
0.668379
21
0.51267
0
LINE
8
BLACK
6
CONTINUOUS
10
0.668379
20
0.51267
11
0.670756
21
0.508005
0
LINE
8
BLACK
6
CONTINUOUS
10
0.670756
20
0.508005
11
0.671575
21
0.502835
0
LINE
8
BLACK
6
CONTINUOUS
10
0.671575
20
0.502835
11
0.671575
21
0.485118
0
LINE
8
BLACK
6
CONTINUOUS
10
0.671575
20
0.485118
11
0.670756
21
0.479948
0
LINE
8
BLACK
6
CONTINUOUS
10
0.670756
20
0.479948
11
0.668379
21
0.475283
0
LINE
8
BLACK
6
CONTINUOUS
10
0.668379
20
0.475283
11
0.664678
21
0.471581
0
LINE
8
BLACK
6
CONTINUOUS
10
0.664678
20
0.471581
11
0.660013
21
0.469205
0
LINE
8
BLACK
6
CONTINUOUS
10
0.660013
20
0.469205
11
0.654843
21
0.468386
0
LINE
8
BLACK
6
CONTINUOUS
10
0.654843
20
0.468386
11
0.635157
21
0.468386
0
LINE
8
BLACK
6
CONTINUOUS
10
0.635157
20
0.468386
11
0.629987
21
0.469205
0
LINE
8
BLACK
6
CONTINUOUS
10
0.629987
20
0.469205
11
0.625322
21
0.471581
0
LINE
8
BLACK
6
CONTINUOUS
10
0.625322
20
0.471581
11
0.621621
21
0.475283
0
LINE
8
BLACK
6
CONTINUOUS
10
0.621621
20
0.475283
11
0.619244
21
0.479948
0
LINE
8
BLACK
6
CONTINUOUS
10
0.619244
20
0.479948
11
0.618425
21
0.485118
0
LINE
8
BLACK
6
CONTINUOUS
10
0.618425
20
0.485118
11
0.618425
21
0.502835
0
LINE
8
BLACK
6
CONTINUOUS
10
0.618425
20
0.502835
11
0.619244
21
0.508005
0
LINE
8
BLACK
6
CONTINUOUS
10
0.619244
20
0.508005
11
0.621621
21
0.51267
0
LINE
8
BLACK
6
CONTINUOUS
10
0.621621
20
0.51267
11
0.625322
21
0.516371
0
LINE
8
BLACK
6
CONTINUOUS
10
0.625322
20
0.516371
11
0.629987
21
0.518748
0
LINE
8
BLACK
6
CONTINUOUS
10
0.629987
20
0.518748
11
0.635157
21
0.519567
0
LINE
8
BLACK
6
CONTINUOUS
10
0.635157
20
0.519567
11
0.654843
21
0.519567
0
LINE
8
BLACK
6
CONTINUOUS
10
0.654843
20
0.519567
11
0.660013
21
0.518748
0
LINE
8
BLACK
6
CONTINUOUS
10
0.973792
20
0.530198
11
0.978763
21
0.528453
0
LINE
8
BLACK
6
CONTINUOUS
10
0.978763
20
0.528453
11
0.983
21
0.525323
0
LINE
8
BLACK
6
CONTINUOUS
10
0.983
20
0.525323
11
0.98613
21
0.521085
0
LINE
8
BLACK
6
CONTINUOUS
10
0.98613
20
0.521085
11
0.987875
21
0.516115
0
LINE
8
BLACK
6
CONTINUOUS
10
0.987875
20
0.516115
11
0.988189
21
0.512795
0
LINE
8
BLACK
6
CONTINUOUS
10
0.988189
20
0.512795
11
0.988189
21
0.49311
0
LINE
8
BLACK
6
CONTINUOUS
10
0.988189
20
0.49311
11
0.987875
21
0.48979
0
LINE
8
BLACK
6
CONTINUOUS
10
0.987875
20
0.48979
11
0.98613
21
0.48482
0
LINE
8
BLACK
6
CONTINUOUS
10
0.98613
20
0.48482
11
0.983
21
0.480583
0
LINE
8
BLACK
6
CONTINUOUS
10
0.983
20
0.480583
11
0.978763
21
0.477453
0
LINE
8
BLACK
6
CONTINUOUS
10
0.978763
20
0.477453
11
0.973792
21
0.475708
0
LINE
8
BLACK
6
CONTINUOUS
10
0.973792
20
0.475708
11
0.970472
21
0.475394
0
LINE
8
BLACK
6
CONTINUOUS
10
0.970472
20
0.475394
11
0.883858
21
0.475394
0
LINE
8
BLACK
6
CONTINUOUS
10
0.883858
20
0.475394
11
0.880539
21
0.475708
0
LINE
8
BLACK
6
CONTINUOUS
10
0.880539
20
0.475708
11
0.875568
21
0.477453
0
LINE
8
BLACK
6
CONTINUOUS
10
0.875568
20
0.477453
11
0.871331
21
0.480583
0
LINE
8
BLACK
6
CONTINUOUS
10
0.871331
20
0.480583
11
0.868201
21
0.48482
0
LINE
8
BLACK
6
CONTINUOUS
10
0.868201
20
0.48482
11
0.866456
21
0.48979
0
LINE
8
BLACK
6
CONTINUOUS
10
0.866456
20
0.48979
11
0.866142
21
0.49311
0
LINE
8
BLACK
6
CONTINUOUS
10
0.866142
20
0.49311
11
0.866142
21
0.512795
0
LINE
8
BLACK
6
CONTINUOUS
10
0.866142
20
0.512795
11
0.866456
21
0.516115
0
LINE
8
BLACK
6
CONTINUOUS
10
0.866456
20
0.516115
11
0.868201
21
0.521085
0
LINE
8
BLACK
6
CONTINUOUS
10
0.868201
20
0.521085
11
0.871331
21
0.525323
0
LINE
8
BLACK
6
CONTINUOUS
10
0.871331
20
0.525323
11
0.875568
21
0.528453
0
LINE
8
BLACK
6
CONTINUOUS
10
0.875568
20
0.528453
11
0.880539
21
0.530198
0
LINE
8
BLACK
6
CONTINUOUS
10
0.880539
20
0.530198
11
0.883858
21
0.530512
0
LINE
8
BLACK
6
CONTINUOUS
10
0.883858
20
0.530512
11
0.970472
21
0.530512
0
LINE
8
BLACK
6
CONTINUOUS
10
0.970472
20
0.530512
11
0.973792
21
0.530198
0
LINE
8
BLACK
6
CONTINUOUS
10
0.103713
20
0.530198
11
0.108684
21
0.528453
0
LINE
8
BLACK
6
CONTINUOUS
10
0.108684
20
0.528453
11
0.112921
21
0.525323
0
LINE
8
BLACK
6
CONTINUOUS
10
0.112921
20
0.525323
11
0.116051
21
0.521085
0
LINE
8
BLACK
6
CONTINUOUS
10
0.116051
20
0.521085
11
0.117796
21
0.516115
0
LINE
8
BLACK
6
CONTINUOUS
10
0.117796
20
0.516115
11
0.11811
21
0.512795
0
LINE
8
BLACK
6
CONTINUOUS
10
0.11811
20
0.512795
11
0.11811
21
0.49311
0
LINE
8
BLACK
6
CONTINUOUS
10
0.11811
20
0.49311
11
0.117796
21
0.48979
0
LINE
8
BLACK
6
CONTINUOUS
10
0.117796
20
0.48979
11
0.116051
21
0.48482
0
LINE
8
BLACK
6
CONTINUOUS
10
0.116051
20
0.48482
11
0.112921
21
0.480583
0
LINE
8
BLACK
6
CONTINUOUS
10
0.112921
20
0.480583
11
0.108684
21
0.477453
0
LINE
8
BLACK
6
CONTINUOUS
10
0.108684
20
0.477453
11
0.103713
21
0.475708
0
LINE
8
BLACK
6
CONTINUOUS
10
0.103713
20
0.475708
11
0.100394
21
0.475394
0
LINE
8
BLACK
6
CONTINUOUS
10
0.100394
20
0.475394
11
0.0137795
21
0.475394
0
LINE
8
BLACK
6
CONTINUOUS
10
0.0137795
20
0.475394
11
0.0104598
21
0.475708
0
LINE
8
BLACK
6
CONTINUOUS
10
0.0104598
20
0.475708
11
0.00548945
21
0.477453
0
LINE
8
BLACK
6
CONTINUOUS
10
0.00548945
20
0.477453
11
0.00125205
21
0.480583
0
LINE
8
BLACK
6
CONTINUOUS
10
0.00125205
20
0.480583
11
-0.00187776
21
0.48482
0
LINE
8
BLACK
6
CONTINUOUS
10
-0.00187776
20
0.48482
11
-0.00362319
21
0.48979
0
LINE
8
BLACK
6
CONTINUOUS
10
-0.00362319
20
0.48979
11
-0.00393701
21
0.49311
0
LINE
8
BLACK
6
CONTINUOUS
10
-0.00393701
20
0.49311
11
-0.00393701
21
0.512795
0
LINE
8
BLACK
6
CONTINUOUS
10
-0.00393701
20
0.512795
11
-0.00362319
21
0.516115
0
LINE
8
BLACK
6
CONTINUOUS
10
-0.00362319
20
0.516115
11
-0.00187776
21
0.521085
0
LINE
8
BLACK
6
CONTINUOUS
10
-0.00187776
20
0.521085
11
0.00125205
21
0.525323
0
LINE
8
BLACK
6
CONTINUOUS
10
0.00125205
20
0.525323
11
0.00548945
21
0.528453
0
LINE
8
BLACK
6
CONTINUOUS
10
0.00548945
20
0.528453
11
0.0104598
21
0.530198
0
LINE
8
BLACK
6
CONTINUOUS
10
0.0104598
20
0.530198
11
0.0137795
21
0.530512
0
LINE
8
BLACK
6
CONTINUOUS
10
0.0137795
20
0.530512
11
0.100394
21
0.530512
0
LINE
8
BLACK
6
CONTINUOUS
10
0.100394
20
0.530512
11
0.103713
21
0.530198
0
LINE
8
BLACK
6
CONTINUOUS
10
0.35674
20
0.567804
11
0.36113
21
0.565567
0
LINE
8
BLACK
6
CONTINUOUS
10
0.36113
20
0.565567
11
0.364614
21
0.562083
0
LINE
8
BLACK
6
CONTINUOUS
10
0.364614
20
0.562083
11
0.366851
21
0.557693
0
LINE
8
BLACK
6
CONTINUOUS
10
0.366851
20
0.557693
11
0.367622
21
0.552827
0
LINE
8
BLACK
6
CONTINUOUS
10
0.367622
20
0.552827
11
0.367622
21
0.531173
0
LINE
8
BLACK
6
CONTINUOUS
10
0.367622
20
0.531173
11
0.366851
21
0.526307
0
LINE
8
BLACK
6
CONTINUOUS
10
0.366851
20
0.526307
11
0.364614
21
0.521917
0
LINE
8
BLACK
6
CONTINUOUS
10
0.364614
20
0.521917
11
0.36113
21
0.518433
0
LINE
8
BLACK
6
CONTINUOUS
10
0.36113
20
0.518433
11
0.35674
21
0.516196
0
LINE
8
BLACK
6
CONTINUOUS
10
0.35674
20
0.516196
11
0.351874
21
0.515425
0
LINE
8
BLACK
6
CONTINUOUS
10
0.351874
20
0.515425
11
0.336126
21
0.515425
0
LINE
8
BLACK
6
CONTINUOUS
10
0.336126
20
0.515425
11
0.33126
21
0.516196
0
LINE
8
BLACK
6
CONTINUOUS
10
0.33126
20
0.516196
11
0.32687
21
0.518433
0
LINE
8
BLACK
6
CONTINUOUS
10
0.32687
20
0.518433
11
0.323386
21
0.521917
0
LINE
8
BLACK
6
CONTINUOUS
10
0.323386
20
0.521917
11
0.321149
21
0.526307
0
LINE
8
BLACK
6
CONTINUOUS
10
0.321149
20
0.526307
11
0.320378
21
0.531173
0
LINE
8
BLACK
6
CONTINUOUS
10
0.320378
20
0.531173
11
0.320378
21
0.552827
0
LINE
8
BLACK
6
CONTINUOUS
10
0.320378
20
0.552827
11
0.321149
21
0.557693
0
LINE
8
BLACK
6
CONTINUOUS
10
0.321149
20
0.557693
11
0.323386
21
0.562083
0
LINE
8
BLACK
6
CONTINUOUS
10
0.323386
20
0.562083
11
0.32687
21
0.565567
0
LINE
8
BLACK
6
CONTINUOUS
10
0.32687
20
0.565567
11
0.33126
21
0.567804
0
LINE
8
BLACK
6
CONTINUOUS
10
0.33126
20
0.567804
11
0.336126
21
0.568575
0
LINE
8
BLACK
6
CONTINUOUS
10
0.336126
20
0.568575
11
0.351874
21
0.568575
0
LINE
8
BLACK
6
CONTINUOUS
10
0.351874
20
0.568575
11
0.35674
21
0.567804
0
LINE
8
BLACK
6
CONTINUOUS
10
0.29178
20
0.567804
11
0.29617
21
0.565567
0
LINE
8
BLACK
6
CONTINUOUS
10
0.29617
20
0.565567
11
0.299654
21
0.562083
0
LINE
8
BLACK
6
CONTINUOUS
10
0.299654
20
0.562083
11
0.301891
21
0.557693
0
LINE
8
BLACK
6
CONTINUOUS
10
0.301891
20
0.557693
11
0.302661
21
0.552827
0
LINE
8
BLACK
6
CONTINUOUS
10
0.302661
20
0.552827
11
0.302661
21
0.531173
0
LINE
8
BLACK
6
CONTINUOUS
10
0.302661
20
0.531173
11
0.301891
21
0.526307
0
LINE
8
BLACK
6
CONTINUOUS
10
0.301891
20
0.526307
11
0.299654
21
0.521917
0
LINE
8
BLACK
6
CONTINUOUS
10
0.299654
20
0.521917
11
0.29617
21
0.518433
0
LINE
8
BLACK
6
CONTINUOUS
10
0.29617
20
0.518433
11
0.29178
21
0.516196
0
LINE
8
BLACK
6
CONTINUOUS
10
0.29178
20
0.516196
11
0.286913
21
0.515425
0
LINE
8
BLACK
6
CONTINUOUS
10
0.286913
20
0.515425
11
0.271165
21
0.515425
0
LINE
8
BLACK
6
CONTINUOUS
10
0.271165
20
0.515425
11
0.266299
21
0.516196
0
LINE
8
BLACK
6
CONTINUOUS
10
0.266299
20
0.516196
11
0.261909
21
0.518433
0
LINE
8
BLACK
6
CONTINUOUS
10
0.261909
20
0.518433
11
0.258425
21
0.521917
0
LINE
8
BLACK
6
CONTINUOUS
10
0.258425
20
0.521917
11
0.256188
21
0.526307
0
LINE
8
BLACK
6
CONTINUOUS
10
0.256188
20
0.526307
11
0.255417
21
0.531173
0
LINE
8
BLACK
6
CONTINUOUS
10
0.255417
20
0.531173
11
0.255417
21
0.552827
0
LINE
8
BLACK
6
CONTINUOUS
10
0.255417
20
0.552827
11
0.256188
21
0.557693
0
LINE
8
BLACK
6
CONTINUOUS
10
0.256188
20
0.557693
11
0.258425
21
0.562083
0
LINE
8
BLACK
6
CONTINUOUS
10
0.258425
20
0.562083
11
0.261909
21
0.565567
0
LINE
8
BLACK
6
CONTINUOUS
10
0.261909
20
0.565567
11
0.266299
21
0.567804
0
LINE
8
BLACK
6
CONTINUOUS
10
0.266299
20
0.567804
11
0.271165
21
0.568575
0
LINE
8
BLACK
6
CONTINUOUS
10
0.271165
20
0.568575
11
0.286913
21
0.568575
0
LINE
8
BLACK
6
CONTINUOUS
10
0.286913
20
0.568575
11
0.29178
21
0.567804
0
LINE
8
BLACK
6
CONTINUOUS
10
0.660013
20
0.579772
11
0.664678
21
0.577395
0
LINE
8
BLACK
6
CONTINUOUS
10
0.664678
20
0.577395
11
0.668379
21
0.573693
0
LINE
8
BLACK
6
CONTINUOUS
10
0.668379
20
0.573693
11
0.670756
21
0.569029
0
LINE
8
BLACK
6
CONTINUOUS
10
0.670756
20
0.569029
11
0.671575
21
0.563858
0
LINE
8
BLACK
6
CONTINUOUS
10
0.671575
20
0.563858
11
0.671575
21
0.546142
0
LINE
8
BLACK
6
CONTINUOUS
10
0.671575
20
0.546142
11
0.670756
21
0.540971
0
LINE
8
BLACK
6
CONTINUOUS
10
0.670756
20
0.540971
11
0.668379
21
0.536307
0
LINE
8
BLACK
6
CONTINUOUS
10
0.668379
20
0.536307
11
0.664678
21
0.532605
0
LINE
8
BLACK
6
CONTINUOUS
10
0.664678
20
0.532605
11
0.660013
21
0.530228
0
LINE
8
BLACK
6
CONTINUOUS
10
0.660013
20
0.530228
11
0.654843
21
0.529409
0
LINE
8
BLACK
6
CONTINUOUS
10
0.654843
20
0.529409
11
0.635157
21
0.529409
0
LINE
8
BLACK
6
CONTINUOUS
10
0.635157
20
0.529409
11
0.629987
21
0.530228
0
LINE
8
BLACK
6
CONTINUOUS
10
0.629987
20
0.530228
11
0.625322
21
0.532605
0
LINE
8
BLACK
6
CONTINUOUS
10
0.625322
20
0.532605
11
0.621621
21
0.536307
0
LINE
8
BLACK
6
CONTINUOUS
10
0.621621
20
0.536307
11
0.619244
21
0.540971
0
LINE
8
BLACK
6
CONTINUOUS
10
0.619244
20
0.540971
11
0.618425
21
0.546142
0
LINE
8
BLACK
6
CONTINUOUS
10
0.618425
20
0.546142
11
0.618425
21
0.563858
0
LINE
8
BLACK
6
CONTINUOUS
10
0.618425
20
0.563858
11
0.619244
21
0.569029
0
LINE
8
BLACK
6
CONTINUOUS
10
0.619244
20
0.569029
11
0.621621
21
0.573693
0
LINE
8
BLACK
6
CONTINUOUS
10
0.621621
20
0.573693
11
0.625322
21
0.577395
0
LINE
8
BLACK
6
CONTINUOUS
10
0.625322
20
0.577395
11
0.629987
21
0.579772
0
LINE
8
BLACK
6
CONTINUOUS
10
0.629987
20
0.579772
11
0.635157
21
0.580591
0
LINE
8
BLACK
6
CONTINUOUS
10
0.635157
20
0.580591
11
0.654843
21
0.580591
0
LINE
8
BLACK
6
CONTINUOUS
10
0.654843
20
0.580591
11
0.660013
21
0.579772
0
LINE
8
BLACK
6
CONTINUOUS
10
0.214567
20
0.594898
11
0.218632
21
0.592911
0
LINE
8
BLACK
6
CONTINUOUS
10
0.218632
20
0.592911
11
0.221834
21
0.589714
0
LINE
8
BLACK
6
CONTINUOUS
10
0.221834
20
0.589714
11
0.223828
21
0.585653
0
LINE
8
BLACK
6
CONTINUOUS
10
0.223828
20
0.585653
11
0.224409
21
0.581693
0
LINE
8
BLACK
6
CONTINUOUS
10
0.224409
20
0.581693
11
0.224409
21
0.569882
0
LINE
8
BLACK
6
CONTINUOUS
10
0.224409
20
0.569882
11
0.223835
21
0.565945
0
LINE
8
BLACK
6
CONTINUOUS
10
0.223835
20
0.565945
11
0.221848
21
0.56188
0
LINE
8
BLACK
6
CONTINUOUS
10
0.221848
20
0.56188
11
0.218651
21
0.558678
0
LINE
8
BLACK
6
CONTINUOUS
10
0.218651
20
0.558678
11
0.21459
21
0.556684
0
LINE
8
BLACK
6
CONTINUOUS
10
0.21459
20
0.556684
11
0.21063
21
0.556102
0
LINE
8
BLACK
6
CONTINUOUS
10
0.21063
20
0.556102
11
0.155512
21
0.556102
0
LINE
8
BLACK
6
CONTINUOUS
10
0.155512
20
0.556102
11
0.151575
21
0.556677
0
LINE
8
BLACK
6
CONTINUOUS
10
0.151575
20
0.556677
11
0.14751
21
0.558664
0
LINE
8
BLACK
6
CONTINUOUS
10
0.14751
20
0.558664
11
0.144308
21
0.561861
0
LINE
8
BLACK
6
CONTINUOUS
10
0.144308
20
0.561861
11
0.142313
21
0.565922
0
LINE
8
BLACK
6
CONTINUOUS
10
0.142313
20
0.565922
11
0.141732
21
0.569882
0
LINE
8
BLACK
6
CONTINUOUS
10
0.141732
20
0.569882
11
0.141732
21
0.581693
0
LINE
8
BLACK
6
CONTINUOUS
10
0.141732
20
0.581693
11
0.142307
21
0.58563
0
LINE
8
BLACK
6
CONTINUOUS
10
0.142307
20
0.58563
11
0.144294
21
0.589695
0
LINE
8
BLACK
6
CONTINUOUS
10
0.144294
20
0.589695
11
0.14749
21
0.592897
0
LINE
8
BLACK
6
CONTINUOUS
10
0.14749
20
0.592897
11
0.151552
21
0.594891
0
LINE
8
BLACK
6
CONTINUOUS
10
0.151552
20
0.594891
11
0.155512
21
0.595472
0
LINE
8
BLACK
6
CONTINUOUS
10
0.155512
20
0.595472
11
0.21063
21
0.595472
0
LINE
8
BLACK
6
CONTINUOUS
10
0.21063
20
0.595472
11
0.214567
21
0.594898
0
LINE
8
BLACK
6
CONTINUOUS
10
0.832677
20
0.594898
11
0.836742
21
0.592911
0
LINE
8
BLACK
6
CONTINUOUS
10
0.836742
20
0.592911
11
0.839944
21
0.589714
0
LINE
8
BLACK
6
CONTINUOUS
10
0.839944
20
0.589714
11
0.841939
21
0.585653
0
LINE
8
BLACK
6
CONTINUOUS
10
0.841939
20
0.585653
11
0.84252
21
0.581693
0
LINE
8
BLACK
6
CONTINUOUS
10
0.84252
20
0.581693
11
0.84252
21
0.569882
0
LINE
8
BLACK
6
CONTINUOUS
10
0.84252
20
0.569882
11
0.841945
21
0.565945
0
LINE
8
BLACK
6
CONTINUOUS
10
0.841945
20
0.565945
11
0.839958
21
0.56188
0
LINE
8
BLACK
6
CONTINUOUS
10
0.839958
20
0.56188
11
0.836762
21
0.558678
0
LINE
8
BLACK
6
CONTINUOUS
10
0.836762
20
0.558678
11
0.8327
21
0.556684
0
LINE
8
BLACK
6
CONTINUOUS
10
0.8327
20
0.556684
11
0.82874
21
0.556102
0
LINE
8
BLACK
6
CONTINUOUS
10
0.82874
20
0.556102
11
0.773622
21
0.556102
0
LINE
8
BLACK
6
CONTINUOUS
10
0.773622
20
0.556102
11
0.769685
21
0.556677
0
LINE
8
BLACK
6
CONTINUOUS
10
0.769685
20
0.556677
11
0.76562
21
0.558664
0
LINE
8
BLACK
6
CONTINUOUS
10
0.76562
20
0.558664
11
0.762418
21
0.561861
0
LINE
8
BLACK
6
CONTINUOUS
10
0.762418
20
0.561861
11
0.760424
21
0.565922
0
LINE
8
BLACK
6
CONTINUOUS
10
0.760424
20
0.565922
11
0.759843
21
0.569882
0
LINE
8
BLACK
6
CONTINUOUS
10
0.759843
20
0.569882
11
0.759843
21
0.581693
0
LINE
8
BLACK
6
CONTINUOUS
10
0.759843
20
0.581693
11
0.760417
21
0.58563
0
LINE
8
BLACK
6
CONTINUOUS
10
0.760417
20
0.58563
11
0.762404
21
0.589695
0
LINE
8
BLACK
6
CONTINUOUS
10
0.762404
20
0.589695
11
0.765601
21
0.592897
0
LINE
8
BLACK
6
CONTINUOUS
10
0.765601
20
0.592897
11
0.769662
21
0.594891
0
LINE
8
BLACK
6
CONTINUOUS
10
0.769662
20
0.594891
11
0.773622
21
0.595472
0
LINE
8
BLACK
6
CONTINUOUS
10
0.773622
20
0.595472
11
0.82874
21
0.595472
0
LINE
8
BLACK
6
CONTINUOUS
10
0.82874
20
0.595472
11
0.832677
21
0.594898
0
LINE
8
BLACK
6
CONTINUOUS
10
0.330654
20
0.640851
11
0.335044
21
0.638614
0
LINE
8
BLACK
6
CONTINUOUS
10
0.335044
20
0.638614
11
0.338528
21
0.63513
0
LINE
8
BLACK
6
CONTINUOUS
10
0.338528
20
0.63513
11
0.340765
21
0.63074
0
LINE
8
BLACK
6
CONTINUOUS
10
0.340765
20
0.63074
11
0.341535
21
0.625874
0
LINE
8
BLACK
6
CONTINUOUS
10
0.341535
20
0.625874
11
0.341535
21
0.610126
0
LINE
8
BLACK
6
CONTINUOUS
10
0.341535
20
0.610126
11
0.340765
21
0.60526
0
LINE
8
BLACK
6
CONTINUOUS
10
0.340765
20
0.60526
11
0.338528
21
0.60087
0
LINE
8
BLACK
6
CONTINUOUS
10
0.338528
20
0.60087
11
0.335044
21
0.597386
0
LINE
8
BLACK
6
CONTINUOUS
10
0.335044
20
0.597386
11
0.330654
21
0.595149
0
LINE
8
BLACK
6
CONTINUOUS
10
0.330654
20
0.595149
11
0.325787
21
0.594378
0
LINE
8
BLACK
6
CONTINUOUS
10
0.325787
20
0.594378
11
0.304134
21
0.594378
0
LINE
8
BLACK
6
CONTINUOUS
10
0.304134
20
0.594378
11
0.299267
21
0.595149
0
LINE
8
BLACK
6
CONTINUOUS
10
0.299267
20
0.595149
11
0.294877
21
0.597386
0
LINE
8
BLACK
6
CONTINUOUS
10
0.294877
20
0.597386
11
0.291393
21
0.60087
0
LINE
8
BLACK
6
CONTINUOUS
10
0.291393
20
0.60087
11
0.289157
21
0.60526
0
LINE
8
BLACK
6
CONTINUOUS
10
0.289157
20
0.60526
11
0.288386
21
0.610126
0
LINE
8
BLACK
6
CONTINUOUS
10
0.288386
20
0.610126
11
0.288386
21
0.625874
0
LINE
8
BLACK
6
CONTINUOUS
10
0.288386
20
0.625874
11
0.289157
21
0.63074
0
LINE
8
BLACK
6
CONTINUOUS
10
0.289157
20
0.63074
11
0.291393
21
0.63513
0
LINE
8
BLACK
6
CONTINUOUS
10
0.291393
20
0.63513
11
0.294877
21
0.638614
0
LINE
8
BLACK
6
CONTINUOUS
10
0.294877
20
0.638614
11
0.299267
21
0.640851
0
LINE
8
BLACK
6
CONTINUOUS
10
0.299267
20
0.640851
11
0.304134
21
0.641622
0
LINE
8
BLACK
6
CONTINUOUS
10
0.304134
20
0.641622
11
0.325787
21
0.641622
0
LINE
8
BLACK
6
CONTINUOUS
10
0.325787
20
0.641622
11
0.330654
21
0.640851
0
LINE
8
BLACK
6
CONTINUOUS
10
0.684985
20
0.642371
11
0.689375
21
0.640134
0
LINE
8
BLACK
6
CONTINUOUS
10
0.689375
20
0.640134
11
0.692859
21
0.63665
0
LINE
8
BLACK
6
CONTINUOUS
10
0.692859
20
0.63665
11
0.695095
21
0.63226
0
LINE
8
BLACK
6
CONTINUOUS
10
0.695095
20
0.63226
11
0.695866
21
0.627394
0
LINE
8
BLACK
6
CONTINUOUS
10
0.695866
20
0.627394
11
0.695866
21
0.611646
0
LINE
8
BLACK
6
CONTINUOUS
10
0.695866
20
0.611646
11
0.695095
21
0.606779
0
LINE
8
BLACK
6
CONTINUOUS
10
0.695095
20
0.606779
11
0.692859
21
0.602389
0
LINE
8
BLACK
6
CONTINUOUS
10
0.692859
20
0.602389
11
0.689375
21
0.598905
0
LINE
8
BLACK
6
CONTINUOUS
10
0.689375
20
0.598905
11
0.684985
21
0.596668
0
LINE
8
BLACK
6
CONTINUOUS
10
0.684985
20
0.596668
11
0.680118
21
0.595898
0
LINE
8
BLACK
6
CONTINUOUS
10
0.680118
20
0.595898
11
0.658465
21
0.595898
0
LINE
8
BLACK
6
CONTINUOUS
10
0.658465
20
0.595898
11
0.653598
21
0.596668
0
LINE
8
BLACK
6
CONTINUOUS
10
0.653598
20
0.596668
11
0.649208
21
0.598905
0
LINE
8
BLACK
6
CONTINUOUS
10
0.649208
20
0.598905
11
0.645724
21
0.602389
0
LINE
8
BLACK
6
CONTINUOUS
10
0.645724
20
0.602389
11
0.643487
21
0.606779
0
LINE
8
BLACK
6
CONTINUOUS
10
0.643487
20
0.606779
11
0.642717
21
0.611646
0
LINE
8
BLACK
6
CONTINUOUS
10
0.642717
20
0.611646
11
0.642717
21
0.627394
0
LINE
8
BLACK
6
CONTINUOUS
10
0.642717
20
0.627394
11
0.643487
21
0.63226
0
LINE
8
BLACK
6
CONTINUOUS
10
0.643487
20
0.63226
11
0.645724
21
0.63665
0
LINE
8
BLACK
6
CONTINUOUS
10
0.645724
20
0.63665
11
0.649208
21
0.640134
0
LINE
8
BLACK
6
CONTINUOUS
10
0.649208
20
0.640134
11
0.653598
21
0.642371
0
LINE
8
BLACK
6
CONTINUOUS
10
0.653598
20
0.642371
11
0.658465
21
0.643142
0
LINE
8
BLACK
6
CONTINUOUS
10
0.658465
20
0.643142
11
0.680118
21
0.643142
0
LINE
8
BLACK
6
CONTINUOUS
10
0.680118
20
0.643142
11
0.684985
21
0.642371
0
LINE
8
BLACK
6
CONTINUOUS
10
0.214567
20
0.644111
11
0.218632
21
0.642124
0
LINE
8
BLACK
6
CONTINUOUS
10
0.218632
20
0.642124
11
0.221834
21
0.638927
0
LINE
8
BLACK
6
CONTINUOUS
10
0.221834
20
0.638927
11
0.223828
21
0.634865
0
LINE
8
BLACK
6
CONTINUOUS
10
0.223828
20
0.634865
11
0.224409
21
0.630906
0
LINE
8
BLACK
6
CONTINUOUS
10
0.224409
20
0.630906
11
0.224409
21
0.619094
0
LINE
8
BLACK
6
CONTINUOUS
10
0.224409
20
0.619094
11
0.223835
21
0.615158
0
LINE
8
BLACK
6
CONTINUOUS
10
0.223835
20
0.615158
11
0.221848
21
0.611093
0
LINE
8
BLACK
6
CONTINUOUS
10
0.221848
20
0.611093
11
0.218651
21
0.60789
0
LINE
8
BLACK
6
CONTINUOUS
10
0.218651
20
0.60789
11
0.21459
21
0.605896
0
LINE
8
BLACK
6
CONTINUOUS
10
0.21459
20
0.605896
11
0.21063
21
0.605315
0
LINE
8
BLACK
6
CONTINUOUS
10
0.21063
20
0.605315
11
0.155512
21
0.605315
0
LINE
8
BLACK
6
CONTINUOUS
10
0.155512
20
0.605315
11
0.151575
21
0.605889
0
LINE
8
BLACK
6
CONTINUOUS
10
0.151575
20
0.605889
11
0.14751
21
0.607876
0
LINE
8
BLACK
6
CONTINUOUS
10
0.14751
20
0.607876
11
0.144308
21
0.611073
0
LINE
8
BLACK
6
CONTINUOUS
10
0.144308
20
0.611073
11
0.142313
21
0.615135
0
LINE
8
BLACK
6
CONTINUOUS
10
0.142313
20
0.615135
11
0.141732
21
0.619094
0
LINE
8
BLACK
6
CONTINUOUS
10
0.141732
20
0.619094
11
0.141732
21
0.630906
0
LINE
8
BLACK
6
CONTINUOUS
10
0.141732
20
0.630906
11
0.142307
21
0.634842
0
LINE
8
BLACK
6
CONTINUOUS
10
0.142307
20
0.634842
11
0.144294
21
0.638907
0
LINE
8
BLACK
6
CONTINUOUS
10
0.144294
20
0.638907
11
0.14749
21
0.64211
0
LINE
8
BLACK
6
CONTINUOUS
10
0.14749
20
0.64211
11
0.151552
21
0.644104
0
LINE
8
BLACK
6
CONTINUOUS
10
0.151552
20
0.644104
11
0.155512
21
0.644685
0
LINE
8
BLACK
6
CONTINUOUS
10
0.155512
20
0.644685
11
0.21063
21
0.644685
0
LINE
8
BLACK
6
CONTINUOUS
10
0.21063
20
0.644685
11
0.214567
21
0.644111
0
LINE
8
BLACK
6
CONTINUOUS
10
0.832677
20
0.644111
11
0.836742
21
0.642124
0
LINE
8
BLACK
6
CONTINUOUS
10
0.836742
20
0.642124
11
0.839944
21
0.638927
0
LINE
8
BLACK
6
CONTINUOUS
10
0.839944
20
0.638927
11
0.841939
21
0.634865
0
LINE
8
BLACK
6
CONTINUOUS
10
0.841939
20
0.634865
11
0.84252
21
0.630906
0
LINE
8
BLACK
6
CONTINUOUS
10
0.84252
20
0.630906
11
0.84252
21
0.619094
0
LINE
8
BLACK
6
CONTINUOUS
10
0.84252
20
0.619094
11
0.841945
21
0.615158
0
LINE
8
BLACK
6
CONTINUOUS
10
0.841945
20
0.615158
11
0.839958
21
0.611093
0
LINE
8
BLACK
6
CONTINUOUS
10
0.839958
20
0.611093
11
0.836762
21
0.60789
0
LINE
8
BLACK
6
CONTINUOUS
10
0.836762
20
0.60789
11
0.8327
21
0.605896
0
LINE
8
BLACK
6
CONTINUOUS
10
0.8327
20
0.605896
11
0.82874
21
0.605315
0
LINE
8
BLACK
6
CONTINUOUS
10
0.82874
20
0.605315
11
0.773622
21
0.605315
0
LINE
8
BLACK
6
CONTINUOUS
10
0.773622
20
0.605315
11
0.769685
21
0.605889
0
LINE
8
BLACK
6
CONTINUOUS
10
0.769685
20
0.605889
11
0.76562
21
0.607876
0
LINE
8
BLACK
6
CONTINUOUS
10
0.76562
20
0.607876
11
0.762418
21
0.611073
0
LINE
8
BLACK
6
CONTINUOUS
10
0.762418
20
0.611073
11
0.760424
21
0.615135
0
LINE
8
BLACK
6
CONTINUOUS
10
0.760424
20
0.615135
11
0.759843
21
0.619094
0
LINE
8
BLACK
6
CONTINUOUS
10
0.759843
20
0.619094
11
0.759843
21
0.630906
0
LINE
8
BLACK
6
CONTINUOUS
10
0.759843
20
0.630906
11
0.760417
21
0.634842
0
LINE
8
BLACK
6
CONTINUOUS
10
0.760417
20
0.634842
11
0.762404
21
0.638907
0
LINE
8
BLACK
6
CONTINUOUS
10
0.762404
20
0.638907
11
0.765601
21
0.64211
0
LINE
8
BLACK
6
CONTINUOUS
10
0.765601
20
0.64211
11
0.769662
21
0.644104
0
LINE
8
BLACK
6
CONTINUOUS
10
0.769662
20
0.644104
11
0.773622
21
0.644685
0
LINE
8
BLACK
6
CONTINUOUS
10
0.773622
20
0.644685
11
0.82874
21
0.644685
0
LINE
8
BLACK
6
CONTINUOUS
10
0.82874
20
0.644685
11
0.832677
21
0.644111
0
LINE
8
BLACK
6
CONTINUOUS
10
0.214567
20
0.693323
11
0.218632
21
0.691336
0
LINE
8
BLACK
6
CONTINUOUS
10
0.218632
20
0.691336
11
0.221834
21
0.688139
0
LINE
8
BLACK
6
CONTINUOUS
10
0.221834
20
0.688139
11
0.223828
21
0.684078
0
LINE
8
BLACK
6
CONTINUOUS
10
0.223828
20
0.684078
11
0.224409
21
0.680118
0
LINE
8
BLACK
6
CONTINUOUS
10
0.224409
20
0.680118
11
0.224409
21
0.668307
0
LINE
8
BLACK
6
CONTINUOUS
10
0.224409
20
0.668307
11
0.223835
21
0.66437
0
LINE
8
BLACK
6
CONTINUOUS
10
0.223835
20
0.66437
11
0.221848
21
0.660305
0
LINE
8
BLACK
6
CONTINUOUS
10
0.221848
20
0.660305
11
0.218651
21
0.657103
0
LINE
8
BLACK
6
CONTINUOUS
10
0.218651
20
0.657103
11
0.21459
21
0.655109
0
LINE
8
BLACK
6
CONTINUOUS
10
0.21459
20
0.655109
11
0.21063
21
0.654528
0
LINE
8
BLACK
6
CONTINUOUS
10
0.21063
20
0.654528
11
0.155512
21
0.654528
0
LINE
8
BLACK
6
CONTINUOUS
10
0.155512
20
0.654528
11
0.151575
21
0.655102
0
LINE
8
BLACK
6
CONTINUOUS
10
0.151575
20
0.655102
11
0.14751
21
0.657089
0
LINE
8
BLACK
6
CONTINUOUS
10
0.14751
20
0.657089
11
0.144308
21
0.660286
0
LINE
8
BLACK
6
CONTINUOUS
10
0.144308
20
0.660286
11
0.142313
21
0.664347
0
LINE
8
BLACK
6
CONTINUOUS
10
0.142313
20
0.664347
11
0.141732
21
0.668307
0
LINE
8
BLACK
6
CONTINUOUS
10
0.141732
20
0.668307
11
0.141732
21
0.680118
0
LINE
8
BLACK
6
CONTINUOUS
10
0.141732
20
0.680118
11
0.142307
21
0.684055
0
LINE
8
BLACK
6
CONTINUOUS
10
0.142307
20
0.684055
11
0.144294
21
0.68812
0
LINE
8
BLACK
6
CONTINUOUS
10
0.144294
20
0.68812
11
0.14749
21
0.691322
0
LINE
8
BLACK
6
CONTINUOUS
10
0.14749
20
0.691322
11
0.151552
21
0.693316
0
LINE
8
BLACK
6
CONTINUOUS
10
0.151552
20
0.693316
11
0.155512
21
0.693898
0
LINE
8
BLACK
6
CONTINUOUS
10
0.155512
20
0.693898
11
0.21063
21
0.693898
0
LINE
8
BLACK
6
CONTINUOUS
10
0.21063
20
0.693898
11
0.214567
21
0.693323
0
LINE
8
BLACK
6
CONTINUOUS
10
0.832677
20
0.693323
11
0.836742
21
0.691336
0
LINE
8
BLACK
6
CONTINUOUS
10
0.836742
20
0.691336
11
0.839944
21
0.688139
0
LINE
8
BLACK
6
CONTINUOUS
10
0.839944
20
0.688139
11
0.841939
21
0.684078
0
LINE
8
BLACK
6
CONTINUOUS
10
0.841939
20
0.684078
11
0.84252
21
0.680118
0
LINE
8
BLACK
6
CONTINUOUS
10
0.84252
20
0.680118
11
0.84252
21
0.668307
0
LINE
8
BLACK
6
CONTINUOUS
10
0.84252
20
0.668307
11
0.841945
21
0.66437
0
LINE
8
BLACK
6
CONTINUOUS
10
0.841945
20
0.66437
11
0.839958
21
0.660305
0
LINE
8
BLACK
6
CONTINUOUS
10
0.839958
20
0.660305
11
0.836762
21
0.657103
0
LINE
8
BLACK
6
CONTINUOUS
10
0.836762
20
0.657103
11
0.8327
21
0.655109
0
LINE
8
BLACK
6
CONTINUOUS
10
0.8327
20
0.655109
11
0.82874
21
0.654528
0
LINE
8
BLACK
6
CONTINUOUS
10
0.82874
20
0.654528
11
0.773622
21
0.654528
0
LINE
8
BLACK
6
CONTINUOUS
10
0.773622
20
0.654528
11
0.769685
21
0.655102
0
LINE
8
BLACK
6
CONTINUOUS
10
0.769685
20
0.655102
11
0.76562
21
0.657089
0
LINE
8
BLACK
6
CONTINUOUS
10
0.76562
20
0.657089
11
0.762418
21
0.660286
0
LINE
8
BLACK
6
CONTINUOUS
10
0.762418
20
0.660286
11
0.760424
21
0.664347
0
LINE
8
BLACK
6
CONTINUOUS
10
0.760424
20
0.664347
11
0.759843
21
0.668307
0
LINE
8
BLACK
6
CONTINUOUS
10
0.759843
20
0.668307
11
0.759843
21
0.680118
0
LINE
8
BLACK
6
CONTINUOUS
10
0.759843
20
0.680118
11
0.760417
21
0.684055
0
LINE
8
BLACK
6
CONTINUOUS
10
0.760417
20
0.684055
11
0.762404
21
0.68812
0
LINE
8
BLACK
6
CONTINUOUS
10
0.762404
20
0.68812
11
0.765601
21
0.691322
0
LINE
8
BLACK
6
CONTINUOUS
10
0.765601
20
0.691322
11
0.769662
21
0.693316
0
LINE
8
BLACK
6
CONTINUOUS
10
0.769662
20
0.693316
11
0.773622
21
0.693898
0
LINE
8
BLACK
6
CONTINUOUS
10
0.773622
20
0.693898
11
0.82874
21
0.693898
0
LINE
8
BLACK
6
CONTINUOUS
10
0.82874
20
0.693898
11
0.832677
21
0.693323
0
LINE
8
BLACK
6
CONTINUOUS
10
0.330654
20
0.705812
11
0.335044
21
0.703575
0
LINE
8
BLACK
6
CONTINUOUS
10
0.335044
20
0.703575
11
0.338528
21
0.700091
0
LINE
8
BLACK
6
CONTINUOUS
10
0.338528
20
0.700091
11
0.340765
21
0.695701
0
LINE
8
BLACK
6
CONTINUOUS
10
0.340765
20
0.695701
11
0.341535
21
0.690835
0
LINE
8
BLACK
6
CONTINUOUS
10
0.341535
20
0.690835
11
0.341535
21
0.675087
0
LINE
8
BLACK
6
CONTINUOUS
10
0.341535
20
0.675087
11
0.340765
21
0.67022
0
LINE
8
BLACK
6
CONTINUOUS
10
0.340765
20
0.67022
11
0.338528
21
0.66583
0
LINE
8
BLACK
6
CONTINUOUS
10
0.338528
20
0.66583
11
0.335044
21
0.662346
0
LINE
8
BLACK
6
CONTINUOUS
10
0.335044
20
0.662346
11
0.330654
21
0.660109
0
LINE
8
BLACK
6
CONTINUOUS
10
0.330654
20
0.660109
11
0.325787
21
0.659339
0
LINE
8
BLACK
6
CONTINUOUS
10
0.325787
20
0.659339
11
0.304134
21
0.659339
0
LINE
8
BLACK
6
CONTINUOUS
10
0.304134
20
0.659339
11
0.299267
21
0.660109
0
LINE
8
BLACK
6
CONTINUOUS
10
0.299267
20
0.660109
11
0.294877
21
0.662346
0
LINE
8
BLACK
6
CONTINUOUS
10
0.294877
20
0.662346
11
0.291393
21
0.66583
0
LINE
8
BLACK
6
CONTINUOUS
10
0.291393
20
0.66583
11
0.289157
21
0.67022
0
LINE
8
BLACK
6
CONTINUOUS
10
0.289157
20
0.67022
11
0.288386
21
0.675087
0
LINE
8
BLACK
6
CONTINUOUS
10
0.288386
20
0.675087
11
0.288386
21
0.690835
0
LINE
8
BLACK
6
CONTINUOUS
10
0.288386
20
0.690835
11
0.289157
21
0.695701
0
LINE
8
BLACK
6
CONTINUOUS
10
0.289157
20
0.695701
11
0.291393
21
0.700091
0
LINE
8
BLACK
6
CONTINUOUS
10
0.291393
20
0.700091
11
0.294877
21
0.703575
0
LINE
8
BLACK
6
CONTINUOUS
10
0.294877
20
0.703575
11
0.299267
21
0.705812
0
LINE
8
BLACK
6
CONTINUOUS
10
0.299267
20
0.705812
11
0.304134
21
0.706583
0
LINE
8
BLACK
6
CONTINUOUS
10
0.304134
20
0.706583
11
0.325787
21
0.706583
0
LINE
8
BLACK
6
CONTINUOUS
10
0.325787
20
0.706583
11
0.330654
21
0.705812
0
LINE
8
BLACK
6
CONTINUOUS
10
0.684985
20
0.707332
11
0.689375
21
0.705095
0
LINE
8
BLACK
6
CONTINUOUS
10
0.689375
20
0.705095
11
0.692859
21
0.701611
0
LINE
8
BLACK
6
CONTINUOUS
10
0.692859
20
0.701611
11
0.695095
21
0.697221
0
LINE
8
BLACK
6
CONTINUOUS
10
0.695095
20
0.697221
11
0.695866
21
0.692354
0
LINE
8
BLACK
6
CONTINUOUS
10
0.695866
20
0.692354
11
0.695866
21
0.676606
0
LINE
8
BLACK
6
CONTINUOUS
10
0.695866
20
0.676606
11
0.695095
21
0.67174
0
LINE
8
BLACK
6
CONTINUOUS
10
0.695095
20
0.67174
11
0.692859
21
0.66735
0
LINE
8
BLACK
6
CONTINUOUS
10
0.692859
20
0.66735
11
0.689375
21
0.663866
0
LINE
8
BLACK
6
CONTINUOUS
10
0.689375
20
0.663866
11
0.684985
21
0.661629
0
LINE
8
BLACK
6
CONTINUOUS
10
0.684985
20
0.661629
11
0.680118
21
0.660858
0
LINE
8
BLACK
6
CONTINUOUS
10
0.680118
20
0.660858
11
0.658465
21
0.660858
0
LINE
8
BLACK
6
CONTINUOUS
10
0.658465
20
0.660858
11
0.653598
21
0.661629
0
LINE
8
BLACK
6
CONTINUOUS
10
0.653598
20
0.661629
11
0.649208
21
0.663866
0
LINE
8
BLACK
6
CONTINUOUS
10
0.649208
20
0.663866
11
0.645724
21
0.66735
0
LINE
8
BLACK
6
CONTINUOUS
10
0.645724
20
0.66735
11
0.643487
21
0.67174
0
LINE
8
BLACK
6
CONTINUOUS
10
0.643487
20
0.67174
11
0.642717
21
0.676606
0
LINE
8
BLACK
6
CONTINUOUS
10
0.642717
20
0.676606
11
0.642717
21
0.692354
0
LINE
8
BLACK
6
CONTINUOUS
10
0.642717
20
0.692354
11
0.643487
21
0.697221
0
LINE
8
BLACK
6
CONTINUOUS
10
0.643487
20
0.697221
11
0.645724
21
0.701611
0
LINE
8
BLACK
6
CONTINUOUS
10
0.645724
20
0.701611
11
0.649208
21
0.705095
0
LINE
8
BLACK
6
CONTINUOUS
10
0.649208
20
0.705095
11
0.653598
21
0.707332
0
LINE
8
BLACK
6
CONTINUOUS
10
0.653598
20
0.707332
11
0.658465
21
0.708102
0
LINE
8
BLACK
6
CONTINUOUS
10
0.658465
20
0.708102
11
0.680118
21
0.708102
0
LINE
8
BLACK
6
CONTINUOUS
10
0.680118
20
0.708102
11
0.684985
21
0.707332
0
LINE
8
BLACK
6
CONTINUOUS
10
0.604276
20
0.730804
11
0.608666
21
0.728567
0
LINE
8
BLACK
6
CONTINUOUS
10
0.608666
20
0.728567
11
0.61215
21
0.725083
0
LINE
8
BLACK
6
CONTINUOUS
10
0.61215
20
0.725083
11
0.614387
21
0.720693
0
LINE
8
BLACK
6
CONTINUOUS
10
0.614387
20
0.720693
11
0.615157
21
0.715827
0
LINE
8
BLACK
6
CONTINUOUS
10
0.615157
20
0.715827
11
0.615157
21
0.694173
0
LINE
8
BLACK
6
CONTINUOUS
10
0.615157
20
0.694173
11
0.614387
21
0.689307
0
LINE
8
BLACK
6
CONTINUOUS
10
0.614387
20
0.689307
11
0.61215
21
0.684917
0
LINE
8
BLACK
6
CONTINUOUS
10
0.61215
20
0.684917
11
0.608666
21
0.681433
0
LINE
8
BLACK
6
CONTINUOUS
10
0.608666
20
0.681433
11
0.604276
21
0.679196
0
LINE
8
BLACK
6
CONTINUOUS
10
0.604276
20
0.679196
11
0.599409
21
0.678425
0
LINE
8
BLACK
6
CONTINUOUS
10
0.599409
20
0.678425
11
0.583661
21
0.678425
0
LINE
8
BLACK
6
CONTINUOUS
10
0.583661
20
0.678425
11
0.578795
21
0.679196
0
LINE
8
BLACK
6
CONTINUOUS
10
0.578795
20
0.679196
11
0.574405
21
0.681433
0
LINE
8
BLACK
6
CONTINUOUS
10
0.574405
20
0.681433
11
0.570921
21
0.684917
0
LINE
8
BLACK
6
CONTINUOUS
10
0.570921
20
0.684917
11
0.568684
21
0.689307
0
LINE
8
BLACK
6
CONTINUOUS
10
0.568684
20
0.689307
11
0.567913
21
0.694173
0
LINE
8
BLACK
6
CONTINUOUS
10
0.567913
20
0.694173
11
0.567913
21
0.715827
0
LINE
8
BLACK
6
CONTINUOUS
10
0.567913
20
0.715827
11
0.568684
21
0.720693
0
LINE
8
BLACK
6
CONTINUOUS
10
0.568684
20
0.720693
11
0.570921
21
0.725083
0
LINE
8
BLACK
6
CONTINUOUS
10
0.570921
20
0.725083
11
0.574405
21
0.728567
0
LINE
8
BLACK
6
CONTINUOUS
10
0.574405
20
0.728567
11
0.578795
21
0.730804
0
LINE
8
BLACK
6
CONTINUOUS
10
0.578795
20
0.730804
11
0.583661
21
0.731575
0
LINE
8
BLACK
6
CONTINUOUS
10
0.583661
20
0.731575
11
0.599409
21
0.731575
0
LINE
8
BLACK
6
CONTINUOUS
10
0.599409
20
0.731575
11
0.604276
21
0.730804
0
LINE
8
BLACK
6
CONTINUOUS
10
0.470418
20
0.730804
11
0.474808
21
0.728567
0
LINE
8
BLACK
6
CONTINUOUS
10
0.474808
20
0.728567
11
0.478292
21
0.725083
0
LINE
8
BLACK
6
CONTINUOUS
10
0.478292
20
0.725083
11
0.480528
21
0.720693
0
LINE
8
BLACK
6
CONTINUOUS
10
0.480528
20
0.720693
11
0.481299
21
0.715827
0
LINE
8
BLACK
6
CONTINUOUS
10
0.481299
20
0.715827
11
0.481299
21
0.694173
0
LINE
8
BLACK
6
CONTINUOUS
10
0.481299
20
0.694173
11
0.480528
21
0.689307
0
LINE
8
BLACK
6
CONTINUOUS
10
0.480528
20
0.689307
11
0.478292
21
0.684917
0
LINE
8
BLACK
6
CONTINUOUS
10
0.478292
20
0.684917
11
0.474808
21
0.681433
0
LINE
8
BLACK
6
CONTINUOUS
10
0.474808
20
0.681433
11
0.470418
21
0.679196
0
LINE
8
BLACK
6
CONTINUOUS
10
0.470418
20
0.679196
11
0.465551
21
0.678425
0
LINE
8
BLACK
6
CONTINUOUS
10
0.465551
20
0.678425
11
0.449803
21
0.678425
0
LINE
8
BLACK
6
CONTINUOUS
10
0.449803
20
0.678425
11
0.444937
21
0.679196
0
LINE
8
BLACK
6
CONTINUOUS
10
0.444937
20
0.679196
11
0.440547
21
0.681433
0
LINE
8
BLACK
6
CONTINUOUS
10
0.440547
20
0.681433
11
0.437063
21
0.684917
0
LINE
8
BLACK
6
CONTINUOUS
10
0.437063
20
0.684917
11
0.434826
21
0.689307
0
LINE
8
BLACK
6
CONTINUOUS
10
0.434826
20
0.689307
11
0.434055
21
0.694173
0
LINE
8
BLACK
6
CONTINUOUS
10
0.434055
20
0.694173
11
0.434055
21
0.715827
0
LINE
8
BLACK
6
CONTINUOUS
10
0.434055
20
0.715827
11
0.434826
21
0.720693
0
LINE
8
BLACK
6
CONTINUOUS
10
0.434826
20
0.720693
11
0.437063
21
0.725083
0
LINE
8
BLACK
6
CONTINUOUS
10
0.437063
20
0.725083
11
0.440547
21
0.728567
0
LINE
8
BLACK
6
CONTINUOUS
10
0.440547
20
0.728567
11
0.444937
21
0.730804
0
LINE
8
BLACK
6
CONTINUOUS
10
0.444937
20
0.730804
11
0.449803
21
0.731575
0
LINE
8
BLACK
6
CONTINUOUS
10
0.449803
20
0.731575
11
0.465551
21
0.731575
0
LINE
8
BLACK
6
CONTINUOUS
10
0.465551
20
0.731575
11
0.470418
21
0.730804
0
LINE
8
BLACK
6
CONTINUOUS
10
0.405457
20
0.730804
11
0.409847
21
0.728567
0
LINE
8
BLACK
6
CONTINUOUS
10
0.409847
20
0.728567
11
0.413331
21
0.725083
0
LINE
8
BLACK
6
CONTINUOUS
10
0.413331
20
0.725083
11
0.415568
21
0.720693
0
LINE
8
BLACK
6
CONTINUOUS
10
0.415568
20
0.720693
11
0.416339
21
0.715827
0
LINE
8
BLACK
6
CONTINUOUS
10
0.416339
20
0.715827
11
0.416339
21
0.694173
0
LINE
8
BLACK
6
CONTINUOUS
10
0.416339
20
0.694173
11
0.415568
21
0.689307
0
LINE
8
BLACK
6
CONTINUOUS
10
0.415568
20
0.689307
11
0.413331
21
0.684917
0
LINE
8
BLACK
6
CONTINUOUS
10
0.413331
20
0.684917
11
0.409847
21
0.681433
0
LINE
8
BLACK
6
CONTINUOUS
10
0.409847
20
0.681433
11
0.405457
21
0.679196
0
LINE
8
BLACK
6
CONTINUOUS
10
0.405457
20
0.679196
11
0.400591
21
0.678425
0
LINE
8
BLACK
6
CONTINUOUS
10
0.400591
20
0.678425
11
0.384843
21
0.678425
0
LINE
8
BLACK
6
CONTINUOUS
10
0.384843
20
0.678425
11
0.379976
21
0.679196
0
LINE
8
BLACK
6
CONTINUOUS
10
0.379976
20
0.679196
11
0.375586
21
0.681433
0
LINE
8
BLACK
6
CONTINUOUS
10
0.375586
20
0.681433
11
0.372102
21
0.684917
0
LINE
8
BLACK
6
CONTINUOUS
10
0.372102
20
0.684917
11
0.369865
21
0.689307
0
LINE
8
BLACK
6
CONTINUOUS
10
0.369865
20
0.689307
11
0.369094
21
0.694173
0
LINE
8
BLACK
6
CONTINUOUS
10
0.369094
20
0.694173
11
0.369094
21
0.715827
0
LINE
8
BLACK
6
CONTINUOUS
10
0.369094
20
0.715827
11
0.369865
21
0.720693
0
LINE
8
BLACK
6
CONTINUOUS
10
0.369865
20
0.720693
11
0.372102
21
0.725083
0
LINE
8
BLACK
6
CONTINUOUS
10
0.372102
20
0.725083
11
0.375586
21
0.728567
0
LINE
8
BLACK
6
CONTINUOUS
10
0.375586
20
0.728567
11
0.379976
21
0.730804
0
LINE
8
BLACK
6
CONTINUOUS
10
0.379976
20
0.730804
11
0.384843
21
0.731575
0
LINE
8
BLACK
6
CONTINUOUS
10
0.384843
20
0.731575
11
0.400591
21
0.731575
0
LINE
8
BLACK
6
CONTINUOUS
10
0.400591
20
0.731575
11
0.405457
21
0.730804
0
LINE
8
BLACK
6
CONTINUOUS
10
0.539315
20
0.730804
11
0.543705
21
0.728567
0
LINE
8
BLACK
6
CONTINUOUS
10
0.543705
20
0.728567
11
0.547189
21
0.725083
0
LINE
8
BLACK
6
CONTINUOUS
10
0.547189
20
0.725083
11
0.549426
21
0.720693
0
LINE
8
BLACK
6
CONTINUOUS
10
0.549426
20
0.720693
11
0.550197
21
0.715827
0
LINE
8
BLACK
6
CONTINUOUS
10
0.550197
20
0.715827
11
0.550197
21
0.694173
0
LINE
8
BLACK
6
CONTINUOUS
10
0.550197
20
0.694173
11
0.549426
21
0.689307
0
LINE
8
BLACK
6
CONTINUOUS
10
0.549426
20
0.689307
11
0.547189
21
0.684917
0
LINE
8
BLACK
6
CONTINUOUS
10
0.547189
20
0.684917
11
0.543705
21
0.681433
0
LINE
8
BLACK
6
CONTINUOUS
10
0.543705
20
0.681433
11
0.539315
21
0.679196
0
LINE
8
BLACK
6
CONTINUOUS
10
0.539315
20
0.679196
11
0.534449
21
0.678425
0
LINE
8
BLACK
6
CONTINUOUS
10
0.534449
20
0.678425
11
0.518701
21
0.678425
0
LINE
8
BLACK
6
CONTINUOUS
10
0.518701
20
0.678425
11
0.513834
21
0.679196
0
LINE
8
BLACK
6
CONTINUOUS
10
0.513834
20
0.679196
11
0.509444
21
0.681433
0
LINE
8
BLACK
6
CONTINUOUS
10
0.509444
20
0.681433
11
0.50596
21
0.684917
0
LINE
8
BLACK
6
CONTINUOUS
10
0.50596
20
0.684917
11
0.503724
21
0.689307
0
LINE
8
BLACK
6
CONTINUOUS
10
0.503724
20
0.689307
11
0.502953
21
0.694173
0
LINE
8
BLACK
6
CONTINUOUS
10
0.502953
20
0.694173
11
0.502953
21
0.715827
0
LINE
8
BLACK
6
CONTINUOUS
10
0.502953
20
0.715827
11
0.503724
21
0.720693
0
LINE
8
BLACK
6
CONTINUOUS
10
0.503724
20
0.720693
11
0.50596
21
0.725083
0
LINE
8
BLACK
6
CONTINUOUS
10
0.50596
20
0.725083
11
0.509444
21
0.728567
0
LINE
8
BLACK
6
CONTINUOUS
10
0.509444
20
0.728567
11
0.513834
21
0.730804
0
LINE
8
BLACK
6
CONTINUOUS
10
0.513834
20
0.730804
11
0.518701
21
0.731575
0
LINE
8
BLACK
6
CONTINUOUS
10
0.518701
20
0.731575
11
0.534449
21
0.731575
0
LINE
8
BLACK
6
CONTINUOUS
10
0.534449
20
0.731575
11
0.539315
21
0.730804
0
LINE
8
BLACK
6
CONTINUOUS
10
0.214567
20
0.742536
11
0.218632
21
0.740549
0
LINE
8
BLACK
6
CONTINUOUS
10
0.218632
20
0.740549
11
0.221834
21
0.737352
0
LINE
8
BLACK
6
CONTINUOUS
10
0.221834
20
0.737352
11
0.223828
21
0.73329
0
LINE
8
BLACK
6
CONTINUOUS
10
0.223828
20
0.73329
11
0.224409
21
0.729331
0
LINE
8
BLACK
6
CONTINUOUS
10
0.224409
20
0.729331
11
0.224409
21
0.71752
0
LINE
8
BLACK
6
CONTINUOUS
10
0.224409
20
0.71752
11
0.223835
21
0.713583
0
LINE
8
BLACK
6
CONTINUOUS
10
0.223835
20
0.713583
11
0.221848
21
0.709518
0
LINE
8
BLACK
6
CONTINUOUS
10
0.221848
20
0.709518
11
0.218651
21
0.706316
0
LINE
8
BLACK
6
CONTINUOUS
10
0.218651
20
0.706316
11
0.21459
21
0.704321
0
LINE
8
BLACK
6
CONTINUOUS
10
0.21459
20
0.704321
11
0.21063
21
0.70374
0
LINE
8
BLACK
6
CONTINUOUS
10
0.21063
20
0.70374
11
0.155512
21
0.70374
0
LINE
8
BLACK
6
CONTINUOUS
10
0.155512
20
0.70374
11
0.151575
21
0.704314
0
LINE
8
BLACK
6
CONTINUOUS
10
0.151575
20
0.704314
11
0.14751
21
0.706302
0
LINE
8
BLACK
6
CONTINUOUS
10
0.14751
20
0.706302
11
0.144308
21
0.709498
0
LINE
8
BLACK
6
CONTINUOUS
10
0.144308
20
0.709498
11
0.142313
21
0.71356
0
LINE
8
BLACK
6
CONTINUOUS
10
0.142313
20
0.71356
11
0.141732
21
0.71752
0
LINE
8
BLACK
6
CONTINUOUS
10
0.141732
20
0.71752
11
0.141732
21
0.729331
0
LINE
8
BLACK
6
CONTINUOUS
10
0.141732
20
0.729331
11
0.142307
21
0.733267
0
LINE
8
BLACK
6
CONTINUOUS
10
0.142307
20
0.733267
11
0.144294
21
0.737333
0
LINE
8
BLACK
6
CONTINUOUS
10
0.144294
20
0.737333
11
0.14749
21
0.740535
0
LINE
8
BLACK
6
CONTINUOUS
10
0.14749
20
0.740535
11
0.151552
21
0.742529
0
LINE
8
BLACK
6
CONTINUOUS
10
0.151552
20
0.742529
11
0.155512
21
0.74311
0
LINE
8
BLACK
6
CONTINUOUS
10
0.155512
20
0.74311
11
0.21063
21
0.74311
0
LINE
8
BLACK
6
CONTINUOUS
10
0.21063
20
0.74311
11
0.214567
21
0.742536
0
LINE
8
BLACK
6
CONTINUOUS
10
0.832677
20
0.742536
11
0.836742
21
0.740549
0
LINE
8
BLACK
6
CONTINUOUS
10
0.836742
20
0.740549
11
0.839944
21
0.737352
0
LINE
8
BLACK
6
CONTINUOUS
10
0.839944
20
0.737352
11
0.841939
21
0.73329
0
LINE
8
BLACK
6
CONTINUOUS
10
0.841939
20
0.73329
11
0.84252
21
0.729331
0
LINE
8
BLACK
6
CONTINUOUS
10
0.84252
20
0.729331
11
0.84252
21
0.71752
0
LINE
8
BLACK
6
CONTINUOUS
10
0.84252
20
0.71752
11
0.841945
21
0.713583
0
LINE
8
BLACK
6
CONTINUOUS
10
0.841945
20
0.713583
11
0.839958
21
0.709518
0
LINE
8
BLACK
6
CONTINUOUS
10
0.839958
20
0.709518
11
0.836762
21
0.706316
0
LINE
8
BLACK
6
CONTINUOUS
10
0.836762
20
0.706316
11
0.8327
21
0.704321
0
LINE
8
BLACK
6
CONTINUOUS
10
0.8327
20
0.704321
11
0.82874
21
0.70374
0
LINE
8
BLACK
6
CONTINUOUS
10
0.82874
20
0.70374
11
0.773622
21
0.70374
0
LINE
8
BLACK
6
CONTINUOUS
10
0.773622
20
0.70374
11
0.769685
21
0.704314
0
LINE
8
BLACK
6
CONTINUOUS
10
0.769685
20
0.704314
11
0.76562
21
0.706302
0
LINE
8
BLACK
6
CONTINUOUS
10
0.76562
20
0.706302
11
0.762418
21
0.709498
0
LINE
8
BLACK
6
CONTINUOUS
10
0.762418
20
0.709498
11
0.760424
21
0.71356
0
LINE
8
BLACK
6
CONTINUOUS
10
0.760424
20
0.71356
11
0.759843
21
0.71752
0
LINE
8
BLACK
6
CONTINUOUS
10
0.759843
20
0.71752
11
0.759843
21
0.729331
0
LINE
8
BLACK
6
CONTINUOUS
10
0.759843
20
0.729331
11
0.760417
21
0.733267
0
LINE
8
BLACK
6
CONTINUOUS
10
0.760417
20
0.733267
11
0.762404
21
0.737333
0
LINE
8
BLACK
6
CONTINUOUS
10
0.762404
20
0.737333
11
0.765601
21
0.740535
0
LINE
8
BLACK
6
CONTINUOUS
10
0.765601
20
0.740535
11
0.769662
21
0.742529
0
LINE
8
BLACK
6
CONTINUOUS
10
0.769662
20
0.742529
11
0.773622
21
0.74311
0
LINE
8
BLACK
6
CONTINUOUS
10
0.773622
20
0.74311
11
0.82874
21
0.74311
0
LINE
8
BLACK
6
CONTINUOUS
10
0.82874
20
0.74311
11
0.832677
21
0.742536
0
LINE
8
BLACK
6
CONTINUOUS
10
0.684985
20
0.766371
11
0.689375
21
0.764134
0
LINE
8
BLACK
6
CONTINUOUS
10
0.689375
20
0.764134
11
0.692859
21
0.76065
0
LINE
8
BLACK
6
CONTINUOUS
10
0.692859
20
0.76065
11
0.695095
21
0.75626
0
LINE
8
BLACK
6
CONTINUOUS
10
0.695095
20
0.75626
11
0.695866
21
0.751394
0
LINE
8
BLACK
6
CONTINUOUS
10
0.695866
20
0.751394
11
0.695866
21
0.735646
0
LINE
8
BLACK
6
CONTINUOUS
10
0.695866
20
0.735646
11
0.695095
21
0.730779
0
LINE
8
BLACK
6
CONTINUOUS
10
0.695095
20
0.730779
11
0.692859
21
0.726389
0
LINE
8
BLACK
6
CONTINUOUS
10
0.692859
20
0.726389
11
0.689375
21
0.722905
0
LINE
8
BLACK
6
CONTINUOUS
10
0.689375
20
0.722905
11
0.684985
21
0.720668
0
LINE
8
BLACK
6
CONTINUOUS
10
0.684985
20
0.720668
11
0.680118
21
0.719898
0
LINE
8
BLACK
6
CONTINUOUS
10
0.680118
20
0.719898
11
0.658465
21
0.719898
0
LINE
8
BLACK
6
CONTINUOUS
10
0.658465
20
0.719898
11
0.653598
21
0.720668
0
LINE
8
BLACK
6
CONTINUOUS
10
0.653598
20
0.720668
11
0.649208
21
0.722905
0
LINE
8
BLACK
6
CONTINUOUS
10
0.649208
20
0.722905
11
0.645724
21
0.726389
0
LINE
8
BLACK
6
CONTINUOUS
10
0.645724
20
0.726389
11
0.643487
21
0.730779
0
LINE
8
BLACK
6
CONTINUOUS
10
0.643487
20
0.730779
11
0.642717
21
0.735646
0
LINE
8
BLACK
6
CONTINUOUS
10
0.642717
20
0.735646
11
0.642717
21
0.751394
0
LINE
8
BLACK
6
CONTINUOUS
10
0.642717
20
0.751394
11
0.643487
21
0.75626
0
LINE
8
BLACK
6
CONTINUOUS
10
0.643487
20
0.75626
11
0.645724
21
0.76065
0
LINE
8
BLACK
6
CONTINUOUS
10
0.645724
20
0.76065
11
0.649208
21
0.764134
0
LINE
8
BLACK
6
CONTINUOUS
10
0.649208
20
0.764134
11
0.653598
21
0.766371
0
LINE
8
BLACK
6
CONTINUOUS
10
0.653598
20
0.766371
11
0.658465
21
0.767142
0
LINE
8
BLACK
6
CONTINUOUS
10
0.658465
20
0.767142
11
0.680118
21
0.767142
0
LINE
8
BLACK
6
CONTINUOUS
10
0.680118
20
0.767142
11
0.684985
21
0.766371
0
LINE
8
BLACK
6
CONTINUOUS
10
0.330654
20
0.766851
11
0.335044
21
0.764614
0
LINE
8
BLACK
6
CONTINUOUS
10
0.335044
20
0.764614
11
0.338528
21
0.76113
0
LINE
8
BLACK
6
CONTINUOUS
10
0.338528
20
0.76113
11
0.340765
21
0.75674
0
LINE
8
BLACK
6
CONTINUOUS
10
0.340765
20
0.75674
11
0.341535
21
0.751874
0
LINE
8
BLACK
6
CONTINUOUS
10
0.341535
20
0.751874
11
0.341535
21
0.736126
0
LINE
8
BLACK
6
CONTINUOUS
10
0.341535
20
0.736126
11
0.340765
21
0.73126
0
LINE
8
BLACK
6
CONTINUOUS
10
0.340765
20
0.73126
11
0.338528
21
0.72687
0
LINE
8
BLACK
6
CONTINUOUS
10
0.338528
20
0.72687
11
0.335044
21
0.723386
0
LINE
8
BLACK
6
CONTINUOUS
10
0.335044
20
0.723386
11
0.330654
21
0.721149
0
LINE
8
BLACK
6
CONTINUOUS
10
0.330654
20
0.721149
11
0.325787
21
0.720378
0
LINE
8
BLACK
6
CONTINUOUS
10
0.325787
20
0.720378
11
0.304134
21
0.720378
0
LINE
8
BLACK
6
CONTINUOUS
10
0.304134
20
0.720378
11
0.299267
21
0.721149
0
LINE
8
BLACK
6
CONTINUOUS
10
0.299267
20
0.721149
11
0.294877
21
0.723386
0
LINE
8
BLACK
6
CONTINUOUS
10
0.294877
20
0.723386
11
0.291393
21
0.72687
0
LINE
8
BLACK
6
CONTINUOUS
10
0.291393
20
0.72687
11
0.289157
21
0.73126
0
LINE
8
BLACK
6
CONTINUOUS
10
0.289157
20
0.73126
11
0.288386
21
0.736126
0
LINE
8
BLACK
6
CONTINUOUS
10
0.288386
20
0.736126
11
0.288386
21
0.751874
0
LINE
8
BLACK
6
CONTINUOUS
10
0.288386
20
0.751874
11
0.289157
21
0.75674
0
LINE
8
BLACK
6
CONTINUOUS
10
0.289157
20
0.75674
11
0.291393
21
0.76113
0
LINE
8
BLACK
6
CONTINUOUS
10
0.291393
20
0.76113
11
0.294877
21
0.764614
0
LINE
8
BLACK
6
CONTINUOUS
10
0.294877
20
0.764614
11
0.299267
21
0.766851
0
LINE
8
BLACK
6
CONTINUOUS
10
0.299267
20
0.766851
11
0.304134
21
0.767622
0
LINE
8
BLACK
6
CONTINUOUS
10
0.304134
20
0.767622
11
0.325787
21
0.767622
0
LINE
8
BLACK
6
CONTINUOUS
10
0.325787
20
0.767622
11
0.330654
21
0.766851
0
LINE
8
BLACK
6
CONTINUOUS
10
0.103713
20
0.823505
11
0.108684
21
0.82176
0
LINE
8
BLACK
6
CONTINUOUS
10
0.108684
20
0.82176
11
0.112921
21
0.81863
0
LINE
8
BLACK
6
CONTINUOUS
10
0.112921
20
0.81863
11
0.116051
21
0.814392
0
LINE
8
BLACK
6
CONTINUOUS
10
0.116051
20
0.814392
11
0.117796
21
0.809422
0
LINE
8
BLACK
6
CONTINUOUS
10
0.117796
20
0.809422
11
0.11811
21
0.806102
0
LINE
8
BLACK
6
CONTINUOUS
10
0.11811
20
0.806102
11
0.11811
21
0.786417
0
LINE
8
BLACK
6
CONTINUOUS
10
0.11811
20
0.786417
11
0.117796
21
0.783098
0
LINE
8
BLACK
6
CONTINUOUS
10
0.117796
20
0.783098
11
0.116051
21
0.778127
0
LINE
8
BLACK
6
CONTINUOUS
10
0.116051
20
0.778127
11
0.112921
21
0.77389
0
LINE
8
BLACK
6
CONTINUOUS
10
0.112921
20
0.77389
11
0.108684
21
0.77076
0
LINE
8
BLACK
6
CONTINUOUS
10
0.108684
20
0.77076
11
0.103713
21
0.769015
0
LINE
8
BLACK
6
CONTINUOUS
10
0.103713
20
0.769015
11
0.100394
21
0.768701
0
LINE
8
BLACK
6
CONTINUOUS
10
0.100394
20
0.768701
11
0.0137795
21
0.768701
0
LINE
8
BLACK
6
CONTINUOUS
10
0.0137795
20
0.768701
11
0.0104598
21
0.769015
0
LINE
8
BLACK
6
CONTINUOUS
10
0.0104598
20
0.769015
11
0.00548945
21
0.77076
0
LINE
8
BLACK
6
CONTINUOUS
10
0.00548945
20
0.77076
11
0.00125205
21
0.77389
0
LINE
8
BLACK
6
CONTINUOUS
10
0.00125205
20
0.77389
11
-0.00187776
21
0.778127
0
LINE
8
BLACK
6
CONTINUOUS
10
-0.00187776
20
0.778127
11
-0.00362319
21
0.783098
0
LINE
8
BLACK
6
CONTINUOUS
10
-0.00362319
20
0.783098
11
-0.00393701
21
0.786417
0
LINE
8
BLACK
6
CONTINUOUS
10
-0.00393701
20
0.786417
11
-0.00393701
21
0.806102
0
LINE
8
BLACK
6
CONTINUOUS
10
-0.00393701
20
0.806102
11
-0.00362319
21
0.809422
0
LINE
8
BLACK
6
CONTINUOUS
10
-0.00362319
20
0.809422
11
-0.00187776
21
0.814392
0
LINE
8
BLACK
6
CONTINUOUS
10
-0.00187776
20
0.814392
11
0.00125205
21
0.81863
0
LINE
8
BLACK
6
CONTINUOUS
10
0.00125205
20
0.81863
11
0.00548945
21
0.82176
0
LINE
8
BLACK
6
CONTINUOUS
10
0.00548945
20
0.82176
11
0.0104598
21
0.823505
0
LINE
8
BLACK
6
CONTINUOUS
10
0.0104598
20
0.823505
11
0.0137795
21
0.823819
0
LINE
8
BLACK
6
CONTINUOUS
10
0.0137795
20
0.823819
11
0.100394
21
0.823819
0
LINE
8
BLACK
6
CONTINUOUS
10
0.100394
20
0.823819
11
0.103713
21
0.823505
0
LINE
8
BLACK
6
CONTINUOUS
10
0.973792
20
0.823505
11
0.978763
21
0.82176
0
LINE
8
BLACK
6
CONTINUOUS
10
0.978763
20
0.82176
11
0.983
21
0.81863
0
LINE
8
BLACK
6
CONTINUOUS
10
0.983
20
0.81863
11
0.98613
21
0.814392
0
LINE
8
BLACK
6
CONTINUOUS
10
0.98613
20
0.814392
11
0.987875
21
0.809422
0
LINE
8
BLACK
6
CONTINUOUS
10
0.987875
20
0.809422
11
0.988189
21
0.806102
0
LINE
8
BLACK
6
CONTINUOUS
10
0.988189
20
0.806102
11
0.988189
21
0.786417
0
LINE
8
BLACK
6
CONTINUOUS
10
0.988189
20
0.786417
11
0.987875
21
0.783098
0
LINE
8
BLACK
6
CONTINUOUS
10
0.987875
20
0.783098
11
0.98613
21
0.778127
0
LINE
8
BLACK
6
CONTINUOUS
10
0.98613
20
0.778127
11
0.983
21
0.77389
0
LINE
8
BLACK
6
CONTINUOUS
10
0.983
20
0.77389
11
0.978763
21
0.77076
0
LINE
8
BLACK
6
CONTINUOUS
10
0.978763
20
0.77076
11
0.973792
21
0.769015
0
LINE
8
BLACK
6
CONTINUOUS
10
0.973792
20
0.769015
11
0.970472
21
0.768701
0
LINE
8
BLACK
6
CONTINUOUS
10
0.970472
20
0.768701
11
0.883858
21
0.768701
0
LINE
8
BLACK
6
CONTINUOUS
10
0.883858
20
0.768701
11
0.880539
21
0.769015
0
LINE
8
BLACK
6
CONTINUOUS
10
0.880539
20
0.769015
11
0.875568
21
0.77076
0
LINE
8
BLACK
6
CONTINUOUS
10
0.875568
20
0.77076
11
0.871331
21
0.77389
0
LINE
8
BLACK
6
CONTINUOUS
10
0.871331
20
0.77389
11
0.868201
21
0.778127
0
LINE
8
BLACK
6
CONTINUOUS
10
0.868201
20
0.778127
11
0.866456
21
0.783098
0
LINE
8
BLACK
6
CONTINUOUS
10
0.866456
20
0.783098
11
0.866142
21
0.786417
0
LINE
8
BLACK
6
CONTINUOUS
10
0.866142
20
0.786417
11
0.866142
21
0.806102
0
LINE
8
BLACK
6
CONTINUOUS
10
0.866142
20
0.806102
11
0.866456
21
0.809422
0
LINE
8
BLACK
6
CONTINUOUS
10
0.866456
20
0.809422
11
0.868201
21
0.814392
0
LINE
8
BLACK
6
CONTINUOUS
10
0.868201
20
0.814392
11
0.871331
21
0.81863
0
LINE
8
BLACK
6
CONTINUOUS
10
0.871331
20
0.81863
11
0.875568
21
0.82176
0
LINE
8
BLACK
6
CONTINUOUS
10
0.875568
20
0.82176
11
0.880539
21
0.823505
0
LINE
8
BLACK
6
CONTINUOUS
10
0.880539
20
0.823505
11
0.883858
21
0.823819
0
LINE
8
BLACK
6
CONTINUOUS
10
0.883858
20
0.823819
11
0.970472
21
0.823819
0
LINE
8
BLACK
6
CONTINUOUS
10
0.970472
20
0.823819
11
0.973792
21
0.823505
0
LINE
8
BLACK
6
CONTINUOUS
10
0.539315
20
0.823804
11
0.543705
21
0.821567
0
LINE
8
BLACK
6
CONTINUOUS
10
0.543705
20
0.821567
11
0.547189
21
0.818083
0
LINE
8
BLACK
6
CONTINUOUS
10
0.547189
20
0.818083
11
0.549426
21
0.813693
0
LINE
8
BLACK
6
CONTINUOUS
10
0.549426
20
0.813693
11
0.550197
21
0.808827
0
LINE
8
BLACK
6
CONTINUOUS
10
0.550197
20
0.808827
11
0.550197
21
0.787173
0
LINE
8
BLACK
6
CONTINUOUS
10
0.550197
20
0.787173
11
0.549426
21
0.782307
0
LINE
8
BLACK
6
CONTINUOUS
10
0.549426
20
0.782307
11
0.547189
21
0.777917
0
LINE
8
BLACK
6
CONTINUOUS
10
0.547189
20
0.777917
11
0.543705
21
0.774433
0
LINE
8
BLACK
6
CONTINUOUS
10
0.543705
20
0.774433
11
0.539315
21
0.772196
0
LINE
8
BLACK
6
CONTINUOUS
10
0.539315
20
0.772196
11
0.534449
21
0.771425
0
LINE
8
BLACK
6
CONTINUOUS
10
0.534449
20
0.771425
11
0.518701
21
0.771425
0
LINE
8
BLACK
6
CONTINUOUS
10
0.518701
20
0.771425
11
0.513834
21
0.772196
0
LINE
8
BLACK
6
CONTINUOUS
10
0.513834
20
0.772196
11
0.509444
21
0.774433
0
LINE
8
BLACK
6
CONTINUOUS
10
0.509444
20
0.774433
11
0.50596
21
0.777917
0
LINE
8
BLACK
6
CONTINUOUS
10
0.50596
20
0.777917
11
0.503724
21
0.782307
0
LINE
8
BLACK
6
CONTINUOUS
10
0.503724
20
0.782307
11
0.502953
21
0.787173
0
LINE
8
BLACK
6
CONTINUOUS
10
0.502953
20
0.787173
11
0.502953
21
0.808827
0
LINE
8
BLACK
6
CONTINUOUS
10
0.502953
20
0.808827
11
0.503724
21
0.813693
0
LINE
8
BLACK
6
CONTINUOUS
10
0.503724
20
0.813693
11
0.50596
21
0.818083
0
LINE
8
BLACK
6
CONTINUOUS
10
0.50596
20
0.818083
11
0.509444
21
0.821567
0
LINE
8
BLACK
6
CONTINUOUS
10
0.509444
20
0.821567
11
0.513834
21
0.823804
0
LINE
8
BLACK
6
CONTINUOUS
10
0.513834
20
0.823804
11
0.518701
21
0.824575
0
LINE
8
BLACK
6
CONTINUOUS
10
0.518701
20
0.824575
11
0.534449
21
0.824575
0
LINE
8
BLACK
6
CONTINUOUS
10
0.534449
20
0.824575
11
0.539315
21
0.823804
0
LINE
8
BLACK
6
CONTINUOUS
10
0.604276
20
0.823804
11
0.608666
21
0.821567
0
LINE
8
BLACK
6
CONTINUOUS
10
0.608666
20
0.821567
11
0.61215
21
0.818083
0
LINE
8
BLACK
6
CONTINUOUS
10
0.61215
20
0.818083
11
0.614387
21
0.813693
0
LINE
8
BLACK
6
CONTINUOUS
10
0.614387
20
0.813693
11
0.615157
21
0.808827
0
LINE
8
BLACK
6
CONTINUOUS
10
0.615157
20
0.808827
11
0.615157
21
0.787173
0
LINE
8
BLACK
6
CONTINUOUS
10
0.615157
20
0.787173
11
0.614387
21
0.782307
0
LINE
8
BLACK
6
CONTINUOUS
10
0.614387
20
0.782307
11
0.61215
21
0.777917
0
LINE
8
BLACK
6
CONTINUOUS
10
0.61215
20
0.777917
11
0.608666
21
0.774433
0
LINE
8
BLACK
6
CONTINUOUS
10
0.608666
20
0.774433
11
0.604276
21
0.772196
0
LINE
8
BLACK
6
CONTINUOUS
10
0.604276
20
0.772196
11
0.599409
21
0.771425
0
LINE
8
BLACK
6
CONTINUOUS
10
0.599409
20
0.771425
11
0.583661
21
0.771425
0
LINE
8
BLACK
6
CONTINUOUS
10
0.583661
20
0.771425
11
0.578795
21
0.772196
0
LINE
8
BLACK
6
CONTINUOUS
10
0.578795
20
0.772196
11
0.574405
21
0.774433
0
LINE
8
BLACK
6
CONTINUOUS
10
0.574405
20
0.774433
11
0.570921
21
0.777917
0
LINE
8
BLACK
6
CONTINUOUS
10
0.570921
20
0.777917
11
0.568684
21
0.782307
0
LINE
8
BLACK
6
CONTINUOUS
10
0.568684
20
0.782307
11
0.567913
21
0.787173
0
LINE
8
BLACK
6
CONTINUOUS
10
0.567913
20
0.787173
11
0.567913
21
0.808827
0
LINE
8
BLACK
6
CONTINUOUS
10
0.567913
20
0.808827
11
0.568684
21
0.813693
0
LINE
8
BLACK
6
CONTINUOUS
10
0.568684
20
0.813693
11
0.570921
21
0.818083
0
LINE
8
BLACK
6
CONTINUOUS
10
0.570921
20
0.818083
11
0.574405
21
0.821567
0
LINE
8
BLACK
6
CONTINUOUS
10
0.574405
20
0.821567
11
0.578795
21
0.823804
0
LINE
8
BLACK
6
CONTINUOUS
10
0.578795
20
0.823804
11
0.583661
21
0.824575
0
LINE
8
BLACK
6
CONTINUOUS
10
0.583661
20
0.824575
11
0.599409
21
0.824575
0
LINE
8
BLACK
6
CONTINUOUS
10
0.599409
20
0.824575
11
0.604276
21
0.823804
0
LINE
8
BLACK
6
CONTINUOUS
10
0.405457
20
0.823804
11
0.409847
21
0.821567
0
LINE
8
BLACK
6
CONTINUOUS
10
0.409847
20
0.821567
11
0.413331
21
0.818083
0
LINE
8
BLACK
6
CONTINUOUS
10
0.413331
20
0.818083
11
0.415568
21
0.813693
0
LINE
8
BLACK
6
CONTINUOUS
10
0.415568
20
0.813693
11
0.416339
21
0.808827
0
LINE
8
BLACK
6
CONTINUOUS
10
0.416339
20
0.808827
11
0.416339
21
0.787173
0
LINE
8
BLACK
6
CONTINUOUS
10
0.416339
20
0.787173
11
0.415568
21
0.782307
0
LINE
8
BLACK
6
CONTINUOUS
10
0.415568
20
0.782307
11
0.413331
21
0.777917
0
LINE
8
BLACK
6
CONTINUOUS
10
0.413331
20
0.777917
11
0.409847
21
0.774433
0
LINE
8
BLACK
6
CONTINUOUS
10
0.409847
20
0.774433
11
0.405457
21
0.772196
0
LINE
8
BLACK
6
CONTINUOUS
10
0.405457
20
0.772196
11
0.400591
21
0.771425
0
LINE
8
BLACK
6
CONTINUOUS
10
0.400591
20
0.771425
11
0.384843
21
0.771425
0
LINE
8
BLACK
6
CONTINUOUS
10
0.384843
20
0.771425
11
0.379976
21
0.772196
0
LINE
8
BLACK
6
CONTINUOUS
10
0.379976
20
0.772196
11
0.375586
21
0.774433
0
LINE
8
BLACK
6
CONTINUOUS
10
0.375586
20
0.774433
11
0.372102
21
0.777917
0
LINE
8
BLACK
6
CONTINUOUS
10
0.372102
20
0.777917
11
0.369865
21
0.782307
0
LINE
8
BLACK
6
CONTINUOUS
10
0.369865
20
0.782307
11
0.369094
21
0.787173
0
LINE
8
BLACK
6
CONTINUOUS
10
0.369094
20
0.787173
11
0.369094
21
0.808827
0
LINE
8
BLACK
6
CONTINUOUS
10
0.369094
20
0.808827
11
0.369865
21
0.813693
0
LINE
8
BLACK
6
CONTINUOUS
10
0.369865
20
0.813693
11
0.372102
21
0.818083
0
LINE
8
BLACK
6
CONTINUOUS
10
0.372102
20
0.818083
11
0.375586
21
0.821567
0
LINE
8
BLACK
6
CONTINUOUS
10
0.375586
20
0.821567
11
0.379976
21
0.823804
0
LINE
8
BLACK
6
CONTINUOUS
10
0.379976
20
0.823804
11
0.384843
21
0.824575
0
LINE
8
BLACK
6
CONTINUOUS
10
0.384843
20
0.824575
11
0.400591
21
0.824575
0
LINE
8
BLACK
6
CONTINUOUS
10
0.400591
20
0.824575
11
0.405457
21
0.823804
0
LINE
8
BLACK
6
CONTINUOUS
10
0.470418
20
0.823804
11
0.474808
21
0.821567
0
LINE
8
BLACK
6
CONTINUOUS
10
0.474808
20
0.821567
11
0.478292
21
0.818083
0
LINE
8
BLACK
6
CONTINUOUS
10
0.478292
20
0.818083
11
0.480528
21
0.813693
0
LINE
8
BLACK
6
CONTINUOUS
10
0.480528
20
0.813693
11
0.481299
21
0.808827
0
LINE
8
BLACK
6
CONTINUOUS
10
0.481299
20
0.808827
11
0.481299
21
0.787173
0
LINE
8
BLACK
6
CONTINUOUS
10
0.481299
20
0.787173
11
0.480528
21
0.782307
0
LINE
8
BLACK
6
CONTINUOUS
10
0.480528
20
0.782307
11
0.478292
21
0.777917
0
LINE
8
BLACK
6
CONTINUOUS
10
0.478292
20
0.777917
11
0.474808
21
0.774433
0
LINE
8
BLACK
6
CONTINUOUS
10
0.474808
20
0.774433
11
0.470418
21
0.772196
0
LINE
8
BLACK
6
CONTINUOUS
10
0.470418
20
0.772196
11
0.465551
21
0.771425
0
LINE
8
BLACK
6
CONTINUOUS
10
0.465551
20
0.771425
11
0.449803
21
0.771425
0
LINE
8
BLACK
6
CONTINUOUS
10
0.449803
20
0.771425
11
0.444937
21
0.772196
0
LINE
8
BLACK
6
CONTINUOUS
10
0.444937
20
0.772196
11
0.440547
21
0.774433
0
LINE
8
BLACK
6
CONTINUOUS
10
0.440547
20
0.774433
11
0.437063
21
0.777917
0
LINE
8
BLACK
6
CONTINUOUS
10
0.437063
20
0.777917
11
0.434826
21
0.782307
0
LINE
8
BLACK
6
CONTINUOUS
10
0.434826
20
0.782307
11
0.434055
21
0.787173
0
LINE
8
BLACK
6
CONTINUOUS
10
0.434055
20
0.787173
11
0.434055
21
0.808827
0
LINE
8
BLACK
6
CONTINUOUS
10
0.434055
20
0.808827
11
0.434826
21
0.813693
0
LINE
8
BLACK
6
CONTINUOUS
10
0.434826
20
0.813693
11
0.437063
21
0.818083
0
LINE
8
BLACK
6
CONTINUOUS
10
0.437063
20
0.818083
11
0.440547
21
0.821567
0
LINE
8
BLACK
6
CONTINUOUS
10
0.440547
20
0.821567
11
0.444937
21
0.823804
0
LINE
8
BLACK
6
CONTINUOUS
10
0.444937
20
0.823804
11
0.449803
21
0.824575
0
LINE
8
BLACK
6
CONTINUOUS
10
0.449803
20
0.824575
11
0.465551
21
0.824575
0
LINE
8
BLACK
6
CONTINUOUS
10
0.465551
20
0.824575
11
0.470418
21
0.823804
0
LINE
8
BLACK
6
CONTINUOUS
10
0.684985
20
0.831332
11
0.689375
21
0.829095
0
LINE
8
BLACK
6
CONTINUOUS
10
0.689375
20
0.829095
11
0.692859
21
0.825611
0
LINE
8
BLACK
6
CONTINUOUS
10
0.692859
20
0.825611
11
0.695095
21
0.821221
0
LINE
8
BLACK
6
CONTINUOUS
10
0.695095
20
0.821221
11
0.695866
21
0.816354
0
LINE
8
BLACK
6
CONTINUOUS
10
0.695866
20
0.816354
11
0.695866
21
0.800606
0
LINE
8
BLACK
6
CONTINUOUS
10
0.695866
20
0.800606
11
0.695095
21
0.79574
0
LINE
8
BLACK
6
CONTINUOUS
10
0.695095
20
0.79574
11
0.692859
21
0.79135
0
LINE
8
BLACK
6
CONTINUOUS
10
0.692859
20
0.79135
11
0.689375
21
0.787866
0
LINE
8
BLACK
6
CONTINUOUS
10
0.689375
20
0.787866
11
0.684985
21
0.785629
0
LINE
8
BLACK
6
CONTINUOUS
10
0.684985
20
0.785629
11
0.680118
21
0.784858
0
LINE
8
BLACK
6
CONTINUOUS
10
0.680118
20
0.784858
11
0.658465
21
0.784858
0
LINE
8
BLACK
6
CONTINUOUS
10
0.658465
20
0.784858
11
0.653598
21
0.785629
0
LINE
8
BLACK
6
CONTINUOUS
10
0.653598
20
0.785629
11
0.649208
21
0.787866
0
LINE
8
BLACK
6
CONTINUOUS
10
0.649208
20
0.787866
11
0.645724
21
0.79135
0
LINE
8
BLACK
6
CONTINUOUS
10
0.645724
20
0.79135
11
0.643487
21
0.79574
0
LINE
8
BLACK
6
CONTINUOUS
10
0.643487
20
0.79574
11
0.642717
21
0.800606
0
LINE
8
BLACK
6
CONTINUOUS
10
0.642717
20
0.800606
11
0.642717
21
0.816354
0
LINE
8
BLACK
6
CONTINUOUS
10
0.642717
20
0.816354
11
0.643487
21
0.821221
0
LINE
8
BLACK
6
CONTINUOUS
10
0.643487
20
0.821221
11
0.645724
21
0.825611
0
LINE
8
BLACK
6
CONTINUOUS
10
0.645724
20
0.825611
11
0.649208
21
0.829095
0
LINE
8
BLACK
6
CONTINUOUS
10
0.649208
20
0.829095
11
0.653598
21
0.831332
0
LINE
8
BLACK
6
CONTINUOUS
10
0.653598
20
0.831332
11
0.658465
21
0.832102
0
LINE
8
BLACK
6
CONTINUOUS
10
0.658465
20
0.832102
11
0.680118
21
0.832102
0
LINE
8
BLACK
6
CONTINUOUS
10
0.680118
20
0.832102
11
0.684985
21
0.831332
0
LINE
8
BLACK
6
CONTINUOUS
10
0.330654
20
0.831812
11
0.335044
21
0.829575
0
LINE
8
BLACK
6
CONTINUOUS
10
0.335044
20
0.829575
11
0.338528
21
0.826091
0
LINE
8
BLACK
6
CONTINUOUS
10
0.338528
20
0.826091
11
0.340765
21
0.821701
0
LINE
8
BLACK
6
CONTINUOUS
10
0.340765
20
0.821701
11
0.341535
21
0.816835
0
LINE
8
BLACK
6
CONTINUOUS
10
0.341535
20
0.816835
11
0.341535
21
0.801087
0
LINE
8
BLACK
6
CONTINUOUS
10
0.341535
20
0.801087
11
0.340765
21
0.79622
0
LINE
8
BLACK
6
CONTINUOUS
10
0.340765
20
0.79622
11
0.338528
21
0.79183
0
LINE
8
BLACK
6
CONTINUOUS
10
0.338528
20
0.79183
11
0.335044
21
0.788346
0
LINE
8
BLACK
6
CONTINUOUS
10
0.335044
20
0.788346
11
0.330654
21
0.786109
0
LINE
8
BLACK
6
CONTINUOUS
10
0.330654
20
0.786109
11
0.325787
21
0.785339
0
LINE
8
BLACK
6
CONTINUOUS
10
0.325787
20
0.785339
11
0.304134
21
0.785339
0
LINE
8
BLACK
6
CONTINUOUS
10
0.304134
20
0.785339
11
0.299267
21
0.786109
0
LINE
8
BLACK
6
CONTINUOUS
10
0.299267
20
0.786109
11
0.294877
21
0.788346
0
LINE
8
BLACK
6
CONTINUOUS
10
0.294877
20
0.788346
11
0.291393
21
0.79183
0
LINE
8
BLACK
6
CONTINUOUS
10
0.291393
20
0.79183
11
0.289157
21
0.79622
0
LINE
8
BLACK
6
CONTINUOUS
10
0.289157
20
0.79622
11
0.288386
21
0.801087
0
LINE
8
BLACK
6
CONTINUOUS
10
0.288386
20
0.801087
11
0.288386
21
0.816835
0
LINE
8
BLACK
6
CONTINUOUS
10
0.288386
20
0.816835
11
0.289157
21
0.821701
0
LINE
8
BLACK
6
CONTINUOUS
10
0.289157
20
0.821701
11
0.291393
21
0.826091
0
LINE
8
BLACK
6
CONTINUOUS
10
0.291393
20
0.826091
11
0.294877
21
0.829575
0
LINE
8
BLACK
6
CONTINUOUS
10
0.294877
20
0.829575
11
0.299267
21
0.831812
0
LINE
8
BLACK
6
CONTINUOUS
10
0.299267
20
0.831812
11
0.304134
21
0.832583
0
LINE
8
BLACK
6
CONTINUOUS
10
0.304134
20
0.832583
11
0.325787
21
0.832583
0
LINE
8
BLACK
6
CONTINUOUS
10
0.325787
20
0.832583
11
0.330654
21
0.831812
0
LINE
8
BLACK
6
CONTINUOUS
10
0.497684
20
0.964305
11
0.507211
21
0.962608
0
LINE
8
BLACK
6
CONTINUOUS
10
0.507211
20
0.962608
11
0.516334
21
0.959377
0
LINE
8
BLACK
6
CONTINUOUS
10
0.516334
20
0.959377
11
0.524807
21
0.9547
0
LINE
8
BLACK
6
CONTINUOUS
10
0.524807
20
0.9547
11
0.532401
21
0.948702
0
LINE
8
BLACK
6
CONTINUOUS
10
0.532401
20
0.948702
11
0.538915
21
0.941544
0
LINE
8
BLACK
6
CONTINUOUS
10
0.538915
20
0.941544
11
0.544171
21
0.933418
0
LINE
8
BLACK
6
CONTINUOUS
10
0.544171
20
0.933418
11
0.54803
21
0.924543
0
LINE
8
BLACK
6
CONTINUOUS
10
0.54803
20
0.924543
11
0.550388
21
0.915157
0
LINE
8
BLACK
6
CONTINUOUS
10
0.550388
20
0.915157
11
0.551181
21
0.905512
0
LINE
8
BLACK
6
CONTINUOUS
10
0.551181
20
0.905512
11
0.551111
21
0.902627
0
LINE
8
BLACK
6
CONTINUOUS
10
0.551111
20
0.902627
11
0.549847
21
0.893032
0
LINE
8
BLACK
6
CONTINUOUS
10
0.549847
20
0.893032
11
0.547034
21
0.883772
0
LINE
8
BLACK
6
CONTINUOUS
10
0.547034
20
0.883772
11
0.542746
21
0.875096
0
LINE
8
BLACK
6
CONTINUOUS
10
0.542746
20
0.875096
11
0.537099
21
0.867237
0
LINE
8
BLACK
6
CONTINUOUS
10
0.537099
20
0.867237
11
0.530244
21
0.860406
0
LINE
8
BLACK
6
CONTINUOUS
10
0.530244
20
0.860406
11
0.522365
21
0.854786
0
LINE
8
BLACK
6
CONTINUOUS
10
0.522365
20
0.854786
11
0.513674
21
0.850528
0
LINE
8
BLACK
6
CONTINUOUS
10
0.513674
20
0.850528
11
0.504404
21
0.847747
0
LINE
8
BLACK
6
CONTINUOUS
10
0.504404
20
0.847747
11
0.494805
21
0.846517
0
LINE
8
BLACK
6
CONTINUOUS
10
0.494805
20
0.846517
11
0.485134
21
0.846872
0
LINE
8
BLACK
6
CONTINUOUS
10
0.485134
20
0.846872
11
0.47565
21
0.848802
0
LINE
8
BLACK
6
CONTINUOUS
10
0.47565
20
0.848802
11
0.466609
21
0.852254
0
LINE
8
BLACK
6
CONTINUOUS
10
0.466609
20
0.852254
11
0.458253
21
0.857137
0
LINE
8
BLACK
6
CONTINUOUS
10
0.458253
20
0.857137
11
0.450807
21
0.863319
0
LINE
8
BLACK
6
CONTINUOUS
10
0.450807
20
0.863319
11
0.444471
21
0.870634
0
LINE
8
BLACK
6
CONTINUOUS
10
0.444471
20
0.870634
11
0.439414
21
0.878885
0
LINE
8
BLACK
6
CONTINUOUS
10
0.439414
20
0.878885
11
0.435773
21
0.887852
0
LINE
8
BLACK
6
CONTINUOUS
10
0.435773
20
0.887852
11
0.433646
21
0.897293
0
LINE
8
BLACK
6
CONTINUOUS
10
0.433646
20
0.897293
11
0.433089
21
0.906955
0
LINE
8
BLACK
6
CONTINUOUS
10
0.433089
20
0.906955
11
0.434117
21
0.916578
0
LINE
8
BLACK
6
CONTINUOUS
10
0.434117
20
0.916578
11
0.436703
21
0.925903
0
LINE
8
BLACK
6
CONTINUOUS
10
0.436703
20
0.925903
11
0.440778
21
0.934682
0
LINE
8
BLACK
6
CONTINUOUS
10
0.440778
20
0.934682
11
0.446232
21
0.942676
0
LINE
8
BLACK
6
CONTINUOUS
10
0.446232
20
0.942676
11
0.452918
21
0.949673
0
LINE
8
BLACK
6
CONTINUOUS
10
0.452918
20
0.949673
11
0.460657
21
0.955484
0
LINE
8
BLACK
6
CONTINUOUS
10
0.460657
20
0.955484
11
0.469241
21
0.959953
0
LINE
8
BLACK
6
CONTINUOUS
10
0.469241
20
0.959953
11
0.47844
21
0.962959
0
LINE
8
BLACK
6
CONTINUOUS
10
0.47844
20
0.962959
11
0.488006
21
0.964423
0
LINE
8
BLACK
6
CONTINUOUS
10
0.488006
20
0.964423
11
0.497684
21
0.964305
0
LINE
8
BLACK
6
CONTINUOUS
10
0.891384
20
0.964305
11
0.900912
21
0.962608
0
LINE
8
BLACK
6
CONTINUOUS
10
0.900912
20
0.962608
11
0.910035
21
0.959377
0
LINE
8
BLACK
6
CONTINUOUS
10
0.910035
20
0.959377
11
0.918507
21
0.9547
0
LINE
8
BLACK
6
CONTINUOUS
10
0.918507
20
0.9547
11
0.926102
21
0.948702
0
LINE
8
BLACK
6
CONTINUOUS
10
0.926102
20
0.948702
11
0.932616
21
0.941544
0
LINE
8
BLACK
6
CONTINUOUS
10
0.932616
20
0.941544
11
0.937872
21
0.933418
0
LINE
8
BLACK
6
CONTINUOUS
10
0.937872
20
0.933418
11
0.941731
21
0.924543
0
LINE
8
BLACK
6
CONTINUOUS
10
0.941731
20
0.924543
11
0.944089
21
0.915157
0
LINE
8
BLACK
6
CONTINUOUS
10
0.944089
20
0.915157
11
0.944882
21
0.905512
0
LINE
8
BLACK
6
CONTINUOUS
10
0.944882
20
0.905512
11
0.944811
21
0.902627
0
LINE
8
BLACK
6
CONTINUOUS
10
0.944811
20
0.902627
11
0.943548
21
0.893032
0
LINE
8
BLACK
6
CONTINUOUS
10
0.943548
20
0.893032
11
0.940735
21
0.883772
0
LINE
8
BLACK
6
CONTINUOUS
10
0.940735
20
0.883772
11
0.936447
21
0.875096
0
LINE
8
BLACK
6
CONTINUOUS
10
0.936447
20
0.875096
11
0.930799
21
0.867237
0
LINE
8
BLACK
6
CONTINUOUS
10
0.930799
20
0.867237
11
0.923944
21
0.860406
0
LINE
8
BLACK
6
CONTINUOUS
10
0.923944
20
0.860406
11
0.916066
21
0.854786
0
LINE
8
BLACK
6
CONTINUOUS
10
0.916066
20
0.854786
11
0.907375
21
0.850528
0
LINE
8
BLACK
6
CONTINUOUS
10
0.907375
20
0.850528
11
0.898105
21
0.847747
0
LINE
8
BLACK
6
CONTINUOUS
10
0.898105
20
0.847747
11
0.888506
21
0.846517
0
LINE
8
BLACK
6
CONTINUOUS
10
0.888506
20
0.846517
11
0.878834
21
0.846872
0
LINE
8
BLACK
6
CONTINUOUS
10
0.878834
20
0.846872
11
0.869351
21
0.848802
0
LINE
8
BLACK
6
CONTINUOUS
10
0.869351
20
0.848802
11
0.86031
21
0.852254
0
LINE
8
BLACK
6
CONTINUOUS
10
0.86031
20
0.852254
11
0.851954
21
0.857137
0
LINE
8
BLACK
6
CONTINUOUS
10
0.851954
20
0.857137
11
0.844508
21
0.863319
0
LINE
8
BLACK
6
CONTINUOUS
10
0.844508
20
0.863319
11
0.838172
21
0.870634
0
LINE
8
BLACK
6
CONTINUOUS
10
0.838172
20
0.870634
11
0.833115
21
0.878885
0
LINE
8
BLACK
6
CONTINUOUS
10
0.833115
20
0.878885
11
0.829474
21
0.887852
0
LINE
8
BLACK
6
CONTINUOUS
10
0.829474
20
0.887852
11
0.827346
21
0.897293
0
LINE
8
BLACK
6
CONTINUOUS
10
0.827346
20
0.897293
11
0.826789
21
0.906955
0
LINE
8
BLACK
6
CONTINUOUS
10
0.826789
20
0.906955
11
0.827818
21
0.916578
0
LINE
8
BLACK
6
CONTINUOUS
10
0.827818
20
0.916578
11
0.830404
21
0.925903
0
LINE
8
BLACK
6
CONTINUOUS
10
0.830404
20
0.925903
11
0.834479
21
0.934682
0
LINE
8
BLACK
6
CONTINUOUS
10
0.834479
20
0.934682
11
0.839932
21
0.942676
0
LINE
8
BLACK
6
CONTINUOUS
10
0.839932
20
0.942676
11
0.846619
21
0.949673
0
LINE
8
BLACK
6
CONTINUOUS
10
0.846619
20
0.949673
11
0.854358
21
0.955484
0
LINE
8
BLACK
6
CONTINUOUS
10
0.854358
20
0.955484
11
0.862942
21
0.959953
0
LINE
8
BLACK
6
CONTINUOUS
10
0.862942
20
0.959953
11
0.872141
21
0.962959
0
LINE
8
BLACK
6
CONTINUOUS
10
0.872141
20
0.962959
11
0.881707
21
0.964423
0
LINE
8
BLACK
6
CONTINUOUS
10
0.881707
20
0.964423
11
0.891384
21
0.964305
0
LINE
8
BLACK
6
CONTINUOUS
10
0.103983
20
0.964305
11
0.113511
21
0.962608
0
LINE
8
BLACK
6
CONTINUOUS
10
0.113511
20
0.962608
11
0.122633
21
0.959377
0
LINE
8
BLACK
6
CONTINUOUS
10
0.122633
20
0.959377
11
0.131106
21
0.9547
0
LINE
8
BLACK
6
CONTINUOUS
10
0.131106
20
0.9547
11
0.138701
21
0.948702
0
LINE
8
BLACK
6
CONTINUOUS
10
0.138701
20
0.948702
11
0.145214
21
0.941544
0
LINE
8
BLACK
6
CONTINUOUS
10
0.145214
20
0.941544
11
0.150471
21
0.933418
0
LINE
8
BLACK
6
CONTINUOUS
10
0.150471
20
0.933418
11
0.15433
21
0.924543
0
LINE
8
BLACK
6
CONTINUOUS
10
0.15433
20
0.924543
11
0.156687
21
0.915157
0
LINE
8
BLACK
6
CONTINUOUS
10
0.156687
20
0.915157
11
0.15748
21
0.905512
0
LINE
8
BLACK
6
CONTINUOUS
10
0.15748
20
0.905512
11
0.15741
21
0.902627
0
LINE
8
BLACK
6
CONTINUOUS
10
0.15741
20
0.902627
11
0.156147
21
0.893032
0
LINE
8
BLACK
6
CONTINUOUS
10
0.156147
20
0.893032
11
0.153333
21
0.883772
0
LINE
8
BLACK
6
CONTINUOUS
10
0.153333
20
0.883772
11
0.149045
21
0.875096
0
LINE
8
BLACK
6
CONTINUOUS
10
0.149045
20
0.875096
11
0.143398
21
0.867237
0
LINE
8
BLACK
6
CONTINUOUS
10
0.143398
20
0.867237
11
0.136543
21
0.860406
0
LINE
8
BLACK
6
CONTINUOUS
10
0.136543
20
0.860406
11
0.128664
21
0.854786
0
LINE
8
BLACK
6
CONTINUOUS
10
0.128664
20
0.854786
11
0.119973
21
0.850528
0
LINE
8
BLACK
6
CONTINUOUS
10
0.119973
20
0.850528
11
0.110703
21
0.847747
0
LINE
8
BLACK
6
CONTINUOUS
10
0.110703
20
0.847747
11
0.101104
21
0.846517
0
LINE
8
BLACK
6
CONTINUOUS
10
0.101104
20
0.846517
11
0.0914328
21
0.846872
0
LINE
8
BLACK
6
CONTINUOUS
10
0.0914328
20
0.846872
11
0.0819493
21
0.848802
0
LINE
8
BLACK
6
CONTINUOUS
10
0.0819493
20
0.848802
11
0.0729083
21
0.852254
0
LINE
8
BLACK
6
CONTINUOUS
10
0.0729083
20
0.852254
11
0.0645526
21
0.857137
0
LINE
8
BLACK
6
CONTINUOUS
10
0.0645526
20
0.857137
11
0.0571065
21
0.863319
0
LINE
8
BLACK
6
CONTINUOUS
10
0.0571065
20
0.863319
11
0.0507701
21
0.870634
0
LINE
8
BLACK
6
CONTINUOUS
10
0.0507701
20
0.870634
11
0.0457134
21
0.878885
0
LINE
8
BLACK
6
CONTINUOUS
10
0.0457134
20
0.878885
11
0.0420724
21
0.887852
0
LINE
8
BLACK
6
CONTINUOUS
10
0.0420724
20
0.887852
11
0.0399448
21
0.897293
0
LINE
8
BLACK
6
CONTINUOUS
10
0.0399448
20
0.897293
11
0.0393877
21
0.906955
0
LINE
8
BLACK
6
CONTINUOUS
10
0.0393877
20
0.906955
11
0.0404161
21
0.916578
0
LINE
8
BLACK
6
CONTINUOUS
10
0.0404161
20
0.916578
11
0.0430024
21
0.925903
0
LINE
8
BLACK
6
CONTINUOUS
10
0.0430024
20
0.925903
11
0.0470771
21
0.934682
0
LINE
8
BLACK
6
CONTINUOUS
10
0.0470771
20
0.934682
11
0.0525307
21
0.942676
0
LINE
8
BLACK
6
CONTINUOUS
10
0.0525307
20
0.942676
11
0.059217
21
0.949673
0
LINE
8
BLACK
6
CONTINUOUS
10
0.059217
20
0.949673
11
0.0669561
21
0.955484
0
LINE
8
BLACK
6
CONTINUOUS
10
0.0669561
20
0.955484
11
0.0755404
21
0.959953
0
LINE
8
BLACK
6
CONTINUOUS
10
0.0755404
20
0.959953
11
0.0847393
21
0.962959
0
LINE
8
BLACK
6
CONTINUOUS
10
0.0847393
20
0.962959
11
0.0943057
21
0.964423
0
LINE
8
BLACK
6
CONTINUOUS
10
0.0943057
20
0.964423
11
0.103983
21
0.964305
  0
ENDSEC
  0
EOF
