  0
SECTION
  2
HEADER
  9
$ANGBASE
  50
0.0
  9
$ANGDIR
  70
1
  9
$MEASUREMENT
  70
0
  0
ENDSEC
  0
SECTION
  2
TABLES
  0
TABLE
  2
LTYPE
  70
4
  0
LTYPE
  5
40F
  2
CONTINUOUS
  70
0
  3
Solid line
  72
65
  73
0
  40
0.0
  0
LTYPE
  5
410
  2
DASHDOT
 70
0
  3
Dash Dot ____ _ ____ _
 72
65
 73
4
 40
2.0
 49
1.25
 49
-0.25
 49
0.25
 49
-0.25
  0
LTYPE
  5
411
  2
DASHED
 70
0
  3
Dashed __ __ __ __ __
 72
65
 73
2
 40
0.75
 49
0.5
 49
-0.25
  0
LTYPE
  5
43B
  2
DOTTED
 70
0
  3
Dotted .  .  .  .
 72
65
 73
2
 40
0.2
 49
0.0
 49
-0.2
  0
ENDTAB
  0
TABLE
  2
STYLE
  70
4
  0
STYLE
  2
KICAD
  70
0
  40
0
  41
1
  42
1
  50
0
  71
0
  3
isocp.shx
  0
STYLE
  2
KICADB
  70
0
  40
0
  41
1
  42
1
  50
0
  71
0
  3
isocp.shx
  0
STYLE
  2
KICADI
  70
0
  40
0
  41
1
  42
1
  50
15
  71
0
  3
isocp.shx
  0
STYLE
  2
KICADBI
  70
0
  40
0
  41
1
  42
1
  50
15
  71
0
  3
isocp.shx
  0
ENDTAB
  0
TABLE
  2
LAYER
  70
1
  0
LAYER
  2
BLACK
  70
0
  62
7
  6
CONTINUOUS
  0
ENDTAB
  0
ENDSEC
  0
SECTION
  2
ENTITIES
0
LINE
8
BLACK
6
CONTINUOUS
10
0.9545539763779527
20
0.1281877952755905
11
0.9577471259842519
21
0.1260542125984252
0
LINE
8
BLACK
6
CONTINUOUS
10
0.9577471259842519
20
0.1260542125984252
11
0.9598807086614173
21
0.122861062992126
0
LINE
8
BLACK
6
CONTINUOUS
10
0.9598807086614173
20
0.122861062992126
11
0.9606299212598425
21
0.1190944881889764
0
LINE
8
BLACK
6
CONTINUOUS
10
0.9606299212598425
20
0.1190944881889764
11
0.9606299212598425
21
0.0994094488188976
0
LINE
8
BLACK
6
CONTINUOUS
10
0.9606299212598425
20
0.0994094488188976
11
0.9598807086614173
21
0.095642874015748
0
LINE
8
BLACK
6
CONTINUOUS
10
0.9598807086614173
20
0.095642874015748
11
0.9577471259842519
21
0.0924497244094488
0
LINE
8
BLACK
6
CONTINUOUS
10
0.9577471259842519
20
0.0924497244094488
11
0.9545539763779527
21
0.0903161417322835
0
LINE
8
BLACK
6
CONTINUOUS
10
0.9545539763779527
20
0.0903161417322835
11
0.9507874015748031
21
0.0895669291338583
0
LINE
8
BLACK
6
CONTINUOUS
10
0.9507874015748031
20
0.0895669291338583
11
0.8641732283464567
21
0.0895669291338583
0
LINE
8
BLACK
6
CONTINUOUS
10
0.8641732283464567
20
0.0895669291338583
11
0.860406653543307
21
0.0903161417322835
0
LINE
8
BLACK
6
CONTINUOUS
10
0.860406653543307
20
0.0903161417322835
11
0.8572135039370079
21
0.0924497244094488
0
LINE
8
BLACK
6
CONTINUOUS
10
0.8572135039370079
20
0.0924497244094488
11
0.8550799212598424
21
0.095642874015748
0
LINE
8
BLACK
6
CONTINUOUS
10
0.8550799212598424
20
0.095642874015748
11
0.8543307086614172
21
0.0994094488188976
0
LINE
8
BLACK
6
CONTINUOUS
10
0.8543307086614172
20
0.0994094488188976
11
0.8543307086614172
21
0.1190944881889764
0
LINE
8
BLACK
6
CONTINUOUS
10
0.8543307086614172
20
0.1190944881889764
11
0.8550799212598424
21
0.122861062992126
0
LINE
8
BLACK
6
CONTINUOUS
10
0.8550799212598424
20
0.122861062992126
11
0.8572135039370079
21
0.1260542125984252
0
LINE
8
BLACK
6
CONTINUOUS
10
0.8572135039370079
20
0.1260542125984252
11
0.860406653543307
21
0.1281877952755905
0
LINE
8
BLACK
6
CONTINUOUS
10
0.860406653543307
20
0.1281877952755905
11
0.8641732283464567
21
0.1289370078740157
0
LINE
8
BLACK
6
CONTINUOUS
10
0.8641732283464567
20
0.1289370078740157
11
0.9507874015748031
21
0.1289370078740157
0
LINE
8
BLACK
6
CONTINUOUS
10
0.9507874015748031
20
0.1289370078740157
11
0.9545539763779527
21
0.1281877952755905
0
LINE
8
BLACK
6
CONTINUOUS
10
0.8113150787401575
20
0.1934481102362205
11
0.8132309448818897
21
0.1921679527559055
0
LINE
8
BLACK
6
CONTINUOUS
10
0.8132309448818897
20
0.1921679527559055
11
0.8145111023622047
21
0.1902520866141732
0
LINE
8
BLACK
6
CONTINUOUS
10
0.8145111023622047
20
0.1902520866141732
11
0.8149606299212598
21
0.187992125984252
0
LINE
8
BLACK
6
CONTINUOUS
10
0.8149606299212598
20
0.187992125984252
11
0.8149606299212598
21
0.1761811023622047
0
LINE
8
BLACK
6
CONTINUOUS
10
0.8149606299212598
20
0.1761811023622047
11
0.8145111023622047
21
0.1739211417322835
0
LINE
8
BLACK
6
CONTINUOUS
10
0.8145111023622047
20
0.1739211417322835
11
0.8132309448818897
21
0.1720052755905512
0
LINE
8
BLACK
6
CONTINUOUS
10
0.8132309448818897
20
0.1720052755905512
11
0.8113150787401575
21
0.1707251181102362
0
LINE
8
BLACK
6
CONTINUOUS
10
0.8113150787401575
20
0.1707251181102362
11
0.8090551181102362
21
0.1702755905511811
0
LINE
8
BLACK
6
CONTINUOUS
10
0.8090551181102362
20
0.1702755905511811
11
0.7539370078740157
21
0.1702755905511811
0
LINE
8
BLACK
6
CONTINUOUS
10
0.7539370078740157
20
0.1702755905511811
11
0.7516770472440945
21
0.1707251181102362
0
LINE
8
BLACK
6
CONTINUOUS
10
0.7516770472440945
20
0.1707251181102362
11
0.7497611811023622
21
0.1720052755905512
0
LINE
8
BLACK
6
CONTINUOUS
10
0.7497611811023622
20
0.1720052755905512
11
0.7484810236220473
21
0.1739211417322835
0
LINE
8
BLACK
6
CONTINUOUS
10
0.7484810236220473
20
0.1739211417322835
11
0.7480314960629921
21
0.1761811023622047
0
LINE
8
BLACK
6
CONTINUOUS
10
0.7480314960629921
20
0.1761811023622047
11
0.7480314960629921
21
0.187992125984252
0
LINE
8
BLACK
6
CONTINUOUS
10
0.7480314960629921
20
0.187992125984252
11
0.7484810236220473
21
0.1902520866141732
0
LINE
8
BLACK
6
CONTINUOUS
10
0.7484810236220473
20
0.1902520866141732
11
0.7497611811023622
21
0.1921679527559055
0
LINE
8
BLACK
6
CONTINUOUS
10
0.7497611811023622
20
0.1921679527559055
11
0.7516770472440945
21
0.1934481102362205
0
LINE
8
BLACK
6
CONTINUOUS
10
0.7516770472440945
20
0.1934481102362205
11
0.7539370078740157
21
0.1938976377952756
0
LINE
8
BLACK
6
CONTINUOUS
10
0.7539370078740157
20
0.1938976377952756
11
0.8090551181102362
21
0.1938976377952756
0
LINE
8
BLACK
6
CONTINUOUS
10
0.8090551181102362
20
0.1938976377952756
11
0.8113150787401575
21
0.1934481102362205
0
LINE
8
BLACK
6
CONTINUOUS
10
0.8113150787401575
20
0.2426607086614173
11
0.8132309448818897
21
0.2413805511811024
0
LINE
8
BLACK
6
CONTINUOUS
10
0.8132309448818897
20
0.2413805511811024
11
0.8145111023622047
21
0.2394646850393701
0
LINE
8
BLACK
6
CONTINUOUS
10
0.8145111023622047
20
0.2394646850393701
11
0.8149606299212598
21
0.2372047244094488
0
LINE
8
BLACK
6
CONTINUOUS
10
0.8149606299212598
20
0.2372047244094488
11
0.8149606299212598
21
0.2253937007874016
0
LINE
8
BLACK
6
CONTINUOUS
10
0.8149606299212598
20
0.2253937007874016
11
0.8145111023622047
21
0.2231337401574803
0
LINE
8
BLACK
6
CONTINUOUS
10
0.8145111023622047
20
0.2231337401574803
11
0.8132309448818897
21
0.221217874015748
0
LINE
8
BLACK
6
CONTINUOUS
10
0.8132309448818897
20
0.221217874015748
11
0.8113150787401575
21
0.2199377165354331
0
LINE
8
BLACK
6
CONTINUOUS
10
0.8113150787401575
20
0.2199377165354331
11
0.8090551181102362
21
0.219488188976378
0
LINE
8
BLACK
6
CONTINUOUS
10
0.8090551181102362
20
0.219488188976378
11
0.7539370078740157
21
0.219488188976378
0
LINE
8
BLACK
6
CONTINUOUS
10
0.7539370078740157
20
0.219488188976378
11
0.7516770472440945
21
0.2199377165354331
0
LINE
8
BLACK
6
CONTINUOUS
10
0.7516770472440945
20
0.2199377165354331
11
0.7497611811023622
21
0.221217874015748
0
LINE
8
BLACK
6
CONTINUOUS
10
0.7497611811023622
20
0.221217874015748
11
0.7484810236220473
21
0.2231337401574803
0
LINE
8
BLACK
6
CONTINUOUS
10
0.7484810236220473
20
0.2231337401574803
11
0.7480314960629921
21
0.2253937007874016
0
LINE
8
BLACK
6
CONTINUOUS
10
0.7480314960629921
20
0.2253937007874016
11
0.7480314960629921
21
0.2372047244094488
0
LINE
8
BLACK
6
CONTINUOUS
10
0.7480314960629921
20
0.2372047244094488
11
0.7484810236220473
21
0.2394646850393701
0
LINE
8
BLACK
6
CONTINUOUS
10
0.7484810236220473
20
0.2394646850393701
11
0.7497611811023622
21
0.2413805511811024
0
LINE
8
BLACK
6
CONTINUOUS
10
0.7497611811023622
20
0.2413805511811024
11
0.7516770472440945
21
0.2426607086614173
0
LINE
8
BLACK
6
CONTINUOUS
10
0.7516770472440945
20
0.2426607086614173
11
0.7539370078740157
21
0.2431102362204724
0
LINE
8
BLACK
6
CONTINUOUS
10
0.7539370078740157
20
0.2431102362204724
11
0.8090551181102362
21
0.2431102362204724
0
LINE
8
BLACK
6
CONTINUOUS
10
0.8090551181102362
20
0.2431102362204724
11
0.8113150787401575
21
0.2426607086614173
0
LINE
8
BLACK
6
CONTINUOUS
10
0.8113150787401575
20
0.2918733070866142
11
0.8132309448818897
21
0.2905931496062992
0
LINE
8
BLACK
6
CONTINUOUS
10
0.8132309448818897
20
0.2905931496062992
11
0.8145111023622047
21
0.2886772834645669
0
LINE
8
BLACK
6
CONTINUOUS
10
0.8145111023622047
20
0.2886772834645669
11
0.8149606299212598
21
0.2864173228346457
0
LINE
8
BLACK
6
CONTINUOUS
10
0.8149606299212598
20
0.2864173228346457
11
0.8149606299212598
21
0.2746062992125984
0
LINE
8
BLACK
6
CONTINUOUS
10
0.8149606299212598
20
0.2746062992125984
11
0.8145111023622047
21
0.2723463385826771
0
LINE
8
BLACK
6
CONTINUOUS
10
0.8145111023622047
20
0.2723463385826771
11
0.8132309448818897
21
0.2704304724409449
0
LINE
8
BLACK
6
CONTINUOUS
10
0.8132309448818897
20
0.2704304724409449
11
0.8113150787401575
21
0.2691503149606299
0
LINE
8
BLACK
6
CONTINUOUS
10
0.8113150787401575
20
0.2691503149606299
11
0.8090551181102362
21
0.2687007874015748
0
LINE
8
BLACK
6
CONTINUOUS
10
0.8090551181102362
20
0.2687007874015748
11
0.7539370078740157
21
0.2687007874015748
0
LINE
8
BLACK
6
CONTINUOUS
10
0.7539370078740157
20
0.2687007874015748
11
0.7516770472440945
21
0.2691503149606299
0
LINE
8
BLACK
6
CONTINUOUS
10
0.7516770472440945
20
0.2691503149606299
11
0.7497611811023622
21
0.2704304724409449
0
LINE
8
BLACK
6
CONTINUOUS
10
0.7497611811023622
20
0.2704304724409449
11
0.7484810236220473
21
0.2723463385826771
0
LINE
8
BLACK
6
CONTINUOUS
10
0.7484810236220473
20
0.2723463385826771
11
0.7480314960629921
21
0.2746062992125984
0
LINE
8
BLACK
6
CONTINUOUS
10
0.7480314960629921
20
0.2746062992125984
11
0.7480314960629921
21
0.2864173228346457
0
LINE
8
BLACK
6
CONTINUOUS
10
0.7480314960629921
20
0.2864173228346457
11
0.7484810236220473
21
0.2886772834645669
0
LINE
8
BLACK
6
CONTINUOUS
10
0.7484810236220473
20
0.2886772834645669
11
0.7497611811023622
21
0.2905931496062992
0
LINE
8
BLACK
6
CONTINUOUS
10
0.7497611811023622
20
0.2905931496062992
11
0.7516770472440945
21
0.2918733070866142
0
LINE
8
BLACK
6
CONTINUOUS
10
0.7516770472440945
20
0.2918733070866142
11
0.7539370078740157
21
0.2923228346456693
0
LINE
8
BLACK
6
CONTINUOUS
10
0.7539370078740157
20
0.2923228346456693
11
0.8090551181102362
21
0.2923228346456693
0
LINE
8
BLACK
6
CONTINUOUS
10
0.8090551181102362
20
0.2923228346456693
11
0.8113150787401575
21
0.2918733070866142
0
LINE
8
BLACK
6
CONTINUOUS
10
0.8113150787401575
20
0.341085905511811
11
0.8132309448818897
21
0.339805748031496
0
LINE
8
BLACK
6
CONTINUOUS
10
0.8132309448818897
20
0.339805748031496
11
0.8145111023622047
21
0.3378898818897638
0
LINE
8
BLACK
6
CONTINUOUS
10
0.8145111023622047
20
0.3378898818897638
11
0.8149606299212598
21
0.3356299212598425
0
LINE
8
BLACK
6
CONTINUOUS
10
0.8149606299212598
20
0.3356299212598425
11
0.8149606299212598
21
0.3238188976377953
0
LINE
8
BLACK
6
CONTINUOUS
10
0.8149606299212598
20
0.3238188976377953
11
0.8145111023622047
21
0.321558937007874
0
LINE
8
BLACK
6
CONTINUOUS
10
0.8145111023622047
20
0.321558937007874
11
0.8132309448818897
21
0.3196430708661417
0
LINE
8
BLACK
6
CONTINUOUS
10
0.8132309448818897
20
0.3196430708661417
11
0.8113150787401575
21
0.3183629133858268
0
LINE
8
BLACK
6
CONTINUOUS
10
0.8113150787401575
20
0.3183629133858268
11
0.8090551181102362
21
0.3179133858267716
0
LINE
8
BLACK
6
CONTINUOUS
10
0.8090551181102362
20
0.3179133858267716
11
0.7539370078740157
21
0.3179133858267716
0
LINE
8
BLACK
6
CONTINUOUS
10
0.7539370078740157
20
0.3179133858267716
11
0.7516770472440945
21
0.3183629133858268
0
LINE
8
BLACK
6
CONTINUOUS
10
0.7516770472440945
20
0.3183629133858268
11
0.7497611811023622
21
0.3196430708661417
0
LINE
8
BLACK
6
CONTINUOUS
10
0.7497611811023622
20
0.3196430708661417
11
0.7484810236220473
21
0.321558937007874
0
LINE
8
BLACK
6
CONTINUOUS
10
0.7484810236220473
20
0.321558937007874
11
0.7480314960629921
21
0.3238188976377953
0
LINE
8
BLACK
6
CONTINUOUS
10
0.7480314960629921
20
0.3238188976377953
11
0.7480314960629921
21
0.3356299212598425
0
LINE
8
BLACK
6
CONTINUOUS
10
0.7480314960629921
20
0.3356299212598425
11
0.7484810236220473
21
0.3378898818897638
0
LINE
8
BLACK
6
CONTINUOUS
10
0.7484810236220473
20
0.3378898818897638
11
0.7497611811023622
21
0.339805748031496
0
LINE
8
BLACK
6
CONTINUOUS
10
0.7497611811023622
20
0.339805748031496
11
0.7516770472440945
21
0.341085905511811
0
LINE
8
BLACK
6
CONTINUOUS
10
0.7516770472440945
20
0.341085905511811
11
0.7539370078740157
21
0.3415354330708661
0
LINE
8
BLACK
6
CONTINUOUS
10
0.7539370078740157
20
0.3415354330708661
11
0.8090551181102362
21
0.3415354330708661
0
LINE
8
BLACK
6
CONTINUOUS
10
0.8090551181102362
20
0.3415354330708661
11
0.8113150787401575
21
0.341085905511811
0
LINE
8
BLACK
6
CONTINUOUS
10
0.9545539763779527
20
0.4214948818897638
11
0.9577471259842519
21
0.4193612992125984
0
LINE
8
BLACK
6
CONTINUOUS
10
0.9577471259842519
20
0.4193612992125984
11
0.9598807086614173
21
0.4161681496062992
0
LINE
8
BLACK
6
CONTINUOUS
10
0.9598807086614173
20
0.4161681496062992
11
0.9606299212598425
21
0.4124015748031496
0
LINE
8
BLACK
6
CONTINUOUS
10
0.9606299212598425
20
0.4124015748031496
11
0.9606299212598425
21
0.3927165354330708
0
LINE
8
BLACK
6
CONTINUOUS
10
0.9606299212598425
20
0.3927165354330708
11
0.9598807086614173
21
0.3889499606299213
0
LINE
8
BLACK
6
CONTINUOUS
10
0.9598807086614173
20
0.3889499606299213
11
0.9577471259842519
21
0.385756811023622
0
LINE
8
BLACK
6
CONTINUOUS
10
0.9577471259842519
20
0.385756811023622
11
0.9545539763779527
21
0.3836232283464567
0
LINE
8
BLACK
6
CONTINUOUS
10
0.9545539763779527
20
0.3836232283464567
11
0.9507874015748031
21
0.3828740157480315
0
LINE
8
BLACK
6
CONTINUOUS
10
0.9507874015748031
20
0.3828740157480315
11
0.8641732283464567
21
0.3828740157480315
0
LINE
8
BLACK
6
CONTINUOUS
10
0.8641732283464567
20
0.3828740157480315
11
0.860406653543307
21
0.3836232283464567
0
LINE
8
BLACK
6
CONTINUOUS
10
0.860406653543307
20
0.3836232283464567
11
0.8572135039370079
21
0.385756811023622
0
LINE
8
BLACK
6
CONTINUOUS
10
0.8572135039370079
20
0.385756811023622
11
0.8550799212598424
21
0.3889499606299213
0
LINE
8
BLACK
6
CONTINUOUS
10
0.8550799212598424
20
0.3889499606299213
11
0.8543307086614172
21
0.3927165354330708
0
LINE
8
BLACK
6
CONTINUOUS
10
0.8543307086614172
20
0.3927165354330708
11
0.8543307086614172
21
0.4124015748031496
0
LINE
8
BLACK
6
CONTINUOUS
10
0.8543307086614172
20
0.4124015748031496
11
0.8550799212598424
21
0.4161681496062992
0
LINE
8
BLACK
6
CONTINUOUS
10
0.8550799212598424
20
0.4161681496062992
11
0.8572135039370079
21
0.4193612992125984
0
LINE
8
BLACK
6
CONTINUOUS
10
0.8572135039370079
20
0.4193612992125984
11
0.860406653543307
21
0.4214948818897638
0
LINE
8
BLACK
6
CONTINUOUS
10
0.860406653543307
20
0.4214948818897638
11
0.8641732283464567
21
0.4222440944881889
0
LINE
8
BLACK
6
CONTINUOUS
10
0.8641732283464567
20
0.4222440944881889
11
0.9507874015748031
21
0.4222440944881889
0
LINE
8
BLACK
6
CONTINUOUS
10
0.9507874015748031
20
0.4222440944881889
11
0.9545539763779527
21
0.4214948818897638
0
LINE
8
BLACK
6
CONTINUOUS
10
0.9545539763779527
20
0.5218885826771653
11
0.9577471259842519
21
0.519755
0
LINE
8
BLACK
6
CONTINUOUS
10
0.9577471259842519
20
0.519755
11
0.9598807086614173
21
0.5165618503937007
0
LINE
8
BLACK
6
CONTINUOUS
10
0.9598807086614173
20
0.5165618503937007
11
0.9606299212598425
21
0.5127952755905512
0
LINE
8
BLACK
6
CONTINUOUS
10
0.9606299212598425
20
0.5127952755905512
11
0.9606299212598425
21
0.4931102362204725
0
LINE
8
BLACK
6
CONTINUOUS
10
0.9606299212598425
20
0.4931102362204725
11
0.9598807086614173
21
0.4893436614173228
0
LINE
8
BLACK
6
CONTINUOUS
10
0.9598807086614173
20
0.4893436614173228
11
0.9577471259842519
21
0.4861505118110236
0
LINE
8
BLACK
6
CONTINUOUS
10
0.9577471259842519
20
0.4861505118110236
11
0.9545539763779527
21
0.4840169291338582
0
LINE
8
BLACK
6
CONTINUOUS
10
0.9545539763779527
20
0.4840169291338582
11
0.9507874015748031
21
0.483267716535433
0
LINE
8
BLACK
6
CONTINUOUS
10
0.9507874015748031
20
0.483267716535433
11
0.8641732283464567
21
0.483267716535433
0
LINE
8
BLACK
6
CONTINUOUS
10
0.8641732283464567
20
0.483267716535433
11
0.860406653543307
21
0.4840169291338582
0
LINE
8
BLACK
6
CONTINUOUS
10
0.860406653543307
20
0.4840169291338582
11
0.8572135039370079
21
0.4861505118110236
0
LINE
8
BLACK
6
CONTINUOUS
10
0.8572135039370079
20
0.4861505118110236
11
0.8550799212598424
21
0.4893436614173228
0
LINE
8
BLACK
6
CONTINUOUS
10
0.8550799212598424
20
0.4893436614173228
11
0.8543307086614172
21
0.4931102362204725
0
LINE
8
BLACK
6
CONTINUOUS
10
0.8543307086614172
20
0.4931102362204725
11
0.8543307086614172
21
0.5127952755905512
0
LINE
8
BLACK
6
CONTINUOUS
10
0.8543307086614172
20
0.5127952755905512
11
0.8550799212598424
21
0.5165618503937007
0
LINE
8
BLACK
6
CONTINUOUS
10
0.8550799212598424
20
0.5165618503937007
11
0.8572135039370079
21
0.519755
0
LINE
8
BLACK
6
CONTINUOUS
10
0.8572135039370079
20
0.519755
11
0.860406653543307
21
0.5218885826771653
0
LINE
8
BLACK
6
CONTINUOUS
10
0.860406653543307
20
0.5218885826771653
11
0.8641732283464567
21
0.5226377952755905
0
LINE
8
BLACK
6
CONTINUOUS
10
0.8641732283464567
20
0.5226377952755905
11
0.9507874015748031
21
0.5226377952755905
0
LINE
8
BLACK
6
CONTINUOUS
10
0.9507874015748031
20
0.5226377952755905
11
0.9545539763779527
21
0.5218885826771653
0
LINE
8
BLACK
6
CONTINUOUS
10
0.8113150787401575
20
0.5871488976377952
11
0.8132309448818897
21
0.5858687401574803
0
LINE
8
BLACK
6
CONTINUOUS
10
0.8132309448818897
20
0.5858687401574803
11
0.8145111023622047
21
0.583952874015748
0
LINE
8
BLACK
6
CONTINUOUS
10
0.8145111023622047
20
0.583952874015748
11
0.8149606299212598
21
0.5816929133858267
0
LINE
8
BLACK
6
CONTINUOUS
10
0.8149606299212598
20
0.5816929133858267
11
0.8149606299212598
21
0.5698818897637795
0
LINE
8
BLACK
6
CONTINUOUS
10
0.8149606299212598
20
0.5698818897637795
11
0.8145111023622047
21
0.5676219291338582
0
LINE
8
BLACK
6
CONTINUOUS
10
0.8145111023622047
20
0.5676219291338582
11
0.8132309448818897
21
0.565706062992126
0
LINE
8
BLACK
6
CONTINUOUS
10
0.8132309448818897
20
0.565706062992126
11
0.8113150787401575
21
0.564425905511811
0
LINE
8
BLACK
6
CONTINUOUS
10
0.8113150787401575
20
0.564425905511811
11
0.8090551181102362
21
0.5639763779527559
0
LINE
8
BLACK
6
CONTINUOUS
10
0.8090551181102362
20
0.5639763779527559
11
0.7539370078740157
21
0.5639763779527559
0
LINE
8
BLACK
6
CONTINUOUS
10
0.7539370078740157
20
0.5639763779527559
11
0.7516770472440945
21
0.564425905511811
0
LINE
8
BLACK
6
CONTINUOUS
10
0.7516770472440945
20
0.564425905511811
11
0.7497611811023622
21
0.565706062992126
0
LINE
8
BLACK
6
CONTINUOUS
10
0.7497611811023622
20
0.565706062992126
11
0.7484810236220473
21
0.5676219291338582
0
LINE
8
BLACK
6
CONTINUOUS
10
0.7484810236220473
20
0.5676219291338582
11
0.7480314960629921
21
0.5698818897637795
0
LINE
8
BLACK
6
CONTINUOUS
10
0.7480314960629921
20
0.5698818897637795
11
0.7480314960629921
21
0.5816929133858267
0
LINE
8
BLACK
6
CONTINUOUS
10
0.7480314960629921
20
0.5816929133858267
11
0.7484810236220473
21
0.583952874015748
0
LINE
8
BLACK
6
CONTINUOUS
10
0.7484810236220473
20
0.583952874015748
11
0.7497611811023622
21
0.5858687401574803
0
LINE
8
BLACK
6
CONTINUOUS
10
0.7497611811023622
20
0.5858687401574803
11
0.7516770472440945
21
0.5871488976377952
0
LINE
8
BLACK
6
CONTINUOUS
10
0.7516770472440945
20
0.5871488976377952
11
0.7539370078740157
21
0.5875984251968503
0
LINE
8
BLACK
6
CONTINUOUS
10
0.7539370078740157
20
0.5875984251968503
11
0.8090551181102362
21
0.5875984251968503
0
LINE
8
BLACK
6
CONTINUOUS
10
0.8090551181102362
20
0.5875984251968503
11
0.8113150787401575
21
0.5871488976377952
0
LINE
8
BLACK
6
CONTINUOUS
10
0.8113150787401575
20
0.6363614960629921
11
0.8132309448818897
21
0.6350813385826771
0
LINE
8
BLACK
6
CONTINUOUS
10
0.8132309448818897
20
0.6350813385826771
11
0.8145111023622047
21
0.6331654724409449
0
LINE
8
BLACK
6
CONTINUOUS
10
0.8145111023622047
20
0.6331654724409449
11
0.8149606299212598
21
0.6309055118110236
0
LINE
8
BLACK
6
CONTINUOUS
10
0.8149606299212598
20
0.6309055118110236
11
0.8149606299212598
21
0.6190944881889764
0
LINE
8
BLACK
6
CONTINUOUS
10
0.8149606299212598
20
0.6190944881889764
11
0.8145111023622047
21
0.6168345275590551
0
LINE
8
BLACK
6
CONTINUOUS
10
0.8145111023622047
20
0.6168345275590551
11
0.8132309448818897
21
0.6149186614173229
0
LINE
8
BLACK
6
CONTINUOUS
10
0.8132309448818897
20
0.6149186614173229
11
0.8113150787401575
21
0.6136385039370078
0
LINE
8
BLACK
6
CONTINUOUS
10
0.8113150787401575
20
0.6136385039370078
11
0.8090551181102362
21
0.6131889763779528
0
LINE
8
BLACK
6
CONTINUOUS
10
0.8090551181102362
20
0.6131889763779528
11
0.7539370078740157
21
0.6131889763779528
0
LINE
8
BLACK
6
CONTINUOUS
10
0.7539370078740157
20
0.6131889763779528
11
0.7516770472440945
21
0.6136385039370078
0
LINE
8
BLACK
6
CONTINUOUS
10
0.7516770472440945
20
0.6136385039370078
11
0.7497611811023622
21
0.6149186614173229
0
LINE
8
BLACK
6
CONTINUOUS
10
0.7497611811023622
20
0.6149186614173229
11
0.7484810236220473
21
0.6168345275590551
0
LINE
8
BLACK
6
CONTINUOUS
10
0.7484810236220473
20
0.6168345275590551
11
0.7480314960629921
21
0.6190944881889764
0
LINE
8
BLACK
6
CONTINUOUS
10
0.7480314960629921
20
0.6190944881889764
11
0.7480314960629921
21
0.6309055118110236
0
LINE
8
BLACK
6
CONTINUOUS
10
0.7480314960629921
20
0.6309055118110236
11
0.7484810236220473
21
0.6331654724409449
0
LINE
8
BLACK
6
CONTINUOUS
10
0.7484810236220473
20
0.6331654724409449
11
0.7497611811023622
21
0.6350813385826771
0
LINE
8
BLACK
6
CONTINUOUS
10
0.7497611811023622
20
0.6350813385826771
11
0.7516770472440945
21
0.6363614960629921
0
LINE
8
BLACK
6
CONTINUOUS
10
0.7516770472440945
20
0.6363614960629921
11
0.7539370078740157
21
0.6368110236220472
0
LINE
8
BLACK
6
CONTINUOUS
10
0.7539370078740157
20
0.6368110236220472
11
0.8090551181102362
21
0.6368110236220472
0
LINE
8
BLACK
6
CONTINUOUS
10
0.8090551181102362
20
0.6368110236220472
11
0.8113150787401575
21
0.6363614960629921
0
LINE
8
BLACK
6
CONTINUOUS
10
0.8113150787401575
20
0.685574094488189
11
0.8132309448818897
21
0.684293937007874
0
LINE
8
BLACK
6
CONTINUOUS
10
0.8132309448818897
20
0.684293937007874
11
0.8145111023622047
21
0.6823780708661417
0
LINE
8
BLACK
6
CONTINUOUS
10
0.8145111023622047
20
0.6823780708661417
11
0.8149606299212598
21
0.6801181102362205
0
LINE
8
BLACK
6
CONTINUOUS
10
0.8149606299212598
20
0.6801181102362205
11
0.8149606299212598
21
0.6683070866141733
0
LINE
8
BLACK
6
CONTINUOUS
10
0.8149606299212598
20
0.6683070866141733
11
0.8145111023622047
21
0.666047125984252
0
LINE
8
BLACK
6
CONTINUOUS
10
0.8145111023622047
20
0.666047125984252
11
0.8132309448818897
21
0.6641312598425196
0
LINE
8
BLACK
6
CONTINUOUS
10
0.8132309448818897
20
0.6641312598425196
11
0.8113150787401575
21
0.6628511023622047
0
LINE
8
BLACK
6
CONTINUOUS
10
0.8113150787401575
20
0.6628511023622047
11
0.8090551181102362
21
0.6624015748031495
0
LINE
8
BLACK
6
CONTINUOUS
10
0.8090551181102362
20
0.6624015748031495
11
0.7539370078740157
21
0.6624015748031495
0
LINE
8
BLACK
6
CONTINUOUS
10
0.7539370078740157
20
0.6624015748031495
11
0.7516770472440945
21
0.6628511023622047
0
LINE
8
BLACK
6
CONTINUOUS
10
0.7516770472440945
20
0.6628511023622047
11
0.7497611811023622
21
0.6641312598425196
0
LINE
8
BLACK
6
CONTINUOUS
10
0.7497611811023622
20
0.6641312598425196
11
0.7484810236220473
21
0.666047125984252
0
LINE
8
BLACK
6
CONTINUOUS
10
0.7484810236220473
20
0.666047125984252
11
0.7480314960629921
21
0.6683070866141733
0
LINE
8
BLACK
6
CONTINUOUS
10
0.7480314960629921
20
0.6683070866141733
11
0.7480314960629921
21
0.6801181102362205
0
LINE
8
BLACK
6
CONTINUOUS
10
0.7480314960629921
20
0.6801181102362205
11
0.7484810236220473
21
0.6823780708661417
0
LINE
8
BLACK
6
CONTINUOUS
10
0.7484810236220473
20
0.6823780708661417
11
0.7497611811023622
21
0.684293937007874
0
LINE
8
BLACK
6
CONTINUOUS
10
0.7497611811023622
20
0.684293937007874
11
0.7516770472440945
21
0.685574094488189
0
LINE
8
BLACK
6
CONTINUOUS
10
0.7516770472440945
20
0.685574094488189
11
0.7539370078740157
21
0.6860236220472441
0
LINE
8
BLACK
6
CONTINUOUS
10
0.7539370078740157
20
0.6860236220472441
11
0.8090551181102362
21
0.6860236220472441
0
LINE
8
BLACK
6
CONTINUOUS
10
0.8090551181102362
20
0.6860236220472441
11
0.8113150787401575
21
0.685574094488189
0
LINE
8
BLACK
6
CONTINUOUS
10
0.8113150787401575
20
0.7347866929133858
11
0.8132309448818897
21
0.7335065354330709
0
LINE
8
BLACK
6
CONTINUOUS
10
0.8132309448818897
20
0.7335065354330709
11
0.8145111023622047
21
0.7315906692913385
0
LINE
8
BLACK
6
CONTINUOUS
10
0.8145111023622047
20
0.7315906692913385
11
0.8149606299212598
21
0.7293307086614174
0
LINE
8
BLACK
6
CONTINUOUS
10
0.8149606299212598
20
0.7293307086614174
11
0.8149606299212598
21
0.71751968503937
0
LINE
8
BLACK
6
CONTINUOUS
10
0.8149606299212598
20
0.71751968503937
11
0.8145111023622047
21
0.7152597244094488
0
LINE
8
BLACK
6
CONTINUOUS
10
0.8145111023622047
20
0.7152597244094488
11
0.8132309448818897
21
0.7133438582677165
0
LINE
8
BLACK
6
CONTINUOUS
10
0.8132309448818897
20
0.7133438582677165
11
0.8113150787401575
21
0.7120637007874016
0
LINE
8
BLACK
6
CONTINUOUS
10
0.8113150787401575
20
0.7120637007874016
11
0.8090551181102362
21
0.7116141732283464
0
LINE
8
BLACK
6
CONTINUOUS
10
0.8090551181102362
20
0.7116141732283464
11
0.7539370078740157
21
0.7116141732283464
0
LINE
8
BLACK
6
CONTINUOUS
10
0.7539370078740157
20
0.7116141732283464
11
0.7516770472440945
21
0.7120637007874016
0
LINE
8
BLACK
6
CONTINUOUS
10
0.7516770472440945
20
0.7120637007874016
11
0.7497611811023622
21
0.7133438582677165
0
LINE
8
BLACK
6
CONTINUOUS
10
0.7497611811023622
20
0.7133438582677165
11
0.7484810236220473
21
0.7152597244094488
0
LINE
8
BLACK
6
CONTINUOUS
10
0.7484810236220473
20
0.7152597244094488
11
0.7480314960629921
21
0.71751968503937
0
LINE
8
BLACK
6
CONTINUOUS
10
0.7480314960629921
20
0.71751968503937
11
0.7480314960629921
21
0.7293307086614174
0
LINE
8
BLACK
6
CONTINUOUS
10
0.7480314960629921
20
0.7293307086614174
11
0.7484810236220473
21
0.7315906692913385
0
LINE
8
BLACK
6
CONTINUOUS
10
0.7484810236220473
20
0.7315906692913385
11
0.7497611811023622
21
0.7335065354330709
0
LINE
8
BLACK
6
CONTINUOUS
10
0.7497611811023622
20
0.7335065354330709
11
0.7516770472440945
21
0.7347866929133858
0
LINE
8
BLACK
6
CONTINUOUS
10
0.7516770472440945
20
0.7347866929133858
11
0.7539370078740157
21
0.735236220472441
0
LINE
8
BLACK
6
CONTINUOUS
10
0.7539370078740157
20
0.735236220472441
11
0.8090551181102362
21
0.735236220472441
0
LINE
8
BLACK
6
CONTINUOUS
10
0.8090551181102362
20
0.735236220472441
11
0.8113150787401575
21
0.7347866929133858
0
LINE
8
BLACK
6
CONTINUOUS
10
0.9545539763779527
20
0.8151956692913386
11
0.9577471259842519
21
0.8130620866141732
0
LINE
8
BLACK
6
CONTINUOUS
10
0.9577471259842519
20
0.8130620866141732
11
0.9598807086614173
21
0.809868937007874
0
LINE
8
BLACK
6
CONTINUOUS
10
0.9598807086614173
20
0.809868937007874
11
0.9606299212598425
21
0.8061023622047244
0
LINE
8
BLACK
6
CONTINUOUS
10
0.9606299212598425
20
0.8061023622047244
11
0.9606299212598425
21
0.7864173228346456
0
LINE
8
BLACK
6
CONTINUOUS
10
0.9606299212598425
20
0.7864173228346456
11
0.9598807086614173
21
0.782650748031496
0
LINE
8
BLACK
6
CONTINUOUS
10
0.9598807086614173
20
0.782650748031496
11
0.9577471259842519
21
0.7794575984251968
0
LINE
8
BLACK
6
CONTINUOUS
10
0.9577471259842519
20
0.7794575984251968
11
0.9545539763779527
21
0.7773240157480314
0
LINE
8
BLACK
6
CONTINUOUS
10
0.9545539763779527
20
0.7773240157480314
11
0.9507874015748031
21
0.7765748031496063
0
LINE
8
BLACK
6
CONTINUOUS
10
0.9507874015748031
20
0.7765748031496063
11
0.8641732283464567
21
0.7765748031496063
0
LINE
8
BLACK
6
CONTINUOUS
10
0.8641732283464567
20
0.7765748031496063
11
0.860406653543307
21
0.7773240157480314
0
LINE
8
BLACK
6
CONTINUOUS
10
0.860406653543307
20
0.7773240157480314
11
0.8572135039370079
21
0.7794575984251968
0
LINE
8
BLACK
6
CONTINUOUS
10
0.8572135039370079
20
0.7794575984251968
11
0.8550799212598424
21
0.782650748031496
0
LINE
8
BLACK
6
CONTINUOUS
10
0.8550799212598424
20
0.782650748031496
11
0.8543307086614172
21
0.7864173228346456
0
LINE
8
BLACK
6
CONTINUOUS
10
0.8543307086614172
20
0.7864173228346456
11
0.8543307086614172
21
0.8061023622047244
0
LINE
8
BLACK
6
CONTINUOUS
10
0.8543307086614172
20
0.8061023622047244
11
0.8550799212598424
21
0.809868937007874
0
LINE
8
BLACK
6
CONTINUOUS
10
0.8550799212598424
20
0.809868937007874
11
0.8572135039370079
21
0.8130620866141732
0
LINE
8
BLACK
6
CONTINUOUS
10
0.8572135039370079
20
0.8130620866141732
11
0.860406653543307
21
0.8151956692913386
0
LINE
8
BLACK
6
CONTINUOUS
10
0.860406653543307
20
0.8151956692913386
11
0.8641732283464567
21
0.8159448818897638
0
LINE
8
BLACK
6
CONTINUOUS
10
0.8641732283464567
20
0.8159448818897638
11
0.9507874015748031
21
0.8159448818897638
0
LINE
8
BLACK
6
CONTINUOUS
10
0.9507874015748031
20
0.8159448818897638
11
0.9545539763779527
21
0.8151956692913386
  0
ENDSEC
  0
EOF
