  0
SECTION
  2
HEADER
  9
$ANGBASE
  50
0.0
  9
$ANGDIR
  70
1
  9
$MEASUREMENT
  70
0
  0
ENDSEC
  0
SECTION
  2
TABLES
  0
TABLE
  2
LTYPE
  70
4
  0
LTYPE
  5
40F
  2
CONTINUOUS
  70
0
  3
Solid line
  72
65
  73
0
  40
0.0
  0
LTYPE
  5
410
  2
DASHDOT
 70
0
  3
Dash Dot ____ _ ____ _
 72
65
 73
4
 40
2.0
 49
1.25
 49
-0.25
 49
0.25
 49
-0.25
  0
LTYPE
  5
411
  2
DASHED
 70
0
  3
Dashed __ __ __ __ __
 72
65
 73
2
 40
0.75
 49
0.5
 49
-0.25
  0
LTYPE
  5
43B
  2
DOTTED
 70
0
  3
Dotted .  .  .  .
 72
65
 73
2
 40
0.2
 49
0.0
 49
-0.2
  0
ENDTAB
  0
TABLE
  2
STYLE
  70
4
  0
STYLE
  2
KICAD
  70
0
  40
0
  41
1
  42
1
  50
0
  71
0
  3
isocp.shx
  0
STYLE
  2
KICADB
  70
0
  40
0
  41
1
  42
1
  50
0
  71
0
  3
isocp.shx
  0
STYLE
  2
KICADI
  70
0
  40
0
  41
1
  42
1
  50
15
  71
0
  3
isocp.shx
  0
STYLE
  2
KICADBI
  70
0
  40
0
  41
1
  42
1
  50
15
  71
0
  3
isocp.shx
  0
ENDTAB
  0
TABLE
  2
LAYER
  70
1
  0
LAYER
  2
BLACK
  70
0
  62
7
  6
CONTINUOUS
  0
ENDTAB
  0
ENDSEC
  0
SECTION
  2
ENTITIES
0
LINE
8
BLACK
6
CONTINUOUS
10
0.112922
20
0.057248
11
0.122147
21
0.0540811
0
LINE
8
BLACK
6
CONTINUOUS
10
0.122147
20
0.0540811
11
0.130725
21
0.049439
0
LINE
8
BLACK
6
CONTINUOUS
10
0.130725
20
0.049439
11
0.138422
21
0.0434483
0
LINE
8
BLACK
6
CONTINUOUS
10
0.138422
20
0.0434483
11
0.145028
21
0.0362724
0
LINE
8
BLACK
6
CONTINUOUS
10
0.145028
20
0.0362724
11
0.150363
21
0.0281071
0
LINE
8
BLACK
6
CONTINUOUS
10
0.150363
20
0.0281071
11
0.154281
21
0.0191752
0
LINE
8
BLACK
6
CONTINUOUS
10
0.154281
20
0.0191752
11
0.156675
21
0.00972016
0
LINE
8
BLACK
6
CONTINUOUS
10
0.156675
20
0.00972016
11
0.15748
21
0
0
LINE
8
BLACK
6
CONTINUOUS
10
0.15748
20
0
11
0.156675
21
-0.00972016
0
LINE
8
BLACK
6
CONTINUOUS
10
0.156675
20
-0.00972016
11
0.154281
21
-0.0191752
0
LINE
8
BLACK
6
CONTINUOUS
10
0.154281
20
-0.0191752
11
0.150363
21
-0.0281071
0
LINE
8
BLACK
6
CONTINUOUS
10
0.150363
20
-0.0281071
11
0.145028
21
-0.0362724
0
LINE
8
BLACK
6
CONTINUOUS
10
0.145028
20
-0.0362724
11
0.138422
21
-0.0434483
0
LINE
8
BLACK
6
CONTINUOUS
10
0.138422
20
-0.0434483
11
0.130725
21
-0.049439
0
LINE
8
BLACK
6
CONTINUOUS
10
0.130725
20
-0.049439
11
0.122147
21
-0.0540811
0
LINE
8
BLACK
6
CONTINUOUS
10
0.122147
20
-0.0540811
11
0.112922
21
-0.057248
0
LINE
8
BLACK
6
CONTINUOUS
10
0.112922
20
-0.057248
11
0.103302
21
-0.0588534
0
LINE
8
BLACK
6
CONTINUOUS
10
0.103302
20
-0.0588534
11
0.0935485
21
-0.0588534
0
LINE
8
BLACK
6
CONTINUOUS
10
0.0935485
20
-0.0588534
11
0.083928
21
-0.057248
0
LINE
8
BLACK
6
CONTINUOUS
10
0.083928
20
-0.057248
11
0.074703
21
-0.0540811
0
LINE
8
BLACK
6
CONTINUOUS
10
0.074703
20
-0.0540811
11
0.0661251
21
-0.049439
0
LINE
8
BLACK
6
CONTINUOUS
10
0.0661251
20
-0.049439
11
0.0584283
21
-0.0434483
0
LINE
8
BLACK
6
CONTINUOUS
10
0.0584283
20
-0.0434483
11
0.0518224
21
-0.0362724
0
LINE
8
BLACK
6
CONTINUOUS
10
0.0518224
20
-0.0362724
11
0.0464878
21
-0.0281071
0
LINE
8
BLACK
6
CONTINUOUS
10
0.0464878
20
-0.0281071
11
0.0425698
21
-0.0191752
0
LINE
8
BLACK
6
CONTINUOUS
10
0.0425698
20
-0.0191752
11
0.0401755
21
-0.00972016
0
LINE
8
BLACK
6
CONTINUOUS
10
0.0401755
20
-0.00972016
11
0.0393701
21
0
0
LINE
8
BLACK
6
CONTINUOUS
10
0.0393701
20
0
11
0.0401755
21
0.00972016
0
LINE
8
BLACK
6
CONTINUOUS
10
0.0401755
20
0.00972016
11
0.0425698
21
0.0191752
0
LINE
8
BLACK
6
CONTINUOUS
10
0.0425698
20
0.0191752
11
0.0464878
21
0.0281071
0
LINE
8
BLACK
6
CONTINUOUS
10
0.0464878
20
0.0281071
11
0.0518224
21
0.0362724
0
LINE
8
BLACK
6
CONTINUOUS
10
0.0518224
20
0.0362724
11
0.0584283
21
0.0434483
0
LINE
8
BLACK
6
CONTINUOUS
10
0.0584283
20
0.0434483
11
0.0661251
21
0.049439
0
LINE
8
BLACK
6
CONTINUOUS
10
0.0661251
20
0.049439
11
0.074703
21
0.0540811
0
LINE
8
BLACK
6
CONTINUOUS
10
0.074703
20
0.0540811
11
0.083928
21
0.057248
0
LINE
8
BLACK
6
CONTINUOUS
10
0.083928
20
0.057248
11
0.0935485
21
0.0588534
0
LINE
8
BLACK
6
CONTINUOUS
10
0.0935485
20
0.0588534
11
0.103302
21
0.0588534
0
LINE
8
BLACK
6
CONTINUOUS
10
0.103302
20
0.0588534
11
0.112922
21
0.057248
0
LINE
8
BLACK
6
CONTINUOUS
10
0.506623
20
0.057248
11
0.515848
21
0.0540811
0
LINE
8
BLACK
6
CONTINUOUS
10
0.515848
20
0.0540811
11
0.524426
21
0.049439
0
LINE
8
BLACK
6
CONTINUOUS
10
0.524426
20
0.049439
11
0.532123
21
0.0434483
0
LINE
8
BLACK
6
CONTINUOUS
10
0.532123
20
0.0434483
11
0.538729
21
0.0362724
0
LINE
8
BLACK
6
CONTINUOUS
10
0.538729
20
0.0362724
11
0.544063
21
0.0281071
0
LINE
8
BLACK
6
CONTINUOUS
10
0.544063
20
0.0281071
11
0.547981
21
0.0191752
0
LINE
8
BLACK
6
CONTINUOUS
10
0.547981
20
0.0191752
11
0.550376
21
0.00972016
0
LINE
8
BLACK
6
CONTINUOUS
10
0.550376
20
0.00972016
11
0.551181
21
0
0
LINE
8
BLACK
6
CONTINUOUS
10
0.551181
20
0
11
0.550376
21
-0.00972016
0
LINE
8
BLACK
6
CONTINUOUS
10
0.550376
20
-0.00972016
11
0.547981
21
-0.0191752
0
LINE
8
BLACK
6
CONTINUOUS
10
0.547981
20
-0.0191752
11
0.544063
21
-0.0281071
0
LINE
8
BLACK
6
CONTINUOUS
10
0.544063
20
-0.0281071
11
0.538729
21
-0.0362724
0
LINE
8
BLACK
6
CONTINUOUS
10
0.538729
20
-0.0362724
11
0.532123
21
-0.0434483
0
LINE
8
BLACK
6
CONTINUOUS
10
0.532123
20
-0.0434483
11
0.524426
21
-0.049439
0
LINE
8
BLACK
6
CONTINUOUS
10
0.524426
20
-0.049439
11
0.515848
21
-0.0540811
0
LINE
8
BLACK
6
CONTINUOUS
10
0.515848
20
-0.0540811
11
0.506623
21
-0.057248
0
LINE
8
BLACK
6
CONTINUOUS
10
0.506623
20
-0.057248
11
0.497003
21
-0.0588534
0
LINE
8
BLACK
6
CONTINUOUS
10
0.497003
20
-0.0588534
11
0.487249
21
-0.0588534
0
LINE
8
BLACK
6
CONTINUOUS
10
0.487249
20
-0.0588534
11
0.477629
21
-0.057248
0
LINE
8
BLACK
6
CONTINUOUS
10
0.477629
20
-0.057248
11
0.468404
21
-0.0540811
0
LINE
8
BLACK
6
CONTINUOUS
10
0.468404
20
-0.0540811
11
0.459826
21
-0.049439
0
LINE
8
BLACK
6
CONTINUOUS
10
0.459826
20
-0.049439
11
0.452129
21
-0.0434483
0
LINE
8
BLACK
6
CONTINUOUS
10
0.452129
20
-0.0434483
11
0.445523
21
-0.0362724
0
LINE
8
BLACK
6
CONTINUOUS
10
0.445523
20
-0.0362724
11
0.440189
21
-0.0281071
0
LINE
8
BLACK
6
CONTINUOUS
10
0.440189
20
-0.0281071
11
0.436271
21
-0.0191752
0
LINE
8
BLACK
6
CONTINUOUS
10
0.436271
20
-0.0191752
11
0.433876
21
-0.00972016
0
LINE
8
BLACK
6
CONTINUOUS
10
0.433876
20
-0.00972016
11
0.433071
21
0
0
LINE
8
BLACK
6
CONTINUOUS
10
0.433071
20
0
11
0.433876
21
0.00972016
0
LINE
8
BLACK
6
CONTINUOUS
10
0.433876
20
0.00972016
11
0.436271
21
0.0191752
0
LINE
8
BLACK
6
CONTINUOUS
10
0.436271
20
0.0191752
11
0.440189
21
0.0281071
0
LINE
8
BLACK
6
CONTINUOUS
10
0.440189
20
0.0281071
11
0.445523
21
0.0362724
0
LINE
8
BLACK
6
CONTINUOUS
10
0.445523
20
0.0362724
11
0.452129
21
0.0434483
0
LINE
8
BLACK
6
CONTINUOUS
10
0.452129
20
0.0434483
11
0.459826
21
0.049439
0
LINE
8
BLACK
6
CONTINUOUS
10
0.459826
20
0.049439
11
0.468404
21
0.0540811
0
LINE
8
BLACK
6
CONTINUOUS
10
0.468404
20
0.0540811
11
0.477629
21
0.057248
0
LINE
8
BLACK
6
CONTINUOUS
10
0.477629
20
0.057248
11
0.487249
21
0.0588534
0
LINE
8
BLACK
6
CONTINUOUS
10
0.487249
20
0.0588534
11
0.497003
21
0.0588534
0
LINE
8
BLACK
6
CONTINUOUS
10
0.497003
20
0.0588534
11
0.506623
21
0.057248
0
LINE
8
BLACK
6
CONTINUOUS
10
0.900324
20
0.057248
11
0.909549
21
0.0540811
0
LINE
8
BLACK
6
CONTINUOUS
10
0.909549
20
0.0540811
11
0.918127
21
0.049439
0
LINE
8
BLACK
6
CONTINUOUS
10
0.918127
20
0.049439
11
0.925824
21
0.0434483
0
LINE
8
BLACK
6
CONTINUOUS
10
0.925824
20
0.0434483
11
0.93243
21
0.0362724
0
LINE
8
BLACK
6
CONTINUOUS
10
0.93243
20
0.0362724
11
0.937764
21
0.0281071
0
LINE
8
BLACK
6
CONTINUOUS
10
0.937764
20
0.0281071
11
0.941682
21
0.0191752
0
LINE
8
BLACK
6
CONTINUOUS
10
0.941682
20
0.0191752
11
0.944076
21
0.00972016
0
LINE
8
BLACK
6
CONTINUOUS
10
0.944076
20
0.00972016
11
0.944882
21
0
0
LINE
8
BLACK
6
CONTINUOUS
10
0.944882
20
0
11
0.944076
21
-0.00972016
0
LINE
8
BLACK
6
CONTINUOUS
10
0.944076
20
-0.00972016
11
0.941682
21
-0.0191752
0
LINE
8
BLACK
6
CONTINUOUS
10
0.941682
20
-0.0191752
11
0.937764
21
-0.0281071
0
LINE
8
BLACK
6
CONTINUOUS
10
0.937764
20
-0.0281071
11
0.93243
21
-0.0362724
0
LINE
8
BLACK
6
CONTINUOUS
10
0.93243
20
-0.0362724
11
0.925824
21
-0.0434483
0
LINE
8
BLACK
6
CONTINUOUS
10
0.925824
20
-0.0434483
11
0.918127
21
-0.049439
0
LINE
8
BLACK
6
CONTINUOUS
10
0.918127
20
-0.049439
11
0.909549
21
-0.0540811
0
LINE
8
BLACK
6
CONTINUOUS
10
0.909549
20
-0.0540811
11
0.900324
21
-0.057248
0
LINE
8
BLACK
6
CONTINUOUS
10
0.900324
20
-0.057248
11
0.890704
21
-0.0588534
0
LINE
8
BLACK
6
CONTINUOUS
10
0.890704
20
-0.0588534
11
0.88095
21
-0.0588534
0
LINE
8
BLACK
6
CONTINUOUS
10
0.88095
20
-0.0588534
11
0.87133
21
-0.057248
0
LINE
8
BLACK
6
CONTINUOUS
10
0.87133
20
-0.057248
11
0.862105
21
-0.0540811
0
LINE
8
BLACK
6
CONTINUOUS
10
0.862105
20
-0.0540811
11
0.853527
21
-0.049439
0
LINE
8
BLACK
6
CONTINUOUS
10
0.853527
20
-0.049439
11
0.84583
21
-0.0434483
0
LINE
8
BLACK
6
CONTINUOUS
10
0.84583
20
-0.0434483
11
0.839224
21
-0.0362724
0
LINE
8
BLACK
6
CONTINUOUS
10
0.839224
20
-0.0362724
11
0.833889
21
-0.0281071
0
LINE
8
BLACK
6
CONTINUOUS
10
0.833889
20
-0.0281071
11
0.829971
21
-0.0191752
0
LINE
8
BLACK
6
CONTINUOUS
10
0.829971
20
-0.0191752
11
0.827577
21
-0.00972016
0
LINE
8
BLACK
6
CONTINUOUS
10
0.827577
20
-0.00972016
11
0.826772
21
0
0
LINE
8
BLACK
6
CONTINUOUS
10
0.826772
20
0
11
0.827577
21
0.00972016
0
LINE
8
BLACK
6
CONTINUOUS
10
0.827577
20
0.00972016
11
0.829971
21
0.0191752
0
LINE
8
BLACK
6
CONTINUOUS
10
0.829971
20
0.0191752
11
0.833889
21
0.0281071
0
LINE
8
BLACK
6
CONTINUOUS
10
0.833889
20
0.0281071
11
0.839224
21
0.0362724
0
LINE
8
BLACK
6
CONTINUOUS
10
0.839224
20
0.0362724
11
0.84583
21
0.0434483
0
LINE
8
BLACK
6
CONTINUOUS
10
0.84583
20
0.0434483
11
0.853527
21
0.049439
0
LINE
8
BLACK
6
CONTINUOUS
10
0.853527
20
0.049439
11
0.862105
21
0.0540811
0
LINE
8
BLACK
6
CONTINUOUS
10
0.862105
20
0.0540811
11
0.87133
21
0.057248
0
LINE
8
BLACK
6
CONTINUOUS
10
0.87133
20
0.057248
11
0.88095
21
0.0588534
0
LINE
8
BLACK
6
CONTINUOUS
10
0.88095
20
0.0588534
11
0.890704
21
0.0588534
0
LINE
8
BLACK
6
CONTINUOUS
10
0.890704
20
0.0588534
11
0.900324
21
0.057248
0
LINE
8
BLACK
6
CONTINUOUS
10
0.621517
20
0.105756
11
0.626181
21
0.103379
0
LINE
8
BLACK
6
CONTINUOUS
10
0.626181
20
0.103379
11
0.629883
21
0.0996775
0
LINE
8
BLACK
6
CONTINUOUS
10
0.629883
20
0.0996775
11
0.63226
21
0.0950131
0
LINE
8
BLACK
6
CONTINUOUS
10
0.63226
20
0.0950131
11
0.633079
21
0.0898425
0
LINE
8
BLACK
6
CONTINUOUS
10
0.633079
20
0.0898425
11
0.633079
21
0.0701575
0
LINE
8
BLACK
6
CONTINUOUS
10
0.633079
20
0.0701575
11
0.63226
21
0.0649869
0
LINE
8
BLACK
6
CONTINUOUS
10
0.63226
20
0.0649869
11
0.629883
21
0.0603225
0
LINE
8
BLACK
6
CONTINUOUS
10
0.629883
20
0.0603225
11
0.626181
21
0.0566208
0
LINE
8
BLACK
6
CONTINUOUS
10
0.626181
20
0.0566208
11
0.621517
21
0.0542441
0
LINE
8
BLACK
6
CONTINUOUS
10
0.621517
20
0.0542441
11
0.616346
21
0.0534252
0
LINE
8
BLACK
6
CONTINUOUS
10
0.616346
20
0.0534252
11
0.59863
21
0.0534252
0
LINE
8
BLACK
6
CONTINUOUS
10
0.59863
20
0.0534252
11
0.593459
21
0.0542441
0
LINE
8
BLACK
6
CONTINUOUS
10
0.593459
20
0.0542441
11
0.588795
21
0.0566208
0
LINE
8
BLACK
6
CONTINUOUS
10
0.588795
20
0.0566208
11
0.585093
21
0.0603225
0
LINE
8
BLACK
6
CONTINUOUS
10
0.585093
20
0.0603225
11
0.582717
21
0.0649869
0
LINE
8
BLACK
6
CONTINUOUS
10
0.582717
20
0.0649869
11
0.581898
21
0.0701575
0
LINE
8
BLACK
6
CONTINUOUS
10
0.581898
20
0.0701575
11
0.581898
21
0.0898425
0
LINE
8
BLACK
6
CONTINUOUS
10
0.581898
20
0.0898425
11
0.582717
21
0.0950131
0
LINE
8
BLACK
6
CONTINUOUS
10
0.582717
20
0.0950131
11
0.585093
21
0.0996775
0
LINE
8
BLACK
6
CONTINUOUS
10
0.585093
20
0.0996775
11
0.588795
21
0.103379
0
LINE
8
BLACK
6
CONTINUOUS
10
0.588795
20
0.103379
11
0.593459
21
0.105756
0
LINE
8
BLACK
6
CONTINUOUS
10
0.593459
20
0.105756
11
0.59863
21
0.106575
0
LINE
8
BLACK
6
CONTINUOUS
10
0.59863
20
0.106575
11
0.616346
21
0.106575
0
LINE
8
BLACK
6
CONTINUOUS
10
0.616346
20
0.106575
11
0.621517
21
0.105756
0
LINE
8
BLACK
6
CONTINUOUS
10
0.682541
20
0.105756
11
0.687205
21
0.103379
0
LINE
8
BLACK
6
CONTINUOUS
10
0.687205
20
0.103379
11
0.690907
21
0.0996775
0
LINE
8
BLACK
6
CONTINUOUS
10
0.690907
20
0.0996775
11
0.693283
21
0.0950131
0
LINE
8
BLACK
6
CONTINUOUS
10
0.693283
20
0.0950131
11
0.694102
21
0.0898425
0
LINE
8
BLACK
6
CONTINUOUS
10
0.694102
20
0.0898425
11
0.694102
21
0.0701575
0
LINE
8
BLACK
6
CONTINUOUS
10
0.694102
20
0.0701575
11
0.693283
21
0.0649869
0
LINE
8
BLACK
6
CONTINUOUS
10
0.693283
20
0.0649869
11
0.690907
21
0.0603225
0
LINE
8
BLACK
6
CONTINUOUS
10
0.690907
20
0.0603225
11
0.687205
21
0.0566208
0
LINE
8
BLACK
6
CONTINUOUS
10
0.687205
20
0.0566208
11
0.682541
21
0.0542441
0
LINE
8
BLACK
6
CONTINUOUS
10
0.682541
20
0.0542441
11
0.67737
21
0.0534252
0
LINE
8
BLACK
6
CONTINUOUS
10
0.67737
20
0.0534252
11
0.659654
21
0.0534252
0
LINE
8
BLACK
6
CONTINUOUS
10
0.659654
20
0.0534252
11
0.654483
21
0.0542441
0
LINE
8
BLACK
6
CONTINUOUS
10
0.654483
20
0.0542441
11
0.649819
21
0.0566208
0
LINE
8
BLACK
6
CONTINUOUS
10
0.649819
20
0.0566208
11
0.646117
21
0.0603225
0
LINE
8
BLACK
6
CONTINUOUS
10
0.646117
20
0.0603225
11
0.64374
21
0.0649869
0
LINE
8
BLACK
6
CONTINUOUS
10
0.64374
20
0.0649869
11
0.642921
21
0.0701575
0
LINE
8
BLACK
6
CONTINUOUS
10
0.642921
20
0.0701575
11
0.642921
21
0.0898425
0
LINE
8
BLACK
6
CONTINUOUS
10
0.642921
20
0.0898425
11
0.64374
21
0.0950131
0
LINE
8
BLACK
6
CONTINUOUS
10
0.64374
20
0.0950131
11
0.646117
21
0.0996775
0
LINE
8
BLACK
6
CONTINUOUS
10
0.646117
20
0.0996775
11
0.649819
21
0.103379
0
LINE
8
BLACK
6
CONTINUOUS
10
0.649819
20
0.103379
11
0.654483
21
0.105756
0
LINE
8
BLACK
6
CONTINUOUS
10
0.654483
20
0.105756
11
0.659654
21
0.106575
0
LINE
8
BLACK
6
CONTINUOUS
10
0.659654
20
0.106575
11
0.67737
21
0.106575
0
LINE
8
BLACK
6
CONTINUOUS
10
0.67737
20
0.106575
11
0.682541
21
0.105756
0
LINE
8
BLACK
6
CONTINUOUS
10
0.385994
20
0.127849
11
0.390979
21
0.126104
0
LINE
8
BLACK
6
CONTINUOUS
10
0.390979
20
0.126104
11
0.395228
21
0.122968
0
LINE
8
BLACK
6
CONTINUOUS
10
0.395228
20
0.122968
11
0.398364
21
0.118719
0
LINE
8
BLACK
6
CONTINUOUS
10
0.398364
20
0.118719
11
0.400108
21
0.113735
0
LINE
8
BLACK
6
CONTINUOUS
10
0.400108
20
0.113735
11
0.400417
21
0.110441
0
LINE
8
BLACK
6
CONTINUOUS
10
0.400417
20
0.110441
11
0.400417
21
0.0907559
0
LINE
8
BLACK
6
CONTINUOUS
10
0.400417
20
0.0907559
11
0.400108
21
0.0874622
0
LINE
8
BLACK
6
CONTINUOUS
10
0.400108
20
0.0874622
11
0.398364
21
0.0824775
0
LINE
8
BLACK
6
CONTINUOUS
10
0.398364
20
0.0824775
11
0.395228
21
0.0782284
0
LINE
8
BLACK
6
CONTINUOUS
10
0.395228
20
0.0782284
11
0.390979
21
0.0750924
0
LINE
8
BLACK
6
CONTINUOUS
10
0.390979
20
0.0750924
11
0.385994
21
0.0733482
0
LINE
8
BLACK
6
CONTINUOUS
10
0.385994
20
0.0733482
11
0.382701
21
0.0730394
0
LINE
8
BLACK
6
CONTINUOUS
10
0.382701
20
0.0730394
11
0.345299
21
0.0730394
0
LINE
8
BLACK
6
CONTINUOUS
10
0.345299
20
0.0730394
11
0.342006
21
0.0733482
0
LINE
8
BLACK
6
CONTINUOUS
10
0.342006
20
0.0733482
11
0.337021
21
0.0750924
0
LINE
8
BLACK
6
CONTINUOUS
10
0.337021
20
0.0750924
11
0.332772
21
0.0782284
0
LINE
8
BLACK
6
CONTINUOUS
10
0.332772
20
0.0782284
11
0.329636
21
0.0824775
0
LINE
8
BLACK
6
CONTINUOUS
10
0.329636
20
0.0824775
11
0.327892
21
0.0874622
0
LINE
8
BLACK
6
CONTINUOUS
10
0.327892
20
0.0874622
11
0.327583
21
0.0907559
0
LINE
8
BLACK
6
CONTINUOUS
10
0.327583
20
0.0907559
11
0.327583
21
0.110441
0
LINE
8
BLACK
6
CONTINUOUS
10
0.327583
20
0.110441
11
0.327892
21
0.113735
0
LINE
8
BLACK
6
CONTINUOUS
10
0.327892
20
0.113735
11
0.329636
21
0.118719
0
LINE
8
BLACK
6
CONTINUOUS
10
0.329636
20
0.118719
11
0.332772
21
0.122968
0
LINE
8
BLACK
6
CONTINUOUS
10
0.332772
20
0.122968
11
0.337021
21
0.126104
0
LINE
8
BLACK
6
CONTINUOUS
10
0.337021
20
0.126104
11
0.342006
21
0.127849
0
LINE
8
BLACK
6
CONTINUOUS
10
0.342006
20
0.127849
11
0.345299
21
0.128157
0
LINE
8
BLACK
6
CONTINUOUS
10
0.345299
20
0.128157
11
0.382701
21
0.128157
0
LINE
8
BLACK
6
CONTINUOUS
10
0.382701
20
0.128157
11
0.385994
21
0.127849
0
LINE
8
BLACK
6
CONTINUOUS
10
0.123372
20
0.136502
11
0.128357
21
0.134758
0
LINE
8
BLACK
6
CONTINUOUS
10
0.128357
20
0.134758
11
0.132606
21
0.131622
0
LINE
8
BLACK
6
CONTINUOUS
10
0.132606
20
0.131622
11
0.135742
21
0.127373
0
LINE
8
BLACK
6
CONTINUOUS
10
0.135742
20
0.127373
11
0.137486
21
0.122388
0
LINE
8
BLACK
6
CONTINUOUS
10
0.137486
20
0.122388
11
0.137795
21
0.119094
0
LINE
8
BLACK
6
CONTINUOUS
10
0.137795
20
0.119094
11
0.137795
21
0.0994094
0
LINE
8
BLACK
6
CONTINUOUS
10
0.137795
20
0.0994094
11
0.137486
21
0.0961157
0
LINE
8
BLACK
6
CONTINUOUS
10
0.137486
20
0.0961157
11
0.135742
21
0.0911311
0
LINE
8
BLACK
6
CONTINUOUS
10
0.135742
20
0.0911311
11
0.132606
21
0.086882
0
LINE
8
BLACK
6
CONTINUOUS
10
0.132606
20
0.086882
11
0.128357
21
0.083746
0
LINE
8
BLACK
6
CONTINUOUS
10
0.128357
20
0.083746
11
0.123372
21
0.0820018
0
LINE
8
BLACK
6
CONTINUOUS
10
0.123372
20
0.0820018
11
0.120079
21
0.0816929
0
LINE
8
BLACK
6
CONTINUOUS
10
0.120079
20
0.0816929
11
0.0334646
21
0.0816929
0
LINE
8
BLACK
6
CONTINUOUS
10
0.0334646
20
0.0816929
11
0.0301709
21
0.0820018
0
LINE
8
BLACK
6
CONTINUOUS
10
0.0301709
20
0.0820018
11
0.0251862
21
0.083746
0
LINE
8
BLACK
6
CONTINUOUS
10
0.0251862
20
0.083746
11
0.0209371
21
0.086882
0
LINE
8
BLACK
6
CONTINUOUS
10
0.0209371
20
0.086882
11
0.0178011
21
0.0911311
0
LINE
8
BLACK
6
CONTINUOUS
10
0.0178011
20
0.0911311
11
0.0160569
21
0.0961157
0
LINE
8
BLACK
6
CONTINUOUS
10
0.0160569
20
0.0961157
11
0.015748
21
0.0994094
0
LINE
8
BLACK
6
CONTINUOUS
10
0.015748
20
0.0994094
11
0.015748
21
0.119094
0
LINE
8
BLACK
6
CONTINUOUS
10
0.015748
20
0.119094
11
0.0160569
21
0.122388
0
LINE
8
BLACK
6
CONTINUOUS
10
0.0160569
20
0.122388
11
0.0178011
21
0.127373
0
LINE
8
BLACK
6
CONTINUOUS
10
0.0178011
20
0.127373
11
0.0209371
21
0.131622
0
LINE
8
BLACK
6
CONTINUOUS
10
0.0209371
20
0.131622
11
0.0251862
21
0.134758
0
LINE
8
BLACK
6
CONTINUOUS
10
0.0251862
20
0.134758
11
0.0301709
21
0.136502
0
LINE
8
BLACK
6
CONTINUOUS
10
0.0301709
20
0.136502
11
0.0334646
21
0.136811
0
LINE
8
BLACK
6
CONTINUOUS
10
0.0334646
20
0.136811
11
0.120079
21
0.136811
0
LINE
8
BLACK
6
CONTINUOUS
10
0.120079
20
0.136811
11
0.123372
21
0.136502
0
LINE
8
BLACK
6
CONTINUOUS
10
0.954081
20
0.136502
11
0.959066
21
0.134758
0
LINE
8
BLACK
6
CONTINUOUS
10
0.959066
20
0.134758
11
0.963315
21
0.131622
0
LINE
8
BLACK
6
CONTINUOUS
10
0.963315
20
0.131622
11
0.966451
21
0.127373
0
LINE
8
BLACK
6
CONTINUOUS
10
0.966451
20
0.127373
11
0.968195
21
0.122388
0
LINE
8
BLACK
6
CONTINUOUS
10
0.968195
20
0.122388
11
0.968504
21
0.119094
0
LINE
8
BLACK
6
CONTINUOUS
10
0.968504
20
0.119094
11
0.968504
21
0.0994094
0
LINE
8
BLACK
6
CONTINUOUS
10
0.968504
20
0.0994094
11
0.968195
21
0.0961157
0
LINE
8
BLACK
6
CONTINUOUS
10
0.968195
20
0.0961157
11
0.966451
21
0.0911311
0
LINE
8
BLACK
6
CONTINUOUS
10
0.966451
20
0.0911311
11
0.963315
21
0.086882
0
LINE
8
BLACK
6
CONTINUOUS
10
0.963315
20
0.086882
11
0.959066
21
0.083746
0
LINE
8
BLACK
6
CONTINUOUS
10
0.959066
20
0.083746
11
0.954081
21
0.0820018
0
LINE
8
BLACK
6
CONTINUOUS
10
0.954081
20
0.0820018
11
0.950787
21
0.0816929
0
LINE
8
BLACK
6
CONTINUOUS
10
0.950787
20
0.0816929
11
0.864173
21
0.0816929
0
LINE
8
BLACK
6
CONTINUOUS
10
0.864173
20
0.0816929
11
0.86088
21
0.0820018
0
LINE
8
BLACK
6
CONTINUOUS
10
0.86088
20
0.0820018
11
0.855895
21
0.083746
0
LINE
8
BLACK
6
CONTINUOUS
10
0.855895
20
0.083746
11
0.851646
21
0.086882
0
LINE
8
BLACK
6
CONTINUOUS
10
0.851646
20
0.086882
11
0.84851
21
0.0911311
0
LINE
8
BLACK
6
CONTINUOUS
10
0.84851
20
0.0911311
11
0.846766
21
0.0961157
0
LINE
8
BLACK
6
CONTINUOUS
10
0.846766
20
0.0961157
11
0.846457
21
0.0994094
0
LINE
8
BLACK
6
CONTINUOUS
10
0.846457
20
0.0994094
11
0.846457
21
0.119094
0
LINE
8
BLACK
6
CONTINUOUS
10
0.846457
20
0.119094
11
0.846766
21
0.122388
0
LINE
8
BLACK
6
CONTINUOUS
10
0.846766
20
0.122388
11
0.84851
21
0.127373
0
LINE
8
BLACK
6
CONTINUOUS
10
0.84851
20
0.127373
11
0.851646
21
0.131622
0
LINE
8
BLACK
6
CONTINUOUS
10
0.851646
20
0.131622
11
0.855895
21
0.134758
0
LINE
8
BLACK
6
CONTINUOUS
10
0.855895
20
0.134758
11
0.86088
21
0.136502
0
LINE
8
BLACK
6
CONTINUOUS
10
0.86088
20
0.136502
11
0.864173
21
0.136811
0
LINE
8
BLACK
6
CONTINUOUS
10
0.864173
20
0.136811
11
0.950787
21
0.136811
0
LINE
8
BLACK
6
CONTINUOUS
10
0.950787
20
0.136811
11
0.954081
21
0.136502
0
LINE
8
BLACK
6
CONTINUOUS
10
0.464436
20
0.1686
11
0.468511
21
0.166608
0
LINE
8
BLACK
6
CONTINUOUS
10
0.468511
20
0.166608
11
0.471718
21
0.163401
0
LINE
8
BLACK
6
CONTINUOUS
10
0.471718
20
0.163401
11
0.473299
21
0.160167
0
LINE
8
BLACK
6
CONTINUOUS
10
0.473299
20
0.160167
11
0.47488
21
0.163401
0
LINE
8
BLACK
6
CONTINUOUS
10
0.47488
20
0.163401
11
0.478088
21
0.166608
0
LINE
8
BLACK
6
CONTINUOUS
10
0.478088
20
0.166608
11
0.482163
21
0.1686
0
LINE
8
BLACK
6
CONTINUOUS
10
0.482163
20
0.1686
11
0.486094
21
0.169173
0
LINE
8
BLACK
6
CONTINUOUS
10
0.486094
20
0.169173
11
0.497906
21
0.169173
0
LINE
8
BLACK
6
CONTINUOUS
10
0.497906
20
0.169173
11
0.501837
21
0.1686
0
LINE
8
BLACK
6
CONTINUOUS
10
0.501837
20
0.1686
11
0.505912
21
0.166608
0
LINE
8
BLACK
6
CONTINUOUS
10
0.505912
20
0.166608
11
0.50912
21
0.163401
0
LINE
8
BLACK
6
CONTINUOUS
10
0.50912
20
0.163401
11
0.510701
21
0.160167
0
LINE
8
BLACK
6
CONTINUOUS
10
0.510701
20
0.160167
11
0.512282
21
0.163401
0
LINE
8
BLACK
6
CONTINUOUS
10
0.512282
20
0.163401
11
0.515489
21
0.166608
0
LINE
8
BLACK
6
CONTINUOUS
10
0.515489
20
0.166608
11
0.519564
21
0.1686
0
LINE
8
BLACK
6
CONTINUOUS
10
0.519564
20
0.1686
11
0.523496
21
0.169173
0
LINE
8
BLACK
6
CONTINUOUS
10
0.523496
20
0.169173
11
0.535307
21
0.169173
0
LINE
8
BLACK
6
CONTINUOUS
10
0.535307
20
0.169173
11
0.539239
21
0.1686
0
LINE
8
BLACK
6
CONTINUOUS
10
0.539239
20
0.1686
11
0.543314
21
0.166608
0
LINE
8
BLACK
6
CONTINUOUS
10
0.543314
20
0.166608
11
0.546522
21
0.163401
0
LINE
8
BLACK
6
CONTINUOUS
10
0.546522
20
0.163401
11
0.548514
21
0.159326
0
LINE
8
BLACK
6
CONTINUOUS
10
0.548514
20
0.159326
11
0.549087
21
0.155394
0
LINE
8
BLACK
6
CONTINUOUS
10
0.549087
20
0.155394
11
0.549087
21
0.115039
0
LINE
8
BLACK
6
CONTINUOUS
10
0.549087
20
0.115039
11
0.548514
21
0.111108
0
LINE
8
BLACK
6
CONTINUOUS
10
0.548514
20
0.111108
11
0.546522
21
0.107032
0
LINE
8
BLACK
6
CONTINUOUS
10
0.546522
20
0.107032
11
0.543314
21
0.103825
0
LINE
8
BLACK
6
CONTINUOUS
10
0.543314
20
0.103825
11
0.539239
21
0.101833
0
LINE
8
BLACK
6
CONTINUOUS
10
0.539239
20
0.101833
11
0.535307
21
0.10126
0
LINE
8
BLACK
6
CONTINUOUS
10
0.535307
20
0.10126
11
0.523496
21
0.10126
0
LINE
8
BLACK
6
CONTINUOUS
10
0.523496
20
0.10126
11
0.519564
21
0.101833
0
LINE
8
BLACK
6
CONTINUOUS
10
0.519564
20
0.101833
11
0.515489
21
0.103825
0
LINE
8
BLACK
6
CONTINUOUS
10
0.515489
20
0.103825
11
0.512282
21
0.107032
0
LINE
8
BLACK
6
CONTINUOUS
10
0.512282
20
0.107032
11
0.510701
21
0.110266
0
LINE
8
BLACK
6
CONTINUOUS
10
0.510701
20
0.110266
11
0.50912
21
0.107032
0
LINE
8
BLACK
6
CONTINUOUS
10
0.50912
20
0.107032
11
0.505912
21
0.103825
0
LINE
8
BLACK
6
CONTINUOUS
10
0.505912
20
0.103825
11
0.501837
21
0.101833
0
LINE
8
BLACK
6
CONTINUOUS
10
0.501837
20
0.101833
11
0.497906
21
0.10126
0
LINE
8
BLACK
6
CONTINUOUS
10
0.497906
20
0.10126
11
0.486094
21
0.10126
0
LINE
8
BLACK
6
CONTINUOUS
10
0.486094
20
0.10126
11
0.482163
21
0.101833
0
LINE
8
BLACK
6
CONTINUOUS
10
0.482163
20
0.101833
11
0.478088
21
0.103825
0
LINE
8
BLACK
6
CONTINUOUS
10
0.478088
20
0.103825
11
0.47488
21
0.107032
0
LINE
8
BLACK
6
CONTINUOUS
10
0.47488
20
0.107032
11
0.473299
21
0.110266
0
LINE
8
BLACK
6
CONTINUOUS
10
0.473299
20
0.110266
11
0.471718
21
0.107032
0
LINE
8
BLACK
6
CONTINUOUS
10
0.471718
20
0.107032
11
0.468511
21
0.103825
0
LINE
8
BLACK
6
CONTINUOUS
10
0.468511
20
0.103825
11
0.464436
21
0.101833
0
LINE
8
BLACK
6
CONTINUOUS
10
0.464436
20
0.101833
11
0.460504
21
0.10126
0
LINE
8
BLACK
6
CONTINUOUS
10
0.460504
20
0.10126
11
0.448693
21
0.10126
0
LINE
8
BLACK
6
CONTINUOUS
10
0.448693
20
0.10126
11
0.444761
21
0.101833
0
LINE
8
BLACK
6
CONTINUOUS
10
0.444761
20
0.101833
11
0.440686
21
0.103825
0
LINE
8
BLACK
6
CONTINUOUS
10
0.440686
20
0.103825
11
0.437478
21
0.107032
0
LINE
8
BLACK
6
CONTINUOUS
10
0.437478
20
0.107032
11
0.435486
21
0.111108
0
LINE
8
BLACK
6
CONTINUOUS
10
0.435486
20
0.111108
11
0.434913
21
0.115039
0
LINE
8
BLACK
6
CONTINUOUS
10
0.434913
20
0.115039
11
0.434913
21
0.155394
0
LINE
8
BLACK
6
CONTINUOUS
10
0.434913
20
0.155394
11
0.435486
21
0.159326
0
LINE
8
BLACK
6
CONTINUOUS
10
0.435486
20
0.159326
11
0.437478
21
0.163401
0
LINE
8
BLACK
6
CONTINUOUS
10
0.437478
20
0.163401
11
0.440686
21
0.166608
0
LINE
8
BLACK
6
CONTINUOUS
10
0.440686
20
0.166608
11
0.444761
21
0.1686
0
LINE
8
BLACK
6
CONTINUOUS
10
0.444761
20
0.1686
11
0.448693
21
0.169173
0
LINE
8
BLACK
6
CONTINUOUS
10
0.448693
20
0.169173
11
0.460504
21
0.169173
0
LINE
8
BLACK
6
CONTINUOUS
10
0.460504
20
0.169173
11
0.464436
21
0.1686
0
LINE
8
BLACK
6
CONTINUOUS
10
0.306793
20
0.146527
11
0.309347
21
0.14482
0
LINE
8
BLACK
6
CONTINUOUS
10
0.309347
20
0.14482
11
0.311054
21
0.142265
0
LINE
8
BLACK
6
CONTINUOUS
10
0.311054
20
0.142265
11
0.311654
21
0.139252
0
LINE
8
BLACK
6
CONTINUOUS
10
0.311654
20
0.139252
11
0.311654
21
0.11563
0
LINE
8
BLACK
6
CONTINUOUS
10
0.311654
20
0.11563
11
0.311054
21
0.112617
0
LINE
8
BLACK
6
CONTINUOUS
10
0.311054
20
0.112617
11
0.309347
21
0.110062
0
LINE
8
BLACK
6
CONTINUOUS
10
0.309347
20
0.110062
11
0.306793
21
0.108355
0
LINE
8
BLACK
6
CONTINUOUS
10
0.306793
20
0.108355
11
0.30378
21
0.107756
0
LINE
8
BLACK
6
CONTINUOUS
10
0.30378
20
0.107756
11
0.27622
21
0.107756
0
LINE
8
BLACK
6
CONTINUOUS
10
0.27622
20
0.107756
11
0.273207
21
0.108355
0
LINE
8
BLACK
6
CONTINUOUS
10
0.273207
20
0.108355
11
0.270653
21
0.110062
0
LINE
8
BLACK
6
CONTINUOUS
10
0.270653
20
0.110062
11
0.268946
21
0.112617
0
LINE
8
BLACK
6
CONTINUOUS
10
0.268946
20
0.112617
11
0.268346
21
0.11563
0
LINE
8
BLACK
6
CONTINUOUS
10
0.268346
20
0.11563
11
0.268346
21
0.139252
0
LINE
8
BLACK
6
CONTINUOUS
10
0.268346
20
0.139252
11
0.268946
21
0.142265
0
LINE
8
BLACK
6
CONTINUOUS
10
0.268946
20
0.142265
11
0.270653
21
0.14482
0
LINE
8
BLACK
6
CONTINUOUS
10
0.270653
20
0.14482
11
0.273207
21
0.146527
0
LINE
8
BLACK
6
CONTINUOUS
10
0.273207
20
0.146527
11
0.27622
21
0.147126
0
LINE
8
BLACK
6
CONTINUOUS
10
0.27622
20
0.147126
11
0.30378
21
0.147126
0
LINE
8
BLACK
6
CONTINUOUS
10
0.30378
20
0.147126
11
0.306793
21
0.146527
0
LINE
8
BLACK
6
CONTINUOUS
10
0.621517
20
0.171189
11
0.626181
21
0.168812
0
LINE
8
BLACK
6
CONTINUOUS
10
0.626181
20
0.168812
11
0.629883
21
0.165111
0
LINE
8
BLACK
6
CONTINUOUS
10
0.629883
20
0.165111
11
0.63226
21
0.160446
0
LINE
8
BLACK
6
CONTINUOUS
10
0.63226
20
0.160446
11
0.633079
21
0.155276
0
LINE
8
BLACK
6
CONTINUOUS
10
0.633079
20
0.155276
11
0.633079
21
0.135591
0
LINE
8
BLACK
6
CONTINUOUS
10
0.633079
20
0.135591
11
0.63226
21
0.13042
0
LINE
8
BLACK
6
CONTINUOUS
10
0.63226
20
0.13042
11
0.629883
21
0.125756
0
LINE
8
BLACK
6
CONTINUOUS
10
0.629883
20
0.125756
11
0.626181
21
0.122054
0
LINE
8
BLACK
6
CONTINUOUS
10
0.626181
20
0.122054
11
0.621517
21
0.119677
0
LINE
8
BLACK
6
CONTINUOUS
10
0.621517
20
0.119677
11
0.616346
21
0.118858
0
LINE
8
BLACK
6
CONTINUOUS
10
0.616346
20
0.118858
11
0.59863
21
0.118858
0
LINE
8
BLACK
6
CONTINUOUS
10
0.59863
20
0.118858
11
0.593459
21
0.119677
0
LINE
8
BLACK
6
CONTINUOUS
10
0.593459
20
0.119677
11
0.588795
21
0.122054
0
LINE
8
BLACK
6
CONTINUOUS
10
0.588795
20
0.122054
11
0.585093
21
0.125756
0
LINE
8
BLACK
6
CONTINUOUS
10
0.585093
20
0.125756
11
0.582717
21
0.13042
0
LINE
8
BLACK
6
CONTINUOUS
10
0.582717
20
0.13042
11
0.581898
21
0.135591
0
LINE
8
BLACK
6
CONTINUOUS
10
0.581898
20
0.135591
11
0.581898
21
0.155276
0
LINE
8
BLACK
6
CONTINUOUS
10
0.581898
20
0.155276
11
0.582717
21
0.160446
0
LINE
8
BLACK
6
CONTINUOUS
10
0.582717
20
0.160446
11
0.585093
21
0.165111
0
LINE
8
BLACK
6
CONTINUOUS
10
0.585093
20
0.165111
11
0.588795
21
0.168812
0
LINE
8
BLACK
6
CONTINUOUS
10
0.588795
20
0.168812
11
0.593459
21
0.171189
0
LINE
8
BLACK
6
CONTINUOUS
10
0.593459
20
0.171189
11
0.59863
21
0.172008
0
LINE
8
BLACK
6
CONTINUOUS
10
0.59863
20
0.172008
11
0.616346
21
0.172008
0
LINE
8
BLACK
6
CONTINUOUS
10
0.616346
20
0.172008
11
0.621517
21
0.171189
0
LINE
8
BLACK
6
CONTINUOUS
10
0.682541
20
0.171189
11
0.687205
21
0.168812
0
LINE
8
BLACK
6
CONTINUOUS
10
0.687205
20
0.168812
11
0.690907
21
0.165111
0
LINE
8
BLACK
6
CONTINUOUS
10
0.690907
20
0.165111
11
0.693283
21
0.160446
0
LINE
8
BLACK
6
CONTINUOUS
10
0.693283
20
0.160446
11
0.694102
21
0.155276
0
LINE
8
BLACK
6
CONTINUOUS
10
0.694102
20
0.155276
11
0.694102
21
0.135591
0
LINE
8
BLACK
6
CONTINUOUS
10
0.694102
20
0.135591
11
0.693283
21
0.13042
0
LINE
8
BLACK
6
CONTINUOUS
10
0.693283
20
0.13042
11
0.690907
21
0.125756
0
LINE
8
BLACK
6
CONTINUOUS
10
0.690907
20
0.125756
11
0.687205
21
0.122054
0
LINE
8
BLACK
6
CONTINUOUS
10
0.687205
20
0.122054
11
0.682541
21
0.119677
0
LINE
8
BLACK
6
CONTINUOUS
10
0.682541
20
0.119677
11
0.67737
21
0.118858
0
LINE
8
BLACK
6
CONTINUOUS
10
0.67737
20
0.118858
11
0.659654
21
0.118858
0
LINE
8
BLACK
6
CONTINUOUS
10
0.659654
20
0.118858
11
0.654483
21
0.119677
0
LINE
8
BLACK
6
CONTINUOUS
10
0.654483
20
0.119677
11
0.649819
21
0.122054
0
LINE
8
BLACK
6
CONTINUOUS
10
0.649819
20
0.122054
11
0.646117
21
0.125756
0
LINE
8
BLACK
6
CONTINUOUS
10
0.646117
20
0.125756
11
0.64374
21
0.13042
0
LINE
8
BLACK
6
CONTINUOUS
10
0.64374
20
0.13042
11
0.642921
21
0.135591
0
LINE
8
BLACK
6
CONTINUOUS
10
0.642921
20
0.135591
11
0.642921
21
0.155276
0
LINE
8
BLACK
6
CONTINUOUS
10
0.642921
20
0.155276
11
0.64374
21
0.160446
0
LINE
8
BLACK
6
CONTINUOUS
10
0.64374
20
0.160446
11
0.646117
21
0.165111
0
LINE
8
BLACK
6
CONTINUOUS
10
0.646117
20
0.165111
11
0.649819
21
0.168812
0
LINE
8
BLACK
6
CONTINUOUS
10
0.649819
20
0.168812
11
0.654483
21
0.171189
0
LINE
8
BLACK
6
CONTINUOUS
10
0.654483
20
0.171189
11
0.659654
21
0.172008
0
LINE
8
BLACK
6
CONTINUOUS
10
0.659654
20
0.172008
11
0.67737
21
0.172008
0
LINE
8
BLACK
6
CONTINUOUS
10
0.67737
20
0.172008
11
0.682541
21
0.171189
0
LINE
8
BLACK
6
CONTINUOUS
10
0.385994
20
0.202652
11
0.390979
21
0.200908
0
LINE
8
BLACK
6
CONTINUOUS
10
0.390979
20
0.200908
11
0.395228
21
0.197772
0
LINE
8
BLACK
6
CONTINUOUS
10
0.395228
20
0.197772
11
0.398364
21
0.193522
0
LINE
8
BLACK
6
CONTINUOUS
10
0.398364
20
0.193522
11
0.400108
21
0.188538
0
LINE
8
BLACK
6
CONTINUOUS
10
0.400108
20
0.188538
11
0.400417
21
0.185244
0
LINE
8
BLACK
6
CONTINUOUS
10
0.400417
20
0.185244
11
0.400417
21
0.165559
0
LINE
8
BLACK
6
CONTINUOUS
10
0.400417
20
0.165559
11
0.400108
21
0.162265
0
LINE
8
BLACK
6
CONTINUOUS
10
0.400108
20
0.162265
11
0.398364
21
0.157281
0
LINE
8
BLACK
6
CONTINUOUS
10
0.398364
20
0.157281
11
0.395228
21
0.153032
0
LINE
8
BLACK
6
CONTINUOUS
10
0.395228
20
0.153032
11
0.390979
21
0.149896
0
LINE
8
BLACK
6
CONTINUOUS
10
0.390979
20
0.149896
11
0.385994
21
0.148151
0
LINE
8
BLACK
6
CONTINUOUS
10
0.385994
20
0.148151
11
0.382701
21
0.147843
0
LINE
8
BLACK
6
CONTINUOUS
10
0.382701
20
0.147843
11
0.345299
21
0.147843
0
LINE
8
BLACK
6
CONTINUOUS
10
0.345299
20
0.147843
11
0.342006
21
0.148151
0
LINE
8
BLACK
6
CONTINUOUS
10
0.342006
20
0.148151
11
0.337021
21
0.149896
0
LINE
8
BLACK
6
CONTINUOUS
10
0.337021
20
0.149896
11
0.332772
21
0.153032
0
LINE
8
BLACK
6
CONTINUOUS
10
0.332772
20
0.153032
11
0.329636
21
0.157281
0
LINE
8
BLACK
6
CONTINUOUS
10
0.329636
20
0.157281
11
0.327892
21
0.162265
0
LINE
8
BLACK
6
CONTINUOUS
10
0.327892
20
0.162265
11
0.327583
21
0.165559
0
LINE
8
BLACK
6
CONTINUOUS
10
0.327583
20
0.165559
11
0.327583
21
0.185244
0
LINE
8
BLACK
6
CONTINUOUS
10
0.327583
20
0.185244
11
0.327892
21
0.188538
0
LINE
8
BLACK
6
CONTINUOUS
10
0.327892
20
0.188538
11
0.329636
21
0.193522
0
LINE
8
BLACK
6
CONTINUOUS
10
0.329636
20
0.193522
11
0.332772
21
0.197772
0
LINE
8
BLACK
6
CONTINUOUS
10
0.332772
20
0.197772
11
0.337021
21
0.200908
0
LINE
8
BLACK
6
CONTINUOUS
10
0.337021
20
0.200908
11
0.342006
21
0.202652
0
LINE
8
BLACK
6
CONTINUOUS
10
0.342006
20
0.202652
11
0.345299
21
0.202961
0
LINE
8
BLACK
6
CONTINUOUS
10
0.345299
20
0.202961
11
0.382701
21
0.202961
0
LINE
8
BLACK
6
CONTINUOUS
10
0.382701
20
0.202961
11
0.385994
21
0.202652
0
LINE
8
BLACK
6
CONTINUOUS
10
0.234247
20
0.201199
11
0.238322
21
0.199207
0
LINE
8
BLACK
6
CONTINUOUS
10
0.238322
20
0.199207
11
0.241529
21
0.195999
0
LINE
8
BLACK
6
CONTINUOUS
10
0.241529
20
0.195999
11
0.243522
21
0.191924
0
LINE
8
BLACK
6
CONTINUOUS
10
0.243522
20
0.191924
11
0.244094
21
0.187992
0
LINE
8
BLACK
6
CONTINUOUS
10
0.244094
20
0.187992
11
0.244094
21
0.176181
0
LINE
8
BLACK
6
CONTINUOUS
10
0.244094
20
0.176181
11
0.243522
21
0.172249
0
LINE
8
BLACK
6
CONTINUOUS
10
0.243522
20
0.172249
11
0.241529
21
0.168174
0
LINE
8
BLACK
6
CONTINUOUS
10
0.241529
20
0.168174
11
0.238322
21
0.164967
0
LINE
8
BLACK
6
CONTINUOUS
10
0.238322
20
0.164967
11
0.234247
21
0.162974
0
LINE
8
BLACK
6
CONTINUOUS
10
0.234247
20
0.162974
11
0.230315
21
0.162402
0
LINE
8
BLACK
6
CONTINUOUS
10
0.230315
20
0.162402
11
0.175197
21
0.162402
0
LINE
8
BLACK
6
CONTINUOUS
10
0.175197
20
0.162402
11
0.171265
21
0.162974
0
LINE
8
BLACK
6
CONTINUOUS
10
0.171265
20
0.162974
11
0.16719
21
0.164967
0
LINE
8
BLACK
6
CONTINUOUS
10
0.16719
20
0.164967
11
0.163982
21
0.168174
0
LINE
8
BLACK
6
CONTINUOUS
10
0.163982
20
0.168174
11
0.16199
21
0.172249
0
LINE
8
BLACK
6
CONTINUOUS
10
0.16199
20
0.172249
11
0.161417
21
0.176181
0
LINE
8
BLACK
6
CONTINUOUS
10
0.161417
20
0.176181
11
0.161417
21
0.187992
0
LINE
8
BLACK
6
CONTINUOUS
10
0.161417
20
0.187992
11
0.16199
21
0.191924
0
LINE
8
BLACK
6
CONTINUOUS
10
0.16199
20
0.191924
11
0.163982
21
0.195999
0
LINE
8
BLACK
6
CONTINUOUS
10
0.163982
20
0.195999
11
0.16719
21
0.199207
0
LINE
8
BLACK
6
CONTINUOUS
10
0.16719
20
0.199207
11
0.171265
21
0.201199
0
LINE
8
BLACK
6
CONTINUOUS
10
0.171265
20
0.201199
11
0.175197
21
0.201772
0
LINE
8
BLACK
6
CONTINUOUS
10
0.175197
20
0.201772
11
0.230315
21
0.201772
0
LINE
8
BLACK
6
CONTINUOUS
10
0.230315
20
0.201772
11
0.234247
21
0.201199
0
LINE
8
BLACK
6
CONTINUOUS
10
0.812987
20
0.201199
11
0.817062
21
0.199207
0
LINE
8
BLACK
6
CONTINUOUS
10
0.817062
20
0.199207
11
0.82027
21
0.195999
0
LINE
8
BLACK
6
CONTINUOUS
10
0.82027
20
0.195999
11
0.822262
21
0.191924
0
LINE
8
BLACK
6
CONTINUOUS
10
0.822262
20
0.191924
11
0.822835
21
0.187992
0
LINE
8
BLACK
6
CONTINUOUS
10
0.822835
20
0.187992
11
0.822835
21
0.176181
0
LINE
8
BLACK
6
CONTINUOUS
10
0.822835
20
0.176181
11
0.822262
21
0.172249
0
LINE
8
BLACK
6
CONTINUOUS
10
0.822262
20
0.172249
11
0.82027
21
0.168174
0
LINE
8
BLACK
6
CONTINUOUS
10
0.82027
20
0.168174
11
0.817062
21
0.164967
0
LINE
8
BLACK
6
CONTINUOUS
10
0.817062
20
0.164967
11
0.812987
21
0.162974
0
LINE
8
BLACK
6
CONTINUOUS
10
0.812987
20
0.162974
11
0.809055
21
0.162402
0
LINE
8
BLACK
6
CONTINUOUS
10
0.809055
20
0.162402
11
0.753937
21
0.162402
0
LINE
8
BLACK
6
CONTINUOUS
10
0.753937
20
0.162402
11
0.750005
21
0.162974
0
LINE
8
BLACK
6
CONTINUOUS
10
0.750005
20
0.162974
11
0.74593
21
0.164967
0
LINE
8
BLACK
6
CONTINUOUS
10
0.74593
20
0.164967
11
0.742723
21
0.168174
0
LINE
8
BLACK
6
CONTINUOUS
10
0.742723
20
0.168174
11
0.74073
21
0.172249
0
LINE
8
BLACK
6
CONTINUOUS
10
0.74073
20
0.172249
11
0.740157
21
0.176181
0
LINE
8
BLACK
6
CONTINUOUS
10
0.740157
20
0.176181
11
0.740157
21
0.187992
0
LINE
8
BLACK
6
CONTINUOUS
10
0.740157
20
0.187992
11
0.74073
21
0.191924
0
LINE
8
BLACK
6
CONTINUOUS
10
0.74073
20
0.191924
11
0.742723
21
0.195999
0
LINE
8
BLACK
6
CONTINUOUS
10
0.742723
20
0.195999
11
0.74593
21
0.199207
0
LINE
8
BLACK
6
CONTINUOUS
10
0.74593
20
0.199207
11
0.750005
21
0.201199
0
LINE
8
BLACK
6
CONTINUOUS
10
0.750005
20
0.201199
11
0.753937
21
0.201772
0
LINE
8
BLACK
6
CONTINUOUS
10
0.753937
20
0.201772
11
0.809055
21
0.201772
0
LINE
8
BLACK
6
CONTINUOUS
10
0.809055
20
0.201772
11
0.812987
21
0.201199
0
LINE
8
BLACK
6
CONTINUOUS
10
0.306793
20
0.201645
11
0.309347
21
0.199938
0
LINE
8
BLACK
6
CONTINUOUS
10
0.309347
20
0.199938
11
0.311054
21
0.197383
0
LINE
8
BLACK
6
CONTINUOUS
10
0.311054
20
0.197383
11
0.311654
21
0.19437
0
LINE
8
BLACK
6
CONTINUOUS
10
0.311654
20
0.19437
11
0.311654
21
0.170748
0
LINE
8
BLACK
6
CONTINUOUS
10
0.311654
20
0.170748
11
0.311054
21
0.167735
0
LINE
8
BLACK
6
CONTINUOUS
10
0.311054
20
0.167735
11
0.309347
21
0.16518
0
LINE
8
BLACK
6
CONTINUOUS
10
0.309347
20
0.16518
11
0.306793
21
0.163473
0
LINE
8
BLACK
6
CONTINUOUS
10
0.306793
20
0.163473
11
0.30378
21
0.162874
0
LINE
8
BLACK
6
CONTINUOUS
10
0.30378
20
0.162874
11
0.27622
21
0.162874
0
LINE
8
BLACK
6
CONTINUOUS
10
0.27622
20
0.162874
11
0.273207
21
0.163473
0
LINE
8
BLACK
6
CONTINUOUS
10
0.273207
20
0.163473
11
0.270653
21
0.16518
0
LINE
8
BLACK
6
CONTINUOUS
10
0.270653
20
0.16518
11
0.268946
21
0.167735
0
LINE
8
BLACK
6
CONTINUOUS
10
0.268946
20
0.167735
11
0.268346
21
0.170748
0
LINE
8
BLACK
6
CONTINUOUS
10
0.268346
20
0.170748
11
0.268346
21
0.19437
0
LINE
8
BLACK
6
CONTINUOUS
10
0.268346
20
0.19437
11
0.268946
21
0.197383
0
LINE
8
BLACK
6
CONTINUOUS
10
0.268946
20
0.197383
11
0.270653
21
0.199938
0
LINE
8
BLACK
6
CONTINUOUS
10
0.270653
20
0.199938
11
0.273207
21
0.201645
0
LINE
8
BLACK
6
CONTINUOUS
10
0.273207
20
0.201645
11
0.27622
21
0.202244
0
LINE
8
BLACK
6
CONTINUOUS
10
0.27622
20
0.202244
11
0.30378
21
0.202244
0
LINE
8
BLACK
6
CONTINUOUS
10
0.30378
20
0.202244
11
0.306793
21
0.201645
0
LINE
8
BLACK
6
CONTINUOUS
10
0.464436
20
0.258167
11
0.468511
21
0.256175
0
LINE
8
BLACK
6
CONTINUOUS
10
0.468511
20
0.256175
11
0.471718
21
0.252968
0
LINE
8
BLACK
6
CONTINUOUS
10
0.471718
20
0.252968
11
0.473711
21
0.248892
0
LINE
8
BLACK
6
CONTINUOUS
10
0.473711
20
0.248892
11
0.474283
21
0.244961
0
LINE
8
BLACK
6
CONTINUOUS
10
0.474283
20
0.244961
11
0.474283
21
0.204606
0
LINE
8
BLACK
6
CONTINUOUS
10
0.474283
20
0.204606
11
0.473711
21
0.200674
0
LINE
8
BLACK
6
CONTINUOUS
10
0.473711
20
0.200674
11
0.471718
21
0.196599
0
LINE
8
BLACK
6
CONTINUOUS
10
0.471718
20
0.196599
11
0.468511
21
0.193392
0
LINE
8
BLACK
6
CONTINUOUS
10
0.468511
20
0.193392
11
0.464436
21
0.1914
0
LINE
8
BLACK
6
CONTINUOUS
10
0.464436
20
0.1914
11
0.460504
21
0.190827
0
LINE
8
BLACK
6
CONTINUOUS
10
0.460504
20
0.190827
11
0.448693
21
0.190827
0
LINE
8
BLACK
6
CONTINUOUS
10
0.448693
20
0.190827
11
0.444761
21
0.1914
0
LINE
8
BLACK
6
CONTINUOUS
10
0.444761
20
0.1914
11
0.440686
21
0.193392
0
LINE
8
BLACK
6
CONTINUOUS
10
0.440686
20
0.193392
11
0.437478
21
0.196599
0
LINE
8
BLACK
6
CONTINUOUS
10
0.437478
20
0.196599
11
0.435486
21
0.200674
0
LINE
8
BLACK
6
CONTINUOUS
10
0.435486
20
0.200674
11
0.434913
21
0.204606
0
LINE
8
BLACK
6
CONTINUOUS
10
0.434913
20
0.204606
11
0.434913
21
0.244961
0
LINE
8
BLACK
6
CONTINUOUS
10
0.434913
20
0.244961
11
0.435486
21
0.248892
0
LINE
8
BLACK
6
CONTINUOUS
10
0.435486
20
0.248892
11
0.437478
21
0.252968
0
LINE
8
BLACK
6
CONTINUOUS
10
0.437478
20
0.252968
11
0.440686
21
0.256175
0
LINE
8
BLACK
6
CONTINUOUS
10
0.440686
20
0.256175
11
0.444761
21
0.258167
0
LINE
8
BLACK
6
CONTINUOUS
10
0.444761
20
0.258167
11
0.448693
21
0.25874
0
LINE
8
BLACK
6
CONTINUOUS
10
0.448693
20
0.25874
11
0.460504
21
0.25874
0
LINE
8
BLACK
6
CONTINUOUS
10
0.460504
20
0.25874
11
0.464436
21
0.258167
0
LINE
8
BLACK
6
CONTINUOUS
10
0.539239
20
0.258167
11
0.543314
21
0.256175
0
LINE
8
BLACK
6
CONTINUOUS
10
0.543314
20
0.256175
11
0.546522
21
0.252968
0
LINE
8
BLACK
6
CONTINUOUS
10
0.546522
20
0.252968
11
0.548514
21
0.248892
0
LINE
8
BLACK
6
CONTINUOUS
10
0.548514
20
0.248892
11
0.549087
21
0.244961
0
LINE
8
BLACK
6
CONTINUOUS
10
0.549087
20
0.244961
11
0.549087
21
0.204606
0
LINE
8
BLACK
6
CONTINUOUS
10
0.549087
20
0.204606
11
0.548514
21
0.200674
0
LINE
8
BLACK
6
CONTINUOUS
10
0.548514
20
0.200674
11
0.546522
21
0.196599
0
LINE
8
BLACK
6
CONTINUOUS
10
0.546522
20
0.196599
11
0.543314
21
0.193392
0
LINE
8
BLACK
6
CONTINUOUS
10
0.543314
20
0.193392
11
0.539239
21
0.1914
0
LINE
8
BLACK
6
CONTINUOUS
10
0.539239
20
0.1914
11
0.535307
21
0.190827
0
LINE
8
BLACK
6
CONTINUOUS
10
0.535307
20
0.190827
11
0.523496
21
0.190827
0
LINE
8
BLACK
6
CONTINUOUS
10
0.523496
20
0.190827
11
0.519564
21
0.1914
0
LINE
8
BLACK
6
CONTINUOUS
10
0.519564
20
0.1914
11
0.515489
21
0.193392
0
LINE
8
BLACK
6
CONTINUOUS
10
0.515489
20
0.193392
11
0.512282
21
0.196599
0
LINE
8
BLACK
6
CONTINUOUS
10
0.512282
20
0.196599
11
0.510289
21
0.200674
0
LINE
8
BLACK
6
CONTINUOUS
10
0.510289
20
0.200674
11
0.509717
21
0.204606
0
LINE
8
BLACK
6
CONTINUOUS
10
0.509717
20
0.204606
11
0.509717
21
0.244961
0
LINE
8
BLACK
6
CONTINUOUS
10
0.509717
20
0.244961
11
0.510289
21
0.248892
0
LINE
8
BLACK
6
CONTINUOUS
10
0.510289
20
0.248892
11
0.512282
21
0.252968
0
LINE
8
BLACK
6
CONTINUOUS
10
0.512282
20
0.252968
11
0.515489
21
0.256175
0
LINE
8
BLACK
6
CONTINUOUS
10
0.515489
20
0.256175
11
0.519564
21
0.258167
0
LINE
8
BLACK
6
CONTINUOUS
10
0.519564
20
0.258167
11
0.523496
21
0.25874
0
LINE
8
BLACK
6
CONTINUOUS
10
0.523496
20
0.25874
11
0.535307
21
0.25874
0
LINE
8
BLACK
6
CONTINUOUS
10
0.535307
20
0.25874
11
0.539239
21
0.258167
0
LINE
8
BLACK
6
CONTINUOUS
10
0.649693
20
0.243891
11
0.654083
21
0.241654
0
LINE
8
BLACK
6
CONTINUOUS
10
0.654083
20
0.241654
11
0.657567
21
0.23817
0
LINE
8
BLACK
6
CONTINUOUS
10
0.657567
20
0.23817
11
0.659804
21
0.23378
0
LINE
8
BLACK
6
CONTINUOUS
10
0.659804
20
0.23378
11
0.660575
21
0.228913
0
LINE
8
BLACK
6
CONTINUOUS
10
0.660575
20
0.228913
11
0.660575
21
0.213165
0
LINE
8
BLACK
6
CONTINUOUS
10
0.660575
20
0.213165
11
0.659804
21
0.208299
0
LINE
8
BLACK
6
CONTINUOUS
10
0.659804
20
0.208299
11
0.657567
21
0.203909
0
LINE
8
BLACK
6
CONTINUOUS
10
0.657567
20
0.203909
11
0.654083
21
0.200425
0
LINE
8
BLACK
6
CONTINUOUS
10
0.654083
20
0.200425
11
0.649693
21
0.198188
0
LINE
8
BLACK
6
CONTINUOUS
10
0.649693
20
0.198188
11
0.644827
21
0.197417
0
LINE
8
BLACK
6
CONTINUOUS
10
0.644827
20
0.197417
11
0.623173
21
0.197417
0
LINE
8
BLACK
6
CONTINUOUS
10
0.623173
20
0.197417
11
0.618307
21
0.198188
0
LINE
8
BLACK
6
CONTINUOUS
10
0.618307
20
0.198188
11
0.613917
21
0.200425
0
LINE
8
BLACK
6
CONTINUOUS
10
0.613917
20
0.200425
11
0.610433
21
0.203909
0
LINE
8
BLACK
6
CONTINUOUS
10
0.610433
20
0.203909
11
0.608196
21
0.208299
0
LINE
8
BLACK
6
CONTINUOUS
10
0.608196
20
0.208299
11
0.607425
21
0.213165
0
LINE
8
BLACK
6
CONTINUOUS
10
0.607425
20
0.213165
11
0.607425
21
0.228913
0
LINE
8
BLACK
6
CONTINUOUS
10
0.607425
20
0.228913
11
0.608196
21
0.23378
0
LINE
8
BLACK
6
CONTINUOUS
10
0.608196
20
0.23378
11
0.610433
21
0.23817
0
LINE
8
BLACK
6
CONTINUOUS
10
0.610433
20
0.23817
11
0.613917
21
0.241654
0
LINE
8
BLACK
6
CONTINUOUS
10
0.613917
20
0.241654
11
0.618307
21
0.243891
0
LINE
8
BLACK
6
CONTINUOUS
10
0.618307
20
0.243891
11
0.623173
21
0.244661
0
LINE
8
BLACK
6
CONTINUOUS
10
0.623173
20
0.244661
11
0.644827
21
0.244661
0
LINE
8
BLACK
6
CONTINUOUS
10
0.644827
20
0.244661
11
0.649693
21
0.243891
0
LINE
8
BLACK
6
CONTINUOUS
10
0.715693
20
0.244851
11
0.720083
21
0.242614
0
LINE
8
BLACK
6
CONTINUOUS
10
0.720083
20
0.242614
11
0.723567
21
0.23913
0
LINE
8
BLACK
6
CONTINUOUS
10
0.723567
20
0.23913
11
0.725804
21
0.23474
0
LINE
8
BLACK
6
CONTINUOUS
10
0.725804
20
0.23474
11
0.726575
21
0.229874
0
LINE
8
BLACK
6
CONTINUOUS
10
0.726575
20
0.229874
11
0.726575
21
0.214126
0
LINE
8
BLACK
6
CONTINUOUS
10
0.726575
20
0.214126
11
0.725804
21
0.20926
0
LINE
8
BLACK
6
CONTINUOUS
10
0.725804
20
0.20926
11
0.723567
21
0.20487
0
LINE
8
BLACK
6
CONTINUOUS
10
0.723567
20
0.20487
11
0.720083
21
0.201386
0
LINE
8
BLACK
6
CONTINUOUS
10
0.720083
20
0.201386
11
0.715693
21
0.199149
0
LINE
8
BLACK
6
CONTINUOUS
10
0.715693
20
0.199149
11
0.710827
21
0.198378
0
LINE
8
BLACK
6
CONTINUOUS
10
0.710827
20
0.198378
11
0.689173
21
0.198378
0
LINE
8
BLACK
6
CONTINUOUS
10
0.689173
20
0.198378
11
0.684307
21
0.199149
0
LINE
8
BLACK
6
CONTINUOUS
10
0.684307
20
0.199149
11
0.679917
21
0.201386
0
LINE
8
BLACK
6
CONTINUOUS
10
0.679917
20
0.201386
11
0.676433
21
0.20487
0
LINE
8
BLACK
6
CONTINUOUS
10
0.676433
20
0.20487
11
0.674196
21
0.20926
0
LINE
8
BLACK
6
CONTINUOUS
10
0.674196
20
0.20926
11
0.673425
21
0.214126
0
LINE
8
BLACK
6
CONTINUOUS
10
0.673425
20
0.214126
11
0.673425
21
0.229874
0
LINE
8
BLACK
6
CONTINUOUS
10
0.673425
20
0.229874
11
0.674196
21
0.23474
0
LINE
8
BLACK
6
CONTINUOUS
10
0.674196
20
0.23474
11
0.676433
21
0.23913
0
LINE
8
BLACK
6
CONTINUOUS
10
0.676433
20
0.23913
11
0.679917
21
0.242614
0
LINE
8
BLACK
6
CONTINUOUS
10
0.679917
20
0.242614
11
0.684307
21
0.244851
0
LINE
8
BLACK
6
CONTINUOUS
10
0.684307
20
0.244851
11
0.689173
21
0.245622
0
LINE
8
BLACK
6
CONTINUOUS
10
0.689173
20
0.245622
11
0.710827
21
0.245622
0
LINE
8
BLACK
6
CONTINUOUS
10
0.710827
20
0.245622
11
0.715693
21
0.244851
0
LINE
8
BLACK
6
CONTINUOUS
10
0.234247
20
0.250411
11
0.238322
21
0.248419
0
LINE
8
BLACK
6
CONTINUOUS
10
0.238322
20
0.248419
11
0.241529
21
0.245212
0
LINE
8
BLACK
6
CONTINUOUS
10
0.241529
20
0.245212
11
0.243522
21
0.241137
0
LINE
8
BLACK
6
CONTINUOUS
10
0.243522
20
0.241137
11
0.244094
21
0.237205
0
LINE
8
BLACK
6
CONTINUOUS
10
0.244094
20
0.237205
11
0.244094
21
0.225394
0
LINE
8
BLACK
6
CONTINUOUS
10
0.244094
20
0.225394
11
0.243522
21
0.221462
0
LINE
8
BLACK
6
CONTINUOUS
10
0.243522
20
0.221462
11
0.241529
21
0.217387
0
LINE
8
BLACK
6
CONTINUOUS
10
0.241529
20
0.217387
11
0.238322
21
0.214179
0
LINE
8
BLACK
6
CONTINUOUS
10
0.238322
20
0.214179
11
0.234247
21
0.212187
0
LINE
8
BLACK
6
CONTINUOUS
10
0.234247
20
0.212187
11
0.230315
21
0.211614
0
LINE
8
BLACK
6
CONTINUOUS
10
0.230315
20
0.211614
11
0.175197
21
0.211614
0
LINE
8
BLACK
6
CONTINUOUS
10
0.175197
20
0.211614
11
0.171265
21
0.212187
0
LINE
8
BLACK
6
CONTINUOUS
10
0.171265
20
0.212187
11
0.16719
21
0.214179
0
LINE
8
BLACK
6
CONTINUOUS
10
0.16719
20
0.214179
11
0.163982
21
0.217387
0
LINE
8
BLACK
6
CONTINUOUS
10
0.163982
20
0.217387
11
0.16199
21
0.221462
0
LINE
8
BLACK
6
CONTINUOUS
10
0.16199
20
0.221462
11
0.161417
21
0.225394
0
LINE
8
BLACK
6
CONTINUOUS
10
0.161417
20
0.225394
11
0.161417
21
0.237205
0
LINE
8
BLACK
6
CONTINUOUS
10
0.161417
20
0.237205
11
0.16199
21
0.241137
0
LINE
8
BLACK
6
CONTINUOUS
10
0.16199
20
0.241137
11
0.163982
21
0.245212
0
LINE
8
BLACK
6
CONTINUOUS
10
0.163982
20
0.245212
11
0.16719
21
0.248419
0
LINE
8
BLACK
6
CONTINUOUS
10
0.16719
20
0.248419
11
0.171265
21
0.250411
0
LINE
8
BLACK
6
CONTINUOUS
10
0.171265
20
0.250411
11
0.175197
21
0.250984
0
LINE
8
BLACK
6
CONTINUOUS
10
0.175197
20
0.250984
11
0.230315
21
0.250984
0
LINE
8
BLACK
6
CONTINUOUS
10
0.230315
20
0.250984
11
0.234247
21
0.250411
0
LINE
8
BLACK
6
CONTINUOUS
10
0.812987
20
0.250411
11
0.817062
21
0.248419
0
LINE
8
BLACK
6
CONTINUOUS
10
0.817062
20
0.248419
11
0.82027
21
0.245212
0
LINE
8
BLACK
6
CONTINUOUS
10
0.82027
20
0.245212
11
0.822262
21
0.241137
0
LINE
8
BLACK
6
CONTINUOUS
10
0.822262
20
0.241137
11
0.822835
21
0.237205
0
LINE
8
BLACK
6
CONTINUOUS
10
0.822835
20
0.237205
11
0.822835
21
0.225394
0
LINE
8
BLACK
6
CONTINUOUS
10
0.822835
20
0.225394
11
0.822262
21
0.221462
0
LINE
8
BLACK
6
CONTINUOUS
10
0.822262
20
0.221462
11
0.82027
21
0.217387
0
LINE
8
BLACK
6
CONTINUOUS
10
0.82027
20
0.217387
11
0.817062
21
0.214179
0
LINE
8
BLACK
6
CONTINUOUS
10
0.817062
20
0.214179
11
0.812987
21
0.212187
0
LINE
8
BLACK
6
CONTINUOUS
10
0.812987
20
0.212187
11
0.809055
21
0.211614
0
LINE
8
BLACK
6
CONTINUOUS
10
0.809055
20
0.211614
11
0.753937
21
0.211614
0
LINE
8
BLACK
6
CONTINUOUS
10
0.753937
20
0.211614
11
0.750005
21
0.212187
0
LINE
8
BLACK
6
CONTINUOUS
10
0.750005
20
0.212187
11
0.74593
21
0.214179
0
LINE
8
BLACK
6
CONTINUOUS
10
0.74593
20
0.214179
11
0.742723
21
0.217387
0
LINE
8
BLACK
6
CONTINUOUS
10
0.742723
20
0.217387
11
0.74073
21
0.221462
0
LINE
8
BLACK
6
CONTINUOUS
10
0.74073
20
0.221462
11
0.740157
21
0.225394
0
LINE
8
BLACK
6
CONTINUOUS
10
0.740157
20
0.225394
11
0.740157
21
0.237205
0
LINE
8
BLACK
6
CONTINUOUS
10
0.740157
20
0.237205
11
0.74073
21
0.241137
0
LINE
8
BLACK
6
CONTINUOUS
10
0.74073
20
0.241137
11
0.742723
21
0.245212
0
LINE
8
BLACK
6
CONTINUOUS
10
0.742723
20
0.245212
11
0.74593
21
0.248419
0
LINE
8
BLACK
6
CONTINUOUS
10
0.74593
20
0.248419
11
0.750005
21
0.250411
0
LINE
8
BLACK
6
CONTINUOUS
10
0.750005
20
0.250411
11
0.753937
21
0.250984
0
LINE
8
BLACK
6
CONTINUOUS
10
0.753937
20
0.250984
11
0.809055
21
0.250984
0
LINE
8
BLACK
6
CONTINUOUS
10
0.809055
20
0.250984
11
0.812987
21
0.250411
0
LINE
8
BLACK
6
CONTINUOUS
10
0.330144
20
0.268878
11
0.33474
21
0.266536
0
LINE
8
BLACK
6
CONTINUOUS
10
0.33474
20
0.266536
11
0.338387
21
0.262889
0
LINE
8
BLACK
6
CONTINUOUS
10
0.338387
20
0.262889
11
0.340729
21
0.258293
0
LINE
8
BLACK
6
CONTINUOUS
10
0.340729
20
0.258293
11
0.341535
21
0.253199
0
LINE
8
BLACK
6
CONTINUOUS
10
0.341535
20
0.253199
11
0.341535
21
0.235974
0
LINE
8
BLACK
6
CONTINUOUS
10
0.341535
20
0.235974
11
0.340729
21
0.23088
0
LINE
8
BLACK
6
CONTINUOUS
10
0.340729
20
0.23088
11
0.338387
21
0.226284
0
LINE
8
BLACK
6
CONTINUOUS
10
0.338387
20
0.226284
11
0.33474
21
0.222637
0
LINE
8
BLACK
6
CONTINUOUS
10
0.33474
20
0.222637
11
0.330144
21
0.220295
0
LINE
8
BLACK
6
CONTINUOUS
10
0.330144
20
0.220295
11
0.325049
21
0.219488
0
LINE
8
BLACK
6
CONTINUOUS
10
0.325049
20
0.219488
11
0.304872
21
0.219488
0
LINE
8
BLACK
6
CONTINUOUS
10
0.304872
20
0.219488
11
0.299778
21
0.220295
0
LINE
8
BLACK
6
CONTINUOUS
10
0.299778
20
0.220295
11
0.295182
21
0.222637
0
LINE
8
BLACK
6
CONTINUOUS
10
0.295182
20
0.222637
11
0.291534
21
0.226284
0
LINE
8
BLACK
6
CONTINUOUS
10
0.291534
20
0.226284
11
0.289193
21
0.23088
0
LINE
8
BLACK
6
CONTINUOUS
10
0.289193
20
0.23088
11
0.288386
21
0.235974
0
LINE
8
BLACK
6
CONTINUOUS
10
0.288386
20
0.235974
11
0.288386
21
0.253199
0
LINE
8
BLACK
6
CONTINUOUS
10
0.288386
20
0.253199
11
0.289193
21
0.258293
0
LINE
8
BLACK
6
CONTINUOUS
10
0.289193
20
0.258293
11
0.291534
21
0.262889
0
LINE
8
BLACK
6
CONTINUOUS
10
0.291534
20
0.262889
11
0.295182
21
0.266536
0
LINE
8
BLACK
6
CONTINUOUS
10
0.295182
20
0.266536
11
0.299778
21
0.268878
0
LINE
8
BLACK
6
CONTINUOUS
10
0.299778
20
0.268878
11
0.304872
21
0.269685
0
LINE
8
BLACK
6
CONTINUOUS
10
0.304872
20
0.269685
11
0.325049
21
0.269685
0
LINE
8
BLACK
6
CONTINUOUS
10
0.325049
20
0.269685
11
0.330144
21
0.268878
0
LINE
8
BLACK
6
CONTINUOUS
10
0.401693
20
0.268371
11
0.406083
21
0.266134
0
LINE
8
BLACK
6
CONTINUOUS
10
0.406083
20
0.266134
11
0.409567
21
0.26265
0
LINE
8
BLACK
6
CONTINUOUS
10
0.409567
20
0.26265
11
0.411804
21
0.25826
0
LINE
8
BLACK
6
CONTINUOUS
10
0.411804
20
0.25826
11
0.412575
21
0.253394
0
LINE
8
BLACK
6
CONTINUOUS
10
0.412575
20
0.253394
11
0.412575
21
0.237646
0
LINE
8
BLACK
6
CONTINUOUS
10
0.412575
20
0.237646
11
0.411804
21
0.232779
0
LINE
8
BLACK
6
CONTINUOUS
10
0.411804
20
0.232779
11
0.409567
21
0.228389
0
LINE
8
BLACK
6
CONTINUOUS
10
0.409567
20
0.228389
11
0.406083
21
0.224905
0
LINE
8
BLACK
6
CONTINUOUS
10
0.406083
20
0.224905
11
0.401693
21
0.222668
0
LINE
8
BLACK
6
CONTINUOUS
10
0.401693
20
0.222668
11
0.396827
21
0.221898
0
LINE
8
BLACK
6
CONTINUOUS
10
0.396827
20
0.221898
11
0.375173
21
0.221898
0
LINE
8
BLACK
6
CONTINUOUS
10
0.375173
20
0.221898
11
0.370307
21
0.222668
0
LINE
8
BLACK
6
CONTINUOUS
10
0.370307
20
0.222668
11
0.365917
21
0.224905
0
LINE
8
BLACK
6
CONTINUOUS
10
0.365917
20
0.224905
11
0.362433
21
0.228389
0
LINE
8
BLACK
6
CONTINUOUS
10
0.362433
20
0.228389
11
0.360196
21
0.232779
0
LINE
8
BLACK
6
CONTINUOUS
10
0.360196
20
0.232779
11
0.359425
21
0.237646
0
LINE
8
BLACK
6
CONTINUOUS
10
0.359425
20
0.237646
11
0.359425
21
0.253394
0
LINE
8
BLACK
6
CONTINUOUS
10
0.359425
20
0.253394
11
0.360196
21
0.25826
0
LINE
8
BLACK
6
CONTINUOUS
10
0.360196
20
0.25826
11
0.362433
21
0.26265
0
LINE
8
BLACK
6
CONTINUOUS
10
0.362433
20
0.26265
11
0.365917
21
0.266134
0
LINE
8
BLACK
6
CONTINUOUS
10
0.365917
20
0.266134
11
0.370307
21
0.268371
0
LINE
8
BLACK
6
CONTINUOUS
10
0.370307
20
0.268371
11
0.375173
21
0.269142
0
LINE
8
BLACK
6
CONTINUOUS
10
0.375173
20
0.269142
11
0.396827
21
0.269142
0
LINE
8
BLACK
6
CONTINUOUS
10
0.396827
20
0.269142
11
0.401693
21
0.268371
0
LINE
8
BLACK
6
CONTINUOUS
10
0.234247
20
0.299624
11
0.238322
21
0.297632
0
LINE
8
BLACK
6
CONTINUOUS
10
0.238322
20
0.297632
11
0.241529
21
0.294424
0
LINE
8
BLACK
6
CONTINUOUS
10
0.241529
20
0.294424
11
0.243522
21
0.290349
0
LINE
8
BLACK
6
CONTINUOUS
10
0.243522
20
0.290349
11
0.244094
21
0.286417
0
LINE
8
BLACK
6
CONTINUOUS
10
0.244094
20
0.286417
11
0.244094
21
0.274606
0
LINE
8
BLACK
6
CONTINUOUS
10
0.244094
20
0.274606
11
0.243522
21
0.270674
0
LINE
8
BLACK
6
CONTINUOUS
10
0.243522
20
0.270674
11
0.241529
21
0.266599
0
LINE
8
BLACK
6
CONTINUOUS
10
0.241529
20
0.266599
11
0.238322
21
0.263392
0
LINE
8
BLACK
6
CONTINUOUS
10
0.238322
20
0.263392
11
0.234247
21
0.2614
0
LINE
8
BLACK
6
CONTINUOUS
10
0.234247
20
0.2614
11
0.230315
21
0.260827
0
LINE
8
BLACK
6
CONTINUOUS
10
0.230315
20
0.260827
11
0.175197
21
0.260827
0
LINE
8
BLACK
6
CONTINUOUS
10
0.175197
20
0.260827
11
0.171265
21
0.2614
0
LINE
8
BLACK
6
CONTINUOUS
10
0.171265
20
0.2614
11
0.16719
21
0.263392
0
LINE
8
BLACK
6
CONTINUOUS
10
0.16719
20
0.263392
11
0.163982
21
0.266599
0
LINE
8
BLACK
6
CONTINUOUS
10
0.163982
20
0.266599
11
0.16199
21
0.270674
0
LINE
8
BLACK
6
CONTINUOUS
10
0.16199
20
0.270674
11
0.161417
21
0.274606
0
LINE
8
BLACK
6
CONTINUOUS
10
0.161417
20
0.274606
11
0.161417
21
0.286417
0
LINE
8
BLACK
6
CONTINUOUS
10
0.161417
20
0.286417
11
0.16199
21
0.290349
0
LINE
8
BLACK
6
CONTINUOUS
10
0.16199
20
0.290349
11
0.163982
21
0.294424
0
LINE
8
BLACK
6
CONTINUOUS
10
0.163982
20
0.294424
11
0.16719
21
0.297632
0
LINE
8
BLACK
6
CONTINUOUS
10
0.16719
20
0.297632
11
0.171265
21
0.299624
0
LINE
8
BLACK
6
CONTINUOUS
10
0.171265
20
0.299624
11
0.175197
21
0.300197
0
LINE
8
BLACK
6
CONTINUOUS
10
0.175197
20
0.300197
11
0.230315
21
0.300197
0
LINE
8
BLACK
6
CONTINUOUS
10
0.230315
20
0.300197
11
0.234247
21
0.299624
0
LINE
8
BLACK
6
CONTINUOUS
10
0.812987
20
0.299624
11
0.817062
21
0.297632
0
LINE
8
BLACK
6
CONTINUOUS
10
0.817062
20
0.297632
11
0.82027
21
0.294424
0
LINE
8
BLACK
6
CONTINUOUS
10
0.82027
20
0.294424
11
0.822262
21
0.290349
0
LINE
8
BLACK
6
CONTINUOUS
10
0.822262
20
0.290349
11
0.822835
21
0.286417
0
LINE
8
BLACK
6
CONTINUOUS
10
0.822835
20
0.286417
11
0.822835
21
0.274606
0
LINE
8
BLACK
6
CONTINUOUS
10
0.822835
20
0.274606
11
0.822262
21
0.270674
0
LINE
8
BLACK
6
CONTINUOUS
10
0.822262
20
0.270674
11
0.82027
21
0.266599
0
LINE
8
BLACK
6
CONTINUOUS
10
0.82027
20
0.266599
11
0.817062
21
0.263392
0
LINE
8
BLACK
6
CONTINUOUS
10
0.817062
20
0.263392
11
0.812987
21
0.2614
0
LINE
8
BLACK
6
CONTINUOUS
10
0.812987
20
0.2614
11
0.809055
21
0.260827
0
LINE
8
BLACK
6
CONTINUOUS
10
0.809055
20
0.260827
11
0.753937
21
0.260827
0
LINE
8
BLACK
6
CONTINUOUS
10
0.753937
20
0.260827
11
0.750005
21
0.2614
0
LINE
8
BLACK
6
CONTINUOUS
10
0.750005
20
0.2614
11
0.74593
21
0.263392
0
LINE
8
BLACK
6
CONTINUOUS
10
0.74593
20
0.263392
11
0.742723
21
0.266599
0
LINE
8
BLACK
6
CONTINUOUS
10
0.742723
20
0.266599
11
0.74073
21
0.270674
0
LINE
8
BLACK
6
CONTINUOUS
10
0.74073
20
0.270674
11
0.740157
21
0.274606
0
LINE
8
BLACK
6
CONTINUOUS
10
0.740157
20
0.274606
11
0.740157
21
0.286417
0
LINE
8
BLACK
6
CONTINUOUS
10
0.740157
20
0.286417
11
0.74073
21
0.290349
0
LINE
8
BLACK
6
CONTINUOUS
10
0.74073
20
0.290349
11
0.742723
21
0.294424
0
LINE
8
BLACK
6
CONTINUOUS
10
0.742723
20
0.294424
11
0.74593
21
0.297632
0
LINE
8
BLACK
6
CONTINUOUS
10
0.74593
20
0.297632
11
0.750005
21
0.299624
0
LINE
8
BLACK
6
CONTINUOUS
10
0.750005
20
0.299624
11
0.753937
21
0.300197
0
LINE
8
BLACK
6
CONTINUOUS
10
0.753937
20
0.300197
11
0.809055
21
0.300197
0
LINE
8
BLACK
6
CONTINUOUS
10
0.809055
20
0.300197
11
0.812987
21
0.299624
0
LINE
8
BLACK
6
CONTINUOUS
10
0.649693
20
0.308851
11
0.654083
21
0.306614
0
LINE
8
BLACK
6
CONTINUOUS
10
0.654083
20
0.306614
11
0.657567
21
0.30313
0
LINE
8
BLACK
6
CONTINUOUS
10
0.657567
20
0.30313
11
0.659804
21
0.29874
0
LINE
8
BLACK
6
CONTINUOUS
10
0.659804
20
0.29874
11
0.660575
21
0.293874
0
LINE
8
BLACK
6
CONTINUOUS
10
0.660575
20
0.293874
11
0.660575
21
0.278126
0
LINE
8
BLACK
6
CONTINUOUS
10
0.660575
20
0.278126
11
0.659804
21
0.27326
0
LINE
8
BLACK
6
CONTINUOUS
10
0.659804
20
0.27326
11
0.657567
21
0.26887
0
LINE
8
BLACK
6
CONTINUOUS
10
0.657567
20
0.26887
11
0.654083
21
0.265386
0
LINE
8
BLACK
6
CONTINUOUS
10
0.654083
20
0.265386
11
0.649693
21
0.263149
0
LINE
8
BLACK
6
CONTINUOUS
10
0.649693
20
0.263149
11
0.644827
21
0.262378
0
LINE
8
BLACK
6
CONTINUOUS
10
0.644827
20
0.262378
11
0.623173
21
0.262378
0
LINE
8
BLACK
6
CONTINUOUS
10
0.623173
20
0.262378
11
0.618307
21
0.263149
0
LINE
8
BLACK
6
CONTINUOUS
10
0.618307
20
0.263149
11
0.613917
21
0.265386
0
LINE
8
BLACK
6
CONTINUOUS
10
0.613917
20
0.265386
11
0.610433
21
0.26887
0
LINE
8
BLACK
6
CONTINUOUS
10
0.610433
20
0.26887
11
0.608196
21
0.27326
0
LINE
8
BLACK
6
CONTINUOUS
10
0.608196
20
0.27326
11
0.607425
21
0.278126
0
LINE
8
BLACK
6
CONTINUOUS
10
0.607425
20
0.278126
11
0.607425
21
0.293874
0
LINE
8
BLACK
6
CONTINUOUS
10
0.607425
20
0.293874
11
0.608196
21
0.29874
0
LINE
8
BLACK
6
CONTINUOUS
10
0.608196
20
0.29874
11
0.610433
21
0.30313
0
LINE
8
BLACK
6
CONTINUOUS
10
0.610433
20
0.30313
11
0.613917
21
0.306614
0
LINE
8
BLACK
6
CONTINUOUS
10
0.613917
20
0.306614
11
0.618307
21
0.308851
0
LINE
8
BLACK
6
CONTINUOUS
10
0.618307
20
0.308851
11
0.623173
21
0.309622
0
LINE
8
BLACK
6
CONTINUOUS
10
0.623173
20
0.309622
11
0.644827
21
0.309622
0
LINE
8
BLACK
6
CONTINUOUS
10
0.644827
20
0.309622
11
0.649693
21
0.308851
0
LINE
8
BLACK
6
CONTINUOUS
10
0.715693
20
0.309812
11
0.720083
21
0.307575
0
LINE
8
BLACK
6
CONTINUOUS
10
0.720083
20
0.307575
11
0.723567
21
0.304091
0
LINE
8
BLACK
6
CONTINUOUS
10
0.723567
20
0.304091
11
0.725804
21
0.299701
0
LINE
8
BLACK
6
CONTINUOUS
10
0.725804
20
0.299701
11
0.726575
21
0.294835
0
LINE
8
BLACK
6
CONTINUOUS
10
0.726575
20
0.294835
11
0.726575
21
0.279087
0
LINE
8
BLACK
6
CONTINUOUS
10
0.726575
20
0.279087
11
0.725804
21
0.27422
0
LINE
8
BLACK
6
CONTINUOUS
10
0.725804
20
0.27422
11
0.723567
21
0.26983
0
LINE
8
BLACK
6
CONTINUOUS
10
0.723567
20
0.26983
11
0.720083
21
0.266346
0
LINE
8
BLACK
6
CONTINUOUS
10
0.720083
20
0.266346
11
0.715693
21
0.264109
0
LINE
8
BLACK
6
CONTINUOUS
10
0.715693
20
0.264109
11
0.710827
21
0.263339
0
LINE
8
BLACK
6
CONTINUOUS
10
0.710827
20
0.263339
11
0.689173
21
0.263339
0
LINE
8
BLACK
6
CONTINUOUS
10
0.689173
20
0.263339
11
0.684307
21
0.264109
0
LINE
8
BLACK
6
CONTINUOUS
10
0.684307
20
0.264109
11
0.679917
21
0.266346
0
LINE
8
BLACK
6
CONTINUOUS
10
0.679917
20
0.266346
11
0.676433
21
0.26983
0
LINE
8
BLACK
6
CONTINUOUS
10
0.676433
20
0.26983
11
0.674196
21
0.27422
0
LINE
8
BLACK
6
CONTINUOUS
10
0.674196
20
0.27422
11
0.673425
21
0.279087
0
LINE
8
BLACK
6
CONTINUOUS
10
0.673425
20
0.279087
11
0.673425
21
0.294835
0
LINE
8
BLACK
6
CONTINUOUS
10
0.673425
20
0.294835
11
0.674196
21
0.299701
0
LINE
8
BLACK
6
CONTINUOUS
10
0.674196
20
0.299701
11
0.676433
21
0.304091
0
LINE
8
BLACK
6
CONTINUOUS
10
0.676433
20
0.304091
11
0.679917
21
0.307575
0
LINE
8
BLACK
6
CONTINUOUS
10
0.679917
20
0.307575
11
0.684307
21
0.309812
0
LINE
8
BLACK
6
CONTINUOUS
10
0.684307
20
0.309812
11
0.689173
21
0.310583
0
LINE
8
BLACK
6
CONTINUOUS
10
0.689173
20
0.310583
11
0.710827
21
0.310583
0
LINE
8
BLACK
6
CONTINUOUS
10
0.710827
20
0.310583
11
0.715693
21
0.309812
0
LINE
8
BLACK
6
CONTINUOUS
10
0.330144
20
0.330886
11
0.33474
21
0.328544
0
LINE
8
BLACK
6
CONTINUOUS
10
0.33474
20
0.328544
11
0.338387
21
0.324897
0
LINE
8
BLACK
6
CONTINUOUS
10
0.338387
20
0.324897
11
0.340729
21
0.320301
0
LINE
8
BLACK
6
CONTINUOUS
10
0.340729
20
0.320301
11
0.341535
21
0.315207
0
LINE
8
BLACK
6
CONTINUOUS
10
0.341535
20
0.315207
11
0.341535
21
0.297982
0
LINE
8
BLACK
6
CONTINUOUS
10
0.341535
20
0.297982
11
0.340729
21
0.292888
0
LINE
8
BLACK
6
CONTINUOUS
10
0.340729
20
0.292888
11
0.338387
21
0.288292
0
LINE
8
BLACK
6
CONTINUOUS
10
0.338387
20
0.288292
11
0.33474
21
0.284645
0
LINE
8
BLACK
6
CONTINUOUS
10
0.33474
20
0.284645
11
0.330144
21
0.282303
0
LINE
8
BLACK
6
CONTINUOUS
10
0.330144
20
0.282303
11
0.325049
21
0.281496
0
LINE
8
BLACK
6
CONTINUOUS
10
0.325049
20
0.281496
11
0.304872
21
0.281496
0
LINE
8
BLACK
6
CONTINUOUS
10
0.304872
20
0.281496
11
0.299778
21
0.282303
0
LINE
8
BLACK
6
CONTINUOUS
10
0.299778
20
0.282303
11
0.295182
21
0.284645
0
LINE
8
BLACK
6
CONTINUOUS
10
0.295182
20
0.284645
11
0.291534
21
0.288292
0
LINE
8
BLACK
6
CONTINUOUS
10
0.291534
20
0.288292
11
0.289193
21
0.292888
0
LINE
8
BLACK
6
CONTINUOUS
10
0.289193
20
0.292888
11
0.288386
21
0.297982
0
LINE
8
BLACK
6
CONTINUOUS
10
0.288386
20
0.297982
11
0.288386
21
0.315207
0
LINE
8
BLACK
6
CONTINUOUS
10
0.288386
20
0.315207
11
0.289193
21
0.320301
0
LINE
8
BLACK
6
CONTINUOUS
10
0.289193
20
0.320301
11
0.291534
21
0.324897
0
LINE
8
BLACK
6
CONTINUOUS
10
0.291534
20
0.324897
11
0.295182
21
0.328544
0
LINE
8
BLACK
6
CONTINUOUS
10
0.295182
20
0.328544
11
0.299778
21
0.330886
0
LINE
8
BLACK
6
CONTINUOUS
10
0.299778
20
0.330886
11
0.304872
21
0.331693
0
LINE
8
BLACK
6
CONTINUOUS
10
0.304872
20
0.331693
11
0.325049
21
0.331693
0
LINE
8
BLACK
6
CONTINUOUS
10
0.325049
20
0.331693
11
0.330144
21
0.330886
0
LINE
8
BLACK
6
CONTINUOUS
10
0.401693
20
0.333332
11
0.406083
21
0.331095
0
LINE
8
BLACK
6
CONTINUOUS
10
0.406083
20
0.331095
11
0.409567
21
0.327611
0
LINE
8
BLACK
6
CONTINUOUS
10
0.409567
20
0.327611
11
0.411804
21
0.323221
0
LINE
8
BLACK
6
CONTINUOUS
10
0.411804
20
0.323221
11
0.412575
21
0.318354
0
LINE
8
BLACK
6
CONTINUOUS
10
0.412575
20
0.318354
11
0.412575
21
0.302606
0
LINE
8
BLACK
6
CONTINUOUS
10
0.412575
20
0.302606
11
0.411804
21
0.29774
0
LINE
8
BLACK
6
CONTINUOUS
10
0.411804
20
0.29774
11
0.409567
21
0.29335
0
LINE
8
BLACK
6
CONTINUOUS
10
0.409567
20
0.29335
11
0.406083
21
0.289866
0
LINE
8
BLACK
6
CONTINUOUS
10
0.406083
20
0.289866
11
0.401693
21
0.287629
0
LINE
8
BLACK
6
CONTINUOUS
10
0.401693
20
0.287629
11
0.396827
21
0.286858
0
LINE
8
BLACK
6
CONTINUOUS
10
0.396827
20
0.286858
11
0.375173
21
0.286858
0
LINE
8
BLACK
6
CONTINUOUS
10
0.375173
20
0.286858
11
0.370307
21
0.287629
0
LINE
8
BLACK
6
CONTINUOUS
10
0.370307
20
0.287629
11
0.365917
21
0.289866
0
LINE
8
BLACK
6
CONTINUOUS
10
0.365917
20
0.289866
11
0.362433
21
0.29335
0
LINE
8
BLACK
6
CONTINUOUS
10
0.362433
20
0.29335
11
0.360196
21
0.29774
0
LINE
8
BLACK
6
CONTINUOUS
10
0.360196
20
0.29774
11
0.359425
21
0.302606
0
LINE
8
BLACK
6
CONTINUOUS
10
0.359425
20
0.302606
11
0.359425
21
0.318354
0
LINE
8
BLACK
6
CONTINUOUS
10
0.359425
20
0.318354
11
0.360196
21
0.323221
0
LINE
8
BLACK
6
CONTINUOUS
10
0.360196
20
0.323221
11
0.362433
21
0.327611
0
LINE
8
BLACK
6
CONTINUOUS
10
0.362433
20
0.327611
11
0.365917
21
0.331095
0
LINE
8
BLACK
6
CONTINUOUS
10
0.365917
20
0.331095
11
0.370307
21
0.333332
0
LINE
8
BLACK
6
CONTINUOUS
10
0.370307
20
0.333332
11
0.375173
21
0.334102
0
LINE
8
BLACK
6
CONTINUOUS
10
0.375173
20
0.334102
11
0.396827
21
0.334102
0
LINE
8
BLACK
6
CONTINUOUS
10
0.396827
20
0.334102
11
0.401693
21
0.333332
0
LINE
8
BLACK
6
CONTINUOUS
10
0.234247
20
0.348837
11
0.238322
21
0.346844
0
LINE
8
BLACK
6
CONTINUOUS
10
0.238322
20
0.346844
11
0.241529
21
0.343637
0
LINE
8
BLACK
6
CONTINUOUS
10
0.241529
20
0.343637
11
0.243522
21
0.339562
0
LINE
8
BLACK
6
CONTINUOUS
10
0.243522
20
0.339562
11
0.244094
21
0.33563
0
LINE
8
BLACK
6
CONTINUOUS
10
0.244094
20
0.33563
11
0.244094
21
0.323819
0
LINE
8
BLACK
6
CONTINUOUS
10
0.244094
20
0.323819
11
0.243522
21
0.319887
0
LINE
8
BLACK
6
CONTINUOUS
10
0.243522
20
0.319887
11
0.241529
21
0.315812
0
LINE
8
BLACK
6
CONTINUOUS
10
0.241529
20
0.315812
11
0.238322
21
0.312604
0
LINE
8
BLACK
6
CONTINUOUS
10
0.238322
20
0.312604
11
0.234247
21
0.310612
0
LINE
8
BLACK
6
CONTINUOUS
10
0.234247
20
0.310612
11
0.230315
21
0.310039
0
LINE
8
BLACK
6
CONTINUOUS
10
0.230315
20
0.310039
11
0.175197
21
0.310039
0
LINE
8
BLACK
6
CONTINUOUS
10
0.175197
20
0.310039
11
0.171265
21
0.310612
0
LINE
8
BLACK
6
CONTINUOUS
10
0.171265
20
0.310612
11
0.16719
21
0.312604
0
LINE
8
BLACK
6
CONTINUOUS
10
0.16719
20
0.312604
11
0.163982
21
0.315812
0
LINE
8
BLACK
6
CONTINUOUS
10
0.163982
20
0.315812
11
0.16199
21
0.319887
0
LINE
8
BLACK
6
CONTINUOUS
10
0.16199
20
0.319887
11
0.161417
21
0.323819
0
LINE
8
BLACK
6
CONTINUOUS
10
0.161417
20
0.323819
11
0.161417
21
0.33563
0
LINE
8
BLACK
6
CONTINUOUS
10
0.161417
20
0.33563
11
0.16199
21
0.339562
0
LINE
8
BLACK
6
CONTINUOUS
10
0.16199
20
0.339562
11
0.163982
21
0.343637
0
LINE
8
BLACK
6
CONTINUOUS
10
0.163982
20
0.343637
11
0.16719
21
0.346844
0
LINE
8
BLACK
6
CONTINUOUS
10
0.16719
20
0.346844
11
0.171265
21
0.348837
0
LINE
8
BLACK
6
CONTINUOUS
10
0.171265
20
0.348837
11
0.175197
21
0.349409
0
LINE
8
BLACK
6
CONTINUOUS
10
0.175197
20
0.349409
11
0.230315
21
0.349409
0
LINE
8
BLACK
6
CONTINUOUS
10
0.230315
20
0.349409
11
0.234247
21
0.348837
0
LINE
8
BLACK
6
CONTINUOUS
10
0.812987
20
0.348837
11
0.817062
21
0.346844
0
LINE
8
BLACK
6
CONTINUOUS
10
0.817062
20
0.346844
11
0.82027
21
0.343637
0
LINE
8
BLACK
6
CONTINUOUS
10
0.82027
20
0.343637
11
0.822262
21
0.339562
0
LINE
8
BLACK
6
CONTINUOUS
10
0.822262
20
0.339562
11
0.822835
21
0.33563
0
LINE
8
BLACK
6
CONTINUOUS
10
0.822835
20
0.33563
11
0.822835
21
0.323819
0
LINE
8
BLACK
6
CONTINUOUS
10
0.822835
20
0.323819
11
0.822262
21
0.319887
0
LINE
8
BLACK
6
CONTINUOUS
10
0.822262
20
0.319887
11
0.82027
21
0.315812
0
LINE
8
BLACK
6
CONTINUOUS
10
0.82027
20
0.315812
11
0.817062
21
0.312604
0
LINE
8
BLACK
6
CONTINUOUS
10
0.817062
20
0.312604
11
0.812987
21
0.310612
0
LINE
8
BLACK
6
CONTINUOUS
10
0.812987
20
0.310612
11
0.809055
21
0.310039
0
LINE
8
BLACK
6
CONTINUOUS
10
0.809055
20
0.310039
11
0.753937
21
0.310039
0
LINE
8
BLACK
6
CONTINUOUS
10
0.753937
20
0.310039
11
0.750005
21
0.310612
0
LINE
8
BLACK
6
CONTINUOUS
10
0.750005
20
0.310612
11
0.74593
21
0.312604
0
LINE
8
BLACK
6
CONTINUOUS
10
0.74593
20
0.312604
11
0.742723
21
0.315812
0
LINE
8
BLACK
6
CONTINUOUS
10
0.742723
20
0.315812
11
0.74073
21
0.319887
0
LINE
8
BLACK
6
CONTINUOUS
10
0.74073
20
0.319887
11
0.740157
21
0.323819
0
LINE
8
BLACK
6
CONTINUOUS
10
0.740157
20
0.323819
11
0.740157
21
0.33563
0
LINE
8
BLACK
6
CONTINUOUS
10
0.740157
20
0.33563
11
0.74073
21
0.339562
0
LINE
8
BLACK
6
CONTINUOUS
10
0.74073
20
0.339562
11
0.742723
21
0.343637
0
LINE
8
BLACK
6
CONTINUOUS
10
0.742723
20
0.343637
11
0.74593
21
0.346844
0
LINE
8
BLACK
6
CONTINUOUS
10
0.74593
20
0.346844
11
0.750005
21
0.348837
0
LINE
8
BLACK
6
CONTINUOUS
10
0.750005
20
0.348837
11
0.753937
21
0.349409
0
LINE
8
BLACK
6
CONTINUOUS
10
0.753937
20
0.349409
11
0.809055
21
0.349409
0
LINE
8
BLACK
6
CONTINUOUS
10
0.809055
20
0.349409
11
0.812987
21
0.348837
0
LINE
8
BLACK
6
CONTINUOUS
10
0.650693
20
0.372851
11
0.655083
21
0.370614
0
LINE
8
BLACK
6
CONTINUOUS
10
0.655083
20
0.370614
11
0.658567
21
0.36713
0
LINE
8
BLACK
6
CONTINUOUS
10
0.658567
20
0.36713
11
0.660804
21
0.36274
0
LINE
8
BLACK
6
CONTINUOUS
10
0.660804
20
0.36274
11
0.661575
21
0.357874
0
LINE
8
BLACK
6
CONTINUOUS
10
0.661575
20
0.357874
11
0.661575
21
0.342126
0
LINE
8
BLACK
6
CONTINUOUS
10
0.661575
20
0.342126
11
0.660804
21
0.33726
0
LINE
8
BLACK
6
CONTINUOUS
10
0.660804
20
0.33726
11
0.658567
21
0.33287
0
LINE
8
BLACK
6
CONTINUOUS
10
0.658567
20
0.33287
11
0.655083
21
0.329386
0
LINE
8
BLACK
6
CONTINUOUS
10
0.655083
20
0.329386
11
0.650693
21
0.327149
0
LINE
8
BLACK
6
CONTINUOUS
10
0.650693
20
0.327149
11
0.645827
21
0.326378
0
LINE
8
BLACK
6
CONTINUOUS
10
0.645827
20
0.326378
11
0.624173
21
0.326378
0
LINE
8
BLACK
6
CONTINUOUS
10
0.624173
20
0.326378
11
0.619307
21
0.327149
0
LINE
8
BLACK
6
CONTINUOUS
10
0.619307
20
0.327149
11
0.614917
21
0.329386
0
LINE
8
BLACK
6
CONTINUOUS
10
0.614917
20
0.329386
11
0.611433
21
0.33287
0
LINE
8
BLACK
6
CONTINUOUS
10
0.611433
20
0.33287
11
0.609196
21
0.33726
0
LINE
8
BLACK
6
CONTINUOUS
10
0.609196
20
0.33726
11
0.608425
21
0.342126
0
LINE
8
BLACK
6
CONTINUOUS
10
0.608425
20
0.342126
11
0.608425
21
0.357874
0
LINE
8
BLACK
6
CONTINUOUS
10
0.608425
20
0.357874
11
0.609196
21
0.36274
0
LINE
8
BLACK
6
CONTINUOUS
10
0.609196
20
0.36274
11
0.611433
21
0.36713
0
LINE
8
BLACK
6
CONTINUOUS
10
0.611433
20
0.36713
11
0.614917
21
0.370614
0
LINE
8
BLACK
6
CONTINUOUS
10
0.614917
20
0.370614
11
0.619307
21
0.372851
0
LINE
8
BLACK
6
CONTINUOUS
10
0.619307
20
0.372851
11
0.624173
21
0.373622
0
LINE
8
BLACK
6
CONTINUOUS
10
0.624173
20
0.373622
11
0.645827
21
0.373622
0
LINE
8
BLACK
6
CONTINUOUS
10
0.645827
20
0.373622
11
0.650693
21
0.372851
0
LINE
8
BLACK
6
CONTINUOUS
10
0.715693
20
0.372851
11
0.720083
21
0.370614
0
LINE
8
BLACK
6
CONTINUOUS
10
0.720083
20
0.370614
11
0.723567
21
0.36713
0
LINE
8
BLACK
6
CONTINUOUS
10
0.723567
20
0.36713
11
0.725804
21
0.36274
0
LINE
8
BLACK
6
CONTINUOUS
10
0.725804
20
0.36274
11
0.726575
21
0.357874
0
LINE
8
BLACK
6
CONTINUOUS
10
0.726575
20
0.357874
11
0.726575
21
0.342126
0
LINE
8
BLACK
6
CONTINUOUS
10
0.726575
20
0.342126
11
0.725804
21
0.33726
0
LINE
8
BLACK
6
CONTINUOUS
10
0.725804
20
0.33726
11
0.723567
21
0.33287
0
LINE
8
BLACK
6
CONTINUOUS
10
0.723567
20
0.33287
11
0.720083
21
0.329386
0
LINE
8
BLACK
6
CONTINUOUS
10
0.720083
20
0.329386
11
0.715693
21
0.327149
0
LINE
8
BLACK
6
CONTINUOUS
10
0.715693
20
0.327149
11
0.710827
21
0.326378
0
LINE
8
BLACK
6
CONTINUOUS
10
0.710827
20
0.326378
11
0.689173
21
0.326378
0
LINE
8
BLACK
6
CONTINUOUS
10
0.689173
20
0.326378
11
0.684307
21
0.327149
0
LINE
8
BLACK
6
CONTINUOUS
10
0.684307
20
0.327149
11
0.679917
21
0.329386
0
LINE
8
BLACK
6
CONTINUOUS
10
0.679917
20
0.329386
11
0.676433
21
0.33287
0
LINE
8
BLACK
6
CONTINUOUS
10
0.676433
20
0.33287
11
0.674196
21
0.33726
0
LINE
8
BLACK
6
CONTINUOUS
10
0.674196
20
0.33726
11
0.673425
21
0.342126
0
LINE
8
BLACK
6
CONTINUOUS
10
0.673425
20
0.342126
11
0.673425
21
0.357874
0
LINE
8
BLACK
6
CONTINUOUS
10
0.673425
20
0.357874
11
0.674196
21
0.36274
0
LINE
8
BLACK
6
CONTINUOUS
10
0.674196
20
0.36274
11
0.676433
21
0.36713
0
LINE
8
BLACK
6
CONTINUOUS
10
0.676433
20
0.36713
11
0.679917
21
0.370614
0
LINE
8
BLACK
6
CONTINUOUS
10
0.679917
20
0.370614
11
0.684307
21
0.372851
0
LINE
8
BLACK
6
CONTINUOUS
10
0.684307
20
0.372851
11
0.689173
21
0.373622
0
LINE
8
BLACK
6
CONTINUOUS
10
0.689173
20
0.373622
11
0.710827
21
0.373622
0
LINE
8
BLACK
6
CONTINUOUS
10
0.710827
20
0.373622
11
0.715693
21
0.372851
0
LINE
8
BLACK
6
CONTINUOUS
10
0.123372
20
0.429809
11
0.128357
21
0.428065
0
LINE
8
BLACK
6
CONTINUOUS
10
0.128357
20
0.428065
11
0.132606
21
0.424929
0
LINE
8
BLACK
6
CONTINUOUS
10
0.132606
20
0.424929
11
0.135742
21
0.42068
0
LINE
8
BLACK
6
CONTINUOUS
10
0.135742
20
0.42068
11
0.137486
21
0.415695
0
LINE
8
BLACK
6
CONTINUOUS
10
0.137486
20
0.415695
11
0.137795
21
0.412402
0
LINE
8
BLACK
6
CONTINUOUS
10
0.137795
20
0.412402
11
0.137795
21
0.392717
0
LINE
8
BLACK
6
CONTINUOUS
10
0.137795
20
0.392717
11
0.137486
21
0.389423
0
LINE
8
BLACK
6
CONTINUOUS
10
0.137486
20
0.389423
11
0.135742
21
0.384438
0
LINE
8
BLACK
6
CONTINUOUS
10
0.135742
20
0.384438
11
0.132606
21
0.380189
0
LINE
8
BLACK
6
CONTINUOUS
10
0.132606
20
0.380189
11
0.128357
21
0.377053
0
LINE
8
BLACK
6
CONTINUOUS
10
0.128357
20
0.377053
11
0.123372
21
0.375309
0
LINE
8
BLACK
6
CONTINUOUS
10
0.123372
20
0.375309
11
0.120079
21
0.375
0
LINE
8
BLACK
6
CONTINUOUS
10
0.120079
20
0.375
11
0.0334646
21
0.375
0
LINE
8
BLACK
6
CONTINUOUS
10
0.0334646
20
0.375
11
0.0301709
21
0.375309
0
LINE
8
BLACK
6
CONTINUOUS
10
0.0301709
20
0.375309
11
0.0251862
21
0.377053
0
LINE
8
BLACK
6
CONTINUOUS
10
0.0251862
20
0.377053
11
0.0209371
21
0.380189
0
LINE
8
BLACK
6
CONTINUOUS
10
0.0209371
20
0.380189
11
0.0178011
21
0.384438
0
LINE
8
BLACK
6
CONTINUOUS
10
0.0178011
20
0.384438
11
0.0160569
21
0.389423
0
LINE
8
BLACK
6
CONTINUOUS
10
0.0160569
20
0.389423
11
0.015748
21
0.392717
0
LINE
8
BLACK
6
CONTINUOUS
10
0.015748
20
0.392717
11
0.015748
21
0.412402
0
LINE
8
BLACK
6
CONTINUOUS
10
0.015748
20
0.412402
11
0.0160569
21
0.415695
0
LINE
8
BLACK
6
CONTINUOUS
10
0.0160569
20
0.415695
11
0.0178011
21
0.42068
0
LINE
8
BLACK
6
CONTINUOUS
10
0.0178011
20
0.42068
11
0.0209371
21
0.424929
0
LINE
8
BLACK
6
CONTINUOUS
10
0.0209371
20
0.424929
11
0.0251862
21
0.428065
0
LINE
8
BLACK
6
CONTINUOUS
10
0.0251862
20
0.428065
11
0.0301709
21
0.429809
0
LINE
8
BLACK
6
CONTINUOUS
10
0.0301709
20
0.429809
11
0.0334646
21
0.430118
0
LINE
8
BLACK
6
CONTINUOUS
10
0.0334646
20
0.430118
11
0.120079
21
0.430118
0
LINE
8
BLACK
6
CONTINUOUS
10
0.120079
20
0.430118
11
0.123372
21
0.429809
0
LINE
8
BLACK
6
CONTINUOUS
10
0.954081
20
0.429809
11
0.959066
21
0.428065
0
LINE
8
BLACK
6
CONTINUOUS
10
0.959066
20
0.428065
11
0.963315
21
0.424929
0
LINE
8
BLACK
6
CONTINUOUS
10
0.963315
20
0.424929
11
0.966451
21
0.42068
0
LINE
8
BLACK
6
CONTINUOUS
10
0.966451
20
0.42068
11
0.968195
21
0.415695
0
LINE
8
BLACK
6
CONTINUOUS
10
0.968195
20
0.415695
11
0.968504
21
0.412402
0
LINE
8
BLACK
6
CONTINUOUS
10
0.968504
20
0.412402
11
0.968504
21
0.392717
0
LINE
8
BLACK
6
CONTINUOUS
10
0.968504
20
0.392717
11
0.968195
21
0.389423
0
LINE
8
BLACK
6
CONTINUOUS
10
0.968195
20
0.389423
11
0.966451
21
0.384438
0
LINE
8
BLACK
6
CONTINUOUS
10
0.966451
20
0.384438
11
0.963315
21
0.380189
0
LINE
8
BLACK
6
CONTINUOUS
10
0.963315
20
0.380189
11
0.959066
21
0.377053
0
LINE
8
BLACK
6
CONTINUOUS
10
0.959066
20
0.377053
11
0.954081
21
0.375309
0
LINE
8
BLACK
6
CONTINUOUS
10
0.954081
20
0.375309
11
0.950787
21
0.375
0
LINE
8
BLACK
6
CONTINUOUS
10
0.950787
20
0.375
11
0.864173
21
0.375
0
LINE
8
BLACK
6
CONTINUOUS
10
0.864173
20
0.375
11
0.86088
21
0.375309
0
LINE
8
BLACK
6
CONTINUOUS
10
0.86088
20
0.375309
11
0.855895
21
0.377053
0
LINE
8
BLACK
6
CONTINUOUS
10
0.855895
20
0.377053
11
0.851646
21
0.380189
0
LINE
8
BLACK
6
CONTINUOUS
10
0.851646
20
0.380189
11
0.84851
21
0.384438
0
LINE
8
BLACK
6
CONTINUOUS
10
0.84851
20
0.384438
11
0.846766
21
0.389423
0
LINE
8
BLACK
6
CONTINUOUS
10
0.846766
20
0.389423
11
0.846457
21
0.392717
0
LINE
8
BLACK
6
CONTINUOUS
10
0.846457
20
0.392717
11
0.846457
21
0.412402
0
LINE
8
BLACK
6
CONTINUOUS
10
0.846457
20
0.412402
11
0.846766
21
0.415695
0
LINE
8
BLACK
6
CONTINUOUS
10
0.846766
20
0.415695
11
0.84851
21
0.42068
0
LINE
8
BLACK
6
CONTINUOUS
10
0.84851
20
0.42068
11
0.851646
21
0.424929
0
LINE
8
BLACK
6
CONTINUOUS
10
0.851646
20
0.424929
11
0.855895
21
0.428065
0
LINE
8
BLACK
6
CONTINUOUS
10
0.855895
20
0.428065
11
0.86088
21
0.429809
0
LINE
8
BLACK
6
CONTINUOUS
10
0.86088
20
0.429809
11
0.864173
21
0.430118
0
LINE
8
BLACK
6
CONTINUOUS
10
0.864173
20
0.430118
11
0.950787
21
0.430118
0
LINE
8
BLACK
6
CONTINUOUS
10
0.950787
20
0.430118
11
0.954081
21
0.429809
0
LINE
8
BLACK
6
CONTINUOUS
10
0.355693
20
0.432371
11
0.360083
21
0.430134
0
LINE
8
BLACK
6
CONTINUOUS
10
0.360083
20
0.430134
11
0.363567
21
0.42665
0
LINE
8
BLACK
6
CONTINUOUS
10
0.363567
20
0.42665
11
0.365804
21
0.42226
0
LINE
8
BLACK
6
CONTINUOUS
10
0.365804
20
0.42226
11
0.366575
21
0.417394
0
LINE
8
BLACK
6
CONTINUOUS
10
0.366575
20
0.417394
11
0.366575
21
0.401646
0
LINE
8
BLACK
6
CONTINUOUS
10
0.366575
20
0.401646
11
0.365804
21
0.396779
0
LINE
8
BLACK
6
CONTINUOUS
10
0.365804
20
0.396779
11
0.363567
21
0.392389
0
LINE
8
BLACK
6
CONTINUOUS
10
0.363567
20
0.392389
11
0.360083
21
0.388905
0
LINE
8
BLACK
6
CONTINUOUS
10
0.360083
20
0.388905
11
0.355693
21
0.386668
0
LINE
8
BLACK
6
CONTINUOUS
10
0.355693
20
0.386668
11
0.350827
21
0.385898
0
LINE
8
BLACK
6
CONTINUOUS
10
0.350827
20
0.385898
11
0.329173
21
0.385898
0
LINE
8
BLACK
6
CONTINUOUS
10
0.329173
20
0.385898
11
0.324307
21
0.386668
0
LINE
8
BLACK
6
CONTINUOUS
10
0.324307
20
0.386668
11
0.319917
21
0.388905
0
LINE
8
BLACK
6
CONTINUOUS
10
0.319917
20
0.388905
11
0.316433
21
0.392389
0
LINE
8
BLACK
6
CONTINUOUS
10
0.316433
20
0.392389
11
0.314196
21
0.396779
0
LINE
8
BLACK
6
CONTINUOUS
10
0.314196
20
0.396779
11
0.313425
21
0.401646
0
LINE
8
BLACK
6
CONTINUOUS
10
0.313425
20
0.401646
11
0.313425
21
0.417394
0
LINE
8
BLACK
6
CONTINUOUS
10
0.313425
20
0.417394
11
0.314196
21
0.42226
0
LINE
8
BLACK
6
CONTINUOUS
10
0.314196
20
0.42226
11
0.316433
21
0.42665
0
LINE
8
BLACK
6
CONTINUOUS
10
0.316433
20
0.42665
11
0.319917
21
0.430134
0
LINE
8
BLACK
6
CONTINUOUS
10
0.319917
20
0.430134
11
0.324307
21
0.432371
0
LINE
8
BLACK
6
CONTINUOUS
10
0.324307
20
0.432371
11
0.329173
21
0.433142
0
LINE
8
BLACK
6
CONTINUOUS
10
0.329173
20
0.433142
11
0.350827
21
0.433142
0
LINE
8
BLACK
6
CONTINUOUS
10
0.350827
20
0.433142
11
0.355693
21
0.432371
0
LINE
8
BLACK
6
CONTINUOUS
10
0.650693
20
0.437812
11
0.655083
21
0.435575
0
LINE
8
BLACK
6
CONTINUOUS
10
0.655083
20
0.435575
11
0.658567
21
0.432091
0
LINE
8
BLACK
6
CONTINUOUS
10
0.658567
20
0.432091
11
0.660804
21
0.427701
0
LINE
8
BLACK
6
CONTINUOUS
10
0.660804
20
0.427701
11
0.661575
21
0.422835
0
LINE
8
BLACK
6
CONTINUOUS
10
0.661575
20
0.422835
11
0.661575
21
0.407087
0
LINE
8
BLACK
6
CONTINUOUS
10
0.661575
20
0.407087
11
0.660804
21
0.40222
0
LINE
8
BLACK
6
CONTINUOUS
10
0.660804
20
0.40222
11
0.658567
21
0.39783
0
LINE
8
BLACK
6
CONTINUOUS
10
0.658567
20
0.39783
11
0.655083
21
0.394346
0
LINE
8
BLACK
6
CONTINUOUS
10
0.655083
20
0.394346
11
0.650693
21
0.392109
0
LINE
8
BLACK
6
CONTINUOUS
10
0.650693
20
0.392109
11
0.645827
21
0.391339
0
LINE
8
BLACK
6
CONTINUOUS
10
0.645827
20
0.391339
11
0.624173
21
0.391339
0
LINE
8
BLACK
6
CONTINUOUS
10
0.624173
20
0.391339
11
0.619307
21
0.392109
0
LINE
8
BLACK
6
CONTINUOUS
10
0.619307
20
0.392109
11
0.614917
21
0.394346
0
LINE
8
BLACK
6
CONTINUOUS
10
0.614917
20
0.394346
11
0.611433
21
0.39783
0
LINE
8
BLACK
6
CONTINUOUS
10
0.611433
20
0.39783
11
0.609196
21
0.40222
0
LINE
8
BLACK
6
CONTINUOUS
10
0.609196
20
0.40222
11
0.608425
21
0.407087
0
LINE
8
BLACK
6
CONTINUOUS
10
0.608425
20
0.407087
11
0.608425
21
0.422835
0
LINE
8
BLACK
6
CONTINUOUS
10
0.608425
20
0.422835
11
0.609196
21
0.427701
0
LINE
8
BLACK
6
CONTINUOUS
10
0.609196
20
0.427701
11
0.611433
21
0.432091
0
LINE
8
BLACK
6
CONTINUOUS
10
0.611433
20
0.432091
11
0.614917
21
0.435575
0
LINE
8
BLACK
6
CONTINUOUS
10
0.614917
20
0.435575
11
0.619307
21
0.437812
0
LINE
8
BLACK
6
CONTINUOUS
10
0.619307
20
0.437812
11
0.624173
21
0.438583
0
LINE
8
BLACK
6
CONTINUOUS
10
0.624173
20
0.438583
11
0.645827
21
0.438583
0
LINE
8
BLACK
6
CONTINUOUS
10
0.645827
20
0.438583
11
0.650693
21
0.437812
0
LINE
8
BLACK
6
CONTINUOUS
10
0.715693
20
0.437812
11
0.720083
21
0.435575
0
LINE
8
BLACK
6
CONTINUOUS
10
0.720083
20
0.435575
11
0.723567
21
0.432091
0
LINE
8
BLACK
6
CONTINUOUS
10
0.723567
20
0.432091
11
0.725804
21
0.427701
0
LINE
8
BLACK
6
CONTINUOUS
10
0.725804
20
0.427701
11
0.726575
21
0.422835
0
LINE
8
BLACK
6
CONTINUOUS
10
0.726575
20
0.422835
11
0.726575
21
0.407087
0
LINE
8
BLACK
6
CONTINUOUS
10
0.726575
20
0.407087
11
0.725804
21
0.40222
0
LINE
8
BLACK
6
CONTINUOUS
10
0.725804
20
0.40222
11
0.723567
21
0.39783
0
LINE
8
BLACK
6
CONTINUOUS
10
0.723567
20
0.39783
11
0.720083
21
0.394346
0
LINE
8
BLACK
6
CONTINUOUS
10
0.720083
20
0.394346
11
0.715693
21
0.392109
0
LINE
8
BLACK
6
CONTINUOUS
10
0.715693
20
0.392109
11
0.710827
21
0.391339
0
LINE
8
BLACK
6
CONTINUOUS
10
0.710827
20
0.391339
11
0.689173
21
0.391339
0
LINE
8
BLACK
6
CONTINUOUS
10
0.689173
20
0.391339
11
0.684307
21
0.392109
0
LINE
8
BLACK
6
CONTINUOUS
10
0.684307
20
0.392109
11
0.679917
21
0.394346
0
LINE
8
BLACK
6
CONTINUOUS
10
0.679917
20
0.394346
11
0.676433
21
0.39783
0
LINE
8
BLACK
6
CONTINUOUS
10
0.676433
20
0.39783
11
0.674196
21
0.40222
0
LINE
8
BLACK
6
CONTINUOUS
10
0.674196
20
0.40222
11
0.673425
21
0.407087
0
LINE
8
BLACK
6
CONTINUOUS
10
0.673425
20
0.407087
11
0.673425
21
0.422835
0
LINE
8
BLACK
6
CONTINUOUS
10
0.673425
20
0.422835
11
0.674196
21
0.427701
0
LINE
8
BLACK
6
CONTINUOUS
10
0.674196
20
0.427701
11
0.676433
21
0.432091
0
LINE
8
BLACK
6
CONTINUOUS
10
0.676433
20
0.432091
11
0.679917
21
0.435575
0
LINE
8
BLACK
6
CONTINUOUS
10
0.679917
20
0.435575
11
0.684307
21
0.437812
0
LINE
8
BLACK
6
CONTINUOUS
10
0.684307
20
0.437812
11
0.689173
21
0.438583
0
LINE
8
BLACK
6
CONTINUOUS
10
0.689173
20
0.438583
11
0.710827
21
0.438583
0
LINE
8
BLACK
6
CONTINUOUS
10
0.710827
20
0.438583
11
0.715693
21
0.437812
0
LINE
8
BLACK
6
CONTINUOUS
10
0.431163
20
0.582172
11
0.433071
21
0.580897
0
LINE
8
BLACK
6
CONTINUOUS
10
0.433071
20
0.580897
11
0.434979
21
0.582172
0
LINE
8
BLACK
6
CONTINUOUS
10
0.434979
20
0.582172
11
0.437992
21
0.582772
0
LINE
8
BLACK
6
CONTINUOUS
10
0.437992
20
0.582772
11
0.447835
21
0.582772
0
LINE
8
BLACK
6
CONTINUOUS
10
0.447835
20
0.582772
11
0.450848
21
0.582172
0
LINE
8
BLACK
6
CONTINUOUS
10
0.450848
20
0.582172
11
0.452756
21
0.580897
0
LINE
8
BLACK
6
CONTINUOUS
10
0.452756
20
0.580897
11
0.454664
21
0.582172
0
LINE
8
BLACK
6
CONTINUOUS
10
0.454664
20
0.582172
11
0.457677
21
0.582772
0
LINE
8
BLACK
6
CONTINUOUS
10
0.457677
20
0.582772
11
0.46752
21
0.582772
0
LINE
8
BLACK
6
CONTINUOUS
10
0.46752
20
0.582772
11
0.470533
21
0.582172
0
LINE
8
BLACK
6
CONTINUOUS
10
0.470533
20
0.582172
11
0.472441
21
0.580897
0
LINE
8
BLACK
6
CONTINUOUS
10
0.472441
20
0.580897
11
0.474349
21
0.582172
0
LINE
8
BLACK
6
CONTINUOUS
10
0.474349
20
0.582172
11
0.477362
21
0.582772
0
LINE
8
BLACK
6
CONTINUOUS
10
0.477362
20
0.582772
11
0.487205
21
0.582772
0
LINE
8
BLACK
6
CONTINUOUS
10
0.487205
20
0.582772
11
0.490218
21
0.582172
0
LINE
8
BLACK
6
CONTINUOUS
10
0.490218
20
0.582172
11
0.492126
21
0.580897
0
LINE
8
BLACK
6
CONTINUOUS
10
0.492126
20
0.580897
11
0.494034
21
0.582172
0
LINE
8
BLACK
6
CONTINUOUS
10
0.494034
20
0.582172
11
0.497047
21
0.582772
0
LINE
8
BLACK
6
CONTINUOUS
10
0.497047
20
0.582772
11
0.50689
21
0.582772
0
LINE
8
BLACK
6
CONTINUOUS
10
0.50689
20
0.582772
11
0.509903
21
0.582172
0
LINE
8
BLACK
6
CONTINUOUS
10
0.509903
20
0.582172
11
0.511811
21
0.580897
0
LINE
8
BLACK
6
CONTINUOUS
10
0.511811
20
0.580897
11
0.513719
21
0.582172
0
LINE
8
BLACK
6
CONTINUOUS
10
0.513719
20
0.582172
11
0.516732
21
0.582772
0
LINE
8
BLACK
6
CONTINUOUS
10
0.516732
20
0.582772
11
0.526575
21
0.582772
0
LINE
8
BLACK
6
CONTINUOUS
10
0.526575
20
0.582772
11
0.529588
21
0.582172
0
LINE
8
BLACK
6
CONTINUOUS
10
0.529588
20
0.582172
11
0.531496
21
0.580897
0
LINE
8
BLACK
6
CONTINUOUS
10
0.531496
20
0.580897
11
0.533404
21
0.582172
0
LINE
8
BLACK
6
CONTINUOUS
10
0.533404
20
0.582172
11
0.536417
21
0.582772
0
LINE
8
BLACK
6
CONTINUOUS
10
0.536417
20
0.582772
11
0.54626
21
0.582772
0
LINE
8
BLACK
6
CONTINUOUS
10
0.54626
20
0.582772
11
0.549273
21
0.582172
0
LINE
8
BLACK
6
CONTINUOUS
10
0.549273
20
0.582172
11
0.551181
21
0.580897
0
LINE
8
BLACK
6
CONTINUOUS
10
0.551181
20
0.580897
11
0.553089
21
0.582172
0
LINE
8
BLACK
6
CONTINUOUS
10
0.553089
20
0.582172
11
0.556102
21
0.582772
0
LINE
8
BLACK
6
CONTINUOUS
10
0.556102
20
0.582772
11
0.565945
21
0.582772
0
LINE
8
BLACK
6
CONTINUOUS
10
0.565945
20
0.582772
11
0.568958
21
0.582172
0
LINE
8
BLACK
6
CONTINUOUS
10
0.568958
20
0.582172
11
0.571513
21
0.580465
0
LINE
8
BLACK
6
CONTINUOUS
10
0.571513
20
0.580465
11
0.57322
21
0.577911
0
LINE
8
BLACK
6
CONTINUOUS
10
0.57322
20
0.577911
11
0.573819
21
0.574898
0
LINE
8
BLACK
6
CONTINUOUS
10
0.573819
20
0.574898
11
0.573819
21
0.549307
0
LINE
8
BLACK
6
CONTINUOUS
10
0.573819
20
0.549307
11
0.573271
21
0.546551
0
LINE
8
BLACK
6
CONTINUOUS
10
0.573271
20
0.546551
11
0.57874
21
0.546551
0
LINE
8
BLACK
6
CONTINUOUS
10
0.57874
20
0.546551
11
0.581753
21
0.545952
0
LINE
8
BLACK
6
CONTINUOUS
10
0.581753
20
0.545952
11
0.584308
21
0.544245
0
LINE
8
BLACK
6
CONTINUOUS
10
0.584308
20
0.544245
11
0.586015
21
0.54169
0
LINE
8
BLACK
6
CONTINUOUS
10
0.586015
20
0.54169
11
0.586614
21
0.538677
0
LINE
8
BLACK
6
CONTINUOUS
10
0.586614
20
0.538677
11
0.586614
21
0.473323
0
LINE
8
BLACK
6
CONTINUOUS
10
0.586614
20
0.473323
11
0.586015
21
0.47031
0
LINE
8
BLACK
6
CONTINUOUS
10
0.586015
20
0.47031
11
0.584308
21
0.467755
0
LINE
8
BLACK
6
CONTINUOUS
10
0.584308
20
0.467755
11
0.581753
21
0.466048
0
LINE
8
BLACK
6
CONTINUOUS
10
0.581753
20
0.466048
11
0.57874
21
0.465449
0
LINE
8
BLACK
6
CONTINUOUS
10
0.57874
20
0.465449
11
0.573271
21
0.465449
0
LINE
8
BLACK
6
CONTINUOUS
10
0.573271
20
0.465449
11
0.573819
21
0.462693
0
LINE
8
BLACK
6
CONTINUOUS
10
0.573819
20
0.462693
11
0.573819
21
0.437102
0
LINE
8
BLACK
6
CONTINUOUS
10
0.573819
20
0.437102
11
0.57322
21
0.434089
0
LINE
8
BLACK
6
CONTINUOUS
10
0.57322
20
0.434089
11
0.571513
21
0.431535
0
LINE
8
BLACK
6
CONTINUOUS
10
0.571513
20
0.431535
11
0.568958
21
0.429828
0
LINE
8
BLACK
6
CONTINUOUS
10
0.568958
20
0.429828
11
0.565945
21
0.429228
0
LINE
8
BLACK
6
CONTINUOUS
10
0.565945
20
0.429228
11
0.556102
21
0.429228
0
LINE
8
BLACK
6
CONTINUOUS
10
0.556102
20
0.429228
11
0.553089
21
0.429828
0
LINE
8
BLACK
6
CONTINUOUS
10
0.553089
20
0.429828
11
0.551181
21
0.431103
0
LINE
8
BLACK
6
CONTINUOUS
10
0.551181
20
0.431103
11
0.549273
21
0.429828
0
LINE
8
BLACK
6
CONTINUOUS
10
0.549273
20
0.429828
11
0.54626
21
0.429228
0
LINE
8
BLACK
6
CONTINUOUS
10
0.54626
20
0.429228
11
0.536417
21
0.429228
0
LINE
8
BLACK
6
CONTINUOUS
10
0.536417
20
0.429228
11
0.533404
21
0.429828
0
LINE
8
BLACK
6
CONTINUOUS
10
0.533404
20
0.429828
11
0.531496
21
0.431103
0
LINE
8
BLACK
6
CONTINUOUS
10
0.531496
20
0.431103
11
0.529588
21
0.429828
0
LINE
8
BLACK
6
CONTINUOUS
10
0.529588
20
0.429828
11
0.526575
21
0.429228
0
LINE
8
BLACK
6
CONTINUOUS
10
0.526575
20
0.429228
11
0.516732
21
0.429228
0
LINE
8
BLACK
6
CONTINUOUS
10
0.516732
20
0.429228
11
0.513719
21
0.429828
0
LINE
8
BLACK
6
CONTINUOUS
10
0.513719
20
0.429828
11
0.511811
21
0.431103
0
LINE
8
BLACK
6
CONTINUOUS
10
0.511811
20
0.431103
11
0.509903
21
0.429828
0
LINE
8
BLACK
6
CONTINUOUS
10
0.509903
20
0.429828
11
0.50689
21
0.429228
0
LINE
8
BLACK
6
CONTINUOUS
10
0.50689
20
0.429228
11
0.497047
21
0.429228
0
LINE
8
BLACK
6
CONTINUOUS
10
0.497047
20
0.429228
11
0.494034
21
0.429828
0
LINE
8
BLACK
6
CONTINUOUS
10
0.494034
20
0.429828
11
0.492126
21
0.431103
0
LINE
8
BLACK
6
CONTINUOUS
10
0.492126
20
0.431103
11
0.490218
21
0.429828
0
LINE
8
BLACK
6
CONTINUOUS
10
0.490218
20
0.429828
11
0.487205
21
0.429228
0
LINE
8
BLACK
6
CONTINUOUS
10
0.487205
20
0.429228
11
0.477362
21
0.429228
0
LINE
8
BLACK
6
CONTINUOUS
10
0.477362
20
0.429228
11
0.474349
21
0.429828
0
LINE
8
BLACK
6
CONTINUOUS
10
0.474349
20
0.429828
11
0.472441
21
0.431103
0
LINE
8
BLACK
6
CONTINUOUS
10
0.472441
20
0.431103
11
0.470533
21
0.429828
0
LINE
8
BLACK
6
CONTINUOUS
10
0.470533
20
0.429828
11
0.46752
21
0.429228
0
LINE
8
BLACK
6
CONTINUOUS
10
0.46752
20
0.429228
11
0.457677
21
0.429228
0
LINE
8
BLACK
6
CONTINUOUS
10
0.457677
20
0.429228
11
0.454664
21
0.429828
0
LINE
8
BLACK
6
CONTINUOUS
10
0.454664
20
0.429828
11
0.452756
21
0.431103
0
LINE
8
BLACK
6
CONTINUOUS
10
0.452756
20
0.431103
11
0.450848
21
0.429828
0
LINE
8
BLACK
6
CONTINUOUS
10
0.450848
20
0.429828
11
0.447835
21
0.429228
0
LINE
8
BLACK
6
CONTINUOUS
10
0.447835
20
0.429228
11
0.437992
21
0.429228
0
LINE
8
BLACK
6
CONTINUOUS
10
0.437992
20
0.429228
11
0.434979
21
0.429828
0
LINE
8
BLACK
6
CONTINUOUS
10
0.434979
20
0.429828
11
0.433071
21
0.431103
0
LINE
8
BLACK
6
CONTINUOUS
10
0.433071
20
0.431103
11
0.431163
21
0.429828
0
LINE
8
BLACK
6
CONTINUOUS
10
0.431163
20
0.429828
11
0.42815
21
0.429228
0
LINE
8
BLACK
6
CONTINUOUS
10
0.42815
20
0.429228
11
0.418307
21
0.429228
0
LINE
8
BLACK
6
CONTINUOUS
10
0.418307
20
0.429228
11
0.415294
21
0.429828
0
LINE
8
BLACK
6
CONTINUOUS
10
0.415294
20
0.429828
11
0.412739
21
0.431535
0
LINE
8
BLACK
6
CONTINUOUS
10
0.412739
20
0.431535
11
0.411032
21
0.434089
0
LINE
8
BLACK
6
CONTINUOUS
10
0.411032
20
0.434089
11
0.410433
21
0.437102
0
LINE
8
BLACK
6
CONTINUOUS
10
0.410433
20
0.437102
11
0.410433
21
0.462693
0
LINE
8
BLACK
6
CONTINUOUS
10
0.410433
20
0.462693
11
0.410981
21
0.465449
0
LINE
8
BLACK
6
CONTINUOUS
10
0.410981
20
0.465449
11
0.405512
21
0.465449
0
LINE
8
BLACK
6
CONTINUOUS
10
0.405512
20
0.465449
11
0.402499
21
0.466048
0
LINE
8
BLACK
6
CONTINUOUS
10
0.402499
20
0.466048
11
0.399944
21
0.467755
0
LINE
8
BLACK
6
CONTINUOUS
10
0.399944
20
0.467755
11
0.398237
21
0.47031
0
LINE
8
BLACK
6
CONTINUOUS
10
0.398237
20
0.47031
11
0.397638
21
0.473323
0
LINE
8
BLACK
6
CONTINUOUS
10
0.397638
20
0.473323
11
0.397638
21
0.538677
0
LINE
8
BLACK
6
CONTINUOUS
10
0.397638
20
0.538677
11
0.398237
21
0.54169
0
LINE
8
BLACK
6
CONTINUOUS
10
0.398237
20
0.54169
11
0.399944
21
0.544245
0
LINE
8
BLACK
6
CONTINUOUS
10
0.399944
20
0.544245
11
0.402499
21
0.545952
0
LINE
8
BLACK
6
CONTINUOUS
10
0.402499
20
0.545952
11
0.405512
21
0.546551
0
LINE
8
BLACK
6
CONTINUOUS
10
0.405512
20
0.546551
11
0.410981
21
0.546551
0
LINE
8
BLACK
6
CONTINUOUS
10
0.410981
20
0.546551
11
0.410433
21
0.549307
0
LINE
8
BLACK
6
CONTINUOUS
10
0.410433
20
0.549307
11
0.410433
21
0.574898
0
LINE
8
BLACK
6
CONTINUOUS
10
0.410433
20
0.574898
11
0.411032
21
0.577911
0
LINE
8
BLACK
6
CONTINUOUS
10
0.411032
20
0.577911
11
0.412739
21
0.580465
0
LINE
8
BLACK
6
CONTINUOUS
10
0.412739
20
0.580465
11
0.415294
21
0.582172
0
LINE
8
BLACK
6
CONTINUOUS
10
0.415294
20
0.582172
11
0.418307
21
0.582772
0
LINE
8
BLACK
6
CONTINUOUS
10
0.418307
20
0.582772
11
0.42815
21
0.582772
0
LINE
8
BLACK
6
CONTINUOUS
10
0.42815
20
0.582772
11
0.431163
21
0.582172
0
LINE
8
BLACK
6
CONTINUOUS
10
0.355693
20
0.497332
11
0.360083
21
0.495095
0
LINE
8
BLACK
6
CONTINUOUS
10
0.360083
20
0.495095
11
0.363567
21
0.491611
0
LINE
8
BLACK
6
CONTINUOUS
10
0.363567
20
0.491611
11
0.365804
21
0.487221
0
LINE
8
BLACK
6
CONTINUOUS
10
0.365804
20
0.487221
11
0.366575
21
0.482354
0
LINE
8
BLACK
6
CONTINUOUS
10
0.366575
20
0.482354
11
0.366575
21
0.466606
0
LINE
8
BLACK
6
CONTINUOUS
10
0.366575
20
0.466606
11
0.365804
21
0.46174
0
LINE
8
BLACK
6
CONTINUOUS
10
0.365804
20
0.46174
11
0.363567
21
0.45735
0
LINE
8
BLACK
6
CONTINUOUS
10
0.363567
20
0.45735
11
0.360083
21
0.453866
0
LINE
8
BLACK
6
CONTINUOUS
10
0.360083
20
0.453866
11
0.355693
21
0.451629
0
LINE
8
BLACK
6
CONTINUOUS
10
0.355693
20
0.451629
11
0.350827
21
0.450858
0
LINE
8
BLACK
6
CONTINUOUS
10
0.350827
20
0.450858
11
0.329173
21
0.450858
0
LINE
8
BLACK
6
CONTINUOUS
10
0.329173
20
0.450858
11
0.324307
21
0.451629
0
LINE
8
BLACK
6
CONTINUOUS
10
0.324307
20
0.451629
11
0.319917
21
0.453866
0
LINE
8
BLACK
6
CONTINUOUS
10
0.319917
20
0.453866
11
0.316433
21
0.45735
0
LINE
8
BLACK
6
CONTINUOUS
10
0.316433
20
0.45735
11
0.314196
21
0.46174
0
LINE
8
BLACK
6
CONTINUOUS
10
0.314196
20
0.46174
11
0.313425
21
0.466606
0
LINE
8
BLACK
6
CONTINUOUS
10
0.313425
20
0.466606
11
0.313425
21
0.482354
0
LINE
8
BLACK
6
CONTINUOUS
10
0.313425
20
0.482354
11
0.314196
21
0.487221
0
LINE
8
BLACK
6
CONTINUOUS
10
0.314196
20
0.487221
11
0.316433
21
0.491611
0
LINE
8
BLACK
6
CONTINUOUS
10
0.316433
20
0.491611
11
0.319917
21
0.495095
0
LINE
8
BLACK
6
CONTINUOUS
10
0.319917
20
0.495095
11
0.324307
21
0.497332
0
LINE
8
BLACK
6
CONTINUOUS
10
0.324307
20
0.497332
11
0.329173
21
0.498102
0
LINE
8
BLACK
6
CONTINUOUS
10
0.329173
20
0.498102
11
0.350827
21
0.498102
0
LINE
8
BLACK
6
CONTINUOUS
10
0.350827
20
0.498102
11
0.355693
21
0.497332
0
LINE
8
BLACK
6
CONTINUOUS
10
0.660013
20
0.518748
11
0.664678
21
0.516371
0
LINE
8
BLACK
6
CONTINUOUS
10
0.664678
20
0.516371
11
0.668379
21
0.51267
0
LINE
8
BLACK
6
CONTINUOUS
10
0.668379
20
0.51267
11
0.670756
21
0.508005
0
LINE
8
BLACK
6
CONTINUOUS
10
0.670756
20
0.508005
11
0.671575
21
0.502835
0
LINE
8
BLACK
6
CONTINUOUS
10
0.671575
20
0.502835
11
0.671575
21
0.485118
0
LINE
8
BLACK
6
CONTINUOUS
10
0.671575
20
0.485118
11
0.670756
21
0.479948
0
LINE
8
BLACK
6
CONTINUOUS
10
0.670756
20
0.479948
11
0.668379
21
0.475283
0
LINE
8
BLACK
6
CONTINUOUS
10
0.668379
20
0.475283
11
0.664678
21
0.471581
0
LINE
8
BLACK
6
CONTINUOUS
10
0.664678
20
0.471581
11
0.660013
21
0.469205
0
LINE
8
BLACK
6
CONTINUOUS
10
0.660013
20
0.469205
11
0.654843
21
0.468386
0
LINE
8
BLACK
6
CONTINUOUS
10
0.654843
20
0.468386
11
0.635157
21
0.468386
0
LINE
8
BLACK
6
CONTINUOUS
10
0.635157
20
0.468386
11
0.629987
21
0.469205
0
LINE
8
BLACK
6
CONTINUOUS
10
0.629987
20
0.469205
11
0.625322
21
0.471581
0
LINE
8
BLACK
6
CONTINUOUS
10
0.625322
20
0.471581
11
0.621621
21
0.475283
0
LINE
8
BLACK
6
CONTINUOUS
10
0.621621
20
0.475283
11
0.619244
21
0.479948
0
LINE
8
BLACK
6
CONTINUOUS
10
0.619244
20
0.479948
11
0.618425
21
0.485118
0
LINE
8
BLACK
6
CONTINUOUS
10
0.618425
20
0.485118
11
0.618425
21
0.502835
0
LINE
8
BLACK
6
CONTINUOUS
10
0.618425
20
0.502835
11
0.619244
21
0.508005
0
LINE
8
BLACK
6
CONTINUOUS
10
0.619244
20
0.508005
11
0.621621
21
0.51267
0
LINE
8
BLACK
6
CONTINUOUS
10
0.621621
20
0.51267
11
0.625322
21
0.516371
0
LINE
8
BLACK
6
CONTINUOUS
10
0.625322
20
0.516371
11
0.629987
21
0.518748
0
LINE
8
BLACK
6
CONTINUOUS
10
0.629987
20
0.518748
11
0.635157
21
0.519567
0
LINE
8
BLACK
6
CONTINUOUS
10
0.635157
20
0.519567
11
0.654843
21
0.519567
0
LINE
8
BLACK
6
CONTINUOUS
10
0.654843
20
0.519567
11
0.660013
21
0.518748
0
LINE
8
BLACK
6
CONTINUOUS
10
0.123372
20
0.530203
11
0.128357
21
0.528459
0
LINE
8
BLACK
6
CONTINUOUS
10
0.128357
20
0.528459
11
0.132606
21
0.525323
0
LINE
8
BLACK
6
CONTINUOUS
10
0.132606
20
0.525323
11
0.135742
21
0.521074
0
LINE
8
BLACK
6
CONTINUOUS
10
0.135742
20
0.521074
11
0.137486
21
0.516089
0
LINE
8
BLACK
6
CONTINUOUS
10
0.137486
20
0.516089
11
0.137795
21
0.512795
0
LINE
8
BLACK
6
CONTINUOUS
10
0.137795
20
0.512795
11
0.137795
21
0.49311
0
LINE
8
BLACK
6
CONTINUOUS
10
0.137795
20
0.49311
11
0.137486
21
0.489817
0
LINE
8
BLACK
6
CONTINUOUS
10
0.137486
20
0.489817
11
0.135742
21
0.484832
0
LINE
8
BLACK
6
CONTINUOUS
10
0.135742
20
0.484832
11
0.132606
21
0.480583
0
LINE
8
BLACK
6
CONTINUOUS
10
0.132606
20
0.480583
11
0.128357
21
0.477447
0
LINE
8
BLACK
6
CONTINUOUS
10
0.128357
20
0.477447
11
0.123372
21
0.475703
0
LINE
8
BLACK
6
CONTINUOUS
10
0.123372
20
0.475703
11
0.120079
21
0.475394
0
LINE
8
BLACK
6
CONTINUOUS
10
0.120079
20
0.475394
11
0.0334646
21
0.475394
0
LINE
8
BLACK
6
CONTINUOUS
10
0.0334646
20
0.475394
11
0.0301709
21
0.475703
0
LINE
8
BLACK
6
CONTINUOUS
10
0.0301709
20
0.475703
11
0.0251862
21
0.477447
0
LINE
8
BLACK
6
CONTINUOUS
10
0.0251862
20
0.477447
11
0.0209371
21
0.480583
0
LINE
8
BLACK
6
CONTINUOUS
10
0.0209371
20
0.480583
11
0.0178011
21
0.484832
0
LINE
8
BLACK
6
CONTINUOUS
10
0.0178011
20
0.484832
11
0.0160569
21
0.489817
0
LINE
8
BLACK
6
CONTINUOUS
10
0.0160569
20
0.489817
11
0.015748
21
0.49311
0
LINE
8
BLACK
6
CONTINUOUS
10
0.015748
20
0.49311
11
0.015748
21
0.512795
0
LINE
8
BLACK
6
CONTINUOUS
10
0.015748
20
0.512795
11
0.0160569
21
0.516089
0
LINE
8
BLACK
6
CONTINUOUS
10
0.0160569
20
0.516089
11
0.0178011
21
0.521074
0
LINE
8
BLACK
6
CONTINUOUS
10
0.0178011
20
0.521074
11
0.0209371
21
0.525323
0
LINE
8
BLACK
6
CONTINUOUS
10
0.0209371
20
0.525323
11
0.0251862
21
0.528459
0
LINE
8
BLACK
6
CONTINUOUS
10
0.0251862
20
0.528459
11
0.0301709
21
0.530203
0
LINE
8
BLACK
6
CONTINUOUS
10
0.0301709
20
0.530203
11
0.0334646
21
0.530512
0
LINE
8
BLACK
6
CONTINUOUS
10
0.0334646
20
0.530512
11
0.120079
21
0.530512
0
LINE
8
BLACK
6
CONTINUOUS
10
0.120079
20
0.530512
11
0.123372
21
0.530203
0
LINE
8
BLACK
6
CONTINUOUS
10
0.954081
20
0.530203
11
0.959066
21
0.528459
0
LINE
8
BLACK
6
CONTINUOUS
10
0.959066
20
0.528459
11
0.963315
21
0.525323
0
LINE
8
BLACK
6
CONTINUOUS
10
0.963315
20
0.525323
11
0.966451
21
0.521074
0
LINE
8
BLACK
6
CONTINUOUS
10
0.966451
20
0.521074
11
0.968195
21
0.516089
0
LINE
8
BLACK
6
CONTINUOUS
10
0.968195
20
0.516089
11
0.968504
21
0.512795
0
LINE
8
BLACK
6
CONTINUOUS
10
0.968504
20
0.512795
11
0.968504
21
0.49311
0
LINE
8
BLACK
6
CONTINUOUS
10
0.968504
20
0.49311
11
0.968195
21
0.489817
0
LINE
8
BLACK
6
CONTINUOUS
10
0.968195
20
0.489817
11
0.966451
21
0.484832
0
LINE
8
BLACK
6
CONTINUOUS
10
0.966451
20
0.484832
11
0.963315
21
0.480583
0
LINE
8
BLACK
6
CONTINUOUS
10
0.963315
20
0.480583
11
0.959066
21
0.477447
0
LINE
8
BLACK
6
CONTINUOUS
10
0.959066
20
0.477447
11
0.954081
21
0.475703
0
LINE
8
BLACK
6
CONTINUOUS
10
0.954081
20
0.475703
11
0.950787
21
0.475394
0
LINE
8
BLACK
6
CONTINUOUS
10
0.950787
20
0.475394
11
0.864173
21
0.475394
0
LINE
8
BLACK
6
CONTINUOUS
10
0.864173
20
0.475394
11
0.86088
21
0.475703
0
LINE
8
BLACK
6
CONTINUOUS
10
0.86088
20
0.475703
11
0.855895
21
0.477447
0
LINE
8
BLACK
6
CONTINUOUS
10
0.855895
20
0.477447
11
0.851646
21
0.480583
0
LINE
8
BLACK
6
CONTINUOUS
10
0.851646
20
0.480583
11
0.84851
21
0.484832
0
LINE
8
BLACK
6
CONTINUOUS
10
0.84851
20
0.484832
11
0.846766
21
0.489817
0
LINE
8
BLACK
6
CONTINUOUS
10
0.846766
20
0.489817
11
0.846457
21
0.49311
0
LINE
8
BLACK
6
CONTINUOUS
10
0.846457
20
0.49311
11
0.846457
21
0.512795
0
LINE
8
BLACK
6
CONTINUOUS
10
0.846457
20
0.512795
11
0.846766
21
0.516089
0
LINE
8
BLACK
6
CONTINUOUS
10
0.846766
20
0.516089
11
0.84851
21
0.521074
0
LINE
8
BLACK
6
CONTINUOUS
10
0.84851
20
0.521074
11
0.851646
21
0.525323
0
LINE
8
BLACK
6
CONTINUOUS
10
0.851646
20
0.525323
11
0.855895
21
0.528459
0
LINE
8
BLACK
6
CONTINUOUS
10
0.855895
20
0.528459
11
0.86088
21
0.530203
0
LINE
8
BLACK
6
CONTINUOUS
10
0.86088
20
0.530203
11
0.864173
21
0.530512
0
LINE
8
BLACK
6
CONTINUOUS
10
0.864173
20
0.530512
11
0.950787
21
0.530512
0
LINE
8
BLACK
6
CONTINUOUS
10
0.950787
20
0.530512
11
0.954081
21
0.530203
0
LINE
8
BLACK
6
CONTINUOUS
10
0.29526
20
0.567804
11
0.29965
21
0.565567
0
LINE
8
BLACK
6
CONTINUOUS
10
0.29965
20
0.565567
11
0.303134
21
0.562083
0
LINE
8
BLACK
6
CONTINUOUS
10
0.303134
20
0.562083
11
0.305371
21
0.557693
0
LINE
8
BLACK
6
CONTINUOUS
10
0.305371
20
0.557693
11
0.306142
21
0.552827
0
LINE
8
BLACK
6
CONTINUOUS
10
0.306142
20
0.552827
11
0.306142
21
0.531173
0
LINE
8
BLACK
6
CONTINUOUS
10
0.306142
20
0.531173
11
0.305371
21
0.526307
0
LINE
8
BLACK
6
CONTINUOUS
10
0.305371
20
0.526307
11
0.303134
21
0.521917
0
LINE
8
BLACK
6
CONTINUOUS
10
0.303134
20
0.521917
11
0.29965
21
0.518433
0
LINE
8
BLACK
6
CONTINUOUS
10
0.29965
20
0.518433
11
0.29526
21
0.516196
0
LINE
8
BLACK
6
CONTINUOUS
10
0.29526
20
0.516196
11
0.290394
21
0.515425
0
LINE
8
BLACK
6
CONTINUOUS
10
0.290394
20
0.515425
11
0.274646
21
0.515425
0
LINE
8
BLACK
6
CONTINUOUS
10
0.274646
20
0.515425
11
0.269779
21
0.516196
0
LINE
8
BLACK
6
CONTINUOUS
10
0.269779
20
0.516196
11
0.265389
21
0.518433
0
LINE
8
BLACK
6
CONTINUOUS
10
0.265389
20
0.518433
11
0.261905
21
0.521917
0
LINE
8
BLACK
6
CONTINUOUS
10
0.261905
20
0.521917
11
0.259668
21
0.526307
0
LINE
8
BLACK
6
CONTINUOUS
10
0.259668
20
0.526307
11
0.258898
21
0.531173
0
LINE
8
BLACK
6
CONTINUOUS
10
0.258898
20
0.531173
11
0.258898
21
0.552827
0
LINE
8
BLACK
6
CONTINUOUS
10
0.258898
20
0.552827
11
0.259668
21
0.557693
0
LINE
8
BLACK
6
CONTINUOUS
10
0.259668
20
0.557693
11
0.261905
21
0.562083
0
LINE
8
BLACK
6
CONTINUOUS
10
0.261905
20
0.562083
11
0.265389
21
0.565567
0
LINE
8
BLACK
6
CONTINUOUS
10
0.265389
20
0.565567
11
0.269779
21
0.567804
0
LINE
8
BLACK
6
CONTINUOUS
10
0.269779
20
0.567804
11
0.274646
21
0.568575
0
LINE
8
BLACK
6
CONTINUOUS
10
0.274646
20
0.568575
11
0.290394
21
0.568575
0
LINE
8
BLACK
6
CONTINUOUS
10
0.290394
20
0.568575
11
0.29526
21
0.567804
0
LINE
8
BLACK
6
CONTINUOUS
10
0.360221
20
0.567804
11
0.364611
21
0.565567
0
LINE
8
BLACK
6
CONTINUOUS
10
0.364611
20
0.565567
11
0.368095
21
0.562083
0
LINE
8
BLACK
6
CONTINUOUS
10
0.368095
20
0.562083
11
0.370332
21
0.557693
0
LINE
8
BLACK
6
CONTINUOUS
10
0.370332
20
0.557693
11
0.371102
21
0.552827
0
LINE
8
BLACK
6
CONTINUOUS
10
0.371102
20
0.552827
11
0.371102
21
0.531173
0
LINE
8
BLACK
6
CONTINUOUS
10
0.371102
20
0.531173
11
0.370332
21
0.526307
0
LINE
8
BLACK
6
CONTINUOUS
10
0.370332
20
0.526307
11
0.368095
21
0.521917
0
LINE
8
BLACK
6
CONTINUOUS
10
0.368095
20
0.521917
11
0.364611
21
0.518433
0
LINE
8
BLACK
6
CONTINUOUS
10
0.364611
20
0.518433
11
0.360221
21
0.516196
0
LINE
8
BLACK
6
CONTINUOUS
10
0.360221
20
0.516196
11
0.355354
21
0.515425
0
LINE
8
BLACK
6
CONTINUOUS
10
0.355354
20
0.515425
11
0.339606
21
0.515425
0
LINE
8
BLACK
6
CONTINUOUS
10
0.339606
20
0.515425
11
0.33474
21
0.516196
0
LINE
8
BLACK
6
CONTINUOUS
10
0.33474
20
0.516196
11
0.33035
21
0.518433
0
LINE
8
BLACK
6
CONTINUOUS
10
0.33035
20
0.518433
11
0.326866
21
0.521917
0
LINE
8
BLACK
6
CONTINUOUS
10
0.326866
20
0.521917
11
0.324629
21
0.526307
0
LINE
8
BLACK
6
CONTINUOUS
10
0.324629
20
0.526307
11
0.323858
21
0.531173
0
LINE
8
BLACK
6
CONTINUOUS
10
0.323858
20
0.531173
11
0.323858
21
0.552827
0
LINE
8
BLACK
6
CONTINUOUS
10
0.323858
20
0.552827
11
0.324629
21
0.557693
0
LINE
8
BLACK
6
CONTINUOUS
10
0.324629
20
0.557693
11
0.326866
21
0.562083
0
LINE
8
BLACK
6
CONTINUOUS
10
0.326866
20
0.562083
11
0.33035
21
0.565567
0
LINE
8
BLACK
6
CONTINUOUS
10
0.33035
20
0.565567
11
0.33474
21
0.567804
0
LINE
8
BLACK
6
CONTINUOUS
10
0.33474
20
0.567804
11
0.339606
21
0.568575
0
LINE
8
BLACK
6
CONTINUOUS
10
0.339606
20
0.568575
11
0.355354
21
0.568575
0
LINE
8
BLACK
6
CONTINUOUS
10
0.355354
20
0.568575
11
0.360221
21
0.567804
0
LINE
8
BLACK
6
CONTINUOUS
10
0.660013
20
0.579772
11
0.664678
21
0.577395
0
LINE
8
BLACK
6
CONTINUOUS
10
0.664678
20
0.577395
11
0.668379
21
0.573693
0
LINE
8
BLACK
6
CONTINUOUS
10
0.668379
20
0.573693
11
0.670756
21
0.569029
0
LINE
8
BLACK
6
CONTINUOUS
10
0.670756
20
0.569029
11
0.671575
21
0.563858
0
LINE
8
BLACK
6
CONTINUOUS
10
0.671575
20
0.563858
11
0.671575
21
0.546142
0
LINE
8
BLACK
6
CONTINUOUS
10
0.671575
20
0.546142
11
0.670756
21
0.540971
0
LINE
8
BLACK
6
CONTINUOUS
10
0.670756
20
0.540971
11
0.668379
21
0.536307
0
LINE
8
BLACK
6
CONTINUOUS
10
0.668379
20
0.536307
11
0.664678
21
0.532605
0
LINE
8
BLACK
6
CONTINUOUS
10
0.664678
20
0.532605
11
0.660013
21
0.530228
0
LINE
8
BLACK
6
CONTINUOUS
10
0.660013
20
0.530228
11
0.654843
21
0.529409
0
LINE
8
BLACK
6
CONTINUOUS
10
0.654843
20
0.529409
11
0.635157
21
0.529409
0
LINE
8
BLACK
6
CONTINUOUS
10
0.635157
20
0.529409
11
0.629987
21
0.530228
0
LINE
8
BLACK
6
CONTINUOUS
10
0.629987
20
0.530228
11
0.625322
21
0.532605
0
LINE
8
BLACK
6
CONTINUOUS
10
0.625322
20
0.532605
11
0.621621
21
0.536307
0
LINE
8
BLACK
6
CONTINUOUS
10
0.621621
20
0.536307
11
0.619244
21
0.540971
0
LINE
8
BLACK
6
CONTINUOUS
10
0.619244
20
0.540971
11
0.618425
21
0.546142
0
LINE
8
BLACK
6
CONTINUOUS
10
0.618425
20
0.546142
11
0.618425
21
0.563858
0
LINE
8
BLACK
6
CONTINUOUS
10
0.618425
20
0.563858
11
0.619244
21
0.569029
0
LINE
8
BLACK
6
CONTINUOUS
10
0.619244
20
0.569029
11
0.621621
21
0.573693
0
LINE
8
BLACK
6
CONTINUOUS
10
0.621621
20
0.573693
11
0.625322
21
0.577395
0
LINE
8
BLACK
6
CONTINUOUS
10
0.625322
20
0.577395
11
0.629987
21
0.579772
0
LINE
8
BLACK
6
CONTINUOUS
10
0.629987
20
0.579772
11
0.635157
21
0.580591
0
LINE
8
BLACK
6
CONTINUOUS
10
0.635157
20
0.580591
11
0.654843
21
0.580591
0
LINE
8
BLACK
6
CONTINUOUS
10
0.654843
20
0.580591
11
0.660013
21
0.579772
0
LINE
8
BLACK
6
CONTINUOUS
10
0.234247
20
0.5949
11
0.238322
21
0.592907
0
LINE
8
BLACK
6
CONTINUOUS
10
0.238322
20
0.592907
11
0.241529
21
0.5897
0
LINE
8
BLACK
6
CONTINUOUS
10
0.241529
20
0.5897
11
0.243522
21
0.585625
0
LINE
8
BLACK
6
CONTINUOUS
10
0.243522
20
0.585625
11
0.244094
21
0.581693
0
LINE
8
BLACK
6
CONTINUOUS
10
0.244094
20
0.581693
11
0.244094
21
0.569882
0
LINE
8
BLACK
6
CONTINUOUS
10
0.244094
20
0.569882
11
0.243522
21
0.56595
0
LINE
8
BLACK
6
CONTINUOUS
10
0.243522
20
0.56595
11
0.241529
21
0.561875
0
LINE
8
BLACK
6
CONTINUOUS
10
0.241529
20
0.561875
11
0.238322
21
0.558667
0
LINE
8
BLACK
6
CONTINUOUS
10
0.238322
20
0.558667
11
0.234247
21
0.556675
0
LINE
8
BLACK
6
CONTINUOUS
10
0.234247
20
0.556675
11
0.230315
21
0.556102
0
LINE
8
BLACK
6
CONTINUOUS
10
0.230315
20
0.556102
11
0.175197
21
0.556102
0
LINE
8
BLACK
6
CONTINUOUS
10
0.175197
20
0.556102
11
0.171265
21
0.556675
0
LINE
8
BLACK
6
CONTINUOUS
10
0.171265
20
0.556675
11
0.16719
21
0.558667
0
LINE
8
BLACK
6
CONTINUOUS
10
0.16719
20
0.558667
11
0.163982
21
0.561875
0
LINE
8
BLACK
6
CONTINUOUS
10
0.163982
20
0.561875
11
0.16199
21
0.56595
0
LINE
8
BLACK
6
CONTINUOUS
10
0.16199
20
0.56595
11
0.161417
21
0.569882
0
LINE
8
BLACK
6
CONTINUOUS
10
0.161417
20
0.569882
11
0.161417
21
0.581693
0
LINE
8
BLACK
6
CONTINUOUS
10
0.161417
20
0.581693
11
0.16199
21
0.585625
0
LINE
8
BLACK
6
CONTINUOUS
10
0.16199
20
0.585625
11
0.163982
21
0.5897
0
LINE
8
BLACK
6
CONTINUOUS
10
0.163982
20
0.5897
11
0.16719
21
0.592907
0
LINE
8
BLACK
6
CONTINUOUS
10
0.16719
20
0.592907
11
0.171265
21
0.5949
0
LINE
8
BLACK
6
CONTINUOUS
10
0.171265
20
0.5949
11
0.175197
21
0.595472
0
LINE
8
BLACK
6
CONTINUOUS
10
0.175197
20
0.595472
11
0.230315
21
0.595472
0
LINE
8
BLACK
6
CONTINUOUS
10
0.230315
20
0.595472
11
0.234247
21
0.5949
0
LINE
8
BLACK
6
CONTINUOUS
10
0.812987
20
0.5949
11
0.817062
21
0.592907
0
LINE
8
BLACK
6
CONTINUOUS
10
0.817062
20
0.592907
11
0.82027
21
0.5897
0
LINE
8
BLACK
6
CONTINUOUS
10
0.82027
20
0.5897
11
0.822262
21
0.585625
0
LINE
8
BLACK
6
CONTINUOUS
10
0.822262
20
0.585625
11
0.822835
21
0.581693
0
LINE
8
BLACK
6
CONTINUOUS
10
0.822835
20
0.581693
11
0.822835
21
0.569882
0
LINE
8
BLACK
6
CONTINUOUS
10
0.822835
20
0.569882
11
0.822262
21
0.56595
0
LINE
8
BLACK
6
CONTINUOUS
10
0.822262
20
0.56595
11
0.82027
21
0.561875
0
LINE
8
BLACK
6
CONTINUOUS
10
0.82027
20
0.561875
11
0.817062
21
0.558667
0
LINE
8
BLACK
6
CONTINUOUS
10
0.817062
20
0.558667
11
0.812987
21
0.556675
0
LINE
8
BLACK
6
CONTINUOUS
10
0.812987
20
0.556675
11
0.809055
21
0.556102
0
LINE
8
BLACK
6
CONTINUOUS
10
0.809055
20
0.556102
11
0.753937
21
0.556102
0
LINE
8
BLACK
6
CONTINUOUS
10
0.753937
20
0.556102
11
0.750005
21
0.556675
0
LINE
8
BLACK
6
CONTINUOUS
10
0.750005
20
0.556675
11
0.74593
21
0.558667
0
LINE
8
BLACK
6
CONTINUOUS
10
0.74593
20
0.558667
11
0.742723
21
0.561875
0
LINE
8
BLACK
6
CONTINUOUS
10
0.742723
20
0.561875
11
0.74073
21
0.56595
0
LINE
8
BLACK
6
CONTINUOUS
10
0.74073
20
0.56595
11
0.740157
21
0.569882
0
LINE
8
BLACK
6
CONTINUOUS
10
0.740157
20
0.569882
11
0.740157
21
0.581693
0
LINE
8
BLACK
6
CONTINUOUS
10
0.740157
20
0.581693
11
0.74073
21
0.585625
0
LINE
8
BLACK
6
CONTINUOUS
10
0.74073
20
0.585625
11
0.742723
21
0.5897
0
LINE
8
BLACK
6
CONTINUOUS
10
0.742723
20
0.5897
11
0.74593
21
0.592907
0
LINE
8
BLACK
6
CONTINUOUS
10
0.74593
20
0.592907
11
0.750005
21
0.5949
0
LINE
8
BLACK
6
CONTINUOUS
10
0.750005
20
0.5949
11
0.753937
21
0.595472
0
LINE
8
BLACK
6
CONTINUOUS
10
0.753937
20
0.595472
11
0.809055
21
0.595472
0
LINE
8
BLACK
6
CONTINUOUS
10
0.809055
20
0.595472
11
0.812987
21
0.5949
0
LINE
8
BLACK
6
CONTINUOUS
10
0.340693
20
0.640851
11
0.345083
21
0.638614
0
LINE
8
BLACK
6
CONTINUOUS
10
0.345083
20
0.638614
11
0.348567
21
0.63513
0
LINE
8
BLACK
6
CONTINUOUS
10
0.348567
20
0.63513
11
0.350804
21
0.63074
0
LINE
8
BLACK
6
CONTINUOUS
10
0.350804
20
0.63074
11
0.351575
21
0.625874
0
LINE
8
BLACK
6
CONTINUOUS
10
0.351575
20
0.625874
11
0.351575
21
0.610126
0
LINE
8
BLACK
6
CONTINUOUS
10
0.351575
20
0.610126
11
0.350804
21
0.60526
0
LINE
8
BLACK
6
CONTINUOUS
10
0.350804
20
0.60526
11
0.348567
21
0.60087
0
LINE
8
BLACK
6
CONTINUOUS
10
0.348567
20
0.60087
11
0.345083
21
0.597386
0
LINE
8
BLACK
6
CONTINUOUS
10
0.345083
20
0.597386
11
0.340693
21
0.595149
0
LINE
8
BLACK
6
CONTINUOUS
10
0.340693
20
0.595149
11
0.335827
21
0.594378
0
LINE
8
BLACK
6
CONTINUOUS
10
0.335827
20
0.594378
11
0.314173
21
0.594378
0
LINE
8
BLACK
6
CONTINUOUS
10
0.314173
20
0.594378
11
0.309307
21
0.595149
0
LINE
8
BLACK
6
CONTINUOUS
10
0.309307
20
0.595149
11
0.304917
21
0.597386
0
LINE
8
BLACK
6
CONTINUOUS
10
0.304917
20
0.597386
11
0.301433
21
0.60087
0
LINE
8
BLACK
6
CONTINUOUS
10
0.301433
20
0.60087
11
0.299196
21
0.60526
0
LINE
8
BLACK
6
CONTINUOUS
10
0.299196
20
0.60526
11
0.298425
21
0.610126
0
LINE
8
BLACK
6
CONTINUOUS
10
0.298425
20
0.610126
11
0.298425
21
0.625874
0
LINE
8
BLACK
6
CONTINUOUS
10
0.298425
20
0.625874
11
0.299196
21
0.63074
0
LINE
8
BLACK
6
CONTINUOUS
10
0.299196
20
0.63074
11
0.301433
21
0.63513
0
LINE
8
BLACK
6
CONTINUOUS
10
0.301433
20
0.63513
11
0.304917
21
0.638614
0
LINE
8
BLACK
6
CONTINUOUS
10
0.304917
20
0.638614
11
0.309307
21
0.640851
0
LINE
8
BLACK
6
CONTINUOUS
10
0.309307
20
0.640851
11
0.314173
21
0.641622
0
LINE
8
BLACK
6
CONTINUOUS
10
0.314173
20
0.641622
11
0.335827
21
0.641622
0
LINE
8
BLACK
6
CONTINUOUS
10
0.335827
20
0.641622
11
0.340693
21
0.640851
0
LINE
8
BLACK
6
CONTINUOUS
10
0.675693
20
0.642371
11
0.680083
21
0.640134
0
LINE
8
BLACK
6
CONTINUOUS
10
0.680083
20
0.640134
11
0.683567
21
0.63665
0
LINE
8
BLACK
6
CONTINUOUS
10
0.683567
20
0.63665
11
0.685804
21
0.63226
0
LINE
8
BLACK
6
CONTINUOUS
10
0.685804
20
0.63226
11
0.686575
21
0.627394
0
LINE
8
BLACK
6
CONTINUOUS
10
0.686575
20
0.627394
11
0.686575
21
0.611646
0
LINE
8
BLACK
6
CONTINUOUS
10
0.686575
20
0.611646
11
0.685804
21
0.606779
0
LINE
8
BLACK
6
CONTINUOUS
10
0.685804
20
0.606779
11
0.683567
21
0.602389
0
LINE
8
BLACK
6
CONTINUOUS
10
0.683567
20
0.602389
11
0.680083
21
0.598905
0
LINE
8
BLACK
6
CONTINUOUS
10
0.680083
20
0.598905
11
0.675693
21
0.596668
0
LINE
8
BLACK
6
CONTINUOUS
10
0.675693
20
0.596668
11
0.670827
21
0.595898
0
LINE
8
BLACK
6
CONTINUOUS
10
0.670827
20
0.595898
11
0.649173
21
0.595898
0
LINE
8
BLACK
6
CONTINUOUS
10
0.649173
20
0.595898
11
0.644307
21
0.596668
0
LINE
8
BLACK
6
CONTINUOUS
10
0.644307
20
0.596668
11
0.639917
21
0.598905
0
LINE
8
BLACK
6
CONTINUOUS
10
0.639917
20
0.598905
11
0.636433
21
0.602389
0
LINE
8
BLACK
6
CONTINUOUS
10
0.636433
20
0.602389
11
0.634196
21
0.606779
0
LINE
8
BLACK
6
CONTINUOUS
10
0.634196
20
0.606779
11
0.633425
21
0.611646
0
LINE
8
BLACK
6
CONTINUOUS
10
0.633425
20
0.611646
11
0.633425
21
0.627394
0
LINE
8
BLACK
6
CONTINUOUS
10
0.633425
20
0.627394
11
0.634196
21
0.63226
0
LINE
8
BLACK
6
CONTINUOUS
10
0.634196
20
0.63226
11
0.636433
21
0.63665
0
LINE
8
BLACK
6
CONTINUOUS
10
0.636433
20
0.63665
11
0.639917
21
0.640134
0
LINE
8
BLACK
6
CONTINUOUS
10
0.639917
20
0.640134
11
0.644307
21
0.642371
0
LINE
8
BLACK
6
CONTINUOUS
10
0.644307
20
0.642371
11
0.649173
21
0.643142
0
LINE
8
BLACK
6
CONTINUOUS
10
0.649173
20
0.643142
11
0.670827
21
0.643142
0
LINE
8
BLACK
6
CONTINUOUS
10
0.670827
20
0.643142
11
0.675693
21
0.642371
0
LINE
8
BLACK
6
CONTINUOUS
10
0.234247
20
0.644112
11
0.238322
21
0.64212
0
LINE
8
BLACK
6
CONTINUOUS
10
0.238322
20
0.64212
11
0.241529
21
0.638912
0
LINE
8
BLACK
6
CONTINUOUS
10
0.241529
20
0.638912
11
0.243522
21
0.634837
0
LINE
8
BLACK
6
CONTINUOUS
10
0.243522
20
0.634837
11
0.244094
21
0.630906
0
LINE
8
BLACK
6
CONTINUOUS
10
0.244094
20
0.630906
11
0.244094
21
0.619094
0
LINE
8
BLACK
6
CONTINUOUS
10
0.244094
20
0.619094
11
0.243522
21
0.615163
0
LINE
8
BLACK
6
CONTINUOUS
10
0.243522
20
0.615163
11
0.241529
21
0.611088
0
LINE
8
BLACK
6
CONTINUOUS
10
0.241529
20
0.611088
11
0.238322
21
0.60788
0
LINE
8
BLACK
6
CONTINUOUS
10
0.238322
20
0.60788
11
0.234247
21
0.605888
0
LINE
8
BLACK
6
CONTINUOUS
10
0.234247
20
0.605888
11
0.230315
21
0.605315
0
LINE
8
BLACK
6
CONTINUOUS
10
0.230315
20
0.605315
11
0.175197
21
0.605315
0
LINE
8
BLACK
6
CONTINUOUS
10
0.175197
20
0.605315
11
0.171265
21
0.605888
0
LINE
8
BLACK
6
CONTINUOUS
10
0.171265
20
0.605888
11
0.16719
21
0.60788
0
LINE
8
BLACK
6
CONTINUOUS
10
0.16719
20
0.60788
11
0.163982
21
0.611088
0
LINE
8
BLACK
6
CONTINUOUS
10
0.163982
20
0.611088
11
0.16199
21
0.615163
0
LINE
8
BLACK
6
CONTINUOUS
10
0.16199
20
0.615163
11
0.161417
21
0.619094
0
LINE
8
BLACK
6
CONTINUOUS
10
0.161417
20
0.619094
11
0.161417
21
0.630906
0
LINE
8
BLACK
6
CONTINUOUS
10
0.161417
20
0.630906
11
0.16199
21
0.634837
0
LINE
8
BLACK
6
CONTINUOUS
10
0.16199
20
0.634837
11
0.163982
21
0.638912
0
LINE
8
BLACK
6
CONTINUOUS
10
0.163982
20
0.638912
11
0.16719
21
0.64212
0
LINE
8
BLACK
6
CONTINUOUS
10
0.16719
20
0.64212
11
0.171265
21
0.644112
0
LINE
8
BLACK
6
CONTINUOUS
10
0.171265
20
0.644112
11
0.175197
21
0.644685
0
LINE
8
BLACK
6
CONTINUOUS
10
0.175197
20
0.644685
11
0.230315
21
0.644685
0
LINE
8
BLACK
6
CONTINUOUS
10
0.230315
20
0.644685
11
0.234247
21
0.644112
0
LINE
8
BLACK
6
CONTINUOUS
10
0.812987
20
0.644112
11
0.817062
21
0.64212
0
LINE
8
BLACK
6
CONTINUOUS
10
0.817062
20
0.64212
11
0.82027
21
0.638912
0
LINE
8
BLACK
6
CONTINUOUS
10
0.82027
20
0.638912
11
0.822262
21
0.634837
0
LINE
8
BLACK
6
CONTINUOUS
10
0.822262
20
0.634837
11
0.822835
21
0.630906
0
LINE
8
BLACK
6
CONTINUOUS
10
0.822835
20
0.630906
11
0.822835
21
0.619094
0
LINE
8
BLACK
6
CONTINUOUS
10
0.822835
20
0.619094
11
0.822262
21
0.615163
0
LINE
8
BLACK
6
CONTINUOUS
10
0.822262
20
0.615163
11
0.82027
21
0.611088
0
LINE
8
BLACK
6
CONTINUOUS
10
0.82027
20
0.611088
11
0.817062
21
0.60788
0
LINE
8
BLACK
6
CONTINUOUS
10
0.817062
20
0.60788
11
0.812987
21
0.605888
0
LINE
8
BLACK
6
CONTINUOUS
10
0.812987
20
0.605888
11
0.809055
21
0.605315
0
LINE
8
BLACK
6
CONTINUOUS
10
0.809055
20
0.605315
11
0.753937
21
0.605315
0
LINE
8
BLACK
6
CONTINUOUS
10
0.753937
20
0.605315
11
0.750005
21
0.605888
0
LINE
8
BLACK
6
CONTINUOUS
10
0.750005
20
0.605888
11
0.74593
21
0.60788
0
LINE
8
BLACK
6
CONTINUOUS
10
0.74593
20
0.60788
11
0.742723
21
0.611088
0
LINE
8
BLACK
6
CONTINUOUS
10
0.742723
20
0.611088
11
0.74073
21
0.615163
0
LINE
8
BLACK
6
CONTINUOUS
10
0.74073
20
0.615163
11
0.740157
21
0.619094
0
LINE
8
BLACK
6
CONTINUOUS
10
0.740157
20
0.619094
11
0.740157
21
0.630906
0
LINE
8
BLACK
6
CONTINUOUS
10
0.740157
20
0.630906
11
0.74073
21
0.634837
0
LINE
8
BLACK
6
CONTINUOUS
10
0.74073
20
0.634837
11
0.742723
21
0.638912
0
LINE
8
BLACK
6
CONTINUOUS
10
0.742723
20
0.638912
11
0.74593
21
0.64212
0
LINE
8
BLACK
6
CONTINUOUS
10
0.74593
20
0.64212
11
0.750005
21
0.644112
0
LINE
8
BLACK
6
CONTINUOUS
10
0.750005
20
0.644112
11
0.753937
21
0.644685
0
LINE
8
BLACK
6
CONTINUOUS
10
0.753937
20
0.644685
11
0.809055
21
0.644685
0
LINE
8
BLACK
6
CONTINUOUS
10
0.809055
20
0.644685
11
0.812987
21
0.644112
0
LINE
8
BLACK
6
CONTINUOUS
10
0.234247
20
0.693325
11
0.238322
21
0.691333
0
LINE
8
BLACK
6
CONTINUOUS
10
0.238322
20
0.691333
11
0.241529
21
0.688125
0
LINE
8
BLACK
6
CONTINUOUS
10
0.241529
20
0.688125
11
0.243522
21
0.68405
0
LINE
8
BLACK
6
CONTINUOUS
10
0.243522
20
0.68405
11
0.244094
21
0.680118
0
LINE
8
BLACK
6
CONTINUOUS
10
0.244094
20
0.680118
11
0.244094
21
0.668307
0
LINE
8
BLACK
6
CONTINUOUS
10
0.244094
20
0.668307
11
0.243522
21
0.664375
0
LINE
8
BLACK
6
CONTINUOUS
10
0.243522
20
0.664375
11
0.241529
21
0.6603
0
LINE
8
BLACK
6
CONTINUOUS
10
0.241529
20
0.6603
11
0.238322
21
0.657093
0
LINE
8
BLACK
6
CONTINUOUS
10
0.238322
20
0.657093
11
0.234247
21
0.6551
0
LINE
8
BLACK
6
CONTINUOUS
10
0.234247
20
0.6551
11
0.230315
21
0.654528
0
LINE
8
BLACK
6
CONTINUOUS
10
0.230315
20
0.654528
11
0.175197
21
0.654528
0
LINE
8
BLACK
6
CONTINUOUS
10
0.175197
20
0.654528
11
0.171265
21
0.6551
0
LINE
8
BLACK
6
CONTINUOUS
10
0.171265
20
0.6551
11
0.16719
21
0.657093
0
LINE
8
BLACK
6
CONTINUOUS
10
0.16719
20
0.657093
11
0.163982
21
0.6603
0
LINE
8
BLACK
6
CONTINUOUS
10
0.163982
20
0.6603
11
0.16199
21
0.664375
0
LINE
8
BLACK
6
CONTINUOUS
10
0.16199
20
0.664375
11
0.161417
21
0.668307
0
LINE
8
BLACK
6
CONTINUOUS
10
0.161417
20
0.668307
11
0.161417
21
0.680118
0
LINE
8
BLACK
6
CONTINUOUS
10
0.161417
20
0.680118
11
0.16199
21
0.68405
0
LINE
8
BLACK
6
CONTINUOUS
10
0.16199
20
0.68405
11
0.163982
21
0.688125
0
LINE
8
BLACK
6
CONTINUOUS
10
0.163982
20
0.688125
11
0.16719
21
0.691333
0
LINE
8
BLACK
6
CONTINUOUS
10
0.16719
20
0.691333
11
0.171265
21
0.693325
0
LINE
8
BLACK
6
CONTINUOUS
10
0.171265
20
0.693325
11
0.175197
21
0.693898
0
LINE
8
BLACK
6
CONTINUOUS
10
0.175197
20
0.693898
11
0.230315
21
0.693898
0
LINE
8
BLACK
6
CONTINUOUS
10
0.230315
20
0.693898
11
0.234247
21
0.693325
0
LINE
8
BLACK
6
CONTINUOUS
10
0.812987
20
0.693325
11
0.817062
21
0.691333
0
LINE
8
BLACK
6
CONTINUOUS
10
0.817062
20
0.691333
11
0.82027
21
0.688125
0
LINE
8
BLACK
6
CONTINUOUS
10
0.82027
20
0.688125
11
0.822262
21
0.68405
0
LINE
8
BLACK
6
CONTINUOUS
10
0.822262
20
0.68405
11
0.822835
21
0.680118
0
LINE
8
BLACK
6
CONTINUOUS
10
0.822835
20
0.680118
11
0.822835
21
0.668307
0
LINE
8
BLACK
6
CONTINUOUS
10
0.822835
20
0.668307
11
0.822262
21
0.664375
0
LINE
8
BLACK
6
CONTINUOUS
10
0.822262
20
0.664375
11
0.82027
21
0.6603
0
LINE
8
BLACK
6
CONTINUOUS
10
0.82027
20
0.6603
11
0.817062
21
0.657093
0
LINE
8
BLACK
6
CONTINUOUS
10
0.817062
20
0.657093
11
0.812987
21
0.6551
0
LINE
8
BLACK
6
CONTINUOUS
10
0.812987
20
0.6551
11
0.809055
21
0.654528
0
LINE
8
BLACK
6
CONTINUOUS
10
0.809055
20
0.654528
11
0.753937
21
0.654528
0
LINE
8
BLACK
6
CONTINUOUS
10
0.753937
20
0.654528
11
0.750005
21
0.6551
0
LINE
8
BLACK
6
CONTINUOUS
10
0.750005
20
0.6551
11
0.74593
21
0.657093
0
LINE
8
BLACK
6
CONTINUOUS
10
0.74593
20
0.657093
11
0.742723
21
0.6603
0
LINE
8
BLACK
6
CONTINUOUS
10
0.742723
20
0.6603
11
0.74073
21
0.664375
0
LINE
8
BLACK
6
CONTINUOUS
10
0.74073
20
0.664375
11
0.740157
21
0.668307
0
LINE
8
BLACK
6
CONTINUOUS
10
0.740157
20
0.668307
11
0.740157
21
0.680118
0
LINE
8
BLACK
6
CONTINUOUS
10
0.740157
20
0.680118
11
0.74073
21
0.68405
0
LINE
8
BLACK
6
CONTINUOUS
10
0.74073
20
0.68405
11
0.742723
21
0.688125
0
LINE
8
BLACK
6
CONTINUOUS
10
0.742723
20
0.688125
11
0.74593
21
0.691333
0
LINE
8
BLACK
6
CONTINUOUS
10
0.74593
20
0.691333
11
0.750005
21
0.693325
0
LINE
8
BLACK
6
CONTINUOUS
10
0.750005
20
0.693325
11
0.753937
21
0.693898
0
LINE
8
BLACK
6
CONTINUOUS
10
0.753937
20
0.693898
11
0.809055
21
0.693898
0
LINE
8
BLACK
6
CONTINUOUS
10
0.809055
20
0.693898
11
0.812987
21
0.693325
0
LINE
8
BLACK
6
CONTINUOUS
10
0.340693
20
0.705812
11
0.345083
21
0.703575
0
LINE
8
BLACK
6
CONTINUOUS
10
0.345083
20
0.703575
11
0.348567
21
0.700091
0
LINE
8
BLACK
6
CONTINUOUS
10
0.348567
20
0.700091
11
0.350804
21
0.695701
0
LINE
8
BLACK
6
CONTINUOUS
10
0.350804
20
0.695701
11
0.351575
21
0.690835
0
LINE
8
BLACK
6
CONTINUOUS
10
0.351575
20
0.690835
11
0.351575
21
0.675087
0
LINE
8
BLACK
6
CONTINUOUS
10
0.351575
20
0.675087
11
0.350804
21
0.67022
0
LINE
8
BLACK
6
CONTINUOUS
10
0.350804
20
0.67022
11
0.348567
21
0.66583
0
LINE
8
BLACK
6
CONTINUOUS
10
0.348567
20
0.66583
11
0.345083
21
0.662346
0
LINE
8
BLACK
6
CONTINUOUS
10
0.345083
20
0.662346
11
0.340693
21
0.660109
0
LINE
8
BLACK
6
CONTINUOUS
10
0.340693
20
0.660109
11
0.335827
21
0.659339
0
LINE
8
BLACK
6
CONTINUOUS
10
0.335827
20
0.659339
11
0.314173
21
0.659339
0
LINE
8
BLACK
6
CONTINUOUS
10
0.314173
20
0.659339
11
0.309307
21
0.660109
0
LINE
8
BLACK
6
CONTINUOUS
10
0.309307
20
0.660109
11
0.304917
21
0.662346
0
LINE
8
BLACK
6
CONTINUOUS
10
0.304917
20
0.662346
11
0.301433
21
0.66583
0
LINE
8
BLACK
6
CONTINUOUS
10
0.301433
20
0.66583
11
0.299196
21
0.67022
0
LINE
8
BLACK
6
CONTINUOUS
10
0.299196
20
0.67022
11
0.298425
21
0.675087
0
LINE
8
BLACK
6
CONTINUOUS
10
0.298425
20
0.675087
11
0.298425
21
0.690835
0
LINE
8
BLACK
6
CONTINUOUS
10
0.298425
20
0.690835
11
0.299196
21
0.695701
0
LINE
8
BLACK
6
CONTINUOUS
10
0.299196
20
0.695701
11
0.301433
21
0.700091
0
LINE
8
BLACK
6
CONTINUOUS
10
0.301433
20
0.700091
11
0.304917
21
0.703575
0
LINE
8
BLACK
6
CONTINUOUS
10
0.304917
20
0.703575
11
0.309307
21
0.705812
0
LINE
8
BLACK
6
CONTINUOUS
10
0.309307
20
0.705812
11
0.314173
21
0.706583
0
LINE
8
BLACK
6
CONTINUOUS
10
0.314173
20
0.706583
11
0.335827
21
0.706583
0
LINE
8
BLACK
6
CONTINUOUS
10
0.335827
20
0.706583
11
0.340693
21
0.705812
0
LINE
8
BLACK
6
CONTINUOUS
10
0.675693
20
0.707332
11
0.680083
21
0.705095
0
LINE
8
BLACK
6
CONTINUOUS
10
0.680083
20
0.705095
11
0.683567
21
0.701611
0
LINE
8
BLACK
6
CONTINUOUS
10
0.683567
20
0.701611
11
0.685804
21
0.697221
0
LINE
8
BLACK
6
CONTINUOUS
10
0.685804
20
0.697221
11
0.686575
21
0.692354
0
LINE
8
BLACK
6
CONTINUOUS
10
0.686575
20
0.692354
11
0.686575
21
0.676606
0
LINE
8
BLACK
6
CONTINUOUS
10
0.686575
20
0.676606
11
0.685804
21
0.67174
0
LINE
8
BLACK
6
CONTINUOUS
10
0.685804
20
0.67174
11
0.683567
21
0.66735
0
LINE
8
BLACK
6
CONTINUOUS
10
0.683567
20
0.66735
11
0.680083
21
0.663866
0
LINE
8
BLACK
6
CONTINUOUS
10
0.680083
20
0.663866
11
0.675693
21
0.661629
0
LINE
8
BLACK
6
CONTINUOUS
10
0.675693
20
0.661629
11
0.670827
21
0.660858
0
LINE
8
BLACK
6
CONTINUOUS
10
0.670827
20
0.660858
11
0.649173
21
0.660858
0
LINE
8
BLACK
6
CONTINUOUS
10
0.649173
20
0.660858
11
0.644307
21
0.661629
0
LINE
8
BLACK
6
CONTINUOUS
10
0.644307
20
0.661629
11
0.639917
21
0.663866
0
LINE
8
BLACK
6
CONTINUOUS
10
0.639917
20
0.663866
11
0.636433
21
0.66735
0
LINE
8
BLACK
6
CONTINUOUS
10
0.636433
20
0.66735
11
0.634196
21
0.67174
0
LINE
8
BLACK
6
CONTINUOUS
10
0.634196
20
0.67174
11
0.633425
21
0.676606
0
LINE
8
BLACK
6
CONTINUOUS
10
0.633425
20
0.676606
11
0.633425
21
0.692354
0
LINE
8
BLACK
6
CONTINUOUS
10
0.633425
20
0.692354
11
0.634196
21
0.697221
0
LINE
8
BLACK
6
CONTINUOUS
10
0.634196
20
0.697221
11
0.636433
21
0.701611
0
LINE
8
BLACK
6
CONTINUOUS
10
0.636433
20
0.701611
11
0.639917
21
0.705095
0
LINE
8
BLACK
6
CONTINUOUS
10
0.639917
20
0.705095
11
0.644307
21
0.707332
0
LINE
8
BLACK
6
CONTINUOUS
10
0.644307
20
0.707332
11
0.649173
21
0.708102
0
LINE
8
BLACK
6
CONTINUOUS
10
0.649173
20
0.708102
11
0.670827
21
0.708102
0
LINE
8
BLACK
6
CONTINUOUS
10
0.670827
20
0.708102
11
0.675693
21
0.707332
0
LINE
8
BLACK
6
CONTINUOUS
10
0.405457
20
0.730804
11
0.409847
21
0.728567
0
LINE
8
BLACK
6
CONTINUOUS
10
0.409847
20
0.728567
11
0.413331
21
0.725083
0
LINE
8
BLACK
6
CONTINUOUS
10
0.413331
20
0.725083
11
0.415568
21
0.720693
0
LINE
8
BLACK
6
CONTINUOUS
10
0.415568
20
0.720693
11
0.416339
21
0.715827
0
LINE
8
BLACK
6
CONTINUOUS
10
0.416339
20
0.715827
11
0.416339
21
0.694173
0
LINE
8
BLACK
6
CONTINUOUS
10
0.416339
20
0.694173
11
0.415568
21
0.689307
0
LINE
8
BLACK
6
CONTINUOUS
10
0.415568
20
0.689307
11
0.413331
21
0.684917
0
LINE
8
BLACK
6
CONTINUOUS
10
0.413331
20
0.684917
11
0.409847
21
0.681433
0
LINE
8
BLACK
6
CONTINUOUS
10
0.409847
20
0.681433
11
0.405457
21
0.679196
0
LINE
8
BLACK
6
CONTINUOUS
10
0.405457
20
0.679196
11
0.400591
21
0.678425
0
LINE
8
BLACK
6
CONTINUOUS
10
0.400591
20
0.678425
11
0.384843
21
0.678425
0
LINE
8
BLACK
6
CONTINUOUS
10
0.384843
20
0.678425
11
0.379976
21
0.679196
0
LINE
8
BLACK
6
CONTINUOUS
10
0.379976
20
0.679196
11
0.375586
21
0.681433
0
LINE
8
BLACK
6
CONTINUOUS
10
0.375586
20
0.681433
11
0.372102
21
0.684917
0
LINE
8
BLACK
6
CONTINUOUS
10
0.372102
20
0.684917
11
0.369865
21
0.689307
0
LINE
8
BLACK
6
CONTINUOUS
10
0.369865
20
0.689307
11
0.369094
21
0.694173
0
LINE
8
BLACK
6
CONTINUOUS
10
0.369094
20
0.694173
11
0.369094
21
0.715827
0
LINE
8
BLACK
6
CONTINUOUS
10
0.369094
20
0.715827
11
0.369865
21
0.720693
0
LINE
8
BLACK
6
CONTINUOUS
10
0.369865
20
0.720693
11
0.372102
21
0.725083
0
LINE
8
BLACK
6
CONTINUOUS
10
0.372102
20
0.725083
11
0.375586
21
0.728567
0
LINE
8
BLACK
6
CONTINUOUS
10
0.375586
20
0.728567
11
0.379976
21
0.730804
0
LINE
8
BLACK
6
CONTINUOUS
10
0.379976
20
0.730804
11
0.384843
21
0.731575
0
LINE
8
BLACK
6
CONTINUOUS
10
0.384843
20
0.731575
11
0.400591
21
0.731575
0
LINE
8
BLACK
6
CONTINUOUS
10
0.400591
20
0.731575
11
0.405457
21
0.730804
0
LINE
8
BLACK
6
CONTINUOUS
10
0.470418
20
0.730804
11
0.474808
21
0.728567
0
LINE
8
BLACK
6
CONTINUOUS
10
0.474808
20
0.728567
11
0.478292
21
0.725083
0
LINE
8
BLACK
6
CONTINUOUS
10
0.478292
20
0.725083
11
0.480528
21
0.720693
0
LINE
8
BLACK
6
CONTINUOUS
10
0.480528
20
0.720693
11
0.481299
21
0.715827
0
LINE
8
BLACK
6
CONTINUOUS
10
0.481299
20
0.715827
11
0.481299
21
0.694173
0
LINE
8
BLACK
6
CONTINUOUS
10
0.481299
20
0.694173
11
0.480528
21
0.689307
0
LINE
8
BLACK
6
CONTINUOUS
10
0.480528
20
0.689307
11
0.478292
21
0.684917
0
LINE
8
BLACK
6
CONTINUOUS
10
0.478292
20
0.684917
11
0.474808
21
0.681433
0
LINE
8
BLACK
6
CONTINUOUS
10
0.474808
20
0.681433
11
0.470418
21
0.679196
0
LINE
8
BLACK
6
CONTINUOUS
10
0.470418
20
0.679196
11
0.465551
21
0.678425
0
LINE
8
BLACK
6
CONTINUOUS
10
0.465551
20
0.678425
11
0.449803
21
0.678425
0
LINE
8
BLACK
6
CONTINUOUS
10
0.449803
20
0.678425
11
0.444937
21
0.679196
0
LINE
8
BLACK
6
CONTINUOUS
10
0.444937
20
0.679196
11
0.440547
21
0.681433
0
LINE
8
BLACK
6
CONTINUOUS
10
0.440547
20
0.681433
11
0.437063
21
0.684917
0
LINE
8
BLACK
6
CONTINUOUS
10
0.437063
20
0.684917
11
0.434826
21
0.689307
0
LINE
8
BLACK
6
CONTINUOUS
10
0.434826
20
0.689307
11
0.434055
21
0.694173
0
LINE
8
BLACK
6
CONTINUOUS
10
0.434055
20
0.694173
11
0.434055
21
0.715827
0
LINE
8
BLACK
6
CONTINUOUS
10
0.434055
20
0.715827
11
0.434826
21
0.720693
0
LINE
8
BLACK
6
CONTINUOUS
10
0.434826
20
0.720693
11
0.437063
21
0.725083
0
LINE
8
BLACK
6
CONTINUOUS
10
0.437063
20
0.725083
11
0.440547
21
0.728567
0
LINE
8
BLACK
6
CONTINUOUS
10
0.440547
20
0.728567
11
0.444937
21
0.730804
0
LINE
8
BLACK
6
CONTINUOUS
10
0.444937
20
0.730804
11
0.449803
21
0.731575
0
LINE
8
BLACK
6
CONTINUOUS
10
0.449803
20
0.731575
11
0.465551
21
0.731575
0
LINE
8
BLACK
6
CONTINUOUS
10
0.465551
20
0.731575
11
0.470418
21
0.730804
0
LINE
8
BLACK
6
CONTINUOUS
10
0.539315
20
0.730804
11
0.543705
21
0.728567
0
LINE
8
BLACK
6
CONTINUOUS
10
0.543705
20
0.728567
11
0.547189
21
0.725083
0
LINE
8
BLACK
6
CONTINUOUS
10
0.547189
20
0.725083
11
0.549426
21
0.720693
0
LINE
8
BLACK
6
CONTINUOUS
10
0.549426
20
0.720693
11
0.550197
21
0.715827
0
LINE
8
BLACK
6
CONTINUOUS
10
0.550197
20
0.715827
11
0.550197
21
0.694173
0
LINE
8
BLACK
6
CONTINUOUS
10
0.550197
20
0.694173
11
0.549426
21
0.689307
0
LINE
8
BLACK
6
CONTINUOUS
10
0.549426
20
0.689307
11
0.547189
21
0.684917
0
LINE
8
BLACK
6
CONTINUOUS
10
0.547189
20
0.684917
11
0.543705
21
0.681433
0
LINE
8
BLACK
6
CONTINUOUS
10
0.543705
20
0.681433
11
0.539315
21
0.679196
0
LINE
8
BLACK
6
CONTINUOUS
10
0.539315
20
0.679196
11
0.534449
21
0.678425
0
LINE
8
BLACK
6
CONTINUOUS
10
0.534449
20
0.678425
11
0.518701
21
0.678425
0
LINE
8
BLACK
6
CONTINUOUS
10
0.518701
20
0.678425
11
0.513834
21
0.679196
0
LINE
8
BLACK
6
CONTINUOUS
10
0.513834
20
0.679196
11
0.509444
21
0.681433
0
LINE
8
BLACK
6
CONTINUOUS
10
0.509444
20
0.681433
11
0.50596
21
0.684917
0
LINE
8
BLACK
6
CONTINUOUS
10
0.50596
20
0.684917
11
0.503724
21
0.689307
0
LINE
8
BLACK
6
CONTINUOUS
10
0.503724
20
0.689307
11
0.502953
21
0.694173
0
LINE
8
BLACK
6
CONTINUOUS
10
0.502953
20
0.694173
11
0.502953
21
0.715827
0
LINE
8
BLACK
6
CONTINUOUS
10
0.502953
20
0.715827
11
0.503724
21
0.720693
0
LINE
8
BLACK
6
CONTINUOUS
10
0.503724
20
0.720693
11
0.50596
21
0.725083
0
LINE
8
BLACK
6
CONTINUOUS
10
0.50596
20
0.725083
11
0.509444
21
0.728567
0
LINE
8
BLACK
6
CONTINUOUS
10
0.509444
20
0.728567
11
0.513834
21
0.730804
0
LINE
8
BLACK
6
CONTINUOUS
10
0.513834
20
0.730804
11
0.518701
21
0.731575
0
LINE
8
BLACK
6
CONTINUOUS
10
0.518701
20
0.731575
11
0.534449
21
0.731575
0
LINE
8
BLACK
6
CONTINUOUS
10
0.534449
20
0.731575
11
0.539315
21
0.730804
0
LINE
8
BLACK
6
CONTINUOUS
10
0.604276
20
0.730804
11
0.608666
21
0.728567
0
LINE
8
BLACK
6
CONTINUOUS
10
0.608666
20
0.728567
11
0.61215
21
0.725083
0
LINE
8
BLACK
6
CONTINUOUS
10
0.61215
20
0.725083
11
0.614387
21
0.720693
0
LINE
8
BLACK
6
CONTINUOUS
10
0.614387
20
0.720693
11
0.615157
21
0.715827
0
LINE
8
BLACK
6
CONTINUOUS
10
0.615157
20
0.715827
11
0.615157
21
0.694173
0
LINE
8
BLACK
6
CONTINUOUS
10
0.615157
20
0.694173
11
0.614387
21
0.689307
0
LINE
8
BLACK
6
CONTINUOUS
10
0.614387
20
0.689307
11
0.61215
21
0.684917
0
LINE
8
BLACK
6
CONTINUOUS
10
0.61215
20
0.684917
11
0.608666
21
0.681433
0
LINE
8
BLACK
6
CONTINUOUS
10
0.608666
20
0.681433
11
0.604276
21
0.679196
0
LINE
8
BLACK
6
CONTINUOUS
10
0.604276
20
0.679196
11
0.599409
21
0.678425
0
LINE
8
BLACK
6
CONTINUOUS
10
0.599409
20
0.678425
11
0.583661
21
0.678425
0
LINE
8
BLACK
6
CONTINUOUS
10
0.583661
20
0.678425
11
0.578795
21
0.679196
0
LINE
8
BLACK
6
CONTINUOUS
10
0.578795
20
0.679196
11
0.574405
21
0.681433
0
LINE
8
BLACK
6
CONTINUOUS
10
0.574405
20
0.681433
11
0.570921
21
0.684917
0
LINE
8
BLACK
6
CONTINUOUS
10
0.570921
20
0.684917
11
0.568684
21
0.689307
0
LINE
8
BLACK
6
CONTINUOUS
10
0.568684
20
0.689307
11
0.567913
21
0.694173
0
LINE
8
BLACK
6
CONTINUOUS
10
0.567913
20
0.694173
11
0.567913
21
0.715827
0
LINE
8
BLACK
6
CONTINUOUS
10
0.567913
20
0.715827
11
0.568684
21
0.720693
0
LINE
8
BLACK
6
CONTINUOUS
10
0.568684
20
0.720693
11
0.570921
21
0.725083
0
LINE
8
BLACK
6
CONTINUOUS
10
0.570921
20
0.725083
11
0.574405
21
0.728567
0
LINE
8
BLACK
6
CONTINUOUS
10
0.574405
20
0.728567
11
0.578795
21
0.730804
0
LINE
8
BLACK
6
CONTINUOUS
10
0.578795
20
0.730804
11
0.583661
21
0.731575
0
LINE
8
BLACK
6
CONTINUOUS
10
0.583661
20
0.731575
11
0.599409
21
0.731575
0
LINE
8
BLACK
6
CONTINUOUS
10
0.599409
20
0.731575
11
0.604276
21
0.730804
0
LINE
8
BLACK
6
CONTINUOUS
10
0.234247
20
0.742537
11
0.238322
21
0.740545
0
LINE
8
BLACK
6
CONTINUOUS
10
0.238322
20
0.740545
11
0.241529
21
0.737338
0
LINE
8
BLACK
6
CONTINUOUS
10
0.241529
20
0.737338
11
0.243522
21
0.733263
0
LINE
8
BLACK
6
CONTINUOUS
10
0.243522
20
0.733263
11
0.244094
21
0.729331
0
LINE
8
BLACK
6
CONTINUOUS
10
0.244094
20
0.729331
11
0.244094
21
0.71752
0
LINE
8
BLACK
6
CONTINUOUS
10
0.244094
20
0.71752
11
0.243522
21
0.713588
0
LINE
8
BLACK
6
CONTINUOUS
10
0.243522
20
0.713588
11
0.241529
21
0.709513
0
LINE
8
BLACK
6
CONTINUOUS
10
0.241529
20
0.709513
11
0.238322
21
0.706305
0
LINE
8
BLACK
6
CONTINUOUS
10
0.238322
20
0.706305
11
0.234247
21
0.704313
0
LINE
8
BLACK
6
CONTINUOUS
10
0.234247
20
0.704313
11
0.230315
21
0.70374
0
LINE
8
BLACK
6
CONTINUOUS
10
0.230315
20
0.70374
11
0.175197
21
0.70374
0
LINE
8
BLACK
6
CONTINUOUS
10
0.175197
20
0.70374
11
0.171265
21
0.704313
0
LINE
8
BLACK
6
CONTINUOUS
10
0.171265
20
0.704313
11
0.16719
21
0.706305
0
LINE
8
BLACK
6
CONTINUOUS
10
0.16719
20
0.706305
11
0.163982
21
0.709513
0
LINE
8
BLACK
6
CONTINUOUS
10
0.163982
20
0.709513
11
0.16199
21
0.713588
0
LINE
8
BLACK
6
CONTINUOUS
10
0.16199
20
0.713588
11
0.161417
21
0.71752
0
LINE
8
BLACK
6
CONTINUOUS
10
0.161417
20
0.71752
11
0.161417
21
0.729331
0
LINE
8
BLACK
6
CONTINUOUS
10
0.161417
20
0.729331
11
0.16199
21
0.733263
0
LINE
8
BLACK
6
CONTINUOUS
10
0.16199
20
0.733263
11
0.163982
21
0.737338
0
LINE
8
BLACK
6
CONTINUOUS
10
0.163982
20
0.737338
11
0.16719
21
0.740545
0
LINE
8
BLACK
6
CONTINUOUS
10
0.16719
20
0.740545
11
0.171265
21
0.742537
0
LINE
8
BLACK
6
CONTINUOUS
10
0.171265
20
0.742537
11
0.175197
21
0.74311
0
LINE
8
BLACK
6
CONTINUOUS
10
0.175197
20
0.74311
11
0.230315
21
0.74311
0
LINE
8
BLACK
6
CONTINUOUS
10
0.230315
20
0.74311
11
0.234247
21
0.742537
0
LINE
8
BLACK
6
CONTINUOUS
10
0.812987
20
0.742537
11
0.817062
21
0.740545
0
LINE
8
BLACK
6
CONTINUOUS
10
0.817062
20
0.740545
11
0.82027
21
0.737338
0
LINE
8
BLACK
6
CONTINUOUS
10
0.82027
20
0.737338
11
0.822262
21
0.733263
0
LINE
8
BLACK
6
CONTINUOUS
10
0.822262
20
0.733263
11
0.822835
21
0.729331
0
LINE
8
BLACK
6
CONTINUOUS
10
0.822835
20
0.729331
11
0.822835
21
0.71752
0
LINE
8
BLACK
6
CONTINUOUS
10
0.822835
20
0.71752
11
0.822262
21
0.713588
0
LINE
8
BLACK
6
CONTINUOUS
10
0.822262
20
0.713588
11
0.82027
21
0.709513
0
LINE
8
BLACK
6
CONTINUOUS
10
0.82027
20
0.709513
11
0.817062
21
0.706305
0
LINE
8
BLACK
6
CONTINUOUS
10
0.817062
20
0.706305
11
0.812987
21
0.704313
0
LINE
8
BLACK
6
CONTINUOUS
10
0.812987
20
0.704313
11
0.809055
21
0.70374
0
LINE
8
BLACK
6
CONTINUOUS
10
0.809055
20
0.70374
11
0.753937
21
0.70374
0
LINE
8
BLACK
6
CONTINUOUS
10
0.753937
20
0.70374
11
0.750005
21
0.704313
0
LINE
8
BLACK
6
CONTINUOUS
10
0.750005
20
0.704313
11
0.74593
21
0.706305
0
LINE
8
BLACK
6
CONTINUOUS
10
0.74593
20
0.706305
11
0.742723
21
0.709513
0
LINE
8
BLACK
6
CONTINUOUS
10
0.742723
20
0.709513
11
0.74073
21
0.713588
0
LINE
8
BLACK
6
CONTINUOUS
10
0.74073
20
0.713588
11
0.740157
21
0.71752
0
LINE
8
BLACK
6
CONTINUOUS
10
0.740157
20
0.71752
11
0.740157
21
0.729331
0
LINE
8
BLACK
6
CONTINUOUS
10
0.740157
20
0.729331
11
0.74073
21
0.733263
0
LINE
8
BLACK
6
CONTINUOUS
10
0.74073
20
0.733263
11
0.742723
21
0.737338
0
LINE
8
BLACK
6
CONTINUOUS
10
0.742723
20
0.737338
11
0.74593
21
0.740545
0
LINE
8
BLACK
6
CONTINUOUS
10
0.74593
20
0.740545
11
0.750005
21
0.742537
0
LINE
8
BLACK
6
CONTINUOUS
10
0.750005
20
0.742537
11
0.753937
21
0.74311
0
LINE
8
BLACK
6
CONTINUOUS
10
0.753937
20
0.74311
11
0.809055
21
0.74311
0
LINE
8
BLACK
6
CONTINUOUS
10
0.809055
20
0.74311
11
0.812987
21
0.742537
0
LINE
8
BLACK
6
CONTINUOUS
10
0.675693
20
0.766371
11
0.680083
21
0.764134
0
LINE
8
BLACK
6
CONTINUOUS
10
0.680083
20
0.764134
11
0.683567
21
0.76065
0
LINE
8
BLACK
6
CONTINUOUS
10
0.683567
20
0.76065
11
0.685804
21
0.75626
0
LINE
8
BLACK
6
CONTINUOUS
10
0.685804
20
0.75626
11
0.686575
21
0.751394
0
LINE
8
BLACK
6
CONTINUOUS
10
0.686575
20
0.751394
11
0.686575
21
0.735646
0
LINE
8
BLACK
6
CONTINUOUS
10
0.686575
20
0.735646
11
0.685804
21
0.730779
0
LINE
8
BLACK
6
CONTINUOUS
10
0.685804
20
0.730779
11
0.683567
21
0.726389
0
LINE
8
BLACK
6
CONTINUOUS
10
0.683567
20
0.726389
11
0.680083
21
0.722905
0
LINE
8
BLACK
6
CONTINUOUS
10
0.680083
20
0.722905
11
0.675693
21
0.720668
0
LINE
8
BLACK
6
CONTINUOUS
10
0.675693
20
0.720668
11
0.670827
21
0.719898
0
LINE
8
BLACK
6
CONTINUOUS
10
0.670827
20
0.719898
11
0.649173
21
0.719898
0
LINE
8
BLACK
6
CONTINUOUS
10
0.649173
20
0.719898
11
0.644307
21
0.720668
0
LINE
8
BLACK
6
CONTINUOUS
10
0.644307
20
0.720668
11
0.639917
21
0.722905
0
LINE
8
BLACK
6
CONTINUOUS
10
0.639917
20
0.722905
11
0.636433
21
0.726389
0
LINE
8
BLACK
6
CONTINUOUS
10
0.636433
20
0.726389
11
0.634196
21
0.730779
0
LINE
8
BLACK
6
CONTINUOUS
10
0.634196
20
0.730779
11
0.633425
21
0.735646
0
LINE
8
BLACK
6
CONTINUOUS
10
0.633425
20
0.735646
11
0.633425
21
0.751394
0
LINE
8
BLACK
6
CONTINUOUS
10
0.633425
20
0.751394
11
0.634196
21
0.75626
0
LINE
8
BLACK
6
CONTINUOUS
10
0.634196
20
0.75626
11
0.636433
21
0.76065
0
LINE
8
BLACK
6
CONTINUOUS
10
0.636433
20
0.76065
11
0.639917
21
0.764134
0
LINE
8
BLACK
6
CONTINUOUS
10
0.639917
20
0.764134
11
0.644307
21
0.766371
0
LINE
8
BLACK
6
CONTINUOUS
10
0.644307
20
0.766371
11
0.649173
21
0.767142
0
LINE
8
BLACK
6
CONTINUOUS
10
0.649173
20
0.767142
11
0.670827
21
0.767142
0
LINE
8
BLACK
6
CONTINUOUS
10
0.670827
20
0.767142
11
0.675693
21
0.766371
0
LINE
8
BLACK
6
CONTINUOUS
10
0.340693
20
0.766851
11
0.345083
21
0.764614
0
LINE
8
BLACK
6
CONTINUOUS
10
0.345083
20
0.764614
11
0.348567
21
0.76113
0
LINE
8
BLACK
6
CONTINUOUS
10
0.348567
20
0.76113
11
0.350804
21
0.75674
0
LINE
8
BLACK
6
CONTINUOUS
10
0.350804
20
0.75674
11
0.351575
21
0.751874
0
LINE
8
BLACK
6
CONTINUOUS
10
0.351575
20
0.751874
11
0.351575
21
0.736126
0
LINE
8
BLACK
6
CONTINUOUS
10
0.351575
20
0.736126
11
0.350804
21
0.73126
0
LINE
8
BLACK
6
CONTINUOUS
10
0.350804
20
0.73126
11
0.348567
21
0.72687
0
LINE
8
BLACK
6
CONTINUOUS
10
0.348567
20
0.72687
11
0.345083
21
0.723386
0
LINE
8
BLACK
6
CONTINUOUS
10
0.345083
20
0.723386
11
0.340693
21
0.721149
0
LINE
8
BLACK
6
CONTINUOUS
10
0.340693
20
0.721149
11
0.335827
21
0.720378
0
LINE
8
BLACK
6
CONTINUOUS
10
0.335827
20
0.720378
11
0.314173
21
0.720378
0
LINE
8
BLACK
6
CONTINUOUS
10
0.314173
20
0.720378
11
0.309307
21
0.721149
0
LINE
8
BLACK
6
CONTINUOUS
10
0.309307
20
0.721149
11
0.304917
21
0.723386
0
LINE
8
BLACK
6
CONTINUOUS
10
0.304917
20
0.723386
11
0.301433
21
0.72687
0
LINE
8
BLACK
6
CONTINUOUS
10
0.301433
20
0.72687
11
0.299196
21
0.73126
0
LINE
8
BLACK
6
CONTINUOUS
10
0.299196
20
0.73126
11
0.298425
21
0.736126
0
LINE
8
BLACK
6
CONTINUOUS
10
0.298425
20
0.736126
11
0.298425
21
0.751874
0
LINE
8
BLACK
6
CONTINUOUS
10
0.298425
20
0.751874
11
0.299196
21
0.75674
0
LINE
8
BLACK
6
CONTINUOUS
10
0.299196
20
0.75674
11
0.301433
21
0.76113
0
LINE
8
BLACK
6
CONTINUOUS
10
0.301433
20
0.76113
11
0.304917
21
0.764614
0
LINE
8
BLACK
6
CONTINUOUS
10
0.304917
20
0.764614
11
0.309307
21
0.766851
0
LINE
8
BLACK
6
CONTINUOUS
10
0.309307
20
0.766851
11
0.314173
21
0.767622
0
LINE
8
BLACK
6
CONTINUOUS
10
0.314173
20
0.767622
11
0.335827
21
0.767622
0
LINE
8
BLACK
6
CONTINUOUS
10
0.335827
20
0.767622
11
0.340693
21
0.766851
0
LINE
8
BLACK
6
CONTINUOUS
10
0.123372
20
0.82351
11
0.128357
21
0.821766
0
LINE
8
BLACK
6
CONTINUOUS
10
0.128357
20
0.821766
11
0.132606
21
0.81863
0
LINE
8
BLACK
6
CONTINUOUS
10
0.132606
20
0.81863
11
0.135742
21
0.814381
0
LINE
8
BLACK
6
CONTINUOUS
10
0.135742
20
0.814381
11
0.137486
21
0.809396
0
LINE
8
BLACK
6
CONTINUOUS
10
0.137486
20
0.809396
11
0.137795
21
0.806102
0
LINE
8
BLACK
6
CONTINUOUS
10
0.137795
20
0.806102
11
0.137795
21
0.786417
0
LINE
8
BLACK
6
CONTINUOUS
10
0.137795
20
0.786417
11
0.137486
21
0.783124
0
LINE
8
BLACK
6
CONTINUOUS
10
0.137486
20
0.783124
11
0.135742
21
0.778139
0
LINE
8
BLACK
6
CONTINUOUS
10
0.135742
20
0.778139
11
0.132606
21
0.77389
0
LINE
8
BLACK
6
CONTINUOUS
10
0.132606
20
0.77389
11
0.128357
21
0.770754
0
LINE
8
BLACK
6
CONTINUOUS
10
0.128357
20
0.770754
11
0.123372
21
0.76901
0
LINE
8
BLACK
6
CONTINUOUS
10
0.123372
20
0.76901
11
0.120079
21
0.768701
0
LINE
8
BLACK
6
CONTINUOUS
10
0.120079
20
0.768701
11
0.0334646
21
0.768701
0
LINE
8
BLACK
6
CONTINUOUS
10
0.0334646
20
0.768701
11
0.0301709
21
0.76901
0
LINE
8
BLACK
6
CONTINUOUS
10
0.0301709
20
0.76901
11
0.0251862
21
0.770754
0
LINE
8
BLACK
6
CONTINUOUS
10
0.0251862
20
0.770754
11
0.0209371
21
0.77389
0
LINE
8
BLACK
6
CONTINUOUS
10
0.0209371
20
0.77389
11
0.0178011
21
0.778139
0
LINE
8
BLACK
6
CONTINUOUS
10
0.0178011
20
0.778139
11
0.0160569
21
0.783124
0
LINE
8
BLACK
6
CONTINUOUS
10
0.0160569
20
0.783124
11
0.015748
21
0.786417
0
LINE
8
BLACK
6
CONTINUOUS
10
0.015748
20
0.786417
11
0.015748
21
0.806102
0
LINE
8
BLACK
6
CONTINUOUS
10
0.015748
20
0.806102
11
0.0160569
21
0.809396
0
LINE
8
BLACK
6
CONTINUOUS
10
0.0160569
20
0.809396
11
0.0178011
21
0.814381
0
LINE
8
BLACK
6
CONTINUOUS
10
0.0178011
20
0.814381
11
0.0209371
21
0.81863
0
LINE
8
BLACK
6
CONTINUOUS
10
0.0209371
20
0.81863
11
0.0251862
21
0.821766
0
LINE
8
BLACK
6
CONTINUOUS
10
0.0251862
20
0.821766
11
0.0301709
21
0.82351
0
LINE
8
BLACK
6
CONTINUOUS
10
0.0301709
20
0.82351
11
0.0334646
21
0.823819
0
LINE
8
BLACK
6
CONTINUOUS
10
0.0334646
20
0.823819
11
0.120079
21
0.823819
0
LINE
8
BLACK
6
CONTINUOUS
10
0.120079
20
0.823819
11
0.123372
21
0.82351
0
LINE
8
BLACK
6
CONTINUOUS
10
0.954081
20
0.82351
11
0.959066
21
0.821766
0
LINE
8
BLACK
6
CONTINUOUS
10
0.959066
20
0.821766
11
0.963315
21
0.81863
0
LINE
8
BLACK
6
CONTINUOUS
10
0.963315
20
0.81863
11
0.966451
21
0.814381
0
LINE
8
BLACK
6
CONTINUOUS
10
0.966451
20
0.814381
11
0.968195
21
0.809396
0
LINE
8
BLACK
6
CONTINUOUS
10
0.968195
20
0.809396
11
0.968504
21
0.806102
0
LINE
8
BLACK
6
CONTINUOUS
10
0.968504
20
0.806102
11
0.968504
21
0.786417
0
LINE
8
BLACK
6
CONTINUOUS
10
0.968504
20
0.786417
11
0.968195
21
0.783124
0
LINE
8
BLACK
6
CONTINUOUS
10
0.968195
20
0.783124
11
0.966451
21
0.778139
0
LINE
8
BLACK
6
CONTINUOUS
10
0.966451
20
0.778139
11
0.963315
21
0.77389
0
LINE
8
BLACK
6
CONTINUOUS
10
0.963315
20
0.77389
11
0.959066
21
0.770754
0
LINE
8
BLACK
6
CONTINUOUS
10
0.959066
20
0.770754
11
0.954081
21
0.76901
0
LINE
8
BLACK
6
CONTINUOUS
10
0.954081
20
0.76901
11
0.950787
21
0.768701
0
LINE
8
BLACK
6
CONTINUOUS
10
0.950787
20
0.768701
11
0.864173
21
0.768701
0
LINE
8
BLACK
6
CONTINUOUS
10
0.864173
20
0.768701
11
0.86088
21
0.76901
0
LINE
8
BLACK
6
CONTINUOUS
10
0.86088
20
0.76901
11
0.855895
21
0.770754
0
LINE
8
BLACK
6
CONTINUOUS
10
0.855895
20
0.770754
11
0.851646
21
0.77389
0
LINE
8
BLACK
6
CONTINUOUS
10
0.851646
20
0.77389
11
0.84851
21
0.778139
0
LINE
8
BLACK
6
CONTINUOUS
10
0.84851
20
0.778139
11
0.846766
21
0.783124
0
LINE
8
BLACK
6
CONTINUOUS
10
0.846766
20
0.783124
11
0.846457
21
0.786417
0
LINE
8
BLACK
6
CONTINUOUS
10
0.846457
20
0.786417
11
0.846457
21
0.806102
0
LINE
8
BLACK
6
CONTINUOUS
10
0.846457
20
0.806102
11
0.846766
21
0.809396
0
LINE
8
BLACK
6
CONTINUOUS
10
0.846766
20
0.809396
11
0.84851
21
0.814381
0
LINE
8
BLACK
6
CONTINUOUS
10
0.84851
20
0.814381
11
0.851646
21
0.81863
0
LINE
8
BLACK
6
CONTINUOUS
10
0.851646
20
0.81863
11
0.855895
21
0.821766
0
LINE
8
BLACK
6
CONTINUOUS
10
0.855895
20
0.821766
11
0.86088
21
0.82351
0
LINE
8
BLACK
6
CONTINUOUS
10
0.86088
20
0.82351
11
0.864173
21
0.823819
0
LINE
8
BLACK
6
CONTINUOUS
10
0.864173
20
0.823819
11
0.950787
21
0.823819
0
LINE
8
BLACK
6
CONTINUOUS
10
0.950787
20
0.823819
11
0.954081
21
0.82351
0
LINE
8
BLACK
6
CONTINUOUS
10
0.405457
20
0.823804
11
0.409847
21
0.821567
0
LINE
8
BLACK
6
CONTINUOUS
10
0.409847
20
0.821567
11
0.413331
21
0.818083
0
LINE
8
BLACK
6
CONTINUOUS
10
0.413331
20
0.818083
11
0.415568
21
0.813693
0
LINE
8
BLACK
6
CONTINUOUS
10
0.415568
20
0.813693
11
0.416339
21
0.808827
0
LINE
8
BLACK
6
CONTINUOUS
10
0.416339
20
0.808827
11
0.416339
21
0.787173
0
LINE
8
BLACK
6
CONTINUOUS
10
0.416339
20
0.787173
11
0.415568
21
0.782307
0
LINE
8
BLACK
6
CONTINUOUS
10
0.415568
20
0.782307
11
0.413331
21
0.777917
0
LINE
8
BLACK
6
CONTINUOUS
10
0.413331
20
0.777917
11
0.409847
21
0.774433
0
LINE
8
BLACK
6
CONTINUOUS
10
0.409847
20
0.774433
11
0.405457
21
0.772196
0
LINE
8
BLACK
6
CONTINUOUS
10
0.405457
20
0.772196
11
0.400591
21
0.771425
0
LINE
8
BLACK
6
CONTINUOUS
10
0.400591
20
0.771425
11
0.384843
21
0.771425
0
LINE
8
BLACK
6
CONTINUOUS
10
0.384843
20
0.771425
11
0.379976
21
0.772196
0
LINE
8
BLACK
6
CONTINUOUS
10
0.379976
20
0.772196
11
0.375586
21
0.774433
0
LINE
8
BLACK
6
CONTINUOUS
10
0.375586
20
0.774433
11
0.372102
21
0.777917
0
LINE
8
BLACK
6
CONTINUOUS
10
0.372102
20
0.777917
11
0.369865
21
0.782307
0
LINE
8
BLACK
6
CONTINUOUS
10
0.369865
20
0.782307
11
0.369094
21
0.787173
0
LINE
8
BLACK
6
CONTINUOUS
10
0.369094
20
0.787173
11
0.369094
21
0.808827
0
LINE
8
BLACK
6
CONTINUOUS
10
0.369094
20
0.808827
11
0.369865
21
0.813693
0
LINE
8
BLACK
6
CONTINUOUS
10
0.369865
20
0.813693
11
0.372102
21
0.818083
0
LINE
8
BLACK
6
CONTINUOUS
10
0.372102
20
0.818083
11
0.375586
21
0.821567
0
LINE
8
BLACK
6
CONTINUOUS
10
0.375586
20
0.821567
11
0.379976
21
0.823804
0
LINE
8
BLACK
6
CONTINUOUS
10
0.379976
20
0.823804
11
0.384843
21
0.824575
0
LINE
8
BLACK
6
CONTINUOUS
10
0.384843
20
0.824575
11
0.400591
21
0.824575
0
LINE
8
BLACK
6
CONTINUOUS
10
0.400591
20
0.824575
11
0.405457
21
0.823804
0
LINE
8
BLACK
6
CONTINUOUS
10
0.470418
20
0.823804
11
0.474808
21
0.821567
0
LINE
8
BLACK
6
CONTINUOUS
10
0.474808
20
0.821567
11
0.478292
21
0.818083
0
LINE
8
BLACK
6
CONTINUOUS
10
0.478292
20
0.818083
11
0.480528
21
0.813693
0
LINE
8
BLACK
6
CONTINUOUS
10
0.480528
20
0.813693
11
0.481299
21
0.808827
0
LINE
8
BLACK
6
CONTINUOUS
10
0.481299
20
0.808827
11
0.481299
21
0.787173
0
LINE
8
BLACK
6
CONTINUOUS
10
0.481299
20
0.787173
11
0.480528
21
0.782307
0
LINE
8
BLACK
6
CONTINUOUS
10
0.480528
20
0.782307
11
0.478292
21
0.777917
0
LINE
8
BLACK
6
CONTINUOUS
10
0.478292
20
0.777917
11
0.474808
21
0.774433
0
LINE
8
BLACK
6
CONTINUOUS
10
0.474808
20
0.774433
11
0.470418
21
0.772196
0
LINE
8
BLACK
6
CONTINUOUS
10
0.470418
20
0.772196
11
0.465551
21
0.771425
0
LINE
8
BLACK
6
CONTINUOUS
10
0.465551
20
0.771425
11
0.449803
21
0.771425
0
LINE
8
BLACK
6
CONTINUOUS
10
0.449803
20
0.771425
11
0.444937
21
0.772196
0
LINE
8
BLACK
6
CONTINUOUS
10
0.444937
20
0.772196
11
0.440547
21
0.774433
0
LINE
8
BLACK
6
CONTINUOUS
10
0.440547
20
0.774433
11
0.437063
21
0.777917
0
LINE
8
BLACK
6
CONTINUOUS
10
0.437063
20
0.777917
11
0.434826
21
0.782307
0
LINE
8
BLACK
6
CONTINUOUS
10
0.434826
20
0.782307
11
0.434055
21
0.787173
0
LINE
8
BLACK
6
CONTINUOUS
10
0.434055
20
0.787173
11
0.434055
21
0.808827
0
LINE
8
BLACK
6
CONTINUOUS
10
0.434055
20
0.808827
11
0.434826
21
0.813693
0
LINE
8
BLACK
6
CONTINUOUS
10
0.434826
20
0.813693
11
0.437063
21
0.818083
0
LINE
8
BLACK
6
CONTINUOUS
10
0.437063
20
0.818083
11
0.440547
21
0.821567
0
LINE
8
BLACK
6
CONTINUOUS
10
0.440547
20
0.821567
11
0.444937
21
0.823804
0
LINE
8
BLACK
6
CONTINUOUS
10
0.444937
20
0.823804
11
0.449803
21
0.824575
0
LINE
8
BLACK
6
CONTINUOUS
10
0.449803
20
0.824575
11
0.465551
21
0.824575
0
LINE
8
BLACK
6
CONTINUOUS
10
0.465551
20
0.824575
11
0.470418
21
0.823804
0
LINE
8
BLACK
6
CONTINUOUS
10
0.539315
20
0.823804
11
0.543705
21
0.821567
0
LINE
8
BLACK
6
CONTINUOUS
10
0.543705
20
0.821567
11
0.547189
21
0.818083
0
LINE
8
BLACK
6
CONTINUOUS
10
0.547189
20
0.818083
11
0.549426
21
0.813693
0
LINE
8
BLACK
6
CONTINUOUS
10
0.549426
20
0.813693
11
0.550197
21
0.808827
0
LINE
8
BLACK
6
CONTINUOUS
10
0.550197
20
0.808827
11
0.550197
21
0.787173
0
LINE
8
BLACK
6
CONTINUOUS
10
0.550197
20
0.787173
11
0.549426
21
0.782307
0
LINE
8
BLACK
6
CONTINUOUS
10
0.549426
20
0.782307
11
0.547189
21
0.777917
0
LINE
8
BLACK
6
CONTINUOUS
10
0.547189
20
0.777917
11
0.543705
21
0.774433
0
LINE
8
BLACK
6
CONTINUOUS
10
0.543705
20
0.774433
11
0.539315
21
0.772196
0
LINE
8
BLACK
6
CONTINUOUS
10
0.539315
20
0.772196
11
0.534449
21
0.771425
0
LINE
8
BLACK
6
CONTINUOUS
10
0.534449
20
0.771425
11
0.518701
21
0.771425
0
LINE
8
BLACK
6
CONTINUOUS
10
0.518701
20
0.771425
11
0.513834
21
0.772196
0
LINE
8
BLACK
6
CONTINUOUS
10
0.513834
20
0.772196
11
0.509444
21
0.774433
0
LINE
8
BLACK
6
CONTINUOUS
10
0.509444
20
0.774433
11
0.50596
21
0.777917
0
LINE
8
BLACK
6
CONTINUOUS
10
0.50596
20
0.777917
11
0.503724
21
0.782307
0
LINE
8
BLACK
6
CONTINUOUS
10
0.503724
20
0.782307
11
0.502953
21
0.787173
0
LINE
8
BLACK
6
CONTINUOUS
10
0.502953
20
0.787173
11
0.502953
21
0.808827
0
LINE
8
BLACK
6
CONTINUOUS
10
0.502953
20
0.808827
11
0.503724
21
0.813693
0
LINE
8
BLACK
6
CONTINUOUS
10
0.503724
20
0.813693
11
0.50596
21
0.818083
0
LINE
8
BLACK
6
CONTINUOUS
10
0.50596
20
0.818083
11
0.509444
21
0.821567
0
LINE
8
BLACK
6
CONTINUOUS
10
0.509444
20
0.821567
11
0.513834
21
0.823804
0
LINE
8
BLACK
6
CONTINUOUS
10
0.513834
20
0.823804
11
0.518701
21
0.824575
0
LINE
8
BLACK
6
CONTINUOUS
10
0.518701
20
0.824575
11
0.534449
21
0.824575
0
LINE
8
BLACK
6
CONTINUOUS
10
0.534449
20
0.824575
11
0.539315
21
0.823804
0
LINE
8
BLACK
6
CONTINUOUS
10
0.604276
20
0.823804
11
0.608666
21
0.821567
0
LINE
8
BLACK
6
CONTINUOUS
10
0.608666
20
0.821567
11
0.61215
21
0.818083
0
LINE
8
BLACK
6
CONTINUOUS
10
0.61215
20
0.818083
11
0.614387
21
0.813693
0
LINE
8
BLACK
6
CONTINUOUS
10
0.614387
20
0.813693
11
0.615157
21
0.808827
0
LINE
8
BLACK
6
CONTINUOUS
10
0.615157
20
0.808827
11
0.615157
21
0.787173
0
LINE
8
BLACK
6
CONTINUOUS
10
0.615157
20
0.787173
11
0.614387
21
0.782307
0
LINE
8
BLACK
6
CONTINUOUS
10
0.614387
20
0.782307
11
0.61215
21
0.777917
0
LINE
8
BLACK
6
CONTINUOUS
10
0.61215
20
0.777917
11
0.608666
21
0.774433
0
LINE
8
BLACK
6
CONTINUOUS
10
0.608666
20
0.774433
11
0.604276
21
0.772196
0
LINE
8
BLACK
6
CONTINUOUS
10
0.604276
20
0.772196
11
0.599409
21
0.771425
0
LINE
8
BLACK
6
CONTINUOUS
10
0.599409
20
0.771425
11
0.583661
21
0.771425
0
LINE
8
BLACK
6
CONTINUOUS
10
0.583661
20
0.771425
11
0.578795
21
0.772196
0
LINE
8
BLACK
6
CONTINUOUS
10
0.578795
20
0.772196
11
0.574405
21
0.774433
0
LINE
8
BLACK
6
CONTINUOUS
10
0.574405
20
0.774433
11
0.570921
21
0.777917
0
LINE
8
BLACK
6
CONTINUOUS
10
0.570921
20
0.777917
11
0.568684
21
0.782307
0
LINE
8
BLACK
6
CONTINUOUS
10
0.568684
20
0.782307
11
0.567913
21
0.787173
0
LINE
8
BLACK
6
CONTINUOUS
10
0.567913
20
0.787173
11
0.567913
21
0.808827
0
LINE
8
BLACK
6
CONTINUOUS
10
0.567913
20
0.808827
11
0.568684
21
0.813693
0
LINE
8
BLACK
6
CONTINUOUS
10
0.568684
20
0.813693
11
0.570921
21
0.818083
0
LINE
8
BLACK
6
CONTINUOUS
10
0.570921
20
0.818083
11
0.574405
21
0.821567
0
LINE
8
BLACK
6
CONTINUOUS
10
0.574405
20
0.821567
11
0.578795
21
0.823804
0
LINE
8
BLACK
6
CONTINUOUS
10
0.578795
20
0.823804
11
0.583661
21
0.824575
0
LINE
8
BLACK
6
CONTINUOUS
10
0.583661
20
0.824575
11
0.599409
21
0.824575
0
LINE
8
BLACK
6
CONTINUOUS
10
0.599409
20
0.824575
11
0.604276
21
0.823804
0
LINE
8
BLACK
6
CONTINUOUS
10
0.675693
20
0.831332
11
0.680083
21
0.829095
0
LINE
8
BLACK
6
CONTINUOUS
10
0.680083
20
0.829095
11
0.683567
21
0.825611
0
LINE
8
BLACK
6
CONTINUOUS
10
0.683567
20
0.825611
11
0.685804
21
0.821221
0
LINE
8
BLACK
6
CONTINUOUS
10
0.685804
20
0.821221
11
0.686575
21
0.816354
0
LINE
8
BLACK
6
CONTINUOUS
10
0.686575
20
0.816354
11
0.686575
21
0.800606
0
LINE
8
BLACK
6
CONTINUOUS
10
0.686575
20
0.800606
11
0.685804
21
0.79574
0
LINE
8
BLACK
6
CONTINUOUS
10
0.685804
20
0.79574
11
0.683567
21
0.79135
0
LINE
8
BLACK
6
CONTINUOUS
10
0.683567
20
0.79135
11
0.680083
21
0.787866
0
LINE
8
BLACK
6
CONTINUOUS
10
0.680083
20
0.787866
11
0.675693
21
0.785629
0
LINE
8
BLACK
6
CONTINUOUS
10
0.675693
20
0.785629
11
0.670827
21
0.784858
0
LINE
8
BLACK
6
CONTINUOUS
10
0.670827
20
0.784858
11
0.649173
21
0.784858
0
LINE
8
BLACK
6
CONTINUOUS
10
0.649173
20
0.784858
11
0.644307
21
0.785629
0
LINE
8
BLACK
6
CONTINUOUS
10
0.644307
20
0.785629
11
0.639917
21
0.787866
0
LINE
8
BLACK
6
CONTINUOUS
10
0.639917
20
0.787866
11
0.636433
21
0.79135
0
LINE
8
BLACK
6
CONTINUOUS
10
0.636433
20
0.79135
11
0.634196
21
0.79574
0
LINE
8
BLACK
6
CONTINUOUS
10
0.634196
20
0.79574
11
0.633425
21
0.800606
0
LINE
8
BLACK
6
CONTINUOUS
10
0.633425
20
0.800606
11
0.633425
21
0.816354
0
LINE
8
BLACK
6
CONTINUOUS
10
0.633425
20
0.816354
11
0.634196
21
0.821221
0
LINE
8
BLACK
6
CONTINUOUS
10
0.634196
20
0.821221
11
0.636433
21
0.825611
0
LINE
8
BLACK
6
CONTINUOUS
10
0.636433
20
0.825611
11
0.639917
21
0.829095
0
LINE
8
BLACK
6
CONTINUOUS
10
0.639917
20
0.829095
11
0.644307
21
0.831332
0
LINE
8
BLACK
6
CONTINUOUS
10
0.644307
20
0.831332
11
0.649173
21
0.832102
0
LINE
8
BLACK
6
CONTINUOUS
10
0.649173
20
0.832102
11
0.670827
21
0.832102
0
LINE
8
BLACK
6
CONTINUOUS
10
0.670827
20
0.832102
11
0.675693
21
0.831332
0
LINE
8
BLACK
6
CONTINUOUS
10
0.340693
20
0.831812
11
0.345083
21
0.829575
0
LINE
8
BLACK
6
CONTINUOUS
10
0.345083
20
0.829575
11
0.348567
21
0.826091
0
LINE
8
BLACK
6
CONTINUOUS
10
0.348567
20
0.826091
11
0.350804
21
0.821701
0
LINE
8
BLACK
6
CONTINUOUS
10
0.350804
20
0.821701
11
0.351575
21
0.816835
0
LINE
8
BLACK
6
CONTINUOUS
10
0.351575
20
0.816835
11
0.351575
21
0.801087
0
LINE
8
BLACK
6
CONTINUOUS
10
0.351575
20
0.801087
11
0.350804
21
0.79622
0
LINE
8
BLACK
6
CONTINUOUS
10
0.350804
20
0.79622
11
0.348567
21
0.79183
0
LINE
8
BLACK
6
CONTINUOUS
10
0.348567
20
0.79183
11
0.345083
21
0.788346
0
LINE
8
BLACK
6
CONTINUOUS
10
0.345083
20
0.788346
11
0.340693
21
0.786109
0
LINE
8
BLACK
6
CONTINUOUS
10
0.340693
20
0.786109
11
0.335827
21
0.785339
0
LINE
8
BLACK
6
CONTINUOUS
10
0.335827
20
0.785339
11
0.314173
21
0.785339
0
LINE
8
BLACK
6
CONTINUOUS
10
0.314173
20
0.785339
11
0.309307
21
0.786109
0
LINE
8
BLACK
6
CONTINUOUS
10
0.309307
20
0.786109
11
0.304917
21
0.788346
0
LINE
8
BLACK
6
CONTINUOUS
10
0.304917
20
0.788346
11
0.301433
21
0.79183
0
LINE
8
BLACK
6
CONTINUOUS
10
0.301433
20
0.79183
11
0.299196
21
0.79622
0
LINE
8
BLACK
6
CONTINUOUS
10
0.299196
20
0.79622
11
0.298425
21
0.801087
0
LINE
8
BLACK
6
CONTINUOUS
10
0.298425
20
0.801087
11
0.298425
21
0.816835
0
LINE
8
BLACK
6
CONTINUOUS
10
0.298425
20
0.816835
11
0.299196
21
0.821701
0
LINE
8
BLACK
6
CONTINUOUS
10
0.299196
20
0.821701
11
0.301433
21
0.826091
0
LINE
8
BLACK
6
CONTINUOUS
10
0.301433
20
0.826091
11
0.304917
21
0.829575
0
LINE
8
BLACK
6
CONTINUOUS
10
0.304917
20
0.829575
11
0.309307
21
0.831812
0
LINE
8
BLACK
6
CONTINUOUS
10
0.309307
20
0.831812
11
0.314173
21
0.832583
0
LINE
8
BLACK
6
CONTINUOUS
10
0.314173
20
0.832583
11
0.335827
21
0.832583
0
LINE
8
BLACK
6
CONTINUOUS
10
0.335827
20
0.832583
11
0.340693
21
0.831812
0
LINE
8
BLACK
6
CONTINUOUS
10
0.112922
20
0.96276
11
0.122147
21
0.959593
0
LINE
8
BLACK
6
CONTINUOUS
10
0.122147
20
0.959593
11
0.130725
21
0.954951
0
LINE
8
BLACK
6
CONTINUOUS
10
0.130725
20
0.954951
11
0.138422
21
0.94896
0
LINE
8
BLACK
6
CONTINUOUS
10
0.138422
20
0.94896
11
0.145028
21
0.941784
0
LINE
8
BLACK
6
CONTINUOUS
10
0.145028
20
0.941784
11
0.150363
21
0.933619
0
LINE
8
BLACK
6
CONTINUOUS
10
0.150363
20
0.933619
11
0.154281
21
0.924687
0
LINE
8
BLACK
6
CONTINUOUS
10
0.154281
20
0.924687
11
0.156675
21
0.915232
0
LINE
8
BLACK
6
CONTINUOUS
10
0.156675
20
0.915232
11
0.15748
21
0.905512
0
LINE
8
BLACK
6
CONTINUOUS
10
0.15748
20
0.905512
11
0.156675
21
0.895792
0
LINE
8
BLACK
6
CONTINUOUS
10
0.156675
20
0.895792
11
0.154281
21
0.886337
0
LINE
8
BLACK
6
CONTINUOUS
10
0.154281
20
0.886337
11
0.150363
21
0.877405
0
LINE
8
BLACK
6
CONTINUOUS
10
0.150363
20
0.877405
11
0.145028
21
0.869239
0
LINE
8
BLACK
6
CONTINUOUS
10
0.145028
20
0.869239
11
0.138422
21
0.862064
0
LINE
8
BLACK
6
CONTINUOUS
10
0.138422
20
0.862064
11
0.130725
21
0.856073
0
LINE
8
BLACK
6
CONTINUOUS
10
0.130725
20
0.856073
11
0.122147
21
0.851431
0
LINE
8
BLACK
6
CONTINUOUS
10
0.122147
20
0.851431
11
0.112922
21
0.848264
0
LINE
8
BLACK
6
CONTINUOUS
10
0.112922
20
0.848264
11
0.103302
21
0.846658
0
LINE
8
BLACK
6
CONTINUOUS
10
0.103302
20
0.846658
11
0.0935485
21
0.846658
0
LINE
8
BLACK
6
CONTINUOUS
10
0.0935485
20
0.846658
11
0.083928
21
0.848264
0
LINE
8
BLACK
6
CONTINUOUS
10
0.083928
20
0.848264
11
0.074703
21
0.851431
0
LINE
8
BLACK
6
CONTINUOUS
10
0.074703
20
0.851431
11
0.0661251
21
0.856073
0
LINE
8
BLACK
6
CONTINUOUS
10
0.0661251
20
0.856073
11
0.0584283
21
0.862064
0
LINE
8
BLACK
6
CONTINUOUS
10
0.0584283
20
0.862064
11
0.0518224
21
0.869239
0
LINE
8
BLACK
6
CONTINUOUS
10
0.0518224
20
0.869239
11
0.0464878
21
0.877405
0
LINE
8
BLACK
6
CONTINUOUS
10
0.0464878
20
0.877405
11
0.0425698
21
0.886337
0
LINE
8
BLACK
6
CONTINUOUS
10
0.0425698
20
0.886337
11
0.0401755
21
0.895792
0
LINE
8
BLACK
6
CONTINUOUS
10
0.0401755
20
0.895792
11
0.0393701
21
0.905512
0
LINE
8
BLACK
6
CONTINUOUS
10
0.0393701
20
0.905512
11
0.0401755
21
0.915232
0
LINE
8
BLACK
6
CONTINUOUS
10
0.0401755
20
0.915232
11
0.0425698
21
0.924687
0
LINE
8
BLACK
6
CONTINUOUS
10
0.0425698
20
0.924687
11
0.0464878
21
0.933619
0
LINE
8
BLACK
6
CONTINUOUS
10
0.0464878
20
0.933619
11
0.0518224
21
0.941784
0
LINE
8
BLACK
6
CONTINUOUS
10
0.0518224
20
0.941784
11
0.0584283
21
0.94896
0
LINE
8
BLACK
6
CONTINUOUS
10
0.0584283
20
0.94896
11
0.0661251
21
0.954951
0
LINE
8
BLACK
6
CONTINUOUS
10
0.0661251
20
0.954951
11
0.074703
21
0.959593
0
LINE
8
BLACK
6
CONTINUOUS
10
0.074703
20
0.959593
11
0.083928
21
0.96276
0
LINE
8
BLACK
6
CONTINUOUS
10
0.083928
20
0.96276
11
0.0935485
21
0.964365
0
LINE
8
BLACK
6
CONTINUOUS
10
0.0935485
20
0.964365
11
0.103302
21
0.964365
0
LINE
8
BLACK
6
CONTINUOUS
10
0.103302
20
0.964365
11
0.112922
21
0.96276
0
LINE
8
BLACK
6
CONTINUOUS
10
0.506623
20
0.96276
11
0.515848
21
0.959593
0
LINE
8
BLACK
6
CONTINUOUS
10
0.515848
20
0.959593
11
0.524426
21
0.954951
0
LINE
8
BLACK
6
CONTINUOUS
10
0.524426
20
0.954951
11
0.532123
21
0.94896
0
LINE
8
BLACK
6
CONTINUOUS
10
0.532123
20
0.94896
11
0.538729
21
0.941784
0
LINE
8
BLACK
6
CONTINUOUS
10
0.538729
20
0.941784
11
0.544063
21
0.933619
0
LINE
8
BLACK
6
CONTINUOUS
10
0.544063
20
0.933619
11
0.547981
21
0.924687
0
LINE
8
BLACK
6
CONTINUOUS
10
0.547981
20
0.924687
11
0.550376
21
0.915232
0
LINE
8
BLACK
6
CONTINUOUS
10
0.550376
20
0.915232
11
0.551181
21
0.905512
0
LINE
8
BLACK
6
CONTINUOUS
10
0.551181
20
0.905512
11
0.550376
21
0.895792
0
LINE
8
BLACK
6
CONTINUOUS
10
0.550376
20
0.895792
11
0.547981
21
0.886337
0
LINE
8
BLACK
6
CONTINUOUS
10
0.547981
20
0.886337
11
0.544063
21
0.877405
0
LINE
8
BLACK
6
CONTINUOUS
10
0.544063
20
0.877405
11
0.538729
21
0.869239
0
LINE
8
BLACK
6
CONTINUOUS
10
0.538729
20
0.869239
11
0.532123
21
0.862064
0
LINE
8
BLACK
6
CONTINUOUS
10
0.532123
20
0.862064
11
0.524426
21
0.856073
0
LINE
8
BLACK
6
CONTINUOUS
10
0.524426
20
0.856073
11
0.515848
21
0.851431
0
LINE
8
BLACK
6
CONTINUOUS
10
0.515848
20
0.851431
11
0.506623
21
0.848264
0
LINE
8
BLACK
6
CONTINUOUS
10
0.506623
20
0.848264
11
0.497003
21
0.846658
0
LINE
8
BLACK
6
CONTINUOUS
10
0.497003
20
0.846658
11
0.487249
21
0.846658
0
LINE
8
BLACK
6
CONTINUOUS
10
0.487249
20
0.846658
11
0.477629
21
0.848264
0
LINE
8
BLACK
6
CONTINUOUS
10
0.477629
20
0.848264
11
0.468404
21
0.851431
0
LINE
8
BLACK
6
CONTINUOUS
10
0.468404
20
0.851431
11
0.459826
21
0.856073
0
LINE
8
BLACK
6
CONTINUOUS
10
0.459826
20
0.856073
11
0.452129
21
0.862064
0
LINE
8
BLACK
6
CONTINUOUS
10
0.452129
20
0.862064
11
0.445523
21
0.869239
0
LINE
8
BLACK
6
CONTINUOUS
10
0.445523
20
0.869239
11
0.440189
21
0.877405
0
LINE
8
BLACK
6
CONTINUOUS
10
0.440189
20
0.877405
11
0.436271
21
0.886337
0
LINE
8
BLACK
6
CONTINUOUS
10
0.436271
20
0.886337
11
0.433876
21
0.895792
0
LINE
8
BLACK
6
CONTINUOUS
10
0.433876
20
0.895792
11
0.433071
21
0.905512
0
LINE
8
BLACK
6
CONTINUOUS
10
0.433071
20
0.905512
11
0.433876
21
0.915232
0
LINE
8
BLACK
6
CONTINUOUS
10
0.433876
20
0.915232
11
0.436271
21
0.924687
0
LINE
8
BLACK
6
CONTINUOUS
10
0.436271
20
0.924687
11
0.440189
21
0.933619
0
LINE
8
BLACK
6
CONTINUOUS
10
0.440189
20
0.933619
11
0.445523
21
0.941784
0
LINE
8
BLACK
6
CONTINUOUS
10
0.445523
20
0.941784
11
0.452129
21
0.94896
0
LINE
8
BLACK
6
CONTINUOUS
10
0.452129
20
0.94896
11
0.459826
21
0.954951
0
LINE
8
BLACK
6
CONTINUOUS
10
0.459826
20
0.954951
11
0.468404
21
0.959593
0
LINE
8
BLACK
6
CONTINUOUS
10
0.468404
20
0.959593
11
0.477629
21
0.96276
0
LINE
8
BLACK
6
CONTINUOUS
10
0.477629
20
0.96276
11
0.487249
21
0.964365
0
LINE
8
BLACK
6
CONTINUOUS
10
0.487249
20
0.964365
11
0.497003
21
0.964365
0
LINE
8
BLACK
6
CONTINUOUS
10
0.497003
20
0.964365
11
0.506623
21
0.96276
0
LINE
8
BLACK
6
CONTINUOUS
10
0.900324
20
0.96276
11
0.909549
21
0.959593
0
LINE
8
BLACK
6
CONTINUOUS
10
0.909549
20
0.959593
11
0.918127
21
0.954951
0
LINE
8
BLACK
6
CONTINUOUS
10
0.918127
20
0.954951
11
0.925824
21
0.94896
0
LINE
8
BLACK
6
CONTINUOUS
10
0.925824
20
0.94896
11
0.93243
21
0.941784
0
LINE
8
BLACK
6
CONTINUOUS
10
0.93243
20
0.941784
11
0.937764
21
0.933619
0
LINE
8
BLACK
6
CONTINUOUS
10
0.937764
20
0.933619
11
0.941682
21
0.924687
0
LINE
8
BLACK
6
CONTINUOUS
10
0.941682
20
0.924687
11
0.944076
21
0.915232
0
LINE
8
BLACK
6
CONTINUOUS
10
0.944076
20
0.915232
11
0.944882
21
0.905512
0
LINE
8
BLACK
6
CONTINUOUS
10
0.944882
20
0.905512
11
0.944076
21
0.895792
0
LINE
8
BLACK
6
CONTINUOUS
10
0.944076
20
0.895792
11
0.941682
21
0.886337
0
LINE
8
BLACK
6
CONTINUOUS
10
0.941682
20
0.886337
11
0.937764
21
0.877405
0
LINE
8
BLACK
6
CONTINUOUS
10
0.937764
20
0.877405
11
0.93243
21
0.869239
0
LINE
8
BLACK
6
CONTINUOUS
10
0.93243
20
0.869239
11
0.925824
21
0.862064
0
LINE
8
BLACK
6
CONTINUOUS
10
0.925824
20
0.862064
11
0.918127
21
0.856073
0
LINE
8
BLACK
6
CONTINUOUS
10
0.918127
20
0.856073
11
0.909549
21
0.851431
0
LINE
8
BLACK
6
CONTINUOUS
10
0.909549
20
0.851431
11
0.900324
21
0.848264
0
LINE
8
BLACK
6
CONTINUOUS
10
0.900324
20
0.848264
11
0.890704
21
0.846658
0
LINE
8
BLACK
6
CONTINUOUS
10
0.890704
20
0.846658
11
0.88095
21
0.846658
0
LINE
8
BLACK
6
CONTINUOUS
10
0.88095
20
0.846658
11
0.87133
21
0.848264
0
LINE
8
BLACK
6
CONTINUOUS
10
0.87133
20
0.848264
11
0.862105
21
0.851431
0
LINE
8
BLACK
6
CONTINUOUS
10
0.862105
20
0.851431
11
0.853527
21
0.856073
0
LINE
8
BLACK
6
CONTINUOUS
10
0.853527
20
0.856073
11
0.84583
21
0.862064
0
LINE
8
BLACK
6
CONTINUOUS
10
0.84583
20
0.862064
11
0.839224
21
0.869239
0
LINE
8
BLACK
6
CONTINUOUS
10
0.839224
20
0.869239
11
0.833889
21
0.877405
0
LINE
8
BLACK
6
CONTINUOUS
10
0.833889
20
0.877405
11
0.829971
21
0.886337
0
LINE
8
BLACK
6
CONTINUOUS
10
0.829971
20
0.886337
11
0.827577
21
0.895792
0
LINE
8
BLACK
6
CONTINUOUS
10
0.827577
20
0.895792
11
0.826772
21
0.905512
0
LINE
8
BLACK
6
CONTINUOUS
10
0.826772
20
0.905512
11
0.827577
21
0.915232
0
LINE
8
BLACK
6
CONTINUOUS
10
0.827577
20
0.915232
11
0.829971
21
0.924687
0
LINE
8
BLACK
6
CONTINUOUS
10
0.829971
20
0.924687
11
0.833889
21
0.933619
0
LINE
8
BLACK
6
CONTINUOUS
10
0.833889
20
0.933619
11
0.839224
21
0.941784
0
LINE
8
BLACK
6
CONTINUOUS
10
0.839224
20
0.941784
11
0.84583
21
0.94896
0
LINE
8
BLACK
6
CONTINUOUS
10
0.84583
20
0.94896
11
0.853527
21
0.954951
0
LINE
8
BLACK
6
CONTINUOUS
10
0.853527
20
0.954951
11
0.862105
21
0.959593
0
LINE
8
BLACK
6
CONTINUOUS
10
0.862105
20
0.959593
11
0.87133
21
0.96276
0
LINE
8
BLACK
6
CONTINUOUS
10
0.87133
20
0.96276
11
0.88095
21
0.964365
0
LINE
8
BLACK
6
CONTINUOUS
10
0.88095
20
0.964365
11
0.890704
21
0.964365
0
LINE
8
BLACK
6
CONTINUOUS
10
0.890704
20
0.964365
11
0.900324
21
0.96276
  0
ENDSEC
  0
EOF
