  0
SECTION
  2
HEADER
  9
$ANGBASE
  50
0.0
  9
$ANGDIR
  70
1
  9
$MEASUREMENT
  70
0
  0
ENDSEC
  0
SECTION
  2
TABLES
  0
TABLE
  2
LTYPE
  70
4
  0
LTYPE
  5
40F
  2
CONTINUOUS
  70
0
  3
Solid line
  72
65
  73
0
  40
0.0
  0
LTYPE
  5
410
  2
DASHDOT
 70
0
  3
Dash Dot ____ _ ____ _
 72
65
 73
4
 40
2.0
 49
1.25
 49
-0.25
 49
0.25
 49
-0.25
  0
LTYPE
  5
411
  2
DASHED
 70
0
  3
Dashed __ __ __ __ __
 72
65
 73
2
 40
0.75
 49
0.5
 49
-0.25
  0
LTYPE
  5
43B
  2
DOTTED
 70
0
  3
Dotted .  .  .  .
 72
65
 73
2
 40
0.2
 49
0.0
 49
-0.2
  0
ENDTAB
  0
TABLE
  2
STYLE
  70
4
  0
STYLE
  2
KICAD
  70
0
  40
0
  41
1
  42
1
  50
0
  71
0
  3
isocp.shx
  0
STYLE
  2
KICADB
  70
0
  40
0
  41
1
  42
1
  50
0
  71
0
  3
isocp.shx
  0
STYLE
  2
KICADI
  70
0
  40
0
  41
1
  42
1
  50
15
  71
0
  3
isocp.shx
  0
STYLE
  2
KICADBI
  70
0
  40
0
  41
1
  42
1
  50
15
  71
0
  3
isocp.shx
  0
ENDTAB
  0
TABLE
  2
LAYER
  70
1
  0
LAYER
  2
BLACK
  70
0
  62
7
  6
CONTINUOUS
  0
ENDTAB
  0
ENDSEC
  0
SECTION
  2
ENTITIES
0
LINE
8
BLACK
6
CONTINUOUS
10
0.0018186614173228
20
-0.0189317322834646
11
0.0019685039370079
21
-0.0196850393700787
0
LINE
8
BLACK
6
CONTINUOUS
10
0.0019685039370079
20
-0.0196850393700787
11
0.0019685039370079
21
-0.1889213385826772
0
LINE
8
BLACK
6
CONTINUOUS
10
0.0019685039370079
20
-0.1889213385826772
11
0.0434415748031496
21
-0.1673318503937008
0
LINE
8
BLACK
6
CONTINUOUS
10
0.0434415748031496
20
-0.1673318503937008
11
0.0441789763779528
21
-0.1671168897637795
0
LINE
8
BLACK
6
CONTINUOUS
10
0.0441789763779528
20
-0.1671168897637795
11
0.0456158661417323
21
-0.1675699606299212
0
LINE
8
BLACK
6
CONTINUOUS
10
0.0456158661417323
20
-0.1675699606299212
11
0.0463115354330709
21
-0.1689063385826772
0
LINE
8
BLACK
6
CONTINUOUS
10
0.0463115354330709
20
-0.1689063385826772
11
0.0458585039370079
21
-0.1703432677165354
0
LINE
8
BLACK
6
CONTINUOUS
10
0.0458585039370079
20
-0.1703432677165354
11
0.0452594881889764
21
-0.1708240157480315
0
LINE
8
BLACK
6
CONTINUOUS
10
0.0452594881889764
20
-0.1708240157480315
11
0.0080446456692913
21
-0.1901968503937008
0
LINE
8
BLACK
6
CONTINUOUS
10
0.0080446456692913
20
-0.1901968503937008
11
0.9762073622047244
21
-0.1901968503937008
0
LINE
8
BLACK
6
CONTINUOUS
10
0.9762073622047244
20
-0.1901968503937008
11
0.9389924803149606
21
-0.1708240157480315
0
LINE
8
BLACK
6
CONTINUOUS
10
0.9389924803149606
20
-0.1708240157480315
11
0.9383934645669291
21
-0.1703432283464567
0
LINE
8
BLACK
6
CONTINUOUS
10
0.9383934645669291
20
-0.1703432283464567
11
0.9379403937007874
21
-0.1689063385826772
0
LINE
8
BLACK
6
CONTINUOUS
10
0.9379403937007874
20
-0.1689063385826772
11
0.9386361023622047
21
-0.1675699606299212
0
LINE
8
BLACK
6
CONTINUOUS
10
0.9386361023622047
20
-0.1675699606299212
11
0.9400729921259843
21
-0.1671168897637795
0
LINE
8
BLACK
6
CONTINUOUS
10
0.9400729921259843
20
-0.1671168897637795
11
0.9408103543307086
21
-0.167331811023622
0
LINE
8
BLACK
6
CONTINUOUS
10
0.9408103543307086
20
-0.167331811023622
11
0.9822834645669292
21
-0.1889213385826772
0
LINE
8
BLACK
6
CONTINUOUS
10
0.9822834645669292
20
-0.1889213385826772
11
0.9822834645669292
21
-0.0196850393700787
0
LINE
8
BLACK
6
CONTINUOUS
10
0.9822834645669292
20
-0.0196850393700787
11
0.9824333070866141
21
-0.0189317322834646
0
LINE
8
BLACK
6
CONTINUOUS
10
0.9824333070866141
20
-0.0189317322834646
11
0.9834986614173228
21
-0.0178663779527559
0
LINE
8
BLACK
6
CONTINUOUS
10
0.9834986614173228
20
-0.0178663779527559
11
0.9850052755905512
21
-0.0178663779527559
0
LINE
8
BLACK
6
CONTINUOUS
10
0.9850052755905512
20
-0.0178663779527559
11
0.9860706299212598
21
-0.0189317322834646
0
LINE
8
BLACK
6
CONTINUOUS
10
0.9860706299212598
20
-0.0189317322834646
11
0.9862204724409449
21
-0.0196850393700787
0
LINE
8
BLACK
6
CONTINUOUS
10
0.9862204724409449
20
-0.0196850393700787
11
0.9862204724409449
21
-0.2152527559055118
0
LINE
8
BLACK
6
CONTINUOUS
10
0.9862204724409449
20
-0.2152527559055118
11
0.9860706299212598
21
-0.216006062992126
0
LINE
8
BLACK
6
CONTINUOUS
10
0.9860706299212598
20
-0.216006062992126
11
0.9850052755905512
21
-0.2170714173228346
0
LINE
8
BLACK
6
CONTINUOUS
10
0.9850052755905512
20
-0.2170714173228346
11
0.9834986614173228
21
-0.2170714173228346
0
LINE
8
BLACK
6
CONTINUOUS
10
0.9834986614173228
20
-0.2170714173228346
11
0.9824333070866141
21
-0.216006062992126
0
LINE
8
BLACK
6
CONTINUOUS
10
0.9824333070866141
20
-0.216006062992126
11
0.9822834645669292
21
-0.2152527559055118
0
LINE
8
BLACK
6
CONTINUOUS
10
0.9822834645669292
20
-0.2152527559055118
11
0.9822834645669292
21
-0.1954093307086614
0
LINE
8
BLACK
6
CONTINUOUS
10
0.9822834645669292
20
-0.1954093307086614
11
0.9408103543307086
21
-0.2169988976377953
0
LINE
8
BLACK
6
CONTINUOUS
10
0.9408103543307086
20
-0.2169988976377953
11
0.9400729921259843
21
-0.2172138188976378
0
LINE
8
BLACK
6
CONTINUOUS
10
0.9400729921259843
20
-0.2172138188976378
11
0.9386361023622047
21
-0.2167607480314961
0
LINE
8
BLACK
6
CONTINUOUS
10
0.9386361023622047
20
-0.2167607480314961
11
0.9379403937007874
21
-0.2154243700787402
0
LINE
8
BLACK
6
CONTINUOUS
10
0.9379403937007874
20
-0.2154243700787402
11
0.9383934645669291
21
-0.2139874803149606
0
LINE
8
BLACK
6
CONTINUOUS
10
0.9383934645669291
20
-0.2139874803149606
11
0.9389924803149606
21
-0.2135066929133858
0
LINE
8
BLACK
6
CONTINUOUS
10
0.9389924803149606
20
-0.2135066929133858
11
0.9762073622047244
21
-0.1941338582677165
0
LINE
8
BLACK
6
CONTINUOUS
10
0.9762073622047244
20
-0.1941338582677165
11
0.0080446456692913
21
-0.1941338582677165
0
LINE
8
BLACK
6
CONTINUOUS
10
0.0080446456692913
20
-0.1941338582677165
11
0.0452594881889764
21
-0.2135066929133858
0
LINE
8
BLACK
6
CONTINUOUS
10
0.0452594881889764
20
-0.2135066929133858
11
0.0458585039370079
21
-0.2139874409448819
0
LINE
8
BLACK
6
CONTINUOUS
10
0.0458585039370079
20
-0.2139874409448819
11
0.0463115354330709
21
-0.2154243700787402
0
LINE
8
BLACK
6
CONTINUOUS
10
0.0463115354330709
20
-0.2154243700787402
11
0.0456158661417323
21
-0.2167607480314961
0
LINE
8
BLACK
6
CONTINUOUS
10
0.0456158661417323
20
-0.2167607480314961
11
0.0441789763779528
21
-0.2172138188976378
0
LINE
8
BLACK
6
CONTINUOUS
10
0.0441789763779528
20
-0.2172138188976378
11
0.0434415748031496
21
-0.2169988582677165
0
LINE
8
BLACK
6
CONTINUOUS
10
0.0434415748031496
20
-0.2169988582677165
11
0.0019685039370079
21
-0.1954093307086614
0
LINE
8
BLACK
6
CONTINUOUS
10
0.0019685039370079
20
-0.1954093307086614
11
0.0019685039370079
21
-0.2152527559055118
0
LINE
8
BLACK
6
CONTINUOUS
10
0.0019685039370079
20
-0.2152527559055118
11
0.0018186614173228
21
-0.216006062992126
0
LINE
8
BLACK
6
CONTINUOUS
10
0.0018186614173228
20
-0.216006062992126
11
0.0007533070866142
21
-0.2170714173228346
0
LINE
8
BLACK
6
CONTINUOUS
10
0.0007533070866142
20
-0.2170714173228346
11
-0.0007533070866142
21
-0.2170714173228346
0
LINE
8
BLACK
6
CONTINUOUS
10
-0.0007533070866142
20
-0.2170714173228346
11
-0.0018186614173228
21
-0.216006062992126
0
LINE
8
BLACK
6
CONTINUOUS
10
-0.0018186614173228
20
-0.216006062992126
11
-0.0019685039370079
21
-0.2152527559055118
0
LINE
8
BLACK
6
CONTINUOUS
10
-0.0019685039370079
20
-0.2152527559055118
11
-0.0019685039370079
21
-0.0196850393700787
0
LINE
8
BLACK
6
CONTINUOUS
10
-0.0019685039370079
20
-0.0196850393700787
11
-0.0018186614173228
21
-0.0189317322834646
0
LINE
8
BLACK
6
CONTINUOUS
10
-0.0018186614173228
20
-0.0189317322834646
11
-0.0007533070866142
21
-0.0178663779527559
0
LINE
8
BLACK
6
CONTINUOUS
10
-0.0007533070866142
20
-0.0178663779527559
11
0.0007533070866142
21
-0.0178663779527559
0
LINE
8
BLACK
6
CONTINUOUS
10
0.0007533070866142
20
-0.0178663779527559
11
0.0018186614173228
21
-0.0189317322834646
0
LINE
8
BLACK
6
CONTINUOUS
10
0.4102123622047244
20
-0.1225299212598425
11
0.4103103543307087
21
-0.1225705118110236
0
LINE
8
BLACK
6
CONTINUOUS
10
0.4103103543307087
20
-0.1225705118110236
11
0.4104161811023622
21
-0.122578031496063
0
LINE
8
BLACK
6
CONTINUOUS
10
0.4104161811023622
20
-0.122578031496063
11
0.410956811023622
21
-0.1227849212598425
0
LINE
8
BLACK
6
CONTINUOUS
10
0.410956811023622
20
-0.1227849212598425
11
0.4147063385826771
21
-0.1246596850393701
0
LINE
8
BLACK
6
CONTINUOUS
10
0.4147063385826771
20
-0.1246596850393701
11
0.4149543307086614
21
-0.1248157480314961
0
LINE
8
BLACK
6
CONTINUOUS
10
0.4149543307086614
20
-0.1248157480314961
11
0.4150262992125984
21
-0.1248455905511811
0
LINE
8
BLACK
6
CONTINUOUS
10
0.4150262992125984
20
-0.1248455905511811
11
0.4151072440944882
21
-0.1249120472440945
0
LINE
8
BLACK
6
CONTINUOUS
10
0.4151072440944882
20
-0.1249120472440945
11
0.4151962204724409
21
-0.124968031496063
0
LINE
8
BLACK
6
CONTINUOUS
10
0.4151962204724409
20
-0.124968031496063
11
0.4152473622047244
21
-0.1250270078740157
0
LINE
8
BLACK
6
CONTINUOUS
10
0.4152473622047244
20
-0.1250270078740157
11
0.4154737401574803
21
-0.1252127952755905
0
LINE
8
BLACK
6
CONTINUOUS
10
0.4154737401574803
20
-0.1252127952755905
11
0.4173485039370078
21
-0.1270875590551181
0
LINE
8
BLACK
6
CONTINUOUS
10
0.4173485039370078
20
-0.1270875590551181
11
0.4175342519685039
21
-0.1273138976377953
0
LINE
8
BLACK
6
CONTINUOUS
10
0.4175342519685039
20
-0.1273138976377953
11
0.4175932677165354
21
-0.1273650787401575
0
LINE
8
BLACK
6
CONTINUOUS
10
0.4175932677165354
20
-0.1273650787401575
11
0.4176492125984252
21
-0.1274540157480315
0
LINE
8
BLACK
6
CONTINUOUS
10
0.4176492125984252
20
-0.1274540157480315
11
0.4177157086614173
21
-0.127535
0
LINE
8
BLACK
6
CONTINUOUS
10
0.4177157086614173
20
-0.127535
11
0.4177455118110236
21
-0.1276069291338583
0
LINE
8
BLACK
6
CONTINUOUS
10
0.4177455118110236
20
-0.1276069291338583
11
0.4179016141732284
21
-0.1278549606299212
0
LINE
8
BLACK
6
CONTINUOUS
10
0.4179016141732284
20
-0.1278549606299212
11
0.4197763779527559
21
-0.1316044881889764
0
LINE
8
BLACK
6
CONTINUOUS
10
0.4197763779527559
20
-0.1316044881889764
11
0.4199832677165354
21
-0.1321450787401575
0
LINE
8
BLACK
6
CONTINUOUS
10
0.4199832677165354
20
-0.1321450787401575
11
0.4199907874015748
21
-0.1322509448818898
0
LINE
8
BLACK
6
CONTINUOUS
10
0.4199907874015748
20
-0.1322509448818898
11
0.4200313779527559
21
-0.132348937007874
0
LINE
8
BLACK
6
CONTINUOUS
10
0.4200313779527559
20
-0.132348937007874
11
0.4200881102362204
21
-0.132925
0
LINE
8
BLACK
6
CONTINUOUS
10
0.4200881102362204
20
-0.132925
11
0.4200881102362204
21
-0.1366745275590551
0
LINE
8
BLACK
6
CONTINUOUS
10
0.4200881102362204
20
-0.1366745275590551
11
0.4200593700787402
21
-0.1369661023622047
0
LINE
8
BLACK
6
CONTINUOUS
10
0.4200593700787402
20
-0.1369661023622047
11
0.4200649212598425
21
-0.1370438582677165
0
LINE
8
BLACK
6
CONTINUOUS
10
0.4200649212598425
20
-0.1370438582677165
11
0.4200416535433071
21
-0.1371461023622047
0
LINE
8
BLACK
6
CONTINUOUS
10
0.4200416535433071
20
-0.1371461023622047
11
0.4200313779527559
21
-0.1372505905511811
0
LINE
8
BLACK
6
CONTINUOUS
10
0.4200313779527559
20
-0.1372505905511811
11
0.4200014960629921
21
-0.1373226377952756
0
LINE
8
BLACK
6
CONTINUOUS
10
0.4200014960629921
20
-0.1373226377952756
11
0.4199365748031496
21
-0.1376083070866142
0
LINE
8
BLACK
6
CONTINUOUS
10
0.4199365748031496
20
-0.1376083070866142
11
0.4180618110236221
21
-0.1432325590551181
0
LINE
8
BLACK
6
CONTINUOUS
10
0.4180618110236221
20
-0.1432325590551181
11
0.4178258267716535
21
-0.1437611417322835
0
LINE
8
BLACK
6
CONTINUOUS
10
0.4178258267716535
20
-0.1437611417322835
11
0.4177563385826771
21
-0.1438412204724409
0
LINE
8
BLACK
6
CONTINUOUS
10
0.4177563385826771
20
-0.1438412204724409
11
0.417715748031496
21
-0.1439392913385827
0
LINE
8
BLACK
6
CONTINUOUS
10
0.417715748031496
20
-0.1439392913385827
11
0.4173485039370078
21
-0.1443867322834646
0
LINE
8
BLACK
6
CONTINUOUS
10
0.4173485039370078
20
-0.1443867322834646
11
0.3998920078740157
21
-0.1618432677165354
0
LINE
8
BLACK
6
CONTINUOUS
10
0.3998920078740157
20
-0.1618432677165354
11
0.4171353543307086
21
-0.1618432677165354
0
LINE
8
BLACK
6
CONTINUOUS
10
0.4171353543307086
20
-0.1618432677165354
11
0.4177114173228346
21
-0.1619
0
LINE
8
BLACK
6
CONTINUOUS
10
0.4177114173228346
20
-0.1619
11
0.4187758267716535
21
-0.162340905511811
0
LINE
8
BLACK
6
CONTINUOUS
10
0.4187758267716535
20
-0.162340905511811
11
0.4195904724409449
21
-0.1631555511811024
0
LINE
8
BLACK
6
CONTINUOUS
10
0.4195904724409449
20
-0.1631555511811024
11
0.4200313779527559
21
-0.1642199606299213
0
LINE
8
BLACK
6
CONTINUOUS
10
0.4200313779527559
20
-0.1642199606299213
11
0.4200313779527559
21
-0.1653720866141732
0
LINE
8
BLACK
6
CONTINUOUS
10
0.4200313779527559
20
-0.1653720866141732
11
0.4195904724409449
21
-0.1664364960629921
0
LINE
8
BLACK
6
CONTINUOUS
10
0.4195904724409449
20
-0.1664364960629921
11
0.4187758267716535
21
-0.1672511417322834
0
LINE
8
BLACK
6
CONTINUOUS
10
0.4187758267716535
20
-0.1672511417322834
11
0.4177114173228346
21
-0.1676920472440945
0
LINE
8
BLACK
6
CONTINUOUS
10
0.4177114173228346
20
-0.1676920472440945
11
0.4171353543307086
21
-0.167748779527559
0
LINE
8
BLACK
6
CONTINUOUS
10
0.4171353543307086
20
-0.167748779527559
11
0.3927634251968504
21
-0.167748779527559
0
LINE
8
BLACK
6
CONTINUOUS
10
0.3927634251968504
20
-0.167748779527559
11
0.3921873622047244
21
-0.1676920472440945
0
LINE
8
BLACK
6
CONTINUOUS
10
0.3921873622047244
20
-0.1676920472440945
11
0.3911229527559055
21
-0.1672511417322834
0
LINE
8
BLACK
6
CONTINUOUS
10
0.3911229527559055
20
-0.1672511417322834
11
0.3903083070866142
21
-0.1664364960629921
0
LINE
8
BLACK
6
CONTINUOUS
10
0.3903083070866142
20
-0.1664364960629921
11
0.3898674015748032
21
-0.1653720866141732
0
LINE
8
BLACK
6
CONTINUOUS
10
0.3898674015748032
20
-0.1653720866141732
11
0.3898674015748032
21
-0.1642199606299213
0
LINE
8
BLACK
6
CONTINUOUS
10
0.3898674015748032
20
-0.1642199606299213
11
0.3903083070866142
21
-0.1631555511811024
0
LINE
8
BLACK
6
CONTINUOUS
10
0.3903083070866142
20
-0.1631555511811024
11
0.3906755118110236
21
-0.1627081102362205
0
LINE
8
BLACK
6
CONTINUOUS
10
0.3906755118110236
20
-0.1627081102362205
11
0.4126797637795275
21
-0.1407037795275591
0
LINE
8
BLACK
6
CONTINUOUS
10
0.4126797637795275
20
-0.1407037795275591
11
0.4141825984251968
21
-0.1361953937007874
0
LINE
8
BLACK
6
CONTINUOUS
10
0.4141825984251968
20
-0.1361953937007874
11
0.4141825984251968
21
-0.1336220472440945
0
LINE
8
BLACK
6
CONTINUOUS
10
0.4141825984251968
20
-0.1336220472440945
11
0.4128338582677165
21
-0.1309245669291338
0
LINE
8
BLACK
6
CONTINUOUS
10
0.4128338582677165
20
-0.1309245669291338
11
0.4116367322834645
21
-0.1297274409448819
0
LINE
8
BLACK
6
CONTINUOUS
10
0.4116367322834645
20
-0.1297274409448819
11
0.4089392519685039
21
-0.1283787007874016
0
LINE
8
BLACK
6
CONTINUOUS
10
0.4089392519685039
20
-0.1283787007874016
11
0.4009595275590551
21
-0.1283787007874016
0
LINE
8
BLACK
6
CONTINUOUS
10
0.4009595275590551
20
-0.1283787007874016
11
0.3982620472440945
21
-0.1297274409448819
0
LINE
8
BLACK
6
CONTINUOUS
10
0.3982620472440945
20
-0.1297274409448819
11
0.3967261023622047
21
-0.1312633858267717
0
LINE
8
BLACK
6
CONTINUOUS
10
0.3967261023622047
20
-0.1312633858267717
11
0.3962786614173228
21
-0.1316305905511811
0
LINE
8
BLACK
6
CONTINUOUS
10
0.3962786614173228
20
-0.1316305905511811
11
0.3952142125984252
21
-0.1320714960629921
0
LINE
8
BLACK
6
CONTINUOUS
10
0.3952142125984252
20
-0.1320714960629921
11
0.3940621653543307
21
-0.1320714960629921
0
LINE
8
BLACK
6
CONTINUOUS
10
0.3940621653543307
20
-0.1320714960629921
11
0.3929977165354331
21
-0.1316305905511811
0
LINE
8
BLACK
6
CONTINUOUS
10
0.3929977165354331
20
-0.1316305905511811
11
0.3921830708661417
21
-0.1308159448818898
0
LINE
8
BLACK
6
CONTINUOUS
10
0.3921830708661417
20
-0.1308159448818898
11
0.3917421653543307
21
-0.1297514960629921
0
LINE
8
BLACK
6
CONTINUOUS
10
0.3917421653543307
20
-0.1297514960629921
11
0.3917421653543307
21
-0.1285994488188976
0
LINE
8
BLACK
6
CONTINUOUS
10
0.3917421653543307
20
-0.1285994488188976
11
0.3921830708661417
21
-0.127535
0
LINE
8
BLACK
6
CONTINUOUS
10
0.3921830708661417
20
-0.127535
11
0.3925502755905512
21
-0.1270875590551181
0
LINE
8
BLACK
6
CONTINUOUS
10
0.3925502755905512
20
-0.1270875590551181
11
0.3944250393700787
21
-0.1252127952755905
0
LINE
8
BLACK
6
CONTINUOUS
10
0.3944250393700787
20
-0.1252127952755905
11
0.3946513779527559
21
-0.1250270078740157
0
LINE
8
BLACK
6
CONTINUOUS
10
0.3946513779527559
20
-0.1250270078740157
11
0.3947025590551181
21
-0.124968031496063
0
LINE
8
BLACK
6
CONTINUOUS
10
0.3947025590551181
20
-0.124968031496063
11
0.3947914960629921
21
-0.1249120472440945
0
LINE
8
BLACK
6
CONTINUOUS
10
0.3947914960629921
20
-0.1249120472440945
11
0.3948724803149606
21
-0.1248455905511811
0
LINE
8
BLACK
6
CONTINUOUS
10
0.3948724803149606
20
-0.1248455905511811
11
0.3949444094488189
21
-0.1248157480314961
0
LINE
8
BLACK
6
CONTINUOUS
10
0.3949444094488189
20
-0.1248157480314961
11
0.3951924409448819
21
-0.1246596850393701
0
LINE
8
BLACK
6
CONTINUOUS
10
0.3951924409448819
20
-0.1246596850393701
11
0.398941968503937
21
-0.1227849212598425
0
LINE
8
BLACK
6
CONTINUOUS
10
0.398941968503937
20
-0.1227849212598425
11
0.3994825590551181
21
-0.122578031496063
0
LINE
8
BLACK
6
CONTINUOUS
10
0.3994825590551181
20
-0.122578031496063
11
0.3995884251968504
21
-0.1225704724409449
0
LINE
8
BLACK
6
CONTINUOUS
10
0.3995884251968504
20
-0.1225704724409449
11
0.3996864173228347
21
-0.1225299212598425
0
LINE
8
BLACK
6
CONTINUOUS
10
0.3996864173228347
20
-0.1225299212598425
11
0.4002624803149606
21
-0.1224731889763779
0
LINE
8
BLACK
6
CONTINUOUS
10
0.4002624803149606
20
-0.1224731889763779
11
0.4096362992125984
21
-0.1224731889763779
0
LINE
8
BLACK
6
CONTINUOUS
10
0.4096362992125984
20
-0.1224731889763779
11
0.4102123622047244
21
-0.1225299212598425
0
LINE
8
BLACK
6
CONTINUOUS
10
0.453331968503937
20
-0.1225299212598425
11
0.4543963779527559
21
-0.1229708267716535
0
LINE
8
BLACK
6
CONTINUOUS
10
0.4543963779527559
20
-0.1229708267716535
11
0.4552110236220472
21
-0.1237854724409449
0
LINE
8
BLACK
6
CONTINUOUS
10
0.4552110236220472
20
-0.1237854724409449
11
0.4556519291338583
21
-0.1248498818897638
0
LINE
8
BLACK
6
CONTINUOUS
10
0.4556519291338583
20
-0.1248498818897638
11
0.4556519291338583
21
-0.1260020078740157
0
LINE
8
BLACK
6
CONTINUOUS
10
0.4556519291338583
20
-0.1260020078740157
11
0.4552110236220472
21
-0.1270664173228346
0
LINE
8
BLACK
6
CONTINUOUS
10
0.4552110236220472
20
-0.1270664173228346
11
0.4543963779527559
21
-0.127881062992126
0
LINE
8
BLACK
6
CONTINUOUS
10
0.4543963779527559
20
-0.127881062992126
11
0.453331968503937
21
-0.128321968503937
0
LINE
8
BLACK
6
CONTINUOUS
10
0.453331968503937
20
-0.128321968503937
11
0.452755905511811
21
-0.1283787007874016
0
LINE
8
BLACK
6
CONTINUOUS
10
0.452755905511811
20
-0.1283787007874016
11
0.4366804724409449
21
-0.1283787007874016
0
LINE
8
BLACK
6
CONTINUOUS
10
0.4366804724409449
20
-0.1283787007874016
11
0.4357033464566929
21
-0.1381499606299213
0
LINE
8
BLACK
6
CONTINUOUS
10
0.4357033464566929
20
-0.1381499606299213
11
0.4364372834645669
21
-0.137783031496063
0
LINE
8
BLACK
6
CONTINUOUS
10
0.4364372834645669
20
-0.137783031496063
11
0.436977874015748
21
-0.1375761417322835
0
LINE
8
BLACK
6
CONTINUOUS
10
0.436977874015748
20
-0.1375761417322835
11
0.4370837401574803
21
-0.1375685826771653
0
LINE
8
BLACK
6
CONTINUOUS
10
0.4370837401574803
20
-0.1375685826771653
11
0.4371817322834646
21
-0.137528031496063
0
LINE
8
BLACK
6
CONTINUOUS
10
0.4371817322834646
20
-0.137528031496063
11
0.4377577952755906
21
-0.1374712992125984
0
LINE
8
BLACK
6
CONTINUOUS
10
0.4377577952755906
20
-0.1374712992125984
11
0.4471316141732283
21
-0.1374712992125984
0
LINE
8
BLACK
6
CONTINUOUS
10
0.4471316141732283
20
-0.1374712992125984
11
0.4477076771653543
21
-0.137528031496063
0
LINE
8
BLACK
6
CONTINUOUS
10
0.4477076771653543
20
-0.137528031496063
11
0.4478056692913386
21
-0.1375686220472441
0
LINE
8
BLACK
6
CONTINUOUS
10
0.4478056692913386
20
-0.1375686220472441
11
0.4479114960629921
21
-0.1375761417322835
0
LINE
8
BLACK
6
CONTINUOUS
10
0.4479114960629921
20
-0.1375761417322835
11
0.4484521259842519
21
-0.137783031496063
0
LINE
8
BLACK
6
CONTINUOUS
10
0.4484521259842519
20
-0.137783031496063
11
0.4522016535433071
21
-0.1396577952755906
0
LINE
8
BLACK
6
CONTINUOUS
10
0.4522016535433071
20
-0.1396577952755906
11
0.4524496456692914
21
-0.1398138582677165
0
LINE
8
BLACK
6
CONTINUOUS
10
0.4524496456692914
20
-0.1398138582677165
11
0.4525216141732283
21
-0.1398437007874016
0
LINE
8
BLACK
6
CONTINUOUS
10
0.4525216141732283
20
-0.1398437007874016
11
0.4526025590551181
21
-0.139910157480315
0
LINE
8
BLACK
6
CONTINUOUS
10
0.4526025590551181
20
-0.139910157480315
11
0.4526915354330708
21
-0.1399661417322835
0
LINE
8
BLACK
6
CONTINUOUS
10
0.4526915354330708
20
-0.1399661417322835
11
0.4527426771653543
21
-0.1400251181102362
0
LINE
8
BLACK
6
CONTINUOUS
10
0.4527426771653543
20
-0.1400251181102362
11
0.4529690551181103
21
-0.140210905511811
0
LINE
8
BLACK
6
CONTINUOUS
10
0.4529690551181103
20
-0.140210905511811
11
0.4548438188976378
21
-0.1420856692913386
0
LINE
8
BLACK
6
CONTINUOUS
10
0.4548438188976378
20
-0.1420856692913386
11
0.4550295669291338
21
-0.1423120078740157
0
LINE
8
BLACK
6
CONTINUOUS
10
0.4550295669291338
20
-0.1423120078740157
11
0.4550885826771653
21
-0.142363188976378
0
LINE
8
BLACK
6
CONTINUOUS
10
0.4550885826771653
20
-0.142363188976378
11
0.4551445275590551
21
-0.142452125984252
0
LINE
8
BLACK
6
CONTINUOUS
10
0.4551445275590551
20
-0.142452125984252
11
0.4552110236220472
21
-0.1425331102362205
0
LINE
8
BLACK
6
CONTINUOUS
10
0.4552110236220472
20
-0.1425331102362205
11
0.4552408267716535
21
-0.1426050393700787
0
LINE
8
BLACK
6
CONTINUOUS
10
0.4552408267716535
20
-0.1426050393700787
11
0.4553969291338583
21
-0.1428530708661417
0
LINE
8
BLACK
6
CONTINUOUS
10
0.4553969291338583
20
-0.1428530708661417
11
0.4572716929133858
21
-0.1466025984251969
0
LINE
8
BLACK
6
CONTINUOUS
10
0.4572716929133858
20
-0.1466025984251969
11
0.4574785826771653
21
-0.147143188976378
0
LINE
8
BLACK
6
CONTINUOUS
10
0.4574785826771653
20
-0.147143188976378
11
0.4574861023622047
21
-0.1472490551181102
0
LINE
8
BLACK
6
CONTINUOUS
10
0.4574861023622047
20
-0.1472490551181102
11
0.4575266929133858
21
-0.1473470472440945
0
LINE
8
BLACK
6
CONTINUOUS
10
0.4575266929133858
20
-0.1473470472440945
11
0.4575834251968504
21
-0.1479231102362205
0
LINE
8
BLACK
6
CONTINUOUS
10
0.4575834251968504
20
-0.1479231102362205
11
0.4575834251968504
21
-0.1572969291338583
0
LINE
8
BLACK
6
CONTINUOUS
10
0.4575834251968504
20
-0.1572969291338583
11
0.4575266929133858
21
-0.1578729921259842
0
LINE
8
BLACK
6
CONTINUOUS
10
0.4575266929133858
20
-0.1578729921259842
11
0.4574861023622047
21
-0.1579709448818898
0
LINE
8
BLACK
6
CONTINUOUS
10
0.4574861023622047
20
-0.1579709448818898
11
0.4574785826771653
21
-0.1580768503937008
0
LINE
8
BLACK
6
CONTINUOUS
10
0.4574785826771653
20
-0.1580768503937008
11
0.4572716929133858
21
-0.1586174409448819
0
LINE
8
BLACK
6
CONTINUOUS
10
0.4572716929133858
20
-0.1586174409448819
11
0.4553969291338583
21
-0.162366968503937
0
LINE
8
BLACK
6
CONTINUOUS
10
0.4553969291338583
20
-0.162366968503937
11
0.4552408661417323
21
-0.162614842519685
0
LINE
8
BLACK
6
CONTINUOUS
10
0.4552408661417323
20
-0.162614842519685
11
0.455211062992126
21
-0.1626868897637795
0
LINE
8
BLACK
6
CONTINUOUS
10
0.455211062992126
20
-0.1626868897637795
11
0.4551445275590551
21
-0.1627679133858268
0
LINE
8
BLACK
6
CONTINUOUS
10
0.4551445275590551
20
-0.1627679133858268
11
0.4550885826771653
21
-0.1628568503937008
0
LINE
8
BLACK
6
CONTINUOUS
10
0.4550885826771653
20
-0.1628568503937008
11
0.4550295669291338
21
-0.1629079921259843
0
LINE
8
BLACK
6
CONTINUOUS
10
0.4550295669291338
20
-0.1629079921259843
11
0.4548438188976378
21
-0.1631343700787402
0
LINE
8
BLACK
6
CONTINUOUS
10
0.4548438188976378
20
-0.1631343700787402
11
0.452969094488189
21
-0.1650091338582677
0
LINE
8
BLACK
6
CONTINUOUS
10
0.452969094488189
20
-0.1650091338582677
11
0.4527427165354331
21
-0.1651948818897638
0
LINE
8
BLACK
6
CONTINUOUS
10
0.4527427165354331
20
-0.1651948818897638
11
0.4526915354330708
21
-0.165253937007874
0
LINE
8
BLACK
6
CONTINUOUS
10
0.4526915354330708
20
-0.165253937007874
11
0.4526025590551181
21
-0.1653099212598425
0
LINE
8
BLACK
6
CONTINUOUS
10
0.4526025590551181
20
-0.1653099212598425
11
0.4525216141732283
21
-0.1653763779527559
0
LINE
8
BLACK
6
CONTINUOUS
10
0.4525216141732283
20
-0.1653763779527559
11
0.4524496456692914
21
-0.1654061811023622
0
LINE
8
BLACK
6
CONTINUOUS
10
0.4524496456692914
20
-0.1654061811023622
11
0.4522016535433071
21
-0.1655622834645669
0
LINE
8
BLACK
6
CONTINUOUS
10
0.4522016535433071
20
-0.1655622834645669
11
0.4484521259842519
21
-0.1674370472440945
0
LINE
8
BLACK
6
CONTINUOUS
10
0.4484521259842519
20
-0.1674370472440945
11
0.4479114960629921
21
-0.167643937007874
0
LINE
8
BLACK
6
CONTINUOUS
10
0.4479114960629921
20
-0.167643937007874
11
0.4478056692913386
21
-0.1676514173228346
0
LINE
8
BLACK
6
CONTINUOUS
10
0.4478056692913386
20
-0.1676514173228346
11
0.4477076771653543
21
-0.1676920472440945
0
LINE
8
BLACK
6
CONTINUOUS
10
0.4477076771653543
20
-0.1676920472440945
11
0.4471316141732283
21
-0.167748779527559
0
LINE
8
BLACK
6
CONTINUOUS
10
0.4471316141732283
20
-0.167748779527559
11
0.4377577952755906
21
-0.167748779527559
0
LINE
8
BLACK
6
CONTINUOUS
10
0.4377577952755906
20
-0.167748779527559
11
0.4371817322834646
21
-0.1676920472440945
0
LINE
8
BLACK
6
CONTINUOUS
10
0.4371817322834646
20
-0.1676920472440945
11
0.4370837401574803
21
-0.1676514566929134
0
LINE
8
BLACK
6
CONTINUOUS
10
0.4370837401574803
20
-0.1676514566929134
11
0.436977874015748
21
-0.167643937007874
0
LINE
8
BLACK
6
CONTINUOUS
10
0.436977874015748
20
-0.167643937007874
11
0.4364372834645669
21
-0.1674370472440945
0
LINE
8
BLACK
6
CONTINUOUS
10
0.4364372834645669
20
-0.1674370472440945
11
0.4326877559055118
21
-0.1655622834645669
0
LINE
8
BLACK
6
CONTINUOUS
10
0.4326877559055118
20
-0.1655622834645669
11
0.4324397244094488
21
-0.1654061811023622
0
LINE
8
BLACK
6
CONTINUOUS
10
0.4324397244094488
20
-0.1654061811023622
11
0.4323677952755905
21
-0.1653763779527559
0
LINE
8
BLACK
6
CONTINUOUS
10
0.4323677952755905
20
-0.1653763779527559
11
0.432286811023622
21
-0.1653099212598425
0
LINE
8
BLACK
6
CONTINUOUS
10
0.432286811023622
20
-0.1653099212598425
11
0.432197874015748
21
-0.165253937007874
0
LINE
8
BLACK
6
CONTINUOUS
10
0.432197874015748
20
-0.165253937007874
11
0.4321466535433071
21
-0.1651948818897638
0
LINE
8
BLACK
6
CONTINUOUS
10
0.4321466535433071
20
-0.1651948818897638
11
0.4319203149606299
21
-0.1650091338582677
0
LINE
8
BLACK
6
CONTINUOUS
10
0.4319203149606299
20
-0.1650091338582677
11
0.4300455511811023
21
-0.1631343307086614
0
LINE
8
BLACK
6
CONTINUOUS
10
0.4300455511811023
20
-0.1631343307086614
11
0.4296783464566929
21
-0.1626868897637795
0
LINE
8
BLACK
6
CONTINUOUS
10
0.4296783464566929
20
-0.1626868897637795
11
0.4292374803149606
21
-0.1616224803149606
0
LINE
8
BLACK
6
CONTINUOUS
10
0.4292374803149606
20
-0.1616224803149606
11
0.4292374803149606
21
-0.1604703937007874
0
LINE
8
BLACK
6
CONTINUOUS
10
0.4292374803149606
20
-0.1604703937007874
11
0.4296783858267716
21
-0.1594059842519685
0
LINE
8
BLACK
6
CONTINUOUS
10
0.4296783858267716
20
-0.1594059842519685
11
0.4304930708661417
21
-0.1585912992125984
0
LINE
8
BLACK
6
CONTINUOUS
10
0.4304930708661417
20
-0.1585912992125984
11
0.4315574803149606
21
-0.1581504330708661
0
LINE
8
BLACK
6
CONTINUOUS
10
0.4315574803149606
20
-0.1581504330708661
11
0.4327095669291339
21
-0.1581504330708661
0
LINE
8
BLACK
6
CONTINUOUS
10
0.4327095669291339
20
-0.1581504330708661
11
0.4337739763779527
21
-0.1585913385826772
0
LINE
8
BLACK
6
CONTINUOUS
10
0.4337739763779527
20
-0.1585913385826772
11
0.4342214566929134
21
-0.1589585826771653
0
LINE
8
BLACK
6
CONTINUOUS
10
0.4342214566929134
20
-0.1589585826771653
11
0.4357573622047244
21
-0.1604945275590551
0
LINE
8
BLACK
6
CONTINUOUS
10
0.4357573622047244
20
-0.1604945275590551
11
0.438454842519685
21
-0.1618432677165354
0
LINE
8
BLACK
6
CONTINUOUS
10
0.438454842519685
20
-0.1618432677165354
11
0.4464345669291339
21
-0.1618432677165354
0
LINE
8
BLACK
6
CONTINUOUS
10
0.4464345669291339
20
-0.1618432677165354
11
0.4491320078740157
21
-0.1604945275590551
0
LINE
8
BLACK
6
CONTINUOUS
10
0.4491320078740157
20
-0.1604945275590551
11
0.4503291338582677
21
-0.1592973622047244
0
LINE
8
BLACK
6
CONTINUOUS
10
0.4503291338582677
20
-0.1592973622047244
11
0.4516779133858267
21
-0.1565998818897638
0
LINE
8
BLACK
6
CONTINUOUS
10
0.4516779133858267
20
-0.1565998818897638
11
0.4516779133858267
21
-0.148620157480315
0
LINE
8
BLACK
6
CONTINUOUS
10
0.4516779133858267
20
-0.148620157480315
11
0.4503291732283464
21
-0.1459226771653543
0
LINE
8
BLACK
6
CONTINUOUS
10
0.4503291732283464
20
-0.1459226771653543
11
0.4491320472440945
21
-0.1447255511811024
0
LINE
8
BLACK
6
CONTINUOUS
10
0.4491320472440945
20
-0.1447255511811024
11
0.4464345669291339
21
-0.143376811023622
0
LINE
8
BLACK
6
CONTINUOUS
10
0.4464345669291339
20
-0.143376811023622
11
0.438454842519685
21
-0.143376811023622
0
LINE
8
BLACK
6
CONTINUOUS
10
0.438454842519685
20
-0.143376811023622
11
0.4357573622047244
21
-0.1447255511811024
0
LINE
8
BLACK
6
CONTINUOUS
10
0.4357573622047244
20
-0.1447255511811024
11
0.4342214173228346
21
-0.1462614960629921
0
LINE
8
BLACK
6
CONTINUOUS
10
0.4342214173228346
20
-0.1462614960629921
11
0.4337739763779527
21
-0.1466287007874016
0
LINE
8
BLACK
6
CONTINUOUS
10
0.4337739763779527
20
-0.1466287007874016
11
0.4336366141732284
21
-0.1466855905511811
0
LINE
8
BLACK
6
CONTINUOUS
10
0.4336366141732284
20
-0.1466855905511811
11
0.4335215354330709
21
-0.1467797637795276
0
LINE
8
BLACK
6
CONTINUOUS
10
0.4335215354330709
20
-0.1467797637795276
11
0.4331081496062992
21
-0.1469044488188976
0
LINE
8
BLACK
6
CONTINUOUS
10
0.4331081496062992
20
-0.1469044488188976
11
0.4327095275590551
21
-0.1470696062992126
0
LINE
8
BLACK
6
CONTINUOUS
10
0.4327095275590551
20
-0.1470696062992126
11
0.432560905511811
21
-0.1470696062992126
0
LINE
8
BLACK
6
CONTINUOUS
10
0.432560905511811
20
-0.1470696062992126
11
0.4324185433070866
21
-0.1471125590551181
0
LINE
8
BLACK
6
CONTINUOUS
10
0.4324185433070866
20
-0.1471125590551181
11
0.4319890157480315
21
-0.1470696062992126
0
LINE
8
BLACK
6
CONTINUOUS
10
0.4319890157480315
20
-0.1470696062992126
11
0.4315574803149606
21
-0.1470696062992126
0
LINE
8
BLACK
6
CONTINUOUS
10
0.4315574803149606
20
-0.1470696062992126
11
0.4314201181102362
21
-0.1470126771653543
0
LINE
8
BLACK
6
CONTINUOUS
10
0.4314201181102362
20
-0.1470126771653543
11
0.431272125984252
21
-0.1469979133858268
0
LINE
8
BLACK
6
CONTINUOUS
10
0.431272125984252
20
-0.1469979133858268
11
0.4308917322834646
21
-0.1467938582677165
0
LINE
8
BLACK
6
CONTINUOUS
10
0.4308917322834646
20
-0.1467938582677165
11
0.430493031496063
21
-0.1466287007874016
0
LINE
8
BLACK
6
CONTINUOUS
10
0.430493031496063
20
-0.1466287007874016
11
0.4303878346456693
21
-0.1465235039370079
0
LINE
8
BLACK
6
CONTINUOUS
10
0.4303878346456693
20
-0.1465235039370079
11
0.4302568897637795
21
-0.1464532677165354
0
LINE
8
BLACK
6
CONTINUOUS
10
0.4302568897637795
20
-0.1464532677165354
11
0.4299836220472441
21
-0.1461192913385827
0
LINE
8
BLACK
6
CONTINUOUS
10
0.4299836220472441
20
-0.1461192913385827
11
0.4296783858267716
21
-0.1458140551181102
0
LINE
8
BLACK
6
CONTINUOUS
10
0.4296783858267716
20
-0.1458140551181102
11
0.4296214566929134
21
-0.1456766929133858
0
LINE
8
BLACK
6
CONTINUOUS
10
0.4296214566929134
20
-0.1456766929133858
11
0.4295273228346457
21
-0.1455616141732284
0
LINE
8
BLACK
6
CONTINUOUS
10
0.4295273228346457
20
-0.1455616141732284
11
0.4294025984251968
21
-0.1451482283464567
0
LINE
8
BLACK
6
CONTINUOUS
10
0.4294025984251968
20
-0.1451482283464567
11
0.4292374803149606
21
-0.1447496062992126
0
LINE
8
BLACK
6
CONTINUOUS
10
0.4292374803149606
20
-0.1447496062992126
11
0.4292374803149606
21
-0.1446009448818898
0
LINE
8
BLACK
6
CONTINUOUS
10
0.4292374803149606
20
-0.1446009448818898
11
0.4291945275590551
21
-0.1444586220472441
0
LINE
8
BLACK
6
CONTINUOUS
10
0.4291945275590551
20
-0.1444586220472441
11
0.4291953937007874
21
-0.1438797637795275
0
LINE
8
BLACK
6
CONTINUOUS
10
0.4291953937007874
20
-0.1438797637795275
11
0.431070157480315
21
-0.125132125984252
0
LINE
8
BLACK
6
CONTINUOUS
10
0.431070157480315
20
-0.125132125984252
11
0.4311122440944882
21
-0.1249221653543307
0
LINE
8
BLACK
6
CONTINUOUS
10
0.4311122440944882
20
-0.1249221653543307
11
0.4311122440944882
21
-0.1248498818897638
0
LINE
8
BLACK
6
CONTINUOUS
10
0.4311122440944882
20
-0.1248498818897638
11
0.4311403149606299
21
-0.1247820472440945
0
LINE
8
BLACK
6
CONTINUOUS
10
0.4311403149606299
20
-0.1247820472440945
11
0.431183937007874
21
-0.1245645669291339
0
LINE
8
BLACK
6
CONTINUOUS
10
0.431183937007874
20
-0.1245645669291339
11
0.4313879527559055
21
-0.1241842519685039
0
LINE
8
BLACK
6
CONTINUOUS
10
0.4313879527559055
20
-0.1241842519685039
11
0.4315531496062992
21
-0.1237854724409449
0
LINE
8
BLACK
6
CONTINUOUS
10
0.4315531496062992
20
-0.1237854724409449
11
0.4316583070866142
21
-0.1236802755905512
0
LINE
8
BLACK
6
CONTINUOUS
10
0.4316583070866142
20
-0.1236802755905512
11
0.4317285826771654
21
-0.1235493307086614
0
LINE
8
BLACK
6
CONTINUOUS
10
0.4317285826771654
20
-0.1235493307086614
11
0.4320625196850393
21
-0.123276062992126
0
LINE
8
BLACK
6
CONTINUOUS
10
0.4320625196850393
20
-0.123276062992126
11
0.4323677952755905
21
-0.1229708267716535
0
LINE
8
BLACK
6
CONTINUOUS
10
0.4323677952755905
20
-0.1229708267716535
11
0.4325051181102362
21
-0.1229138976377953
0
LINE
8
BLACK
6
CONTINUOUS
10
0.4325051181102362
20
-0.1229138976377953
11
0.4326202362204724
21
-0.1228197637795276
0
LINE
8
BLACK
6
CONTINUOUS
10
0.4326202362204724
20
-0.1228197637795276
11
0.4330335039370078
21
-0.1226950393700787
0
LINE
8
BLACK
6
CONTINUOUS
10
0.4330335039370078
20
-0.1226950393700787
11
0.4334322047244095
21
-0.1225299212598425
0
LINE
8
BLACK
6
CONTINUOUS
10
0.4334322047244095
20
-0.1225299212598425
11
0.433652874015748
21
-0.1225081496062992
0
LINE
8
BLACK
6
CONTINUOUS
10
0.433652874015748
20
-0.1225081496062992
11
0.4337232283464567
21
-0.122486968503937
0
LINE
8
BLACK
6
CONTINUOUS
10
0.4337232283464567
20
-0.122486968503937
11
0.4337951968503937
21
-0.1224941338582677
0
LINE
8
BLACK
6
CONTINUOUS
10
0.4337951968503937
20
-0.1224941338582677
11
0.4340082677165354
21
-0.1224731889763779
0
LINE
8
BLACK
6
CONTINUOUS
10
0.4340082677165354
20
-0.1224731889763779
11
0.452755905511811
21
-0.1224731889763779
0
LINE
8
BLACK
6
CONTINUOUS
10
0.452755905511811
20
-0.1224731889763779
11
0.453331968503937
21
-0.1225299212598425
0
LINE
8
BLACK
6
CONTINUOUS
10
0.5133244881889764
20
-0.1356532677165354
11
0.5134224803149606
21
-0.1356938582677165
0
LINE
8
BLACK
6
CONTINUOUS
10
0.5134224803149606
20
-0.1356938582677165
11
0.5135283070866141
21
-0.1357013779527559
0
LINE
8
BLACK
6
CONTINUOUS
10
0.5135283070866141
20
-0.1357013779527559
11
0.514068937007874
21
-0.1359082677165354
0
LINE
8
BLACK
6
CONTINUOUS
10
0.514068937007874
20
-0.1359082677165354
11
0.5178184645669291
21
-0.137783031496063
0
LINE
8
BLACK
6
CONTINUOUS
10
0.5178184645669291
20
-0.137783031496063
11
0.5179148031496063
21
-0.1378436614173228
0
LINE
8
BLACK
6
CONTINUOUS
10
0.5179148031496063
20
-0.1378436614173228
11
0.5179602362204724
21
-0.1378588188976378
0
LINE
8
BLACK
6
CONTINUOUS
10
0.5179602362204724
20
-0.1378588188976378
11
0.5180167716535433
21
-0.1379078346456693
0
LINE
8
BLACK
6
CONTINUOUS
10
0.5180167716535433
20
-0.1379078346456693
11
0.5183083464566929
21
-0.1380913779527559
0
LINE
8
BLACK
6
CONTINUOUS
10
0.5183083464566929
20
-0.1380913779527559
11
0.518372716535433
21
-0.1381655905511811
0
LINE
8
BLACK
6
CONTINUOUS
10
0.518372716535433
20
-0.1381655905511811
11
0.5184370866141732
21
-0.1380913779527559
0
LINE
8
BLACK
6
CONTINUOUS
10
0.5184370866141732
20
-0.1380913779527559
11
0.5187286220472441
21
-0.1379078346456693
0
LINE
8
BLACK
6
CONTINUOUS
10
0.5187286220472441
20
-0.1379078346456693
11
0.5187851968503937
21
-0.1378588188976378
0
LINE
8
BLACK
6
CONTINUOUS
10
0.5187851968503937
20
-0.1378588188976378
11
0.5188305905511811
21
-0.1378436614173228
0
LINE
8
BLACK
6
CONTINUOUS
10
0.5188305905511811
20
-0.1378436614173228
11
0.518926968503937
21
-0.137783031496063
0
LINE
8
BLACK
6
CONTINUOUS
10
0.518926968503937
20
-0.137783031496063
11
0.5226764960629922
21
-0.1359082677165354
0
LINE
8
BLACK
6
CONTINUOUS
10
0.5226764960629922
20
-0.1359082677165354
11
0.5232170866141732
21
-0.1357013779527559
0
LINE
8
BLACK
6
CONTINUOUS
10
0.5232170866141732
20
-0.1357013779527559
11
0.5233229527559055
21
-0.1356938188976378
0
LINE
8
BLACK
6
CONTINUOUS
10
0.5233229527559055
20
-0.1356938188976378
11
0.5234209448818897
21
-0.1356532677165354
0
LINE
8
BLACK
6
CONTINUOUS
10
0.5234209448818897
20
-0.1356532677165354
11
0.5239970078740157
21
-0.1355965354330709
0
LINE
8
BLACK
6
CONTINUOUS
10
0.5239970078740157
20
-0.1355965354330709
11
0.5296212992125984
21
-0.1355965354330709
0
LINE
8
BLACK
6
CONTINUOUS
10
0.5296212992125984
20
-0.1355965354330709
11
0.5301973622047244
21
-0.1356532677165354
0
LINE
8
BLACK
6
CONTINUOUS
10
0.5301973622047244
20
-0.1356532677165354
11
0.5302953543307086
21
-0.1356938582677165
0
LINE
8
BLACK
6
CONTINUOUS
10
0.5302953543307086
20
-0.1356938582677165
11
0.5304011811023622
21
-0.1357013779527559
0
LINE
8
BLACK
6
CONTINUOUS
10
0.5304011811023622
20
-0.1357013779527559
11
0.530941811023622
21
-0.1359082677165354
0
LINE
8
BLACK
6
CONTINUOUS
10
0.530941811023622
20
-0.1359082677165354
11
0.5346913779527559
21
-0.137783031496063
0
LINE
8
BLACK
6
CONTINUOUS
10
0.5346913779527559
20
-0.137783031496063
11
0.5347876771653544
21
-0.1378436614173228
0
LINE
8
BLACK
6
CONTINUOUS
10
0.5347876771653544
20
-0.1378436614173228
11
0.5348331496062992
21
-0.1378588188976378
0
LINE
8
BLACK
6
CONTINUOUS
10
0.5348331496062992
20
-0.1378588188976378
11
0.5348897244094488
21
-0.137907874015748
0
LINE
8
BLACK
6
CONTINUOUS
10
0.5348897244094488
20
-0.137907874015748
11
0.5351812204724409
21
-0.1380913779527559
0
LINE
8
BLACK
6
CONTINUOUS
10
0.5351812204724409
20
-0.1380913779527559
11
0.5354237007874015
21
-0.1383709842519685
0
LINE
8
BLACK
6
CONTINUOUS
10
0.5354237007874015
20
-0.1383709842519685
11
0.5357035433070866
21
-0.1386136614173228
0
LINE
8
BLACK
6
CONTINUOUS
10
0.5357035433070866
20
-0.1386136614173228
11
0.5358870472440945
21
-0.1389051968503937
0
LINE
8
BLACK
6
CONTINUOUS
10
0.5358870472440945
20
-0.1389051968503937
11
0.5359361023622047
21
-0.1389617716535433
0
LINE
8
BLACK
6
CONTINUOUS
10
0.5359361023622047
20
-0.1389617716535433
11
0.5359512204724409
21
-0.1390071653543307
0
LINE
8
BLACK
6
CONTINUOUS
10
0.5359512204724409
20
-0.1390071653543307
11
0.5360118897637796
21
-0.1391035433070866
0
LINE
8
BLACK
6
CONTINUOUS
10
0.5360118897637796
20
-0.1391035433070866
11
0.5378866535433071
21
-0.1428530708661417
0
LINE
8
BLACK
6
CONTINUOUS
10
0.5378866535433071
20
-0.1428530708661417
11
0.5380935433070866
21
-0.1433936614173228
0
LINE
8
BLACK
6
CONTINUOUS
10
0.5380935433070866
20
-0.1433936614173228
11
0.538101062992126
21
-0.1434995275590551
0
LINE
8
BLACK
6
CONTINUOUS
10
0.538101062992126
20
-0.1434995275590551
11
0.5381416535433071
21
-0.1435975196850394
0
LINE
8
BLACK
6
CONTINUOUS
10
0.5381416535433071
20
-0.1435975196850394
11
0.5381983858267716
21
-0.1441735826771653
0
LINE
8
BLACK
6
CONTINUOUS
10
0.5381983858267716
20
-0.1441735826771653
11
0.5381983858267716
21
-0.1647960236220472
0
LINE
8
BLACK
6
CONTINUOUS
10
0.5381983858267716
20
-0.1647960236220472
11
0.5381416535433071
21
-0.1653720866141732
0
LINE
8
BLACK
6
CONTINUOUS
10
0.5381416535433071
20
-0.1653720866141732
11
0.537700748031496
21
-0.1664364960629921
0
LINE
8
BLACK
6
CONTINUOUS
10
0.537700748031496
20
-0.1664364960629921
11
0.5368861023622047
21
-0.1672511417322834
0
LINE
8
BLACK
6
CONTINUOUS
10
0.5368861023622047
20
-0.1672511417322834
11
0.5358216929133858
21
-0.1676920472440945
0
LINE
8
BLACK
6
CONTINUOUS
10
0.5358216929133858
20
-0.1676920472440945
11
0.5346695669291338
21
-0.1676920472440945
0
LINE
8
BLACK
6
CONTINUOUS
10
0.5346695669291338
20
-0.1676920472440945
11
0.5336051574803149
21
-0.1672511417322834
0
LINE
8
BLACK
6
CONTINUOUS
10
0.5336051574803149
20
-0.1672511417322834
11
0.5327905118110237
21
-0.1664364960629921
0
LINE
8
BLACK
6
CONTINUOUS
10
0.5327905118110237
20
-0.1664364960629921
11
0.5323496062992126
21
-0.1653720866141732
0
LINE
8
BLACK
6
CONTINUOUS
10
0.5323496062992126
20
-0.1653720866141732
11
0.532292874015748
21
-0.1647960236220472
0
LINE
8
BLACK
6
CONTINUOUS
10
0.532292874015748
20
-0.1647960236220472
11
0.532292874015748
21
-0.1448706299212598
0
LINE
8
BLACK
6
CONTINUOUS
10
0.532292874015748
20
-0.1448706299212598
11
0.53117
21
-0.1426248818897638
0
LINE
8
BLACK
6
CONTINUOUS
10
0.53117
20
-0.1426248818897638
11
0.5289242519685039
21
-0.1415020472440945
0
LINE
8
BLACK
6
CONTINUOUS
10
0.5289242519685039
20
-0.1415020472440945
11
0.5246940551181102
21
-0.1415020472440945
0
LINE
8
BLACK
6
CONTINUOUS
10
0.5246940551181102
20
-0.1415020472440945
11
0.5224483070866142
21
-0.1426248818897638
0
LINE
8
BLACK
6
CONTINUOUS
10
0.5224483070866142
20
-0.1426248818897638
11
0.5213254724409448
21
-0.1448706299212598
0
LINE
8
BLACK
6
CONTINUOUS
10
0.5213254724409448
20
-0.1448706299212598
11
0.5213254724409448
21
-0.1647960236220472
0
LINE
8
BLACK
6
CONTINUOUS
10
0.5213254724409448
20
-0.1647960236220472
11
0.5212687401574803
21
-0.1653720866141732
0
LINE
8
BLACK
6
CONTINUOUS
10
0.5212687401574803
20
-0.1653720866141732
11
0.5208278346456693
21
-0.1664364960629921
0
LINE
8
BLACK
6
CONTINUOUS
10
0.5208278346456693
20
-0.1664364960629921
11
0.5200131889763779
21
-0.1672511417322834
0
LINE
8
BLACK
6
CONTINUOUS
10
0.5200131889763779
20
-0.1672511417322834
11
0.518948779527559
21
-0.1676920472440945
0
LINE
8
BLACK
6
CONTINUOUS
10
0.518948779527559
20
-0.1676920472440945
11
0.5177966535433071
21
-0.1676920472440945
0
LINE
8
BLACK
6
CONTINUOUS
10
0.5177966535433071
20
-0.1676920472440945
11
0.5167322440944881
21
-0.1672511417322834
0
LINE
8
BLACK
6
CONTINUOUS
10
0.5167322440944881
20
-0.1672511417322834
11
0.5159175984251968
21
-0.1664364960629921
0
LINE
8
BLACK
6
CONTINUOUS
10
0.5159175984251968
20
-0.1664364960629921
11
0.5154766929133858
21
-0.1653720866141732
0
LINE
8
BLACK
6
CONTINUOUS
10
0.5154766929133858
20
-0.1653720866141732
11
0.5154199606299212
21
-0.1647960236220472
0
LINE
8
BLACK
6
CONTINUOUS
10
0.5154199606299212
20
-0.1647960236220472
11
0.5154199606299212
21
-0.1448706299212598
0
LINE
8
BLACK
6
CONTINUOUS
10
0.5154199606299212
20
-0.1448706299212598
11
0.5142970866141732
21
-0.1426248818897638
0
LINE
8
BLACK
6
CONTINUOUS
10
0.5142970866141732
20
-0.1426248818897638
11
0.5120513779527559
21
-0.1415020472440945
0
LINE
8
BLACK
6
CONTINUOUS
10
0.5120513779527559
20
-0.1415020472440945
11
0.5078211811023622
21
-0.1415020472440945
0
LINE
8
BLACK
6
CONTINUOUS
10
0.5078211811023622
20
-0.1415020472440945
11
0.5051237007874015
21
-0.1428507874015748
0
LINE
8
BLACK
6
CONTINUOUS
10
0.5051237007874015
20
-0.1428507874015748
11
0.5044525984251969
21
-0.1435218897637795
0
LINE
8
BLACK
6
CONTINUOUS
10
0.5044525984251969
20
-0.1435218897637795
11
0.5044525984251969
21
-0.1647960236220472
0
LINE
8
BLACK
6
CONTINUOUS
10
0.5044525984251969
20
-0.1647960236220472
11
0.5043958661417323
21
-0.1653720866141732
0
LINE
8
BLACK
6
CONTINUOUS
10
0.5043958661417323
20
-0.1653720866141732
11
0.5039549606299213
21
-0.1664364960629921
0
LINE
8
BLACK
6
CONTINUOUS
10
0.5039549606299213
20
-0.1664364960629921
11
0.5031403149606299
21
-0.1672511417322834
0
LINE
8
BLACK
6
CONTINUOUS
10
0.5031403149606299
20
-0.1672511417322834
11
0.502075905511811
21
-0.1676920472440945
0
LINE
8
BLACK
6
CONTINUOUS
10
0.502075905511811
20
-0.1676920472440945
11
0.5009237795275591
21
-0.1676920472440945
0
LINE
8
BLACK
6
CONTINUOUS
10
0.5009237795275591
20
-0.1676920472440945
11
0.4998593700787402
21
-0.1672511417322834
0
LINE
8
BLACK
6
CONTINUOUS
10
0.4998593700787402
20
-0.1672511417322834
11
0.4990447244094488
21
-0.1664364960629921
0
LINE
8
BLACK
6
CONTINUOUS
10
0.4990447244094488
20
-0.1664364960629921
11
0.4986038188976378
21
-0.1653720866141732
0
LINE
8
BLACK
6
CONTINUOUS
10
0.4986038188976378
20
-0.1653720866141732
11
0.4985470866141732
21
-0.1647960236220472
0
LINE
8
BLACK
6
CONTINUOUS
10
0.4985470866141732
20
-0.1647960236220472
11
0.4985470866141732
21
-0.1385492913385827
0
LINE
8
BLACK
6
CONTINUOUS
10
0.4985470866141732
20
-0.1385492913385827
11
0.4986038188976378
21
-0.1379732283464567
0
LINE
8
BLACK
6
CONTINUOUS
10
0.4986038188976378
20
-0.1379732283464567
11
0.4990447244094488
21
-0.1369088188976378
0
LINE
8
BLACK
6
CONTINUOUS
10
0.4990447244094488
20
-0.1369088188976378
11
0.4998593700787402
21
-0.1360941732283465
0
LINE
8
BLACK
6
CONTINUOUS
10
0.4998593700787402
20
-0.1360941732283465
11
0.5009237795275591
21
-0.1356532677165354
0
LINE
8
BLACK
6
CONTINUOUS
10
0.5009237795275591
20
-0.1356532677165354
11
0.502075905511811
21
-0.1356532677165354
0
LINE
8
BLACK
6
CONTINUOUS
10
0.502075905511811
20
-0.1356532677165354
11
0.5031403149606299
21
-0.1360941732283465
0
LINE
8
BLACK
6
CONTINUOUS
10
0.5031403149606299
20
-0.1360941732283465
11
0.5039041338582677
21
-0.1368579921259843
0
LINE
8
BLACK
6
CONTINUOUS
10
0.5039041338582677
20
-0.1368579921259843
11
0.5058036220472441
21
-0.1359082677165354
0
LINE
8
BLACK
6
CONTINUOUS
10
0.5058036220472441
20
-0.1359082677165354
11
0.5063442125984252
21
-0.1357013779527559
0
LINE
8
BLACK
6
CONTINUOUS
10
0.5063442125984252
20
-0.1357013779527559
11
0.5064500787401575
21
-0.1356938188976378
0
LINE
8
BLACK
6
CONTINUOUS
10
0.5064500787401575
20
-0.1356938188976378
11
0.5065480708661417
21
-0.1356532677165354
0
LINE
8
BLACK
6
CONTINUOUS
10
0.5065480708661417
20
-0.1356532677165354
11
0.5071241338582677
21
-0.1355965354330709
0
LINE
8
BLACK
6
CONTINUOUS
10
0.5071241338582677
20
-0.1355965354330709
11
0.5127484251968504
21
-0.1355965354330709
0
LINE
8
BLACK
6
CONTINUOUS
10
0.5127484251968504
20
-0.1355965354330709
11
0.5133244881889764
21
-0.1356532677165354
0
LINE
8
BLACK
6
CONTINUOUS
10
0.5658179133858268
20
-0.1356532677165354
11
0.565915905511811
21
-0.1356938582677165
0
LINE
8
BLACK
6
CONTINUOUS
10
0.565915905511811
20
-0.1356938582677165
11
0.5660217322834645
21
-0.1357013779527559
0
LINE
8
BLACK
6
CONTINUOUS
10
0.5660217322834645
20
-0.1357013779527559
11
0.5665623622047244
21
-0.1359082677165354
0
LINE
8
BLACK
6
CONTINUOUS
10
0.5665623622047244
20
-0.1359082677165354
11
0.5703118897637796
21
-0.137783031496063
0
LINE
8
BLACK
6
CONTINUOUS
10
0.5703118897637796
20
-0.137783031496063
11
0.5704082283464567
21
-0.1378436614173228
0
LINE
8
BLACK
6
CONTINUOUS
10
0.5704082283464567
20
-0.1378436614173228
11
0.5704536614173228
21
-0.1378588188976378
0
LINE
8
BLACK
6
CONTINUOUS
10
0.5704536614173228
20
-0.1378588188976378
11
0.5705101968503937
21
-0.1379078346456693
0
LINE
8
BLACK
6
CONTINUOUS
10
0.5705101968503937
20
-0.1379078346456693
11
0.5708017716535433
21
-0.1380913779527559
0
LINE
8
BLACK
6
CONTINUOUS
10
0.5708017716535433
20
-0.1380913779527559
11
0.5708661417322834
21
-0.1381655905511811
0
LINE
8
BLACK
6
CONTINUOUS
10
0.5708661417322834
20
-0.1381655905511811
11
0.5709305118110236
21
-0.1380913779527559
0
LINE
8
BLACK
6
CONTINUOUS
10
0.5709305118110236
20
-0.1380913779527559
11
0.5712220472440944
21
-0.1379078346456693
0
LINE
8
BLACK
6
CONTINUOUS
10
0.5712220472440944
20
-0.1379078346456693
11
0.5712786220472441
21
-0.1378588188976378
0
LINE
8
BLACK
6
CONTINUOUS
10
0.5712786220472441
20
-0.1378588188976378
11
0.5713240157480315
21
-0.1378436614173228
0
LINE
8
BLACK
6
CONTINUOUS
10
0.5713240157480315
20
-0.1378436614173228
11
0.5714203937007873
21
-0.137783031496063
0
LINE
8
BLACK
6
CONTINUOUS
10
0.5714203937007873
20
-0.137783031496063
11
0.5751699212598425
21
-0.1359082677165354
0
LINE
8
BLACK
6
CONTINUOUS
10
0.5751699212598425
20
-0.1359082677165354
11
0.5757105118110236
21
-0.1357013779527559
0
LINE
8
BLACK
6
CONTINUOUS
10
0.5757105118110236
20
-0.1357013779527559
11
0.5758163779527559
21
-0.1356938188976378
0
LINE
8
BLACK
6
CONTINUOUS
10
0.5758163779527559
20
-0.1356938188976378
11
0.5759143700787401
21
-0.1356532677165354
0
LINE
8
BLACK
6
CONTINUOUS
10
0.5759143700787401
20
-0.1356532677165354
11
0.5764904330708661
21
-0.1355965354330709
0
LINE
8
BLACK
6
CONTINUOUS
10
0.5764904330708661
20
-0.1355965354330709
11
0.5821147244094488
21
-0.1355965354330709
0
LINE
8
BLACK
6
CONTINUOUS
10
0.5821147244094488
20
-0.1355965354330709
11
0.5826907874015748
21
-0.1356532677165354
0
LINE
8
BLACK
6
CONTINUOUS
10
0.5826907874015748
20
-0.1356532677165354
11
0.582788779527559
21
-0.1356938582677165
0
LINE
8
BLACK
6
CONTINUOUS
10
0.582788779527559
20
-0.1356938582677165
11
0.5828946062992126
21
-0.1357013779527559
0
LINE
8
BLACK
6
CONTINUOUS
10
0.5828946062992126
20
-0.1357013779527559
11
0.5834352362204724
21
-0.1359082677165354
0
LINE
8
BLACK
6
CONTINUOUS
10
0.5834352362204724
20
-0.1359082677165354
11
0.5871848031496063
21
-0.137783031496063
0
LINE
8
BLACK
6
CONTINUOUS
10
0.5871848031496063
20
-0.137783031496063
11
0.5872811023622048
21
-0.1378436614173228
0
LINE
8
BLACK
6
CONTINUOUS
10
0.5872811023622048
20
-0.1378436614173228
11
0.5873265748031496
21
-0.1378588188976378
0
LINE
8
BLACK
6
CONTINUOUS
10
0.5873265748031496
20
-0.1378588188976378
11
0.5873831496062992
21
-0.137907874015748
0
LINE
8
BLACK
6
CONTINUOUS
10
0.5873831496062992
20
-0.137907874015748
11
0.5876746456692913
21
-0.1380913779527559
0
LINE
8
BLACK
6
CONTINUOUS
10
0.5876746456692913
20
-0.1380913779527559
11
0.5879171259842519
21
-0.1383709842519685
0
LINE
8
BLACK
6
CONTINUOUS
10
0.5879171259842519
20
-0.1383709842519685
11
0.588196968503937
21
-0.1386136614173228
0
LINE
8
BLACK
6
CONTINUOUS
10
0.588196968503937
20
-0.1386136614173228
11
0.5883804724409448
21
-0.1389051968503937
0
LINE
8
BLACK
6
CONTINUOUS
10
0.5883804724409448
20
-0.1389051968503937
11
0.5884295275590551
21
-0.1389617716535433
0
LINE
8
BLACK
6
CONTINUOUS
10
0.5884295275590551
20
-0.1389617716535433
11
0.5884446456692913
21
-0.1390071653543307
0
LINE
8
BLACK
6
CONTINUOUS
10
0.5884446456692913
20
-0.1390071653543307
11
0.5885053149606299
21
-0.1391035433070866
0
LINE
8
BLACK
6
CONTINUOUS
10
0.5885053149606299
20
-0.1391035433070866
11
0.5903800787401575
21
-0.1428530708661417
0
LINE
8
BLACK
6
CONTINUOUS
10
0.5903800787401575
20
-0.1428530708661417
11
0.590586968503937
21
-0.1433936614173228
0
LINE
8
BLACK
6
CONTINUOUS
10
0.590586968503937
20
-0.1433936614173228
11
0.5905944881889764
21
-0.1434995275590551
0
LINE
8
BLACK
6
CONTINUOUS
10
0.5905944881889764
20
-0.1434995275590551
11
0.5906350787401574
21
-0.1435975196850394
0
LINE
8
BLACK
6
CONTINUOUS
10
0.5906350787401574
20
-0.1435975196850394
11
0.590691811023622
21
-0.1441735826771653
0
LINE
8
BLACK
6
CONTINUOUS
10
0.590691811023622
20
-0.1441735826771653
11
0.590691811023622
21
-0.1647960236220472
0
LINE
8
BLACK
6
CONTINUOUS
10
0.590691811023622
20
-0.1647960236220472
11
0.5906350787401574
21
-0.1653720866141732
0
LINE
8
BLACK
6
CONTINUOUS
10
0.5906350787401574
20
-0.1653720866141732
11
0.5901941732283464
21
-0.1664364960629921
0
LINE
8
BLACK
6
CONTINUOUS
10
0.5901941732283464
20
-0.1664364960629921
11
0.5893795275590551
21
-0.1672511417322834
0
LINE
8
BLACK
6
CONTINUOUS
10
0.5893795275590551
20
-0.1672511417322834
11
0.5883151181102362
21
-0.1676920472440945
0
LINE
8
BLACK
6
CONTINUOUS
10
0.5883151181102362
20
-0.1676920472440945
11
0.5871629921259842
21
-0.1676920472440945
0
LINE
8
BLACK
6
CONTINUOUS
10
0.5871629921259842
20
-0.1676920472440945
11
0.5860985826771653
21
-0.1672511417322834
0
LINE
8
BLACK
6
CONTINUOUS
10
0.5860985826771653
20
-0.1672511417322834
11
0.585283937007874
21
-0.1664364960629921
0
LINE
8
BLACK
6
CONTINUOUS
10
0.585283937007874
20
-0.1664364960629921
11
0.584843031496063
21
-0.1653720866141732
0
LINE
8
BLACK
6
CONTINUOUS
10
0.584843031496063
20
-0.1653720866141732
11
0.5847862992125984
21
-0.1647960236220472
0
LINE
8
BLACK
6
CONTINUOUS
10
0.5847862992125984
20
-0.1647960236220472
11
0.5847862992125984
21
-0.1448706299212598
0
LINE
8
BLACK
6
CONTINUOUS
10
0.5847862992125984
20
-0.1448706299212598
11
0.5836634251968503
21
-0.1426248818897638
0
LINE
8
BLACK
6
CONTINUOUS
10
0.5836634251968503
20
-0.1426248818897638
11
0.5814176771653543
21
-0.1415020472440945
0
LINE
8
BLACK
6
CONTINUOUS
10
0.5814176771653543
20
-0.1415020472440945
11
0.5771874803149606
21
-0.1415020472440945
0
LINE
8
BLACK
6
CONTINUOUS
10
0.5771874803149606
20
-0.1415020472440945
11
0.5749417322834646
21
-0.1426248818897638
0
LINE
8
BLACK
6
CONTINUOUS
10
0.5749417322834646
20
-0.1426248818897638
11
0.5738188976377953
21
-0.1448706299212598
0
LINE
8
BLACK
6
CONTINUOUS
10
0.5738188976377953
20
-0.1448706299212598
11
0.5738188976377953
21
-0.1647960236220472
0
LINE
8
BLACK
6
CONTINUOUS
10
0.5738188976377953
20
-0.1647960236220472
11
0.5737621653543307
21
-0.1653720866141732
0
LINE
8
BLACK
6
CONTINUOUS
10
0.5737621653543307
20
-0.1653720866141732
11
0.5733212598425197
21
-0.1664364960629921
0
LINE
8
BLACK
6
CONTINUOUS
10
0.5733212598425197
20
-0.1664364960629921
11
0.5725066141732283
21
-0.1672511417322834
0
LINE
8
BLACK
6
CONTINUOUS
10
0.5725066141732283
20
-0.1672511417322834
11
0.5714422047244094
21
-0.1676920472440945
0
LINE
8
BLACK
6
CONTINUOUS
10
0.5714422047244094
20
-0.1676920472440945
11
0.5702900787401575
21
-0.1676920472440945
0
LINE
8
BLACK
6
CONTINUOUS
10
0.5702900787401575
20
-0.1676920472440945
11
0.5692256692913386
21
-0.1672511417322834
0
LINE
8
BLACK
6
CONTINUOUS
10
0.5692256692913386
20
-0.1672511417322834
11
0.5684110236220472
21
-0.1664364960629921
0
LINE
8
BLACK
6
CONTINUOUS
10
0.5684110236220472
20
-0.1664364960629921
11
0.5679701181102362
21
-0.1653720866141732
0
LINE
8
BLACK
6
CONTINUOUS
10
0.5679701181102362
20
-0.1653720866141732
11
0.5679133858267716
21
-0.1647960236220472
0
LINE
8
BLACK
6
CONTINUOUS
10
0.5679133858267716
20
-0.1647960236220472
11
0.5679133858267716
21
-0.1448706299212598
0
LINE
8
BLACK
6
CONTINUOUS
10
0.5679133858267716
20
-0.1448706299212598
11
0.5667905118110236
21
-0.1426248818897638
0
LINE
8
BLACK
6
CONTINUOUS
10
0.5667905118110236
20
-0.1426248818897638
11
0.5645448031496063
21
-0.1415020472440945
0
LINE
8
BLACK
6
CONTINUOUS
10
0.5645448031496063
20
-0.1415020472440945
11
0.5603146062992126
21
-0.1415020472440945
0
LINE
8
BLACK
6
CONTINUOUS
10
0.5603146062992126
20
-0.1415020472440945
11
0.5576171259842519
21
-0.1428507874015748
0
LINE
8
BLACK
6
CONTINUOUS
10
0.5576171259842519
20
-0.1428507874015748
11
0.5569460236220473
21
-0.1435218897637795
0
LINE
8
BLACK
6
CONTINUOUS
10
0.5569460236220473
20
-0.1435218897637795
11
0.5569460236220473
21
-0.1647960236220472
0
LINE
8
BLACK
6
CONTINUOUS
10
0.5569460236220473
20
-0.1647960236220472
11
0.5568892913385827
21
-0.1653720866141732
0
LINE
8
BLACK
6
CONTINUOUS
10
0.5568892913385827
20
-0.1653720866141732
11
0.5564483858267716
21
-0.1664364960629921
0
LINE
8
BLACK
6
CONTINUOUS
10
0.5564483858267716
20
-0.1664364960629921
11
0.5556337401574803
21
-0.1672511417322834
0
LINE
8
BLACK
6
CONTINUOUS
10
0.5556337401574803
20
-0.1672511417322834
11
0.5545693307086614
21
-0.1676920472440945
0
LINE
8
BLACK
6
CONTINUOUS
10
0.5545693307086614
20
-0.1676920472440945
11
0.5534172047244095
21
-0.1676920472440945
0
LINE
8
BLACK
6
CONTINUOUS
10
0.5534172047244095
20
-0.1676920472440945
11
0.5523527952755906
21
-0.1672511417322834
0
LINE
8
BLACK
6
CONTINUOUS
10
0.5523527952755906
20
-0.1672511417322834
11
0.5515381496062992
21
-0.1664364960629921
0
LINE
8
BLACK
6
CONTINUOUS
10
0.5515381496062992
20
-0.1664364960629921
11
0.5510972440944881
21
-0.1653720866141732
0
LINE
8
BLACK
6
CONTINUOUS
10
0.5510972440944881
20
-0.1653720866141732
11
0.5510405118110236
21
-0.1647960236220472
0
LINE
8
BLACK
6
CONTINUOUS
10
0.5510405118110236
20
-0.1647960236220472
11
0.5510405118110236
21
-0.1385492913385827
0
LINE
8
BLACK
6
CONTINUOUS
10
0.5510405118110236
20
-0.1385492913385827
11
0.5510972440944881
21
-0.1379732283464567
0
LINE
8
BLACK
6
CONTINUOUS
10
0.5510972440944881
20
-0.1379732283464567
11
0.5515381496062992
21
-0.1369088188976378
0
LINE
8
BLACK
6
CONTINUOUS
10
0.5515381496062992
20
-0.1369088188976378
11
0.5523527952755906
21
-0.1360941732283465
0
LINE
8
BLACK
6
CONTINUOUS
10
0.5523527952755906
20
-0.1360941732283465
11
0.5534172047244095
21
-0.1356532677165354
0
LINE
8
BLACK
6
CONTINUOUS
10
0.5534172047244095
20
-0.1356532677165354
11
0.5545693307086614
21
-0.1356532677165354
0
LINE
8
BLACK
6
CONTINUOUS
10
0.5545693307086614
20
-0.1356532677165354
11
0.5556337401574803
21
-0.1360941732283465
0
LINE
8
BLACK
6
CONTINUOUS
10
0.5556337401574803
20
-0.1360941732283465
11
0.5563975590551181
21
-0.1368579921259843
0
LINE
8
BLACK
6
CONTINUOUS
10
0.5563975590551181
20
-0.1368579921259843
11
0.5582970472440945
21
-0.1359082677165354
0
LINE
8
BLACK
6
CONTINUOUS
10
0.5582970472440945
20
-0.1359082677165354
11
0.5588376377952756
21
-0.1357013779527559
0
LINE
8
BLACK
6
CONTINUOUS
10
0.5588376377952756
20
-0.1357013779527559
11
0.5589435039370079
21
-0.1356938188976378
0
LINE
8
BLACK
6
CONTINUOUS
10
0.5589435039370079
20
-0.1356938188976378
11
0.5590414960629921
21
-0.1356532677165354
0
LINE
8
BLACK
6
CONTINUOUS
10
0.5590414960629921
20
-0.1356532677165354
11
0.5596175590551181
21
-0.1355965354330709
0
LINE
8
BLACK
6
CONTINUOUS
10
0.5596175590551181
20
-0.1355965354330709
11
0.5652418503937008
21
-0.1355965354330709
0
LINE
8
BLACK
6
CONTINUOUS
10
0.5652418503937008
20
-0.1355965354330709
11
0.5658179133858268
21
-0.1356532677165354
0
LINE
8
BLACK
6
CONTINUOUS
10
1.111281653543307
20
0.9073304724409449
11
1.1123470078740156
21
0.9062651181102362
0
LINE
8
BLACK
6
CONTINUOUS
10
1.1123470078740156
20
0.9062651181102362
11
1.1123470078740156
21
0.9047585039370079
0
LINE
8
BLACK
6
CONTINUOUS
10
1.1123470078740156
20
0.9047585039370079
11
1.111281653543307
21
0.9036931496062992
0
LINE
8
BLACK
6
CONTINUOUS
10
1.111281653543307
20
0.9036931496062992
11
1.1105283464566928
21
0.9035433070866141
0
LINE
8
BLACK
6
CONTINUOUS
10
1.1105283464566928
20
0.9035433070866141
11
1.0906849606299212
21
0.9035433070866141
0
LINE
8
BLACK
6
CONTINUOUS
10
1.0906849606299212
20
0.9035433070866141
11
1.1122744488188976
21
0.8620702362204724
0
LINE
8
BLACK
6
CONTINUOUS
10
1.1122744488188976
20
0.8620702362204724
11
1.1124894094488189
21
0.8613328346456692
0
LINE
8
BLACK
6
CONTINUOUS
10
1.1124894094488189
20
0.8613328346456692
11
1.112036338582677
21
0.8598959448818897
0
LINE
8
BLACK
6
CONTINUOUS
10
1.112036338582677
20
0.8598959448818897
11
1.1106999606299213
21
0.8592002755905511
0
LINE
8
BLACK
6
CONTINUOUS
10
1.1106999606299213
20
0.8592002755905511
11
1.109263031496063
21
0.8596533070866141
0
LINE
8
BLACK
6
CONTINUOUS
10
1.109263031496063
20
0.8596533070866141
11
1.1087822834645669
21
0.8602523228346457
0
LINE
8
BLACK
6
CONTINUOUS
10
1.1087822834645669
20
0.8602523228346457
11
1.0894094488188977
21
0.8974672047244094
0
LINE
8
BLACK
6
CONTINUOUS
10
1.0894094488188977
20
0.8974672047244094
11
1.0894094488188977
21
0.0080446456692913
0
LINE
8
BLACK
6
CONTINUOUS
10
1.0894094488188977
20
0.0080446456692913
11
1.1087822834645669
21
0.0452594881889764
0
LINE
8
BLACK
6
CONTINUOUS
10
1.1087822834645669
20
0.0452594881889764
11
1.109263031496063
21
0.0458585039370079
0
LINE
8
BLACK
6
CONTINUOUS
10
1.109263031496063
20
0.0458585039370079
11
1.1106999606299213
21
0.0463115354330709
0
LINE
8
BLACK
6
CONTINUOUS
10
1.1106999606299213
20
0.0463115354330709
11
1.112036338582677
21
0.0456158661417323
0
LINE
8
BLACK
6
CONTINUOUS
10
1.112036338582677
20
0.0456158661417323
11
1.1124894094488189
21
0.0441789763779528
0
LINE
8
BLACK
6
CONTINUOUS
10
1.1124894094488189
20
0.0441789763779528
11
1.1122744488188976
21
0.0434415748031496
0
LINE
8
BLACK
6
CONTINUOUS
10
1.1122744488188976
20
0.0434415748031496
11
1.0906849606299212
21
0.0019685039370079
0
LINE
8
BLACK
6
CONTINUOUS
10
1.0906849606299212
20
0.0019685039370079
11
1.1105283464566928
21
0.0019685039370079
0
LINE
8
BLACK
6
CONTINUOUS
10
1.1105283464566928
20
0.0019685039370079
11
1.111281653543307
21
0.0018186614173228
0
LINE
8
BLACK
6
CONTINUOUS
10
1.111281653543307
20
0.0018186614173228
11
1.1123470078740156
21
0.0007533070866142
0
LINE
8
BLACK
6
CONTINUOUS
10
1.1123470078740156
20
0.0007533070866142
11
1.1123470078740156
21
-0.0007533070866142
0
LINE
8
BLACK
6
CONTINUOUS
10
1.1123470078740156
20
-0.0007533070866142
11
1.111281653543307
21
-0.0018186614173228
0
LINE
8
BLACK
6
CONTINUOUS
10
1.111281653543307
20
-0.0018186614173228
11
1.1105283464566928
21
-0.0019685039370079
0
LINE
8
BLACK
6
CONTINUOUS
10
1.1105283464566928
20
-0.0019685039370079
11
1.0039370078740157
21
-0.0019685039370079
0
LINE
8
BLACK
6
CONTINUOUS
10
1.0039370078740157
20
-0.0019685039370079
11
1.0031837007874016
21
-0.0018186614173228
0
LINE
8
BLACK
6
CONTINUOUS
10
1.0031837007874016
20
-0.0018186614173228
11
1.002118346456693
21
-0.0007533070866142
0
LINE
8
BLACK
6
CONTINUOUS
10
1.002118346456693
20
-0.0007533070866142
11
1.002118346456693
21
0.0007533070866142
0
LINE
8
BLACK
6
CONTINUOUS
10
1.002118346456693
20
0.0007533070866142
11
1.0031837007874016
21
0.0018186614173228
0
LINE
8
BLACK
6
CONTINUOUS
10
1.0031837007874016
20
0.0018186614173228
11
1.0039370078740157
21
0.0019685039370079
0
LINE
8
BLACK
6
CONTINUOUS
10
1.0039370078740157
20
0.0019685039370079
11
1.0841969291338582
21
0.0019685039370079
0
LINE
8
BLACK
6
CONTINUOUS
10
1.0841969291338582
20
0.0019685039370079
11
1.062607401574803
21
0.0434416141732283
0
LINE
8
BLACK
6
CONTINUOUS
10
1.062607401574803
20
0.0434416141732283
11
1.0623924803149607
21
0.0441789763779528
0
LINE
8
BLACK
6
CONTINUOUS
10
1.0623924803149607
20
0.0441789763779528
11
1.0628455511811024
21
0.0456158661417323
0
LINE
8
BLACK
6
CONTINUOUS
10
1.0628455511811024
20
0.0456158661417323
11
1.0641819291338583
21
0.0463115748031496
0
LINE
8
BLACK
6
CONTINUOUS
10
1.0641819291338583
20
0.0463115748031496
11
1.0656188188976379
21
0.0458585039370079
0
LINE
8
BLACK
6
CONTINUOUS
10
1.0656188188976379
20
0.0458585039370079
11
1.0660996062992125
21
0.0452594881889764
0
LINE
8
BLACK
6
CONTINUOUS
10
1.0660996062992125
20
0.0452594881889764
11
1.0854724409448819
21
0.0080446062992126
0
LINE
8
BLACK
6
CONTINUOUS
10
1.0854724409448819
20
0.0080446062992126
11
1.0854724409448819
21
0.8974672440944882
0
LINE
8
BLACK
6
CONTINUOUS
10
1.0854724409448819
20
0.8974672440944882
11
1.0660996062992125
21
0.8602523228346457
0
LINE
8
BLACK
6
CONTINUOUS
10
1.0660996062992125
20
0.8602523228346457
11
1.0656188188976379
21
0.8596533070866141
0
LINE
8
BLACK
6
CONTINUOUS
10
1.0656188188976379
20
0.8596533070866141
11
1.0641819291338583
21
0.8592002362204724
0
LINE
8
BLACK
6
CONTINUOUS
10
1.0641819291338583
20
0.8592002362204724
11
1.0628455511811024
21
0.8598959448818897
0
LINE
8
BLACK
6
CONTINUOUS
10
1.0628455511811024
20
0.8598959448818897
11
1.0623924803149607
21
0.8613328346456692
0
LINE
8
BLACK
6
CONTINUOUS
10
1.0623924803149607
20
0.8613328346456692
11
1.062607401574803
21
0.8620701968503937
0
LINE
8
BLACK
6
CONTINUOUS
10
1.062607401574803
20
0.8620701968503937
11
1.0841969291338582
21
0.9035433070866141
0
LINE
8
BLACK
6
CONTINUOUS
10
1.0841969291338582
20
0.9035433070866141
11
1.0039370078740157
21
0.9035433070866141
0
LINE
8
BLACK
6
CONTINUOUS
10
1.0039370078740157
20
0.9035433070866141
11
1.0031837007874016
21
0.9036931496062992
0
LINE
8
BLACK
6
CONTINUOUS
10
1.0031837007874016
20
0.9036931496062992
11
1.002118346456693
21
0.9047585039370079
0
LINE
8
BLACK
6
CONTINUOUS
10
1.002118346456693
20
0.9047585039370079
11
1.002118346456693
21
0.9062651181102362
0
LINE
8
BLACK
6
CONTINUOUS
10
1.002118346456693
20
0.9062651181102362
11
1.0031837007874016
21
0.9073304724409449
0
LINE
8
BLACK
6
CONTINUOUS
10
1.0031837007874016
20
0.9073304724409449
11
1.0039370078740157
21
0.9074803149606299
0
LINE
8
BLACK
6
CONTINUOUS
10
1.0039370078740157
20
0.9074803149606299
11
1.1105283464566928
21
0.9074803149606299
0
LINE
8
BLACK
6
CONTINUOUS
10
1.1105283464566928
20
0.9074803149606299
11
1.111281653543307
21
0.9073304724409449
0
LINE
8
BLACK
6
CONTINUOUS
10
1.032241653543307
20
0.3806893700787402
11
1.0323194094488188
21
0.3806948818897637
0
LINE
8
BLACK
6
CONTINUOUS
10
1.0323194094488188
20
0.3806948818897637
11
1.0324216535433071
21
0.3806716535433071
0
LINE
8
BLACK
6
CONTINUOUS
10
1.0324216535433071
20
0.3806716535433071
11
1.0325261811023623
21
0.3806613385826771
0
LINE
8
BLACK
6
CONTINUOUS
10
1.0325261811023623
20
0.3806613385826771
11
1.0325982677165355
21
0.3806314960629921
0
LINE
8
BLACK
6
CONTINUOUS
10
1.0325982677165355
20
0.3806314960629921
11
1.0328838582677164
21
0.3805665354330708
0
LINE
8
BLACK
6
CONTINUOUS
10
1.0328838582677164
20
0.3805665354330708
11
1.0385081496062991
21
0.3786917716535433
0
LINE
8
BLACK
6
CONTINUOUS
10
1.0385081496062991
20
0.3786917716535433
11
1.0390366929133859
21
0.3784557874015748
0
LINE
8
BLACK
6
CONTINUOUS
10
1.0390366929133859
20
0.3784557874015748
11
1.039116811023622
21
0.3783862992125984
0
LINE
8
BLACK
6
CONTINUOUS
10
1.039116811023622
20
0.3783862992125984
11
1.0392148818897637
21
0.3783456692913386
0
LINE
8
BLACK
6
CONTINUOUS
10
1.0392148818897637
20
0.3783456692913386
11
1.0396623228346455
21
0.3779784645669291
0
LINE
8
BLACK
6
CONTINUOUS
10
1.0396623228346455
20
0.3779784645669291
11
1.0571188582677165
21
0.360521968503937
0
LINE
8
BLACK
6
CONTINUOUS
10
1.0571188582677165
20
0.360521968503937
11
1.0571188582677165
21
0.3777653149606299
0
LINE
8
BLACK
6
CONTINUOUS
10
1.0571188582677165
20
0.3777653149606299
11
1.057175590551181
21
0.3783413779527559
0
LINE
8
BLACK
6
CONTINUOUS
10
1.057175590551181
20
0.3783413779527559
11
1.0576164960629921
21
0.3794057874015748
0
LINE
8
BLACK
6
CONTINUOUS
10
1.0576164960629921
20
0.3794057874015748
11
1.0584311417322834
21
0.3802204330708661
0
LINE
8
BLACK
6
CONTINUOUS
10
1.0584311417322834
20
0.3802204330708661
11
1.0594955511811024
21
0.3806613385826771
0
LINE
8
BLACK
6
CONTINUOUS
10
1.0594955511811024
20
0.3806613385826771
11
1.0606476771653544
21
0.3806613385826771
0
LINE
8
BLACK
6
CONTINUOUS
10
1.0606476771653544
20
0.3806613385826771
11
1.0617120866141732
21
0.3802204330708661
0
LINE
8
BLACK
6
CONTINUOUS
10
1.0617120866141732
20
0.3802204330708661
11
1.0625267322834646
21
0.3794057874015748
0
LINE
8
BLACK
6
CONTINUOUS
10
1.0625267322834646
20
0.3794057874015748
11
1.0629676377952755
21
0.3783413779527559
0
LINE
8
BLACK
6
CONTINUOUS
10
1.0629676377952755
20
0.3783413779527559
11
1.0630243700787401
21
0.3777653149606299
0
LINE
8
BLACK
6
CONTINUOUS
10
1.0630243700787401
20
0.3777653149606299
11
1.0630243700787401
21
0.3533933858267717
0
LINE
8
BLACK
6
CONTINUOUS
10
1.0630243700787401
20
0.3533933858267717
11
1.0629676377952755
21
0.3528173228346457
0
LINE
8
BLACK
6
CONTINUOUS
10
1.0629676377952755
20
0.3528173228346457
11
1.0628385039370079
21
0.3525055905511811
0
LINE
8
BLACK
6
CONTINUOUS
10
1.0628385039370079
20
0.3525055905511811
11
1.0625267716535434
21
0.3517529133858268
0
LINE
8
BLACK
6
CONTINUOUS
10
1.0625267716535434
20
0.3517529133858268
11
1.0617120866141732
21
0.3509382677165354
0
LINE
8
BLACK
6
CONTINUOUS
10
1.0617120866141732
20
0.3509382677165354
11
1.0606476771653544
21
0.3504973622047244
0
LINE
8
BLACK
6
CONTINUOUS
10
1.0606476771653544
20
0.3504973622047244
11
1.0594955905511811
21
0.3504973622047244
0
LINE
8
BLACK
6
CONTINUOUS
10
1.0594955905511811
20
0.3504973622047244
11
1.0594955511811024
21
0.3504973622047244
0
LINE
8
BLACK
6
CONTINUOUS
10
1.0594955511811024
20
0.3504973622047244
11
1.0591837795275589
21
0.3506264960629921
0
LINE
8
BLACK
6
CONTINUOUS
10
1.0591837795275589
20
0.3506264960629921
11
1.0584311417322834
21
0.3509382283464567
0
LINE
8
BLACK
6
CONTINUOUS
10
1.0584311417322834
20
0.3509382283464567
11
1.0579837007874016
21
0.3513054724409449
0
LINE
8
BLACK
6
CONTINUOUS
10
1.0579837007874016
20
0.3513054724409449
11
1.0359793700787401
21
0.3733097637795276
0
LINE
8
BLACK
6
CONTINUOUS
10
1.0359793700787401
20
0.3733097637795276
11
1.0314709842519685
21
0.3748125590551181
0
LINE
8
BLACK
6
CONTINUOUS
10
1.0314709842519685
20
0.3748125590551181
11
1.0288976377952757
21
0.3748125590551181
0
LINE
8
BLACK
6
CONTINUOUS
10
1.0288976377952757
20
0.3748125590551181
11
1.026200157480315
21
0.3734638188976378
0
LINE
8
BLACK
6
CONTINUOUS
10
1.026200157480315
20
0.3734638188976378
11
1.025003031496063
21
0.3722666929133858
0
LINE
8
BLACK
6
CONTINUOUS
10
1.025003031496063
20
0.3722666929133858
11
1.0236542913385827
21
0.3695692125984252
0
LINE
8
BLACK
6
CONTINUOUS
10
1.0236542913385827
20
0.3695692125984252
11
1.0236542913385827
21
0.3615894881889763
0
LINE
8
BLACK
6
CONTINUOUS
10
1.0236542913385827
20
0.3615894881889763
11
1.025003031496063
21
0.3588920078740158
0
LINE
8
BLACK
6
CONTINUOUS
10
1.025003031496063
20
0.3588920078740158
11
1.0265389763779527
21
0.357356062992126
0
LINE
8
BLACK
6
CONTINUOUS
10
1.0265389763779527
20
0.357356062992126
11
1.0269061811023621
21
0.3569086220472441
0
LINE
8
BLACK
6
CONTINUOUS
10
1.0269061811023621
20
0.3569086220472441
11
1.0273470866141732
21
0.3558442125984252
0
LINE
8
BLACK
6
CONTINUOUS
10
1.0273470866141732
20
0.3558442125984252
11
1.0273470866141732
21
0.354692125984252
0
LINE
8
BLACK
6
CONTINUOUS
10
1.0273470866141732
20
0.354692125984252
11
1.0269061811023621
21
0.3536277165354331
0
LINE
8
BLACK
6
CONTINUOUS
10
1.0269061811023621
20
0.3536277165354331
11
1.0260914960629921
21
0.352813031496063
0
LINE
8
BLACK
6
CONTINUOUS
10
1.0260914960629921
20
0.352813031496063
11
1.0250270866141733
21
0.3523721259842519
0
LINE
8
BLACK
6
CONTINUOUS
10
1.0250270866141733
20
0.3523721259842519
11
1.0238749999999999
21
0.3523721259842519
0
LINE
8
BLACK
6
CONTINUOUS
10
1.0238749999999999
20
0.3523721259842519
11
1.0228105905511811
21
0.352813031496063
0
LINE
8
BLACK
6
CONTINUOUS
10
1.0228105905511811
20
0.352813031496063
11
1.0223631496062993
21
0.3531802362204725
0
LINE
8
BLACK
6
CONTINUOUS
10
1.0223631496062993
20
0.3531802362204725
11
1.0204883858267717
21
0.355055
0
LINE
8
BLACK
6
CONTINUOUS
10
1.0204883858267717
20
0.355055
11
1.0203025984251968
21
0.3552813779527559
0
LINE
8
BLACK
6
CONTINUOUS
10
1.0203025984251968
20
0.3552813779527559
11
1.0202436220472442
21
0.3553325196850394
0
LINE
8
BLACK
6
CONTINUOUS
10
1.0202436220472442
20
0.3553325196850394
11
1.0201876377952757
21
0.3554214960629921
0
LINE
8
BLACK
6
CONTINUOUS
10
1.0201876377952757
20
0.3554214960629921
11
1.0201211811023623
21
0.3555024409448819
0
LINE
8
BLACK
6
CONTINUOUS
10
1.0201211811023623
20
0.3555024409448819
11
1.0200913385826771
21
0.3555744094488189
0
LINE
8
BLACK
6
CONTINUOUS
10
1.0200913385826771
20
0.3555744094488189
11
1.0199352755905511
21
0.3558224015748032
0
LINE
8
BLACK
6
CONTINUOUS
10
1.0199352755905511
20
0.3558224015748032
11
1.0180605118110235
21
0.3595719291338583
0
LINE
8
BLACK
6
CONTINUOUS
10
1.0180605118110235
20
0.3595719291338583
11
1.0178536220472441
21
0.3601125590551181
0
LINE
8
BLACK
6
CONTINUOUS
10
1.0178536220472441
20
0.3601125590551181
11
1.0178461023622047
21
0.3602183858267716
0
LINE
8
BLACK
6
CONTINUOUS
10
1.0178461023622047
20
0.3602183858267716
11
1.0178055118110236
21
0.3603163779527559
0
LINE
8
BLACK
6
CONTINUOUS
10
1.0178055118110236
20
0.3603163779527559
11
1.017748779527559
21
0.3608924409448819
0
LINE
8
BLACK
6
CONTINUOUS
10
1.017748779527559
20
0.3608924409448819
11
1.017748779527559
21
0.3702662598425197
0
LINE
8
BLACK
6
CONTINUOUS
10
1.017748779527559
20
0.3702662598425197
11
1.0178055118110236
21
0.3708423228346457
0
LINE
8
BLACK
6
CONTINUOUS
10
1.0178055118110236
20
0.3708423228346457
11
1.0178461023622047
21
0.3709403543307087
0
LINE
8
BLACK
6
CONTINUOUS
10
1.0178461023622047
20
0.3709403543307087
11
1.0178536220472441
21
0.3710461417322835
0
LINE
8
BLACK
6
CONTINUOUS
10
1.0178536220472441
20
0.3710461417322835
11
1.0180605118110235
21
0.3715867716535433
0
LINE
8
BLACK
6
CONTINUOUS
10
1.0180605118110235
20
0.3715867716535433
11
1.0199352755905511
21
0.3753362992125984
0
LINE
8
BLACK
6
CONTINUOUS
10
1.0199352755905511
20
0.3753362992125984
11
1.0200913385826771
21
0.3755843307086614
0
LINE
8
BLACK
6
CONTINUOUS
10
1.0200913385826771
20
0.3755843307086614
11
1.0201211811023623
21
0.3756562598425197
0
LINE
8
BLACK
6
CONTINUOUS
10
1.0201211811023623
20
0.3756562598425197
11
1.0201876377952757
21
0.3757372440944882
0
LINE
8
BLACK
6
CONTINUOUS
10
1.0201876377952757
20
0.3757372440944882
11
1.0202436220472442
21
0.3758261811023622
0
LINE
8
BLACK
6
CONTINUOUS
10
1.0202436220472442
20
0.3758261811023622
11
1.0203025984251968
21
0.3758773622047244
0
LINE
8
BLACK
6
CONTINUOUS
10
1.0203025984251968
20
0.3758773622047244
11
1.0204883858267717
21
0.3761037007874016
0
LINE
8
BLACK
6
CONTINUOUS
10
1.0204883858267717
20
0.3761037007874016
11
1.0223631496062993
21
0.3779784645669291
0
LINE
8
BLACK
6
CONTINUOUS
10
1.0223631496062993
20
0.3779784645669291
11
1.0225894881889763
21
0.378164251968504
0
LINE
8
BLACK
6
CONTINUOUS
10
1.0225894881889763
20
0.378164251968504
11
1.0226406692913386
21
0.3782232283464567
0
LINE
8
BLACK
6
CONTINUOUS
10
1.0226406692913386
20
0.3782232283464567
11
1.0227296062992126
21
0.3782792125984252
0
LINE
8
BLACK
6
CONTINUOUS
10
1.0227296062992126
20
0.3782792125984252
11
1.0228105905511811
21
0.3783456692913386
0
LINE
8
BLACK
6
CONTINUOUS
10
1.0228105905511811
20
0.3783456692913386
11
1.0228825196850393
21
0.3783755118110236
0
LINE
8
BLACK
6
CONTINUOUS
10
1.0228825196850393
20
0.3783755118110236
11
1.0231305511811024
21
0.3785315748031496
0
LINE
8
BLACK
6
CONTINUOUS
10
1.0231305511811024
20
0.3785315748031496
11
1.0268800787401575
21
0.3804063385826771
0
LINE
8
BLACK
6
CONTINUOUS
10
1.0268800787401575
20
0.3804063385826771
11
1.0274206692913386
21
0.3806132283464567
0
LINE
8
BLACK
6
CONTINUOUS
10
1.0274206692913386
20
0.3806132283464567
11
1.0275265354330709
21
0.3806207874015748
0
LINE
8
BLACK
6
CONTINUOUS
10
1.0275265354330709
20
0.3806207874015748
11
1.0276245275590552
21
0.3806613385826771
0
LINE
8
BLACK
6
CONTINUOUS
10
1.0276245275590552
20
0.3806613385826771
11
1.0282005905511811
21
0.3807180708661417
0
LINE
8
BLACK
6
CONTINUOUS
10
1.0282005905511811
20
0.3807180708661417
11
1.0319501181102362
21
0.3807180708661417
0
LINE
8
BLACK
6
CONTINUOUS
10
1.0319501181102362
20
0.3807180708661417
11
1.032241653543307
21
0.3806893700787402
0
LINE
8
BLACK
6
CONTINUOUS
10
1.0531485826771654
20
0.4181566535433071
11
1.0532465748031496
21
0.4181160629921259
0
LINE
8
BLACK
6
CONTINUOUS
10
1.0532465748031496
20
0.4181160629921259
11
1.053352401574803
21
0.4181085433070866
0
LINE
8
BLACK
6
CONTINUOUS
10
1.053352401574803
20
0.4181085433070866
11
1.0538930314960631
21
0.4179016535433071
0
LINE
8
BLACK
6
CONTINUOUS
10
1.0538930314960631
20
0.4179016535433071
11
1.0576425590551182
21
0.4160268897637795
0
LINE
8
BLACK
6
CONTINUOUS
10
1.0576425590551182
20
0.4160268897637795
11
1.0578904330708661
21
0.4158708661417323
0
LINE
8
BLACK
6
CONTINUOUS
10
1.0578904330708661
20
0.4158708661417323
11
1.0579624803149605
21
0.4158410236220472
0
LINE
8
BLACK
6
CONTINUOUS
10
1.0579624803149605
20
0.4158410236220472
11
1.0580435039370077
21
0.4157745275590551
0
LINE
8
BLACK
6
CONTINUOUS
10
1.0580435039370077
20
0.4157745275590551
11
1.0581324409448818
21
0.4157185433070866
0
LINE
8
BLACK
6
CONTINUOUS
10
1.0581324409448818
20
0.4157185433070866
11
1.0581835826771653
21
0.4156595669291339
0
LINE
8
BLACK
6
CONTINUOUS
10
1.0581835826771653
20
0.4156595669291339
11
1.0584099212598426
21
0.4154738188976378
0
LINE
8
BLACK
6
CONTINUOUS
10
1.0584099212598426
20
0.4154738188976378
11
1.0602847244094489
21
0.4135990551181102
0
LINE
8
BLACK
6
CONTINUOUS
10
1.0602847244094489
20
0.4135990551181102
11
1.0604704724409448
21
0.4133727165354331
0
LINE
8
BLACK
6
CONTINUOUS
10
1.0604704724409448
20
0.4133727165354331
11
1.0605295275590552
21
0.4133214960629921
0
LINE
8
BLACK
6
CONTINUOUS
10
1.0605295275590552
20
0.4133214960629921
11
1.0605855118110237
21
0.4132325590551181
0
LINE
8
BLACK
6
CONTINUOUS
10
1.0605855118110237
20
0.4132325590551181
11
1.0606519685039371
21
0.4131515748031496
0
LINE
8
BLACK
6
CONTINUOUS
10
1.0606519685039371
20
0.4131515748031496
11
1.0606817716535433
21
0.4130796456692913
0
LINE
8
BLACK
6
CONTINUOUS
10
1.0606817716535433
20
0.4130796456692913
11
1.060837874015748
21
0.4128316141732283
0
LINE
8
BLACK
6
CONTINUOUS
10
1.060837874015748
20
0.4128316141732283
11
1.0627126377952756
21
0.4090820866141732
0
LINE
8
BLACK
6
CONTINUOUS
10
1.0627126377952756
20
0.4090820866141732
11
1.0629195275590551
21
0.4085414960629921
0
LINE
8
BLACK
6
CONTINUOUS
10
1.0629195275590551
20
0.4085414960629921
11
1.0629270472440944
21
0.4084356299212598
0
LINE
8
BLACK
6
CONTINUOUS
10
1.0629270472440944
20
0.4084356299212598
11
1.0629676377952755
21
0.4083376377952756
0
LINE
8
BLACK
6
CONTINUOUS
10
1.0629676377952755
20
0.4083376377952756
11
1.0630243700787401
21
0.4077615748031496
0
LINE
8
BLACK
6
CONTINUOUS
10
1.0630243700787401
20
0.4077615748031496
11
1.0630243700787401
21
0.3965129921259842
0
LINE
8
BLACK
6
CONTINUOUS
10
1.0630243700787401
20
0.3965129921259842
11
1.0629676377952755
21
0.3959369291338583
0
LINE
8
BLACK
6
CONTINUOUS
10
1.0629676377952755
20
0.3959369291338583
11
1.0629270472440944
21
0.3958389763779527
0
LINE
8
BLACK
6
CONTINUOUS
10
1.0629270472440944
20
0.3958389763779527
11
1.0629195275590551
21
0.3957330708661417
0
LINE
8
BLACK
6
CONTINUOUS
10
1.0629195275590551
20
0.3957330708661417
11
1.0627126377952756
21
0.3951924803149606
0
LINE
8
BLACK
6
CONTINUOUS
10
1.0627126377952756
20
0.3951924803149606
11
1.060837874015748
21
0.3914429527559055
0
LINE
8
BLACK
6
CONTINUOUS
10
1.060837874015748
20
0.3914429527559055
11
1.0606817716535433
21
0.3911949606299213
0
LINE
8
BLACK
6
CONTINUOUS
10
1.0606817716535433
20
0.3911949606299213
11
1.0606519685039371
21
0.3911229921259842
0
LINE
8
BLACK
6
CONTINUOUS
10
1.0606519685039371
20
0.3911229921259842
11
1.0605855118110237
21
0.3910420472440945
0
LINE
8
BLACK
6
CONTINUOUS
10
1.0605855118110237
20
0.3910420472440945
11
1.0605295275590552
21
0.3909530708661417
0
LINE
8
BLACK
6
CONTINUOUS
10
1.0605295275590552
20
0.3909530708661417
11
1.0604704724409448
21
0.3909018897637795
0
LINE
8
BLACK
6
CONTINUOUS
10
1.0604704724409448
20
0.3909018897637795
11
1.0602847244094489
21
0.3906755118110236
0
LINE
8
BLACK
6
CONTINUOUS
10
1.0602847244094489
20
0.3906755118110236
11
1.0584099212598426
21
0.3888007480314961
0
LINE
8
BLACK
6
CONTINUOUS
10
1.0584099212598426
20
0.3888007480314961
11
1.0579624803149605
21
0.3884335433070866
0
LINE
8
BLACK
6
CONTINUOUS
10
1.0579624803149605
20
0.3884335433070866
11
1.0568980708661417
21
0.3879926771653543
0
LINE
8
BLACK
6
CONTINUOUS
10
1.0568980708661417
20
0.3879926771653543
11
1.0557459842519685
21
0.3879926771653543
0
LINE
8
BLACK
6
CONTINUOUS
10
1.0557459842519685
20
0.3879926771653543
11
1.0546815748031495
21
0.3884335826771653
0
LINE
8
BLACK
6
CONTINUOUS
10
1.0546815748031495
20
0.3884335826771653
11
1.0538668897637795
21
0.3892482677165354
0
LINE
8
BLACK
6
CONTINUOUS
10
1.0538668897637795
20
0.3892482677165354
11
1.0534260236220472
21
0.3903126771653543
0
LINE
8
BLACK
6
CONTINUOUS
10
1.0534260236220472
20
0.3903126771653543
11
1.0534260236220472
21
0.3914647637795275
0
LINE
8
BLACK
6
CONTINUOUS
10
1.0534260236220472
20
0.3914647637795275
11
1.0538669291338583
21
0.3925291732283465
0
LINE
8
BLACK
6
CONTINUOUS
10
1.0538669291338583
20
0.3925291732283465
11
1.0542341732283464
21
0.3929766535433071
0
LINE
8
BLACK
6
CONTINUOUS
10
1.0542341732283464
20
0.3929766535433071
11
1.0557701181102361
21
0.3945125984251968
0
LINE
8
BLACK
6
CONTINUOUS
10
1.0557701181102361
20
0.3945125984251968
11
1.0571188582677165
21
0.3972100393700787
0
LINE
8
BLACK
6
CONTINUOUS
10
1.0571188582677165
20
0.3972100393700787
11
1.0571188582677165
21
0.4070645275590551
0
LINE
8
BLACK
6
CONTINUOUS
10
1.0571188582677165
20
0.4070645275590551
11
1.0557701181102361
21
0.4097620078740157
0
LINE
8
BLACK
6
CONTINUOUS
10
1.0557701181102361
20
0.4097620078740157
11
1.0545729527559056
21
0.4109591338582677
0
LINE
8
BLACK
6
CONTINUOUS
10
1.0545729527559056
20
0.4109591338582677
11
1.0518754724409449
21
0.412307874015748
0
LINE
8
BLACK
6
CONTINUOUS
10
1.0518754724409449
20
0.412307874015748
11
1.0438957480314961
21
0.412307874015748
0
LINE
8
BLACK
6
CONTINUOUS
10
1.0438957480314961
20
0.412307874015748
11
1.0411982677165355
21
0.4109591338582677
0
LINE
8
BLACK
6
CONTINUOUS
10
1.0411982677165355
20
0.4109591338582677
11
1.0400011417322834
21
0.4097620078740157
0
LINE
8
BLACK
6
CONTINUOUS
10
1.0400011417322834
20
0.4097620078740157
11
1.0386524015748031
21
0.4070645275590551
0
LINE
8
BLACK
6
CONTINUOUS
10
1.0386524015748031
20
0.4070645275590551
11
1.0386524015748031
21
0.4021372834645669
0
LINE
8
BLACK
6
CONTINUOUS
10
1.0386524015748031
20
0.4021372834645669
11
1.0386223622047244
21
0.4018326377952756
0
LINE
8
BLACK
6
CONTINUOUS
10
1.0386223622047244
20
0.4018326377952756
11
1.0386275590551182
21
0.4017551574803149
0
LINE
8
BLACK
6
CONTINUOUS
10
1.0386275590551182
20
0.4017551574803149
11
1.0386094881889762
21
0.401701811023622
0
LINE
8
BLACK
6
CONTINUOUS
10
1.0386094881889762
20
0.401701811023622
11
1.0385956692913385
21
0.4015612204724409
0
LINE
8
BLACK
6
CONTINUOUS
10
1.0385956692913385
20
0.4015612204724409
11
1.0384120472440945
21
0.401118031496063
0
LINE
8
BLACK
6
CONTINUOUS
10
1.0384120472440945
20
0.401118031496063
11
1.0382584645669291
21
0.400663779527559
0
LINE
8
BLACK
6
CONTINUOUS
10
1.0382584645669291
20
0.400663779527559
11
1.038192874015748
21
0.4005888188976378
0
LINE
8
BLACK
6
CONTINUOUS
10
1.038192874015748
20
0.4005888188976378
11
1.0381547637795276
21
0.4004968110236221
0
LINE
8
BLACK
6
CONTINUOUS
10
1.0381547637795276
20
0.4004968110236221
11
1.037815748031496
21
0.4001578346456693
0
LINE
8
BLACK
6
CONTINUOUS
10
1.037815748031496
20
0.4001578346456693
11
1.0374998031496063
21
0.3997966929133858
0
LINE
8
BLACK
6
CONTINUOUS
10
1.0374998031496063
20
0.3997966929133858
11
1.0374104330708662
21
0.3997525196850394
0
LINE
8
BLACK
6
CONTINUOUS
10
1.0374104330708662
20
0.3997525196850394
11
1.0373401181102362
21
0.3996821653543307
0
LINE
8
BLACK
6
CONTINUOUS
10
1.0373401181102362
20
0.3996821653543307
11
1.0368971653543306
21
0.3994987007874016
0
LINE
8
BLACK
6
CONTINUOUS
10
1.0368971653543306
20
0.3994987007874016
11
1.0364670472440944
21
0.3992859842519685
0
LINE
8
BLACK
6
CONTINUOUS
10
1.0364670472440944
20
0.3992859842519685
11
1.0363676771653543
21
0.3992793700787401
0
LINE
8
BLACK
6
CONTINUOUS
10
1.0363676771653543
20
0.3992793700787401
11
1.0362757086614174
21
0.3992412598425197
0
LINE
8
BLACK
6
CONTINUOUS
10
1.0362757086614174
20
0.3992412598425197
11
1.0357959842519684
21
0.3992412598425197
0
LINE
8
BLACK
6
CONTINUOUS
10
1.0357959842519684
20
0.3992412598425197
11
1.0353175196850393
21
0.3992093700787401
0
LINE
8
BLACK
6
CONTINUOUS
10
1.0353175196850393
20
0.3992093700787401
11
1.0352232283464566
21
0.3992412598425197
0
LINE
8
BLACK
6
CONTINUOUS
10
1.0352232283464566
20
0.3992412598425197
11
1.0351235826771654
21
0.3992412598425197
0
LINE
8
BLACK
6
CONTINUOUS
10
1.0351235826771654
20
0.3992412598425197
11
1.0346803543307086
21
0.3994248818897638
0
LINE
8
BLACK
6
CONTINUOUS
10
1.0346803543307086
20
0.3994248818897638
11
1.0342261417322833
21
0.3995784645669291
0
LINE
8
BLACK
6
CONTINUOUS
10
1.0342261417322833
20
0.3995784645669291
11
1.0341112598425197
21
0.3996605905511811
0
LINE
8
BLACK
6
CONTINUOUS
10
1.0341112598425197
20
0.3996605905511811
11
1.0340591732283464
21
0.3996821653543307
0
LINE
8
BLACK
6
CONTINUOUS
10
1.0340591732283464
20
0.3996821653543307
11
1.0340042125984252
21
0.399737125984252
0
LINE
8
BLACK
6
CONTINUOUS
10
1.0340042125984252
20
0.399737125984252
11
1.0337552362204725
21
0.3999151181102362
0
LINE
8
BLACK
6
CONTINUOUS
10
1.0337552362204725
20
0.3999151181102362
11
1.0236542913385827
21
0.4087534645669291
0
LINE
8
BLACK
6
CONTINUOUS
10
1.0236542913385827
20
0.4087534645669291
11
1.0236542913385827
21
0.3908887007874016
0
LINE
8
BLACK
6
CONTINUOUS
10
1.0236542913385827
20
0.3908887007874016
11
1.0235975590551181
21
0.3903126377952756
0
LINE
8
BLACK
6
CONTINUOUS
10
1.0235975590551181
20
0.3903126377952756
11
1.023156653543307
21
0.3892482283464567
0
LINE
8
BLACK
6
CONTINUOUS
10
1.023156653543307
20
0.3892482283464567
11
1.0223420078740157
21
0.3884335826771653
0
LINE
8
BLACK
6
CONTINUOUS
10
1.0223420078740157
20
0.3884335826771653
11
1.0212775984251967
21
0.3879926771653543
0
LINE
8
BLACK
6
CONTINUOUS
10
1.0212775984251967
20
0.3879926771653543
11
1.0201254724409448
21
0.3879926771653543
0
LINE
8
BLACK
6
CONTINUOUS
10
1.0201254724409448
20
0.3879926771653543
11
1.019061062992126
21
0.3884335826771653
0
LINE
8
BLACK
6
CONTINUOUS
10
1.019061062992126
20
0.3884335826771653
11
1.0182464173228347
21
0.3892482283464567
0
LINE
8
BLACK
6
CONTINUOUS
10
1.0182464173228347
20
0.3892482283464567
11
1.0178055118110236
21
0.3903126377952756
0
LINE
8
BLACK
6
CONTINUOUS
10
1.0178055118110236
20
0.3903126377952756
11
1.017748779527559
21
0.3908887007874016
0
LINE
8
BLACK
6
CONTINUOUS
10
1.017748779527559
20
0.3908887007874016
11
1.017748779527559
21
0.4152606299212598
0
LINE
8
BLACK
6
CONTINUOUS
10
1.017748779527559
20
0.4152606299212598
11
1.017778779527559
21
0.4155653149606299
0
LINE
8
BLACK
6
CONTINUOUS
10
1.017778779527559
20
0.4155653149606299
11
1.017773622047244
21
0.4156427559055118
0
LINE
8
BLACK
6
CONTINUOUS
10
1.017773622047244
20
0.4156427559055118
11
1.0177916535433071
21
0.4156961417322835
0
LINE
8
BLACK
6
CONTINUOUS
10
1.0177916535433071
20
0.4156961417322835
11
1.0178055118110236
21
0.4158366929133858
0
LINE
8
BLACK
6
CONTINUOUS
10
1.0178055118110236
20
0.4158366929133858
11
1.0179890944881889
21
0.4162799212598425
0
LINE
8
BLACK
6
CONTINUOUS
10
1.0179890944881889
20
0.4162799212598425
11
1.0181427165354331
21
0.4167341338582677
0
LINE
8
BLACK
6
CONTINUOUS
10
1.0181427165354331
20
0.4167341338582677
11
1.0182082677165354
21
0.4168091338582677
0
LINE
8
BLACK
6
CONTINUOUS
10
1.0182082677165354
20
0.4168091338582677
11
1.0182464173228347
21
0.4169011023622047
0
LINE
8
BLACK
6
CONTINUOUS
10
1.0182464173228347
20
0.4169011023622047
11
1.0185853937007874
21
0.4172401181102362
0
LINE
8
BLACK
6
CONTINUOUS
10
1.0185853937007874
20
0.4172401181102362
11
1.0189013779527558
21
0.4176012204724409
0
LINE
8
BLACK
6
CONTINUOUS
10
1.0189013779527558
20
0.4176012204724409
11
1.0189907086614174
21
0.4176454330708662
0
LINE
8
BLACK
6
CONTINUOUS
10
1.0189907086614174
20
0.4176454330708662
11
1.019061062992126
21
0.417715748031496
0
LINE
8
BLACK
6
CONTINUOUS
10
1.019061062992126
20
0.417715748031496
11
1.0195039763779528
21
0.4178992519685039
0
LINE
8
BLACK
6
CONTINUOUS
10
1.0195039763779528
20
0.4178992519685039
11
1.0199341338582677
21
0.4181119291338583
0
LINE
8
BLACK
6
CONTINUOUS
10
1.0199341338582677
20
0.4181119291338583
11
1.0200334645669291
21
0.4181185826771653
0
LINE
8
BLACK
6
CONTINUOUS
10
1.0200334645669291
20
0.4181185826771653
11
1.0201254724409448
21
0.4181566535433071
0
LINE
8
BLACK
6
CONTINUOUS
10
1.0201254724409448
20
0.4181566535433071
11
1.0206051968503937
21
0.4181566535433071
0
LINE
8
BLACK
6
CONTINUOUS
10
1.0206051968503937
20
0.4181566535433071
11
1.0210836614173229
21
0.4181885433070866
0
LINE
8
BLACK
6
CONTINUOUS
10
1.0210836614173229
20
0.4181885433070866
11
1.0211779527559055
21
0.4181566535433071
0
LINE
8
BLACK
6
CONTINUOUS
10
1.0211779527559055
20
0.4181566535433071
11
1.0212775984251967
21
0.4181566535433071
0
LINE
8
BLACK
6
CONTINUOUS
10
1.0212775984251967
20
0.4181566535433071
11
1.0217207874015748
21
0.4179730708661417
0
LINE
8
BLACK
6
CONTINUOUS
10
1.0217207874015748
20
0.4179730708661417
11
1.0221750393700788
21
0.4178194488188977
0
LINE
8
BLACK
6
CONTINUOUS
10
1.0221750393700788
20
0.4178194488188977
11
1.0222898818897637
21
0.4177373622047244
0
LINE
8
BLACK
6
CONTINUOUS
10
1.0222898818897637
20
0.4177373622047244
11
1.0223420078740157
21
0.417715748031496
0
LINE
8
BLACK
6
CONTINUOUS
10
1.0223420078740157
20
0.417715748031496
11
1.0223969291338582
21
0.4176608267716536
0
LINE
8
BLACK
6
CONTINUOUS
10
1.0223969291338582
20
0.4176608267716536
11
1.0226459448818896
21
0.4174827952755906
0
LINE
8
BLACK
6
CONTINUOUS
10
1.0226459448818896
20
0.4174827952755906
11
1.0328549606299213
21
0.4085499212598425
0
LINE
8
BLACK
6
CONTINUOUS
10
1.0328549606299213
20
0.4085499212598425
11
1.033058622047244
21
0.4090820866141732
0
LINE
8
BLACK
6
CONTINUOUS
10
1.033058622047244
20
0.4090820866141732
11
1.0349333858267715
21
0.4128316141732283
0
LINE
8
BLACK
6
CONTINUOUS
10
1.0349333858267715
20
0.4128316141732283
11
1.0350894488188975
21
0.4130796456692913
0
LINE
8
BLACK
6
CONTINUOUS
10
1.0350894488188975
20
0.4130796456692913
11
1.0351192913385827
21
0.4131515748031496
0
LINE
8
BLACK
6
CONTINUOUS
10
1.0351192913385827
20
0.4131515748031496
11
1.0351857480314961
21
0.4132325590551181
0
LINE
8
BLACK
6
CONTINUOUS
10
1.0351857480314961
20
0.4132325590551181
11
1.0352417322834646
21
0.4133214960629921
0
LINE
8
BLACK
6
CONTINUOUS
10
1.0352417322834646
20
0.4133214960629921
11
1.0353007086614172
21
0.4133726771653543
0
LINE
8
BLACK
6
CONTINUOUS
10
1.0353007086614172
20
0.4133726771653543
11
1.0354864960629921
21
0.4135990157480315
0
LINE
8
BLACK
6
CONTINUOUS
10
1.0354864960629921
20
0.4135990157480315
11
1.0373612598425197
21
0.415473779527559
0
LINE
8
BLACK
6
CONTINUOUS
10
1.0373612598425197
20
0.415473779527559
11
1.0375875984251968
21
0.4156595669291339
0
LINE
8
BLACK
6
CONTINUOUS
10
1.0375875984251968
20
0.4156595669291339
11
1.037638779527559
21
0.4157185433070866
0
LINE
8
BLACK
6
CONTINUOUS
10
1.037638779527559
20
0.4157185433070866
11
1.0377277165354331
21
0.4157745275590551
0
LINE
8
BLACK
6
CONTINUOUS
10
1.0377277165354331
20
0.4157745275590551
11
1.0378087007874015
21
0.4158409842519685
0
LINE
8
BLACK
6
CONTINUOUS
10
1.0378087007874015
20
0.4158409842519685
11
1.0378806299212597
21
0.4158708267716535
0
LINE
8
BLACK
6
CONTINUOUS
10
1.0378806299212597
20
0.4158708267716535
11
1.0381286614173229
21
0.4160268897637795
0
LINE
8
BLACK
6
CONTINUOUS
10
1.0381286614173229
20
0.4160268897637795
11
1.041878188976378
21
0.4179016535433071
0
LINE
8
BLACK
6
CONTINUOUS
10
1.041878188976378
20
0.4179016535433071
11
1.042418779527559
21
0.4181085433070866
0
LINE
8
BLACK
6
CONTINUOUS
10
1.042418779527559
20
0.4181085433070866
11
1.0425246456692914
21
0.4181161023622047
0
LINE
8
BLACK
6
CONTINUOUS
10
1.0425246456692914
20
0.4181161023622047
11
1.0426226377952756
21
0.4181566535433071
0
LINE
8
BLACK
6
CONTINUOUS
10
1.0426226377952756
20
0.4181566535433071
11
1.0431987007874015
21
0.4182133858267716
0
LINE
8
BLACK
6
CONTINUOUS
10
1.0431987007874015
20
0.4182133858267716
11
1.0525725196850393
21
0.4182133858267716
0
LINE
8
BLACK
6
CONTINUOUS
10
1.0525725196850393
20
0.4182133858267716
11
1.0531485826771654
21
0.4181566535433071
0
LINE
8
BLACK
6
CONTINUOUS
10
1.0606476771653544
20
0.4987716141732284
11
1.0617120866141732
21
0.4983307086614173
0
LINE
8
BLACK
6
CONTINUOUS
10
1.0617120866141732
20
0.4983307086614173
11
1.0625267322834646
21
0.497516062992126
0
LINE
8
BLACK
6
CONTINUOUS
10
1.0625267322834646
20
0.497516062992126
11
1.0629676377952755
21
0.4964516535433071
0
LINE
8
BLACK
6
CONTINUOUS
10
1.0629676377952755
20
0.4964516535433071
11
1.0629676377952755
21
0.4952995275590551
0
LINE
8
BLACK
6
CONTINUOUS
10
1.0629676377952755
20
0.4952995275590551
11
1.0625267322834646
21
0.4942351181102362
0
LINE
8
BLACK
6
CONTINUOUS
10
1.0625267322834646
20
0.4942351181102362
11
1.0617120866141732
21
0.4934204724409449
0
LINE
8
BLACK
6
CONTINUOUS
10
1.0617120866141732
20
0.4934204724409449
11
1.0606476771653544
21
0.4929795669291339
0
LINE
8
BLACK
6
CONTINUOUS
10
1.0606476771653544
20
0.4929795669291339
11
1.0600716141732283
21
0.4929228346456693
0
LINE
8
BLACK
6
CONTINUOUS
10
1.0600716141732283
20
0.4929228346456693
11
1.040146220472441
21
0.4929228346456693
0
LINE
8
BLACK
6
CONTINUOUS
10
1.040146220472441
20
0.4929228346456693
11
1.0379004724409449
21
0.4918
0
LINE
8
BLACK
6
CONTINUOUS
10
1.0379004724409449
20
0.4918
11
1.0367776377952755
21
0.4895542519685039
0
LINE
8
BLACK
6
CONTINUOUS
10
1.0367776377952755
20
0.4895542519685039
11
1.0367776377952755
21
0.4853240157480315
0
LINE
8
BLACK
6
CONTINUOUS
10
1.0367776377952755
20
0.4853240157480315
11
1.0379004724409449
21
0.4830783070866141
0
LINE
8
BLACK
6
CONTINUOUS
10
1.0379004724409449
20
0.4830783070866141
11
1.040146220472441
21
0.4819554330708661
0
LINE
8
BLACK
6
CONTINUOUS
10
1.040146220472441
20
0.4819554330708661
11
1.0600716141732283
21
0.4819554330708661
0
LINE
8
BLACK
6
CONTINUOUS
10
1.0600716141732283
20
0.4819554330708661
11
1.0606476771653544
21
0.4818987007874015
0
LINE
8
BLACK
6
CONTINUOUS
10
1.0606476771653544
20
0.4818987007874015
11
1.0617120866141732
21
0.4814577952755905
0
LINE
8
BLACK
6
CONTINUOUS
10
1.0617120866141732
20
0.4814577952755905
11
1.0625267322834646
21
0.4806431496062992
0
LINE
8
BLACK
6
CONTINUOUS
10
1.0625267322834646
20
0.4806431496062992
11
1.0629676377952755
21
0.4795787401574803
0
LINE
8
BLACK
6
CONTINUOUS
10
1.0629676377952755
20
0.4795787401574803
11
1.0629676377952755
21
0.4784266141732283
0
LINE
8
BLACK
6
CONTINUOUS
10
1.0629676377952755
20
0.4784266141732283
11
1.0625267322834646
21
0.4773622047244094
0
LINE
8
BLACK
6
CONTINUOUS
10
1.0625267322834646
20
0.4773622047244094
11
1.0617120866141732
21
0.4765475590551181
0
LINE
8
BLACK
6
CONTINUOUS
10
1.0617120866141732
20
0.4765475590551181
11
1.0606476771653544
21
0.4761066535433071
0
LINE
8
BLACK
6
CONTINUOUS
10
1.0606476771653544
20
0.4761066535433071
11
1.0600716141732283
21
0.4760499212598425
0
LINE
8
BLACK
6
CONTINUOUS
10
1.0600716141732283
20
0.4760499212598425
11
1.040146220472441
21
0.4760499212598425
0
LINE
8
BLACK
6
CONTINUOUS
10
1.040146220472441
20
0.4760499212598425
11
1.0379004724409449
21
0.4749270866141732
0
LINE
8
BLACK
6
CONTINUOUS
10
1.0379004724409449
20
0.4749270866141732
11
1.0367776377952755
21
0.4726813385826771
0
LINE
8
BLACK
6
CONTINUOUS
10
1.0367776377952755
20
0.4726813385826771
11
1.0367776377952755
21
0.4684511417322835
0
LINE
8
BLACK
6
CONTINUOUS
10
1.0367776377952755
20
0.4684511417322835
11
1.0381263779527559
21
0.4657536614173228
0
LINE
8
BLACK
6
CONTINUOUS
10
1.0381263779527559
20
0.4657536614173228
11
1.0387974803149607
21
0.4650825590551181
0
LINE
8
BLACK
6
CONTINUOUS
10
1.0387974803149607
20
0.4650825590551181
11
1.0600716141732283
21
0.4650825590551181
0
LINE
8
BLACK
6
CONTINUOUS
10
1.0600716141732283
20
0.4650825590551181
11
1.0606476771653544
21
0.4650258267716535
0
LINE
8
BLACK
6
CONTINUOUS
10
1.0606476771653544
20
0.4650258267716535
11
1.0617120866141732
21
0.4645849212598425
0
LINE
8
BLACK
6
CONTINUOUS
10
1.0617120866141732
20
0.4645849212598425
11
1.0625267322834646
21
0.4637702755905512
0
LINE
8
BLACK
6
CONTINUOUS
10
1.0625267322834646
20
0.4637702755905512
11
1.0629676377952755
21
0.4627058661417323
0
LINE
8
BLACK
6
CONTINUOUS
10
1.0629676377952755
20
0.4627058661417323
11
1.0629676377952755
21
0.4615537401574803
0
LINE
8
BLACK
6
CONTINUOUS
10
1.0629676377952755
20
0.4615537401574803
11
1.0625267322834646
21
0.4604893307086614
0
LINE
8
BLACK
6
CONTINUOUS
10
1.0625267322834646
20
0.4604893307086614
11
1.0617120866141732
21
0.4596746850393701
0
LINE
8
BLACK
6
CONTINUOUS
10
1.0617120866141732
20
0.4596746850393701
11
1.0606476771653544
21
0.4592337795275591
0
LINE
8
BLACK
6
CONTINUOUS
10
1.0606476771653544
20
0.4592337795275591
11
1.0600716141732283
21
0.4591770472440945
0
LINE
8
BLACK
6
CONTINUOUS
10
1.0600716141732283
20
0.4591770472440945
11
1.0338248818897637
21
0.4591770472440945
0
LINE
8
BLACK
6
CONTINUOUS
10
1.0338248818897637
20
0.4591770472440945
11
1.0332488188976379
21
0.4592337795275591
0
LINE
8
BLACK
6
CONTINUOUS
10
1.0332488188976379
20
0.4592337795275591
11
1.0321844094488188
21
0.4596746850393701
0
LINE
8
BLACK
6
CONTINUOUS
10
1.0321844094488188
20
0.4596746850393701
11
1.0313697637795276
21
0.4604893307086614
0
LINE
8
BLACK
6
CONTINUOUS
10
1.0313697637795276
20
0.4604893307086614
11
1.0309288582677165
21
0.4615537401574803
0
LINE
8
BLACK
6
CONTINUOUS
10
1.0309288582677165
20
0.4615537401574803
11
1.0309288582677165
21
0.4627058661417323
0
LINE
8
BLACK
6
CONTINUOUS
10
1.0309288582677165
20
0.4627058661417323
11
1.0313697637795276
21
0.4637702755905512
0
LINE
8
BLACK
6
CONTINUOUS
10
1.0313697637795276
20
0.4637702755905512
11
1.0321335826771654
21
0.4645341338582677
0
LINE
8
BLACK
6
CONTINUOUS
10
1.0321335826771654
20
0.4645341338582677
11
1.0311838582677164
21
0.4664335826771653
0
LINE
8
BLACK
6
CONTINUOUS
10
1.0311838582677164
20
0.4664335826771653
11
1.0309769685039369
21
0.4669742125984252
0
LINE
8
BLACK
6
CONTINUOUS
10
1.0309769685039369
20
0.4669742125984252
11
1.0309694488188976
21
0.4670800393700787
0
LINE
8
BLACK
6
CONTINUOUS
10
1.0309694488188976
20
0.4670800393700787
11
1.0309288582677165
21
0.467178031496063
0
LINE
8
BLACK
6
CONTINUOUS
10
1.0309288582677165
20
0.467178031496063
11
1.0308721259842519
21
0.4677540944881889
0
LINE
8
BLACK
6
CONTINUOUS
10
1.0308721259842519
20
0.4677540944881889
11
1.0308721259842519
21
0.4733783858267717
0
LINE
8
BLACK
6
CONTINUOUS
10
1.0308721259842519
20
0.4733783858267717
11
1.0309288582677165
21
0.4739544488188976
0
LINE
8
BLACK
6
CONTINUOUS
10
1.0309288582677165
20
0.4739544488188976
11
1.0309694488188976
21
0.4740524803149606
0
LINE
8
BLACK
6
CONTINUOUS
10
1.0309694488188976
20
0.4740524803149606
11
1.0309769685039369
21
0.4741582677165354
0
LINE
8
BLACK
6
CONTINUOUS
10
1.0309769685039369
20
0.4741582677165354
11
1.0311838582677164
21
0.4746988976377953
0
LINE
8
BLACK
6
CONTINUOUS
10
1.0311838582677164
20
0.4746988976377953
11
1.033058622047244
21
0.4784484251968504
0
LINE
8
BLACK
6
CONTINUOUS
10
1.033058622047244
20
0.4784484251968504
11
1.033119251968504
21
0.4785448031496063
0
LINE
8
BLACK
6
CONTINUOUS
10
1.033119251968504
20
0.4785448031496063
11
1.0331344094488188
21
0.4785901968503937
0
LINE
8
BLACK
6
CONTINUOUS
10
1.0331344094488188
20
0.4785901968503937
11
1.0331834251968504
21
0.4786467716535433
0
LINE
8
BLACK
6
CONTINUOUS
10
1.0331834251968504
20
0.4786467716535433
11
1.0333669685039371
21
0.4789383070866142
0
LINE
8
BLACK
6
CONTINUOUS
10
1.0333669685039371
20
0.4789383070866142
11
1.0334411811023623
21
0.4790026771653543
0
LINE
8
BLACK
6
CONTINUOUS
10
1.0334411811023623
20
0.4790026771653543
11
1.0333669685039371
21
0.4790670472440945
0
LINE
8
BLACK
6
CONTINUOUS
10
1.0333669685039371
20
0.4790670472440945
11
1.0331834251968504
21
0.4793586220472441
0
LINE
8
BLACK
6
CONTINUOUS
10
1.0331834251968504
20
0.4793586220472441
11
1.0331344094488188
21
0.4794151574803149
0
LINE
8
BLACK
6
CONTINUOUS
10
1.0331344094488188
20
0.4794151574803149
11
1.033119251968504
21
0.4794605905511811
0
LINE
8
BLACK
6
CONTINUOUS
10
1.033119251968504
20
0.4794605905511811
11
1.033058622047244
21
0.4795569291338583
0
LINE
8
BLACK
6
CONTINUOUS
10
1.033058622047244
20
0.4795569291338583
11
1.0311838582677164
21
0.4833064566929134
0
LINE
8
BLACK
6
CONTINUOUS
10
1.0311838582677164
20
0.4833064566929134
11
1.0309769685039369
21
0.4838470866141732
0
LINE
8
BLACK
6
CONTINUOUS
10
1.0309769685039369
20
0.4838470866141732
11
1.0309694488188976
21
0.4839529133858267
0
LINE
8
BLACK
6
CONTINUOUS
10
1.0309694488188976
20
0.4839529133858267
11
1.0309288582677165
21
0.484050905511811
0
LINE
8
BLACK
6
CONTINUOUS
10
1.0309288582677165
20
0.484050905511811
11
1.0308721259842519
21
0.484626968503937
0
LINE
8
BLACK
6
CONTINUOUS
10
1.0308721259842519
20
0.484626968503937
11
1.0308721259842519
21
0.4902512598425197
0
LINE
8
BLACK
6
CONTINUOUS
10
1.0308721259842519
20
0.4902512598425197
11
1.0309288582677165
21
0.4908273228346456
0
LINE
8
BLACK
6
CONTINUOUS
10
1.0309288582677165
20
0.4908273228346456
11
1.0309694488188976
21
0.4909253543307087
0
LINE
8
BLACK
6
CONTINUOUS
10
1.0309694488188976
20
0.4909253543307087
11
1.0309769685039369
21
0.4910311417322835
0
LINE
8
BLACK
6
CONTINUOUS
10
1.0309769685039369
20
0.4910311417322835
11
1.0311838582677164
21
0.4915717716535433
0
LINE
8
BLACK
6
CONTINUOUS
10
1.0311838582677164
20
0.4915717716535433
11
1.033058622047244
21
0.4953213385826771
0
LINE
8
BLACK
6
CONTINUOUS
10
1.033058622047244
20
0.4953213385826771
11
1.033119251968504
21
0.4954176771653543
0
LINE
8
BLACK
6
CONTINUOUS
10
1.033119251968504
20
0.4954176771653543
11
1.0331344094488188
21
0.4954631102362205
0
LINE
8
BLACK
6
CONTINUOUS
10
1.0331344094488188
20
0.4954631102362205
11
1.0331834645669291
21
0.4955197244094488
0
LINE
8
BLACK
6
CONTINUOUS
10
1.0331834645669291
20
0.4955197244094488
11
1.0333669685039371
21
0.4958111811023622
0
LINE
8
BLACK
6
CONTINUOUS
10
1.0333669685039371
20
0.4958111811023622
11
1.0336465748031496
21
0.4960537007874016
0
LINE
8
BLACK
6
CONTINUOUS
10
1.0336465748031496
20
0.4960537007874016
11
1.0338892519685039
21
0.4963335039370079
0
LINE
8
BLACK
6
CONTINUOUS
10
1.0338892519685039
20
0.4963335039370079
11
1.0341807874015747
21
0.4965170472440945
0
LINE
8
BLACK
6
CONTINUOUS
10
1.0341807874015747
20
0.4965170472440945
11
1.0342373622047243
21
0.496566062992126
0
LINE
8
BLACK
6
CONTINUOUS
10
1.0342373622047243
20
0.496566062992126
11
1.0342827559055119
21
0.4965812204724409
0
LINE
8
BLACK
6
CONTINUOUS
10
1.0342827559055119
20
0.4965812204724409
11
1.0343791338582677
21
0.4966418503937008
0
LINE
8
BLACK
6
CONTINUOUS
10
1.0343791338582677
20
0.4966418503937008
11
1.0381286614173229
21
0.4985166141732283
0
LINE
8
BLACK
6
CONTINUOUS
10
1.0381286614173229
20
0.4985166141732283
11
1.0386692519685039
21
0.4987235039370079
0
LINE
8
BLACK
6
CONTINUOUS
10
1.0386692519685039
20
0.4987235039370079
11
1.0387751181102363
21
0.498731062992126
0
LINE
8
BLACK
6
CONTINUOUS
10
1.0387751181102363
20
0.498731062992126
11
1.0388731102362205
21
0.4987716141732284
0
LINE
8
BLACK
6
CONTINUOUS
10
1.0388731102362205
20
0.4987716141732284
11
1.0394491732283464
21
0.4988283464566929
0
LINE
8
BLACK
6
CONTINUOUS
10
1.0394491732283464
20
0.4988283464566929
11
1.0600716141732283
21
0.4988283464566929
0
LINE
8
BLACK
6
CONTINUOUS
10
1.0600716141732283
20
0.4988283464566929
11
1.0606476771653544
21
0.4987716141732284
0
LINE
8
BLACK
6
CONTINUOUS
10
1.0606476771653544
20
0.5512650393700788
11
1.0617120866141732
21
0.5508241338582677
0
LINE
8
BLACK
6
CONTINUOUS
10
1.0617120866141732
20
0.5508241338582677
11
1.0625267322834646
21
0.5500094881889763
0
LINE
8
BLACK
6
CONTINUOUS
10
1.0625267322834646
20
0.5500094881889763
11
1.0629676377952755
21
0.5489450787401575
0
LINE
8
BLACK
6
CONTINUOUS
10
1.0629676377952755
20
0.5489450787401575
11
1.0629676377952755
21
0.5477929527559054
0
LINE
8
BLACK
6
CONTINUOUS
10
1.0629676377952755
20
0.5477929527559054
11
1.0625267322834646
21
0.5467285433070866
0
LINE
8
BLACK
6
CONTINUOUS
10
1.0625267322834646
20
0.5467285433070866
11
1.0617120866141732
21
0.5459138976377953
0
LINE
8
BLACK
6
CONTINUOUS
10
1.0617120866141732
20
0.5459138976377953
11
1.0606476771653544
21
0.5454729921259842
0
LINE
8
BLACK
6
CONTINUOUS
10
1.0606476771653544
20
0.5454729921259842
11
1.0600716141732283
21
0.5454162598425196
0
LINE
8
BLACK
6
CONTINUOUS
10
1.0600716141732283
20
0.5454162598425196
11
1.040146220472441
21
0.5454162598425196
0
LINE
8
BLACK
6
CONTINUOUS
10
1.040146220472441
20
0.5454162598425196
11
1.0379004724409449
21
0.5442934251968504
0
LINE
8
BLACK
6
CONTINUOUS
10
1.0379004724409449
20
0.5442934251968504
11
1.0367776377952755
21
0.5420476771653543
0
LINE
8
BLACK
6
CONTINUOUS
10
1.0367776377952755
20
0.5420476771653543
11
1.0367776377952755
21
0.5378174409448819
0
LINE
8
BLACK
6
CONTINUOUS
10
1.0367776377952755
20
0.5378174409448819
11
1.0379004724409449
21
0.5355717322834646
0
LINE
8
BLACK
6
CONTINUOUS
10
1.0379004724409449
20
0.5355717322834646
11
1.040146220472441
21
0.5344488582677165
0
LINE
8
BLACK
6
CONTINUOUS
10
1.040146220472441
20
0.5344488582677165
11
1.0600716141732283
21
0.5344488582677165
0
LINE
8
BLACK
6
CONTINUOUS
10
1.0600716141732283
20
0.5344488582677165
11
1.0606476771653544
21
0.534392125984252
0
LINE
8
BLACK
6
CONTINUOUS
10
1.0606476771653544
20
0.534392125984252
11
1.0617120866141732
21
0.5339512204724409
0
LINE
8
BLACK
6
CONTINUOUS
10
1.0617120866141732
20
0.5339512204724409
11
1.0625267322834646
21
0.5331365748031496
0
LINE
8
BLACK
6
CONTINUOUS
10
1.0625267322834646
20
0.5331365748031496
11
1.0629676377952755
21
0.5320721653543307
0
LINE
8
BLACK
6
CONTINUOUS
10
1.0629676377952755
20
0.5320721653543307
11
1.0629676377952755
21
0.5309200393700787
0
LINE
8
BLACK
6
CONTINUOUS
10
1.0629676377952755
20
0.5309200393700787
11
1.0625267322834646
21
0.5298556299212598
0
LINE
8
BLACK
6
CONTINUOUS
10
1.0625267322834646
20
0.5298556299212598
11
1.0617120866141732
21
0.5290409842519684
0
LINE
8
BLACK
6
CONTINUOUS
10
1.0617120866141732
20
0.5290409842519684
11
1.0606476771653544
21
0.5286000787401575
0
LINE
8
BLACK
6
CONTINUOUS
10
1.0606476771653544
20
0.5286000787401575
11
1.0600716141732283
21
0.5285433464566929
0
LINE
8
BLACK
6
CONTINUOUS
10
1.0600716141732283
20
0.5285433464566929
11
1.040146220472441
21
0.5285433464566929
0
LINE
8
BLACK
6
CONTINUOUS
10
1.040146220472441
20
0.5285433464566929
11
1.0379004724409449
21
0.5274205118110236
0
LINE
8
BLACK
6
CONTINUOUS
10
1.0379004724409449
20
0.5274205118110236
11
1.0367776377952755
21
0.5251747637795275
0
LINE
8
BLACK
6
CONTINUOUS
10
1.0367776377952755
20
0.5251747637795275
11
1.0367776377952755
21
0.5209445669291338
0
LINE
8
BLACK
6
CONTINUOUS
10
1.0367776377952755
20
0.5209445669291338
11
1.0381263779527559
21
0.5182470866141732
0
LINE
8
BLACK
6
CONTINUOUS
10
1.0381263779527559
20
0.5182470866141732
11
1.0387974803149607
21
0.5175759842519685
0
LINE
8
BLACK
6
CONTINUOUS
10
1.0387974803149607
20
0.5175759842519685
11
1.0600716141732283
21
0.5175759842519685
0
LINE
8
BLACK
6
CONTINUOUS
10
1.0600716141732283
20
0.5175759842519685
11
1.0606476771653544
21
0.5175192519685039
0
LINE
8
BLACK
6
CONTINUOUS
10
1.0606476771653544
20
0.5175192519685039
11
1.0617120866141732
21
0.5170783464566929
0
LINE
8
BLACK
6
CONTINUOUS
10
1.0617120866141732
20
0.5170783464566929
11
1.0625267322834646
21
0.5162637007874016
0
LINE
8
BLACK
6
CONTINUOUS
10
1.0625267322834646
20
0.5162637007874016
11
1.0629676377952755
21
0.5151992913385827
0
LINE
8
BLACK
6
CONTINUOUS
10
1.0629676377952755
20
0.5151992913385827
11
1.0629676377952755
21
0.5140471653543307
0
LINE
8
BLACK
6
CONTINUOUS
10
1.0629676377952755
20
0.5140471653543307
11
1.0625267322834646
21
0.5129827559055118
0
LINE
8
BLACK
6
CONTINUOUS
10
1.0625267322834646
20
0.5129827559055118
11
1.0617120866141732
21
0.5121681102362204
0
LINE
8
BLACK
6
CONTINUOUS
10
1.0617120866141732
20
0.5121681102362204
11
1.0606476771653544
21
0.5117272047244095
0
LINE
8
BLACK
6
CONTINUOUS
10
1.0606476771653544
20
0.5117272047244095
11
1.0600716141732283
21
0.5116704724409449
0
LINE
8
BLACK
6
CONTINUOUS
10
1.0600716141732283
20
0.5116704724409449
11
1.0338248818897637
21
0.5116704724409449
0
LINE
8
BLACK
6
CONTINUOUS
10
1.0338248818897637
20
0.5116704724409449
11
1.0332488188976379
21
0.5117272047244095
0
LINE
8
BLACK
6
CONTINUOUS
10
1.0332488188976379
20
0.5117272047244095
11
1.0321844094488188
21
0.5121681102362204
0
LINE
8
BLACK
6
CONTINUOUS
10
1.0321844094488188
20
0.5121681102362204
11
1.0313697637795276
21
0.5129827559055118
0
LINE
8
BLACK
6
CONTINUOUS
10
1.0313697637795276
20
0.5129827559055118
11
1.0309288582677165
21
0.5140471653543307
0
LINE
8
BLACK
6
CONTINUOUS
10
1.0309288582677165
20
0.5140471653543307
11
1.0309288582677165
21
0.5151992913385827
0
LINE
8
BLACK
6
CONTINUOUS
10
1.0309288582677165
20
0.5151992913385827
11
1.0313697637795276
21
0.5162637007874016
0
LINE
8
BLACK
6
CONTINUOUS
10
1.0313697637795276
20
0.5162637007874016
11
1.0321335826771654
21
0.5170275590551181
0
LINE
8
BLACK
6
CONTINUOUS
10
1.0321335826771654
20
0.5170275590551181
11
1.0311838582677164
21
0.5189270078740157
0
LINE
8
BLACK
6
CONTINUOUS
10
1.0311838582677164
20
0.5189270078740157
11
1.0309769685039369
21
0.5194676377952756
0
LINE
8
BLACK
6
CONTINUOUS
10
1.0309769685039369
20
0.5194676377952756
11
1.0309694488188976
21
0.5195734645669291
0
LINE
8
BLACK
6
CONTINUOUS
10
1.0309694488188976
20
0.5195734645669291
11
1.0309288582677165
21
0.5196714566929134
0
LINE
8
BLACK
6
CONTINUOUS
10
1.0309288582677165
20
0.5196714566929134
11
1.0308721259842519
21
0.5202475196850394
0
LINE
8
BLACK
6
CONTINUOUS
10
1.0308721259842519
20
0.5202475196850394
11
1.0308721259842519
21
0.525871811023622
0
LINE
8
BLACK
6
CONTINUOUS
10
1.0308721259842519
20
0.525871811023622
11
1.0309288582677165
21
0.526447874015748
0
LINE
8
BLACK
6
CONTINUOUS
10
1.0309288582677165
20
0.526447874015748
11
1.0309694488188976
21
0.526545905511811
0
LINE
8
BLACK
6
CONTINUOUS
10
1.0309694488188976
20
0.526545905511811
11
1.0309769685039369
21
0.5266516929133858
0
LINE
8
BLACK
6
CONTINUOUS
10
1.0309769685039369
20
0.5266516929133858
11
1.0311838582677164
21
0.5271923228346457
0
LINE
8
BLACK
6
CONTINUOUS
10
1.0311838582677164
20
0.5271923228346457
11
1.033058622047244
21
0.5309418503937008
0
LINE
8
BLACK
6
CONTINUOUS
10
1.033058622047244
20
0.5309418503937008
11
1.033119251968504
21
0.5310382283464566
0
LINE
8
BLACK
6
CONTINUOUS
10
1.033119251968504
20
0.5310382283464566
11
1.0331344094488188
21
0.5310836220472441
0
LINE
8
BLACK
6
CONTINUOUS
10
1.0331344094488188
20
0.5310836220472441
11
1.0331834251968504
21
0.5311401968503937
0
LINE
8
BLACK
6
CONTINUOUS
10
1.0331834251968504
20
0.5311401968503937
11
1.0333669685039371
21
0.5314317322834645
0
LINE
8
BLACK
6
CONTINUOUS
10
1.0333669685039371
20
0.5314317322834645
11
1.0334411811023623
21
0.5314961023622047
0
LINE
8
BLACK
6
CONTINUOUS
10
1.0334411811023623
20
0.5314961023622047
11
1.0333669685039371
21
0.5315604724409448
0
LINE
8
BLACK
6
CONTINUOUS
10
1.0333669685039371
20
0.5315604724409448
11
1.0331834251968504
21
0.5318520472440945
0
LINE
8
BLACK
6
CONTINUOUS
10
1.0331834251968504
20
0.5318520472440945
11
1.0331344094488188
21
0.5319085826771653
0
LINE
8
BLACK
6
CONTINUOUS
10
1.0331344094488188
20
0.5319085826771653
11
1.033119251968504
21
0.5319540157480315
0
LINE
8
BLACK
6
CONTINUOUS
10
1.033119251968504
20
0.5319540157480315
11
1.033058622047244
21
0.5320503543307087
0
LINE
8
BLACK
6
CONTINUOUS
10
1.033058622047244
20
0.5320503543307087
11
1.0311838582677164
21
0.5357998818897638
0
LINE
8
BLACK
6
CONTINUOUS
10
1.0311838582677164
20
0.5357998818897638
11
1.0309769685039369
21
0.5363405118110236
0
LINE
8
BLACK
6
CONTINUOUS
10
1.0309769685039369
20
0.5363405118110236
11
1.0309694488188976
21
0.5364463385826772
0
LINE
8
BLACK
6
CONTINUOUS
10
1.0309694488188976
20
0.5364463385826772
11
1.0309288582677165
21
0.5365443307086614
0
LINE
8
BLACK
6
CONTINUOUS
10
1.0309288582677165
20
0.5365443307086614
11
1.0308721259842519
21
0.5371203937007873
0
LINE
8
BLACK
6
CONTINUOUS
10
1.0308721259842519
20
0.5371203937007873
11
1.0308721259842519
21
0.54274468503937
0
LINE
8
BLACK
6
CONTINUOUS
10
1.0308721259842519
20
0.54274468503937
11
1.0309288582677165
21
0.5433207480314961
0
LINE
8
BLACK
6
CONTINUOUS
10
1.0309288582677165
20
0.5433207480314961
11
1.0309694488188976
21
0.543418779527559
0
LINE
8
BLACK
6
CONTINUOUS
10
1.0309694488188976
20
0.543418779527559
11
1.0309769685039369
21
0.5435245669291339
0
LINE
8
BLACK
6
CONTINUOUS
10
1.0309769685039369
20
0.5435245669291339
11
1.0311838582677164
21
0.5440651968503937
0
LINE
8
BLACK
6
CONTINUOUS
10
1.0311838582677164
20
0.5440651968503937
11
1.033058622047244
21
0.5478147637795275
0
LINE
8
BLACK
6
CONTINUOUS
10
1.033058622047244
20
0.5478147637795275
11
1.033119251968504
21
0.5479111023622047
0
LINE
8
BLACK
6
CONTINUOUS
10
1.033119251968504
20
0.5479111023622047
11
1.0331344094488188
21
0.5479565354330709
0
LINE
8
BLACK
6
CONTINUOUS
10
1.0331344094488188
20
0.5479565354330709
11
1.0331834645669291
21
0.5480131496062992
0
LINE
8
BLACK
6
CONTINUOUS
10
1.0331834645669291
20
0.5480131496062992
11
1.0333669685039371
21
0.5483046062992126
0
LINE
8
BLACK
6
CONTINUOUS
10
1.0333669685039371
20
0.5483046062992126
11
1.0336465748031496
21
0.5485471259842519
0
LINE
8
BLACK
6
CONTINUOUS
10
1.0336465748031496
20
0.5485471259842519
11
1.0338892519685039
21
0.5488269291338582
0
LINE
8
BLACK
6
CONTINUOUS
10
1.0338892519685039
20
0.5488269291338582
11
1.0341807874015747
21
0.5490104724409449
0
LINE
8
BLACK
6
CONTINUOUS
10
1.0341807874015747
20
0.5490104724409449
11
1.0342373622047243
21
0.5490594881889763
0
LINE
8
BLACK
6
CONTINUOUS
10
1.0342373622047243
20
0.5490594881889763
11
1.0342827559055119
21
0.5490746456692913
0
LINE
8
BLACK
6
CONTINUOUS
10
1.0342827559055119
20
0.5490746456692913
11
1.0343791338582677
21
0.5491352755905512
0
LINE
8
BLACK
6
CONTINUOUS
10
1.0343791338582677
20
0.5491352755905512
11
1.0381286614173229
21
0.5510100393700788
0
LINE
8
BLACK
6
CONTINUOUS
10
1.0381286614173229
20
0.5510100393700788
11
1.0386692519685039
21
0.5512169291338582
0
LINE
8
BLACK
6
CONTINUOUS
10
1.0386692519685039
20
0.5512169291338582
11
1.0387751181102363
21
0.5512244881889764
0
LINE
8
BLACK
6
CONTINUOUS
10
1.0387751181102363
20
0.5512244881889764
11
1.0388731102362205
21
0.5512650393700788
0
LINE
8
BLACK
6
CONTINUOUS
10
1.0388731102362205
20
0.5512650393700788
11
1.0394491732283464
21
0.5513217716535433
0
LINE
8
BLACK
6
CONTINUOUS
10
1.0394491732283464
20
0.5513217716535433
11
1.0600716141732283
21
0.5513217716535433
0
LINE
8
BLACK
6
CONTINUOUS
10
1.0600716141732283
20
0.5513217716535433
11
1.0606476771653544
21
0.5512650393700788
0
CIRCLE
8
BLACK
10
0.0984251968503937
20
0.
40
0.0068897637795276
0
CIRCLE
8
BLACK
10
0.0984251968503937
20
0.905511811023622
40
0.0068897637795276
0
CIRCLE
8
BLACK
10
0.8858267716535433
20
0.905511811023622
40
0.0068897637795276
0
CIRCLE
8
BLACK
10
0.4921259842519685
20
0.905511811023622
40
0.0068897637795276
0
CIRCLE
8
BLACK
10
0.8858267716535433
20
0.
40
0.0068897637795276
0
CIRCLE
8
BLACK
10
0.4921259842519685
20
0.
40
0.0068897637795276
  0
ENDSEC
  0
EOF
