  0
SECTION
  2
HEADER
  9
$ANGBASE
  50
0.0
  9
$ANGDIR
  70
1
  9
$MEASUREMENT
  70
0
  0
ENDSEC
  0
SECTION
  2
TABLES
  0
TABLE
  2
LTYPE
  70
4
  0
LTYPE
  5
40F
  2
CONTINUOUS
  70
0
  3
Solid line
  72
65
  73
0
  40
0.0
  0
LTYPE
  5
410
  2
DASHDOT
 70
0
  3
Dash Dot ____ _ ____ _
 72
65
 73
4
 40
2.0
 49
1.25
 49
-0.25
 49
0.25
 49
-0.25
  0
LTYPE
  5
411
  2
DASHED
 70
0
  3
Dashed __ __ __ __ __
 72
65
 73
2
 40
0.75
 49
0.5
 49
-0.25
  0
LTYPE
  5
43B
  2
DOTTED
 70
0
  3
Dotted .  .  .  .
 72
65
 73
2
 40
0.2
 49
0.0
 49
-0.2
  0
ENDTAB
  0
TABLE
  2
STYLE
  70
4
  0
STYLE
  2
KICAD
  70
0
  40
0
  41
1
  42
1
  50
0
  71
0
  3
isocp.shx
  0
STYLE
  2
KICADB
  70
0
  40
0
  41
1
  42
1
  50
0
  71
0
  3
isocp.shx
  0
STYLE
  2
KICADI
  70
0
  40
0
  41
1
  42
1
  50
15
  71
0
  3
isocp.shx
  0
STYLE
  2
KICADBI
  70
0
  40
0
  41
1
  42
1
  50
15
  71
0
  3
isocp.shx
  0
ENDTAB
  0
TABLE
  2
LAYER
  70
1
  0
LAYER
  2
BLACK
  70
0
  62
7
  6
CONTINUOUS
  0
ENDTAB
  0
ENDSEC
  0
SECTION
  2
ENTITIES
0
LINE
8
BLACK
6
CONTINUOUS
10
0.6197363779527559
20
0.0980264960629921
11
0.6226101968503936
21
0.0961062598425197
0
LINE
8
BLACK
6
CONTINUOUS
10
0.6226101968503936
20
0.0961062598425197
11
0.6245304330708661
21
0.0932324409448819
0
LINE
8
BLACK
6
CONTINUOUS
10
0.6245304330708661
20
0.0932324409448819
11
0.6252047244094489
21
0.0898425196850394
0
LINE
8
BLACK
6
CONTINUOUS
10
0.6252047244094489
20
0.0898425196850394
11
0.6252047244094489
21
0.0701574803149606
0
LINE
8
BLACK
6
CONTINUOUS
10
0.6252047244094489
20
0.0701574803149606
11
0.6245304330708661
21
0.0667675590551181
0
LINE
8
BLACK
6
CONTINUOUS
10
0.6245304330708661
20
0.0667675590551181
11
0.6226101968503936
21
0.0638937401574803
0
LINE
8
BLACK
6
CONTINUOUS
10
0.6226101968503936
20
0.0638937401574803
11
0.6197363779527559
21
0.0619735039370079
0
LINE
8
BLACK
6
CONTINUOUS
10
0.6197363779527559
20
0.0619735039370079
11
0.6163464566929133
21
0.0612992125984252
0
LINE
8
BLACK
6
CONTINUOUS
10
0.6163464566929133
20
0.0612992125984252
11
0.5986299212598425
21
0.0612992125984252
0
LINE
8
BLACK
6
CONTINUOUS
10
0.5986299212598425
20
0.0612992125984252
11
0.59524
21
0.0619735039370079
0
LINE
8
BLACK
6
CONTINUOUS
10
0.59524
20
0.0619735039370079
11
0.5923661811023622
21
0.0638937401574803
0
LINE
8
BLACK
6
CONTINUOUS
10
0.5923661811023622
20
0.0638937401574803
11
0.5904459448818897
21
0.0667675590551181
0
LINE
8
BLACK
6
CONTINUOUS
10
0.5904459448818897
20
0.0667675590551181
11
0.5897716535433071
21
0.0701574803149606
0
LINE
8
BLACK
6
CONTINUOUS
10
0.5897716535433071
20
0.0701574803149606
11
0.5897716535433071
21
0.0898425196850394
0
LINE
8
BLACK
6
CONTINUOUS
10
0.5897716535433071
20
0.0898425196850394
11
0.5904459448818897
21
0.0932324409448819
0
LINE
8
BLACK
6
CONTINUOUS
10
0.5904459448818897
20
0.0932324409448819
11
0.5923661811023622
21
0.0961062598425197
0
LINE
8
BLACK
6
CONTINUOUS
10
0.5923661811023622
20
0.0961062598425197
11
0.59524
21
0.0980264960629921
0
LINE
8
BLACK
6
CONTINUOUS
10
0.59524
20
0.0980264960629921
11
0.5986299212598425
21
0.0987007874015748
0
LINE
8
BLACK
6
CONTINUOUS
10
0.5986299212598425
20
0.0987007874015748
11
0.6163464566929133
21
0.0987007874015748
0
LINE
8
BLACK
6
CONTINUOUS
10
0.6163464566929133
20
0.0987007874015748
11
0.6197363779527559
21
0.0980264960629921
0
LINE
8
BLACK
6
CONTINUOUS
10
0.68076
20
0.0980264960629921
11
0.6836338188976377
21
0.0961062598425197
0
LINE
8
BLACK
6
CONTINUOUS
10
0.6836338188976377
20
0.0961062598425197
11
0.6855540551181102
21
0.0932324409448819
0
LINE
8
BLACK
6
CONTINUOUS
10
0.6855540551181102
20
0.0932324409448819
11
0.686228346456693
21
0.0898425196850394
0
LINE
8
BLACK
6
CONTINUOUS
10
0.686228346456693
20
0.0898425196850394
11
0.686228346456693
21
0.0701574803149606
0
LINE
8
BLACK
6
CONTINUOUS
10
0.686228346456693
20
0.0701574803149606
11
0.6855540551181102
21
0.0667675590551181
0
LINE
8
BLACK
6
CONTINUOUS
10
0.6855540551181102
20
0.0667675590551181
11
0.6836338188976377
21
0.0638937401574803
0
LINE
8
BLACK
6
CONTINUOUS
10
0.6836338188976377
20
0.0638937401574803
11
0.68076
21
0.0619735039370079
0
LINE
8
BLACK
6
CONTINUOUS
10
0.68076
20
0.0619735039370079
11
0.6773700787401574
21
0.0612992125984252
0
LINE
8
BLACK
6
CONTINUOUS
10
0.6773700787401574
20
0.0612992125984252
11
0.6596535433070866
21
0.0612992125984252
0
LINE
8
BLACK
6
CONTINUOUS
10
0.6596535433070866
20
0.0612992125984252
11
0.6562636220472441
21
0.0619735039370079
0
LINE
8
BLACK
6
CONTINUOUS
10
0.6562636220472441
20
0.0619735039370079
11
0.6533898031496063
21
0.0638937401574803
0
LINE
8
BLACK
6
CONTINUOUS
10
0.6533898031496063
20
0.0638937401574803
11
0.6514695669291338
21
0.0667675590551181
0
LINE
8
BLACK
6
CONTINUOUS
10
0.6514695669291338
20
0.0667675590551181
11
0.6507952755905512
21
0.0701574803149606
0
LINE
8
BLACK
6
CONTINUOUS
10
0.6507952755905512
20
0.0701574803149606
11
0.6507952755905512
21
0.0898425196850394
0
LINE
8
BLACK
6
CONTINUOUS
10
0.6507952755905512
20
0.0898425196850394
11
0.6514695669291338
21
0.0932324409448819
0
LINE
8
BLACK
6
CONTINUOUS
10
0.6514695669291338
20
0.0932324409448819
11
0.6533898031496063
21
0.0961062598425197
0
LINE
8
BLACK
6
CONTINUOUS
10
0.6533898031496063
20
0.0961062598425197
11
0.6562636220472441
21
0.0980264960629921
0
LINE
8
BLACK
6
CONTINUOUS
10
0.6562636220472441
20
0.0980264960629921
11
0.6596535433070866
21
0.0987007874015748
0
LINE
8
BLACK
6
CONTINUOUS
10
0.6596535433070866
20
0.0987007874015748
11
0.6773700787401574
21
0.0987007874015748
0
LINE
8
BLACK
6
CONTINUOUS
10
0.6773700787401574
20
0.0987007874015748
11
0.68076
21
0.0980264960629921
0
LINE
8
BLACK
6
CONTINUOUS
10
0.3864673622047244
20
0.1195342519685039
11
0.3896605118110236
21
0.1174006692913386
0
LINE
8
BLACK
6
CONTINUOUS
10
0.3896605118110236
20
0.1174006692913386
11
0.391794094488189
21
0.1142075196850394
0
LINE
8
BLACK
6
CONTINUOUS
10
0.391794094488189
20
0.1142075196850394
11
0.3925433070866142
21
0.1104409448818898
0
LINE
8
BLACK
6
CONTINUOUS
10
0.3925433070866142
20
0.1104409448818898
11
0.3925433070866142
21
0.090755905511811
0
LINE
8
BLACK
6
CONTINUOUS
10
0.3925433070866142
20
0.090755905511811
11
0.391794094488189
21
0.0869893307086614
0
LINE
8
BLACK
6
CONTINUOUS
10
0.391794094488189
20
0.0869893307086614
11
0.3896605118110236
21
0.0837961811023622
0
LINE
8
BLACK
6
CONTINUOUS
10
0.3896605118110236
20
0.0837961811023622
11
0.3864673622047244
21
0.0816625984251969
0
LINE
8
BLACK
6
CONTINUOUS
10
0.3864673622047244
20
0.0816625984251969
11
0.3827007874015748
21
0.0809133858267717
0
LINE
8
BLACK
6
CONTINUOUS
10
0.3827007874015748
20
0.0809133858267717
11
0.3452992125984252
21
0.0809133858267717
0
LINE
8
BLACK
6
CONTINUOUS
10
0.3452992125984252
20
0.0809133858267717
11
0.3415326377952756
21
0.0816625984251969
0
LINE
8
BLACK
6
CONTINUOUS
10
0.3415326377952756
20
0.0816625984251969
11
0.3383394881889764
21
0.0837961811023622
0
LINE
8
BLACK
6
CONTINUOUS
10
0.3383394881889764
20
0.0837961811023622
11
0.336205905511811
21
0.0869893307086614
0
LINE
8
BLACK
6
CONTINUOUS
10
0.336205905511811
20
0.0869893307086614
11
0.3354566929133858
21
0.090755905511811
0
LINE
8
BLACK
6
CONTINUOUS
10
0.3354566929133858
20
0.090755905511811
11
0.3354566929133858
21
0.1104409448818898
0
LINE
8
BLACK
6
CONTINUOUS
10
0.3354566929133858
20
0.1104409448818898
11
0.336205905511811
21
0.1142075196850394
0
LINE
8
BLACK
6
CONTINUOUS
10
0.336205905511811
20
0.1142075196850394
11
0.3383394881889764
21
0.1174006692913386
0
LINE
8
BLACK
6
CONTINUOUS
10
0.3383394881889764
20
0.1174006692913386
11
0.3415326377952756
21
0.1195342519685039
0
LINE
8
BLACK
6
CONTINUOUS
10
0.3415326377952756
20
0.1195342519685039
11
0.3452992125984252
21
0.1202834645669291
0
LINE
8
BLACK
6
CONTINUOUS
10
0.3452992125984252
20
0.1202834645669291
11
0.3827007874015748
21
0.1202834645669291
0
LINE
8
BLACK
6
CONTINUOUS
10
0.3827007874015748
20
0.1202834645669291
11
0.3864673622047244
21
0.1195342519685039
0
LINE
8
BLACK
6
CONTINUOUS
10
0.1238453149606299
20
0.1281877952755905
11
0.1270384645669291
21
0.1260542125984252
0
LINE
8
BLACK
6
CONTINUOUS
10
0.1270384645669291
20
0.1260542125984252
11
0.1291720472440945
21
0.122861062992126
0
LINE
8
BLACK
6
CONTINUOUS
10
0.1291720472440945
20
0.122861062992126
11
0.1299212598425197
21
0.1190944881889764
0
LINE
8
BLACK
6
CONTINUOUS
10
0.1299212598425197
20
0.1190944881889764
11
0.1299212598425197
21
0.0994094488188976
0
LINE
8
BLACK
6
CONTINUOUS
10
0.1299212598425197
20
0.0994094488188976
11
0.1291720472440945
21
0.095642874015748
0
LINE
8
BLACK
6
CONTINUOUS
10
0.1291720472440945
20
0.095642874015748
11
0.1270384645669291
21
0.0924497244094488
0
LINE
8
BLACK
6
CONTINUOUS
10
0.1270384645669291
20
0.0924497244094488
11
0.1238453149606299
21
0.0903161417322835
0
LINE
8
BLACK
6
CONTINUOUS
10
0.1238453149606299
20
0.0903161417322835
11
0.1200787401574803
21
0.0895669291338583
0
LINE
8
BLACK
6
CONTINUOUS
10
0.1200787401574803
20
0.0895669291338583
11
0.0334645669291339
21
0.0895669291338583
0
LINE
8
BLACK
6
CONTINUOUS
10
0.0334645669291339
20
0.0895669291338583
11
0.0296979921259843
21
0.0903161417322835
0
LINE
8
BLACK
6
CONTINUOUS
10
0.0296979921259843
20
0.0903161417322835
11
0.026504842519685
21
0.0924497244094488
0
LINE
8
BLACK
6
CONTINUOUS
10
0.026504842519685
20
0.0924497244094488
11
0.0243712598425197
21
0.095642874015748
0
LINE
8
BLACK
6
CONTINUOUS
10
0.0243712598425197
20
0.095642874015748
11
0.0236220472440945
21
0.0994094488188976
0
LINE
8
BLACK
6
CONTINUOUS
10
0.0236220472440945
20
0.0994094488188976
11
0.0236220472440945
21
0.1190944881889764
0
LINE
8
BLACK
6
CONTINUOUS
10
0.0236220472440945
20
0.1190944881889764
11
0.0243712598425197
21
0.122861062992126
0
LINE
8
BLACK
6
CONTINUOUS
10
0.0243712598425197
20
0.122861062992126
11
0.026504842519685
21
0.1260542125984252
0
LINE
8
BLACK
6
CONTINUOUS
10
0.026504842519685
20
0.1260542125984252
11
0.0296979921259843
21
0.1281877952755905
0
LINE
8
BLACK
6
CONTINUOUS
10
0.0296979921259843
20
0.1281877952755905
11
0.0334645669291339
21
0.1289370078740157
0
LINE
8
BLACK
6
CONTINUOUS
10
0.0334645669291339
20
0.1289370078740157
11
0.1200787401574803
21
0.1289370078740157
0
LINE
8
BLACK
6
CONTINUOUS
10
0.1200787401574803
20
0.1289370078740157
11
0.1238453149606299
21
0.1281877952755905
0
LINE
8
BLACK
6
CONTINUOUS
10
0.9545539763779527
20
0.1281877952755905
11
0.9577471259842519
21
0.1260542125984252
0
LINE
8
BLACK
6
CONTINUOUS
10
0.9577471259842519
20
0.1260542125984252
11
0.9598807086614173
21
0.122861062992126
0
LINE
8
BLACK
6
CONTINUOUS
10
0.9598807086614173
20
0.122861062992126
11
0.9606299212598425
21
0.1190944881889764
0
LINE
8
BLACK
6
CONTINUOUS
10
0.9606299212598425
20
0.1190944881889764
11
0.9606299212598425
21
0.0994094488188976
0
LINE
8
BLACK
6
CONTINUOUS
10
0.9606299212598425
20
0.0994094488188976
11
0.9598807086614173
21
0.095642874015748
0
LINE
8
BLACK
6
CONTINUOUS
10
0.9598807086614173
20
0.095642874015748
11
0.9577471259842519
21
0.0924497244094488
0
LINE
8
BLACK
6
CONTINUOUS
10
0.9577471259842519
20
0.0924497244094488
11
0.9545539763779527
21
0.0903161417322835
0
LINE
8
BLACK
6
CONTINUOUS
10
0.9545539763779527
20
0.0903161417322835
11
0.9507874015748031
21
0.0895669291338583
0
LINE
8
BLACK
6
CONTINUOUS
10
0.9507874015748031
20
0.0895669291338583
11
0.8641732283464567
21
0.0895669291338583
0
LINE
8
BLACK
6
CONTINUOUS
10
0.8641732283464567
20
0.0895669291338583
11
0.860406653543307
21
0.0903161417322835
0
LINE
8
BLACK
6
CONTINUOUS
10
0.860406653543307
20
0.0903161417322835
11
0.8572135039370079
21
0.0924497244094488
0
LINE
8
BLACK
6
CONTINUOUS
10
0.8572135039370079
20
0.0924497244094488
11
0.8550799212598424
21
0.095642874015748
0
LINE
8
BLACK
6
CONTINUOUS
10
0.8550799212598424
20
0.095642874015748
11
0.8543307086614172
21
0.0994094488188976
0
LINE
8
BLACK
6
CONTINUOUS
10
0.8543307086614172
20
0.0994094488188976
11
0.8543307086614172
21
0.1190944881889764
0
LINE
8
BLACK
6
CONTINUOUS
10
0.8543307086614172
20
0.1190944881889764
11
0.8550799212598424
21
0.122861062992126
0
LINE
8
BLACK
6
CONTINUOUS
10
0.8550799212598424
20
0.122861062992126
11
0.8572135039370079
21
0.1260542125984252
0
LINE
8
BLACK
6
CONTINUOUS
10
0.8572135039370079
20
0.1260542125984252
11
0.860406653543307
21
0.1281877952755905
0
LINE
8
BLACK
6
CONTINUOUS
10
0.860406653543307
20
0.1281877952755905
11
0.8641732283464567
21
0.1289370078740157
0
LINE
8
BLACK
6
CONTINUOUS
10
0.8641732283464567
20
0.1289370078740157
11
0.9507874015748031
21
0.1289370078740157
0
LINE
8
BLACK
6
CONTINUOUS
10
0.9507874015748031
20
0.1289370078740157
11
0.9545539763779527
21
0.1281877952755905
0
LINE
8
BLACK
6
CONTINUOUS
10
0.4627638976377952
20
0.1608496850393701
11
0.4646797637795275
21
0.1595695275590551
0
LINE
8
BLACK
6
CONTINUOUS
10
0.4646797637795275
20
0.1595695275590551
11
0.4659599212598425
21
0.1576536614173228
0
LINE
8
BLACK
6
CONTINUOUS
10
0.4659599212598425
20
0.1576536614173228
11
0.4664094488188976
21
0.1553937007874016
0
LINE
8
BLACK
6
CONTINUOUS
10
0.4664094488188976
20
0.1553937007874016
11
0.4664094488188976
21
0.1150393700787402
0
LINE
8
BLACK
6
CONTINUOUS
10
0.4664094488188976
20
0.1150393700787402
11
0.4659599212598425
21
0.1127794094488189
0
LINE
8
BLACK
6
CONTINUOUS
10
0.4659599212598425
20
0.1127794094488189
11
0.4646797637795275
21
0.1108635433070866
0
LINE
8
BLACK
6
CONTINUOUS
10
0.4646797637795275
20
0.1108635433070866
11
0.4627638976377952
21
0.1095833858267717
0
LINE
8
BLACK
6
CONTINUOUS
10
0.4627638976377952
20
0.1095833858267717
11
0.460503937007874
21
0.1091338582677165
0
LINE
8
BLACK
6
CONTINUOUS
10
0.460503937007874
20
0.1091338582677165
11
0.4486929133858268
21
0.1091338582677165
0
LINE
8
BLACK
6
CONTINUOUS
10
0.4486929133858268
20
0.1091338582677165
11
0.4464329527559055
21
0.1095833858267717
0
LINE
8
BLACK
6
CONTINUOUS
10
0.4464329527559055
20
0.1095833858267717
11
0.4445170866141732
21
0.1108635433070866
0
LINE
8
BLACK
6
CONTINUOUS
10
0.4445170866141732
20
0.1108635433070866
11
0.4432369291338583
21
0.1127794094488189
0
LINE
8
BLACK
6
CONTINUOUS
10
0.4432369291338583
20
0.1127794094488189
11
0.4427874015748031
21
0.1150393700787402
0
LINE
8
BLACK
6
CONTINUOUS
10
0.4427874015748031
20
0.1150393700787402
11
0.4427874015748031
21
0.1553937007874016
0
LINE
8
BLACK
6
CONTINUOUS
10
0.4427874015748031
20
0.1553937007874016
11
0.4432369291338583
21
0.1576536614173228
0
LINE
8
BLACK
6
CONTINUOUS
10
0.4432369291338583
20
0.1576536614173228
11
0.4445170866141732
21
0.1595695275590551
0
LINE
8
BLACK
6
CONTINUOUS
10
0.4445170866141732
20
0.1595695275590551
11
0.4464329527559055
21
0.1608496850393701
0
LINE
8
BLACK
6
CONTINUOUS
10
0.4464329527559055
20
0.1608496850393701
11
0.4486929133858268
21
0.1612992125984252
0
LINE
8
BLACK
6
CONTINUOUS
10
0.4486929133858268
20
0.1612992125984252
11
0.460503937007874
21
0.1612992125984252
0
LINE
8
BLACK
6
CONTINUOUS
10
0.460503937007874
20
0.1612992125984252
11
0.4627638976377952
21
0.1608496850393701
0
LINE
8
BLACK
6
CONTINUOUS
10
0.5001654724409449
20
0.1608496850393701
11
0.5020813385826771
21
0.1595695275590551
0
LINE
8
BLACK
6
CONTINUOUS
10
0.5020813385826771
20
0.1595695275590551
11
0.5033614960629921
21
0.1576536614173228
0
LINE
8
BLACK
6
CONTINUOUS
10
0.5033614960629921
20
0.1576536614173228
11
0.5038110236220472
21
0.1553937007874016
0
LINE
8
BLACK
6
CONTINUOUS
10
0.5038110236220472
20
0.1553937007874016
11
0.5038110236220472
21
0.1150393700787402
0
LINE
8
BLACK
6
CONTINUOUS
10
0.5038110236220472
20
0.1150393700787402
11
0.5033614960629921
21
0.1127794094488189
0
LINE
8
BLACK
6
CONTINUOUS
10
0.5033614960629921
20
0.1127794094488189
11
0.5020813385826771
21
0.1108635433070866
0
LINE
8
BLACK
6
CONTINUOUS
10
0.5020813385826771
20
0.1108635433070866
11
0.5001654724409449
21
0.1095833858267717
0
LINE
8
BLACK
6
CONTINUOUS
10
0.5001654724409449
20
0.1095833858267717
11
0.4979055118110236
21
0.1091338582677165
0
LINE
8
BLACK
6
CONTINUOUS
10
0.4979055118110236
20
0.1091338582677165
11
0.4860944881889764
21
0.1091338582677165
0
LINE
8
BLACK
6
CONTINUOUS
10
0.4860944881889764
20
0.1091338582677165
11
0.4838345275590551
21
0.1095833858267717
0
LINE
8
BLACK
6
CONTINUOUS
10
0.4838345275590551
20
0.1095833858267717
11
0.4819186614173228
21
0.1108635433070866
0
LINE
8
BLACK
6
CONTINUOUS
10
0.4819186614173228
20
0.1108635433070866
11
0.4806385039370079
21
0.1127794094488189
0
LINE
8
BLACK
6
CONTINUOUS
10
0.4806385039370079
20
0.1127794094488189
11
0.4801889763779528
21
0.1150393700787402
0
LINE
8
BLACK
6
CONTINUOUS
10
0.4801889763779528
20
0.1150393700787402
11
0.4801889763779528
21
0.1553937007874016
0
LINE
8
BLACK
6
CONTINUOUS
10
0.4801889763779528
20
0.1553937007874016
11
0.4806385039370079
21
0.1576536614173228
0
LINE
8
BLACK
6
CONTINUOUS
10
0.4806385039370079
20
0.1576536614173228
11
0.4819186614173228
21
0.1595695275590551
0
LINE
8
BLACK
6
CONTINUOUS
10
0.4819186614173228
20
0.1595695275590551
11
0.4838345275590551
21
0.1608496850393701
0
LINE
8
BLACK
6
CONTINUOUS
10
0.4838345275590551
20
0.1608496850393701
11
0.4860944881889764
21
0.1612992125984252
0
LINE
8
BLACK
6
CONTINUOUS
10
0.4860944881889764
20
0.1612992125984252
11
0.4979055118110236
21
0.1612992125984252
0
LINE
8
BLACK
6
CONTINUOUS
10
0.4979055118110236
20
0.1612992125984252
11
0.5001654724409449
21
0.1608496850393701
0
LINE
8
BLACK
6
CONTINUOUS
10
0.5375670472440944
20
0.1608496850393701
11
0.5394829133858268
21
0.1595695275590551
0
LINE
8
BLACK
6
CONTINUOUS
10
0.5394829133858268
20
0.1595695275590551
11
0.5407630708661417
21
0.1576536614173228
0
LINE
8
BLACK
6
CONTINUOUS
10
0.5407630708661417
20
0.1576536614173228
11
0.5412125984251969
21
0.1553937007874016
0
LINE
8
BLACK
6
CONTINUOUS
10
0.5412125984251969
20
0.1553937007874016
11
0.5412125984251969
21
0.1150393700787402
0
LINE
8
BLACK
6
CONTINUOUS
10
0.5412125984251969
20
0.1150393700787402
11
0.5407630708661417
21
0.1127794094488189
0
LINE
8
BLACK
6
CONTINUOUS
10
0.5407630708661417
20
0.1127794094488189
11
0.5394829133858268
21
0.1108635433070866
0
LINE
8
BLACK
6
CONTINUOUS
10
0.5394829133858268
20
0.1108635433070866
11
0.5375670472440944
21
0.1095833858267717
0
LINE
8
BLACK
6
CONTINUOUS
10
0.5375670472440944
20
0.1095833858267717
11
0.5353070866141733
21
0.1091338582677165
0
LINE
8
BLACK
6
CONTINUOUS
10
0.5353070866141733
20
0.1091338582677165
11
0.5234960629921259
21
0.1091338582677165
0
LINE
8
BLACK
6
CONTINUOUS
10
0.5234960629921259
20
0.1091338582677165
11
0.5212361023622047
21
0.1095833858267717
0
LINE
8
BLACK
6
CONTINUOUS
10
0.5212361023622047
20
0.1095833858267717
11
0.5193202362204724
21
0.1108635433070866
0
LINE
8
BLACK
6
CONTINUOUS
10
0.5193202362204724
20
0.1108635433070866
11
0.5180400787401575
21
0.1127794094488189
0
LINE
8
BLACK
6
CONTINUOUS
10
0.5180400787401575
20
0.1127794094488189
11
0.5175905511811023
21
0.1150393700787402
0
LINE
8
BLACK
6
CONTINUOUS
10
0.5175905511811023
20
0.1150393700787402
11
0.5175905511811023
21
0.1553937007874016
0
LINE
8
BLACK
6
CONTINUOUS
10
0.5175905511811023
20
0.1553937007874016
11
0.5180400787401575
21
0.1576536614173228
0
LINE
8
BLACK
6
CONTINUOUS
10
0.5180400787401575
20
0.1576536614173228
11
0.5193202362204724
21
0.1595695275590551
0
LINE
8
BLACK
6
CONTINUOUS
10
0.5193202362204724
20
0.1595695275590551
11
0.5212361023622047
21
0.1608496850393701
0
LINE
8
BLACK
6
CONTINUOUS
10
0.5212361023622047
20
0.1608496850393701
11
0.5234960629921259
21
0.1612992125984252
0
LINE
8
BLACK
6
CONTINUOUS
10
0.5234960629921259
20
0.1612992125984252
11
0.5353070866141733
21
0.1612992125984252
0
LINE
8
BLACK
6
CONTINUOUS
10
0.5353070866141733
20
0.1612992125984252
11
0.5375670472440944
21
0.1608496850393701
0
LINE
8
BLACK
6
CONTINUOUS
10
0.3037795275590551
20
0.1156299212598425
11
0.2762204724409449
21
0.1156299212598425
0
LINE
8
BLACK
6
CONTINUOUS
10
0.2762204724409449
20
0.1156299212598425
11
0.2762204724409449
21
0.139251968503937
0
LINE
8
BLACK
6
CONTINUOUS
10
0.2762204724409449
20
0.139251968503937
11
0.3037795275590551
21
0.139251968503937
0
LINE
8
BLACK
6
CONTINUOUS
10
0.3037795275590551
20
0.139251968503937
11
0.3037795275590551
21
0.1156299212598425
0
LINE
8
BLACK
6
CONTINUOUS
10
0.6197363779527559
20
0.1634595669291339
11
0.6226101968503936
21
0.1615393307086614
0
LINE
8
BLACK
6
CONTINUOUS
10
0.6226101968503936
20
0.1615393307086614
11
0.6245304330708661
21
0.1586655118110236
0
LINE
8
BLACK
6
CONTINUOUS
10
0.6245304330708661
20
0.1586655118110236
11
0.6252047244094489
21
0.1552755905511811
0
LINE
8
BLACK
6
CONTINUOUS
10
0.6252047244094489
20
0.1552755905511811
11
0.6252047244094489
21
0.1355905511811024
0
LINE
8
BLACK
6
CONTINUOUS
10
0.6252047244094489
20
0.1355905511811024
11
0.6245304330708661
21
0.1322006299212598
0
LINE
8
BLACK
6
CONTINUOUS
10
0.6245304330708661
20
0.1322006299212598
11
0.6226101968503936
21
0.129326811023622
0
LINE
8
BLACK
6
CONTINUOUS
10
0.6226101968503936
20
0.129326811023622
11
0.6197363779527559
21
0.1274065748031496
0
LINE
8
BLACK
6
CONTINUOUS
10
0.6197363779527559
20
0.1274065748031496
11
0.6163464566929133
21
0.1267322834645669
0
LINE
8
BLACK
6
CONTINUOUS
10
0.6163464566929133
20
0.1267322834645669
11
0.5986299212598425
21
0.1267322834645669
0
LINE
8
BLACK
6
CONTINUOUS
10
0.5986299212598425
20
0.1267322834645669
11
0.59524
21
0.1274065748031496
0
LINE
8
BLACK
6
CONTINUOUS
10
0.59524
20
0.1274065748031496
11
0.5923661811023622
21
0.129326811023622
0
LINE
8
BLACK
6
CONTINUOUS
10
0.5923661811023622
20
0.129326811023622
11
0.5904459448818897
21
0.1322006299212598
0
LINE
8
BLACK
6
CONTINUOUS
10
0.5904459448818897
20
0.1322006299212598
11
0.5897716535433071
21
0.1355905511811024
0
LINE
8
BLACK
6
CONTINUOUS
10
0.5897716535433071
20
0.1355905511811024
11
0.5897716535433071
21
0.1552755905511811
0
LINE
8
BLACK
6
CONTINUOUS
10
0.5897716535433071
20
0.1552755905511811
11
0.5904459448818897
21
0.1586655118110236
0
LINE
8
BLACK
6
CONTINUOUS
10
0.5904459448818897
20
0.1586655118110236
11
0.5923661811023622
21
0.1615393307086614
0
LINE
8
BLACK
6
CONTINUOUS
10
0.5923661811023622
20
0.1615393307086614
11
0.59524
21
0.1634595669291339
0
LINE
8
BLACK
6
CONTINUOUS
10
0.59524
20
0.1634595669291339
11
0.5986299212598425
21
0.1641338582677165
0
LINE
8
BLACK
6
CONTINUOUS
10
0.5986299212598425
20
0.1641338582677165
11
0.6163464566929133
21
0.1641338582677165
0
LINE
8
BLACK
6
CONTINUOUS
10
0.6163464566929133
20
0.1641338582677165
11
0.6197363779527559
21
0.1634595669291339
0
LINE
8
BLACK
6
CONTINUOUS
10
0.68076
20
0.1634595669291339
11
0.6836338188976377
21
0.1615393307086614
0
LINE
8
BLACK
6
CONTINUOUS
10
0.6836338188976377
20
0.1615393307086614
11
0.6855540551181102
21
0.1586655118110236
0
LINE
8
BLACK
6
CONTINUOUS
10
0.6855540551181102
20
0.1586655118110236
11
0.686228346456693
21
0.1552755905511811
0
LINE
8
BLACK
6
CONTINUOUS
10
0.686228346456693
20
0.1552755905511811
11
0.686228346456693
21
0.1355905511811024
0
LINE
8
BLACK
6
CONTINUOUS
10
0.686228346456693
20
0.1355905511811024
11
0.6855540551181102
21
0.1322006299212598
0
LINE
8
BLACK
6
CONTINUOUS
10
0.6855540551181102
20
0.1322006299212598
11
0.6836338188976377
21
0.129326811023622
0
LINE
8
BLACK
6
CONTINUOUS
10
0.6836338188976377
20
0.129326811023622
11
0.68076
21
0.1274065748031496
0
LINE
8
BLACK
6
CONTINUOUS
10
0.68076
20
0.1274065748031496
11
0.6773700787401574
21
0.1267322834645669
0
LINE
8
BLACK
6
CONTINUOUS
10
0.6773700787401574
20
0.1267322834645669
11
0.6596535433070866
21
0.1267322834645669
0
LINE
8
BLACK
6
CONTINUOUS
10
0.6596535433070866
20
0.1267322834645669
11
0.6562636220472441
21
0.1274065748031496
0
LINE
8
BLACK
6
CONTINUOUS
10
0.6562636220472441
20
0.1274065748031496
11
0.6533898031496063
21
0.129326811023622
0
LINE
8
BLACK
6
CONTINUOUS
10
0.6533898031496063
20
0.129326811023622
11
0.6514695669291338
21
0.1322006299212598
0
LINE
8
BLACK
6
CONTINUOUS
10
0.6514695669291338
20
0.1322006299212598
11
0.6507952755905512
21
0.1355905511811024
0
LINE
8
BLACK
6
CONTINUOUS
10
0.6507952755905512
20
0.1355905511811024
11
0.6507952755905512
21
0.1552755905511811
0
LINE
8
BLACK
6
CONTINUOUS
10
0.6507952755905512
20
0.1552755905511811
11
0.6514695669291338
21
0.1586655118110236
0
LINE
8
BLACK
6
CONTINUOUS
10
0.6514695669291338
20
0.1586655118110236
11
0.6533898031496063
21
0.1615393307086614
0
LINE
8
BLACK
6
CONTINUOUS
10
0.6533898031496063
20
0.1615393307086614
11
0.6562636220472441
21
0.1634595669291339
0
LINE
8
BLACK
6
CONTINUOUS
10
0.6562636220472441
20
0.1634595669291339
11
0.6596535433070866
21
0.1641338582677165
0
LINE
8
BLACK
6
CONTINUOUS
10
0.6596535433070866
20
0.1641338582677165
11
0.6773700787401574
21
0.1641338582677165
0
LINE
8
BLACK
6
CONTINUOUS
10
0.6773700787401574
20
0.1641338582677165
11
0.68076
21
0.1634595669291339
0
LINE
8
BLACK
6
CONTINUOUS
10
0.3864673622047244
20
0.1943374015748031
11
0.3896605118110236
21
0.1922038188976378
0
LINE
8
BLACK
6
CONTINUOUS
10
0.3896605118110236
20
0.1922038188976378
11
0.391794094488189
21
0.1890106692913386
0
LINE
8
BLACK
6
CONTINUOUS
10
0.391794094488189
20
0.1890106692913386
11
0.3925433070866142
21
0.185244094488189
0
LINE
8
BLACK
6
CONTINUOUS
10
0.3925433070866142
20
0.185244094488189
11
0.3925433070866142
21
0.1655590551181102
0
LINE
8
BLACK
6
CONTINUOUS
10
0.3925433070866142
20
0.1655590551181102
11
0.391794094488189
21
0.1617924803149606
0
LINE
8
BLACK
6
CONTINUOUS
10
0.391794094488189
20
0.1617924803149606
11
0.3896605118110236
21
0.1585993307086614
0
LINE
8
BLACK
6
CONTINUOUS
10
0.3896605118110236
20
0.1585993307086614
11
0.3864673622047244
21
0.1564657480314961
0
LINE
8
BLACK
6
CONTINUOUS
10
0.3864673622047244
20
0.1564657480314961
11
0.3827007874015748
21
0.1557165354330709
0
LINE
8
BLACK
6
CONTINUOUS
10
0.3827007874015748
20
0.1557165354330709
11
0.3452992125984252
21
0.1557165354330709
0
LINE
8
BLACK
6
CONTINUOUS
10
0.3452992125984252
20
0.1557165354330709
11
0.3415326377952756
21
0.1564657480314961
0
LINE
8
BLACK
6
CONTINUOUS
10
0.3415326377952756
20
0.1564657480314961
11
0.3383394881889764
21
0.1585993307086614
0
LINE
8
BLACK
6
CONTINUOUS
10
0.3383394881889764
20
0.1585993307086614
11
0.336205905511811
21
0.1617924803149606
0
LINE
8
BLACK
6
CONTINUOUS
10
0.336205905511811
20
0.1617924803149606
11
0.3354566929133858
21
0.1655590551181102
0
LINE
8
BLACK
6
CONTINUOUS
10
0.3354566929133858
20
0.1655590551181102
11
0.3354566929133858
21
0.185244094488189
0
LINE
8
BLACK
6
CONTINUOUS
10
0.3354566929133858
20
0.185244094488189
11
0.336205905511811
21
0.1890106692913386
0
LINE
8
BLACK
6
CONTINUOUS
10
0.336205905511811
20
0.1890106692913386
11
0.3383394881889764
21
0.1922038188976378
0
LINE
8
BLACK
6
CONTINUOUS
10
0.3383394881889764
20
0.1922038188976378
11
0.3415326377952756
21
0.1943374015748031
0
LINE
8
BLACK
6
CONTINUOUS
10
0.3415326377952756
20
0.1943374015748031
11
0.3452992125984252
21
0.1950866141732283
0
LINE
8
BLACK
6
CONTINUOUS
10
0.3452992125984252
20
0.1950866141732283
11
0.3827007874015748
21
0.1950866141732283
0
LINE
8
BLACK
6
CONTINUOUS
10
0.3827007874015748
20
0.1950866141732283
11
0.3864673622047244
21
0.1943374015748031
0
LINE
8
BLACK
6
CONTINUOUS
10
0.2325749212598425
20
0.1934481102362205
11
0.2344907874015748
21
0.1921679527559055
0
LINE
8
BLACK
6
CONTINUOUS
10
0.2344907874015748
20
0.1921679527559055
11
0.2357709448818898
21
0.1902520866141732
0
LINE
8
BLACK
6
CONTINUOUS
10
0.2357709448818898
20
0.1902520866141732
11
0.2362204724409449
21
0.187992125984252
0
LINE
8
BLACK
6
CONTINUOUS
10
0.2362204724409449
20
0.187992125984252
11
0.2362204724409449
21
0.1761811023622047
0
LINE
8
BLACK
6
CONTINUOUS
10
0.2362204724409449
20
0.1761811023622047
11
0.2357709448818898
21
0.1739211417322835
0
LINE
8
BLACK
6
CONTINUOUS
10
0.2357709448818898
20
0.1739211417322835
11
0.2344907874015748
21
0.1720052755905512
0
LINE
8
BLACK
6
CONTINUOUS
10
0.2344907874015748
20
0.1720052755905512
11
0.2325749212598425
21
0.1707251181102362
0
LINE
8
BLACK
6
CONTINUOUS
10
0.2325749212598425
20
0.1707251181102362
11
0.2303149606299213
21
0.1702755905511811
0
LINE
8
BLACK
6
CONTINUOUS
10
0.2303149606299213
20
0.1702755905511811
11
0.1751968503937008
21
0.1702755905511811
0
LINE
8
BLACK
6
CONTINUOUS
10
0.1751968503937008
20
0.1702755905511811
11
0.1729368897637795
21
0.1707251181102362
0
LINE
8
BLACK
6
CONTINUOUS
10
0.1729368897637795
20
0.1707251181102362
11
0.1710210236220472
21
0.1720052755905512
0
LINE
8
BLACK
6
CONTINUOUS
10
0.1710210236220472
20
0.1720052755905512
11
0.1697408661417323
21
0.1739211417322835
0
LINE
8
BLACK
6
CONTINUOUS
10
0.1697408661417323
20
0.1739211417322835
11
0.1692913385826772
21
0.1761811023622047
0
LINE
8
BLACK
6
CONTINUOUS
10
0.1692913385826772
20
0.1761811023622047
11
0.1692913385826772
21
0.187992125984252
0
LINE
8
BLACK
6
CONTINUOUS
10
0.1692913385826772
20
0.187992125984252
11
0.1697408661417323
21
0.1902520866141732
0
LINE
8
BLACK
6
CONTINUOUS
10
0.1697408661417323
20
0.1902520866141732
11
0.1710210236220472
21
0.1921679527559055
0
LINE
8
BLACK
6
CONTINUOUS
10
0.1710210236220472
20
0.1921679527559055
11
0.1729368897637795
21
0.1934481102362205
0
LINE
8
BLACK
6
CONTINUOUS
10
0.1729368897637795
20
0.1934481102362205
11
0.1751968503937008
21
0.1938976377952756
0
LINE
8
BLACK
6
CONTINUOUS
10
0.1751968503937008
20
0.1938976377952756
11
0.2303149606299213
21
0.1938976377952756
0
LINE
8
BLACK
6
CONTINUOUS
10
0.2303149606299213
20
0.1938976377952756
11
0.2325749212598425
21
0.1934481102362205
0
LINE
8
BLACK
6
CONTINUOUS
10
0.8113150787401575
20
0.1934481102362205
11
0.8132309448818897
21
0.1921679527559055
0
LINE
8
BLACK
6
CONTINUOUS
10
0.8132309448818897
20
0.1921679527559055
11
0.8145111023622047
21
0.1902520866141732
0
LINE
8
BLACK
6
CONTINUOUS
10
0.8145111023622047
20
0.1902520866141732
11
0.8149606299212598
21
0.187992125984252
0
LINE
8
BLACK
6
CONTINUOUS
10
0.8149606299212598
20
0.187992125984252
11
0.8149606299212598
21
0.1761811023622047
0
LINE
8
BLACK
6
CONTINUOUS
10
0.8149606299212598
20
0.1761811023622047
11
0.8145111023622047
21
0.1739211417322835
0
LINE
8
BLACK
6
CONTINUOUS
10
0.8145111023622047
20
0.1739211417322835
11
0.8132309448818897
21
0.1720052755905512
0
LINE
8
BLACK
6
CONTINUOUS
10
0.8132309448818897
20
0.1720052755905512
11
0.8113150787401575
21
0.1707251181102362
0
LINE
8
BLACK
6
CONTINUOUS
10
0.8113150787401575
20
0.1707251181102362
11
0.8090551181102362
21
0.1702755905511811
0
LINE
8
BLACK
6
CONTINUOUS
10
0.8090551181102362
20
0.1702755905511811
11
0.7539370078740157
21
0.1702755905511811
0
LINE
8
BLACK
6
CONTINUOUS
10
0.7539370078740157
20
0.1702755905511811
11
0.7516770472440945
21
0.1707251181102362
0
LINE
8
BLACK
6
CONTINUOUS
10
0.7516770472440945
20
0.1707251181102362
11
0.7497611811023622
21
0.1720052755905512
0
LINE
8
BLACK
6
CONTINUOUS
10
0.7497611811023622
20
0.1720052755905512
11
0.7484810236220473
21
0.1739211417322835
0
LINE
8
BLACK
6
CONTINUOUS
10
0.7484810236220473
20
0.1739211417322835
11
0.7480314960629921
21
0.1761811023622047
0
LINE
8
BLACK
6
CONTINUOUS
10
0.7480314960629921
20
0.1761811023622047
11
0.7480314960629921
21
0.187992125984252
0
LINE
8
BLACK
6
CONTINUOUS
10
0.7480314960629921
20
0.187992125984252
11
0.7484810236220473
21
0.1902520866141732
0
LINE
8
BLACK
6
CONTINUOUS
10
0.7484810236220473
20
0.1902520866141732
11
0.7497611811023622
21
0.1921679527559055
0
LINE
8
BLACK
6
CONTINUOUS
10
0.7497611811023622
20
0.1921679527559055
11
0.7516770472440945
21
0.1934481102362205
0
LINE
8
BLACK
6
CONTINUOUS
10
0.7516770472440945
20
0.1934481102362205
11
0.7539370078740157
21
0.1938976377952756
0
LINE
8
BLACK
6
CONTINUOUS
10
0.7539370078740157
20
0.1938976377952756
11
0.8090551181102362
21
0.1938976377952756
0
LINE
8
BLACK
6
CONTINUOUS
10
0.8090551181102362
20
0.1938976377952756
11
0.8113150787401575
21
0.1934481102362205
0
LINE
8
BLACK
6
CONTINUOUS
10
0.3037795275590551
20
0.170748031496063
11
0.2762204724409449
21
0.170748031496063
0
LINE
8
BLACK
6
CONTINUOUS
10
0.2762204724409449
20
0.170748031496063
11
0.2762204724409449
21
0.1943700787401575
0
LINE
8
BLACK
6
CONTINUOUS
10
0.2762204724409449
20
0.1943700787401575
11
0.3037795275590551
21
0.1943700787401575
0
LINE
8
BLACK
6
CONTINUOUS
10
0.3037795275590551
20
0.1943700787401575
11
0.3037795275590551
21
0.170748031496063
0
LINE
8
BLACK
6
CONTINUOUS
10
0.4627638976377952
20
0.2504166141732284
11
0.4646797637795275
21
0.2491364566929134
0
LINE
8
BLACK
6
CONTINUOUS
10
0.4646797637795275
20
0.2491364566929134
11
0.4659599212598425
21
0.2472205905511811
0
LINE
8
BLACK
6
CONTINUOUS
10
0.4659599212598425
20
0.2472205905511811
11
0.4664094488188976
21
0.2449606299212598
0
LINE
8
BLACK
6
CONTINUOUS
10
0.4664094488188976
20
0.2449606299212598
11
0.4664094488188976
21
0.2046062992125984
0
LINE
8
BLACK
6
CONTINUOUS
10
0.4664094488188976
20
0.2046062992125984
11
0.4659599212598425
21
0.2023463385826772
0
LINE
8
BLACK
6
CONTINUOUS
10
0.4659599212598425
20
0.2023463385826772
11
0.4646797637795275
21
0.2004304724409449
0
LINE
8
BLACK
6
CONTINUOUS
10
0.4646797637795275
20
0.2004304724409449
11
0.4627638976377952
21
0.1991503149606299
0
LINE
8
BLACK
6
CONTINUOUS
10
0.4627638976377952
20
0.1991503149606299
11
0.460503937007874
21
0.1987007874015748
0
LINE
8
BLACK
6
CONTINUOUS
10
0.460503937007874
20
0.1987007874015748
11
0.4486929133858268
21
0.1987007874015748
0
LINE
8
BLACK
6
CONTINUOUS
10
0.4486929133858268
20
0.1987007874015748
11
0.4464329527559055
21
0.1991503149606299
0
LINE
8
BLACK
6
CONTINUOUS
10
0.4464329527559055
20
0.1991503149606299
11
0.4445170866141732
21
0.2004304724409449
0
LINE
8
BLACK
6
CONTINUOUS
10
0.4445170866141732
20
0.2004304724409449
11
0.4432369291338583
21
0.2023463385826772
0
LINE
8
BLACK
6
CONTINUOUS
10
0.4432369291338583
20
0.2023463385826772
11
0.4427874015748031
21
0.2046062992125984
0
LINE
8
BLACK
6
CONTINUOUS
10
0.4427874015748031
20
0.2046062992125984
11
0.4427874015748031
21
0.2449606299212598
0
LINE
8
BLACK
6
CONTINUOUS
10
0.4427874015748031
20
0.2449606299212598
11
0.4432369291338583
21
0.2472205905511811
0
LINE
8
BLACK
6
CONTINUOUS
10
0.4432369291338583
20
0.2472205905511811
11
0.4445170866141732
21
0.2491364566929134
0
LINE
8
BLACK
6
CONTINUOUS
10
0.4445170866141732
20
0.2491364566929134
11
0.4464329527559055
21
0.2504166141732284
0
LINE
8
BLACK
6
CONTINUOUS
10
0.4464329527559055
20
0.2504166141732284
11
0.4486929133858268
21
0.2508661417322834
0
LINE
8
BLACK
6
CONTINUOUS
10
0.4486929133858268
20
0.2508661417322834
11
0.460503937007874
21
0.2508661417322834
0
LINE
8
BLACK
6
CONTINUOUS
10
0.460503937007874
20
0.2508661417322834
11
0.4627638976377952
21
0.2504166141732284
0
LINE
8
BLACK
6
CONTINUOUS
10
0.5375670472440944
20
0.2504166141732284
11
0.5394829133858268
21
0.2491364566929134
0
LINE
8
BLACK
6
CONTINUOUS
10
0.5394829133858268
20
0.2491364566929134
11
0.5407630708661417
21
0.2472205905511811
0
LINE
8
BLACK
6
CONTINUOUS
10
0.5407630708661417
20
0.2472205905511811
11
0.5412125984251969
21
0.2449606299212598
0
LINE
8
BLACK
6
CONTINUOUS
10
0.5412125984251969
20
0.2449606299212598
11
0.5412125984251969
21
0.2046062992125984
0
LINE
8
BLACK
6
CONTINUOUS
10
0.5412125984251969
20
0.2046062992125984
11
0.5407630708661417
21
0.2023463385826772
0
LINE
8
BLACK
6
CONTINUOUS
10
0.5407630708661417
20
0.2023463385826772
11
0.5394829133858268
21
0.2004304724409449
0
LINE
8
BLACK
6
CONTINUOUS
10
0.5394829133858268
20
0.2004304724409449
11
0.5375670472440944
21
0.1991503149606299
0
LINE
8
BLACK
6
CONTINUOUS
10
0.5375670472440944
20
0.1991503149606299
11
0.5353070866141733
21
0.1987007874015748
0
LINE
8
BLACK
6
CONTINUOUS
10
0.5353070866141733
20
0.1987007874015748
11
0.5234960629921259
21
0.1987007874015748
0
LINE
8
BLACK
6
CONTINUOUS
10
0.5234960629921259
20
0.1987007874015748
11
0.5212361023622047
21
0.1991503149606299
0
LINE
8
BLACK
6
CONTINUOUS
10
0.5212361023622047
20
0.1991503149606299
11
0.5193202362204724
21
0.2004304724409449
0
LINE
8
BLACK
6
CONTINUOUS
10
0.5193202362204724
20
0.2004304724409449
11
0.5180400787401575
21
0.2023463385826772
0
LINE
8
BLACK
6
CONTINUOUS
10
0.5180400787401575
20
0.2023463385826772
11
0.5175905511811023
21
0.2046062992125984
0
LINE
8
BLACK
6
CONTINUOUS
10
0.5175905511811023
20
0.2046062992125984
11
0.5175905511811023
21
0.2449606299212598
0
LINE
8
BLACK
6
CONTINUOUS
10
0.5175905511811023
20
0.2449606299212598
11
0.5180400787401575
21
0.2472205905511811
0
LINE
8
BLACK
6
CONTINUOUS
10
0.5180400787401575
20
0.2472205905511811
11
0.5193202362204724
21
0.2491364566929134
0
LINE
8
BLACK
6
CONTINUOUS
10
0.5193202362204724
20
0.2491364566929134
11
0.5212361023622047
21
0.2504166141732284
0
LINE
8
BLACK
6
CONTINUOUS
10
0.5212361023622047
20
0.2504166141732284
11
0.5234960629921259
21
0.2508661417322834
0
LINE
8
BLACK
6
CONTINUOUS
10
0.5234960629921259
20
0.2508661417322834
11
0.5353070866141733
21
0.2508661417322834
0
LINE
8
BLACK
6
CONTINUOUS
10
0.5353070866141733
20
0.2508661417322834
11
0.5375670472440944
21
0.2504166141732284
0
LINE
8
BLACK
6
CONTINUOUS
10
0.6478400393700787
20
0.236188031496063
11
0.6503945275590551
21
0.2344811417322835
0
LINE
8
BLACK
6
CONTINUOUS
10
0.6503945275590551
20
0.2344811417322835
11
0.6521014173228347
21
0.2319266535433071
0
LINE
8
BLACK
6
CONTINUOUS
10
0.6521014173228347
20
0.2319266535433071
11
0.6527007874015748
21
0.2289133858267716
0
LINE
8
BLACK
6
CONTINUOUS
10
0.6527007874015748
20
0.2289133858267716
11
0.6527007874015748
21
0.2131653543307087
0
LINE
8
BLACK
6
CONTINUOUS
10
0.6527007874015748
20
0.2131653543307087
11
0.6521014173228347
21
0.2101520866141732
0
LINE
8
BLACK
6
CONTINUOUS
10
0.6521014173228347
20
0.2101520866141732
11
0.6503945275590551
21
0.2075975984251968
0
LINE
8
BLACK
6
CONTINUOUS
10
0.6503945275590551
20
0.2075975984251968
11
0.6478400393700787
21
0.2058907086614173
0
LINE
8
BLACK
6
CONTINUOUS
10
0.6478400393700787
20
0.2058907086614173
11
0.6448267716535433
21
0.2052913385826772
0
LINE
8
BLACK
6
CONTINUOUS
10
0.6448267716535433
20
0.2052913385826772
11
0.6231732283464567
21
0.2052913385826772
0
LINE
8
BLACK
6
CONTINUOUS
10
0.6231732283464567
20
0.2052913385826772
11
0.6201599606299213
21
0.2058907086614173
0
LINE
8
BLACK
6
CONTINUOUS
10
0.6201599606299213
20
0.2058907086614173
11
0.6176054724409449
21
0.2075975984251968
0
LINE
8
BLACK
6
CONTINUOUS
10
0.6176054724409449
20
0.2075975984251968
11
0.6158985826771654
21
0.2101520866141732
0
LINE
8
BLACK
6
CONTINUOUS
10
0.6158985826771654
20
0.2101520866141732
11
0.6152992125984252
21
0.2131653543307087
0
LINE
8
BLACK
6
CONTINUOUS
10
0.6152992125984252
20
0.2131653543307087
11
0.6152992125984252
21
0.2289133858267716
0
LINE
8
BLACK
6
CONTINUOUS
10
0.6152992125984252
20
0.2289133858267716
11
0.6158985826771654
21
0.2319266535433071
0
LINE
8
BLACK
6
CONTINUOUS
10
0.6158985826771654
20
0.2319266535433071
11
0.6176054724409449
21
0.2344811417322835
0
LINE
8
BLACK
6
CONTINUOUS
10
0.6176054724409449
20
0.2344811417322835
11
0.6201599606299213
21
0.236188031496063
0
LINE
8
BLACK
6
CONTINUOUS
10
0.6201599606299213
20
0.236188031496063
11
0.6231732283464567
21
0.2367874015748032
0
LINE
8
BLACK
6
CONTINUOUS
10
0.6231732283464567
20
0.2367874015748032
11
0.6448267716535433
21
0.2367874015748032
0
LINE
8
BLACK
6
CONTINUOUS
10
0.6448267716535433
20
0.2367874015748032
11
0.6478400393700787
21
0.236188031496063
0
LINE
8
BLACK
6
CONTINUOUS
10
0.7138400393700787
20
0.2371486614173228
11
0.7163945275590551
21
0.2354417716535433
0
LINE
8
BLACK
6
CONTINUOUS
10
0.7163945275590551
20
0.2354417716535433
11
0.7181014173228346
21
0.2328872834645669
0
LINE
8
BLACK
6
CONTINUOUS
10
0.7181014173228346
20
0.2328872834645669
11
0.7187007874015748
21
0.2298740157480315
0
LINE
8
BLACK
6
CONTINUOUS
10
0.7187007874015748
20
0.2298740157480315
11
0.7187007874015748
21
0.2141259842519685
0
LINE
8
BLACK
6
CONTINUOUS
10
0.7187007874015748
20
0.2141259842519685
11
0.7181014173228346
21
0.2111127165354331
0
LINE
8
BLACK
6
CONTINUOUS
10
0.7181014173228346
20
0.2111127165354331
11
0.7163945275590551
21
0.2085582283464567
0
LINE
8
BLACK
6
CONTINUOUS
10
0.7163945275590551
20
0.2085582283464567
11
0.7138400393700787
21
0.2068513385826772
0
LINE
8
BLACK
6
CONTINUOUS
10
0.7138400393700787
20
0.2068513385826772
11
0.7108267716535432
21
0.206251968503937
0
LINE
8
BLACK
6
CONTINUOUS
10
0.7108267716535432
20
0.206251968503937
11
0.6891732283464567
21
0.206251968503937
0
LINE
8
BLACK
6
CONTINUOUS
10
0.6891732283464567
20
0.206251968503937
11
0.6861599606299212
21
0.2068513385826772
0
LINE
8
BLACK
6
CONTINUOUS
10
0.6861599606299212
20
0.2068513385826772
11
0.6836054724409448
21
0.2085582283464567
0
LINE
8
BLACK
6
CONTINUOUS
10
0.6836054724409448
20
0.2085582283464567
11
0.6818985826771653
21
0.2111127165354331
0
LINE
8
BLACK
6
CONTINUOUS
10
0.6818985826771653
20
0.2111127165354331
11
0.6812992125984252
21
0.2141259842519685
0
LINE
8
BLACK
6
CONTINUOUS
10
0.6812992125984252
20
0.2141259842519685
11
0.6812992125984252
21
0.2298740157480315
0
LINE
8
BLACK
6
CONTINUOUS
10
0.6812992125984252
20
0.2298740157480315
11
0.6818985826771653
21
0.2328872834645669
0
LINE
8
BLACK
6
CONTINUOUS
10
0.6818985826771653
20
0.2328872834645669
11
0.6836054724409448
21
0.2354417716535433
0
LINE
8
BLACK
6
CONTINUOUS
10
0.6836054724409448
20
0.2354417716535433
11
0.6861599606299212
21
0.2371486614173228
0
LINE
8
BLACK
6
CONTINUOUS
10
0.6861599606299212
20
0.2371486614173228
11
0.6891732283464567
21
0.237748031496063
0
LINE
8
BLACK
6
CONTINUOUS
10
0.6891732283464567
20
0.237748031496063
11
0.7108267716535432
21
0.237748031496063
0
LINE
8
BLACK
6
CONTINUOUS
10
0.7108267716535432
20
0.237748031496063
11
0.7138400393700787
21
0.2371486614173228
0
LINE
8
BLACK
6
CONTINUOUS
10
0.2325749212598425
20
0.2426607086614173
11
0.2344907874015748
21
0.2413805511811024
0
LINE
8
BLACK
6
CONTINUOUS
10
0.2344907874015748
20
0.2413805511811024
11
0.2357709448818898
21
0.2394646850393701
0
LINE
8
BLACK
6
CONTINUOUS
10
0.2357709448818898
20
0.2394646850393701
11
0.2362204724409449
21
0.2372047244094488
0
LINE
8
BLACK
6
CONTINUOUS
10
0.2362204724409449
20
0.2372047244094488
11
0.2362204724409449
21
0.2253937007874016
0
LINE
8
BLACK
6
CONTINUOUS
10
0.2362204724409449
20
0.2253937007874016
11
0.2357709448818898
21
0.2231337401574803
0
LINE
8
BLACK
6
CONTINUOUS
10
0.2357709448818898
20
0.2231337401574803
11
0.2344907874015748
21
0.221217874015748
0
LINE
8
BLACK
6
CONTINUOUS
10
0.2344907874015748
20
0.221217874015748
11
0.2325749212598425
21
0.2199377165354331
0
LINE
8
BLACK
6
CONTINUOUS
10
0.2325749212598425
20
0.2199377165354331
11
0.2303149606299213
21
0.219488188976378
0
LINE
8
BLACK
6
CONTINUOUS
10
0.2303149606299213
20
0.219488188976378
11
0.1751968503937008
21
0.219488188976378
0
LINE
8
BLACK
6
CONTINUOUS
10
0.1751968503937008
20
0.219488188976378
11
0.1729368897637795
21
0.2199377165354331
0
LINE
8
BLACK
6
CONTINUOUS
10
0.1729368897637795
20
0.2199377165354331
11
0.1710210236220472
21
0.221217874015748
0
LINE
8
BLACK
6
CONTINUOUS
10
0.1710210236220472
20
0.221217874015748
11
0.1697408661417323
21
0.2231337401574803
0
LINE
8
BLACK
6
CONTINUOUS
10
0.1697408661417323
20
0.2231337401574803
11
0.1692913385826772
21
0.2253937007874016
0
LINE
8
BLACK
6
CONTINUOUS
10
0.1692913385826772
20
0.2253937007874016
11
0.1692913385826772
21
0.2372047244094488
0
LINE
8
BLACK
6
CONTINUOUS
10
0.1692913385826772
20
0.2372047244094488
11
0.1697408661417323
21
0.2394646850393701
0
LINE
8
BLACK
6
CONTINUOUS
10
0.1697408661417323
20
0.2394646850393701
11
0.1710210236220472
21
0.2413805511811024
0
LINE
8
BLACK
6
CONTINUOUS
10
0.1710210236220472
20
0.2413805511811024
11
0.1729368897637795
21
0.2426607086614173
0
LINE
8
BLACK
6
CONTINUOUS
10
0.1729368897637795
20
0.2426607086614173
11
0.1751968503937008
21
0.2431102362204724
0
LINE
8
BLACK
6
CONTINUOUS
10
0.1751968503937008
20
0.2431102362204724
11
0.2303149606299213
21
0.2431102362204724
0
LINE
8
BLACK
6
CONTINUOUS
10
0.2303149606299213
20
0.2431102362204724
11
0.2325749212598425
21
0.2426607086614173
0
LINE
8
BLACK
6
CONTINUOUS
10
0.8113150787401575
20
0.2426607086614173
11
0.8132309448818897
21
0.2413805511811024
0
LINE
8
BLACK
6
CONTINUOUS
10
0.8132309448818897
20
0.2413805511811024
11
0.8145111023622047
21
0.2394646850393701
0
LINE
8
BLACK
6
CONTINUOUS
10
0.8145111023622047
20
0.2394646850393701
11
0.8149606299212598
21
0.2372047244094488
0
LINE
8
BLACK
6
CONTINUOUS
10
0.8149606299212598
20
0.2372047244094488
11
0.8149606299212598
21
0.2253937007874016
0
LINE
8
BLACK
6
CONTINUOUS
10
0.8149606299212598
20
0.2253937007874016
11
0.8145111023622047
21
0.2231337401574803
0
LINE
8
BLACK
6
CONTINUOUS
10
0.8145111023622047
20
0.2231337401574803
11
0.8132309448818897
21
0.221217874015748
0
LINE
8
BLACK
6
CONTINUOUS
10
0.8132309448818897
20
0.221217874015748
11
0.8113150787401575
21
0.2199377165354331
0
LINE
8
BLACK
6
CONTINUOUS
10
0.8113150787401575
20
0.2199377165354331
11
0.8090551181102362
21
0.219488188976378
0
LINE
8
BLACK
6
CONTINUOUS
10
0.8090551181102362
20
0.219488188976378
11
0.7539370078740157
21
0.219488188976378
0
LINE
8
BLACK
6
CONTINUOUS
10
0.7539370078740157
20
0.219488188976378
11
0.7516770472440945
21
0.2199377165354331
0
LINE
8
BLACK
6
CONTINUOUS
10
0.7516770472440945
20
0.2199377165354331
11
0.7497611811023622
21
0.221217874015748
0
LINE
8
BLACK
6
CONTINUOUS
10
0.7497611811023622
20
0.221217874015748
11
0.7484810236220473
21
0.2231337401574803
0
LINE
8
BLACK
6
CONTINUOUS
10
0.7484810236220473
20
0.2231337401574803
11
0.7480314960629921
21
0.2253937007874016
0
LINE
8
BLACK
6
CONTINUOUS
10
0.7480314960629921
20
0.2253937007874016
11
0.7480314960629921
21
0.2372047244094488
0
LINE
8
BLACK
6
CONTINUOUS
10
0.7480314960629921
20
0.2372047244094488
11
0.7484810236220473
21
0.2394646850393701
0
LINE
8
BLACK
6
CONTINUOUS
10
0.7484810236220473
20
0.2394646850393701
11
0.7497611811023622
21
0.2413805511811024
0
LINE
8
BLACK
6
CONTINUOUS
10
0.7497611811023622
20
0.2413805511811024
11
0.7516770472440945
21
0.2426607086614173
0
LINE
8
BLACK
6
CONTINUOUS
10
0.7516770472440945
20
0.2426607086614173
11
0.7539370078740157
21
0.2431102362204724
0
LINE
8
BLACK
6
CONTINUOUS
10
0.7539370078740157
20
0.2431102362204724
11
0.8090551181102362
21
0.2431102362204724
0
LINE
8
BLACK
6
CONTINUOUS
10
0.8090551181102362
20
0.2431102362204724
11
0.8113150787401575
21
0.2426607086614173
0
LINE
8
BLACK
6
CONTINUOUS
10
0.3283449606299212
20
0.2611554724409449
11
0.3311389763779528
21
0.2592885826771654
0
LINE
8
BLACK
6
CONTINUOUS
10
0.3311389763779528
20
0.2592885826771654
11
0.3330058661417323
21
0.2564945669291339
0
LINE
8
BLACK
6
CONTINUOUS
10
0.3330058661417323
20
0.2564945669291339
11
0.3336614173228347
21
0.2531988188976378
0
LINE
8
BLACK
6
CONTINUOUS
10
0.3336614173228347
20
0.2531988188976378
11
0.3336614173228347
21
0.2359744094488189
0
LINE
8
BLACK
6
CONTINUOUS
10
0.3336614173228347
20
0.2359744094488189
11
0.3330058661417323
21
0.2326786614173228
0
LINE
8
BLACK
6
CONTINUOUS
10
0.3330058661417323
20
0.2326786614173228
11
0.3311389763779528
21
0.2298846456692913
0
LINE
8
BLACK
6
CONTINUOUS
10
0.3311389763779528
20
0.2298846456692913
11
0.3283449606299212
21
0.2280177559055118
0
LINE
8
BLACK
6
CONTINUOUS
10
0.3283449606299212
20
0.2280177559055118
11
0.3250492125984252
21
0.2273622047244094
0
LINE
8
BLACK
6
CONTINUOUS
10
0.3250492125984252
20
0.2273622047244094
11
0.3048720472440945
21
0.2273622047244094
0
LINE
8
BLACK
6
CONTINUOUS
10
0.3048720472440945
20
0.2273622047244094
11
0.3015762992125984
21
0.2280177559055118
0
LINE
8
BLACK
6
CONTINUOUS
10
0.3015762992125984
20
0.2280177559055118
11
0.2987822834645669
21
0.2298846456692913
0
LINE
8
BLACK
6
CONTINUOUS
10
0.2987822834645669
20
0.2298846456692913
11
0.2969153937007874
21
0.2326786614173228
0
LINE
8
BLACK
6
CONTINUOUS
10
0.2969153937007874
20
0.2326786614173228
11
0.296259842519685
21
0.2359744094488189
0
LINE
8
BLACK
6
CONTINUOUS
10
0.296259842519685
20
0.2359744094488189
11
0.296259842519685
21
0.2531988188976378
0
LINE
8
BLACK
6
CONTINUOUS
10
0.296259842519685
20
0.2531988188976378
11
0.2969153937007874
21
0.2564945669291339
0
LINE
8
BLACK
6
CONTINUOUS
10
0.2969153937007874
20
0.2564945669291339
11
0.2987822834645669
21
0.2592885826771654
0
LINE
8
BLACK
6
CONTINUOUS
10
0.2987822834645669
20
0.2592885826771654
11
0.3015762992125984
21
0.2611554724409449
0
LINE
8
BLACK
6
CONTINUOUS
10
0.3015762992125984
20
0.2611554724409449
11
0.3048720472440945
21
0.2618110236220472
0
LINE
8
BLACK
6
CONTINUOUS
10
0.3048720472440945
20
0.2618110236220472
11
0.3250492125984252
21
0.2618110236220472
0
LINE
8
BLACK
6
CONTINUOUS
10
0.3250492125984252
20
0.2618110236220472
11
0.3283449606299212
21
0.2611554724409449
0
LINE
8
BLACK
6
CONTINUOUS
10
0.3998400393700787
20
0.2606683464566929
11
0.4023945275590551
21
0.2589614566929134
0
LINE
8
BLACK
6
CONTINUOUS
10
0.4023945275590551
20
0.2589614566929134
11
0.4041014173228346
21
0.256406968503937
0
LINE
8
BLACK
6
CONTINUOUS
10
0.4041014173228346
20
0.256406968503937
11
0.4047007874015748
21
0.2533937007874016
0
LINE
8
BLACK
6
CONTINUOUS
10
0.4047007874015748
20
0.2533937007874016
11
0.4047007874015748
21
0.2376456692913386
0
LINE
8
BLACK
6
CONTINUOUS
10
0.4047007874015748
20
0.2376456692913386
11
0.4041014173228346
21
0.2346324015748031
0
LINE
8
BLACK
6
CONTINUOUS
10
0.4041014173228346
20
0.2346324015748031
11
0.4023945275590551
21
0.2320779133858268
0
LINE
8
BLACK
6
CONTINUOUS
10
0.4023945275590551
20
0.2320779133858268
11
0.3998400393700787
21
0.2303710236220472
0
LINE
8
BLACK
6
CONTINUOUS
10
0.3998400393700787
20
0.2303710236220472
11
0.3968267716535433
21
0.2297716535433071
0
LINE
8
BLACK
6
CONTINUOUS
10
0.3968267716535433
20
0.2297716535433071
11
0.3751732283464567
21
0.2297716535433071
0
LINE
8
BLACK
6
CONTINUOUS
10
0.3751732283464567
20
0.2297716535433071
11
0.3721599606299212
21
0.2303710236220472
0
LINE
8
BLACK
6
CONTINUOUS
10
0.3721599606299212
20
0.2303710236220472
11
0.3696054724409449
21
0.2320779133858268
0
LINE
8
BLACK
6
CONTINUOUS
10
0.3696054724409449
20
0.2320779133858268
11
0.3678985826771654
21
0.2346324015748031
0
LINE
8
BLACK
6
CONTINUOUS
10
0.3678985826771654
20
0.2346324015748031
11
0.3672992125984252
21
0.2376456692913386
0
LINE
8
BLACK
6
CONTINUOUS
10
0.3672992125984252
20
0.2376456692913386
11
0.3672992125984252
21
0.2533937007874016
0
LINE
8
BLACK
6
CONTINUOUS
10
0.3672992125984252
20
0.2533937007874016
11
0.3678985826771654
21
0.256406968503937
0
LINE
8
BLACK
6
CONTINUOUS
10
0.3678985826771654
20
0.256406968503937
11
0.3696054724409449
21
0.2589614566929134
0
LINE
8
BLACK
6
CONTINUOUS
10
0.3696054724409449
20
0.2589614566929134
11
0.3721599606299212
21
0.2606683464566929
0
LINE
8
BLACK
6
CONTINUOUS
10
0.3721599606299212
20
0.2606683464566929
11
0.3751732283464567
21
0.2612677165354331
0
LINE
8
BLACK
6
CONTINUOUS
10
0.3751732283464567
20
0.2612677165354331
11
0.3968267716535433
21
0.2612677165354331
0
LINE
8
BLACK
6
CONTINUOUS
10
0.3968267716535433
20
0.2612677165354331
11
0.3998400393700787
21
0.2606683464566929
0
LINE
8
BLACK
6
CONTINUOUS
10
0.2325749212598425
20
0.2918733070866142
11
0.2344907874015748
21
0.2905931496062992
0
LINE
8
BLACK
6
CONTINUOUS
10
0.2344907874015748
20
0.2905931496062992
11
0.2357709448818898
21
0.2886772834645669
0
LINE
8
BLACK
6
CONTINUOUS
10
0.2357709448818898
20
0.2886772834645669
11
0.2362204724409449
21
0.2864173228346457
0
LINE
8
BLACK
6
CONTINUOUS
10
0.2362204724409449
20
0.2864173228346457
11
0.2362204724409449
21
0.2746062992125984
0
LINE
8
BLACK
6
CONTINUOUS
10
0.2362204724409449
20
0.2746062992125984
11
0.2357709448818898
21
0.2723463385826771
0
LINE
8
BLACK
6
CONTINUOUS
10
0.2357709448818898
20
0.2723463385826771
11
0.2344907874015748
21
0.2704304724409449
0
LINE
8
BLACK
6
CONTINUOUS
10
0.2344907874015748
20
0.2704304724409449
11
0.2325749212598425
21
0.2691503149606299
0
LINE
8
BLACK
6
CONTINUOUS
10
0.2325749212598425
20
0.2691503149606299
11
0.2303149606299213
21
0.2687007874015748
0
LINE
8
BLACK
6
CONTINUOUS
10
0.2303149606299213
20
0.2687007874015748
11
0.1751968503937008
21
0.2687007874015748
0
LINE
8
BLACK
6
CONTINUOUS
10
0.1751968503937008
20
0.2687007874015748
11
0.1729368897637795
21
0.2691503149606299
0
LINE
8
BLACK
6
CONTINUOUS
10
0.1729368897637795
20
0.2691503149606299
11
0.1710210236220472
21
0.2704304724409449
0
LINE
8
BLACK
6
CONTINUOUS
10
0.1710210236220472
20
0.2704304724409449
11
0.1697408661417323
21
0.2723463385826771
0
LINE
8
BLACK
6
CONTINUOUS
10
0.1697408661417323
20
0.2723463385826771
11
0.1692913385826772
21
0.2746062992125984
0
LINE
8
BLACK
6
CONTINUOUS
10
0.1692913385826772
20
0.2746062992125984
11
0.1692913385826772
21
0.2864173228346457
0
LINE
8
BLACK
6
CONTINUOUS
10
0.1692913385826772
20
0.2864173228346457
11
0.1697408661417323
21
0.2886772834645669
0
LINE
8
BLACK
6
CONTINUOUS
10
0.1697408661417323
20
0.2886772834645669
11
0.1710210236220472
21
0.2905931496062992
0
LINE
8
BLACK
6
CONTINUOUS
10
0.1710210236220472
20
0.2905931496062992
11
0.1729368897637795
21
0.2918733070866142
0
LINE
8
BLACK
6
CONTINUOUS
10
0.1729368897637795
20
0.2918733070866142
11
0.1751968503937008
21
0.2923228346456693
0
LINE
8
BLACK
6
CONTINUOUS
10
0.1751968503937008
20
0.2923228346456693
11
0.2303149606299213
21
0.2923228346456693
0
LINE
8
BLACK
6
CONTINUOUS
10
0.2303149606299213
20
0.2923228346456693
11
0.2325749212598425
21
0.2918733070866142
0
LINE
8
BLACK
6
CONTINUOUS
10
0.8113150787401575
20
0.2918733070866142
11
0.8132309448818897
21
0.2905931496062992
0
LINE
8
BLACK
6
CONTINUOUS
10
0.8132309448818897
20
0.2905931496062992
11
0.8145111023622047
21
0.2886772834645669
0
LINE
8
BLACK
6
CONTINUOUS
10
0.8145111023622047
20
0.2886772834645669
11
0.8149606299212598
21
0.2864173228346457
0
LINE
8
BLACK
6
CONTINUOUS
10
0.8149606299212598
20
0.2864173228346457
11
0.8149606299212598
21
0.2746062992125984
0
LINE
8
BLACK
6
CONTINUOUS
10
0.8149606299212598
20
0.2746062992125984
11
0.8145111023622047
21
0.2723463385826771
0
LINE
8
BLACK
6
CONTINUOUS
10
0.8145111023622047
20
0.2723463385826771
11
0.8132309448818897
21
0.2704304724409449
0
LINE
8
BLACK
6
CONTINUOUS
10
0.8132309448818897
20
0.2704304724409449
11
0.8113150787401575
21
0.2691503149606299
0
LINE
8
BLACK
6
CONTINUOUS
10
0.8113150787401575
20
0.2691503149606299
11
0.8090551181102362
21
0.2687007874015748
0
LINE
8
BLACK
6
CONTINUOUS
10
0.8090551181102362
20
0.2687007874015748
11
0.7539370078740157
21
0.2687007874015748
0
LINE
8
BLACK
6
CONTINUOUS
10
0.7539370078740157
20
0.2687007874015748
11
0.7516770472440945
21
0.2691503149606299
0
LINE
8
BLACK
6
CONTINUOUS
10
0.7516770472440945
20
0.2691503149606299
11
0.7497611811023622
21
0.2704304724409449
0
LINE
8
BLACK
6
CONTINUOUS
10
0.7497611811023622
20
0.2704304724409449
11
0.7484810236220473
21
0.2723463385826771
0
LINE
8
BLACK
6
CONTINUOUS
10
0.7484810236220473
20
0.2723463385826771
11
0.7480314960629921
21
0.2746062992125984
0
LINE
8
BLACK
6
CONTINUOUS
10
0.7480314960629921
20
0.2746062992125984
11
0.7480314960629921
21
0.2864173228346457
0
LINE
8
BLACK
6
CONTINUOUS
10
0.7480314960629921
20
0.2864173228346457
11
0.7484810236220473
21
0.2886772834645669
0
LINE
8
BLACK
6
CONTINUOUS
10
0.7484810236220473
20
0.2886772834645669
11
0.7497611811023622
21
0.2905931496062992
0
LINE
8
BLACK
6
CONTINUOUS
10
0.7497611811023622
20
0.2905931496062992
11
0.7516770472440945
21
0.2918733070866142
0
LINE
8
BLACK
6
CONTINUOUS
10
0.7516770472440945
20
0.2918733070866142
11
0.7539370078740157
21
0.2923228346456693
0
LINE
8
BLACK
6
CONTINUOUS
10
0.7539370078740157
20
0.2923228346456693
11
0.8090551181102362
21
0.2923228346456693
0
LINE
8
BLACK
6
CONTINUOUS
10
0.8090551181102362
20
0.2923228346456693
11
0.8113150787401575
21
0.2918733070866142
0
LINE
8
BLACK
6
CONTINUOUS
10
0.6478400393700787
20
0.3011486614173228
11
0.6503945275590551
21
0.2994417716535433
0
LINE
8
BLACK
6
CONTINUOUS
10
0.6503945275590551
20
0.2994417716535433
11
0.6521014173228347
21
0.2968872834645669
0
LINE
8
BLACK
6
CONTINUOUS
10
0.6521014173228347
20
0.2968872834645669
11
0.6527007874015748
21
0.2938740157480315
0
LINE
8
BLACK
6
CONTINUOUS
10
0.6527007874015748
20
0.2938740157480315
11
0.6527007874015748
21
0.2781259842519685
0
LINE
8
BLACK
6
CONTINUOUS
10
0.6527007874015748
20
0.2781259842519685
11
0.6521014173228347
21
0.2751127165354331
0
LINE
8
BLACK
6
CONTINUOUS
10
0.6521014173228347
20
0.2751127165354331
11
0.6503945275590551
21
0.2725582283464567
0
LINE
8
BLACK
6
CONTINUOUS
10
0.6503945275590551
20
0.2725582283464567
11
0.6478400393700787
21
0.2708513385826772
0
LINE
8
BLACK
6
CONTINUOUS
10
0.6478400393700787
20
0.2708513385826772
11
0.6448267716535433
21
0.270251968503937
0
LINE
8
BLACK
6
CONTINUOUS
10
0.6448267716535433
20
0.270251968503937
11
0.6231732283464567
21
0.270251968503937
0
LINE
8
BLACK
6
CONTINUOUS
10
0.6231732283464567
20
0.270251968503937
11
0.6201599606299213
21
0.2708513385826772
0
LINE
8
BLACK
6
CONTINUOUS
10
0.6201599606299213
20
0.2708513385826772
11
0.6176054724409449
21
0.2725582283464567
0
LINE
8
BLACK
6
CONTINUOUS
10
0.6176054724409449
20
0.2725582283464567
11
0.6158985826771654
21
0.2751127165354331
0
LINE
8
BLACK
6
CONTINUOUS
10
0.6158985826771654
20
0.2751127165354331
11
0.6152992125984252
21
0.2781259842519685
0
LINE
8
BLACK
6
CONTINUOUS
10
0.6152992125984252
20
0.2781259842519685
11
0.6152992125984252
21
0.2938740157480315
0
LINE
8
BLACK
6
CONTINUOUS
10
0.6152992125984252
20
0.2938740157480315
11
0.6158985826771654
21
0.2968872834645669
0
LINE
8
BLACK
6
CONTINUOUS
10
0.6158985826771654
20
0.2968872834645669
11
0.6176054724409449
21
0.2994417716535433
0
LINE
8
BLACK
6
CONTINUOUS
10
0.6176054724409449
20
0.2994417716535433
11
0.6201599606299213
21
0.3011486614173228
0
LINE
8
BLACK
6
CONTINUOUS
10
0.6201599606299213
20
0.3011486614173228
11
0.6231732283464567
21
0.301748031496063
0
LINE
8
BLACK
6
CONTINUOUS
10
0.6231732283464567
20
0.301748031496063
11
0.6448267716535433
21
0.301748031496063
0
LINE
8
BLACK
6
CONTINUOUS
10
0.6448267716535433
20
0.301748031496063
11
0.6478400393700787
21
0.3011486614173228
0
LINE
8
BLACK
6
CONTINUOUS
10
0.7138400393700787
20
0.3021092913385827
11
0.7163945275590551
21
0.3004024015748031
0
LINE
8
BLACK
6
CONTINUOUS
10
0.7163945275590551
20
0.3004024015748031
11
0.7181014173228346
21
0.2978479133858268
0
LINE
8
BLACK
6
CONTINUOUS
10
0.7181014173228346
20
0.2978479133858268
11
0.7187007874015748
21
0.2948346456692914
0
LINE
8
BLACK
6
CONTINUOUS
10
0.7187007874015748
20
0.2948346456692914
11
0.7187007874015748
21
0.2790866141732283
0
LINE
8
BLACK
6
CONTINUOUS
10
0.7187007874015748
20
0.2790866141732283
11
0.7181014173228346
21
0.2760733464566929
0
LINE
8
BLACK
6
CONTINUOUS
10
0.7181014173228346
20
0.2760733464566929
11
0.7163945275590551
21
0.2735188582677165
0
LINE
8
BLACK
6
CONTINUOUS
10
0.7163945275590551
20
0.2735188582677165
11
0.7138400393700787
21
0.271811968503937
0
LINE
8
BLACK
6
CONTINUOUS
10
0.7138400393700787
20
0.271811968503937
11
0.7108267716535432
21
0.2712125984251968
0
LINE
8
BLACK
6
CONTINUOUS
10
0.7108267716535432
20
0.2712125984251968
11
0.6891732283464567
21
0.2712125984251968
0
LINE
8
BLACK
6
CONTINUOUS
10
0.6891732283464567
20
0.2712125984251968
11
0.6861599606299212
21
0.271811968503937
0
LINE
8
BLACK
6
CONTINUOUS
10
0.6861599606299212
20
0.271811968503937
11
0.6836054724409448
21
0.2735188582677165
0
LINE
8
BLACK
6
CONTINUOUS
10
0.6836054724409448
20
0.2735188582677165
11
0.6818985826771653
21
0.2760733464566929
0
LINE
8
BLACK
6
CONTINUOUS
10
0.6818985826771653
20
0.2760733464566929
11
0.6812992125984252
21
0.2790866141732283
0
LINE
8
BLACK
6
CONTINUOUS
10
0.6812992125984252
20
0.2790866141732283
11
0.6812992125984252
21
0.2948346456692914
0
LINE
8
BLACK
6
CONTINUOUS
10
0.6812992125984252
20
0.2948346456692914
11
0.6818985826771653
21
0.2978479133858268
0
LINE
8
BLACK
6
CONTINUOUS
10
0.6818985826771653
20
0.2978479133858268
11
0.6836054724409448
21
0.3004024015748031
0
LINE
8
BLACK
6
CONTINUOUS
10
0.6836054724409448
20
0.3004024015748031
11
0.6861599606299212
21
0.3021092913385827
0
LINE
8
BLACK
6
CONTINUOUS
10
0.6861599606299212
20
0.3021092913385827
11
0.6891732283464567
21
0.3027086614173228
0
LINE
8
BLACK
6
CONTINUOUS
10
0.6891732283464567
20
0.3027086614173228
11
0.7108267716535432
21
0.3027086614173228
0
LINE
8
BLACK
6
CONTINUOUS
10
0.7108267716535432
20
0.3027086614173228
11
0.7138400393700787
21
0.3021092913385827
0
LINE
8
BLACK
6
CONTINUOUS
10
0.3283449606299212
20
0.3231633464566929
11
0.3311389763779528
21
0.3212964566929134
0
LINE
8
BLACK
6
CONTINUOUS
10
0.3311389763779528
20
0.3212964566929134
11
0.3330058661417323
21
0.3185024409448819
0
LINE
8
BLACK
6
CONTINUOUS
10
0.3330058661417323
20
0.3185024409448819
11
0.3336614173228347
21
0.3152066929133858
0
LINE
8
BLACK
6
CONTINUOUS
10
0.3336614173228347
20
0.3152066929133858
11
0.3336614173228347
21
0.2979822834645669
0
LINE
8
BLACK
6
CONTINUOUS
10
0.3336614173228347
20
0.2979822834645669
11
0.3330058661417323
21
0.2946865354330709
0
LINE
8
BLACK
6
CONTINUOUS
10
0.3330058661417323
20
0.2946865354330709
11
0.3311389763779528
21
0.2918925196850394
0
LINE
8
BLACK
6
CONTINUOUS
10
0.3311389763779528
20
0.2918925196850394
11
0.3283449606299212
21
0.2900256299212599
0
LINE
8
BLACK
6
CONTINUOUS
10
0.3283449606299212
20
0.2900256299212599
11
0.3250492125984252
21
0.2893700787401575
0
LINE
8
BLACK
6
CONTINUOUS
10
0.3250492125984252
20
0.2893700787401575
11
0.3048720472440945
21
0.2893700787401575
0
LINE
8
BLACK
6
CONTINUOUS
10
0.3048720472440945
20
0.2893700787401575
11
0.3015762992125984
21
0.2900256299212599
0
LINE
8
BLACK
6
CONTINUOUS
10
0.3015762992125984
20
0.2900256299212599
11
0.2987822834645669
21
0.2918925196850394
0
LINE
8
BLACK
6
CONTINUOUS
10
0.2987822834645669
20
0.2918925196850394
11
0.2969153937007874
21
0.2946865354330709
0
LINE
8
BLACK
6
CONTINUOUS
10
0.2969153937007874
20
0.2946865354330709
11
0.296259842519685
21
0.2979822834645669
0
LINE
8
BLACK
6
CONTINUOUS
10
0.296259842519685
20
0.2979822834645669
11
0.296259842519685
21
0.3152066929133858
0
LINE
8
BLACK
6
CONTINUOUS
10
0.296259842519685
20
0.3152066929133858
11
0.2969153937007874
21
0.3185024409448819
0
LINE
8
BLACK
6
CONTINUOUS
10
0.2969153937007874
20
0.3185024409448819
11
0.2987822834645669
21
0.3212964566929134
0
LINE
8
BLACK
6
CONTINUOUS
10
0.2987822834645669
20
0.3212964566929134
11
0.3015762992125984
21
0.3231633464566929
0
LINE
8
BLACK
6
CONTINUOUS
10
0.3015762992125984
20
0.3231633464566929
11
0.3048720472440945
21
0.3238188976377953
0
LINE
8
BLACK
6
CONTINUOUS
10
0.3048720472440945
20
0.3238188976377953
11
0.3250492125984252
21
0.3238188976377953
0
LINE
8
BLACK
6
CONTINUOUS
10
0.3250492125984252
20
0.3238188976377953
11
0.3283449606299212
21
0.3231633464566929
0
LINE
8
BLACK
6
CONTINUOUS
10
0.3998400393700787
20
0.3256289763779527
11
0.4023945275590551
21
0.3239220866141732
0
LINE
8
BLACK
6
CONTINUOUS
10
0.4023945275590551
20
0.3239220866141732
11
0.4041014173228346
21
0.3213675984251969
0
LINE
8
BLACK
6
CONTINUOUS
10
0.4041014173228346
20
0.3213675984251969
11
0.4047007874015748
21
0.3183543307086614
0
LINE
8
BLACK
6
CONTINUOUS
10
0.4047007874015748
20
0.3183543307086614
11
0.4047007874015748
21
0.3026062992125984
0
LINE
8
BLACK
6
CONTINUOUS
10
0.4047007874015748
20
0.3026062992125984
11
0.4041014173228346
21
0.299593031496063
0
LINE
8
BLACK
6
CONTINUOUS
10
0.4041014173228346
20
0.299593031496063
11
0.4023945275590551
21
0.2970385433070866
0
LINE
8
BLACK
6
CONTINUOUS
10
0.4023945275590551
20
0.2970385433070866
11
0.3998400393700787
21
0.2953316535433071
0
LINE
8
BLACK
6
CONTINUOUS
10
0.3998400393700787
20
0.2953316535433071
11
0.3968267716535433
21
0.2947322834645669
0
LINE
8
BLACK
6
CONTINUOUS
10
0.3968267716535433
20
0.2947322834645669
11
0.3751732283464567
21
0.2947322834645669
0
LINE
8
BLACK
6
CONTINUOUS
10
0.3751732283464567
20
0.2947322834645669
11
0.3721599606299212
21
0.2953316535433071
0
LINE
8
BLACK
6
CONTINUOUS
10
0.3721599606299212
20
0.2953316535433071
11
0.3696054724409449
21
0.2970385433070866
0
LINE
8
BLACK
6
CONTINUOUS
10
0.3696054724409449
20
0.2970385433070866
11
0.3678985826771654
21
0.299593031496063
0
LINE
8
BLACK
6
CONTINUOUS
10
0.3678985826771654
20
0.299593031496063
11
0.3672992125984252
21
0.3026062992125984
0
LINE
8
BLACK
6
CONTINUOUS
10
0.3672992125984252
20
0.3026062992125984
11
0.3672992125984252
21
0.3183543307086614
0
LINE
8
BLACK
6
CONTINUOUS
10
0.3672992125984252
20
0.3183543307086614
11
0.3678985826771654
21
0.3213675984251969
0
LINE
8
BLACK
6
CONTINUOUS
10
0.3678985826771654
20
0.3213675984251969
11
0.3696054724409449
21
0.3239220866141732
0
LINE
8
BLACK
6
CONTINUOUS
10
0.3696054724409449
20
0.3239220866141732
11
0.3721599606299212
21
0.3256289763779527
0
LINE
8
BLACK
6
CONTINUOUS
10
0.3721599606299212
20
0.3256289763779527
11
0.3751732283464567
21
0.3262283464566929
0
LINE
8
BLACK
6
CONTINUOUS
10
0.3751732283464567
20
0.3262283464566929
11
0.3968267716535433
21
0.3262283464566929
0
LINE
8
BLACK
6
CONTINUOUS
10
0.3968267716535433
20
0.3262283464566929
11
0.3998400393700787
21
0.3256289763779527
0
LINE
8
BLACK
6
CONTINUOUS
10
0.2325749212598425
20
0.341085905511811
11
0.2344907874015748
21
0.339805748031496
0
LINE
8
BLACK
6
CONTINUOUS
10
0.2344907874015748
20
0.339805748031496
11
0.2357709448818898
21
0.3378898818897638
0
LINE
8
BLACK
6
CONTINUOUS
10
0.2357709448818898
20
0.3378898818897638
11
0.2362204724409449
21
0.3356299212598425
0
LINE
8
BLACK
6
CONTINUOUS
10
0.2362204724409449
20
0.3356299212598425
11
0.2362204724409449
21
0.3238188976377953
0
LINE
8
BLACK
6
CONTINUOUS
10
0.2362204724409449
20
0.3238188976377953
11
0.2357709448818898
21
0.321558937007874
0
LINE
8
BLACK
6
CONTINUOUS
10
0.2357709448818898
20
0.321558937007874
11
0.2344907874015748
21
0.3196430708661417
0
LINE
8
BLACK
6
CONTINUOUS
10
0.2344907874015748
20
0.3196430708661417
11
0.2325749212598425
21
0.3183629133858268
0
LINE
8
BLACK
6
CONTINUOUS
10
0.2325749212598425
20
0.3183629133858268
11
0.2303149606299213
21
0.3179133858267716
0
LINE
8
BLACK
6
CONTINUOUS
10
0.2303149606299213
20
0.3179133858267716
11
0.1751968503937008
21
0.3179133858267716
0
LINE
8
BLACK
6
CONTINUOUS
10
0.1751968503937008
20
0.3179133858267716
11
0.1729368897637795
21
0.3183629133858268
0
LINE
8
BLACK
6
CONTINUOUS
10
0.1729368897637795
20
0.3183629133858268
11
0.1710210236220472
21
0.3196430708661417
0
LINE
8
BLACK
6
CONTINUOUS
10
0.1710210236220472
20
0.3196430708661417
11
0.1697408661417323
21
0.321558937007874
0
LINE
8
BLACK
6
CONTINUOUS
10
0.1697408661417323
20
0.321558937007874
11
0.1692913385826772
21
0.3238188976377953
0
LINE
8
BLACK
6
CONTINUOUS
10
0.1692913385826772
20
0.3238188976377953
11
0.1692913385826772
21
0.3356299212598425
0
LINE
8
BLACK
6
CONTINUOUS
10
0.1692913385826772
20
0.3356299212598425
11
0.1697408661417323
21
0.3378898818897638
0
LINE
8
BLACK
6
CONTINUOUS
10
0.1697408661417323
20
0.3378898818897638
11
0.1710210236220472
21
0.339805748031496
0
LINE
8
BLACK
6
CONTINUOUS
10
0.1710210236220472
20
0.339805748031496
11
0.1729368897637795
21
0.341085905511811
0
LINE
8
BLACK
6
CONTINUOUS
10
0.1729368897637795
20
0.341085905511811
11
0.1751968503937008
21
0.3415354330708661
0
LINE
8
BLACK
6
CONTINUOUS
10
0.1751968503937008
20
0.3415354330708661
11
0.2303149606299213
21
0.3415354330708661
0
LINE
8
BLACK
6
CONTINUOUS
10
0.2303149606299213
20
0.3415354330708661
11
0.2325749212598425
21
0.341085905511811
0
LINE
8
BLACK
6
CONTINUOUS
10
0.8113150787401575
20
0.341085905511811
11
0.8132309448818897
21
0.339805748031496
0
LINE
8
BLACK
6
CONTINUOUS
10
0.8132309448818897
20
0.339805748031496
11
0.8145111023622047
21
0.3378898818897638
0
LINE
8
BLACK
6
CONTINUOUS
10
0.8145111023622047
20
0.3378898818897638
11
0.8149606299212598
21
0.3356299212598425
0
LINE
8
BLACK
6
CONTINUOUS
10
0.8149606299212598
20
0.3356299212598425
11
0.8149606299212598
21
0.3238188976377953
0
LINE
8
BLACK
6
CONTINUOUS
10
0.8149606299212598
20
0.3238188976377953
11
0.8145111023622047
21
0.321558937007874
0
LINE
8
BLACK
6
CONTINUOUS
10
0.8145111023622047
20
0.321558937007874
11
0.8132309448818897
21
0.3196430708661417
0
LINE
8
BLACK
6
CONTINUOUS
10
0.8132309448818897
20
0.3196430708661417
11
0.8113150787401575
21
0.3183629133858268
0
LINE
8
BLACK
6
CONTINUOUS
10
0.8113150787401575
20
0.3183629133858268
11
0.8090551181102362
21
0.3179133858267716
0
LINE
8
BLACK
6
CONTINUOUS
10
0.8090551181102362
20
0.3179133858267716
11
0.7539370078740157
21
0.3179133858267716
0
LINE
8
BLACK
6
CONTINUOUS
10
0.7539370078740157
20
0.3179133858267716
11
0.7516770472440945
21
0.3183629133858268
0
LINE
8
BLACK
6
CONTINUOUS
10
0.7516770472440945
20
0.3183629133858268
11
0.7497611811023622
21
0.3196430708661417
0
LINE
8
BLACK
6
CONTINUOUS
10
0.7497611811023622
20
0.3196430708661417
11
0.7484810236220473
21
0.321558937007874
0
LINE
8
BLACK
6
CONTINUOUS
10
0.7484810236220473
20
0.321558937007874
11
0.7480314960629921
21
0.3238188976377953
0
LINE
8
BLACK
6
CONTINUOUS
10
0.7480314960629921
20
0.3238188976377953
11
0.7480314960629921
21
0.3356299212598425
0
LINE
8
BLACK
6
CONTINUOUS
10
0.7480314960629921
20
0.3356299212598425
11
0.7484810236220473
21
0.3378898818897638
0
LINE
8
BLACK
6
CONTINUOUS
10
0.7484810236220473
20
0.3378898818897638
11
0.7497611811023622
21
0.339805748031496
0
LINE
8
BLACK
6
CONTINUOUS
10
0.7497611811023622
20
0.339805748031496
11
0.7516770472440945
21
0.341085905511811
0
LINE
8
BLACK
6
CONTINUOUS
10
0.7516770472440945
20
0.341085905511811
11
0.7539370078740157
21
0.3415354330708661
0
LINE
8
BLACK
6
CONTINUOUS
10
0.7539370078740157
20
0.3415354330708661
11
0.8090551181102362
21
0.3415354330708661
0
LINE
8
BLACK
6
CONTINUOUS
10
0.8090551181102362
20
0.3415354330708661
11
0.8113150787401575
21
0.341085905511811
0
LINE
8
BLACK
6
CONTINUOUS
10
0.6488400393700787
20
0.3651486614173228
11
0.6513945275590551
21
0.3634417716535433
0
LINE
8
BLACK
6
CONTINUOUS
10
0.6513945275590551
20
0.3634417716535433
11
0.6531014173228347
21
0.3608872834645669
0
LINE
8
BLACK
6
CONTINUOUS
10
0.6531014173228347
20
0.3608872834645669
11
0.6537007874015748
21
0.3578740157480315
0
LINE
8
BLACK
6
CONTINUOUS
10
0.6537007874015748
20
0.3578740157480315
11
0.6537007874015748
21
0.3421259842519685
0
LINE
8
BLACK
6
CONTINUOUS
10
0.6537007874015748
20
0.3421259842519685
11
0.6531014173228347
21
0.3391127165354331
0
LINE
8
BLACK
6
CONTINUOUS
10
0.6531014173228347
20
0.3391127165354331
11
0.6513945275590551
21
0.3365582283464567
0
LINE
8
BLACK
6
CONTINUOUS
10
0.6513945275590551
20
0.3365582283464567
11
0.6488400393700787
21
0.3348513385826772
0
LINE
8
BLACK
6
CONTINUOUS
10
0.6488400393700787
20
0.3348513385826772
11
0.6458267716535433
21
0.334251968503937
0
LINE
8
BLACK
6
CONTINUOUS
10
0.6458267716535433
20
0.334251968503937
11
0.6241732283464567
21
0.334251968503937
0
LINE
8
BLACK
6
CONTINUOUS
10
0.6241732283464567
20
0.334251968503937
11
0.6211599606299213
21
0.3348513385826772
0
LINE
8
BLACK
6
CONTINUOUS
10
0.6211599606299213
20
0.3348513385826772
11
0.6186054724409449
21
0.3365582283464567
0
LINE
8
BLACK
6
CONTINUOUS
10
0.6186054724409449
20
0.3365582283464567
11
0.6168985826771654
21
0.3391127165354331
0
LINE
8
BLACK
6
CONTINUOUS
10
0.6168985826771654
20
0.3391127165354331
11
0.6162992125984251
21
0.3421259842519685
0
LINE
8
BLACK
6
CONTINUOUS
10
0.6162992125984251
20
0.3421259842519685
11
0.6162992125984251
21
0.3578740157480315
0
LINE
8
BLACK
6
CONTINUOUS
10
0.6162992125984251
20
0.3578740157480315
11
0.6168985826771654
21
0.3608872834645669
0
LINE
8
BLACK
6
CONTINUOUS
10
0.6168985826771654
20
0.3608872834645669
11
0.6186054724409449
21
0.3634417716535433
0
LINE
8
BLACK
6
CONTINUOUS
10
0.6186054724409449
20
0.3634417716535433
11
0.6211599606299213
21
0.3651486614173228
0
LINE
8
BLACK
6
CONTINUOUS
10
0.6211599606299213
20
0.3651486614173228
11
0.6241732283464567
21
0.365748031496063
0
LINE
8
BLACK
6
CONTINUOUS
10
0.6241732283464567
20
0.365748031496063
11
0.6458267716535433
21
0.365748031496063
0
LINE
8
BLACK
6
CONTINUOUS
10
0.6458267716535433
20
0.365748031496063
11
0.6488400393700787
21
0.3651486614173228
0
LINE
8
BLACK
6
CONTINUOUS
10
0.7138400393700787
20
0.3651486614173228
11
0.7163945275590551
21
0.3634417716535433
0
LINE
8
BLACK
6
CONTINUOUS
10
0.7163945275590551
20
0.3634417716535433
11
0.7181014173228346
21
0.3608872834645669
0
LINE
8
BLACK
6
CONTINUOUS
10
0.7181014173228346
20
0.3608872834645669
11
0.7187007874015748
21
0.3578740157480315
0
LINE
8
BLACK
6
CONTINUOUS
10
0.7187007874015748
20
0.3578740157480315
11
0.7187007874015748
21
0.3421259842519685
0
LINE
8
BLACK
6
CONTINUOUS
10
0.7187007874015748
20
0.3421259842519685
11
0.7181014173228346
21
0.3391127165354331
0
LINE
8
BLACK
6
CONTINUOUS
10
0.7181014173228346
20
0.3391127165354331
11
0.7163945275590551
21
0.3365582283464567
0
LINE
8
BLACK
6
CONTINUOUS
10
0.7163945275590551
20
0.3365582283464567
11
0.7138400393700787
21
0.3348513385826772
0
LINE
8
BLACK
6
CONTINUOUS
10
0.7138400393700787
20
0.3348513385826772
11
0.7108267716535432
21
0.334251968503937
0
LINE
8
BLACK
6
CONTINUOUS
10
0.7108267716535432
20
0.334251968503937
11
0.6891732283464567
21
0.334251968503937
0
LINE
8
BLACK
6
CONTINUOUS
10
0.6891732283464567
20
0.334251968503937
11
0.6861599606299212
21
0.3348513385826772
0
LINE
8
BLACK
6
CONTINUOUS
10
0.6861599606299212
20
0.3348513385826772
11
0.6836054724409448
21
0.3365582283464567
0
LINE
8
BLACK
6
CONTINUOUS
10
0.6836054724409448
20
0.3365582283464567
11
0.6818985826771653
21
0.3391127165354331
0
LINE
8
BLACK
6
CONTINUOUS
10
0.6818985826771653
20
0.3391127165354331
11
0.6812992125984252
21
0.3421259842519685
0
LINE
8
BLACK
6
CONTINUOUS
10
0.6812992125984252
20
0.3421259842519685
11
0.6812992125984252
21
0.3578740157480315
0
LINE
8
BLACK
6
CONTINUOUS
10
0.6812992125984252
20
0.3578740157480315
11
0.6818985826771653
21
0.3608872834645669
0
LINE
8
BLACK
6
CONTINUOUS
10
0.6818985826771653
20
0.3608872834645669
11
0.6836054724409448
21
0.3634417716535433
0
LINE
8
BLACK
6
CONTINUOUS
10
0.6836054724409448
20
0.3634417716535433
11
0.6861599606299212
21
0.3651486614173228
0
LINE
8
BLACK
6
CONTINUOUS
10
0.6861599606299212
20
0.3651486614173228
11
0.6891732283464567
21
0.365748031496063
0
LINE
8
BLACK
6
CONTINUOUS
10
0.6891732283464567
20
0.365748031496063
11
0.7108267716535432
21
0.365748031496063
0
LINE
8
BLACK
6
CONTINUOUS
10
0.7108267716535432
20
0.365748031496063
11
0.7138400393700787
21
0.3651486614173228
0
LINE
8
BLACK
6
CONTINUOUS
10
0.1238453149606299
20
0.4214948818897638
11
0.1270384645669291
21
0.4193612992125984
0
LINE
8
BLACK
6
CONTINUOUS
10
0.1270384645669291
20
0.4193612992125984
11
0.1291720472440945
21
0.4161681496062992
0
LINE
8
BLACK
6
CONTINUOUS
10
0.1291720472440945
20
0.4161681496062992
11
0.1299212598425197
21
0.4124015748031496
0
LINE
8
BLACK
6
CONTINUOUS
10
0.1299212598425197
20
0.4124015748031496
11
0.1299212598425197
21
0.3927165354330708
0
LINE
8
BLACK
6
CONTINUOUS
10
0.1299212598425197
20
0.3927165354330708
11
0.1291720472440945
21
0.3889499606299213
0
LINE
8
BLACK
6
CONTINUOUS
10
0.1291720472440945
20
0.3889499606299213
11
0.1270384645669291
21
0.385756811023622
0
LINE
8
BLACK
6
CONTINUOUS
10
0.1270384645669291
20
0.385756811023622
11
0.1238453149606299
21
0.3836232283464567
0
LINE
8
BLACK
6
CONTINUOUS
10
0.1238453149606299
20
0.3836232283464567
11
0.1200787401574803
21
0.3828740157480315
0
LINE
8
BLACK
6
CONTINUOUS
10
0.1200787401574803
20
0.3828740157480315
11
0.0334645669291339
21
0.3828740157480315
0
LINE
8
BLACK
6
CONTINUOUS
10
0.0334645669291339
20
0.3828740157480315
11
0.0296979921259843
21
0.3836232283464567
0
LINE
8
BLACK
6
CONTINUOUS
10
0.0296979921259843
20
0.3836232283464567
11
0.026504842519685
21
0.385756811023622
0
LINE
8
BLACK
6
CONTINUOUS
10
0.026504842519685
20
0.385756811023622
11
0.0243712598425197
21
0.3889499606299213
0
LINE
8
BLACK
6
CONTINUOUS
10
0.0243712598425197
20
0.3889499606299213
11
0.0236220472440945
21
0.3927165354330708
0
LINE
8
BLACK
6
CONTINUOUS
10
0.0236220472440945
20
0.3927165354330708
11
0.0236220472440945
21
0.4124015748031496
0
LINE
8
BLACK
6
CONTINUOUS
10
0.0236220472440945
20
0.4124015748031496
11
0.0243712598425197
21
0.4161681496062992
0
LINE
8
BLACK
6
CONTINUOUS
10
0.0243712598425197
20
0.4161681496062992
11
0.026504842519685
21
0.4193612992125984
0
LINE
8
BLACK
6
CONTINUOUS
10
0.026504842519685
20
0.4193612992125984
11
0.0296979921259843
21
0.4214948818897638
0
LINE
8
BLACK
6
CONTINUOUS
10
0.0296979921259843
20
0.4214948818897638
11
0.0334645669291339
21
0.4222440944881889
0
LINE
8
BLACK
6
CONTINUOUS
10
0.0334645669291339
20
0.4222440944881889
11
0.1200787401574803
21
0.4222440944881889
0
LINE
8
BLACK
6
CONTINUOUS
10
0.1200787401574803
20
0.4222440944881889
11
0.1238453149606299
21
0.4214948818897638
0
LINE
8
BLACK
6
CONTINUOUS
10
0.9545539763779527
20
0.4214948818897638
11
0.9577471259842519
21
0.4193612992125984
0
LINE
8
BLACK
6
CONTINUOUS
10
0.9577471259842519
20
0.4193612992125984
11
0.9598807086614173
21
0.4161681496062992
0
LINE
8
BLACK
6
CONTINUOUS
10
0.9598807086614173
20
0.4161681496062992
11
0.9606299212598425
21
0.4124015748031496
0
LINE
8
BLACK
6
CONTINUOUS
10
0.9606299212598425
20
0.4124015748031496
11
0.9606299212598425
21
0.3927165354330708
0
LINE
8
BLACK
6
CONTINUOUS
10
0.9606299212598425
20
0.3927165354330708
11
0.9598807086614173
21
0.3889499606299213
0
LINE
8
BLACK
6
CONTINUOUS
10
0.9598807086614173
20
0.3889499606299213
11
0.9577471259842519
21
0.385756811023622
0
LINE
8
BLACK
6
CONTINUOUS
10
0.9577471259842519
20
0.385756811023622
11
0.9545539763779527
21
0.3836232283464567
0
LINE
8
BLACK
6
CONTINUOUS
10
0.9545539763779527
20
0.3836232283464567
11
0.9507874015748031
21
0.3828740157480315
0
LINE
8
BLACK
6
CONTINUOUS
10
0.9507874015748031
20
0.3828740157480315
11
0.8641732283464567
21
0.3828740157480315
0
LINE
8
BLACK
6
CONTINUOUS
10
0.8641732283464567
20
0.3828740157480315
11
0.860406653543307
21
0.3836232283464567
0
LINE
8
BLACK
6
CONTINUOUS
10
0.860406653543307
20
0.3836232283464567
11
0.8572135039370079
21
0.385756811023622
0
LINE
8
BLACK
6
CONTINUOUS
10
0.8572135039370079
20
0.385756811023622
11
0.8550799212598424
21
0.3889499606299213
0
LINE
8
BLACK
6
CONTINUOUS
10
0.8550799212598424
20
0.3889499606299213
11
0.8543307086614172
21
0.3927165354330708
0
LINE
8
BLACK
6
CONTINUOUS
10
0.8543307086614172
20
0.3927165354330708
11
0.8543307086614172
21
0.4124015748031496
0
LINE
8
BLACK
6
CONTINUOUS
10
0.8543307086614172
20
0.4124015748031496
11
0.8550799212598424
21
0.4161681496062992
0
LINE
8
BLACK
6
CONTINUOUS
10
0.8550799212598424
20
0.4161681496062992
11
0.8572135039370079
21
0.4193612992125984
0
LINE
8
BLACK
6
CONTINUOUS
10
0.8572135039370079
20
0.4193612992125984
11
0.860406653543307
21
0.4214948818897638
0
LINE
8
BLACK
6
CONTINUOUS
10
0.860406653543307
20
0.4214948818897638
11
0.8641732283464567
21
0.4222440944881889
0
LINE
8
BLACK
6
CONTINUOUS
10
0.8641732283464567
20
0.4222440944881889
11
0.9507874015748031
21
0.4222440944881889
0
LINE
8
BLACK
6
CONTINUOUS
10
0.9507874015748031
20
0.4222440944881889
11
0.9545539763779527
21
0.4214948818897638
0
LINE
8
BLACK
6
CONTINUOUS
10
0.3538400393700787
20
0.4246683464566929
11
0.3563945275590551
21
0.4229614566929134
0
LINE
8
BLACK
6
CONTINUOUS
10
0.3563945275590551
20
0.4229614566929134
11
0.3581014173228346
21
0.420406968503937
0
LINE
8
BLACK
6
CONTINUOUS
10
0.3581014173228346
20
0.420406968503937
11
0.3587007874015748
21
0.4173937007874016
0
LINE
8
BLACK
6
CONTINUOUS
10
0.3587007874015748
20
0.4173937007874016
11
0.3587007874015748
21
0.4016456692913385
0
LINE
8
BLACK
6
CONTINUOUS
10
0.3587007874015748
20
0.4016456692913385
11
0.3581014173228346
21
0.3986324015748031
0
LINE
8
BLACK
6
CONTINUOUS
10
0.3581014173228346
20
0.3986324015748031
11
0.3563945275590551
21
0.3960779133858268
0
LINE
8
BLACK
6
CONTINUOUS
10
0.3563945275590551
20
0.3960779133858268
11
0.3538400393700787
21
0.3943710236220472
0
LINE
8
BLACK
6
CONTINUOUS
10
0.3538400393700787
20
0.3943710236220472
11
0.3508267716535433
21
0.3937716535433071
0
LINE
8
BLACK
6
CONTINUOUS
10
0.3508267716535433
20
0.3937716535433071
11
0.3291732283464567
21
0.3937716535433071
0
LINE
8
BLACK
6
CONTINUOUS
10
0.3291732283464567
20
0.3937716535433071
11
0.3261599606299213
21
0.3943710236220472
0
LINE
8
BLACK
6
CONTINUOUS
10
0.3261599606299213
20
0.3943710236220472
11
0.3236054724409449
21
0.3960779133858268
0
LINE
8
BLACK
6
CONTINUOUS
10
0.3236054724409449
20
0.3960779133858268
11
0.3218985826771654
21
0.3986324015748031
0
LINE
8
BLACK
6
CONTINUOUS
10
0.3218985826771654
20
0.3986324015748031
11
0.3212992125984252
21
0.4016456692913385
0
LINE
8
BLACK
6
CONTINUOUS
10
0.3212992125984252
20
0.4016456692913385
11
0.3212992125984252
21
0.4173937007874016
0
LINE
8
BLACK
6
CONTINUOUS
10
0.3212992125984252
20
0.4173937007874016
11
0.3218985826771654
21
0.420406968503937
0
LINE
8
BLACK
6
CONTINUOUS
10
0.3218985826771654
20
0.420406968503937
11
0.3236054724409449
21
0.4229614566929134
0
LINE
8
BLACK
6
CONTINUOUS
10
0.3236054724409449
20
0.4229614566929134
11
0.3261599606299213
21
0.4246683464566929
0
LINE
8
BLACK
6
CONTINUOUS
10
0.3261599606299213
20
0.4246683464566929
11
0.3291732283464567
21
0.425267716535433
0
LINE
8
BLACK
6
CONTINUOUS
10
0.3291732283464567
20
0.425267716535433
11
0.3508267716535433
21
0.425267716535433
0
LINE
8
BLACK
6
CONTINUOUS
10
0.3508267716535433
20
0.425267716535433
11
0.3538400393700787
21
0.4246683464566929
0
LINE
8
BLACK
6
CONTINUOUS
10
0.6488400393700787
20
0.4301092913385827
11
0.6513945275590551
21
0.4284024015748031
0
LINE
8
BLACK
6
CONTINUOUS
10
0.6513945275590551
20
0.4284024015748031
11
0.6531014173228347
21
0.4258479133858268
0
LINE
8
BLACK
6
CONTINUOUS
10
0.6531014173228347
20
0.4258479133858268
11
0.6537007874015748
21
0.4228346456692914
0
LINE
8
BLACK
6
CONTINUOUS
10
0.6537007874015748
20
0.4228346456692914
11
0.6537007874015748
21
0.4070866141732283
0
LINE
8
BLACK
6
CONTINUOUS
10
0.6537007874015748
20
0.4070866141732283
11
0.6531014173228347
21
0.4040733464566929
0
LINE
8
BLACK
6
CONTINUOUS
10
0.6531014173228347
20
0.4040733464566929
11
0.6513945275590551
21
0.4015188582677165
0
LINE
8
BLACK
6
CONTINUOUS
10
0.6513945275590551
20
0.4015188582677165
11
0.6488400393700787
21
0.399811968503937
0
LINE
8
BLACK
6
CONTINUOUS
10
0.6488400393700787
20
0.399811968503937
11
0.6458267716535433
21
0.3992125984251969
0
LINE
8
BLACK
6
CONTINUOUS
10
0.6458267716535433
20
0.3992125984251969
11
0.6241732283464567
21
0.3992125984251969
0
LINE
8
BLACK
6
CONTINUOUS
10
0.6241732283464567
20
0.3992125984251969
11
0.6211599606299213
21
0.399811968503937
0
LINE
8
BLACK
6
CONTINUOUS
10
0.6211599606299213
20
0.399811968503937
11
0.6186054724409449
21
0.4015188582677165
0
LINE
8
BLACK
6
CONTINUOUS
10
0.6186054724409449
20
0.4015188582677165
11
0.6168985826771654
21
0.4040733464566929
0
LINE
8
BLACK
6
CONTINUOUS
10
0.6168985826771654
20
0.4040733464566929
11
0.6162992125984251
21
0.4070866141732283
0
LINE
8
BLACK
6
CONTINUOUS
10
0.6162992125984251
20
0.4070866141732283
11
0.6162992125984251
21
0.4228346456692914
0
LINE
8
BLACK
6
CONTINUOUS
10
0.6162992125984251
20
0.4228346456692914
11
0.6168985826771654
21
0.4258479133858268
0
LINE
8
BLACK
6
CONTINUOUS
10
0.6168985826771654
20
0.4258479133858268
11
0.6186054724409449
21
0.4284024015748031
0
LINE
8
BLACK
6
CONTINUOUS
10
0.6186054724409449
20
0.4284024015748031
11
0.6211599606299213
21
0.4301092913385827
0
LINE
8
BLACK
6
CONTINUOUS
10
0.6211599606299213
20
0.4301092913385827
11
0.6241732283464567
21
0.4307086614173228
0
LINE
8
BLACK
6
CONTINUOUS
10
0.6241732283464567
20
0.4307086614173228
11
0.6458267716535433
21
0.4307086614173228
0
LINE
8
BLACK
6
CONTINUOUS
10
0.6458267716535433
20
0.4307086614173228
11
0.6488400393700787
21
0.4301092913385827
0
LINE
8
BLACK
6
CONTINUOUS
10
0.7138400393700787
20
0.4301092913385827
11
0.7163945275590551
21
0.4284024015748031
0
LINE
8
BLACK
6
CONTINUOUS
10
0.7163945275590551
20
0.4284024015748031
11
0.7181014173228346
21
0.4258479133858268
0
LINE
8
BLACK
6
CONTINUOUS
10
0.7181014173228346
20
0.4258479133858268
11
0.7187007874015748
21
0.4228346456692914
0
LINE
8
BLACK
6
CONTINUOUS
10
0.7187007874015748
20
0.4228346456692914
11
0.7187007874015748
21
0.4070866141732283
0
LINE
8
BLACK
6
CONTINUOUS
10
0.7187007874015748
20
0.4070866141732283
11
0.7181014173228346
21
0.4040733464566929
0
LINE
8
BLACK
6
CONTINUOUS
10
0.7181014173228346
20
0.4040733464566929
11
0.7163945275590551
21
0.4015188582677165
0
LINE
8
BLACK
6
CONTINUOUS
10
0.7163945275590551
20
0.4015188582677165
11
0.7138400393700787
21
0.399811968503937
0
LINE
8
BLACK
6
CONTINUOUS
10
0.7138400393700787
20
0.399811968503937
11
0.7108267716535432
21
0.3992125984251969
0
LINE
8
BLACK
6
CONTINUOUS
10
0.7108267716535432
20
0.3992125984251969
11
0.6891732283464567
21
0.3992125984251969
0
LINE
8
BLACK
6
CONTINUOUS
10
0.6891732283464567
20
0.3992125984251969
11
0.6861599606299212
21
0.399811968503937
0
LINE
8
BLACK
6
CONTINUOUS
10
0.6861599606299212
20
0.399811968503937
11
0.6836054724409448
21
0.4015188582677165
0
LINE
8
BLACK
6
CONTINUOUS
10
0.6836054724409448
20
0.4015188582677165
11
0.6818985826771653
21
0.4040733464566929
0
LINE
8
BLACK
6
CONTINUOUS
10
0.6818985826771653
20
0.4040733464566929
11
0.6812992125984252
21
0.4070866141732283
0
LINE
8
BLACK
6
CONTINUOUS
10
0.6812992125984252
20
0.4070866141732283
11
0.6812992125984252
21
0.4228346456692914
0
LINE
8
BLACK
6
CONTINUOUS
10
0.6812992125984252
20
0.4228346456692914
11
0.6818985826771653
21
0.4258479133858268
0
LINE
8
BLACK
6
CONTINUOUS
10
0.6818985826771653
20
0.4258479133858268
11
0.6836054724409448
21
0.4284024015748031
0
LINE
8
BLACK
6
CONTINUOUS
10
0.6836054724409448
20
0.4284024015748031
11
0.6861599606299212
21
0.4301092913385827
0
LINE
8
BLACK
6
CONTINUOUS
10
0.6861599606299212
20
0.4301092913385827
11
0.6891732283464567
21
0.4307086614173228
0
LINE
8
BLACK
6
CONTINUOUS
10
0.6891732283464567
20
0.4307086614173228
11
0.7108267716535432
21
0.4307086614173228
0
LINE
8
BLACK
6
CONTINUOUS
10
0.7108267716535432
20
0.4307086614173228
11
0.7138400393700787
21
0.4301092913385827
0
LINE
8
BLACK
6
CONTINUOUS
10
0.4281496062992126
20
0.4371023622047244
11
0.4183070866141732
21
0.4371023622047244
0
LINE
8
BLACK
6
CONTINUOUS
10
0.4183070866141732
20
0.4371023622047244
11
0.4183070866141732
21
0.4626929133858267
0
LINE
8
BLACK
6
CONTINUOUS
10
0.4183070866141732
20
0.4626929133858267
11
0.4281496062992126
21
0.4626929133858267
0
LINE
8
BLACK
6
CONTINUOUS
10
0.4281496062992126
20
0.4626929133858267
11
0.4281496062992126
21
0.4371023622047244
0
LINE
8
BLACK
6
CONTINUOUS
10
0.4478346456692913
20
0.4371023622047244
11
0.437992125984252
21
0.4371023622047244
0
LINE
8
BLACK
6
CONTINUOUS
10
0.437992125984252
20
0.4371023622047244
11
0.437992125984252
21
0.4626929133858267
0
LINE
8
BLACK
6
CONTINUOUS
10
0.437992125984252
20
0.4626929133858267
11
0.4478346456692913
21
0.4626929133858267
0
LINE
8
BLACK
6
CONTINUOUS
10
0.4478346456692913
20
0.4626929133858267
11
0.4478346456692913
21
0.4371023622047244
0
LINE
8
BLACK
6
CONTINUOUS
10
0.4675196850393701
20
0.4371023622047244
11
0.4576771653543307
21
0.4371023622047244
0
LINE
8
BLACK
6
CONTINUOUS
10
0.4576771653543307
20
0.4371023622047244
11
0.4576771653543307
21
0.4626929133858267
0
LINE
8
BLACK
6
CONTINUOUS
10
0.4576771653543307
20
0.4626929133858267
11
0.4675196850393701
21
0.4626929133858267
0
LINE
8
BLACK
6
CONTINUOUS
10
0.4675196850393701
20
0.4626929133858267
11
0.4675196850393701
21
0.4371023622047244
0
LINE
8
BLACK
6
CONTINUOUS
10
0.4872047244094488
20
0.4371023622047244
11
0.4773622047244094
21
0.4371023622047244
0
LINE
8
BLACK
6
CONTINUOUS
10
0.4773622047244094
20
0.4371023622047244
11
0.4773622047244094
21
0.4626929133858267
0
LINE
8
BLACK
6
CONTINUOUS
10
0.4773622047244094
20
0.4626929133858267
11
0.4872047244094488
21
0.4626929133858267
0
LINE
8
BLACK
6
CONTINUOUS
10
0.4872047244094488
20
0.4626929133858267
11
0.4872047244094488
21
0.4371023622047244
0
LINE
8
BLACK
6
CONTINUOUS
10
0.5068897637795275
20
0.4371023622047244
11
0.4970472440944882
21
0.4371023622047244
0
LINE
8
BLACK
6
CONTINUOUS
10
0.4970472440944882
20
0.4371023622047244
11
0.4970472440944882
21
0.4626929133858267
0
LINE
8
BLACK
6
CONTINUOUS
10
0.4970472440944882
20
0.4626929133858267
11
0.5068897637795275
21
0.4626929133858267
0
LINE
8
BLACK
6
CONTINUOUS
10
0.5068897637795275
20
0.4626929133858267
11
0.5068897637795275
21
0.4371023622047244
0
LINE
8
BLACK
6
CONTINUOUS
10
0.5265748031496063
20
0.4371023622047244
11
0.5167322834645669
21
0.4371023622047244
0
LINE
8
BLACK
6
CONTINUOUS
10
0.5167322834645669
20
0.4371023622047244
11
0.5167322834645669
21
0.4626929133858267
0
LINE
8
BLACK
6
CONTINUOUS
10
0.5167322834645669
20
0.4626929133858267
11
0.5265748031496063
21
0.4626929133858267
0
LINE
8
BLACK
6
CONTINUOUS
10
0.5265748031496063
20
0.4626929133858267
11
0.5265748031496063
21
0.4371023622047244
0
LINE
8
BLACK
6
CONTINUOUS
10
0.5462598425196851
20
0.4371023622047244
11
0.5364173228346456
21
0.4371023622047244
0
LINE
8
BLACK
6
CONTINUOUS
10
0.5364173228346456
20
0.4371023622047244
11
0.5364173228346456
21
0.4626929133858267
0
LINE
8
BLACK
6
CONTINUOUS
10
0.5364173228346456
20
0.4626929133858267
11
0.5462598425196851
21
0.4626929133858267
0
LINE
8
BLACK
6
CONTINUOUS
10
0.5462598425196851
20
0.4626929133858267
11
0.5462598425196851
21
0.4371023622047244
0
LINE
8
BLACK
6
CONTINUOUS
10
0.5659448818897638
20
0.4371023622047244
11
0.5561023622047244
21
0.4371023622047244
0
LINE
8
BLACK
6
CONTINUOUS
10
0.5561023622047244
20
0.4371023622047244
11
0.5561023622047244
21
0.4626929133858267
0
LINE
8
BLACK
6
CONTINUOUS
10
0.5561023622047244
20
0.4626929133858267
11
0.5659448818897638
21
0.4626929133858267
0
LINE
8
BLACK
6
CONTINUOUS
10
0.5659448818897638
20
0.4626929133858267
11
0.5659448818897638
21
0.4371023622047244
0
LINE
8
BLACK
6
CONTINUOUS
10
0.3538400393700787
20
0.4896289763779527
11
0.3563945275590551
21
0.4879220866141732
0
LINE
8
BLACK
6
CONTINUOUS
10
0.3563945275590551
20
0.4879220866141732
11
0.3581014173228346
21
0.4853675984251968
0
LINE
8
BLACK
6
CONTINUOUS
10
0.3581014173228346
20
0.4853675984251968
11
0.3587007874015748
21
0.4823543307086614
0
LINE
8
BLACK
6
CONTINUOUS
10
0.3587007874015748
20
0.4823543307086614
11
0.3587007874015748
21
0.4666062992125984
0
LINE
8
BLACK
6
CONTINUOUS
10
0.3587007874015748
20
0.4666062992125984
11
0.3581014173228346
21
0.463593031496063
0
LINE
8
BLACK
6
CONTINUOUS
10
0.3581014173228346
20
0.463593031496063
11
0.3563945275590551
21
0.4610385433070866
0
LINE
8
BLACK
6
CONTINUOUS
10
0.3563945275590551
20
0.4610385433070866
11
0.3538400393700787
21
0.4593316535433071
0
LINE
8
BLACK
6
CONTINUOUS
10
0.3538400393700787
20
0.4593316535433071
11
0.3508267716535433
21
0.4587322834645669
0
LINE
8
BLACK
6
CONTINUOUS
10
0.3508267716535433
20
0.4587322834645669
11
0.3291732283464567
21
0.4587322834645669
0
LINE
8
BLACK
6
CONTINUOUS
10
0.3291732283464567
20
0.4587322834645669
11
0.3261599606299213
21
0.4593316535433071
0
LINE
8
BLACK
6
CONTINUOUS
10
0.3261599606299213
20
0.4593316535433071
11
0.3236054724409449
21
0.4610385433070866
0
LINE
8
BLACK
6
CONTINUOUS
10
0.3236054724409449
20
0.4610385433070866
11
0.3218985826771654
21
0.463593031496063
0
LINE
8
BLACK
6
CONTINUOUS
10
0.3218985826771654
20
0.463593031496063
11
0.3212992125984252
21
0.4666062992125984
0
LINE
8
BLACK
6
CONTINUOUS
10
0.3212992125984252
20
0.4666062992125984
11
0.3212992125984252
21
0.4823543307086614
0
LINE
8
BLACK
6
CONTINUOUS
10
0.3212992125984252
20
0.4823543307086614
11
0.3218985826771654
21
0.4853675984251968
0
LINE
8
BLACK
6
CONTINUOUS
10
0.3218985826771654
20
0.4853675984251968
11
0.3236054724409449
21
0.4879220866141732
0
LINE
8
BLACK
6
CONTINUOUS
10
0.3236054724409449
20
0.4879220866141732
11
0.3261599606299213
21
0.4896289763779527
0
LINE
8
BLACK
6
CONTINUOUS
10
0.3261599606299213
20
0.4896289763779527
11
0.3291732283464567
21
0.4902283464566929
0
LINE
8
BLACK
6
CONTINUOUS
10
0.3291732283464567
20
0.4902283464566929
11
0.3508267716535433
21
0.4902283464566929
0
LINE
8
BLACK
6
CONTINUOUS
10
0.3508267716535433
20
0.4902283464566929
11
0.3538400393700787
21
0.4896289763779527
0
LINE
8
BLACK
6
CONTINUOUS
10
0.6582324409448819
20
0.5110186220472441
11
0.6611062598425197
21
0.5090983858267717
0
LINE
8
BLACK
6
CONTINUOUS
10
0.6611062598425197
20
0.5090983858267717
11
0.6630264960629921
21
0.5062245669291339
0
LINE
8
BLACK
6
CONTINUOUS
10
0.6630264960629921
20
0.5062245669291339
11
0.6637007874015748
21
0.5028346456692914
0
LINE
8
BLACK
6
CONTINUOUS
10
0.6637007874015748
20
0.5028346456692914
11
0.6637007874015748
21
0.4851181102362205
0
LINE
8
BLACK
6
CONTINUOUS
10
0.6637007874015748
20
0.4851181102362205
11
0.6630264960629921
21
0.4817281889763779
0
LINE
8
BLACK
6
CONTINUOUS
10
0.6630264960629921
20
0.4817281889763779
11
0.6611062598425197
21
0.4788543700787402
0
LINE
8
BLACK
6
CONTINUOUS
10
0.6611062598425197
20
0.4788543700787402
11
0.6582324409448819
21
0.4769341338582677
0
LINE
8
BLACK
6
CONTINUOUS
10
0.6582324409448819
20
0.4769341338582677
11
0.6548425196850394
21
0.476259842519685
0
LINE
8
BLACK
6
CONTINUOUS
10
0.6548425196850394
20
0.476259842519685
11
0.6351574803149607
21
0.476259842519685
0
LINE
8
BLACK
6
CONTINUOUS
10
0.6351574803149607
20
0.476259842519685
11
0.6317675590551181
21
0.4769341338582677
0
LINE
8
BLACK
6
CONTINUOUS
10
0.6317675590551181
20
0.4769341338582677
11
0.6288937401574803
21
0.4788543700787402
0
LINE
8
BLACK
6
CONTINUOUS
10
0.6288937401574803
20
0.4788543700787402
11
0.6269735039370079
21
0.4817281889763779
0
LINE
8
BLACK
6
CONTINUOUS
10
0.6269735039370079
20
0.4817281889763779
11
0.6262992125984251
21
0.4851181102362205
0
LINE
8
BLACK
6
CONTINUOUS
10
0.6262992125984251
20
0.4851181102362205
11
0.6262992125984251
21
0.5028346456692914
0
LINE
8
BLACK
6
CONTINUOUS
10
0.6262992125984251
20
0.5028346456692914
11
0.6269735039370079
21
0.5062245669291339
0
LINE
8
BLACK
6
CONTINUOUS
10
0.6269735039370079
20
0.5062245669291339
11
0.6288937401574803
21
0.5090983858267717
0
LINE
8
BLACK
6
CONTINUOUS
10
0.6288937401574803
20
0.5090983858267717
11
0.6317675590551181
21
0.5110186220472441
0
LINE
8
BLACK
6
CONTINUOUS
10
0.6317675590551181
20
0.5110186220472441
11
0.6351574803149607
21
0.5116929133858268
0
LINE
8
BLACK
6
CONTINUOUS
10
0.6351574803149607
20
0.5116929133858268
11
0.6548425196850394
21
0.5116929133858268
0
LINE
8
BLACK
6
CONTINUOUS
10
0.6548425196850394
20
0.5116929133858268
11
0.6582324409448819
21
0.5110186220472441
0
LINE
8
BLACK
6
CONTINUOUS
10
0.4368110236220472
20
0.4764724409448819
11
0.4088582677165354
21
0.4764724409448819
0
LINE
8
BLACK
6
CONTINUOUS
10
0.4088582677165354
20
0.4764724409448819
11
0.4088582677165354
21
0.5028503937007874
0
LINE
8
BLACK
6
CONTINUOUS
10
0.4088582677165354
20
0.5028503937007874
11
0.4368110236220472
21
0.5028503937007874
0
LINE
8
BLACK
6
CONTINUOUS
10
0.4368110236220472
20
0.5028503937007874
11
0.4368110236220472
21
0.4764724409448819
0
LINE
8
BLACK
6
CONTINUOUS
10
0.4714566929133858
20
0.4764724409448819
11
0.443503937007874
21
0.4764724409448819
0
LINE
8
BLACK
6
CONTINUOUS
10
0.443503937007874
20
0.4764724409448819
11
0.443503937007874
21
0.5028503937007874
0
LINE
8
BLACK
6
CONTINUOUS
10
0.443503937007874
20
0.5028503937007874
11
0.4714566929133858
21
0.5028503937007874
0
LINE
8
BLACK
6
CONTINUOUS
10
0.4714566929133858
20
0.5028503937007874
11
0.4714566929133858
21
0.4764724409448819
0
LINE
8
BLACK
6
CONTINUOUS
10
0.5061023622047244
20
0.4764724409448819
11
0.4781496062992126
21
0.4764724409448819
0
LINE
8
BLACK
6
CONTINUOUS
10
0.4781496062992126
20
0.4764724409448819
11
0.4781496062992126
21
0.5028503937007874
0
LINE
8
BLACK
6
CONTINUOUS
10
0.4781496062992126
20
0.5028503937007874
11
0.5061023622047244
21
0.5028503937007874
0
LINE
8
BLACK
6
CONTINUOUS
10
0.5061023622047244
20
0.5028503937007874
11
0.5061023622047244
21
0.4764724409448819
0
LINE
8
BLACK
6
CONTINUOUS
10
0.540748031496063
20
0.4764724409448819
11
0.5127952755905512
21
0.4764724409448819
0
LINE
8
BLACK
6
CONTINUOUS
10
0.5127952755905512
20
0.4764724409448819
11
0.5127952755905512
21
0.5028503937007874
0
LINE
8
BLACK
6
CONTINUOUS
10
0.5127952755905512
20
0.5028503937007874
11
0.540748031496063
21
0.5028503937007874
0
LINE
8
BLACK
6
CONTINUOUS
10
0.540748031496063
20
0.5028503937007874
11
0.540748031496063
21
0.4764724409448819
0
LINE
8
BLACK
6
CONTINUOUS
10
0.5753937007874016
20
0.4764724409448819
11
0.5474409448818898
21
0.4764724409448819
0
LINE
8
BLACK
6
CONTINUOUS
10
0.5474409448818898
20
0.4764724409448819
11
0.5474409448818898
21
0.5028503937007874
0
LINE
8
BLACK
6
CONTINUOUS
10
0.5474409448818898
20
0.5028503937007874
11
0.5753937007874016
21
0.5028503937007874
0
LINE
8
BLACK
6
CONTINUOUS
10
0.5753937007874016
20
0.5028503937007874
11
0.5753937007874016
21
0.4764724409448819
0
LINE
8
BLACK
6
CONTINUOUS
10
0.1238453149606299
20
0.5218885826771653
11
0.1270384645669291
21
0.519755
0
LINE
8
BLACK
6
CONTINUOUS
10
0.1270384645669291
20
0.519755
11
0.1291720472440945
21
0.5165618503937007
0
LINE
8
BLACK
6
CONTINUOUS
10
0.1291720472440945
20
0.5165618503937007
11
0.1299212598425197
21
0.5127952755905512
0
LINE
8
BLACK
6
CONTINUOUS
10
0.1299212598425197
20
0.5127952755905512
11
0.1299212598425197
21
0.4931102362204725
0
LINE
8
BLACK
6
CONTINUOUS
10
0.1299212598425197
20
0.4931102362204725
11
0.1291720472440945
21
0.4893436614173228
0
LINE
8
BLACK
6
CONTINUOUS
10
0.1291720472440945
20
0.4893436614173228
11
0.1270384645669291
21
0.4861505118110236
0
LINE
8
BLACK
6
CONTINUOUS
10
0.1270384645669291
20
0.4861505118110236
11
0.1238453149606299
21
0.4840169291338582
0
LINE
8
BLACK
6
CONTINUOUS
10
0.1238453149606299
20
0.4840169291338582
11
0.1200787401574803
21
0.483267716535433
0
LINE
8
BLACK
6
CONTINUOUS
10
0.1200787401574803
20
0.483267716535433
11
0.0334645669291339
21
0.483267716535433
0
LINE
8
BLACK
6
CONTINUOUS
10
0.0334645669291339
20
0.483267716535433
11
0.0296979921259843
21
0.4840169291338582
0
LINE
8
BLACK
6
CONTINUOUS
10
0.0296979921259843
20
0.4840169291338582
11
0.026504842519685
21
0.4861505118110236
0
LINE
8
BLACK
6
CONTINUOUS
10
0.026504842519685
20
0.4861505118110236
11
0.0243712598425197
21
0.4893436614173228
0
LINE
8
BLACK
6
CONTINUOUS
10
0.0243712598425197
20
0.4893436614173228
11
0.0236220472440945
21
0.4931102362204725
0
LINE
8
BLACK
6
CONTINUOUS
10
0.0236220472440945
20
0.4931102362204725
11
0.0236220472440945
21
0.5127952755905512
0
LINE
8
BLACK
6
CONTINUOUS
10
0.0236220472440945
20
0.5127952755905512
11
0.0243712598425197
21
0.5165618503937007
0
LINE
8
BLACK
6
CONTINUOUS
10
0.0243712598425197
20
0.5165618503937007
11
0.026504842519685
21
0.519755
0
LINE
8
BLACK
6
CONTINUOUS
10
0.026504842519685
20
0.519755
11
0.0296979921259843
21
0.5218885826771653
0
LINE
8
BLACK
6
CONTINUOUS
10
0.0296979921259843
20
0.5218885826771653
11
0.0334645669291339
21
0.5226377952755905
0
LINE
8
BLACK
6
CONTINUOUS
10
0.0334645669291339
20
0.5226377952755905
11
0.1200787401574803
21
0.5226377952755905
0
LINE
8
BLACK
6
CONTINUOUS
10
0.1200787401574803
20
0.5226377952755905
11
0.1238453149606299
21
0.5218885826771653
0
LINE
8
BLACK
6
CONTINUOUS
10
0.9545539763779527
20
0.5218885826771653
11
0.9577471259842519
21
0.519755
0
LINE
8
BLACK
6
CONTINUOUS
10
0.9577471259842519
20
0.519755
11
0.9598807086614173
21
0.5165618503937007
0
LINE
8
BLACK
6
CONTINUOUS
10
0.9598807086614173
20
0.5165618503937007
11
0.9606299212598425
21
0.5127952755905512
0
LINE
8
BLACK
6
CONTINUOUS
10
0.9606299212598425
20
0.5127952755905512
11
0.9606299212598425
21
0.4931102362204725
0
LINE
8
BLACK
6
CONTINUOUS
10
0.9606299212598425
20
0.4931102362204725
11
0.9598807086614173
21
0.4893436614173228
0
LINE
8
BLACK
6
CONTINUOUS
10
0.9598807086614173
20
0.4893436614173228
11
0.9577471259842519
21
0.4861505118110236
0
LINE
8
BLACK
6
CONTINUOUS
10
0.9577471259842519
20
0.4861505118110236
11
0.9545539763779527
21
0.4840169291338582
0
LINE
8
BLACK
6
CONTINUOUS
10
0.9545539763779527
20
0.4840169291338582
11
0.9507874015748031
21
0.483267716535433
0
LINE
8
BLACK
6
CONTINUOUS
10
0.9507874015748031
20
0.483267716535433
11
0.8641732283464567
21
0.483267716535433
0
LINE
8
BLACK
6
CONTINUOUS
10
0.8641732283464567
20
0.483267716535433
11
0.860406653543307
21
0.4840169291338582
0
LINE
8
BLACK
6
CONTINUOUS
10
0.860406653543307
20
0.4840169291338582
11
0.8572135039370079
21
0.4861505118110236
0
LINE
8
BLACK
6
CONTINUOUS
10
0.8572135039370079
20
0.4861505118110236
11
0.8550799212598424
21
0.4893436614173228
0
LINE
8
BLACK
6
CONTINUOUS
10
0.8550799212598424
20
0.4893436614173228
11
0.8543307086614172
21
0.4931102362204725
0
LINE
8
BLACK
6
CONTINUOUS
10
0.8543307086614172
20
0.4931102362204725
11
0.8543307086614172
21
0.5127952755905512
0
LINE
8
BLACK
6
CONTINUOUS
10
0.8543307086614172
20
0.5127952755905512
11
0.8550799212598424
21
0.5165618503937007
0
LINE
8
BLACK
6
CONTINUOUS
10
0.8550799212598424
20
0.5165618503937007
11
0.8572135039370079
21
0.519755
0
LINE
8
BLACK
6
CONTINUOUS
10
0.8572135039370079
20
0.519755
11
0.860406653543307
21
0.5218885826771653
0
LINE
8
BLACK
6
CONTINUOUS
10
0.860406653543307
20
0.5218885826771653
11
0.8641732283464567
21
0.5226377952755905
0
LINE
8
BLACK
6
CONTINUOUS
10
0.8641732283464567
20
0.5226377952755905
11
0.9507874015748031
21
0.5226377952755905
0
LINE
8
BLACK
6
CONTINUOUS
10
0.9507874015748031
20
0.5226377952755905
11
0.9545539763779527
21
0.5218885826771653
0
LINE
8
BLACK
6
CONTINUOUS
10
0.4368110236220472
20
0.5091496062992126
11
0.4088582677165354
21
0.5091496062992126
0
LINE
8
BLACK
6
CONTINUOUS
10
0.4088582677165354
20
0.5091496062992126
11
0.4088582677165354
21
0.5355275590551181
0
LINE
8
BLACK
6
CONTINUOUS
10
0.4088582677165354
20
0.5355275590551181
11
0.4368110236220472
21
0.5355275590551181
0
LINE
8
BLACK
6
CONTINUOUS
10
0.4368110236220472
20
0.5355275590551181
11
0.4368110236220472
21
0.5091496062992126
0
LINE
8
BLACK
6
CONTINUOUS
10
0.4714566929133858
20
0.5091496062992126
11
0.443503937007874
21
0.5091496062992126
0
LINE
8
BLACK
6
CONTINUOUS
10
0.443503937007874
20
0.5091496062992126
11
0.443503937007874
21
0.5355275590551181
0
LINE
8
BLACK
6
CONTINUOUS
10
0.443503937007874
20
0.5355275590551181
11
0.4714566929133858
21
0.5355275590551181
0
LINE
8
BLACK
6
CONTINUOUS
10
0.4714566929133858
20
0.5355275590551181
11
0.4714566929133858
21
0.5091496062992126
0
LINE
8
BLACK
6
CONTINUOUS
10
0.5061023622047244
20
0.5091496062992126
11
0.4781496062992126
21
0.5091496062992126
0
LINE
8
BLACK
6
CONTINUOUS
10
0.4781496062992126
20
0.5091496062992126
11
0.4781496062992126
21
0.5355275590551181
0
LINE
8
BLACK
6
CONTINUOUS
10
0.4781496062992126
20
0.5355275590551181
11
0.5061023622047244
21
0.5355275590551181
0
LINE
8
BLACK
6
CONTINUOUS
10
0.5061023622047244
20
0.5355275590551181
11
0.5061023622047244
21
0.5091496062992126
0
LINE
8
BLACK
6
CONTINUOUS
10
0.540748031496063
20
0.5091496062992126
11
0.5127952755905512
21
0.5091496062992126
0
LINE
8
BLACK
6
CONTINUOUS
10
0.5127952755905512
20
0.5091496062992126
11
0.5127952755905512
21
0.5355275590551181
0
LINE
8
BLACK
6
CONTINUOUS
10
0.5127952755905512
20
0.5355275590551181
11
0.540748031496063
21
0.5355275590551181
0
LINE
8
BLACK
6
CONTINUOUS
10
0.540748031496063
20
0.5355275590551181
11
0.540748031496063
21
0.5091496062992126
0
LINE
8
BLACK
6
CONTINUOUS
10
0.5753937007874016
20
0.5091496062992126
11
0.5474409448818898
21
0.5091496062992126
0
LINE
8
BLACK
6
CONTINUOUS
10
0.5474409448818898
20
0.5091496062992126
11
0.5474409448818898
21
0.5355275590551181
0
LINE
8
BLACK
6
CONTINUOUS
10
0.5474409448818898
20
0.5355275590551181
11
0.5753937007874016
21
0.5355275590551181
0
LINE
8
BLACK
6
CONTINUOUS
10
0.5753937007874016
20
0.5355275590551181
11
0.5753937007874016
21
0.5091496062992126
0
LINE
8
BLACK
6
CONTINUOUS
10
0.293406968503937
20
0.5601014173228346
11
0.2959614566929134
21
0.5583945275590551
0
LINE
8
BLACK
6
CONTINUOUS
10
0.2959614566929134
20
0.5583945275590551
11
0.2976683464566929
21
0.5558400393700788
0
LINE
8
BLACK
6
CONTINUOUS
10
0.2976683464566929
20
0.5558400393700788
11
0.298267716535433
21
0.5528267716535433
0
LINE
8
BLACK
6
CONTINUOUS
10
0.298267716535433
20
0.5528267716535433
11
0.298267716535433
21
0.5311732283464566
0
LINE
8
BLACK
6
CONTINUOUS
10
0.298267716535433
20
0.5311732283464566
11
0.2976683464566929
21
0.5281599606299212
0
LINE
8
BLACK
6
CONTINUOUS
10
0.2976683464566929
20
0.5281599606299212
11
0.2959614566929134
21
0.5256054724409449
0
LINE
8
BLACK
6
CONTINUOUS
10
0.2959614566929134
20
0.5256054724409449
11
0.293406968503937
21
0.5238985826771654
0
LINE
8
BLACK
6
CONTINUOUS
10
0.293406968503937
20
0.5238985826771654
11
0.2903937007874016
21
0.5232992125984252
0
LINE
8
BLACK
6
CONTINUOUS
10
0.2903937007874016
20
0.5232992125984252
11
0.2746456692913386
21
0.5232992125984252
0
LINE
8
BLACK
6
CONTINUOUS
10
0.2746456692913386
20
0.5232992125984252
11
0.2716324015748031
21
0.5238985826771654
0
LINE
8
BLACK
6
CONTINUOUS
10
0.2716324015748031
20
0.5238985826771654
11
0.2690779133858268
21
0.5256054724409449
0
LINE
8
BLACK
6
CONTINUOUS
10
0.2690779133858268
20
0.5256054724409449
11
0.2673710236220472
21
0.5281599606299212
0
LINE
8
BLACK
6
CONTINUOUS
10
0.2673710236220472
20
0.5281599606299212
11
0.2667716535433071
21
0.5311732283464566
0
LINE
8
BLACK
6
CONTINUOUS
10
0.2667716535433071
20
0.5311732283464566
11
0.2667716535433071
21
0.5528267716535433
0
LINE
8
BLACK
6
CONTINUOUS
10
0.2667716535433071
20
0.5528267716535433
11
0.2673710236220472
21
0.5558400393700788
0
LINE
8
BLACK
6
CONTINUOUS
10
0.2673710236220472
20
0.5558400393700788
11
0.2690779133858268
21
0.5583945275590551
0
LINE
8
BLACK
6
CONTINUOUS
10
0.2690779133858268
20
0.5583945275590551
11
0.2716324015748031
21
0.5601014173228346
0
LINE
8
BLACK
6
CONTINUOUS
10
0.2716324015748031
20
0.5601014173228346
11
0.2746456692913386
21
0.5607007874015748
0
LINE
8
BLACK
6
CONTINUOUS
10
0.2746456692913386
20
0.5607007874015748
11
0.2903937007874016
21
0.5607007874015748
0
LINE
8
BLACK
6
CONTINUOUS
10
0.2903937007874016
20
0.5607007874015748
11
0.293406968503937
21
0.5601014173228346
0
LINE
8
BLACK
6
CONTINUOUS
10
0.3583675984251968
20
0.5601014173228346
11
0.3609220866141732
21
0.5583945275590551
0
LINE
8
BLACK
6
CONTINUOUS
10
0.3609220866141732
20
0.5583945275590551
11
0.3626289763779528
21
0.5558400393700788
0
LINE
8
BLACK
6
CONTINUOUS
10
0.3626289763779528
20
0.5558400393700788
11
0.3632283464566929
21
0.5528267716535433
0
LINE
8
BLACK
6
CONTINUOUS
10
0.3632283464566929
20
0.5528267716535433
11
0.3632283464566929
21
0.5311732283464566
0
LINE
8
BLACK
6
CONTINUOUS
10
0.3632283464566929
20
0.5311732283464566
11
0.3626289763779528
21
0.5281599606299212
0
LINE
8
BLACK
6
CONTINUOUS
10
0.3626289763779528
20
0.5281599606299212
11
0.3609220866141732
21
0.5256054724409449
0
LINE
8
BLACK
6
CONTINUOUS
10
0.3609220866141732
20
0.5256054724409449
11
0.3583675984251968
21
0.5238985826771654
0
LINE
8
BLACK
6
CONTINUOUS
10
0.3583675984251968
20
0.5238985826771654
11
0.3553543307086614
21
0.5232992125984252
0
LINE
8
BLACK
6
CONTINUOUS
10
0.3553543307086614
20
0.5232992125984252
11
0.3396062992125984
21
0.5232992125984252
0
LINE
8
BLACK
6
CONTINUOUS
10
0.3396062992125984
20
0.5232992125984252
11
0.336593031496063
21
0.5238985826771654
0
LINE
8
BLACK
6
CONTINUOUS
10
0.336593031496063
20
0.5238985826771654
11
0.3340385433070866
21
0.5256054724409449
0
LINE
8
BLACK
6
CONTINUOUS
10
0.3340385433070866
20
0.5256054724409449
11
0.3323316535433071
21
0.5281599606299212
0
LINE
8
BLACK
6
CONTINUOUS
10
0.3323316535433071
20
0.5281599606299212
11
0.3317322834645669
21
0.5311732283464566
0
LINE
8
BLACK
6
CONTINUOUS
10
0.3317322834645669
20
0.5311732283464566
11
0.3317322834645669
21
0.5528267716535433
0
LINE
8
BLACK
6
CONTINUOUS
10
0.3317322834645669
20
0.5528267716535433
11
0.3323316535433071
21
0.5558400393700788
0
LINE
8
BLACK
6
CONTINUOUS
10
0.3323316535433071
20
0.5558400393700788
11
0.3340385433070866
21
0.5583945275590551
0
LINE
8
BLACK
6
CONTINUOUS
10
0.3340385433070866
20
0.5583945275590551
11
0.336593031496063
21
0.5601014173228346
0
LINE
8
BLACK
6
CONTINUOUS
10
0.336593031496063
20
0.5601014173228346
11
0.3396062992125984
21
0.5607007874015748
0
LINE
8
BLACK
6
CONTINUOUS
10
0.3396062992125984
20
0.5607007874015748
11
0.3553543307086614
21
0.5607007874015748
0
LINE
8
BLACK
6
CONTINUOUS
10
0.3553543307086614
20
0.5607007874015748
11
0.3583675984251968
21
0.5601014173228346
0
LINE
8
BLACK
6
CONTINUOUS
10
0.6582324409448819
20
0.5720422440944882
11
0.6611062598425197
21
0.5701220078740158
0
LINE
8
BLACK
6
CONTINUOUS
10
0.6611062598425197
20
0.5701220078740158
11
0.6630264960629921
21
0.567248188976378
0
LINE
8
BLACK
6
CONTINUOUS
10
0.6630264960629921
20
0.567248188976378
11
0.6637007874015748
21
0.5638582677165355
0
LINE
8
BLACK
6
CONTINUOUS
10
0.6637007874015748
20
0.5638582677165355
11
0.6637007874015748
21
0.5461417322834645
0
LINE
8
BLACK
6
CONTINUOUS
10
0.6637007874015748
20
0.5461417322834645
11
0.6630264960629921
21
0.542751811023622
0
LINE
8
BLACK
6
CONTINUOUS
10
0.6630264960629921
20
0.542751811023622
11
0.6611062598425197
21
0.5398779921259842
0
LINE
8
BLACK
6
CONTINUOUS
10
0.6611062598425197
20
0.5398779921259842
11
0.6582324409448819
21
0.5379577559055118
0
LINE
8
BLACK
6
CONTINUOUS
10
0.6582324409448819
20
0.5379577559055118
11
0.6548425196850394
21
0.5372834645669291
0
LINE
8
BLACK
6
CONTINUOUS
10
0.6548425196850394
20
0.5372834645669291
11
0.6351574803149607
21
0.5372834645669291
0
LINE
8
BLACK
6
CONTINUOUS
10
0.6351574803149607
20
0.5372834645669291
11
0.6317675590551181
21
0.5379577559055118
0
LINE
8
BLACK
6
CONTINUOUS
10
0.6317675590551181
20
0.5379577559055118
11
0.6288937401574803
21
0.5398779921259842
0
LINE
8
BLACK
6
CONTINUOUS
10
0.6288937401574803
20
0.5398779921259842
11
0.6269735039370079
21
0.542751811023622
0
LINE
8
BLACK
6
CONTINUOUS
10
0.6269735039370079
20
0.542751811023622
11
0.6262992125984251
21
0.5461417322834645
0
LINE
8
BLACK
6
CONTINUOUS
10
0.6262992125984251
20
0.5461417322834645
11
0.6262992125984251
21
0.5638582677165355
0
LINE
8
BLACK
6
CONTINUOUS
10
0.6262992125984251
20
0.5638582677165355
11
0.6269735039370079
21
0.567248188976378
0
LINE
8
BLACK
6
CONTINUOUS
10
0.6269735039370079
20
0.567248188976378
11
0.6288937401574803
21
0.5701220078740158
0
LINE
8
BLACK
6
CONTINUOUS
10
0.6288937401574803
20
0.5701220078740158
11
0.6317675590551181
21
0.5720422440944882
0
LINE
8
BLACK
6
CONTINUOUS
10
0.6317675590551181
20
0.5720422440944882
11
0.6351574803149607
21
0.5727165354330709
0
LINE
8
BLACK
6
CONTINUOUS
10
0.6351574803149607
20
0.5727165354330709
11
0.6548425196850394
21
0.5727165354330709
0
LINE
8
BLACK
6
CONTINUOUS
10
0.6548425196850394
20
0.5727165354330709
11
0.6582324409448819
21
0.5720422440944882
0
LINE
8
BLACK
6
CONTINUOUS
10
0.4281496062992126
20
0.5493070866141733
11
0.4183070866141732
21
0.5493070866141733
0
LINE
8
BLACK
6
CONTINUOUS
10
0.4183070866141732
20
0.5493070866141733
11
0.4183070866141732
21
0.5748976377952756
0
LINE
8
BLACK
6
CONTINUOUS
10
0.4183070866141732
20
0.5748976377952756
11
0.4281496062992126
21
0.5748976377952756
0
LINE
8
BLACK
6
CONTINUOUS
10
0.4281496062992126
20
0.5748976377952756
11
0.4281496062992126
21
0.5493070866141733
0
LINE
8
BLACK
6
CONTINUOUS
10
0.4478346456692913
20
0.5493070866141733
11
0.437992125984252
21
0.5493070866141733
0
LINE
8
BLACK
6
CONTINUOUS
10
0.437992125984252
20
0.5493070866141733
11
0.437992125984252
21
0.5748976377952756
0
LINE
8
BLACK
6
CONTINUOUS
10
0.437992125984252
20
0.5748976377952756
11
0.4478346456692913
21
0.5748976377952756
0
LINE
8
BLACK
6
CONTINUOUS
10
0.4478346456692913
20
0.5748976377952756
11
0.4478346456692913
21
0.5493070866141733
0
LINE
8
BLACK
6
CONTINUOUS
10
0.4675196850393701
20
0.5493070866141733
11
0.4576771653543307
21
0.5493070866141733
0
LINE
8
BLACK
6
CONTINUOUS
10
0.4576771653543307
20
0.5493070866141733
11
0.4576771653543307
21
0.5748976377952756
0
LINE
8
BLACK
6
CONTINUOUS
10
0.4576771653543307
20
0.5748976377952756
11
0.4675196850393701
21
0.5748976377952756
0
LINE
8
BLACK
6
CONTINUOUS
10
0.4675196850393701
20
0.5748976377952756
11
0.4675196850393701
21
0.5493070866141733
0
LINE
8
BLACK
6
CONTINUOUS
10
0.4872047244094488
20
0.5493070866141733
11
0.4773622047244094
21
0.5493070866141733
0
LINE
8
BLACK
6
CONTINUOUS
10
0.4773622047244094
20
0.5493070866141733
11
0.4773622047244094
21
0.5748976377952756
0
LINE
8
BLACK
6
CONTINUOUS
10
0.4773622047244094
20
0.5748976377952756
11
0.4872047244094488
21
0.5748976377952756
0
LINE
8
BLACK
6
CONTINUOUS
10
0.4872047244094488
20
0.5748976377952756
11
0.4872047244094488
21
0.5493070866141733
0
LINE
8
BLACK
6
CONTINUOUS
10
0.5068897637795275
20
0.5493070866141733
11
0.4970472440944882
21
0.5493070866141733
0
LINE
8
BLACK
6
CONTINUOUS
10
0.4970472440944882
20
0.5493070866141733
11
0.4970472440944882
21
0.5748976377952756
0
LINE
8
BLACK
6
CONTINUOUS
10
0.4970472440944882
20
0.5748976377952756
11
0.5068897637795275
21
0.5748976377952756
0
LINE
8
BLACK
6
CONTINUOUS
10
0.5068897637795275
20
0.5748976377952756
11
0.5068897637795275
21
0.5493070866141733
0
LINE
8
BLACK
6
CONTINUOUS
10
0.5265748031496063
20
0.5493070866141733
11
0.5167322834645669
21
0.5493070866141733
0
LINE
8
BLACK
6
CONTINUOUS
10
0.5167322834645669
20
0.5493070866141733
11
0.5167322834645669
21
0.5748976377952756
0
LINE
8
BLACK
6
CONTINUOUS
10
0.5167322834645669
20
0.5748976377952756
11
0.5265748031496063
21
0.5748976377952756
0
LINE
8
BLACK
6
CONTINUOUS
10
0.5265748031496063
20
0.5748976377952756
11
0.5265748031496063
21
0.5493070866141733
0
LINE
8
BLACK
6
CONTINUOUS
10
0.5462598425196851
20
0.5493070866141733
11
0.5364173228346456
21
0.5493070866141733
0
LINE
8
BLACK
6
CONTINUOUS
10
0.5364173228346456
20
0.5493070866141733
11
0.5364173228346456
21
0.5748976377952756
0
LINE
8
BLACK
6
CONTINUOUS
10
0.5364173228346456
20
0.5748976377952756
11
0.5462598425196851
21
0.5748976377952756
0
LINE
8
BLACK
6
CONTINUOUS
10
0.5462598425196851
20
0.5748976377952756
11
0.5462598425196851
21
0.5493070866141733
0
LINE
8
BLACK
6
CONTINUOUS
10
0.5659448818897638
20
0.5493070866141733
11
0.5561023622047244
21
0.5493070866141733
0
LINE
8
BLACK
6
CONTINUOUS
10
0.5561023622047244
20
0.5493070866141733
11
0.5561023622047244
21
0.5748976377952756
0
LINE
8
BLACK
6
CONTINUOUS
10
0.5561023622047244
20
0.5748976377952756
11
0.5659448818897638
21
0.5748976377952756
0
LINE
8
BLACK
6
CONTINUOUS
10
0.5659448818897638
20
0.5748976377952756
11
0.5659448818897638
21
0.5493070866141733
0
LINE
8
BLACK
6
CONTINUOUS
10
0.2325749212598425
20
0.5871488976377952
11
0.2344907874015748
21
0.5858687401574803
0
LINE
8
BLACK
6
CONTINUOUS
10
0.2344907874015748
20
0.5858687401574803
11
0.2357709448818898
21
0.583952874015748
0
LINE
8
BLACK
6
CONTINUOUS
10
0.2357709448818898
20
0.583952874015748
11
0.2362204724409449
21
0.5816929133858267
0
LINE
8
BLACK
6
CONTINUOUS
10
0.2362204724409449
20
0.5816929133858267
11
0.2362204724409449
21
0.5698818897637795
0
LINE
8
BLACK
6
CONTINUOUS
10
0.2362204724409449
20
0.5698818897637795
11
0.2357709448818898
21
0.5676219291338582
0
LINE
8
BLACK
6
CONTINUOUS
10
0.2357709448818898
20
0.5676219291338582
11
0.2344907874015748
21
0.565706062992126
0
LINE
8
BLACK
6
CONTINUOUS
10
0.2344907874015748
20
0.565706062992126
11
0.2325749212598425
21
0.564425905511811
0
LINE
8
BLACK
6
CONTINUOUS
10
0.2325749212598425
20
0.564425905511811
11
0.2303149606299213
21
0.5639763779527559
0
LINE
8
BLACK
6
CONTINUOUS
10
0.2303149606299213
20
0.5639763779527559
11
0.1751968503937008
21
0.5639763779527559
0
LINE
8
BLACK
6
CONTINUOUS
10
0.1751968503937008
20
0.5639763779527559
11
0.1729368897637795
21
0.564425905511811
0
LINE
8
BLACK
6
CONTINUOUS
10
0.1729368897637795
20
0.564425905511811
11
0.1710210236220472
21
0.565706062992126
0
LINE
8
BLACK
6
CONTINUOUS
10
0.1710210236220472
20
0.565706062992126
11
0.1697408661417323
21
0.5676219291338582
0
LINE
8
BLACK
6
CONTINUOUS
10
0.1697408661417323
20
0.5676219291338582
11
0.1692913385826772
21
0.5698818897637795
0
LINE
8
BLACK
6
CONTINUOUS
10
0.1692913385826772
20
0.5698818897637795
11
0.1692913385826772
21
0.5816929133858267
0
LINE
8
BLACK
6
CONTINUOUS
10
0.1692913385826772
20
0.5816929133858267
11
0.1697408661417323
21
0.583952874015748
0
LINE
8
BLACK
6
CONTINUOUS
10
0.1697408661417323
20
0.583952874015748
11
0.1710210236220472
21
0.5858687401574803
0
LINE
8
BLACK
6
CONTINUOUS
10
0.1710210236220472
20
0.5858687401574803
11
0.1729368897637795
21
0.5871488976377952
0
LINE
8
BLACK
6
CONTINUOUS
10
0.1729368897637795
20
0.5871488976377952
11
0.1751968503937008
21
0.5875984251968503
0
LINE
8
BLACK
6
CONTINUOUS
10
0.1751968503937008
20
0.5875984251968503
11
0.2303149606299213
21
0.5875984251968503
0
LINE
8
BLACK
6
CONTINUOUS
10
0.2303149606299213
20
0.5875984251968503
11
0.2325749212598425
21
0.5871488976377952
0
LINE
8
BLACK
6
CONTINUOUS
10
0.8113150787401575
20
0.5871488976377952
11
0.8132309448818897
21
0.5858687401574803
0
LINE
8
BLACK
6
CONTINUOUS
10
0.8132309448818897
20
0.5858687401574803
11
0.8145111023622047
21
0.583952874015748
0
LINE
8
BLACK
6
CONTINUOUS
10
0.8145111023622047
20
0.583952874015748
11
0.8149606299212598
21
0.5816929133858267
0
LINE
8
BLACK
6
CONTINUOUS
10
0.8149606299212598
20
0.5816929133858267
11
0.8149606299212598
21
0.5698818897637795
0
LINE
8
BLACK
6
CONTINUOUS
10
0.8149606299212598
20
0.5698818897637795
11
0.8145111023622047
21
0.5676219291338582
0
LINE
8
BLACK
6
CONTINUOUS
10
0.8145111023622047
20
0.5676219291338582
11
0.8132309448818897
21
0.565706062992126
0
LINE
8
BLACK
6
CONTINUOUS
10
0.8132309448818897
20
0.565706062992126
11
0.8113150787401575
21
0.564425905511811
0
LINE
8
BLACK
6
CONTINUOUS
10
0.8113150787401575
20
0.564425905511811
11
0.8090551181102362
21
0.5639763779527559
0
LINE
8
BLACK
6
CONTINUOUS
10
0.8090551181102362
20
0.5639763779527559
11
0.7539370078740157
21
0.5639763779527559
0
LINE
8
BLACK
6
CONTINUOUS
10
0.7539370078740157
20
0.5639763779527559
11
0.7516770472440945
21
0.564425905511811
0
LINE
8
BLACK
6
CONTINUOUS
10
0.7516770472440945
20
0.564425905511811
11
0.7497611811023622
21
0.565706062992126
0
LINE
8
BLACK
6
CONTINUOUS
10
0.7497611811023622
20
0.565706062992126
11
0.7484810236220473
21
0.5676219291338582
0
LINE
8
BLACK
6
CONTINUOUS
10
0.7484810236220473
20
0.5676219291338582
11
0.7480314960629921
21
0.5698818897637795
0
LINE
8
BLACK
6
CONTINUOUS
10
0.7480314960629921
20
0.5698818897637795
11
0.7480314960629921
21
0.5816929133858267
0
LINE
8
BLACK
6
CONTINUOUS
10
0.7480314960629921
20
0.5816929133858267
11
0.7484810236220473
21
0.583952874015748
0
LINE
8
BLACK
6
CONTINUOUS
10
0.7484810236220473
20
0.583952874015748
11
0.7497611811023622
21
0.5858687401574803
0
LINE
8
BLACK
6
CONTINUOUS
10
0.7497611811023622
20
0.5858687401574803
11
0.7516770472440945
21
0.5871488976377952
0
LINE
8
BLACK
6
CONTINUOUS
10
0.7516770472440945
20
0.5871488976377952
11
0.7539370078740157
21
0.5875984251968503
0
LINE
8
BLACK
6
CONTINUOUS
10
0.7539370078740157
20
0.5875984251968503
11
0.8090551181102362
21
0.5875984251968503
0
LINE
8
BLACK
6
CONTINUOUS
10
0.8090551181102362
20
0.5875984251968503
11
0.8113150787401575
21
0.5871488976377952
0
LINE
8
BLACK
6
CONTINUOUS
10
0.3388400393700787
20
0.6331486614173228
11
0.3413945275590551
21
0.6314417716535433
0
LINE
8
BLACK
6
CONTINUOUS
10
0.3413945275590551
20
0.6314417716535433
11
0.3431014173228346
21
0.6288872834645669
0
LINE
8
BLACK
6
CONTINUOUS
10
0.3431014173228346
20
0.6288872834645669
11
0.3437007874015748
21
0.6258740157480315
0
LINE
8
BLACK
6
CONTINUOUS
10
0.3437007874015748
20
0.6258740157480315
11
0.3437007874015748
21
0.6101259842519685
0
LINE
8
BLACK
6
CONTINUOUS
10
0.3437007874015748
20
0.6101259842519685
11
0.3431014173228346
21
0.6071127165354331
0
LINE
8
BLACK
6
CONTINUOUS
10
0.3431014173228346
20
0.6071127165354331
11
0.3413945275590551
21
0.6045582283464567
0
LINE
8
BLACK
6
CONTINUOUS
10
0.3413945275590551
20
0.6045582283464567
11
0.3388400393700787
21
0.6028513385826771
0
LINE
8
BLACK
6
CONTINUOUS
10
0.3388400393700787
20
0.6028513385826771
11
0.3358267716535433
21
0.602251968503937
0
LINE
8
BLACK
6
CONTINUOUS
10
0.3358267716535433
20
0.602251968503937
11
0.3141732283464567
21
0.602251968503937
0
LINE
8
BLACK
6
CONTINUOUS
10
0.3141732283464567
20
0.602251968503937
11
0.3111599606299212
21
0.6028513385826771
0
LINE
8
BLACK
6
CONTINUOUS
10
0.3111599606299212
20
0.6028513385826771
11
0.3086054724409449
21
0.6045582283464567
0
LINE
8
BLACK
6
CONTINUOUS
10
0.3086054724409449
20
0.6045582283464567
11
0.3068985826771654
21
0.6071127165354331
0
LINE
8
BLACK
6
CONTINUOUS
10
0.3068985826771654
20
0.6071127165354331
11
0.3062992125984252
21
0.6101259842519685
0
LINE
8
BLACK
6
CONTINUOUS
10
0.3062992125984252
20
0.6101259842519685
11
0.3062992125984252
21
0.6258740157480315
0
LINE
8
BLACK
6
CONTINUOUS
10
0.3062992125984252
20
0.6258740157480315
11
0.3068985826771654
21
0.6288872834645669
0
LINE
8
BLACK
6
CONTINUOUS
10
0.3068985826771654
20
0.6288872834645669
11
0.3086054724409449
21
0.6314417716535433
0
LINE
8
BLACK
6
CONTINUOUS
10
0.3086054724409449
20
0.6314417716535433
11
0.3111599606299212
21
0.6331486614173228
0
LINE
8
BLACK
6
CONTINUOUS
10
0.3111599606299212
20
0.6331486614173228
11
0.3141732283464567
21
0.633748031496063
0
LINE
8
BLACK
6
CONTINUOUS
10
0.3141732283464567
20
0.633748031496063
11
0.3358267716535433
21
0.633748031496063
0
LINE
8
BLACK
6
CONTINUOUS
10
0.3358267716535433
20
0.633748031496063
11
0.3388400393700787
21
0.6331486614173228
0
LINE
8
BLACK
6
CONTINUOUS
10
0.6738400393700787
20
0.6346683464566929
11
0.676394527559055
21
0.6329614566929134
0
LINE
8
BLACK
6
CONTINUOUS
10
0.676394527559055
20
0.6329614566929134
11
0.6781014173228346
21
0.630406968503937
0
LINE
8
BLACK
6
CONTINUOUS
10
0.6781014173228346
20
0.630406968503937
11
0.6787007874015748
21
0.6273937007874015
0
LINE
8
BLACK
6
CONTINUOUS
10
0.6787007874015748
20
0.6273937007874015
11
0.6787007874015748
21
0.6116456692913386
0
LINE
8
BLACK
6
CONTINUOUS
10
0.6787007874015748
20
0.6116456692913386
11
0.6781014173228346
21
0.6086324015748031
0
LINE
8
BLACK
6
CONTINUOUS
10
0.6781014173228346
20
0.6086324015748031
11
0.676394527559055
21
0.6060779133858267
0
LINE
8
BLACK
6
CONTINUOUS
10
0.676394527559055
20
0.6060779133858267
11
0.6738400393700787
21
0.6043710236220472
0
LINE
8
BLACK
6
CONTINUOUS
10
0.6738400393700787
20
0.6043710236220472
11
0.6708267716535433
21
0.6037716535433071
0
LINE
8
BLACK
6
CONTINUOUS
10
0.6708267716535433
20
0.6037716535433071
11
0.6491732283464566
21
0.6037716535433071
0
LINE
8
BLACK
6
CONTINUOUS
10
0.6491732283464566
20
0.6037716535433071
11
0.6461599606299212
21
0.6043710236220472
0
LINE
8
BLACK
6
CONTINUOUS
10
0.6461599606299212
20
0.6043710236220472
11
0.6436054724409449
21
0.6060779133858267
0
LINE
8
BLACK
6
CONTINUOUS
10
0.6436054724409449
20
0.6060779133858267
11
0.6418985826771654
21
0.6086324015748031
0
LINE
8
BLACK
6
CONTINUOUS
10
0.6418985826771654
20
0.6086324015748031
11
0.6412992125984252
21
0.6116456692913386
0
LINE
8
BLACK
6
CONTINUOUS
10
0.6412992125984252
20
0.6116456692913386
11
0.6412992125984252
21
0.6273937007874015
0
LINE
8
BLACK
6
CONTINUOUS
10
0.6412992125984252
20
0.6273937007874015
11
0.6418985826771654
21
0.630406968503937
0
LINE
8
BLACK
6
CONTINUOUS
10
0.6418985826771654
20
0.630406968503937
11
0.6436054724409449
21
0.6329614566929134
0
LINE
8
BLACK
6
CONTINUOUS
10
0.6436054724409449
20
0.6329614566929134
11
0.6461599606299212
21
0.6346683464566929
0
LINE
8
BLACK
6
CONTINUOUS
10
0.6461599606299212
20
0.6346683464566929
11
0.6491732283464566
21
0.635267716535433
0
LINE
8
BLACK
6
CONTINUOUS
10
0.6491732283464566
20
0.635267716535433
11
0.6708267716535433
21
0.635267716535433
0
LINE
8
BLACK
6
CONTINUOUS
10
0.6708267716535433
20
0.635267716535433
11
0.6738400393700787
21
0.6346683464566929
0
LINE
8
BLACK
6
CONTINUOUS
10
0.2325749212598425
20
0.6363614960629921
11
0.2344907874015748
21
0.6350813385826771
0
LINE
8
BLACK
6
CONTINUOUS
10
0.2344907874015748
20
0.6350813385826771
11
0.2357709448818898
21
0.6331654724409449
0
LINE
8
BLACK
6
CONTINUOUS
10
0.2357709448818898
20
0.6331654724409449
11
0.2362204724409449
21
0.6309055118110236
0
LINE
8
BLACK
6
CONTINUOUS
10
0.2362204724409449
20
0.6309055118110236
11
0.2362204724409449
21
0.6190944881889764
0
LINE
8
BLACK
6
CONTINUOUS
10
0.2362204724409449
20
0.6190944881889764
11
0.2357709448818898
21
0.6168345275590551
0
LINE
8
BLACK
6
CONTINUOUS
10
0.2357709448818898
20
0.6168345275590551
11
0.2344907874015748
21
0.6149186614173229
0
LINE
8
BLACK
6
CONTINUOUS
10
0.2344907874015748
20
0.6149186614173229
11
0.2325749212598425
21
0.6136385039370078
0
LINE
8
BLACK
6
CONTINUOUS
10
0.2325749212598425
20
0.6136385039370078
11
0.2303149606299213
21
0.6131889763779528
0
LINE
8
BLACK
6
CONTINUOUS
10
0.2303149606299213
20
0.6131889763779528
11
0.1751968503937008
21
0.6131889763779528
0
LINE
8
BLACK
6
CONTINUOUS
10
0.1751968503937008
20
0.6131889763779528
11
0.1729368897637795
21
0.6136385039370078
0
LINE
8
BLACK
6
CONTINUOUS
10
0.1729368897637795
20
0.6136385039370078
11
0.1710210236220472
21
0.6149186614173229
0
LINE
8
BLACK
6
CONTINUOUS
10
0.1710210236220472
20
0.6149186614173229
11
0.1697408661417323
21
0.6168345275590551
0
LINE
8
BLACK
6
CONTINUOUS
10
0.1697408661417323
20
0.6168345275590551
11
0.1692913385826772
21
0.6190944881889764
0
LINE
8
BLACK
6
CONTINUOUS
10
0.1692913385826772
20
0.6190944881889764
11
0.1692913385826772
21
0.6309055118110236
0
LINE
8
BLACK
6
CONTINUOUS
10
0.1692913385826772
20
0.6309055118110236
11
0.1697408661417323
21
0.6331654724409449
0
LINE
8
BLACK
6
CONTINUOUS
10
0.1697408661417323
20
0.6331654724409449
11
0.1710210236220472
21
0.6350813385826771
0
LINE
8
BLACK
6
CONTINUOUS
10
0.1710210236220472
20
0.6350813385826771
11
0.1729368897637795
21
0.6363614960629921
0
LINE
8
BLACK
6
CONTINUOUS
10
0.1729368897637795
20
0.6363614960629921
11
0.1751968503937008
21
0.6368110236220472
0
LINE
8
BLACK
6
CONTINUOUS
10
0.1751968503937008
20
0.6368110236220472
11
0.2303149606299213
21
0.6368110236220472
0
LINE
8
BLACK
6
CONTINUOUS
10
0.2303149606299213
20
0.6368110236220472
11
0.2325749212598425
21
0.6363614960629921
0
LINE
8
BLACK
6
CONTINUOUS
10
0.8113150787401575
20
0.6363614960629921
11
0.8132309448818897
21
0.6350813385826771
0
LINE
8
BLACK
6
CONTINUOUS
10
0.8132309448818897
20
0.6350813385826771
11
0.8145111023622047
21
0.6331654724409449
0
LINE
8
BLACK
6
CONTINUOUS
10
0.8145111023622047
20
0.6331654724409449
11
0.8149606299212598
21
0.6309055118110236
0
LINE
8
BLACK
6
CONTINUOUS
10
0.8149606299212598
20
0.6309055118110236
11
0.8149606299212598
21
0.6190944881889764
0
LINE
8
BLACK
6
CONTINUOUS
10
0.8149606299212598
20
0.6190944881889764
11
0.8145111023622047
21
0.6168345275590551
0
LINE
8
BLACK
6
CONTINUOUS
10
0.8145111023622047
20
0.6168345275590551
11
0.8132309448818897
21
0.6149186614173229
0
LINE
8
BLACK
6
CONTINUOUS
10
0.8132309448818897
20
0.6149186614173229
11
0.8113150787401575
21
0.6136385039370078
0
LINE
8
BLACK
6
CONTINUOUS
10
0.8113150787401575
20
0.6136385039370078
11
0.8090551181102362
21
0.6131889763779528
0
LINE
8
BLACK
6
CONTINUOUS
10
0.8090551181102362
20
0.6131889763779528
11
0.7539370078740157
21
0.6131889763779528
0
LINE
8
BLACK
6
CONTINUOUS
10
0.7539370078740157
20
0.6131889763779528
11
0.7516770472440945
21
0.6136385039370078
0
LINE
8
BLACK
6
CONTINUOUS
10
0.7516770472440945
20
0.6136385039370078
11
0.7497611811023622
21
0.6149186614173229
0
LINE
8
BLACK
6
CONTINUOUS
10
0.7497611811023622
20
0.6149186614173229
11
0.7484810236220473
21
0.6168345275590551
0
LINE
8
BLACK
6
CONTINUOUS
10
0.7484810236220473
20
0.6168345275590551
11
0.7480314960629921
21
0.6190944881889764
0
LINE
8
BLACK
6
CONTINUOUS
10
0.7480314960629921
20
0.6190944881889764
11
0.7480314960629921
21
0.6309055118110236
0
LINE
8
BLACK
6
CONTINUOUS
10
0.7480314960629921
20
0.6309055118110236
11
0.7484810236220473
21
0.6331654724409449
0
LINE
8
BLACK
6
CONTINUOUS
10
0.7484810236220473
20
0.6331654724409449
11
0.7497611811023622
21
0.6350813385826771
0
LINE
8
BLACK
6
CONTINUOUS
10
0.7497611811023622
20
0.6350813385826771
11
0.7516770472440945
21
0.6363614960629921
0
LINE
8
BLACK
6
CONTINUOUS
10
0.7516770472440945
20
0.6363614960629921
11
0.7539370078740157
21
0.6368110236220472
0
LINE
8
BLACK
6
CONTINUOUS
10
0.7539370078740157
20
0.6368110236220472
11
0.8090551181102362
21
0.6368110236220472
0
LINE
8
BLACK
6
CONTINUOUS
10
0.8090551181102362
20
0.6368110236220472
11
0.8113150787401575
21
0.6363614960629921
0
LINE
8
BLACK
6
CONTINUOUS
10
0.2325749212598425
20
0.685574094488189
11
0.2344907874015748
21
0.684293937007874
0
LINE
8
BLACK
6
CONTINUOUS
10
0.2344907874015748
20
0.684293937007874
11
0.2357709448818898
21
0.6823780708661417
0
LINE
8
BLACK
6
CONTINUOUS
10
0.2357709448818898
20
0.6823780708661417
11
0.2362204724409449
21
0.6801181102362205
0
LINE
8
BLACK
6
CONTINUOUS
10
0.2362204724409449
20
0.6801181102362205
11
0.2362204724409449
21
0.6683070866141733
0
LINE
8
BLACK
6
CONTINUOUS
10
0.2362204724409449
20
0.6683070866141733
11
0.2357709448818898
21
0.666047125984252
0
LINE
8
BLACK
6
CONTINUOUS
10
0.2357709448818898
20
0.666047125984252
11
0.2344907874015748
21
0.6641312598425196
0
LINE
8
BLACK
6
CONTINUOUS
10
0.2344907874015748
20
0.6641312598425196
11
0.2325749212598425
21
0.6628511023622047
0
LINE
8
BLACK
6
CONTINUOUS
10
0.2325749212598425
20
0.6628511023622047
11
0.2303149606299213
21
0.6624015748031495
0
LINE
8
BLACK
6
CONTINUOUS
10
0.2303149606299213
20
0.6624015748031495
11
0.1751968503937008
21
0.6624015748031495
0
LINE
8
BLACK
6
CONTINUOUS
10
0.1751968503937008
20
0.6624015748031495
11
0.1729368897637795
21
0.6628511023622047
0
LINE
8
BLACK
6
CONTINUOUS
10
0.1729368897637795
20
0.6628511023622047
11
0.1710210236220472
21
0.6641312598425196
0
LINE
8
BLACK
6
CONTINUOUS
10
0.1710210236220472
20
0.6641312598425196
11
0.1697408661417323
21
0.666047125984252
0
LINE
8
BLACK
6
CONTINUOUS
10
0.1697408661417323
20
0.666047125984252
11
0.1692913385826772
21
0.6683070866141733
0
LINE
8
BLACK
6
CONTINUOUS
10
0.1692913385826772
20
0.6683070866141733
11
0.1692913385826772
21
0.6801181102362205
0
LINE
8
BLACK
6
CONTINUOUS
10
0.1692913385826772
20
0.6801181102362205
11
0.1697408661417323
21
0.6823780708661417
0
LINE
8
BLACK
6
CONTINUOUS
10
0.1697408661417323
20
0.6823780708661417
11
0.1710210236220472
21
0.684293937007874
0
LINE
8
BLACK
6
CONTINUOUS
10
0.1710210236220472
20
0.684293937007874
11
0.1729368897637795
21
0.685574094488189
0
LINE
8
BLACK
6
CONTINUOUS
10
0.1729368897637795
20
0.685574094488189
11
0.1751968503937008
21
0.6860236220472441
0
LINE
8
BLACK
6
CONTINUOUS
10
0.1751968503937008
20
0.6860236220472441
11
0.2303149606299213
21
0.6860236220472441
0
LINE
8
BLACK
6
CONTINUOUS
10
0.2303149606299213
20
0.6860236220472441
11
0.2325749212598425
21
0.685574094488189
0
LINE
8
BLACK
6
CONTINUOUS
10
0.8113150787401575
20
0.685574094488189
11
0.8132309448818897
21
0.684293937007874
0
LINE
8
BLACK
6
CONTINUOUS
10
0.8132309448818897
20
0.684293937007874
11
0.8145111023622047
21
0.6823780708661417
0
LINE
8
BLACK
6
CONTINUOUS
10
0.8145111023622047
20
0.6823780708661417
11
0.8149606299212598
21
0.6801181102362205
0
LINE
8
BLACK
6
CONTINUOUS
10
0.8149606299212598
20
0.6801181102362205
11
0.8149606299212598
21
0.6683070866141733
0
LINE
8
BLACK
6
CONTINUOUS
10
0.8149606299212598
20
0.6683070866141733
11
0.8145111023622047
21
0.666047125984252
0
LINE
8
BLACK
6
CONTINUOUS
10
0.8145111023622047
20
0.666047125984252
11
0.8132309448818897
21
0.6641312598425196
0
LINE
8
BLACK
6
CONTINUOUS
10
0.8132309448818897
20
0.6641312598425196
11
0.8113150787401575
21
0.6628511023622047
0
LINE
8
BLACK
6
CONTINUOUS
10
0.8113150787401575
20
0.6628511023622047
11
0.8090551181102362
21
0.6624015748031495
0
LINE
8
BLACK
6
CONTINUOUS
10
0.8090551181102362
20
0.6624015748031495
11
0.7539370078740157
21
0.6624015748031495
0
LINE
8
BLACK
6
CONTINUOUS
10
0.7539370078740157
20
0.6624015748031495
11
0.7516770472440945
21
0.6628511023622047
0
LINE
8
BLACK
6
CONTINUOUS
10
0.7516770472440945
20
0.6628511023622047
11
0.7497611811023622
21
0.6641312598425196
0
LINE
8
BLACK
6
CONTINUOUS
10
0.7497611811023622
20
0.6641312598425196
11
0.7484810236220473
21
0.666047125984252
0
LINE
8
BLACK
6
CONTINUOUS
10
0.7484810236220473
20
0.666047125984252
11
0.7480314960629921
21
0.6683070866141733
0
LINE
8
BLACK
6
CONTINUOUS
10
0.7480314960629921
20
0.6683070866141733
11
0.7480314960629921
21
0.6801181102362205
0
LINE
8
BLACK
6
CONTINUOUS
10
0.7480314960629921
20
0.6801181102362205
11
0.7484810236220473
21
0.6823780708661417
0
LINE
8
BLACK
6
CONTINUOUS
10
0.7484810236220473
20
0.6823780708661417
11
0.7497611811023622
21
0.684293937007874
0
LINE
8
BLACK
6
CONTINUOUS
10
0.7497611811023622
20
0.684293937007874
11
0.7516770472440945
21
0.685574094488189
0
LINE
8
BLACK
6
CONTINUOUS
10
0.7516770472440945
20
0.685574094488189
11
0.7539370078740157
21
0.6860236220472441
0
LINE
8
BLACK
6
CONTINUOUS
10
0.7539370078740157
20
0.6860236220472441
11
0.8090551181102362
21
0.6860236220472441
0
LINE
8
BLACK
6
CONTINUOUS
10
0.8090551181102362
20
0.6860236220472441
11
0.8113150787401575
21
0.685574094488189
0
LINE
8
BLACK
6
CONTINUOUS
10
0.3388400393700787
20
0.6981092913385827
11
0.3413945275590551
21
0.6964024015748032
0
LINE
8
BLACK
6
CONTINUOUS
10
0.3413945275590551
20
0.6964024015748032
11
0.3431014173228346
21
0.6938479133858267
0
LINE
8
BLACK
6
CONTINUOUS
10
0.3431014173228346
20
0.6938479133858267
11
0.3437007874015748
21
0.6908346456692913
0
LINE
8
BLACK
6
CONTINUOUS
10
0.3437007874015748
20
0.6908346456692913
11
0.3437007874015748
21
0.6750866141732283
0
LINE
8
BLACK
6
CONTINUOUS
10
0.3437007874015748
20
0.6750866141732283
11
0.3431014173228346
21
0.6720733464566929
0
LINE
8
BLACK
6
CONTINUOUS
10
0.3431014173228346
20
0.6720733464566929
11
0.3413945275590551
21
0.6695188582677165
0
LINE
8
BLACK
6
CONTINUOUS
10
0.3413945275590551
20
0.6695188582677165
11
0.3388400393700787
21
0.667811968503937
0
LINE
8
BLACK
6
CONTINUOUS
10
0.3388400393700787
20
0.667811968503937
11
0.3358267716535433
21
0.6672125984251969
0
LINE
8
BLACK
6
CONTINUOUS
10
0.3358267716535433
20
0.6672125984251969
11
0.3141732283464567
21
0.6672125984251969
0
LINE
8
BLACK
6
CONTINUOUS
10
0.3141732283464567
20
0.6672125984251969
11
0.3111599606299212
21
0.667811968503937
0
LINE
8
BLACK
6
CONTINUOUS
10
0.3111599606299212
20
0.667811968503937
11
0.3086054724409449
21
0.6695188582677165
0
LINE
8
BLACK
6
CONTINUOUS
10
0.3086054724409449
20
0.6695188582677165
11
0.3068985826771654
21
0.6720733464566929
0
LINE
8
BLACK
6
CONTINUOUS
10
0.3068985826771654
20
0.6720733464566929
11
0.3062992125984252
21
0.6750866141732283
0
LINE
8
BLACK
6
CONTINUOUS
10
0.3062992125984252
20
0.6750866141732283
11
0.3062992125984252
21
0.6908346456692913
0
LINE
8
BLACK
6
CONTINUOUS
10
0.3062992125984252
20
0.6908346456692913
11
0.3068985826771654
21
0.6938479133858267
0
LINE
8
BLACK
6
CONTINUOUS
10
0.3068985826771654
20
0.6938479133858267
11
0.3086054724409449
21
0.6964024015748032
0
LINE
8
BLACK
6
CONTINUOUS
10
0.3086054724409449
20
0.6964024015748032
11
0.3111599606299212
21
0.6981092913385827
0
LINE
8
BLACK
6
CONTINUOUS
10
0.3111599606299212
20
0.6981092913385827
11
0.3141732283464567
21
0.6987086614173228
0
LINE
8
BLACK
6
CONTINUOUS
10
0.3141732283464567
20
0.6987086614173228
11
0.3358267716535433
21
0.6987086614173228
0
LINE
8
BLACK
6
CONTINUOUS
10
0.3358267716535433
20
0.6987086614173228
11
0.3388400393700787
21
0.6981092913385827
0
LINE
8
BLACK
6
CONTINUOUS
10
0.6738400393700787
20
0.6996289763779527
11
0.676394527559055
21
0.6979220866141732
0
LINE
8
BLACK
6
CONTINUOUS
10
0.676394527559055
20
0.6979220866141732
11
0.6781014173228346
21
0.6953675984251968
0
LINE
8
BLACK
6
CONTINUOUS
10
0.6781014173228346
20
0.6953675984251968
11
0.6787007874015748
21
0.6923543307086614
0
LINE
8
BLACK
6
CONTINUOUS
10
0.6787007874015748
20
0.6923543307086614
11
0.6787007874015748
21
0.6766062992125984
0
LINE
8
BLACK
6
CONTINUOUS
10
0.6787007874015748
20
0.6766062992125984
11
0.6781014173228346
21
0.673593031496063
0
LINE
8
BLACK
6
CONTINUOUS
10
0.6781014173228346
20
0.673593031496063
11
0.676394527559055
21
0.6710385433070866
0
LINE
8
BLACK
6
CONTINUOUS
10
0.676394527559055
20
0.6710385433070866
11
0.6738400393700787
21
0.669331653543307
0
LINE
8
BLACK
6
CONTINUOUS
10
0.6738400393700787
20
0.669331653543307
11
0.6708267716535433
21
0.6687322834645669
0
LINE
8
BLACK
6
CONTINUOUS
10
0.6708267716535433
20
0.6687322834645669
11
0.6491732283464566
21
0.6687322834645669
0
LINE
8
BLACK
6
CONTINUOUS
10
0.6491732283464566
20
0.6687322834645669
11
0.6461599606299212
21
0.669331653543307
0
LINE
8
BLACK
6
CONTINUOUS
10
0.6461599606299212
20
0.669331653543307
11
0.6436054724409449
21
0.6710385433070866
0
LINE
8
BLACK
6
CONTINUOUS
10
0.6436054724409449
20
0.6710385433070866
11
0.6418985826771654
21
0.673593031496063
0
LINE
8
BLACK
6
CONTINUOUS
10
0.6418985826771654
20
0.673593031496063
11
0.6412992125984252
21
0.6766062992125984
0
LINE
8
BLACK
6
CONTINUOUS
10
0.6412992125984252
20
0.6766062992125984
11
0.6412992125984252
21
0.6923543307086614
0
LINE
8
BLACK
6
CONTINUOUS
10
0.6412992125984252
20
0.6923543307086614
11
0.6418985826771654
21
0.6953675984251968
0
LINE
8
BLACK
6
CONTINUOUS
10
0.6418985826771654
20
0.6953675984251968
11
0.6436054724409449
21
0.6979220866141732
0
LINE
8
BLACK
6
CONTINUOUS
10
0.6436054724409449
20
0.6979220866141732
11
0.6461599606299212
21
0.6996289763779527
0
LINE
8
BLACK
6
CONTINUOUS
10
0.6461599606299212
20
0.6996289763779527
11
0.6491732283464566
21
0.7002283464566929
0
LINE
8
BLACK
6
CONTINUOUS
10
0.6491732283464566
20
0.7002283464566929
11
0.6708267716535433
21
0.7002283464566929
0
LINE
8
BLACK
6
CONTINUOUS
10
0.6708267716535433
20
0.7002283464566929
11
0.6738400393700787
21
0.6996289763779527
0
LINE
8
BLACK
6
CONTINUOUS
10
0.4036038188976378
20
0.7231014173228346
11
0.4061583070866142
21
0.7213945275590551
0
LINE
8
BLACK
6
CONTINUOUS
10
0.4061583070866142
20
0.7213945275590551
11
0.4078651968503937
21
0.7188400393700787
0
LINE
8
BLACK
6
CONTINUOUS
10
0.4078651968503937
20
0.7188400393700787
11
0.4084645669291339
21
0.7158267716535432
0
LINE
8
BLACK
6
CONTINUOUS
10
0.4084645669291339
20
0.7158267716535432
11
0.4084645669291339
21
0.6941732283464567
0
LINE
8
BLACK
6
CONTINUOUS
10
0.4084645669291339
20
0.6941732283464567
11
0.4078651968503937
21
0.6911599606299212
0
LINE
8
BLACK
6
CONTINUOUS
10
0.4078651968503937
20
0.6911599606299212
11
0.4061583070866142
21
0.6886054724409448
0
LINE
8
BLACK
6
CONTINUOUS
10
0.4061583070866142
20
0.6886054724409448
11
0.4036038188976378
21
0.6868985826771653
0
LINE
8
BLACK
6
CONTINUOUS
10
0.4036038188976378
20
0.6868985826771653
11
0.4005905511811024
21
0.6862992125984252
0
LINE
8
BLACK
6
CONTINUOUS
10
0.4005905511811024
20
0.6862992125984252
11
0.3848425196850394
21
0.6862992125984252
0
LINE
8
BLACK
6
CONTINUOUS
10
0.3848425196850394
20
0.6862992125984252
11
0.3818292519685039
21
0.6868985826771653
0
LINE
8
BLACK
6
CONTINUOUS
10
0.3818292519685039
20
0.6868985826771653
11
0.3792747637795276
21
0.6886054724409448
0
LINE
8
BLACK
6
CONTINUOUS
10
0.3792747637795276
20
0.6886054724409448
11
0.377567874015748
21
0.6911599606299212
0
LINE
8
BLACK
6
CONTINUOUS
10
0.377567874015748
20
0.6911599606299212
11
0.3769685039370079
21
0.6941732283464567
0
LINE
8
BLACK
6
CONTINUOUS
10
0.3769685039370079
20
0.6941732283464567
11
0.3769685039370079
21
0.7158267716535432
0
LINE
8
BLACK
6
CONTINUOUS
10
0.3769685039370079
20
0.7158267716535432
11
0.377567874015748
21
0.7188400393700787
0
LINE
8
BLACK
6
CONTINUOUS
10
0.377567874015748
20
0.7188400393700787
11
0.3792747637795276
21
0.7213945275590551
0
LINE
8
BLACK
6
CONTINUOUS
10
0.3792747637795276
20
0.7213945275590551
11
0.3818292519685039
21
0.7231014173228346
0
LINE
8
BLACK
6
CONTINUOUS
10
0.3818292519685039
20
0.7231014173228346
11
0.3848425196850394
21
0.7237007874015748
0
LINE
8
BLACK
6
CONTINUOUS
10
0.3848425196850394
20
0.7237007874015748
11
0.4005905511811024
21
0.7237007874015748
0
LINE
8
BLACK
6
CONTINUOUS
10
0.4005905511811024
20
0.7237007874015748
11
0.4036038188976378
21
0.7231014173228346
0
LINE
8
BLACK
6
CONTINUOUS
10
0.4685644488188976
20
0.7231014173228346
11
0.471118937007874
21
0.7213945275590551
0
LINE
8
BLACK
6
CONTINUOUS
10
0.471118937007874
20
0.7213945275590551
11
0.4728258267716535
21
0.7188400393700787
0
LINE
8
BLACK
6
CONTINUOUS
10
0.4728258267716535
20
0.7188400393700787
11
0.4734251968503937
21
0.7158267716535432
0
LINE
8
BLACK
6
CONTINUOUS
10
0.4734251968503937
20
0.7158267716535432
11
0.4734251968503937
21
0.6941732283464567
0
LINE
8
BLACK
6
CONTINUOUS
10
0.4734251968503937
20
0.6941732283464567
11
0.4728258267716535
21
0.6911599606299212
0
LINE
8
BLACK
6
CONTINUOUS
10
0.4728258267716535
20
0.6911599606299212
11
0.471118937007874
21
0.6886054724409448
0
LINE
8
BLACK
6
CONTINUOUS
10
0.471118937007874
20
0.6886054724409448
11
0.4685644488188976
21
0.6868985826771653
0
LINE
8
BLACK
6
CONTINUOUS
10
0.4685644488188976
20
0.6868985826771653
11
0.4655511811023622
21
0.6862992125984252
0
LINE
8
BLACK
6
CONTINUOUS
10
0.4655511811023622
20
0.6862992125984252
11
0.4498031496062992
21
0.6862992125984252
0
LINE
8
BLACK
6
CONTINUOUS
10
0.4498031496062992
20
0.6862992125984252
11
0.4467898818897638
21
0.6868985826771653
0
LINE
8
BLACK
6
CONTINUOUS
10
0.4467898818897638
20
0.6868985826771653
11
0.4442353937007874
21
0.6886054724409448
0
LINE
8
BLACK
6
CONTINUOUS
10
0.4442353937007874
20
0.6886054724409448
11
0.4425285039370079
21
0.6911599606299212
0
LINE
8
BLACK
6
CONTINUOUS
10
0.4425285039370079
20
0.6911599606299212
11
0.4419291338582677
21
0.6941732283464567
0
LINE
8
BLACK
6
CONTINUOUS
10
0.4419291338582677
20
0.6941732283464567
11
0.4419291338582677
21
0.7158267716535432
0
LINE
8
BLACK
6
CONTINUOUS
10
0.4419291338582677
20
0.7158267716535432
11
0.4425285039370079
21
0.7188400393700787
0
LINE
8
BLACK
6
CONTINUOUS
10
0.4425285039370079
20
0.7188400393700787
11
0.4442353937007874
21
0.7213945275590551
0
LINE
8
BLACK
6
CONTINUOUS
10
0.4442353937007874
20
0.7213945275590551
11
0.4467898818897638
21
0.7231014173228346
0
LINE
8
BLACK
6
CONTINUOUS
10
0.4467898818897638
20
0.7231014173228346
11
0.4498031496062992
21
0.7237007874015748
0
LINE
8
BLACK
6
CONTINUOUS
10
0.4498031496062992
20
0.7237007874015748
11
0.4655511811023622
21
0.7237007874015748
0
LINE
8
BLACK
6
CONTINUOUS
10
0.4655511811023622
20
0.7237007874015748
11
0.4685644488188976
21
0.7231014173228346
0
LINE
8
BLACK
6
CONTINUOUS
10
0.5374620866141732
20
0.7231014173228346
11
0.5400165748031496
21
0.7213945275590551
0
LINE
8
BLACK
6
CONTINUOUS
10
0.5400165748031496
20
0.7213945275590551
11
0.5417234645669291
21
0.7188400393700787
0
LINE
8
BLACK
6
CONTINUOUS
10
0.5417234645669291
20
0.7188400393700787
11
0.5423228346456693
21
0.7158267716535432
0
LINE
8
BLACK
6
CONTINUOUS
10
0.5423228346456693
20
0.7158267716535432
11
0.5423228346456693
21
0.6941732283464567
0
LINE
8
BLACK
6
CONTINUOUS
10
0.5423228346456693
20
0.6941732283464567
11
0.5417234645669291
21
0.6911599606299212
0
LINE
8
BLACK
6
CONTINUOUS
10
0.5417234645669291
20
0.6911599606299212
11
0.5400165748031496
21
0.6886054724409448
0
LINE
8
BLACK
6
CONTINUOUS
10
0.5400165748031496
20
0.6886054724409448
11
0.5374620866141732
21
0.6868985826771653
0
LINE
8
BLACK
6
CONTINUOUS
10
0.5374620866141732
20
0.6868985826771653
11
0.5344488188976377
21
0.6862992125984252
0
LINE
8
BLACK
6
CONTINUOUS
10
0.5344488188976377
20
0.6862992125984252
11
0.5187007874015748
21
0.6862992125984252
0
LINE
8
BLACK
6
CONTINUOUS
10
0.5187007874015748
20
0.6862992125984252
11
0.5156875196850393
21
0.6868985826771653
0
LINE
8
BLACK
6
CONTINUOUS
10
0.5156875196850393
20
0.6868985826771653
11
0.5131330314960629
21
0.6886054724409448
0
LINE
8
BLACK
6
CONTINUOUS
10
0.5131330314960629
20
0.6886054724409448
11
0.5114261417322834
21
0.6911599606299212
0
LINE
8
BLACK
6
CONTINUOUS
10
0.5114261417322834
20
0.6911599606299212
11
0.5108267716535433
21
0.6941732283464567
0
LINE
8
BLACK
6
CONTINUOUS
10
0.5108267716535433
20
0.6941732283464567
11
0.5108267716535433
21
0.7158267716535432
0
LINE
8
BLACK
6
CONTINUOUS
10
0.5108267716535433
20
0.7158267716535432
11
0.5114261417322834
21
0.7188400393700787
0
LINE
8
BLACK
6
CONTINUOUS
10
0.5114261417322834
20
0.7188400393700787
11
0.5131330314960629
21
0.7213945275590551
0
LINE
8
BLACK
6
CONTINUOUS
10
0.5131330314960629
20
0.7213945275590551
11
0.5156875196850393
21
0.7231014173228346
0
LINE
8
BLACK
6
CONTINUOUS
10
0.5156875196850393
20
0.7231014173228346
11
0.5187007874015748
21
0.7237007874015748
0
LINE
8
BLACK
6
CONTINUOUS
10
0.5187007874015748
20
0.7237007874015748
11
0.5344488188976377
21
0.7237007874015748
0
LINE
8
BLACK
6
CONTINUOUS
10
0.5344488188976377
20
0.7237007874015748
11
0.5374620866141732
21
0.7231014173228346
0
LINE
8
BLACK
6
CONTINUOUS
10
0.6024227165354331
20
0.7231014173228346
11
0.6049772047244094
21
0.7213945275590551
0
LINE
8
BLACK
6
CONTINUOUS
10
0.6049772047244094
20
0.7213945275590551
11
0.6066840944881889
21
0.7188400393700787
0
LINE
8
BLACK
6
CONTINUOUS
10
0.6066840944881889
20
0.7188400393700787
11
0.6072834645669292
21
0.7158267716535432
0
LINE
8
BLACK
6
CONTINUOUS
10
0.6072834645669292
20
0.7158267716535432
11
0.6072834645669292
21
0.6941732283464567
0
LINE
8
BLACK
6
CONTINUOUS
10
0.6072834645669292
20
0.6941732283464567
11
0.6066840944881889
21
0.6911599606299212
0
LINE
8
BLACK
6
CONTINUOUS
10
0.6066840944881889
20
0.6911599606299212
11
0.6049772047244094
21
0.6886054724409448
0
LINE
8
BLACK
6
CONTINUOUS
10
0.6049772047244094
20
0.6886054724409448
11
0.6024227165354331
21
0.6868985826771653
0
LINE
8
BLACK
6
CONTINUOUS
10
0.6024227165354331
20
0.6868985826771653
11
0.5994094488188976
21
0.6862992125984252
0
LINE
8
BLACK
6
CONTINUOUS
10
0.5994094488188976
20
0.6862992125984252
11
0.5836614173228346
21
0.6862992125984252
0
LINE
8
BLACK
6
CONTINUOUS
10
0.5836614173228346
20
0.6862992125984252
11
0.5806481496062992
21
0.6868985826771653
0
LINE
8
BLACK
6
CONTINUOUS
10
0.5806481496062992
20
0.6868985826771653
11
0.5780936614173228
21
0.6886054724409448
0
LINE
8
BLACK
6
CONTINUOUS
10
0.5780936614173228
20
0.6886054724409448
11
0.5763867716535432
21
0.6911599606299212
0
LINE
8
BLACK
6
CONTINUOUS
10
0.5763867716535432
20
0.6911599606299212
11
0.5757874015748031
21
0.6941732283464567
0
LINE
8
BLACK
6
CONTINUOUS
10
0.5757874015748031
20
0.6941732283464567
11
0.5757874015748031
21
0.7158267716535432
0
LINE
8
BLACK
6
CONTINUOUS
10
0.5757874015748031
20
0.7158267716535432
11
0.5763867716535432
21
0.7188400393700787
0
LINE
8
BLACK
6
CONTINUOUS
10
0.5763867716535432
20
0.7188400393700787
11
0.5780936614173228
21
0.7213945275590551
0
LINE
8
BLACK
6
CONTINUOUS
10
0.5780936614173228
20
0.7213945275590551
11
0.5806481496062992
21
0.7231014173228346
0
LINE
8
BLACK
6
CONTINUOUS
10
0.5806481496062992
20
0.7231014173228346
11
0.5836614173228346
21
0.7237007874015748
0
LINE
8
BLACK
6
CONTINUOUS
10
0.5836614173228346
20
0.7237007874015748
11
0.5994094488188976
21
0.7237007874015748
0
LINE
8
BLACK
6
CONTINUOUS
10
0.5994094488188976
20
0.7237007874015748
11
0.6024227165354331
21
0.7231014173228346
0
LINE
8
BLACK
6
CONTINUOUS
10
0.2325749212598425
20
0.7347866929133858
11
0.2344907874015748
21
0.7335065354330709
0
LINE
8
BLACK
6
CONTINUOUS
10
0.2344907874015748
20
0.7335065354330709
11
0.2357709448818898
21
0.7315906692913385
0
LINE
8
BLACK
6
CONTINUOUS
10
0.2357709448818898
20
0.7315906692913385
11
0.2362204724409449
21
0.7293307086614174
0
LINE
8
BLACK
6
CONTINUOUS
10
0.2362204724409449
20
0.7293307086614174
11
0.2362204724409449
21
0.71751968503937
0
LINE
8
BLACK
6
CONTINUOUS
10
0.2362204724409449
20
0.71751968503937
11
0.2357709448818898
21
0.7152597244094488
0
LINE
8
BLACK
6
CONTINUOUS
10
0.2357709448818898
20
0.7152597244094488
11
0.2344907874015748
21
0.7133438582677165
0
LINE
8
BLACK
6
CONTINUOUS
10
0.2344907874015748
20
0.7133438582677165
11
0.2325749212598425
21
0.7120637007874016
0
LINE
8
BLACK
6
CONTINUOUS
10
0.2325749212598425
20
0.7120637007874016
11
0.2303149606299213
21
0.7116141732283464
0
LINE
8
BLACK
6
CONTINUOUS
10
0.2303149606299213
20
0.7116141732283464
11
0.1751968503937008
21
0.7116141732283464
0
LINE
8
BLACK
6
CONTINUOUS
10
0.1751968503937008
20
0.7116141732283464
11
0.1729368897637795
21
0.7120637007874016
0
LINE
8
BLACK
6
CONTINUOUS
10
0.1729368897637795
20
0.7120637007874016
11
0.1710210236220472
21
0.7133438582677165
0
LINE
8
BLACK
6
CONTINUOUS
10
0.1710210236220472
20
0.7133438582677165
11
0.1697408661417323
21
0.7152597244094488
0
LINE
8
BLACK
6
CONTINUOUS
10
0.1697408661417323
20
0.7152597244094488
11
0.1692913385826772
21
0.71751968503937
0
LINE
8
BLACK
6
CONTINUOUS
10
0.1692913385826772
20
0.71751968503937
11
0.1692913385826772
21
0.7293307086614174
0
LINE
8
BLACK
6
CONTINUOUS
10
0.1692913385826772
20
0.7293307086614174
11
0.1697408661417323
21
0.7315906692913385
0
LINE
8
BLACK
6
CONTINUOUS
10
0.1697408661417323
20
0.7315906692913385
11
0.1710210236220472
21
0.7335065354330709
0
LINE
8
BLACK
6
CONTINUOUS
10
0.1710210236220472
20
0.7335065354330709
11
0.1729368897637795
21
0.7347866929133858
0
LINE
8
BLACK
6
CONTINUOUS
10
0.1729368897637795
20
0.7347866929133858
11
0.1751968503937008
21
0.735236220472441
0
LINE
8
BLACK
6
CONTINUOUS
10
0.1751968503937008
20
0.735236220472441
11
0.2303149606299213
21
0.735236220472441
0
LINE
8
BLACK
6
CONTINUOUS
10
0.2303149606299213
20
0.735236220472441
11
0.2325749212598425
21
0.7347866929133858
0
LINE
8
BLACK
6
CONTINUOUS
10
0.8113150787401575
20
0.7347866929133858
11
0.8132309448818897
21
0.7335065354330709
0
LINE
8
BLACK
6
CONTINUOUS
10
0.8132309448818897
20
0.7335065354330709
11
0.8145111023622047
21
0.7315906692913385
0
LINE
8
BLACK
6
CONTINUOUS
10
0.8145111023622047
20
0.7315906692913385
11
0.8149606299212598
21
0.7293307086614174
0
LINE
8
BLACK
6
CONTINUOUS
10
0.8149606299212598
20
0.7293307086614174
11
0.8149606299212598
21
0.71751968503937
0
LINE
8
BLACK
6
CONTINUOUS
10
0.8149606299212598
20
0.71751968503937
11
0.8145111023622047
21
0.7152597244094488
0
LINE
8
BLACK
6
CONTINUOUS
10
0.8145111023622047
20
0.7152597244094488
11
0.8132309448818897
21
0.7133438582677165
0
LINE
8
BLACK
6
CONTINUOUS
10
0.8132309448818897
20
0.7133438582677165
11
0.8113150787401575
21
0.7120637007874016
0
LINE
8
BLACK
6
CONTINUOUS
10
0.8113150787401575
20
0.7120637007874016
11
0.8090551181102362
21
0.7116141732283464
0
LINE
8
BLACK
6
CONTINUOUS
10
0.8090551181102362
20
0.7116141732283464
11
0.7539370078740157
21
0.7116141732283464
0
LINE
8
BLACK
6
CONTINUOUS
10
0.7539370078740157
20
0.7116141732283464
11
0.7516770472440945
21
0.7120637007874016
0
LINE
8
BLACK
6
CONTINUOUS
10
0.7516770472440945
20
0.7120637007874016
11
0.7497611811023622
21
0.7133438582677165
0
LINE
8
BLACK
6
CONTINUOUS
10
0.7497611811023622
20
0.7133438582677165
11
0.7484810236220473
21
0.7152597244094488
0
LINE
8
BLACK
6
CONTINUOUS
10
0.7484810236220473
20
0.7152597244094488
11
0.7480314960629921
21
0.71751968503937
0
LINE
8
BLACK
6
CONTINUOUS
10
0.7480314960629921
20
0.71751968503937
11
0.7480314960629921
21
0.7293307086614174
0
LINE
8
BLACK
6
CONTINUOUS
10
0.7480314960629921
20
0.7293307086614174
11
0.7484810236220473
21
0.7315906692913385
0
LINE
8
BLACK
6
CONTINUOUS
10
0.7484810236220473
20
0.7315906692913385
11
0.7497611811023622
21
0.7335065354330709
0
LINE
8
BLACK
6
CONTINUOUS
10
0.7497611811023622
20
0.7335065354330709
11
0.7516770472440945
21
0.7347866929133858
0
LINE
8
BLACK
6
CONTINUOUS
10
0.7516770472440945
20
0.7347866929133858
11
0.7539370078740157
21
0.735236220472441
0
LINE
8
BLACK
6
CONTINUOUS
10
0.7539370078740157
20
0.735236220472441
11
0.8090551181102362
21
0.735236220472441
0
LINE
8
BLACK
6
CONTINUOUS
10
0.8090551181102362
20
0.735236220472441
11
0.8113150787401575
21
0.7347866929133858
0
LINE
8
BLACK
6
CONTINUOUS
10
0.6738400393700787
20
0.7586683464566929
11
0.676394527559055
21
0.7569614566929134
0
LINE
8
BLACK
6
CONTINUOUS
10
0.676394527559055
20
0.7569614566929134
11
0.6781014173228346
21
0.754406968503937
0
LINE
8
BLACK
6
CONTINUOUS
10
0.6781014173228346
20
0.754406968503937
11
0.6787007874015748
21
0.7513937007874015
0
LINE
8
BLACK
6
CONTINUOUS
10
0.6787007874015748
20
0.7513937007874015
11
0.6787007874015748
21
0.7356456692913386
0
LINE
8
BLACK
6
CONTINUOUS
10
0.6787007874015748
20
0.7356456692913386
11
0.6781014173228346
21
0.7326324015748031
0
LINE
8
BLACK
6
CONTINUOUS
10
0.6781014173228346
20
0.7326324015748031
11
0.676394527559055
21
0.7300779133858267
0
LINE
8
BLACK
6
CONTINUOUS
10
0.676394527559055
20
0.7300779133858267
11
0.6738400393700787
21
0.7283710236220472
0
LINE
8
BLACK
6
CONTINUOUS
10
0.6738400393700787
20
0.7283710236220472
11
0.6708267716535433
21
0.7277716535433071
0
LINE
8
BLACK
6
CONTINUOUS
10
0.6708267716535433
20
0.7277716535433071
11
0.6491732283464566
21
0.7277716535433071
0
LINE
8
BLACK
6
CONTINUOUS
10
0.6491732283464566
20
0.7277716535433071
11
0.6461599606299212
21
0.7283710236220472
0
LINE
8
BLACK
6
CONTINUOUS
10
0.6461599606299212
20
0.7283710236220472
11
0.6436054724409449
21
0.7300779133858267
0
LINE
8
BLACK
6
CONTINUOUS
10
0.6436054724409449
20
0.7300779133858267
11
0.6418985826771654
21
0.7326324015748031
0
LINE
8
BLACK
6
CONTINUOUS
10
0.6418985826771654
20
0.7326324015748031
11
0.6412992125984252
21
0.7356456692913386
0
LINE
8
BLACK
6
CONTINUOUS
10
0.6412992125984252
20
0.7356456692913386
11
0.6412992125984252
21
0.7513937007874015
0
LINE
8
BLACK
6
CONTINUOUS
10
0.6412992125984252
20
0.7513937007874015
11
0.6418985826771654
21
0.754406968503937
0
LINE
8
BLACK
6
CONTINUOUS
10
0.6418985826771654
20
0.754406968503937
11
0.6436054724409449
21
0.7569614566929134
0
LINE
8
BLACK
6
CONTINUOUS
10
0.6436054724409449
20
0.7569614566929134
11
0.6461599606299212
21
0.7586683464566929
0
LINE
8
BLACK
6
CONTINUOUS
10
0.6461599606299212
20
0.7586683464566929
11
0.6491732283464566
21
0.759267716535433
0
LINE
8
BLACK
6
CONTINUOUS
10
0.6491732283464566
20
0.759267716535433
11
0.6708267716535433
21
0.759267716535433
0
LINE
8
BLACK
6
CONTINUOUS
10
0.6708267716535433
20
0.759267716535433
11
0.6738400393700787
21
0.7586683464566929
0
LINE
8
BLACK
6
CONTINUOUS
10
0.3388400393700787
20
0.7591486614173228
11
0.3413945275590551
21
0.7574417716535433
0
LINE
8
BLACK
6
CONTINUOUS
10
0.3413945275590551
20
0.7574417716535433
11
0.3431014173228346
21
0.7548872834645669
0
LINE
8
BLACK
6
CONTINUOUS
10
0.3431014173228346
20
0.7548872834645669
11
0.3437007874015748
21
0.7518740157480315
0
LINE
8
BLACK
6
CONTINUOUS
10
0.3437007874015748
20
0.7518740157480315
11
0.3437007874015748
21
0.7361259842519685
0
LINE
8
BLACK
6
CONTINUOUS
10
0.3437007874015748
20
0.7361259842519685
11
0.3431014173228346
21
0.7331127165354331
0
LINE
8
BLACK
6
CONTINUOUS
10
0.3431014173228346
20
0.7331127165354331
11
0.3413945275590551
21
0.7305582283464567
0
LINE
8
BLACK
6
CONTINUOUS
10
0.3413945275590551
20
0.7305582283464567
11
0.3388400393700787
21
0.7288513385826771
0
LINE
8
BLACK
6
CONTINUOUS
10
0.3388400393700787
20
0.7288513385826771
11
0.3358267716535433
21
0.728251968503937
0
LINE
8
BLACK
6
CONTINUOUS
10
0.3358267716535433
20
0.728251968503937
11
0.3141732283464567
21
0.728251968503937
0
LINE
8
BLACK
6
CONTINUOUS
10
0.3141732283464567
20
0.728251968503937
11
0.3111599606299212
21
0.7288513385826771
0
LINE
8
BLACK
6
CONTINUOUS
10
0.3111599606299212
20
0.7288513385826771
11
0.3086054724409449
21
0.7305582283464567
0
LINE
8
BLACK
6
CONTINUOUS
10
0.3086054724409449
20
0.7305582283464567
11
0.3068985826771654
21
0.7331127165354331
0
LINE
8
BLACK
6
CONTINUOUS
10
0.3068985826771654
20
0.7331127165354331
11
0.3062992125984252
21
0.7361259842519685
0
LINE
8
BLACK
6
CONTINUOUS
10
0.3062992125984252
20
0.7361259842519685
11
0.3062992125984252
21
0.7518740157480315
0
LINE
8
BLACK
6
CONTINUOUS
10
0.3062992125984252
20
0.7518740157480315
11
0.3068985826771654
21
0.7548872834645669
0
LINE
8
BLACK
6
CONTINUOUS
10
0.3068985826771654
20
0.7548872834645669
11
0.3086054724409449
21
0.7574417716535433
0
LINE
8
BLACK
6
CONTINUOUS
10
0.3086054724409449
20
0.7574417716535433
11
0.3111599606299212
21
0.7591486614173228
0
LINE
8
BLACK
6
CONTINUOUS
10
0.3111599606299212
20
0.7591486614173228
11
0.3141732283464567
21
0.759748031496063
0
LINE
8
BLACK
6
CONTINUOUS
10
0.3141732283464567
20
0.759748031496063
11
0.3358267716535433
21
0.759748031496063
0
LINE
8
BLACK
6
CONTINUOUS
10
0.3358267716535433
20
0.759748031496063
11
0.3388400393700787
21
0.7591486614173228
0
LINE
8
BLACK
6
CONTINUOUS
10
0.1238453149606299
20
0.8151956692913386
11
0.1270384645669291
21
0.8130620866141732
0
LINE
8
BLACK
6
CONTINUOUS
10
0.1270384645669291
20
0.8130620866141732
11
0.1291720472440945
21
0.809868937007874
0
LINE
8
BLACK
6
CONTINUOUS
10
0.1291720472440945
20
0.809868937007874
11
0.1299212598425197
21
0.8061023622047244
0
LINE
8
BLACK
6
CONTINUOUS
10
0.1299212598425197
20
0.8061023622047244
11
0.1299212598425197
21
0.7864173228346456
0
LINE
8
BLACK
6
CONTINUOUS
10
0.1299212598425197
20
0.7864173228346456
11
0.1291720472440945
21
0.782650748031496
0
LINE
8
BLACK
6
CONTINUOUS
10
0.1291720472440945
20
0.782650748031496
11
0.1270384645669291
21
0.7794575984251968
0
LINE
8
BLACK
6
CONTINUOUS
10
0.1270384645669291
20
0.7794575984251968
11
0.1238453149606299
21
0.7773240157480314
0
LINE
8
BLACK
6
CONTINUOUS
10
0.1238453149606299
20
0.7773240157480314
11
0.1200787401574803
21
0.7765748031496063
0
LINE
8
BLACK
6
CONTINUOUS
10
0.1200787401574803
20
0.7765748031496063
11
0.0334645669291339
21
0.7765748031496063
0
LINE
8
BLACK
6
CONTINUOUS
10
0.0334645669291339
20
0.7765748031496063
11
0.0296979921259843
21
0.7773240157480314
0
LINE
8
BLACK
6
CONTINUOUS
10
0.0296979921259843
20
0.7773240157480314
11
0.026504842519685
21
0.7794575984251968
0
LINE
8
BLACK
6
CONTINUOUS
10
0.026504842519685
20
0.7794575984251968
11
0.0243712598425197
21
0.782650748031496
0
LINE
8
BLACK
6
CONTINUOUS
10
0.0243712598425197
20
0.782650748031496
11
0.0236220472440945
21
0.7864173228346456
0
LINE
8
BLACK
6
CONTINUOUS
10
0.0236220472440945
20
0.7864173228346456
11
0.0236220472440945
21
0.8061023622047244
0
LINE
8
BLACK
6
CONTINUOUS
10
0.0236220472440945
20
0.8061023622047244
11
0.0243712598425197
21
0.809868937007874
0
LINE
8
BLACK
6
CONTINUOUS
10
0.0243712598425197
20
0.809868937007874
11
0.026504842519685
21
0.8130620866141732
0
LINE
8
BLACK
6
CONTINUOUS
10
0.026504842519685
20
0.8130620866141732
11
0.0296979921259843
21
0.8151956692913386
0
LINE
8
BLACK
6
CONTINUOUS
10
0.0296979921259843
20
0.8151956692913386
11
0.0334645669291339
21
0.8159448818897638
0
LINE
8
BLACK
6
CONTINUOUS
10
0.0334645669291339
20
0.8159448818897638
11
0.1200787401574803
21
0.8159448818897638
0
LINE
8
BLACK
6
CONTINUOUS
10
0.1200787401574803
20
0.8159448818897638
11
0.1238453149606299
21
0.8151956692913386
0
LINE
8
BLACK
6
CONTINUOUS
10
0.9545539763779527
20
0.8151956692913386
11
0.9577471259842519
21
0.8130620866141732
0
LINE
8
BLACK
6
CONTINUOUS
10
0.9577471259842519
20
0.8130620866141732
11
0.9598807086614173
21
0.809868937007874
0
LINE
8
BLACK
6
CONTINUOUS
10
0.9598807086614173
20
0.809868937007874
11
0.9606299212598425
21
0.8061023622047244
0
LINE
8
BLACK
6
CONTINUOUS
10
0.9606299212598425
20
0.8061023622047244
11
0.9606299212598425
21
0.7864173228346456
0
LINE
8
BLACK
6
CONTINUOUS
10
0.9606299212598425
20
0.7864173228346456
11
0.9598807086614173
21
0.782650748031496
0
LINE
8
BLACK
6
CONTINUOUS
10
0.9598807086614173
20
0.782650748031496
11
0.9577471259842519
21
0.7794575984251968
0
LINE
8
BLACK
6
CONTINUOUS
10
0.9577471259842519
20
0.7794575984251968
11
0.9545539763779527
21
0.7773240157480314
0
LINE
8
BLACK
6
CONTINUOUS
10
0.9545539763779527
20
0.7773240157480314
11
0.9507874015748031
21
0.7765748031496063
0
LINE
8
BLACK
6
CONTINUOUS
10
0.9507874015748031
20
0.7765748031496063
11
0.8641732283464567
21
0.7765748031496063
0
LINE
8
BLACK
6
CONTINUOUS
10
0.8641732283464567
20
0.7765748031496063
11
0.860406653543307
21
0.7773240157480314
0
LINE
8
BLACK
6
CONTINUOUS
10
0.860406653543307
20
0.7773240157480314
11
0.8572135039370079
21
0.7794575984251968
0
LINE
8
BLACK
6
CONTINUOUS
10
0.8572135039370079
20
0.7794575984251968
11
0.8550799212598424
21
0.782650748031496
0
LINE
8
BLACK
6
CONTINUOUS
10
0.8550799212598424
20
0.782650748031496
11
0.8543307086614172
21
0.7864173228346456
0
LINE
8
BLACK
6
CONTINUOUS
10
0.8543307086614172
20
0.7864173228346456
11
0.8543307086614172
21
0.8061023622047244
0
LINE
8
BLACK
6
CONTINUOUS
10
0.8543307086614172
20
0.8061023622047244
11
0.8550799212598424
21
0.809868937007874
0
LINE
8
BLACK
6
CONTINUOUS
10
0.8550799212598424
20
0.809868937007874
11
0.8572135039370079
21
0.8130620866141732
0
LINE
8
BLACK
6
CONTINUOUS
10
0.8572135039370079
20
0.8130620866141732
11
0.860406653543307
21
0.8151956692913386
0
LINE
8
BLACK
6
CONTINUOUS
10
0.860406653543307
20
0.8151956692913386
11
0.8641732283464567
21
0.8159448818897638
0
LINE
8
BLACK
6
CONTINUOUS
10
0.8641732283464567
20
0.8159448818897638
11
0.9507874015748031
21
0.8159448818897638
0
LINE
8
BLACK
6
CONTINUOUS
10
0.9507874015748031
20
0.8159448818897638
11
0.9545539763779527
21
0.8151956692913386
0
LINE
8
BLACK
6
CONTINUOUS
10
0.4036038188976378
20
0.8161014173228346
11
0.4061583070866142
21
0.8143945275590551
0
LINE
8
BLACK
6
CONTINUOUS
10
0.4061583070866142
20
0.8143945275590551
11
0.4078651968503937
21
0.8118400393700788
0
LINE
8
BLACK
6
CONTINUOUS
10
0.4078651968503937
20
0.8118400393700788
11
0.4084645669291339
21
0.8088267716535433
0
LINE
8
BLACK
6
CONTINUOUS
10
0.4084645669291339
20
0.8088267716535433
11
0.4084645669291339
21
0.7871732283464566
0
LINE
8
BLACK
6
CONTINUOUS
10
0.4084645669291339
20
0.7871732283464566
11
0.4078651968503937
21
0.7841599606299212
0
LINE
8
BLACK
6
CONTINUOUS
10
0.4078651968503937
20
0.7841599606299212
11
0.4061583070866142
21
0.7816054724409449
0
LINE
8
BLACK
6
CONTINUOUS
10
0.4061583070866142
20
0.7816054724409449
11
0.4036038188976378
21
0.7798985826771654
0
LINE
8
BLACK
6
CONTINUOUS
10
0.4036038188976378
20
0.7798985826771654
11
0.4005905511811024
21
0.7792992125984252
0
LINE
8
BLACK
6
CONTINUOUS
10
0.4005905511811024
20
0.7792992125984252
11
0.3848425196850394
21
0.7792992125984252
0
LINE
8
BLACK
6
CONTINUOUS
10
0.3848425196850394
20
0.7792992125984252
11
0.3818292519685039
21
0.7798985826771654
0
LINE
8
BLACK
6
CONTINUOUS
10
0.3818292519685039
20
0.7798985826771654
11
0.3792747637795276
21
0.7816054724409449
0
LINE
8
BLACK
6
CONTINUOUS
10
0.3792747637795276
20
0.7816054724409449
11
0.377567874015748
21
0.7841599606299212
0
LINE
8
BLACK
6
CONTINUOUS
10
0.377567874015748
20
0.7841599606299212
11
0.3769685039370079
21
0.7871732283464566
0
LINE
8
BLACK
6
CONTINUOUS
10
0.3769685039370079
20
0.7871732283464566
11
0.3769685039370079
21
0.8088267716535433
0
LINE
8
BLACK
6
CONTINUOUS
10
0.3769685039370079
20
0.8088267716535433
11
0.377567874015748
21
0.8118400393700788
0
LINE
8
BLACK
6
CONTINUOUS
10
0.377567874015748
20
0.8118400393700788
11
0.3792747637795276
21
0.8143945275590551
0
LINE
8
BLACK
6
CONTINUOUS
10
0.3792747637795276
20
0.8143945275590551
11
0.3818292519685039
21
0.8161014173228346
0
LINE
8
BLACK
6
CONTINUOUS
10
0.3818292519685039
20
0.8161014173228346
11
0.3848425196850394
21
0.8167007874015748
0
LINE
8
BLACK
6
CONTINUOUS
10
0.3848425196850394
20
0.8167007874015748
11
0.4005905511811024
21
0.8167007874015748
0
LINE
8
BLACK
6
CONTINUOUS
10
0.4005905511811024
20
0.8167007874015748
11
0.4036038188976378
21
0.8161014173228346
0
LINE
8
BLACK
6
CONTINUOUS
10
0.4685644488188976
20
0.8161014173228346
11
0.471118937007874
21
0.8143945275590551
0
LINE
8
BLACK
6
CONTINUOUS
10
0.471118937007874
20
0.8143945275590551
11
0.4728258267716535
21
0.8118400393700788
0
LINE
8
BLACK
6
CONTINUOUS
10
0.4728258267716535
20
0.8118400393700788
11
0.4734251968503937
21
0.8088267716535433
0
LINE
8
BLACK
6
CONTINUOUS
10
0.4734251968503937
20
0.8088267716535433
11
0.4734251968503937
21
0.7871732283464566
0
LINE
8
BLACK
6
CONTINUOUS
10
0.4734251968503937
20
0.7871732283464566
11
0.4728258267716535
21
0.7841599606299212
0
LINE
8
BLACK
6
CONTINUOUS
10
0.4728258267716535
20
0.7841599606299212
11
0.471118937007874
21
0.7816054724409449
0
LINE
8
BLACK
6
CONTINUOUS
10
0.471118937007874
20
0.7816054724409449
11
0.4685644488188976
21
0.7798985826771654
0
LINE
8
BLACK
6
CONTINUOUS
10
0.4685644488188976
20
0.7798985826771654
11
0.4655511811023622
21
0.7792992125984252
0
LINE
8
BLACK
6
CONTINUOUS
10
0.4655511811023622
20
0.7792992125984252
11
0.4498031496062992
21
0.7792992125984252
0
LINE
8
BLACK
6
CONTINUOUS
10
0.4498031496062992
20
0.7792992125984252
11
0.4467898818897638
21
0.7798985826771654
0
LINE
8
BLACK
6
CONTINUOUS
10
0.4467898818897638
20
0.7798985826771654
11
0.4442353937007874
21
0.7816054724409449
0
LINE
8
BLACK
6
CONTINUOUS
10
0.4442353937007874
20
0.7816054724409449
11
0.4425285039370079
21
0.7841599606299212
0
LINE
8
BLACK
6
CONTINUOUS
10
0.4425285039370079
20
0.7841599606299212
11
0.4419291338582677
21
0.7871732283464566
0
LINE
8
BLACK
6
CONTINUOUS
10
0.4419291338582677
20
0.7871732283464566
11
0.4419291338582677
21
0.8088267716535433
0
LINE
8
BLACK
6
CONTINUOUS
10
0.4419291338582677
20
0.8088267716535433
11
0.4425285039370079
21
0.8118400393700788
0
LINE
8
BLACK
6
CONTINUOUS
10
0.4425285039370079
20
0.8118400393700788
11
0.4442353937007874
21
0.8143945275590551
0
LINE
8
BLACK
6
CONTINUOUS
10
0.4442353937007874
20
0.8143945275590551
11
0.4467898818897638
21
0.8161014173228346
0
LINE
8
BLACK
6
CONTINUOUS
10
0.4467898818897638
20
0.8161014173228346
11
0.4498031496062992
21
0.8167007874015748
0
LINE
8
BLACK
6
CONTINUOUS
10
0.4498031496062992
20
0.8167007874015748
11
0.4655511811023622
21
0.8167007874015748
0
LINE
8
BLACK
6
CONTINUOUS
10
0.4655511811023622
20
0.8167007874015748
11
0.4685644488188976
21
0.8161014173228346
0
LINE
8
BLACK
6
CONTINUOUS
10
0.5374620866141732
20
0.8161014173228346
11
0.5400165748031496
21
0.8143945275590551
0
LINE
8
BLACK
6
CONTINUOUS
10
0.5400165748031496
20
0.8143945275590551
11
0.5417234645669291
21
0.8118400393700788
0
LINE
8
BLACK
6
CONTINUOUS
10
0.5417234645669291
20
0.8118400393700788
11
0.5423228346456693
21
0.8088267716535433
0
LINE
8
BLACK
6
CONTINUOUS
10
0.5423228346456693
20
0.8088267716535433
11
0.5423228346456693
21
0.7871732283464566
0
LINE
8
BLACK
6
CONTINUOUS
10
0.5423228346456693
20
0.7871732283464566
11
0.5417234645669291
21
0.7841599606299212
0
LINE
8
BLACK
6
CONTINUOUS
10
0.5417234645669291
20
0.7841599606299212
11
0.5400165748031496
21
0.7816054724409449
0
LINE
8
BLACK
6
CONTINUOUS
10
0.5400165748031496
20
0.7816054724409449
11
0.5374620866141732
21
0.7798985826771654
0
LINE
8
BLACK
6
CONTINUOUS
10
0.5374620866141732
20
0.7798985826771654
11
0.5344488188976377
21
0.7792992125984252
0
LINE
8
BLACK
6
CONTINUOUS
10
0.5344488188976377
20
0.7792992125984252
11
0.5187007874015748
21
0.7792992125984252
0
LINE
8
BLACK
6
CONTINUOUS
10
0.5187007874015748
20
0.7792992125984252
11
0.5156875196850393
21
0.7798985826771654
0
LINE
8
BLACK
6
CONTINUOUS
10
0.5156875196850393
20
0.7798985826771654
11
0.5131330314960629
21
0.7816054724409449
0
LINE
8
BLACK
6
CONTINUOUS
10
0.5131330314960629
20
0.7816054724409449
11
0.5114261417322834
21
0.7841599606299212
0
LINE
8
BLACK
6
CONTINUOUS
10
0.5114261417322834
20
0.7841599606299212
11
0.5108267716535433
21
0.7871732283464566
0
LINE
8
BLACK
6
CONTINUOUS
10
0.5108267716535433
20
0.7871732283464566
11
0.5108267716535433
21
0.8088267716535433
0
LINE
8
BLACK
6
CONTINUOUS
10
0.5108267716535433
20
0.8088267716535433
11
0.5114261417322834
21
0.8118400393700788
0
LINE
8
BLACK
6
CONTINUOUS
10
0.5114261417322834
20
0.8118400393700788
11
0.5131330314960629
21
0.8143945275590551
0
LINE
8
BLACK
6
CONTINUOUS
10
0.5131330314960629
20
0.8143945275590551
11
0.5156875196850393
21
0.8161014173228346
0
LINE
8
BLACK
6
CONTINUOUS
10
0.5156875196850393
20
0.8161014173228346
11
0.5187007874015748
21
0.8167007874015748
0
LINE
8
BLACK
6
CONTINUOUS
10
0.5187007874015748
20
0.8167007874015748
11
0.5344488188976377
21
0.8167007874015748
0
LINE
8
BLACK
6
CONTINUOUS
10
0.5344488188976377
20
0.8167007874015748
11
0.5374620866141732
21
0.8161014173228346
0
LINE
8
BLACK
6
CONTINUOUS
10
0.6024227165354331
20
0.8161014173228346
11
0.6049772047244094
21
0.8143945275590551
0
LINE
8
BLACK
6
CONTINUOUS
10
0.6049772047244094
20
0.8143945275590551
11
0.6066840944881889
21
0.8118400393700788
0
LINE
8
BLACK
6
CONTINUOUS
10
0.6066840944881889
20
0.8118400393700788
11
0.6072834645669292
21
0.8088267716535433
0
LINE
8
BLACK
6
CONTINUOUS
10
0.6072834645669292
20
0.8088267716535433
11
0.6072834645669292
21
0.7871732283464566
0
LINE
8
BLACK
6
CONTINUOUS
10
0.6072834645669292
20
0.7871732283464566
11
0.6066840944881889
21
0.7841599606299212
0
LINE
8
BLACK
6
CONTINUOUS
10
0.6066840944881889
20
0.7841599606299212
11
0.6049772047244094
21
0.7816054724409449
0
LINE
8
BLACK
6
CONTINUOUS
10
0.6049772047244094
20
0.7816054724409449
11
0.6024227165354331
21
0.7798985826771654
0
LINE
8
BLACK
6
CONTINUOUS
10
0.6024227165354331
20
0.7798985826771654
11
0.5994094488188976
21
0.7792992125984252
0
LINE
8
BLACK
6
CONTINUOUS
10
0.5994094488188976
20
0.7792992125984252
11
0.5836614173228346
21
0.7792992125984252
0
LINE
8
BLACK
6
CONTINUOUS
10
0.5836614173228346
20
0.7792992125984252
11
0.5806481496062992
21
0.7798985826771654
0
LINE
8
BLACK
6
CONTINUOUS
10
0.5806481496062992
20
0.7798985826771654
11
0.5780936614173228
21
0.7816054724409449
0
LINE
8
BLACK
6
CONTINUOUS
10
0.5780936614173228
20
0.7816054724409449
11
0.5763867716535432
21
0.7841599606299212
0
LINE
8
BLACK
6
CONTINUOUS
10
0.5763867716535432
20
0.7841599606299212
11
0.5757874015748031
21
0.7871732283464566
0
LINE
8
BLACK
6
CONTINUOUS
10
0.5757874015748031
20
0.7871732283464566
11
0.5757874015748031
21
0.8088267716535433
0
LINE
8
BLACK
6
CONTINUOUS
10
0.5757874015748031
20
0.8088267716535433
11
0.5763867716535432
21
0.8118400393700788
0
LINE
8
BLACK
6
CONTINUOUS
10
0.5763867716535432
20
0.8118400393700788
11
0.5780936614173228
21
0.8143945275590551
0
LINE
8
BLACK
6
CONTINUOUS
10
0.5780936614173228
20
0.8143945275590551
11
0.5806481496062992
21
0.8161014173228346
0
LINE
8
BLACK
6
CONTINUOUS
10
0.5806481496062992
20
0.8161014173228346
11
0.5836614173228346
21
0.8167007874015748
0
LINE
8
BLACK
6
CONTINUOUS
10
0.5836614173228346
20
0.8167007874015748
11
0.5994094488188976
21
0.8167007874015748
0
LINE
8
BLACK
6
CONTINUOUS
10
0.5994094488188976
20
0.8167007874015748
11
0.6024227165354331
21
0.8161014173228346
0
LINE
8
BLACK
6
CONTINUOUS
10
0.6738400393700787
20
0.8236289763779527
11
0.676394527559055
21
0.8219220866141732
0
LINE
8
BLACK
6
CONTINUOUS
10
0.676394527559055
20
0.8219220866141732
11
0.6781014173228346
21
0.8193675984251968
0
LINE
8
BLACK
6
CONTINUOUS
10
0.6781014173228346
20
0.8193675984251968
11
0.6787007874015748
21
0.8163543307086614
0
LINE
8
BLACK
6
CONTINUOUS
10
0.6787007874015748
20
0.8163543307086614
11
0.6787007874015748
21
0.8006062992125984
0
LINE
8
BLACK
6
CONTINUOUS
10
0.6787007874015748
20
0.8006062992125984
11
0.6781014173228346
21
0.797593031496063
0
LINE
8
BLACK
6
CONTINUOUS
10
0.6781014173228346
20
0.797593031496063
11
0.676394527559055
21
0.7950385433070866
0
LINE
8
BLACK
6
CONTINUOUS
10
0.676394527559055
20
0.7950385433070866
11
0.6738400393700787
21
0.793331653543307
0
LINE
8
BLACK
6
CONTINUOUS
10
0.6738400393700787
20
0.793331653543307
11
0.6708267716535433
21
0.7927322834645669
0
LINE
8
BLACK
6
CONTINUOUS
10
0.6708267716535433
20
0.7927322834645669
11
0.6491732283464566
21
0.7927322834645669
0
LINE
8
BLACK
6
CONTINUOUS
10
0.6491732283464566
20
0.7927322834645669
11
0.6461599606299212
21
0.793331653543307
0
LINE
8
BLACK
6
CONTINUOUS
10
0.6461599606299212
20
0.793331653543307
11
0.6436054724409449
21
0.7950385433070866
0
LINE
8
BLACK
6
CONTINUOUS
10
0.6436054724409449
20
0.7950385433070866
11
0.6418985826771654
21
0.797593031496063
0
LINE
8
BLACK
6
CONTINUOUS
10
0.6418985826771654
20
0.797593031496063
11
0.6412992125984252
21
0.8006062992125984
0
LINE
8
BLACK
6
CONTINUOUS
10
0.6412992125984252
20
0.8006062992125984
11
0.6412992125984252
21
0.8163543307086614
0
LINE
8
BLACK
6
CONTINUOUS
10
0.6412992125984252
20
0.8163543307086614
11
0.6418985826771654
21
0.8193675984251968
0
LINE
8
BLACK
6
CONTINUOUS
10
0.6418985826771654
20
0.8193675984251968
11
0.6436054724409449
21
0.8219220866141732
0
LINE
8
BLACK
6
CONTINUOUS
10
0.6436054724409449
20
0.8219220866141732
11
0.6461599606299212
21
0.8236289763779527
0
LINE
8
BLACK
6
CONTINUOUS
10
0.6461599606299212
20
0.8236289763779527
11
0.6491732283464566
21
0.8242283464566929
0
LINE
8
BLACK
6
CONTINUOUS
10
0.6491732283464566
20
0.8242283464566929
11
0.6708267716535433
21
0.8242283464566929
0
LINE
8
BLACK
6
CONTINUOUS
10
0.6708267716535433
20
0.8242283464566929
11
0.6738400393700787
21
0.8236289763779527
0
LINE
8
BLACK
6
CONTINUOUS
10
0.3388400393700787
20
0.8241092913385827
11
0.3413945275590551
21
0.8224024015748032
0
LINE
8
BLACK
6
CONTINUOUS
10
0.3413945275590551
20
0.8224024015748032
11
0.3431014173228346
21
0.8198479133858267
0
LINE
8
BLACK
6
CONTINUOUS
10
0.3431014173228346
20
0.8198479133858267
11
0.3437007874015748
21
0.8168346456692913
0
LINE
8
BLACK
6
CONTINUOUS
10
0.3437007874015748
20
0.8168346456692913
11
0.3437007874015748
21
0.8010866141732284
0
LINE
8
BLACK
6
CONTINUOUS
10
0.3437007874015748
20
0.8010866141732284
11
0.3431014173228346
21
0.7980733464566929
0
LINE
8
BLACK
6
CONTINUOUS
10
0.3431014173228346
20
0.7980733464566929
11
0.3413945275590551
21
0.7955188582677165
0
LINE
8
BLACK
6
CONTINUOUS
10
0.3413945275590551
20
0.7955188582677165
11
0.3388400393700787
21
0.793811968503937
0
LINE
8
BLACK
6
CONTINUOUS
10
0.3388400393700787
20
0.793811968503937
11
0.3358267716535433
21
0.7932125984251969
0
LINE
8
BLACK
6
CONTINUOUS
10
0.3358267716535433
20
0.7932125984251969
11
0.3141732283464567
21
0.7932125984251969
0
LINE
8
BLACK
6
CONTINUOUS
10
0.3141732283464567
20
0.7932125984251969
11
0.3111599606299212
21
0.793811968503937
0
LINE
8
BLACK
6
CONTINUOUS
10
0.3111599606299212
20
0.793811968503937
11
0.3086054724409449
21
0.7955188582677165
0
LINE
8
BLACK
6
CONTINUOUS
10
0.3086054724409449
20
0.7955188582677165
11
0.3068985826771654
21
0.7980733464566929
0
LINE
8
BLACK
6
CONTINUOUS
10
0.3068985826771654
20
0.7980733464566929
11
0.3062992125984252
21
0.8010866141732284
0
LINE
8
BLACK
6
CONTINUOUS
10
0.3062992125984252
20
0.8010866141732284
11
0.3062992125984252
21
0.8168346456692913
0
LINE
8
BLACK
6
CONTINUOUS
10
0.3062992125984252
20
0.8168346456692913
11
0.3068985826771654
21
0.8198479133858267
0
LINE
8
BLACK
6
CONTINUOUS
10
0.3068985826771654
20
0.8198479133858267
11
0.3086054724409449
21
0.8224024015748032
0
LINE
8
BLACK
6
CONTINUOUS
10
0.3086054724409449
20
0.8224024015748032
11
0.3111599606299212
21
0.8241092913385827
0
LINE
8
BLACK
6
CONTINUOUS
10
0.3111599606299212
20
0.8241092913385827
11
0.3141732283464567
21
0.8247086614173228
0
LINE
8
BLACK
6
CONTINUOUS
10
0.3141732283464567
20
0.8247086614173228
11
0.3358267716535433
21
0.8247086614173228
0
LINE
8
BLACK
6
CONTINUOUS
10
0.3358267716535433
20
0.8247086614173228
11
0.3388400393700787
21
0.8241092913385827
  0
ENDSEC
  0
EOF
