  0
SECTION
  2
HEADER
  9
$ANGBASE
  50
0.0
  9
$ANGDIR
  70
1
  9
$MEASUREMENT
  70
0
  0
ENDSEC
  0
SECTION
  2
TABLES
  0
TABLE
  2
LTYPE
  70
4
  0
LTYPE
  5
40F
  2
CONTINUOUS
  70
0
  3
Solid line
  72
65
  73
0
  40
0.0
  0
LTYPE
  5
410
  2
DASHDOT
 70
0
  3
Dash Dot ____ _ ____ _
 72
65
 73
4
 40
2.0
 49
1.25
 49
-0.25
 49
0.25
 49
-0.25
  0
LTYPE
  5
411
  2
DASHED
 70
0
  3
Dashed __ __ __ __ __
 72
65
 73
2
 40
0.75
 49
0.5
 49
-0.25
  0
LTYPE
  5
43B
  2
DOTTED
 70
0
  3
Dotted .  .  .  .
 72
65
 73
2
 40
0.2
 49
0.0
 49
-0.2
  0
ENDTAB
  0
TABLE
  2
STYLE
  70
4
  0
STYLE
  2
KICAD
  70
0
  40
0
  41
1
  42
1
  50
0
  71
0
  3
isocp.shx
  0
STYLE
  2
KICADB
  70
0
  40
0
  41
1
  42
1
  50
0
  71
0
  3
isocp.shx
  0
STYLE
  2
KICADI
  70
0
  40
0
  41
1
  42
1
  50
15
  71
0
  3
isocp.shx
  0
STYLE
  2
KICADBI
  70
0
  40
0
  41
1
  42
1
  50
15
  71
0
  3
isocp.shx
  0
ENDTAB
  0
TABLE
  2
LAYER
  70
1
  0
LAYER
  2
BLACK
  70
0
  62
7
  6
CONTINUOUS
  0
ENDTAB
  0
ENDSEC
  0
SECTION
  2
ENTITIES
0
LINE
8
BLACK
6
CONTINUOUS
10
0.644927
20
0.0613132
11
0.645503
21
0.0599213
0
LINE
8
BLACK
6
CONTINUOUS
10
0.645503
20
0.0599213
11
0.644927
21
0.0585293
0
LINE
8
BLACK
6
CONTINUOUS
10
0.644927
20
0.0585293
11
0.643535
21
0.0579528
0
LINE
8
BLACK
6
CONTINUOUS
10
0.643535
20
0.0579528
11
0.632465
21
0.0579528
0
LINE
8
BLACK
6
CONTINUOUS
10
0.632465
20
0.0579528
11
0.631073
21
0.0585293
0
LINE
8
BLACK
6
CONTINUOUS
10
0.631073
20
0.0585293
11
0.630497
21
0.0599213
0
LINE
8
BLACK
6
CONTINUOUS
10
0.630497
20
0.0599213
11
0.631073
21
0.0613132
0
LINE
8
BLACK
6
CONTINUOUS
10
0.631073
20
0.0613132
11
0.632465
21
0.0618898
0
LINE
8
BLACK
6
CONTINUOUS
10
0.632465
20
0.0618898
11
0.643535
21
0.0618898
0
LINE
8
BLACK
6
CONTINUOUS
10
0.643535
20
0.0618898
11
0.644927
21
0.0613132
0
LINE
8
BLACK
6
CONTINUOUS
10
0.237612
20
0.161431
11
0.238189
21
0.160039
0
LINE
8
BLACK
6
CONTINUOUS
10
0.238189
20
0.160039
11
0.237612
21
0.158647
0
LINE
8
BLACK
6
CONTINUOUS
10
0.237612
20
0.158647
11
0.23622
21
0.158071
0
LINE
8
BLACK
6
CONTINUOUS
10
0.23622
20
0.158071
11
0.199213
21
0.158071
0
LINE
8
BLACK
6
CONTINUOUS
10
0.199213
20
0.158071
11
0.199213
21
0.0891732
0
LINE
8
BLACK
6
CONTINUOUS
10
0.199213
20
0.0891732
11
0.198636
21
0.0877813
0
LINE
8
BLACK
6
CONTINUOUS
10
0.198636
20
0.0877813
11
0.197244
21
0.0872047
0
LINE
8
BLACK
6
CONTINUOUS
10
0.197244
20
0.0872047
11
0.140157
21
0.0872047
0
LINE
8
BLACK
6
CONTINUOUS
10
0.140157
20
0.0872047
11
0.138766
21
0.0877813
0
LINE
8
BLACK
6
CONTINUOUS
10
0.138766
20
0.0877813
11
0.138189
21
0.0891732
0
LINE
8
BLACK
6
CONTINUOUS
10
0.138189
20
0.0891732
11
0.138766
21
0.0905652
0
LINE
8
BLACK
6
CONTINUOUS
10
0.138766
20
0.0905652
11
0.140157
21
0.0911417
0
LINE
8
BLACK
6
CONTINUOUS
10
0.140157
20
0.0911417
11
0.195276
21
0.0911417
0
LINE
8
BLACK
6
CONTINUOUS
10
0.195276
20
0.0911417
11
0.195276
21
0.160039
0
LINE
8
BLACK
6
CONTINUOUS
10
0.195276
20
0.160039
11
0.195852
21
0.161431
0
LINE
8
BLACK
6
CONTINUOUS
10
0.195852
20
0.161431
11
0.197244
21
0.162008
0
LINE
8
BLACK
6
CONTINUOUS
10
0.197244
20
0.162008
11
0.23622
21
0.162008
0
LINE
8
BLACK
6
CONTINUOUS
10
0.23622
20
0.162008
11
0.237612
21
0.161431
0
LINE
8
BLACK
6
CONTINUOUS
10
0.7884
20
0.161431
11
0.788976
21
0.160039
0
LINE
8
BLACK
6
CONTINUOUS
10
0.788976
20
0.160039
11
0.788976
21
0.0911417
0
LINE
8
BLACK
6
CONTINUOUS
10
0.788976
20
0.0911417
11
0.844094
21
0.0911417
0
LINE
8
BLACK
6
CONTINUOUS
10
0.844094
20
0.0911417
11
0.845486
21
0.0905652
0
LINE
8
BLACK
6
CONTINUOUS
10
0.845486
20
0.0905652
11
0.846063
21
0.0891732
0
LINE
8
BLACK
6
CONTINUOUS
10
0.846063
20
0.0891732
11
0.845486
21
0.0877813
0
LINE
8
BLACK
6
CONTINUOUS
10
0.845486
20
0.0877813
11
0.844094
21
0.0872047
0
LINE
8
BLACK
6
CONTINUOUS
10
0.844094
20
0.0872047
11
0.787008
21
0.0872047
0
LINE
8
BLACK
6
CONTINUOUS
10
0.787008
20
0.0872047
11
0.785616
21
0.0877813
0
LINE
8
BLACK
6
CONTINUOUS
10
0.785616
20
0.0877813
11
0.785039
21
0.0891732
0
LINE
8
BLACK
6
CONTINUOUS
10
0.785039
20
0.0891732
11
0.785039
21
0.0891733
0
LINE
8
BLACK
6
CONTINUOUS
10
0.785039
20
0.0891733
11
0.785039
21
0.160039
0
LINE
8
BLACK
6
CONTINUOUS
10
0.785039
20
0.160039
11
0.785616
21
0.161431
0
LINE
8
BLACK
6
CONTINUOUS
10
0.785616
20
0.161431
11
0.787008
21
0.162008
0
LINE
8
BLACK
6
CONTINUOUS
10
0.787008
20
0.162008
11
0.7884
21
0.161431
0
LINE
8
BLACK
6
CONTINUOUS
10
0.226229
20
0.119252
11
0.227342
21
0.117566
0
LINE
8
BLACK
6
CONTINUOUS
10
0.227342
20
0.117566
11
0.227111
21
0.11556
0
LINE
8
BLACK
6
CONTINUOUS
10
0.227111
20
0.11556
11
0.225236
21
0.11181
0
LINE
8
BLACK
6
CONTINUOUS
10
0.225236
20
0.11181
11
0.22471
21
0.111101
0
LINE
8
BLACK
6
CONTINUOUS
10
0.22471
20
0.111101
11
0.224683
21
0.111043
0
LINE
8
BLACK
6
CONTINUOUS
10
0.224683
20
0.111043
11
0.222225
21
0.108585
0
LINE
8
BLACK
6
CONTINUOUS
10
0.222225
20
0.108585
11
0.249639
21
0.108585
0
LINE
8
BLACK
6
CONTINUOUS
10
0.249639
20
0.108585
11
0.249639
21
0.11688
0
LINE
8
BLACK
6
CONTINUOUS
10
0.249639
20
0.11688
11
0.249817
21
0.11789
0
LINE
8
BLACK
6
CONTINUOUS
10
0.249817
20
0.11789
11
0.251115
21
0.119438
0
LINE
8
BLACK
6
CONTINUOUS
10
0.251115
20
0.119438
11
0.253104
21
0.119788
0
LINE
8
BLACK
6
CONTINUOUS
10
0.253104
20
0.119788
11
0.254853
21
0.118778
0
LINE
8
BLACK
6
CONTINUOUS
10
0.254853
20
0.118778
11
0.255544
21
0.11688
0
LINE
8
BLACK
6
CONTINUOUS
10
0.255544
20
0.11688
11
0.255544
21
0.0943832
0
LINE
8
BLACK
6
CONTINUOUS
10
0.255544
20
0.0943832
11
0.255366
21
0.0933733
0
LINE
8
BLACK
6
CONTINUOUS
10
0.255366
20
0.0933733
11
0.254068
21
0.0918261
0
LINE
8
BLACK
6
CONTINUOUS
10
0.254068
20
0.0918261
11
0.252079
21
0.0914753
0
LINE
8
BLACK
6
CONTINUOUS
10
0.252079
20
0.0914753
11
0.250329
21
0.0924852
0
LINE
8
BLACK
6
CONTINUOUS
10
0.250329
20
0.0924852
11
0.249639
21
0.0943832
0
LINE
8
BLACK
6
CONTINUOUS
10
0.249639
20
0.0943832
11
0.249639
21
0.102679
0
LINE
8
BLACK
6
CONTINUOUS
10
0.249639
20
0.102679
11
0.213221
21
0.102679
0
LINE
8
BLACK
6
CONTINUOUS
10
0.213221
20
0.102679
11
0.212211
21
0.102857
0
LINE
8
BLACK
6
CONTINUOUS
10
0.212211
20
0.102857
11
0.212081
21
0.102966
0
LINE
8
BLACK
6
CONTINUOUS
10
0.212081
20
0.102966
11
0.211912
21
0.102985
0
LINE
8
BLACK
6
CONTINUOUS
10
0.211912
20
0.102985
11
0.211321
21
0.103605
0
LINE
8
BLACK
6
CONTINUOUS
10
0.211321
20
0.103605
11
0.210664
21
0.104155
0
LINE
8
BLACK
6
CONTINUOUS
10
0.210664
20
0.104155
11
0.210635
21
0.104323
0
LINE
8
BLACK
6
CONTINUOUS
10
0.210635
20
0.104323
11
0.210517
21
0.104445
0
LINE
8
BLACK
6
CONTINUOUS
10
0.210517
20
0.104445
11
0.210462
21
0.105301
0
LINE
8
BLACK
6
CONTINUOUS
10
0.210462
20
0.105301
11
0.210313
21
0.106145
0
LINE
8
BLACK
6
CONTINUOUS
10
0.210313
20
0.106145
11
0.210398
21
0.106292
0
LINE
8
BLACK
6
CONTINUOUS
10
0.210398
20
0.106292
11
0.210387
21
0.106461
0
LINE
8
BLACK
6
CONTINUOUS
10
0.210387
20
0.106461
11
0.210895
21
0.107152
0
LINE
8
BLACK
6
CONTINUOUS
10
0.210895
20
0.107152
11
0.211323
21
0.107894
0
LINE
8
BLACK
6
CONTINUOUS
10
0.211323
20
0.107894
11
0.211483
21
0.107952
0
LINE
8
BLACK
6
CONTINUOUS
10
0.211483
20
0.107952
11
0.211583
21
0.108089
0
LINE
8
BLACK
6
CONTINUOUS
10
0.211583
20
0.108089
11
0.216964
21
0.111676
0
LINE
8
BLACK
6
CONTINUOUS
10
0.216964
20
0.111676
11
0.220168
21
0.11488
0
LINE
8
BLACK
6
CONTINUOUS
10
0.220168
20
0.11488
11
0.221829
21
0.118201
0
LINE
8
BLACK
6
CONTINUOUS
10
0.221829
20
0.118201
11
0.22244
21
0.119025
0
LINE
8
BLACK
6
CONTINUOUS
10
0.22244
20
0.119025
11
0.224293
21
0.119828
0
LINE
8
BLACK
6
CONTINUOUS
10
0.224293
20
0.119828
11
0.226229
21
0.119252
0
LINE
8
BLACK
6
CONTINUOUS
10
0.644927
20
0.101471
11
0.645503
21
0.100079
0
LINE
8
BLACK
6
CONTINUOUS
10
0.645503
20
0.100079
11
0.644927
21
0.0986868
0
LINE
8
BLACK
6
CONTINUOUS
10
0.644927
20
0.0986868
11
0.643535
21
0.0981102
0
LINE
8
BLACK
6
CONTINUOUS
10
0.643535
20
0.0981102
11
0.632465
21
0.0981102
0
LINE
8
BLACK
6
CONTINUOUS
10
0.632465
20
0.0981102
11
0.631073
21
0.0986868
0
LINE
8
BLACK
6
CONTINUOUS
10
0.631073
20
0.0986868
11
0.630497
21
0.100079
0
LINE
8
BLACK
6
CONTINUOUS
10
0.630497
20
0.100079
11
0.631073
21
0.101471
0
LINE
8
BLACK
6
CONTINUOUS
10
0.631073
20
0.101471
11
0.632465
21
0.102047
0
LINE
8
BLACK
6
CONTINUOUS
10
0.632465
20
0.102047
11
0.643535
21
0.102047
0
LINE
8
BLACK
6
CONTINUOUS
10
0.643535
20
0.102047
11
0.644927
21
0.101471
0
LINE
8
BLACK
6
CONTINUOUS
10
0.554809
20
0.212888
11
0.555386
21
0.211496
0
LINE
8
BLACK
6
CONTINUOUS
10
0.555386
20
0.211496
11
0.555386
21
0.18
0
LINE
8
BLACK
6
CONTINUOUS
10
0.555386
20
0.18
11
0.555386
21
0.109134
0
LINE
8
BLACK
6
CONTINUOUS
10
0.555386
20
0.109134
11
0.554809
21
0.107742
0
LINE
8
BLACK
6
CONTINUOUS
10
0.554809
20
0.107742
11
0.553417
21
0.107165
0
LINE
8
BLACK
6
CONTINUOUS
10
0.553417
20
0.107165
11
0.552025
21
0.107742
0
LINE
8
BLACK
6
CONTINUOUS
10
0.552025
20
0.107742
11
0.551449
21
0.109134
0
LINE
8
BLACK
6
CONTINUOUS
10
0.551449
20
0.109134
11
0.551449
21
0.18
0
LINE
8
BLACK
6
CONTINUOUS
10
0.551449
20
0.18
11
0.551449
21
0.211496
0
LINE
8
BLACK
6
CONTINUOUS
10
0.551449
20
0.211496
11
0.552025
21
0.212888
0
LINE
8
BLACK
6
CONTINUOUS
10
0.552025
20
0.212888
11
0.553417
21
0.213465
0
LINE
8
BLACK
6
CONTINUOUS
10
0.553417
20
0.213465
11
0.554809
21
0.212888
0
LINE
8
BLACK
6
CONTINUOUS
10
0.644927
20
0.126746
11
0.645503
21
0.125354
0
LINE
8
BLACK
6
CONTINUOUS
10
0.645503
20
0.125354
11
0.644927
21
0.123962
0
LINE
8
BLACK
6
CONTINUOUS
10
0.644927
20
0.123962
11
0.643535
21
0.123386
0
LINE
8
BLACK
6
CONTINUOUS
10
0.643535
20
0.123386
11
0.632465
21
0.123386
0
LINE
8
BLACK
6
CONTINUOUS
10
0.632465
20
0.123386
11
0.631073
21
0.123962
0
LINE
8
BLACK
6
CONTINUOUS
10
0.631073
20
0.123962
11
0.630497
21
0.125354
0
LINE
8
BLACK
6
CONTINUOUS
10
0.630497
20
0.125354
11
0.631073
21
0.126746
0
LINE
8
BLACK
6
CONTINUOUS
10
0.631073
20
0.126746
11
0.632465
21
0.127323
0
LINE
8
BLACK
6
CONTINUOUS
10
0.632465
20
0.127323
11
0.643535
21
0.127323
0
LINE
8
BLACK
6
CONTINUOUS
10
0.643535
20
0.127323
11
0.644927
21
0.126746
0
LINE
8
BLACK
6
CONTINUOUS
10
0.313622
20
0.202244
11
0.315014
21
0.201668
0
LINE
8
BLACK
6
CONTINUOUS
10
0.315014
20
0.201668
11
0.315591
21
0.200276
0
LINE
8
BLACK
6
CONTINUOUS
10
0.315591
20
0.200276
11
0.315591
21
0.127441
0
LINE
8
BLACK
6
CONTINUOUS
10
0.315591
20
0.127441
11
0.315014
21
0.126049
0
LINE
8
BLACK
6
CONTINUOUS
10
0.315014
20
0.126049
11
0.313622
21
0.125472
0
LINE
8
BLACK
6
CONTINUOUS
10
0.313622
20
0.125472
11
0.31223
21
0.126049
0
LINE
8
BLACK
6
CONTINUOUS
10
0.31223
20
0.126049
11
0.311654
21
0.127441
0
LINE
8
BLACK
6
CONTINUOUS
10
0.311654
20
0.127441
11
0.311654
21
0.198307
0
LINE
8
BLACK
6
CONTINUOUS
10
0.311654
20
0.198307
11
0.268346
21
0.198307
0
LINE
8
BLACK
6
CONTINUOUS
10
0.268346
20
0.198307
11
0.268346
21
0.127441
0
LINE
8
BLACK
6
CONTINUOUS
10
0.268346
20
0.127441
11
0.26777
21
0.126049
0
LINE
8
BLACK
6
CONTINUOUS
10
0.26777
20
0.126049
11
0.266378
21
0.125472
0
LINE
8
BLACK
6
CONTINUOUS
10
0.266378
20
0.125472
11
0.264986
21
0.126049
0
LINE
8
BLACK
6
CONTINUOUS
10
0.264986
20
0.126049
11
0.264409
21
0.127441
0
LINE
8
BLACK
6
CONTINUOUS
10
0.264409
20
0.127441
11
0.264409
21
0.200276
0
LINE
8
BLACK
6
CONTINUOUS
10
0.264409
20
0.200276
11
0.264986
21
0.201668
0
LINE
8
BLACK
6
CONTINUOUS
10
0.264986
20
0.201668
11
0.266378
21
0.202244
0
LINE
8
BLACK
6
CONTINUOUS
10
0.266378
20
0.202244
11
0.313622
21
0.202244
0
LINE
8
BLACK
6
CONTINUOUS
10
0.336455
20
0.149677
11
0.337031
21
0.148286
0
LINE
8
BLACK
6
CONTINUOUS
10
0.337031
20
0.148286
11
0.337031
21
0.127714
0
LINE
8
BLACK
6
CONTINUOUS
10
0.337031
20
0.127714
11
0.336455
21
0.126323
0
LINE
8
BLACK
6
CONTINUOUS
10
0.336455
20
0.126323
11
0.335063
21
0.125746
0
LINE
8
BLACK
6
CONTINUOUS
10
0.335063
20
0.125746
11
0.333671
21
0.126323
0
LINE
8
BLACK
6
CONTINUOUS
10
0.333671
20
0.126323
11
0.333094
21
0.127714
0
LINE
8
BLACK
6
CONTINUOUS
10
0.333094
20
0.127714
11
0.333094
21
0.148286
0
LINE
8
BLACK
6
CONTINUOUS
10
0.333094
20
0.148286
11
0.333671
21
0.149677
0
LINE
8
BLACK
6
CONTINUOUS
10
0.333671
20
0.149677
11
0.335063
21
0.150254
0
LINE
8
BLACK
6
CONTINUOUS
10
0.335063
20
0.150254
11
0.336455
21
0.149677
0
LINE
8
BLACK
6
CONTINUOUS
10
0.394329
20
0.149677
11
0.394906
21
0.148286
0
LINE
8
BLACK
6
CONTINUOUS
10
0.394906
20
0.148286
11
0.394906
21
0.127714
0
LINE
8
BLACK
6
CONTINUOUS
10
0.394906
20
0.127714
11
0.394329
21
0.126323
0
LINE
8
BLACK
6
CONTINUOUS
10
0.394329
20
0.126323
11
0.392937
21
0.125746
0
LINE
8
BLACK
6
CONTINUOUS
10
0.392937
20
0.125746
11
0.391545
21
0.126323
0
LINE
8
BLACK
6
CONTINUOUS
10
0.391545
20
0.126323
11
0.390969
21
0.127714
0
LINE
8
BLACK
6
CONTINUOUS
10
0.390969
20
0.127714
11
0.390969
21
0.148286
0
LINE
8
BLACK
6
CONTINUOUS
10
0.390969
20
0.148286
11
0.391545
21
0.149677
0
LINE
8
BLACK
6
CONTINUOUS
10
0.391545
20
0.149677
11
0.392937
21
0.150254
0
LINE
8
BLACK
6
CONTINUOUS
10
0.392937
20
0.150254
11
0.394329
21
0.149677
0
LINE
8
BLACK
6
CONTINUOUS
10
0.254853
20
0.150649
11
0.255544
21
0.148751
0
LINE
8
BLACK
6
CONTINUOUS
10
0.255544
20
0.148751
11
0.255544
21
0.145002
0
LINE
8
BLACK
6
CONTINUOUS
10
0.255544
20
0.145002
11
0.255391
21
0.144133
0
LINE
8
BLACK
6
CONTINUOUS
10
0.255391
20
0.144133
11
0.255393
21
0.144068
0
LINE
8
BLACK
6
CONTINUOUS
10
0.255393
20
0.144068
11
0.253518
21
0.138444
0
LINE
8
BLACK
6
CONTINUOUS
10
0.253518
20
0.138444
11
0.253029
21
0.137542
0
LINE
8
BLACK
6
CONTINUOUS
10
0.253029
20
0.137542
11
0.252879
21
0.13745
0
LINE
8
BLACK
6
CONTINUOUS
10
0.252879
20
0.13745
11
0.252804
21
0.13729
0
LINE
8
BLACK
6
CONTINUOUS
10
0.252804
20
0.13729
11
0.249055
21
0.13354
0
LINE
8
BLACK
6
CONTINUOUS
10
0.249055
20
0.13354
11
0.248215
21
0.132952
0
LINE
8
BLACK
6
CONTINUOUS
10
0.248215
20
0.132952
11
0.248039
21
0.132937
0
LINE
8
BLACK
6
CONTINUOUS
10
0.248039
20
0.132937
11
0.247901
21
0.132827
0
LINE
8
BLACK
6
CONTINUOUS
10
0.247901
20
0.132827
11
0.242276
21
0.130952
0
LINE
8
BLACK
6
CONTINUOUS
10
0.242276
20
0.130952
11
0.241403
21
0.130823
0
LINE
8
BLACK
6
CONTINUOUS
10
0.241403
20
0.130823
11
0.241343
21
0.130801
0
LINE
8
BLACK
6
CONTINUOUS
10
0.241343
20
0.130801
11
0.213221
21
0.130801
0
LINE
8
BLACK
6
CONTINUOUS
10
0.213221
20
0.130801
11
0.212211
21
0.130979
0
LINE
8
BLACK
6
CONTINUOUS
10
0.212211
20
0.130979
11
0.210664
21
0.132277
0
LINE
8
BLACK
6
CONTINUOUS
10
0.210664
20
0.132277
11
0.210313
21
0.134266
0
LINE
8
BLACK
6
CONTINUOUS
10
0.210313
20
0.134266
11
0.211323
21
0.136015
0
LINE
8
BLACK
6
CONTINUOUS
10
0.211323
20
0.136015
11
0.213221
21
0.136706
0
LINE
8
BLACK
6
CONTINUOUS
10
0.213221
20
0.136706
11
0.240864
21
0.136706
0
LINE
8
BLACK
6
CONTINUOUS
10
0.240864
20
0.136706
11
0.245372
21
0.138209
0
LINE
8
BLACK
6
CONTINUOUS
10
0.245372
20
0.138209
11
0.248136
21
0.140973
0
LINE
8
BLACK
6
CONTINUOUS
10
0.248136
20
0.140973
11
0.249639
21
0.145481
0
LINE
8
BLACK
6
CONTINUOUS
10
0.249639
20
0.145481
11
0.249639
21
0.148751
0
LINE
8
BLACK
6
CONTINUOUS
10
0.249639
20
0.148751
11
0.249817
21
0.149761
0
LINE
8
BLACK
6
CONTINUOUS
10
0.249817
20
0.149761
11
0.251115
21
0.151309
0
LINE
8
BLACK
6
CONTINUOUS
10
0.251115
20
0.151309
11
0.253104
21
0.151659
0
LINE
8
BLACK
6
CONTINUOUS
10
0.253104
20
0.151659
11
0.254853
21
0.150649
0
LINE
8
BLACK
6
CONTINUOUS
10
0.0305258
20
0.37403
11
0.0311024
21
0.372638
0
LINE
8
BLACK
6
CONTINUOUS
10
0.0311024
20
0.372638
11
0.0311024
21
0.139173
0
LINE
8
BLACK
6
CONTINUOUS
10
0.0311024
20
0.139173
11
0.0305258
21
0.137781
0
LINE
8
BLACK
6
CONTINUOUS
10
0.0305258
20
0.137781
11
0.0291339
21
0.137205
0
LINE
8
BLACK
6
CONTINUOUS
10
0.0291339
20
0.137205
11
0.0277419
21
0.137781
0
LINE
8
BLACK
6
CONTINUOUS
10
0.0277419
20
0.137781
11
0.0271654
21
0.139173
0
LINE
8
BLACK
6
CONTINUOUS
10
0.0271654
20
0.139173
11
0.0271654
21
0.372638
0
LINE
8
BLACK
6
CONTINUOUS
10
0.0271654
20
0.372638
11
0.0277419
21
0.37403
0
LINE
8
BLACK
6
CONTINUOUS
10
0.0277419
20
0.37403
11
0.0291339
21
0.374606
0
LINE
8
BLACK
6
CONTINUOUS
10
0.0291339
20
0.374606
11
0.0305258
21
0.37403
0
LINE
8
BLACK
6
CONTINUOUS
10
0.95651
20
0.37403
11
0.957087
21
0.372638
0
LINE
8
BLACK
6
CONTINUOUS
10
0.957087
20
0.372638
11
0.957087
21
0.139173
0
LINE
8
BLACK
6
CONTINUOUS
10
0.957087
20
0.139173
11
0.95651
21
0.137781
0
LINE
8
BLACK
6
CONTINUOUS
10
0.95651
20
0.137781
11
0.955118
21
0.137205
0
LINE
8
BLACK
6
CONTINUOUS
10
0.955118
20
0.137205
11
0.953726
21
0.137781
0
LINE
8
BLACK
6
CONTINUOUS
10
0.953726
20
0.137781
11
0.95315
21
0.139173
0
LINE
8
BLACK
6
CONTINUOUS
10
0.95315
20
0.139173
11
0.95315
21
0.372638
0
LINE
8
BLACK
6
CONTINUOUS
10
0.95315
20
0.372638
11
0.953726
21
0.37403
0
LINE
8
BLACK
6
CONTINUOUS
10
0.953726
20
0.37403
11
0.955118
21
0.374606
0
LINE
8
BLACK
6
CONTINUOUS
10
0.955118
20
0.374606
11
0.95651
21
0.37403
0
LINE
8
BLACK
6
CONTINUOUS
10
0.431975
20
0.212888
11
0.432551
21
0.211496
0
LINE
8
BLACK
6
CONTINUOUS
10
0.432551
20
0.211496
11
0.432551
21
0.18
0
LINE
8
BLACK
6
CONTINUOUS
10
0.432551
20
0.18
11
0.432551
21
0.148504
0
LINE
8
BLACK
6
CONTINUOUS
10
0.432551
20
0.148504
11
0.431975
21
0.147112
0
LINE
8
BLACK
6
CONTINUOUS
10
0.431975
20
0.147112
11
0.430583
21
0.146535
0
LINE
8
BLACK
6
CONTINUOUS
10
0.430583
20
0.146535
11
0.429191
21
0.147112
0
LINE
8
BLACK
6
CONTINUOUS
10
0.429191
20
0.147112
11
0.428614
21
0.148504
0
LINE
8
BLACK
6
CONTINUOUS
10
0.428614
20
0.148504
11
0.428614
21
0.18
0
LINE
8
BLACK
6
CONTINUOUS
10
0.428614
20
0.18
11
0.428614
21
0.211496
0
LINE
8
BLACK
6
CONTINUOUS
10
0.428614
20
0.211496
11
0.429191
21
0.212888
0
LINE
8
BLACK
6
CONTINUOUS
10
0.429191
20
0.212888
11
0.430583
21
0.213465
0
LINE
8
BLACK
6
CONTINUOUS
10
0.430583
20
0.213465
11
0.431975
21
0.212888
0
LINE
8
BLACK
6
CONTINUOUS
10
0.644927
20
0.166904
11
0.645503
21
0.165512
0
LINE
8
BLACK
6
CONTINUOUS
10
0.645503
20
0.165512
11
0.644927
21
0.16412
0
LINE
8
BLACK
6
CONTINUOUS
10
0.644927
20
0.16412
11
0.643535
21
0.163543
0
LINE
8
BLACK
6
CONTINUOUS
10
0.643535
20
0.163543
11
0.632465
21
0.163543
0
LINE
8
BLACK
6
CONTINUOUS
10
0.632465
20
0.163543
11
0.631073
21
0.16412
0
LINE
8
BLACK
6
CONTINUOUS
10
0.631073
20
0.16412
11
0.630497
21
0.165512
0
LINE
8
BLACK
6
CONTINUOUS
10
0.630497
20
0.165512
11
0.631073
21
0.166904
0
LINE
8
BLACK
6
CONTINUOUS
10
0.631073
20
0.166904
11
0.632465
21
0.16748
0
LINE
8
BLACK
6
CONTINUOUS
10
0.632465
20
0.16748
11
0.643535
21
0.16748
0
LINE
8
BLACK
6
CONTINUOUS
10
0.643535
20
0.16748
11
0.644927
21
0.166904
0
LINE
8
BLACK
6
CONTINUOUS
10
0.343898
20
0.336024
11
0.34529
21
0.335447
0
LINE
8
BLACK
6
CONTINUOUS
10
0.34529
20
0.335447
11
0.345866
21
0.334055
0
LINE
8
BLACK
6
CONTINUOUS
10
0.345866
20
0.334055
11
0.345866
21
0.244094
0
LINE
8
BLACK
6
CONTINUOUS
10
0.345866
20
0.244094
11
0.34529
21
0.242703
0
LINE
8
BLACK
6
CONTINUOUS
10
0.34529
20
0.242703
11
0.343898
21
0.242126
0
LINE
8
BLACK
6
CONTINUOUS
10
0.343898
20
0.242126
11
0.342506
21
0.242703
0
LINE
8
BLACK
6
CONTINUOUS
10
0.342506
20
0.242703
11
0.341929
21
0.244094
0
LINE
8
BLACK
6
CONTINUOUS
10
0.341929
20
0.244094
11
0.341929
21
0.332087
0
LINE
8
BLACK
6
CONTINUOUS
10
0.341929
20
0.332087
11
0.287992
21
0.332087
0
LINE
8
BLACK
6
CONTINUOUS
10
0.287992
20
0.332087
11
0.287992
21
0.244094
0
LINE
8
BLACK
6
CONTINUOUS
10
0.287992
20
0.244094
11
0.287416
21
0.242703
0
LINE
8
BLACK
6
CONTINUOUS
10
0.287416
20
0.242703
11
0.286024
21
0.242126
0
LINE
8
BLACK
6
CONTINUOUS
10
0.286024
20
0.242126
11
0.284632
21
0.242703
0
LINE
8
BLACK
6
CONTINUOUS
10
0.284632
20
0.242703
11
0.284055
21
0.244094
0
LINE
8
BLACK
6
CONTINUOUS
10
0.284055
20
0.244094
11
0.284055
21
0.334055
0
LINE
8
BLACK
6
CONTINUOUS
10
0.284055
20
0.334055
11
0.284632
21
0.335447
0
LINE
8
BLACK
6
CONTINUOUS
10
0.284632
20
0.335447
11
0.286024
21
0.336024
0
LINE
8
BLACK
6
CONTINUOUS
10
0.286024
20
0.336024
11
0.343898
21
0.336024
0
LINE
8
BLACK
6
CONTINUOUS
10
0.614821
20
0.264252
11
0.615398
21
0.262861
0
LINE
8
BLACK
6
CONTINUOUS
10
0.615398
20
0.262861
11
0.615398
21
0.244179
0
LINE
8
BLACK
6
CONTINUOUS
10
0.615398
20
0.244179
11
0.614821
21
0.242787
0
LINE
8
BLACK
6
CONTINUOUS
10
0.614821
20
0.242787
11
0.613429
21
0.24221
0
LINE
8
BLACK
6
CONTINUOUS
10
0.613429
20
0.24221
11
0.612037
21
0.242787
0
LINE
8
BLACK
6
CONTINUOUS
10
0.612037
20
0.242787
11
0.611461
21
0.244179
0
LINE
8
BLACK
6
CONTINUOUS
10
0.611461
20
0.244179
11
0.611461
21
0.262861
0
LINE
8
BLACK
6
CONTINUOUS
10
0.611461
20
0.262861
11
0.612037
21
0.264252
0
LINE
8
BLACK
6
CONTINUOUS
10
0.612037
20
0.264252
11
0.613429
21
0.264829
0
LINE
8
BLACK
6
CONTINUOUS
10
0.613429
20
0.264829
11
0.614821
21
0.264252
0
LINE
8
BLACK
6
CONTINUOUS
10
0.655963
20
0.264252
11
0.656539
21
0.262861
0
LINE
8
BLACK
6
CONTINUOUS
10
0.656539
20
0.262861
11
0.656539
21
0.244179
0
LINE
8
BLACK
6
CONTINUOUS
10
0.656539
20
0.244179
11
0.655963
21
0.242787
0
LINE
8
BLACK
6
CONTINUOUS
10
0.655963
20
0.242787
11
0.654571
21
0.24221
0
LINE
8
BLACK
6
CONTINUOUS
10
0.654571
20
0.24221
11
0.653179
21
0.242787
0
LINE
8
BLACK
6
CONTINUOUS
10
0.653179
20
0.242787
11
0.652602
21
0.244179
0
LINE
8
BLACK
6
CONTINUOUS
10
0.652602
20
0.244179
11
0.652602
21
0.262861
0
LINE
8
BLACK
6
CONTINUOUS
10
0.652602
20
0.262861
11
0.653179
21
0.264252
0
LINE
8
BLACK
6
CONTINUOUS
10
0.653179
20
0.264252
11
0.654571
21
0.264829
0
LINE
8
BLACK
6
CONTINUOUS
10
0.654571
20
0.264829
11
0.655963
21
0.264252
0
LINE
8
BLACK
6
CONTINUOUS
10
0.680821
20
0.265213
11
0.681398
21
0.263821
0
LINE
8
BLACK
6
CONTINUOUS
10
0.681398
20
0.263821
11
0.681398
21
0.245139
0
LINE
8
BLACK
6
CONTINUOUS
10
0.681398
20
0.245139
11
0.680821
21
0.243748
0
LINE
8
BLACK
6
CONTINUOUS
10
0.680821
20
0.243748
11
0.679429
21
0.243171
0
LINE
8
BLACK
6
CONTINUOUS
10
0.679429
20
0.243171
11
0.678037
21
0.243748
0
LINE
8
BLACK
6
CONTINUOUS
10
0.678037
20
0.243748
11
0.677461
21
0.245139
0
LINE
8
BLACK
6
CONTINUOUS
10
0.677461
20
0.245139
11
0.677461
21
0.263821
0
LINE
8
BLACK
6
CONTINUOUS
10
0.677461
20
0.263821
11
0.678037
21
0.265213
0
LINE
8
BLACK
6
CONTINUOUS
10
0.678037
20
0.265213
11
0.679429
21
0.26579
0
LINE
8
BLACK
6
CONTINUOUS
10
0.679429
20
0.26579
11
0.680821
21
0.265213
0
LINE
8
BLACK
6
CONTINUOUS
10
0.721963
20
0.265213
11
0.722539
21
0.263821
0
LINE
8
BLACK
6
CONTINUOUS
10
0.722539
20
0.263821
11
0.722539
21
0.245139
0
LINE
8
BLACK
6
CONTINUOUS
10
0.722539
20
0.245139
11
0.721963
21
0.243748
0
LINE
8
BLACK
6
CONTINUOUS
10
0.721963
20
0.243748
11
0.720571
21
0.243171
0
LINE
8
BLACK
6
CONTINUOUS
10
0.720571
20
0.243171
11
0.719179
21
0.243748
0
LINE
8
BLACK
6
CONTINUOUS
10
0.719179
20
0.243748
11
0.718602
21
0.245139
0
LINE
8
BLACK
6
CONTINUOUS
10
0.718602
20
0.245139
11
0.718602
21
0.263821
0
LINE
8
BLACK
6
CONTINUOUS
10
0.718602
20
0.263821
11
0.719179
21
0.265213
0
LINE
8
BLACK
6
CONTINUOUS
10
0.719179
20
0.265213
11
0.720571
21
0.26579
0
LINE
8
BLACK
6
CONTINUOUS
10
0.720571
20
0.26579
11
0.721963
21
0.265213
0
LINE
8
BLACK
6
CONTINUOUS
10
0.366821
20
0.288733
11
0.367398
21
0.287341
0
LINE
8
BLACK
6
CONTINUOUS
10
0.367398
20
0.287341
11
0.367398
21
0.268659
0
LINE
8
BLACK
6
CONTINUOUS
10
0.367398
20
0.268659
11
0.366821
21
0.267267
0
LINE
8
BLACK
6
CONTINUOUS
10
0.366821
20
0.267267
11
0.365429
21
0.266691
0
LINE
8
BLACK
6
CONTINUOUS
10
0.365429
20
0.266691
11
0.364037
21
0.267267
0
LINE
8
BLACK
6
CONTINUOUS
10
0.364037
20
0.267267
11
0.363461
21
0.268659
0
LINE
8
BLACK
6
CONTINUOUS
10
0.363461
20
0.268659
11
0.363461
21
0.287341
0
LINE
8
BLACK
6
CONTINUOUS
10
0.363461
20
0.287341
11
0.364037
21
0.288733
0
LINE
8
BLACK
6
CONTINUOUS
10
0.364037
20
0.288733
11
0.365429
21
0.289309
0
LINE
8
BLACK
6
CONTINUOUS
10
0.365429
20
0.289309
11
0.366821
21
0.288733
0
LINE
8
BLACK
6
CONTINUOUS
10
0.407963
20
0.288733
11
0.408539
21
0.287341
0
LINE
8
BLACK
6
CONTINUOUS
10
0.408539
20
0.287341
11
0.408539
21
0.268659
0
LINE
8
BLACK
6
CONTINUOUS
10
0.408539
20
0.268659
11
0.407963
21
0.267267
0
LINE
8
BLACK
6
CONTINUOUS
10
0.407963
20
0.267267
11
0.406571
21
0.266691
0
LINE
8
BLACK
6
CONTINUOUS
10
0.406571
20
0.266691
11
0.405179
21
0.267267
0
LINE
8
BLACK
6
CONTINUOUS
10
0.405179
20
0.267267
11
0.404602
21
0.268659
0
LINE
8
BLACK
6
CONTINUOUS
10
0.404602
20
0.268659
11
0.404602
21
0.287341
0
LINE
8
BLACK
6
CONTINUOUS
10
0.404602
20
0.287341
11
0.405179
21
0.288733
0
LINE
8
BLACK
6
CONTINUOUS
10
0.405179
20
0.288733
11
0.406571
21
0.289309
0
LINE
8
BLACK
6
CONTINUOUS
10
0.406571
20
0.289309
11
0.407963
21
0.288733
0
LINE
8
BLACK
6
CONTINUOUS
10
0.197244
20
0.424606
11
0.198636
21
0.42403
0
LINE
8
BLACK
6
CONTINUOUS
10
0.198636
20
0.42403
11
0.199213
21
0.422638
0
LINE
8
BLACK
6
CONTINUOUS
10
0.199213
20
0.422638
11
0.199213
21
0.351772
0
LINE
8
BLACK
6
CONTINUOUS
10
0.199213
20
0.351772
11
0.198636
21
0.35038
0
LINE
8
BLACK
6
CONTINUOUS
10
0.198636
20
0.35038
11
0.197244
21
0.349803
0
LINE
8
BLACK
6
CONTINUOUS
10
0.197244
20
0.349803
11
0.195852
21
0.35038
0
LINE
8
BLACK
6
CONTINUOUS
10
0.195852
20
0.35038
11
0.195276
21
0.351772
0
LINE
8
BLACK
6
CONTINUOUS
10
0.195276
20
0.351772
11
0.195276
21
0.420669
0
LINE
8
BLACK
6
CONTINUOUS
10
0.195276
20
0.420669
11
0.140157
21
0.420669
0
LINE
8
BLACK
6
CONTINUOUS
10
0.140157
20
0.420669
11
0.138766
21
0.421246
0
LINE
8
BLACK
6
CONTINUOUS
10
0.138766
20
0.421246
11
0.138189
21
0.422638
0
LINE
8
BLACK
6
CONTINUOUS
10
0.138189
20
0.422638
11
0.138766
21
0.42403
0
LINE
8
BLACK
6
CONTINUOUS
10
0.138766
20
0.42403
11
0.140157
21
0.424606
0
LINE
8
BLACK
6
CONTINUOUS
10
0.140157
20
0.424606
11
0.197244
21
0.424606
0
LINE
8
BLACK
6
CONTINUOUS
10
0.845486
20
0.42403
11
0.846063
21
0.422638
0
LINE
8
BLACK
6
CONTINUOUS
10
0.846063
20
0.422638
11
0.845486
21
0.421246
0
LINE
8
BLACK
6
CONTINUOUS
10
0.845486
20
0.421246
11
0.844094
21
0.420669
0
LINE
8
BLACK
6
CONTINUOUS
10
0.844094
20
0.420669
11
0.788976
21
0.420669
0
LINE
8
BLACK
6
CONTINUOUS
10
0.788976
20
0.420669
11
0.788976
21
0.351772
0
LINE
8
BLACK
6
CONTINUOUS
10
0.788976
20
0.351772
11
0.7884
21
0.35038
0
LINE
8
BLACK
6
CONTINUOUS
10
0.7884
20
0.35038
11
0.787008
21
0.349803
0
LINE
8
BLACK
6
CONTINUOUS
10
0.787008
20
0.349803
11
0.748031
21
0.349803
0
LINE
8
BLACK
6
CONTINUOUS
10
0.748031
20
0.349803
11
0.74664
21
0.35038
0
LINE
8
BLACK
6
CONTINUOUS
10
0.74664
20
0.35038
11
0.746063
21
0.351772
0
LINE
8
BLACK
6
CONTINUOUS
10
0.746063
20
0.351772
11
0.74664
21
0.353164
0
LINE
8
BLACK
6
CONTINUOUS
10
0.74664
20
0.353164
11
0.748031
21
0.35374
0
LINE
8
BLACK
6
CONTINUOUS
10
0.748031
20
0.35374
11
0.785039
21
0.35374
0
LINE
8
BLACK
6
CONTINUOUS
10
0.785039
20
0.35374
11
0.785039
21
0.422638
0
LINE
8
BLACK
6
CONTINUOUS
10
0.785039
20
0.422638
11
0.785616
21
0.42403
0
LINE
8
BLACK
6
CONTINUOUS
10
0.785616
20
0.42403
11
0.787008
21
0.424606
0
LINE
8
BLACK
6
CONTINUOUS
10
0.787008
20
0.424606
11
0.844094
21
0.424606
0
LINE
8
BLACK
6
CONTINUOUS
10
0.844094
20
0.424606
11
0.845486
21
0.42403
0
LINE
8
BLACK
6
CONTINUOUS
10
0.615821
20
0.393213
11
0.616398
21
0.391821
0
LINE
8
BLACK
6
CONTINUOUS
10
0.616398
20
0.391821
11
0.616398
21
0.373139
0
LINE
8
BLACK
6
CONTINUOUS
10
0.616398
20
0.373139
11
0.615821
21
0.371748
0
LINE
8
BLACK
6
CONTINUOUS
10
0.615821
20
0.371748
11
0.614429
21
0.371171
0
LINE
8
BLACK
6
CONTINUOUS
10
0.614429
20
0.371171
11
0.613037
21
0.371748
0
LINE
8
BLACK
6
CONTINUOUS
10
0.613037
20
0.371748
11
0.612461
21
0.373139
0
LINE
8
BLACK
6
CONTINUOUS
10
0.612461
20
0.373139
11
0.612461
21
0.391821
0
LINE
8
BLACK
6
CONTINUOUS
10
0.612461
20
0.391821
11
0.613037
21
0.393213
0
LINE
8
BLACK
6
CONTINUOUS
10
0.613037
20
0.393213
11
0.614429
21
0.39379
0
LINE
8
BLACK
6
CONTINUOUS
10
0.614429
20
0.39379
11
0.615821
21
0.393213
0
LINE
8
BLACK
6
CONTINUOUS
10
0.656963
20
0.393213
11
0.657539
21
0.391821
0
LINE
8
BLACK
6
CONTINUOUS
10
0.657539
20
0.391821
11
0.657539
21
0.373139
0
LINE
8
BLACK
6
CONTINUOUS
10
0.657539
20
0.373139
11
0.656963
21
0.371748
0
LINE
8
BLACK
6
CONTINUOUS
10
0.656963
20
0.371748
11
0.655571
21
0.371171
0
LINE
8
BLACK
6
CONTINUOUS
10
0.655571
20
0.371171
11
0.654179
21
0.371748
0
LINE
8
BLACK
6
CONTINUOUS
10
0.654179
20
0.371748
11
0.653602
21
0.373139
0
LINE
8
BLACK
6
CONTINUOUS
10
0.653602
20
0.373139
11
0.653602
21
0.391821
0
LINE
8
BLACK
6
CONTINUOUS
10
0.653602
20
0.391821
11
0.654179
21
0.393213
0
LINE
8
BLACK
6
CONTINUOUS
10
0.654179
20
0.393213
11
0.655571
21
0.39379
0
LINE
8
BLACK
6
CONTINUOUS
10
0.655571
20
0.39379
11
0.656963
21
0.393213
0
LINE
8
BLACK
6
CONTINUOUS
10
0.680821
20
0.393213
11
0.681398
21
0.391821
0
LINE
8
BLACK
6
CONTINUOUS
10
0.681398
20
0.391821
11
0.681398
21
0.373139
0
LINE
8
BLACK
6
CONTINUOUS
10
0.681398
20
0.373139
11
0.680821
21
0.371748
0
LINE
8
BLACK
6
CONTINUOUS
10
0.680821
20
0.371748
11
0.679429
21
0.371171
0
LINE
8
BLACK
6
CONTINUOUS
10
0.679429
20
0.371171
11
0.678037
21
0.371748
0
LINE
8
BLACK
6
CONTINUOUS
10
0.678037
20
0.371748
11
0.677461
21
0.373139
0
LINE
8
BLACK
6
CONTINUOUS
10
0.677461
20
0.373139
11
0.677461
21
0.391821
0
LINE
8
BLACK
6
CONTINUOUS
10
0.677461
20
0.391821
11
0.678037
21
0.393213
0
LINE
8
BLACK
6
CONTINUOUS
10
0.678037
20
0.393213
11
0.679429
21
0.39379
0
LINE
8
BLACK
6
CONTINUOUS
10
0.679429
20
0.39379
11
0.680821
21
0.393213
0
LINE
8
BLACK
6
CONTINUOUS
10
0.721963
20
0.393213
11
0.722539
21
0.391821
0
LINE
8
BLACK
6
CONTINUOUS
10
0.722539
20
0.391821
11
0.722539
21
0.373139
0
LINE
8
BLACK
6
CONTINUOUS
10
0.722539
20
0.373139
11
0.721963
21
0.371748
0
LINE
8
BLACK
6
CONTINUOUS
10
0.721963
20
0.371748
11
0.720571
21
0.371171
0
LINE
8
BLACK
6
CONTINUOUS
10
0.720571
20
0.371171
11
0.719179
21
0.371748
0
LINE
8
BLACK
6
CONTINUOUS
10
0.719179
20
0.371748
11
0.718602
21
0.373139
0
LINE
8
BLACK
6
CONTINUOUS
10
0.718602
20
0.373139
11
0.718602
21
0.391821
0
LINE
8
BLACK
6
CONTINUOUS
10
0.718602
20
0.391821
11
0.719179
21
0.393213
0
LINE
8
BLACK
6
CONTINUOUS
10
0.719179
20
0.393213
11
0.720571
21
0.39379
0
LINE
8
BLACK
6
CONTINUOUS
10
0.720571
20
0.39379
11
0.721963
21
0.393213
0
LINE
8
BLACK
6
CONTINUOUS
10
0.320821
20
0.452733
11
0.321398
21
0.451341
0
LINE
8
BLACK
6
CONTINUOUS
10
0.321398
20
0.451341
11
0.321398
21
0.432659
0
LINE
8
BLACK
6
CONTINUOUS
10
0.321398
20
0.432659
11
0.320821
21
0.431267
0
LINE
8
BLACK
6
CONTINUOUS
10
0.320821
20
0.431267
11
0.319429
21
0.430691
0
LINE
8
BLACK
6
CONTINUOUS
10
0.319429
20
0.430691
11
0.318037
21
0.431267
0
LINE
8
BLACK
6
CONTINUOUS
10
0.318037
20
0.431267
11
0.317461
21
0.432659
0
LINE
8
BLACK
6
CONTINUOUS
10
0.317461
20
0.432659
11
0.317461
21
0.451341
0
LINE
8
BLACK
6
CONTINUOUS
10
0.317461
20
0.451341
11
0.318037
21
0.452733
0
LINE
8
BLACK
6
CONTINUOUS
10
0.318037
20
0.452733
11
0.319429
21
0.453309
0
LINE
8
BLACK
6
CONTINUOUS
10
0.319429
20
0.453309
11
0.320821
21
0.452733
0
LINE
8
BLACK
6
CONTINUOUS
10
0.361963
20
0.452733
11
0.362539
21
0.451341
0
LINE
8
BLACK
6
CONTINUOUS
10
0.362539
20
0.451341
11
0.362539
21
0.432659
0
LINE
8
BLACK
6
CONTINUOUS
10
0.362539
20
0.432659
11
0.361963
21
0.431267
0
LINE
8
BLACK
6
CONTINUOUS
10
0.361963
20
0.431267
11
0.360571
21
0.430691
0
LINE
8
BLACK
6
CONTINUOUS
10
0.360571
20
0.430691
11
0.359179
21
0.431267
0
LINE
8
BLACK
6
CONTINUOUS
10
0.359179
20
0.431267
11
0.358602
21
0.432659
0
LINE
8
BLACK
6
CONTINUOUS
10
0.358602
20
0.432659
11
0.358602
21
0.451341
0
LINE
8
BLACK
6
CONTINUOUS
10
0.358602
20
0.451341
11
0.359179
21
0.452733
0
LINE
8
BLACK
6
CONTINUOUS
10
0.359179
20
0.452733
11
0.360571
21
0.453309
0
LINE
8
BLACK
6
CONTINUOUS
10
0.360571
20
0.453309
11
0.361963
21
0.452733
0
LINE
8
BLACK
6
CONTINUOUS
10
0.390171
20
0.507392
11
0.390748
21
0.506
0
LINE
8
BLACK
6
CONTINUOUS
10
0.390748
20
0.506
11
0.390748
21
0.446945
0
LINE
8
BLACK
6
CONTINUOUS
10
0.390748
20
0.446945
11
0.390171
21
0.445553
0
LINE
8
BLACK
6
CONTINUOUS
10
0.390171
20
0.445553
11
0.38878
21
0.444976
0
LINE
8
BLACK
6
CONTINUOUS
10
0.38878
20
0.444976
11
0.387388
21
0.445553
0
LINE
8
BLACK
6
CONTINUOUS
10
0.387388
20
0.445553
11
0.386811
21
0.446945
0
LINE
8
BLACK
6
CONTINUOUS
10
0.386811
20
0.446945
11
0.386811
21
0.506
0
LINE
8
BLACK
6
CONTINUOUS
10
0.386811
20
0.506
11
0.387388
21
0.507392
0
LINE
8
BLACK
6
CONTINUOUS
10
0.387388
20
0.507392
11
0.38878
21
0.507969
0
LINE
8
BLACK
6
CONTINUOUS
10
0.38878
20
0.507969
11
0.390171
21
0.507392
0
LINE
8
BLACK
6
CONTINUOUS
10
0.596864
20
0.566447
11
0.597441
21
0.565055
0
LINE
8
BLACK
6
CONTINUOUS
10
0.597441
20
0.565055
11
0.597441
21
0.446945
0
LINE
8
BLACK
6
CONTINUOUS
10
0.597441
20
0.446945
11
0.596864
21
0.445553
0
LINE
8
BLACK
6
CONTINUOUS
10
0.596864
20
0.445553
11
0.595472
21
0.444976
0
LINE
8
BLACK
6
CONTINUOUS
10
0.595472
20
0.444976
11
0.594081
21
0.445553
0
LINE
8
BLACK
6
CONTINUOUS
10
0.594081
20
0.445553
11
0.593504
21
0.446945
0
LINE
8
BLACK
6
CONTINUOUS
10
0.593504
20
0.446945
11
0.593504
21
0.565055
0
LINE
8
BLACK
6
CONTINUOUS
10
0.593504
20
0.565055
11
0.594081
21
0.566447
0
LINE
8
BLACK
6
CONTINUOUS
10
0.594081
20
0.566447
11
0.595472
21
0.567024
0
LINE
8
BLACK
6
CONTINUOUS
10
0.595472
20
0.567024
11
0.596864
21
0.566447
0
LINE
8
BLACK
6
CONTINUOUS
10
0.237612
20
0.555132
11
0.238189
21
0.55374
0
LINE
8
BLACK
6
CONTINUOUS
10
0.238189
20
0.55374
11
0.237612
21
0.552348
0
LINE
8
BLACK
6
CONTINUOUS
10
0.237612
20
0.552348
11
0.23622
21
0.551772
0
LINE
8
BLACK
6
CONTINUOUS
10
0.23622
20
0.551772
11
0.199213
21
0.551772
0
LINE
8
BLACK
6
CONTINUOUS
10
0.199213
20
0.551772
11
0.199213
21
0.482874
0
LINE
8
BLACK
6
CONTINUOUS
10
0.199213
20
0.482874
11
0.198636
21
0.481482
0
LINE
8
BLACK
6
CONTINUOUS
10
0.198636
20
0.481482
11
0.197244
21
0.480906
0
LINE
8
BLACK
6
CONTINUOUS
10
0.197244
20
0.480906
11
0.140157
21
0.480906
0
LINE
8
BLACK
6
CONTINUOUS
10
0.140157
20
0.480906
11
0.138766
21
0.481482
0
LINE
8
BLACK
6
CONTINUOUS
10
0.138766
20
0.481482
11
0.138189
21
0.482874
0
LINE
8
BLACK
6
CONTINUOUS
10
0.138189
20
0.482874
11
0.138766
21
0.484266
0
LINE
8
BLACK
6
CONTINUOUS
10
0.138766
20
0.484266
11
0.140157
21
0.484843
0
LINE
8
BLACK
6
CONTINUOUS
10
0.140157
20
0.484843
11
0.195276
21
0.484843
0
LINE
8
BLACK
6
CONTINUOUS
10
0.195276
20
0.484843
11
0.195276
21
0.55374
0
LINE
8
BLACK
6
CONTINUOUS
10
0.195276
20
0.55374
11
0.195852
21
0.555132
0
LINE
8
BLACK
6
CONTINUOUS
10
0.195852
20
0.555132
11
0.197244
21
0.555709
0
LINE
8
BLACK
6
CONTINUOUS
10
0.197244
20
0.555709
11
0.23622
21
0.555709
0
LINE
8
BLACK
6
CONTINUOUS
10
0.23622
20
0.555709
11
0.237612
21
0.555132
0
LINE
8
BLACK
6
CONTINUOUS
10
0.7884
20
0.555132
11
0.788976
21
0.55374
0
LINE
8
BLACK
6
CONTINUOUS
10
0.788976
20
0.55374
11
0.788976
21
0.484843
0
LINE
8
BLACK
6
CONTINUOUS
10
0.788976
20
0.484843
11
0.844094
21
0.484843
0
LINE
8
BLACK
6
CONTINUOUS
10
0.844094
20
0.484843
11
0.845486
21
0.484266
0
LINE
8
BLACK
6
CONTINUOUS
10
0.845486
20
0.484266
11
0.846063
21
0.482874
0
LINE
8
BLACK
6
CONTINUOUS
10
0.846063
20
0.482874
11
0.845486
21
0.481482
0
LINE
8
BLACK
6
CONTINUOUS
10
0.845486
20
0.481482
11
0.844094
21
0.480906
0
LINE
8
BLACK
6
CONTINUOUS
10
0.844094
20
0.480906
11
0.787008
21
0.480906
0
LINE
8
BLACK
6
CONTINUOUS
10
0.787008
20
0.480906
11
0.785616
21
0.481482
0
LINE
8
BLACK
6
CONTINUOUS
10
0.785616
20
0.481482
11
0.785039
21
0.482874
0
LINE
8
BLACK
6
CONTINUOUS
10
0.785039
20
0.482874
11
0.785039
21
0.482874
0
LINE
8
BLACK
6
CONTINUOUS
10
0.785039
20
0.482874
11
0.785039
21
0.55374
0
LINE
8
BLACK
6
CONTINUOUS
10
0.785039
20
0.55374
11
0.785616
21
0.555132
0
LINE
8
BLACK
6
CONTINUOUS
10
0.785616
20
0.555132
11
0.787008
21
0.555709
0
LINE
8
BLACK
6
CONTINUOUS
10
0.787008
20
0.555709
11
0.7884
21
0.555132
0
LINE
8
BLACK
6
CONTINUOUS
10
0.626313
20
0.531415
11
0.62689
21
0.530023
0
LINE
8
BLACK
6
CONTINUOUS
10
0.62689
20
0.530023
11
0.62689
21
0.518954
0
LINE
8
BLACK
6
CONTINUOUS
10
0.62689
20
0.518954
11
0.626313
21
0.517562
0
LINE
8
BLACK
6
CONTINUOUS
10
0.626313
20
0.517562
11
0.624921
21
0.516985
0
LINE
8
BLACK
6
CONTINUOUS
10
0.624921
20
0.516985
11
0.623529
21
0.517562
0
LINE
8
BLACK
6
CONTINUOUS
10
0.623529
20
0.517562
11
0.622953
21
0.518954
0
LINE
8
BLACK
6
CONTINUOUS
10
0.622953
20
0.518954
11
0.622953
21
0.530023
0
LINE
8
BLACK
6
CONTINUOUS
10
0.622953
20
0.530023
11
0.623529
21
0.531415
0
LINE
8
BLACK
6
CONTINUOUS
10
0.623529
20
0.531415
11
0.624921
21
0.531991
0
LINE
8
BLACK
6
CONTINUOUS
10
0.624921
20
0.531991
11
0.626313
21
0.531415
0
LINE
8
BLACK
6
CONTINUOUS
10
0.666471
20
0.531415
11
0.667047
21
0.530023
0
LINE
8
BLACK
6
CONTINUOUS
10
0.667047
20
0.530023
11
0.667047
21
0.518954
0
LINE
8
BLACK
6
CONTINUOUS
10
0.667047
20
0.518954
11
0.666471
21
0.517562
0
LINE
8
BLACK
6
CONTINUOUS
10
0.666471
20
0.517562
11
0.665079
21
0.516985
0
LINE
8
BLACK
6
CONTINUOUS
10
0.665079
20
0.516985
11
0.663687
21
0.517562
0
LINE
8
BLACK
6
CONTINUOUS
10
0.663687
20
0.517562
11
0.66311
21
0.518954
0
LINE
8
BLACK
6
CONTINUOUS
10
0.66311
20
0.518954
11
0.66311
21
0.530023
0
LINE
8
BLACK
6
CONTINUOUS
10
0.66311
20
0.530023
11
0.663687
21
0.531415
0
LINE
8
BLACK
6
CONTINUOUS
10
0.663687
20
0.531415
11
0.665079
21
0.531991
0
LINE
8
BLACK
6
CONTINUOUS
10
0.665079
20
0.531991
11
0.666471
21
0.531415
0
LINE
8
BLACK
6
CONTINUOUS
10
0.325733
20
0.522821
11
0.326309
21
0.521429
0
LINE
8
BLACK
6
CONTINUOUS
10
0.326309
20
0.521429
11
0.325733
21
0.520037
0
LINE
8
BLACK
6
CONTINUOUS
10
0.325733
20
0.520037
11
0.324341
21
0.519461
0
LINE
8
BLACK
6
CONTINUOUS
10
0.324341
20
0.519461
11
0.305659
21
0.519461
0
LINE
8
BLACK
6
CONTINUOUS
10
0.305659
20
0.519461
11
0.304267
21
0.520037
0
LINE
8
BLACK
6
CONTINUOUS
10
0.304267
20
0.520037
11
0.303691
21
0.521429
0
LINE
8
BLACK
6
CONTINUOUS
10
0.303691
20
0.521429
11
0.304267
21
0.522821
0
LINE
8
BLACK
6
CONTINUOUS
10
0.304267
20
0.522821
11
0.305659
21
0.523398
0
LINE
8
BLACK
6
CONTINUOUS
10
0.305659
20
0.523398
11
0.324341
21
0.523398
0
LINE
8
BLACK
6
CONTINUOUS
10
0.324341
20
0.523398
11
0.325733
21
0.522821
0
LINE
8
BLACK
6
CONTINUOUS
10
0.0305258
20
0.767731
11
0.0311024
21
0.766339
0
LINE
8
BLACK
6
CONTINUOUS
10
0.0311024
20
0.766339
11
0.0311024
21
0.532874
0
LINE
8
BLACK
6
CONTINUOUS
10
0.0311024
20
0.532874
11
0.0305258
21
0.531482
0
LINE
8
BLACK
6
CONTINUOUS
10
0.0305258
20
0.531482
11
0.0291339
21
0.530906
0
LINE
8
BLACK
6
CONTINUOUS
10
0.0291339
20
0.530906
11
0.0277419
21
0.531482
0
LINE
8
BLACK
6
CONTINUOUS
10
0.0277419
20
0.531482
11
0.0271654
21
0.532874
0
LINE
8
BLACK
6
CONTINUOUS
10
0.0271654
20
0.532874
11
0.0271654
21
0.766339
0
LINE
8
BLACK
6
CONTINUOUS
10
0.0271654
20
0.766339
11
0.0277419
21
0.767731
0
LINE
8
BLACK
6
CONTINUOUS
10
0.0277419
20
0.767731
11
0.0291339
21
0.768307
0
LINE
8
BLACK
6
CONTINUOUS
10
0.0291339
20
0.768307
11
0.0305258
21
0.767731
0
LINE
8
BLACK
6
CONTINUOUS
10
0.95651
20
0.767731
11
0.957087
21
0.766339
0
LINE
8
BLACK
6
CONTINUOUS
10
0.957087
20
0.766339
11
0.957087
21
0.532874
0
LINE
8
BLACK
6
CONTINUOUS
10
0.957087
20
0.532874
11
0.95651
21
0.531482
0
LINE
8
BLACK
6
CONTINUOUS
10
0.95651
20
0.531482
11
0.955118
21
0.530906
0
LINE
8
BLACK
6
CONTINUOUS
10
0.955118
20
0.530906
11
0.953726
21
0.531482
0
LINE
8
BLACK
6
CONTINUOUS
10
0.953726
20
0.531482
11
0.95315
21
0.532874
0
LINE
8
BLACK
6
CONTINUOUS
10
0.95315
20
0.532874
11
0.95315
21
0.766339
0
LINE
8
BLACK
6
CONTINUOUS
10
0.95315
20
0.766339
11
0.953726
21
0.767731
0
LINE
8
BLACK
6
CONTINUOUS
10
0.953726
20
0.767731
11
0.955118
21
0.768307
0
LINE
8
BLACK
6
CONTINUOUS
10
0.955118
20
0.768307
11
0.95651
21
0.767731
0
LINE
8
BLACK
6
CONTINUOUS
10
0.325733
20
0.563963
11
0.326309
21
0.562571
0
LINE
8
BLACK
6
CONTINUOUS
10
0.326309
20
0.562571
11
0.325733
21
0.561179
0
LINE
8
BLACK
6
CONTINUOUS
10
0.325733
20
0.561179
11
0.324341
21
0.560602
0
LINE
8
BLACK
6
CONTINUOUS
10
0.324341
20
0.560602
11
0.305659
21
0.560602
0
LINE
8
BLACK
6
CONTINUOUS
10
0.305659
20
0.560602
11
0.304267
21
0.561179
0
LINE
8
BLACK
6
CONTINUOUS
10
0.304267
20
0.561179
11
0.303691
21
0.562571
0
LINE
8
BLACK
6
CONTINUOUS
10
0.303691
20
0.562571
11
0.304267
21
0.563963
0
LINE
8
BLACK
6
CONTINUOUS
10
0.304267
20
0.563963
11
0.305659
21
0.564539
0
LINE
8
BLACK
6
CONTINUOUS
10
0.305659
20
0.564539
11
0.324341
21
0.564539
0
LINE
8
BLACK
6
CONTINUOUS
10
0.324341
20
0.564539
11
0.325733
21
0.563963
0
LINE
8
BLACK
6
CONTINUOUS
10
0.286284
20
0.610779
11
0.288159
21
0.608904
0
LINE
8
BLACK
6
CONTINUOUS
10
0.288159
20
0.608904
11
0.288665
21
0.608181
0
LINE
8
BLACK
6
CONTINUOUS
10
0.288665
20
0.608181
11
0.288712
21
0.608136
0
LINE
8
BLACK
6
CONTINUOUS
10
0.288712
20
0.608136
11
0.290587
21
0.604387
0
LINE
8
BLACK
6
CONTINUOUS
10
0.290587
20
0.604387
11
0.290879
21
0.603404
0
LINE
8
BLACK
6
CONTINUOUS
10
0.290879
20
0.603404
11
0.290838
21
0.603232
0
LINE
8
BLACK
6
CONTINUOUS
10
0.290838
20
0.603232
11
0.290898
21
0.603066
0
LINE
8
BLACK
6
CONTINUOUS
10
0.290898
20
0.603066
11
0.290898
21
0.591818
0
LINE
8
BLACK
6
CONTINUOUS
10
0.290898
20
0.591818
11
0.29072
21
0.590808
0
LINE
8
BLACK
6
CONTINUOUS
10
0.29072
20
0.590808
11
0.290607
21
0.590673
0
LINE
8
BLACK
6
CONTINUOUS
10
0.290607
20
0.590673
11
0.290587
21
0.590497
0
LINE
8
BLACK
6
CONTINUOUS
10
0.290587
20
0.590497
11
0.288712
21
0.586748
0
LINE
8
BLACK
6
CONTINUOUS
10
0.288712
20
0.586748
11
0.288186
21
0.586039
0
LINE
8
BLACK
6
CONTINUOUS
10
0.288186
20
0.586039
11
0.288159
21
0.58598
0
LINE
8
BLACK
6
CONTINUOUS
10
0.288159
20
0.58598
11
0.286284
21
0.584106
0
LINE
8
BLACK
6
CONTINUOUS
10
0.286284
20
0.584106
11
0.285561
21
0.583599
0
LINE
8
BLACK
6
CONTINUOUS
10
0.285561
20
0.583599
11
0.285517
21
0.583552
0
LINE
8
BLACK
6
CONTINUOUS
10
0.285517
20
0.583552
11
0.281767
21
0.581678
0
LINE
8
BLACK
6
CONTINUOUS
10
0.281767
20
0.581678
11
0.280784
21
0.581385
0
LINE
8
BLACK
6
CONTINUOUS
10
0.280784
20
0.581385
11
0.280612
21
0.581426
0
LINE
8
BLACK
6
CONTINUOUS
10
0.280612
20
0.581426
11
0.280447
21
0.581366
0
LINE
8
BLACK
6
CONTINUOUS
10
0.280447
20
0.581366
11
0.271073
21
0.581366
0
LINE
8
BLACK
6
CONTINUOUS
10
0.271073
20
0.581366
11
0.270063
21
0.581544
0
LINE
8
BLACK
6
CONTINUOUS
10
0.270063
20
0.581544
11
0.269928
21
0.581658
0
LINE
8
BLACK
6
CONTINUOUS
10
0.269928
20
0.581658
11
0.269752
21
0.581678
0
LINE
8
BLACK
6
CONTINUOUS
10
0.269752
20
0.581678
11
0.266003
21
0.583552
0
LINE
8
BLACK
6
CONTINUOUS
10
0.266003
20
0.583552
11
0.265294
21
0.584078
0
LINE
8
BLACK
6
CONTINUOUS
10
0.265294
20
0.584078
11
0.265235
21
0.584106
0
LINE
8
BLACK
6
CONTINUOUS
10
0.265235
20
0.584106
11
0.263361
21
0.58598
0
LINE
8
BLACK
6
CONTINUOUS
10
0.263361
20
0.58598
11
0.262854
21
0.586703
0
LINE
8
BLACK
6
CONTINUOUS
10
0.262854
20
0.586703
11
0.262807
21
0.586748
0
LINE
8
BLACK
6
CONTINUOUS
10
0.262807
20
0.586748
11
0.260933
21
0.590497
0
LINE
8
BLACK
6
CONTINUOUS
10
0.260933
20
0.590497
11
0.260765
21
0.591061
0
LINE
8
BLACK
6
CONTINUOUS
10
0.260765
20
0.591061
11
0.25052
21
0.582097
0
LINE
8
BLACK
6
CONTINUOUS
10
0.25052
20
0.582097
11
0.25014
21
0.581867
0
LINE
8
BLACK
6
CONTINUOUS
10
0.25014
20
0.581867
11
0.250052
21
0.581762
0
LINE
8
BLACK
6
CONTINUOUS
10
0.250052
20
0.581762
11
0.249931
21
0.58174
0
LINE
8
BLACK
6
CONTINUOUS
10
0.249931
20
0.58174
11
0.249643
21
0.581566
0
LINE
8
BLACK
6
CONTINUOUS
10
0.249643
20
0.581566
11
0.248847
21
0.581549
0
LINE
8
BLACK
6
CONTINUOUS
10
0.248847
20
0.581549
11
0.248063
21
0.581411
0
LINE
8
BLACK
6
CONTINUOUS
10
0.248063
20
0.581411
11
0.247859
21
0.581529
0
LINE
8
BLACK
6
CONTINUOUS
10
0.247859
20
0.581529
11
0.247623
21
0.581524
0
LINE
8
BLACK
6
CONTINUOUS
10
0.247623
20
0.581524
11
0.247003
21
0.582023
0
LINE
8
BLACK
6
CONTINUOUS
10
0.247003
20
0.582023
11
0.246314
21
0.582421
0
LINE
8
BLACK
6
CONTINUOUS
10
0.246314
20
0.582421
11
0.246233
21
0.582642
0
LINE
8
BLACK
6
CONTINUOUS
10
0.246233
20
0.582642
11
0.246049
21
0.58279
0
LINE
8
BLACK
6
CONTINUOUS
10
0.246049
20
0.58279
11
0.245895
21
0.583571
0
LINE
8
BLACK
6
CONTINUOUS
10
0.245895
20
0.583571
11
0.245623
21
0.584319
0
LINE
8
BLACK
6
CONTINUOUS
10
0.245623
20
0.584319
11
0.245623
21
0.608691
0
LINE
8
BLACK
6
CONTINUOUS
10
0.245623
20
0.608691
11
0.245801
21
0.609701
0
LINE
8
BLACK
6
CONTINUOUS
10
0.245801
20
0.609701
11
0.247099
21
0.611248
0
LINE
8
BLACK
6
CONTINUOUS
10
0.247099
20
0.611248
11
0.249088
21
0.611599
0
LINE
8
BLACK
6
CONTINUOUS
10
0.249088
20
0.611599
11
0.250837
21
0.610589
0
LINE
8
BLACK
6
CONTINUOUS
10
0.250837
20
0.610589
11
0.251528
21
0.608691
0
LINE
8
BLACK
6
CONTINUOUS
10
0.251528
20
0.608691
11
0.251528
21
0.590826
0
LINE
8
BLACK
6
CONTINUOUS
10
0.251528
20
0.590826
11
0.261629
21
0.599664
0
LINE
8
BLACK
6
CONTINUOUS
10
0.261629
20
0.599664
11
0.262009
21
0.599894
0
LINE
8
BLACK
6
CONTINUOUS
10
0.262009
20
0.599894
11
0.262097
21
0.599999
0
LINE
8
BLACK
6
CONTINUOUS
10
0.262097
20
0.599999
11
0.262218
21
0.600021
0
LINE
8
BLACK
6
CONTINUOUS
10
0.262218
20
0.600021
11
0.262507
21
0.600195
0
LINE
8
BLACK
6
CONTINUOUS
10
0.262507
20
0.600195
11
0.263302
21
0.600212
0
LINE
8
BLACK
6
CONTINUOUS
10
0.263302
20
0.600212
11
0.264086
21
0.60035
0
LINE
8
BLACK
6
CONTINUOUS
10
0.264086
20
0.60035
11
0.26429
21
0.600232
0
LINE
8
BLACK
6
CONTINUOUS
10
0.26429
20
0.600232
11
0.264526
21
0.600237
0
LINE
8
BLACK
6
CONTINUOUS
10
0.264526
20
0.600237
11
0.265146
21
0.599738
0
LINE
8
BLACK
6
CONTINUOUS
10
0.265146
20
0.599738
11
0.265836
21
0.59934
0
LINE
8
BLACK
6
CONTINUOUS
10
0.265836
20
0.59934
11
0.265916
21
0.599119
0
LINE
8
BLACK
6
CONTINUOUS
10
0.265916
20
0.599119
11
0.2661
21
0.598971
0
LINE
8
BLACK
6
CONTINUOUS
10
0.2661
20
0.598971
11
0.266254
21
0.59819
0
LINE
8
BLACK
6
CONTINUOUS
10
0.266254
20
0.59819
11
0.266526
21
0.597442
0
LINE
8
BLACK
6
CONTINUOUS
10
0.266526
20
0.597442
11
0.266526
21
0.592515
0
LINE
8
BLACK
6
CONTINUOUS
10
0.266526
20
0.592515
11
0.267875
21
0.589817
0
LINE
8
BLACK
6
CONTINUOUS
10
0.267875
20
0.589817
11
0.269072
21
0.58862
0
LINE
8
BLACK
6
CONTINUOUS
10
0.269072
20
0.58862
11
0.27177
21
0.587271
0
LINE
8
BLACK
6
CONTINUOUS
10
0.27177
20
0.587271
11
0.279749
21
0.587271
0
LINE
8
BLACK
6
CONTINUOUS
10
0.279749
20
0.587271
11
0.282447
21
0.58862
0
LINE
8
BLACK
6
CONTINUOUS
10
0.282447
20
0.58862
11
0.283644
21
0.589817
0
LINE
8
BLACK
6
CONTINUOUS
10
0.283644
20
0.589817
11
0.284993
21
0.592515
0
LINE
8
BLACK
6
CONTINUOUS
10
0.284993
20
0.592515
11
0.284993
21
0.602369
0
LINE
8
BLACK
6
CONTINUOUS
10
0.284993
20
0.602369
11
0.283644
21
0.605067
0
LINE
8
BLACK
6
CONTINUOUS
10
0.283644
20
0.605067
11
0.282108
21
0.606603
0
LINE
8
BLACK
6
CONTINUOUS
10
0.282108
20
0.606603
11
0.28152
21
0.607443
0
LINE
8
BLACK
6
CONTINUOUS
10
0.28152
20
0.607443
11
0.281344
21
0.609455
0
LINE
8
BLACK
6
CONTINUOUS
10
0.281344
20
0.609455
11
0.282502
21
0.611109
0
LINE
8
BLACK
6
CONTINUOUS
10
0.282502
20
0.611109
11
0.284453
21
0.611632
0
LINE
8
BLACK
6
CONTINUOUS
10
0.284453
20
0.611632
11
0.286284
21
0.610779
0
LINE
8
BLACK
6
CONTINUOUS
10
0.719788
20
0.627666
11
0.719923
21
0.627681
0
LINE
8
BLACK
6
CONTINUOUS
10
0.719923
20
0.627681
11
0.727423
21
0.625806
0
LINE
8
BLACK
6
CONTINUOUS
10
0.727423
20
0.625806
11
0.727888
21
0.625598
0
LINE
8
BLACK
6
CONTINUOUS
10
0.727888
20
0.625598
11
0.728027
21
0.625582
0
LINE
8
BLACK
6
CONTINUOUS
10
0.728027
20
0.625582
11
0.731776
21
0.623707
0
LINE
8
BLACK
6
CONTINUOUS
10
0.731776
20
0.623707
11
0.732485
21
0.623182
0
LINE
8
BLACK
6
CONTINUOUS
10
0.732485
20
0.623182
11
0.732544
21
0.623154
0
LINE
8
BLACK
6
CONTINUOUS
10
0.732544
20
0.623154
11
0.734419
21
0.62128
0
LINE
8
BLACK
6
CONTINUOUS
10
0.734419
20
0.62128
11
0.734925
21
0.620556
0
LINE
8
BLACK
6
CONTINUOUS
10
0.734925
20
0.620556
11
0.734972
21
0.620512
0
LINE
8
BLACK
6
CONTINUOUS
10
0.734972
20
0.620512
11
0.736846
21
0.616763
0
LINE
8
BLACK
6
CONTINUOUS
10
0.736846
20
0.616763
11
0.737139
21
0.61578
0
LINE
8
BLACK
6
CONTINUOUS
10
0.737139
20
0.61578
11
0.737098
21
0.615608
0
LINE
8
BLACK
6
CONTINUOUS
10
0.737098
20
0.615608
11
0.737158
21
0.615442
0
LINE
8
BLACK
6
CONTINUOUS
10
0.737158
20
0.615442
11
0.737158
21
0.611693
0
LINE
8
BLACK
6
CONTINUOUS
10
0.737158
20
0.611693
11
0.73698
21
0.610683
0
LINE
8
BLACK
6
CONTINUOUS
10
0.73698
20
0.610683
11
0.736867
21
0.610547
0
LINE
8
BLACK
6
CONTINUOUS
10
0.736867
20
0.610547
11
0.736846
21
0.610372
0
LINE
8
BLACK
6
CONTINUOUS
10
0.736846
20
0.610372
11
0.734972
21
0.606623
0
LINE
8
BLACK
6
CONTINUOUS
10
0.734972
20
0.606623
11
0.734446
21
0.605913
0
LINE
8
BLACK
6
CONTINUOUS
10
0.734446
20
0.605913
11
0.734419
21
0.605855
0
LINE
8
BLACK
6
CONTINUOUS
10
0.734419
20
0.605855
11
0.732544
21
0.60398
0
LINE
8
BLACK
6
CONTINUOUS
10
0.732544
20
0.60398
11
0.731821
21
0.603474
0
LINE
8
BLACK
6
CONTINUOUS
10
0.731821
20
0.603474
11
0.731776
21
0.603427
0
LINE
8
BLACK
6
CONTINUOUS
10
0.731776
20
0.603427
11
0.728027
21
0.601552
0
LINE
8
BLACK
6
CONTINUOUS
10
0.728027
20
0.601552
11
0.727538
21
0.601407
0
LINE
8
BLACK
6
CONTINUOUS
10
0.727538
20
0.601407
11
0.727423
21
0.601329
0
LINE
8
BLACK
6
CONTINUOUS
10
0.727423
20
0.601329
11
0.719923
21
0.599454
0
LINE
8
BLACK
6
CONTINUOUS
10
0.719923
20
0.599454
11
0.719336
21
0.599413
0
LINE
8
BLACK
6
CONTINUOUS
10
0.719336
20
0.599413
11
0.719207
21
0.599366
0
LINE
8
BLACK
6
CONTINUOUS
10
0.719207
20
0.599366
11
0.709834
21
0.599366
0
LINE
8
BLACK
6
CONTINUOUS
10
0.709834
20
0.599366
11
0.709253
21
0.599468
0
LINE
8
BLACK
6
CONTINUOUS
10
0.709253
20
0.599468
11
0.709117
21
0.599454
0
LINE
8
BLACK
6
CONTINUOUS
10
0.709117
20
0.599454
11
0.701618
21
0.601329
0
LINE
8
BLACK
6
CONTINUOUS
10
0.701618
20
0.601329
11
0.701153
21
0.601536
0
LINE
8
BLACK
6
CONTINUOUS
10
0.701153
20
0.601536
11
0.701014
21
0.601552
0
LINE
8
BLACK
6
CONTINUOUS
10
0.701014
20
0.601552
11
0.697264
21
0.603427
0
LINE
8
BLACK
6
CONTINUOUS
10
0.697264
20
0.603427
11
0.696555
21
0.603953
0
LINE
8
BLACK
6
CONTINUOUS
10
0.696555
20
0.603953
11
0.696497
21
0.60398
0
LINE
8
BLACK
6
CONTINUOUS
10
0.696497
20
0.60398
11
0.694622
21
0.605855
0
LINE
8
BLACK
6
CONTINUOUS
10
0.694622
20
0.605855
11
0.694116
21
0.606578
0
LINE
8
BLACK
6
CONTINUOUS
10
0.694116
20
0.606578
11
0.694069
21
0.606623
0
LINE
8
BLACK
6
CONTINUOUS
10
0.694069
20
0.606623
11
0.692194
21
0.610372
0
LINE
8
BLACK
6
CONTINUOUS
10
0.692194
20
0.610372
11
0.691902
21
0.611355
0
LINE
8
BLACK
6
CONTINUOUS
10
0.691902
20
0.611355
11
0.691943
21
0.611527
0
LINE
8
BLACK
6
CONTINUOUS
10
0.691943
20
0.611527
11
0.691883
21
0.611693
0
LINE
8
BLACK
6
CONTINUOUS
10
0.691883
20
0.611693
11
0.691883
21
0.615442
0
LINE
8
BLACK
6
CONTINUOUS
10
0.691883
20
0.615442
11
0.692061
21
0.616452
0
LINE
8
BLACK
6
CONTINUOUS
10
0.692061
20
0.616452
11
0.692174
21
0.616587
0
LINE
8
BLACK
6
CONTINUOUS
10
0.692174
20
0.616587
11
0.692194
21
0.616763
0
LINE
8
BLACK
6
CONTINUOUS
10
0.692194
20
0.616763
11
0.694069
21
0.620512
0
LINE
8
BLACK
6
CONTINUOUS
10
0.694069
20
0.620512
11
0.694595
21
0.621221
0
LINE
8
BLACK
6
CONTINUOUS
10
0.694595
20
0.621221
11
0.694622
21
0.62128
0
LINE
8
BLACK
6
CONTINUOUS
10
0.694622
20
0.62128
11
0.696497
21
0.623154
0
LINE
8
BLACK
6
CONTINUOUS
10
0.696497
20
0.623154
11
0.69722
21
0.623661
0
LINE
8
BLACK
6
CONTINUOUS
10
0.69722
20
0.623661
11
0.697264
21
0.623707
0
LINE
8
BLACK
6
CONTINUOUS
10
0.697264
20
0.623707
11
0.701014
21
0.625582
0
LINE
8
BLACK
6
CONTINUOUS
10
0.701014
20
0.625582
11
0.701502
21
0.625727
0
LINE
8
BLACK
6
CONTINUOUS
10
0.701502
20
0.625727
11
0.701618
21
0.625806
0
LINE
8
BLACK
6
CONTINUOUS
10
0.701618
20
0.625806
11
0.709117
21
0.627681
0
LINE
8
BLACK
6
CONTINUOUS
10
0.709117
20
0.627681
11
0.709705
21
0.627722
0
LINE
8
BLACK
6
CONTINUOUS
10
0.709705
20
0.627722
11
0.709834
21
0.627769
0
LINE
8
BLACK
6
CONTINUOUS
10
0.709834
20
0.627769
11
0.719207
21
0.627769
0
LINE
8
BLACK
6
CONTINUOUS
10
0.719207
20
0.627769
11
0.719788
21
0.627666
0
LINE
8
BLACK
6
CONTINUOUS
10
0.703365
20
0.620155
11
0.700334
21
0.61864
0
LINE
8
BLACK
6
CONTINUOUS
10
0.700334
20
0.61864
11
0.699137
21
0.617443
0
LINE
8
BLACK
6
CONTINUOUS
10
0.699137
20
0.617443
11
0.697788
21
0.614745
0
LINE
8
BLACK
6
CONTINUOUS
10
0.697788
20
0.614745
11
0.697788
21
0.61239
0
LINE
8
BLACK
6
CONTINUOUS
10
0.697788
20
0.61239
11
0.699137
21
0.609692
0
LINE
8
BLACK
6
CONTINUOUS
10
0.699137
20
0.609692
11
0.700334
21
0.608495
0
LINE
8
BLACK
6
CONTINUOUS
10
0.700334
20
0.608495
11
0.703365
21
0.60698
0
LINE
8
BLACK
6
CONTINUOUS
10
0.703365
20
0.60698
11
0.710197
21
0.605271
0
LINE
8
BLACK
6
CONTINUOUS
10
0.710197
20
0.605271
11
0.718844
21
0.605271
0
LINE
8
BLACK
6
CONTINUOUS
10
0.718844
20
0.605271
11
0.725676
21
0.60698
0
LINE
8
BLACK
6
CONTINUOUS
10
0.725676
20
0.60698
11
0.728707
21
0.608495
0
LINE
8
BLACK
6
CONTINUOUS
10
0.728707
20
0.608495
11
0.729904
21
0.609692
0
LINE
8
BLACK
6
CONTINUOUS
10
0.729904
20
0.609692
11
0.731253
21
0.61239
0
LINE
8
BLACK
6
CONTINUOUS
10
0.731253
20
0.61239
11
0.731253
21
0.614745
0
LINE
8
BLACK
6
CONTINUOUS
10
0.731253
20
0.614745
11
0.729904
21
0.617443
0
LINE
8
BLACK
6
CONTINUOUS
10
0.729904
20
0.617443
11
0.728707
21
0.61864
0
LINE
8
BLACK
6
CONTINUOUS
10
0.728707
20
0.61864
11
0.725676
21
0.620155
0
LINE
8
BLACK
6
CONTINUOUS
10
0.725676
20
0.620155
11
0.718844
21
0.621863
0
LINE
8
BLACK
6
CONTINUOUS
10
0.718844
20
0.621863
11
0.710197
21
0.621863
0
LINE
8
BLACK
6
CONTINUOUS
10
0.710197
20
0.621863
11
0.703365
21
0.620155
0
LINE
8
BLACK
6
CONTINUOUS
10
0.261583
20
0.646683
11
0.262696
21
0.644997
0
LINE
8
BLACK
6
CONTINUOUS
10
0.262696
20
0.644997
11
0.262465
21
0.642991
0
LINE
8
BLACK
6
CONTINUOUS
10
0.262465
20
0.642991
11
0.26059
21
0.639241
0
LINE
8
BLACK
6
CONTINUOUS
10
0.26059
20
0.639241
11
0.260064
21
0.638532
0
LINE
8
BLACK
6
CONTINUOUS
10
0.260064
20
0.638532
11
0.260037
21
0.638474
0
LINE
8
BLACK
6
CONTINUOUS
10
0.260037
20
0.638474
11
0.257579
21
0.636015
0
LINE
8
BLACK
6
CONTINUOUS
10
0.257579
20
0.636015
11
0.284993
21
0.636015
0
LINE
8
BLACK
6
CONTINUOUS
10
0.284993
20
0.636015
11
0.284993
21
0.644311
0
LINE
8
BLACK
6
CONTINUOUS
10
0.284993
20
0.644311
11
0.285171
21
0.645321
0
LINE
8
BLACK
6
CONTINUOUS
10
0.285171
20
0.645321
11
0.286469
21
0.646868
0
LINE
8
BLACK
6
CONTINUOUS
10
0.286469
20
0.646868
11
0.288458
21
0.647219
0
LINE
8
BLACK
6
CONTINUOUS
10
0.288458
20
0.647219
11
0.290208
21
0.646209
0
LINE
8
BLACK
6
CONTINUOUS
10
0.290208
20
0.646209
11
0.290898
21
0.644311
0
LINE
8
BLACK
6
CONTINUOUS
10
0.290898
20
0.644311
11
0.290898
21
0.621814
0
LINE
8
BLACK
6
CONTINUOUS
10
0.290898
20
0.621814
11
0.29072
21
0.620804
0
LINE
8
BLACK
6
CONTINUOUS
10
0.29072
20
0.620804
11
0.289422
21
0.619257
0
LINE
8
BLACK
6
CONTINUOUS
10
0.289422
20
0.619257
11
0.287433
21
0.618906
0
LINE
8
BLACK
6
CONTINUOUS
10
0.287433
20
0.618906
11
0.285684
21
0.619916
0
LINE
8
BLACK
6
CONTINUOUS
10
0.285684
20
0.619916
11
0.284993
21
0.621814
0
LINE
8
BLACK
6
CONTINUOUS
10
0.284993
20
0.621814
11
0.284993
21
0.63011
0
LINE
8
BLACK
6
CONTINUOUS
10
0.284993
20
0.63011
11
0.248576
21
0.63011
0
LINE
8
BLACK
6
CONTINUOUS
10
0.248576
20
0.63011
11
0.247566
21
0.630288
0
LINE
8
BLACK
6
CONTINUOUS
10
0.247566
20
0.630288
11
0.247436
21
0.630397
0
LINE
8
BLACK
6
CONTINUOUS
10
0.247436
20
0.630397
11
0.247267
21
0.630416
0
LINE
8
BLACK
6
CONTINUOUS
10
0.247267
20
0.630416
11
0.246675
21
0.631035
0
LINE
8
BLACK
6
CONTINUOUS
10
0.246675
20
0.631035
11
0.246018
21
0.631586
0
LINE
8
BLACK
6
CONTINUOUS
10
0.246018
20
0.631586
11
0.245989
21
0.631754
0
LINE
8
BLACK
6
CONTINUOUS
10
0.245989
20
0.631754
11
0.245872
21
0.631876
0
LINE
8
BLACK
6
CONTINUOUS
10
0.245872
20
0.631876
11
0.245816
21
0.632731
0
LINE
8
BLACK
6
CONTINUOUS
10
0.245816
20
0.632731
11
0.245668
21
0.633575
0
LINE
8
BLACK
6
CONTINUOUS
10
0.245668
20
0.633575
11
0.245753
21
0.633722
0
LINE
8
BLACK
6
CONTINUOUS
10
0.245753
20
0.633722
11
0.245742
21
0.633892
0
LINE
8
BLACK
6
CONTINUOUS
10
0.245742
20
0.633892
11
0.246249
21
0.634582
0
LINE
8
BLACK
6
CONTINUOUS
10
0.246249
20
0.634582
11
0.246678
21
0.635325
0
LINE
8
BLACK
6
CONTINUOUS
10
0.246678
20
0.635325
11
0.246837
21
0.635383
0
LINE
8
BLACK
6
CONTINUOUS
10
0.246837
20
0.635383
11
0.246938
21
0.635519
0
LINE
8
BLACK
6
CONTINUOUS
10
0.246938
20
0.635519
11
0.252319
21
0.639107
0
LINE
8
BLACK
6
CONTINUOUS
10
0.252319
20
0.639107
11
0.255523
21
0.642311
0
LINE
8
BLACK
6
CONTINUOUS
10
0.255523
20
0.642311
11
0.257183
21
0.645632
0
LINE
8
BLACK
6
CONTINUOUS
10
0.257183
20
0.645632
11
0.257794
21
0.646455
0
LINE
8
BLACK
6
CONTINUOUS
10
0.257794
20
0.646455
11
0.259647
21
0.647259
0
LINE
8
BLACK
6
CONTINUOUS
10
0.259647
20
0.647259
11
0.261583
21
0.646683
0
LINE
8
BLACK
6
CONTINUOUS
10
0.547074
20
0.668239
11
0.54721
21
0.668125
0
LINE
8
BLACK
6
CONTINUOUS
10
0.54721
20
0.668125
11
0.547385
21
0.668105
0
LINE
8
BLACK
6
CONTINUOUS
10
0.547385
20
0.668105
11
0.551134
21
0.66623
0
LINE
8
BLACK
6
CONTINUOUS
10
0.551134
20
0.66623
11
0.551844
21
0.665704
0
LINE
8
BLACK
6
CONTINUOUS
10
0.551844
20
0.665704
11
0.551902
21
0.665677
0
LINE
8
BLACK
6
CONTINUOUS
10
0.551902
20
0.665677
11
0.553777
21
0.663802
0
LINE
8
BLACK
6
CONTINUOUS
10
0.553777
20
0.663802
11
0.554283
21
0.663079
0
LINE
8
BLACK
6
CONTINUOUS
10
0.554283
20
0.663079
11
0.55433
21
0.663035
0
LINE
8
BLACK
6
CONTINUOUS
10
0.55433
20
0.663035
11
0.556205
21
0.659285
0
LINE
8
BLACK
6
CONTINUOUS
10
0.556205
20
0.659285
11
0.556497
21
0.658302
0
LINE
8
BLACK
6
CONTINUOUS
10
0.556497
20
0.658302
11
0.556456
21
0.658131
0
LINE
8
BLACK
6
CONTINUOUS
10
0.556456
20
0.658131
11
0.556516
21
0.657965
0
LINE
8
BLACK
6
CONTINUOUS
10
0.556516
20
0.657965
11
0.556516
21
0.648591
0
LINE
8
BLACK
6
CONTINUOUS
10
0.556516
20
0.648591
11
0.556338
21
0.647581
0
LINE
8
BLACK
6
CONTINUOUS
10
0.556338
20
0.647581
11
0.556225
21
0.647446
0
LINE
8
BLACK
6
CONTINUOUS
10
0.556225
20
0.647446
11
0.556205
21
0.64727
0
LINE
8
BLACK
6
CONTINUOUS
10
0.556205
20
0.64727
11
0.55433
21
0.643521
0
LINE
8
BLACK
6
CONTINUOUS
10
0.55433
20
0.643521
11
0.553804
21
0.642812
0
LINE
8
BLACK
6
CONTINUOUS
10
0.553804
20
0.642812
11
0.553777
21
0.642754
0
LINE
8
BLACK
6
CONTINUOUS
10
0.553777
20
0.642754
11
0.551902
21
0.640879
0
LINE
8
BLACK
6
CONTINUOUS
10
0.551902
20
0.640879
11
0.551179
21
0.640372
0
LINE
8
BLACK
6
CONTINUOUS
10
0.551179
20
0.640372
11
0.551134
21
0.640326
0
LINE
8
BLACK
6
CONTINUOUS
10
0.551134
20
0.640326
11
0.547385
21
0.638451
0
LINE
8
BLACK
6
CONTINUOUS
10
0.547385
20
0.638451
11
0.546402
21
0.638159
0
LINE
8
BLACK
6
CONTINUOUS
10
0.546402
20
0.638159
11
0.54623
21
0.6382
0
LINE
8
BLACK
6
CONTINUOUS
10
0.54623
20
0.6382
11
0.546064
21
0.638139
0
LINE
8
BLACK
6
CONTINUOUS
10
0.546064
20
0.638139
11
0.538565
21
0.638139
0
LINE
8
BLACK
6
CONTINUOUS
10
0.538565
20
0.638139
11
0.537555
21
0.638317
0
LINE
8
BLACK
6
CONTINUOUS
10
0.537555
20
0.638317
11
0.53742
21
0.638431
0
LINE
8
BLACK
6
CONTINUOUS
10
0.53742
20
0.638431
11
0.537245
21
0.638451
0
LINE
8
BLACK
6
CONTINUOUS
10
0.537245
20
0.638451
11
0.534952
21
0.639597
0
LINE
8
BLACK
6
CONTINUOUS
10
0.534952
20
0.639597
11
0.535682
21
0.63668
0
LINE
8
BLACK
6
CONTINUOUS
10
0.535682
20
0.63668
11
0.538985
21
0.631724
0
LINE
8
BLACK
6
CONTINUOUS
10
0.538985
20
0.631724
11
0.540314
21
0.630395
0
LINE
8
BLACK
6
CONTINUOUS
10
0.540314
20
0.630395
11
0.543012
21
0.629046
0
LINE
8
BLACK
6
CONTINUOUS
10
0.543012
20
0.629046
11
0.549814
21
0.629046
0
LINE
8
BLACK
6
CONTINUOUS
10
0.549814
20
0.629046
11
0.550824
21
0.628868
0
LINE
8
BLACK
6
CONTINUOUS
10
0.550824
20
0.628868
11
0.552371
21
0.62757
0
LINE
8
BLACK
6
CONTINUOUS
10
0.552371
20
0.62757
11
0.552722
21
0.625581
0
LINE
8
BLACK
6
CONTINUOUS
10
0.552722
20
0.625581
11
0.551712
21
0.623832
0
LINE
8
BLACK
6
CONTINUOUS
10
0.551712
20
0.623832
11
0.549814
21
0.623141
0
LINE
8
BLACK
6
CONTINUOUS
10
0.549814
20
0.623141
11
0.542315
21
0.623141
0
LINE
8
BLACK
6
CONTINUOUS
10
0.542315
20
0.623141
11
0.541305
21
0.623319
0
LINE
8
BLACK
6
CONTINUOUS
10
0.541305
20
0.623319
11
0.54117
21
0.623433
0
LINE
8
BLACK
6
CONTINUOUS
10
0.54117
20
0.623433
11
0.540994
21
0.623453
0
LINE
8
BLACK
6
CONTINUOUS
10
0.540994
20
0.623453
11
0.537245
21
0.625327
0
LINE
8
BLACK
6
CONTINUOUS
10
0.537245
20
0.625327
11
0.536536
21
0.625853
0
LINE
8
BLACK
6
CONTINUOUS
10
0.536536
20
0.625853
11
0.536477
21
0.625881
0
LINE
8
BLACK
6
CONTINUOUS
10
0.536477
20
0.625881
11
0.534603
21
0.627755
0
LINE
8
BLACK
6
CONTINUOUS
10
0.534603
20
0.627755
11
0.534345
21
0.628124
0
LINE
8
BLACK
6
CONTINUOUS
10
0.534345
20
0.628124
11
0.534234
21
0.628205
0
LINE
8
BLACK
6
CONTINUOUS
10
0.534234
20
0.628205
11
0.530484
21
0.63383
0
LINE
8
BLACK
6
CONTINUOUS
10
0.530484
20
0.63383
11
0.530086
21
0.634737
0
LINE
8
BLACK
6
CONTINUOUS
10
0.530086
20
0.634737
11
0.530076
21
0.634751
0
LINE
8
BLACK
6
CONTINUOUS
10
0.530076
20
0.634751
11
0.528202
21
0.642251
0
LINE
8
BLACK
6
CONTINUOUS
10
0.528202
20
0.642251
11
0.52816
21
0.642838
0
LINE
8
BLACK
6
CONTINUOUS
10
0.52816
20
0.642838
11
0.528114
21
0.642967
0
LINE
8
BLACK
6
CONTINUOUS
10
0.528114
20
0.642967
11
0.528114
21
0.657965
0
LINE
8
BLACK
6
CONTINUOUS
10
0.528114
20
0.657965
11
0.528292
21
0.658975
0
LINE
8
BLACK
6
CONTINUOUS
10
0.528292
20
0.658975
11
0.528405
21
0.65911
0
LINE
8
BLACK
6
CONTINUOUS
10
0.528405
20
0.65911
11
0.528425
21
0.659285
0
LINE
8
BLACK
6
CONTINUOUS
10
0.528425
20
0.659285
11
0.5303
21
0.663035
0
LINE
8
BLACK
6
CONTINUOUS
10
0.5303
20
0.663035
11
0.530826
21
0.663744
0
LINE
8
BLACK
6
CONTINUOUS
10
0.530826
20
0.663744
11
0.530853
21
0.663802
0
LINE
8
BLACK
6
CONTINUOUS
10
0.530853
20
0.663802
11
0.532728
21
0.665677
0
LINE
8
BLACK
6
CONTINUOUS
10
0.532728
20
0.665677
11
0.533451
21
0.666183
0
LINE
8
BLACK
6
CONTINUOUS
10
0.533451
20
0.666183
11
0.533495
21
0.66623
0
LINE
8
BLACK
6
CONTINUOUS
10
0.533495
20
0.66623
11
0.537245
21
0.668105
0
LINE
8
BLACK
6
CONTINUOUS
10
0.537245
20
0.668105
11
0.538228
21
0.668397
0
LINE
8
BLACK
6
CONTINUOUS
10
0.538228
20
0.668397
11
0.538399
21
0.668356
0
LINE
8
BLACK
6
CONTINUOUS
10
0.538399
20
0.668356
11
0.538565
21
0.668417
0
LINE
8
BLACK
6
CONTINUOUS
10
0.538565
20
0.668417
11
0.546064
21
0.668417
0
LINE
8
BLACK
6
CONTINUOUS
10
0.546064
20
0.668417
11
0.547074
21
0.668239
0
LINE
8
BLACK
6
CONTINUOUS
10
0.536565
20
0.661162
11
0.535368
21
0.659965
0
LINE
8
BLACK
6
CONTINUOUS
10
0.535368
20
0.659965
11
0.534019
21
0.657268
0
LINE
8
BLACK
6
CONTINUOUS
10
0.534019
20
0.657268
11
0.534019
21
0.649288
0
LINE
8
BLACK
6
CONTINUOUS
10
0.534019
20
0.649288
11
0.535368
21
0.646591
0
LINE
8
BLACK
6
CONTINUOUS
10
0.535368
20
0.646591
11
0.536565
21
0.645393
0
LINE
8
BLACK
6
CONTINUOUS
10
0.536565
20
0.645393
11
0.539262
21
0.644045
0
LINE
8
BLACK
6
CONTINUOUS
10
0.539262
20
0.644045
11
0.545367
21
0.644045
0
LINE
8
BLACK
6
CONTINUOUS
10
0.545367
20
0.644045
11
0.548065
21
0.645393
0
LINE
8
BLACK
6
CONTINUOUS
10
0.548065
20
0.645393
11
0.549262
21
0.646591
0
LINE
8
BLACK
6
CONTINUOUS
10
0.549262
20
0.646591
11
0.550611
21
0.649288
0
LINE
8
BLACK
6
CONTINUOUS
10
0.550611
20
0.649288
11
0.550611
21
0.657268
0
LINE
8
BLACK
6
CONTINUOUS
10
0.550611
20
0.657268
11
0.549262
21
0.659965
0
LINE
8
BLACK
6
CONTINUOUS
10
0.549262
20
0.659965
11
0.548065
21
0.661162
0
LINE
8
BLACK
6
CONTINUOUS
10
0.548065
20
0.661162
11
0.545367
21
0.662511
0
LINE
8
BLACK
6
CONTINUOUS
10
0.545367
20
0.662511
11
0.539262
21
0.662511
0
LINE
8
BLACK
6
CONTINUOUS
10
0.539262
20
0.662511
11
0.536565
21
0.661162
0
LINE
8
BLACK
6
CONTINUOUS
10
0.591442
20
0.668349
11
0.591572
21
0.668372
0
LINE
8
BLACK
6
CONTINUOUS
10
0.591572
20
0.668372
11
0.591685
21
0.668306
0
LINE
8
BLACK
6
CONTINUOUS
10
0.591685
20
0.668306
11
0.592069
21
0.668239
0
LINE
8
BLACK
6
CONTINUOUS
10
0.592069
20
0.668239
11
0.592656
21
0.667745
0
LINE
8
BLACK
6
CONTINUOUS
10
0.592656
20
0.667745
11
0.593321
21
0.667362
0
LINE
8
BLACK
6
CONTINUOUS
10
0.593321
20
0.667362
11
0.593412
21
0.667111
0
LINE
8
BLACK
6
CONTINUOUS
10
0.593412
20
0.667111
11
0.593616
21
0.66694
0
LINE
8
BLACK
6
CONTINUOUS
10
0.593616
20
0.66694
11
0.593749
21
0.666185
0
LINE
8
BLACK
6
CONTINUOUS
10
0.593749
20
0.666185
11
0.594012
21
0.665464
0
LINE
8
BLACK
6
CONTINUOUS
10
0.594012
20
0.665464
11
0.594012
21
0.626094
0
LINE
8
BLACK
6
CONTINUOUS
10
0.594012
20
0.626094
11
0.593834
21
0.625084
0
LINE
8
BLACK
6
CONTINUOUS
10
0.593834
20
0.625084
11
0.592535
21
0.623537
0
LINE
8
BLACK
6
CONTINUOUS
10
0.592535
20
0.623537
11
0.590546
21
0.623186
0
LINE
8
BLACK
6
CONTINUOUS
10
0.590546
20
0.623186
11
0.588797
21
0.624196
0
LINE
8
BLACK
6
CONTINUOUS
10
0.588797
20
0.624196
11
0.588106
21
0.626094
0
LINE
8
BLACK
6
CONTINUOUS
10
0.588106
20
0.626094
11
0.588106
21
0.641889
0
LINE
8
BLACK
6
CONTINUOUS
10
0.588106
20
0.641889
11
0.583222
21
0.641889
0
LINE
8
BLACK
6
CONTINUOUS
10
0.583222
20
0.641889
11
0.570981
21
0.6244
0
LINE
8
BLACK
6
CONTINUOUS
10
0.570981
20
0.6244
11
0.570256
21
0.623675
0
LINE
8
BLACK
6
CONTINUOUS
10
0.570256
20
0.623675
11
0.568305
21
0.623152
0
LINE
8
BLACK
6
CONTINUOUS
10
0.568305
20
0.623152
11
0.566474
21
0.624006
0
LINE
8
BLACK
6
CONTINUOUS
10
0.566474
20
0.624006
11
0.56562
21
0.625836
0
LINE
8
BLACK
6
CONTINUOUS
10
0.56562
20
0.625836
11
0.566143
21
0.627787
0
LINE
8
BLACK
6
CONTINUOUS
10
0.566143
20
0.627787
11
0.576019
21
0.641896
0
LINE
8
BLACK
6
CONTINUOUS
10
0.576019
20
0.641896
11
0.575051
21
0.642067
0
LINE
8
BLACK
6
CONTINUOUS
10
0.575051
20
0.642067
11
0.574916
21
0.64218
0
LINE
8
BLACK
6
CONTINUOUS
10
0.574916
20
0.64218
11
0.57474
21
0.6422
0
LINE
8
BLACK
6
CONTINUOUS
10
0.57474
20
0.6422
11
0.570991
21
0.644075
0
LINE
8
BLACK
6
CONTINUOUS
10
0.570991
20
0.644075
11
0.570282
21
0.644601
0
LINE
8
BLACK
6
CONTINUOUS
10
0.570282
20
0.644601
11
0.570223
21
0.644628
0
LINE
8
BLACK
6
CONTINUOUS
10
0.570223
20
0.644628
11
0.568349
21
0.646503
0
LINE
8
BLACK
6
CONTINUOUS
10
0.568349
20
0.646503
11
0.567842
21
0.647226
0
LINE
8
BLACK
6
CONTINUOUS
10
0.567842
20
0.647226
11
0.567795
21
0.64727
0
LINE
8
BLACK
6
CONTINUOUS
10
0.567795
20
0.64727
11
0.565921
21
0.65102
0
LINE
8
BLACK
6
CONTINUOUS
10
0.565921
20
0.65102
11
0.565628
21
0.652003
0
LINE
8
BLACK
6
CONTINUOUS
10
0.565628
20
0.652003
11
0.565669
21
0.652175
0
LINE
8
BLACK
6
CONTINUOUS
10
0.565669
20
0.652175
11
0.565609
21
0.65234
0
LINE
8
BLACK
6
CONTINUOUS
10
0.565609
20
0.65234
11
0.565609
21
0.657965
0
LINE
8
BLACK
6
CONTINUOUS
10
0.565609
20
0.657965
11
0.565787
21
0.658975
0
LINE
8
BLACK
6
CONTINUOUS
10
0.565787
20
0.658975
11
0.5659
21
0.65911
0
LINE
8
BLACK
6
CONTINUOUS
10
0.5659
20
0.65911
11
0.565921
21
0.659285
0
LINE
8
BLACK
6
CONTINUOUS
10
0.565921
20
0.659285
11
0.567795
21
0.663035
0
LINE
8
BLACK
6
CONTINUOUS
10
0.567795
20
0.663035
11
0.568321
21
0.663744
0
LINE
8
BLACK
6
CONTINUOUS
10
0.568321
20
0.663744
11
0.568349
21
0.663802
0
LINE
8
BLACK
6
CONTINUOUS
10
0.568349
20
0.663802
11
0.570223
21
0.665677
0
LINE
8
BLACK
6
CONTINUOUS
10
0.570223
20
0.665677
11
0.570946
21
0.666183
0
LINE
8
BLACK
6
CONTINUOUS
10
0.570946
20
0.666183
11
0.570991
21
0.66623
0
LINE
8
BLACK
6
CONTINUOUS
10
0.570991
20
0.66623
11
0.57474
21
0.668105
0
LINE
8
BLACK
6
CONTINUOUS
10
0.57474
20
0.668105
11
0.575723
21
0.668397
0
LINE
8
BLACK
6
CONTINUOUS
10
0.575723
20
0.668397
11
0.575895
21
0.668356
0
LINE
8
BLACK
6
CONTINUOUS
10
0.575895
20
0.668356
11
0.576061
21
0.668417
0
LINE
8
BLACK
6
CONTINUOUS
10
0.576061
20
0.668417
11
0.591059
21
0.668417
0
LINE
8
BLACK
6
CONTINUOUS
10
0.591059
20
0.668417
11
0.591442
21
0.668349
0
LINE
8
BLACK
6
CONTINUOUS
10
0.57406
20
0.661162
11
0.572863
21
0.659965
0
LINE
8
BLACK
6
CONTINUOUS
10
0.572863
20
0.659965
11
0.571514
21
0.657268
0
LINE
8
BLACK
6
CONTINUOUS
10
0.571514
20
0.657268
11
0.571514
21
0.653038
0
LINE
8
BLACK
6
CONTINUOUS
10
0.571514
20
0.653038
11
0.572863
21
0.65034
0
LINE
8
BLACK
6
CONTINUOUS
10
0.572863
20
0.65034
11
0.57406
21
0.649143
0
LINE
8
BLACK
6
CONTINUOUS
10
0.57406
20
0.649143
11
0.576758
21
0.647794
0
LINE
8
BLACK
6
CONTINUOUS
10
0.576758
20
0.647794
11
0.588106
21
0.647794
0
LINE
8
BLACK
6
CONTINUOUS
10
0.588106
20
0.647794
11
0.588106
21
0.662511
0
LINE
8
BLACK
6
CONTINUOUS
10
0.588106
20
0.662511
11
0.576758
21
0.662511
0
LINE
8
BLACK
6
CONTINUOUS
10
0.576758
20
0.662511
11
0.57406
21
0.661162
0
LINE
8
BLACK
6
CONTINUOUS
10
0.393398
20
0.672939
11
0.393534
21
0.672826
0
LINE
8
BLACK
6
CONTINUOUS
10
0.393534
20
0.672826
11
0.393709
21
0.672806
0
LINE
8
BLACK
6
CONTINUOUS
10
0.393709
20
0.672806
11
0.397458
21
0.670931
0
LINE
8
BLACK
6
CONTINUOUS
10
0.397458
20
0.670931
11
0.398168
21
0.670405
0
LINE
8
BLACK
6
CONTINUOUS
10
0.398168
20
0.670405
11
0.398226
21
0.670378
0
LINE
8
BLACK
6
CONTINUOUS
10
0.398226
20
0.670378
11
0.400101
21
0.668503
0
LINE
8
BLACK
6
CONTINUOUS
10
0.400101
20
0.668503
11
0.400689
21
0.667663
0
LINE
8
BLACK
6
CONTINUOUS
10
0.400689
20
0.667663
11
0.400865
21
0.665651
0
LINE
8
BLACK
6
CONTINUOUS
10
0.400865
20
0.665651
11
0.399706
21
0.663996
0
LINE
8
BLACK
6
CONTINUOUS
10
0.399706
20
0.663996
11
0.397755
21
0.663474
0
LINE
8
BLACK
6
CONTINUOUS
10
0.397755
20
0.663474
11
0.395925
21
0.664327
0
LINE
8
BLACK
6
CONTINUOUS
10
0.395925
20
0.664327
11
0.394389
21
0.665863
0
LINE
8
BLACK
6
CONTINUOUS
10
0.394389
20
0.665863
11
0.391691
21
0.667212
0
LINE
8
BLACK
6
CONTINUOUS
10
0.391691
20
0.667212
11
0.383712
21
0.667212
0
LINE
8
BLACK
6
CONTINUOUS
10
0.383712
20
0.667212
11
0.381014
21
0.665863
0
LINE
8
BLACK
6
CONTINUOUS
10
0.381014
20
0.665863
11
0.379817
21
0.664666
0
LINE
8
BLACK
6
CONTINUOUS
10
0.379817
20
0.664666
11
0.378468
21
0.661969
0
LINE
8
BLACK
6
CONTINUOUS
10
0.378468
20
0.661969
11
0.378468
21
0.659395
0
LINE
8
BLACK
6
CONTINUOUS
10
0.378468
20
0.659395
11
0.379971
21
0.654887
0
LINE
8
BLACK
6
CONTINUOUS
10
0.379971
20
0.654887
11
0.401975
21
0.632882
0
LINE
8
BLACK
6
CONTINUOUS
10
0.401975
20
0.632882
11
0.402345
21
0.632354
0
LINE
8
BLACK
6
CONTINUOUS
10
0.402345
20
0.632354
11
0.402445
21
0.632271
0
LINE
8
BLACK
6
CONTINUOUS
10
0.402445
20
0.632271
11
0.402458
21
0.632193
0
LINE
8
BLACK
6
CONTINUOUS
10
0.402458
20
0.632193
11
0.402564
21
0.632042
0
LINE
8
BLACK
6
CONTINUOUS
10
0.402564
20
0.632042
11
0.402641
21
0.631157
0
LINE
8
BLACK
6
CONTINUOUS
10
0.402641
20
0.631157
11
0.402795
21
0.630282
0
LINE
8
BLACK
6
CONTINUOUS
10
0.402795
20
0.630282
11
0.402728
21
0.630165
0
LINE
8
BLACK
6
CONTINUOUS
10
0.402728
20
0.630165
11
0.40274
21
0.63003
0
LINE
8
BLACK
6
CONTINUOUS
10
0.40274
20
0.63003
11
0.40223
21
0.629302
0
LINE
8
BLACK
6
CONTINUOUS
10
0.40223
20
0.629302
11
0.401785
21
0.628533
0
LINE
8
BLACK
6
CONTINUOUS
10
0.401785
20
0.628533
11
0.401659
21
0.628486
0
LINE
8
BLACK
6
CONTINUOUS
10
0.401659
20
0.628486
11
0.401581
21
0.628376
0
LINE
8
BLACK
6
CONTINUOUS
10
0.401581
20
0.628376
11
0.400723
21
0.628146
0
LINE
8
BLACK
6
CONTINUOUS
10
0.400723
20
0.628146
11
0.399887
21
0.627842
0
LINE
8
BLACK
6
CONTINUOUS
10
0.399887
20
0.627842
11
0.375516
21
0.627842
0
LINE
8
BLACK
6
CONTINUOUS
10
0.375516
20
0.627842
11
0.374506
21
0.62802
0
LINE
8
BLACK
6
CONTINUOUS
10
0.374506
20
0.62802
11
0.372958
21
0.629318
0
LINE
8
BLACK
6
CONTINUOUS
10
0.372958
20
0.629318
11
0.372608
21
0.631307
0
LINE
8
BLACK
6
CONTINUOUS
10
0.372608
20
0.631307
11
0.373618
21
0.633056
0
LINE
8
BLACK
6
CONTINUOUS
10
0.373618
20
0.633056
11
0.375516
21
0.633747
0
LINE
8
BLACK
6
CONTINUOUS
10
0.375516
20
0.633747
11
0.392759
21
0.633747
0
LINE
8
BLACK
6
CONTINUOUS
10
0.392759
20
0.633747
11
0.375302
21
0.651204
0
LINE
8
BLACK
6
CONTINUOUS
10
0.375302
20
0.651204
11
0.374714
21
0.652044
0
LINE
8
BLACK
6
CONTINUOUS
10
0.374714
20
0.652044
11
0.374699
21
0.65222
0
LINE
8
BLACK
6
CONTINUOUS
10
0.374699
20
0.65222
11
0.374589
21
0.652358
0
LINE
8
BLACK
6
CONTINUOUS
10
0.374589
20
0.652358
11
0.372714
21
0.657982
0
LINE
8
BLACK
6
CONTINUOUS
10
0.372714
20
0.657982
11
0.372585
21
0.658855
0
LINE
8
BLACK
6
CONTINUOUS
10
0.372585
20
0.658855
11
0.372563
21
0.658916
0
LINE
8
BLACK
6
CONTINUOUS
10
0.372563
20
0.658916
11
0.372563
21
0.662666
0
LINE
8
BLACK
6
CONTINUOUS
10
0.372563
20
0.662666
11
0.372741
21
0.663675
0
LINE
8
BLACK
6
CONTINUOUS
10
0.372741
20
0.663675
11
0.372854
21
0.663811
0
LINE
8
BLACK
6
CONTINUOUS
10
0.372854
20
0.663811
11
0.372875
21
0.663986
0
LINE
8
BLACK
6
CONTINUOUS
10
0.372875
20
0.663986
11
0.374749
21
0.667736
0
LINE
8
BLACK
6
CONTINUOUS
10
0.374749
20
0.667736
11
0.375275
21
0.668445
0
LINE
8
BLACK
6
CONTINUOUS
10
0.375275
20
0.668445
11
0.375302
21
0.668503
0
LINE
8
BLACK
6
CONTINUOUS
10
0.375302
20
0.668503
11
0.377177
21
0.670378
0
LINE
8
BLACK
6
CONTINUOUS
10
0.377177
20
0.670378
11
0.3779
21
0.670884
0
LINE
8
BLACK
6
CONTINUOUS
10
0.3779
20
0.670884
11
0.377945
21
0.670931
0
LINE
8
BLACK
6
CONTINUOUS
10
0.377945
20
0.670931
11
0.381694
21
0.672806
0
LINE
8
BLACK
6
CONTINUOUS
10
0.381694
20
0.672806
11
0.382677
21
0.673098
0
LINE
8
BLACK
6
CONTINUOUS
10
0.382677
20
0.673098
11
0.382849
21
0.673057
0
LINE
8
BLACK
6
CONTINUOUS
10
0.382849
20
0.673057
11
0.383015
21
0.673117
0
LINE
8
BLACK
6
CONTINUOUS
10
0.383015
20
0.673117
11
0.392388
21
0.673117
0
LINE
8
BLACK
6
CONTINUOUS
10
0.392388
20
0.673117
11
0.393398
21
0.672939
0
LINE
8
BLACK
6
CONTINUOUS
10
0.424919
20
0.672988
11
0.425089
21
0.672999
0
LINE
8
BLACK
6
CONTINUOUS
10
0.425089
20
0.672999
11
0.425779
21
0.672491
0
LINE
8
BLACK
6
CONTINUOUS
10
0.425779
20
0.672491
11
0.426521
21
0.672063
0
LINE
8
BLACK
6
CONTINUOUS
10
0.426521
20
0.672063
11
0.426579
21
0.671903
0
LINE
8
BLACK
6
CONTINUOUS
10
0.426579
20
0.671903
11
0.426716
21
0.671803
0
LINE
8
BLACK
6
CONTINUOUS
10
0.426716
20
0.671803
11
0.430304
21
0.666421
0
LINE
8
BLACK
6
CONTINUOUS
10
0.430304
20
0.666421
11
0.433508
21
0.663218
0
LINE
8
BLACK
6
CONTINUOUS
10
0.433508
20
0.663218
11
0.436829
21
0.661557
0
LINE
8
BLACK
6
CONTINUOUS
10
0.436829
20
0.661557
11
0.437652
21
0.660946
0
LINE
8
BLACK
6
CONTINUOUS
10
0.437652
20
0.660946
11
0.438455
21
0.659093
0
LINE
8
BLACK
6
CONTINUOUS
10
0.438455
20
0.659093
11
0.43788
21
0.657157
0
LINE
8
BLACK
6
CONTINUOUS
10
0.43788
20
0.657157
11
0.436194
21
0.656044
0
LINE
8
BLACK
6
CONTINUOUS
10
0.436194
20
0.656044
11
0.434188
21
0.656275
0
LINE
8
BLACK
6
CONTINUOUS
10
0.434188
20
0.656275
11
0.430438
21
0.65815
0
LINE
8
BLACK
6
CONTINUOUS
10
0.430438
20
0.65815
11
0.429729
21
0.658676
0
LINE
8
BLACK
6
CONTINUOUS
10
0.429729
20
0.658676
11
0.429671
21
0.658703
0
LINE
8
BLACK
6
CONTINUOUS
10
0.429671
20
0.658703
11
0.427212
21
0.661161
0
LINE
8
BLACK
6
CONTINUOUS
10
0.427212
20
0.661161
11
0.427212
21
0.633747
0
LINE
8
BLACK
6
CONTINUOUS
10
0.427212
20
0.633747
11
0.435508
21
0.633747
0
LINE
8
BLACK
6
CONTINUOUS
10
0.435508
20
0.633747
11
0.436518
21
0.633569
0
LINE
8
BLACK
6
CONTINUOUS
10
0.436518
20
0.633569
11
0.438065
21
0.632271
0
LINE
8
BLACK
6
CONTINUOUS
10
0.438065
20
0.632271
11
0.438416
21
0.630282
0
LINE
8
BLACK
6
CONTINUOUS
10
0.438416
20
0.630282
11
0.437406
21
0.628533
0
LINE
8
BLACK
6
CONTINUOUS
10
0.437406
20
0.628533
11
0.435508
21
0.627842
0
LINE
8
BLACK
6
CONTINUOUS
10
0.435508
20
0.627842
11
0.413011
21
0.627842
0
LINE
8
BLACK
6
CONTINUOUS
10
0.413011
20
0.627842
11
0.412001
21
0.62802
0
LINE
8
BLACK
6
CONTINUOUS
10
0.412001
20
0.62802
11
0.410454
21
0.629318
0
LINE
8
BLACK
6
CONTINUOUS
10
0.410454
20
0.629318
11
0.410103
21
0.631307
0
LINE
8
BLACK
6
CONTINUOUS
10
0.410103
20
0.631307
11
0.411113
21
0.633056
0
LINE
8
BLACK
6
CONTINUOUS
10
0.411113
20
0.633056
11
0.413011
21
0.633747
0
LINE
8
BLACK
6
CONTINUOUS
10
0.413011
20
0.633747
11
0.421307
21
0.633747
0
LINE
8
BLACK
6
CONTINUOUS
10
0.421307
20
0.633747
11
0.421307
21
0.670165
0
LINE
8
BLACK
6
CONTINUOUS
10
0.421307
20
0.670165
11
0.421485
21
0.671175
0
LINE
8
BLACK
6
CONTINUOUS
10
0.421485
20
0.671175
11
0.421594
21
0.671305
0
LINE
8
BLACK
6
CONTINUOUS
10
0.421594
20
0.671305
11
0.421613
21
0.671473
0
LINE
8
BLACK
6
CONTINUOUS
10
0.421613
20
0.671473
11
0.422232
21
0.672065
0
LINE
8
BLACK
6
CONTINUOUS
10
0.422232
20
0.672065
11
0.422783
21
0.672722
0
LINE
8
BLACK
6
CONTINUOUS
10
0.422783
20
0.672722
11
0.42295
21
0.672751
0
LINE
8
BLACK
6
CONTINUOUS
10
0.42295
20
0.672751
11
0.423073
21
0.672869
0
LINE
8
BLACK
6
CONTINUOUS
10
0.423073
20
0.672869
11
0.423928
21
0.672924
0
LINE
8
BLACK
6
CONTINUOUS
10
0.423928
20
0.672924
11
0.424772
21
0.673073
0
LINE
8
BLACK
6
CONTINUOUS
10
0.424772
20
0.673073
11
0.424919
21
0.672988
0
LINE
8
BLACK
6
CONTINUOUS
10
0.473387
20
0.67305
11
0.473516
21
0.673073
0
LINE
8
BLACK
6
CONTINUOUS
10
0.473516
20
0.673073
11
0.47363
21
0.673007
0
LINE
8
BLACK
6
CONTINUOUS
10
0.47363
20
0.673007
11
0.474013
21
0.672939
0
LINE
8
BLACK
6
CONTINUOUS
10
0.474013
20
0.672939
11
0.474601
21
0.672446
0
LINE
8
BLACK
6
CONTINUOUS
10
0.474601
20
0.672446
11
0.475265
21
0.672063
0
LINE
8
BLACK
6
CONTINUOUS
10
0.475265
20
0.672063
11
0.475356
21
0.671812
0
LINE
8
BLACK
6
CONTINUOUS
10
0.475356
20
0.671812
11
0.475561
21
0.671641
0
LINE
8
BLACK
6
CONTINUOUS
10
0.475561
20
0.671641
11
0.475694
21
0.670885
0
LINE
8
BLACK
6
CONTINUOUS
10
0.475694
20
0.670885
11
0.475956
21
0.670165
0
LINE
8
BLACK
6
CONTINUOUS
10
0.475956
20
0.670165
11
0.475956
21
0.630795
0
LINE
8
BLACK
6
CONTINUOUS
10
0.475956
20
0.630795
11
0.475778
21
0.629785
0
LINE
8
BLACK
6
CONTINUOUS
10
0.475778
20
0.629785
11
0.47448
21
0.628237
0
LINE
8
BLACK
6
CONTINUOUS
10
0.47448
20
0.628237
11
0.472491
21
0.627887
0
LINE
8
BLACK
6
CONTINUOUS
10
0.472491
20
0.627887
11
0.470741
21
0.628897
0
LINE
8
BLACK
6
CONTINUOUS
10
0.470741
20
0.628897
11
0.470051
21
0.630795
0
LINE
8
BLACK
6
CONTINUOUS
10
0.470051
20
0.630795
11
0.470051
21
0.646589
0
LINE
8
BLACK
6
CONTINUOUS
10
0.470051
20
0.646589
11
0.465167
21
0.646589
0
LINE
8
BLACK
6
CONTINUOUS
10
0.465167
20
0.646589
11
0.452925
21
0.629101
0
LINE
8
BLACK
6
CONTINUOUS
10
0.452925
20
0.629101
11
0.4522
21
0.628376
0
LINE
8
BLACK
6
CONTINUOUS
10
0.4522
20
0.628376
11
0.450249
21
0.627853
0
LINE
8
BLACK
6
CONTINUOUS
10
0.450249
20
0.627853
11
0.448419
21
0.628706
0
LINE
8
BLACK
6
CONTINUOUS
10
0.448419
20
0.628706
11
0.447565
21
0.630537
0
LINE
8
BLACK
6
CONTINUOUS
10
0.447565
20
0.630537
11
0.448087
21
0.632488
0
LINE
8
BLACK
6
CONTINUOUS
10
0.448087
20
0.632488
11
0.457963
21
0.646597
0
LINE
8
BLACK
6
CONTINUOUS
10
0.457963
20
0.646597
11
0.456995
21
0.646768
0
LINE
8
BLACK
6
CONTINUOUS
10
0.456995
20
0.646768
11
0.45686
21
0.646881
0
LINE
8
BLACK
6
CONTINUOUS
10
0.45686
20
0.646881
11
0.456685
21
0.646901
0
LINE
8
BLACK
6
CONTINUOUS
10
0.456685
20
0.646901
11
0.452935
21
0.648776
0
LINE
8
BLACK
6
CONTINUOUS
10
0.452935
20
0.648776
11
0.452226
21
0.649302
0
LINE
8
BLACK
6
CONTINUOUS
10
0.452226
20
0.649302
11
0.452168
21
0.649329
0
LINE
8
BLACK
6
CONTINUOUS
10
0.452168
20
0.649329
11
0.450293
21
0.651204
0
LINE
8
BLACK
6
CONTINUOUS
10
0.450293
20
0.651204
11
0.449787
21
0.651927
0
LINE
8
BLACK
6
CONTINUOUS
10
0.449787
20
0.651927
11
0.44974
21
0.651971
0
LINE
8
BLACK
6
CONTINUOUS
10
0.44974
20
0.651971
11
0.447865
21
0.655721
0
LINE
8
BLACK
6
CONTINUOUS
10
0.447865
20
0.655721
11
0.447573
21
0.656704
0
LINE
8
BLACK
6
CONTINUOUS
10
0.447573
20
0.656704
11
0.447614
21
0.656875
0
LINE
8
BLACK
6
CONTINUOUS
10
0.447614
20
0.656875
11
0.447553
21
0.657041
0
LINE
8
BLACK
6
CONTINUOUS
10
0.447553
20
0.657041
11
0.447553
21
0.662666
0
LINE
8
BLACK
6
CONTINUOUS
10
0.447553
20
0.662666
11
0.447731
21
0.663675
0
LINE
8
BLACK
6
CONTINUOUS
10
0.447731
20
0.663675
11
0.447845
21
0.663811
0
LINE
8
BLACK
6
CONTINUOUS
10
0.447845
20
0.663811
11
0.447865
21
0.663986
0
LINE
8
BLACK
6
CONTINUOUS
10
0.447865
20
0.663986
11
0.44974
21
0.667736
0
LINE
8
BLACK
6
CONTINUOUS
10
0.44974
20
0.667736
11
0.450266
21
0.668445
0
LINE
8
BLACK
6
CONTINUOUS
10
0.450266
20
0.668445
11
0.450293
21
0.668503
0
LINE
8
BLACK
6
CONTINUOUS
10
0.450293
20
0.668503
11
0.452168
21
0.670378
0
LINE
8
BLACK
6
CONTINUOUS
10
0.452168
20
0.670378
11
0.452891
21
0.670884
0
LINE
8
BLACK
6
CONTINUOUS
10
0.452891
20
0.670884
11
0.452935
21
0.670931
0
LINE
8
BLACK
6
CONTINUOUS
10
0.452935
20
0.670931
11
0.456685
21
0.672806
0
LINE
8
BLACK
6
CONTINUOUS
10
0.456685
20
0.672806
11
0.457668
21
0.673098
0
LINE
8
BLACK
6
CONTINUOUS
10
0.457668
20
0.673098
11
0.457839
21
0.673057
0
LINE
8
BLACK
6
CONTINUOUS
10
0.457839
20
0.673057
11
0.458005
21
0.673117
0
LINE
8
BLACK
6
CONTINUOUS
10
0.458005
20
0.673117
11
0.473003
21
0.673117
0
LINE
8
BLACK
6
CONTINUOUS
10
0.473003
20
0.673117
11
0.473387
21
0.67305
0
LINE
8
BLACK
6
CONTINUOUS
10
0.456005
20
0.665863
11
0.454808
21
0.664666
0
LINE
8
BLACK
6
CONTINUOUS
10
0.454808
20
0.664666
11
0.453459
21
0.661969
0
LINE
8
BLACK
6
CONTINUOUS
10
0.453459
20
0.661969
11
0.453459
21
0.657738
0
LINE
8
BLACK
6
CONTINUOUS
10
0.453459
20
0.657738
11
0.454808
21
0.655041
0
LINE
8
BLACK
6
CONTINUOUS
10
0.454808
20
0.655041
11
0.456005
21
0.653844
0
LINE
8
BLACK
6
CONTINUOUS
10
0.456005
20
0.653844
11
0.458702
21
0.652495
0
LINE
8
BLACK
6
CONTINUOUS
10
0.458702
20
0.652495
11
0.470051
21
0.652495
0
LINE
8
BLACK
6
CONTINUOUS
10
0.470051
20
0.652495
11
0.470051
21
0.667212
0
LINE
8
BLACK
6
CONTINUOUS
10
0.470051
20
0.667212
11
0.458702
21
0.667212
0
LINE
8
BLACK
6
CONTINUOUS
10
0.458702
20
0.667212
11
0.456005
21
0.665863
0
LINE
8
BLACK
6
CONTINUOUS
10
0.707843
20
0.664683
11
0.708956
21
0.662997
0
LINE
8
BLACK
6
CONTINUOUS
10
0.708956
20
0.662997
11
0.708725
21
0.660991
0
LINE
8
BLACK
6
CONTINUOUS
10
0.708725
20
0.660991
11
0.70685
21
0.657241
0
LINE
8
BLACK
6
CONTINUOUS
10
0.70685
20
0.657241
11
0.706324
21
0.656532
0
LINE
8
BLACK
6
CONTINUOUS
10
0.706324
20
0.656532
11
0.706297
21
0.656474
0
LINE
8
BLACK
6
CONTINUOUS
10
0.706297
20
0.656474
11
0.703839
21
0.654015
0
LINE
8
BLACK
6
CONTINUOUS
10
0.703839
20
0.654015
11
0.731253
21
0.654015
0
LINE
8
BLACK
6
CONTINUOUS
10
0.731253
20
0.654015
11
0.731253
21
0.662311
0
LINE
8
BLACK
6
CONTINUOUS
10
0.731253
20
0.662311
11
0.731431
21
0.663321
0
LINE
8
BLACK
6
CONTINUOUS
10
0.731431
20
0.663321
11
0.732729
21
0.664868
0
LINE
8
BLACK
6
CONTINUOUS
10
0.732729
20
0.664868
11
0.734718
21
0.665219
0
LINE
8
BLACK
6
CONTINUOUS
10
0.734718
20
0.665219
11
0.736467
21
0.664209
0
LINE
8
BLACK
6
CONTINUOUS
10
0.736467
20
0.664209
11
0.737158
21
0.662311
0
LINE
8
BLACK
6
CONTINUOUS
10
0.737158
20
0.662311
11
0.737158
21
0.639814
0
LINE
8
BLACK
6
CONTINUOUS
10
0.737158
20
0.639814
11
0.73698
21
0.638804
0
LINE
8
BLACK
6
CONTINUOUS
10
0.73698
20
0.638804
11
0.735682
21
0.637257
0
LINE
8
BLACK
6
CONTINUOUS
10
0.735682
20
0.637257
11
0.733693
21
0.636906
0
LINE
8
BLACK
6
CONTINUOUS
10
0.733693
20
0.636906
11
0.731944
21
0.637916
0
LINE
8
BLACK
6
CONTINUOUS
10
0.731944
20
0.637916
11
0.731253
21
0.639814
0
LINE
8
BLACK
6
CONTINUOUS
10
0.731253
20
0.639814
11
0.731253
21
0.64811
0
LINE
8
BLACK
6
CONTINUOUS
10
0.731253
20
0.64811
11
0.694835
21
0.64811
0
LINE
8
BLACK
6
CONTINUOUS
10
0.694835
20
0.64811
11
0.693825
21
0.648288
0
LINE
8
BLACK
6
CONTINUOUS
10
0.693825
20
0.648288
11
0.693695
21
0.648397
0
LINE
8
BLACK
6
CONTINUOUS
10
0.693695
20
0.648397
11
0.693527
21
0.648416
0
LINE
8
BLACK
6
CONTINUOUS
10
0.693527
20
0.648416
11
0.692935
21
0.649035
0
LINE
8
BLACK
6
CONTINUOUS
10
0.692935
20
0.649035
11
0.692278
21
0.649586
0
LINE
8
BLACK
6
CONTINUOUS
10
0.692278
20
0.649586
11
0.692249
21
0.649754
0
LINE
8
BLACK
6
CONTINUOUS
10
0.692249
20
0.649754
11
0.692131
21
0.649876
0
LINE
8
BLACK
6
CONTINUOUS
10
0.692131
20
0.649876
11
0.692076
21
0.650731
0
LINE
8
BLACK
6
CONTINUOUS
10
0.692076
20
0.650731
11
0.691927
21
0.651575
0
LINE
8
BLACK
6
CONTINUOUS
10
0.691927
20
0.651575
11
0.692012
21
0.651722
0
LINE
8
BLACK
6
CONTINUOUS
10
0.692012
20
0.651722
11
0.692001
21
0.651892
0
LINE
8
BLACK
6
CONTINUOUS
10
0.692001
20
0.651892
11
0.692509
21
0.652582
0
LINE
8
BLACK
6
CONTINUOUS
10
0.692509
20
0.652582
11
0.692937
21
0.653325
0
LINE
8
BLACK
6
CONTINUOUS
10
0.692937
20
0.653325
11
0.693097
21
0.653383
0
LINE
8
BLACK
6
CONTINUOUS
10
0.693097
20
0.653383
11
0.693197
21
0.653519
0
LINE
8
BLACK
6
CONTINUOUS
10
0.693197
20
0.653519
11
0.698579
21
0.657107
0
LINE
8
BLACK
6
CONTINUOUS
10
0.698579
20
0.657107
11
0.701782
21
0.660311
0
LINE
8
BLACK
6
CONTINUOUS
10
0.701782
20
0.660311
11
0.703443
21
0.663632
0
LINE
8
BLACK
6
CONTINUOUS
10
0.703443
20
0.663632
11
0.704054
21
0.664455
0
LINE
8
BLACK
6
CONTINUOUS
10
0.704054
20
0.664455
11
0.705907
21
0.665259
0
LINE
8
BLACK
6
CONTINUOUS
10
0.705907
20
0.665259
11
0.707843
21
0.664683
0
LINE
8
BLACK
6
CONTINUOUS
10
0.305821
20
0.661213
11
0.306398
21
0.659821
0
LINE
8
BLACK
6
CONTINUOUS
10
0.306398
20
0.659821
11
0.306398
21
0.641139
0
LINE
8
BLACK
6
CONTINUOUS
10
0.306398
20
0.641139
11
0.305821
21
0.639748
0
LINE
8
BLACK
6
CONTINUOUS
10
0.305821
20
0.639748
11
0.304429
21
0.639171
0
LINE
8
BLACK
6
CONTINUOUS
10
0.304429
20
0.639171
11
0.303037
21
0.639748
0
LINE
8
BLACK
6
CONTINUOUS
10
0.303037
20
0.639748
11
0.302461
21
0.641139
0
LINE
8
BLACK
6
CONTINUOUS
10
0.302461
20
0.641139
11
0.302461
21
0.659821
0
LINE
8
BLACK
6
CONTINUOUS
10
0.302461
20
0.659821
11
0.303037
21
0.661213
0
LINE
8
BLACK
6
CONTINUOUS
10
0.303037
20
0.661213
11
0.304429
21
0.66179
0
LINE
8
BLACK
6
CONTINUOUS
10
0.304429
20
0.66179
11
0.305821
21
0.661213
0
LINE
8
BLACK
6
CONTINUOUS
10
0.346963
20
0.661213
11
0.347539
21
0.659821
0
LINE
8
BLACK
6
CONTINUOUS
10
0.347539
20
0.659821
11
0.347539
21
0.641139
0
LINE
8
BLACK
6
CONTINUOUS
10
0.347539
20
0.641139
11
0.346963
21
0.639748
0
LINE
8
BLACK
6
CONTINUOUS
10
0.346963
20
0.639748
11
0.345571
21
0.639171
0
LINE
8
BLACK
6
CONTINUOUS
10
0.345571
20
0.639171
11
0.344179
21
0.639748
0
LINE
8
BLACK
6
CONTINUOUS
10
0.344179
20
0.639748
11
0.343602
21
0.641139
0
LINE
8
BLACK
6
CONTINUOUS
10
0.343602
20
0.641139
11
0.343602
21
0.659821
0
LINE
8
BLACK
6
CONTINUOUS
10
0.343602
20
0.659821
11
0.344179
21
0.661213
0
LINE
8
BLACK
6
CONTINUOUS
10
0.344179
20
0.661213
11
0.345571
21
0.66179
0
LINE
8
BLACK
6
CONTINUOUS
10
0.345571
20
0.66179
11
0.346963
21
0.661213
0
LINE
8
BLACK
6
CONTINUOUS
10
0.640821
20
0.662733
11
0.641398
21
0.661341
0
LINE
8
BLACK
6
CONTINUOUS
10
0.641398
20
0.661341
11
0.641398
21
0.642659
0
LINE
8
BLACK
6
CONTINUOUS
10
0.641398
20
0.642659
11
0.640821
21
0.641267
0
LINE
8
BLACK
6
CONTINUOUS
10
0.640821
20
0.641267
11
0.639429
21
0.640691
0
LINE
8
BLACK
6
CONTINUOUS
10
0.639429
20
0.640691
11
0.638037
21
0.641267
0
LINE
8
BLACK
6
CONTINUOUS
10
0.638037
20
0.641267
11
0.637461
21
0.642659
0
LINE
8
BLACK
6
CONTINUOUS
10
0.637461
20
0.642659
11
0.637461
21
0.661341
0
LINE
8
BLACK
6
CONTINUOUS
10
0.637461
20
0.661341
11
0.638037
21
0.662733
0
LINE
8
BLACK
6
CONTINUOUS
10
0.638037
20
0.662733
11
0.639429
21
0.663309
0
LINE
8
BLACK
6
CONTINUOUS
10
0.639429
20
0.663309
11
0.640821
21
0.662733
0
LINE
8
BLACK
6
CONTINUOUS
10
0.681963
20
0.662733
11
0.682539
21
0.661341
0
LINE
8
BLACK
6
CONTINUOUS
10
0.682539
20
0.661341
11
0.682539
21
0.642659
0
LINE
8
BLACK
6
CONTINUOUS
10
0.682539
20
0.642659
11
0.681963
21
0.641267
0
LINE
8
BLACK
6
CONTINUOUS
10
0.681963
20
0.641267
11
0.680571
21
0.640691
0
LINE
8
BLACK
6
CONTINUOUS
10
0.680571
20
0.640691
11
0.679179
21
0.641267
0
LINE
8
BLACK
6
CONTINUOUS
10
0.679179
20
0.641267
11
0.678602
21
0.642659
0
LINE
8
BLACK
6
CONTINUOUS
10
0.678602
20
0.642659
11
0.678602
21
0.661341
0
LINE
8
BLACK
6
CONTINUOUS
10
0.678602
20
0.661341
11
0.679179
21
0.662733
0
LINE
8
BLACK
6
CONTINUOUS
10
0.679179
20
0.662733
11
0.680571
21
0.663309
0
LINE
8
BLACK
6
CONTINUOUS
10
0.680571
20
0.663309
11
0.681963
21
0.662733
0
LINE
8
BLACK
6
CONTINUOUS
10
0.288956
20
0.684581
11
0.290503
21
0.683283
0
LINE
8
BLACK
6
CONTINUOUS
10
0.290503
20
0.683283
11
0.290854
21
0.681294
0
LINE
8
BLACK
6
CONTINUOUS
10
0.290854
20
0.681294
11
0.289844
21
0.679545
0
LINE
8
BLACK
6
CONTINUOUS
10
0.289844
20
0.679545
11
0.287946
21
0.678854
0
LINE
8
BLACK
6
CONTINUOUS
10
0.287946
20
0.678854
11
0.272151
21
0.678854
0
LINE
8
BLACK
6
CONTINUOUS
10
0.272151
20
0.678854
11
0.272151
21
0.67397
0
LINE
8
BLACK
6
CONTINUOUS
10
0.272151
20
0.67397
11
0.289639
21
0.661728
0
LINE
8
BLACK
6
CONTINUOUS
10
0.289639
20
0.661728
11
0.290364
21
0.661003
0
LINE
8
BLACK
6
CONTINUOUS
10
0.290364
20
0.661003
11
0.290887
21
0.659052
0
LINE
8
BLACK
6
CONTINUOUS
10
0.290887
20
0.659052
11
0.290034
21
0.657222
0
LINE
8
BLACK
6
CONTINUOUS
10
0.290034
20
0.657222
11
0.288203
21
0.656368
0
LINE
8
BLACK
6
CONTINUOUS
10
0.288203
20
0.656368
11
0.286252
21
0.65689
0
LINE
8
BLACK
6
CONTINUOUS
10
0.286252
20
0.65689
11
0.272143
21
0.666767
0
LINE
8
BLACK
6
CONTINUOUS
10
0.272143
20
0.666767
11
0.271973
21
0.665799
0
LINE
8
BLACK
6
CONTINUOUS
10
0.271973
20
0.665799
11
0.271859
21
0.665663
0
LINE
8
BLACK
6
CONTINUOUS
10
0.271859
20
0.665663
11
0.271839
21
0.665488
0
LINE
8
BLACK
6
CONTINUOUS
10
0.271839
20
0.665488
11
0.269964
21
0.661738
0
LINE
8
BLACK
6
CONTINUOUS
10
0.269964
20
0.661738
11
0.269438
21
0.661029
0
LINE
8
BLACK
6
CONTINUOUS
10
0.269438
20
0.661029
11
0.269411
21
0.660971
0
LINE
8
BLACK
6
CONTINUOUS
10
0.269411
20
0.660971
11
0.267536
21
0.659096
0
LINE
8
BLACK
6
CONTINUOUS
10
0.267536
20
0.659096
11
0.266813
21
0.65859
0
LINE
8
BLACK
6
CONTINUOUS
10
0.266813
20
0.65859
11
0.266769
21
0.658543
0
LINE
8
BLACK
6
CONTINUOUS
10
0.266769
20
0.658543
11
0.263019
21
0.656668
0
LINE
8
BLACK
6
CONTINUOUS
10
0.263019
20
0.656668
11
0.262036
21
0.656376
0
LINE
8
BLACK
6
CONTINUOUS
10
0.262036
20
0.656376
11
0.261865
21
0.656417
0
LINE
8
BLACK
6
CONTINUOUS
10
0.261865
20
0.656417
11
0.261699
21
0.656357
0
LINE
8
BLACK
6
CONTINUOUS
10
0.261699
20
0.656357
11
0.256075
21
0.656357
0
LINE
8
BLACK
6
CONTINUOUS
10
0.256075
20
0.656357
11
0.255065
21
0.656535
0
LINE
8
BLACK
6
CONTINUOUS
10
0.255065
20
0.656535
11
0.254929
21
0.656648
0
LINE
8
BLACK
6
CONTINUOUS
10
0.254929
20
0.656648
11
0.254754
21
0.656668
0
LINE
8
BLACK
6
CONTINUOUS
10
0.254754
20
0.656668
11
0.251005
21
0.658543
0
LINE
8
BLACK
6
CONTINUOUS
10
0.251005
20
0.658543
11
0.250295
21
0.659069
0
LINE
8
BLACK
6
CONTINUOUS
10
0.250295
20
0.659069
11
0.250237
21
0.659096
0
LINE
8
BLACK
6
CONTINUOUS
10
0.250237
20
0.659096
11
0.248362
21
0.660971
0
LINE
8
BLACK
6
CONTINUOUS
10
0.248362
20
0.660971
11
0.247856
21
0.661694
0
LINE
8
BLACK
6
CONTINUOUS
10
0.247856
20
0.661694
11
0.247809
21
0.661738
0
LINE
8
BLACK
6
CONTINUOUS
10
0.247809
20
0.661738
11
0.245935
21
0.665488
0
LINE
8
BLACK
6
CONTINUOUS
10
0.245935
20
0.665488
11
0.245642
21
0.666471
0
LINE
8
BLACK
6
CONTINUOUS
10
0.245642
20
0.666471
11
0.245683
21
0.666643
0
LINE
8
BLACK
6
CONTINUOUS
10
0.245683
20
0.666643
11
0.245623
21
0.666808
0
LINE
8
BLACK
6
CONTINUOUS
10
0.245623
20
0.666808
11
0.245623
21
0.681807
0
LINE
8
BLACK
6
CONTINUOUS
10
0.245623
20
0.681807
11
0.24569
21
0.68219
0
LINE
8
BLACK
6
CONTINUOUS
10
0.24569
20
0.68219
11
0.245668
21
0.682319
0
LINE
8
BLACK
6
CONTINUOUS
10
0.245668
20
0.682319
11
0.245733
21
0.682433
0
LINE
8
BLACK
6
CONTINUOUS
10
0.245733
20
0.682433
11
0.245801
21
0.682816
0
LINE
8
BLACK
6
CONTINUOUS
10
0.245801
20
0.682816
11
0.246294
21
0.683404
0
LINE
8
BLACK
6
CONTINUOUS
10
0.246294
20
0.683404
11
0.246678
21
0.684068
0
LINE
8
BLACK
6
CONTINUOUS
10
0.246678
20
0.684068
11
0.246928
21
0.68416
0
LINE
8
BLACK
6
CONTINUOUS
10
0.246928
20
0.68416
11
0.247099
21
0.684364
0
LINE
8
BLACK
6
CONTINUOUS
10
0.247099
20
0.684364
11
0.247855
21
0.684497
0
LINE
8
BLACK
6
CONTINUOUS
10
0.247855
20
0.684497
11
0.248576
21
0.684759
0
LINE
8
BLACK
6
CONTINUOUS
10
0.248576
20
0.684759
11
0.287946
21
0.684759
0
LINE
8
BLACK
6
CONTINUOUS
10
0.287946
20
0.684759
11
0.288956
21
0.684581
0
LINE
8
BLACK
6
CONTINUOUS
10
0.251528
20
0.667506
11
0.252877
21
0.664808
0
LINE
8
BLACK
6
CONTINUOUS
10
0.252877
20
0.664808
11
0.254074
21
0.663611
0
LINE
8
BLACK
6
CONTINUOUS
10
0.254074
20
0.663611
11
0.256772
21
0.662262
0
LINE
8
BLACK
6
CONTINUOUS
10
0.256772
20
0.662262
11
0.261002
21
0.662262
0
LINE
8
BLACK
6
CONTINUOUS
10
0.261002
20
0.662262
11
0.263699
21
0.663611
0
LINE
8
BLACK
6
CONTINUOUS
10
0.263699
20
0.663611
11
0.264896
21
0.664808
0
LINE
8
BLACK
6
CONTINUOUS
10
0.264896
20
0.664808
11
0.266245
21
0.667505
0
LINE
8
BLACK
6
CONTINUOUS
10
0.266245
20
0.667505
11
0.266245
21
0.678854
0
LINE
8
BLACK
6
CONTINUOUS
10
0.266245
20
0.678854
11
0.251528
21
0.678854
0
LINE
8
BLACK
6
CONTINUOUS
10
0.251528
20
0.678854
11
0.251528
21
0.667506
0
LINE
8
BLACK
6
CONTINUOUS
10
0.735215
20
0.702581
11
0.736763
21
0.701283
0
LINE
8
BLACK
6
CONTINUOUS
10
0.736763
20
0.701283
11
0.737113
21
0.699294
0
LINE
8
BLACK
6
CONTINUOUS
10
0.737113
20
0.699294
11
0.736103
21
0.697545
0
LINE
8
BLACK
6
CONTINUOUS
10
0.736103
20
0.697545
11
0.734205
21
0.696854
0
LINE
8
BLACK
6
CONTINUOUS
10
0.734205
20
0.696854
11
0.718411
21
0.696854
0
LINE
8
BLACK
6
CONTINUOUS
10
0.718411
20
0.696854
11
0.718411
21
0.69197
0
LINE
8
BLACK
6
CONTINUOUS
10
0.718411
20
0.69197
11
0.735899
21
0.679728
0
LINE
8
BLACK
6
CONTINUOUS
10
0.735899
20
0.679728
11
0.736624
21
0.679003
0
LINE
8
BLACK
6
CONTINUOUS
10
0.736624
20
0.679003
11
0.737147
21
0.677052
0
LINE
8
BLACK
6
CONTINUOUS
10
0.737147
20
0.677052
11
0.736294
21
0.675222
0
LINE
8
BLACK
6
CONTINUOUS
10
0.736294
20
0.675222
11
0.734463
21
0.674368
0
LINE
8
BLACK
6
CONTINUOUS
10
0.734463
20
0.674368
11
0.732512
21
0.67489
0
LINE
8
BLACK
6
CONTINUOUS
10
0.732512
20
0.67489
11
0.718403
21
0.684767
0
LINE
8
BLACK
6
CONTINUOUS
10
0.718403
20
0.684767
11
0.718232
21
0.683799
0
LINE
8
BLACK
6
CONTINUOUS
10
0.718232
20
0.683799
11
0.718119
21
0.683663
0
LINE
8
BLACK
6
CONTINUOUS
10
0.718119
20
0.683663
11
0.718099
21
0.683488
0
LINE
8
BLACK
6
CONTINUOUS
10
0.718099
20
0.683488
11
0.716224
21
0.679738
0
LINE
8
BLACK
6
CONTINUOUS
10
0.716224
20
0.679738
11
0.715698
21
0.679029
0
LINE
8
BLACK
6
CONTINUOUS
10
0.715698
20
0.679029
11
0.715671
21
0.678971
0
LINE
8
BLACK
6
CONTINUOUS
10
0.715671
20
0.678971
11
0.713796
21
0.677096
0
LINE
8
BLACK
6
CONTINUOUS
10
0.713796
20
0.677096
11
0.713073
21
0.67659
0
LINE
8
BLACK
6
CONTINUOUS
10
0.713073
20
0.67659
11
0.713029
21
0.676543
0
LINE
8
BLACK
6
CONTINUOUS
10
0.713029
20
0.676543
11
0.709279
21
0.674668
0
LINE
8
BLACK
6
CONTINUOUS
10
0.709279
20
0.674668
11
0.708296
21
0.674376
0
LINE
8
BLACK
6
CONTINUOUS
10
0.708296
20
0.674376
11
0.708125
21
0.674417
0
LINE
8
BLACK
6
CONTINUOUS
10
0.708125
20
0.674417
11
0.707959
21
0.674357
0
LINE
8
BLACK
6
CONTINUOUS
10
0.707959
20
0.674357
11
0.702334
21
0.674357
0
LINE
8
BLACK
6
CONTINUOUS
10
0.702334
20
0.674357
11
0.701325
21
0.674535
0
LINE
8
BLACK
6
CONTINUOUS
10
0.701325
20
0.674535
11
0.701189
21
0.674648
0
LINE
8
BLACK
6
CONTINUOUS
10
0.701189
20
0.674648
11
0.701014
21
0.674668
0
LINE
8
BLACK
6
CONTINUOUS
10
0.701014
20
0.674668
11
0.697264
21
0.676543
0
LINE
8
BLACK
6
CONTINUOUS
10
0.697264
20
0.676543
11
0.696555
21
0.677069
0
LINE
8
BLACK
6
CONTINUOUS
10
0.696555
20
0.677069
11
0.696497
21
0.677096
0
LINE
8
BLACK
6
CONTINUOUS
10
0.696497
20
0.677096
11
0.694622
21
0.678971
0
LINE
8
BLACK
6
CONTINUOUS
10
0.694622
20
0.678971
11
0.694116
21
0.679694
0
LINE
8
BLACK
6
CONTINUOUS
10
0.694116
20
0.679694
11
0.694069
21
0.679738
0
LINE
8
BLACK
6
CONTINUOUS
10
0.694069
20
0.679738
11
0.692194
21
0.683488
0
LINE
8
BLACK
6
CONTINUOUS
10
0.692194
20
0.683488
11
0.691902
21
0.684471
0
LINE
8
BLACK
6
CONTINUOUS
10
0.691902
20
0.684471
11
0.691943
21
0.684643
0
LINE
8
BLACK
6
CONTINUOUS
10
0.691943
20
0.684643
11
0.691883
21
0.684808
0
LINE
8
BLACK
6
CONTINUOUS
10
0.691883
20
0.684808
11
0.691883
21
0.699807
0
LINE
8
BLACK
6
CONTINUOUS
10
0.691883
20
0.699807
11
0.69195
21
0.70019
0
LINE
8
BLACK
6
CONTINUOUS
10
0.69195
20
0.70019
11
0.691927
21
0.700319
0
LINE
8
BLACK
6
CONTINUOUS
10
0.691927
20
0.700319
11
0.691993
21
0.700433
0
LINE
8
BLACK
6
CONTINUOUS
10
0.691993
20
0.700433
11
0.692061
21
0.700816
0
LINE
8
BLACK
6
CONTINUOUS
10
0.692061
20
0.700816
11
0.692554
21
0.701404
0
LINE
8
BLACK
6
CONTINUOUS
10
0.692554
20
0.701404
11
0.692937
21
0.702068
0
LINE
8
BLACK
6
CONTINUOUS
10
0.692937
20
0.702068
11
0.693188
21
0.70216
0
LINE
8
BLACK
6
CONTINUOUS
10
0.693188
20
0.70216
11
0.693359
21
0.702364
0
LINE
8
BLACK
6
CONTINUOUS
10
0.693359
20
0.702364
11
0.694115
21
0.702497
0
LINE
8
BLACK
6
CONTINUOUS
10
0.694115
20
0.702497
11
0.694835
21
0.702759
0
LINE
8
BLACK
6
CONTINUOUS
10
0.694835
20
0.702759
11
0.734205
21
0.702759
0
LINE
8
BLACK
6
CONTINUOUS
10
0.734205
20
0.702759
11
0.735215
21
0.702581
0
LINE
8
BLACK
6
CONTINUOUS
10
0.697788
20
0.685505
11
0.699137
21
0.682808
0
LINE
8
BLACK
6
CONTINUOUS
10
0.699137
20
0.682808
11
0.700334
21
0.681611
0
LINE
8
BLACK
6
CONTINUOUS
10
0.700334
20
0.681611
11
0.703031
21
0.680262
0
LINE
8
BLACK
6
CONTINUOUS
10
0.703031
20
0.680262
11
0.707262
21
0.680262
0
LINE
8
BLACK
6
CONTINUOUS
10
0.707262
20
0.680262
11
0.709959
21
0.681611
0
LINE
8
BLACK
6
CONTINUOUS
10
0.709959
20
0.681611
11
0.711156
21
0.682808
0
LINE
8
BLACK
6
CONTINUOUS
10
0.711156
20
0.682808
11
0.712505
21
0.685506
0
LINE
8
BLACK
6
CONTINUOUS
10
0.712505
20
0.685506
11
0.712505
21
0.696854
0
LINE
8
BLACK
6
CONTINUOUS
10
0.712505
20
0.696854
11
0.697788
21
0.696854
0
LINE
8
BLACK
6
CONTINUOUS
10
0.697788
20
0.696854
11
0.697788
21
0.685505
0
LINE
8
BLACK
6
CONTINUOUS
10
0.43593
20
0.685821
11
0.436506
21
0.684429
0
LINE
8
BLACK
6
CONTINUOUS
10
0.436506
20
0.684429
11
0.43593
21
0.683037
0
LINE
8
BLACK
6
CONTINUOUS
10
0.43593
20
0.683037
11
0.434538
21
0.682461
0
LINE
8
BLACK
6
CONTINUOUS
10
0.434538
20
0.682461
11
0.415856
21
0.682461
0
LINE
8
BLACK
6
CONTINUOUS
10
0.415856
20
0.682461
11
0.414464
21
0.683037
0
LINE
8
BLACK
6
CONTINUOUS
10
0.414464
20
0.683037
11
0.413887
21
0.684429
0
LINE
8
BLACK
6
CONTINUOUS
10
0.413887
20
0.684429
11
0.414464
21
0.685821
0
LINE
8
BLACK
6
CONTINUOUS
10
0.414464
20
0.685821
11
0.415856
21
0.686398
0
LINE
8
BLACK
6
CONTINUOUS
10
0.415856
20
0.686398
11
0.434538
21
0.686398
0
LINE
8
BLACK
6
CONTINUOUS
10
0.434538
20
0.686398
11
0.43593
21
0.685821
0
LINE
8
BLACK
6
CONTINUOUS
10
0.569788
20
0.685821
11
0.570364
21
0.684429
0
LINE
8
BLACK
6
CONTINUOUS
10
0.570364
20
0.684429
11
0.569788
21
0.683037
0
LINE
8
BLACK
6
CONTINUOUS
10
0.569788
20
0.683037
11
0.568396
21
0.682461
0
LINE
8
BLACK
6
CONTINUOUS
10
0.568396
20
0.682461
11
0.549714
21
0.682461
0
LINE
8
BLACK
6
CONTINUOUS
10
0.549714
20
0.682461
11
0.548322
21
0.683037
0
LINE
8
BLACK
6
CONTINUOUS
10
0.548322
20
0.683037
11
0.547746
21
0.684429
0
LINE
8
BLACK
6
CONTINUOUS
10
0.547746
20
0.684429
11
0.548322
21
0.685821
0
LINE
8
BLACK
6
CONTINUOUS
10
0.548322
20
0.685821
11
0.549714
21
0.686398
0
LINE
8
BLACK
6
CONTINUOUS
10
0.549714
20
0.686398
11
0.568396
21
0.686398
0
LINE
8
BLACK
6
CONTINUOUS
10
0.568396
20
0.686398
11
0.569788
21
0.685821
0
LINE
8
BLACK
6
CONTINUOUS
10
0.43593
20
0.726963
11
0.436506
21
0.725571
0
LINE
8
BLACK
6
CONTINUOUS
10
0.436506
20
0.725571
11
0.43593
21
0.724179
0
LINE
8
BLACK
6
CONTINUOUS
10
0.43593
20
0.724179
11
0.434538
21
0.723602
0
LINE
8
BLACK
6
CONTINUOUS
10
0.434538
20
0.723602
11
0.415856
21
0.723602
0
LINE
8
BLACK
6
CONTINUOUS
10
0.415856
20
0.723602
11
0.414464
21
0.724179
0
LINE
8
BLACK
6
CONTINUOUS
10
0.414464
20
0.724179
11
0.413887
21
0.725571
0
LINE
8
BLACK
6
CONTINUOUS
10
0.413887
20
0.725571
11
0.414464
21
0.726963
0
LINE
8
BLACK
6
CONTINUOUS
10
0.414464
20
0.726963
11
0.415856
21
0.727539
0
LINE
8
BLACK
6
CONTINUOUS
10
0.415856
20
0.727539
11
0.434538
21
0.727539
0
LINE
8
BLACK
6
CONTINUOUS
10
0.434538
20
0.727539
11
0.43593
21
0.726963
0
LINE
8
BLACK
6
CONTINUOUS
10
0.569788
20
0.726963
11
0.570364
21
0.725571
0
LINE
8
BLACK
6
CONTINUOUS
10
0.570364
20
0.725571
11
0.569788
21
0.724179
0
LINE
8
BLACK
6
CONTINUOUS
10
0.569788
20
0.724179
11
0.568396
21
0.723602
0
LINE
8
BLACK
6
CONTINUOUS
10
0.568396
20
0.723602
11
0.549714
21
0.723602
0
LINE
8
BLACK
6
CONTINUOUS
10
0.549714
20
0.723602
11
0.548322
21
0.724179
0
LINE
8
BLACK
6
CONTINUOUS
10
0.548322
20
0.724179
11
0.547746
21
0.725571
0
LINE
8
BLACK
6
CONTINUOUS
10
0.547746
20
0.725571
11
0.548322
21
0.726963
0
LINE
8
BLACK
6
CONTINUOUS
10
0.548322
20
0.726963
11
0.549714
21
0.727539
0
LINE
8
BLACK
6
CONTINUOUS
10
0.549714
20
0.727539
11
0.568396
21
0.727539
0
LINE
8
BLACK
6
CONTINUOUS
10
0.568396
20
0.727539
11
0.569788
21
0.726963
0
LINE
8
BLACK
6
CONTINUOUS
10
0.284945
20
0.751384
11
0.28682
21
0.749509
0
LINE
8
BLACK
6
CONTINUOUS
10
0.28682
20
0.749509
11
0.287327
21
0.748786
0
LINE
8
BLACK
6
CONTINUOUS
10
0.287327
20
0.748786
11
0.287373
21
0.748742
0
LINE
8
BLACK
6
CONTINUOUS
10
0.287373
20
0.748742
11
0.289248
21
0.744992
0
LINE
8
BLACK
6
CONTINUOUS
10
0.289248
20
0.744992
11
0.28954
21
0.74401
0
LINE
8
BLACK
6
CONTINUOUS
10
0.28954
20
0.74401
11
0.289499
21
0.743838
0
LINE
8
BLACK
6
CONTINUOUS
10
0.289499
20
0.743838
11
0.28956
21
0.743672
0
LINE
8
BLACK
6
CONTINUOUS
10
0.28956
20
0.743672
11
0.28956
21
0.734298
0
LINE
8
BLACK
6
CONTINUOUS
10
0.28956
20
0.734298
11
0.289382
21
0.733288
0
LINE
8
BLACK
6
CONTINUOUS
10
0.289382
20
0.733288
11
0.289268
21
0.733153
0
LINE
8
BLACK
6
CONTINUOUS
10
0.289268
20
0.733153
11
0.289248
21
0.732978
0
LINE
8
BLACK
6
CONTINUOUS
10
0.289248
20
0.732978
11
0.287373
21
0.729228
0
LINE
8
BLACK
6
CONTINUOUS
10
0.287373
20
0.729228
11
0.286847
21
0.728519
0
LINE
8
BLACK
6
CONTINUOUS
10
0.286847
20
0.728519
11
0.28682
21
0.728461
0
LINE
8
BLACK
6
CONTINUOUS
10
0.28682
20
0.728461
11
0.284945
21
0.726586
0
LINE
8
BLACK
6
CONTINUOUS
10
0.284945
20
0.726586
11
0.284222
21
0.72608
0
LINE
8
BLACK
6
CONTINUOUS
10
0.284222
20
0.72608
11
0.284178
21
0.726033
0
LINE
8
BLACK
6
CONTINUOUS
10
0.284178
20
0.726033
11
0.280428
21
0.724158
0
LINE
8
BLACK
6
CONTINUOUS
10
0.280428
20
0.724158
11
0.279446
21
0.723866
0
LINE
8
BLACK
6
CONTINUOUS
10
0.279446
20
0.723866
11
0.279274
21
0.723907
0
LINE
8
BLACK
6
CONTINUOUS
10
0.279274
20
0.723907
11
0.279108
21
0.723846
0
LINE
8
BLACK
6
CONTINUOUS
10
0.279108
20
0.723846
11
0.269734
21
0.723846
0
LINE
8
BLACK
6
CONTINUOUS
10
0.269734
20
0.723846
11
0.268724
21
0.724024
0
LINE
8
BLACK
6
CONTINUOUS
10
0.268724
20
0.724024
11
0.268589
21
0.724138
0
LINE
8
BLACK
6
CONTINUOUS
10
0.268589
20
0.724138
11
0.268414
21
0.724158
0
LINE
8
BLACK
6
CONTINUOUS
10
0.268414
20
0.724158
11
0.264664
21
0.726033
0
LINE
8
BLACK
6
CONTINUOUS
10
0.264664
20
0.726033
11
0.263955
21
0.726559
0
LINE
8
BLACK
6
CONTINUOUS
10
0.263955
20
0.726559
11
0.263897
21
0.726586
0
LINE
8
BLACK
6
CONTINUOUS
10
0.263897
20
0.726586
11
0.262022
21
0.728461
0
LINE
8
BLACK
6
CONTINUOUS
10
0.262022
20
0.728461
11
0.261516
21
0.729184
0
LINE
8
BLACK
6
CONTINUOUS
10
0.261516
20
0.729184
11
0.261469
21
0.729228
0
LINE
8
BLACK
6
CONTINUOUS
10
0.261469
20
0.729228
11
0.259594
21
0.732978
0
LINE
8
BLACK
6
CONTINUOUS
10
0.259594
20
0.732978
11
0.259302
21
0.733961
0
LINE
8
BLACK
6
CONTINUOUS
10
0.259302
20
0.733961
11
0.259343
21
0.734132
0
LINE
8
BLACK
6
CONTINUOUS
10
0.259343
20
0.734132
11
0.259282
21
0.734298
0
LINE
8
BLACK
6
CONTINUOUS
10
0.259282
20
0.734298
11
0.259282
21
0.743672
0
LINE
8
BLACK
6
CONTINUOUS
10
0.259282
20
0.743672
11
0.25946
21
0.744682
0
LINE
8
BLACK
6
CONTINUOUS
10
0.25946
20
0.744682
11
0.259574
21
0.744817
0
LINE
8
BLACK
6
CONTINUOUS
10
0.259574
20
0.744817
11
0.259594
21
0.744992
0
LINE
8
BLACK
6
CONTINUOUS
10
0.259594
20
0.744992
11
0.259961
21
0.745726
0
LINE
8
BLACK
6
CONTINUOUS
10
0.259961
20
0.745726
11
0.25019
21
0.744749
0
LINE
8
BLACK
6
CONTINUOUS
10
0.25019
20
0.744749
11
0.25019
21
0.728674
0
LINE
8
BLACK
6
CONTINUOUS
10
0.25019
20
0.728674
11
0.250012
21
0.727664
0
LINE
8
BLACK
6
CONTINUOUS
10
0.250012
20
0.727664
11
0.248713
21
0.726117
0
LINE
8
BLACK
6
CONTINUOUS
10
0.248713
20
0.726117
11
0.246724
21
0.725766
0
LINE
8
BLACK
6
CONTINUOUS
10
0.246724
20
0.725766
11
0.244975
21
0.726776
0
LINE
8
BLACK
6
CONTINUOUS
10
0.244975
20
0.726776
11
0.244284
21
0.728674
0
LINE
8
BLACK
6
CONTINUOUS
10
0.244284
20
0.728674
11
0.244284
21
0.747421
0
LINE
8
BLACK
6
CONTINUOUS
10
0.244284
20
0.747421
11
0.244311
21
0.747575
0
LINE
8
BLACK
6
CONTINUOUS
10
0.244311
20
0.747575
11
0.244292
21
0.747642
0
LINE
8
BLACK
6
CONTINUOUS
10
0.244292
20
0.747642
11
0.244343
21
0.747754
0
LINE
8
BLACK
6
CONTINUOUS
10
0.244343
20
0.747754
11
0.244462
21
0.748431
0
LINE
8
BLACK
6
CONTINUOUS
10
0.244462
20
0.748431
11
0.244865
21
0.748912
0
LINE
8
BLACK
6
CONTINUOUS
10
0.244865
20
0.748912
11
0.245123
21
0.749483
0
LINE
8
BLACK
6
CONTINUOUS
10
0.245123
20
0.749483
11
0.245495
21
0.749662
0
LINE
8
BLACK
6
CONTINUOUS
10
0.245495
20
0.749662
11
0.245761
21
0.749979
0
LINE
8
BLACK
6
CONTINUOUS
10
0.245761
20
0.749979
11
0.246378
21
0.750088
0
LINE
8
BLACK
6
CONTINUOUS
10
0.246378
20
0.750088
11
0.246943
21
0.75036
0
LINE
8
BLACK
6
CONTINUOUS
10
0.246943
20
0.75036
11
0.265691
21
0.752234
0
LINE
8
BLACK
6
CONTINUOUS
10
0.265691
20
0.752234
11
0.266713
21
0.752158
0
LINE
8
BLACK
6
CONTINUOUS
10
0.266713
20
0.752158
11
0.266729
21
0.752147
0
LINE
8
BLACK
6
CONTINUOUS
10
0.266729
20
0.752147
11
0.266749
21
0.752148
0
LINE
8
BLACK
6
CONTINUOUS
10
0.266749
20
0.752148
11
0.267561
21
0.75158
0
LINE
8
BLACK
6
CONTINUOUS
10
0.267561
20
0.75158
11
0.268382
21
0.75102
0
LINE
8
BLACK
6
CONTINUOUS
10
0.268382
20
0.75102
11
0.268387
21
0.751001
0
LINE
8
BLACK
6
CONTINUOUS
10
0.268387
20
0.751001
11
0.268403
21
0.75099
0
LINE
8
BLACK
6
CONTINUOUS
10
0.268403
20
0.75099
11
0.26866
21
0.750031
0
LINE
8
BLACK
6
CONTINUOUS
10
0.26866
20
0.750031
11
0.268929
21
0.749075
0
LINE
8
BLACK
6
CONTINUOUS
10
0.268929
20
0.749075
11
0.268921
21
0.749058
0
LINE
8
BLACK
6
CONTINUOUS
10
0.268921
20
0.749058
11
0.268926
21
0.749039
0
LINE
8
BLACK
6
CONTINUOUS
10
0.268926
20
0.749039
11
0.268507
21
0.748141
0
LINE
8
BLACK
6
CONTINUOUS
10
0.268507
20
0.748141
11
0.268098
21
0.747234
0
LINE
8
BLACK
6
CONTINUOUS
10
0.268098
20
0.747234
11
0.268081
21
0.747226
0
LINE
8
BLACK
6
CONTINUOUS
10
0.268081
20
0.747226
11
0.268073
21
0.747208
0
LINE
8
BLACK
6
CONTINUOUS
10
0.268073
20
0.747208
11
0.266537
21
0.745672
0
LINE
8
BLACK
6
CONTINUOUS
10
0.266537
20
0.745672
11
0.265188
21
0.742975
0
LINE
8
BLACK
6
CONTINUOUS
10
0.265188
20
0.742975
11
0.265188
21
0.734995
0
LINE
8
BLACK
6
CONTINUOUS
10
0.265188
20
0.734995
11
0.266537
21
0.732298
0
LINE
8
BLACK
6
CONTINUOUS
10
0.266537
20
0.732298
11
0.267734
21
0.731101
0
LINE
8
BLACK
6
CONTINUOUS
10
0.267734
20
0.731101
11
0.270431
21
0.729752
0
LINE
8
BLACK
6
CONTINUOUS
10
0.270431
20
0.729752
11
0.278411
21
0.729752
0
LINE
8
BLACK
6
CONTINUOUS
10
0.278411
20
0.729752
11
0.281108
21
0.731101
0
LINE
8
BLACK
6
CONTINUOUS
10
0.281108
20
0.731101
11
0.282306
21
0.732298
0
LINE
8
BLACK
6
CONTINUOUS
10
0.282306
20
0.732298
11
0.283654
21
0.734995
0
LINE
8
BLACK
6
CONTINUOUS
10
0.283654
20
0.734995
11
0.283654
21
0.742975
0
LINE
8
BLACK
6
CONTINUOUS
10
0.283654
20
0.742975
11
0.282306
21
0.745672
0
LINE
8
BLACK
6
CONTINUOUS
10
0.282306
20
0.745672
11
0.28077
21
0.747208
0
LINE
8
BLACK
6
CONTINUOUS
10
0.28077
20
0.747208
11
0.280181
21
0.748048
0
LINE
8
BLACK
6
CONTINUOUS
10
0.280181
20
0.748048
11
0.280005
21
0.75006
0
LINE
8
BLACK
6
CONTINUOUS
10
0.280005
20
0.75006
11
0.281164
21
0.751715
0
LINE
8
BLACK
6
CONTINUOUS
10
0.281164
20
0.751715
11
0.283115
21
0.752238
0
LINE
8
BLACK
6
CONTINUOUS
10
0.283115
20
0.752238
11
0.284945
21
0.751384
0
LINE
8
BLACK
6
CONTINUOUS
10
0.197244
20
0.818307
11
0.198636
21
0.817731
0
LINE
8
BLACK
6
CONTINUOUS
10
0.198636
20
0.817731
11
0.199213
21
0.816339
0
LINE
8
BLACK
6
CONTINUOUS
10
0.199213
20
0.816339
11
0.199213
21
0.745472
0
LINE
8
BLACK
6
CONTINUOUS
10
0.199213
20
0.745472
11
0.198636
21
0.744081
0
LINE
8
BLACK
6
CONTINUOUS
10
0.198636
20
0.744081
11
0.197244
21
0.743504
0
LINE
8
BLACK
6
CONTINUOUS
10
0.197244
20
0.743504
11
0.195852
21
0.744081
0
LINE
8
BLACK
6
CONTINUOUS
10
0.195852
20
0.744081
11
0.195276
21
0.745472
0
LINE
8
BLACK
6
CONTINUOUS
10
0.195276
20
0.745472
11
0.195276
21
0.81437
0
LINE
8
BLACK
6
CONTINUOUS
10
0.195276
20
0.81437
11
0.140157
21
0.81437
0
LINE
8
BLACK
6
CONTINUOUS
10
0.140157
20
0.81437
11
0.138766
21
0.814947
0
LINE
8
BLACK
6
CONTINUOUS
10
0.138766
20
0.814947
11
0.138189
21
0.816339
0
LINE
8
BLACK
6
CONTINUOUS
10
0.138189
20
0.816339
11
0.138766
21
0.817731
0
LINE
8
BLACK
6
CONTINUOUS
10
0.138766
20
0.817731
11
0.140157
21
0.818307
0
LINE
8
BLACK
6
CONTINUOUS
10
0.140157
20
0.818307
11
0.197244
21
0.818307
0
LINE
8
BLACK
6
CONTINUOUS
10
0.845486
20
0.817731
11
0.846063
21
0.816339
0
LINE
8
BLACK
6
CONTINUOUS
10
0.846063
20
0.816339
11
0.845486
21
0.814947
0
LINE
8
BLACK
6
CONTINUOUS
10
0.845486
20
0.814947
11
0.844094
21
0.81437
0
LINE
8
BLACK
6
CONTINUOUS
10
0.844094
20
0.81437
11
0.788976
21
0.81437
0
LINE
8
BLACK
6
CONTINUOUS
10
0.788976
20
0.81437
11
0.788976
21
0.745472
0
LINE
8
BLACK
6
CONTINUOUS
10
0.788976
20
0.745472
11
0.7884
21
0.744081
0
LINE
8
BLACK
6
CONTINUOUS
10
0.7884
20
0.744081
11
0.787008
21
0.743504
0
LINE
8
BLACK
6
CONTINUOUS
10
0.787008
20
0.743504
11
0.748031
21
0.743504
0
LINE
8
BLACK
6
CONTINUOUS
10
0.748031
20
0.743504
11
0.74664
21
0.744081
0
LINE
8
BLACK
6
CONTINUOUS
10
0.74664
20
0.744081
11
0.746063
21
0.745472
0
LINE
8
BLACK
6
CONTINUOUS
10
0.746063
20
0.745472
11
0.74664
21
0.746864
0
LINE
8
BLACK
6
CONTINUOUS
10
0.74664
20
0.746864
11
0.748031
21
0.747441
0
LINE
8
BLACK
6
CONTINUOUS
10
0.748031
20
0.747441
11
0.785039
21
0.747441
0
LINE
8
BLACK
6
CONTINUOUS
10
0.785039
20
0.747441
11
0.785039
21
0.816339
0
LINE
8
BLACK
6
CONTINUOUS
10
0.785039
20
0.816339
11
0.785616
21
0.817731
0
LINE
8
BLACK
6
CONTINUOUS
10
0.785616
20
0.817731
11
0.787008
21
0.818307
0
LINE
8
BLACK
6
CONTINUOUS
10
0.787008
20
0.818307
11
0.844094
21
0.818307
0
LINE
8
BLACK
6
CONTINUOUS
10
0.844094
20
0.818307
11
0.845486
21
0.817731
0
LINE
8
BLACK
6
CONTINUOUS
10
0.711629
20
0.772338
11
0.711764
21
0.772225
0
LINE
8
BLACK
6
CONTINUOUS
10
0.711764
20
0.772225
11
0.711939
21
0.772205
0
LINE
8
BLACK
6
CONTINUOUS
10
0.711939
20
0.772205
11
0.715689
21
0.77033
0
LINE
8
BLACK
6
CONTINUOUS
10
0.715689
20
0.77033
11
0.716398
21
0.769804
0
LINE
8
BLACK
6
CONTINUOUS
10
0.716398
20
0.769804
11
0.716456
21
0.769777
0
LINE
8
BLACK
6
CONTINUOUS
10
0.716456
20
0.769777
11
0.718118
21
0.768115
0
LINE
8
BLACK
6
CONTINUOUS
10
0.718118
20
0.768115
11
0.719779
21
0.769777
0
LINE
8
BLACK
6
CONTINUOUS
10
0.719779
20
0.769777
11
0.720502
21
0.770283
0
LINE
8
BLACK
6
CONTINUOUS
10
0.720502
20
0.770283
11
0.720547
21
0.77033
0
LINE
8
BLACK
6
CONTINUOUS
10
0.720547
20
0.77033
11
0.724296
21
0.772205
0
LINE
8
BLACK
6
CONTINUOUS
10
0.724296
20
0.772205
11
0.725279
21
0.772497
0
LINE
8
BLACK
6
CONTINUOUS
10
0.725279
20
0.772497
11
0.725451
21
0.772456
0
LINE
8
BLACK
6
CONTINUOUS
10
0.725451
20
0.772456
11
0.725617
21
0.772516
0
LINE
8
BLACK
6
CONTINUOUS
10
0.725617
20
0.772516
11
0.733116
21
0.772516
0
LINE
8
BLACK
6
CONTINUOUS
10
0.733116
20
0.772516
11
0.734126
21
0.772338
0
LINE
8
BLACK
6
CONTINUOUS
10
0.734126
20
0.772338
11
0.734261
21
0.772225
0
LINE
8
BLACK
6
CONTINUOUS
10
0.734261
20
0.772225
11
0.734436
21
0.772205
0
LINE
8
BLACK
6
CONTINUOUS
10
0.734436
20
0.772205
11
0.738186
21
0.77033
0
LINE
8
BLACK
6
CONTINUOUS
10
0.738186
20
0.77033
11
0.738895
21
0.769804
0
LINE
8
BLACK
6
CONTINUOUS
10
0.738895
20
0.769804
11
0.738953
21
0.769777
0
LINE
8
BLACK
6
CONTINUOUS
10
0.738953
20
0.769777
11
0.740828
21
0.767902
0
LINE
8
BLACK
6
CONTINUOUS
10
0.740828
20
0.767902
11
0.741334
21
0.767179
0
LINE
8
BLACK
6
CONTINUOUS
10
0.741334
20
0.767179
11
0.741381
21
0.767135
0
LINE
8
BLACK
6
CONTINUOUS
10
0.741381
20
0.767135
11
0.743256
21
0.763385
0
LINE
8
BLACK
6
CONTINUOUS
10
0.743256
20
0.763385
11
0.743548
21
0.762402
0
LINE
8
BLACK
6
CONTINUOUS
10
0.743548
20
0.762402
11
0.743507
21
0.76223
0
LINE
8
BLACK
6
CONTINUOUS
10
0.743507
20
0.76223
11
0.743568
21
0.762064
0
LINE
8
BLACK
6
CONTINUOUS
10
0.743568
20
0.762064
11
0.743568
21
0.754565
0
LINE
8
BLACK
6
CONTINUOUS
10
0.743568
20
0.754565
11
0.74339
21
0.753556
0
LINE
8
BLACK
6
CONTINUOUS
10
0.74339
20
0.753556
11
0.743276
21
0.75342
0
LINE
8
BLACK
6
CONTINUOUS
10
0.743276
20
0.75342
11
0.743256
21
0.753245
0
LINE
8
BLACK
6
CONTINUOUS
10
0.743256
20
0.753245
11
0.741381
21
0.749495
0
LINE
8
BLACK
6
CONTINUOUS
10
0.741381
20
0.749495
11
0.740855
21
0.748786
0
LINE
8
BLACK
6
CONTINUOUS
10
0.740855
20
0.748786
11
0.740828
21
0.748728
0
LINE
8
BLACK
6
CONTINUOUS
10
0.740828
20
0.748728
11
0.738953
21
0.746853
0
LINE
8
BLACK
6
CONTINUOUS
10
0.738953
20
0.746853
11
0.73823
21
0.746347
0
LINE
8
BLACK
6
CONTINUOUS
10
0.73823
20
0.746347
11
0.738186
21
0.7463
0
LINE
8
BLACK
6
CONTINUOUS
10
0.738186
20
0.7463
11
0.734436
21
0.744425
0
LINE
8
BLACK
6
CONTINUOUS
10
0.734436
20
0.744425
11
0.733453
21
0.744133
0
LINE
8
BLACK
6
CONTINUOUS
10
0.733453
20
0.744133
11
0.733282
21
0.744174
0
LINE
8
BLACK
6
CONTINUOUS
10
0.733282
20
0.744174
11
0.733116
21
0.744114
0
LINE
8
BLACK
6
CONTINUOUS
10
0.733116
20
0.744114
11
0.725617
21
0.744114
0
LINE
8
BLACK
6
CONTINUOUS
10
0.725617
20
0.744114
11
0.724607
21
0.744292
0
LINE
8
BLACK
6
CONTINUOUS
10
0.724607
20
0.744292
11
0.724472
21
0.744405
0
LINE
8
BLACK
6
CONTINUOUS
10
0.724472
20
0.744405
11
0.724296
21
0.744425
0
LINE
8
BLACK
6
CONTINUOUS
10
0.724296
20
0.744425
11
0.720547
21
0.7463
0
LINE
8
BLACK
6
CONTINUOUS
10
0.720547
20
0.7463
11
0.719838
21
0.746826
0
LINE
8
BLACK
6
CONTINUOUS
10
0.719838
20
0.746826
11
0.719779
21
0.746853
0
LINE
8
BLACK
6
CONTINUOUS
10
0.719779
20
0.746853
11
0.718118
21
0.748515
0
LINE
8
BLACK
6
CONTINUOUS
10
0.718118
20
0.748515
11
0.716456
21
0.746853
0
LINE
8
BLACK
6
CONTINUOUS
10
0.716456
20
0.746853
11
0.715733
21
0.746347
0
LINE
8
BLACK
6
CONTINUOUS
10
0.715733
20
0.746347
11
0.715689
21
0.7463
0
LINE
8
BLACK
6
CONTINUOUS
10
0.715689
20
0.7463
11
0.711939
21
0.744425
0
LINE
8
BLACK
6
CONTINUOUS
10
0.711939
20
0.744425
11
0.710956
21
0.744133
0
LINE
8
BLACK
6
CONTINUOUS
10
0.710956
20
0.744133
11
0.710785
21
0.744174
0
LINE
8
BLACK
6
CONTINUOUS
10
0.710785
20
0.744174
11
0.710619
21
0.744114
0
LINE
8
BLACK
6
CONTINUOUS
10
0.710619
20
0.744114
11
0.708744
21
0.744114
0
LINE
8
BLACK
6
CONTINUOUS
10
0.708744
20
0.744114
11
0.707734
21
0.744292
0
LINE
8
BLACK
6
CONTINUOUS
10
0.707734
20
0.744292
11
0.707599
21
0.744405
0
LINE
8
BLACK
6
CONTINUOUS
10
0.707599
20
0.744405
11
0.707423
21
0.744425
0
LINE
8
BLACK
6
CONTINUOUS
10
0.707423
20
0.744425
11
0.703674
21
0.7463
0
LINE
8
BLACK
6
CONTINUOUS
10
0.703674
20
0.7463
11
0.702965
21
0.746826
0
LINE
8
BLACK
6
CONTINUOUS
10
0.702965
20
0.746826
11
0.702906
21
0.746853
0
LINE
8
BLACK
6
CONTINUOUS
10
0.702906
20
0.746853
11
0.701032
21
0.748728
0
LINE
8
BLACK
6
CONTINUOUS
10
0.701032
20
0.748728
11
0.700525
21
0.749451
0
LINE
8
BLACK
6
CONTINUOUS
10
0.700525
20
0.749451
11
0.700479
21
0.749495
0
LINE
8
BLACK
6
CONTINUOUS
10
0.700479
20
0.749495
11
0.698604
21
0.753245
0
LINE
8
BLACK
6
CONTINUOUS
10
0.698604
20
0.753245
11
0.698311
21
0.754228
0
LINE
8
BLACK
6
CONTINUOUS
10
0.698311
20
0.754228
11
0.698352
21
0.7544
0
LINE
8
BLACK
6
CONTINUOUS
10
0.698352
20
0.7544
11
0.698292
21
0.754565
0
LINE
8
BLACK
6
CONTINUOUS
10
0.698292
20
0.754565
11
0.698292
21
0.762064
0
LINE
8
BLACK
6
CONTINUOUS
10
0.698292
20
0.762064
11
0.69847
21
0.763074
0
LINE
8
BLACK
6
CONTINUOUS
10
0.69847
20
0.763074
11
0.698584
21
0.76321
0
LINE
8
BLACK
6
CONTINUOUS
10
0.698584
20
0.76321
11
0.698604
21
0.763385
0
LINE
8
BLACK
6
CONTINUOUS
10
0.698604
20
0.763385
11
0.700479
21
0.767135
0
LINE
8
BLACK
6
CONTINUOUS
10
0.700479
20
0.767135
11
0.701004
21
0.767844
0
LINE
8
BLACK
6
CONTINUOUS
10
0.701004
20
0.767844
11
0.701032
21
0.767902
0
LINE
8
BLACK
6
CONTINUOUS
10
0.701032
20
0.767902
11
0.702906
21
0.769777
0
LINE
8
BLACK
6
CONTINUOUS
10
0.702906
20
0.769777
11
0.70363
21
0.770283
0
LINE
8
BLACK
6
CONTINUOUS
10
0.70363
20
0.770283
11
0.703674
21
0.77033
0
LINE
8
BLACK
6
CONTINUOUS
10
0.703674
20
0.77033
11
0.707423
21
0.772205
0
LINE
8
BLACK
6
CONTINUOUS
10
0.707423
20
0.772205
11
0.708406
21
0.772497
0
LINE
8
BLACK
6
CONTINUOUS
10
0.708406
20
0.772497
11
0.708578
21
0.772456
0
LINE
8
BLACK
6
CONTINUOUS
10
0.708578
20
0.772456
11
0.708744
21
0.772516
0
LINE
8
BLACK
6
CONTINUOUS
10
0.708744
20
0.772516
11
0.710619
21
0.772516
0
LINE
8
BLACK
6
CONTINUOUS
10
0.710619
20
0.772516
11
0.711629
21
0.772338
0
LINE
8
BLACK
6
CONTINUOUS
10
0.706743
20
0.765262
11
0.705546
21
0.764065
0
LINE
8
BLACK
6
CONTINUOUS
10
0.705546
20
0.764065
11
0.704198
21
0.761367
0
LINE
8
BLACK
6
CONTINUOUS
10
0.704198
20
0.761367
11
0.704198
21
0.755262
0
LINE
8
BLACK
6
CONTINUOUS
10
0.704198
20
0.755262
11
0.705546
21
0.752565
0
LINE
8
BLACK
6
CONTINUOUS
10
0.705546
20
0.752565
11
0.706743
21
0.751368
0
LINE
8
BLACK
6
CONTINUOUS
10
0.706743
20
0.751368
11
0.709441
21
0.750019
0
LINE
8
BLACK
6
CONTINUOUS
10
0.709441
20
0.750019
11
0.709922
21
0.750019
0
LINE
8
BLACK
6
CONTINUOUS
10
0.709922
20
0.750019
11
0.712619
21
0.751368
0
LINE
8
BLACK
6
CONTINUOUS
10
0.712619
20
0.751368
11
0.713816
21
0.752565
0
LINE
8
BLACK
6
CONTINUOUS
10
0.713816
20
0.752565
11
0.715165
21
0.755262
0
LINE
8
BLACK
6
CONTINUOUS
10
0.715165
20
0.755262
11
0.715165
21
0.761367
0
LINE
8
BLACK
6
CONTINUOUS
10
0.715165
20
0.761367
11
0.713816
21
0.764065
0
LINE
8
BLACK
6
CONTINUOUS
10
0.713816
20
0.764065
11
0.712619
21
0.765262
0
LINE
8
BLACK
6
CONTINUOUS
10
0.712619
20
0.765262
11
0.709922
21
0.766611
0
LINE
8
BLACK
6
CONTINUOUS
10
0.709922
20
0.766611
11
0.709441
21
0.766611
0
LINE
8
BLACK
6
CONTINUOUS
10
0.709441
20
0.766611
11
0.706743
21
0.765262
0
LINE
8
BLACK
6
CONTINUOUS
10
0.723616
20
0.765262
11
0.722419
21
0.764065
0
LINE
8
BLACK
6
CONTINUOUS
10
0.722419
20
0.764065
11
0.72107
21
0.761367
0
LINE
8
BLACK
6
CONTINUOUS
10
0.72107
20
0.761367
11
0.72107
21
0.755263
0
LINE
8
BLACK
6
CONTINUOUS
10
0.72107
20
0.755263
11
0.722419
21
0.752565
0
LINE
8
BLACK
6
CONTINUOUS
10
0.722419
20
0.752565
11
0.723616
21
0.751368
0
LINE
8
BLACK
6
CONTINUOUS
10
0.723616
20
0.751368
11
0.726314
21
0.750019
0
LINE
8
BLACK
6
CONTINUOUS
10
0.726314
20
0.750019
11
0.732419
21
0.750019
0
LINE
8
BLACK
6
CONTINUOUS
10
0.732419
20
0.750019
11
0.735116
21
0.751368
0
LINE
8
BLACK
6
CONTINUOUS
10
0.735116
20
0.751368
11
0.736313
21
0.752565
0
LINE
8
BLACK
6
CONTINUOUS
10
0.736313
20
0.752565
11
0.737662
21
0.755262
0
LINE
8
BLACK
6
CONTINUOUS
10
0.737662
20
0.755262
11
0.737662
21
0.761367
0
LINE
8
BLACK
6
CONTINUOUS
10
0.737662
20
0.761367
11
0.736313
21
0.764065
0
LINE
8
BLACK
6
CONTINUOUS
10
0.736313
20
0.764065
11
0.735116
21
0.765262
0
LINE
8
BLACK
6
CONTINUOUS
10
0.735116
20
0.765262
11
0.732419
21
0.766611
0
LINE
8
BLACK
6
CONTINUOUS
10
0.732419
20
0.766611
11
0.726314
21
0.766611
0
LINE
8
BLACK
6
CONTINUOUS
10
0.726314
20
0.766611
11
0.723616
21
0.765262
0
LINE
8
BLACK
6
CONTINUOUS
10
0.260245
20
0.789163
11
0.261357
21
0.787478
0
LINE
8
BLACK
6
CONTINUOUS
10
0.261357
20
0.787478
11
0.261127
21
0.785471
0
LINE
8
BLACK
6
CONTINUOUS
10
0.261127
20
0.785471
11
0.259252
21
0.781721
0
LINE
8
BLACK
6
CONTINUOUS
10
0.259252
20
0.781721
11
0.258726
21
0.781012
0
LINE
8
BLACK
6
CONTINUOUS
10
0.258726
20
0.781012
11
0.258699
21
0.780954
0
LINE
8
BLACK
6
CONTINUOUS
10
0.258699
20
0.780954
11
0.25624
21
0.778496
0
LINE
8
BLACK
6
CONTINUOUS
10
0.25624
20
0.778496
11
0.283654
21
0.778496
0
LINE
8
BLACK
6
CONTINUOUS
10
0.283654
20
0.778496
11
0.283654
21
0.786792
0
LINE
8
BLACK
6
CONTINUOUS
10
0.283654
20
0.786792
11
0.283832
21
0.787801
0
LINE
8
BLACK
6
CONTINUOUS
10
0.283832
20
0.787801
11
0.285131
21
0.789349
0
LINE
8
BLACK
6
CONTINUOUS
10
0.285131
20
0.789349
11
0.28712
21
0.789699
0
LINE
8
BLACK
6
CONTINUOUS
10
0.28712
20
0.789699
11
0.288869
21
0.78869
0
LINE
8
BLACK
6
CONTINUOUS
10
0.288869
20
0.78869
11
0.28956
21
0.786792
0
LINE
8
BLACK
6
CONTINUOUS
10
0.28956
20
0.786792
11
0.28956
21
0.764294
0
LINE
8
BLACK
6
CONTINUOUS
10
0.28956
20
0.764294
11
0.289382
21
0.763284
0
LINE
8
BLACK
6
CONTINUOUS
10
0.289382
20
0.763284
11
0.288083
21
0.761737
0
LINE
8
BLACK
6
CONTINUOUS
10
0.288083
20
0.761737
11
0.286094
21
0.761386
0
LINE
8
BLACK
6
CONTINUOUS
10
0.286094
20
0.761386
11
0.284345
21
0.762396
0
LINE
8
BLACK
6
CONTINUOUS
10
0.284345
20
0.762396
11
0.283654
21
0.764294
0
LINE
8
BLACK
6
CONTINUOUS
10
0.283654
20
0.764294
11
0.283654
21
0.77259
0
LINE
8
BLACK
6
CONTINUOUS
10
0.283654
20
0.77259
11
0.247237
21
0.77259
0
LINE
8
BLACK
6
CONTINUOUS
10
0.247237
20
0.77259
11
0.246227
21
0.772768
0
LINE
8
BLACK
6
CONTINUOUS
10
0.246227
20
0.772768
11
0.246097
21
0.772877
0
LINE
8
BLACK
6
CONTINUOUS
10
0.246097
20
0.772877
11
0.245928
21
0.772896
0
LINE
8
BLACK
6
CONTINUOUS
10
0.245928
20
0.772896
11
0.245336
21
0.773516
0
LINE
8
BLACK
6
CONTINUOUS
10
0.245336
20
0.773516
11
0.24468
21
0.774067
0
LINE
8
BLACK
6
CONTINUOUS
10
0.24468
20
0.774067
11
0.24465
21
0.774234
0
LINE
8
BLACK
6
CONTINUOUS
10
0.24465
20
0.774234
11
0.244533
21
0.774357
0
LINE
8
BLACK
6
CONTINUOUS
10
0.244533
20
0.774357
11
0.244478
21
0.775212
0
LINE
8
BLACK
6
CONTINUOUS
10
0.244478
20
0.775212
11
0.244329
21
0.776056
0
LINE
8
BLACK
6
CONTINUOUS
10
0.244329
20
0.776056
11
0.244414
21
0.776203
0
LINE
8
BLACK
6
CONTINUOUS
10
0.244414
20
0.776203
11
0.244403
21
0.776372
0
LINE
8
BLACK
6
CONTINUOUS
10
0.244403
20
0.776372
11
0.24491
21
0.777063
0
LINE
8
BLACK
6
CONTINUOUS
10
0.24491
20
0.777063
11
0.245339
21
0.777805
0
LINE
8
BLACK
6
CONTINUOUS
10
0.245339
20
0.777805
11
0.245498
21
0.777863
0
LINE
8
BLACK
6
CONTINUOUS
10
0.245498
20
0.777863
11
0.245599
21
0.778
0
LINE
8
BLACK
6
CONTINUOUS
10
0.245599
20
0.778
11
0.25098
21
0.781587
0
LINE
8
BLACK
6
CONTINUOUS
10
0.25098
20
0.781587
11
0.254184
21
0.784791
0
LINE
8
BLACK
6
CONTINUOUS
10
0.254184
20
0.784791
11
0.255845
21
0.788112
0
LINE
8
BLACK
6
CONTINUOUS
10
0.255845
20
0.788112
11
0.256455
21
0.788936
0
LINE
8
BLACK
6
CONTINUOUS
10
0.256455
20
0.788936
11
0.258309
21
0.789739
0
LINE
8
BLACK
6
CONTINUOUS
10
0.258309
20
0.789739
11
0.260245
21
0.789163
0
LINE
8
BLACK
6
CONTINUOUS
10
0.640821
20
0.786733
11
0.641398
21
0.785341
0
LINE
8
BLACK
6
CONTINUOUS
10
0.641398
20
0.785341
11
0.641398
21
0.766659
0
LINE
8
BLACK
6
CONTINUOUS
10
0.641398
20
0.766659
11
0.640821
21
0.765267
0
LINE
8
BLACK
6
CONTINUOUS
10
0.640821
20
0.765267
11
0.639429
21
0.764691
0
LINE
8
BLACK
6
CONTINUOUS
10
0.639429
20
0.764691
11
0.638037
21
0.765267
0
LINE
8
BLACK
6
CONTINUOUS
10
0.638037
20
0.765267
11
0.637461
21
0.766659
0
LINE
8
BLACK
6
CONTINUOUS
10
0.637461
20
0.766659
11
0.637461
21
0.785341
0
LINE
8
BLACK
6
CONTINUOUS
10
0.637461
20
0.785341
11
0.638037
21
0.786733
0
LINE
8
BLACK
6
CONTINUOUS
10
0.638037
20
0.786733
11
0.639429
21
0.787309
0
LINE
8
BLACK
6
CONTINUOUS
10
0.639429
20
0.787309
11
0.640821
21
0.786733
0
LINE
8
BLACK
6
CONTINUOUS
10
0.681963
20
0.786733
11
0.682539
21
0.785341
0
LINE
8
BLACK
6
CONTINUOUS
10
0.682539
20
0.785341
11
0.682539
21
0.766659
0
LINE
8
BLACK
6
CONTINUOUS
10
0.682539
20
0.766659
11
0.681963
21
0.765267
0
LINE
8
BLACK
6
CONTINUOUS
10
0.681963
20
0.765267
11
0.680571
21
0.764691
0
LINE
8
BLACK
6
CONTINUOUS
10
0.680571
20
0.764691
11
0.679179
21
0.765267
0
LINE
8
BLACK
6
CONTINUOUS
10
0.679179
20
0.765267
11
0.678602
21
0.766659
0
LINE
8
BLACK
6
CONTINUOUS
10
0.678602
20
0.766659
11
0.678602
21
0.785341
0
LINE
8
BLACK
6
CONTINUOUS
10
0.678602
20
0.785341
11
0.679179
21
0.786733
0
LINE
8
BLACK
6
CONTINUOUS
10
0.679179
20
0.786733
11
0.680571
21
0.787309
0
LINE
8
BLACK
6
CONTINUOUS
10
0.680571
20
0.787309
11
0.681963
21
0.786733
0
LINE
8
BLACK
6
CONTINUOUS
10
0.305821
20
0.787213
11
0.306398
21
0.785821
0
LINE
8
BLACK
6
CONTINUOUS
10
0.306398
20
0.785821
11
0.306398
21
0.767139
0
LINE
8
BLACK
6
CONTINUOUS
10
0.306398
20
0.767139
11
0.305821
21
0.765748
0
LINE
8
BLACK
6
CONTINUOUS
10
0.305821
20
0.765748
11
0.304429
21
0.765171
0
LINE
8
BLACK
6
CONTINUOUS
10
0.304429
20
0.765171
11
0.303037
21
0.765748
0
LINE
8
BLACK
6
CONTINUOUS
10
0.303037
20
0.765748
11
0.302461
21
0.767139
0
LINE
8
BLACK
6
CONTINUOUS
10
0.302461
20
0.767139
11
0.302461
21
0.785821
0
LINE
8
BLACK
6
CONTINUOUS
10
0.302461
20
0.785821
11
0.303037
21
0.787213
0
LINE
8
BLACK
6
CONTINUOUS
10
0.303037
20
0.787213
11
0.304429
21
0.78779
0
LINE
8
BLACK
6
CONTINUOUS
10
0.304429
20
0.78779
11
0.305821
21
0.787213
0
LINE
8
BLACK
6
CONTINUOUS
10
0.346963
20
0.787213
11
0.347539
21
0.785821
0
LINE
8
BLACK
6
CONTINUOUS
10
0.347539
20
0.785821
11
0.347539
21
0.767139
0
LINE
8
BLACK
6
CONTINUOUS
10
0.347539
20
0.767139
11
0.346963
21
0.765748
0
LINE
8
BLACK
6
CONTINUOUS
10
0.346963
20
0.765748
11
0.345571
21
0.765171
0
LINE
8
BLACK
6
CONTINUOUS
10
0.345571
20
0.765171
11
0.344179
21
0.765748
0
LINE
8
BLACK
6
CONTINUOUS
10
0.344179
20
0.765748
11
0.343602
21
0.767139
0
LINE
8
BLACK
6
CONTINUOUS
10
0.343602
20
0.767139
11
0.343602
21
0.785821
0
LINE
8
BLACK
6
CONTINUOUS
10
0.343602
20
0.785821
11
0.344179
21
0.787213
0
LINE
8
BLACK
6
CONTINUOUS
10
0.344179
20
0.787213
11
0.345571
21
0.78779
0
LINE
8
BLACK
6
CONTINUOUS
10
0.345571
20
0.78779
11
0.346963
21
0.787213
0
LINE
8
BLACK
6
CONTINUOUS
10
0.43593
20
0.778821
11
0.436506
21
0.777429
0
LINE
8
BLACK
6
CONTINUOUS
10
0.436506
20
0.777429
11
0.43593
21
0.776037
0
LINE
8
BLACK
6
CONTINUOUS
10
0.43593
20
0.776037
11
0.434538
21
0.775461
0
LINE
8
BLACK
6
CONTINUOUS
10
0.434538
20
0.775461
11
0.415856
21
0.775461
0
LINE
8
BLACK
6
CONTINUOUS
10
0.415856
20
0.775461
11
0.414464
21
0.776037
0
LINE
8
BLACK
6
CONTINUOUS
10
0.414464
20
0.776037
11
0.413887
21
0.777429
0
LINE
8
BLACK
6
CONTINUOUS
10
0.413887
20
0.777429
11
0.414464
21
0.778821
0
LINE
8
BLACK
6
CONTINUOUS
10
0.414464
20
0.778821
11
0.415856
21
0.779398
0
LINE
8
BLACK
6
CONTINUOUS
10
0.415856
20
0.779398
11
0.434538
21
0.779398
0
LINE
8
BLACK
6
CONTINUOUS
10
0.434538
20
0.779398
11
0.43593
21
0.778821
0
LINE
8
BLACK
6
CONTINUOUS
10
0.569788
20
0.778821
11
0.570364
21
0.777429
0
LINE
8
BLACK
6
CONTINUOUS
10
0.570364
20
0.777429
11
0.569788
21
0.776037
0
LINE
8
BLACK
6
CONTINUOUS
10
0.569788
20
0.776037
11
0.568396
21
0.775461
0
LINE
8
BLACK
6
CONTINUOUS
10
0.568396
20
0.775461
11
0.549714
21
0.775461
0
LINE
8
BLACK
6
CONTINUOUS
10
0.549714
20
0.775461
11
0.548322
21
0.776037
0
LINE
8
BLACK
6
CONTINUOUS
10
0.548322
20
0.776037
11
0.547746
21
0.777429
0
LINE
8
BLACK
6
CONTINUOUS
10
0.547746
20
0.777429
11
0.548322
21
0.778821
0
LINE
8
BLACK
6
CONTINUOUS
10
0.548322
20
0.778821
11
0.549714
21
0.779398
0
LINE
8
BLACK
6
CONTINUOUS
10
0.549714
20
0.779398
11
0.568396
21
0.779398
0
LINE
8
BLACK
6
CONTINUOUS
10
0.568396
20
0.779398
11
0.569788
21
0.778821
0
LINE
8
BLACK
6
CONTINUOUS
10
0.741625
20
0.809834
11
0.743172
21
0.808535
0
LINE
8
BLACK
6
CONTINUOUS
10
0.743172
20
0.808535
11
0.743523
21
0.806546
0
LINE
8
BLACK
6
CONTINUOUS
10
0.743523
20
0.806546
11
0.742513
21
0.804797
0
LINE
8
BLACK
6
CONTINUOUS
10
0.742513
20
0.804797
11
0.740615
21
0.804106
0
LINE
8
BLACK
6
CONTINUOUS
10
0.740615
20
0.804106
11
0.72482
21
0.804106
0
LINE
8
BLACK
6
CONTINUOUS
10
0.72482
20
0.804106
11
0.72482
21
0.799222
0
LINE
8
BLACK
6
CONTINUOUS
10
0.72482
20
0.799222
11
0.742308
21
0.786981
0
LINE
8
BLACK
6
CONTINUOUS
10
0.742308
20
0.786981
11
0.743033
21
0.786256
0
LINE
8
BLACK
6
CONTINUOUS
10
0.743033
20
0.786256
11
0.743556
21
0.784305
0
LINE
8
BLACK
6
CONTINUOUS
10
0.743556
20
0.784305
11
0.742703
21
0.782474
0
LINE
8
BLACK
6
CONTINUOUS
10
0.742703
20
0.782474
11
0.740873
21
0.78162
0
LINE
8
BLACK
6
CONTINUOUS
10
0.740873
20
0.78162
11
0.738922
21
0.782143
0
LINE
8
BLACK
6
CONTINUOUS
10
0.738922
20
0.782143
11
0.724813
21
0.792019
0
LINE
8
BLACK
6
CONTINUOUS
10
0.724813
20
0.792019
11
0.724642
21
0.791051
0
LINE
8
BLACK
6
CONTINUOUS
10
0.724642
20
0.791051
11
0.724528
21
0.790916
0
LINE
8
BLACK
6
CONTINUOUS
10
0.724528
20
0.790916
11
0.724508
21
0.79074
0
LINE
8
BLACK
6
CONTINUOUS
10
0.724508
20
0.79074
11
0.722634
21
0.786991
0
LINE
8
BLACK
6
CONTINUOUS
10
0.722634
20
0.786991
11
0.722108
21
0.786282
0
LINE
8
BLACK
6
CONTINUOUS
10
0.722108
20
0.786282
11
0.72208
21
0.786223
0
LINE
8
BLACK
6
CONTINUOUS
10
0.72208
20
0.786223
11
0.720206
21
0.784349
0
LINE
8
BLACK
6
CONTINUOUS
10
0.720206
20
0.784349
11
0.719483
21
0.783842
0
LINE
8
BLACK
6
CONTINUOUS
10
0.719483
20
0.783842
11
0.719438
21
0.783795
0
LINE
8
BLACK
6
CONTINUOUS
10
0.719438
20
0.783795
11
0.715689
21
0.781921
0
LINE
8
BLACK
6
CONTINUOUS
10
0.715689
20
0.781921
11
0.714706
21
0.781628
0
LINE
8
BLACK
6
CONTINUOUS
10
0.714706
20
0.781628
11
0.714534
21
0.781669
0
LINE
8
BLACK
6
CONTINUOUS
10
0.714534
20
0.781669
11
0.714368
21
0.781609
0
LINE
8
BLACK
6
CONTINUOUS
10
0.714368
20
0.781609
11
0.708744
21
0.781609
0
LINE
8
BLACK
6
CONTINUOUS
10
0.708744
20
0.781609
11
0.707734
21
0.781787
0
LINE
8
BLACK
6
CONTINUOUS
10
0.707734
20
0.781787
11
0.707599
21
0.781901
0
LINE
8
BLACK
6
CONTINUOUS
10
0.707599
20
0.781901
11
0.707423
21
0.781921
0
LINE
8
BLACK
6
CONTINUOUS
10
0.707423
20
0.781921
11
0.703674
21
0.783795
0
LINE
8
BLACK
6
CONTINUOUS
10
0.703674
20
0.783795
11
0.702965
21
0.784321
0
LINE
8
BLACK
6
CONTINUOUS
10
0.702965
20
0.784321
11
0.702906
21
0.784349
0
LINE
8
BLACK
6
CONTINUOUS
10
0.702906
20
0.784349
11
0.701032
21
0.786223
0
LINE
8
BLACK
6
CONTINUOUS
10
0.701032
20
0.786223
11
0.700525
21
0.786946
0
LINE
8
BLACK
6
CONTINUOUS
10
0.700525
20
0.786946
11
0.700479
21
0.786991
0
LINE
8
BLACK
6
CONTINUOUS
10
0.700479
20
0.786991
11
0.698604
21
0.79074
0
LINE
8
BLACK
6
CONTINUOUS
10
0.698604
20
0.79074
11
0.698311
21
0.791723
0
LINE
8
BLACK
6
CONTINUOUS
10
0.698311
20
0.791723
11
0.698352
21
0.791895
0
LINE
8
BLACK
6
CONTINUOUS
10
0.698352
20
0.791895
11
0.698292
21
0.792061
0
LINE
8
BLACK
6
CONTINUOUS
10
0.698292
20
0.792061
11
0.698292
21
0.807059
0
LINE
8
BLACK
6
CONTINUOUS
10
0.698292
20
0.807059
11
0.69836
21
0.807442
0
LINE
8
BLACK
6
CONTINUOUS
10
0.69836
20
0.807442
11
0.698337
21
0.807572
0
LINE
8
BLACK
6
CONTINUOUS
10
0.698337
20
0.807572
11
0.698403
21
0.807685
0
LINE
8
BLACK
6
CONTINUOUS
10
0.698403
20
0.807685
11
0.69847
21
0.808069
0
LINE
8
BLACK
6
CONTINUOUS
10
0.69847
20
0.808069
11
0.698963
21
0.808656
0
LINE
8
BLACK
6
CONTINUOUS
10
0.698963
20
0.808656
11
0.699347
21
0.809321
0
LINE
8
BLACK
6
CONTINUOUS
10
0.699347
20
0.809321
11
0.699597
21
0.809412
0
LINE
8
BLACK
6
CONTINUOUS
10
0.699597
20
0.809412
11
0.699768
21
0.809616
0
LINE
8
BLACK
6
CONTINUOUS
10
0.699768
20
0.809616
11
0.700524
21
0.809749
0
LINE
8
BLACK
6
CONTINUOUS
10
0.700524
20
0.809749
11
0.701245
21
0.810012
0
LINE
8
BLACK
6
CONTINUOUS
10
0.701245
20
0.810012
11
0.740615
21
0.810012
0
LINE
8
BLACK
6
CONTINUOUS
10
0.740615
20
0.810012
11
0.741625
21
0.809834
0
LINE
8
BLACK
6
CONTINUOUS
10
0.704198
20
0.792758
11
0.705546
21
0.79006
0
LINE
8
BLACK
6
CONTINUOUS
10
0.705546
20
0.79006
11
0.706743
21
0.788863
0
LINE
8
BLACK
6
CONTINUOUS
10
0.706743
20
0.788863
11
0.709441
21
0.787514
0
LINE
8
BLACK
6
CONTINUOUS
10
0.709441
20
0.787514
11
0.713671
21
0.787514
0
LINE
8
BLACK
6
CONTINUOUS
10
0.713671
20
0.787514
11
0.716369
21
0.788863
0
LINE
8
BLACK
6
CONTINUOUS
10
0.716369
20
0.788863
11
0.717566
21
0.79006
0
LINE
8
BLACK
6
CONTINUOUS
10
0.717566
20
0.79006
11
0.718914
21
0.792758
0
LINE
8
BLACK
6
CONTINUOUS
10
0.718914
20
0.792758
11
0.718914
21
0.804106
0
LINE
8
BLACK
6
CONTINUOUS
10
0.718914
20
0.804106
11
0.704198
21
0.804106
0
LINE
8
BLACK
6
CONTINUOUS
10
0.704198
20
0.804106
11
0.704198
21
0.792758
0
LINE
8
BLACK
6
CONTINUOUS
10
0.287617
20
0.827062
11
0.289164
21
0.825763
0
LINE
8
BLACK
6
CONTINUOUS
10
0.289164
20
0.825763
11
0.289515
21
0.823774
0
LINE
8
BLACK
6
CONTINUOUS
10
0.289515
20
0.823774
11
0.288505
21
0.822025
0
LINE
8
BLACK
6
CONTINUOUS
10
0.288505
20
0.822025
11
0.286607
21
0.821334
0
LINE
8
BLACK
6
CONTINUOUS
10
0.286607
20
0.821334
11
0.270812
21
0.821334
0
LINE
8
BLACK
6
CONTINUOUS
10
0.270812
20
0.821334
11
0.270812
21
0.81645
0
LINE
8
BLACK
6
CONTINUOUS
10
0.270812
20
0.81645
11
0.2883
21
0.804209
0
LINE
8
BLACK
6
CONTINUOUS
10
0.2883
20
0.804209
11
0.289026
21
0.803484
0
LINE
8
BLACK
6
CONTINUOUS
10
0.289026
20
0.803484
11
0.289549
21
0.801533
0
LINE
8
BLACK
6
CONTINUOUS
10
0.289549
20
0.801533
11
0.288695
21
0.799702
0
LINE
8
BLACK
6
CONTINUOUS
10
0.288695
20
0.799702
11
0.286865
21
0.798848
0
LINE
8
BLACK
6
CONTINUOUS
10
0.286865
20
0.798848
11
0.284914
21
0.799371
0
LINE
8
BLACK
6
CONTINUOUS
10
0.284914
20
0.799371
11
0.270805
21
0.809247
0
LINE
8
BLACK
6
CONTINUOUS
10
0.270805
20
0.809247
11
0.270634
21
0.808279
0
LINE
8
BLACK
6
CONTINUOUS
10
0.270634
20
0.808279
11
0.270521
21
0.808144
0
LINE
8
BLACK
6
CONTINUOUS
10
0.270521
20
0.808144
11
0.2705
21
0.807968
0
LINE
8
BLACK
6
CONTINUOUS
10
0.2705
20
0.807968
11
0.268626
21
0.804219
0
LINE
8
BLACK
6
CONTINUOUS
10
0.268626
20
0.804219
11
0.2681
21
0.80351
0
LINE
8
BLACK
6
CONTINUOUS
10
0.2681
20
0.80351
11
0.268073
21
0.803451
0
LINE
8
BLACK
6
CONTINUOUS
10
0.268073
20
0.803451
11
0.266198
21
0.801577
0
LINE
8
BLACK
6
CONTINUOUS
10
0.266198
20
0.801577
11
0.265475
21
0.80107
0
LINE
8
BLACK
6
CONTINUOUS
10
0.265475
20
0.80107
11
0.26543
21
0.801023
0
LINE
8
BLACK
6
CONTINUOUS
10
0.26543
20
0.801023
11
0.261681
21
0.799149
0
LINE
8
BLACK
6
CONTINUOUS
10
0.261681
20
0.799149
11
0.260698
21
0.798856
0
LINE
8
BLACK
6
CONTINUOUS
10
0.260698
20
0.798856
11
0.260526
21
0.798897
0
LINE
8
BLACK
6
CONTINUOUS
10
0.260526
20
0.798897
11
0.26036
21
0.798837
0
LINE
8
BLACK
6
CONTINUOUS
10
0.26036
20
0.798837
11
0.254736
21
0.798837
0
LINE
8
BLACK
6
CONTINUOUS
10
0.254736
20
0.798837
11
0.253726
21
0.799015
0
LINE
8
BLACK
6
CONTINUOUS
10
0.253726
20
0.799015
11
0.253591
21
0.799129
0
LINE
8
BLACK
6
CONTINUOUS
10
0.253591
20
0.799129
11
0.253416
21
0.799149
0
LINE
8
BLACK
6
CONTINUOUS
10
0.253416
20
0.799149
11
0.249666
21
0.801023
0
LINE
8
BLACK
6
CONTINUOUS
10
0.249666
20
0.801023
11
0.248957
21
0.801549
0
LINE
8
BLACK
6
CONTINUOUS
10
0.248957
20
0.801549
11
0.248899
21
0.801577
0
LINE
8
BLACK
6
CONTINUOUS
10
0.248899
20
0.801577
11
0.247024
21
0.803451
0
LINE
8
BLACK
6
CONTINUOUS
10
0.247024
20
0.803451
11
0.246518
21
0.804174
0
LINE
8
BLACK
6
CONTINUOUS
10
0.246518
20
0.804174
11
0.246471
21
0.804219
0
LINE
8
BLACK
6
CONTINUOUS
10
0.246471
20
0.804219
11
0.244596
21
0.807968
0
LINE
8
BLACK
6
CONTINUOUS
10
0.244596
20
0.807968
11
0.244304
21
0.808951
0
LINE
8
BLACK
6
CONTINUOUS
10
0.244304
20
0.808951
11
0.244345
21
0.809123
0
LINE
8
BLACK
6
CONTINUOUS
10
0.244345
20
0.809123
11
0.244284
21
0.809289
0
LINE
8
BLACK
6
CONTINUOUS
10
0.244284
20
0.809289
11
0.244284
21
0.824287
0
LINE
8
BLACK
6
CONTINUOUS
10
0.244284
20
0.824287
11
0.244352
21
0.82467
0
LINE
8
BLACK
6
CONTINUOUS
10
0.244352
20
0.82467
11
0.244329
21
0.8248
0
LINE
8
BLACK
6
CONTINUOUS
10
0.244329
20
0.8248
11
0.244395
21
0.824913
0
LINE
8
BLACK
6
CONTINUOUS
10
0.244395
20
0.824913
11
0.244462
21
0.825297
0
LINE
8
BLACK
6
CONTINUOUS
10
0.244462
20
0.825297
11
0.244955
21
0.825884
0
LINE
8
BLACK
6
CONTINUOUS
10
0.244955
20
0.825884
11
0.245339
21
0.826549
0
LINE
8
BLACK
6
CONTINUOUS
10
0.245339
20
0.826549
11
0.245589
21
0.82664
0
LINE
8
BLACK
6
CONTINUOUS
10
0.245589
20
0.82664
11
0.245761
21
0.826844
0
LINE
8
BLACK
6
CONTINUOUS
10
0.245761
20
0.826844
11
0.246516
21
0.826977
0
LINE
8
BLACK
6
CONTINUOUS
10
0.246516
20
0.826977
11
0.247237
21
0.82724
0
LINE
8
BLACK
6
CONTINUOUS
10
0.247237
20
0.82724
11
0.286607
21
0.82724
0
LINE
8
BLACK
6
CONTINUOUS
10
0.286607
20
0.82724
11
0.287617
21
0.827062
0
LINE
8
BLACK
6
CONTINUOUS
10
0.25019
20
0.809986
11
0.251538
21
0.807288
0
LINE
8
BLACK
6
CONTINUOUS
10
0.251538
20
0.807288
11
0.252736
21
0.806091
0
LINE
8
BLACK
6
CONTINUOUS
10
0.252736
20
0.806091
11
0.255433
21
0.804742
0
LINE
8
BLACK
6
CONTINUOUS
10
0.255433
20
0.804742
11
0.259663
21
0.804742
0
LINE
8
BLACK
6
CONTINUOUS
10
0.259663
20
0.804742
11
0.262361
21
0.806091
0
LINE
8
BLACK
6
CONTINUOUS
10
0.262361
20
0.806091
11
0.263558
21
0.807288
0
LINE
8
BLACK
6
CONTINUOUS
10
0.263558
20
0.807288
11
0.264907
21
0.809986
0
LINE
8
BLACK
6
CONTINUOUS
10
0.264907
20
0.809986
11
0.264907
21
0.821334
0
LINE
8
BLACK
6
CONTINUOUS
10
0.264907
20
0.821334
11
0.25019
21
0.821334
0
LINE
8
BLACK
6
CONTINUOUS
10
0.25019
20
0.821334
11
0.25019
21
0.809986
0
LINE
8
BLACK
6
CONTINUOUS
10
0.43593
20
0.819963
11
0.436506
21
0.818571
0
LINE
8
BLACK
6
CONTINUOUS
10
0.436506
20
0.818571
11
0.43593
21
0.817179
0
LINE
8
BLACK
6
CONTINUOUS
10
0.43593
20
0.817179
11
0.434538
21
0.816602
0
LINE
8
BLACK
6
CONTINUOUS
10
0.434538
20
0.816602
11
0.415856
21
0.816602
0
LINE
8
BLACK
6
CONTINUOUS
10
0.415856
20
0.816602
11
0.414464
21
0.817179
0
LINE
8
BLACK
6
CONTINUOUS
10
0.414464
20
0.817179
11
0.413887
21
0.818571
0
LINE
8
BLACK
6
CONTINUOUS
10
0.413887
20
0.818571
11
0.414464
21
0.819963
0
LINE
8
BLACK
6
CONTINUOUS
10
0.414464
20
0.819963
11
0.415856
21
0.820539
0
LINE
8
BLACK
6
CONTINUOUS
10
0.415856
20
0.820539
11
0.434538
21
0.820539
0
LINE
8
BLACK
6
CONTINUOUS
10
0.434538
20
0.820539
11
0.43593
21
0.819963
0
LINE
8
BLACK
6
CONTINUOUS
10
0.569788
20
0.819963
11
0.570364
21
0.818571
0
LINE
8
BLACK
6
CONTINUOUS
10
0.570364
20
0.818571
11
0.569788
21
0.817179
0
LINE
8
BLACK
6
CONTINUOUS
10
0.569788
20
0.817179
11
0.568396
21
0.816602
0
LINE
8
BLACK
6
CONTINUOUS
10
0.568396
20
0.816602
11
0.549714
21
0.816602
0
LINE
8
BLACK
6
CONTINUOUS
10
0.549714
20
0.816602
11
0.548322
21
0.817179
0
LINE
8
BLACK
6
CONTINUOUS
10
0.548322
20
0.817179
11
0.547746
21
0.818571
0
LINE
8
BLACK
6
CONTINUOUS
10
0.547746
20
0.818571
11
0.548322
21
0.819963
0
LINE
8
BLACK
6
CONTINUOUS
10
0.548322
20
0.819963
11
0.549714
21
0.820539
0
LINE
8
BLACK
6
CONTINUOUS
10
0.549714
20
0.820539
11
0.568396
21
0.820539
0
LINE
8
BLACK
6
CONTINUOUS
10
0.568396
20
0.820539
11
0.569788
21
0.819963
0
LINE
8
BLACK
6
CONTINUOUS
10
0.203321
20
0.874239
11
0.203456
21
0.874125
0
LINE
8
BLACK
6
CONTINUOUS
10
0.203456
20
0.874125
11
0.203632
21
0.874105
0
LINE
8
BLACK
6
CONTINUOUS
10
0.203632
20
0.874105
11
0.207381
21
0.87223
0
LINE
8
BLACK
6
CONTINUOUS
10
0.207381
20
0.87223
11
0.20809
21
0.871704
0
LINE
8
BLACK
6
CONTINUOUS
10
0.20809
20
0.871704
11
0.208149
21
0.871677
0
LINE
8
BLACK
6
CONTINUOUS
10
0.208149
20
0.871677
11
0.210023
21
0.869802
0
LINE
8
BLACK
6
CONTINUOUS
10
0.210023
20
0.869802
11
0.210612
21
0.868962
0
LINE
8
BLACK
6
CONTINUOUS
10
0.210612
20
0.868962
11
0.210788
21
0.86695
0
LINE
8
BLACK
6
CONTINUOUS
10
0.210788
20
0.86695
11
0.209629
21
0.865296
0
LINE
8
BLACK
6
CONTINUOUS
10
0.209629
20
0.865296
11
0.207678
21
0.864773
0
LINE
8
BLACK
6
CONTINUOUS
10
0.207678
20
0.864773
11
0.205848
21
0.865626
0
LINE
8
BLACK
6
CONTINUOUS
10
0.205848
20
0.865626
11
0.204312
21
0.867162
0
LINE
8
BLACK
6
CONTINUOUS
10
0.204312
20
0.867162
11
0.201614
21
0.868511
0
LINE
8
BLACK
6
CONTINUOUS
10
0.201614
20
0.868511
11
0.193634
21
0.868511
0
LINE
8
BLACK
6
CONTINUOUS
10
0.193634
20
0.868511
11
0.190937
21
0.867162
0
LINE
8
BLACK
6
CONTINUOUS
10
0.190937
20
0.867162
11
0.18974
21
0.865965
0
LINE
8
BLACK
6
CONTINUOUS
10
0.18974
20
0.865965
11
0.188391
21
0.863268
0
LINE
8
BLACK
6
CONTINUOUS
10
0.188391
20
0.863268
11
0.188391
21
0.860694
0
LINE
8
BLACK
6
CONTINUOUS
10
0.188391
20
0.860694
11
0.189894
21
0.856186
0
LINE
8
BLACK
6
CONTINUOUS
10
0.189894
20
0.856186
11
0.211898
21
0.834182
0
LINE
8
BLACK
6
CONTINUOUS
10
0.211898
20
0.834182
11
0.212268
21
0.833654
0
LINE
8
BLACK
6
CONTINUOUS
10
0.212268
20
0.833654
11
0.212367
21
0.83357
0
LINE
8
BLACK
6
CONTINUOUS
10
0.212367
20
0.83357
11
0.212381
21
0.833492
0
LINE
8
BLACK
6
CONTINUOUS
10
0.212381
20
0.833492
11
0.212486
21
0.833342
0
LINE
8
BLACK
6
CONTINUOUS
10
0.212486
20
0.833342
11
0.212564
21
0.832456
0
LINE
8
BLACK
6
CONTINUOUS
10
0.212564
20
0.832456
11
0.212718
21
0.831581
0
LINE
8
BLACK
6
CONTINUOUS
10
0.212718
20
0.831581
11
0.212651
21
0.831464
0
LINE
8
BLACK
6
CONTINUOUS
10
0.212651
20
0.831464
11
0.212662
21
0.831329
0
LINE
8
BLACK
6
CONTINUOUS
10
0.212662
20
0.831329
11
0.212153
21
0.830601
0
LINE
8
BLACK
6
CONTINUOUS
10
0.212153
20
0.830601
11
0.211708
21
0.829832
0
LINE
8
BLACK
6
CONTINUOUS
10
0.211708
20
0.829832
11
0.211581
21
0.829786
0
LINE
8
BLACK
6
CONTINUOUS
10
0.211581
20
0.829786
11
0.211504
21
0.829675
0
LINE
8
BLACK
6
CONTINUOUS
10
0.211504
20
0.829675
11
0.210645
21
0.829445
0
LINE
8
BLACK
6
CONTINUOUS
10
0.210645
20
0.829445
11
0.20981
21
0.829141
0
LINE
8
BLACK
6
CONTINUOUS
10
0.20981
20
0.829141
11
0.185438
21
0.829141
0
LINE
8
BLACK
6
CONTINUOUS
10
0.185438
20
0.829141
11
0.184428
21
0.829319
0
LINE
8
BLACK
6
CONTINUOUS
10
0.184428
20
0.829319
11
0.182881
21
0.830617
0
LINE
8
BLACK
6
CONTINUOUS
10
0.182881
20
0.830617
11
0.18253
21
0.832606
0
LINE
8
BLACK
6
CONTINUOUS
10
0.18253
20
0.832606
11
0.18354
21
0.834356
0
LINE
8
BLACK
6
CONTINUOUS
10
0.18354
20
0.834356
11
0.185438
21
0.835046
0
LINE
8
BLACK
6
CONTINUOUS
10
0.185438
20
0.835046
11
0.202682
21
0.835046
0
LINE
8
BLACK
6
CONTINUOUS
10
0.202682
20
0.835046
11
0.185225
21
0.852503
0
LINE
8
BLACK
6
CONTINUOUS
10
0.185225
20
0.852503
11
0.184637
21
0.853343
0
LINE
8
BLACK
6
CONTINUOUS
10
0.184637
20
0.853343
11
0.184622
21
0.853519
0
LINE
8
BLACK
6
CONTINUOUS
10
0.184622
20
0.853519
11
0.184512
21
0.853657
0
LINE
8
BLACK
6
CONTINUOUS
10
0.184512
20
0.853657
11
0.182637
21
0.859281
0
LINE
8
BLACK
6
CONTINUOUS
10
0.182637
20
0.859281
11
0.182508
21
0.860155
0
LINE
8
BLACK
6
CONTINUOUS
10
0.182508
20
0.860155
11
0.182486
21
0.860215
0
LINE
8
BLACK
6
CONTINUOUS
10
0.182486
20
0.860215
11
0.182486
21
0.863965
0
LINE
8
BLACK
6
CONTINUOUS
10
0.182486
20
0.863965
11
0.182664
21
0.864975
0
LINE
8
BLACK
6
CONTINUOUS
10
0.182664
20
0.864975
11
0.182777
21
0.86511
0
LINE
8
BLACK
6
CONTINUOUS
10
0.182777
20
0.86511
11
0.182797
21
0.865285
0
LINE
8
BLACK
6
CONTINUOUS
10
0.182797
20
0.865285
11
0.184672
21
0.869035
0
LINE
8
BLACK
6
CONTINUOUS
10
0.184672
20
0.869035
11
0.185198
21
0.869744
0
LINE
8
BLACK
6
CONTINUOUS
10
0.185198
20
0.869744
11
0.185225
21
0.869802
0
LINE
8
BLACK
6
CONTINUOUS
10
0.185225
20
0.869802
11
0.1871
21
0.871677
0
LINE
8
BLACK
6
CONTINUOUS
10
0.1871
20
0.871677
11
0.187823
21
0.872183
0
LINE
8
BLACK
6
CONTINUOUS
10
0.187823
20
0.872183
11
0.187867
21
0.87223
0
LINE
8
BLACK
6
CONTINUOUS
10
0.187867
20
0.87223
11
0.191617
21
0.874105
0
LINE
8
BLACK
6
CONTINUOUS
10
0.191617
20
0.874105
11
0.1926
21
0.874397
0
LINE
8
BLACK
6
CONTINUOUS
10
0.1926
20
0.874397
11
0.192771
21
0.874356
0
LINE
8
BLACK
6
CONTINUOUS
10
0.192771
20
0.874356
11
0.192937
21
0.874417
0
LINE
8
BLACK
6
CONTINUOUS
10
0.192937
20
0.874417
11
0.202311
21
0.874417
0
LINE
8
BLACK
6
CONTINUOUS
10
0.202311
20
0.874417
11
0.203321
21
0.874239
0
LINE
8
BLACK
6
CONTINUOUS
10
0.22707
20
0.873362
11
0.227761
21
0.871464
0
LINE
8
BLACK
6
CONTINUOUS
10
0.227761
20
0.871464
11
0.227761
21
0.843822
0
LINE
8
BLACK
6
CONTINUOUS
10
0.227761
20
0.843822
11
0.229264
21
0.839313
0
LINE
8
BLACK
6
CONTINUOUS
10
0.229264
20
0.839313
11
0.232028
21
0.836549
0
LINE
8
BLACK
6
CONTINUOUS
10
0.232028
20
0.836549
11
0.236536
21
0.835046
0
LINE
8
BLACK
6
CONTINUOUS
10
0.236536
20
0.835046
11
0.239806
21
0.835046
0
LINE
8
BLACK
6
CONTINUOUS
10
0.239806
20
0.835046
11
0.240816
21
0.834868
0
LINE
8
BLACK
6
CONTINUOUS
10
0.240816
20
0.834868
11
0.242364
21
0.83357
0
LINE
8
BLACK
6
CONTINUOUS
10
0.242364
20
0.83357
11
0.242714
21
0.831581
0
LINE
8
BLACK
6
CONTINUOUS
10
0.242714
20
0.831581
11
0.241704
21
0.829832
0
LINE
8
BLACK
6
CONTINUOUS
10
0.241704
20
0.829832
11
0.239806
21
0.829141
0
LINE
8
BLACK
6
CONTINUOUS
10
0.239806
20
0.829141
11
0.236057
21
0.829141
0
LINE
8
BLACK
6
CONTINUOUS
10
0.236057
20
0.829141
11
0.235188
21
0.829294
0
LINE
8
BLACK
6
CONTINUOUS
10
0.235188
20
0.829294
11
0.235123
21
0.829293
0
LINE
8
BLACK
6
CONTINUOUS
10
0.235123
20
0.829293
11
0.229499
21
0.831167
0
LINE
8
BLACK
6
CONTINUOUS
10
0.229499
20
0.831167
11
0.228597
21
0.831656
0
LINE
8
BLACK
6
CONTINUOUS
10
0.228597
20
0.831656
11
0.228505
21
0.831806
0
LINE
8
BLACK
6
CONTINUOUS
10
0.228505
20
0.831806
11
0.228345
21
0.831881
0
LINE
8
BLACK
6
CONTINUOUS
10
0.228345
20
0.831881
11
0.224595
21
0.83563
0
LINE
8
BLACK
6
CONTINUOUS
10
0.224595
20
0.83563
11
0.224007
21
0.83647
0
LINE
8
BLACK
6
CONTINUOUS
10
0.224007
20
0.83647
11
0.223992
21
0.836646
0
LINE
8
BLACK
6
CONTINUOUS
10
0.223992
20
0.836646
11
0.223882
21
0.836784
0
LINE
8
BLACK
6
CONTINUOUS
10
0.223882
20
0.836784
11
0.222007
21
0.842409
0
LINE
8
BLACK
6
CONTINUOUS
10
0.222007
20
0.842409
11
0.221878
21
0.843282
0
LINE
8
BLACK
6
CONTINUOUS
10
0.221878
20
0.843282
11
0.221856
21
0.843342
0
LINE
8
BLACK
6
CONTINUOUS
10
0.221856
20
0.843342
11
0.221856
21
0.871464
0
LINE
8
BLACK
6
CONTINUOUS
10
0.221856
20
0.871464
11
0.222034
21
0.872474
0
LINE
8
BLACK
6
CONTINUOUS
10
0.222034
20
0.872474
11
0.223332
21
0.874021
0
LINE
8
BLACK
6
CONTINUOUS
10
0.223332
20
0.874021
11
0.225321
21
0.874372
0
LINE
8
BLACK
6
CONTINUOUS
10
0.225321
20
0.874372
11
0.22707
21
0.873362
0
LINE
8
BLACK
6
CONTINUOUS
10
0.625442
20
0.878349
11
0.625572
21
0.878372
0
LINE
8
BLACK
6
CONTINUOUS
10
0.625572
20
0.878372
11
0.625685
21
0.878306
0
LINE
8
BLACK
6
CONTINUOUS
10
0.625685
20
0.878306
11
0.626069
21
0.878239
0
LINE
8
BLACK
6
CONTINUOUS
10
0.626069
20
0.878239
11
0.626656
21
0.877745
0
LINE
8
BLACK
6
CONTINUOUS
10
0.626656
20
0.877745
11
0.627321
21
0.877362
0
LINE
8
BLACK
6
CONTINUOUS
10
0.627321
20
0.877362
11
0.627412
21
0.877111
0
LINE
8
BLACK
6
CONTINUOUS
10
0.627412
20
0.877111
11
0.627616
21
0.87694
0
LINE
8
BLACK
6
CONTINUOUS
10
0.627616
20
0.87694
11
0.627749
21
0.876185
0
LINE
8
BLACK
6
CONTINUOUS
10
0.627749
20
0.876185
11
0.628012
21
0.875464
0
LINE
8
BLACK
6
CONTINUOUS
10
0.628012
20
0.875464
11
0.628012
21
0.836094
0
LINE
8
BLACK
6
CONTINUOUS
10
0.628012
20
0.836094
11
0.627834
21
0.835084
0
LINE
8
BLACK
6
CONTINUOUS
10
0.627834
20
0.835084
11
0.626535
21
0.833537
0
LINE
8
BLACK
6
CONTINUOUS
10
0.626535
20
0.833537
11
0.624546
21
0.833186
0
LINE
8
BLACK
6
CONTINUOUS
10
0.624546
20
0.833186
11
0.622797
21
0.834196
0
LINE
8
BLACK
6
CONTINUOUS
10
0.622797
20
0.834196
11
0.622106
21
0.836094
0
LINE
8
BLACK
6
CONTINUOUS
10
0.622106
20
0.836094
11
0.622106
21
0.851889
0
LINE
8
BLACK
6
CONTINUOUS
10
0.622106
20
0.851889
11
0.617222
21
0.851889
0
LINE
8
BLACK
6
CONTINUOUS
10
0.617222
20
0.851889
11
0.604981
21
0.8344
0
LINE
8
BLACK
6
CONTINUOUS
10
0.604981
20
0.8344
11
0.604256
21
0.833675
0
LINE
8
BLACK
6
CONTINUOUS
10
0.604256
20
0.833675
11
0.602305
21
0.833152
0
LINE
8
BLACK
6
CONTINUOUS
10
0.602305
20
0.833152
11
0.600474
21
0.834006
0
LINE
8
BLACK
6
CONTINUOUS
10
0.600474
20
0.834006
11
0.59962
21
0.835836
0
LINE
8
BLACK
6
CONTINUOUS
10
0.59962
20
0.835836
11
0.600143
21
0.837787
0
LINE
8
BLACK
6
CONTINUOUS
10
0.600143
20
0.837787
11
0.610019
21
0.851896
0
LINE
8
BLACK
6
CONTINUOUS
10
0.610019
20
0.851896
11
0.609051
21
0.852067
0
LINE
8
BLACK
6
CONTINUOUS
10
0.609051
20
0.852067
11
0.608916
21
0.85218
0
LINE
8
BLACK
6
CONTINUOUS
10
0.608916
20
0.85218
11
0.60874
21
0.8522
0
LINE
8
BLACK
6
CONTINUOUS
10
0.60874
20
0.8522
11
0.604991
21
0.854075
0
LINE
8
BLACK
6
CONTINUOUS
10
0.604991
20
0.854075
11
0.604282
21
0.854601
0
LINE
8
BLACK
6
CONTINUOUS
10
0.604282
20
0.854601
11
0.604223
21
0.854628
0
LINE
8
BLACK
6
CONTINUOUS
10
0.604223
20
0.854628
11
0.602349
21
0.856503
0
LINE
8
BLACK
6
CONTINUOUS
10
0.602349
20
0.856503
11
0.601842
21
0.857226
0
LINE
8
BLACK
6
CONTINUOUS
10
0.601842
20
0.857226
11
0.601795
21
0.85727
0
LINE
8
BLACK
6
CONTINUOUS
10
0.601795
20
0.85727
11
0.599921
21
0.86102
0
LINE
8
BLACK
6
CONTINUOUS
10
0.599921
20
0.86102
11
0.599628
21
0.862003
0
LINE
8
BLACK
6
CONTINUOUS
10
0.599628
20
0.862003
11
0.599669
21
0.862175
0
LINE
8
BLACK
6
CONTINUOUS
10
0.599669
20
0.862175
11
0.599609
21
0.86234
0
LINE
8
BLACK
6
CONTINUOUS
10
0.599609
20
0.86234
11
0.599609
21
0.867965
0
LINE
8
BLACK
6
CONTINUOUS
10
0.599609
20
0.867965
11
0.599787
21
0.868975
0
LINE
8
BLACK
6
CONTINUOUS
10
0.599787
20
0.868975
11
0.5999
21
0.86911
0
LINE
8
BLACK
6
CONTINUOUS
10
0.5999
20
0.86911
11
0.599921
21
0.869285
0
LINE
8
BLACK
6
CONTINUOUS
10
0.599921
20
0.869285
11
0.601795
21
0.873035
0
LINE
8
BLACK
6
CONTINUOUS
10
0.601795
20
0.873035
11
0.602321
21
0.873744
0
LINE
8
BLACK
6
CONTINUOUS
10
0.602321
20
0.873744
11
0.602349
21
0.873802
0
LINE
8
BLACK
6
CONTINUOUS
10
0.602349
20
0.873802
11
0.604223
21
0.875677
0
LINE
8
BLACK
6
CONTINUOUS
10
0.604223
20
0.875677
11
0.604946
21
0.876183
0
LINE
8
BLACK
6
CONTINUOUS
10
0.604946
20
0.876183
11
0.604991
21
0.87623
0
LINE
8
BLACK
6
CONTINUOUS
10
0.604991
20
0.87623
11
0.60874
21
0.878105
0
LINE
8
BLACK
6
CONTINUOUS
10
0.60874
20
0.878105
11
0.609723
21
0.878397
0
LINE
8
BLACK
6
CONTINUOUS
10
0.609723
20
0.878397
11
0.609895
21
0.878356
0
LINE
8
BLACK
6
CONTINUOUS
10
0.609895
20
0.878356
11
0.610061
21
0.878417
0
LINE
8
BLACK
6
CONTINUOUS
10
0.610061
20
0.878417
11
0.625059
21
0.878417
0
LINE
8
BLACK
6
CONTINUOUS
10
0.625059
20
0.878417
11
0.625442
21
0.878349
0
LINE
8
BLACK
6
CONTINUOUS
10
0.60806
20
0.871162
11
0.606863
21
0.869965
0
LINE
8
BLACK
6
CONTINUOUS
10
0.606863
20
0.869965
11
0.605514
21
0.867268
0
LINE
8
BLACK
6
CONTINUOUS
10
0.605514
20
0.867268
11
0.605514
21
0.863038
0
LINE
8
BLACK
6
CONTINUOUS
10
0.605514
20
0.863038
11
0.606863
21
0.86034
0
LINE
8
BLACK
6
CONTINUOUS
10
0.606863
20
0.86034
11
0.60806
21
0.859143
0
LINE
8
BLACK
6
CONTINUOUS
10
0.60806
20
0.859143
11
0.610758
21
0.857794
0
LINE
8
BLACK
6
CONTINUOUS
10
0.610758
20
0.857794
11
0.622106
21
0.857794
0
LINE
8
BLACK
6
CONTINUOUS
10
0.622106
20
0.857794
11
0.622106
21
0.872511
0
LINE
8
BLACK
6
CONTINUOUS
10
0.622106
20
0.872511
11
0.610758
21
0.872511
0
LINE
8
BLACK
6
CONTINUOUS
10
0.610758
20
0.872511
11
0.60806
21
0.871162
0
LINE
8
BLACK
6
CONTINUOUS
10
0.590448
20
0.878239
11
0.591995
21
0.87694
0
LINE
8
BLACK
6
CONTINUOUS
10
0.591995
20
0.87694
11
0.592346
21
0.874951
0
LINE
8
BLACK
6
CONTINUOUS
10
0.592346
20
0.874951
11
0.591336
21
0.873202
0
LINE
8
BLACK
6
CONTINUOUS
10
0.591336
20
0.873202
11
0.589438
21
0.872511
0
LINE
8
BLACK
6
CONTINUOUS
10
0.589438
20
0.872511
11
0.56767
21
0.872511
0
LINE
8
BLACK
6
CONTINUOUS
10
0.56767
20
0.872511
11
0.582778
21
0.837257
0
LINE
8
BLACK
6
CONTINUOUS
10
0.582778
20
0.837257
11
0.583013
21
0.836259
0
LINE
8
BLACK
6
CONTINUOUS
10
0.583013
20
0.836259
11
0.582429
21
0.834325
0
LINE
8
BLACK
6
CONTINUOUS
10
0.582429
20
0.834325
11
0.580739
21
0.833219
0
LINE
8
BLACK
6
CONTINUOUS
10
0.580739
20
0.833219
11
0.578733
21
0.833458
0
LINE
8
BLACK
6
CONTINUOUS
10
0.578733
20
0.833458
11
0.57735
21
0.834931
0
LINE
8
BLACK
6
CONTINUOUS
10
0.57735
20
0.834931
11
0.560478
21
0.874301
0
LINE
8
BLACK
6
CONTINUOUS
10
0.560478
20
0.874301
11
0.560243
21
0.875299
0
LINE
8
BLACK
6
CONTINUOUS
10
0.560243
20
0.875299
11
0.560344
21
0.875633
0
LINE
8
BLACK
6
CONTINUOUS
10
0.560344
20
0.875633
11
0.560284
21
0.875977
0
LINE
8
BLACK
6
CONTINUOUS
10
0.560284
20
0.875977
11
0.560628
21
0.876573
0
LINE
8
BLACK
6
CONTINUOUS
10
0.560628
20
0.876573
11
0.560827
21
0.877233
0
LINE
8
BLACK
6
CONTINUOUS
10
0.560827
20
0.877233
11
0.561119
21
0.877424
0
LINE
8
BLACK
6
CONTINUOUS
10
0.561119
20
0.877424
11
0.561294
21
0.877726
0
LINE
8
BLACK
6
CONTINUOUS
10
0.561294
20
0.877726
11
0.561941
21
0.877961
0
LINE
8
BLACK
6
CONTINUOUS
10
0.561941
20
0.877961
11
0.562517
21
0.878339
0
LINE
8
BLACK
6
CONTINUOUS
10
0.562517
20
0.878339
11
0.562864
21
0.878297
0
LINE
8
BLACK
6
CONTINUOUS
10
0.562864
20
0.878297
11
0.563192
21
0.878417
0
LINE
8
BLACK
6
CONTINUOUS
10
0.563192
20
0.878417
11
0.589438
21
0.878417
0
LINE
8
BLACK
6
CONTINUOUS
10
0.589438
20
0.878417
11
0.590448
21
0.878239
0
LINE
8
BLACK
6
CONTINUOUS
10
0.365722
20
0.882287
11
0.365892
21
0.882298
0
LINE
8
BLACK
6
CONTINUOUS
10
0.365892
20
0.882298
11
0.366582
21
0.88179
0
LINE
8
BLACK
6
CONTINUOUS
10
0.366582
20
0.88179
11
0.367325
21
0.881362
0
LINE
8
BLACK
6
CONTINUOUS
10
0.367325
20
0.881362
11
0.367383
21
0.881202
0
LINE
8
BLACK
6
CONTINUOUS
10
0.367383
20
0.881202
11
0.367519
21
0.881102
0
LINE
8
BLACK
6
CONTINUOUS
10
0.367519
20
0.881102
11
0.371107
21
0.875721
0
LINE
8
BLACK
6
CONTINUOUS
10
0.371107
20
0.875721
11
0.374311
21
0.872517
0
LINE
8
BLACK
6
CONTINUOUS
10
0.374311
20
0.872517
11
0.377632
21
0.870856
0
LINE
8
BLACK
6
CONTINUOUS
10
0.377632
20
0.870856
11
0.378455
21
0.870245
0
LINE
8
BLACK
6
CONTINUOUS
10
0.378455
20
0.870245
11
0.379259
21
0.868392
0
LINE
8
BLACK
6
CONTINUOUS
10
0.379259
20
0.868392
11
0.378683
21
0.866456
0
LINE
8
BLACK
6
CONTINUOUS
10
0.378683
20
0.866456
11
0.376997
21
0.865343
0
LINE
8
BLACK
6
CONTINUOUS
10
0.376997
20
0.865343
11
0.374991
21
0.865574
0
LINE
8
BLACK
6
CONTINUOUS
10
0.374991
20
0.865574
11
0.371241
21
0.867449
0
LINE
8
BLACK
6
CONTINUOUS
10
0.371241
20
0.867449
11
0.370532
21
0.867975
0
LINE
8
BLACK
6
CONTINUOUS
10
0.370532
20
0.867975
11
0.370474
21
0.868002
0
LINE
8
BLACK
6
CONTINUOUS
10
0.370474
20
0.868002
11
0.368015
21
0.87046
0
LINE
8
BLACK
6
CONTINUOUS
10
0.368015
20
0.87046
11
0.368015
21
0.843046
0
LINE
8
BLACK
6
CONTINUOUS
10
0.368015
20
0.843046
11
0.376311
21
0.843046
0
LINE
8
BLACK
6
CONTINUOUS
10
0.376311
20
0.843046
11
0.377321
21
0.842868
0
LINE
8
BLACK
6
CONTINUOUS
10
0.377321
20
0.842868
11
0.378868
21
0.84157
0
LINE
8
BLACK
6
CONTINUOUS
10
0.378868
20
0.84157
11
0.379219
21
0.839581
0
LINE
8
BLACK
6
CONTINUOUS
10
0.379219
20
0.839581
11
0.378209
21
0.837832
0
LINE
8
BLACK
6
CONTINUOUS
10
0.378209
20
0.837832
11
0.376311
21
0.837141
0
LINE
8
BLACK
6
CONTINUOUS
10
0.376311
20
0.837141
11
0.353814
21
0.837141
0
LINE
8
BLACK
6
CONTINUOUS
10
0.353814
20
0.837141
11
0.352804
21
0.837319
0
LINE
8
BLACK
6
CONTINUOUS
10
0.352804
20
0.837319
11
0.351257
21
0.838617
0
LINE
8
BLACK
6
CONTINUOUS
10
0.351257
20
0.838617
11
0.350906
21
0.840606
0
LINE
8
BLACK
6
CONTINUOUS
10
0.350906
20
0.840606
11
0.351916
21
0.842356
0
LINE
8
BLACK
6
CONTINUOUS
10
0.351916
20
0.842356
11
0.353814
21
0.843046
0
LINE
8
BLACK
6
CONTINUOUS
10
0.353814
20
0.843046
11
0.36211
21
0.843046
0
LINE
8
BLACK
6
CONTINUOUS
10
0.36211
20
0.843046
11
0.36211
21
0.879464
0
LINE
8
BLACK
6
CONTINUOUS
10
0.36211
20
0.879464
11
0.362288
21
0.880474
0
LINE
8
BLACK
6
CONTINUOUS
10
0.362288
20
0.880474
11
0.362397
21
0.880604
0
LINE
8
BLACK
6
CONTINUOUS
10
0.362397
20
0.880604
11
0.362416
21
0.880773
0
LINE
8
BLACK
6
CONTINUOUS
10
0.362416
20
0.880773
11
0.363035
21
0.881364
0
LINE
8
BLACK
6
CONTINUOUS
10
0.363035
20
0.881364
11
0.363586
21
0.882021
0
LINE
8
BLACK
6
CONTINUOUS
10
0.363586
20
0.882021
11
0.363753
21
0.88205
0
LINE
8
BLACK
6
CONTINUOUS
10
0.363753
20
0.88205
11
0.363876
21
0.882168
0
LINE
8
BLACK
6
CONTINUOUS
10
0.363876
20
0.882168
11
0.364731
21
0.882223
0
LINE
8
BLACK
6
CONTINUOUS
10
0.364731
20
0.882223
11
0.365575
21
0.882372
0
LINE
8
BLACK
6
CONTINUOUS
10
0.365575
20
0.882372
11
0.365722
21
0.882287
0
LINE
8
BLACK
6
CONTINUOUS
10
0.41419
20
0.882349
11
0.414319
21
0.882372
0
LINE
8
BLACK
6
CONTINUOUS
10
0.414319
20
0.882372
11
0.414433
21
0.882306
0
LINE
8
BLACK
6
CONTINUOUS
10
0.414433
20
0.882306
11
0.414816
21
0.882239
0
LINE
8
BLACK
6
CONTINUOUS
10
0.414816
20
0.882239
11
0.415404
21
0.881745
0
LINE
8
BLACK
6
CONTINUOUS
10
0.415404
20
0.881745
11
0.416068
21
0.881362
0
LINE
8
BLACK
6
CONTINUOUS
10
0.416068
20
0.881362
11
0.41616
21
0.881111
0
LINE
8
BLACK
6
CONTINUOUS
10
0.41616
20
0.881111
11
0.416364
21
0.88094
0
LINE
8
BLACK
6
CONTINUOUS
10
0.416364
20
0.88094
11
0.416497
21
0.880185
0
LINE
8
BLACK
6
CONTINUOUS
10
0.416497
20
0.880185
11
0.416759
21
0.879464
0
LINE
8
BLACK
6
CONTINUOUS
10
0.416759
20
0.879464
11
0.416759
21
0.840094
0
LINE
8
BLACK
6
CONTINUOUS
10
0.416759
20
0.840094
11
0.416581
21
0.839084
0
LINE
8
BLACK
6
CONTINUOUS
10
0.416581
20
0.839084
11
0.415283
21
0.837537
0
LINE
8
BLACK
6
CONTINUOUS
10
0.415283
20
0.837537
11
0.413294
21
0.837186
0
LINE
8
BLACK
6
CONTINUOUS
10
0.413294
20
0.837186
11
0.411545
21
0.838196
0
LINE
8
BLACK
6
CONTINUOUS
10
0.411545
20
0.838196
11
0.410854
21
0.840094
0
LINE
8
BLACK
6
CONTINUOUS
10
0.410854
20
0.840094
11
0.410854
21
0.855889
0
LINE
8
BLACK
6
CONTINUOUS
10
0.410854
20
0.855889
11
0.40597
21
0.855889
0
LINE
8
BLACK
6
CONTINUOUS
10
0.40597
20
0.855889
11
0.393728
21
0.8384
0
LINE
8
BLACK
6
CONTINUOUS
10
0.393728
20
0.8384
11
0.393003
21
0.837675
0
LINE
8
BLACK
6
CONTINUOUS
10
0.393003
20
0.837675
11
0.391052
21
0.837152
0
LINE
8
BLACK
6
CONTINUOUS
10
0.391052
20
0.837152
11
0.389222
21
0.838006
0
LINE
8
BLACK
6
CONTINUOUS
10
0.389222
20
0.838006
11
0.388368
21
0.839836
0
LINE
8
BLACK
6
CONTINUOUS
10
0.388368
20
0.839836
11
0.38889
21
0.841787
0
LINE
8
BLACK
6
CONTINUOUS
10
0.38889
20
0.841787
11
0.398767
21
0.855896
0
LINE
8
BLACK
6
CONTINUOUS
10
0.398767
20
0.855896
11
0.397798
21
0.856067
0
LINE
8
BLACK
6
CONTINUOUS
10
0.397798
20
0.856067
11
0.397663
21
0.85618
0
LINE
8
BLACK
6
CONTINUOUS
10
0.397663
20
0.85618
11
0.397488
21
0.8562
0
LINE
8
BLACK
6
CONTINUOUS
10
0.397488
20
0.8562
11
0.393738
21
0.858075
0
LINE
8
BLACK
6
CONTINUOUS
10
0.393738
20
0.858075
11
0.393029
21
0.858601
0
LINE
8
BLACK
6
CONTINUOUS
10
0.393029
20
0.858601
11
0.392971
21
0.858628
0
LINE
8
BLACK
6
CONTINUOUS
10
0.392971
20
0.858628
11
0.391096
21
0.860503
0
LINE
8
BLACK
6
CONTINUOUS
10
0.391096
20
0.860503
11
0.39059
21
0.861226
0
LINE
8
BLACK
6
CONTINUOUS
10
0.39059
20
0.861226
11
0.390543
21
0.86127
0
LINE
8
BLACK
6
CONTINUOUS
10
0.390543
20
0.86127
11
0.388668
21
0.86502
0
LINE
8
BLACK
6
CONTINUOUS
10
0.388668
20
0.86502
11
0.388376
21
0.866003
0
LINE
8
BLACK
6
CONTINUOUS
10
0.388376
20
0.866003
11
0.388417
21
0.866175
0
LINE
8
BLACK
6
CONTINUOUS
10
0.388417
20
0.866175
11
0.388357
21
0.86634
0
LINE
8
BLACK
6
CONTINUOUS
10
0.388357
20
0.86634
11
0.388357
21
0.871965
0
LINE
8
BLACK
6
CONTINUOUS
10
0.388357
20
0.871965
11
0.388535
21
0.872975
0
LINE
8
BLACK
6
CONTINUOUS
10
0.388535
20
0.872975
11
0.388648
21
0.87311
0
LINE
8
BLACK
6
CONTINUOUS
10
0.388648
20
0.87311
11
0.388668
21
0.873285
0
LINE
8
BLACK
6
CONTINUOUS
10
0.388668
20
0.873285
11
0.390543
21
0.877035
0
LINE
8
BLACK
6
CONTINUOUS
10
0.390543
20
0.877035
11
0.391069
21
0.877744
0
LINE
8
BLACK
6
CONTINUOUS
10
0.391069
20
0.877744
11
0.391096
21
0.877802
0
LINE
8
BLACK
6
CONTINUOUS
10
0.391096
20
0.877802
11
0.392971
21
0.879677
0
LINE
8
BLACK
6
CONTINUOUS
10
0.392971
20
0.879677
11
0.393694
21
0.880183
0
LINE
8
BLACK
6
CONTINUOUS
10
0.393694
20
0.880183
11
0.393738
21
0.88023
0
LINE
8
BLACK
6
CONTINUOUS
10
0.393738
20
0.88023
11
0.397488
21
0.882105
0
LINE
8
BLACK
6
CONTINUOUS
10
0.397488
20
0.882105
11
0.398471
21
0.882397
0
LINE
8
BLACK
6
CONTINUOUS
10
0.398471
20
0.882397
11
0.398642
21
0.882356
0
LINE
8
BLACK
6
CONTINUOUS
10
0.398642
20
0.882356
11
0.398808
21
0.882417
0
LINE
8
BLACK
6
CONTINUOUS
10
0.398808
20
0.882417
11
0.413806
21
0.882417
0
LINE
8
BLACK
6
CONTINUOUS
10
0.413806
20
0.882417
11
0.41419
21
0.882349
0
LINE
8
BLACK
6
CONTINUOUS
10
0.396808
20
0.875162
11
0.395611
21
0.873965
0
LINE
8
BLACK
6
CONTINUOUS
10
0.395611
20
0.873965
11
0.394262
21
0.871268
0
LINE
8
BLACK
6
CONTINUOUS
10
0.394262
20
0.871268
11
0.394262
21
0.867038
0
LINE
8
BLACK
6
CONTINUOUS
10
0.394262
20
0.867038
11
0.395611
21
0.86434
0
LINE
8
BLACK
6
CONTINUOUS
10
0.395611
20
0.86434
11
0.396808
21
0.863143
0
LINE
8
BLACK
6
CONTINUOUS
10
0.396808
20
0.863143
11
0.399505
21
0.861794
0
LINE
8
BLACK
6
CONTINUOUS
10
0.399505
20
0.861794
11
0.410854
21
0.861794
0
LINE
8
BLACK
6
CONTINUOUS
10
0.410854
20
0.861794
11
0.410854
21
0.876511
0
LINE
8
BLACK
6
CONTINUOUS
10
0.410854
20
0.876511
11
0.399505
21
0.876511
0
LINE
8
BLACK
6
CONTINUOUS
10
0.399505
20
0.876511
11
0.396808
21
0.875162
0
LINE
8
BLACK
6
CONTINUOUS
10
0.330988
20
0.883854
11
0.332243
21
0.882272
0
LINE
8
BLACK
6
CONTINUOUS
10
0.332243
20
0.882272
11
0.341617
21
0.854151
0
LINE
8
BLACK
6
CONTINUOUS
10
0.341617
20
0.854151
11
0.341768
21
0.853136
0
LINE
8
BLACK
6
CONTINUOUS
10
0.341768
20
0.853136
11
0.341685
21
0.852927
0
LINE
8
BLACK
6
CONTINUOUS
10
0.341685
20
0.852927
11
0.341724
21
0.852704
0
LINE
8
BLACK
6
CONTINUOUS
10
0.341724
20
0.852704
11
0.341321
21
0.852007
0
LINE
8
BLACK
6
CONTINUOUS
10
0.341321
20
0.852007
11
0.341025
21
0.851258
0
LINE
8
BLACK
6
CONTINUOUS
10
0.341025
20
0.851258
11
0.340827
21
0.851151
0
LINE
8
BLACK
6
CONTINUOUS
10
0.340827
20
0.851151
11
0.340714
21
0.850955
0
LINE
8
BLACK
6
CONTINUOUS
10
0.340714
20
0.850955
11
0.339957
21
0.85068
0
LINE
8
BLACK
6
CONTINUOUS
10
0.339957
20
0.85068
11
0.339249
21
0.850296
0
LINE
8
BLACK
6
CONTINUOUS
10
0.339249
20
0.850296
11
0.339028
21
0.850342
0
LINE
8
BLACK
6
CONTINUOUS
10
0.339028
20
0.850342
11
0.338816
21
0.850264
0
LINE
8
BLACK
6
CONTINUOUS
10
0.338816
20
0.850264
11
0.323021
21
0.850264
0
LINE
8
BLACK
6
CONTINUOUS
10
0.323021
20
0.850264
11
0.323021
21
0.840094
0
LINE
8
BLACK
6
CONTINUOUS
10
0.323021
20
0.840094
11
0.322843
21
0.839084
0
LINE
8
BLACK
6
CONTINUOUS
10
0.322843
20
0.839084
11
0.321545
21
0.837537
0
LINE
8
BLACK
6
CONTINUOUS
10
0.321545
20
0.837537
11
0.319555
21
0.837186
0
LINE
8
BLACK
6
CONTINUOUS
10
0.319555
20
0.837186
11
0.317806
21
0.838196
0
LINE
8
BLACK
6
CONTINUOUS
10
0.317806
20
0.838196
11
0.317115
21
0.840094
0
LINE
8
BLACK
6
CONTINUOUS
10
0.317115
20
0.840094
11
0.317115
21
0.850264
0
LINE
8
BLACK
6
CONTINUOUS
10
0.317115
20
0.850264
11
0.314444
21
0.850264
0
LINE
8
BLACK
6
CONTINUOUS
10
0.314444
20
0.850264
11
0.313434
21
0.850442
0
LINE
8
BLACK
6
CONTINUOUS
10
0.313434
20
0.850442
11
0.311887
21
0.851741
0
LINE
8
BLACK
6
CONTINUOUS
10
0.311887
20
0.851741
11
0.311536
21
0.85373
0
LINE
8
BLACK
6
CONTINUOUS
10
0.311536
20
0.85373
11
0.312546
21
0.855479
0
LINE
8
BLACK
6
CONTINUOUS
10
0.312546
20
0.855479
11
0.314444
21
0.85617
0
LINE
8
BLACK
6
CONTINUOUS
10
0.314444
20
0.85617
11
0.317115
21
0.85617
0
LINE
8
BLACK
6
CONTINUOUS
10
0.317115
20
0.85617
11
0.317115
21
0.86634
0
LINE
8
BLACK
6
CONTINUOUS
10
0.317115
20
0.86634
11
0.317294
21
0.86735
0
LINE
8
BLACK
6
CONTINUOUS
10
0.317294
20
0.86735
11
0.318592
21
0.868898
0
LINE
8
BLACK
6
CONTINUOUS
10
0.318592
20
0.868898
11
0.320581
21
0.869248
0
LINE
8
BLACK
6
CONTINUOUS
10
0.320581
20
0.869248
11
0.32233
21
0.868238
0
LINE
8
BLACK
6
CONTINUOUS
10
0.32233
20
0.868238
11
0.323021
21
0.86634
0
LINE
8
BLACK
6
CONTINUOUS
10
0.323021
20
0.86634
11
0.323021
21
0.85617
0
LINE
8
BLACK
6
CONTINUOUS
10
0.323021
20
0.85617
11
0.334719
21
0.85617
0
LINE
8
BLACK
6
CONTINUOUS
10
0.334719
20
0.85617
11
0.326641
21
0.880405
0
LINE
8
BLACK
6
CONTINUOUS
10
0.326641
20
0.880405
11
0.32649
21
0.881419
0
LINE
8
BLACK
6
CONTINUOUS
10
0.32649
20
0.881419
11
0.327233
21
0.883298
0
LINE
8
BLACK
6
CONTINUOUS
10
0.327233
20
0.883298
11
0.329009
21
0.884259
0
LINE
8
BLACK
6
CONTINUOUS
10
0.329009
20
0.884259
11
0.330988
21
0.883854
0
CIRCLE
8
BLACK
10
0.0984252
20
0
40
0.00688976
0
CIRCLE
8
BLACK
10
0.0984252
20
0.905512
40
0.00688976
0
CIRCLE
8
BLACK
10
0.885827
20
0.905512
40
0.00688976
0
CIRCLE
8
BLACK
10
0.492126
20
0.905512
40
0.00688976
0
CIRCLE
8
BLACK
10
0.885827
20
0
40
0.00688976
0
CIRCLE
8
BLACK
10
0.492126
20
0
40
0.00688976
  0
ENDSEC
  0
EOF
