  0
SECTION
  2
HEADER
  9
$ANGBASE
  50
0.0
  9
$ANGDIR
  70
1
  9
$MEASUREMENT
  70
0
  0
ENDSEC
  0
SECTION
  2
TABLES
  0
TABLE
  2
LTYPE
  70
4
  0
LTYPE
  5
40F
  2
CONTINUOUS
  70
0
  3
Solid line
  72
65
  73
0
  40
0.0
  0
LTYPE
  5
410
  2
DASHDOT
 70
0
  3
Dash Dot ____ _ ____ _
 72
65
 73
4
 40
2.0
 49
1.25
 49
-0.25
 49
0.25
 49
-0.25
  0
LTYPE
  5
411
  2
DASHED
 70
0
  3
Dashed __ __ __ __ __
 72
65
 73
2
 40
0.75
 49
0.5
 49
-0.25
  0
LTYPE
  5
43B
  2
DOTTED
 70
0
  3
Dotted .  .  .  .
 72
65
 73
2
 40
0.2
 49
0.0
 49
-0.2
  0
ENDTAB
  0
TABLE
  2
STYLE
  70
4
  0
STYLE
  2
KICAD
  70
0
  40
0
  41
1
  42
1
  50
0
  71
0
  3
isocp.shx
  0
STYLE
  2
KICADB
  70
0
  40
0
  41
1
  42
1
  50
0
  71
0
  3
isocp.shx
  0
STYLE
  2
KICADI
  70
0
  40
0
  41
1
  42
1
  50
15
  71
0
  3
isocp.shx
  0
STYLE
  2
KICADBI
  70
0
  40
0
  41
1
  42
1
  50
15
  71
0
  3
isocp.shx
  0
ENDTAB
  0
TABLE
  2
LAYER
  70
1
  0
LAYER
  2
BLACK
  70
0
  62
7
  6
CONTINUOUS
  0
ENDTAB
  0
ENDSEC
  0
SECTION
  2
ENTITIES
0
LINE
8
BLACK
6
CONTINUOUS
10
0.9803149606299212
20
0.4437007874015748
11
0.9817068897637795
21
0.4431242125984252
0
LINE
8
BLACK
6
CONTINUOUS
10
0.9817068897637795
20
0.4431242125984252
11
0.9822834645669292
21
0.4417322834645669
0
LINE
8
BLACK
6
CONTINUOUS
10
0.9822834645669292
20
0.4417322834645669
11
0.9822834645669292
21
0.0700787401574803
0
LINE
8
BLACK
6
CONTINUOUS
10
0.9822834645669292
20
0.0700787401574803
11
0.9817068897637795
21
0.068686811023622
0
LINE
8
BLACK
6
CONTINUOUS
10
0.9817068897637795
20
0.068686811023622
11
0.9803149606299212
21
0.0681102362204724
0
LINE
8
BLACK
6
CONTINUOUS
10
0.9803149606299212
20
0.0681102362204724
11
0.7283464566929134
21
0.0681102362204724
0
LINE
8
BLACK
6
CONTINUOUS
10
0.7283464566929134
20
0.0681102362204724
11
0.7269545275590551
21
0.068686811023622
0
LINE
8
BLACK
6
CONTINUOUS
10
0.7269545275590551
20
0.068686811023622
11
0.7263779527559054
21
0.0700787401574803
0
LINE
8
BLACK
6
CONTINUOUS
10
0.7263779527559054
20
0.0700787401574803
11
0.7263779527559054
21
0.4417322834645669
0
LINE
8
BLACK
6
CONTINUOUS
10
0.7263779527559054
20
0.4417322834645669
11
0.7269545275590551
21
0.4431242125984252
0
LINE
8
BLACK
6
CONTINUOUS
10
0.7269545275590551
20
0.4431242125984252
11
0.7283464566929134
21
0.4437007874015748
0
LINE
8
BLACK
6
CONTINUOUS
10
0.7283464566929134
20
0.4437007874015748
11
0.9803149606299212
21
0.4437007874015748
0
LINE
8
BLACK
6
CONTINUOUS
10
0.7303149606299213
20
0.439763779527559
11
0.7303149606299213
21
0.0720472440944882
0
LINE
8
BLACK
6
CONTINUOUS
10
0.7303149606299213
20
0.0720472440944882
11
0.9783464566929133
21
0.0720472440944882
0
LINE
8
BLACK
6
CONTINUOUS
10
0.9783464566929133
20
0.0720472440944882
11
0.9783464566929133
21
0.439763779527559
0
LINE
8
BLACK
6
CONTINUOUS
10
0.9783464566929133
20
0.439763779527559
11
0.7303149606299213
21
0.439763779527559
0
LINE
8
BLACK
6
CONTINUOUS
10
0.6140157480314961
20
0.3225984251968504
11
0.6154076771653543
21
0.3220218503937008
0
LINE
8
BLACK
6
CONTINUOUS
10
0.6154076771653543
20
0.3220218503937008
11
0.6159842519685039
21
0.3206299212598425
0
LINE
8
BLACK
6
CONTINUOUS
10
0.6159842519685039
20
0.3206299212598425
11
0.6159842519685039
21
0.1907086614173228
0
LINE
8
BLACK
6
CONTINUOUS
10
0.6159842519685039
20
0.1907086614173228
11
0.6154076771653543
21
0.1893167322834646
0
LINE
8
BLACK
6
CONTINUOUS
10
0.6154076771653543
20
0.1893167322834646
11
0.6140157480314961
21
0.1887401574803149
0
LINE
8
BLACK
6
CONTINUOUS
10
0.6140157480314961
20
0.1887401574803149
11
0.5155905511811023
21
0.1887401574803149
0
LINE
8
BLACK
6
CONTINUOUS
10
0.5155905511811023
20
0.1887401574803149
11
0.5141986220472441
21
0.1893167322834646
0
LINE
8
BLACK
6
CONTINUOUS
10
0.5141986220472441
20
0.1893167322834646
11
0.5136220472440944
21
0.1907086614173228
0
LINE
8
BLACK
6
CONTINUOUS
10
0.5136220472440944
20
0.1907086614173228
11
0.5136220472440944
21
0.3206299212598425
0
LINE
8
BLACK
6
CONTINUOUS
10
0.5136220472440944
20
0.3206299212598425
11
0.5141986220472441
21
0.3220218503937008
0
LINE
8
BLACK
6
CONTINUOUS
10
0.5141986220472441
20
0.3220218503937008
11
0.5155905511811023
21
0.3225984251968504
0
LINE
8
BLACK
6
CONTINUOUS
10
0.5155905511811023
20
0.3225984251968504
11
0.6140157480314961
21
0.3225984251968504
0
LINE
8
BLACK
6
CONTINUOUS
10
0.5175590551181102
20
0.3186614173228347
11
0.5175590551181102
21
0.1926771653543307
0
LINE
8
BLACK
6
CONTINUOUS
10
0.5175590551181102
20
0.1926771653543307
11
0.6120472440944882
21
0.1926771653543307
0
LINE
8
BLACK
6
CONTINUOUS
10
0.6120472440944882
20
0.1926771653543307
11
0.6120472440944882
21
0.3186614173228347
0
LINE
8
BLACK
6
CONTINUOUS
10
0.6120472440944882
20
0.3186614173228347
11
0.5175590551181102
21
0.3186614173228347
0
LINE
8
BLACK
6
CONTINUOUS
10
0.9803149606299212
20
0.8374015748031496
11
0.9817068897637795
21
0.8368249999999999
0
LINE
8
BLACK
6
CONTINUOUS
10
0.9817068897637795
20
0.8368249999999999
11
0.9822834645669292
21
0.8354330708661417
0
LINE
8
BLACK
6
CONTINUOUS
10
0.9822834645669292
20
0.8354330708661417
11
0.9822834645669292
21
0.4637795275590551
0
LINE
8
BLACK
6
CONTINUOUS
10
0.9822834645669292
20
0.4637795275590551
11
0.9817068897637795
21
0.4623875984251968
0
LINE
8
BLACK
6
CONTINUOUS
10
0.9817068897637795
20
0.4623875984251968
11
0.9803149606299212
21
0.4618110236220472
0
LINE
8
BLACK
6
CONTINUOUS
10
0.9803149606299212
20
0.4618110236220472
11
0.7283464566929134
21
0.4618110236220472
0
LINE
8
BLACK
6
CONTINUOUS
10
0.7283464566929134
20
0.4618110236220472
11
0.7269545275590551
21
0.4623875984251968
0
LINE
8
BLACK
6
CONTINUOUS
10
0.7269545275590551
20
0.4623875984251968
11
0.7263779527559054
21
0.4637795275590551
0
LINE
8
BLACK
6
CONTINUOUS
10
0.7263779527559054
20
0.4637795275590551
11
0.7263779527559054
21
0.8354330708661417
0
LINE
8
BLACK
6
CONTINUOUS
10
0.7263779527559054
20
0.8354330708661417
11
0.7269545275590551
21
0.8368249999999999
0
LINE
8
BLACK
6
CONTINUOUS
10
0.7269545275590551
20
0.8368249999999999
11
0.7283464566929134
21
0.8374015748031496
0
LINE
8
BLACK
6
CONTINUOUS
10
0.7283464566929134
20
0.8374015748031496
11
0.9803149606299212
21
0.8374015748031496
0
LINE
8
BLACK
6
CONTINUOUS
10
0.7303149606299213
20
0.8334645669291338
11
0.7303149606299213
21
0.465748031496063
0
LINE
8
BLACK
6
CONTINUOUS
10
0.7303149606299213
20
0.465748031496063
11
0.9783464566929133
21
0.465748031496063
0
LINE
8
BLACK
6
CONTINUOUS
10
0.9783464566929133
20
0.465748031496063
11
0.9783464566929133
21
0.8334645669291338
0
LINE
8
BLACK
6
CONTINUOUS
10
0.9783464566929133
20
0.8334645669291338
11
0.7303149606299213
21
0.8334645669291338
0
LINE
8
BLACK
6
CONTINUOUS
10
0.6140157480314961
20
0.7162992125984252
11
0.6154076771653543
21
0.7157226377952756
0
LINE
8
BLACK
6
CONTINUOUS
10
0.6154076771653543
20
0.7157226377952756
11
0.6159842519685039
21
0.7143307086614173
0
LINE
8
BLACK
6
CONTINUOUS
10
0.6159842519685039
20
0.7143307086614173
11
0.6159842519685039
21
0.5844094488188977
0
LINE
8
BLACK
6
CONTINUOUS
10
0.6159842519685039
20
0.5844094488188977
11
0.6154076771653543
21
0.5830175196850393
0
LINE
8
BLACK
6
CONTINUOUS
10
0.6154076771653543
20
0.5830175196850393
11
0.6140157480314961
21
0.5824409448818898
0
LINE
8
BLACK
6
CONTINUOUS
10
0.6140157480314961
20
0.5824409448818898
11
0.5155905511811023
21
0.5824409448818898
0
LINE
8
BLACK
6
CONTINUOUS
10
0.5155905511811023
20
0.5824409448818898
11
0.5141986220472441
21
0.5830175196850393
0
LINE
8
BLACK
6
CONTINUOUS
10
0.5141986220472441
20
0.5830175196850393
11
0.5136220472440944
21
0.5844094488188977
0
LINE
8
BLACK
6
CONTINUOUS
10
0.5136220472440944
20
0.5844094488188977
11
0.5136220472440944
21
0.7143307086614173
0
LINE
8
BLACK
6
CONTINUOUS
10
0.5136220472440944
20
0.7143307086614173
11
0.5141986220472441
21
0.7157226377952756
0
LINE
8
BLACK
6
CONTINUOUS
10
0.5141986220472441
20
0.7157226377952756
11
0.5155905511811023
21
0.7162992125984252
0
LINE
8
BLACK
6
CONTINUOUS
10
0.5155905511811023
20
0.7162992125984252
11
0.6140157480314961
21
0.7162992125984252
0
LINE
8
BLACK
6
CONTINUOUS
10
0.5175590551181102
20
0.7123622047244095
11
0.5175590551181102
21
0.5863779527559055
0
LINE
8
BLACK
6
CONTINUOUS
10
0.5175590551181102
20
0.5863779527559055
11
0.6120472440944882
21
0.5863779527559055
0
LINE
8
BLACK
6
CONTINUOUS
10
0.6120472440944882
20
0.5863779527559055
11
0.6120472440944882
21
0.7123622047244095
0
LINE
8
BLACK
6
CONTINUOUS
10
0.6120472440944882
20
0.7123622047244095
11
0.5175590551181102
21
0.7123622047244095
  0
ENDSEC
  0
EOF
