  0
SECTION
  2
HEADER
  9
$ANGBASE
  50
0.0
  9
$ANGDIR
  70
1
  9
$MEASUREMENT
  70
0
  0
ENDSEC
  0
SECTION
  2
TABLES
  0
TABLE
  2
LTYPE
  70
4
  0
LTYPE
  5
40F
  2
CONTINUOUS
  70
0
  3
Solid line
  72
65
  73
0
  40
0.0
  0
LTYPE
  5
410
  2
DASHDOT
 70
0
  3
Dash Dot ____ _ ____ _
 72
65
 73
4
 40
2.0
 49
1.25
 49
-0.25
 49
0.25
 49
-0.25
  0
LTYPE
  5
411
  2
DASHED
 70
0
  3
Dashed __ __ __ __ __
 72
65
 73
2
 40
0.75
 49
0.5
 49
-0.25
  0
LTYPE
  5
43B
  2
DOTTED
 70
0
  3
Dotted .  .  .  .
 72
65
 73
2
 40
0.2
 49
0.0
 49
-0.2
  0
ENDTAB
  0
TABLE
  2
STYLE
  70
4
  0
STYLE
  2
KICAD
  70
0
  40
0
  41
1
  42
1
  50
0
  71
0
  3
isocp.shx
  0
STYLE
  2
KICADB
  70
0
  40
0
  41
1
  42
1
  50
0
  71
0
  3
isocp.shx
  0
STYLE
  2
KICADI
  70
0
  40
0
  41
1
  42
1
  50
15
  71
0
  3
isocp.shx
  0
STYLE
  2
KICADBI
  70
0
  40
0
  41
1
  42
1
  50
15
  71
0
  3
isocp.shx
  0
ENDTAB
  0
TABLE
  2
LAYER
  70
1
  0
LAYER
  2
BLACK
  70
0
  62
7
  6
CONTINUOUS
  0
ENDTAB
  0
ENDSEC
  0
SECTION
  2
ENTITIES
0
LINE
8
BLACK
6
CONTINUOUS
10
0.6962677165354331
20
0.1107086614173228
11
0.6976596456692913
21
0.1101320866141732
0
LINE
8
BLACK
6
CONTINUOUS
10
0.6976596456692913
20
0.1101320866141732
11
0.6982362204724409
21
0.108740157480315
0
LINE
8
BLACK
6
CONTINUOUS
10
0.6982362204724409
20
0.108740157480315
11
0.6982362204724409
21
0.051259842519685
0
LINE
8
BLACK
6
CONTINUOUS
10
0.6982362204724409
20
0.051259842519685
11
0.6976596456692913
21
0.0498679133858268
0
LINE
8
BLACK
6
CONTINUOUS
10
0.6976596456692913
20
0.0498679133858268
11
0.6962677165354331
21
0.0492913385826772
0
LINE
8
BLACK
6
CONTINUOUS
10
0.6962677165354331
20
0.0492913385826772
11
0.579732283464567
21
0.0492913385826772
0
LINE
8
BLACK
6
CONTINUOUS
10
0.579732283464567
20
0.0492913385826772
11
0.5783403543307086
21
0.0498679133858268
0
LINE
8
BLACK
6
CONTINUOUS
10
0.5783403543307086
20
0.0498679133858268
11
0.5777637795275591
21
0.051259842519685
0
LINE
8
BLACK
6
CONTINUOUS
10
0.5777637795275591
20
0.051259842519685
11
0.5777637795275591
21
0.108740157480315
0
LINE
8
BLACK
6
CONTINUOUS
10
0.5777637795275591
20
0.108740157480315
11
0.5783403543307086
21
0.1101320866141732
0
LINE
8
BLACK
6
CONTINUOUS
10
0.5783403543307086
20
0.1101320866141732
11
0.579732283464567
21
0.1107086614173228
0
LINE
8
BLACK
6
CONTINUOUS
10
0.579732283464567
20
0.1107086614173228
11
0.6962677165354331
21
0.1107086614173228
0
LINE
8
BLACK
6
CONTINUOUS
10
0.5817007874015748
20
0.1067716535433071
11
0.5817007874015748
21
0.0532283464566929
0
LINE
8
BLACK
6
CONTINUOUS
10
0.5817007874015748
20
0.0532283464566929
11
0.6942992125984252
21
0.0532283464566929
0
LINE
8
BLACK
6
CONTINUOUS
10
0.6942992125984252
20
0.0532283464566929
11
0.6942992125984252
21
0.1067716535433071
0
LINE
8
BLACK
6
CONTINUOUS
10
0.6942992125984252
20
0.1067716535433071
11
0.5817007874015748
21
0.1067716535433071
0
LINE
8
BLACK
6
CONTINUOUS
10
0.2559055118110236
20
0.4437007874015748
11
0.2572974409448819
21
0.4431242125984252
0
LINE
8
BLACK
6
CONTINUOUS
10
0.2572974409448819
20
0.4431242125984252
11
0.2578740157480315
21
0.4417322834645669
0
LINE
8
BLACK
6
CONTINUOUS
10
0.2578740157480315
20
0.4417322834645669
11
0.2578740157480315
21
0.0700787401574803
0
LINE
8
BLACK
6
CONTINUOUS
10
0.2578740157480315
20
0.0700787401574803
11
0.2572974409448819
21
0.068686811023622
0
LINE
8
BLACK
6
CONTINUOUS
10
0.2572974409448819
20
0.068686811023622
11
0.2559055118110236
21
0.0681102362204724
0
LINE
8
BLACK
6
CONTINUOUS
10
0.2559055118110236
20
0.0681102362204724
11
0.0039370078740157
21
0.0681102362204724
0
LINE
8
BLACK
6
CONTINUOUS
10
0.0039370078740157
20
0.0681102362204724
11
0.0025450787401575
21
0.068686811023622
0
LINE
8
BLACK
6
CONTINUOUS
10
0.0025450787401575
20
0.068686811023622
11
0.0019685039370079
21
0.0700787401574803
0
LINE
8
BLACK
6
CONTINUOUS
10
0.0019685039370079
20
0.0700787401574803
11
0.0019685039370079
21
0.4417322834645669
0
LINE
8
BLACK
6
CONTINUOUS
10
0.0019685039370079
20
0.4417322834645669
11
0.0025450787401575
21
0.4431242125984252
0
LINE
8
BLACK
6
CONTINUOUS
10
0.0025450787401575
20
0.4431242125984252
11
0.0039370078740157
21
0.4437007874015748
0
LINE
8
BLACK
6
CONTINUOUS
10
0.0039370078740157
20
0.4437007874015748
11
0.2559055118110236
21
0.4437007874015748
0
LINE
8
BLACK
6
CONTINUOUS
10
0.0059055118110236
20
0.439763779527559
11
0.0059055118110236
21
0.0720472440944882
0
LINE
8
BLACK
6
CONTINUOUS
10
0.0059055118110236
20
0.0720472440944882
11
0.2539370078740157
21
0.0720472440944882
0
LINE
8
BLACK
6
CONTINUOUS
10
0.2539370078740157
20
0.0720472440944882
11
0.2539370078740157
21
0.439763779527559
0
LINE
8
BLACK
6
CONTINUOUS
10
0.2539370078740157
20
0.439763779527559
11
0.0059055118110236
21
0.439763779527559
0
LINE
8
BLACK
6
CONTINUOUS
10
0.9803149606299212
20
0.4437007874015748
11
0.9817068897637795
21
0.4431242125984252
0
LINE
8
BLACK
6
CONTINUOUS
10
0.9817068897637795
20
0.4431242125984252
11
0.9822834645669292
21
0.4417322834645669
0
LINE
8
BLACK
6
CONTINUOUS
10
0.9822834645669292
20
0.4417322834645669
11
0.9822834645669292
21
0.0700787401574803
0
LINE
8
BLACK
6
CONTINUOUS
10
0.9822834645669292
20
0.0700787401574803
11
0.9817068897637795
21
0.068686811023622
0
LINE
8
BLACK
6
CONTINUOUS
10
0.9817068897637795
20
0.068686811023622
11
0.9803149606299212
21
0.0681102362204724
0
LINE
8
BLACK
6
CONTINUOUS
10
0.9803149606299212
20
0.0681102362204724
11
0.7283464566929134
21
0.0681102362204724
0
LINE
8
BLACK
6
CONTINUOUS
10
0.7283464566929134
20
0.0681102362204724
11
0.7269545275590551
21
0.068686811023622
0
LINE
8
BLACK
6
CONTINUOUS
10
0.7269545275590551
20
0.068686811023622
11
0.7263779527559054
21
0.0700787401574803
0
LINE
8
BLACK
6
CONTINUOUS
10
0.7263779527559054
20
0.0700787401574803
11
0.7263779527559054
21
0.194244094488189
0
LINE
8
BLACK
6
CONTINUOUS
10
0.7263779527559054
20
0.194244094488189
11
0.6712598425196851
21
0.194244094488189
0
LINE
8
BLACK
6
CONTINUOUS
10
0.6712598425196851
20
0.194244094488189
11
0.6698679133858267
21
0.1948206692913386
0
LINE
8
BLACK
6
CONTINUOUS
10
0.6698679133858267
20
0.1948206692913386
11
0.6692913385826772
21
0.1962125984251968
0
LINE
8
BLACK
6
CONTINUOUS
10
0.6692913385826772
20
0.1962125984251968
11
0.6692913385826772
21
0.312748031496063
0
LINE
8
BLACK
6
CONTINUOUS
10
0.6692913385826772
20
0.312748031496063
11
0.6698679133858267
21
0.3141399606299213
0
LINE
8
BLACK
6
CONTINUOUS
10
0.6698679133858267
20
0.3141399606299213
11
0.6712598425196851
21
0.3147165354330709
0
LINE
8
BLACK
6
CONTINUOUS
10
0.6712598425196851
20
0.3147165354330709
11
0.7263779527559054
21
0.3147165354330709
0
LINE
8
BLACK
6
CONTINUOUS
10
0.7263779527559054
20
0.3147165354330709
11
0.7263779527559054
21
0.322244094488189
0
LINE
8
BLACK
6
CONTINUOUS
10
0.7263779527559054
20
0.322244094488189
11
0.6712598425196851
21
0.322244094488189
0
LINE
8
BLACK
6
CONTINUOUS
10
0.6712598425196851
20
0.322244094488189
11
0.6698679133858267
21
0.3228206692913386
0
LINE
8
BLACK
6
CONTINUOUS
10
0.6698679133858267
20
0.3228206692913386
11
0.6692913385826772
21
0.3242125984251968
0
LINE
8
BLACK
6
CONTINUOUS
10
0.6692913385826772
20
0.3242125984251968
11
0.6692913385826772
21
0.440748031496063
0
LINE
8
BLACK
6
CONTINUOUS
10
0.6692913385826772
20
0.440748031496063
11
0.6698679133858267
21
0.4421399606299212
0
LINE
8
BLACK
6
CONTINUOUS
10
0.6698679133858267
20
0.4421399606299212
11
0.6712598425196851
21
0.4427165354330709
0
LINE
8
BLACK
6
CONTINUOUS
10
0.6712598425196851
20
0.4427165354330709
11
0.7267856692913386
21
0.4427165354330709
0
LINE
8
BLACK
6
CONTINUOUS
10
0.7267856692913386
20
0.4427165354330709
11
0.7269545275590551
21
0.4431242125984252
0
LINE
8
BLACK
6
CONTINUOUS
10
0.7269545275590551
20
0.4431242125984252
11
0.7283464566929134
21
0.4437007874015748
0
LINE
8
BLACK
6
CONTINUOUS
10
0.7283464566929134
20
0.4437007874015748
11
0.9803149606299212
21
0.4437007874015748
0
LINE
8
BLACK
6
CONTINUOUS
10
0.7307086614173228
20
0.439763779527559
11
0.7307086614173228
21
0.3242125984251968
0
LINE
8
BLACK
6
CONTINUOUS
10
0.7307086614173228
20
0.3242125984251968
11
0.7303149606299213
21
0.3232621653543307
0
LINE
8
BLACK
6
CONTINUOUS
10
0.7303149606299213
20
0.3232621653543307
11
0.7303149606299213
21
0.3136985039370079
0
LINE
8
BLACK
6
CONTINUOUS
10
0.7303149606299213
20
0.3136985039370079
11
0.7307086614173228
21
0.312748031496063
0
LINE
8
BLACK
6
CONTINUOUS
10
0.7307086614173228
20
0.312748031496063
11
0.7307086614173228
21
0.1962125984251968
0
LINE
8
BLACK
6
CONTINUOUS
10
0.7307086614173228
20
0.1962125984251968
11
0.7303149606299213
21
0.1952621653543307
0
LINE
8
BLACK
6
CONTINUOUS
10
0.7303149606299213
20
0.1952621653543307
11
0.7303149606299213
21
0.0720472440944882
0
LINE
8
BLACK
6
CONTINUOUS
10
0.7303149606299213
20
0.0720472440944882
11
0.9783464566929133
21
0.0720472440944882
0
LINE
8
BLACK
6
CONTINUOUS
10
0.9783464566929133
20
0.0720472440944882
11
0.9783464566929133
21
0.439763779527559
0
LINE
8
BLACK
6
CONTINUOUS
10
0.9783464566929133
20
0.439763779527559
11
0.7307086614173228
21
0.439763779527559
0
LINE
8
BLACK
6
CONTINUOUS
10
0.6732283464566929
20
0.3107795275590551
11
0.6732283464566929
21
0.1981811023622047
0
LINE
8
BLACK
6
CONTINUOUS
10
0.6732283464566929
20
0.1981811023622047
11
0.7263779527559054
21
0.1981811023622047
0
LINE
8
BLACK
6
CONTINUOUS
10
0.7263779527559054
20
0.1981811023622047
11
0.7263779527559054
21
0.3107795275590551
0
LINE
8
BLACK
6
CONTINUOUS
10
0.7263779527559054
20
0.3107795275590551
11
0.6732283464566929
21
0.3107795275590551
0
LINE
8
BLACK
6
CONTINUOUS
10
0.6732283464566929
20
0.4387795275590551
11
0.6732283464566929
21
0.3261811023622047
0
LINE
8
BLACK
6
CONTINUOUS
10
0.6732283464566929
20
0.3261811023622047
11
0.7263779527559054
21
0.3261811023622047
0
LINE
8
BLACK
6
CONTINUOUS
10
0.7263779527559054
20
0.3261811023622047
11
0.7263779527559054
21
0.4387795275590551
0
LINE
8
BLACK
6
CONTINUOUS
10
0.7263779527559054
20
0.4387795275590551
11
0.6732283464566929
21
0.4387795275590551
0
LINE
8
BLACK
6
CONTINUOUS
10
0.4025826771653543
20
0.2068976377952756
11
0.4039746062992126
21
0.206321062992126
0
LINE
8
BLACK
6
CONTINUOUS
10
0.4039746062992126
20
0.206321062992126
11
0.4045511811023622
21
0.2049291338582677
0
LINE
8
BLACK
6
CONTINUOUS
10
0.4045511811023622
20
0.2049291338582677
11
0.4045511811023622
21
0.0710708661417323
0
LINE
8
BLACK
6
CONTINUOUS
10
0.4045511811023622
20
0.0710708661417323
11
0.4039746062992126
21
0.069678937007874
0
LINE
8
BLACK
6
CONTINUOUS
10
0.4039746062992126
20
0.069678937007874
11
0.4025826771653543
21
0.0691023622047244
0
LINE
8
BLACK
6
CONTINUOUS
10
0.4025826771653543
20
0.0691023622047244
11
0.3254173228346456
21
0.0691023622047244
0
LINE
8
BLACK
6
CONTINUOUS
10
0.3254173228346456
20
0.0691023622047244
11
0.3240253937007874
21
0.069678937007874
0
LINE
8
BLACK
6
CONTINUOUS
10
0.3240253937007874
20
0.069678937007874
11
0.3234488188976378
21
0.0710708661417323
0
LINE
8
BLACK
6
CONTINUOUS
10
0.3234488188976378
20
0.0710708661417323
11
0.3234488188976378
21
0.2049291338582677
0
LINE
8
BLACK
6
CONTINUOUS
10
0.3234488188976378
20
0.2049291338582677
11
0.3240253937007874
21
0.206321062992126
0
LINE
8
BLACK
6
CONTINUOUS
10
0.3240253937007874
20
0.206321062992126
11
0.3254173228346456
21
0.2068976377952756
0
LINE
8
BLACK
6
CONTINUOUS
10
0.3254173228346456
20
0.2068976377952756
11
0.4025826771653543
21
0.2068976377952756
0
LINE
8
BLACK
6
CONTINUOUS
10
0.3273858267716535
20
0.2029606299212598
11
0.3273858267716535
21
0.0730393700787402
0
LINE
8
BLACK
6
CONTINUOUS
10
0.3273858267716535
20
0.0730393700787402
11
0.4006141732283465
21
0.0730393700787402
0
LINE
8
BLACK
6
CONTINUOUS
10
0.4006141732283465
20
0.0730393700787402
11
0.4006141732283465
21
0.2029606299212598
0
LINE
8
BLACK
6
CONTINUOUS
10
0.4006141732283465
20
0.2029606299212598
11
0.3273858267716535
21
0.2029606299212598
0
LINE
8
BLACK
6
CONTINUOUS
10
0.5589291338582677
20
0.2626771653543307
11
0.5603210629921259
21
0.2621005905511811
0
LINE
8
BLACK
6
CONTINUOUS
10
0.5603210629921259
20
0.2621005905511811
11
0.5608976377952756
21
0.2607086614173229
0
LINE
8
BLACK
6
CONTINUOUS
10
0.5608976377952756
20
0.2607086614173229
11
0.5608976377952756
21
0.0992913385826772
0
LINE
8
BLACK
6
CONTINUOUS
10
0.5608976377952756
20
0.0992913385826772
11
0.5603210629921259
21
0.0978994094488189
0
LINE
8
BLACK
6
CONTINUOUS
10
0.5603210629921259
20
0.0978994094488189
11
0.5589291338582677
21
0.0973228346456693
0
LINE
8
BLACK
6
CONTINUOUS
10
0.5589291338582677
20
0.0973228346456693
11
0.4250708661417323
21
0.0973228346456693
0
LINE
8
BLACK
6
CONTINUOUS
10
0.4250708661417323
20
0.0973228346456693
11
0.423678937007874
21
0.0978994094488189
0
LINE
8
BLACK
6
CONTINUOUS
10
0.423678937007874
20
0.0978994094488189
11
0.4231023622047244
21
0.0992913385826772
0
LINE
8
BLACK
6
CONTINUOUS
10
0.4231023622047244
20
0.0992913385826772
11
0.4231023622047244
21
0.2607086614173229
0
LINE
8
BLACK
6
CONTINUOUS
10
0.4231023622047244
20
0.2607086614173229
11
0.423678937007874
21
0.2621005905511811
0
LINE
8
BLACK
6
CONTINUOUS
10
0.423678937007874
20
0.2621005905511811
11
0.4250708661417323
21
0.2626771653543307
0
LINE
8
BLACK
6
CONTINUOUS
10
0.4250708661417323
20
0.2626771653543307
11
0.5589291338582677
21
0.2626771653543307
0
LINE
8
BLACK
6
CONTINUOUS
10
0.4270393700787402
20
0.258740157480315
11
0.4270393700787402
21
0.101259842519685
0
LINE
8
BLACK
6
CONTINUOUS
10
0.4270393700787402
20
0.101259842519685
11
0.5569606299212598
21
0.101259842519685
0
LINE
8
BLACK
6
CONTINUOUS
10
0.5569606299212598
20
0.101259842519685
11
0.5569606299212598
21
0.258740157480315
0
LINE
8
BLACK
6
CONTINUOUS
10
0.5569606299212598
20
0.258740157480315
11
0.4270393700787402
21
0.258740157480315
0
LINE
8
BLACK
6
CONTINUOUS
10
0.3175590551181102
20
0.2061811023622047
11
0.3189509842519685
21
0.2056045275590551
0
LINE
8
BLACK
6
CONTINUOUS
10
0.3189509842519685
20
0.2056045275590551
11
0.3195275590551181
21
0.2042125984251968
0
LINE
8
BLACK
6
CONTINUOUS
10
0.3195275590551181
20
0.2042125984251968
11
0.3195275590551181
21
0.1057874015748032
0
LINE
8
BLACK
6
CONTINUOUS
10
0.3195275590551181
20
0.1057874015748032
11
0.3189509842519685
21
0.1043954724409449
0
LINE
8
BLACK
6
CONTINUOUS
10
0.3189509842519685
20
0.1043954724409449
11
0.3175590551181102
21
0.1038188976377953
0
LINE
8
BLACK
6
CONTINUOUS
10
0.3175590551181102
20
0.1038188976377953
11
0.2624409448818897
21
0.1038188976377953
0
LINE
8
BLACK
6
CONTINUOUS
10
0.2624409448818897
20
0.1038188976377953
11
0.2610490157480315
21
0.1043954724409449
0
LINE
8
BLACK
6
CONTINUOUS
10
0.2610490157480315
20
0.1043954724409449
11
0.2604724409448819
21
0.1057874015748032
0
LINE
8
BLACK
6
CONTINUOUS
10
0.2604724409448819
20
0.1057874015748032
11
0.2604724409448819
21
0.2042125984251968
0
LINE
8
BLACK
6
CONTINUOUS
10
0.2604724409448819
20
0.2042125984251968
11
0.2610490157480315
21
0.2056045275590551
0
LINE
8
BLACK
6
CONTINUOUS
10
0.2610490157480315
20
0.2056045275590551
11
0.2624409448818897
21
0.2061811023622047
0
LINE
8
BLACK
6
CONTINUOUS
10
0.2624409448818897
20
0.2061811023622047
11
0.3175590551181102
21
0.2061811023622047
0
LINE
8
BLACK
6
CONTINUOUS
10
0.2644094488188976
20
0.202244094488189
11
0.2644094488188976
21
0.107755905511811
0
LINE
8
BLACK
6
CONTINUOUS
10
0.2644094488188976
20
0.107755905511811
11
0.3155905511811024
21
0.107755905511811
0
LINE
8
BLACK
6
CONTINUOUS
10
0.3155905511811024
20
0.107755905511811
11
0.3155905511811024
21
0.202244094488189
0
LINE
8
BLACK
6
CONTINUOUS
10
0.3155905511811024
20
0.202244094488189
11
0.2644094488188976
21
0.202244094488189
0
LINE
8
BLACK
6
CONTINUOUS
10
0.6962677165354331
20
0.1761417322834646
11
0.6976596456692913
21
0.175565157480315
0
LINE
8
BLACK
6
CONTINUOUS
10
0.6976596456692913
20
0.175565157480315
11
0.6982362204724409
21
0.1741732283464567
0
LINE
8
BLACK
6
CONTINUOUS
10
0.6982362204724409
20
0.1741732283464567
11
0.6982362204724409
21
0.1166929133858268
0
LINE
8
BLACK
6
CONTINUOUS
10
0.6982362204724409
20
0.1166929133858268
11
0.6976596456692913
21
0.1153009842519685
0
LINE
8
BLACK
6
CONTINUOUS
10
0.6976596456692913
20
0.1153009842519685
11
0.6962677165354331
21
0.1147244094488189
0
LINE
8
BLACK
6
CONTINUOUS
10
0.6962677165354331
20
0.1147244094488189
11
0.579732283464567
21
0.1147244094488189
0
LINE
8
BLACK
6
CONTINUOUS
10
0.579732283464567
20
0.1147244094488189
11
0.5783403543307086
21
0.1153009842519685
0
LINE
8
BLACK
6
CONTINUOUS
10
0.5783403543307086
20
0.1153009842519685
11
0.5777637795275591
21
0.1166929133858268
0
LINE
8
BLACK
6
CONTINUOUS
10
0.5777637795275591
20
0.1166929133858268
11
0.5777637795275591
21
0.1741732283464567
0
LINE
8
BLACK
6
CONTINUOUS
10
0.5777637795275591
20
0.1741732283464567
11
0.5783403543307086
21
0.175565157480315
0
LINE
8
BLACK
6
CONTINUOUS
10
0.5783403543307086
20
0.175565157480315
11
0.579732283464567
21
0.1761417322834646
0
LINE
8
BLACK
6
CONTINUOUS
10
0.579732283464567
20
0.1761417322834646
11
0.6962677165354331
21
0.1761417322834646
0
LINE
8
BLACK
6
CONTINUOUS
10
0.5817007874015748
20
0.1722047244094488
11
0.5817007874015748
21
0.1186614173228346
0
LINE
8
BLACK
6
CONTINUOUS
10
0.5817007874015748
20
0.1186614173228346
11
0.6942992125984252
21
0.1186614173228346
0
LINE
8
BLACK
6
CONTINUOUS
10
0.6942992125984252
20
0.1186614173228346
11
0.6942992125984252
21
0.1722047244094488
0
LINE
8
BLACK
6
CONTINUOUS
10
0.6942992125984252
20
0.1722047244094488
11
0.5817007874015748
21
0.1722047244094488
0
LINE
8
BLACK
6
CONTINUOUS
10
0.6627401574803149
20
0.313755905511811
11
0.6641320866141732
21
0.3131793307086614
0
LINE
8
BLACK
6
CONTINUOUS
10
0.6641320866141732
20
0.3131793307086614
11
0.6647086614173228
21
0.3117874015748032
0
LINE
8
BLACK
6
CONTINUOUS
10
0.6647086614173228
20
0.3117874015748032
11
0.6647086614173228
21
0.195251968503937
0
LINE
8
BLACK
6
CONTINUOUS
10
0.6647086614173228
20
0.195251968503937
11
0.6641320866141732
21
0.1938600393700787
0
LINE
8
BLACK
6
CONTINUOUS
10
0.6641320866141732
20
0.1938600393700787
11
0.6627401574803149
21
0.1932834645669291
0
LINE
8
BLACK
6
CONTINUOUS
10
0.6627401574803149
20
0.1932834645669291
11
0.605259842519685
21
0.1932834645669291
0
LINE
8
BLACK
6
CONTINUOUS
10
0.605259842519685
20
0.1932834645669291
11
0.6038679133858268
21
0.1938600393700787
0
LINE
8
BLACK
6
CONTINUOUS
10
0.6038679133858268
20
0.1938600393700787
11
0.6032913385826771
21
0.195251968503937
0
LINE
8
BLACK
6
CONTINUOUS
10
0.6032913385826771
20
0.195251968503937
11
0.6032913385826771
21
0.3117874015748032
0
LINE
8
BLACK
6
CONTINUOUS
10
0.6032913385826771
20
0.3117874015748032
11
0.6038679133858268
21
0.3131793307086614
0
LINE
8
BLACK
6
CONTINUOUS
10
0.6038679133858268
20
0.3131793307086614
11
0.605259842519685
21
0.313755905511811
0
LINE
8
BLACK
6
CONTINUOUS
10
0.605259842519685
20
0.313755905511811
11
0.6627401574803149
21
0.313755905511811
0
LINE
8
BLACK
6
CONTINUOUS
10
0.6072283464566929
20
0.3098188976377952
11
0.6072283464566929
21
0.1972204724409449
0
LINE
8
BLACK
6
CONTINUOUS
10
0.6072283464566929
20
0.1972204724409449
11
0.660771653543307
21
0.1972204724409449
0
LINE
8
BLACK
6
CONTINUOUS
10
0.660771653543307
20
0.1972204724409449
11
0.660771653543307
21
0.3098188976377952
0
LINE
8
BLACK
6
CONTINUOUS
10
0.660771653543307
20
0.3098188976377952
11
0.6072283464566929
21
0.3098188976377952
0
LINE
8
BLACK
6
CONTINUOUS
10
0.3437007874015748
20
0.3358267716535433
11
0.3450927165354331
21
0.3352501968503937
0
LINE
8
BLACK
6
CONTINUOUS
10
0.3450927165354331
20
0.3352501968503937
11
0.3456692913385827
21
0.3338582677165354
0
LINE
8
BLACK
6
CONTINUOUS
10
0.3456692913385827
20
0.3338582677165354
11
0.3456692913385827
21
0.2173228346456693
0
LINE
8
BLACK
6
CONTINUOUS
10
0.3456692913385827
20
0.2173228346456693
11
0.3450927165354331
21
0.215930905511811
0
LINE
8
BLACK
6
CONTINUOUS
10
0.3450927165354331
20
0.215930905511811
11
0.3437007874015748
21
0.2153543307086614
0
LINE
8
BLACK
6
CONTINUOUS
10
0.3437007874015748
20
0.2153543307086614
11
0.2862204724409449
21
0.2153543307086614
0
LINE
8
BLACK
6
CONTINUOUS
10
0.2862204724409449
20
0.2153543307086614
11
0.2848285433070866
21
0.215930905511811
0
LINE
8
BLACK
6
CONTINUOUS
10
0.2848285433070866
20
0.215930905511811
11
0.284251968503937
21
0.2173228346456693
0
LINE
8
BLACK
6
CONTINUOUS
10
0.284251968503937
20
0.2173228346456693
11
0.284251968503937
21
0.3338582677165354
0
LINE
8
BLACK
6
CONTINUOUS
10
0.284251968503937
20
0.3338582677165354
11
0.2848285433070866
21
0.3352501968503937
0
LINE
8
BLACK
6
CONTINUOUS
10
0.2848285433070866
20
0.3352501968503937
11
0.2862204724409449
21
0.3358267716535433
0
LINE
8
BLACK
6
CONTINUOUS
10
0.2862204724409449
20
0.3358267716535433
11
0.3437007874015748
21
0.3358267716535433
0
LINE
8
BLACK
6
CONTINUOUS
10
0.2881889763779528
20
0.3318897637795276
11
0.2881889763779528
21
0.2192913385826772
0
LINE
8
BLACK
6
CONTINUOUS
10
0.2881889763779528
20
0.2192913385826772
11
0.3417322834645669
21
0.2192913385826772
0
LINE
8
BLACK
6
CONTINUOUS
10
0.3417322834645669
20
0.2192913385826772
11
0.3417322834645669
21
0.3318897637795276
0
LINE
8
BLACK
6
CONTINUOUS
10
0.3417322834645669
20
0.3318897637795276
11
0.2881889763779528
21
0.3318897637795276
0
LINE
8
BLACK
6
CONTINUOUS
10
0.414740157480315
20
0.338236220472441
11
0.4161320866141732
21
0.3376596456692914
0
LINE
8
BLACK
6
CONTINUOUS
10
0.4161320866141732
20
0.3376596456692914
11
0.4167086614173228
21
0.3362677165354331
0
LINE
8
BLACK
6
CONTINUOUS
10
0.4167086614173228
20
0.3362677165354331
11
0.4167086614173228
21
0.2197322834645669
0
LINE
8
BLACK
6
CONTINUOUS
10
0.4167086614173228
20
0.2197322834645669
11
0.4161320866141732
21
0.2183403543307087
0
LINE
8
BLACK
6
CONTINUOUS
10
0.4161320866141732
20
0.2183403543307087
11
0.414740157480315
21
0.217763779527559
0
LINE
8
BLACK
6
CONTINUOUS
10
0.414740157480315
20
0.217763779527559
11
0.357259842519685
21
0.217763779527559
0
LINE
8
BLACK
6
CONTINUOUS
10
0.357259842519685
20
0.217763779527559
11
0.3558679133858267
21
0.2183403543307087
0
LINE
8
BLACK
6
CONTINUOUS
10
0.3558679133858267
20
0.2183403543307087
11
0.3552913385826771
21
0.2197322834645669
0
LINE
8
BLACK
6
CONTINUOUS
10
0.3552913385826771
20
0.2197322834645669
11
0.3552913385826771
21
0.3362677165354331
0
LINE
8
BLACK
6
CONTINUOUS
10
0.3552913385826771
20
0.3362677165354331
11
0.3558679133858267
21
0.3376596456692914
0
LINE
8
BLACK
6
CONTINUOUS
10
0.3558679133858267
20
0.3376596456692914
11
0.357259842519685
21
0.338236220472441
0
LINE
8
BLACK
6
CONTINUOUS
10
0.357259842519685
20
0.338236220472441
11
0.414740157480315
21
0.338236220472441
0
LINE
8
BLACK
6
CONTINUOUS
10
0.3592283464566929
20
0.3342992125984252
11
0.3592283464566929
21
0.2217007874015748
0
LINE
8
BLACK
6
CONTINUOUS
10
0.3592283464566929
20
0.2217007874015748
11
0.4127716535433071
21
0.2217007874015748
0
LINE
8
BLACK
6
CONTINUOUS
10
0.4127716535433071
20
0.2217007874015748
11
0.4127716535433071
21
0.3342992125984252
0
LINE
8
BLACK
6
CONTINUOUS
10
0.4127716535433071
20
0.3342992125984252
11
0.3592283464566929
21
0.3342992125984252
0
LINE
8
BLACK
6
CONTINUOUS
10
0.6023622047244095
20
0.5867086614173228
11
0.6037541338582677
21
0.5861320866141733
0
LINE
8
BLACK
6
CONTINUOUS
10
0.6037541338582677
20
0.5861320866141733
11
0.6043307086614174
21
0.5847401574803149
0
LINE
8
BLACK
6
CONTINUOUS
10
0.6043307086614174
20
0.5847401574803149
11
0.6043307086614174
21
0.4408431102362205
0
LINE
8
BLACK
6
CONTINUOUS
10
0.6043307086614174
20
0.4408431102362205
11
0.6048679133858268
21
0.4421399606299212
0
LINE
8
BLACK
6
CONTINUOUS
10
0.6048679133858268
20
0.4421399606299212
11
0.606259842519685
21
0.4427165354330709
0
LINE
8
BLACK
6
CONTINUOUS
10
0.606259842519685
20
0.4427165354330709
11
0.6637401574803149
21
0.4427165354330709
0
LINE
8
BLACK
6
CONTINUOUS
10
0.6637401574803149
20
0.4427165354330709
11
0.6651320866141732
21
0.4421399606299212
0
LINE
8
BLACK
6
CONTINUOUS
10
0.6651320866141732
20
0.4421399606299212
11
0.6657086614173228
21
0.440748031496063
0
LINE
8
BLACK
6
CONTINUOUS
10
0.6657086614173228
20
0.440748031496063
11
0.6657086614173228
21
0.3242125984251968
0
LINE
8
BLACK
6
CONTINUOUS
10
0.6657086614173228
20
0.3242125984251968
11
0.6651320866141732
21
0.3228206692913386
0
LINE
8
BLACK
6
CONTINUOUS
10
0.6651320866141732
20
0.3228206692913386
11
0.6637401574803149
21
0.322244094488189
0
LINE
8
BLACK
6
CONTINUOUS
10
0.6637401574803149
20
0.322244094488189
11
0.606259842519685
21
0.322244094488189
0
LINE
8
BLACK
6
CONTINUOUS
10
0.606259842519685
20
0.322244094488189
11
0.6048679133858268
21
0.3228206692913386
0
LINE
8
BLACK
6
CONTINUOUS
10
0.6048679133858268
20
0.3228206692913386
11
0.6042913385826771
21
0.3242125984251968
0
LINE
8
BLACK
6
CONTINUOUS
10
0.6042913385826771
20
0.3242125984251968
11
0.6042913385826771
21
0.4271648031496063
0
LINE
8
BLACK
6
CONTINUOUS
10
0.6042913385826771
20
0.4271648031496063
11
0.6037541338582677
21
0.4258679133858267
0
LINE
8
BLACK
6
CONTINUOUS
10
0.6037541338582677
20
0.4258679133858267
11
0.6023622047244095
21
0.4252913385826771
0
LINE
8
BLACK
6
CONTINUOUS
10
0.6023622047244095
20
0.4252913385826771
11
0.3818897637795275
21
0.4252913385826771
0
LINE
8
BLACK
6
CONTINUOUS
10
0.3818897637795275
20
0.4252913385826771
11
0.3804978346456693
21
0.4258679133858267
0
LINE
8
BLACK
6
CONTINUOUS
10
0.3804978346456693
20
0.4258679133858267
11
0.3799212598425197
21
0.427259842519685
0
LINE
8
BLACK
6
CONTINUOUS
10
0.3799212598425197
20
0.427259842519685
11
0.3799212598425197
21
0.5847401574803149
0
LINE
8
BLACK
6
CONTINUOUS
10
0.3799212598425197
20
0.5847401574803149
11
0.3804978346456693
21
0.5861320866141733
0
LINE
8
BLACK
6
CONTINUOUS
10
0.3804978346456693
20
0.5861320866141733
11
0.3818897637795275
21
0.5867086614173228
0
LINE
8
BLACK
6
CONTINUOUS
10
0.3818897637795275
20
0.5867086614173228
11
0.6023622047244095
21
0.5867086614173228
0
LINE
8
BLACK
6
CONTINUOUS
10
0.6082283464566929
20
0.4387795275590551
11
0.6082283464566929
21
0.3261811023622047
0
LINE
8
BLACK
6
CONTINUOUS
10
0.6082283464566929
20
0.3261811023622047
11
0.661771653543307
21
0.3261811023622047
0
LINE
8
BLACK
6
CONTINUOUS
10
0.661771653543307
20
0.3261811023622047
11
0.661771653543307
21
0.4387795275590551
0
LINE
8
BLACK
6
CONTINUOUS
10
0.661771653543307
20
0.4387795275590551
11
0.6082283464566929
21
0.4387795275590551
0
LINE
8
BLACK
6
CONTINUOUS
10
0.3838582677165354
20
0.5827716535433071
11
0.3838582677165354
21
0.4292283464566929
0
LINE
8
BLACK
6
CONTINUOUS
10
0.3838582677165354
20
0.4292283464566929
11
0.6003937007874015
21
0.4292283464566929
0
LINE
8
BLACK
6
CONTINUOUS
10
0.6003937007874015
20
0.4292283464566929
11
0.6003937007874015
21
0.5827716535433071
0
LINE
8
BLACK
6
CONTINUOUS
10
0.6003937007874015
20
0.5827716535433071
11
0.3838582677165354
21
0.5827716535433071
0
LINE
8
BLACK
6
CONTINUOUS
10
0.368740157480315
20
0.502236220472441
11
0.3701320866141732
21
0.5016596456692913
0
LINE
8
BLACK
6
CONTINUOUS
10
0.3701320866141732
20
0.5016596456692913
11
0.3707086614173228
21
0.500267716535433
0
LINE
8
BLACK
6
CONTINUOUS
10
0.3707086614173228
20
0.500267716535433
11
0.3707086614173228
21
0.3837322834645669
0
LINE
8
BLACK
6
CONTINUOUS
10
0.3707086614173228
20
0.3837322834645669
11
0.3701320866141732
21
0.3823403543307087
0
LINE
8
BLACK
6
CONTINUOUS
10
0.3701320866141732
20
0.3823403543307087
11
0.368740157480315
21
0.381763779527559
0
LINE
8
BLACK
6
CONTINUOUS
10
0.368740157480315
20
0.381763779527559
11
0.311259842519685
21
0.381763779527559
0
LINE
8
BLACK
6
CONTINUOUS
10
0.311259842519685
20
0.381763779527559
11
0.3098679133858268
21
0.3823403543307087
0
LINE
8
BLACK
6
CONTINUOUS
10
0.3098679133858268
20
0.3823403543307087
11
0.3092913385826772
21
0.3837322834645669
0
LINE
8
BLACK
6
CONTINUOUS
10
0.3092913385826772
20
0.3837322834645669
11
0.3092913385826772
21
0.500267716535433
0
LINE
8
BLACK
6
CONTINUOUS
10
0.3092913385826772
20
0.500267716535433
11
0.3098679133858268
21
0.5016596456692913
0
LINE
8
BLACK
6
CONTINUOUS
10
0.3098679133858268
20
0.5016596456692913
11
0.311259842519685
21
0.502236220472441
0
LINE
8
BLACK
6
CONTINUOUS
10
0.311259842519685
20
0.502236220472441
11
0.368740157480315
21
0.502236220472441
0
LINE
8
BLACK
6
CONTINUOUS
10
0.3132283464566929
20
0.4982992125984252
11
0.3132283464566929
21
0.3857007874015748
0
LINE
8
BLACK
6
CONTINUOUS
10
0.3132283464566929
20
0.3857007874015748
11
0.3667716535433071
21
0.3857007874015748
0
LINE
8
BLACK
6
CONTINUOUS
10
0.3667716535433071
20
0.3857007874015748
11
0.3667716535433071
21
0.4982992125984252
0
LINE
8
BLACK
6
CONTINUOUS
10
0.3667716535433071
20
0.4982992125984252
11
0.3132283464566929
21
0.4982992125984252
0
LINE
8
BLACK
6
CONTINUOUS
10
0.2559055118110236
20
0.8374015748031496
11
0.2572974409448819
21
0.8368249999999999
0
LINE
8
BLACK
6
CONTINUOUS
10
0.2572974409448819
20
0.8368249999999999
11
0.2578740157480315
21
0.8354330708661417
0
LINE
8
BLACK
6
CONTINUOUS
10
0.2578740157480315
20
0.8354330708661417
11
0.2578740157480315
21
0.5727086614173228
0
LINE
8
BLACK
6
CONTINUOUS
10
0.2578740157480315
20
0.5727086614173228
11
0.3732677165354331
21
0.5727086614173228
0
LINE
8
BLACK
6
CONTINUOUS
10
0.3732677165354331
20
0.5727086614173228
11
0.3746596456692913
21
0.5721320866141733
0
LINE
8
BLACK
6
CONTINUOUS
10
0.3746596456692913
20
0.5721320866141733
11
0.3752362204724409
21
0.5707401574803149
0
LINE
8
BLACK
6
CONTINUOUS
10
0.3752362204724409
20
0.5707401574803149
11
0.3752362204724409
21
0.513259842519685
0
LINE
8
BLACK
6
CONTINUOUS
10
0.3752362204724409
20
0.513259842519685
11
0.3746596456692913
21
0.5118679133858267
0
LINE
8
BLACK
6
CONTINUOUS
10
0.3746596456692913
20
0.5118679133858267
11
0.3732677165354331
21
0.5112913385826772
0
LINE
8
BLACK
6
CONTINUOUS
10
0.3732677165354331
20
0.5112913385826772
11
0.2578740157480315
21
0.5112913385826772
0
LINE
8
BLACK
6
CONTINUOUS
10
0.2578740157480315
20
0.5112913385826772
11
0.2578740157480315
21
0.4637795275590551
0
LINE
8
BLACK
6
CONTINUOUS
10
0.2578740157480315
20
0.4637795275590551
11
0.2572974409448819
21
0.4623875984251968
0
LINE
8
BLACK
6
CONTINUOUS
10
0.2572974409448819
20
0.4623875984251968
11
0.2559055118110236
21
0.4618110236220472
0
LINE
8
BLACK
6
CONTINUOUS
10
0.2559055118110236
20
0.4618110236220472
11
0.0039370078740157
21
0.4618110236220472
0
LINE
8
BLACK
6
CONTINUOUS
10
0.0039370078740157
20
0.4618110236220472
11
0.0025450787401575
21
0.4623875984251968
0
LINE
8
BLACK
6
CONTINUOUS
10
0.0025450787401575
20
0.4623875984251968
11
0.0019685039370079
21
0.4637795275590551
0
LINE
8
BLACK
6
CONTINUOUS
10
0.0019685039370079
20
0.4637795275590551
11
0.0019685039370079
21
0.8354330708661417
0
LINE
8
BLACK
6
CONTINUOUS
10
0.0019685039370079
20
0.8354330708661417
11
0.0025450787401575
21
0.8368249999999999
0
LINE
8
BLACK
6
CONTINUOUS
10
0.0025450787401575
20
0.8368249999999999
11
0.0039370078740157
21
0.8374015748031496
0
LINE
8
BLACK
6
CONTINUOUS
10
0.0039370078740157
20
0.8374015748031496
11
0.2559055118110236
21
0.8374015748031496
0
LINE
8
BLACK
6
CONTINUOUS
10
0.0059055118110236
20
0.8334645669291338
11
0.0059055118110236
21
0.465748031496063
0
LINE
8
BLACK
6
CONTINUOUS
10
0.0059055118110236
20
0.465748031496063
11
0.2539370078740157
21
0.465748031496063
0
LINE
8
BLACK
6
CONTINUOUS
10
0.2539370078740157
20
0.465748031496063
11
0.2539370078740157
21
0.8334645669291338
0
LINE
8
BLACK
6
CONTINUOUS
10
0.2539370078740157
20
0.8334645669291338
11
0.0059055118110236
21
0.8334645669291338
0
LINE
8
BLACK
6
CONTINUOUS
10
0.2587007874015748
20
0.5687716535433071
11
0.2587007874015748
21
0.5152283464566929
0
LINE
8
BLACK
6
CONTINUOUS
10
0.2587007874015748
20
0.5152283464566929
11
0.3712992125984252
21
0.5152283464566929
0
LINE
8
BLACK
6
CONTINUOUS
10
0.3712992125984252
20
0.5152283464566929
11
0.3712992125984252
21
0.5687716535433071
0
LINE
8
BLACK
6
CONTINUOUS
10
0.3712992125984252
20
0.5687716535433071
11
0.2587007874015748
21
0.5687716535433071
0
LINE
8
BLACK
6
CONTINUOUS
10
0.9803149606299212
20
0.8374015748031496
11
0.9817068897637795
21
0.8368249999999999
0
LINE
8
BLACK
6
CONTINUOUS
10
0.9817068897637795
20
0.8368249999999999
11
0.9822834645669292
21
0.8354330708661417
0
LINE
8
BLACK
6
CONTINUOUS
10
0.9822834645669292
20
0.8354330708661417
11
0.9822834645669292
21
0.4637795275590551
0
LINE
8
BLACK
6
CONTINUOUS
10
0.9822834645669292
20
0.4637795275590551
11
0.9817068897637795
21
0.4623875984251968
0
LINE
8
BLACK
6
CONTINUOUS
10
0.9817068897637795
20
0.4623875984251968
11
0.9803149606299212
21
0.4618110236220472
0
LINE
8
BLACK
6
CONTINUOUS
10
0.9803149606299212
20
0.4618110236220472
11
0.7283464566929134
21
0.4618110236220472
0
LINE
8
BLACK
6
CONTINUOUS
10
0.7283464566929134
20
0.4618110236220472
11
0.7269545275590551
21
0.4623875984251968
0
LINE
8
BLACK
6
CONTINUOUS
10
0.7269545275590551
20
0.4623875984251968
11
0.7263779527559054
21
0.4637795275590551
0
LINE
8
BLACK
6
CONTINUOUS
10
0.7263779527559054
20
0.4637795275590551
11
0.7263779527559054
21
0.8354330708661417
0
LINE
8
BLACK
6
CONTINUOUS
10
0.7263779527559054
20
0.8354330708661417
11
0.7269545275590551
21
0.8368249999999999
0
LINE
8
BLACK
6
CONTINUOUS
10
0.7269545275590551
20
0.8368249999999999
11
0.7283464566929134
21
0.8374015748031496
0
LINE
8
BLACK
6
CONTINUOUS
10
0.7283464566929134
20
0.8374015748031496
11
0.9803149606299212
21
0.8374015748031496
0
LINE
8
BLACK
6
CONTINUOUS
10
0.7303149606299213
20
0.8334645669291338
11
0.7303149606299213
21
0.465748031496063
0
LINE
8
BLACK
6
CONTINUOUS
10
0.7303149606299213
20
0.465748031496063
11
0.9783464566929133
21
0.465748031496063
0
LINE
8
BLACK
6
CONTINUOUS
10
0.9783464566929133
20
0.465748031496063
11
0.9783464566929133
21
0.8334645669291338
0
LINE
8
BLACK
6
CONTINUOUS
10
0.9783464566929133
20
0.8334645669291338
11
0.7303149606299213
21
0.8334645669291338
0
LINE
8
BLACK
6
CONTINUOUS
10
0.6737401574803149
20
0.5847244094488189
11
0.6751320866141732
21
0.5841478346456693
0
LINE
8
BLACK
6
CONTINUOUS
10
0.6751320866141732
20
0.5841478346456693
11
0.6757086614173228
21
0.582755905511811
0
LINE
8
BLACK
6
CONTINUOUS
10
0.6757086614173228
20
0.582755905511811
11
0.6757086614173228
21
0.4662204724409449
0
LINE
8
BLACK
6
CONTINUOUS
10
0.6757086614173228
20
0.4662204724409449
11
0.6751320866141732
21
0.4648285433070866
0
LINE
8
BLACK
6
CONTINUOUS
10
0.6751320866141732
20
0.4648285433070866
11
0.6737401574803149
21
0.464251968503937
0
LINE
8
BLACK
6
CONTINUOUS
10
0.6737401574803149
20
0.464251968503937
11
0.616259842519685
21
0.464251968503937
0
LINE
8
BLACK
6
CONTINUOUS
10
0.616259842519685
20
0.464251968503937
11
0.6148679133858268
21
0.4648285433070866
0
LINE
8
BLACK
6
CONTINUOUS
10
0.6148679133858268
20
0.4648285433070866
11
0.6142913385826771
21
0.4662204724409449
0
LINE
8
BLACK
6
CONTINUOUS
10
0.6142913385826771
20
0.4662204724409449
11
0.6142913385826771
21
0.582755905511811
0
LINE
8
BLACK
6
CONTINUOUS
10
0.6142913385826771
20
0.582755905511811
11
0.6148679133858268
21
0.5841478346456693
0
LINE
8
BLACK
6
CONTINUOUS
10
0.6148679133858268
20
0.5841478346456693
11
0.616259842519685
21
0.5847244094488189
0
LINE
8
BLACK
6
CONTINUOUS
10
0.616259842519685
20
0.5847244094488189
11
0.6737401574803149
21
0.5847244094488189
0
LINE
8
BLACK
6
CONTINUOUS
10
0.6182283464566929
20
0.5807874015748031
11
0.6182283464566929
21
0.4681889763779528
0
LINE
8
BLACK
6
CONTINUOUS
10
0.6182283464566929
20
0.4681889763779528
11
0.671771653543307
21
0.4681889763779528
0
LINE
8
BLACK
6
CONTINUOUS
10
0.671771653543307
20
0.4681889763779528
11
0.671771653543307
21
0.5807874015748031
0
LINE
8
BLACK
6
CONTINUOUS
10
0.671771653543307
20
0.5807874015748031
11
0.6182283464566929
21
0.5807874015748031
0
LINE
8
BLACK
6
CONTINUOUS
10
0.353740157480315
20
0.7107165354330709
11
0.3551320866141732
21
0.7101399606299212
0
LINE
8
BLACK
6
CONTINUOUS
10
0.3551320866141732
20
0.7101399606299212
11
0.3557086614173228
21
0.708748031496063
0
LINE
8
BLACK
6
CONTINUOUS
10
0.3557086614173228
20
0.708748031496063
11
0.3557086614173228
21
0.5922125984251968
0
LINE
8
BLACK
6
CONTINUOUS
10
0.3557086614173228
20
0.5922125984251968
11
0.3551320866141732
21
0.5908206692913386
0
LINE
8
BLACK
6
CONTINUOUS
10
0.3551320866141732
20
0.5908206692913386
11
0.353740157480315
21
0.5902440944881889
0
LINE
8
BLACK
6
CONTINUOUS
10
0.353740157480315
20
0.5902440944881889
11
0.296259842519685
21
0.5902440944881889
0
LINE
8
BLACK
6
CONTINUOUS
10
0.296259842519685
20
0.5902440944881889
11
0.2948679133858267
21
0.5908206692913386
0
LINE
8
BLACK
6
CONTINUOUS
10
0.2948679133858267
20
0.5908206692913386
11
0.2942913385826771
21
0.5922125984251968
0
LINE
8
BLACK
6
CONTINUOUS
10
0.2942913385826771
20
0.5922125984251968
11
0.2942913385826771
21
0.708748031496063
0
LINE
8
BLACK
6
CONTINUOUS
10
0.2942913385826771
20
0.708748031496063
11
0.2948679133858267
21
0.7101399606299212
0
LINE
8
BLACK
6
CONTINUOUS
10
0.2948679133858267
20
0.7101399606299212
11
0.296259842519685
21
0.7107165354330709
0
LINE
8
BLACK
6
CONTINUOUS
10
0.296259842519685
20
0.7107165354330709
11
0.353740157480315
21
0.7107165354330709
0
LINE
8
BLACK
6
CONTINUOUS
10
0.2982283464566929
20
0.7067795275590552
11
0.2982283464566929
21
0.5941811023622047
0
LINE
8
BLACK
6
CONTINUOUS
10
0.2982283464566929
20
0.5941811023622047
11
0.3517716535433071
21
0.5941811023622047
0
LINE
8
BLACK
6
CONTINUOUS
10
0.3517716535433071
20
0.5941811023622047
11
0.3517716535433071
21
0.7067795275590552
0
LINE
8
BLACK
6
CONTINUOUS
10
0.3517716535433071
20
0.7067795275590552
11
0.2982283464566929
21
0.7067795275590552
0
LINE
8
BLACK
6
CONTINUOUS
10
0.6887401574803149
20
0.712236220472441
11
0.6901320866141732
21
0.7116596456692913
0
LINE
8
BLACK
6
CONTINUOUS
10
0.6901320866141732
20
0.7116596456692913
11
0.6907086614173228
21
0.7102677165354331
0
LINE
8
BLACK
6
CONTINUOUS
10
0.6907086614173228
20
0.7102677165354331
11
0.6907086614173228
21
0.593732283464567
0
LINE
8
BLACK
6
CONTINUOUS
10
0.6907086614173228
20
0.593732283464567
11
0.6901320866141732
21
0.5923403543307086
0
LINE
8
BLACK
6
CONTINUOUS
10
0.6901320866141732
20
0.5923403543307086
11
0.6887401574803149
21
0.591763779527559
0
LINE
8
BLACK
6
CONTINUOUS
10
0.6887401574803149
20
0.591763779527559
11
0.631259842519685
21
0.591763779527559
0
LINE
8
BLACK
6
CONTINUOUS
10
0.631259842519685
20
0.591763779527559
11
0.6298679133858267
21
0.5923403543307086
0
LINE
8
BLACK
6
CONTINUOUS
10
0.6298679133858267
20
0.5923403543307086
11
0.6292913385826772
21
0.593732283464567
0
LINE
8
BLACK
6
CONTINUOUS
10
0.6292913385826772
20
0.593732283464567
11
0.6292913385826772
21
0.7102677165354331
0
LINE
8
BLACK
6
CONTINUOUS
10
0.6292913385826772
20
0.7102677165354331
11
0.6298679133858267
21
0.7116596456692913
0
LINE
8
BLACK
6
CONTINUOUS
10
0.6298679133858267
20
0.7116596456692913
11
0.631259842519685
21
0.712236220472441
0
LINE
8
BLACK
6
CONTINUOUS
10
0.631259842519685
20
0.712236220472441
11
0.6887401574803149
21
0.712236220472441
0
LINE
8
BLACK
6
CONTINUOUS
10
0.6332283464566929
20
0.7082992125984252
11
0.6332283464566929
21
0.5957007874015748
0
LINE
8
BLACK
6
CONTINUOUS
10
0.6332283464566929
20
0.5957007874015748
11
0.686771653543307
21
0.5957007874015748
0
LINE
8
BLACK
6
CONTINUOUS
10
0.686771653543307
20
0.5957007874015748
11
0.686771653543307
21
0.7082992125984252
0
LINE
8
BLACK
6
CONTINUOUS
10
0.686771653543307
20
0.7082992125984252
11
0.6332283464566929
21
0.7082992125984252
0
LINE
8
BLACK
6
CONTINUOUS
10
0.4834645669291339
20
0.7357086614173228
11
0.4848564960629921
21
0.7351320866141732
0
LINE
8
BLACK
6
CONTINUOUS
10
0.4848564960629921
20
0.7351320866141732
11
0.4854330708661417
21
0.733740157480315
0
LINE
8
BLACK
6
CONTINUOUS
10
0.4854330708661417
20
0.733740157480315
11
0.4854330708661417
21
0.6762598425196851
0
LINE
8
BLACK
6
CONTINUOUS
10
0.4854330708661417
20
0.6762598425196851
11
0.4848564960629921
21
0.6748679133858267
0
LINE
8
BLACK
6
CONTINUOUS
10
0.4848564960629921
20
0.6748679133858267
11
0.4834645669291339
21
0.6742913385826772
0
LINE
8
BLACK
6
CONTINUOUS
10
0.4834645669291339
20
0.6742913385826772
11
0.3669291338582677
21
0.6742913385826772
0
LINE
8
BLACK
6
CONTINUOUS
10
0.3669291338582677
20
0.6742913385826772
11
0.3655372047244094
21
0.6748679133858267
0
LINE
8
BLACK
6
CONTINUOUS
10
0.3655372047244094
20
0.6748679133858267
11
0.3649606299212598
21
0.6762598425196851
0
LINE
8
BLACK
6
CONTINUOUS
10
0.3649606299212598
20
0.6762598425196851
11
0.3649606299212598
21
0.733740157480315
0
LINE
8
BLACK
6
CONTINUOUS
10
0.3649606299212598
20
0.733740157480315
11
0.3655372047244094
21
0.7351320866141732
0
LINE
8
BLACK
6
CONTINUOUS
10
0.3655372047244094
20
0.7351320866141732
11
0.3669291338582677
21
0.7357086614173228
0
LINE
8
BLACK
6
CONTINUOUS
10
0.3669291338582677
20
0.7357086614173228
11
0.4834645669291339
21
0.7357086614173228
0
LINE
8
BLACK
6
CONTINUOUS
10
0.3688976377952756
20
0.7317716535433071
11
0.3688976377952756
21
0.6782283464566929
0
LINE
8
BLACK
6
CONTINUOUS
10
0.3688976377952756
20
0.6782283464566929
11
0.481496062992126
21
0.6782283464566929
0
LINE
8
BLACK
6
CONTINUOUS
10
0.481496062992126
20
0.6782283464566929
11
0.481496062992126
21
0.7317716535433071
0
LINE
8
BLACK
6
CONTINUOUS
10
0.481496062992126
20
0.7317716535433071
11
0.3688976377952756
21
0.7317716535433071
0
LINE
8
BLACK
6
CONTINUOUS
10
0.6173228346456693
20
0.7357086614173228
11
0.6187147637795275
21
0.7351320866141732
0
LINE
8
BLACK
6
CONTINUOUS
10
0.6187147637795275
20
0.7351320866141732
11
0.6192913385826772
21
0.733740157480315
0
LINE
8
BLACK
6
CONTINUOUS
10
0.6192913385826772
20
0.733740157480315
11
0.6192913385826772
21
0.6762598425196851
0
LINE
8
BLACK
6
CONTINUOUS
10
0.6192913385826772
20
0.6762598425196851
11
0.6187147637795275
21
0.6748679133858267
0
LINE
8
BLACK
6
CONTINUOUS
10
0.6187147637795275
20
0.6748679133858267
11
0.6173228346456693
21
0.6742913385826772
0
LINE
8
BLACK
6
CONTINUOUS
10
0.6173228346456693
20
0.6742913385826772
11
0.5007874015748032
21
0.6742913385826772
0
LINE
8
BLACK
6
CONTINUOUS
10
0.5007874015748032
20
0.6742913385826772
11
0.4993954724409448
21
0.6748679133858267
0
LINE
8
BLACK
6
CONTINUOUS
10
0.4993954724409448
20
0.6748679133858267
11
0.4988188976377952
21
0.6762598425196851
0
LINE
8
BLACK
6
CONTINUOUS
10
0.4988188976377952
20
0.6762598425196851
11
0.4988188976377952
21
0.733740157480315
0
LINE
8
BLACK
6
CONTINUOUS
10
0.4988188976377952
20
0.733740157480315
11
0.4993954724409448
21
0.7351320866141732
0
LINE
8
BLACK
6
CONTINUOUS
10
0.4993954724409448
20
0.7351320866141732
11
0.5007874015748032
21
0.7357086614173228
0
LINE
8
BLACK
6
CONTINUOUS
10
0.5007874015748032
20
0.7357086614173228
11
0.6173228346456693
21
0.7357086614173228
0
LINE
8
BLACK
6
CONTINUOUS
10
0.502755905511811
20
0.7317716535433071
11
0.502755905511811
21
0.6782283464566929
0
LINE
8
BLACK
6
CONTINUOUS
10
0.502755905511811
20
0.6782283464566929
11
0.6153543307086614
21
0.6782283464566929
0
LINE
8
BLACK
6
CONTINUOUS
10
0.6153543307086614
20
0.6782283464566929
11
0.6153543307086614
21
0.7317716535433071
0
LINE
8
BLACK
6
CONTINUOUS
10
0.6153543307086614
20
0.7317716535433071
11
0.502755905511811
21
0.7317716535433071
0
LINE
8
BLACK
6
CONTINUOUS
10
0.6887401574803149
20
0.8362362204724409
11
0.6901320866141732
21
0.8356596456692913
0
LINE
8
BLACK
6
CONTINUOUS
10
0.6901320866141732
20
0.8356596456692913
11
0.6907086614173228
21
0.8342677165354331
0
LINE
8
BLACK
6
CONTINUOUS
10
0.6907086614173228
20
0.8342677165354331
11
0.6907086614173228
21
0.717732283464567
0
LINE
8
BLACK
6
CONTINUOUS
10
0.6907086614173228
20
0.717732283464567
11
0.6901320866141732
21
0.7163403543307086
0
LINE
8
BLACK
6
CONTINUOUS
10
0.6901320866141732
20
0.7163403543307086
11
0.6887401574803149
21
0.715763779527559
0
LINE
8
BLACK
6
CONTINUOUS
10
0.6887401574803149
20
0.715763779527559
11
0.631259842519685
21
0.715763779527559
0
LINE
8
BLACK
6
CONTINUOUS
10
0.631259842519685
20
0.715763779527559
11
0.6298679133858267
21
0.7163403543307086
0
LINE
8
BLACK
6
CONTINUOUS
10
0.6298679133858267
20
0.7163403543307086
11
0.6292913385826772
21
0.717732283464567
0
LINE
8
BLACK
6
CONTINUOUS
10
0.6292913385826772
20
0.717732283464567
11
0.6292913385826772
21
0.8342677165354331
0
LINE
8
BLACK
6
CONTINUOUS
10
0.6292913385826772
20
0.8342677165354331
11
0.6298679133858267
21
0.8356596456692913
0
LINE
8
BLACK
6
CONTINUOUS
10
0.6298679133858267
20
0.8356596456692913
11
0.631259842519685
21
0.8362362204724409
0
LINE
8
BLACK
6
CONTINUOUS
10
0.631259842519685
20
0.8362362204724409
11
0.6887401574803149
21
0.8362362204724409
0
LINE
8
BLACK
6
CONTINUOUS
10
0.6332283464566929
20
0.8322992125984252
11
0.6332283464566929
21
0.7197007874015748
0
LINE
8
BLACK
6
CONTINUOUS
10
0.6332283464566929
20
0.7197007874015748
11
0.686771653543307
21
0.7197007874015748
0
LINE
8
BLACK
6
CONTINUOUS
10
0.686771653543307
20
0.7197007874015748
11
0.686771653543307
21
0.8322992125984252
0
LINE
8
BLACK
6
CONTINUOUS
10
0.686771653543307
20
0.8322992125984252
11
0.6332283464566929
21
0.8322992125984252
0
LINE
8
BLACK
6
CONTINUOUS
10
0.353740157480315
20
0.8367165354330709
11
0.3551320866141732
21
0.8361399606299212
0
LINE
8
BLACK
6
CONTINUOUS
10
0.3551320866141732
20
0.8361399606299212
11
0.3557086614173228
21
0.834748031496063
0
LINE
8
BLACK
6
CONTINUOUS
10
0.3557086614173228
20
0.834748031496063
11
0.3557086614173228
21
0.7182125984251968
0
LINE
8
BLACK
6
CONTINUOUS
10
0.3557086614173228
20
0.7182125984251968
11
0.3551320866141732
21
0.7168206692913386
0
LINE
8
BLACK
6
CONTINUOUS
10
0.3551320866141732
20
0.7168206692913386
11
0.353740157480315
21
0.7162440944881889
0
LINE
8
BLACK
6
CONTINUOUS
10
0.353740157480315
20
0.7162440944881889
11
0.296259842519685
21
0.7162440944881889
0
LINE
8
BLACK
6
CONTINUOUS
10
0.296259842519685
20
0.7162440944881889
11
0.2948679133858267
21
0.7168206692913386
0
LINE
8
BLACK
6
CONTINUOUS
10
0.2948679133858267
20
0.7168206692913386
11
0.2942913385826771
21
0.7182125984251968
0
LINE
8
BLACK
6
CONTINUOUS
10
0.2942913385826771
20
0.7182125984251968
11
0.2942913385826771
21
0.834748031496063
0
LINE
8
BLACK
6
CONTINUOUS
10
0.2942913385826771
20
0.834748031496063
11
0.2948679133858267
21
0.8361399606299212
0
LINE
8
BLACK
6
CONTINUOUS
10
0.2948679133858267
20
0.8361399606299212
11
0.296259842519685
21
0.8367165354330709
0
LINE
8
BLACK
6
CONTINUOUS
10
0.296259842519685
20
0.8367165354330709
11
0.353740157480315
21
0.8367165354330709
0
LINE
8
BLACK
6
CONTINUOUS
10
0.2982283464566929
20
0.832779527559055
11
0.2982283464566929
21
0.7201811023622047
0
LINE
8
BLACK
6
CONTINUOUS
10
0.2982283464566929
20
0.7201811023622047
11
0.3517716535433071
21
0.7201811023622047
0
LINE
8
BLACK
6
CONTINUOUS
10
0.3517716535433071
20
0.7201811023622047
11
0.3517716535433071
21
0.832779527559055
0
LINE
8
BLACK
6
CONTINUOUS
10
0.3517716535433071
20
0.832779527559055
11
0.2982283464566929
21
0.832779527559055
0
LINE
8
BLACK
6
CONTINUOUS
10
0.4834645669291339
20
0.8287086614173228
11
0.4848564960629921
21
0.8281320866141733
0
LINE
8
BLACK
6
CONTINUOUS
10
0.4848564960629921
20
0.8281320866141733
11
0.4854330708661417
21
0.8267401574803149
0
LINE
8
BLACK
6
CONTINUOUS
10
0.4854330708661417
20
0.8267401574803149
11
0.4854330708661417
21
0.769259842519685
0
LINE
8
BLACK
6
CONTINUOUS
10
0.4854330708661417
20
0.769259842519685
11
0.4848564960629921
21
0.7678679133858267
0
LINE
8
BLACK
6
CONTINUOUS
10
0.4848564960629921
20
0.7678679133858267
11
0.4834645669291339
21
0.7672913385826772
0
LINE
8
BLACK
6
CONTINUOUS
10
0.4834645669291339
20
0.7672913385826772
11
0.3669291338582677
21
0.7672913385826772
0
LINE
8
BLACK
6
CONTINUOUS
10
0.3669291338582677
20
0.7672913385826772
11
0.3655372047244094
21
0.7678679133858267
0
LINE
8
BLACK
6
CONTINUOUS
10
0.3655372047244094
20
0.7678679133858267
11
0.3649606299212598
21
0.769259842519685
0
LINE
8
BLACK
6
CONTINUOUS
10
0.3649606299212598
20
0.769259842519685
11
0.3649606299212598
21
0.8267401574803149
0
LINE
8
BLACK
6
CONTINUOUS
10
0.3649606299212598
20
0.8267401574803149
11
0.3655372047244094
21
0.8281320866141733
0
LINE
8
BLACK
6
CONTINUOUS
10
0.3655372047244094
20
0.8281320866141733
11
0.3669291338582677
21
0.8287086614173228
0
LINE
8
BLACK
6
CONTINUOUS
10
0.3669291338582677
20
0.8287086614173228
11
0.4834645669291339
21
0.8287086614173228
0
LINE
8
BLACK
6
CONTINUOUS
10
0.3688976377952756
20
0.8247716535433071
11
0.3688976377952756
21
0.7712283464566929
0
LINE
8
BLACK
6
CONTINUOUS
10
0.3688976377952756
20
0.7712283464566929
11
0.481496062992126
21
0.7712283464566929
0
LINE
8
BLACK
6
CONTINUOUS
10
0.481496062992126
20
0.7712283464566929
11
0.481496062992126
21
0.8247716535433071
0
LINE
8
BLACK
6
CONTINUOUS
10
0.481496062992126
20
0.8247716535433071
11
0.3688976377952756
21
0.8247716535433071
0
LINE
8
BLACK
6
CONTINUOUS
10
0.6173228346456693
20
0.8287086614173228
11
0.6187147637795275
21
0.8281320866141733
0
LINE
8
BLACK
6
CONTINUOUS
10
0.6187147637795275
20
0.8281320866141733
11
0.6192913385826772
21
0.8267401574803149
0
LINE
8
BLACK
6
CONTINUOUS
10
0.6192913385826772
20
0.8267401574803149
11
0.6192913385826772
21
0.769259842519685
0
LINE
8
BLACK
6
CONTINUOUS
10
0.6192913385826772
20
0.769259842519685
11
0.6187147637795275
21
0.7678679133858267
0
LINE
8
BLACK
6
CONTINUOUS
10
0.6187147637795275
20
0.7678679133858267
11
0.6173228346456693
21
0.7672913385826772
0
LINE
8
BLACK
6
CONTINUOUS
10
0.6173228346456693
20
0.7672913385826772
11
0.5007874015748032
21
0.7672913385826772
0
LINE
8
BLACK
6
CONTINUOUS
10
0.5007874015748032
20
0.7672913385826772
11
0.4993954724409448
21
0.7678679133858267
0
LINE
8
BLACK
6
CONTINUOUS
10
0.4993954724409448
20
0.7678679133858267
11
0.4988188976377952
21
0.769259842519685
0
LINE
8
BLACK
6
CONTINUOUS
10
0.4988188976377952
20
0.769259842519685
11
0.4988188976377952
21
0.8267401574803149
0
LINE
8
BLACK
6
CONTINUOUS
10
0.4988188976377952
20
0.8267401574803149
11
0.4993954724409448
21
0.8281320866141733
0
LINE
8
BLACK
6
CONTINUOUS
10
0.4993954724409448
20
0.8281320866141733
11
0.5007874015748032
21
0.8287086614173228
0
LINE
8
BLACK
6
CONTINUOUS
10
0.5007874015748032
20
0.8287086614173228
11
0.6173228346456693
21
0.8287086614173228
0
LINE
8
BLACK
6
CONTINUOUS
10
0.502755905511811
20
0.8247716535433071
11
0.502755905511811
21
0.7712283464566929
0
LINE
8
BLACK
6
CONTINUOUS
10
0.502755905511811
20
0.7712283464566929
11
0.6153543307086614
21
0.7712283464566929
0
LINE
8
BLACK
6
CONTINUOUS
10
0.6153543307086614
20
0.7712283464566929
11
0.6153543307086614
21
0.8247716535433071
0
LINE
8
BLACK
6
CONTINUOUS
10
0.6153543307086614
20
0.8247716535433071
11
0.502755905511811
21
0.8247716535433071
  0
ENDSEC
  0
EOF
