<?xml version='1.0' encoding='ASCII' standalone='yes'?>
<svg xmlns:svg="http://www.w3.org/2000/svg" xmlns="http://www.w3.org/2000/svg" xmlns:xlink="http://www.w3.org/1999/xlink" version="1.1" width="297.0022mm" height="210.0072mm" viewBox="0.0000 0.0000 297.0022 210.0072">
<title>SVG Image created as TFI2CADT01-F_Fab.svg date 2024/02/14 19:13:06 </title>
  <desc>Image generated by PCBNEW </desc>
<g style="fill:#848484; fill-opacity:1.0000;stroke:#848484; stroke-opacity:1.0000; stroke-linecap:round; stroke-linejoin:round;" transform="translate(0 0) scale(1 1)">
</g>
<g style="fill:#848484; fill-opacity:0.0;  stroke:#848484; stroke-width:0.0000; stroke-opacity:1;  stroke-linecap:round; stroke-linejoin:round;">
</g>
<g style="fill:#848484; fill-opacity:0.0;  stroke:#848484; stroke-width:1.3636; stroke-opacity:1;  stroke-linecap:round; stroke-linejoin:round;">
<g transform="rotate(-90.000000 148.0102 150.5127)">
<text x="148.0102" y="155.0581" textLength="150.7576" font-size="12.1212" lengthAdjust="spacingAndGlyphs" text-anchor="middle" opacity="0">SolderJumper_2_Open</text>
</g>
<g class="stroked-text"><desc>SolderJumper_2_Open</desc>
<path d="M151.7120 223.0235 L152.1449 221.7248 "/>
<path d="M152.1449 221.7248 L152.1449 219.5603 "/>
<path d="M152.1449 219.5603 L151.7120 218.6945 "/>
<path d="M151.7120 218.6945 L151.2791 218.2616 "/>
<path d="M151.2791 218.2616 L150.4133 217.8287 "/>
<path d="M150.4133 217.8287 L149.5475 217.8287 "/>
<path d="M149.5475 217.8287 L148.6817 218.2616 "/>
<path d="M148.6817 218.2616 L148.2488 218.6945 "/>
<path d="M148.2488 218.6945 L147.8159 219.5603 "/>
<path d="M147.8159 219.5603 L147.3830 221.2919 "/>
<path d="M147.3830 221.2919 L146.9501 222.1577 "/>
<path d="M146.9501 222.1577 L146.5172 222.5906 "/>
<path d="M146.5172 222.5906 L145.6514 223.0235 "/>
<path d="M145.6514 223.0235 L144.7856 223.0235 "/>
<path d="M144.7856 223.0235 L143.9198 222.5906 "/>
<path d="M143.9198 222.5906 L143.4869 222.1577 "/>
<path d="M143.4869 222.1577 L143.0540 221.2919 "/>
<path d="M143.0540 221.2919 L143.0540 219.1274 "/>
<path d="M143.0540 219.1274 L143.4869 217.8287 "/>
<path d="M152.1449 212.6339 L151.7120 213.4997 "/>
<path d="M151.7120 213.4997 L151.2791 213.9326 "/>
<path d="M151.2791 213.9326 L150.4133 214.3655 "/>
<path d="M150.4133 214.3655 L147.8159 214.3655 "/>
<path d="M147.8159 214.3655 L146.9501 213.9326 "/>
<path d="M146.9501 213.9326 L146.5172 213.4997 "/>
<path d="M146.5172 213.4997 L146.0843 212.6339 "/>
<path d="M146.0843 212.6339 L146.0843 211.3352 "/>
<path d="M146.0843 211.3352 L146.5172 210.4694 "/>
<path d="M146.5172 210.4694 L146.9501 210.0365 "/>
<path d="M146.9501 210.0365 L147.8159 209.6036 "/>
<path d="M147.8159 209.6036 L150.4133 209.6036 "/>
<path d="M150.4133 209.6036 L151.2791 210.0365 "/>
<path d="M151.2791 210.0365 L151.7120 210.4694 "/>
<path d="M151.7120 210.4694 L152.1449 211.3352 "/>
<path d="M152.1449 211.3352 L152.1449 212.6339 "/>
<path d="M152.1449 204.4088 L151.7120 205.2746 "/>
<path d="M151.7120 205.2746 L150.8462 205.7075 "/>
<path d="M150.8462 205.7075 L143.0540 205.7075 "/>
<path d="M152.1449 197.0495 L143.0540 197.0495 "/>
<path d="M151.7120 197.0495 L152.1449 197.9153 "/>
<path d="M152.1449 197.9153 L152.1449 199.6469 "/>
<path d="M152.1449 199.6469 L151.7120 200.5127 "/>
<path d="M151.7120 200.5127 L151.2791 200.9456 "/>
<path d="M151.2791 200.9456 L150.4133 201.3785 "/>
<path d="M150.4133 201.3785 L147.8159 201.3785 "/>
<path d="M147.8159 201.3785 L146.9501 200.9456 "/>
<path d="M146.9501 200.9456 L146.5172 200.5127 "/>
<path d="M146.5172 200.5127 L146.0843 199.6469 "/>
<path d="M146.0843 199.6469 L146.0843 197.9153 "/>
<path d="M146.0843 197.9153 L146.5172 197.0495 "/>
<path d="M151.7120 189.2573 L152.1449 190.1231 "/>
<path d="M152.1449 190.1231 L152.1449 191.8547 "/>
<path d="M152.1449 191.8547 L151.7120 192.7205 "/>
<path d="M151.7120 192.7205 L150.8462 193.1534 "/>
<path d="M150.8462 193.1534 L147.3830 193.1534 "/>
<path d="M147.3830 193.1534 L146.5172 192.7205 "/>
<path d="M146.5172 192.7205 L146.0843 191.8547 "/>
<path d="M146.0843 191.8547 L146.0843 190.1231 "/>
<path d="M146.0843 190.1231 L146.5172 189.2573 "/>
<path d="M146.5172 189.2573 L147.3830 188.8244 "/>
<path d="M147.3830 188.8244 L148.2488 188.8244 "/>
<path d="M148.2488 188.8244 L149.1146 193.1534 "/>
<path d="M152.1449 184.9283 L146.0843 184.9283 "/>
<path d="M147.8159 184.9283 L146.9501 184.4954 "/>
<path d="M146.9501 184.4954 L146.5172 184.0625 "/>
<path d="M146.5172 184.0625 L146.0843 183.1967 "/>
<path d="M146.0843 183.1967 L146.0843 182.3309 "/>
<path d="M143.0540 176.7032 L149.5475 176.7032 "/>
<path d="M149.5475 176.7032 L150.8462 177.1361 "/>
<path d="M150.8462 177.1361 L151.7120 178.0019 "/>
<path d="M151.7120 178.0019 L152.1449 179.3006 "/>
<path d="M152.1449 179.3006 L152.1449 180.1664 "/>
<path d="M146.0843 168.4781 L152.1449 168.4781 "/>
<path d="M146.0843 172.3742 L150.8462 172.3742 "/>
<path d="M150.8462 172.3742 L151.7120 171.9413 "/>
<path d="M151.7120 171.9413 L152.1449 171.0755 "/>
<path d="M152.1449 171.0755 L152.1449 169.7768 "/>
<path d="M152.1449 169.7768 L151.7120 168.9110 "/>
<path d="M151.7120 168.9110 L151.2791 168.4781 "/>
<path d="M152.1449 164.1490 L146.0843 164.1490 "/>
<path d="M146.9501 164.1490 L146.5172 163.7161 "/>
<path d="M146.5172 163.7161 L146.0843 162.8503 "/>
<path d="M146.0843 162.8503 L146.0843 161.5516 "/>
<path d="M146.0843 161.5516 L146.5172 160.6858 "/>
<path d="M146.5172 160.6858 L147.3830 160.2529 "/>
<path d="M147.3830 160.2529 L152.1449 160.2529 "/>
<path d="M147.3830 160.2529 L146.5172 159.8200 "/>
<path d="M146.5172 159.8200 L146.0843 158.9542 "/>
<path d="M146.0843 158.9542 L146.0843 157.6555 "/>
<path d="M146.0843 157.6555 L146.5172 156.7897 "/>
<path d="M146.5172 156.7897 L147.3830 156.3568 "/>
<path d="M147.3830 156.3568 L152.1449 156.3568 "/>
<path d="M146.0843 152.0278 L155.1752 152.0278 "/>
<path d="M146.5172 152.0278 L146.0843 151.1620 "/>
<path d="M146.0843 151.1620 L146.0843 149.4304 "/>
<path d="M146.0843 149.4304 L146.5172 148.5646 "/>
<path d="M146.5172 148.5646 L146.9501 148.1317 "/>
<path d="M146.9501 148.1317 L147.8159 147.6988 "/>
<path d="M147.8159 147.6988 L150.4133 147.6988 "/>
<path d="M150.4133 147.6988 L151.2791 148.1317 "/>
<path d="M151.2791 148.1317 L151.7120 148.5646 "/>
<path d="M151.7120 148.5646 L152.1449 149.4304 "/>
<path d="M152.1449 149.4304 L152.1449 151.1620 "/>
<path d="M152.1449 151.1620 L151.7120 152.0278 "/>
<path d="M151.7120 140.3395 L152.1449 141.2053 "/>
<path d="M152.1449 141.2053 L152.1449 142.9369 "/>
<path d="M152.1449 142.9369 L151.7120 143.8027 "/>
<path d="M151.7120 143.8027 L150.8462 144.2356 "/>
<path d="M150.8462 144.2356 L147.3830 144.2356 "/>
<path d="M147.3830 144.2356 L146.5172 143.8027 "/>
<path d="M146.5172 143.8027 L146.0843 142.9369 "/>
<path d="M146.0843 142.9369 L146.0843 141.2053 "/>
<path d="M146.0843 141.2053 L146.5172 140.3395 "/>
<path d="M146.5172 140.3395 L147.3830 139.9066 "/>
<path d="M147.3830 139.9066 L148.2488 139.9066 "/>
<path d="M148.2488 139.9066 L149.1146 144.2356 "/>
<path d="M152.1449 136.0105 L146.0843 136.0105 "/>
<path d="M147.8159 136.0105 L146.9501 135.5776 "/>
<path d="M146.9501 135.5776 L146.5172 135.1447 "/>
<path d="M146.5172 135.1447 L146.0843 134.2789 "/>
<path d="M146.0843 134.2789 L146.0843 133.4131 "/>
<path d="M153.0107 132.5473 L153.0107 125.6209 "/>
<path d="M143.9198 123.8893 L143.4869 123.4564 "/>
<path d="M143.4869 123.4564 L143.0540 122.5906 "/>
<path d="M143.0540 122.5906 L143.0540 120.4261 "/>
<path d="M143.0540 120.4261 L143.4869 119.5603 "/>
<path d="M143.4869 119.5603 L143.9198 119.1274 "/>
<path d="M143.9198 119.1274 L144.7856 118.6945 "/>
<path d="M144.7856 118.6945 L145.6514 118.6945 "/>
<path d="M145.6514 118.6945 L146.9501 119.1274 "/>
<path d="M146.9501 119.1274 L152.1449 124.3222 "/>
<path d="M152.1449 124.3222 L152.1449 118.6945 "/>
<path d="M153.0107 116.9629 L153.0107 110.0365 "/>
<path d="M143.0540 106.1404 L143.0540 104.4088 "/>
<path d="M143.0540 104.4088 L143.4869 103.5430 "/>
<path d="M143.4869 103.5430 L144.3527 102.6772 "/>
<path d="M144.3527 102.6772 L146.0843 102.2443 "/>
<path d="M146.0843 102.2443 L149.1146 102.2443 "/>
<path d="M149.1146 102.2443 L150.8462 102.6772 "/>
<path d="M150.8462 102.6772 L151.7120 103.5430 "/>
<path d="M151.7120 103.5430 L152.1449 104.4088 "/>
<path d="M152.1449 104.4088 L152.1449 106.1404 "/>
<path d="M152.1449 106.1404 L151.7120 107.0062 "/>
<path d="M151.7120 107.0062 L150.8462 107.8720 "/>
<path d="M150.8462 107.8720 L149.1146 108.3049 "/>
<path d="M149.1146 108.3049 L146.0843 108.3049 "/>
<path d="M146.0843 108.3049 L144.3527 107.8720 "/>
<path d="M144.3527 107.8720 L143.4869 107.0062 "/>
<path d="M143.4869 107.0062 L143.0540 106.1404 "/>
<path d="M146.0843 98.3482 L155.1752 98.3482 "/>
<path d="M146.5172 98.3482 L146.0843 97.4824 "/>
<path d="M146.0843 97.4824 L146.0843 95.7508 "/>
<path d="M146.0843 95.7508 L146.5172 94.8850 "/>
<path d="M146.5172 94.8850 L146.9501 94.4521 "/>
<path d="M146.9501 94.4521 L147.8159 94.0192 "/>
<path d="M147.8159 94.0192 L150.4133 94.0192 "/>
<path d="M150.4133 94.0192 L151.2791 94.4521 "/>
<path d="M151.2791 94.4521 L151.7120 94.8850 "/>
<path d="M151.7120 94.8850 L152.1449 95.7508 "/>
<path d="M152.1449 95.7508 L152.1449 97.4824 "/>
<path d="M152.1449 97.4824 L151.7120 98.3482 "/>
<path d="M151.7120 86.6599 L152.1449 87.5257 "/>
<path d="M152.1449 87.5257 L152.1449 89.2573 "/>
<path d="M152.1449 89.2573 L151.7120 90.1231 "/>
<path d="M151.7120 90.1231 L150.8462 90.5560 "/>
<path d="M150.8462 90.5560 L147.3830 90.5560 "/>
<path d="M147.3830 90.5560 L146.5172 90.1231 "/>
<path d="M146.5172 90.1231 L146.0843 89.2573 "/>
<path d="M146.0843 89.2573 L146.0843 87.5257 "/>
<path d="M146.0843 87.5257 L146.5172 86.6599 "/>
<path d="M146.5172 86.6599 L147.3830 86.2270 "/>
<path d="M147.3830 86.2270 L148.2488 86.2270 "/>
<path d="M148.2488 86.2270 L149.1146 90.5560 "/>
<path d="M146.0843 82.3309 L152.1449 82.3309 "/>
<path d="M146.9501 82.3309 L146.5172 81.8980 "/>
<path d="M146.5172 81.8980 L146.0843 81.0322 "/>
<path d="M146.0843 81.0322 L146.0843 79.7335 "/>
<path d="M146.0843 79.7335 L146.5172 78.8677 "/>
<path d="M146.5172 78.8677 L147.3830 78.4348 "/>
<path d="M147.3830 78.4348 L152.1449 78.4348 "/>
</g><g transform="rotate(-90.000000 182.5556 59.6036)">
<text x="182.5556" y="64.1491" textLength="150.7576" font-size="12.1212" lengthAdjust="spacingAndGlyphs" text-anchor="middle" opacity="0">SolderJumper_2_Open</text>
</g>
<g class="stroked-text"><desc>SolderJumper_2_Open</desc>
<path d="M186.2575 132.1144 L186.6904 130.8157 "/>
<path d="M186.6904 130.8157 L186.6904 128.6512 "/>
<path d="M186.6904 128.6512 L186.2575 127.7854 "/>
<path d="M186.2575 127.7854 L185.8246 127.3525 "/>
<path d="M185.8246 127.3525 L184.9588 126.9196 "/>
<path d="M184.9588 126.9196 L184.0930 126.9196 "/>
<path d="M184.0930 126.9196 L183.2272 127.3525 "/>
<path d="M183.2272 127.3525 L182.7943 127.7854 "/>
<path d="M182.7943 127.7854 L182.3614 128.6512 "/>
<path d="M182.3614 128.6512 L181.9285 130.3828 "/>
<path d="M181.9285 130.3828 L181.4956 131.2486 "/>
<path d="M181.4956 131.2486 L181.0627 131.6815 "/>
<path d="M181.0627 131.6815 L180.1969 132.1144 "/>
<path d="M180.1969 132.1144 L179.3311 132.1144 "/>
<path d="M179.3311 132.1144 L178.4653 131.6815 "/>
<path d="M178.4653 131.6815 L178.0324 131.2486 "/>
<path d="M178.0324 131.2486 L177.5995 130.3828 "/>
<path d="M177.5995 130.3828 L177.5995 128.2183 "/>
<path d="M177.5995 128.2183 L178.0324 126.9196 "/>
<path d="M186.6904 121.7248 L186.2575 122.5906 "/>
<path d="M186.2575 122.5906 L185.8246 123.0235 "/>
<path d="M185.8246 123.0235 L184.9588 123.4564 "/>
<path d="M184.9588 123.4564 L182.3614 123.4564 "/>
<path d="M182.3614 123.4564 L181.4956 123.0235 "/>
<path d="M181.4956 123.0235 L181.0627 122.5906 "/>
<path d="M181.0627 122.5906 L180.6298 121.7248 "/>
<path d="M180.6298 121.7248 L180.6298 120.4261 "/>
<path d="M180.6298 120.4261 L181.0627 119.5603 "/>
<path d="M181.0627 119.5603 L181.4956 119.1274 "/>
<path d="M181.4956 119.1274 L182.3614 118.6945 "/>
<path d="M182.3614 118.6945 L184.9588 118.6945 "/>
<path d="M184.9588 118.6945 L185.8246 119.1274 "/>
<path d="M185.8246 119.1274 L186.2575 119.5603 "/>
<path d="M186.2575 119.5603 L186.6904 120.4261 "/>
<path d="M186.6904 120.4261 L186.6904 121.7248 "/>
<path d="M186.6904 113.4997 L186.2575 114.3655 "/>
<path d="M186.2575 114.3655 L185.3917 114.7984 "/>
<path d="M185.3917 114.7984 L177.5995 114.7984 "/>
<path d="M186.6904 106.1404 L177.5995 106.1404 "/>
<path d="M186.2575 106.1404 L186.6904 107.0062 "/>
<path d="M186.6904 107.0062 L186.6904 108.7378 "/>
<path d="M186.6904 108.7378 L186.2575 109.6036 "/>
<path d="M186.2575 109.6036 L185.8246 110.0365 "/>
<path d="M185.8246 110.0365 L184.9588 110.4694 "/>
<path d="M184.9588 110.4694 L182.3614 110.4694 "/>
<path d="M182.3614 110.4694 L181.4956 110.0365 "/>
<path d="M181.4956 110.0365 L181.0627 109.6036 "/>
<path d="M181.0627 109.6036 L180.6298 108.7378 "/>
<path d="M180.6298 108.7378 L180.6298 107.0062 "/>
<path d="M180.6298 107.0062 L181.0627 106.1404 "/>
<path d="M186.2575 98.3482 L186.6904 99.2140 "/>
<path d="M186.6904 99.2140 L186.6904 100.9456 "/>
<path d="M186.6904 100.9456 L186.2575 101.8114 "/>
<path d="M186.2575 101.8114 L185.3917 102.2443 "/>
<path d="M185.3917 102.2443 L181.9285 102.2443 "/>
<path d="M181.9285 102.2443 L181.0627 101.8114 "/>
<path d="M181.0627 101.8114 L180.6298 100.9456 "/>
<path d="M180.6298 100.9456 L180.6298 99.2140 "/>
<path d="M180.6298 99.2140 L181.0627 98.3482 "/>
<path d="M181.0627 98.3482 L181.9285 97.9153 "/>
<path d="M181.9285 97.9153 L182.7943 97.9153 "/>
<path d="M182.7943 97.9153 L183.6601 102.2443 "/>
<path d="M186.6904 94.0192 L180.6298 94.0192 "/>
<path d="M182.3614 94.0192 L181.4956 93.5863 "/>
<path d="M181.4956 93.5863 L181.0627 93.1534 "/>
<path d="M181.0627 93.1534 L180.6298 92.2876 "/>
<path d="M180.6298 92.2876 L180.6298 91.4218 "/>
<path d="M177.5995 85.7941 L184.0930 85.7941 "/>
<path d="M184.0930 85.7941 L185.3917 86.2270 "/>
<path d="M185.3917 86.2270 L186.2575 87.0928 "/>
<path d="M186.2575 87.0928 L186.6904 88.3915 "/>
<path d="M186.6904 88.3915 L186.6904 89.2573 "/>
<path d="M180.6298 77.5690 L186.6904 77.5690 "/>
<path d="M180.6298 81.4651 L185.3917 81.4651 "/>
<path d="M185.3917 81.4651 L186.2575 81.0322 "/>
<path d="M186.2575 81.0322 L186.6904 80.1664 "/>
<path d="M186.6904 80.1664 L186.6904 78.8677 "/>
<path d="M186.6904 78.8677 L186.2575 78.0019 "/>
<path d="M186.2575 78.0019 L185.8246 77.5690 "/>
<path d="M186.6904 73.2400 L180.6298 73.2400 "/>
<path d="M181.4956 73.2400 L181.0627 72.8071 "/>
<path d="M181.0627 72.8071 L180.6298 71.9413 "/>
<path d="M180.6298 71.9413 L180.6298 70.6426 "/>
<path d="M180.6298 70.6426 L181.0627 69.7768 "/>
<path d="M181.0627 69.7768 L181.9285 69.3439 "/>
<path d="M181.9285 69.3439 L186.6904 69.3439 "/>
<path d="M181.9285 69.3439 L181.0627 68.9110 "/>
<path d="M181.0627 68.9110 L180.6298 68.0452 "/>
<path d="M180.6298 68.0452 L180.6298 66.7465 "/>
<path d="M180.6298 66.7465 L181.0627 65.8806 "/>
<path d="M181.0627 65.8806 L181.9285 65.4477 "/>
<path d="M181.9285 65.4477 L186.6904 65.4477 "/>
<path d="M180.6298 61.1187 L189.7207 61.1187 "/>
<path d="M181.0627 61.1187 L180.6298 60.2529 "/>
<path d="M180.6298 60.2529 L180.6298 58.5213 "/>
<path d="M180.6298 58.5213 L181.0627 57.6555 "/>
<path d="M181.0627 57.6555 L181.4956 57.2226 "/>
<path d="M181.4956 57.2226 L182.3614 56.7897 "/>
<path d="M182.3614 56.7897 L184.9588 56.7897 "/>
<path d="M184.9588 56.7897 L185.8246 57.2226 "/>
<path d="M185.8246 57.2226 L186.2575 57.6555 "/>
<path d="M186.2575 57.6555 L186.6904 58.5213 "/>
<path d="M186.6904 58.5213 L186.6904 60.2529 "/>
<path d="M186.6904 60.2529 L186.2575 61.1187 "/>
<path d="M186.2575 49.4304 L186.6904 50.2962 "/>
<path d="M186.6904 50.2962 L186.6904 52.0278 "/>
<path d="M186.6904 52.0278 L186.2575 52.8936 "/>
<path d="M186.2575 52.8936 L185.3917 53.3265 "/>
<path d="M185.3917 53.3265 L181.9285 53.3265 "/>
<path d="M181.9285 53.3265 L181.0627 52.8936 "/>
<path d="M181.0627 52.8936 L180.6298 52.0278 "/>
<path d="M180.6298 52.0278 L180.6298 50.2962 "/>
<path d="M180.6298 50.2962 L181.0627 49.4304 "/>
<path d="M181.0627 49.4304 L181.9285 48.9975 "/>
<path d="M181.9285 48.9975 L182.7943 48.9975 "/>
<path d="M182.7943 48.9975 L183.6601 53.3265 "/>
<path d="M186.6904 45.1014 L180.6298 45.1014 "/>
<path d="M182.3614 45.1014 L181.4956 44.6685 "/>
<path d="M181.4956 44.6685 L181.0627 44.2356 "/>
<path d="M181.0627 44.2356 L180.6298 43.3698 "/>
<path d="M180.6298 43.3698 L180.6298 42.5040 "/>
<path d="M187.5562 41.6382 L187.5562 34.7118 "/>
<path d="M178.4653 32.9802 L178.0324 32.5473 "/>
<path d="M178.0324 32.5473 L177.5995 31.6815 "/>
<path d="M177.5995 31.6815 L177.5995 29.5170 "/>
<path d="M177.5995 29.5170 L178.0324 28.6512 "/>
<path d="M178.0324 28.6512 L178.4653 28.2183 "/>
<path d="M178.4653 28.2183 L179.3311 27.7854 "/>
<path d="M179.3311 27.7854 L180.1969 27.7854 "/>
<path d="M180.1969 27.7854 L181.4956 28.2183 "/>
<path d="M181.4956 28.2183 L186.6904 33.4131 "/>
<path d="M186.6904 33.4131 L186.6904 27.7854 "/>
<path d="M187.5562 26.0538 L187.5562 19.1274 "/>
<path d="M177.5995 15.2313 L177.5995 13.4997 "/>
<path d="M177.5995 13.4997 L178.0324 12.6339 "/>
<path d="M178.0324 12.6339 L178.8982 11.7681 "/>
<path d="M178.8982 11.7681 L180.6298 11.3352 "/>
<path d="M180.6298 11.3352 L183.6601 11.3352 "/>
<path d="M183.6601 11.3352 L185.3917 11.7681 "/>
<path d="M185.3917 11.7681 L186.2575 12.6339 "/>
<path d="M186.2575 12.6339 L186.6904 13.4997 "/>
<path d="M186.6904 13.4997 L186.6904 15.2313 "/>
<path d="M186.6904 15.2313 L186.2575 16.0971 "/>
<path d="M186.2575 16.0971 L185.3917 16.9629 "/>
<path d="M185.3917 16.9629 L183.6601 17.3958 "/>
<path d="M183.6601 17.3958 L180.6298 17.3958 "/>
<path d="M180.6298 17.3958 L178.8982 16.9629 "/>
<path d="M178.8982 16.9629 L178.0324 16.0971 "/>
<path d="M178.0324 16.0971 L177.5995 15.2313 "/>
<path d="M180.6298 7.4391 L189.7207 7.4391 "/>
<path d="M181.0627 7.4391 L180.6298 6.5733 "/>
<path d="M180.6298 6.5733 L180.6298 4.8417 "/>
<path d="M180.6298 4.8417 L181.0627 3.9759 "/>
<path d="M181.0627 3.9759 L181.4956 3.5430 "/>
<path d="M181.4956 3.5430 L182.3614 3.1101 "/>
<path d="M182.3614 3.1101 L184.9588 3.1101 "/>
<path d="M184.9588 3.1101 L185.8246 3.5430 "/>
<path d="M185.8246 3.5430 L186.2575 3.9759 "/>
<path d="M186.2575 3.9759 L186.6904 4.8417 "/>
<path d="M186.6904 4.8417 L186.6904 6.5733 "/>
<path d="M186.6904 6.5733 L186.2575 7.4391 "/>
<path d="M186.2575 -4.2492 L186.6904 -3.3834 "/>
<path d="M186.6904 -3.3834 L186.6904 -1.6518 "/>
<path d="M186.6904 -1.6518 L186.2575 -0.7860 "/>
<path d="M186.2575 -0.7860 L185.3917 -0.3531 "/>
<path d="M185.3917 -0.3531 L181.9285 -0.3531 "/>
<path d="M181.9285 -0.3531 L181.0627 -0.7860 "/>
<path d="M181.0627 -0.7860 L180.6298 -1.6518 "/>
<path d="M180.6298 -1.6518 L180.6298 -3.3834 "/>
<path d="M180.6298 -3.3834 L181.0627 -4.2492 "/>
<path d="M181.0627 -4.2492 L181.9285 -4.6821 "/>
<path d="M181.9285 -4.6821 L182.7943 -4.6821 "/>
<path d="M182.7943 -4.6821 L183.6601 -0.3531 "/>
<path d="M180.6298 -8.5782 L186.6904 -8.5782 "/>
<path d="M181.4956 -8.5782 L181.0627 -9.0111 "/>
<path d="M181.0627 -9.0111 L180.6298 -9.8769 "/>
<path d="M180.6298 -9.8769 L180.6298 -11.1756 "/>
<path d="M180.6298 -11.1756 L181.0627 -12.0414 "/>
<path d="M181.0627 -12.0414 L181.9285 -12.4743 "/>
<path d="M181.9285 -12.4743 L186.6904 -12.4743 "/>
</g><g transform="rotate(-90.000000 267.5920 59.5491)">
<text x="267.5920" y="64.0945" textLength="113.5281" font-size="12.1212" lengthAdjust="spacingAndGlyphs" text-anchor="middle" opacity="0">SM04B-GHS-TB</text>
</g>
<g class="stroked-text"><desc>SM04B-GHS-TB</desc>
<path d="M271.2938 113.4451 L271.7267 112.1464 "/>
<path d="M271.7267 112.1464 L271.7267 109.9819 "/>
<path d="M271.7267 109.9819 L271.2938 109.1161 "/>
<path d="M271.2938 109.1161 L270.8609 108.6832 "/>
<path d="M270.8609 108.6832 L269.9951 108.2503 "/>
<path d="M269.9951 108.2503 L269.1293 108.2503 "/>
<path d="M269.1293 108.2503 L268.2635 108.6832 "/>
<path d="M268.2635 108.6832 L267.8306 109.1161 "/>
<path d="M267.8306 109.1161 L267.3977 109.9819 "/>
<path d="M267.3977 109.9819 L266.9648 111.7135 "/>
<path d="M266.9648 111.7135 L266.5319 112.5793 "/>
<path d="M266.5319 112.5793 L266.0990 113.0122 "/>
<path d="M266.0990 113.0122 L265.2332 113.4451 "/>
<path d="M265.2332 113.4451 L264.3674 113.4451 "/>
<path d="M264.3674 113.4451 L263.5016 113.0122 "/>
<path d="M263.5016 113.0122 L263.0687 112.5793 "/>
<path d="M263.0687 112.5793 L262.6358 111.7135 "/>
<path d="M262.6358 111.7135 L262.6358 109.5490 "/>
<path d="M262.6358 109.5490 L263.0687 108.2503 "/>
<path d="M271.7267 104.3542 L262.6358 104.3542 "/>
<path d="M262.6358 104.3542 L269.1293 101.3239 "/>
<path d="M269.1293 101.3239 L262.6358 98.2936 "/>
<path d="M262.6358 98.2936 L271.7267 98.2936 "/>
<path d="M262.6358 92.2330 L262.6358 91.3672 "/>
<path d="M262.6358 91.3672 L263.0687 90.5014 "/>
<path d="M263.0687 90.5014 L263.5016 90.0685 "/>
<path d="M263.5016 90.0685 L264.3674 89.6356 "/>
<path d="M264.3674 89.6356 L266.0990 89.2027 "/>
<path d="M266.0990 89.2027 L268.2635 89.2027 "/>
<path d="M268.2635 89.2027 L269.9951 89.6356 "/>
<path d="M269.9951 89.6356 L270.8609 90.0685 "/>
<path d="M270.8609 90.0685 L271.2938 90.5014 "/>
<path d="M271.2938 90.5014 L271.7267 91.3672 "/>
<path d="M271.7267 91.3672 L271.7267 92.2330 "/>
<path d="M271.7267 92.2330 L271.2938 93.0988 "/>
<path d="M271.2938 93.0988 L270.8609 93.5317 "/>
<path d="M270.8609 93.5317 L269.9951 93.9646 "/>
<path d="M269.9951 93.9646 L268.2635 94.3975 "/>
<path d="M268.2635 94.3975 L266.0990 94.3975 "/>
<path d="M266.0990 94.3975 L264.3674 93.9646 "/>
<path d="M264.3674 93.9646 L263.5016 93.5317 "/>
<path d="M263.5016 93.5317 L263.0687 93.0988 "/>
<path d="M263.0687 93.0988 L262.6358 92.2330 "/>
<path d="M265.6661 81.4105 L271.7267 81.4105 "/>
<path d="M262.2029 83.5750 L268.6964 85.7395 "/>
<path d="M268.6964 85.7395 L268.6964 80.1118 "/>
<path d="M266.9648 73.6183 L267.3977 72.3196 "/>
<path d="M267.3977 72.3196 L267.8306 71.8867 "/>
<path d="M267.8306 71.8867 L268.6964 71.4538 "/>
<path d="M268.6964 71.4538 L269.9951 71.4538 "/>
<path d="M269.9951 71.4538 L270.8609 71.8867 "/>
<path d="M270.8609 71.8867 L271.2938 72.3196 "/>
<path d="M271.2938 72.3196 L271.7267 73.1854 "/>
<path d="M271.7267 73.1854 L271.7267 76.6486 "/>
<path d="M271.7267 76.6486 L262.6358 76.6486 "/>
<path d="M262.6358 76.6486 L262.6358 73.6183 "/>
<path d="M262.6358 73.6183 L263.0687 72.7525 "/>
<path d="M263.0687 72.7525 L263.5016 72.3196 "/>
<path d="M263.5016 72.3196 L264.3674 71.8867 "/>
<path d="M264.3674 71.8867 L265.2332 71.8867 "/>
<path d="M265.2332 71.8867 L266.0990 72.3196 "/>
<path d="M266.0990 72.3196 L266.5319 72.7525 "/>
<path d="M266.5319 72.7525 L266.9648 73.6183 "/>
<path d="M266.9648 73.6183 L266.9648 76.6486 "/>
<path d="M268.2635 67.5577 L268.2635 60.6313 "/>
<path d="M263.0687 51.5404 L262.6358 52.4062 "/>
<path d="M262.6358 52.4062 L262.6358 53.7049 "/>
<path d="M262.6358 53.7049 L263.0687 55.0036 "/>
<path d="M263.0687 55.0036 L263.9345 55.8694 "/>
<path d="M263.9345 55.8694 L264.8003 56.3023 "/>
<path d="M264.8003 56.3023 L266.5319 56.7352 "/>
<path d="M266.5319 56.7352 L267.8306 56.7352 "/>
<path d="M267.8306 56.7352 L269.5622 56.3023 "/>
<path d="M269.5622 56.3023 L270.4280 55.8694 "/>
<path d="M270.4280 55.8694 L271.2938 55.0036 "/>
<path d="M271.2938 55.0036 L271.7267 53.7049 "/>
<path d="M271.7267 53.7049 L271.7267 52.8391 "/>
<path d="M271.7267 52.8391 L271.2938 51.5404 "/>
<path d="M271.2938 51.5404 L270.8609 51.1075 "/>
<path d="M270.8609 51.1075 L267.8306 51.1075 "/>
<path d="M267.8306 51.1075 L267.8306 52.8391 "/>
<path d="M271.7267 47.2114 L262.6358 47.2114 "/>
<path d="M266.9648 47.2114 L266.9648 42.0166 "/>
<path d="M271.7267 42.0166 L262.6358 42.0166 "/>
<path d="M271.2938 38.1205 L271.7267 36.8218 "/>
<path d="M271.7267 36.8218 L271.7267 34.6573 "/>
<path d="M271.7267 34.6573 L271.2938 33.7915 "/>
<path d="M271.2938 33.7915 L270.8609 33.3586 "/>
<path d="M270.8609 33.3586 L269.9951 32.9257 "/>
<path d="M269.9951 32.9257 L269.1293 32.9257 "/>
<path d="M269.1293 32.9257 L268.2635 33.3586 "/>
<path d="M268.2635 33.3586 L267.8306 33.7915 "/>
<path d="M267.8306 33.7915 L267.3977 34.6573 "/>
<path d="M267.3977 34.6573 L266.9648 36.3889 "/>
<path d="M266.9648 36.3889 L266.5319 37.2547 "/>
<path d="M266.5319 37.2547 L266.0990 37.6876 "/>
<path d="M266.0990 37.6876 L265.2332 38.1205 "/>
<path d="M265.2332 38.1205 L264.3674 38.1205 "/>
<path d="M264.3674 38.1205 L263.5016 37.6876 "/>
<path d="M263.5016 37.6876 L263.0687 37.2547 "/>
<path d="M263.0687 37.2547 L262.6358 36.3889 "/>
<path d="M262.6358 36.3889 L262.6358 34.2244 "/>
<path d="M262.6358 34.2244 L263.0687 32.9257 "/>
<path d="M268.2635 29.0296 L268.2635 22.1032 "/>
<path d="M262.6358 19.0729 L262.6358 13.8781 "/>
<path d="M271.7267 16.4755 L262.6358 16.4755 "/>
<path d="M266.9648 7.8174 L267.3977 6.5187 "/>
<path d="M267.3977 6.5187 L267.8306 6.0858 "/>
<path d="M267.8306 6.0858 L268.6964 5.6529 "/>
<path d="M268.6964 5.6529 L269.9951 5.6529 "/>
<path d="M269.9951 5.6529 L270.8609 6.0858 "/>
<path d="M270.8609 6.0858 L271.2938 6.5187 "/>
<path d="M271.2938 6.5187 L271.7267 7.3845 "/>
<path d="M271.7267 7.3845 L271.7267 10.8477 "/>
<path d="M271.7267 10.8477 L262.6358 10.8477 "/>
<path d="M262.6358 10.8477 L262.6358 7.8174 "/>
<path d="M262.6358 7.8174 L263.0687 6.9516 "/>
<path d="M263.0687 6.9516 L263.5016 6.5187 "/>
<path d="M263.5016 6.5187 L264.3674 6.0858 "/>
<path d="M264.3674 6.0858 L265.2332 6.0858 "/>
<path d="M265.2332 6.0858 L266.0990 6.5187 "/>
<path d="M266.0990 6.5187 L266.5319 6.9516 "/>
<path d="M266.5319 6.9516 L266.9648 7.8174 "/>
<path d="M266.9648 7.8174 L266.9648 10.8477 "/>
</g><g transform="rotate(-90.000000 232.1375 59.5491)">
<text x="232.1375" y="64.0945" textLength="17.8571" font-size="12.1212" lengthAdjust="spacingAndGlyphs" text-anchor="middle" opacity="0">J6</text>
</g>
<g class="stroked-text"><desc>J6</desc>
<path d="M227.1813 62.5794 L233.6748 62.5794 "/>
<path d="M233.6748 62.5794 L234.9735 63.0123 "/>
<path d="M234.9735 63.0123 L235.8393 63.8781 "/>
<path d="M235.8393 63.8781 L236.2722 65.1768 "/>
<path d="M236.2722 65.1768 L236.2722 66.0426 "/>
<path d="M227.1813 54.3542 L227.1813 56.0858 "/>
<path d="M227.1813 56.0858 L227.6142 56.9516 "/>
<path d="M227.6142 56.9516 L228.0471 57.3845 "/>
<path d="M228.0471 57.3845 L229.3458 58.2503 "/>
<path d="M229.3458 58.2503 L231.0774 58.6832 "/>
<path d="M231.0774 58.6832 L234.5406 58.6832 "/>
<path d="M234.5406 58.6832 L235.4064 58.2503 "/>
<path d="M235.4064 58.2503 L235.8393 57.8174 "/>
<path d="M235.8393 57.8174 L236.2722 56.9516 "/>
<path d="M236.2722 56.9516 L236.2722 55.2200 "/>
<path d="M236.2722 55.2200 L235.8393 54.3542 "/>
<path d="M235.8393 54.3542 L235.4064 53.9213 "/>
<path d="M235.4064 53.9213 L234.5406 53.4884 "/>
<path d="M234.5406 53.4884 L232.3761 53.4884 "/>
<path d="M232.3761 53.4884 L231.5103 53.9213 "/>
<path d="M231.5103 53.9213 L231.0774 54.3542 "/>
<path d="M231.0774 54.3542 L230.6445 55.2200 "/>
<path d="M230.6445 55.2200 L230.6445 56.9516 "/>
<path d="M230.6445 56.9516 L231.0774 57.8174 "/>
<path d="M231.0774 57.8174 L231.5103 58.2503 "/>
<path d="M231.5103 58.2503 L232.3761 58.6832 "/>
</g><g transform="rotate(-90.000000 232.1375 150.4581)">
<text x="232.1375" y="155.0036" textLength="17.8571" font-size="12.1212" lengthAdjust="spacingAndGlyphs" text-anchor="middle" opacity="0">J4</text>
</g>
<g class="stroked-text"><desc>J4</desc>
<path d="M227.1813 153.4884 L233.6748 153.4884 "/>
<path d="M233.6748 153.4884 L234.9735 153.9213 "/>
<path d="M234.9735 153.9213 L235.8393 154.7871 "/>
<path d="M235.8393 154.7871 L236.2722 156.0858 "/>
<path d="M236.2722 156.0858 L236.2722 156.9516 "/>
<path d="M230.2116 145.2633 L236.2722 145.2633 "/>
<path d="M226.7484 147.4278 L233.2419 149.5923 "/>
<path d="M233.2419 149.5923 L233.2419 143.9646 "/>
</g></g>
<g style="fill:#848484; fill-opacity:0.0;  stroke:#848484; stroke-width:0.9091; stroke-opacity:1;  stroke-linecap:round; stroke-linejoin:round;">
<path d="M217.5920 97.0491 L254.4102 97.0491 "/>
<path d="M217.5920 97.0491 L217.5920 22.0491 "/>
<path d="M254.4102 97.0491 L254.4102 22.0491 "/>
<path d="M217.5920 81.1400 L224.0203 76.5945 "/>
<path d="M224.0203 76.5945 L217.5920 72.0491 "/>
<path d="M217.5920 22.0491 L254.4102 22.0491 "/>
<path d="M217.5920 187.9581 L254.4102 187.9581 "/>
<path d="M217.5920 187.9581 L217.5920 112.9581 "/>
<path d="M254.4102 187.9581 L254.4102 112.9581 "/>
<path d="M217.5920 172.0491 L224.0203 167.5036 "/>
<path d="M224.0203 167.5036 L217.5920 162.9581 "/>
<path d="M217.5920 112.9581 L254.4102 112.9581 "/>
<g>
</g>
<g>
</g>
<g>
</g>
<g>
</g>
<g>
</g>
<g>
</g>
<g>
</g>
<g>
</g>
<g>
</g>
<g>
</g>
<g>
</g>
<g>
</g>
<g>
</g>
<g>
</g>
<g>
</g>
<g>
</g>
<g>
</g>
<g>
</g>
<g>
</g>
<g>
</g>
<g>
</g>
<g>
</g>
<g>
</g>
<g>
</g>
<g>
</g>
<g>
</g>
<g>
</g>
<g>
</g>
<g>
</g>
<g>
</g>
<g>
</g>
<g>
</g>
<g>
</g>
<g>
</g>
<g>
</g>
<g>
</g>
<g>
</g>
<g>
</g>
<g>
</g>
<g>
</g>
<g>
</g>
</g> 
<svg:g><svg:g><svg:title>SVG Image created as TFI2CADT01-Edge_Cuts.svg date 2024/02/14 19:13:06 </svg:title>
  <svg:desc>Image generated by PCBNEW </svg:desc>
<svg:g style="fill:#C2C200; fill-opacity:1.0000;stroke:#C2C200; stroke-opacity:1.0000; stroke-linecap:round; stroke-linejoin:round;" transform="translate(0 0) scale(1 1)">
</svg:g>
<svg:g style="fill:#C2C200; fill-opacity:0.0;  stroke:#C2C200; stroke-width:0.0000; stroke-opacity:1;  stroke-linecap:round; stroke-linejoin:round;">
</svg:g>
<svg:g style="fill:#C2C200; fill-opacity:0.0;  stroke:#C2C200; stroke-width:0.9091; stroke-opacity:1;  stroke-linecap:round; stroke-linejoin:round;">
<svg:path d="M34.8647 0.4581 L262.1375 0.4581 "/>
<svg:path d="M262.1375 0.4581 L262.1375 209.5491 "/>
<svg:path d="M34.8647 0.4581 L34.8647 209.5491 "/>
<svg:path d="M34.8647 209.5491 L262.1375 209.5491 "/>
<svg:g>
</svg:g>
<svg:g>
</svg:g>
<svg:g>
</svg:g>
<svg:g>
</svg:g>
<svg:g>
</svg:g>
<svg:g>
</svg:g>
<svg:g>
</svg:g>
<svg:g>
</svg:g>
<svg:g>
</svg:g>
<svg:g>
</svg:g>
<svg:g>
</svg:g>
<svg:g>
</svg:g>
<svg:g>
</svg:g>
<svg:g>
</svg:g>
<svg:g>
</svg:g>
<svg:g>
</svg:g>
<svg:g>
</svg:g>
<svg:g>
</svg:g>
<svg:g>
</svg:g>
<svg:g>
</svg:g>
<svg:g>
</svg:g>
<svg:g>
</svg:g>
<svg:g>
</svg:g>
<svg:g>
</svg:g>
<svg:g>
</svg:g>
<svg:g>
</svg:g>
<svg:g>
</svg:g>
<svg:g>
</svg:g>
<svg:g>
</svg:g>
<svg:g>
</svg:g>
<svg:g>
</svg:g>
<svg:g>
</svg:g>
<svg:g>
</svg:g>
<svg:g>
</svg:g>
<svg:g>
</svg:g>
<svg:g>
</svg:g>
<svg:g>
</svg:g>
<svg:g>
</svg:g>
<svg:g>
</svg:g>
<svg:g>
</svg:g>
<svg:g>
</svg:g>
</svg:g> 
</svg:g></svg:g></svg>
