<?xml version='1.0' encoding='ASCII' standalone='yes'?>
<svg xmlns:svg="http://www.w3.org/2000/svg" xmlns="http://www.w3.org/2000/svg" xmlns:xlink="http://www.w3.org/1999/xlink" version="1.1" width="297.0022mm" height="210.0072mm" viewBox="0.0000 0.0000 297.0022 210.0072">
<title>SVG Image created as TFI2CADT01-B_Fab.svg date 2024/02/13 12:54:07 </title>
  <desc>Image generated by PCBNEW </desc>
<g style="fill:#000084; fill-opacity:1.0000;stroke:#000084; stroke-opacity:1.0000; stroke-linecap:round; stroke-linejoin:round;" transform="translate(0 0) scale(1 1)">
</g>
<g style="fill:#000084; fill-opacity:0.0;  stroke:#000084; stroke-width:0.0000; stroke-opacity:1;  stroke-linecap:round; stroke-linejoin:round;">
</g>
<g style="fill:#000084; fill-opacity:0.0;  stroke:#000084; stroke-width:0.5455; stroke-opacity:1;  stroke-linecap:round; stroke-linejoin:round;">
<text x="133.0466" y="27.1018" textLength="8.0087" font-size="4.8485" lengthAdjust="spacingAndGlyphs" text-anchor="middle" opacity="0">R7</text>
<g class="stroked-text"><desc>R7</desc>
<path d="M132.4405 26.9375 L131.2284 25.2059 "/>
<path d="M130.3626 26.9375 L130.3626 23.3011 "/>
<path d="M130.3626 23.3011 L131.7479 23.3011 "/>
<path d="M131.7479 23.3011 L132.0942 23.4743 "/>
<path d="M132.0942 23.4743 L132.2673 23.6474 "/>
<path d="M132.2673 23.6474 L132.4405 23.9938 "/>
<path d="M132.4405 23.9938 L132.4405 24.5132 "/>
<path d="M132.4405 24.5132 L132.2673 24.8596 "/>
<path d="M132.2673 24.8596 L132.0942 25.0327 "/>
<path d="M132.0942 25.0327 L131.7479 25.2059 "/>
<path d="M131.7479 25.2059 L130.3626 25.2059 "/>
<path d="M133.6526 23.3011 L136.0769 23.3011 "/>
<path d="M136.0769 23.3011 L134.5184 26.9375 "/>
</g><g transform="rotate(90.000000 189.4102 145.9127)">
<text x="189.4102" y="147.7309" textLength="8.0087" font-size="4.8485" lengthAdjust="spacingAndGlyphs" text-anchor="middle" opacity="0">D1</text>
</g>
<g class="stroked-text"><desc>D1</desc>
<path d="M187.7563 143.2287 L191.3927 143.2287 "/>
<path d="M191.3927 143.2287 L191.3927 144.0945 "/>
<path d="M191.3927 144.0945 L191.2195 144.6140 "/>
<path d="M191.2195 144.6140 L190.8732 144.9603 "/>
<path d="M190.8732 144.9603 L190.5269 145.1335 "/>
<path d="M190.5269 145.1335 L189.8342 145.3066 "/>
<path d="M189.8342 145.3066 L189.3147 145.3066 "/>
<path d="M189.3147 145.3066 L188.6221 145.1335 "/>
<path d="M188.6221 145.1335 L188.2758 144.9603 "/>
<path d="M188.2758 144.9603 L187.9295 144.6140 "/>
<path d="M187.9295 144.6140 L187.7563 144.0945 "/>
<path d="M187.7563 144.0945 L187.7563 143.2287 "/>
<path d="M187.7563 148.7698 L187.7563 146.6919 "/>
<path d="M187.7563 147.7309 L191.3927 147.7309 "/>
<path d="M191.3927 147.7309 L190.8732 147.3845 "/>
<path d="M190.8732 147.3845 L190.5269 147.0382 "/>
<path d="M190.5269 147.0382 L190.3537 146.6919 "/>
</g><text x="114.8175" y="192.8945" textLength="8.0087" font-size="4.8485" lengthAdjust="spacingAndGlyphs" text-anchor="middle" opacity="0">C2</text>
<g class="stroked-text"><desc>C2</desc>
<path d="M114.2114 192.3839 L114.0382 192.5571 "/>
<path d="M114.0382 192.5571 L113.5188 192.7302 "/>
<path d="M113.5188 192.7302 L113.1724 192.7302 "/>
<path d="M113.1724 192.7302 L112.6530 192.5571 "/>
<path d="M112.6530 192.5571 L112.3066 192.2107 "/>
<path d="M112.3066 192.2107 L112.1335 191.8644 "/>
<path d="M112.1335 191.8644 L111.9603 191.1718 "/>
<path d="M111.9603 191.1718 L111.9603 190.6523 "/>
<path d="M111.9603 190.6523 L112.1335 189.9596 "/>
<path d="M112.1335 189.9596 L112.3066 189.6133 "/>
<path d="M112.3066 189.6133 L112.6530 189.2670 "/>
<path d="M112.6530 189.2670 L113.1724 189.0938 "/>
<path d="M113.1724 189.0938 L113.5188 189.0938 "/>
<path d="M113.5188 189.0938 L114.0382 189.2670 "/>
<path d="M114.0382 189.2670 L114.2114 189.4402 "/>
<path d="M115.5967 189.4402 L115.7699 189.2670 "/>
<path d="M115.7699 189.2670 L116.1162 189.0938 "/>
<path d="M116.1162 189.0938 L116.9820 189.0938 "/>
<path d="M116.9820 189.0938 L117.3283 189.2670 "/>
<path d="M117.3283 189.2670 L117.5015 189.4402 "/>
<path d="M117.5015 189.4402 L117.6746 189.7865 "/>
<path d="M117.6746 189.7865 L117.6746 190.1328 "/>
<path d="M117.6746 190.1328 L117.5015 190.6523 "/>
<path d="M117.5015 190.6523 L115.4235 192.7302 "/>
<path d="M115.4235 192.7302 L117.6746 192.7302 "/>
</g></g>
<g style="fill:#000084; fill-opacity:0.0;  stroke:#000084; stroke-width:1.3636; stroke-opacity:1;  stroke-linecap:round; stroke-linejoin:round;">
<g transform="rotate(90.000000 206.7193 174.6818)">
<text x="206.7193" y="179.2272" textLength="20.0216" font-size="12.1212" lengthAdjust="spacingAndGlyphs" text-anchor="middle" opacity="0">D2</text>
</g>
<g class="stroked-text"><desc>D2</desc>
<path d="M202.5846 167.9718 L211.6755 167.9718 "/>
<path d="M211.6755 167.9718 L211.6755 170.1363 "/>
<path d="M211.6755 170.1363 L211.2426 171.4350 "/>
<path d="M211.2426 171.4350 L210.3768 172.3008 "/>
<path d="M210.3768 172.3008 L209.5110 172.7337 "/>
<path d="M209.5110 172.7337 L207.7794 173.1666 "/>
<path d="M207.7794 173.1666 L206.4807 173.1666 "/>
<path d="M206.4807 173.1666 L204.7491 172.7337 "/>
<path d="M204.7491 172.7337 L203.8833 172.3008 "/>
<path d="M203.8833 172.3008 L203.0175 171.4350 "/>
<path d="M203.0175 171.4350 L202.5846 170.1363 "/>
<path d="M202.5846 170.1363 L202.5846 167.9718 "/>
<path d="M210.8097 176.6298 L211.2426 177.0627 "/>
<path d="M211.2426 177.0627 L211.6755 177.9285 "/>
<path d="M211.6755 177.9285 L211.6755 180.0930 "/>
<path d="M211.6755 180.0930 L211.2426 180.9588 "/>
<path d="M211.2426 180.9588 L210.8097 181.3917 "/>
<path d="M210.8097 181.3917 L209.9439 181.8246 "/>
<path d="M209.9439 181.8246 L209.0781 181.8246 "/>
<path d="M209.0781 181.8246 L207.7794 181.3917 "/>
<path d="M207.7794 181.3917 L202.5846 176.1969 "/>
<path d="M202.5846 176.1969 L202.5846 181.8246 "/>
</g></g>
<g style="fill:#000084; fill-opacity:0.0;  stroke:#000084; stroke-width:0.5455; stroke-opacity:1;  stroke-linecap:round; stroke-linejoin:round;">
<g transform="rotate(90.000000 100.5011 150.7872)">
<text x="100.5011" y="152.6054" textLength="8.0087" font-size="4.8485" lengthAdjust="spacingAndGlyphs" text-anchor="middle" opacity="0">R5</text>
</g>
<g class="stroked-text"><desc>R5</desc>
<path d="M98.8472 150.1812 L100.5788 148.9691 "/>
<path d="M98.8472 148.1033 L102.4836 148.1033 "/>
<path d="M102.4836 148.1033 L102.4836 149.4885 "/>
<path d="M102.4836 149.4885 L102.3104 149.8349 "/>
<path d="M102.3104 149.8349 L102.1373 150.0080 "/>
<path d="M102.1373 150.0080 L101.7909 150.1812 "/>
<path d="M101.7909 150.1812 L101.2715 150.1812 "/>
<path d="M101.2715 150.1812 L100.9251 150.0080 "/>
<path d="M100.9251 150.0080 L100.7520 149.8349 "/>
<path d="M100.7520 149.8349 L100.5788 149.4885 "/>
<path d="M100.5788 149.4885 L100.5788 148.1033 "/>
<path d="M102.4836 153.4712 L102.4836 151.7396 "/>
<path d="M102.4836 151.7396 L100.7520 151.5665 "/>
<path d="M100.7520 151.5665 L100.9251 151.7396 "/>
<path d="M100.9251 151.7396 L101.0983 152.0859 "/>
<path d="M101.0983 152.0859 L101.0983 152.9517 "/>
<path d="M101.0983 152.9517 L100.9251 153.2981 "/>
<path d="M100.9251 153.2981 L100.7520 153.4712 "/>
<path d="M100.7520 153.4712 L100.4057 153.6444 "/>
<path d="M100.4057 153.6444 L99.5399 153.6444 "/>
<path d="M99.5399 153.6444 L99.1935 153.4712 "/>
<path d="M99.1935 153.4712 L99.0204 153.2981 "/>
<path d="M99.0204 153.2981 L98.8472 152.9517 "/>
<path d="M98.8472 152.9517 L98.8472 152.0859 "/>
<path d="M98.8472 152.0859 L99.0204 151.7396 "/>
<path d="M99.0204 151.7396 L99.1935 151.5665 "/>
</g><g transform="rotate(90.000000 115.5102 121.2309)">
<text x="115.5102" y="123.0491" textLength="11.4719" font-size="4.8485" lengthAdjust="spacingAndGlyphs" text-anchor="middle" opacity="0">R16</text>
</g>
<g class="stroked-text"><desc>R16</desc>
<path d="M113.8563 118.8932 L115.5879 117.6811 "/>
<path d="M113.8563 116.8153 L117.4927 116.8153 "/>
<path d="M117.4927 116.8153 L117.4927 118.2006 "/>
<path d="M117.4927 118.2006 L117.3195 118.5469 "/>
<path d="M117.3195 118.5469 L117.1464 118.7200 "/>
<path d="M117.1464 118.7200 L116.8000 118.8932 "/>
<path d="M116.8000 118.8932 L116.2806 118.8932 "/>
<path d="M116.2806 118.8932 L115.9342 118.7200 "/>
<path d="M115.9342 118.7200 L115.7611 118.5469 "/>
<path d="M115.7611 118.5469 L115.5879 118.2006 "/>
<path d="M115.5879 118.2006 L115.5879 116.8153 "/>
<path d="M113.8563 122.3564 L113.8563 120.2785 "/>
<path d="M113.8563 121.3175 L117.4927 121.3175 "/>
<path d="M117.4927 121.3175 L116.9732 120.9711 "/>
<path d="M116.9732 120.9711 L116.6269 120.6248 "/>
<path d="M116.6269 120.6248 L116.4537 120.2785 "/>
<path d="M117.4927 125.4733 L117.4927 124.7807 "/>
<path d="M117.4927 124.7807 L117.3195 124.4343 "/>
<path d="M117.3195 124.4343 L117.1464 124.2612 "/>
<path d="M117.1464 124.2612 L116.6269 123.9149 "/>
<path d="M116.6269 123.9149 L115.9342 123.7417 "/>
<path d="M115.9342 123.7417 L114.5489 123.7417 "/>
<path d="M114.5489 123.7417 L114.2026 123.9149 "/>
<path d="M114.2026 123.9149 L114.0295 124.0880 "/>
<path d="M114.0295 124.0880 L113.8563 124.4343 "/>
<path d="M113.8563 124.4343 L113.8563 125.1270 "/>
<path d="M113.8563 125.1270 L114.0295 125.4733 "/>
<path d="M114.0295 125.4733 L114.2026 125.6465 "/>
<path d="M114.2026 125.6465 L114.5489 125.8196 "/>
<path d="M114.5489 125.8196 L115.4147 125.8196 "/>
<path d="M115.4147 125.8196 L115.7611 125.6465 "/>
<path d="M115.7611 125.6465 L115.9342 125.4733 "/>
<path d="M115.9342 125.4733 L116.1074 125.1270 "/>
<path d="M116.1074 125.1270 L116.1074 124.4343 "/>
<path d="M116.1074 124.4343 L115.9342 124.0880 "/>
<path d="M115.9342 124.0880 L115.7611 123.9149 "/>
<path d="M115.7611 123.9149 L115.4147 123.7417 "/>
</g><text x="114.8175" y="177.7854" textLength="8.0087" font-size="4.8485" lengthAdjust="spacingAndGlyphs" text-anchor="middle" opacity="0">C3</text>
<g class="stroked-text"><desc>C3</desc>
<path d="M114.2114 177.2748 L114.0382 177.4480 "/>
<path d="M114.0382 177.4480 L113.5188 177.6211 "/>
<path d="M113.5188 177.6211 L113.1724 177.6211 "/>
<path d="M113.1724 177.6211 L112.6530 177.4480 "/>
<path d="M112.6530 177.4480 L112.3066 177.1016 "/>
<path d="M112.3066 177.1016 L112.1335 176.7553 "/>
<path d="M112.1335 176.7553 L111.9603 176.0627 "/>
<path d="M111.9603 176.0627 L111.9603 175.5432 "/>
<path d="M111.9603 175.5432 L112.1335 174.8506 "/>
<path d="M112.1335 174.8506 L112.3066 174.5042 "/>
<path d="M112.3066 174.5042 L112.6530 174.1579 "/>
<path d="M112.6530 174.1579 L113.1724 173.9848 "/>
<path d="M113.1724 173.9848 L113.5188 173.9848 "/>
<path d="M113.5188 173.9848 L114.0382 174.1579 "/>
<path d="M114.0382 174.1579 L114.2114 174.3311 "/>
<path d="M115.4235 173.9848 L117.6746 173.9848 "/>
<path d="M117.6746 173.9848 L116.4625 175.3700 "/>
<path d="M116.4625 175.3700 L116.9820 175.3700 "/>
<path d="M116.9820 175.3700 L117.3283 175.5432 "/>
<path d="M117.3283 175.5432 L117.5015 175.7164 "/>
<path d="M117.5015 175.7164 L117.6746 176.0627 "/>
<path d="M117.6746 176.0627 L117.6746 176.9285 "/>
<path d="M117.6746 176.9285 L117.5015 177.2748 "/>
<path d="M117.5015 177.2748 L117.3283 177.4480 "/>
<path d="M117.3283 177.4480 L116.9820 177.6211 "/>
<path d="M116.9820 177.6211 L115.9430 177.6211 "/>
<path d="M115.9430 177.6211 L115.5967 177.4480 "/>
<path d="M115.5967 177.4480 L115.4235 177.2748 "/>
</g><g transform="rotate(90.000000 187.0920 30.2527)">
<text x="187.0920" y="32.0709" textLength="11.4719" font-size="4.8485" lengthAdjust="spacingAndGlyphs" text-anchor="middle" opacity="0">R15</text>
</g>
<g class="stroked-text"><desc>R15</desc>
<path d="M185.4381 27.9150 L187.1697 26.7029 "/>
<path d="M185.4381 25.8371 L189.0745 25.8371 "/>
<path d="M189.0745 25.8371 L189.0745 27.2224 "/>
<path d="M189.0745 27.2224 L188.9013 27.5687 "/>
<path d="M188.9013 27.5687 L188.7282 27.7419 "/>
<path d="M188.7282 27.7419 L188.3818 27.9150 "/>
<path d="M188.3818 27.9150 L187.8624 27.9150 "/>
<path d="M187.8624 27.9150 L187.5160 27.7419 "/>
<path d="M187.5160 27.7419 L187.3429 27.5687 "/>
<path d="M187.3429 27.5687 L187.1697 27.2224 "/>
<path d="M187.1697 27.2224 L187.1697 25.8371 "/>
<path d="M185.4381 31.3782 L185.4381 29.3003 "/>
<path d="M185.4381 30.3393 L189.0745 30.3393 "/>
<path d="M189.0745 30.3393 L188.5550 29.9929 "/>
<path d="M188.5550 29.9929 L188.2087 29.6466 "/>
<path d="M188.2087 29.6466 L188.0355 29.3003 "/>
<path d="M189.0745 34.6683 L189.0745 32.9367 "/>
<path d="M189.0745 32.9367 L187.3429 32.7635 "/>
<path d="M187.3429 32.7635 L187.5160 32.9367 "/>
<path d="M187.5160 32.9367 L187.6892 33.2830 "/>
<path d="M187.6892 33.2830 L187.6892 34.1488 "/>
<path d="M187.6892 34.1488 L187.5160 34.4951 "/>
<path d="M187.5160 34.4951 L187.3429 34.6683 "/>
<path d="M187.3429 34.6683 L186.9966 34.8414 "/>
<path d="M186.9966 34.8414 L186.1308 34.8414 "/>
<path d="M186.1308 34.8414 L185.7844 34.6683 "/>
<path d="M185.7844 34.6683 L185.6113 34.4951 "/>
<path d="M185.6113 34.4951 L185.4381 34.1488 "/>
<path d="M185.4381 34.1488 L185.4381 33.2830 "/>
<path d="M185.4381 33.2830 L185.6113 32.9367 "/>
<path d="M185.6113 32.9367 L185.7844 32.7635 "/>
</g><text x="163.9556" y="48.5763" textLength="11.4719" font-size="4.8485" lengthAdjust="spacingAndGlyphs" text-anchor="middle" opacity="0">R12</text>
<g class="stroked-text"><desc>R12</desc>
<path d="M161.6180 48.4120 L160.4059 46.6804 "/>
<path d="M159.5401 48.4120 L159.5401 44.7757 "/>
<path d="M159.5401 44.7757 L160.9254 44.7757 "/>
<path d="M160.9254 44.7757 L161.2717 44.9488 "/>
<path d="M161.2717 44.9488 L161.4448 45.1220 "/>
<path d="M161.4448 45.1220 L161.6180 45.4683 "/>
<path d="M161.6180 45.4683 L161.6180 45.9878 "/>
<path d="M161.6180 45.9878 L161.4448 46.3341 "/>
<path d="M161.4448 46.3341 L161.2717 46.5073 "/>
<path d="M161.2717 46.5073 L160.9254 46.6804 "/>
<path d="M160.9254 46.6804 L159.5401 46.6804 "/>
<path d="M165.0812 48.4120 L163.0033 48.4120 "/>
<path d="M164.0422 48.4120 L164.0422 44.7757 "/>
<path d="M164.0422 44.7757 L163.6959 45.2951 "/>
<path d="M163.6959 45.2951 L163.3496 45.6415 "/>
<path d="M163.3496 45.6415 L163.0033 45.8146 "/>
<path d="M166.4665 45.1220 L166.6396 44.9488 "/>
<path d="M166.6396 44.9488 L166.9860 44.7757 "/>
<path d="M166.9860 44.7757 L167.8518 44.7757 "/>
<path d="M167.8518 44.7757 L168.1981 44.9488 "/>
<path d="M168.1981 44.9488 L168.3712 45.1220 "/>
<path d="M168.3712 45.1220 L168.5444 45.4683 "/>
<path d="M168.5444 45.4683 L168.5444 45.8146 "/>
<path d="M168.5444 45.8146 L168.3712 46.3341 "/>
<path d="M168.3712 46.3341 L166.2933 48.4120 "/>
<path d="M166.2933 48.4120 L168.5444 48.4120 "/>
</g></g>
<g style="fill:#000084; fill-opacity:0.0;  stroke:#000084; stroke-width:1.3636; stroke-opacity:1;  stroke-linecap:round; stroke-linejoin:round;">
<g transform="rotate(90.000000 64.8647 59.5491)">
<text x="64.8647" y="64.0945" textLength="17.8571" font-size="12.1212" lengthAdjust="spacingAndGlyphs" text-anchor="middle" opacity="0">J5</text>
</g>
<g class="stroked-text"><desc>J5</desc>
<path d="M69.8209 56.5187 L63.3274 56.5187 "/>
<path d="M63.3274 56.5187 L62.0287 56.0858 "/>
<path d="M62.0287 56.0858 L61.1629 55.2200 "/>
<path d="M61.1629 55.2200 L60.7300 53.9213 "/>
<path d="M60.7300 53.9213 L60.7300 53.0555 "/>
<path d="M69.8209 65.1768 L69.8209 60.8478 "/>
<path d="M69.8209 60.8478 L65.4919 60.4149 "/>
<path d="M65.4919 60.4149 L65.9248 60.8478 "/>
<path d="M65.9248 60.8478 L66.3577 61.7136 "/>
<path d="M66.3577 61.7136 L66.3577 63.8781 "/>
<path d="M66.3577 63.8781 L65.9248 64.7439 "/>
<path d="M65.9248 64.7439 L65.4919 65.1768 "/>
<path d="M65.4919 65.1768 L64.6261 65.6097 "/>
<path d="M64.6261 65.6097 L62.4616 65.6097 "/>
<path d="M62.4616 65.6097 L61.5958 65.1768 "/>
<path d="M61.5958 65.1768 L61.1629 64.7439 "/>
<path d="M61.1629 64.7439 L60.7300 63.8781 "/>
<path d="M60.7300 63.8781 L60.7300 61.7136 "/>
<path d="M60.7300 61.7136 L61.1629 60.8478 "/>
<path d="M61.1629 60.8478 L61.5958 60.4149 "/>
</g></g>
<g style="fill:#000084; fill-opacity:0.0;  stroke:#000084; stroke-width:0.5455; stroke-opacity:1;  stroke-linecap:round; stroke-linejoin:round;">
<g transform="rotate(90.000000 109.7375 30.3636)">
<text x="109.7375" y="32.1818" textLength="8.0087" font-size="4.8485" lengthAdjust="spacingAndGlyphs" text-anchor="middle" opacity="0">R8</text>
</g>
<g class="stroked-text"><desc>R8</desc>
<path d="M108.0836 29.7575 L109.8152 28.5454 "/>
<path d="M108.0836 27.6796 L111.7199 27.6796 "/>
<path d="M111.7199 27.6796 L111.7199 29.0649 "/>
<path d="M111.7199 29.0649 L111.5468 29.4112 "/>
<path d="M111.5468 29.4112 L111.3736 29.5844 "/>
<path d="M111.3736 29.5844 L111.0273 29.7575 "/>
<path d="M111.0273 29.7575 L110.5078 29.7575 "/>
<path d="M110.5078 29.7575 L110.1615 29.5844 "/>
<path d="M110.1615 29.5844 L109.9883 29.4112 "/>
<path d="M109.9883 29.4112 L109.8152 29.0649 "/>
<path d="M109.8152 29.0649 L109.8152 27.6796 "/>
<path d="M110.1615 31.8355 L110.3347 31.4891 "/>
<path d="M110.3347 31.4891 L110.5078 31.3160 "/>
<path d="M110.5078 31.3160 L110.8541 31.1428 "/>
<path d="M110.8541 31.1428 L111.0273 31.1428 "/>
<path d="M111.0273 31.1428 L111.3736 31.3160 "/>
<path d="M111.3736 31.3160 L111.5468 31.4891 "/>
<path d="M111.5468 31.4891 L111.7199 31.8355 "/>
<path d="M111.7199 31.8355 L111.7199 32.5281 "/>
<path d="M111.7199 32.5281 L111.5468 32.8744 "/>
<path d="M111.5468 32.8744 L111.3736 33.0476 "/>
<path d="M111.3736 33.0476 L111.0273 33.2207 "/>
<path d="M111.0273 33.2207 L110.8541 33.2207 "/>
<path d="M110.8541 33.2207 L110.5078 33.0476 "/>
<path d="M110.5078 33.0476 L110.3347 32.8744 "/>
<path d="M110.3347 32.8744 L110.1615 32.5281 "/>
<path d="M110.1615 32.5281 L110.1615 31.8355 "/>
<path d="M110.1615 31.8355 L109.9883 31.4891 "/>
<path d="M109.9883 31.4891 L109.8152 31.3160 "/>
<path d="M109.8152 31.3160 L109.4689 31.1428 "/>
<path d="M109.4689 31.1428 L108.7762 31.1428 "/>
<path d="M108.7762 31.1428 L108.4299 31.3160 "/>
<path d="M108.4299 31.3160 L108.2567 31.4891 "/>
<path d="M108.2567 31.4891 L108.0836 31.8355 "/>
<path d="M108.0836 31.8355 L108.0836 32.5281 "/>
<path d="M108.0836 32.5281 L108.2567 32.8744 "/>
<path d="M108.2567 32.8744 L108.4299 33.0476 "/>
<path d="M108.4299 33.0476 L108.7762 33.2207 "/>
<path d="M108.7762 33.2207 L109.4689 33.2207 "/>
<path d="M109.4689 33.2207 L109.8152 33.0476 "/>
<path d="M109.8152 33.0476 L109.9883 32.8744 "/>
<path d="M109.9883 32.8744 L110.1615 32.5281 "/>
</g></g>
<g style="fill:#000084; fill-opacity:0.0;  stroke:#000084; stroke-width:1.3636; stroke-opacity:1;  stroke-linecap:round; stroke-linejoin:round;">
<g transform="rotate(90.000000 232.1375 150.4581)">
<text x="232.1375" y="155.0036" textLength="17.8571" font-size="12.1212" lengthAdjust="spacingAndGlyphs" text-anchor="middle" opacity="0">J1</text>
</g>
<g class="stroked-text"><desc>J1</desc>
<path d="M237.0937 147.4278 L230.6002 147.4278 "/>
<path d="M230.6002 147.4278 L229.3015 146.9949 "/>
<path d="M229.3015 146.9949 L228.4356 146.1291 "/>
<path d="M228.4356 146.1291 L228.0027 144.8304 "/>
<path d="M228.0027 144.8304 L228.0027 143.9646 "/>
<path d="M228.0027 156.5187 L228.0027 151.3239 "/>
<path d="M228.0027 153.9213 L237.0937 153.9213 "/>
<path d="M237.0937 153.9213 L235.7950 153.0555 "/>
<path d="M235.7950 153.0555 L234.9292 152.1897 "/>
<path d="M234.9292 152.1897 L234.4963 151.3239 "/>
</g></g>
<g style="fill:#000084; fill-opacity:0.0;  stroke:#000084; stroke-width:0.5455; stroke-opacity:1;  stroke-linecap:round; stroke-linejoin:round;">
<text x="163.9556" y="27.1018" textLength="11.4719" font-size="4.8485" lengthAdjust="spacingAndGlyphs" text-anchor="middle" opacity="0">R14</text>
<g class="stroked-text"><desc>R14</desc>
<path d="M161.6180 26.9375 L160.4059 25.2059 "/>
<path d="M159.5401 26.9375 L159.5401 23.3011 "/>
<path d="M159.5401 23.3011 L160.9254 23.3011 "/>
<path d="M160.9254 23.3011 L161.2717 23.4743 "/>
<path d="M161.2717 23.4743 L161.4448 23.6474 "/>
<path d="M161.4448 23.6474 L161.6180 23.9938 "/>
<path d="M161.6180 23.9938 L161.6180 24.5132 "/>
<path d="M161.6180 24.5132 L161.4448 24.8596 "/>
<path d="M161.4448 24.8596 L161.2717 25.0327 "/>
<path d="M161.2717 25.0327 L160.9254 25.2059 "/>
<path d="M160.9254 25.2059 L159.5401 25.2059 "/>
<path d="M165.0812 26.9375 L163.0033 26.9375 "/>
<path d="M164.0422 26.9375 L164.0422 23.3011 "/>
<path d="M164.0422 23.3011 L163.6959 23.8206 "/>
<path d="M163.6959 23.8206 L163.3496 24.1669 "/>
<path d="M163.3496 24.1669 L163.0033 24.3401 "/>
<path d="M168.1981 24.5132 L168.1981 26.9375 "/>
<path d="M167.3323 23.1280 L166.4665 25.7254 "/>
<path d="M166.4665 25.7254 L168.7176 25.7254 "/>
</g><g transform="rotate(90.000000 148.5302 167.9854)">
<text x="148.5302" y="169.8036" textLength="8.1818" font-size="4.8485" lengthAdjust="spacingAndGlyphs" text-anchor="middle" opacity="0">U1</text>
</g>
<g class="stroked-text"><desc>U1</desc>
<path d="M150.5127 165.2149 L147.5689 165.2149 "/>
<path d="M147.5689 165.2149 L147.2226 165.3880 "/>
<path d="M147.2226 165.3880 L147.0495 165.5612 "/>
<path d="M147.0495 165.5612 L146.8763 165.9075 "/>
<path d="M146.8763 165.9075 L146.8763 166.6001 "/>
<path d="M146.8763 166.6001 L147.0495 166.9465 "/>
<path d="M147.0495 166.9465 L147.2226 167.1196 "/>
<path d="M147.2226 167.1196 L147.5689 167.2928 "/>
<path d="M147.5689 167.2928 L150.5127 167.2928 "/>
<path d="M146.8763 170.9291 L146.8763 168.8512 "/>
<path d="M146.8763 169.8902 L150.5127 169.8902 "/>
<path d="M150.5127 169.8902 L149.9932 169.5439 "/>
<path d="M149.9932 169.5439 L149.6469 169.1975 "/>
<path d="M149.6469 169.1975 L149.4737 168.8512 "/>
</g><g transform="rotate(90.000000 187.0920 59.3472)">
<text x="187.0920" y="61.1654" textLength="11.4719" font-size="4.8485" lengthAdjust="spacingAndGlyphs" text-anchor="middle" opacity="0">R13</text>
</g>
<g class="stroked-text"><desc>R13</desc>
<path d="M185.4381 57.0096 L187.1697 55.7975 "/>
<path d="M185.4381 54.9317 L189.0745 54.9317 "/>
<path d="M189.0745 54.9317 L189.0745 56.3169 "/>
<path d="M189.0745 56.3169 L188.9013 56.6633 "/>
<path d="M188.9013 56.6633 L188.7282 56.8364 "/>
<path d="M188.7282 56.8364 L188.3818 57.0096 "/>
<path d="M188.3818 57.0096 L187.8624 57.0096 "/>
<path d="M187.8624 57.0096 L187.5160 56.8364 "/>
<path d="M187.5160 56.8364 L187.3429 56.6633 "/>
<path d="M187.3429 56.6633 L187.1697 56.3169 "/>
<path d="M187.1697 56.3169 L187.1697 54.9317 "/>
<path d="M185.4381 60.4728 L185.4381 58.3949 "/>
<path d="M185.4381 59.4338 L189.0745 59.4338 "/>
<path d="M189.0745 59.4338 L188.5550 59.0875 "/>
<path d="M188.5550 59.0875 L188.2087 58.7412 "/>
<path d="M188.2087 58.7412 L188.0355 58.3949 "/>
<path d="M189.0745 61.6849 L189.0745 63.9360 "/>
<path d="M189.0745 63.9360 L187.6892 62.7239 "/>
<path d="M187.6892 62.7239 L187.6892 63.2433 "/>
<path d="M187.6892 63.2433 L187.5160 63.5897 "/>
<path d="M187.5160 63.5897 L187.3429 63.7628 "/>
<path d="M187.3429 63.7628 L186.9966 63.9360 "/>
<path d="M186.9966 63.9360 L186.1308 63.9360 "/>
<path d="M186.1308 63.9360 L185.7844 63.7628 "/>
<path d="M185.7844 63.7628 L185.6113 63.5897 "/>
<path d="M185.6113 63.5897 L185.4381 63.2433 "/>
<path d="M185.4381 63.2433 L185.4381 62.2044 "/>
<path d="M185.4381 62.2044 L185.6113 61.8581 "/>
<path d="M185.6113 61.8581 L185.7844 61.6849 "/>
</g><g transform="rotate(90.000000 173.0066 145.3563)">
<text x="173.0066" y="147.1745" textLength="8.0087" font-size="4.8485" lengthAdjust="spacingAndGlyphs" text-anchor="middle" opacity="0">R1</text>
</g>
<g class="stroked-text"><desc>R1</desc>
<path d="M171.3527 144.7503 L173.0843 143.5381 "/>
<path d="M171.3527 142.6723 L174.9890 142.6723 "/>
<path d="M174.9890 142.6723 L174.9890 144.0576 "/>
<path d="M174.9890 144.0576 L174.8159 144.4039 "/>
<path d="M174.8159 144.4039 L174.6427 144.5771 "/>
<path d="M174.6427 144.5771 L174.2964 144.7503 "/>
<path d="M174.2964 144.7503 L173.7769 144.7503 "/>
<path d="M173.7769 144.7503 L173.4306 144.5771 "/>
<path d="M173.4306 144.5771 L173.2574 144.4039 "/>
<path d="M173.2574 144.4039 L173.0843 144.0576 "/>
<path d="M173.0843 144.0576 L173.0843 142.6723 "/>
<path d="M171.3527 148.2135 L171.3527 146.1355 "/>
<path d="M171.3527 147.1745 L174.9890 147.1745 "/>
<path d="M174.9890 147.1745 L174.4696 146.8282 "/>
<path d="M174.4696 146.8282 L174.1232 146.4819 "/>
<path d="M174.1232 146.4819 L173.9501 146.1355 "/>
</g><g transform="rotate(90.000000 115.7411 151.0091)">
<text x="115.7411" y="152.8272" textLength="8.0087" font-size="4.8485" lengthAdjust="spacingAndGlyphs" text-anchor="middle" opacity="0">R6</text>
</g>
<g class="stroked-text"><desc>R6</desc>
<path d="M114.0872 150.4030 L115.8188 149.1909 "/>
<path d="M114.0872 148.3251 L117.7236 148.3251 "/>
<path d="M117.7236 148.3251 L117.7236 149.7104 "/>
<path d="M117.7236 149.7104 L117.5504 150.0567 "/>
<path d="M117.5504 150.0567 L117.3773 150.2298 "/>
<path d="M117.3773 150.2298 L117.0309 150.4030 "/>
<path d="M117.0309 150.4030 L116.5115 150.4030 "/>
<path d="M116.5115 150.4030 L116.1651 150.2298 "/>
<path d="M116.1651 150.2298 L115.9920 150.0567 "/>
<path d="M115.9920 150.0567 L115.8188 149.7104 "/>
<path d="M115.8188 149.7104 L115.8188 148.3251 "/>
<path d="M117.7236 153.5199 L117.7236 152.8272 "/>
<path d="M117.7236 152.8272 L117.5504 152.4809 "/>
<path d="M117.5504 152.4809 L117.3773 152.3078 "/>
<path d="M117.3773 152.3078 L116.8578 151.9614 "/>
<path d="M116.8578 151.9614 L116.1651 151.7883 "/>
<path d="M116.1651 151.7883 L114.7799 151.7883 "/>
<path d="M114.7799 151.7883 L114.4335 151.9614 "/>
<path d="M114.4335 151.9614 L114.2604 152.1346 "/>
<path d="M114.2604 152.1346 L114.0872 152.4809 "/>
<path d="M114.0872 152.4809 L114.0872 153.1736 "/>
<path d="M114.0872 153.1736 L114.2604 153.5199 "/>
<path d="M114.2604 153.5199 L114.4335 153.6930 "/>
<path d="M114.4335 153.6930 L114.7799 153.8662 "/>
<path d="M114.7799 153.8662 L115.6457 153.8662 "/>
<path d="M115.6457 153.8662 L115.9920 153.6930 "/>
<path d="M115.9920 153.6930 L116.1651 153.5199 "/>
<path d="M116.1651 153.5199 L116.3383 153.1736 "/>
<path d="M116.3383 153.1736 L116.3383 152.4809 "/>
<path d="M116.3383 152.4809 L116.1651 152.1346 "/>
<path d="M116.1651 152.1346 L115.9920 151.9614 "/>
<path d="M115.9920 151.9614 L115.6457 151.7883 "/>
</g><g transform="rotate(90.000000 183.6284 107.4872)">
<text x="183.6284" y="109.3054" textLength="8.0087" font-size="4.8485" lengthAdjust="spacingAndGlyphs" text-anchor="middle" opacity="0">R2</text>
</g>
<g class="stroked-text"><desc>R2</desc>
<path d="M181.9745 106.8812 L183.7061 105.6691 "/>
<path d="M181.9745 104.8033 L185.6109 104.8033 "/>
<path d="M185.6109 104.8033 L185.6109 106.1885 "/>
<path d="M185.6109 106.1885 L185.4377 106.5349 "/>
<path d="M185.4377 106.5349 L185.2645 106.7080 "/>
<path d="M185.2645 106.7080 L184.9182 106.8812 "/>
<path d="M184.9182 106.8812 L184.3987 106.8812 "/>
<path d="M184.3987 106.8812 L184.0524 106.7080 "/>
<path d="M184.0524 106.7080 L183.8793 106.5349 "/>
<path d="M183.8793 106.5349 L183.7061 106.1885 "/>
<path d="M183.7061 106.1885 L183.7061 104.8033 "/>
<path d="M185.2645 108.2665 L185.4377 108.4396 "/>
<path d="M185.4377 108.4396 L185.6109 108.7859 "/>
<path d="M185.6109 108.7859 L185.6109 109.6517 "/>
<path d="M185.6109 109.6517 L185.4377 109.9981 "/>
<path d="M185.4377 109.9981 L185.2645 110.1712 "/>
<path d="M185.2645 110.1712 L184.9182 110.3444 "/>
<path d="M184.9182 110.3444 L184.5719 110.3444 "/>
<path d="M184.5719 110.3444 L184.0524 110.1712 "/>
<path d="M184.0524 110.1712 L181.9745 108.0933 "/>
<path d="M181.9745 108.0933 L181.9745 110.3444 "/>
</g><text x="133.0466" y="48.5763" textLength="8.0087" font-size="4.8485" lengthAdjust="spacingAndGlyphs" text-anchor="middle" opacity="0">R9</text>
<g class="stroked-text"><desc>R9</desc>
<path d="M132.4405 48.4120 L131.2284 46.6804 "/>
<path d="M130.3626 48.4120 L130.3626 44.7757 "/>
<path d="M130.3626 44.7757 L131.7479 44.7757 "/>
<path d="M131.7479 44.7757 L132.0942 44.9488 "/>
<path d="M132.0942 44.9488 L132.2673 45.1220 "/>
<path d="M132.2673 45.1220 L132.4405 45.4683 "/>
<path d="M132.4405 45.4683 L132.4405 45.9878 "/>
<path d="M132.4405 45.9878 L132.2673 46.3341 "/>
<path d="M132.2673 46.3341 L132.0942 46.5073 "/>
<path d="M132.0942 46.5073 L131.7479 46.6804 "/>
<path d="M131.7479 46.6804 L130.3626 46.6804 "/>
<path d="M134.1721 48.4120 L134.8647 48.4120 "/>
<path d="M134.8647 48.4120 L135.2111 48.2389 "/>
<path d="M135.2111 48.2389 L135.3842 48.0657 "/>
<path d="M135.3842 48.0657 L135.7305 47.5462 "/>
<path d="M135.7305 47.5462 L135.9037 46.8536 "/>
<path d="M135.9037 46.8536 L135.9037 45.4683 "/>
<path d="M135.9037 45.4683 L135.7305 45.1220 "/>
<path d="M135.7305 45.1220 L135.5574 44.9488 "/>
<path d="M135.5574 44.9488 L135.2111 44.7757 "/>
<path d="M135.2111 44.7757 L134.5184 44.7757 "/>
<path d="M134.5184 44.7757 L134.1721 44.9488 "/>
<path d="M134.1721 44.9488 L133.9989 45.1220 "/>
<path d="M133.9989 45.1220 L133.8258 45.4683 "/>
<path d="M133.8258 45.4683 L133.8258 46.3341 "/>
<path d="M133.8258 46.3341 L133.9989 46.6804 "/>
<path d="M133.9989 46.6804 L134.1721 46.8536 "/>
<path d="M134.1721 46.8536 L134.5184 47.0267 "/>
<path d="M134.5184 47.0267 L135.2111 47.0267 "/>
<path d="M135.2111 47.0267 L135.5574 46.8536 "/>
<path d="M135.5574 46.8536 L135.7305 46.6804 "/>
<path d="M135.7305 46.6804 L135.9037 46.3341 "/>
</g><text x="189.4011" y="86.2145" textLength="8.0087" font-size="4.8485" lengthAdjust="spacingAndGlyphs" text-anchor="middle" opacity="0">R3</text>
<g class="stroked-text"><desc>R3</desc>
<path d="M188.7950 86.0502 L187.5829 84.3186 "/>
<path d="M186.7171 86.0502 L186.7171 82.4138 "/>
<path d="M186.7171 82.4138 L188.1024 82.4138 "/>
<path d="M188.1024 82.4138 L188.4487 82.5870 "/>
<path d="M188.4487 82.5870 L188.6219 82.7602 "/>
<path d="M188.6219 82.7602 L188.7950 83.1065 "/>
<path d="M188.7950 83.1065 L188.7950 83.6260 "/>
<path d="M188.7950 83.6260 L188.6219 83.9723 "/>
<path d="M188.6219 83.9723 L188.4487 84.1454 "/>
<path d="M188.4487 84.1454 L188.1024 84.3186 "/>
<path d="M188.1024 84.3186 L186.7171 84.3186 "/>
<path d="M190.0072 82.4138 L192.2582 82.4138 "/>
<path d="M192.2582 82.4138 L191.0461 83.7991 "/>
<path d="M191.0461 83.7991 L191.5656 83.7991 "/>
<path d="M191.5656 83.7991 L191.9119 83.9723 "/>
<path d="M191.9119 83.9723 L192.0851 84.1454 "/>
<path d="M192.0851 84.1454 L192.2582 84.4918 "/>
<path d="M192.2582 84.4918 L192.2582 85.3576 "/>
<path d="M192.2582 85.3576 L192.0851 85.7039 "/>
<path d="M192.0851 85.7039 L191.9119 85.8771 "/>
<path d="M191.9119 85.8771 L191.5656 86.0502 "/>
<path d="M191.5656 86.0502 L190.5266 86.0502 "/>
<path d="M190.5266 86.0502 L190.1803 85.8771 "/>
<path d="M190.1803 85.8771 L190.0072 85.7039 "/>
</g><g transform="rotate(90.000000 100.5011 121.2309)">
<text x="100.5011" y="123.0491" textLength="11.4719" font-size="4.8485" lengthAdjust="spacingAndGlyphs" text-anchor="middle" opacity="0">R17</text>
</g>
<g class="stroked-text"><desc>R17</desc>
<path d="M98.8472 118.8932 L100.5788 117.6811 "/>
<path d="M98.8472 116.8153 L102.4836 116.8153 "/>
<path d="M102.4836 116.8153 L102.4836 118.2006 "/>
<path d="M102.4836 118.2006 L102.3104 118.5469 "/>
<path d="M102.3104 118.5469 L102.1373 118.7200 "/>
<path d="M102.1373 118.7200 L101.7909 118.8932 "/>
<path d="M101.7909 118.8932 L101.2715 118.8932 "/>
<path d="M101.2715 118.8932 L100.9251 118.7200 "/>
<path d="M100.9251 118.7200 L100.7520 118.5469 "/>
<path d="M100.7520 118.5469 L100.5788 118.2006 "/>
<path d="M100.5788 118.2006 L100.5788 116.8153 "/>
<path d="M98.8472 122.3564 L98.8472 120.2785 "/>
<path d="M98.8472 121.3175 L102.4836 121.3175 "/>
<path d="M102.4836 121.3175 L101.9641 120.9711 "/>
<path d="M101.9641 120.9711 L101.6178 120.6248 "/>
<path d="M101.6178 120.6248 L101.4446 120.2785 "/>
<path d="M102.4836 123.5685 L102.4836 125.9928 "/>
<path d="M102.4836 125.9928 L98.8472 124.4343 "/>
</g></g>
<g style="fill:#000084; fill-opacity:0.0;  stroke:#000084; stroke-width:1.3636; stroke-opacity:1;  stroke-linecap:round; stroke-linejoin:round;">
<g transform="rotate(90.000000 64.8647 150.4581)">
<text x="64.8647" y="155.0036" textLength="17.8571" font-size="12.1212" lengthAdjust="spacingAndGlyphs" text-anchor="middle" opacity="0">J3</text>
</g>
<g class="stroked-text"><desc>J3</desc>
<path d="M69.8209 147.4278 L63.3274 147.4278 "/>
<path d="M63.3274 147.4278 L62.0287 146.9949 "/>
<path d="M62.0287 146.9949 L61.1629 146.1291 "/>
<path d="M61.1629 146.1291 L60.7300 144.8304 "/>
<path d="M60.7300 144.8304 L60.7300 143.9646 "/>
<path d="M69.8209 150.8910 L69.8209 156.5187 "/>
<path d="M69.8209 156.5187 L66.3577 153.4884 "/>
<path d="M66.3577 153.4884 L66.3577 154.7871 "/>
<path d="M66.3577 154.7871 L65.9248 155.6529 "/>
<path d="M65.9248 155.6529 L65.4919 156.0858 "/>
<path d="M65.4919 156.0858 L64.6261 156.5187 "/>
<path d="M64.6261 156.5187 L62.4616 156.5187 "/>
<path d="M62.4616 156.5187 L61.5958 156.0858 "/>
<path d="M61.5958 156.0858 L61.1629 155.6529 "/>
<path d="M61.1629 155.6529 L60.7300 154.7871 "/>
<path d="M60.7300 154.7871 L60.7300 152.1897 "/>
<path d="M60.7300 152.1897 L61.1629 151.3239 "/>
<path d="M61.1629 151.3239 L61.5958 150.8910 "/>
</g><g transform="rotate(90.000000 232.1375 59.5491)">
<text x="232.1375" y="64.0945" textLength="17.8571" font-size="12.1212" lengthAdjust="spacingAndGlyphs" text-anchor="middle" opacity="0">J2</text>
</g>
<g class="stroked-text"><desc>J2</desc>
<path d="M237.0937 56.5187 L230.6002 56.5187 "/>
<path d="M230.6002 56.5187 L229.3015 56.0858 "/>
<path d="M229.3015 56.0858 L228.4356 55.2200 "/>
<path d="M228.4356 55.2200 L228.0027 53.9213 "/>
<path d="M228.0027 53.9213 L228.0027 53.0555 "/>
<path d="M236.2279 60.4149 L236.6608 60.8478 "/>
<path d="M236.6608 60.8478 L237.0937 61.7136 "/>
<path d="M237.0937 61.7136 L237.0937 63.8781 "/>
<path d="M237.0937 63.8781 L236.6608 64.7439 "/>
<path d="M236.6608 64.7439 L236.2279 65.1768 "/>
<path d="M236.2279 65.1768 L235.3621 65.6097 "/>
<path d="M235.3621 65.6097 L234.4963 65.6097 "/>
<path d="M234.4963 65.6097 L233.1976 65.1768 "/>
<path d="M233.1976 65.1768 L228.0027 59.9820 "/>
<path d="M228.0027 59.9820 L228.0027 65.6097 "/>
</g></g>
<g style="fill:#000084; fill-opacity:0.0;  stroke:#000084; stroke-width:0.9545; stroke-opacity:1;  stroke-linecap:round; stroke-linejoin:round;">
<g transform="rotate(90.000000 148.5011 92.7091)">
<text x="148.5011" y="95.8909" textLength="14.3182" font-size="8.4848" lengthAdjust="spacingAndGlyphs" text-anchor="middle" opacity="0">U2</text>
</g>
<g class="stroked-text"><desc>U2</desc>
<path d="M151.9704 87.8606 L146.8189 87.8606 "/>
<path d="M146.8189 87.8606 L146.2129 88.1636 "/>
<path d="M146.2129 88.1636 L145.9098 88.4666 "/>
<path d="M145.9098 88.4666 L145.6068 89.0727 "/>
<path d="M145.6068 89.0727 L145.6068 90.2848 "/>
<path d="M145.6068 90.2848 L145.9098 90.8909 "/>
<path d="M145.9098 90.8909 L146.2129 91.1939 "/>
<path d="M146.2129 91.1939 L146.8189 91.4969 "/>
<path d="M146.8189 91.4969 L151.9704 91.4969 "/>
<path d="M151.3644 94.2242 L151.6674 94.5272 "/>
<path d="M151.6674 94.5272 L151.9704 95.1333 "/>
<path d="M151.9704 95.1333 L151.9704 96.6484 "/>
<path d="M151.9704 96.6484 L151.6674 97.2545 "/>
<path d="M151.6674 97.2545 L151.3644 97.5575 "/>
<path d="M151.3644 97.5575 L150.7583 97.8606 "/>
<path d="M150.7583 97.8606 L150.1523 97.8606 "/>
<path d="M150.1523 97.8606 L149.2432 97.5575 "/>
<path d="M149.2432 97.5575 L145.6068 93.9212 "/>
<path d="M145.6068 93.9212 L145.6068 97.8606 "/>
</g></g>
<g style="fill:#000084; fill-opacity:0.0;  stroke:#000084; stroke-width:0.7273; stroke-opacity:1;  stroke-linecap:round; stroke-linejoin:round;">
<g transform="rotate(90.000000 178.0866 177.6836)">
<text x="178.0866" y="179.9563" textLength="10.1472" font-size="6.0606" lengthAdjust="spacingAndGlyphs" text-anchor="middle" opacity="0">C1</text>
</g>
<g class="stroked-text"><desc>C1</desc>
<path d="M176.4545 176.9260 L176.2380 176.7096 "/>
<path d="M176.2380 176.7096 L176.0216 176.0602 "/>
<path d="M176.0216 176.0602 L176.0216 175.6273 "/>
<path d="M176.0216 175.6273 L176.2380 174.9780 "/>
<path d="M176.2380 174.9780 L176.6709 174.5451 "/>
<path d="M176.6709 174.5451 L177.1038 174.3286 "/>
<path d="M177.1038 174.3286 L177.9696 174.1122 "/>
<path d="M177.9696 174.1122 L178.6190 174.1122 "/>
<path d="M178.6190 174.1122 L179.4848 174.3286 "/>
<path d="M179.4848 174.3286 L179.9177 174.5451 "/>
<path d="M179.9177 174.5451 L180.3506 174.9780 "/>
<path d="M180.3506 174.9780 L180.5670 175.6273 "/>
<path d="M180.5670 175.6273 L180.5670 176.0602 "/>
<path d="M180.5670 176.0602 L180.3506 176.7096 "/>
<path d="M180.3506 176.7096 L180.1341 176.9260 "/>
<path d="M176.0216 181.2550 L176.0216 178.6576 "/>
<path d="M176.0216 179.9563 L180.5670 179.9563 "/>
<path d="M180.5670 179.9563 L179.9177 179.5234 "/>
<path d="M179.9177 179.5234 L179.4848 179.0905 "/>
<path d="M179.4848 179.0905 L179.2683 178.6576 "/>
</g></g>
<g style="fill:#000084; fill-opacity:0.0;  stroke:#000084; stroke-width:0.5455; stroke-opacity:1;  stroke-linecap:round; stroke-linejoin:round;">
<g transform="rotate(90.000000 109.7375 58.9963)">
<text x="109.7375" y="60.8145" textLength="11.4719" font-size="4.8485" lengthAdjust="spacingAndGlyphs" text-anchor="middle" opacity="0">R10</text>
</g>
<g class="stroked-text"><desc>R10</desc>
<path d="M108.0836 56.6587 L109.8152 55.4465 "/>
<path d="M108.0836 54.5807 L111.7199 54.5807 "/>
<path d="M111.7199 54.5807 L111.7199 55.9660 "/>
<path d="M111.7199 55.9660 L111.5468 56.3123 "/>
<path d="M111.5468 56.3123 L111.3736 56.4855 "/>
<path d="M111.3736 56.4855 L111.0273 56.6587 "/>
<path d="M111.0273 56.6587 L110.5078 56.6587 "/>
<path d="M110.5078 56.6587 L110.1615 56.4855 "/>
<path d="M110.1615 56.4855 L109.9883 56.3123 "/>
<path d="M109.9883 56.3123 L109.8152 55.9660 "/>
<path d="M109.8152 55.9660 L109.8152 54.5807 "/>
<path d="M108.0836 60.1219 L108.0836 58.0439 "/>
<path d="M108.0836 59.0829 L111.7199 59.0829 "/>
<path d="M111.7199 59.0829 L111.2005 58.7366 "/>
<path d="M111.2005 58.7366 L110.8541 58.3903 "/>
<path d="M110.8541 58.3903 L110.6810 58.0439 "/>
<path d="M111.7199 62.3729 L111.7199 62.7193 "/>
<path d="M111.7199 62.7193 L111.5468 63.0656 "/>
<path d="M111.5468 63.0656 L111.3736 63.2387 "/>
<path d="M111.3736 63.2387 L111.0273 63.4119 "/>
<path d="M111.0273 63.4119 L110.3347 63.5851 "/>
<path d="M110.3347 63.5851 L109.4689 63.5851 "/>
<path d="M109.4689 63.5851 L108.7762 63.4119 "/>
<path d="M108.7762 63.4119 L108.4299 63.2387 "/>
<path d="M108.4299 63.2387 L108.2567 63.0656 "/>
<path d="M108.2567 63.0656 L108.0836 62.7193 "/>
<path d="M108.0836 62.7193 L108.0836 62.3729 "/>
<path d="M108.0836 62.3729 L108.2567 62.0266 "/>
<path d="M108.2567 62.0266 L108.4299 61.8535 "/>
<path d="M108.4299 61.8535 L108.7762 61.6803 "/>
<path d="M108.7762 61.6803 L109.4689 61.5071 "/>
<path d="M109.4689 61.5071 L110.3347 61.5071 "/>
<path d="M110.3347 61.5071 L111.0273 61.6803 "/>
<path d="M111.0273 61.6803 L111.3736 61.8535 "/>
<path d="M111.3736 61.8535 L111.5468 62.0266 "/>
<path d="M111.5468 62.0266 L111.7199 62.3729 "/>
</g><g transform="rotate(90.000000 113.2011 88.4400)">
<text x="113.2011" y="90.2581" textLength="8.0087" font-size="4.8485" lengthAdjust="spacingAndGlyphs" text-anchor="middle" opacity="0">C4</text>
</g>
<g class="stroked-text"><desc>C4</desc>
<path d="M111.8935 87.8339 L111.7204 87.6607 "/>
<path d="M111.7204 87.6607 L111.5472 87.1413 "/>
<path d="M111.5472 87.1413 L111.5472 86.7949 "/>
<path d="M111.5472 86.7949 L111.7204 86.2755 "/>
<path d="M111.7204 86.2755 L112.0667 85.9291 "/>
<path d="M112.0667 85.9291 L112.4130 85.7560 "/>
<path d="M112.4130 85.7560 L113.1057 85.5828 "/>
<path d="M113.1057 85.5828 L113.6251 85.5828 "/>
<path d="M113.6251 85.5828 L114.3178 85.7560 "/>
<path d="M114.3178 85.7560 L114.6641 85.9291 "/>
<path d="M114.6641 85.9291 L115.0104 86.2755 "/>
<path d="M115.0104 86.2755 L115.1836 86.7949 "/>
<path d="M115.1836 86.7949 L115.1836 87.1413 "/>
<path d="M115.1836 87.1413 L115.0104 87.6607 "/>
<path d="M115.0104 87.6607 L114.8373 87.8339 "/>
<path d="M113.9715 90.9508 L111.5472 90.9508 "/>
<path d="M115.3567 90.0850 L112.7593 89.2192 "/>
<path d="M112.7593 89.2192 L112.7593 91.4703 "/>
</g></g>
<g style="fill:#000084; fill-opacity:0.0;  stroke:#000084; stroke-width:0.9091; stroke-opacity:1;  stroke-linecap:round; stroke-linejoin:round;">
<path d="M125.7738 29.0336 L125.7738 21.5336 "/>
<path d="M125.7738 21.5336 L140.3193 21.5336 "/>
<path d="M140.3193 29.0336 L125.7738 29.0336 "/>
<path d="M140.3193 21.5336 L140.3193 29.0336 "/>
<path d="M185.7738 138.6400 L185.7738 153.1854 "/>
<path d="M190.3193 138.6400 L185.7738 138.6400 "/>
<path d="M193.0466 141.3672 L190.3193 138.6400 "/>
<path d="M185.7738 153.1854 L193.0466 153.1854 "/>
<path d="M193.0466 153.1854 L193.0466 141.3672 "/>
<path d="M122.0902 187.4400 L122.0902 194.7127 "/>
<path d="M122.0902 194.7127 L107.5447 194.7127 "/>
<path d="M107.5447 187.4400 L122.0902 187.4400 "/>
<path d="M107.5447 194.7127 L107.5447 187.4400 "/>
<path d="M191.0829 167.8491 L199.2647 167.8491 "/>
<path d="M199.2647 167.8491 L199.2647 179.6672 "/>
<path d="M193.3556 171.9400 L196.9920 171.9400 "/>
<path d="M195.1738 171.9400 L195.1738 170.5763 "/>
<path d="M195.1738 171.9400 L193.3556 174.6672 "/>
<path d="M193.3556 174.6672 L196.9920 174.6672 "/>
<path d="M195.1738 174.6672 L195.1738 176.0309 "/>
<path d="M196.9920 174.6672 L195.1738 171.9400 "/>
<path d="M191.0829 179.6672 L191.0829 167.8491 "/>
<path d="M199.2647 179.6672 L191.0829 179.6672 "/>
<path d="M96.7511 143.5145 L104.2511 143.5145 "/>
<path d="M104.2511 143.5145 L104.2511 158.0600 "/>
<path d="M96.7511 158.0600 L96.7511 143.5145 "/>
<path d="M104.2511 158.0600 L96.7511 158.0600 "/>
<path d="M119.2602 128.5036 L111.7602 128.5036 "/>
<path d="M111.7602 128.5036 L111.7602 113.9581 "/>
<path d="M119.2602 113.9581 L119.2602 128.5036 "/>
<path d="M111.7602 113.9581 L119.2602 113.9581 "/>
<path d="M122.0902 172.3309 L122.0902 179.6036 "/>
<path d="M122.0902 179.6036 L107.5447 179.6036 "/>
<path d="M107.5447 172.3309 L122.0902 172.3309 "/>
<path d="M107.5447 179.6036 L107.5447 172.3309 "/>
<path d="M183.3420 22.9800 L190.8420 22.9800 "/>
<path d="M190.8420 22.9800 L190.8420 37.5254 "/>
<path d="M183.3420 37.5254 L183.3420 22.9800 "/>
<path d="M190.8420 37.5254 L183.3420 37.5254 "/>
<path d="M171.2284 43.0081 L171.2284 50.5081 "/>
<path d="M171.2284 50.5081 L156.6829 50.5081 "/>
<path d="M156.6829 43.0081 L171.2284 43.0081 "/>
<path d="M156.6829 50.5081 L156.6829 43.0081 "/>
<path d="M42.5920 22.0491 L42.5920 97.0491 "/>
<path d="M79.4102 22.0491 L42.5920 22.0491 "/>
<path d="M79.4102 22.0491 L79.4102 97.0491 "/>
<path d="M79.4102 37.9581 L72.9819 42.5036 "/>
<path d="M72.9819 42.5036 L79.4102 47.0491 "/>
<path d="M79.4102 97.0491 L42.5920 97.0491 "/>
<path d="M105.9875 23.0909 L113.4875 23.0909 "/>
<path d="M113.4875 23.0909 L113.4875 37.6363 "/>
<path d="M105.9875 37.6363 L105.9875 23.0909 "/>
<path d="M113.4875 37.6363 L105.9875 37.6363 "/>
<path d="M254.4102 187.9581 L254.4102 112.9581 "/>
<path d="M217.5920 187.9581 L254.4102 187.9581 "/>
<path d="M217.5920 187.9581 L217.5920 112.9581 "/>
<path d="M217.5920 172.0491 L224.0203 167.5036 "/>
<path d="M224.0203 167.5036 L217.5920 162.9581 "/>
<path d="M217.5920 112.9581 L254.4102 112.9581 "/>
<path d="M171.2284 21.5336 L171.2284 29.0336 "/>
<path d="M171.2284 29.0336 L156.6829 29.0336 "/>
<path d="M156.6829 21.5336 L171.2284 21.5336 "/>
<path d="M156.6829 29.0336 L156.6829 21.5336 "/>
<path d="M161.7120 175.2581 L138.9847 175.2581 "/>
<path d="M138.9847 175.2581 L135.3484 171.6218 "/>
<path d="M135.3484 171.6218 L135.3484 160.7127 "/>
<path d="M161.7120 160.7127 L161.7120 175.2581 "/>
<path d="M135.3484 160.7127 L161.7120 160.7127 "/>
<path d="M190.8420 66.6200 L183.3420 66.6200 "/>
<path d="M183.3420 66.6200 L183.3420 52.0745 "/>
<path d="M190.8420 52.0745 L190.8420 66.6200 "/>
<path d="M183.3420 52.0745 L190.8420 52.0745 "/>
<path d="M176.7566 152.6291 L169.2566 152.6291 "/>
<path d="M169.2566 152.6291 L169.2566 138.0836 "/>
<path d="M176.7566 138.0836 L176.7566 152.6291 "/>
<path d="M169.2566 138.0836 L176.7566 138.0836 "/>
<path d="M111.9911 143.7363 L119.4911 143.7363 "/>
<path d="M119.4911 143.7363 L119.4911 158.2818 "/>
<path d="M111.9911 158.2818 L111.9911 143.7363 "/>
<path d="M119.4911 158.2818 L111.9911 158.2818 "/>
<path d="M179.8784 100.2145 L187.3784 100.2145 "/>
<path d="M187.3784 100.2145 L187.3784 114.7600 "/>
<path d="M179.8784 114.7600 L179.8784 100.2145 "/>
<path d="M187.3784 114.7600 L179.8784 114.7600 "/>
<path d="M125.7738 50.5081 L125.7738 43.0081 "/>
<path d="M125.7738 43.0081 L140.3193 43.0081 "/>
<path d="M140.3193 50.5081 L125.7738 50.5081 "/>
<path d="M140.3193 43.0081 L140.3193 50.5081 "/>
<path d="M182.1284 88.1463 L182.1284 80.6463 "/>
<path d="M182.1284 80.6463 L196.6738 80.6463 "/>
<path d="M196.6738 88.1463 L182.1284 88.1463 "/>
<path d="M196.6738 80.6463 L196.6738 88.1463 "/>
<path d="M104.2511 128.5036 L96.7511 128.5036 "/>
<path d="M96.7511 128.5036 L96.7511 113.9581 "/>
<path d="M104.2511 113.9581 L104.2511 128.5036 "/>
<path d="M96.7511 113.9581 L104.2511 113.9581 "/>
<path d="M42.5920 112.9581 L42.5920 187.9581 "/>
<path d="M79.4102 112.9581 L42.5920 112.9581 "/>
<path d="M79.4102 112.9581 L79.4102 187.9581 "/>
<path d="M79.4102 128.8672 L72.9819 133.4127 "/>
<path d="M72.9819 133.4127 L79.4102 137.9581 "/>
<path d="M79.4102 187.9581 L42.5920 187.9581 "/>
<path d="M254.4102 97.0491 L254.4102 22.0491 "/>
<path d="M217.5920 97.0491 L254.4102 97.0491 "/>
<path d="M217.5920 97.0491 L217.5920 22.0491 "/>
<path d="M217.5920 81.1400 L224.0203 76.5945 "/>
<path d="M224.0203 76.5945 L217.5920 72.0491 "/>
<path d="M217.5920 22.0491 L254.4102 22.0491 "/>
<path d="M125.7738 79.0727 L162.1375 79.0727 "/>
<path d="M162.1375 79.0727 L171.2284 88.1636 "/>
<path d="M171.2284 88.1636 L171.2284 106.3454 "/>
<path d="M125.7738 106.3454 L125.7738 79.0727 "/>
<path d="M171.2284 106.3454 L125.7738 106.3454 "/>
<path d="M172.4047 168.5927 L183.7684 168.5927 "/>
<path d="M183.7684 168.5927 L183.7684 186.7745 "/>
<path d="M172.4047 186.7745 L172.4047 168.5927 "/>
<path d="M183.7684 186.7745 L172.4047 186.7745 "/>
<path d="M113.4875 66.2691 L105.9875 66.2691 "/>
<path d="M105.9875 66.2691 L105.9875 51.7236 "/>
<path d="M113.4875 51.7236 L113.4875 66.2691 "/>
<path d="M105.9875 51.7236 L113.4875 51.7236 "/>
<path d="M109.5647 81.1672 L116.8375 81.1672 "/>
<path d="M116.8375 81.1672 L116.8375 95.7127 "/>
<path d="M109.5647 95.7127 L109.5647 81.1672 "/>
<path d="M116.8375 95.7127 L109.5647 95.7127 "/>
<g>
</g>
<g>
</g>
<g>
</g>
<g>
</g>
<g>
</g>
<g>
</g>
<g>
</g>
<g>
</g>
<g>
</g>
<g>
</g>
<g>
</g>
<g>
</g>
<g>
</g>
<g>
</g>
<g>
</g>
<g>
</g>
<g>
</g>
<g>
</g>
<g>
</g>
<g>
</g>
<g>
</g>
<g>
</g>
<g>
</g>
<g>
</g>
<g>
</g>
<g>
</g>
<g>
</g>
<g>
</g>
<g>
</g>
<g>
</g>
<g>
</g>
<g>
</g>
<g>
</g>
<g>
</g>
<g>
</g>
<g>
</g>
<g>
</g>
<g>
</g>
<g>
</g>
<g>
</g>
<g>
</g>
</g> 
<svg:g><svg:g><svg:title>SVG Image created as TFI2CADT01-Edge_Cuts.svg date 2024/02/13 12:54:07 </svg:title>
  <svg:desc>Image generated by PCBNEW </svg:desc>
<svg:g style="fill:#C2C200; fill-opacity:1.0000;stroke:#C2C200; stroke-opacity:1.0000; stroke-linecap:round; stroke-linejoin:round;" transform="translate(0 0) scale(1 1)">
</svg:g>
<svg:g style="fill:#C2C200; fill-opacity:0.0;  stroke:#C2C200; stroke-width:0.0000; stroke-opacity:1;  stroke-linecap:round; stroke-linejoin:round;">
</svg:g>
<svg:g style="fill:#C2C200; fill-opacity:0.0;  stroke:#C2C200; stroke-width:0.9091; stroke-opacity:1;  stroke-linecap:round; stroke-linejoin:round;">
<svg:path d="M262.1375 0.4581 L34.8647 0.4581 "/>
<svg:path d="M34.8647 0.4581 L34.8647 209.5491 "/>
<svg:path d="M262.1375 0.4581 L262.1375 209.5491 "/>
<svg:path d="M262.1375 209.5491 L34.8647 209.5491 "/>
<svg:g>
</svg:g>
<svg:g>
</svg:g>
<svg:g>
</svg:g>
<svg:g>
</svg:g>
<svg:g>
</svg:g>
<svg:g>
</svg:g>
<svg:g>
</svg:g>
<svg:g>
</svg:g>
<svg:g>
</svg:g>
<svg:g>
</svg:g>
<svg:g>
</svg:g>
<svg:g>
</svg:g>
<svg:g>
</svg:g>
<svg:g>
</svg:g>
<svg:g>
</svg:g>
<svg:g>
</svg:g>
<svg:g>
</svg:g>
<svg:g>
</svg:g>
<svg:g>
</svg:g>
<svg:g>
</svg:g>
<svg:g>
</svg:g>
<svg:g>
</svg:g>
<svg:g>
</svg:g>
<svg:g>
</svg:g>
<svg:g>
</svg:g>
<svg:g>
</svg:g>
<svg:g>
</svg:g>
<svg:g>
</svg:g>
<svg:g>
</svg:g>
<svg:g>
</svg:g>
<svg:g>
</svg:g>
<svg:g>
</svg:g>
<svg:g>
</svg:g>
<svg:g>
</svg:g>
<svg:g>
</svg:g>
<svg:g>
</svg:g>
<svg:g>
</svg:g>
<svg:g>
</svg:g>
<svg:g>
</svg:g>
<svg:g>
</svg:g>
<svg:g>
</svg:g>
</svg:g> 
</svg:g></svg:g></svg>
