%TF.GenerationSoftware,KiCad,Pcbnew,7.0.7-7.0.7~ubuntu23.04.1*%
%TF.CreationDate,2023-09-27T16:25:03+00:00*%
%TF.ProjectId,TFI2CADT01,54464932-4341-4445-9430-312e6b696361,rev?*%
%TF.SameCoordinates,PX7a53eb0PY6e37550*%
%TF.FileFunction,Paste,Bot*%
%TF.FilePolarity,Positive*%
%FSLAX46Y46*%
G04 Gerber Fmt 4.6, Leading zero omitted, Abs format (unit mm)*
G04 Created by KiCad (PCBNEW 7.0.7-7.0.7~ubuntu23.04.1) date 2023-09-27 16:25:03*
%MOMM*%
%LPD*%
G01*
G04 APERTURE LIST*
G04 Aperture macros list*
%AMRoundRect*
0 Rectangle with rounded corners*
0 $1 Rounding radius*
0 $2 $3 $4 $5 $6 $7 $8 $9 X,Y pos of 4 corners*
0 Add a 4 corners polygon primitive as box body*
4,1,4,$2,$3,$4,$5,$6,$7,$8,$9,$2,$3,0*
0 Add four circle primitives for the rounded corners*
1,1,$1+$1,$2,$3*
1,1,$1+$1,$4,$5*
1,1,$1+$1,$6,$7*
1,1,$1+$1,$8,$9*
0 Add four rect primitives between the rounded corners*
20,1,$1+$1,$2,$3,$4,$5,0*
20,1,$1+$1,$4,$5,$6,$7,0*
20,1,$1+$1,$6,$7,$8,$9,0*
20,1,$1+$1,$8,$9,$2,$3,0*%
G04 Aperture macros list end*
%ADD10RoundRect,0.200000X0.200000X0.275000X-0.200000X0.275000X-0.200000X-0.275000X0.200000X-0.275000X0*%
%ADD11RoundRect,0.218750X-0.256250X0.218750X-0.256250X-0.218750X0.256250X-0.218750X0.256250X0.218750X0*%
%ADD12RoundRect,0.225000X-0.225000X-0.250000X0.225000X-0.250000X0.225000X0.250000X-0.225000X0.250000X0*%
%ADD13R,0.700000X0.600000*%
%ADD14RoundRect,0.200000X-0.275000X0.200000X-0.275000X-0.200000X0.275000X-0.200000X0.275000X0.200000X0*%
%ADD15RoundRect,0.200000X0.275000X-0.200000X0.275000X0.200000X-0.275000X0.200000X-0.275000X-0.200000X0*%
%ADD16RoundRect,0.200000X-0.200000X-0.275000X0.200000X-0.275000X0.200000X0.275000X-0.200000X0.275000X0*%
%ADD17RoundRect,0.150000X-0.700000X0.150000X-0.700000X-0.150000X0.700000X-0.150000X0.700000X0.150000X0*%
%ADD18RoundRect,0.250000X-1.100000X0.250000X-1.100000X-0.250000X1.100000X-0.250000X1.100000X0.250000X0*%
%ADD19RoundRect,0.150000X0.700000X-0.150000X0.700000X0.150000X-0.700000X0.150000X-0.700000X-0.150000X0*%
%ADD20RoundRect,0.250000X1.100000X-0.250000X1.100000X0.250000X-1.100000X0.250000X-1.100000X-0.250000X0*%
%ADD21RoundRect,0.150000X0.150000X-0.512500X0.150000X0.512500X-0.150000X0.512500X-0.150000X-0.512500X0*%
%ADD22R,0.710000X0.670000*%
%ADD23R,0.250000X0.650000*%
%ADD24RoundRect,0.250000X-0.475000X0.250000X-0.475000X-0.250000X0.475000X-0.250000X0.475000X0.250000X0*%
%ADD25RoundRect,0.225000X-0.250000X0.225000X-0.250000X-0.225000X0.250000X-0.225000X0.250000X0.225000X0*%
G04 APERTURE END LIST*
D10*
%TO.C,R7*%
X15025000Y20269200D03*
X13375000Y20269200D03*
%TD*%
D11*
%TO.C,D1*%
X8000000Y7787500D03*
X8000000Y6212500D03*
%TD*%
D12*
%TO.C,C2*%
X15430200Y2032000D03*
X16980200Y2032000D03*
%TD*%
D13*
%TO.C,D2*%
X7366000Y4637000D03*
X7366000Y3237000D03*
%TD*%
D14*
%TO.C,R5*%
X17780000Y7288800D03*
X17780000Y5638800D03*
%TD*%
D15*
%TO.C,R16*%
X16129000Y8890000D03*
X16129000Y10540000D03*
%TD*%
D12*
%TO.C,C3*%
X15430200Y3694000D03*
X16980200Y3694000D03*
%TD*%
D14*
%TO.C,R15*%
X8255000Y20547600D03*
X8255000Y18897600D03*
%TD*%
D16*
%TO.C,R12*%
X9975000Y17907000D03*
X11625000Y17907000D03*
%TD*%
D17*
%TO.C,J5*%
X19850000Y18375000D03*
X19850000Y17125000D03*
X19850000Y15875000D03*
X19850000Y14625000D03*
D18*
X23050000Y20225000D03*
X23050000Y12775000D03*
%TD*%
D14*
%TO.C,R8*%
X16764000Y20535400D03*
X16764000Y18885400D03*
%TD*%
D19*
%TO.C,J1*%
X5150000Y4625000D03*
X5150000Y5875000D03*
X5150000Y7125000D03*
X5150000Y8375000D03*
D20*
X1950000Y2775000D03*
X1950000Y10225000D03*
%TD*%
D16*
%TO.C,R14*%
X9975000Y20269200D03*
X11625000Y20269200D03*
%TD*%
D21*
%TO.C,U1*%
X13446800Y3434500D03*
X12496800Y3434500D03*
X11546800Y3434500D03*
X11546800Y5709500D03*
X13446800Y5709500D03*
%TD*%
D15*
%TO.C,R13*%
X8255000Y15697200D03*
X8255000Y17347200D03*
%TD*%
%TO.C,R1*%
X9804400Y6236200D03*
X9804400Y7886200D03*
%TD*%
D14*
%TO.C,R6*%
X16103600Y7264400D03*
X16103600Y5614400D03*
%TD*%
%TO.C,R2*%
X8636000Y12051800D03*
X8636000Y10401800D03*
%TD*%
D10*
%TO.C,R9*%
X15025000Y17907000D03*
X13375000Y17907000D03*
%TD*%
%TO.C,R3*%
X8826000Y13766800D03*
X7176000Y13766800D03*
%TD*%
D15*
%TO.C,R17*%
X17780000Y8890000D03*
X17780000Y10540000D03*
%TD*%
D17*
%TO.C,J3*%
X19850000Y8375000D03*
X19850000Y7125000D03*
X19850000Y5875000D03*
X19850000Y4625000D03*
D18*
X23050000Y10225000D03*
X23050000Y2775000D03*
%TD*%
D19*
%TO.C,J2*%
X5150000Y14625000D03*
X5150000Y15875000D03*
X5150000Y17125000D03*
X5150000Y18375000D03*
D20*
X1950000Y12775000D03*
X1950000Y20225000D03*
%TD*%
D22*
%TO.C,U2*%
X14260000Y13267400D03*
X13380000Y13267400D03*
X12500000Y13267400D03*
X11620000Y13267400D03*
X10740000Y13267400D03*
X14260000Y12437400D03*
X13380000Y12437400D03*
X12500000Y12437400D03*
X11620000Y12437400D03*
X10740000Y12437400D03*
D23*
X10750000Y14277400D03*
X11250000Y14277400D03*
X11750000Y14277400D03*
X12250000Y14277400D03*
X12750000Y14277400D03*
X13250000Y14277400D03*
X13750000Y14277400D03*
X14250000Y14277400D03*
X14250000Y11427400D03*
X13750000Y11427400D03*
X13250000Y11427400D03*
X12750000Y11427400D03*
X12250000Y11427400D03*
X11750000Y11427400D03*
X11250000Y11427400D03*
X10750000Y11427400D03*
%TD*%
D24*
%TO.C,C1*%
X9245600Y4455200D03*
X9245600Y2555200D03*
%TD*%
D15*
%TO.C,R10*%
X16764000Y15735800D03*
X16764000Y17385800D03*
%TD*%
D25*
%TO.C,C4*%
X16383000Y14097000D03*
X16383000Y12547000D03*
%TD*%
M02*
