%TF.GenerationSoftware,KiCad,Pcbnew,9.0.1+1*%
%TF.CreationDate,2025-09-26T19:03:01+00:00*%
%TF.ProjectId,TFI2CADT01,54464932-4341-4445-9430-312e6b696361,rev?*%
%TF.SameCoordinates,PX7a53eb0PY6e37550*%
%TF.FileFunction,Copper,L1,Top*%
%TF.FilePolarity,Positive*%
%FSLAX46Y46*%
G04 Gerber Fmt 4.6, Leading zero omitted, Abs format (unit mm)*
G04 Created by KiCad (PCBNEW 9.0.1+1) date 2025-09-26 19:03:01*
%MOMM*%
%LPD*%
G01*
G04 APERTURE LIST*
G04 Aperture macros list*
%AMRoundRect*
0 Rectangle with rounded corners*
0 $1 Rounding radius*
0 $2 $3 $4 $5 $6 $7 $8 $9 X,Y pos of 4 corners*
0 Add a 4 corners polygon primitive as box body*
4,1,4,$2,$3,$4,$5,$6,$7,$8,$9,$2,$3,0*
0 Add four circle primitives for the rounded corners*
1,1,$1+$1,$2,$3*
1,1,$1+$1,$4,$5*
1,1,$1+$1,$6,$7*
1,1,$1+$1,$8,$9*
0 Add four rect primitives between the rounded corners*
20,1,$1+$1,$2,$3,$4,$5,0*
20,1,$1+$1,$4,$5,$6,$7,0*
20,1,$1+$1,$6,$7,$8,$9,0*
20,1,$1+$1,$8,$9,$2,$3,0*%
%AMFreePoly0*
4,1,23,0.500000,-0.750000,0.000000,-0.750000,0.000000,-0.745722,-0.065263,-0.745722,-0.191342,-0.711940,-0.304381,-0.646677,-0.396677,-0.554381,-0.461940,-0.441342,-0.495722,-0.315263,-0.495722,-0.250000,-0.500000,-0.250000,-0.500000,0.250000,-0.495722,0.250000,-0.495722,0.315263,-0.461940,0.441342,-0.396677,0.554381,-0.304381,0.646677,-0.191342,0.711940,-0.065263,0.745722,0.000000,0.745722,
0.000000,0.750000,0.500000,0.750000,0.500000,-0.750000,0.500000,-0.750000,$1*%
%AMFreePoly1*
4,1,23,0.000000,0.745722,0.065263,0.745722,0.191342,0.711940,0.304381,0.646677,0.396677,0.554381,0.461940,0.441342,0.495722,0.315263,0.495722,0.250000,0.500000,0.250000,0.500000,-0.250000,0.495722,-0.250000,0.495722,-0.315263,0.461940,-0.441342,0.396677,-0.554381,0.304381,-0.646677,0.191342,-0.711940,0.065263,-0.745722,0.000000,-0.745722,0.000000,-0.750000,-0.500000,-0.750000,
-0.500000,0.750000,0.000000,0.750000,0.000000,0.745722,0.000000,0.745722,$1*%
G04 Aperture macros list end*
%ADD10C,0.170000*%
%TA.AperFunction,NonConductor*%
%ADD11C,0.170000*%
%TD*%
%ADD12C,0.150000*%
%TA.AperFunction,NonConductor*%
%ADD13C,0.150000*%
%TD*%
%TA.AperFunction,SMDPad,CuDef*%
%ADD14FreePoly0,270.000000*%
%TD*%
%TA.AperFunction,SMDPad,CuDef*%
%ADD15FreePoly1,270.000000*%
%TD*%
%TA.AperFunction,SMDPad,CuDef*%
%ADD16FreePoly0,90.000000*%
%TD*%
%TA.AperFunction,SMDPad,CuDef*%
%ADD17FreePoly1,90.000000*%
%TD*%
%TA.AperFunction,SMDPad,CuDef*%
%ADD18RoundRect,0.150000X0.700000X-0.150000X0.700000X0.150000X-0.700000X0.150000X-0.700000X-0.150000X0*%
%TD*%
%TA.AperFunction,SMDPad,CuDef*%
%ADD19RoundRect,0.250000X1.100000X-0.250000X1.100000X0.250000X-1.100000X0.250000X-1.100000X-0.250000X0*%
%TD*%
%TA.AperFunction,ViaPad*%
%ADD20C,0.800000*%
%TD*%
%TA.AperFunction,Conductor*%
%ADD21C,0.500000*%
%TD*%
%TA.AperFunction,Conductor*%
%ADD22C,0.200000*%
%TD*%
%TA.AperFunction,Conductor*%
%ADD23C,0.250000*%
%TD*%
G04 APERTURE END LIST*
D10*
D11*
X18765714Y21474860D02*
X18733333Y21441527D01*
X18733333Y21441527D02*
X18668571Y21408194D01*
X18668571Y21408194D02*
X18506666Y21408194D01*
X18506666Y21408194D02*
X18441904Y21441527D01*
X18441904Y21441527D02*
X18409523Y21474860D01*
X18409523Y21474860D02*
X18377142Y21541527D01*
X18377142Y21541527D02*
X18377142Y21608194D01*
X18377142Y21608194D02*
X18409523Y21708194D01*
X18409523Y21708194D02*
X18798095Y22108194D01*
X18798095Y22108194D02*
X18377142Y22108194D01*
X17956190Y21408194D02*
X17891428Y21408194D01*
X17891428Y21408194D02*
X17826666Y21441527D01*
X17826666Y21441527D02*
X17794285Y21474860D01*
X17794285Y21474860D02*
X17761904Y21541527D01*
X17761904Y21541527D02*
X17729523Y21674860D01*
X17729523Y21674860D02*
X17729523Y21841527D01*
X17729523Y21841527D02*
X17761904Y21974860D01*
X17761904Y21974860D02*
X17794285Y22041527D01*
X17794285Y22041527D02*
X17826666Y22074860D01*
X17826666Y22074860D02*
X17891428Y22108194D01*
X17891428Y22108194D02*
X17956190Y22108194D01*
X17956190Y22108194D02*
X18020952Y22074860D01*
X18020952Y22074860D02*
X18053333Y22041527D01*
X18053333Y22041527D02*
X18085714Y21974860D01*
X18085714Y21974860D02*
X18118095Y21841527D01*
X18118095Y21841527D02*
X18118095Y21674860D01*
X18118095Y21674860D02*
X18085714Y21541527D01*
X18085714Y21541527D02*
X18053333Y21474860D01*
X18053333Y21474860D02*
X18020952Y21441527D01*
X18020952Y21441527D02*
X17956190Y21408194D01*
X17470476Y21474860D02*
X17438095Y21441527D01*
X17438095Y21441527D02*
X17373333Y21408194D01*
X17373333Y21408194D02*
X17211428Y21408194D01*
X17211428Y21408194D02*
X17146666Y21441527D01*
X17146666Y21441527D02*
X17114285Y21474860D01*
X17114285Y21474860D02*
X17081904Y21541527D01*
X17081904Y21541527D02*
X17081904Y21608194D01*
X17081904Y21608194D02*
X17114285Y21708194D01*
X17114285Y21708194D02*
X17502857Y22108194D01*
X17502857Y22108194D02*
X17081904Y22108194D01*
X16855238Y21408194D02*
X16434285Y21408194D01*
X16434285Y21408194D02*
X16660952Y21674860D01*
X16660952Y21674860D02*
X16563809Y21674860D01*
X16563809Y21674860D02*
X16499047Y21708194D01*
X16499047Y21708194D02*
X16466666Y21741527D01*
X16466666Y21741527D02*
X16434285Y21808194D01*
X16434285Y21808194D02*
X16434285Y21974860D01*
X16434285Y21974860D02*
X16466666Y22041527D01*
X16466666Y22041527D02*
X16499047Y22074860D01*
X16499047Y22074860D02*
X16563809Y22108194D01*
X16563809Y22108194D02*
X16758095Y22108194D01*
X16758095Y22108194D02*
X16822857Y22074860D01*
X16822857Y22074860D02*
X16855238Y22041527D01*
D10*
D11*
X10821903Y21641527D02*
X10562855Y21641527D01*
X10724760Y21408194D02*
X10724760Y22008194D01*
X10724760Y22008194D02*
X10692379Y22074860D01*
X10692379Y22074860D02*
X10627617Y22108194D01*
X10627617Y22108194D02*
X10562855Y22108194D01*
X10336189Y22108194D02*
X10336189Y21408194D01*
X10044760Y22108194D02*
X10044760Y21741527D01*
X10044760Y21741527D02*
X10077141Y21674860D01*
X10077141Y21674860D02*
X10141903Y21641527D01*
X10141903Y21641527D02*
X10239046Y21641527D01*
X10239046Y21641527D02*
X10303808Y21674860D01*
X10303808Y21674860D02*
X10336189Y21708194D01*
X9429522Y21641527D02*
X9429522Y22108194D01*
X9720951Y21641527D02*
X9720951Y22008194D01*
X9720951Y22008194D02*
X9688570Y22074860D01*
X9688570Y22074860D02*
X9623808Y22108194D01*
X9623808Y22108194D02*
X9526665Y22108194D01*
X9526665Y22108194D02*
X9461903Y22074860D01*
X9461903Y22074860D02*
X9429522Y22041527D01*
X9105713Y21641527D02*
X9105713Y22108194D01*
X9105713Y21708194D02*
X9073332Y21674860D01*
X9073332Y21674860D02*
X9008570Y21641527D01*
X9008570Y21641527D02*
X8911427Y21641527D01*
X8911427Y21641527D02*
X8846665Y21674860D01*
X8846665Y21674860D02*
X8814284Y21741527D01*
X8814284Y21741527D02*
X8814284Y22108194D01*
X8199046Y22108194D02*
X8199046Y21408194D01*
X8199046Y22074860D02*
X8263808Y22108194D01*
X8263808Y22108194D02*
X8393332Y22108194D01*
X8393332Y22108194D02*
X8458094Y22074860D01*
X8458094Y22074860D02*
X8490475Y22041527D01*
X8490475Y22041527D02*
X8522856Y21974860D01*
X8522856Y21974860D02*
X8522856Y21774860D01*
X8522856Y21774860D02*
X8490475Y21708194D01*
X8490475Y21708194D02*
X8458094Y21674860D01*
X8458094Y21674860D02*
X8393332Y21641527D01*
X8393332Y21641527D02*
X8263808Y21641527D01*
X8263808Y21641527D02*
X8199046Y21674860D01*
X7616189Y22074860D02*
X7680951Y22108194D01*
X7680951Y22108194D02*
X7810475Y22108194D01*
X7810475Y22108194D02*
X7875237Y22074860D01*
X7875237Y22074860D02*
X7907618Y22008194D01*
X7907618Y22008194D02*
X7907618Y21741527D01*
X7907618Y21741527D02*
X7875237Y21674860D01*
X7875237Y21674860D02*
X7810475Y21641527D01*
X7810475Y21641527D02*
X7680951Y21641527D01*
X7680951Y21641527D02*
X7616189Y21674860D01*
X7616189Y21674860D02*
X7583808Y21741527D01*
X7583808Y21741527D02*
X7583808Y21808194D01*
X7583808Y21808194D02*
X7907618Y21874860D01*
X7292380Y22108194D02*
X7292380Y21641527D01*
X7292380Y21774860D02*
X7259999Y21708194D01*
X7259999Y21708194D02*
X7227618Y21674860D01*
X7227618Y21674860D02*
X7162856Y21641527D01*
X7162856Y21641527D02*
X7098094Y21641527D01*
X6968571Y21641527D02*
X6709523Y21641527D01*
X6871428Y22108194D02*
X6871428Y21508194D01*
X6871428Y21508194D02*
X6839047Y21441527D01*
X6839047Y21441527D02*
X6774285Y21408194D01*
X6774285Y21408194D02*
X6709523Y21408194D01*
X6385714Y22108194D02*
X6450476Y22074860D01*
X6450476Y22074860D02*
X6482857Y22008194D01*
X6482857Y22008194D02*
X6482857Y21408194D01*
X6191429Y21641527D02*
X6029524Y22108194D01*
X5867619Y21641527D02*
X6029524Y22108194D01*
X6029524Y22108194D02*
X6094286Y22274860D01*
X6094286Y22274860D02*
X6126667Y22308194D01*
X6126667Y22308194D02*
X6191429Y22341527D01*
X5608572Y22041527D02*
X5576191Y22074860D01*
X5576191Y22074860D02*
X5608572Y22108194D01*
X5608572Y22108194D02*
X5640953Y22074860D01*
X5640953Y22074860D02*
X5608572Y22041527D01*
X5608572Y22041527D02*
X5608572Y22108194D01*
X4993333Y22074860D02*
X5058095Y22108194D01*
X5058095Y22108194D02*
X5187619Y22108194D01*
X5187619Y22108194D02*
X5252381Y22074860D01*
X5252381Y22074860D02*
X5284762Y22041527D01*
X5284762Y22041527D02*
X5317143Y21974860D01*
X5317143Y21974860D02*
X5317143Y21774860D01*
X5317143Y21774860D02*
X5284762Y21708194D01*
X5284762Y21708194D02*
X5252381Y21674860D01*
X5252381Y21674860D02*
X5187619Y21641527D01*
X5187619Y21641527D02*
X5058095Y21641527D01*
X5058095Y21641527D02*
X4993333Y21674860D01*
X4766667Y21641527D02*
X4410476Y21641527D01*
X4410476Y21641527D02*
X4766667Y22108194D01*
X4766667Y22108194D02*
X4410476Y22108194D01*
D12*
D13*
X4685713Y1295429D02*
X5028571Y1295429D01*
X4857142Y695429D02*
X4857142Y1295429D01*
X5428571Y1009715D02*
X5228571Y1009715D01*
X5228571Y695429D02*
X5228571Y1295429D01*
X5228571Y1295429D02*
X5514285Y1295429D01*
X5742857Y695429D02*
X5742857Y1295429D01*
X5999999Y1238286D02*
X6028571Y1266858D01*
X6028571Y1266858D02*
X6085714Y1295429D01*
X6085714Y1295429D02*
X6228571Y1295429D01*
X6228571Y1295429D02*
X6285714Y1266858D01*
X6285714Y1266858D02*
X6314285Y1238286D01*
X6314285Y1238286D02*
X6342856Y1181143D01*
X6342856Y1181143D02*
X6342856Y1124000D01*
X6342856Y1124000D02*
X6314285Y1038286D01*
X6314285Y1038286D02*
X5971428Y695429D01*
X5971428Y695429D02*
X6342856Y695429D01*
X6942857Y752572D02*
X6914285Y724000D01*
X6914285Y724000D02*
X6828571Y695429D01*
X6828571Y695429D02*
X6771428Y695429D01*
X6771428Y695429D02*
X6685714Y724000D01*
X6685714Y724000D02*
X6628571Y781143D01*
X6628571Y781143D02*
X6600000Y838286D01*
X6600000Y838286D02*
X6571428Y952572D01*
X6571428Y952572D02*
X6571428Y1038286D01*
X6571428Y1038286D02*
X6600000Y1152572D01*
X6600000Y1152572D02*
X6628571Y1209715D01*
X6628571Y1209715D02*
X6685714Y1266858D01*
X6685714Y1266858D02*
X6771428Y1295429D01*
X6771428Y1295429D02*
X6828571Y1295429D01*
X6828571Y1295429D02*
X6914285Y1266858D01*
X6914285Y1266858D02*
X6942857Y1238286D01*
X7171428Y866858D02*
X7457143Y866858D01*
X7114285Y695429D02*
X7314285Y1295429D01*
X7314285Y1295429D02*
X7514285Y695429D01*
X7714286Y695429D02*
X7714286Y1295429D01*
X7714286Y1295429D02*
X7857143Y1295429D01*
X7857143Y1295429D02*
X7942857Y1266858D01*
X7942857Y1266858D02*
X8000000Y1209715D01*
X8000000Y1209715D02*
X8028571Y1152572D01*
X8028571Y1152572D02*
X8057143Y1038286D01*
X8057143Y1038286D02*
X8057143Y952572D01*
X8057143Y952572D02*
X8028571Y838286D01*
X8028571Y838286D02*
X8000000Y781143D01*
X8000000Y781143D02*
X7942857Y724000D01*
X7942857Y724000D02*
X7857143Y695429D01*
X7857143Y695429D02*
X7714286Y695429D01*
X8228571Y1295429D02*
X8571429Y1295429D01*
X8400000Y695429D02*
X8400000Y1295429D01*
X8885714Y1295429D02*
X8942857Y1295429D01*
X8942857Y1295429D02*
X9000000Y1266858D01*
X9000000Y1266858D02*
X9028572Y1238286D01*
X9028572Y1238286D02*
X9057143Y1181143D01*
X9057143Y1181143D02*
X9085714Y1066858D01*
X9085714Y1066858D02*
X9085714Y924000D01*
X9085714Y924000D02*
X9057143Y809715D01*
X9057143Y809715D02*
X9028572Y752572D01*
X9028572Y752572D02*
X9000000Y724000D01*
X9000000Y724000D02*
X8942857Y695429D01*
X8942857Y695429D02*
X8885714Y695429D01*
X8885714Y695429D02*
X8828572Y724000D01*
X8828572Y724000D02*
X8800000Y752572D01*
X8800000Y752572D02*
X8771429Y809715D01*
X8771429Y809715D02*
X8742857Y924000D01*
X8742857Y924000D02*
X8742857Y1066858D01*
X8742857Y1066858D02*
X8771429Y1181143D01*
X8771429Y1181143D02*
X8800000Y1238286D01*
X8800000Y1238286D02*
X8828572Y1266858D01*
X8828572Y1266858D02*
X8885714Y1295429D01*
X9657143Y695429D02*
X9314286Y695429D01*
X9485715Y695429D02*
X9485715Y1295429D01*
X9485715Y1295429D02*
X9428572Y1209715D01*
X9428572Y1209715D02*
X9371429Y1152572D01*
X9371429Y1152572D02*
X9314286Y1124000D01*
X10114287Y1009715D02*
X10200001Y981143D01*
X10200001Y981143D02*
X10228572Y952572D01*
X10228572Y952572D02*
X10257144Y895429D01*
X10257144Y895429D02*
X10257144Y809715D01*
X10257144Y809715D02*
X10228572Y752572D01*
X10228572Y752572D02*
X10200001Y724000D01*
X10200001Y724000D02*
X10142858Y695429D01*
X10142858Y695429D02*
X9914287Y695429D01*
X9914287Y695429D02*
X9914287Y1295429D01*
X9914287Y1295429D02*
X10114287Y1295429D01*
X10114287Y1295429D02*
X10171430Y1266858D01*
X10171430Y1266858D02*
X10200001Y1238286D01*
X10200001Y1238286D02*
X10228572Y1181143D01*
X10228572Y1181143D02*
X10228572Y1124000D01*
X10228572Y1124000D02*
X10200001Y1066858D01*
X10200001Y1066858D02*
X10171430Y1038286D01*
X10171430Y1038286D02*
X10114287Y1009715D01*
X10114287Y1009715D02*
X9914287Y1009715D01*
D14*
%TO.P,JP1,1,A*%
%TO.N,/XORL1*%
X14346000Y7144000D03*
D15*
%TO.P,JP1,2,B*%
%TO.N,+3V3*%
X14346000Y5844000D03*
%TD*%
D16*
%TO.P,JP2,1,A*%
%TO.N,/XORL2*%
X14346000Y15844000D03*
D17*
%TO.P,JP2,2,B*%
%TO.N,+3V3*%
X14346000Y17144000D03*
%TD*%
D18*
%TO.P,J6,1*%
%TO.N,+5V*%
X19850000Y14625000D03*
%TO.P,J6,2*%
%TO.N,/SCLout2*%
X19850000Y15875000D03*
%TO.P,J6,3*%
%TO.N,/SDAout2*%
X19850000Y17125000D03*
%TO.P,J6,4*%
%TO.N,GND*%
X19850000Y18375000D03*
D19*
%TO.P,J6,MP*%
X23050000Y12775000D03*
X23050000Y20225000D03*
%TD*%
D18*
%TO.P,J4,1*%
%TO.N,+5V*%
X19850000Y4625000D03*
%TO.P,J4,2*%
%TO.N,/SCLout1*%
X19850000Y5875000D03*
%TO.P,J4,3*%
%TO.N,/SDAout1*%
X19850000Y7125000D03*
%TO.P,J4,4*%
%TO.N,GND*%
X19850000Y8375000D03*
D19*
%TO.P,J4,MP*%
X23050000Y2775000D03*
X23050000Y10225000D03*
%TD*%
D20*
%TO.N,GND*%
X2146000Y18794000D03*
X2146000Y4294000D03*
X1066800Y11480800D03*
X9601200Y11125200D03*
X4846000Y9494000D03*
X10100000Y14500000D03*
X1046000Y4294000D03*
X23114000Y19151600D03*
X23977600Y19151600D03*
X20421600Y2844800D03*
X6299200Y17983200D03*
X1046000Y18794000D03*
X6299200Y19151600D03*
X1320800Y8788400D03*
X7518400Y12547600D03*
X8000000Y8900000D03*
X12547600Y7061200D03*
X23774400Y4216400D03*
X2336800Y14274800D03*
X14579600Y8991600D03*
X23146000Y11494000D03*
X10668000Y4521200D03*
X24146000Y11494000D03*
X1066800Y14274800D03*
X5994400Y2133600D03*
X2235200Y11480800D03*
%TO.N,+3V3*%
X14429777Y4695066D03*
X13375000Y19065000D03*
X17018000Y8077200D03*
X10566400Y15544800D03*
X15046000Y14294000D03*
%TO.N,+5V*%
X22446000Y18094000D03*
X21717000Y8375000D03*
X14274800Y2032000D03*
%TO.N,/SDAin*%
X10922000Y8800100D03*
X12954000Y9296400D03*
%TO.N,/SCLin*%
X6604000Y6400800D03*
X7642029Y10363200D03*
X6243018Y10334215D03*
%TO.N,/SCLout1*%
X11750000Y8194000D03*
X13766800Y8331200D03*
X18225774Y6307751D03*
%TO.N,/SDAout1*%
X22148800Y6425500D03*
%TO.N,/SCLout2*%
X18301378Y15937822D03*
X15113000Y10605500D03*
X10550500Y10421673D03*
%TO.N,/SDAout2*%
X22148800Y16459200D03*
%TO.N,/XORL1*%
X16168874Y15300370D03*
%TO.N,/XORL2*%
X11582274Y16554970D03*
%TD*%
D21*
%TO.N,+3V3*%
X10566400Y16815791D02*
X11394609Y17644000D01*
X17018000Y6866000D02*
X15996000Y5844000D01*
X14547700Y4812989D02*
X14547700Y5606900D01*
X11394609Y17644000D02*
X13496000Y17644000D01*
X14096000Y17144000D02*
X13596000Y17644000D01*
X15996000Y5844000D02*
X14846000Y5844000D01*
X17018000Y14478000D02*
X17018000Y16422000D01*
X13375000Y17765000D02*
X13496000Y17644000D01*
D22*
X15046000Y14394000D02*
X11717200Y14394000D01*
D21*
X17018000Y16422000D02*
X16296000Y17144000D01*
X13375000Y19065000D02*
X13375000Y17765000D01*
X17018000Y8077200D02*
X17018000Y6866000D01*
X14429777Y4695066D02*
X14547700Y4812989D01*
X14846000Y17144000D02*
X14096000Y17144000D01*
X16296000Y17144000D02*
X14846000Y17144000D01*
X17018000Y8077200D02*
X17018000Y14478000D01*
X10566400Y15544800D02*
X10566400Y16815791D01*
D22*
X11717200Y14394000D02*
X10566400Y15544800D01*
D21*
X13596000Y17644000D02*
X13496000Y17644000D01*
%TO.N,+5V*%
X19850000Y10249000D02*
X19850000Y14625000D01*
X21717000Y8382000D02*
X19850000Y10249000D01*
X22980918Y4625000D02*
X16867800Y4625000D01*
X21717000Y8375000D02*
X23114000Y6978000D01*
X21747800Y14625000D02*
X22824422Y14625000D01*
X16867800Y4625000D02*
X14274800Y2032000D01*
X23150711Y14951289D02*
X23150711Y17389289D01*
X21717000Y8375000D02*
X21717000Y8382000D01*
X19850000Y14625000D02*
X21747800Y14625000D01*
X22824422Y14625000D02*
X23150711Y14951289D01*
X23150711Y17389289D02*
X22446000Y18094000D01*
X23114000Y6978000D02*
X23114000Y4758082D01*
X23114000Y4758082D02*
X22980918Y4625000D01*
X20350000Y14625000D02*
X21747800Y14625000D01*
D23*
%TO.N,/SDAin*%
X10922000Y8800100D02*
X11418300Y9296400D01*
X11418300Y9296400D02*
X12954000Y9296400D01*
D22*
%TO.N,/SCLin*%
X6604000Y6400800D02*
X6223000Y6781800D01*
X7613044Y10334215D02*
X6243018Y10334215D01*
X6223000Y10314197D02*
X6243018Y10334215D01*
X7642029Y10363200D02*
X7613044Y10334215D01*
X6223000Y6781800D02*
X6223000Y10314197D01*
%TO.N,/SCLout1*%
X13766800Y8331200D02*
X11887200Y8331200D01*
X18225774Y6307751D02*
X18658525Y5875000D01*
X18658525Y5875000D02*
X20350000Y5875000D01*
X11887200Y8331200D02*
X11750000Y8194000D01*
%TO.N,/SDAout1*%
X21932600Y7125000D02*
X20350000Y7125000D01*
X22148800Y6425500D02*
X22148800Y6908800D01*
X22148800Y6908800D02*
X21932600Y7125000D01*
%TO.N,/SCLout2*%
X18301378Y15937822D02*
X18364200Y15875000D01*
X14929173Y10421673D02*
X15113000Y10605500D01*
X10550500Y10421673D02*
X14929173Y10421673D01*
X18364200Y15875000D02*
X20350000Y15875000D01*
%TO.N,/SDAout2*%
X22148800Y16916400D02*
X22148800Y16459200D01*
X20350000Y17125000D02*
X21940200Y17125000D01*
X21940200Y17125000D02*
X22148800Y16916400D01*
D23*
%TO.N,/XORL1*%
X16300000Y7300000D02*
X16144000Y7144000D01*
X16443480Y15025764D02*
X16443480Y8800000D01*
X16293489Y8650009D02*
X16293489Y7306511D01*
X16293489Y7306511D02*
X16300000Y7300000D01*
X16168874Y15300370D02*
X16443480Y15025764D01*
X16144000Y7144000D02*
X14846000Y7144000D01*
X16443480Y8800000D02*
X16293489Y8650009D01*
%TO.N,/XORL2*%
X12135244Y16002000D02*
X14688000Y16002000D01*
X11582274Y16554970D02*
X12135244Y16002000D01*
%TD*%
%TA.AperFunction,Conductor*%
%TO.N,GND*%
G36*
X869587Y22477826D02*
G01*
X885628Y22453818D01*
X886289Y22452222D01*
X886290Y22452219D01*
X901473Y22415564D01*
X971591Y22246283D01*
X971594Y22246275D01*
X1083049Y22053230D01*
X1083053Y22053224D01*
X1218747Y21876382D01*
X1376381Y21718748D01*
X1553223Y21583054D01*
X1553226Y21583052D01*
X1746274Y21471595D01*
X1952219Y21386290D01*
X2167537Y21328596D01*
X2388543Y21299500D01*
X2388545Y21299500D01*
X2611455Y21299500D01*
X2611457Y21299500D01*
X2832463Y21328596D01*
X3047781Y21386290D01*
X3253726Y21471595D01*
X3446774Y21583052D01*
X3542309Y21656359D01*
X3623618Y21718748D01*
X3623619Y21718750D01*
X3623624Y21718753D01*
X3781247Y21876376D01*
X3916948Y22053226D01*
X3960441Y22128559D01*
X4005374Y22163036D01*
X4061527Y22155644D01*
X4096005Y22110711D01*
X4098527Y22091558D01*
X4098527Y21096606D01*
X6604000Y21096606D01*
X6604000Y10839284D01*
X6536932Y10884097D01*
X6424015Y10930868D01*
X6424005Y10930871D01*
X6343729Y10946839D01*
X6304132Y10954715D01*
X6181904Y10954715D01*
X6147919Y10947955D01*
X6062030Y10930871D01*
X6062020Y10930868D01*
X5949103Y10884097D01*
X5847476Y10816192D01*
X5761041Y10729757D01*
X5693136Y10628130D01*
X5646365Y10515213D01*
X5646362Y10515203D01*
X5622518Y10395328D01*
X5622518Y10273103D01*
X5646362Y10153228D01*
X5646365Y10153218D01*
X5693136Y10040301D01*
X5693137Y10040299D01*
X5693138Y10040298D01*
X5761044Y9938670D01*
X5847473Y9852241D01*
X5869612Y9837448D01*
X5901078Y9790358D01*
X5902500Y9775920D01*
X5902500Y6739605D01*
X5924341Y6658091D01*
X5924343Y6658087D01*
X5966533Y6585012D01*
X5966534Y6585011D01*
X5966536Y6585008D01*
X5973139Y6578405D01*
X5994813Y6526080D01*
X5993391Y6511645D01*
X5983500Y6461915D01*
X5983500Y6339688D01*
X6007344Y6219813D01*
X6007347Y6219803D01*
X6054118Y6106886D01*
X6054119Y6106884D01*
X6054120Y6106883D01*
X6122026Y6005255D01*
X6208455Y5918826D01*
X6310083Y5850920D01*
X6423007Y5804146D01*
X6542886Y5780300D01*
X6542888Y5780300D01*
X6604000Y5780300D01*
X6604000Y1597304D01*
X4385213Y1597304D01*
X4385213Y574500D01*
X4363539Y522174D01*
X4311213Y500500D01*
X4182739Y500500D01*
X4130413Y522174D01*
X4114372Y546182D01*
X4102642Y574500D01*
X4028405Y753726D01*
X3916948Y946774D01*
X3916946Y946777D01*
X3781252Y1123619D01*
X3623618Y1281253D01*
X3446776Y1416947D01*
X3446770Y1416951D01*
X3253725Y1528406D01*
X3253717Y1528409D01*
X3047782Y1613710D01*
X2832461Y1671405D01*
X2669647Y1692840D01*
X2611457Y1700500D01*
X2388543Y1700500D01*
X2337122Y1693731D01*
X2167538Y1671405D01*
X1952217Y1613710D01*
X1746282Y1528409D01*
X1746274Y1528406D01*
X1553229Y1416951D01*
X1553223Y1416947D01*
X1376381Y1281253D01*
X1218747Y1123619D01*
X1083053Y946777D01*
X1083049Y946771D01*
X971594Y753726D01*
X971591Y753718D01*
X913302Y612995D01*
X897358Y574500D01*
X885628Y546182D01*
X845580Y506133D01*
X817261Y500500D01*
X574500Y500500D01*
X522174Y522174D01*
X500500Y574500D01*
X500500Y22425500D01*
X522174Y22477826D01*
X574500Y22499500D01*
X817261Y22499500D01*
X869587Y22477826D01*
G37*
%TD.AperFunction*%
%TA.AperFunction,Conductor*%
G36*
X6604000Y7026509D02*
G01*
X6590580Y7032451D01*
X6565174Y7042974D01*
X6564805Y7043865D01*
X6563925Y7044254D01*
X6554027Y7069884D01*
X6543500Y7095300D01*
X6543500Y9749169D01*
X6565174Y9801495D01*
X6576381Y9810693D01*
X6604000Y9829147D01*
X6604000Y7026509D01*
G37*
%TD.AperFunction*%
%TD*%
%TA.AperFunction,Conductor*%
%TO.N,GND*%
G36*
X16101039Y22477826D02*
G01*
X16122713Y22425500D01*
X16122713Y22419782D01*
X16122713Y21096606D01*
X19108829Y21096606D01*
X19108829Y22425500D01*
X19130503Y22477826D01*
X19182829Y22499500D01*
X20817261Y22499500D01*
X20869587Y22477826D01*
X20885628Y22453818D01*
X20886289Y22452222D01*
X20886290Y22452219D01*
X20899726Y22419782D01*
X20971591Y22246283D01*
X20971594Y22246275D01*
X21083049Y22053230D01*
X21083053Y22053224D01*
X21218747Y21876382D01*
X21376381Y21718748D01*
X21553223Y21583054D01*
X21553226Y21583052D01*
X21746274Y21471595D01*
X21952219Y21386290D01*
X22167537Y21328596D01*
X22388543Y21299500D01*
X22388545Y21299500D01*
X22611455Y21299500D01*
X22611457Y21299500D01*
X22832463Y21328596D01*
X23047781Y21386290D01*
X23253726Y21471595D01*
X23446774Y21583052D01*
X23542309Y21656359D01*
X23623618Y21718748D01*
X23623619Y21718750D01*
X23623624Y21718753D01*
X23781247Y21876376D01*
X23916948Y22053226D01*
X24028405Y22246274D01*
X24113710Y22452219D01*
X24113710Y22452222D01*
X24114372Y22453818D01*
X24154420Y22493867D01*
X24182739Y22499500D01*
X24425500Y22499500D01*
X24477826Y22477826D01*
X24499500Y22425500D01*
X24499500Y21148897D01*
X24477826Y21096571D01*
X24425500Y21074897D01*
X24404855Y21077835D01*
X24252492Y21122100D01*
X24252494Y21122100D01*
X24215641Y21125000D01*
X23300000Y21125000D01*
X23300000Y19325000D01*
X24215641Y19325000D01*
X24252493Y19327901D01*
X24404855Y19372166D01*
X24461150Y19365951D01*
X24496562Y19321749D01*
X24499500Y19301104D01*
X24499500Y13698897D01*
X24477826Y13646571D01*
X24425500Y13624897D01*
X24404855Y13627835D01*
X24252492Y13672100D01*
X24252494Y13672100D01*
X24215641Y13675000D01*
X23300000Y13675000D01*
X23300000Y11875000D01*
X24215641Y11875000D01*
X24252493Y11877901D01*
X24404855Y11922166D01*
X24461150Y11915951D01*
X24496562Y11871749D01*
X24499500Y11851104D01*
X24499500Y11148897D01*
X24477826Y11096571D01*
X24425500Y11074897D01*
X24404855Y11077835D01*
X24252492Y11122100D01*
X24252494Y11122100D01*
X24215641Y11125000D01*
X23300000Y11125000D01*
X23300000Y9325000D01*
X24215641Y9325000D01*
X24252493Y9327901D01*
X24404855Y9372166D01*
X24461150Y9365951D01*
X24496562Y9321749D01*
X24499500Y9301104D01*
X24499500Y3698897D01*
X24477826Y3646571D01*
X24425500Y3624897D01*
X24404855Y3627835D01*
X24252492Y3672100D01*
X24252494Y3672100D01*
X24215641Y3675000D01*
X23300000Y3675000D01*
X23300000Y1875000D01*
X24215641Y1875000D01*
X24252493Y1877901D01*
X24404855Y1922166D01*
X24461150Y1915951D01*
X24496562Y1871749D01*
X24499500Y1851104D01*
X24499500Y574500D01*
X24477826Y522174D01*
X24425500Y500500D01*
X24182739Y500500D01*
X24130413Y522174D01*
X24114372Y546182D01*
X24102642Y574500D01*
X24028405Y753726D01*
X23916948Y946774D01*
X23916946Y946777D01*
X23781252Y1123619D01*
X23623618Y1281253D01*
X23446776Y1416947D01*
X23446770Y1416951D01*
X23253725Y1528406D01*
X23253717Y1528409D01*
X23047782Y1613710D01*
X22832461Y1671405D01*
X22669647Y1692840D01*
X22611457Y1700500D01*
X22388543Y1700500D01*
X22337122Y1693731D01*
X22167538Y1671405D01*
X21952217Y1613710D01*
X21746282Y1528409D01*
X21746274Y1528406D01*
X21553229Y1416951D01*
X21553223Y1416947D01*
X21376381Y1281253D01*
X21218747Y1123619D01*
X21083053Y946777D01*
X21083049Y946771D01*
X20971594Y753726D01*
X20971591Y753718D01*
X20913302Y612995D01*
X20897358Y574500D01*
X20885628Y546182D01*
X20845580Y506133D01*
X20817261Y500500D01*
X14182739Y500500D01*
X14130413Y522174D01*
X14114372Y546182D01*
X14102642Y574500D01*
X14028405Y753726D01*
X13916948Y946774D01*
X13916946Y946777D01*
X13781252Y1123619D01*
X13623618Y1281253D01*
X13446776Y1416947D01*
X13446770Y1416951D01*
X13253725Y1528406D01*
X13253717Y1528409D01*
X13047782Y1613710D01*
X12832461Y1671405D01*
X12669647Y1692840D01*
X12611457Y1700500D01*
X12388543Y1700500D01*
X12337122Y1693731D01*
X12167538Y1671405D01*
X11952217Y1613710D01*
X11746282Y1528409D01*
X11746274Y1528406D01*
X11553229Y1416951D01*
X11553223Y1416947D01*
X11376381Y1281253D01*
X11218747Y1123619D01*
X11083053Y946777D01*
X11083049Y946771D01*
X10971594Y753726D01*
X10971591Y753718D01*
X10913302Y612995D01*
X10897358Y574500D01*
X10885628Y546182D01*
X10845580Y506133D01*
X10817261Y500500D01*
X10632500Y500500D01*
X10580174Y522174D01*
X10558500Y574500D01*
X10558500Y1597304D01*
X6604000Y1597304D01*
X6604000Y2093114D01*
X13654300Y2093114D01*
X13654300Y1970886D01*
X13662176Y1931289D01*
X13678144Y1851013D01*
X13678147Y1851003D01*
X13724918Y1738086D01*
X13769473Y1671404D01*
X13792826Y1636455D01*
X13879255Y1550026D01*
X13980883Y1482120D01*
X14093807Y1435346D01*
X14213686Y1411500D01*
X14213688Y1411500D01*
X14335912Y1411500D01*
X14335914Y1411500D01*
X14455793Y1435346D01*
X14568717Y1482120D01*
X14670345Y1550026D01*
X14756774Y1636455D01*
X14824680Y1738083D01*
X14871454Y1851007D01*
X14894950Y1969128D01*
X14915199Y2007013D01*
X15367545Y2459359D01*
X21300000Y2459359D01*
X21302900Y2422507D01*
X21348718Y2264801D01*
X21432317Y2123444D01*
X21548443Y2007318D01*
X21689800Y1923719D01*
X21847508Y1877901D01*
X21847505Y1877901D01*
X21884359Y1875000D01*
X22800000Y1875000D01*
X22800000Y2525000D01*
X21300000Y2525000D01*
X21300000Y2459359D01*
X15367545Y2459359D01*
X15998829Y3090642D01*
X21300000Y3090642D01*
X21300000Y3025000D01*
X22800000Y3025000D01*
X22800000Y3675000D01*
X21884359Y3675000D01*
X21847506Y3672100D01*
X21689800Y3626282D01*
X21548443Y3542683D01*
X21432317Y3426557D01*
X21348718Y3285200D01*
X21302900Y3127494D01*
X21300000Y3090642D01*
X15998829Y3090642D01*
X17041013Y4132826D01*
X17093339Y4154500D01*
X18944887Y4154500D01*
X18977387Y4146981D01*
X19042818Y4114994D01*
X19042819Y4114994D01*
X19042821Y4114993D01*
X19114839Y4104500D01*
X20585160Y4104501D01*
X20657179Y4114993D01*
X20722612Y4146981D01*
X20755112Y4154500D01*
X23042863Y4154500D01*
X23042863Y4154501D01*
X23162524Y4186564D01*
X23228346Y4224566D01*
X23269812Y4248506D01*
X23357412Y4336106D01*
X23357412Y4336107D01*
X23367818Y4346513D01*
X23367819Y4346516D01*
X23490494Y4469188D01*
X23552436Y4576476D01*
X23584499Y4696137D01*
X23584500Y4696137D01*
X23584500Y7039945D01*
X23584499Y7039946D01*
X23552437Y7159604D01*
X23490493Y7266895D01*
X22357401Y8399987D01*
X22337149Y8437875D01*
X22313654Y8555993D01*
X22285022Y8625117D01*
X22266881Y8668915D01*
X22262164Y8675974D01*
X22198974Y8770545D01*
X22112545Y8856974D01*
X22106199Y8861214D01*
X22010914Y8924882D01*
X21897997Y8971653D01*
X21897987Y8971656D01*
X21788612Y8993412D01*
X21750723Y9013664D01*
X20855028Y9909359D01*
X21300000Y9909359D01*
X21302900Y9872507D01*
X21348718Y9714801D01*
X21432317Y9573444D01*
X21548443Y9457318D01*
X21689800Y9373719D01*
X21847508Y9327901D01*
X21847505Y9327901D01*
X21884359Y9325000D01*
X22800000Y9325000D01*
X22800000Y9975000D01*
X21300000Y9975000D01*
X21300000Y9909359D01*
X20855028Y9909359D01*
X20342174Y10422213D01*
X20320500Y10474539D01*
X20320500Y10540642D01*
X21300000Y10540642D01*
X21300000Y10475000D01*
X22800000Y10475000D01*
X22800000Y11125000D01*
X21884359Y11125000D01*
X21847506Y11122100D01*
X21689800Y11076282D01*
X21548443Y10992683D01*
X21432317Y10876557D01*
X21348718Y10735200D01*
X21302900Y10577494D01*
X21300000Y10540642D01*
X20320500Y10540642D01*
X20320500Y12459359D01*
X21300000Y12459359D01*
X21302900Y12422507D01*
X21348718Y12264801D01*
X21432317Y12123444D01*
X21548443Y12007318D01*
X21689800Y11923719D01*
X21847508Y11877901D01*
X21847505Y11877901D01*
X21884359Y11875000D01*
X22800000Y11875000D01*
X22800000Y12525000D01*
X21300000Y12525000D01*
X21300000Y12459359D01*
X20320500Y12459359D01*
X20320500Y13090642D01*
X21300000Y13090642D01*
X21300000Y13025000D01*
X22800000Y13025000D01*
X22800000Y13675000D01*
X21884359Y13675000D01*
X21847506Y13672100D01*
X21689800Y13626282D01*
X21548443Y13542683D01*
X21432317Y13426557D01*
X21348718Y13285200D01*
X21302900Y13127494D01*
X21300000Y13090642D01*
X20320500Y13090642D01*
X20320500Y14030501D01*
X20342174Y14082827D01*
X20394500Y14104501D01*
X20585153Y14104501D01*
X20585160Y14104501D01*
X20657179Y14114993D01*
X20722612Y14146981D01*
X20755112Y14154500D01*
X22886367Y14154500D01*
X22886367Y14154501D01*
X23006028Y14186564D01*
X23024466Y14197209D01*
X23113316Y14248506D01*
X23200916Y14336106D01*
X23200917Y14336108D01*
X23527205Y14662395D01*
X23589147Y14769683D01*
X23590834Y14775977D01*
X23599993Y14810161D01*
X23621210Y14889344D01*
X23621211Y14889344D01*
X23621211Y17451234D01*
X23621210Y17451235D01*
X23589148Y17570893D01*
X23583486Y17580700D01*
X23527205Y17678183D01*
X23439605Y17765783D01*
X23437026Y17768362D01*
X23437015Y17768372D01*
X23086401Y18118986D01*
X23066150Y18156873D01*
X23042654Y18274993D01*
X22995880Y18387917D01*
X22927974Y18489545D01*
X22841545Y18575974D01*
X22739917Y18643880D01*
X22739916Y18643881D01*
X22739914Y18643882D01*
X22626997Y18690653D01*
X22626987Y18690656D01*
X22546711Y18706624D01*
X22507114Y18714500D01*
X22384886Y18714500D01*
X22350901Y18707740D01*
X22265012Y18690656D01*
X22265002Y18690653D01*
X22152085Y18643882D01*
X22050458Y18575977D01*
X21964023Y18489542D01*
X21896118Y18387915D01*
X21849347Y18274998D01*
X21849344Y18274988D01*
X21825500Y18155113D01*
X21825500Y18032888D01*
X21849344Y17913013D01*
X21849347Y17913003D01*
X21896118Y17800086D01*
X21936672Y17739392D01*
X21964026Y17698455D01*
X22050455Y17612026D01*
X22152083Y17544120D01*
X22265007Y17497346D01*
X22383126Y17473850D01*
X22393311Y17467045D01*
X22405463Y17465488D01*
X22421014Y17453599D01*
X22658537Y17216076D01*
X22680211Y17163750D01*
X22680211Y16983959D01*
X22658537Y16931633D01*
X22606211Y16909959D01*
X22553886Y16931633D01*
X22544345Y16941174D01*
X22544341Y16941177D01*
X22544339Y16941179D01*
X22481777Y16982982D01*
X22451412Y17025357D01*
X22447460Y17040105D01*
X22447459Y17040109D01*
X22410175Y17104686D01*
X22405266Y17113189D01*
X22405265Y17113190D01*
X22405264Y17113192D01*
X22345592Y17172864D01*
X22345591Y17172865D01*
X22343013Y17175443D01*
X22343002Y17175453D01*
X22200884Y17317571D01*
X22200882Y17317574D01*
X22196664Y17321792D01*
X22136992Y17381464D01*
X22136989Y17381466D01*
X22136988Y17381467D01*
X22063913Y17423657D01*
X22063909Y17423659D01*
X22029450Y17432892D01*
X21982395Y17445500D01*
X21982394Y17445500D01*
X20925244Y17445500D01*
X20872918Y17467174D01*
X20858764Y17486998D01*
X20855700Y17493266D01*
X20768266Y17580700D01*
X20761537Y17583990D01*
X20724048Y17626443D01*
X20727558Y17682971D01*
X20766893Y17719311D01*
X20822091Y17741078D01*
X20942564Y17832436D01*
X21033922Y17952908D01*
X21089385Y18093556D01*
X21093161Y18125000D01*
X18606838Y18125000D01*
X18610614Y18093556D01*
X18666077Y17952908D01*
X18757435Y17832436D01*
X18877908Y17741078D01*
X18933106Y17719311D01*
X18973833Y17679952D01*
X18974801Y17623324D01*
X18938463Y17583991D01*
X18931738Y17580704D01*
X18931734Y17580701D01*
X18844300Y17493267D01*
X18789993Y17382180D01*
X18779500Y17310166D01*
X18779500Y16939847D01*
X18779501Y16939835D01*
X18789993Y16867820D01*
X18844299Y16756735D01*
X18844300Y16756734D01*
X18931734Y16669300D01*
X19042821Y16614993D01*
X19114839Y16604500D01*
X20585160Y16604501D01*
X20657179Y16614993D01*
X20768266Y16669300D01*
X20855700Y16756734D01*
X20858763Y16763001D01*
X20901214Y16800490D01*
X20925244Y16804500D01*
X21509455Y16804500D01*
X21561781Y16782826D01*
X21583455Y16730500D01*
X21577822Y16702182D01*
X21552147Y16640198D01*
X21552144Y16640188D01*
X21535860Y16558322D01*
X21528300Y16520314D01*
X21528300Y16398086D01*
X21528815Y16395499D01*
X21552144Y16278213D01*
X21552147Y16278203D01*
X21598918Y16165286D01*
X21660584Y16072996D01*
X21666826Y16063655D01*
X21753255Y15977226D01*
X21854883Y15909320D01*
X21854884Y15909320D01*
X21854885Y15909319D01*
X21967802Y15862548D01*
X21967807Y15862546D01*
X22087686Y15838700D01*
X22087688Y15838700D01*
X22209912Y15838700D01*
X22209914Y15838700D01*
X22329793Y15862546D01*
X22442717Y15909320D01*
X22544345Y15977226D01*
X22553886Y15986768D01*
X22606211Y16008441D01*
X22658537Y15986767D01*
X22680211Y15934441D01*
X22680211Y15176828D01*
X22658540Y15124506D01*
X22651213Y15117178D01*
X22598889Y15095500D01*
X20755113Y15095500D01*
X20722613Y15103019D01*
X20657181Y15135007D01*
X20609167Y15142003D01*
X20585161Y15145500D01*
X20585160Y15145500D01*
X19114840Y15145500D01*
X19042819Y15135007D01*
X18931734Y15080701D01*
X18844300Y14993267D01*
X18789993Y14882180D01*
X18779500Y14810166D01*
X18779500Y14439847D01*
X18779501Y14439835D01*
X18789993Y14367820D01*
X18844299Y14256735D01*
X18844300Y14256734D01*
X18931734Y14169300D01*
X19042821Y14114993D01*
X19114839Y14104500D01*
X19305500Y14104501D01*
X19357826Y14082827D01*
X19379500Y14030501D01*
X19379500Y10187055D01*
X19411562Y10067397D01*
X19473506Y9960106D01*
X19565321Y9868291D01*
X19565327Y9868286D01*
X20232287Y9201326D01*
X20253961Y9149000D01*
X20232287Y9096674D01*
X20179961Y9075000D01*
X20100000Y9075000D01*
X20100000Y8449000D01*
X20078326Y8396674D01*
X20026000Y8375000D01*
X19850000Y8375000D01*
X19850000Y8199000D01*
X19828326Y8146674D01*
X19776000Y8125000D01*
X18606838Y8125000D01*
X18610614Y8093556D01*
X18666077Y7952908D01*
X18757435Y7832436D01*
X18877908Y7741078D01*
X18933106Y7719311D01*
X18973833Y7679952D01*
X18974801Y7623324D01*
X18938463Y7583991D01*
X18931738Y7580704D01*
X18931734Y7580701D01*
X18844300Y7493267D01*
X18789993Y7382180D01*
X18779500Y7310166D01*
X18779500Y6939847D01*
X18779501Y6939835D01*
X18789993Y6867821D01*
X18844300Y6756734D01*
X18931734Y6669300D01*
X19042821Y6614993D01*
X19114839Y6604500D01*
X20585160Y6604501D01*
X20657179Y6614993D01*
X20768266Y6669300D01*
X20855700Y6756734D01*
X20858763Y6763001D01*
X20901214Y6800490D01*
X20925244Y6804500D01*
X21523414Y6804500D01*
X21575740Y6782826D01*
X21597414Y6730500D01*
X21591781Y6702182D01*
X21552147Y6606498D01*
X21552144Y6606488D01*
X21528300Y6486613D01*
X21528300Y6364388D01*
X21552144Y6244513D01*
X21552147Y6244503D01*
X21598918Y6131586D01*
X21646647Y6060154D01*
X21666826Y6029955D01*
X21753255Y5943526D01*
X21854883Y5875620D01*
X21967807Y5828846D01*
X22087686Y5805000D01*
X22087688Y5805000D01*
X22209912Y5805000D01*
X22209914Y5805000D01*
X22329793Y5828846D01*
X22442717Y5875620D01*
X22528388Y5932865D01*
X22583937Y5943913D01*
X22631029Y5912447D01*
X22643500Y5871335D01*
X22643500Y5169500D01*
X22621826Y5117174D01*
X22569500Y5095500D01*
X20755113Y5095500D01*
X20722613Y5103019D01*
X20657181Y5135007D01*
X20609167Y5142003D01*
X20585161Y5145500D01*
X20585160Y5145500D01*
X19114840Y5145500D01*
X19042819Y5135007D01*
X18977388Y5103019D01*
X18944888Y5095500D01*
X16934289Y5095500D01*
X16934273Y5095501D01*
X16929743Y5095501D01*
X16805858Y5095501D01*
X16805856Y5095501D01*
X16686196Y5063438D01*
X16578905Y5001494D01*
X14249814Y2672402D01*
X14211925Y2652150D01*
X14093812Y2628656D01*
X14093802Y2628653D01*
X13980885Y2581882D01*
X13879258Y2513977D01*
X13792823Y2427542D01*
X13724918Y2325915D01*
X13678147Y2212998D01*
X13678144Y2212988D01*
X13660333Y2123444D01*
X13654300Y2093114D01*
X6604000Y2093114D01*
X6604000Y5780300D01*
X6665112Y5780300D01*
X6665114Y5780300D01*
X6784993Y5804146D01*
X6897917Y5850920D01*
X6999545Y5918826D01*
X7085974Y6005255D01*
X7153880Y6106883D01*
X7200654Y6219807D01*
X7224500Y6339686D01*
X7224500Y6461914D01*
X7200654Y6581793D01*
X7199321Y6585012D01*
X7153881Y6694715D01*
X7148149Y6703293D01*
X7085974Y6796345D01*
X6999545Y6882774D01*
X6897917Y6950680D01*
X6897916Y6950681D01*
X6897914Y6950682D01*
X6784997Y6997453D01*
X6784987Y6997456D01*
X6704711Y7013424D01*
X6665114Y7021300D01*
X6665112Y7021300D01*
X6617500Y7021300D01*
X6604000Y7026892D01*
X6604000Y9829148D01*
X6638563Y9852241D01*
X6724992Y9938670D01*
X6725680Y9939699D01*
X6753162Y9980828D01*
X6800254Y10012293D01*
X6814690Y10013715D01*
X7089725Y10013715D01*
X7142051Y9992041D01*
X7151253Y9980829D01*
X7160055Y9967655D01*
X7246484Y9881226D01*
X7348112Y9813320D01*
X7348113Y9813320D01*
X7348114Y9813319D01*
X7432473Y9778377D01*
X7461036Y9766546D01*
X7580915Y9742700D01*
X7580917Y9742700D01*
X7703141Y9742700D01*
X7703143Y9742700D01*
X7823022Y9766546D01*
X7935946Y9813320D01*
X8037574Y9881226D01*
X8124003Y9967655D01*
X8191909Y10069283D01*
X8238683Y10182207D01*
X8262529Y10302086D01*
X8262529Y10424314D01*
X8250898Y10482786D01*
X9930000Y10482786D01*
X9930000Y10360561D01*
X9953844Y10240686D01*
X9953847Y10240676D01*
X10000618Y10127759D01*
X10048820Y10055619D01*
X10068526Y10026128D01*
X10154955Y9939699D01*
X10256583Y9871793D01*
X10256584Y9871793D01*
X10256585Y9871792D01*
X10339495Y9837450D01*
X10369507Y9825019D01*
X10489386Y9801173D01*
X10489388Y9801173D01*
X10611612Y9801173D01*
X10611614Y9801173D01*
X10731493Y9825019D01*
X10844417Y9871793D01*
X10946045Y9939699D01*
X11032474Y10026128D01*
X11041944Y10040301D01*
X11060644Y10068286D01*
X11107736Y10099751D01*
X11122172Y10101173D01*
X14728460Y10101173D01*
X14769572Y10088702D01*
X14819083Y10055620D01*
X14932007Y10008846D01*
X15051886Y9985000D01*
X15051888Y9985000D01*
X15174112Y9985000D01*
X15174114Y9985000D01*
X15293993Y10008846D01*
X15406917Y10055620D01*
X15508545Y10123526D01*
X15594974Y10209955D01*
X15662880Y10311583D01*
X15709654Y10424507D01*
X15733500Y10544386D01*
X15733500Y10666614D01*
X15709654Y10786493D01*
X15697354Y10816189D01*
X15662881Y10899415D01*
X15660053Y10903647D01*
X15594974Y11001045D01*
X15508545Y11087474D01*
X15494930Y11096571D01*
X15406914Y11155382D01*
X15293997Y11202153D01*
X15293987Y11202156D01*
X15213711Y11218124D01*
X15174114Y11226000D01*
X15051886Y11226000D01*
X15017901Y11219240D01*
X14932012Y11202156D01*
X14932002Y11202153D01*
X14819085Y11155382D01*
X14717458Y11087477D01*
X14631023Y11001042D01*
X14563118Y10899415D01*
X14516910Y10787855D01*
X14476862Y10747806D01*
X14448543Y10742173D01*
X11122172Y10742173D01*
X11069846Y10763847D01*
X11060644Y10775060D01*
X11032478Y10817213D01*
X11032476Y10817215D01*
X11032474Y10817218D01*
X10946045Y10903647D01*
X10844417Y10971553D01*
X10844416Y10971554D01*
X10844414Y10971555D01*
X10731497Y11018326D01*
X10731487Y11018329D01*
X10651211Y11034297D01*
X10611614Y11042173D01*
X10489386Y11042173D01*
X10455401Y11035413D01*
X10369512Y11018329D01*
X10369502Y11018326D01*
X10256585Y10971555D01*
X10154958Y10903650D01*
X10068523Y10817215D01*
X10000618Y10715588D01*
X9953847Y10602671D01*
X9953844Y10602661D01*
X9930000Y10482786D01*
X8250898Y10482786D01*
X8238683Y10544193D01*
X8238602Y10544388D01*
X8191910Y10657115D01*
X8143373Y10729755D01*
X8124003Y10758745D01*
X8037574Y10845174D01*
X7990606Y10876557D01*
X7935943Y10913082D01*
X7823026Y10959853D01*
X7823016Y10959856D01*
X7742740Y10975824D01*
X7703143Y10983700D01*
X7580915Y10983700D01*
X7546930Y10976940D01*
X7461041Y10959856D01*
X7461031Y10959853D01*
X7348114Y10913082D01*
X7246487Y10845177D01*
X7246484Y10845174D01*
X7160055Y10758745D01*
X7131219Y10715588D01*
X7112519Y10687602D01*
X7065426Y10656137D01*
X7050990Y10654715D01*
X6814690Y10654715D01*
X6762364Y10676389D01*
X6753162Y10687602D01*
X6724996Y10729755D01*
X6724994Y10729757D01*
X6724992Y10729760D01*
X6638563Y10816189D01*
X6637030Y10817213D01*
X6604000Y10839284D01*
X6604000Y15605914D01*
X9945900Y15605914D01*
X9945900Y15483686D01*
X9951438Y15455847D01*
X9969744Y15363813D01*
X9969747Y15363803D01*
X10016518Y15250886D01*
X10016519Y15250884D01*
X10016520Y15250883D01*
X10084426Y15149255D01*
X10170855Y15062826D01*
X10272483Y14994920D01*
X10272484Y14994920D01*
X10272485Y14994919D01*
X10276476Y14993266D01*
X10385407Y14948146D01*
X10505286Y14924300D01*
X10505288Y14924300D01*
X10627511Y14924300D01*
X10627514Y14924300D01*
X10677242Y14934193D01*
X10732788Y14923145D01*
X10744004Y14913941D01*
X11458147Y14199798D01*
X11458152Y14199792D01*
X11460735Y14197209D01*
X11460736Y14197208D01*
X11520408Y14137536D01*
X11520410Y14137535D01*
X11520411Y14137534D01*
X11562893Y14113007D01*
X11593491Y14095341D01*
X11675005Y14073500D01*
X11675006Y14073500D01*
X11759394Y14073500D01*
X14416265Y14073500D01*
X14468591Y14051826D01*
X14484630Y14027823D01*
X14496120Y14000083D01*
X14564026Y13898455D01*
X14650455Y13812026D01*
X14752083Y13744120D01*
X14752084Y13744120D01*
X14752085Y13744119D01*
X14865002Y13697348D01*
X14865007Y13697346D01*
X14984886Y13673500D01*
X14984888Y13673500D01*
X15107112Y13673500D01*
X15107114Y13673500D01*
X15226993Y13697346D01*
X15339917Y13744120D01*
X15441545Y13812026D01*
X15527974Y13898455D01*
X15595880Y14000083D01*
X15642654Y14113007D01*
X15666500Y14232886D01*
X15666500Y14355114D01*
X15642654Y14474993D01*
X15595880Y14587917D01*
X15527974Y14689545D01*
X15441545Y14775974D01*
X15390373Y14810166D01*
X15339914Y14843882D01*
X15226997Y14890653D01*
X15226987Y14890656D01*
X15146711Y14906624D01*
X15107114Y14914500D01*
X14984886Y14914500D01*
X14950901Y14907740D01*
X14865012Y14890656D01*
X14865002Y14890653D01*
X14752085Y14843882D01*
X14650458Y14775977D01*
X14610654Y14736173D01*
X14558329Y14714500D01*
X11880607Y14714500D01*
X11828281Y14736174D01*
X11197259Y15367196D01*
X11175585Y15419522D01*
X11177005Y15433946D01*
X11186900Y15483686D01*
X11186900Y15605914D01*
X11163054Y15725793D01*
X11116280Y15838717D01*
X11052300Y15934470D01*
X11049371Y15938853D01*
X11036900Y15979965D01*
X11036900Y16044174D01*
X11058574Y16096500D01*
X11110900Y16118174D01*
X11163224Y16096501D01*
X11186729Y16072996D01*
X11288357Y16005090D01*
X11288358Y16005090D01*
X11288359Y16005089D01*
X11355630Y15977225D01*
X11401281Y15958316D01*
X11521160Y15934470D01*
X11521162Y15934470D01*
X11643386Y15934470D01*
X11643388Y15934470D01*
X11663625Y15938496D01*
X11719174Y15927447D01*
X11730389Y15918244D01*
X11858775Y15789858D01*
X11923102Y15725531D01*
X12001886Y15680046D01*
X12089755Y15656501D01*
X12089756Y15656500D01*
X12089758Y15656500D01*
X12180730Y15656500D01*
X13338366Y15656500D01*
X13390692Y15634826D01*
X13409844Y15601656D01*
X13412260Y15592639D01*
X13412261Y15592636D01*
X13434784Y15538260D01*
X13434785Y15538258D01*
X13500608Y15424249D01*
X13500610Y15424247D01*
X13500612Y15424243D01*
X13536448Y15377540D01*
X13629540Y15284448D01*
X13676243Y15248612D01*
X13676247Y15248610D01*
X13676248Y15248609D01*
X13692448Y15239256D01*
X13790257Y15182786D01*
X13844642Y15160259D01*
X13971809Y15126184D01*
X13971812Y15126184D01*
X13971815Y15126183D01*
X13997714Y15122774D01*
X14030174Y15118500D01*
X14030176Y15118500D01*
X14661824Y15118500D01*
X14661826Y15118500D01*
X14706791Y15124420D01*
X14720184Y15126183D01*
X14720184Y15126184D01*
X14720191Y15126184D01*
X14847358Y15160259D01*
X14901743Y15182786D01*
X15015757Y15248612D01*
X15062460Y15284448D01*
X15155552Y15377540D01*
X15191388Y15424243D01*
X15257214Y15538257D01*
X15279741Y15592642D01*
X15313816Y15719809D01*
X15314605Y15725798D01*
X15318690Y15756829D01*
X15321500Y15778174D01*
X15321500Y16344000D01*
X15310463Y16413683D01*
X15286158Y16455781D01*
X15278766Y16511934D01*
X15280419Y16517284D01*
X15284007Y16527511D01*
X15302005Y16552281D01*
X15316298Y16619527D01*
X15317869Y16624003D01*
X15333833Y16641836D01*
X15347390Y16661561D01*
X15352973Y16663216D01*
X15355646Y16666200D01*
X15364748Y16666704D01*
X15387694Y16673500D01*
X16070461Y16673500D01*
X16122787Y16651826D01*
X16525826Y16248787D01*
X16547500Y16196461D01*
X16547500Y15925912D01*
X16525826Y15873586D01*
X16473500Y15851912D01*
X16445182Y15857544D01*
X16429240Y15864148D01*
X16349867Y15897024D01*
X16349862Y15897025D01*
X16349861Y15897026D01*
X16269585Y15912994D01*
X16229988Y15920870D01*
X16107760Y15920870D01*
X16073775Y15914110D01*
X15987886Y15897026D01*
X15987876Y15897023D01*
X15874959Y15850252D01*
X15773332Y15782347D01*
X15686897Y15695912D01*
X15618992Y15594285D01*
X15572221Y15481368D01*
X15572218Y15481358D01*
X15548374Y15361483D01*
X15548374Y15239258D01*
X15572218Y15119383D01*
X15572221Y15119373D01*
X15618992Y15006456D01*
X15618993Y15006454D01*
X15618994Y15006453D01*
X15686900Y14904825D01*
X15773329Y14818396D01*
X15874957Y14750490D01*
X15874958Y14750490D01*
X15874959Y14750489D01*
X15961846Y14714500D01*
X15987881Y14703716D01*
X16038416Y14693664D01*
X16085508Y14662199D01*
X16097980Y14621086D01*
X16097980Y8973763D01*
X16076306Y8921437D01*
X16017019Y8862151D01*
X15971534Y8783367D01*
X15947989Y8695498D01*
X15947989Y7563500D01*
X15926315Y7511174D01*
X15873989Y7489500D01*
X15276984Y7489500D01*
X15224658Y7511174D01*
X15212898Y7526501D01*
X15191394Y7563748D01*
X15191393Y7563750D01*
X15191388Y7563757D01*
X15155552Y7610460D01*
X15062460Y7703552D01*
X15015757Y7739388D01*
X15015753Y7739390D01*
X15015751Y7739392D01*
X14901742Y7805215D01*
X14901740Y7805216D01*
X14847364Y7827739D01*
X14847351Y7827743D01*
X14720193Y7861816D01*
X14720184Y7861818D01*
X14673276Y7867993D01*
X14661826Y7869500D01*
X14661824Y7869500D01*
X14343015Y7869500D01*
X14290689Y7891174D01*
X14269015Y7943500D01*
X14281486Y7984612D01*
X14316680Y8037283D01*
X14363454Y8150207D01*
X14387300Y8270086D01*
X14387300Y8392314D01*
X14363454Y8512193D01*
X14319171Y8619103D01*
X14316681Y8625115D01*
X14298917Y8651700D01*
X14248774Y8726745D01*
X14162345Y8813174D01*
X14160474Y8814424D01*
X14060714Y8881082D01*
X13947797Y8927853D01*
X13947787Y8927856D01*
X13867511Y8943824D01*
X13827914Y8951700D01*
X13705686Y8951700D01*
X13662507Y8943111D01*
X13598619Y8930403D01*
X13543070Y8941452D01*
X13511604Y8988544D01*
X13515814Y9031297D01*
X13550654Y9115407D01*
X13574500Y9235286D01*
X13574500Y9357514D01*
X13550654Y9477393D01*
X13503880Y9590317D01*
X13435974Y9691945D01*
X13349545Y9778374D01*
X13334058Y9788722D01*
X13247914Y9846282D01*
X13134997Y9893053D01*
X13134987Y9893056D01*
X13053024Y9909359D01*
X13015114Y9916900D01*
X12892886Y9916900D01*
X12858901Y9910140D01*
X12773012Y9893056D01*
X12773002Y9893053D01*
X12660085Y9846282D01*
X12558458Y9778377D01*
X12558457Y9778376D01*
X12472028Y9691948D01*
X12472026Y9691945D01*
X12460560Y9674787D01*
X12413469Y9643322D01*
X12399033Y9641900D01*
X11372812Y9641900D01*
X11284942Y9618355D01*
X11206158Y9572870D01*
X11070114Y9436827D01*
X11017787Y9415153D01*
X11003355Y9416574D01*
X10983114Y9420600D01*
X10860886Y9420600D01*
X10833503Y9415153D01*
X10741012Y9396756D01*
X10741002Y9396753D01*
X10628085Y9349982D01*
X10526458Y9282077D01*
X10440023Y9195642D01*
X10372118Y9094015D01*
X10325347Y8981098D01*
X10325344Y8981088D01*
X10312798Y8918013D01*
X10301687Y8862151D01*
X10301500Y8861213D01*
X10301500Y8738988D01*
X10325344Y8619113D01*
X10325347Y8619103D01*
X10372118Y8506186D01*
X10429780Y8419888D01*
X10440026Y8404555D01*
X10526455Y8318126D01*
X10628083Y8250220D01*
X10628084Y8250220D01*
X10628085Y8250219D01*
X10741002Y8203448D01*
X10741007Y8203446D01*
X10860886Y8179600D01*
X10860888Y8179600D01*
X10983112Y8179600D01*
X10983114Y8179600D01*
X11042413Y8191396D01*
X11097961Y8180347D01*
X11129427Y8133255D01*
X11153344Y8013013D01*
X11153347Y8013003D01*
X11200118Y7900086D01*
X11263509Y7805214D01*
X11268026Y7798455D01*
X11354455Y7712026D01*
X11456083Y7644120D01*
X11456084Y7644120D01*
X11456085Y7644119D01*
X11569002Y7597348D01*
X11569007Y7597346D01*
X11688886Y7573500D01*
X11688888Y7573500D01*
X11811112Y7573500D01*
X11811114Y7573500D01*
X11930993Y7597346D01*
X12043917Y7644120D01*
X12145545Y7712026D01*
X12231974Y7798455D01*
X12299880Y7900083D01*
X12326776Y7965019D01*
X12366823Y8005067D01*
X12395143Y8010700D01*
X13195128Y8010700D01*
X13247454Y7989026D01*
X13256656Y7977813D01*
X13284821Y7935661D01*
X13284823Y7935659D01*
X13284826Y7935655D01*
X13371255Y7849226D01*
X13472883Y7781320D01*
X13472884Y7781320D01*
X13472885Y7781319D01*
X13536327Y7755041D01*
X13576376Y7714993D01*
X13576376Y7658356D01*
X13560336Y7634349D01*
X13536449Y7610462D01*
X13500608Y7563752D01*
X13434785Y7449743D01*
X13434784Y7449741D01*
X13412261Y7395365D01*
X13412257Y7395352D01*
X13378184Y7268194D01*
X13378182Y7268185D01*
X13370500Y7209825D01*
X13370500Y6644000D01*
X13381537Y6574315D01*
X13405841Y6532219D01*
X13413233Y6476067D01*
X13401624Y6451726D01*
X13389995Y6435720D01*
X13389994Y6435718D01*
X13370500Y6344000D01*
X13370500Y5778176D01*
X13378182Y5719816D01*
X13378184Y5719807D01*
X13412257Y5592649D01*
X13412261Y5592636D01*
X13434784Y5538260D01*
X13434785Y5538258D01*
X13500608Y5424249D01*
X13500610Y5424247D01*
X13500612Y5424243D01*
X13536448Y5377540D01*
X13629540Y5284448D01*
X13676243Y5248612D01*
X13790257Y5182786D01*
X13844642Y5160259D01*
X13871862Y5152966D01*
X13916793Y5118488D01*
X13924186Y5062335D01*
X13914236Y5040377D01*
X13879897Y4988986D01*
X13879896Y4988983D01*
X13833124Y4876064D01*
X13833121Y4876054D01*
X13809277Y4756179D01*
X13809277Y4633954D01*
X13833121Y4514079D01*
X13833124Y4514069D01*
X13879895Y4401152D01*
X13923357Y4336106D01*
X13947803Y4299521D01*
X14034232Y4213092D01*
X14135860Y4145186D01*
X14135861Y4145186D01*
X14135862Y4145185D01*
X14234086Y4104500D01*
X14248784Y4098412D01*
X14368663Y4074566D01*
X14368665Y4074566D01*
X14490889Y4074566D01*
X14490891Y4074566D01*
X14610770Y4098412D01*
X14723694Y4145186D01*
X14825322Y4213092D01*
X14911751Y4299521D01*
X14979657Y4401149D01*
X15026431Y4514073D01*
X15050277Y4633952D01*
X15050277Y4756180D01*
X15026431Y4876059D01*
X15023831Y4882336D01*
X15018200Y4910649D01*
X15018200Y5213994D01*
X15018587Y5214929D01*
X15018224Y5215873D01*
X15022272Y5223827D01*
X15039874Y5266320D01*
X15041220Y5267632D01*
X15044050Y5270323D01*
X15062460Y5284448D01*
X15130497Y5352486D01*
X15131184Y5353138D01*
X15156801Y5362995D01*
X15182164Y5373500D01*
X16057945Y5373500D01*
X16057945Y5373501D01*
X16177606Y5405564D01*
X16209959Y5424243D01*
X16284894Y5467506D01*
X16372494Y5555106D01*
X16372495Y5555109D01*
X17186253Y6368865D01*
X17605274Y6368865D01*
X17605274Y6246637D01*
X17605945Y6243266D01*
X17629118Y6126764D01*
X17629121Y6126754D01*
X17675892Y6013837D01*
X17739376Y5918826D01*
X17743800Y5912206D01*
X17830229Y5825777D01*
X17931857Y5757871D01*
X18044781Y5711097D01*
X18164660Y5687251D01*
X18164662Y5687251D01*
X18286887Y5687251D01*
X18286888Y5687251D01*
X18336615Y5697143D01*
X18392164Y5686094D01*
X18403377Y5676891D01*
X18461732Y5618537D01*
X18461733Y5618536D01*
X18534816Y5576341D01*
X18616330Y5554500D01*
X18774756Y5554500D01*
X18827082Y5532826D01*
X18841235Y5513003D01*
X18844300Y5506734D01*
X18931734Y5419300D01*
X19042821Y5364993D01*
X19114839Y5354500D01*
X20585160Y5354501D01*
X20657179Y5364993D01*
X20768266Y5419300D01*
X20855700Y5506734D01*
X20910007Y5617821D01*
X20920500Y5689839D01*
X20920499Y6060160D01*
X20910007Y6132179D01*
X20855700Y6243266D01*
X20768266Y6330700D01*
X20657179Y6385007D01*
X20585161Y6395500D01*
X20585160Y6395500D01*
X19114840Y6395500D01*
X19042819Y6385007D01*
X18947096Y6338211D01*
X18890568Y6334702D01*
X18848115Y6372192D01*
X18842020Y6390250D01*
X18822428Y6488744D01*
X18796875Y6550436D01*
X18775655Y6601666D01*
X18775654Y6601668D01*
X18707748Y6703296D01*
X18621319Y6789725D01*
X18608186Y6798500D01*
X18519688Y6857633D01*
X18406771Y6904404D01*
X18406761Y6904407D01*
X18326485Y6920375D01*
X18286888Y6928251D01*
X18164660Y6928251D01*
X18130675Y6921491D01*
X18044786Y6904407D01*
X18044776Y6904404D01*
X17931859Y6857633D01*
X17830232Y6789728D01*
X17743797Y6703293D01*
X17675892Y6601666D01*
X17629121Y6488749D01*
X17629118Y6488739D01*
X17618572Y6435719D01*
X17605274Y6368865D01*
X17186253Y6368865D01*
X17394494Y6577106D01*
X17456436Y6684394D01*
X17488499Y6804055D01*
X17488500Y6804055D01*
X17488500Y7642036D01*
X17500970Y7683147D01*
X17567880Y7783283D01*
X17614654Y7896207D01*
X17638500Y8016086D01*
X17638500Y8138314D01*
X17614654Y8258193D01*
X17567880Y8371117D01*
X17500971Y8471253D01*
X17488500Y8512365D01*
X17488500Y8625001D01*
X18606838Y8625001D01*
X18606839Y8625000D01*
X19600000Y8625000D01*
X19600000Y9075000D01*
X19106939Y9075000D01*
X19018556Y9064386D01*
X18877907Y9008923D01*
X18757435Y8917565D01*
X18666077Y8797093D01*
X18610614Y8656445D01*
X18606838Y8625001D01*
X17488500Y8625001D01*
X17488500Y15998936D01*
X17680878Y15998936D01*
X17680878Y15876708D01*
X17686141Y15850252D01*
X17704722Y15756835D01*
X17704725Y15756825D01*
X17751496Y15643908D01*
X17776883Y15605913D01*
X17819404Y15542277D01*
X17905833Y15455848D01*
X18007461Y15387942D01*
X18007462Y15387942D01*
X18007463Y15387941D01*
X18088196Y15354501D01*
X18120385Y15341168D01*
X18240264Y15317322D01*
X18240266Y15317322D01*
X18362490Y15317322D01*
X18362492Y15317322D01*
X18482371Y15341168D01*
X18595295Y15387942D01*
X18696923Y15455848D01*
X18743729Y15502655D01*
X18796054Y15524328D01*
X18848380Y15502654D01*
X18931734Y15419300D01*
X19042821Y15364993D01*
X19114839Y15354500D01*
X20585160Y15354501D01*
X20657179Y15364993D01*
X20768266Y15419300D01*
X20855700Y15506734D01*
X20910007Y15617821D01*
X20920500Y15689839D01*
X20920499Y16060160D01*
X20910007Y16132179D01*
X20855700Y16243266D01*
X20768266Y16330700D01*
X20657179Y16385007D01*
X20585161Y16395500D01*
X20585160Y16395500D01*
X19114840Y16395500D01*
X19042819Y16385007D01*
X18931734Y16330701D01*
X18907612Y16306579D01*
X18855286Y16284906D01*
X18802960Y16306581D01*
X18793759Y16317793D01*
X18783354Y16333364D01*
X18783351Y16333368D01*
X18747545Y16369174D01*
X18696923Y16419796D01*
X18674432Y16434824D01*
X18595292Y16487704D01*
X18482375Y16534475D01*
X18482365Y16534478D01*
X18392861Y16552281D01*
X18362492Y16558322D01*
X18240264Y16558322D01*
X18209895Y16552281D01*
X18120390Y16534478D01*
X18120380Y16534475D01*
X18007463Y16487704D01*
X17905836Y16419799D01*
X17819401Y16333364D01*
X17751496Y16231737D01*
X17704725Y16118820D01*
X17704722Y16118810D01*
X17684816Y16018735D01*
X17680878Y15998936D01*
X17488500Y15998936D01*
X17488500Y16483945D01*
X17488499Y16483946D01*
X17456437Y16603604D01*
X17444660Y16624003D01*
X17394494Y16710894D01*
X17306894Y16798494D01*
X17306893Y16798495D01*
X16676713Y17428674D01*
X16676712Y17428676D01*
X16584894Y17520494D01*
X16477603Y17582438D01*
X16357945Y17614500D01*
X16357943Y17614500D01*
X15182164Y17614500D01*
X15129838Y17636174D01*
X15062461Y17703551D01*
X15041922Y17719311D01*
X15015757Y17739388D01*
X15015753Y17739390D01*
X15015751Y17739392D01*
X14901742Y17805215D01*
X14901740Y17805216D01*
X14847364Y17827739D01*
X14847351Y17827743D01*
X14720193Y17861816D01*
X14720184Y17861818D01*
X14673276Y17867993D01*
X14661826Y17869500D01*
X14661824Y17869500D01*
X14066539Y17869500D01*
X14014213Y17891174D01*
X13976714Y17928673D01*
X13976712Y17928676D01*
X13884892Y18020496D01*
X13882493Y18021881D01*
X13881643Y18022989D01*
X13881047Y18023446D01*
X13881169Y18023606D01*
X13848019Y18066818D01*
X13845500Y18085963D01*
X13845500Y18625001D01*
X18606838Y18625001D01*
X18606839Y18625000D01*
X19600000Y18625000D01*
X20100000Y18625000D01*
X21093161Y18625000D01*
X21093161Y18625001D01*
X21089385Y18656445D01*
X21033922Y18797093D01*
X20942564Y18917565D01*
X20822092Y19008923D01*
X20681443Y19064386D01*
X20593061Y19075000D01*
X20100000Y19075000D01*
X20100000Y18625000D01*
X19600000Y18625000D01*
X19600000Y19075000D01*
X19106939Y19075000D01*
X19018556Y19064386D01*
X18877907Y19008923D01*
X18757435Y18917565D01*
X18666077Y18797093D01*
X18610614Y18656445D01*
X18606838Y18625001D01*
X13845500Y18625001D01*
X13845500Y18629836D01*
X13857970Y18670947D01*
X13924880Y18771083D01*
X13971654Y18884007D01*
X13995500Y19003886D01*
X13995500Y19126114D01*
X13971654Y19245993D01*
X13924880Y19358917D01*
X13856974Y19460545D01*
X13770545Y19546974D01*
X13668917Y19614880D01*
X13668916Y19614881D01*
X13668914Y19614882D01*
X13555997Y19661653D01*
X13555987Y19661656D01*
X13475711Y19677624D01*
X13436114Y19685500D01*
X13313886Y19685500D01*
X13279901Y19678740D01*
X13194012Y19661656D01*
X13194002Y19661653D01*
X13081085Y19614882D01*
X12979458Y19546977D01*
X12893023Y19460542D01*
X12825118Y19358915D01*
X12778347Y19245998D01*
X12778344Y19245988D01*
X12754500Y19126113D01*
X12754500Y19003888D01*
X12778344Y18884013D01*
X12778347Y18884003D01*
X12825118Y18771086D01*
X12825119Y18771084D01*
X12825120Y18771083D01*
X12892029Y18670947D01*
X12904500Y18629836D01*
X12904500Y18188500D01*
X12882826Y18136174D01*
X12830500Y18114500D01*
X11332664Y18114500D01*
X11213005Y18082438D01*
X11213000Y18082436D01*
X11105714Y18020494D01*
X10189906Y17104686D01*
X10127962Y16997395D01*
X10095900Y16877737D01*
X10095900Y15979965D01*
X10083429Y15938853D01*
X10016518Y15838715D01*
X9969747Y15725798D01*
X9969744Y15725788D01*
X9953457Y15643905D01*
X9945900Y15605914D01*
X6604000Y15605914D01*
X6604000Y19909359D01*
X21300000Y19909359D01*
X21302900Y19872507D01*
X21348718Y19714801D01*
X21432317Y19573444D01*
X21548443Y19457318D01*
X21689800Y19373719D01*
X21847508Y19327901D01*
X21847505Y19327901D01*
X21884359Y19325000D01*
X22800000Y19325000D01*
X22800000Y19975000D01*
X21300000Y19975000D01*
X21300000Y19909359D01*
X6604000Y19909359D01*
X6604000Y20540642D01*
X21300000Y20540642D01*
X21300000Y20475000D01*
X22800000Y20475000D01*
X22800000Y21125000D01*
X21884359Y21125000D01*
X21847506Y21122100D01*
X21689800Y21076282D01*
X21548443Y20992683D01*
X21432317Y20876557D01*
X21348718Y20735200D01*
X21302900Y20577494D01*
X21300000Y20540642D01*
X6604000Y20540642D01*
X6604000Y21096606D01*
X11132403Y21096606D01*
X11132403Y21784074D01*
X11154077Y21836400D01*
X11206403Y21858074D01*
X11258729Y21836400D01*
X11376381Y21718748D01*
X11553223Y21583054D01*
X11553226Y21583052D01*
X11746274Y21471595D01*
X11952219Y21386290D01*
X12167537Y21328596D01*
X12388543Y21299500D01*
X12388545Y21299500D01*
X12611455Y21299500D01*
X12611457Y21299500D01*
X12832463Y21328596D01*
X13047781Y21386290D01*
X13253726Y21471595D01*
X13446774Y21583052D01*
X13542309Y21656359D01*
X13623618Y21718748D01*
X13623619Y21718750D01*
X13623624Y21718753D01*
X13781247Y21876376D01*
X13916948Y22053226D01*
X14028405Y22246274D01*
X14113710Y22452219D01*
X14113710Y22452222D01*
X14114372Y22453818D01*
X14154420Y22493867D01*
X14182739Y22499500D01*
X16048713Y22499500D01*
X16101039Y22477826D01*
G37*
%TD.AperFunction*%
%TD*%
M02*
