M48
; DRILL file {KiCad 7.0.10-7.0.10~ubuntu23.04.1} date Tue Feb 13 12:53:33 2024
; FORMAT={3:3/ absolute / metric / suppress leading zeros}
; #@! TF.CreationDate,2024-02-13T12:53:33+00:00
; #@! TF.GenerationSoftware,Kicad,Pcbnew,7.0.10-7.0.10~ubuntu23.04.1
; #@! TF.FileFunction,Plated,1,2,PTH
FMAT,2
METRIC,TZ
; #@! TA.AperFunction,Plated,PTH,ViaDrill
T1C0.400
%
G90
G05
T1
X1046Y18794
X1046Y4294
X1067Y14275
X1067Y11481
X1321Y8788
X2146Y18794
X2146Y4294
X2235Y11481
X2337Y14275
X4846Y9494
X5994Y2134
X6243Y10334
X6299Y19152
X6299Y17983
X6604Y6401
X7518Y12548
X7642Y10363
X8000Y8900
X9601Y11125
X10100Y14500
X10551Y10422
X10566Y15545
X10668Y4521
X10922Y8800
X11582Y16555
X11750Y8194
X12548Y7061
X12954Y9296
X13375Y19065
X13767Y8331
X14275Y2032
X14430Y4695
X14580Y8992
X15046Y14294
X15113Y10606
X16169Y15300
X17018Y8077
X18226Y6308
X18301Y15938
X20422Y2845
X21717Y8375
X22149Y16459
X22149Y6426
X22446Y18094
X23114Y19152
X23146Y11494
X23774Y4216
X23978Y19152
X24146Y11494
M30
