%TF.GenerationSoftware,KiCad,Pcbnew,9.0.1+1*%
%TF.CreationDate,2025-09-26T18:41:14+00:00*%
%TF.ProjectId,TFI2CADT01,54464932-4341-4445-9430-312e6b696361,rev?*%
%TF.SameCoordinates,PX7a53eb0PY6e37550*%
%TF.FileFunction,Copper,L2,Bot*%
%TF.FilePolarity,Positive*%
%FSLAX46Y46*%
G04 Gerber Fmt 4.6, Leading zero omitted, Abs format (unit mm)*
G04 Created by KiCad (PCBNEW 9.0.1+1) date 2025-09-26 18:41:14*
%MOMM*%
%LPD*%
G01*
G04 APERTURE LIST*
G04 Aperture macros list*
%AMRoundRect*
0 Rectangle with rounded corners*
0 $1 Rounding radius*
0 $2 $3 $4 $5 $6 $7 $8 $9 X,Y pos of 4 corners*
0 Add a 4 corners polygon primitive as box body*
4,1,4,$2,$3,$4,$5,$6,$7,$8,$9,$2,$3,0*
0 Add four circle primitives for the rounded corners*
1,1,$1+$1,$2,$3*
1,1,$1+$1,$4,$5*
1,1,$1+$1,$6,$7*
1,1,$1+$1,$8,$9*
0 Add four rect primitives between the rounded corners*
20,1,$1+$1,$2,$3,$4,$5,0*
20,1,$1+$1,$4,$5,$6,$7,0*
20,1,$1+$1,$6,$7,$8,$9,0*
20,1,$1+$1,$8,$9,$2,$3,0*%
G04 Aperture macros list end*
%TA.AperFunction,SMDPad,CuDef*%
%ADD10RoundRect,0.200000X0.200000X0.275000X-0.200000X0.275000X-0.200000X-0.275000X0.200000X-0.275000X0*%
%TD*%
%TA.AperFunction,SMDPad,CuDef*%
%ADD11RoundRect,0.218750X-0.256250X0.218750X-0.256250X-0.218750X0.256250X-0.218750X0.256250X0.218750X0*%
%TD*%
%TA.AperFunction,SMDPad,CuDef*%
%ADD12RoundRect,0.225000X-0.225000X-0.250000X0.225000X-0.250000X0.225000X0.250000X-0.225000X0.250000X0*%
%TD*%
%TA.AperFunction,SMDPad,CuDef*%
%ADD13R,0.700000X0.600000*%
%TD*%
%TA.AperFunction,SMDPad,CuDef*%
%ADD14RoundRect,0.200000X-0.275000X0.200000X-0.275000X-0.200000X0.275000X-0.200000X0.275000X0.200000X0*%
%TD*%
%TA.AperFunction,SMDPad,CuDef*%
%ADD15RoundRect,0.200000X0.275000X-0.200000X0.275000X0.200000X-0.275000X0.200000X-0.275000X-0.200000X0*%
%TD*%
%TA.AperFunction,SMDPad,CuDef*%
%ADD16RoundRect,0.200000X-0.200000X-0.275000X0.200000X-0.275000X0.200000X0.275000X-0.200000X0.275000X0*%
%TD*%
%TA.AperFunction,SMDPad,CuDef*%
%ADD17RoundRect,0.150000X-0.700000X0.150000X-0.700000X-0.150000X0.700000X-0.150000X0.700000X0.150000X0*%
%TD*%
%TA.AperFunction,SMDPad,CuDef*%
%ADD18RoundRect,0.250000X-1.100000X0.250000X-1.100000X-0.250000X1.100000X-0.250000X1.100000X0.250000X0*%
%TD*%
%TA.AperFunction,SMDPad,CuDef*%
%ADD19RoundRect,0.150000X0.700000X-0.150000X0.700000X0.150000X-0.700000X0.150000X-0.700000X-0.150000X0*%
%TD*%
%TA.AperFunction,SMDPad,CuDef*%
%ADD20RoundRect,0.250000X1.100000X-0.250000X1.100000X0.250000X-1.100000X0.250000X-1.100000X-0.250000X0*%
%TD*%
%TA.AperFunction,SMDPad,CuDef*%
%ADD21RoundRect,0.150000X0.150000X-0.512500X0.150000X0.512500X-0.150000X0.512500X-0.150000X-0.512500X0*%
%TD*%
%TA.AperFunction,SMDPad,CuDef*%
%ADD22R,0.250000X0.650000*%
%TD*%
%TA.AperFunction,SMDPad,CuDef*%
%ADD23R,4.400000X1.660000*%
%TD*%
%TA.AperFunction,SMDPad,CuDef*%
%ADD24RoundRect,0.250000X-0.475000X0.250000X-0.475000X-0.250000X0.475000X-0.250000X0.475000X0.250000X0*%
%TD*%
%TA.AperFunction,SMDPad,CuDef*%
%ADD25RoundRect,0.225000X-0.250000X0.225000X-0.250000X-0.225000X0.250000X-0.225000X0.250000X0.225000X0*%
%TD*%
%TA.AperFunction,ViaPad*%
%ADD26C,0.800000*%
%TD*%
%TA.AperFunction,Conductor*%
%ADD27C,0.250000*%
%TD*%
%TA.AperFunction,Conductor*%
%ADD28C,0.200000*%
%TD*%
%TA.AperFunction,Conductor*%
%ADD29C,0.500000*%
%TD*%
G04 APERTURE END LIST*
D10*
%TO.P,R7,1*%
%TO.N,/XORH1*%
X15025000Y20269200D03*
%TO.P,R7,2*%
%TO.N,+3V3*%
X13375000Y20269200D03*
%TD*%
D11*
%TO.P,D1,1,K*%
%TO.N,GND*%
X8000000Y7787500D03*
%TO.P,D1,2,A*%
%TO.N,Net-(D1-A)*%
X8000000Y6212500D03*
%TD*%
D12*
%TO.P,C2,1*%
%TO.N,+5V*%
X15430200Y2032000D03*
%TO.P,C2,2*%
%TO.N,GND*%
X16980200Y2032000D03*
%TD*%
D13*
%TO.P,D2,1,K*%
%TO.N,+5V*%
X7366000Y4637000D03*
%TO.P,D2,2,A*%
%TO.N,GND*%
X7366000Y3237000D03*
%TD*%
D14*
%TO.P,R5,1*%
%TO.N,+3V3*%
X17780000Y7288800D03*
%TO.P,R5,2*%
%TO.N,/SCLout1*%
X17780000Y5638800D03*
%TD*%
D15*
%TO.P,R16,1*%
%TO.N,+3V3*%
X16129000Y8890000D03*
%TO.P,R16,2*%
%TO.N,/SCLout2*%
X16129000Y10540000D03*
%TD*%
D12*
%TO.P,C3,1*%
%TO.N,+3V3*%
X15430200Y3694000D03*
%TO.P,C3,2*%
%TO.N,GND*%
X16980200Y3694000D03*
%TD*%
D14*
%TO.P,R15,1*%
%TO.N,/XORL2*%
X8255000Y20547600D03*
%TO.P,R15,2*%
%TO.N,GND*%
X8255000Y18897600D03*
%TD*%
D16*
%TO.P,R12,1*%
%TO.N,/XORH2*%
X9975000Y17907000D03*
%TO.P,R12,2*%
%TO.N,+3V3*%
X11625000Y17907000D03*
%TD*%
D17*
%TO.P,J5,1*%
%TO.N,+5V*%
X19850000Y18375000D03*
%TO.P,J5,2*%
%TO.N,/SCLout2*%
X19850000Y17125000D03*
%TO.P,J5,3*%
%TO.N,/SDAout2*%
X19850000Y15875000D03*
%TO.P,J5,4*%
%TO.N,GND*%
X19850000Y14625000D03*
D18*
%TO.P,J5,MP*%
X23050000Y20225000D03*
X23050000Y12775000D03*
%TD*%
D14*
%TO.P,R8,1*%
%TO.N,/XORH1*%
X16764000Y20535400D03*
%TO.P,R8,2*%
%TO.N,GND*%
X16764000Y18885400D03*
%TD*%
D19*
%TO.P,J1,1*%
%TO.N,+5V*%
X5150000Y4625000D03*
%TO.P,J1,2*%
%TO.N,/SCLin*%
X5150000Y5875000D03*
%TO.P,J1,3*%
%TO.N,/SDAin*%
X5150000Y7125000D03*
%TO.P,J1,4*%
%TO.N,GND*%
X5150000Y8375000D03*
D20*
%TO.P,J1,MP*%
X1950000Y2775000D03*
X1950000Y10225000D03*
%TD*%
D16*
%TO.P,R14,1*%
%TO.N,/XORL2*%
X9975000Y20269200D03*
%TO.P,R14,2*%
%TO.N,+3V3*%
X11625000Y20269200D03*
%TD*%
D21*
%TO.P,U1,1,VIN*%
%TO.N,+5V*%
X13446800Y3434500D03*
%TO.P,U1,2,GND*%
%TO.N,GND*%
X12496800Y3434500D03*
%TO.P,U1,3,EN*%
%TO.N,+5V*%
X11546800Y3434500D03*
%TO.P,U1,4,NC*%
%TO.N,unconnected-(U1-NC-Pad4)*%
X11546800Y5709500D03*
%TO.P,U1,5,VOUT*%
%TO.N,+3V3*%
X13446800Y5709500D03*
%TD*%
D15*
%TO.P,R13,1*%
%TO.N,/XORH2*%
X8255000Y15697200D03*
%TO.P,R13,2*%
%TO.N,GND*%
X8255000Y17347200D03*
%TD*%
%TO.P,R1,1*%
%TO.N,+5V*%
X9804400Y6236200D03*
%TO.P,R1,2*%
%TO.N,Net-(D1-A)*%
X9804400Y7886200D03*
%TD*%
D14*
%TO.P,R6,1*%
%TO.N,+3V3*%
X16103600Y7264400D03*
%TO.P,R6,2*%
%TO.N,/SDAout1*%
X16103600Y5614400D03*
%TD*%
%TO.P,R2,1*%
%TO.N,+3V3*%
X8636000Y12051800D03*
%TO.P,R2,2*%
%TO.N,/SCLin*%
X8636000Y10401800D03*
%TD*%
D10*
%TO.P,R9,1*%
%TO.N,/XORL1*%
X15025000Y17907000D03*
%TO.P,R9,2*%
%TO.N,+3V3*%
X13375000Y17907000D03*
%TD*%
%TO.P,R3,1*%
%TO.N,+3V3*%
X8826000Y13766800D03*
%TO.P,R3,2*%
%TO.N,/SDAin*%
X7176000Y13766800D03*
%TD*%
D15*
%TO.P,R17,1*%
%TO.N,+3V3*%
X17780000Y8890000D03*
%TO.P,R17,2*%
%TO.N,/SDAout2*%
X17780000Y10540000D03*
%TD*%
D17*
%TO.P,J3,1*%
%TO.N,+5V*%
X19850000Y8375000D03*
%TO.P,J3,2*%
%TO.N,/SCLout1*%
X19850000Y7125000D03*
%TO.P,J3,3*%
%TO.N,/SDAout1*%
X19850000Y5875000D03*
%TO.P,J3,4*%
%TO.N,GND*%
X19850000Y4625000D03*
D18*
%TO.P,J3,MP*%
X23050000Y10225000D03*
X23050000Y2775000D03*
%TD*%
D19*
%TO.P,J2,1*%
%TO.N,+5V*%
X5150000Y14625000D03*
%TO.P,J2,2*%
%TO.N,/SCLin*%
X5150000Y15875000D03*
%TO.P,J2,3*%
%TO.N,/SDAin*%
X5150000Y17125000D03*
%TO.P,J2,4*%
%TO.N,GND*%
X5150000Y18375000D03*
D20*
%TO.P,J2,MP*%
X1950000Y12775000D03*
X1950000Y20225000D03*
%TD*%
D22*
%TO.P,U2,1,GND*%
%TO.N,GND*%
X10750000Y14277400D03*
%TO.P,U2,2,ENABLE2*%
%TO.N,+3V3*%
X11250000Y14277400D03*
%TO.P,U2,3,XORH2*%
%TO.N,/XORH2*%
X11750000Y14277400D03*
%TO.P,U2,4,XORL2*%
%TO.N,/XORL2*%
X12250000Y14277400D03*
%TO.P,U2,5,XORH1*%
%TO.N,/XORH1*%
X12750000Y14277400D03*
%TO.P,U2,6,XORL1*%
%TO.N,/XORL1*%
X13250000Y14277400D03*
%TO.P,U2,7,VCC*%
%TO.N,+3V3*%
X13750000Y14277400D03*
%TO.P,U2,8,ENABLE1*%
X14250000Y14277400D03*
%TO.P,U2,9,READY2*%
%TO.N,GND*%
X14250000Y11427400D03*
%TO.P,U2,10,READY1*%
X13750000Y11427400D03*
%TO.P,U2,11,SDAOUT2*%
%TO.N,/SDAout2*%
X13250000Y11427400D03*
%TO.P,U2,12,SDAIN*%
%TO.N,/SDAin*%
X12750000Y11427400D03*
%TO.P,U2,13,SDAOUT1*%
%TO.N,/SDAout1*%
X12250000Y11427400D03*
%TO.P,U2,14,SCLOUT1*%
%TO.N,/SCLout1*%
X11750000Y11427400D03*
%TO.P,U2,15,SCLIN*%
%TO.N,/SCLin*%
X11250000Y11427400D03*
%TO.P,U2,16,SCLOUT2*%
%TO.N,/SCLout2*%
X10750000Y11427400D03*
D23*
%TO.P,U2,17,EP*%
%TO.N,GND*%
X12500000Y12852400D03*
%TD*%
D24*
%TO.P,C1,1*%
%TO.N,+5V*%
X9245600Y4455200D03*
%TO.P,C1,2*%
%TO.N,GND*%
X9245600Y2555200D03*
%TD*%
D15*
%TO.P,R10,1*%
%TO.N,/XORL1*%
X16764000Y15735800D03*
%TO.P,R10,2*%
%TO.N,GND*%
X16764000Y17385800D03*
%TD*%
D25*
%TO.P,C4,1*%
%TO.N,+3V3*%
X16383000Y14097000D03*
%TO.P,C4,2*%
%TO.N,GND*%
X16383000Y12547000D03*
%TD*%
D26*
%TO.N,GND*%
X2146000Y18794000D03*
X2146000Y4294000D03*
X1066800Y11480800D03*
X9601200Y11125200D03*
X4846000Y9494000D03*
X10100000Y14500000D03*
X1046000Y4294000D03*
X23114000Y19151600D03*
X23977600Y19151600D03*
X20421600Y2844800D03*
X6299200Y17983200D03*
X1046000Y18794000D03*
X6299200Y19151600D03*
X1320800Y8788400D03*
X7518400Y12547600D03*
X8000000Y8900000D03*
X12547600Y7061200D03*
X23774400Y4216400D03*
X2336800Y14274800D03*
X14579600Y8991600D03*
X23146000Y11494000D03*
X10668000Y4521200D03*
X24146000Y11494000D03*
X1066800Y14274800D03*
X5994400Y2133600D03*
X2235200Y11480800D03*
%TO.N,+3V3*%
X14429777Y4695066D03*
X13375000Y19065000D03*
X17018000Y8077200D03*
X10566400Y15544800D03*
X15046000Y14294000D03*
%TO.N,+5V*%
X22446000Y18094000D03*
X21717000Y8375000D03*
X14274800Y2032000D03*
%TO.N,/SDAin*%
X10922000Y8800100D03*
X12954000Y9296400D03*
%TO.N,/SCLin*%
X6604000Y6400800D03*
X7642029Y10363200D03*
X6243018Y10334215D03*
%TO.N,/SCLout1*%
X11750000Y8194000D03*
X13766800Y8331200D03*
X18225774Y6307751D03*
%TO.N,/SDAout1*%
X22148800Y6425500D03*
%TO.N,/SCLout2*%
X18301378Y15937822D03*
X15113000Y10605500D03*
X10550500Y10421673D03*
%TO.N,/SDAout2*%
X22148800Y16459200D03*
%TO.N,/XORL1*%
X16168874Y15300370D03*
%TO.N,/XORL2*%
X11582274Y16554970D03*
%TD*%
D27*
%TO.N,GND*%
X10400000Y14800000D02*
X10100000Y14500000D01*
X14200000Y10300000D02*
X14250000Y10350000D01*
X10700000Y14800000D02*
X10400000Y14800000D01*
X10750000Y14277400D02*
X10750000Y14750000D01*
X14250000Y10350000D02*
X14250000Y11427400D01*
X13750000Y11427400D02*
X13750000Y10350000D01*
X10750000Y14750000D02*
X10700000Y14800000D01*
X13750000Y10350000D02*
X13800000Y10300000D01*
X13800000Y10300000D02*
X14200000Y10300000D01*
D28*
%TO.N,+3V3*%
X8991600Y15036800D02*
X9499600Y15036800D01*
X15343000Y14097000D02*
X15046000Y14394000D01*
D29*
X17780000Y7315200D02*
X17780000Y7288800D01*
X11625000Y20269200D02*
X11625000Y17907000D01*
X14494334Y4695066D02*
X14429777Y4695066D01*
D28*
X14250000Y15418400D02*
X14325600Y15494000D01*
D29*
X14429777Y4695066D02*
X14429777Y5382223D01*
X16916400Y8077200D02*
X16103600Y7264400D01*
D28*
X16383000Y14097000D02*
X15343000Y14097000D01*
D29*
X17018000Y8077200D02*
X16916400Y8077200D01*
D28*
X14325600Y15494000D02*
X14986000Y15494000D01*
X13817600Y15494000D02*
X14325600Y15494000D01*
X13750000Y15090000D02*
X13750000Y15426400D01*
D29*
X13375000Y20269200D02*
X11625000Y20269200D01*
X13375000Y20269200D02*
X13375000Y19065000D01*
D28*
X10007600Y15544800D02*
X10566400Y15544800D01*
D29*
X13375000Y19065000D02*
X13375000Y17907000D01*
D28*
X13750000Y14277400D02*
X13750000Y15090000D01*
D29*
X16941800Y8077200D02*
X16129000Y8890000D01*
D28*
X10972800Y15544800D02*
X10566400Y15544800D01*
X9499600Y15036800D02*
X10007600Y15544800D01*
D29*
X17018000Y8077200D02*
X17780000Y7315200D01*
D28*
X8636000Y12051800D02*
X8636000Y13576800D01*
X8826000Y14871200D02*
X8991600Y15036800D01*
X8636000Y13576800D02*
X8826000Y13766800D01*
D29*
X17780000Y8839200D02*
X17780000Y8890000D01*
X17018000Y8077200D02*
X17780000Y8839200D01*
D28*
X13750000Y15426400D02*
X13817600Y15494000D01*
X14986000Y15494000D02*
X16383000Y14097000D01*
D29*
X14102500Y5709500D02*
X13446800Y5709500D01*
X17018000Y8077200D02*
X16941800Y8077200D01*
D28*
X14250000Y14277400D02*
X14250000Y15418400D01*
X11250000Y14277400D02*
X11250000Y15267600D01*
X8826000Y13766800D02*
X8826000Y14871200D01*
D29*
X14429777Y5382223D02*
X14102500Y5709500D01*
X15430200Y3759200D02*
X14494334Y4695066D01*
D28*
X11250000Y15267600D02*
X10972800Y15544800D01*
D29*
%TO.N,+5V*%
X14122400Y2184400D02*
X14274800Y2032000D01*
X13446800Y2250400D02*
X13512800Y2184400D01*
X21717000Y8375000D02*
X20350000Y8375000D01*
X22446000Y18094000D02*
X21846960Y18094000D01*
X11546800Y3434500D02*
X11546800Y2250400D01*
X11546800Y3434500D02*
X10266300Y3434500D01*
X3815000Y4625000D02*
X2846000Y5594000D01*
X6144600Y4625000D02*
X9075800Y4625000D01*
X2846000Y5594000D02*
X2846000Y8307000D01*
X15430200Y2032000D02*
X14274800Y2032000D01*
X10266300Y3434500D02*
X9245600Y4455200D01*
X9804400Y5014000D02*
X9245600Y4455200D01*
X11612800Y2184400D02*
X13512800Y2184400D01*
X21846960Y18094000D02*
X21565960Y18375000D01*
X9075800Y4625000D02*
X9245600Y4455200D01*
X9804400Y6236200D02*
X9804400Y5014000D01*
X11546800Y2250400D02*
X11612800Y2184400D01*
X20350000Y18375000D02*
X21565960Y18375000D01*
X13446800Y3434500D02*
X13446800Y2250400D01*
X4650000Y4625000D02*
X6144600Y4625000D01*
X2846000Y8307000D02*
X3996000Y9457000D01*
X3996000Y9457000D02*
X3996000Y13971000D01*
X5150000Y4625000D02*
X3815000Y4625000D01*
X3996000Y13971000D02*
X4650000Y14625000D01*
X13512800Y2184400D02*
X14122400Y2184400D01*
D28*
%TO.N,/SDAin*%
X6942529Y9113229D02*
X6922500Y9093200D01*
X9493394Y9093200D02*
X8929123Y9657471D01*
X4650000Y7125000D02*
X6363000Y7125000D01*
X6942529Y9657471D02*
X6942529Y11688809D01*
X6731000Y11900338D02*
X6731000Y16369000D01*
X12750000Y11427400D02*
X12750000Y9500400D01*
X6942529Y11688809D02*
X6731000Y11900338D01*
X10922000Y8800100D02*
X10628900Y9093200D01*
X12750000Y9500400D02*
X12954000Y9296400D01*
X5975000Y17125000D02*
X4650000Y17125000D01*
X6922500Y9093200D02*
X6578600Y8749300D01*
X6451600Y7213600D02*
X6578600Y7340600D01*
X8929123Y9657471D02*
X6942529Y9657471D01*
X6363000Y7125000D02*
X6451600Y7213600D01*
X6578600Y8749300D02*
X6578600Y7340600D01*
X6731000Y16369000D02*
X5975000Y17125000D01*
X6942529Y9657471D02*
X6942529Y9113229D01*
X10628900Y9093200D02*
X9493394Y9093200D01*
%TO.N,/SCLin*%
X6477000Y11588652D02*
X6331000Y11734653D01*
X9652000Y9499600D02*
X10922000Y9499600D01*
X6331000Y11734653D02*
X6331000Y15360600D01*
X6477000Y10568197D02*
X6477000Y11588652D01*
X8636000Y10401800D02*
X7680629Y10401800D01*
X6243018Y10334215D02*
X6477000Y10568197D01*
X8636000Y10401800D02*
X8749800Y10401800D01*
X10922000Y9499600D02*
X11250000Y9827600D01*
X5816600Y15875000D02*
X4650000Y15875000D01*
X6604000Y6400800D02*
X6078200Y5875000D01*
X6331000Y15360600D02*
X5816600Y15875000D01*
X11250000Y9827600D02*
X11250000Y11427400D01*
X8749800Y10401800D02*
X9652000Y9499600D01*
X7680629Y10401800D02*
X7642029Y10363200D01*
X6078200Y5875000D02*
X4650000Y5875000D01*
%TO.N,Net-(D1-A)*%
X9673700Y7886200D02*
X8000000Y6212500D01*
X9804400Y7886200D02*
X9673700Y7886200D01*
%TO.N,/SCLout1*%
X17780000Y5638800D02*
X17862310Y5721110D01*
X18225774Y6307751D02*
X18152015Y6381510D01*
X18152015Y6381510D02*
X17862310Y6381510D01*
X17862310Y5721110D02*
X17862310Y6381510D01*
X11750000Y11427400D02*
X11750000Y8194000D01*
X19012200Y7125000D02*
X20350000Y7125000D01*
X15716490Y6381510D02*
X17862310Y6381510D01*
X13766800Y8331200D02*
X15716490Y6381510D01*
X18225774Y6307751D02*
X18225774Y6338574D01*
X18225774Y6338574D02*
X19012200Y7125000D01*
%TO.N,/SDAout1*%
X20350000Y5875000D02*
X21978600Y5875000D01*
X19299227Y5875000D02*
X18332113Y4907887D01*
X16810113Y4907887D02*
X16103600Y5614400D01*
X22148800Y6045200D02*
X22148800Y6425500D01*
X18332113Y4907887D02*
X16810113Y4907887D01*
X12250000Y8790000D02*
X12250000Y11427400D01*
X15425600Y5614400D02*
X12250000Y8790000D01*
X20350000Y5875000D02*
X19299227Y5875000D01*
X21978600Y5875000D02*
X22148800Y6045200D01*
X16103600Y5614400D02*
X15425600Y5614400D01*
%TO.N,/SCLout2*%
X18084800Y15717168D02*
X18142481Y15659487D01*
X16063500Y10605500D02*
X16129000Y10540000D01*
X18084800Y15721244D02*
X18084800Y15717168D01*
X18750600Y17125000D02*
X18288000Y16662400D01*
X18301378Y15937822D02*
X18084800Y15721244D01*
X18288000Y16662400D02*
X18288000Y15951200D01*
X10750000Y10621173D02*
X10550500Y10421673D01*
X18288000Y15951200D02*
X18301378Y15937822D01*
X20350000Y17125000D02*
X18750600Y17125000D01*
X18142481Y15659487D02*
X18142480Y12427480D01*
X15113000Y10605500D02*
X16063500Y10605500D01*
X10750000Y11427400D02*
X10750000Y10621173D01*
X18142480Y12427480D02*
X16020520Y10305520D01*
%TO.N,/SDAout2*%
X21971000Y15875000D02*
X22148800Y16052800D01*
X19227800Y15875000D02*
X21971000Y15875000D01*
X13597200Y9702800D02*
X13250000Y10050000D01*
X13250000Y10050000D02*
X13250000Y11427400D01*
X16942800Y9702800D02*
X13597200Y9702800D01*
X17780000Y10540000D02*
X17780000Y11430000D01*
X17780000Y10540000D02*
X16942800Y9702800D01*
X18542000Y15189200D02*
X19227800Y15875000D01*
X18542000Y12192000D02*
X18542000Y15189200D01*
X17780000Y11430000D02*
X18542000Y12192000D01*
X22148800Y16052800D02*
X22148800Y16459200D01*
%TO.N,/XORL1*%
X14570003Y16671997D02*
X15025000Y17126994D01*
X15506200Y15735800D02*
X14570003Y16671997D01*
X16103707Y15365536D02*
X16103707Y15719893D01*
X16764000Y15735800D02*
X16087800Y15735800D01*
X13490503Y16227497D02*
X14125503Y16227497D01*
X13250000Y15986994D02*
X13490503Y16227497D01*
X16087800Y15735800D02*
X15506200Y15735800D01*
X13250000Y14277400D02*
X13250000Y15986994D01*
X14125503Y16227497D02*
X14570003Y16671997D01*
X16103707Y15719893D02*
X16087800Y15735800D01*
X15025000Y17126994D02*
X15025000Y17907000D01*
%TO.N,/XORL2*%
X11131030Y16554970D02*
X10795000Y16891000D01*
X11582274Y16554970D02*
X12250000Y15887244D01*
X9975000Y20269200D02*
X8533400Y20269200D01*
X11582274Y16554970D02*
X11131030Y16554970D01*
X12250000Y15887244D02*
X12250000Y14277400D01*
X10795000Y16891000D02*
X10795000Y19449200D01*
X8533400Y20269200D02*
X8255000Y20547600D01*
X10795000Y19449200D02*
X9975000Y20269200D01*
%TO.N,/XORH1*%
X14224000Y19468200D02*
X14224000Y16891000D01*
X14224000Y16891000D02*
X13970000Y16637000D01*
X12750000Y16052000D02*
X12750000Y14277400D01*
X16497800Y20269200D02*
X16764000Y20535400D01*
X13335000Y16637000D02*
X12750000Y16052000D01*
X15025000Y20269200D02*
X14224000Y19468200D01*
X13970000Y16637000D02*
X13335000Y16637000D01*
X15025000Y20269200D02*
X16497800Y20269200D01*
%TO.N,/XORH2*%
X11750000Y14277400D02*
X11750000Y15398000D01*
X9474200Y15697200D02*
X10448997Y16671997D01*
X10448997Y16671997D02*
X9975000Y17145994D01*
X9975000Y17145994D02*
X9975000Y17907000D01*
X10969216Y16178784D02*
X11750000Y15398000D01*
X8255000Y15697200D02*
X9474200Y15697200D01*
X10942210Y16178784D02*
X10969216Y16178784D01*
X10942210Y16178784D02*
X10448997Y16671997D01*
%TD*%
%TA.AperFunction,Conductor*%
%TO.N,GND*%
G36*
X869587Y22477826D02*
G01*
X885628Y22453818D01*
X886289Y22452222D01*
X886290Y22452219D01*
X932473Y22340723D01*
X971591Y22246283D01*
X971594Y22246275D01*
X1083049Y22053230D01*
X1083053Y22053224D01*
X1218747Y21876382D01*
X1376381Y21718748D01*
X1553223Y21583054D01*
X1553226Y21583052D01*
X1746274Y21471595D01*
X1952219Y21386290D01*
X2167537Y21328596D01*
X2388543Y21299500D01*
X2388545Y21299500D01*
X2611455Y21299500D01*
X2611457Y21299500D01*
X2832463Y21328596D01*
X3047781Y21386290D01*
X3253726Y21471595D01*
X3446774Y21583052D01*
X3542309Y21656359D01*
X3623618Y21718748D01*
X3623619Y21718750D01*
X3623624Y21718753D01*
X3781247Y21876376D01*
X3916948Y22053226D01*
X4028405Y22246274D01*
X4113710Y22452219D01*
X4113710Y22452222D01*
X4114372Y22453818D01*
X4154420Y22493867D01*
X4182739Y22499500D01*
X6604000Y22499500D01*
X6604000Y16949256D01*
X6235683Y17317572D01*
X6235669Y17317587D01*
X6234006Y17319250D01*
X6234005Y17319252D01*
X6233991Y17319266D01*
X6233958Y17319346D01*
X6228500Y17330224D01*
X6226438Y17328849D01*
X6226436Y17328852D01*
X6228498Y17330228D01*
X6213105Y17360910D01*
X6210007Y17382179D01*
X6155700Y17493266D01*
X6068266Y17580700D01*
X5957179Y17635007D01*
X5885161Y17645500D01*
X5885160Y17645500D01*
X4414840Y17645500D01*
X4342819Y17635007D01*
X4231734Y17580701D01*
X4144300Y17493267D01*
X4089993Y17382180D01*
X4079500Y17310166D01*
X4079500Y16939847D01*
X4079501Y16939835D01*
X4089993Y16867820D01*
X4144299Y16756735D01*
X4144300Y16756734D01*
X4231734Y16669300D01*
X4342821Y16614993D01*
X4414839Y16604500D01*
X5885160Y16604501D01*
X5957179Y16614993D01*
X5959795Y16616273D01*
X5961702Y16616391D01*
X5962675Y16616691D01*
X5962747Y16616456D01*
X6016322Y16619785D01*
X6044625Y16602119D01*
X6388826Y16257919D01*
X6410500Y16205593D01*
X6410500Y15913008D01*
X6388826Y15860682D01*
X6336500Y15839008D01*
X6284174Y15860682D01*
X6242173Y15902683D01*
X6220499Y15955009D01*
X6220499Y16060153D01*
X6220498Y16060161D01*
X6210007Y16132179D01*
X6155700Y16243266D01*
X6068266Y16330700D01*
X5957179Y16385007D01*
X5885161Y16395500D01*
X5885160Y16395500D01*
X4414840Y16395500D01*
X4342819Y16385007D01*
X4231734Y16330701D01*
X4144300Y16243267D01*
X4089993Y16132180D01*
X4079500Y16060166D01*
X4079500Y15689847D01*
X4079501Y15689835D01*
X4089993Y15617820D01*
X4144299Y15506735D01*
X4144300Y15506734D01*
X4231734Y15419300D01*
X4342821Y15364993D01*
X4414839Y15354500D01*
X5853191Y15354501D01*
X5905516Y15332827D01*
X5970554Y15267790D01*
X5992229Y15215465D01*
X5970555Y15163139D01*
X5918230Y15141464D01*
X5907562Y15142237D01*
X5885170Y15145499D01*
X5885166Y15145500D01*
X5885161Y15145500D01*
X5885154Y15145500D01*
X4414840Y15145500D01*
X4342819Y15135007D01*
X4231734Y15080701D01*
X4144300Y14993267D01*
X4089993Y14882180D01*
X4079500Y14810166D01*
X4079500Y14750540D01*
X4057826Y14698214D01*
X3619506Y14259895D01*
X3557562Y14152604D01*
X3525500Y14032946D01*
X3525500Y9682540D01*
X3503826Y9630214D01*
X2469506Y8595895D01*
X2407562Y8488604D01*
X2375500Y8368946D01*
X2375500Y5532055D01*
X2407562Y5412397D01*
X2469506Y5305106D01*
X2561321Y5213291D01*
X2561327Y5213286D01*
X3435917Y4338696D01*
X3435922Y4338690D01*
X3438506Y4336106D01*
X3526106Y4248506D01*
X3633394Y4186564D01*
X3633396Y4186563D01*
X3717506Y4164026D01*
X3753054Y4154501D01*
X3753055Y4154500D01*
X3753057Y4154500D01*
X4244887Y4154500D01*
X4277387Y4146981D01*
X4342818Y4114994D01*
X4342819Y4114994D01*
X4342821Y4114993D01*
X4414839Y4104500D01*
X5885160Y4104501D01*
X5957179Y4114993D01*
X6022612Y4146981D01*
X6055112Y4154500D01*
X6082657Y4154500D01*
X6604000Y4154500D01*
X6604000Y500500D01*
X4182739Y500500D01*
X4130413Y522174D01*
X4114372Y546182D01*
X4102642Y574500D01*
X4028405Y753726D01*
X3916948Y946774D01*
X3916946Y946777D01*
X3781252Y1123619D01*
X3623618Y1281253D01*
X3446776Y1416947D01*
X3446770Y1416951D01*
X3253725Y1528406D01*
X3253717Y1528409D01*
X3047782Y1613710D01*
X2832461Y1671405D01*
X2669647Y1692840D01*
X2611457Y1700500D01*
X2388543Y1700500D01*
X2337122Y1693731D01*
X2167538Y1671405D01*
X1952217Y1613710D01*
X1746282Y1528409D01*
X1746274Y1528406D01*
X1553229Y1416951D01*
X1553223Y1416947D01*
X1376381Y1281253D01*
X1218747Y1123619D01*
X1083053Y946777D01*
X1083049Y946771D01*
X971594Y753726D01*
X971591Y753718D01*
X913302Y612995D01*
X897358Y574500D01*
X885628Y546182D01*
X845580Y506133D01*
X817261Y500500D01*
X574500Y500500D01*
X522174Y522174D01*
X500500Y574500D01*
X500500Y22425500D01*
X522174Y22477826D01*
X574500Y22499500D01*
X817261Y22499500D01*
X869587Y22477826D01*
G37*
%TD.AperFunction*%
%TA.AperFunction,Conductor*%
G36*
X5980735Y14096523D02*
G01*
X6009727Y14047869D01*
X6010500Y14037200D01*
X6010500Y11776848D01*
X6010499Y11692458D01*
X6027008Y11630848D01*
X6027009Y11630844D01*
X6032339Y11610946D01*
X6074533Y11537865D01*
X6074534Y11537864D01*
X6074536Y11537861D01*
X6134208Y11478189D01*
X6134209Y11478189D01*
X6134826Y11477572D01*
X6156500Y11425246D01*
X6156500Y11010392D01*
X6134826Y10958066D01*
X6096937Y10937814D01*
X6062029Y10930871D01*
X6062022Y10930869D01*
X5949103Y10884097D01*
X5847476Y10816192D01*
X5761041Y10729757D01*
X5693136Y10628130D01*
X5646365Y10515213D01*
X5646362Y10515203D01*
X5622518Y10395328D01*
X5622518Y10273103D01*
X5646362Y10153228D01*
X5646365Y10153218D01*
X5693136Y10040301D01*
X5749377Y9956130D01*
X5761044Y9938670D01*
X5847473Y9852241D01*
X5949101Y9784335D01*
X6062025Y9737561D01*
X6181904Y9713715D01*
X6181906Y9713715D01*
X6304130Y9713715D01*
X6304132Y9713715D01*
X6424011Y9737561D01*
X6519712Y9777201D01*
X6576348Y9777201D01*
X6604000Y9749549D01*
X6604000Y9233111D01*
X6600355Y9224311D01*
X6381808Y9005764D01*
X6381807Y9005765D01*
X6322136Y8946093D01*
X6322134Y8946090D01*
X6279943Y8873014D01*
X6279941Y8873010D01*
X6258100Y8791494D01*
X6258100Y7569518D01*
X6236426Y7517192D01*
X6184100Y7495518D01*
X6131774Y7517192D01*
X6068266Y7580700D01*
X5957179Y7635007D01*
X5885161Y7645500D01*
X5885160Y7645500D01*
X4414840Y7645500D01*
X4342819Y7635007D01*
X4231734Y7580701D01*
X4144300Y7493267D01*
X4089993Y7382180D01*
X4079500Y7310166D01*
X4079500Y6939847D01*
X4079501Y6939835D01*
X4089993Y6867820D01*
X4144299Y6756735D01*
X4144300Y6756734D01*
X4231734Y6669300D01*
X4342821Y6614993D01*
X4414839Y6604500D01*
X5885160Y6604501D01*
X5911955Y6608405D01*
X5924135Y6605321D01*
X5936437Y6607877D01*
X5950525Y6598638D01*
X5966858Y6594501D01*
X5973289Y6583708D01*
X5983797Y6576816D01*
X5987113Y6560509D01*
X5995850Y6545847D01*
X5995322Y6521364D01*
X5995244Y6520957D01*
X5983500Y6461914D01*
X5983500Y6459147D01*
X5982314Y6452905D01*
X5968463Y6431788D01*
X5956555Y6409512D01*
X5953184Y6408490D01*
X5951253Y6405545D01*
X5926526Y6400406D01*
X5902355Y6393076D01*
X5898948Y6393492D01*
X5885171Y6395499D01*
X5885165Y6395500D01*
X5885161Y6395500D01*
X5885154Y6395500D01*
X4414840Y6395500D01*
X4342819Y6385007D01*
X4231734Y6330701D01*
X4144300Y6243267D01*
X4089993Y6132180D01*
X4079500Y6060166D01*
X4079500Y5689847D01*
X4079501Y5689835D01*
X4089993Y5617820D01*
X4144299Y5506735D01*
X4144300Y5506734D01*
X4231734Y5419300D01*
X4342821Y5364993D01*
X4414839Y5354500D01*
X5885160Y5354501D01*
X5957179Y5364993D01*
X6068266Y5419300D01*
X6155700Y5506734D01*
X6175018Y5546252D01*
X6204497Y5577836D01*
X6274992Y5618536D01*
X6334664Y5678208D01*
X6334665Y5678211D01*
X6426395Y5769942D01*
X6478720Y5791615D01*
X6493147Y5790195D01*
X6542886Y5780300D01*
X6542888Y5780300D01*
X6604000Y5780300D01*
X6604000Y5095500D01*
X6055113Y5095500D01*
X6022613Y5103019D01*
X5957181Y5135007D01*
X5909167Y5142003D01*
X5885161Y5145500D01*
X5885160Y5145500D01*
X4414840Y5145500D01*
X4342819Y5135007D01*
X4277388Y5103019D01*
X4244888Y5095500D01*
X4040539Y5095500D01*
X3988213Y5117174D01*
X3338174Y5767213D01*
X3316500Y5819539D01*
X3316500Y8081462D01*
X3338173Y8133787D01*
X4284891Y9080505D01*
X4284894Y9080506D01*
X4372494Y9168106D01*
X4434436Y9275394D01*
X4454337Y9349664D01*
X4466501Y9395058D01*
X4466501Y9518943D01*
X4466501Y9523472D01*
X4466500Y9523490D01*
X4466500Y13745462D01*
X4488173Y13797787D01*
X4773213Y14082828D01*
X4825539Y14104501D01*
X5885153Y14104501D01*
X5885160Y14104501D01*
X5925833Y14110427D01*
X5980735Y14096523D01*
G37*
%TD.AperFunction*%
%TD*%
%TA.AperFunction,Conductor*%
%TO.N,GND*%
G36*
X6910904Y4142029D02*
G01*
X6929965Y4129293D01*
X6994281Y4116500D01*
X7737718Y4116501D01*
X7802035Y4129293D01*
X7821096Y4142029D01*
X7862208Y4154500D01*
X8235970Y4154500D01*
X8288296Y4132826D01*
X8305304Y4106360D01*
X8353404Y3977397D01*
X8353405Y3977396D01*
X8353406Y3977395D01*
X8434485Y3869085D01*
X8434488Y3869083D01*
X8542795Y3788006D01*
X8542796Y3788005D01*
X8606318Y3764313D01*
X8669560Y3740725D01*
X8720158Y3735285D01*
X8725599Y3734700D01*
X8725600Y3734700D01*
X9270061Y3734700D01*
X9322387Y3713026D01*
X9485580Y3549833D01*
X9507254Y3497507D01*
X9495600Y3469371D01*
X9495600Y2805200D01*
X10370600Y2805200D01*
X10370600Y2870841D01*
X10369549Y2884193D01*
X10387051Y2938059D01*
X10437514Y2963772D01*
X10443321Y2964000D01*
X10952301Y2964000D01*
X11004627Y2942326D01*
X11026301Y2890000D01*
X11026301Y2886834D01*
X11036793Y2814820D01*
X11068781Y2749388D01*
X11076300Y2716888D01*
X11076300Y2188455D01*
X11108362Y2068797D01*
X11108364Y2068794D01*
X11170306Y1961506D01*
X11236305Y1895507D01*
X11236306Y1895506D01*
X11323906Y1807906D01*
X11382968Y1773807D01*
X11382967Y1773807D01*
X11407081Y1759886D01*
X11431194Y1745964D01*
X11431193Y1745964D01*
X11496982Y1728336D01*
X11550854Y1713901D01*
X11550855Y1713900D01*
X11550857Y1713900D01*
X11674742Y1713900D01*
X11822076Y1713900D01*
X11874402Y1692226D01*
X11896076Y1639900D01*
X11874402Y1587574D01*
X11850394Y1571533D01*
X11746282Y1528409D01*
X11746274Y1528406D01*
X11553229Y1416951D01*
X11553223Y1416947D01*
X11376381Y1281253D01*
X11218747Y1123619D01*
X11083053Y946777D01*
X11083049Y946771D01*
X10971594Y753726D01*
X10971591Y753718D01*
X10913302Y612995D01*
X10897358Y574500D01*
X10885628Y546182D01*
X10845580Y506133D01*
X10817261Y500500D01*
X6604000Y500500D01*
X6604000Y2239559D01*
X8120600Y2239559D01*
X8123500Y2202707D01*
X8169318Y2045001D01*
X8252917Y1903644D01*
X8369043Y1787518D01*
X8510400Y1703919D01*
X8668108Y1658101D01*
X8668105Y1658101D01*
X8704959Y1655200D01*
X8995600Y1655200D01*
X9495600Y1655200D01*
X9786241Y1655200D01*
X9823093Y1658101D01*
X9980799Y1703919D01*
X10122156Y1787518D01*
X10238282Y1903644D01*
X10321881Y2045001D01*
X10367699Y2202707D01*
X10370600Y2239559D01*
X10370600Y2305200D01*
X9495600Y2305200D01*
X9495600Y1655200D01*
X8995600Y1655200D01*
X8995600Y2305200D01*
X8120600Y2305200D01*
X8120600Y2239559D01*
X6604000Y2239559D01*
X6604000Y2905518D01*
X6616001Y2905518D01*
X6630834Y2811852D01*
X6630835Y2811851D01*
X6688360Y2698954D01*
X6777953Y2609361D01*
X6890850Y2551836D01*
X6984518Y2537001D01*
X7116000Y2537001D01*
X7116000Y2987000D01*
X7616000Y2987000D01*
X7616000Y2537001D01*
X7747481Y2537001D01*
X7841148Y2551835D01*
X7841149Y2551836D01*
X7954046Y2609361D01*
X8040600Y2695914D01*
X8040600Y2731200D01*
X8062274Y2783526D01*
X8114600Y2805200D01*
X8995600Y2805200D01*
X8995600Y3455200D01*
X8704959Y3455200D01*
X8668106Y3452300D01*
X8510400Y3406482D01*
X8369043Y3322883D01*
X8252917Y3206757D01*
X8196000Y3110515D01*
X8196000Y3061000D01*
X8174326Y3008674D01*
X8122000Y2987000D01*
X7616000Y2987000D01*
X7116000Y2987000D01*
X6616001Y2987000D01*
X6616001Y2905518D01*
X6604000Y2905518D01*
X6604000Y3568482D01*
X6616000Y3568482D01*
X6616000Y3487000D01*
X7116000Y3487000D01*
X7616000Y3487000D01*
X8115999Y3487000D01*
X8115999Y3568483D01*
X8101165Y3662149D01*
X8101164Y3662150D01*
X8043639Y3775047D01*
X7954046Y3864640D01*
X7841149Y3922165D01*
X7747482Y3937000D01*
X7616000Y3937000D01*
X7616000Y3487000D01*
X7116000Y3487000D01*
X7116000Y3937000D01*
X6984518Y3937000D01*
X6984517Y3936999D01*
X6890851Y3922166D01*
X6890850Y3922165D01*
X6777953Y3864640D01*
X6688360Y3775047D01*
X6630835Y3662150D01*
X6630835Y3662149D01*
X6616000Y3568482D01*
X6604000Y3568482D01*
X6604000Y4154500D01*
X6869792Y4154500D01*
X6910904Y4142029D01*
G37*
%TD.AperFunction*%
%TA.AperFunction,Conductor*%
G36*
X18415000Y500500D02*
G01*
X14182739Y500500D01*
X14130413Y522174D01*
X14114372Y546182D01*
X14102642Y574500D01*
X14028405Y753726D01*
X13916948Y946774D01*
X13916946Y946777D01*
X13781252Y1123619D01*
X13623618Y1281253D01*
X13446776Y1416947D01*
X13446770Y1416951D01*
X13253725Y1528406D01*
X13253717Y1528409D01*
X13149606Y1571533D01*
X13109557Y1611581D01*
X13109557Y1668218D01*
X13149605Y1708267D01*
X13177924Y1713900D01*
X13450857Y1713900D01*
X13701525Y1713900D01*
X13753851Y1692226D01*
X13763054Y1681012D01*
X13778362Y1658101D01*
X13792826Y1636455D01*
X13879255Y1550026D01*
X13980883Y1482120D01*
X13980884Y1482120D01*
X13980885Y1482119D01*
X14026015Y1463426D01*
X14093807Y1435346D01*
X14213686Y1411500D01*
X14213688Y1411500D01*
X14335912Y1411500D01*
X14335914Y1411500D01*
X14455793Y1435346D01*
X14568717Y1482120D01*
X14668853Y1549029D01*
X14709965Y1561500D01*
X14776887Y1561500D01*
X14829213Y1539826D01*
X14836427Y1531443D01*
X14886625Y1463427D01*
X14886626Y1463426D01*
X14994682Y1383677D01*
X15121435Y1339324D01*
X15121441Y1339322D01*
X15151536Y1336500D01*
X15151543Y1336500D01*
X15708857Y1336500D01*
X15708864Y1336500D01*
X15738959Y1339322D01*
X15796612Y1359497D01*
X15865717Y1383677D01*
X15865717Y1383678D01*
X15865719Y1383678D01*
X15973774Y1463426D01*
X16045029Y1559973D01*
X16093540Y1589204D01*
X16148511Y1575571D01*
X16175630Y1536679D01*
X16177044Y1531810D01*
X16257428Y1395889D01*
X16369088Y1284229D01*
X16505008Y1203846D01*
X16656648Y1159790D01*
X16692090Y1157000D01*
X16730200Y1157000D01*
X17230200Y1157000D01*
X17268310Y1157000D01*
X17303751Y1159790D01*
X17455391Y1203846D01*
X17591311Y1284229D01*
X17702971Y1395889D01*
X17783354Y1531809D01*
X17827410Y1683449D01*
X17830200Y1718890D01*
X17830200Y1782000D01*
X17230200Y1782000D01*
X17230200Y1157000D01*
X16730200Y1157000D01*
X16730200Y2282000D01*
X17230200Y2282000D01*
X17830200Y2282000D01*
X17830200Y2345111D01*
X17827410Y2380553D01*
X17783355Y2532190D01*
X17702971Y2668112D01*
X17591310Y2779773D01*
X17558282Y2799305D01*
X17524275Y2844596D01*
X17532255Y2900668D01*
X17558282Y2926695D01*
X17591309Y2946228D01*
X17591310Y2946228D01*
X17702971Y3057889D01*
X17745479Y3129764D01*
X17783354Y3193808D01*
X17827410Y3345449D01*
X17830200Y3380890D01*
X17830200Y3444000D01*
X17230200Y3444000D01*
X17230200Y2282000D01*
X16730200Y2282000D01*
X16730200Y3620000D01*
X16751874Y3672326D01*
X16804200Y3694000D01*
X16980200Y3694000D01*
X16980200Y3870000D01*
X17001874Y3922326D01*
X17054200Y3944000D01*
X17830200Y3944000D01*
X17830200Y4007111D01*
X17827410Y4042552D01*
X17783354Y4194192D01*
X17702971Y4330112D01*
X17591310Y4441773D01*
X17577918Y4449693D01*
X17543913Y4494985D01*
X17551894Y4551057D01*
X17597186Y4585062D01*
X17615588Y4587387D01*
X18374307Y4587387D01*
X18374308Y4587387D01*
X18415000Y4598291D01*
X18415000Y500500D01*
G37*
%TD.AperFunction*%
%TA.AperFunction,Conductor*%
G36*
X10602203Y8267513D02*
G01*
X10628083Y8250220D01*
X10628084Y8250220D01*
X10628085Y8250219D01*
X10735029Y8205922D01*
X10741007Y8203446D01*
X10860886Y8179600D01*
X10860888Y8179600D01*
X10983112Y8179600D01*
X10983114Y8179600D01*
X11042413Y8191396D01*
X11097961Y8180347D01*
X11129427Y8133255D01*
X11129500Y8132888D01*
X11129500Y8132886D01*
X11132497Y8117821D01*
X11153344Y8013013D01*
X11153347Y8013003D01*
X11200118Y7900086D01*
X11261091Y7808833D01*
X11268026Y7798455D01*
X11354455Y7712026D01*
X11456083Y7644120D01*
X11456084Y7644120D01*
X11456085Y7644119D01*
X11569002Y7597348D01*
X11569007Y7597346D01*
X11688886Y7573500D01*
X11688888Y7573500D01*
X11811112Y7573500D01*
X11811114Y7573500D01*
X11930993Y7597346D01*
X12043917Y7644120D01*
X12145545Y7712026D01*
X12231974Y7798455D01*
X12299880Y7900083D01*
X12346654Y8013007D01*
X12357321Y8066633D01*
X12388785Y8113723D01*
X12444334Y8124773D01*
X12482224Y8104521D01*
X14300150Y6286595D01*
X14321824Y6234269D01*
X14300150Y6181943D01*
X14247824Y6160269D01*
X14228672Y6162790D01*
X14164443Y6180000D01*
X14041299Y6180000D01*
X13988973Y6201674D01*
X13967299Y6254000D01*
X13967299Y6257153D01*
X13967298Y6257161D01*
X13956807Y6329179D01*
X13902500Y6440266D01*
X13815066Y6527700D01*
X13703979Y6582007D01*
X13631961Y6592500D01*
X13631960Y6592500D01*
X13261646Y6592500D01*
X13261634Y6592499D01*
X13189619Y6582007D01*
X13078534Y6527701D01*
X12991100Y6440267D01*
X12936793Y6329180D01*
X12926300Y6257166D01*
X12926300Y5161841D01*
X12936793Y5089820D01*
X12991099Y4978735D01*
X12991100Y4978734D01*
X13078534Y4891300D01*
X13189621Y4836993D01*
X13261639Y4826500D01*
X13631960Y4826501D01*
X13703979Y4836993D01*
X13704188Y4837096D01*
X13704341Y4837105D01*
X13709472Y4838690D01*
X13709855Y4837449D01*
X13760712Y4840617D01*
X13803173Y4803136D01*
X13808803Y4759877D01*
X13809633Y4759795D01*
X13809280Y4756214D01*
X13809281Y4756206D01*
X13809277Y4756190D01*
X13809277Y4756180D01*
X13809277Y4633952D01*
X13814195Y4609229D01*
X13833121Y4514079D01*
X13833124Y4514069D01*
X13879895Y4401152D01*
X13906275Y4361672D01*
X13917324Y4306123D01*
X13885858Y4259031D01*
X13830309Y4247982D01*
X13812245Y4254079D01*
X13703980Y4307007D01*
X13667970Y4312254D01*
X13631961Y4317500D01*
X13631960Y4317500D01*
X13261646Y4317500D01*
X13261634Y4317499D01*
X13189620Y4307007D01*
X13152698Y4288957D01*
X13096170Y4285449D01*
X13061236Y4310725D01*
X13039367Y4339563D01*
X12918892Y4430923D01*
X12778245Y4486386D01*
X12746800Y4490163D01*
X12746800Y3508500D01*
X12725126Y3456174D01*
X12672800Y3434500D01*
X12320800Y3434500D01*
X12268474Y3456174D01*
X12246800Y3508500D01*
X12246800Y4490163D01*
X12215354Y4486386D01*
X12074707Y4430923D01*
X11954232Y4339563D01*
X11954231Y4339562D01*
X11932362Y4310724D01*
X11883474Y4282128D01*
X11840900Y4288958D01*
X11803981Y4307007D01*
X11755967Y4314003D01*
X11731961Y4317500D01*
X11731960Y4317500D01*
X11361646Y4317500D01*
X11361634Y4317499D01*
X11289619Y4307007D01*
X11178534Y4252701D01*
X11091100Y4165267D01*
X11036793Y4054180D01*
X11026300Y3982166D01*
X11026300Y3979000D01*
X11004626Y3926674D01*
X10952300Y3905000D01*
X10491839Y3905000D01*
X10439513Y3926674D01*
X10212774Y4153413D01*
X10191100Y4205739D01*
X10191100Y4722956D01*
X10197738Y4753589D01*
X10199220Y4756850D01*
X10242836Y4832394D01*
X10254536Y4876059D01*
X10274901Y4952058D01*
X10274901Y5075943D01*
X10274901Y5080472D01*
X10274900Y5080490D01*
X10274900Y5618526D01*
X10296574Y5670852D01*
X10315306Y5684461D01*
X10318874Y5686280D01*
X10329645Y5691767D01*
X10423833Y5785955D01*
X10484305Y5904638D01*
X10499900Y6003103D01*
X10499899Y6257166D01*
X11026300Y6257166D01*
X11026300Y5161841D01*
X11036793Y5089820D01*
X11091099Y4978735D01*
X11091100Y4978734D01*
X11178534Y4891300D01*
X11289621Y4836993D01*
X11361639Y4826500D01*
X11731960Y4826501D01*
X11803979Y4836993D01*
X11915066Y4891300D01*
X12002500Y4978734D01*
X12056807Y5089821D01*
X12067300Y5161839D01*
X12067299Y6257160D01*
X12056807Y6329179D01*
X12002500Y6440266D01*
X11915066Y6527700D01*
X11803979Y6582007D01*
X11731961Y6592500D01*
X11731960Y6592500D01*
X11361646Y6592500D01*
X11361634Y6592499D01*
X11289619Y6582007D01*
X11178534Y6527701D01*
X11091100Y6440267D01*
X11036793Y6329180D01*
X11026300Y6257166D01*
X10499899Y6257166D01*
X10499899Y6469296D01*
X10497713Y6483097D01*
X10484305Y6567763D01*
X10484304Y6567764D01*
X10465586Y6604500D01*
X10423833Y6686445D01*
X10329645Y6780633D01*
X10236023Y6828336D01*
X10210963Y6841105D01*
X10112497Y6856700D01*
X9496302Y6856700D01*
X9397837Y6841106D01*
X9397836Y6841105D01*
X9279153Y6780632D01*
X9184968Y6686447D01*
X9124495Y6567764D01*
X9124495Y6567763D01*
X9108900Y6469298D01*
X9108900Y6003103D01*
X9124494Y5904638D01*
X9124495Y5904637D01*
X9139278Y5875624D01*
X9184850Y5786184D01*
X9184968Y5785954D01*
X9279155Y5691767D01*
X9293494Y5684461D01*
X9330278Y5641395D01*
X9333900Y5618526D01*
X9333900Y5249700D01*
X9312226Y5197374D01*
X9259900Y5175700D01*
X8725599Y5175700D01*
X8669560Y5169675D01*
X8669555Y5169674D01*
X8542798Y5122396D01*
X8542795Y5122395D01*
X8542795Y5122394D01*
X8526583Y5110259D01*
X8482239Y5095500D01*
X7898126Y5095500D01*
X7857014Y5107971D01*
X7802034Y5144708D01*
X7750511Y5154956D01*
X7737719Y5157500D01*
X7737718Y5157500D01*
X6994286Y5157500D01*
X6929965Y5144708D01*
X6874986Y5107971D01*
X6833874Y5095500D01*
X6604000Y5095500D01*
X6604000Y5780300D01*
X6665112Y5780300D01*
X6665114Y5780300D01*
X6784993Y5804146D01*
X6897917Y5850920D01*
X6999545Y5918826D01*
X7085974Y6005255D01*
X7153880Y6106883D01*
X7162133Y6126809D01*
X7202179Y6166857D01*
X7258816Y6166859D01*
X7298866Y6126812D01*
X7304500Y6098491D01*
X7304500Y5940856D01*
X7304501Y5940843D01*
X7307282Y5911169D01*
X7307283Y5911163D01*
X7349613Y5790193D01*
X7351016Y5786184D01*
X7371912Y5757871D01*
X7426206Y5684304D01*
X7429645Y5679645D01*
X7536184Y5601016D01*
X7590894Y5581872D01*
X7661159Y5557285D01*
X7661161Y5557285D01*
X7661166Y5557283D01*
X7690845Y5554500D01*
X8309154Y5554501D01*
X8338834Y5557283D01*
X8463816Y5601016D01*
X8570355Y5679645D01*
X8648984Y5786184D01*
X8692717Y5911166D01*
X8695500Y5940845D01*
X8695499Y6424094D01*
X8717172Y6476418D01*
X9484781Y7244028D01*
X9537107Y7265701D01*
X10112497Y7265701D01*
X10210962Y7281295D01*
X10329645Y7341767D01*
X10423833Y7435955D01*
X10484305Y7554638D01*
X10499900Y7653103D01*
X10499899Y8119296D01*
X10488003Y8194409D01*
X10501225Y8249479D01*
X10549516Y8279072D01*
X10602203Y8267513D01*
G37*
%TD.AperFunction*%
%TA.AperFunction,Conductor*%
G36*
X8818042Y9315297D02*
G01*
X9234341Y8898998D01*
X9234346Y8898992D01*
X9236929Y8896409D01*
X9236930Y8896408D01*
X9296602Y8836736D01*
X9296604Y8836735D01*
X9296605Y8836734D01*
X9337407Y8813177D01*
X9369685Y8794541D01*
X9381057Y8791494D01*
X9427819Y8778964D01*
X9451199Y8772699D01*
X9451200Y8772699D01*
X9540119Y8772699D01*
X9540135Y8772700D01*
X10234064Y8772700D01*
X10286390Y8751026D01*
X10306641Y8713138D01*
X10309306Y8699746D01*
X10325344Y8619113D01*
X10325347Y8619103D01*
X10346387Y8568308D01*
X10346387Y8511671D01*
X10306338Y8471623D01*
X10249701Y8471623D01*
X10244425Y8474055D01*
X10210962Y8491105D01*
X10112497Y8506700D01*
X9496302Y8506700D01*
X9397837Y8491106D01*
X9397836Y8491105D01*
X9279153Y8430632D01*
X9184968Y8336447D01*
X9124495Y8217764D01*
X9124495Y8217763D01*
X9108900Y8119298D01*
X9108900Y7805309D01*
X9087226Y7752983D01*
X8893417Y7559174D01*
X8841091Y7537500D01*
X7125000Y7537500D01*
X7125000Y7506259D01*
X7127760Y7471185D01*
X7171376Y7321061D01*
X7250956Y7186499D01*
X7361498Y7075957D01*
X7496060Y6996377D01*
X7565066Y6976329D01*
X7609267Y6940917D01*
X7615483Y6884622D01*
X7580071Y6840421D01*
X7568863Y6835420D01*
X7536184Y6823985D01*
X7429645Y6745356D01*
X7429644Y6745355D01*
X7351015Y6638815D01*
X7335372Y6594110D01*
X7297632Y6551879D01*
X7241084Y6548704D01*
X7198853Y6586444D01*
X7197158Y6590233D01*
X7190908Y6605321D01*
X7157306Y6686445D01*
X7153881Y6694715D01*
X7120044Y6745355D01*
X7085974Y6796345D01*
X6999545Y6882774D01*
X6999541Y6882777D01*
X6897916Y6950681D01*
X6819228Y6983274D01*
X6779180Y7023322D01*
X6779180Y7079960D01*
X6795217Y7103962D01*
X6835064Y7143808D01*
X6877259Y7216891D01*
X6899100Y7298405D01*
X6899100Y8068742D01*
X7125000Y8068742D01*
X7125000Y8037500D01*
X7750000Y8037500D01*
X8250000Y8037500D01*
X8875000Y8037500D01*
X8875000Y8068742D01*
X8872239Y8103816D01*
X8828623Y8253940D01*
X8749043Y8388502D01*
X8638501Y8499044D01*
X8503939Y8578624D01*
X8353815Y8622240D01*
X8318741Y8625000D01*
X8250000Y8625000D01*
X8250000Y8037500D01*
X7750000Y8037500D01*
X7750000Y8625000D01*
X7681259Y8625000D01*
X7646184Y8622240D01*
X7496060Y8578624D01*
X7361498Y8499044D01*
X7250956Y8388502D01*
X7171376Y8253940D01*
X7127760Y8103816D01*
X7125000Y8068742D01*
X6899100Y8068742D01*
X6899100Y8585894D01*
X6920773Y8638219D01*
X7139318Y8856764D01*
X7139321Y8856765D01*
X7198993Y8916437D01*
X7241188Y8989520D01*
X7263029Y9071034D01*
X7263029Y9262971D01*
X7284703Y9315297D01*
X7337029Y9336971D01*
X8765716Y9336971D01*
X8818042Y9315297D01*
G37*
%TD.AperFunction*%
%TA.AperFunction,Conductor*%
G36*
X15462564Y9360626D02*
G01*
X15484238Y9308300D01*
X15476172Y9274704D01*
X15449095Y9221565D01*
X15449095Y9221563D01*
X15433500Y9123098D01*
X15433500Y8656903D01*
X15449094Y8558438D01*
X15449095Y8558437D01*
X15472924Y8511671D01*
X15509567Y8439755D01*
X15603755Y8345567D01*
X15722438Y8285095D01*
X15820903Y8269500D01*
X16053460Y8269501D01*
X16105786Y8247827D01*
X16211386Y8142227D01*
X16233060Y8089901D01*
X16211386Y8037575D01*
X16080385Y7906574D01*
X16028059Y7884900D01*
X15795502Y7884900D01*
X15697037Y7869306D01*
X15697036Y7869305D01*
X15578353Y7808832D01*
X15484168Y7714647D01*
X15423695Y7595964D01*
X15423695Y7595963D01*
X15408100Y7497498D01*
X15408100Y7321807D01*
X15386426Y7269481D01*
X15334100Y7247807D01*
X15281774Y7269481D01*
X14397659Y8153596D01*
X14375985Y8205922D01*
X14377405Y8220346D01*
X14387300Y8270086D01*
X14387300Y8392314D01*
X14363454Y8512193D01*
X14335938Y8578624D01*
X14316681Y8625115D01*
X14311960Y8632180D01*
X14248774Y8726745D01*
X14162345Y8813174D01*
X14160471Y8814426D01*
X14060714Y8881082D01*
X13947797Y8927853D01*
X13947787Y8927856D01*
X13864859Y8944351D01*
X13827914Y8951700D01*
X13705686Y8951700D01*
X13668741Y8944351D01*
X13598619Y8930403D01*
X13543070Y8941452D01*
X13511604Y8988544D01*
X13515814Y9031297D01*
X13550654Y9115407D01*
X13574500Y9235286D01*
X13574500Y9308300D01*
X13596174Y9360626D01*
X13648500Y9382300D01*
X15410238Y9382300D01*
X15462564Y9360626D01*
G37*
%TD.AperFunction*%
%TA.AperFunction,Conductor*%
G36*
X18415000Y7708493D02*
G01*
X18399433Y7739045D01*
X18305245Y7833233D01*
X18247035Y7862893D01*
X18186563Y7893705D01*
X18088098Y7909300D01*
X18088097Y7909300D01*
X17881939Y7909300D01*
X17829613Y7930974D01*
X17735712Y8024875D01*
X17714038Y8077201D01*
X17735710Y8129525D01*
X17854013Y8247828D01*
X17906339Y8269501D01*
X18088097Y8269501D01*
X18186562Y8285095D01*
X18305245Y8345567D01*
X18399433Y8439755D01*
X18415000Y8470307D01*
X18415000Y7708493D01*
G37*
%TD.AperFunction*%
%TA.AperFunction,Conductor*%
G36*
X6616396Y9737152D02*
G01*
X6622029Y9708834D01*
X6622029Y9276637D01*
X6604000Y9233111D01*
X6604000Y9749549D01*
X6616396Y9737152D01*
G37*
%TD.AperFunction*%
%TA.AperFunction,Conductor*%
G36*
X18415000Y9309693D02*
G01*
X18399433Y9340245D01*
X18305245Y9434433D01*
X18247035Y9464093D01*
X18186563Y9494905D01*
X18088097Y9510500D01*
X17471901Y9510500D01*
X17378234Y9495665D01*
X17323162Y9508887D01*
X17293570Y9557179D01*
X17306792Y9612251D01*
X17314327Y9621074D01*
X17591081Y9897827D01*
X17643407Y9919501D01*
X18088097Y9919501D01*
X18186562Y9935095D01*
X18305245Y9995567D01*
X18399433Y10089755D01*
X18415000Y10120307D01*
X18415000Y9309693D01*
G37*
%TD.AperFunction*%
%TA.AperFunction,Conductor*%
G36*
X10869587Y22477826D02*
G01*
X10885628Y22453818D01*
X10886289Y22452222D01*
X10886290Y22452219D01*
X10932473Y22340723D01*
X10971591Y22246283D01*
X10971594Y22246275D01*
X11083049Y22053230D01*
X11083053Y22053224D01*
X11218747Y21876382D01*
X11376381Y21718748D01*
X11553223Y21583054D01*
X11553226Y21583052D01*
X11746274Y21471595D01*
X11952219Y21386290D01*
X12167537Y21328596D01*
X12388543Y21299500D01*
X12388545Y21299500D01*
X12611455Y21299500D01*
X12611457Y21299500D01*
X12832463Y21328596D01*
X13047781Y21386290D01*
X13253726Y21471595D01*
X13446774Y21583052D01*
X13542309Y21656359D01*
X13623618Y21718748D01*
X13623619Y21718750D01*
X13623624Y21718753D01*
X13781247Y21876376D01*
X13916948Y22053226D01*
X14028405Y22246274D01*
X14113710Y22452219D01*
X14113710Y22452222D01*
X14114372Y22453818D01*
X14154420Y22493867D01*
X14182739Y22499500D01*
X18415000Y22499500D01*
X18415000Y17242656D01*
X18091210Y16918866D01*
X18091208Y16918864D01*
X18091207Y16918865D01*
X18031536Y16859193D01*
X18031534Y16859190D01*
X17989343Y16786114D01*
X17989341Y16786110D01*
X17978420Y16745352D01*
X17974425Y16730438D01*
X17967500Y16704594D01*
X17967500Y16500555D01*
X17945826Y16448229D01*
X17934613Y16439027D01*
X17905838Y16419801D01*
X17819401Y16333364D01*
X17751496Y16231737D01*
X17704725Y16118820D01*
X17704722Y16118810D01*
X17688922Y16039374D01*
X17680878Y15998936D01*
X17680878Y15876708D01*
X17688377Y15839008D01*
X17704722Y15756835D01*
X17704725Y15756825D01*
X17751495Y15643910D01*
X17751497Y15643907D01*
X17751498Y15643905D01*
X17768450Y15618534D01*
X17790744Y15585170D01*
X17793296Y15581065D01*
X17796024Y15576341D01*
X17812066Y15548556D01*
X17821980Y15511556D01*
X17821980Y12590888D01*
X17800306Y12538562D01*
X17364829Y12103086D01*
X17312503Y12081412D01*
X17260177Y12103086D01*
X17238503Y12155412D01*
X17241442Y12176059D01*
X17255210Y12223446D01*
X17258000Y12258890D01*
X17258000Y12297000D01*
X16633000Y12297000D01*
X16633000Y11697000D01*
X16696110Y11697000D01*
X16731554Y11699790D01*
X16778941Y11713558D01*
X16835236Y11707344D01*
X16870649Y11663144D01*
X16864435Y11606849D01*
X16851914Y11590171D01*
X16443917Y11182174D01*
X16391591Y11160500D01*
X15820902Y11160500D01*
X15722437Y11144906D01*
X15722433Y11144904D01*
X15603761Y11084438D01*
X15601468Y11082771D01*
X15599621Y11082328D01*
X15598566Y11081790D01*
X15598436Y11082044D01*
X15546395Y11069550D01*
X15511021Y11085441D01*
X15508547Y11087472D01*
X15508545Y11087474D01*
X15406917Y11155380D01*
X15406916Y11155381D01*
X15406914Y11155382D01*
X15293997Y11202153D01*
X15293987Y11202156D01*
X15206529Y11219552D01*
X15174114Y11226000D01*
X15051886Y11226000D01*
X15019471Y11219552D01*
X14932012Y11202156D01*
X14932007Y11202154D01*
X14877316Y11179501D01*
X14820679Y11179502D01*
X14780631Y11219552D01*
X14774999Y11247870D01*
X14775000Y11302400D01*
X14375000Y11302400D01*
X14375000Y10702401D01*
X14406478Y10702401D01*
X14406907Y10702469D01*
X14407015Y10702443D01*
X14409381Y10702629D01*
X14409441Y10701862D01*
X14461982Y10689260D01*
X14491586Y10640976D01*
X14492500Y10629383D01*
X14492500Y10544388D01*
X14516344Y10424513D01*
X14516347Y10424503D01*
X14563118Y10311586D01*
X14588662Y10273356D01*
X14631026Y10209955D01*
X14691356Y10149625D01*
X14713030Y10097300D01*
X14691356Y10044974D01*
X14639030Y10023300D01*
X13760607Y10023300D01*
X13708281Y10044974D01*
X13592174Y10161081D01*
X13570500Y10213407D01*
X13570500Y10628402D01*
X13592174Y10680728D01*
X13611212Y10688615D01*
X13625000Y10702402D01*
X13625000Y11353400D01*
X13646674Y11405726D01*
X13699000Y11427400D01*
X13801000Y11427400D01*
X13853326Y11405726D01*
X13875000Y11353400D01*
X13875000Y10702401D01*
X13906481Y10702401D01*
X13988422Y10715379D01*
X14011574Y10715379D01*
X14093517Y10702401D01*
X14124999Y10702402D01*
X14125000Y10702402D01*
X14125000Y11353400D01*
X14146674Y11405726D01*
X14199000Y11427400D01*
X14250000Y11427400D01*
X14250000Y11478400D01*
X14271674Y11530726D01*
X14324000Y11552400D01*
X14774999Y11552400D01*
X14774999Y11567177D01*
X14796673Y11619503D01*
X14820276Y11633965D01*
X14819958Y11634590D01*
X14938046Y11694761D01*
X15027639Y11784354D01*
X15085164Y11897251D01*
X15085164Y11897252D01*
X15100000Y11990919D01*
X15100000Y12258890D01*
X15508000Y12258890D01*
X15510789Y12223449D01*
X15554845Y12071809D01*
X15635228Y11935889D01*
X15746888Y11824229D01*
X15882808Y11743846D01*
X16034448Y11699790D01*
X16069890Y11697000D01*
X16133000Y11697000D01*
X16133000Y12297000D01*
X15508000Y12297000D01*
X15508000Y12258890D01*
X15100000Y12258890D01*
X15100000Y12602400D01*
X9900001Y12602400D01*
X9900001Y11990918D01*
X9914834Y11897252D01*
X9914835Y11897251D01*
X9972360Y11784354D01*
X10061953Y11694761D01*
X10174850Y11637236D01*
X10268517Y11622401D01*
X10330499Y11622401D01*
X10382825Y11600728D01*
X10404500Y11548402D01*
X10404500Y11082268D01*
X10382826Y11029942D01*
X10358819Y11013901D01*
X10256583Y10971554D01*
X10154958Y10903650D01*
X10068523Y10817215D01*
X10000618Y10715588D01*
X9953847Y10602671D01*
X9953844Y10602661D01*
X9930000Y10482786D01*
X9930000Y10360561D01*
X9953844Y10240686D01*
X9953847Y10240676D01*
X10000618Y10127759D01*
X10026011Y10089755D01*
X10068526Y10026128D01*
X10148229Y9946425D01*
X10169903Y9894100D01*
X10148229Y9841774D01*
X10095903Y9820100D01*
X9815408Y9820100D01*
X9763082Y9841774D01*
X9353173Y10251683D01*
X9331499Y10304009D01*
X9331499Y10634898D01*
X9315905Y10733363D01*
X9315904Y10733364D01*
X9313749Y10737594D01*
X9255433Y10852045D01*
X9161245Y10946233D01*
X9070082Y10992683D01*
X9042563Y11006705D01*
X8944097Y11022300D01*
X8327902Y11022300D01*
X8229437Y11006706D01*
X8229433Y11006704D01*
X8110756Y10946235D01*
X8110752Y10946232D01*
X8063804Y10899284D01*
X8011478Y10877610D01*
X7970367Y10890081D01*
X7935945Y10913081D01*
X7823026Y10959853D01*
X7823016Y10959856D01*
X7742740Y10975824D01*
X7703143Y10983700D01*
X7580915Y10983700D01*
X7546930Y10976940D01*
X7461041Y10959856D01*
X7461031Y10959853D01*
X7365347Y10920220D01*
X7308709Y10920220D01*
X7268662Y10960269D01*
X7263029Y10988587D01*
X7263029Y11731003D01*
X7259588Y11743846D01*
X7241188Y11812518D01*
X7198993Y11885601D01*
X7139321Y11945273D01*
X7139320Y11945274D01*
X7136742Y11947852D01*
X7136731Y11947862D01*
X7073174Y12011419D01*
X7051500Y12063745D01*
X7051500Y12997301D01*
X7073174Y13049627D01*
X7125500Y13071301D01*
X7409097Y13071301D01*
X7507562Y13086895D01*
X7626245Y13147367D01*
X7720433Y13241555D01*
X7780905Y13360238D01*
X7796500Y13458703D01*
X7796499Y14074896D01*
X7791810Y14104501D01*
X7780905Y14173363D01*
X7780904Y14173364D01*
X7779751Y14175625D01*
X7720433Y14292045D01*
X7626245Y14386233D01*
X7568035Y14415893D01*
X7507563Y14446705D01*
X7409098Y14462300D01*
X7409097Y14462300D01*
X7125500Y14462300D01*
X7073174Y14483974D01*
X7051500Y14536300D01*
X7051500Y16411194D01*
X7046544Y16429692D01*
X7029659Y16492709D01*
X6987464Y16565792D01*
X6967454Y16585802D01*
X6927792Y16625465D01*
X6927792Y16625464D01*
X6927791Y16625465D01*
X6708643Y16844613D01*
X6604000Y16949256D01*
X6604000Y17097200D01*
X7381407Y17097200D01*
X7395443Y16990572D01*
X7395444Y16990568D01*
X7455900Y16844613D01*
X7552075Y16719276D01*
X7677412Y16623101D01*
X7823369Y16562644D01*
X7940678Y16547201D01*
X8004999Y16547201D01*
X8505000Y16547201D01*
X8569321Y16547201D01*
X8686628Y16562644D01*
X8686632Y16562645D01*
X8832587Y16623101D01*
X8957924Y16719276D01*
X9054099Y16844613D01*
X9114555Y16990568D01*
X9114556Y16990571D01*
X9128594Y17097200D01*
X8505000Y17097200D01*
X8505000Y16547201D01*
X8004999Y16547201D01*
X8005000Y16547202D01*
X8005000Y17097200D01*
X7381407Y17097200D01*
X6604000Y17097200D01*
X6604000Y17597200D01*
X7381406Y17597200D01*
X8005000Y17597200D01*
X8505000Y17597200D01*
X9128593Y17597200D01*
X9128593Y17597201D01*
X9114556Y17703829D01*
X9114555Y17703833D01*
X9054099Y17849788D01*
X8957923Y17975126D01*
X8957922Y17975127D01*
X8842502Y18063692D01*
X8814183Y18112741D01*
X8828842Y18167448D01*
X8842502Y18181108D01*
X8957922Y18269674D01*
X8957923Y18269675D01*
X9054099Y18395013D01*
X9114555Y18540968D01*
X9114556Y18540971D01*
X9128594Y18647600D01*
X8505000Y18647600D01*
X8505000Y17597200D01*
X8005000Y17597200D01*
X8005000Y18647600D01*
X7381407Y18647600D01*
X7395443Y18540972D01*
X7395444Y18540968D01*
X7455900Y18395013D01*
X7552075Y18269676D01*
X7667498Y18181108D01*
X7695816Y18132059D01*
X7681157Y18077351D01*
X7667498Y18063692D01*
X7552075Y17975125D01*
X7455900Y17849788D01*
X7395444Y17703833D01*
X7395443Y17703830D01*
X7381406Y17597200D01*
X6604000Y17597200D01*
X6604000Y19147600D01*
X7381406Y19147600D01*
X8005000Y19147600D01*
X8505000Y19147600D01*
X9128593Y19147600D01*
X9128593Y19147601D01*
X9114556Y19254229D01*
X9114555Y19254233D01*
X9054099Y19400188D01*
X8957924Y19525525D01*
X8832587Y19621700D01*
X8686630Y19682157D01*
X8569321Y19697600D01*
X8505000Y19697600D01*
X8505000Y19147600D01*
X8005000Y19147600D01*
X8005000Y19697600D01*
X7940678Y19697600D01*
X7823371Y19682157D01*
X7823367Y19682156D01*
X7677412Y19621700D01*
X7552075Y19525525D01*
X7455900Y19400188D01*
X7395444Y19254233D01*
X7395443Y19254230D01*
X7381406Y19147600D01*
X6604000Y19147600D01*
X6604000Y20780698D01*
X7559500Y20780698D01*
X7559500Y20314503D01*
X7575094Y20216038D01*
X7575095Y20216037D01*
X7605907Y20155565D01*
X7635567Y20097355D01*
X7729755Y20003167D01*
X7848438Y19942695D01*
X7946903Y19927100D01*
X8563096Y19927101D01*
X8563097Y19927101D01*
X8610239Y19934567D01*
X8661562Y19942695D01*
X8661565Y19942697D01*
X8667101Y19944495D01*
X8667571Y19943048D01*
X8691113Y19948700D01*
X9293262Y19948700D01*
X9345588Y19927026D01*
X9366351Y19886276D01*
X9370095Y19862638D01*
X9370095Y19862637D01*
X9373547Y19855863D01*
X9430567Y19743955D01*
X9524755Y19649767D01*
X9643438Y19589295D01*
X9741903Y19573700D01*
X10186592Y19573701D01*
X10238918Y19552027D01*
X10452826Y19338119D01*
X10474500Y19285793D01*
X10474500Y18622094D01*
X10452826Y18569768D01*
X10400500Y18548094D01*
X10366905Y18556159D01*
X10306562Y18586905D01*
X10208097Y18602500D01*
X9741902Y18602500D01*
X9643437Y18586906D01*
X9643436Y18586905D01*
X9524753Y18526432D01*
X9430568Y18432247D01*
X9370095Y18313564D01*
X9370095Y18313563D01*
X9354500Y18215098D01*
X9354500Y17598903D01*
X9370094Y17500438D01*
X9370095Y17500437D01*
X9396044Y17449510D01*
X9430567Y17381755D01*
X9524755Y17287567D01*
X9613541Y17242329D01*
X9614095Y17242046D01*
X9650878Y17198979D01*
X9654500Y17176112D01*
X9654500Y17103799D01*
X9672413Y17036944D01*
X9676341Y17022285D01*
X9676343Y17022281D01*
X9718533Y16949206D01*
X9718534Y16949205D01*
X9718536Y16949202D01*
X9774272Y16893466D01*
X9782423Y16885315D01*
X9782429Y16885310D01*
X9943416Y16724323D01*
X9965090Y16671997D01*
X9943416Y16619671D01*
X9363119Y16039374D01*
X9310793Y16017700D01*
X8985889Y16017700D01*
X8933563Y16039374D01*
X8919955Y16058104D01*
X8889023Y16118810D01*
X8874433Y16147445D01*
X8780245Y16241633D01*
X8722035Y16271293D01*
X8661563Y16302105D01*
X8563097Y16317700D01*
X7946902Y16317700D01*
X7848437Y16302106D01*
X7848436Y16302105D01*
X7729753Y16241632D01*
X7635568Y16147447D01*
X7575095Y16028764D01*
X7575095Y16028763D01*
X7559500Y15930298D01*
X7559500Y15464103D01*
X7575094Y15365638D01*
X7575095Y15365637D01*
X7580770Y15354500D01*
X7635567Y15246955D01*
X7729755Y15152767D01*
X7848438Y15092295D01*
X7946903Y15076700D01*
X8452818Y15076701D01*
X8505144Y15055027D01*
X8526818Y15002701D01*
X8524297Y14983549D01*
X8505500Y14913394D01*
X8505500Y14497689D01*
X8483826Y14445363D01*
X8465096Y14431755D01*
X8375753Y14386232D01*
X8281568Y14292047D01*
X8221095Y14173364D01*
X8221095Y14173363D01*
X8205500Y14074898D01*
X8205500Y13458703D01*
X8221094Y13360238D01*
X8221095Y13360237D01*
X8281568Y13241554D01*
X8293826Y13229296D01*
X8315500Y13176970D01*
X8315500Y12733538D01*
X8293826Y12681212D01*
X8253076Y12660449D01*
X8229437Y12656705D01*
X8229436Y12656705D01*
X8110753Y12596232D01*
X8016568Y12502047D01*
X7956095Y12383364D01*
X7956095Y12383363D01*
X7940500Y12284898D01*
X7940500Y11818703D01*
X7956094Y11720238D01*
X7956095Y11720237D01*
X7985186Y11663144D01*
X8016567Y11601555D01*
X8110755Y11507367D01*
X8229438Y11446895D01*
X8327903Y11431300D01*
X8944096Y11431301D01*
X8944097Y11431301D01*
X9042562Y11446895D01*
X9161245Y11507367D01*
X9255433Y11601555D01*
X9315905Y11720238D01*
X9331500Y11818703D01*
X9331499Y12284896D01*
X9315905Y12383362D01*
X9315905Y12383363D01*
X9315904Y12383364D01*
X9314751Y12385625D01*
X9255433Y12502045D01*
X9161245Y12596233D01*
X9042562Y12656705D01*
X9042561Y12656706D01*
X9018924Y12660449D01*
X8970633Y12690042D01*
X8956500Y12733538D01*
X8956500Y12997301D01*
X8978174Y13049627D01*
X9030500Y13071301D01*
X9059097Y13071301D01*
X9157562Y13086895D01*
X9276245Y13147367D01*
X9370433Y13241555D01*
X9430905Y13360238D01*
X9446500Y13458703D01*
X9446499Y14074896D01*
X9441810Y14104501D01*
X9430905Y14173363D01*
X9430904Y14173364D01*
X9429751Y14175625D01*
X9370433Y14292045D01*
X9276245Y14386233D01*
X9231713Y14408923D01*
X9186904Y14431755D01*
X9179172Y14440808D01*
X9168174Y14445363D01*
X9161480Y14461523D01*
X9150122Y14474822D01*
X9146500Y14497689D01*
X9146500Y14642300D01*
X9168174Y14694626D01*
X9220500Y14716300D01*
X9541794Y14716300D01*
X9541795Y14716300D01*
X9623309Y14738141D01*
X9696392Y14780336D01*
X9756064Y14840008D01*
X9756065Y14840011D01*
X10022543Y15106489D01*
X10074868Y15128162D01*
X10127192Y15106489D01*
X10170855Y15062826D01*
X10272483Y14994920D01*
X10296984Y14984772D01*
X10337032Y14944726D01*
X10337034Y14888088D01*
X10320993Y14864080D01*
X10297360Y14840447D01*
X10239835Y14727550D01*
X10239835Y14727549D01*
X10225000Y14633882D01*
X10225000Y14402400D01*
X10676000Y14402400D01*
X10728326Y14380726D01*
X10750000Y14328400D01*
X10750000Y14226400D01*
X10728326Y14174074D01*
X10676000Y14152400D01*
X10225000Y14152400D01*
X10225000Y14137624D01*
X10203326Y14085298D01*
X10179724Y14070834D01*
X10180042Y14070210D01*
X10061953Y14010040D01*
X9972360Y13920447D01*
X9914835Y13807550D01*
X9914835Y13807549D01*
X9900000Y13713882D01*
X9900000Y13102400D01*
X15099999Y13102400D01*
X15099999Y13611355D01*
X15121673Y13663681D01*
X15159561Y13683933D01*
X15226993Y13697346D01*
X15339917Y13744120D01*
X15369713Y13764030D01*
X15410824Y13776500D01*
X15641925Y13776500D01*
X15694251Y13754826D01*
X15711772Y13726941D01*
X15734677Y13661483D01*
X15814425Y13553427D01*
X15814426Y13553426D01*
X15910973Y13482171D01*
X15940203Y13433660D01*
X15926570Y13378688D01*
X15887680Y13351571D01*
X15882812Y13350157D01*
X15882811Y13350156D01*
X15746888Y13269772D01*
X15635228Y13158112D01*
X15554845Y13022192D01*
X15510789Y12870552D01*
X15508000Y12835111D01*
X15508000Y12797000D01*
X17258000Y12797000D01*
X17258000Y12835111D01*
X17255210Y12870552D01*
X17211154Y13022192D01*
X17130771Y13158112D01*
X17019111Y13269772D01*
X16883190Y13350156D01*
X16878321Y13351570D01*
X16834121Y13386983D01*
X16827908Y13443279D01*
X16855027Y13482171D01*
X16951570Y13553423D01*
X16951570Y13553424D01*
X16951574Y13553426D01*
X17031322Y13661481D01*
X17039179Y13683933D01*
X17071434Y13776113D01*
X17075678Y13788241D01*
X17078500Y13818336D01*
X17078500Y14375664D01*
X17075678Y14405759D01*
X17075676Y14405765D01*
X17031323Y14532518D01*
X16951574Y14640574D01*
X16951573Y14640575D01*
X16843517Y14720324D01*
X16716764Y14764677D01*
X16716765Y14764677D01*
X16716760Y14764678D01*
X16716759Y14764678D01*
X16692134Y14766988D01*
X16685087Y14767648D01*
X16635014Y14794114D01*
X16618321Y14848236D01*
X16639672Y14893650D01*
X16650848Y14904825D01*
X16718754Y15006453D01*
X16735587Y15047093D01*
X16744918Y15069619D01*
X16784966Y15109668D01*
X16813285Y15115301D01*
X17072097Y15115301D01*
X17170562Y15130895D01*
X17289245Y15191367D01*
X17383433Y15285555D01*
X17443905Y15404238D01*
X17459500Y15502703D01*
X17459499Y15968896D01*
X17449710Y16030705D01*
X17443905Y16067363D01*
X17443904Y16067364D01*
X17438498Y16077974D01*
X17383433Y16186045D01*
X17289245Y16280233D01*
X17215712Y16317700D01*
X17170563Y16340705D01*
X17072097Y16356300D01*
X16455902Y16356300D01*
X16357437Y16340706D01*
X16357436Y16340705D01*
X16238753Y16280232D01*
X16144568Y16186047D01*
X16099045Y16096704D01*
X16055978Y16059922D01*
X16033111Y16056300D01*
X15669608Y16056300D01*
X15617282Y16077974D01*
X15075584Y16619672D01*
X15053910Y16671998D01*
X15075584Y16724324D01*
X15137374Y16786114D01*
X15221789Y16870529D01*
X15221792Y16870530D01*
X15281464Y16930202D01*
X15323659Y17003285D01*
X15345500Y17084799D01*
X15345500Y17135800D01*
X15890407Y17135800D01*
X15904443Y17029172D01*
X15904444Y17029168D01*
X15964900Y16883213D01*
X16061075Y16757876D01*
X16186412Y16661701D01*
X16332369Y16601244D01*
X16449678Y16585801D01*
X16513999Y16585801D01*
X17014000Y16585801D01*
X17078321Y16585801D01*
X17195628Y16601244D01*
X17195632Y16601245D01*
X17341587Y16661701D01*
X17466924Y16757876D01*
X17563099Y16883213D01*
X17623555Y17029168D01*
X17623556Y17029171D01*
X17637594Y17135800D01*
X17014000Y17135800D01*
X17014000Y16585801D01*
X16513999Y16585801D01*
X16514000Y16585802D01*
X16514000Y17135800D01*
X15890407Y17135800D01*
X15345500Y17135800D01*
X15345500Y17176112D01*
X15367174Y17228438D01*
X15385905Y17242046D01*
X15386085Y17242139D01*
X15475245Y17287567D01*
X15569433Y17381755D01*
X15629905Y17500438D01*
X15645500Y17598903D01*
X15645500Y17635800D01*
X15890406Y17635800D01*
X16514000Y17635800D01*
X17014000Y17635800D01*
X17637593Y17635800D01*
X17637593Y17635801D01*
X17623556Y17742429D01*
X17623555Y17742433D01*
X17563099Y17888388D01*
X17466923Y18013726D01*
X17466922Y18013727D01*
X17384604Y18076892D01*
X17356285Y18125941D01*
X17370944Y18180648D01*
X17384604Y18194308D01*
X17466922Y18257474D01*
X17466923Y18257475D01*
X17563099Y18382813D01*
X17623555Y18528768D01*
X17623556Y18528772D01*
X17629313Y18572498D01*
X17629313Y18572499D01*
X17637594Y18635400D01*
X17014000Y18635400D01*
X17014000Y17635800D01*
X16514000Y17635800D01*
X16514000Y18635400D01*
X15890407Y18635400D01*
X15904443Y18528772D01*
X15904444Y18528768D01*
X15964900Y18382813D01*
X16061075Y18257476D01*
X16143396Y18194308D01*
X16171714Y18145258D01*
X16157055Y18090551D01*
X16143396Y18076892D01*
X16061075Y18013725D01*
X15964900Y17888388D01*
X15904444Y17742433D01*
X15904443Y17742430D01*
X15890406Y17635800D01*
X15645500Y17635800D01*
X15645499Y17913003D01*
X15645499Y18215098D01*
X15629905Y18313563D01*
X15629904Y18313564D01*
X15628751Y18315825D01*
X15569433Y18432245D01*
X15475245Y18526433D01*
X15406624Y18561397D01*
X15356563Y18586905D01*
X15258097Y18602500D01*
X14791902Y18602500D01*
X14693438Y18586906D01*
X14652095Y18565840D01*
X14595632Y18561397D01*
X14552565Y18598180D01*
X14544500Y18631775D01*
X14544500Y19135400D01*
X15890406Y19135400D01*
X16514000Y19135400D01*
X17014000Y19135400D01*
X17637593Y19135400D01*
X17637593Y19135401D01*
X17623556Y19242029D01*
X17623555Y19242033D01*
X17563099Y19387988D01*
X17466924Y19513325D01*
X17341587Y19609500D01*
X17195630Y19669957D01*
X17078321Y19685400D01*
X17014000Y19685400D01*
X17014000Y19135400D01*
X16514000Y19135400D01*
X16514000Y19685400D01*
X16449678Y19685400D01*
X16332371Y19669957D01*
X16332367Y19669956D01*
X16186412Y19609500D01*
X16061075Y19513325D01*
X15964900Y19387988D01*
X15904444Y19242033D01*
X15904443Y19242030D01*
X15890406Y19135400D01*
X14544500Y19135400D01*
X14544500Y19304794D01*
X14566173Y19357119D01*
X14761081Y19552028D01*
X14813403Y19573701D01*
X15258096Y19573701D01*
X15258097Y19573701D01*
X15356562Y19589295D01*
X15475245Y19649767D01*
X15569433Y19743955D01*
X15629905Y19862638D01*
X15633649Y19886276D01*
X15663242Y19934567D01*
X15706738Y19948700D01*
X16303944Y19948700D01*
X16337539Y19940634D01*
X16357437Y19930496D01*
X16357437Y19930495D01*
X16373032Y19928026D01*
X16455903Y19914900D01*
X17072096Y19914901D01*
X17072097Y19914901D01*
X17170562Y19930495D01*
X17289245Y19990967D01*
X17383433Y20085155D01*
X17443905Y20203838D01*
X17459500Y20302303D01*
X17459499Y20768496D01*
X17455389Y20794445D01*
X17443905Y20866963D01*
X17443904Y20866964D01*
X17437688Y20879164D01*
X17383433Y20985645D01*
X17289245Y21079833D01*
X17231035Y21109493D01*
X17170563Y21140305D01*
X17072097Y21155900D01*
X16455902Y21155900D01*
X16357437Y21140306D01*
X16357436Y21140305D01*
X16238753Y21079832D01*
X16144568Y20985647D01*
X16084095Y20866964D01*
X16084095Y20866963D01*
X16068500Y20768498D01*
X16068500Y20663700D01*
X16046826Y20611374D01*
X15994500Y20589700D01*
X15706738Y20589700D01*
X15654412Y20611374D01*
X15633649Y20652124D01*
X15631815Y20663700D01*
X15629905Y20675762D01*
X15569433Y20794445D01*
X15475245Y20888633D01*
X15417035Y20918293D01*
X15356563Y20949105D01*
X15258097Y20964700D01*
X14791902Y20964700D01*
X14693437Y20949106D01*
X14693436Y20949105D01*
X14574753Y20888632D01*
X14480568Y20794447D01*
X14420095Y20675764D01*
X14420095Y20675763D01*
X14404500Y20577298D01*
X14404500Y20132608D01*
X14382826Y20080282D01*
X14106080Y19803537D01*
X14053754Y19781863D01*
X14001428Y19803537D01*
X13979754Y19855863D01*
X13980665Y19867439D01*
X13981468Y19872507D01*
X13995500Y19961103D01*
X13995499Y20577296D01*
X13991296Y20603833D01*
X13979905Y20675763D01*
X13979904Y20675764D01*
X13978751Y20678025D01*
X13919433Y20794445D01*
X13825245Y20888633D01*
X13767035Y20918293D01*
X13706563Y20949105D01*
X13608097Y20964700D01*
X13141902Y20964700D01*
X13043437Y20949106D01*
X13043436Y20949105D01*
X12924753Y20888632D01*
X12830568Y20794447D01*
X12830567Y20794445D01*
X12823258Y20780103D01*
X12780192Y20743321D01*
X12757326Y20739700D01*
X12242674Y20739700D01*
X12190348Y20761374D01*
X12176742Y20780101D01*
X12169433Y20794445D01*
X12075245Y20888633D01*
X12017035Y20918293D01*
X11956563Y20949105D01*
X11858097Y20964700D01*
X11391902Y20964700D01*
X11293437Y20949106D01*
X11293436Y20949105D01*
X11174753Y20888632D01*
X11080568Y20794447D01*
X11020095Y20675764D01*
X11020095Y20675763D01*
X11004500Y20577298D01*
X11004500Y19961103D01*
X11019335Y19867436D01*
X11006113Y19812364D01*
X10957821Y19782772D01*
X10902749Y19795994D01*
X10893920Y19803535D01*
X10617173Y20080282D01*
X10595499Y20132608D01*
X10595499Y20577298D01*
X10579905Y20675763D01*
X10579904Y20675764D01*
X10578751Y20678025D01*
X10519433Y20794445D01*
X10425245Y20888633D01*
X10367035Y20918293D01*
X10306563Y20949105D01*
X10208097Y20964700D01*
X9741902Y20964700D01*
X9643437Y20949106D01*
X9643436Y20949105D01*
X9524753Y20888632D01*
X9430567Y20794446D01*
X9430567Y20794445D01*
X9370095Y20675763D01*
X9370094Y20675762D01*
X9366351Y20652124D01*
X9336758Y20603833D01*
X9293262Y20589700D01*
X9024499Y20589700D01*
X8972173Y20611374D01*
X8950499Y20663700D01*
X8950499Y20780698D01*
X8934905Y20879163D01*
X8934904Y20879164D01*
X8899267Y20949105D01*
X8874433Y20997845D01*
X8780245Y21092033D01*
X8685504Y21140306D01*
X8661563Y21152505D01*
X8563097Y21168100D01*
X7946902Y21168100D01*
X7848437Y21152506D01*
X7848436Y21152505D01*
X7729753Y21092032D01*
X7635568Y20997847D01*
X7575095Y20879164D01*
X7575095Y20879163D01*
X7559500Y20780698D01*
X6604000Y20780698D01*
X6604000Y22499500D01*
X10817261Y22499500D01*
X10869587Y22477826D01*
G37*
%TD.AperFunction*%
%TA.AperFunction,Conductor*%
G36*
X18415000Y10959693D02*
G01*
X18399433Y10990245D01*
X18305245Y11084433D01*
X18186562Y11144905D01*
X18186561Y11144906D01*
X18162924Y11148649D01*
X18143367Y11160634D01*
X18122174Y11169412D01*
X18119837Y11175053D01*
X18114633Y11178242D01*
X18100500Y11221738D01*
X18100500Y11266594D01*
X18122173Y11318919D01*
X18415000Y11611746D01*
X18415000Y10959693D01*
G37*
%TD.AperFunction*%
%TD*%
%TA.AperFunction,Conductor*%
%TO.N,GND*%
G36*
X20869587Y22477826D02*
G01*
X20885628Y22453818D01*
X20886289Y22452222D01*
X20886290Y22452219D01*
X20932473Y22340723D01*
X20971591Y22246283D01*
X20971594Y22246275D01*
X21083049Y22053230D01*
X21083053Y22053224D01*
X21218747Y21876382D01*
X21376381Y21718748D01*
X21553223Y21583054D01*
X21553226Y21583052D01*
X21746274Y21471595D01*
X21952219Y21386290D01*
X22167537Y21328596D01*
X22388543Y21299500D01*
X22388545Y21299500D01*
X22611455Y21299500D01*
X22611457Y21299500D01*
X22832463Y21328596D01*
X23047781Y21386290D01*
X23253726Y21471595D01*
X23446774Y21583052D01*
X23542309Y21656359D01*
X23623618Y21718748D01*
X23623619Y21718750D01*
X23623624Y21718753D01*
X23781247Y21876376D01*
X23916948Y22053226D01*
X24028405Y22246274D01*
X24113710Y22452219D01*
X24113710Y22452222D01*
X24114372Y22453818D01*
X24154420Y22493867D01*
X24182739Y22499500D01*
X24425500Y22499500D01*
X24477826Y22477826D01*
X24499500Y22425500D01*
X24499500Y574500D01*
X24477826Y522174D01*
X24425500Y500500D01*
X24182739Y500500D01*
X24130413Y522174D01*
X24114372Y546182D01*
X24102642Y574500D01*
X24028405Y753726D01*
X23916948Y946774D01*
X23916946Y946777D01*
X23781252Y1123619D01*
X23623618Y1281253D01*
X23446776Y1416947D01*
X23446770Y1416951D01*
X23253725Y1528406D01*
X23253717Y1528409D01*
X23047782Y1613710D01*
X22832461Y1671405D01*
X22669647Y1692840D01*
X22611457Y1700500D01*
X22388543Y1700500D01*
X22337122Y1693731D01*
X22167538Y1671405D01*
X21952217Y1613710D01*
X21746282Y1528409D01*
X21746274Y1528406D01*
X21553229Y1416951D01*
X21553223Y1416947D01*
X21376381Y1281253D01*
X21218747Y1123619D01*
X21083053Y946777D01*
X21083049Y946771D01*
X20971594Y753726D01*
X20971591Y753718D01*
X20913302Y612995D01*
X20897358Y574500D01*
X20885628Y546182D01*
X20845580Y506133D01*
X20817261Y500500D01*
X18415000Y500500D01*
X18415000Y4598291D01*
X18455822Y4609228D01*
X18528905Y4651423D01*
X18588577Y4711095D01*
X18588578Y4711098D01*
X19210308Y5332827D01*
X19262634Y5354501D01*
X20585153Y5354501D01*
X20585160Y5354501D01*
X20657179Y5364993D01*
X20768266Y5419300D01*
X20855700Y5506734D01*
X20858763Y5513001D01*
X20901214Y5550490D01*
X20925244Y5554500D01*
X22020794Y5554500D01*
X22020795Y5554500D01*
X22102309Y5576341D01*
X22175392Y5618536D01*
X22235064Y5678208D01*
X22235065Y5678211D01*
X22345589Y5788735D01*
X22345592Y5788736D01*
X22405264Y5848408D01*
X22405269Y5848417D01*
X22406344Y5849817D01*
X22407758Y5850903D01*
X22408694Y5851838D01*
X22408817Y5851715D01*
X22436744Y5873147D01*
X22442717Y5875620D01*
X22544345Y5943526D01*
X22630774Y6029955D01*
X22698680Y6131583D01*
X22745454Y6244507D01*
X22769300Y6364386D01*
X22769300Y6486614D01*
X22745454Y6606493D01*
X22698680Y6719417D01*
X22630774Y6821045D01*
X22544345Y6907474D01*
X22442717Y6975380D01*
X22442716Y6975381D01*
X22442714Y6975382D01*
X22329797Y7022153D01*
X22329787Y7022156D01*
X22245637Y7038894D01*
X22209914Y7046000D01*
X22087686Y7046000D01*
X22053701Y7039240D01*
X21967812Y7022156D01*
X21967802Y7022153D01*
X21854885Y6975382D01*
X21753258Y6907477D01*
X21666823Y6821042D01*
X21598918Y6719415D01*
X21552147Y6606498D01*
X21552144Y6606488D01*
X21546538Y6578302D01*
X21528300Y6486614D01*
X21528300Y6364386D01*
X21535001Y6330700D01*
X21544303Y6283937D01*
X21533254Y6228388D01*
X21486162Y6196922D01*
X21471725Y6195500D01*
X20925244Y6195500D01*
X20872918Y6217174D01*
X20858764Y6236998D01*
X20855700Y6243266D01*
X20768266Y6330700D01*
X20657179Y6385007D01*
X20585161Y6395500D01*
X20585160Y6395500D01*
X19114840Y6395500D01*
X19042819Y6385007D01*
X18947097Y6338211D01*
X18937244Y6337600D01*
X18929035Y6332114D01*
X18909967Y6335907D01*
X18890569Y6334702D01*
X18883170Y6341236D01*
X18873486Y6343162D01*
X18862685Y6359327D01*
X18848116Y6372192D01*
X18842019Y6390254D01*
X18840976Y6395499D01*
X18831267Y6444305D01*
X18842315Y6499851D01*
X18851513Y6511060D01*
X18946777Y6606323D01*
X18999102Y6627996D01*
X19031602Y6620477D01*
X19042818Y6614994D01*
X19042819Y6614994D01*
X19042821Y6614993D01*
X19114839Y6604500D01*
X20585160Y6604501D01*
X20657179Y6614993D01*
X20768266Y6669300D01*
X20855700Y6756734D01*
X20910007Y6867821D01*
X20920500Y6939839D01*
X20920499Y7310160D01*
X20910007Y7382179D01*
X20855700Y7493266D01*
X20768266Y7580700D01*
X20657179Y7635007D01*
X20585161Y7645500D01*
X20585160Y7645500D01*
X19114840Y7645500D01*
X19042819Y7635007D01*
X18931734Y7580701D01*
X18844300Y7493267D01*
X18789993Y7382179D01*
X18789992Y7382177D01*
X18789075Y7375884D01*
X18768175Y7334233D01*
X18601825Y7167883D01*
X18549499Y7146209D01*
X18497173Y7167883D01*
X18475499Y7220208D01*
X18475499Y7521896D01*
X18459905Y7620362D01*
X18459905Y7620363D01*
X18459904Y7620364D01*
X18447097Y7645499D01*
X18415000Y7708494D01*
X18415000Y8470307D01*
X18459905Y8558438D01*
X18460179Y8560166D01*
X18779500Y8560166D01*
X18779500Y8189847D01*
X18779501Y8189835D01*
X18789993Y8117820D01*
X18844299Y8006735D01*
X18844300Y8006734D01*
X18931734Y7919300D01*
X19042821Y7864993D01*
X19114839Y7854500D01*
X20585160Y7854501D01*
X20657179Y7864993D01*
X20712482Y7892029D01*
X20722612Y7896981D01*
X20755112Y7904500D01*
X21281835Y7904500D01*
X21322947Y7892029D01*
X21423083Y7825120D01*
X21423084Y7825120D01*
X21423085Y7825119D01*
X21536002Y7778348D01*
X21536007Y7778346D01*
X21655886Y7754500D01*
X21655888Y7754500D01*
X21778112Y7754500D01*
X21778114Y7754500D01*
X21897993Y7778346D01*
X22010917Y7825120D01*
X22112545Y7893026D01*
X22198974Y7979455D01*
X22266880Y8081083D01*
X22313654Y8194007D01*
X22337500Y8313886D01*
X22337500Y8436114D01*
X22313654Y8555993D01*
X22306024Y8574413D01*
X22266881Y8668915D01*
X22198976Y8770542D01*
X22198974Y8770545D01*
X22112545Y8856974D01*
X22010917Y8924880D01*
X22010916Y8924881D01*
X22010914Y8924882D01*
X21897997Y8971653D01*
X21897987Y8971656D01*
X21817711Y8987624D01*
X21778114Y8995500D01*
X21655886Y8995500D01*
X21621901Y8988740D01*
X21536012Y8971656D01*
X21536002Y8971653D01*
X21423085Y8924882D01*
X21322947Y8857971D01*
X21281835Y8845500D01*
X20755113Y8845500D01*
X20722613Y8853019D01*
X20657181Y8885007D01*
X20609167Y8892003D01*
X20585161Y8895500D01*
X20585160Y8895500D01*
X19114840Y8895500D01*
X19042819Y8885007D01*
X18931734Y8830701D01*
X18844300Y8743267D01*
X18789993Y8632180D01*
X18779500Y8560166D01*
X18460179Y8560166D01*
X18475500Y8656903D01*
X18475499Y9123096D01*
X18459905Y9221562D01*
X18459905Y9221563D01*
X18459904Y9221564D01*
X18458342Y9224629D01*
X18415000Y9309694D01*
X18415000Y10120307D01*
X18459905Y10208438D01*
X18475500Y10306903D01*
X18475499Y10773096D01*
X18459905Y10871562D01*
X18459905Y10871563D01*
X18459904Y10871564D01*
X18458342Y10874629D01*
X18415000Y10959694D01*
X18415000Y11611746D01*
X18738789Y11935535D01*
X18738792Y11935536D01*
X18798464Y11995208D01*
X18840659Y12068291D01*
X18846511Y12090133D01*
X18862501Y12149806D01*
X18862501Y12234195D01*
X18862501Y12238724D01*
X18862500Y12238742D01*
X18862500Y15025794D01*
X18884173Y15078119D01*
X19138881Y15332828D01*
X19191207Y15354501D01*
X20585153Y15354501D01*
X20585160Y15354501D01*
X20657179Y15364993D01*
X20768266Y15419300D01*
X20855700Y15506734D01*
X20858763Y15513001D01*
X20901214Y15550490D01*
X20925244Y15554500D01*
X22013194Y15554500D01*
X22013195Y15554500D01*
X22094709Y15576341D01*
X22167792Y15618536D01*
X22227464Y15678208D01*
X22227465Y15678211D01*
X22345589Y15796335D01*
X22345592Y15796336D01*
X22405264Y15856008D01*
X22423224Y15887119D01*
X22446195Y15911645D01*
X22544345Y15977226D01*
X22630774Y16063655D01*
X22698680Y16165283D01*
X22745454Y16278207D01*
X22769300Y16398086D01*
X22769300Y16520314D01*
X22745454Y16640193D01*
X22698680Y16753117D01*
X22630774Y16854745D01*
X22544345Y16941174D01*
X22442717Y17009080D01*
X22442716Y17009081D01*
X22442714Y17009082D01*
X22329797Y17055853D01*
X22329787Y17055856D01*
X22249511Y17071824D01*
X22209914Y17079700D01*
X22087686Y17079700D01*
X22053701Y17072940D01*
X21967812Y17055856D01*
X21967802Y17055853D01*
X21854885Y17009082D01*
X21753258Y16941177D01*
X21666823Y16854742D01*
X21598918Y16753115D01*
X21552147Y16640198D01*
X21552144Y16640188D01*
X21534555Y16551760D01*
X21528300Y16520314D01*
X21528300Y16398086D01*
X21528815Y16395499D01*
X21551006Y16283937D01*
X21539957Y16228388D01*
X21492865Y16196922D01*
X21478428Y16195500D01*
X20925244Y16195500D01*
X20872918Y16217174D01*
X20858764Y16236998D01*
X20855700Y16243266D01*
X20768266Y16330700D01*
X20657179Y16385007D01*
X20585161Y16395500D01*
X20585160Y16395500D01*
X19114840Y16395500D01*
X19042819Y16385007D01*
X18931734Y16330701D01*
X18907612Y16306579D01*
X18855286Y16284906D01*
X18802960Y16306581D01*
X18793759Y16317793D01*
X18783354Y16333364D01*
X18783351Y16333368D01*
X18696923Y16419796D01*
X18696919Y16419799D01*
X18696917Y16419801D01*
X18653040Y16449119D01*
X18621575Y16496211D01*
X18632625Y16551760D01*
X18641823Y16562969D01*
X18787618Y16708765D01*
X18839944Y16730438D01*
X18892270Y16708764D01*
X18931734Y16669300D01*
X19042821Y16614993D01*
X19114839Y16604500D01*
X20585160Y16604501D01*
X20657179Y16614993D01*
X20768266Y16669300D01*
X20855700Y16756734D01*
X20910007Y16867821D01*
X20920500Y16939839D01*
X20920499Y17310160D01*
X20910007Y17382179D01*
X20855700Y17493266D01*
X20768266Y17580700D01*
X20657179Y17635007D01*
X20585161Y17645500D01*
X20585160Y17645500D01*
X19114840Y17645500D01*
X19042819Y17635007D01*
X18931734Y17580701D01*
X18844301Y17493268D01*
X18844300Y17493267D01*
X18844300Y17493266D01*
X18841236Y17487000D01*
X18798786Y17449510D01*
X18774756Y17445500D01*
X18708405Y17445500D01*
X18667648Y17434580D01*
X18626890Y17423659D01*
X18626886Y17423657D01*
X18553810Y17381466D01*
X18553807Y17381464D01*
X18494135Y17321793D01*
X18494136Y17321792D01*
X18494134Y17321790D01*
X18415000Y17242656D01*
X18415000Y18560166D01*
X18779500Y18560166D01*
X18779500Y18189847D01*
X18779501Y18189835D01*
X18789993Y18117820D01*
X18844299Y18006735D01*
X18844300Y18006734D01*
X18931734Y17919300D01*
X19042821Y17864993D01*
X19114839Y17854500D01*
X20585160Y17854501D01*
X20657179Y17864993D01*
X20722612Y17896981D01*
X20755112Y17904500D01*
X21340421Y17904500D01*
X21392747Y17882826D01*
X21467877Y17807696D01*
X21467882Y17807690D01*
X21470466Y17805106D01*
X21558066Y17717506D01*
X21584652Y17702157D01*
X21665356Y17655563D01*
X21742073Y17635007D01*
X21785014Y17623501D01*
X21785015Y17623500D01*
X21785017Y17623500D01*
X21908903Y17623500D01*
X22010835Y17623500D01*
X22051947Y17611029D01*
X22152083Y17544120D01*
X22265007Y17497346D01*
X22384886Y17473500D01*
X22384888Y17473500D01*
X22507112Y17473500D01*
X22507114Y17473500D01*
X22626993Y17497346D01*
X22739917Y17544120D01*
X22841545Y17612026D01*
X22927974Y17698455D01*
X22995880Y17800083D01*
X23042654Y17913007D01*
X23066500Y18032886D01*
X23066500Y18155114D01*
X23042654Y18274993D01*
X22995880Y18387917D01*
X22927974Y18489545D01*
X22841545Y18575974D01*
X22817409Y18592101D01*
X22739914Y18643882D01*
X22626997Y18690653D01*
X22626987Y18690656D01*
X22546711Y18706624D01*
X22507114Y18714500D01*
X22384886Y18714500D01*
X22350901Y18707740D01*
X22265012Y18690656D01*
X22265002Y18690653D01*
X22152083Y18643881D01*
X22152080Y18643880D01*
X22088910Y18601671D01*
X22067741Y18597461D01*
X22047799Y18589200D01*
X22040795Y18592101D01*
X22033361Y18590622D01*
X21995473Y18610874D01*
X21946674Y18659673D01*
X21946672Y18659676D01*
X21854854Y18751494D01*
X21747563Y18813438D01*
X21627905Y18845500D01*
X21627903Y18845500D01*
X20755113Y18845500D01*
X20722613Y18853019D01*
X20657181Y18885007D01*
X20609167Y18892003D01*
X20585161Y18895500D01*
X20585160Y18895500D01*
X19114840Y18895500D01*
X19042819Y18885007D01*
X18931734Y18830701D01*
X18844300Y18743267D01*
X18789993Y18632180D01*
X18779500Y18560166D01*
X18415000Y18560166D01*
X18415000Y22499500D01*
X20817261Y22499500D01*
X20869587Y22477826D01*
G37*
%TD.AperFunction*%
%TD*%
M02*
