%TF.GenerationSoftware,KiCad,Pcbnew,7.0.10-7.0.10~ubuntu23.04.1*%
%TF.CreationDate,2024-02-13T12:53:33+00:00*%
%TF.ProjectId,TFI2CADT01,54464932-4341-4445-9430-312e6b696361,rev?*%
%TF.SameCoordinates,PX7a53eb0PY6e37550*%
%TF.FileFunction,Copper,L1,Top*%
%TF.FilePolarity,Positive*%
%FSLAX46Y46*%
G04 Gerber Fmt 4.6, Leading zero omitted, Abs format (unit mm)*
G04 Created by KiCad (PCBNEW 7.0.10-7.0.10~ubuntu23.04.1) date 2024-02-13 12:53:33*
%MOMM*%
%LPD*%
G01*
G04 APERTURE LIST*
G04 Aperture macros list*
%AMRoundRect*
0 Rectangle with rounded corners*
0 $1 Rounding radius*
0 $2 $3 $4 $5 $6 $7 $8 $9 X,Y pos of 4 corners*
0 Add a 4 corners polygon primitive as box body*
4,1,4,$2,$3,$4,$5,$6,$7,$8,$9,$2,$3,0*
0 Add four circle primitives for the rounded corners*
1,1,$1+$1,$2,$3*
1,1,$1+$1,$4,$5*
1,1,$1+$1,$6,$7*
1,1,$1+$1,$8,$9*
0 Add four rect primitives between the rounded corners*
20,1,$1+$1,$2,$3,$4,$5,0*
20,1,$1+$1,$4,$5,$6,$7,0*
20,1,$1+$1,$6,$7,$8,$9,0*
20,1,$1+$1,$8,$9,$2,$3,0*%
%AMFreePoly0*
4,1,19,0.500000,-0.750000,0.000000,-0.750000,0.000000,-0.744911,-0.071157,-0.744911,-0.207708,-0.704816,-0.327430,-0.627875,-0.420627,-0.520320,-0.479746,-0.390866,-0.500000,-0.250000,-0.500000,0.250000,-0.479746,0.390866,-0.420627,0.520320,-0.327430,0.627875,-0.207708,0.704816,-0.071157,0.744911,0.000000,0.744911,0.000000,0.750000,0.500000,0.750000,0.500000,-0.750000,0.500000,-0.750000,
$1*%
%AMFreePoly1*
4,1,19,0.000000,0.744911,0.071157,0.744911,0.207708,0.704816,0.327430,0.627875,0.420627,0.520320,0.479746,0.390866,0.500000,0.250000,0.500000,-0.250000,0.479746,-0.390866,0.420627,-0.520320,0.327430,-0.627875,0.207708,-0.704816,0.071157,-0.744911,0.000000,-0.744911,0.000000,-0.750000,-0.500000,-0.750000,-0.500000,0.750000,0.000000,0.750000,0.000000,0.744911,0.000000,0.744911,
$1*%
G04 Aperture macros list end*
%ADD10C,0.170000*%
%TA.AperFunction,NonConductor*%
%ADD11C,0.170000*%
%TD*%
%ADD12C,0.150000*%
%TA.AperFunction,NonConductor*%
%ADD13C,0.150000*%
%TD*%
%TA.AperFunction,SMDPad,CuDef*%
%ADD14FreePoly0,270.000000*%
%TD*%
%TA.AperFunction,SMDPad,CuDef*%
%ADD15FreePoly1,270.000000*%
%TD*%
%TA.AperFunction,SMDPad,CuDef*%
%ADD16FreePoly0,90.000000*%
%TD*%
%TA.AperFunction,SMDPad,CuDef*%
%ADD17FreePoly1,90.000000*%
%TD*%
%TA.AperFunction,SMDPad,CuDef*%
%ADD18RoundRect,0.150000X0.700000X-0.150000X0.700000X0.150000X-0.700000X0.150000X-0.700000X-0.150000X0*%
%TD*%
%TA.AperFunction,SMDPad,CuDef*%
%ADD19RoundRect,0.250000X1.100000X-0.250000X1.100000X0.250000X-1.100000X0.250000X-1.100000X-0.250000X0*%
%TD*%
%TA.AperFunction,ViaPad*%
%ADD20C,0.800000*%
%TD*%
%TA.AperFunction,Conductor*%
%ADD21C,0.500000*%
%TD*%
%TA.AperFunction,Conductor*%
%ADD22C,0.200000*%
%TD*%
%TA.AperFunction,Conductor*%
%ADD23C,0.250000*%
%TD*%
G04 APERTURE END LIST*
D10*
D11*
X18765714Y21474860D02*
X18733333Y21441527D01*
X18733333Y21441527D02*
X18668571Y21408194D01*
X18668571Y21408194D02*
X18506666Y21408194D01*
X18506666Y21408194D02*
X18441904Y21441527D01*
X18441904Y21441527D02*
X18409523Y21474860D01*
X18409523Y21474860D02*
X18377142Y21541527D01*
X18377142Y21541527D02*
X18377142Y21608194D01*
X18377142Y21608194D02*
X18409523Y21708194D01*
X18409523Y21708194D02*
X18798095Y22108194D01*
X18798095Y22108194D02*
X18377142Y22108194D01*
X17956190Y21408194D02*
X17891428Y21408194D01*
X17891428Y21408194D02*
X17826666Y21441527D01*
X17826666Y21441527D02*
X17794285Y21474860D01*
X17794285Y21474860D02*
X17761904Y21541527D01*
X17761904Y21541527D02*
X17729523Y21674860D01*
X17729523Y21674860D02*
X17729523Y21841527D01*
X17729523Y21841527D02*
X17761904Y21974860D01*
X17761904Y21974860D02*
X17794285Y22041527D01*
X17794285Y22041527D02*
X17826666Y22074860D01*
X17826666Y22074860D02*
X17891428Y22108194D01*
X17891428Y22108194D02*
X17956190Y22108194D01*
X17956190Y22108194D02*
X18020952Y22074860D01*
X18020952Y22074860D02*
X18053333Y22041527D01*
X18053333Y22041527D02*
X18085714Y21974860D01*
X18085714Y21974860D02*
X18118095Y21841527D01*
X18118095Y21841527D02*
X18118095Y21674860D01*
X18118095Y21674860D02*
X18085714Y21541527D01*
X18085714Y21541527D02*
X18053333Y21474860D01*
X18053333Y21474860D02*
X18020952Y21441527D01*
X18020952Y21441527D02*
X17956190Y21408194D01*
X17470476Y21474860D02*
X17438095Y21441527D01*
X17438095Y21441527D02*
X17373333Y21408194D01*
X17373333Y21408194D02*
X17211428Y21408194D01*
X17211428Y21408194D02*
X17146666Y21441527D01*
X17146666Y21441527D02*
X17114285Y21474860D01*
X17114285Y21474860D02*
X17081904Y21541527D01*
X17081904Y21541527D02*
X17081904Y21608194D01*
X17081904Y21608194D02*
X17114285Y21708194D01*
X17114285Y21708194D02*
X17502857Y22108194D01*
X17502857Y22108194D02*
X17081904Y22108194D01*
X16855238Y21408194D02*
X16434285Y21408194D01*
X16434285Y21408194D02*
X16660952Y21674860D01*
X16660952Y21674860D02*
X16563809Y21674860D01*
X16563809Y21674860D02*
X16499047Y21708194D01*
X16499047Y21708194D02*
X16466666Y21741527D01*
X16466666Y21741527D02*
X16434285Y21808194D01*
X16434285Y21808194D02*
X16434285Y21974860D01*
X16434285Y21974860D02*
X16466666Y22041527D01*
X16466666Y22041527D02*
X16499047Y22074860D01*
X16499047Y22074860D02*
X16563809Y22108194D01*
X16563809Y22108194D02*
X16758095Y22108194D01*
X16758095Y22108194D02*
X16822857Y22074860D01*
X16822857Y22074860D02*
X16855238Y22041527D01*
D10*
D11*
X10821903Y21641527D02*
X10562855Y21641527D01*
X10724760Y21408194D02*
X10724760Y22008194D01*
X10724760Y22008194D02*
X10692379Y22074860D01*
X10692379Y22074860D02*
X10627617Y22108194D01*
X10627617Y22108194D02*
X10562855Y22108194D01*
X10336189Y22108194D02*
X10336189Y21408194D01*
X10044760Y22108194D02*
X10044760Y21741527D01*
X10044760Y21741527D02*
X10077141Y21674860D01*
X10077141Y21674860D02*
X10141903Y21641527D01*
X10141903Y21641527D02*
X10239046Y21641527D01*
X10239046Y21641527D02*
X10303808Y21674860D01*
X10303808Y21674860D02*
X10336189Y21708194D01*
X9429522Y21641527D02*
X9429522Y22108194D01*
X9720951Y21641527D02*
X9720951Y22008194D01*
X9720951Y22008194D02*
X9688570Y22074860D01*
X9688570Y22074860D02*
X9623808Y22108194D01*
X9623808Y22108194D02*
X9526665Y22108194D01*
X9526665Y22108194D02*
X9461903Y22074860D01*
X9461903Y22074860D02*
X9429522Y22041527D01*
X9105713Y21641527D02*
X9105713Y22108194D01*
X9105713Y21708194D02*
X9073332Y21674860D01*
X9073332Y21674860D02*
X9008570Y21641527D01*
X9008570Y21641527D02*
X8911427Y21641527D01*
X8911427Y21641527D02*
X8846665Y21674860D01*
X8846665Y21674860D02*
X8814284Y21741527D01*
X8814284Y21741527D02*
X8814284Y22108194D01*
X8199046Y22108194D02*
X8199046Y21408194D01*
X8199046Y22074860D02*
X8263808Y22108194D01*
X8263808Y22108194D02*
X8393332Y22108194D01*
X8393332Y22108194D02*
X8458094Y22074860D01*
X8458094Y22074860D02*
X8490475Y22041527D01*
X8490475Y22041527D02*
X8522856Y21974860D01*
X8522856Y21974860D02*
X8522856Y21774860D01*
X8522856Y21774860D02*
X8490475Y21708194D01*
X8490475Y21708194D02*
X8458094Y21674860D01*
X8458094Y21674860D02*
X8393332Y21641527D01*
X8393332Y21641527D02*
X8263808Y21641527D01*
X8263808Y21641527D02*
X8199046Y21674860D01*
X7616189Y22074860D02*
X7680951Y22108194D01*
X7680951Y22108194D02*
X7810475Y22108194D01*
X7810475Y22108194D02*
X7875237Y22074860D01*
X7875237Y22074860D02*
X7907618Y22008194D01*
X7907618Y22008194D02*
X7907618Y21741527D01*
X7907618Y21741527D02*
X7875237Y21674860D01*
X7875237Y21674860D02*
X7810475Y21641527D01*
X7810475Y21641527D02*
X7680951Y21641527D01*
X7680951Y21641527D02*
X7616189Y21674860D01*
X7616189Y21674860D02*
X7583808Y21741527D01*
X7583808Y21741527D02*
X7583808Y21808194D01*
X7583808Y21808194D02*
X7907618Y21874860D01*
X7292380Y22108194D02*
X7292380Y21641527D01*
X7292380Y21774860D02*
X7259999Y21708194D01*
X7259999Y21708194D02*
X7227618Y21674860D01*
X7227618Y21674860D02*
X7162856Y21641527D01*
X7162856Y21641527D02*
X7098094Y21641527D01*
X6968571Y21641527D02*
X6709523Y21641527D01*
X6871428Y22108194D02*
X6871428Y21508194D01*
X6871428Y21508194D02*
X6839047Y21441527D01*
X6839047Y21441527D02*
X6774285Y21408194D01*
X6774285Y21408194D02*
X6709523Y21408194D01*
X6385714Y22108194D02*
X6450476Y22074860D01*
X6450476Y22074860D02*
X6482857Y22008194D01*
X6482857Y22008194D02*
X6482857Y21408194D01*
X6191429Y21641527D02*
X6029524Y22108194D01*
X5867619Y21641527D02*
X6029524Y22108194D01*
X6029524Y22108194D02*
X6094286Y22274860D01*
X6094286Y22274860D02*
X6126667Y22308194D01*
X6126667Y22308194D02*
X6191429Y22341527D01*
X5608572Y22041527D02*
X5576191Y22074860D01*
X5576191Y22074860D02*
X5608572Y22108194D01*
X5608572Y22108194D02*
X5640953Y22074860D01*
X5640953Y22074860D02*
X5608572Y22041527D01*
X5608572Y22041527D02*
X5608572Y22108194D01*
X4993333Y22074860D02*
X5058095Y22108194D01*
X5058095Y22108194D02*
X5187619Y22108194D01*
X5187619Y22108194D02*
X5252381Y22074860D01*
X5252381Y22074860D02*
X5284762Y22041527D01*
X5284762Y22041527D02*
X5317143Y21974860D01*
X5317143Y21974860D02*
X5317143Y21774860D01*
X5317143Y21774860D02*
X5284762Y21708194D01*
X5284762Y21708194D02*
X5252381Y21674860D01*
X5252381Y21674860D02*
X5187619Y21641527D01*
X5187619Y21641527D02*
X5058095Y21641527D01*
X5058095Y21641527D02*
X4993333Y21674860D01*
X4766667Y21641527D02*
X4410476Y21641527D01*
X4410476Y21641527D02*
X4766667Y22108194D01*
X4766667Y22108194D02*
X4410476Y22108194D01*
D12*
D13*
X4685713Y1295429D02*
X5028571Y1295429D01*
X4857142Y695429D02*
X4857142Y1295429D01*
X5428571Y1009715D02*
X5228571Y1009715D01*
X5228571Y695429D02*
X5228571Y1295429D01*
X5228571Y1295429D02*
X5514285Y1295429D01*
X5742857Y695429D02*
X5742857Y1295429D01*
X5999999Y1238286D02*
X6028571Y1266858D01*
X6028571Y1266858D02*
X6085714Y1295429D01*
X6085714Y1295429D02*
X6228571Y1295429D01*
X6228571Y1295429D02*
X6285714Y1266858D01*
X6285714Y1266858D02*
X6314285Y1238286D01*
X6314285Y1238286D02*
X6342856Y1181143D01*
X6342856Y1181143D02*
X6342856Y1124000D01*
X6342856Y1124000D02*
X6314285Y1038286D01*
X6314285Y1038286D02*
X5971428Y695429D01*
X5971428Y695429D02*
X6342856Y695429D01*
X6942857Y752572D02*
X6914285Y724000D01*
X6914285Y724000D02*
X6828571Y695429D01*
X6828571Y695429D02*
X6771428Y695429D01*
X6771428Y695429D02*
X6685714Y724000D01*
X6685714Y724000D02*
X6628571Y781143D01*
X6628571Y781143D02*
X6600000Y838286D01*
X6600000Y838286D02*
X6571428Y952572D01*
X6571428Y952572D02*
X6571428Y1038286D01*
X6571428Y1038286D02*
X6600000Y1152572D01*
X6600000Y1152572D02*
X6628571Y1209715D01*
X6628571Y1209715D02*
X6685714Y1266858D01*
X6685714Y1266858D02*
X6771428Y1295429D01*
X6771428Y1295429D02*
X6828571Y1295429D01*
X6828571Y1295429D02*
X6914285Y1266858D01*
X6914285Y1266858D02*
X6942857Y1238286D01*
X7171428Y866858D02*
X7457143Y866858D01*
X7114285Y695429D02*
X7314285Y1295429D01*
X7314285Y1295429D02*
X7514285Y695429D01*
X7714286Y695429D02*
X7714286Y1295429D01*
X7714286Y1295429D02*
X7857143Y1295429D01*
X7857143Y1295429D02*
X7942857Y1266858D01*
X7942857Y1266858D02*
X8000000Y1209715D01*
X8000000Y1209715D02*
X8028571Y1152572D01*
X8028571Y1152572D02*
X8057143Y1038286D01*
X8057143Y1038286D02*
X8057143Y952572D01*
X8057143Y952572D02*
X8028571Y838286D01*
X8028571Y838286D02*
X8000000Y781143D01*
X8000000Y781143D02*
X7942857Y724000D01*
X7942857Y724000D02*
X7857143Y695429D01*
X7857143Y695429D02*
X7714286Y695429D01*
X8228571Y1295429D02*
X8571429Y1295429D01*
X8400000Y695429D02*
X8400000Y1295429D01*
X8885714Y1295429D02*
X8942857Y1295429D01*
X8942857Y1295429D02*
X9000000Y1266858D01*
X9000000Y1266858D02*
X9028572Y1238286D01*
X9028572Y1238286D02*
X9057143Y1181143D01*
X9057143Y1181143D02*
X9085714Y1066858D01*
X9085714Y1066858D02*
X9085714Y924000D01*
X9085714Y924000D02*
X9057143Y809715D01*
X9057143Y809715D02*
X9028572Y752572D01*
X9028572Y752572D02*
X9000000Y724000D01*
X9000000Y724000D02*
X8942857Y695429D01*
X8942857Y695429D02*
X8885714Y695429D01*
X8885714Y695429D02*
X8828572Y724000D01*
X8828572Y724000D02*
X8800000Y752572D01*
X8800000Y752572D02*
X8771429Y809715D01*
X8771429Y809715D02*
X8742857Y924000D01*
X8742857Y924000D02*
X8742857Y1066858D01*
X8742857Y1066858D02*
X8771429Y1181143D01*
X8771429Y1181143D02*
X8800000Y1238286D01*
X8800000Y1238286D02*
X8828572Y1266858D01*
X8828572Y1266858D02*
X8885714Y1295429D01*
X9657143Y695429D02*
X9314286Y695429D01*
X9485715Y695429D02*
X9485715Y1295429D01*
X9485715Y1295429D02*
X9428572Y1209715D01*
X9428572Y1209715D02*
X9371429Y1152572D01*
X9371429Y1152572D02*
X9314286Y1124000D01*
X10114287Y1009715D02*
X10200001Y981143D01*
X10200001Y981143D02*
X10228572Y952572D01*
X10228572Y952572D02*
X10257144Y895429D01*
X10257144Y895429D02*
X10257144Y809715D01*
X10257144Y809715D02*
X10228572Y752572D01*
X10228572Y752572D02*
X10200001Y724000D01*
X10200001Y724000D02*
X10142858Y695429D01*
X10142858Y695429D02*
X9914287Y695429D01*
X9914287Y695429D02*
X9914287Y1295429D01*
X9914287Y1295429D02*
X10114287Y1295429D01*
X10114287Y1295429D02*
X10171430Y1266858D01*
X10171430Y1266858D02*
X10200001Y1238286D01*
X10200001Y1238286D02*
X10228572Y1181143D01*
X10228572Y1181143D02*
X10228572Y1124000D01*
X10228572Y1124000D02*
X10200001Y1066858D01*
X10200001Y1066858D02*
X10171430Y1038286D01*
X10171430Y1038286D02*
X10114287Y1009715D01*
X10114287Y1009715D02*
X9914287Y1009715D01*
D14*
%TO.P,JP1,1,A*%
%TO.N,/XORL1*%
X14346000Y7144000D03*
D15*
%TO.P,JP1,2,B*%
%TO.N,+3V3*%
X14346000Y5844000D03*
%TD*%
D16*
%TO.P,JP2,1,A*%
%TO.N,/XORL2*%
X14346000Y15844000D03*
D17*
%TO.P,JP2,2,B*%
%TO.N,+3V3*%
X14346000Y17144000D03*
%TD*%
D18*
%TO.P,J6,1*%
%TO.N,+5V*%
X19850000Y14625000D03*
%TO.P,J6,2*%
%TO.N,/SCLout2*%
X19850000Y15875000D03*
%TO.P,J6,3*%
%TO.N,/SDAout2*%
X19850000Y17125000D03*
%TO.P,J6,4*%
%TO.N,GND*%
X19850000Y18375000D03*
D19*
%TO.P,J6,MP*%
X23050000Y12775000D03*
X23050000Y20225000D03*
%TD*%
D18*
%TO.P,J4,1*%
%TO.N,+5V*%
X19850000Y4625000D03*
%TO.P,J4,2*%
%TO.N,/SCLout1*%
X19850000Y5875000D03*
%TO.P,J4,3*%
%TO.N,/SDAout1*%
X19850000Y7125000D03*
%TO.P,J4,4*%
%TO.N,GND*%
X19850000Y8375000D03*
D19*
%TO.P,J4,MP*%
X23050000Y2775000D03*
X23050000Y10225000D03*
%TD*%
D20*
%TO.N,GND*%
X2146000Y18794000D03*
X2146000Y4294000D03*
X1066800Y11480800D03*
X9601200Y11125200D03*
X4846000Y9494000D03*
X10100000Y14500000D03*
X1046000Y4294000D03*
X23114000Y19151600D03*
X23977600Y19151600D03*
X20421600Y2844800D03*
X6299200Y17983200D03*
X1046000Y18794000D03*
X6299200Y19151600D03*
X1320800Y8788400D03*
X7518400Y12547600D03*
X8000000Y8900000D03*
X12547600Y7061200D03*
X23774400Y4216400D03*
X2336800Y14274800D03*
X14579600Y8991600D03*
X23146000Y11494000D03*
X10668000Y4521200D03*
X24146000Y11494000D03*
X1066800Y14274800D03*
X5994400Y2133600D03*
X2235200Y11480800D03*
%TO.N,+3V3*%
X14429777Y4695066D03*
X13375000Y19065000D03*
X17018000Y8077200D03*
X10566400Y15544800D03*
X15046000Y14294000D03*
%TO.N,+5V*%
X22446000Y18094000D03*
X21717000Y8375000D03*
X14274800Y2032000D03*
%TO.N,/SDAin*%
X10922000Y8800100D03*
X12954000Y9296400D03*
%TO.N,/SCLin*%
X6604000Y6400800D03*
X7642029Y10363200D03*
X6243018Y10334215D03*
%TO.N,/SCLout1*%
X11750000Y8194000D03*
X13766800Y8331200D03*
X18225774Y6307751D03*
%TO.N,/SDAout1*%
X22148800Y6425500D03*
%TO.N,/SCLout2*%
X18301378Y15937822D03*
X15113000Y10605500D03*
X10550500Y10421673D03*
%TO.N,/SDAout2*%
X22148800Y16459200D03*
%TO.N,/XORL1*%
X16168874Y15300370D03*
%TO.N,/XORL2*%
X11582274Y16554970D03*
%TD*%
D21*
%TO.N,+3V3*%
X10566400Y16815791D02*
X11394609Y17644000D01*
X17018000Y6866000D02*
X15996000Y5844000D01*
X14547700Y4812989D02*
X14547700Y5606900D01*
X11394609Y17644000D02*
X13496000Y17644000D01*
X14096000Y17144000D02*
X13596000Y17644000D01*
X15996000Y5844000D02*
X14846000Y5844000D01*
X17018000Y14478000D02*
X17018000Y16422000D01*
X13375000Y17765000D02*
X13496000Y17644000D01*
D22*
X15046000Y14394000D02*
X11717200Y14394000D01*
D21*
X17018000Y16422000D02*
X16296000Y17144000D01*
X13375000Y19065000D02*
X13375000Y17765000D01*
X17018000Y8077200D02*
X17018000Y6866000D01*
X14429777Y4695066D02*
X14547700Y4812989D01*
X14846000Y17144000D02*
X14096000Y17144000D01*
X16296000Y17144000D02*
X14846000Y17144000D01*
X17018000Y8077200D02*
X17018000Y14478000D01*
X10566400Y15544800D02*
X10566400Y16815791D01*
D22*
X11717200Y14394000D02*
X10566400Y15544800D01*
D21*
X13596000Y17644000D02*
X13496000Y17644000D01*
%TO.N,+5V*%
X19850000Y10249000D02*
X19850000Y14625000D01*
X21717000Y8382000D02*
X19850000Y10249000D01*
X22980918Y4625000D02*
X16867800Y4625000D01*
X21717000Y8375000D02*
X23114000Y6978000D01*
X21747800Y14625000D02*
X22824422Y14625000D01*
X16867800Y4625000D02*
X14274800Y2032000D01*
X23150711Y14951289D02*
X23150711Y17389289D01*
X21717000Y8375000D02*
X21717000Y8382000D01*
X19850000Y14625000D02*
X21747800Y14625000D01*
X22824422Y14625000D02*
X23150711Y14951289D01*
X23150711Y17389289D02*
X22446000Y18094000D01*
X23114000Y6978000D02*
X23114000Y4758082D01*
X23114000Y4758082D02*
X22980918Y4625000D01*
X20350000Y14625000D02*
X21747800Y14625000D01*
D23*
%TO.N,/SDAin*%
X10922000Y8800100D02*
X11418300Y9296400D01*
X11418300Y9296400D02*
X12954000Y9296400D01*
D22*
%TO.N,/SCLin*%
X6604000Y6400800D02*
X6223000Y6781800D01*
X7613044Y10334215D02*
X6243018Y10334215D01*
X6223000Y10314197D02*
X6243018Y10334215D01*
X7642029Y10363200D02*
X7613044Y10334215D01*
X6223000Y6781800D02*
X6223000Y10314197D01*
%TO.N,/SCLout1*%
X13766800Y8331200D02*
X11887200Y8331200D01*
X18225774Y6307751D02*
X18658525Y5875000D01*
X18658525Y5875000D02*
X20350000Y5875000D01*
X11887200Y8331200D02*
X11750000Y8194000D01*
%TO.N,/SDAout1*%
X21932600Y7125000D02*
X20350000Y7125000D01*
X22148800Y6425500D02*
X22148800Y6908800D01*
X22148800Y6908800D02*
X21932600Y7125000D01*
%TO.N,/SCLout2*%
X18301378Y15937822D02*
X18364200Y15875000D01*
X14929173Y10421673D02*
X15113000Y10605500D01*
X10550500Y10421673D02*
X14929173Y10421673D01*
X18364200Y15875000D02*
X20350000Y15875000D01*
%TO.N,/SDAout2*%
X22148800Y16916400D02*
X22148800Y16459200D01*
X20350000Y17125000D02*
X21940200Y17125000D01*
X21940200Y17125000D02*
X22148800Y16916400D01*
D23*
%TO.N,/XORL1*%
X16300000Y7300000D02*
X16144000Y7144000D01*
X16443480Y15025764D02*
X16443480Y8800000D01*
X16293489Y8650009D02*
X16293489Y7306511D01*
X16293489Y7306511D02*
X16300000Y7300000D01*
X16168874Y15300370D02*
X16443480Y15025764D01*
X16144000Y7144000D02*
X14846000Y7144000D01*
X16443480Y8800000D02*
X16293489Y8650009D01*
%TO.N,/XORL2*%
X12135244Y16002000D02*
X14688000Y16002000D01*
X11582274Y16554970D02*
X12135244Y16002000D01*
%TD*%
%TA.AperFunction,Conductor*%
%TO.N,GND*%
G36*
X868423Y22482187D02*
G01*
X890499Y22450517D01*
X943721Y22302332D01*
X993279Y22211195D01*
X1068456Y22072947D01*
X1068458Y22072944D01*
X1068459Y22072943D01*
X1226750Y21865284D01*
X1414886Y21684222D01*
X1527491Y21605018D01*
X1628457Y21534000D01*
X1628459Y21533999D01*
X1862456Y21418139D01*
X2046937Y21359758D01*
X2111395Y21339359D01*
X2369445Y21299500D01*
X2565171Y21299500D01*
X2565177Y21299500D01*
X2760344Y21314484D01*
X2760350Y21314486D01*
X2760354Y21314486D01*
X2866647Y21339360D01*
X3014586Y21373979D01*
X3256766Y21471586D01*
X3361752Y21534001D01*
X3481204Y21605015D01*
X3481205Y21605017D01*
X3481208Y21605018D01*
X3682652Y21771148D01*
X3856375Y21966080D01*
X3963504Y22131508D01*
X4003891Y22162022D01*
X4054444Y22159437D01*
X4091508Y22124963D01*
X4099617Y22091283D01*
X4099617Y21097959D01*
X6604000Y21097959D01*
X6604000Y10843393D01*
X6598090Y10848628D01*
X6464669Y10918652D01*
X6464666Y10918653D01*
X6318360Y10954715D01*
X6167676Y10954715D01*
X6167675Y10954715D01*
X6021366Y10918652D01*
X5887945Y10848628D01*
X5775157Y10748706D01*
X5689557Y10624693D01*
X5636124Y10483801D01*
X5636122Y10483797D01*
X5617961Y10334219D01*
X5617961Y10334212D01*
X5636122Y10184634D01*
X5636124Y10184630D01*
X5689557Y10043738D01*
X5775157Y9919725D01*
X5877571Y9828994D01*
X5901695Y9784493D01*
X5902500Y9773604D01*
X5902500Y6799022D01*
X5902218Y6792571D01*
X5898793Y6753437D01*
X5908964Y6715477D01*
X5910360Y6709179D01*
X5916102Y6676619D01*
X5917183Y6670492D01*
X5919471Y6666529D01*
X5926861Y6648688D01*
X5928046Y6644265D01*
X5928047Y6644263D01*
X5928048Y6644261D01*
X5950578Y6612085D01*
X5954047Y6606640D01*
X5973696Y6572607D01*
X5975859Y6570029D01*
X5993172Y6522463D01*
X5992632Y6513543D01*
X5978943Y6400804D01*
X5978943Y6400797D01*
X5997104Y6251219D01*
X5997106Y6251215D01*
X6050539Y6110323D01*
X6050540Y6110322D01*
X6136138Y5986311D01*
X6248927Y5886388D01*
X6382352Y5816362D01*
X6528658Y5780300D01*
X6528660Y5780300D01*
X6604000Y5780300D01*
X6604000Y1595713D01*
X4386613Y1595713D01*
X4386613Y574500D01*
X4369300Y526934D01*
X4325463Y501624D01*
X4312613Y500500D01*
X4179143Y500500D01*
X4131577Y517813D01*
X4109500Y549484D01*
X4056279Y697668D01*
X3931541Y927057D01*
X3773250Y1134716D01*
X3585114Y1315778D01*
X3527279Y1356458D01*
X3371542Y1466001D01*
X3371540Y1466002D01*
X3137543Y1581862D01*
X2888606Y1660641D01*
X2630555Y1700500D01*
X2434823Y1700500D01*
X2356891Y1694517D01*
X2239660Y1685517D01*
X2239645Y1685515D01*
X1985412Y1626021D01*
X1743239Y1528417D01*
X1743222Y1528408D01*
X1518795Y1394986D01*
X1518792Y1394983D01*
X1317344Y1228849D01*
X1143628Y1033925D01*
X1143624Y1033919D01*
X1001693Y814753D01*
X1001693Y814752D01*
X894886Y576500D01*
X894883Y576492D01*
X894882Y576489D01*
X894336Y574500D01*
X888947Y554891D01*
X859648Y513613D01*
X817592Y500500D01*
X574500Y500500D01*
X526934Y517813D01*
X501624Y561650D01*
X500500Y574500D01*
X500500Y22425500D01*
X517813Y22473066D01*
X561650Y22498376D01*
X574500Y22499500D01*
X820857Y22499500D01*
X868423Y22482187D01*
G37*
%TD.AperFunction*%
%TA.AperFunction,Conductor*%
G36*
X6604000Y7026214D02*
G01*
X6569934Y7038613D01*
X6544624Y7082450D01*
X6543500Y7095300D01*
X6543500Y9746417D01*
X6560813Y9793983D01*
X6583110Y9811941D01*
X6598091Y9819803D01*
X6604000Y9825038D01*
X6604000Y7026214D01*
G37*
%TD.AperFunction*%
%TD*%
%TA.AperFunction,Conductor*%
%TO.N,GND*%
G36*
X16096898Y22482187D02*
G01*
X16122208Y22438350D01*
X16123332Y22425500D01*
X16123332Y22418428D01*
X16123332Y21097959D01*
X19108811Y21097959D01*
X19108811Y22425500D01*
X19126124Y22473066D01*
X19169961Y22498376D01*
X19182811Y22499500D01*
X20820857Y22499500D01*
X20868423Y22482187D01*
X20890499Y22450517D01*
X20943721Y22302332D01*
X20993279Y22211195D01*
X21068456Y22072947D01*
X21068458Y22072944D01*
X21068459Y22072943D01*
X21226750Y21865284D01*
X21226753Y21865281D01*
X21226754Y21865280D01*
X21310366Y21784812D01*
X21414886Y21684222D01*
X21527491Y21605018D01*
X21628457Y21534000D01*
X21628459Y21533999D01*
X21862456Y21418139D01*
X22046937Y21359758D01*
X22111395Y21339359D01*
X22369445Y21299500D01*
X22565171Y21299500D01*
X22565177Y21299500D01*
X22760344Y21314484D01*
X22760350Y21314486D01*
X22760354Y21314486D01*
X22866647Y21339360D01*
X23014586Y21373979D01*
X23256766Y21471586D01*
X23361752Y21534001D01*
X23481204Y21605015D01*
X23481205Y21605017D01*
X23481208Y21605018D01*
X23682652Y21771148D01*
X23856375Y21966080D01*
X23998306Y22185247D01*
X24105118Y22423511D01*
X24111053Y22445110D01*
X24140352Y22486387D01*
X24182408Y22499500D01*
X24425500Y22499500D01*
X24473066Y22482187D01*
X24498376Y22438350D01*
X24499500Y22425500D01*
X24499500Y21148897D01*
X24482187Y21101331D01*
X24438350Y21076021D01*
X24404855Y21077835D01*
X24252492Y21122100D01*
X24252494Y21122100D01*
X24215641Y21125000D01*
X23300000Y21125000D01*
X23300000Y19325000D01*
X24215641Y19325000D01*
X24252493Y19327901D01*
X24404855Y19372166D01*
X24455362Y19368811D01*
X24491897Y19333776D01*
X24499500Y19301104D01*
X24499500Y13698897D01*
X24482187Y13651331D01*
X24438350Y13626021D01*
X24404855Y13627835D01*
X24252492Y13672100D01*
X24252494Y13672100D01*
X24215641Y13675000D01*
X23300000Y13675000D01*
X23300000Y11875000D01*
X24215641Y11875000D01*
X24252493Y11877901D01*
X24404855Y11922166D01*
X24455362Y11918811D01*
X24491897Y11883776D01*
X24499500Y11851104D01*
X24499500Y11148897D01*
X24482187Y11101331D01*
X24438350Y11076021D01*
X24404855Y11077835D01*
X24252492Y11122100D01*
X24252494Y11122100D01*
X24215641Y11125000D01*
X23300000Y11125000D01*
X23300000Y9325000D01*
X24215641Y9325000D01*
X24252493Y9327901D01*
X24404855Y9372166D01*
X24455362Y9368811D01*
X24491897Y9333776D01*
X24499500Y9301104D01*
X24499500Y3698897D01*
X24482187Y3651331D01*
X24438350Y3626021D01*
X24404855Y3627835D01*
X24252492Y3672100D01*
X24252494Y3672100D01*
X24215641Y3675000D01*
X23300000Y3675000D01*
X23300000Y1875000D01*
X24215641Y1875000D01*
X24252493Y1877901D01*
X24404855Y1922166D01*
X24455362Y1918811D01*
X24491897Y1883776D01*
X24499500Y1851104D01*
X24499500Y574500D01*
X24482187Y526934D01*
X24438350Y501624D01*
X24425500Y500500D01*
X24179143Y500500D01*
X24131577Y517813D01*
X24109500Y549484D01*
X24056279Y697668D01*
X23931541Y927057D01*
X23773250Y1134716D01*
X23585114Y1315778D01*
X23527279Y1356458D01*
X23371542Y1466001D01*
X23371540Y1466002D01*
X23137543Y1581862D01*
X22888606Y1660641D01*
X22630555Y1700500D01*
X22434823Y1700500D01*
X22356891Y1694517D01*
X22239660Y1685517D01*
X22239645Y1685515D01*
X21985412Y1626021D01*
X21743239Y1528417D01*
X21743222Y1528408D01*
X21518795Y1394986D01*
X21518792Y1394983D01*
X21317344Y1228849D01*
X21143628Y1033925D01*
X21143624Y1033919D01*
X21001693Y814753D01*
X21001693Y814752D01*
X20894886Y576500D01*
X20894883Y576492D01*
X20894882Y576489D01*
X20894336Y574500D01*
X20888947Y554891D01*
X20859648Y513613D01*
X20817592Y500500D01*
X14179143Y500500D01*
X14131577Y517813D01*
X14109500Y549484D01*
X14056279Y697668D01*
X13931541Y927057D01*
X13773250Y1134716D01*
X13585114Y1315778D01*
X13527279Y1356458D01*
X13371542Y1466001D01*
X13371540Y1466002D01*
X13137543Y1581862D01*
X12888606Y1660641D01*
X12630555Y1700500D01*
X12434823Y1700500D01*
X12356891Y1694517D01*
X12239660Y1685517D01*
X12239645Y1685515D01*
X11985412Y1626021D01*
X11743239Y1528417D01*
X11743222Y1528408D01*
X11518795Y1394986D01*
X11518792Y1394983D01*
X11317344Y1228849D01*
X11143628Y1033925D01*
X11143624Y1033919D01*
X11001693Y814753D01*
X11001693Y814752D01*
X10894886Y576500D01*
X10894883Y576492D01*
X10894882Y576489D01*
X10894336Y574500D01*
X10888947Y554891D01*
X10859648Y513613D01*
X10817592Y500500D01*
X10630934Y500500D01*
X10583368Y517813D01*
X10558058Y561650D01*
X10556934Y574500D01*
X10556934Y1595713D01*
X6604000Y1595713D01*
X6604000Y2031997D01*
X13649743Y2031997D01*
X13667904Y1882419D01*
X13667905Y1882416D01*
X13667906Y1882414D01*
X13688170Y1828981D01*
X13721339Y1741523D01*
X13806939Y1617510D01*
X13907504Y1528417D01*
X13919727Y1517588D01*
X14053152Y1447562D01*
X14199458Y1411500D01*
X14199460Y1411500D01*
X14350140Y1411500D01*
X14350142Y1411500D01*
X14496448Y1447562D01*
X14629873Y1517588D01*
X14742662Y1617511D01*
X14828260Y1741522D01*
X14881694Y1882414D01*
X14891205Y1960750D01*
X14912338Y2004153D01*
X15433186Y2525000D01*
X21300000Y2525000D01*
X21300000Y2459359D01*
X21302900Y2422507D01*
X21348718Y2264801D01*
X21432317Y2123444D01*
X21548443Y2007318D01*
X21689800Y1923719D01*
X21847508Y1877901D01*
X21847505Y1877901D01*
X21884359Y1875000D01*
X22800000Y1875000D01*
X22800000Y2525000D01*
X21300000Y2525000D01*
X15433186Y2525000D01*
X15933186Y3025000D01*
X21300000Y3025000D01*
X22800000Y3025000D01*
X22800000Y3675000D01*
X21884359Y3675000D01*
X21847506Y3672100D01*
X21689800Y3626282D01*
X21548443Y3542683D01*
X21432317Y3426557D01*
X21348718Y3285200D01*
X21302900Y3127494D01*
X21300000Y3090642D01*
X21300000Y3025000D01*
X15933186Y3025000D01*
X17041014Y4132826D01*
X17086891Y4154218D01*
X17093340Y4154500D01*
X18944887Y4154500D01*
X18977387Y4146981D01*
X19042818Y4114994D01*
X19042819Y4114994D01*
X19042821Y4114993D01*
X19114839Y4104500D01*
X20585160Y4104501D01*
X20657179Y4114993D01*
X20722612Y4146981D01*
X20755112Y4154500D01*
X22922383Y4154500D01*
X22938112Y4152809D01*
X22942769Y4151797D01*
X22947008Y4150874D01*
X22995068Y4154312D01*
X23000347Y4154500D01*
X23014564Y4154500D01*
X23014566Y4154500D01*
X23014570Y4154501D01*
X23014574Y4154501D01*
X23017020Y4154854D01*
X23028631Y4156524D01*
X23033851Y4157086D01*
X23081959Y4160525D01*
X23090495Y4163710D01*
X23105818Y4167621D01*
X23114836Y4168917D01*
X23158707Y4188954D01*
X23163538Y4190955D01*
X23208723Y4207806D01*
X23216012Y4213264D01*
X23229616Y4221335D01*
X23237905Y4225120D01*
X23274341Y4256694D01*
X23278438Y4259996D01*
X23289819Y4268514D01*
X23299876Y4278573D01*
X23303714Y4282146D01*
X23340154Y4313720D01*
X23345074Y4321378D01*
X23354998Y4333695D01*
X23405305Y4384002D01*
X23417622Y4393926D01*
X23425280Y4398846D01*
X23456854Y4435286D01*
X23460427Y4439124D01*
X23470486Y4449181D01*
X23479009Y4460568D01*
X23482297Y4464648D01*
X23513880Y4501095D01*
X23517666Y4509387D01*
X23525741Y4522995D01*
X23531193Y4530277D01*
X23548038Y4575443D01*
X23550050Y4580301D01*
X23570083Y4624164D01*
X23571379Y4633182D01*
X23575290Y4648505D01*
X23578475Y4657041D01*
X23581914Y4705149D01*
X23582476Y4710369D01*
X23584500Y4724434D01*
X23584500Y4738654D01*
X23584689Y4743933D01*
X23588126Y4791992D01*
X23586191Y4800889D01*
X23584500Y4816617D01*
X23584500Y6919466D01*
X23586191Y6935196D01*
X23588126Y6944090D01*
X23588126Y6944097D01*
X23584689Y6992151D01*
X23584500Y6997430D01*
X23584500Y7011647D01*
X23584499Y7011658D01*
X23583715Y7017106D01*
X23582476Y7025715D01*
X23581914Y7030935D01*
X23578475Y7079041D01*
X23575290Y7087580D01*
X23571379Y7102905D01*
X23570083Y7111915D01*
X23570083Y7111918D01*
X23550055Y7155774D01*
X23548034Y7160654D01*
X23531195Y7205801D01*
X23531193Y7205803D01*
X23531193Y7205805D01*
X23525735Y7213096D01*
X23517665Y7226698D01*
X23513880Y7234987D01*
X23513878Y7234989D01*
X23513878Y7234990D01*
X23482315Y7271415D01*
X23479000Y7275528D01*
X23470487Y7286900D01*
X23460438Y7296949D01*
X23456854Y7300798D01*
X23425280Y7337236D01*
X23417614Y7342163D01*
X23405302Y7352085D01*
X22354539Y8402848D01*
X22333405Y8446253D01*
X22323894Y8524586D01*
X22270460Y8665478D01*
X22184862Y8789489D01*
X22174950Y8798270D01*
X22072072Y8889413D01*
X21938651Y8959437D01*
X21938648Y8959438D01*
X21792342Y8995500D01*
X21790997Y8995663D01*
X21790296Y8996004D01*
X21787996Y8996571D01*
X21788117Y8997065D01*
X21747590Y9016798D01*
X20789388Y9975000D01*
X21300000Y9975000D01*
X21300000Y9909359D01*
X21302900Y9872507D01*
X21348718Y9714801D01*
X21432317Y9573444D01*
X21548443Y9457318D01*
X21689800Y9373719D01*
X21847508Y9327901D01*
X21847505Y9327901D01*
X21884359Y9325000D01*
X22800000Y9325000D01*
X22800000Y9975000D01*
X21300000Y9975000D01*
X20789388Y9975000D01*
X20342174Y10422214D01*
X20320782Y10468090D01*
X20320500Y10474540D01*
X20320500Y10475000D01*
X21300000Y10475000D01*
X22800000Y10475000D01*
X22800000Y11125000D01*
X21884359Y11125000D01*
X21847506Y11122100D01*
X21689800Y11076282D01*
X21548443Y10992683D01*
X21432317Y10876557D01*
X21348718Y10735200D01*
X21302900Y10577494D01*
X21300000Y10540642D01*
X21300000Y10475000D01*
X20320500Y10475000D01*
X20320500Y12525000D01*
X21300000Y12525000D01*
X21300000Y12459359D01*
X21302900Y12422507D01*
X21348718Y12264801D01*
X21432317Y12123444D01*
X21548443Y12007318D01*
X21689800Y11923719D01*
X21847508Y11877901D01*
X21847505Y11877901D01*
X21884359Y11875000D01*
X22800000Y11875000D01*
X22800000Y12525000D01*
X21300000Y12525000D01*
X20320500Y12525000D01*
X20320500Y13025000D01*
X21300000Y13025000D01*
X22800000Y13025000D01*
X22800000Y13675000D01*
X21884359Y13675000D01*
X21847506Y13672100D01*
X21689800Y13626282D01*
X21548443Y13542683D01*
X21432317Y13426557D01*
X21348718Y13285200D01*
X21302900Y13127494D01*
X21300000Y13090642D01*
X21300000Y13025000D01*
X20320500Y13025000D01*
X20320500Y14030501D01*
X20337813Y14078067D01*
X20381650Y14103377D01*
X20394500Y14104501D01*
X20585153Y14104501D01*
X20585160Y14104501D01*
X20657179Y14114993D01*
X20717371Y14144419D01*
X20722612Y14146981D01*
X20755112Y14154500D01*
X21714152Y14154500D01*
X22765887Y14154500D01*
X22781616Y14152809D01*
X22786273Y14151797D01*
X22790512Y14150874D01*
X22838572Y14154312D01*
X22843851Y14154500D01*
X22858068Y14154500D01*
X22858070Y14154500D01*
X22858074Y14154501D01*
X22858078Y14154501D01*
X22860524Y14154854D01*
X22872135Y14156524D01*
X22877355Y14157086D01*
X22925463Y14160525D01*
X22933999Y14163710D01*
X22949322Y14167621D01*
X22958340Y14168917D01*
X23002211Y14188954D01*
X23007042Y14190955D01*
X23052227Y14207806D01*
X23059516Y14213264D01*
X23073120Y14221335D01*
X23081409Y14225120D01*
X23117845Y14256694D01*
X23121942Y14259996D01*
X23133323Y14268514D01*
X23143380Y14278573D01*
X23147218Y14282146D01*
X23183658Y14313720D01*
X23188578Y14321378D01*
X23198502Y14333695D01*
X23442016Y14577209D01*
X23454333Y14587133D01*
X23461991Y14592053D01*
X23493565Y14628493D01*
X23497138Y14632331D01*
X23507197Y14642388D01*
X23515720Y14653775D01*
X23519008Y14657855D01*
X23550591Y14694302D01*
X23554377Y14702594D01*
X23562452Y14716202D01*
X23567904Y14723484D01*
X23584749Y14768650D01*
X23586761Y14773508D01*
X23606794Y14817371D01*
X23608090Y14826389D01*
X23612001Y14841712D01*
X23615186Y14850248D01*
X23618625Y14898356D01*
X23619187Y14903576D01*
X23621211Y14917641D01*
X23621211Y14931861D01*
X23621400Y14937140D01*
X23624837Y14985199D01*
X23622902Y14994096D01*
X23621211Y15009824D01*
X23621211Y17330750D01*
X23622902Y17346480D01*
X23624838Y17355379D01*
X23621399Y17403449D01*
X23621211Y17408728D01*
X23621211Y17422935D01*
X23621210Y17422942D01*
X23621107Y17423659D01*
X23619189Y17436997D01*
X23618626Y17442237D01*
X23616162Y17476678D01*
X23615186Y17490330D01*
X23612001Y17498869D01*
X23608090Y17514194D01*
X23606794Y17523206D01*
X23606794Y17523207D01*
X23586766Y17567060D01*
X23584756Y17571912D01*
X23567905Y17617094D01*
X23567132Y17618126D01*
X23562447Y17624385D01*
X23554372Y17637995D01*
X23550591Y17646276D01*
X23550588Y17646279D01*
X23550586Y17646283D01*
X23519033Y17682696D01*
X23515718Y17686809D01*
X23507199Y17698189D01*
X23497143Y17708245D01*
X23493559Y17712094D01*
X23461991Y17748525D01*
X23454330Y17753449D01*
X23442013Y17763375D01*
X23083539Y18121849D01*
X23062405Y18165254D01*
X23052894Y18243586D01*
X22999460Y18384478D01*
X22913862Y18508489D01*
X22801073Y18608412D01*
X22801072Y18608413D01*
X22667651Y18678437D01*
X22667648Y18678438D01*
X22521342Y18714500D01*
X22370658Y18714500D01*
X22370657Y18714500D01*
X22224348Y18678437D01*
X22090927Y18608413D01*
X21978139Y18508491D01*
X21892539Y18384478D01*
X21839106Y18243586D01*
X21839104Y18243582D01*
X21820943Y18094004D01*
X21820943Y18093997D01*
X21839104Y17944419D01*
X21839105Y17944416D01*
X21839106Y17944414D01*
X21842561Y17935304D01*
X21892539Y17803523D01*
X21920251Y17763375D01*
X21973827Y17685756D01*
X21978139Y17679510D01*
X22090927Y17579588D01*
X22136941Y17555438D01*
X22140180Y17551879D01*
X22154052Y17546458D01*
X22219106Y17512315D01*
X22224352Y17509562D01*
X22370658Y17473500D01*
X22370665Y17473500D01*
X22375100Y17472961D01*
X22374966Y17471861D01*
X22418027Y17456187D01*
X22422787Y17451826D01*
X22658537Y17216076D01*
X22679929Y17170200D01*
X22680211Y17163750D01*
X22680211Y16981812D01*
X22662898Y16934246D01*
X22619061Y16908936D01*
X22569211Y16917726D01*
X22557140Y16926422D01*
X22503873Y16973612D01*
X22492281Y16979696D01*
X22458209Y17017131D01*
X22456901Y17021648D01*
X22456832Y17021622D01*
X22454617Y17027707D01*
X22454617Y17027708D01*
X22452329Y17031671D01*
X22444938Y17049513D01*
X22443752Y17053939D01*
X22443750Y17053942D01*
X22443750Y17053943D01*
X22421214Y17086128D01*
X22417745Y17091573D01*
X22398106Y17125590D01*
X22384979Y17136605D01*
X22368005Y17150848D01*
X22363256Y17155200D01*
X22178998Y17339458D01*
X22174636Y17344219D01*
X22149391Y17374305D01*
X22115360Y17393953D01*
X22109915Y17397422D01*
X22077739Y17419953D01*
X22073314Y17421138D01*
X22055471Y17428529D01*
X22051508Y17430817D01*
X22045381Y17431898D01*
X22012821Y17437640D01*
X22006523Y17439036D01*
X21968563Y17449207D01*
X21931588Y17445971D01*
X21929428Y17445782D01*
X21922979Y17445500D01*
X20925244Y17445500D01*
X20877678Y17462813D01*
X20858763Y17486999D01*
X20855700Y17493266D01*
X20768266Y17580700D01*
X20761537Y17583990D01*
X20726409Y17620434D01*
X20722925Y17670933D01*
X20752716Y17711857D01*
X20766893Y17719311D01*
X20822091Y17741078D01*
X20942564Y17832436D01*
X21033922Y17952908D01*
X21089385Y18093556D01*
X21093161Y18125000D01*
X18606838Y18125000D01*
X18610614Y18093556D01*
X18666077Y17952908D01*
X18757435Y17832436D01*
X18877908Y17741078D01*
X18933106Y17719311D01*
X18971005Y17685756D01*
X18978469Y17635690D01*
X18952005Y17592540D01*
X18938463Y17583991D01*
X18931738Y17580704D01*
X18931734Y17580701D01*
X18844300Y17493267D01*
X18789993Y17382180D01*
X18779500Y17310166D01*
X18779500Y16939847D01*
X18779501Y16939835D01*
X18789993Y16867820D01*
X18844299Y16756735D01*
X18844300Y16756734D01*
X18931734Y16669300D01*
X19042821Y16614993D01*
X19114839Y16604500D01*
X20585160Y16604501D01*
X20657179Y16614993D01*
X20768266Y16669300D01*
X20855700Y16756734D01*
X20858763Y16763001D01*
X20895206Y16798129D01*
X20925244Y16804500D01*
X21508924Y16804500D01*
X21556490Y16787187D01*
X21581800Y16743350D01*
X21578115Y16704259D01*
X21541905Y16608786D01*
X21541904Y16608782D01*
X21523743Y16459204D01*
X21523743Y16459197D01*
X21541904Y16309619D01*
X21541906Y16309615D01*
X21595339Y16168723D01*
X21620562Y16132181D01*
X21670274Y16060160D01*
X21680939Y16044710D01*
X21793727Y15944788D01*
X21908014Y15884806D01*
X21927152Y15874762D01*
X22073458Y15838700D01*
X22073460Y15838700D01*
X22224140Y15838700D01*
X22224142Y15838700D01*
X22370448Y15874762D01*
X22503873Y15944788D01*
X22503875Y15944790D01*
X22503877Y15944791D01*
X22557140Y15991978D01*
X22604224Y16010562D01*
X22652238Y15994533D01*
X22678715Y15951391D01*
X22680211Y15936589D01*
X22680211Y15176828D01*
X22662898Y15129262D01*
X22658537Y15124502D01*
X22651209Y15117174D01*
X22605333Y15095782D01*
X22598883Y15095500D01*
X20755113Y15095500D01*
X20722613Y15103019D01*
X20657181Y15135007D01*
X20609167Y15142003D01*
X20585161Y15145500D01*
X20585160Y15145500D01*
X19114840Y15145500D01*
X19042819Y15135007D01*
X18931734Y15080701D01*
X18844300Y14993267D01*
X18789993Y14882180D01*
X18779500Y14810166D01*
X18779500Y14439847D01*
X18779501Y14439835D01*
X18789993Y14367820D01*
X18844299Y14256735D01*
X18844300Y14256734D01*
X18931734Y14169300D01*
X19042821Y14114993D01*
X19114839Y14104500D01*
X19305500Y14104501D01*
X19353066Y14087189D01*
X19378376Y14043351D01*
X19379500Y14030501D01*
X19379500Y10307535D01*
X19377809Y10291807D01*
X19375873Y10282910D01*
X19379311Y10234851D01*
X19379500Y10229572D01*
X19379500Y10215346D01*
X19381523Y10201280D01*
X19382085Y10196052D01*
X19385525Y10147959D01*
X19388710Y10139419D01*
X19392620Y10124098D01*
X19393915Y10115089D01*
X19393919Y10115076D01*
X19413942Y10071230D01*
X19415963Y10066351D01*
X19432804Y10021198D01*
X19438265Y10013902D01*
X19446334Y10000302D01*
X19450118Y9992016D01*
X19450119Y9992015D01*
X19450120Y9992013D01*
X19481694Y9955574D01*
X19484998Y9951474D01*
X19493512Y9940101D01*
X19503560Y9930053D01*
X19507159Y9926187D01*
X19538719Y9889765D01*
X19538721Y9889763D01*
X19546376Y9884844D01*
X19558698Y9874915D01*
X20232286Y9201326D01*
X20253678Y9155449D01*
X20240577Y9106555D01*
X20199113Y9077521D01*
X20179960Y9075000D01*
X20100000Y9075000D01*
X20100000Y8199000D01*
X20082687Y8151434D01*
X20038850Y8126124D01*
X20026000Y8125000D01*
X18606838Y8125000D01*
X18610614Y8093556D01*
X18666077Y7952908D01*
X18757435Y7832436D01*
X18877908Y7741078D01*
X18933106Y7719311D01*
X18971005Y7685756D01*
X18978469Y7635690D01*
X18952005Y7592540D01*
X18938463Y7583991D01*
X18931738Y7580704D01*
X18931734Y7580701D01*
X18844300Y7493267D01*
X18789993Y7382180D01*
X18779500Y7310166D01*
X18779500Y6939847D01*
X18779501Y6939835D01*
X18789993Y6867820D01*
X18833722Y6778370D01*
X18836170Y6755274D01*
X18847372Y6752191D01*
X18856848Y6744186D01*
X18931734Y6669300D01*
X19042821Y6614993D01*
X19114839Y6604500D01*
X20585160Y6604501D01*
X20657179Y6614993D01*
X20768266Y6669300D01*
X20855700Y6756734D01*
X20858763Y6763001D01*
X20895206Y6798129D01*
X20925244Y6804500D01*
X21521704Y6804500D01*
X21569270Y6787187D01*
X21594580Y6743350D01*
X21590895Y6704259D01*
X21541906Y6575086D01*
X21541904Y6575082D01*
X21523743Y6425504D01*
X21523743Y6425497D01*
X21541904Y6275919D01*
X21541906Y6275915D01*
X21595339Y6135023D01*
X21595340Y6135022D01*
X21680938Y6011011D01*
X21793727Y5911088D01*
X21927152Y5841062D01*
X22073458Y5805000D01*
X22073460Y5805000D01*
X22224140Y5805000D01*
X22224142Y5805000D01*
X22370448Y5841062D01*
X22503873Y5911088D01*
X22520428Y5925756D01*
X22567512Y5944339D01*
X22615526Y5928311D01*
X22642004Y5885170D01*
X22643500Y5870366D01*
X22643500Y5169500D01*
X22626187Y5121934D01*
X22582350Y5096624D01*
X22569500Y5095500D01*
X20755113Y5095500D01*
X20722613Y5103019D01*
X20657181Y5135007D01*
X20609167Y5142003D01*
X20585161Y5145500D01*
X20585160Y5145500D01*
X19114840Y5145500D01*
X19042819Y5135007D01*
X18977388Y5103019D01*
X18944888Y5095500D01*
X16926339Y5095500D01*
X16910611Y5097191D01*
X16907351Y5097900D01*
X16901712Y5099127D01*
X16901704Y5099127D01*
X16853642Y5095689D01*
X16848362Y5095500D01*
X16834152Y5095500D01*
X16826912Y5094460D01*
X16820083Y5093478D01*
X16814838Y5092915D01*
X16766763Y5089476D01*
X16766754Y5089474D01*
X16758216Y5086290D01*
X16742897Y5082380D01*
X16733889Y5081085D01*
X16733875Y5081081D01*
X16690046Y5061065D01*
X16685169Y5059044D01*
X16639993Y5042194D01*
X16639991Y5042193D01*
X16632699Y5036734D01*
X16619100Y5028665D01*
X16610813Y5024881D01*
X16574383Y4993315D01*
X16570278Y4990007D01*
X16558898Y4981487D01*
X16558896Y4981485D01*
X16548847Y4971437D01*
X16544987Y4967843D01*
X16508562Y4936279D01*
X16503640Y4928620D01*
X16493716Y4916306D01*
X14251587Y2674174D01*
X14205711Y2652782D01*
X14199572Y2652514D01*
X14199457Y2652500D01*
X14053148Y2616437D01*
X13919727Y2546413D01*
X13806939Y2446491D01*
X13721339Y2322478D01*
X13667906Y2181586D01*
X13667904Y2181582D01*
X13649743Y2032004D01*
X13649743Y2031997D01*
X6604000Y2031997D01*
X6604000Y5780300D01*
X6679340Y5780300D01*
X6679342Y5780300D01*
X6825648Y5816362D01*
X6959073Y5886388D01*
X7071862Y5986311D01*
X7157460Y6110322D01*
X7210894Y6251214D01*
X7213894Y6275914D01*
X7229057Y6400797D01*
X7229057Y6400804D01*
X7210895Y6550382D01*
X7210894Y6550384D01*
X7210894Y6550386D01*
X7157460Y6691278D01*
X7071862Y6815289D01*
X7030592Y6851851D01*
X6959072Y6915213D01*
X6825651Y6985237D01*
X6825648Y6985238D01*
X6679342Y7021300D01*
X6617500Y7021300D01*
X6604000Y7026214D01*
X6604000Y9825038D01*
X6710880Y9919726D01*
X6753692Y9981752D01*
X6794961Y10011063D01*
X6814593Y10013715D01*
X7090460Y10013715D01*
X7138026Y9996402D01*
X7151361Y9981751D01*
X7174165Y9948713D01*
X7174166Y9948712D01*
X7174167Y9948711D01*
X7250779Y9880838D01*
X7286956Y9848788D01*
X7396773Y9791152D01*
X7420381Y9778762D01*
X7566687Y9742700D01*
X7566689Y9742700D01*
X7717369Y9742700D01*
X7717371Y9742700D01*
X7863677Y9778762D01*
X7997102Y9848788D01*
X8109891Y9948711D01*
X8195489Y10072722D01*
X8248923Y10213614D01*
X8249134Y10215346D01*
X8267086Y10363197D01*
X8267086Y10363204D01*
X8259987Y10421670D01*
X9925443Y10421670D01*
X9943604Y10272092D01*
X9943606Y10272088D01*
X9997039Y10131196D01*
X10019593Y10098521D01*
X10082637Y10007185D01*
X10082639Y10007183D01*
X10195427Y9907261D01*
X10238139Y9884844D01*
X10328852Y9837235D01*
X10475158Y9801173D01*
X10475160Y9801173D01*
X10625840Y9801173D01*
X10625842Y9801173D01*
X10772148Y9837235D01*
X10905573Y9907261D01*
X11018362Y10007184D01*
X11061174Y10069210D01*
X11102443Y10098521D01*
X11122075Y10101173D01*
X14720472Y10101173D01*
X14754861Y10092697D01*
X14891348Y10021064D01*
X14891352Y10021062D01*
X15037658Y9985000D01*
X15037660Y9985000D01*
X15188340Y9985000D01*
X15188342Y9985000D01*
X15334648Y10021062D01*
X15468073Y10091088D01*
X15580862Y10191011D01*
X15666460Y10315022D01*
X15719894Y10455914D01*
X15721373Y10468090D01*
X15738057Y10605497D01*
X15738057Y10605504D01*
X15719895Y10755082D01*
X15719894Y10755084D01*
X15719894Y10755086D01*
X15666460Y10895978D01*
X15580862Y11019989D01*
X15517615Y11076021D01*
X15468072Y11119913D01*
X15334651Y11189937D01*
X15334648Y11189938D01*
X15188342Y11226000D01*
X15037658Y11226000D01*
X15037657Y11226000D01*
X14891348Y11189937D01*
X14757927Y11119913D01*
X14645139Y11019991D01*
X14559539Y10895978D01*
X14519322Y10789932D01*
X14486267Y10751596D01*
X14450131Y10742173D01*
X11122075Y10742173D01*
X11074509Y10759486D01*
X11061174Y10774137D01*
X11018362Y10836162D01*
X10905572Y10936086D01*
X10772151Y11006110D01*
X10772148Y11006111D01*
X10625842Y11042173D01*
X10475158Y11042173D01*
X10475157Y11042173D01*
X10328848Y11006110D01*
X10195427Y10936086D01*
X10082639Y10836164D01*
X9997039Y10712151D01*
X9943606Y10571259D01*
X9943604Y10571255D01*
X9925443Y10421677D01*
X9925443Y10421670D01*
X8259987Y10421670D01*
X8248924Y10512782D01*
X8248923Y10512784D01*
X8248923Y10512786D01*
X8195489Y10653678D01*
X8109891Y10777689D01*
X7997102Y10877612D01*
X7997101Y10877613D01*
X7863680Y10947637D01*
X7863677Y10947638D01*
X7717371Y10983700D01*
X7566687Y10983700D01*
X7566686Y10983700D01*
X7420377Y10947637D01*
X7286956Y10877613D01*
X7174168Y10777691D01*
X7111347Y10686678D01*
X7070078Y10657367D01*
X7050446Y10654715D01*
X6814593Y10654715D01*
X6767027Y10672028D01*
X6753692Y10686679D01*
X6710880Y10748704D01*
X6604000Y10843393D01*
X6604000Y15544797D01*
X9941343Y15544797D01*
X9959504Y15395219D01*
X9959505Y15395216D01*
X9959506Y15395214D01*
X9975370Y15353384D01*
X10012939Y15254323D01*
X10040395Y15214546D01*
X10094067Y15136788D01*
X10098539Y15130310D01*
X10114324Y15116326D01*
X10211327Y15030388D01*
X10344752Y14960362D01*
X10491058Y14924300D01*
X10491060Y14924300D01*
X10641740Y14924300D01*
X10641742Y14924300D01*
X10643542Y14924744D01*
X10674947Y14932484D01*
X10725274Y14927059D01*
X10744983Y14912961D01*
X11478400Y14179544D01*
X11482752Y14174795D01*
X11502824Y14150874D01*
X11508010Y14144694D01*
X11542027Y14125055D01*
X11547472Y14121586D01*
X11579657Y14099050D01*
X11579658Y14099050D01*
X11579661Y14099048D01*
X11584087Y14097862D01*
X11601929Y14090471D01*
X11605892Y14088183D01*
X11644580Y14081362D01*
X11650880Y14079965D01*
X11688835Y14069794D01*
X11688835Y14069795D01*
X11688836Y14069794D01*
X11710770Y14071714D01*
X11727971Y14073219D01*
X11734421Y14073500D01*
X14414922Y14073500D01*
X14462488Y14056187D01*
X14484113Y14025741D01*
X14492538Y14003524D01*
X14549605Y13920848D01*
X14578138Y13879511D01*
X14690927Y13779588D01*
X14824352Y13709562D01*
X14970658Y13673500D01*
X14970660Y13673500D01*
X15121340Y13673500D01*
X15121342Y13673500D01*
X15267648Y13709562D01*
X15401073Y13779588D01*
X15513862Y13879511D01*
X15599460Y14003522D01*
X15652894Y14144414D01*
X15652929Y14144695D01*
X15671057Y14293997D01*
X15671057Y14294004D01*
X15652895Y14443582D01*
X15652894Y14443584D01*
X15652894Y14443586D01*
X15599460Y14584478D01*
X15513862Y14708489D01*
X15512349Y14709829D01*
X15401072Y14808413D01*
X15267651Y14878437D01*
X15267648Y14878438D01*
X15121342Y14914500D01*
X14970658Y14914500D01*
X14970657Y14914500D01*
X14824348Y14878437D01*
X14690927Y14808413D01*
X14605929Y14733110D01*
X14558845Y14714527D01*
X14556858Y14714500D01*
X11880608Y14714500D01*
X11833042Y14731813D01*
X11828282Y14736174D01*
X11198332Y15366124D01*
X11176940Y15412000D01*
X11177198Y15427370D01*
X11191457Y15544797D01*
X11191457Y15544804D01*
X11173295Y15694382D01*
X11173294Y15694384D01*
X11173294Y15694386D01*
X11119860Y15835278D01*
X11049998Y15936492D01*
X11036900Y15978527D01*
X11036900Y16044730D01*
X11054213Y16092296D01*
X11098050Y16117606D01*
X11147900Y16108816D01*
X11159966Y16100123D01*
X11205075Y16060160D01*
X11227201Y16040558D01*
X11345392Y15978527D01*
X11360626Y15970532D01*
X11506932Y15934470D01*
X11506934Y15934470D01*
X11657614Y15934470D01*
X11657616Y15934470D01*
X11662455Y15935663D01*
X11712781Y15930239D01*
X11732493Y15916140D01*
X11877982Y15770652D01*
X11882343Y15765893D01*
X11909735Y15733249D01*
X11941587Y15714859D01*
X11946633Y15711946D01*
X11952075Y15708479D01*
X11986977Y15684040D01*
X11992473Y15682568D01*
X12010323Y15675174D01*
X12015252Y15672328D01*
X12057204Y15664931D01*
X12063508Y15663534D01*
X12104668Y15652505D01*
X12147110Y15656219D01*
X12153558Y15656500D01*
X13340240Y15656500D01*
X13387806Y15639187D01*
X13411241Y15603350D01*
X13418096Y15580003D01*
X13420794Y15570816D01*
X13447372Y15512617D01*
X13447379Y15512604D01*
X13525108Y15391656D01*
X13525109Y15391654D01*
X13567012Y15343295D01*
X13567015Y15343292D01*
X13596986Y15317322D01*
X13675675Y15249139D01*
X13729506Y15214545D01*
X13860291Y15154817D01*
X13860293Y15154817D01*
X13860294Y15154816D01*
X13921684Y15136789D01*
X13921686Y15136789D01*
X13921689Y15136788D01*
X14064004Y15116326D01*
X14064010Y15116326D01*
X14127989Y15116326D01*
X14127995Y15116326D01*
X14142608Y15118427D01*
X14153139Y15119180D01*
X14538861Y15119180D01*
X14549392Y15118427D01*
X14564005Y15116326D01*
X14564011Y15116326D01*
X14627990Y15116326D01*
X14627996Y15116326D01*
X14770311Y15136788D01*
X14770313Y15136789D01*
X14770315Y15136789D01*
X14802282Y15146176D01*
X14831709Y15154817D01*
X14962494Y15214545D01*
X15016325Y15249139D01*
X15124986Y15343293D01*
X15166892Y15391656D01*
X15244624Y15512610D01*
X15271206Y15570817D01*
X15311713Y15708772D01*
X15320820Y15772111D01*
X15320820Y16344000D01*
X15303707Y16430035D01*
X15288437Y16452887D01*
X15276405Y16502053D01*
X15288437Y16535113D01*
X15303707Y16557965D01*
X15314840Y16613937D01*
X15341099Y16657211D01*
X15387418Y16673500D01*
X16070461Y16673500D01*
X16118027Y16656187D01*
X16122787Y16651826D01*
X16525826Y16248787D01*
X16547218Y16202911D01*
X16547500Y16196461D01*
X16547500Y15924832D01*
X16530187Y15877266D01*
X16486350Y15851956D01*
X16439112Y15859308D01*
X16390527Y15884806D01*
X16390524Y15884807D01*
X16390522Y15884808D01*
X16244216Y15920870D01*
X16093532Y15920870D01*
X16093531Y15920870D01*
X15947222Y15884807D01*
X15813801Y15814783D01*
X15701013Y15714861D01*
X15615413Y15590848D01*
X15561980Y15449956D01*
X15561978Y15449952D01*
X15543817Y15300374D01*
X15543817Y15300367D01*
X15561978Y15150789D01*
X15561979Y15150786D01*
X15561980Y15150784D01*
X15580095Y15103019D01*
X15615413Y15009893D01*
X15615414Y15009892D01*
X15692418Y14898331D01*
X15701013Y14885880D01*
X15813801Y14785958D01*
X15946711Y14716202D01*
X15947226Y14715932D01*
X16041691Y14692648D01*
X16083730Y14664455D01*
X16097980Y14620799D01*
X16097980Y8973764D01*
X16080667Y8926198D01*
X16076304Y8921436D01*
X16062125Y8907258D01*
X16057369Y8902900D01*
X16032301Y8881864D01*
X16024738Y8875518D01*
X16009226Y8848654D01*
X16003438Y8838627D01*
X15999972Y8833187D01*
X15975529Y8798276D01*
X15975526Y8798270D01*
X15974052Y8792770D01*
X15966668Y8774941D01*
X15963817Y8770002D01*
X15956419Y8728046D01*
X15955022Y8721746D01*
X15943994Y8680586D01*
X15943993Y8680585D01*
X15947707Y8638147D01*
X15947989Y8631696D01*
X15947989Y7563500D01*
X15930676Y7515934D01*
X15886839Y7490624D01*
X15873989Y7489500D01*
X15275963Y7489500D01*
X15228397Y7506813D01*
X15213710Y7523493D01*
X15187999Y7563500D01*
X15166892Y7596344D01*
X15146018Y7620434D01*
X15124987Y7644706D01*
X15124984Y7644709D01*
X15016329Y7738858D01*
X15016326Y7738860D01*
X15016325Y7738861D01*
X14962494Y7773455D01*
X14949236Y7779510D01*
X14831705Y7833185D01*
X14770315Y7851212D01*
X14770307Y7851213D01*
X14628000Y7871674D01*
X14627996Y7871674D01*
X14564005Y7871674D01*
X14564000Y7871674D01*
X14549392Y7869573D01*
X14538861Y7868820D01*
X14342600Y7868820D01*
X14295034Y7886133D01*
X14269724Y7929970D01*
X14278514Y7979820D01*
X14281699Y7984857D01*
X14310842Y8027078D01*
X14320260Y8040722D01*
X14373694Y8181614D01*
X14374123Y8185140D01*
X14391857Y8331197D01*
X14391857Y8331204D01*
X14373695Y8480782D01*
X14373694Y8480784D01*
X14373694Y8480786D01*
X14320260Y8621678D01*
X14234662Y8745689D01*
X14207218Y8770002D01*
X14121872Y8845613D01*
X13988451Y8915637D01*
X13988448Y8915638D01*
X13842142Y8951700D01*
X13691458Y8951700D01*
X13691455Y8951700D01*
X13602700Y8929823D01*
X13552373Y8935250D01*
X13517308Y8971756D01*
X13513913Y9022261D01*
X13515795Y9027902D01*
X13560894Y9146814D01*
X13561943Y9155449D01*
X13579057Y9296397D01*
X13579057Y9296404D01*
X13560895Y9445982D01*
X13560894Y9445984D01*
X13560894Y9445986D01*
X13507460Y9586878D01*
X13421862Y9710889D01*
X13417446Y9714801D01*
X13309072Y9810813D01*
X13175651Y9880837D01*
X13175648Y9880838D01*
X13029342Y9916900D01*
X12878658Y9916900D01*
X12878657Y9916900D01*
X12732348Y9880837D01*
X12598927Y9810813D01*
X12486137Y9710889D01*
X12460582Y9673864D01*
X12419313Y9644552D01*
X12399681Y9641900D01*
X11436606Y9641900D01*
X11430156Y9642182D01*
X11387725Y9645895D01*
X11387721Y9645895D01*
X11346564Y9634868D01*
X11340267Y9633472D01*
X11298313Y9626074D01*
X11298307Y9626072D01*
X11293374Y9623223D01*
X11275532Y9615834D01*
X11270034Y9614361D01*
X11270030Y9614360D01*
X11235123Y9589918D01*
X11229682Y9586451D01*
X11192791Y9565151D01*
X11192790Y9565151D01*
X11192789Y9565150D01*
X11165410Y9532521D01*
X11161050Y9527763D01*
X11072218Y9438931D01*
X11026342Y9417539D01*
X11002186Y9419407D01*
X10997351Y9420599D01*
X10997343Y9420600D01*
X10997342Y9420600D01*
X10846658Y9420600D01*
X10846657Y9420600D01*
X10700348Y9384537D01*
X10566927Y9314513D01*
X10454139Y9214591D01*
X10368539Y9090578D01*
X10315106Y8949686D01*
X10315104Y8949682D01*
X10296943Y8800104D01*
X10296943Y8800097D01*
X10315104Y8650519D01*
X10315105Y8650516D01*
X10315106Y8650514D01*
X10326042Y8621678D01*
X10368539Y8509623D01*
X10388444Y8480786D01*
X10454138Y8385611D01*
X10566927Y8285688D01*
X10700352Y8215662D01*
X10846658Y8179600D01*
X10846660Y8179600D01*
X10997340Y8179600D01*
X10997342Y8179600D01*
X11041830Y8190566D01*
X11092157Y8185140D01*
X11127223Y8148634D01*
X11133000Y8127636D01*
X11143104Y8044419D01*
X11143105Y8044416D01*
X11143106Y8044414D01*
X11149681Y8027078D01*
X11196539Y7903523D01*
X11282139Y7779510D01*
X11394927Y7679588D01*
X11419801Y7666533D01*
X11528352Y7609562D01*
X11674658Y7573500D01*
X11674660Y7573500D01*
X11825340Y7573500D01*
X11825342Y7573500D01*
X11971648Y7609562D01*
X12105073Y7679588D01*
X12217862Y7779511D01*
X12303460Y7903522D01*
X12325995Y7962942D01*
X12359050Y8001277D01*
X12395186Y8010700D01*
X13195225Y8010700D01*
X13242791Y7993387D01*
X13256126Y7978736D01*
X13291411Y7927615D01*
X13298938Y7916711D01*
X13411727Y7816788D01*
X13530406Y7754501D01*
X13538270Y7750374D01*
X13572343Y7712940D01*
X13574381Y7662362D01*
X13559807Y7636391D01*
X13525109Y7596347D01*
X13525108Y7596345D01*
X13447379Y7475397D01*
X13447372Y7475384D01*
X13420795Y7417187D01*
X13420794Y7417183D01*
X13385491Y7296949D01*
X13380286Y7279223D01*
X13371180Y7215894D01*
X13371180Y7215889D01*
X13371180Y6644000D01*
X13374583Y6626888D01*
X13388292Y6557966D01*
X13403563Y6535111D01*
X13415593Y6485942D01*
X13403563Y6452889D01*
X13388292Y6430035D01*
X13371180Y6344000D01*
X13371180Y5772107D01*
X13378196Y5723315D01*
X13380287Y5708772D01*
X13410923Y5604435D01*
X13420795Y5570814D01*
X13447372Y5512617D01*
X13447379Y5512604D01*
X13525108Y5391656D01*
X13525109Y5391654D01*
X13567012Y5343295D01*
X13567015Y5343292D01*
X13673799Y5250764D01*
X13675675Y5249139D01*
X13729506Y5214545D01*
X13860291Y5154817D01*
X13872586Y5151207D01*
X13913348Y5121194D01*
X13925282Y5072002D01*
X13912639Y5038168D01*
X13876318Y4985548D01*
X13876317Y4985545D01*
X13822883Y4844652D01*
X13822881Y4844648D01*
X13804720Y4695070D01*
X13804720Y4695063D01*
X13822881Y4545485D01*
X13822883Y4545481D01*
X13876316Y4404589D01*
X13880280Y4398846D01*
X13961915Y4280577D01*
X14074704Y4180654D01*
X14208129Y4110628D01*
X14354435Y4074566D01*
X14354437Y4074566D01*
X14505117Y4074566D01*
X14505119Y4074566D01*
X14651425Y4110628D01*
X14784850Y4180654D01*
X14897639Y4280577D01*
X14983237Y4404588D01*
X15036671Y4545480D01*
X15040309Y4575436D01*
X15054834Y4695063D01*
X15054834Y4695070D01*
X15036672Y4844643D01*
X15036671Y4844648D01*
X15036671Y4844652D01*
X15023007Y4880680D01*
X15018200Y4906917D01*
X15018200Y5216969D01*
X15035513Y5264535D01*
X15043741Y5272895D01*
X15045984Y5274840D01*
X15124986Y5343293D01*
X15129028Y5347959D01*
X15173260Y5372570D01*
X15184955Y5373500D01*
X15937465Y5373500D01*
X15953194Y5371809D01*
X15957851Y5370797D01*
X15962090Y5369874D01*
X16010150Y5373312D01*
X16015429Y5373500D01*
X16029646Y5373500D01*
X16029648Y5373500D01*
X16029652Y5373501D01*
X16029656Y5373501D01*
X16032102Y5373854D01*
X16043713Y5375524D01*
X16048933Y5376086D01*
X16097041Y5379525D01*
X16105577Y5382710D01*
X16120900Y5386621D01*
X16129918Y5387917D01*
X16173789Y5407954D01*
X16178620Y5409955D01*
X16223805Y5426806D01*
X16231094Y5432264D01*
X16244698Y5440335D01*
X16252987Y5444120D01*
X16289423Y5475694D01*
X16293520Y5478996D01*
X16304901Y5487514D01*
X16314958Y5497573D01*
X16318796Y5501146D01*
X16355236Y5532720D01*
X16360156Y5540378D01*
X16370080Y5552695D01*
X17125133Y6307748D01*
X17600717Y6307748D01*
X17618878Y6158170D01*
X17618879Y6158167D01*
X17618880Y6158165D01*
X17637024Y6110323D01*
X17672313Y6017274D01*
X17672314Y6017273D01*
X17757912Y5893262D01*
X17870701Y5793339D01*
X18004126Y5723313D01*
X18150432Y5687251D01*
X18150434Y5687251D01*
X18301113Y5687251D01*
X18301116Y5687251D01*
X18334320Y5695436D01*
X18384646Y5690012D01*
X18404357Y5675913D01*
X18419720Y5660550D01*
X18424072Y5655801D01*
X18449334Y5625695D01*
X18462973Y5617821D01*
X18483359Y5606051D01*
X18488803Y5602582D01*
X18520981Y5580051D01*
X18520982Y5580051D01*
X18520986Y5580048D01*
X18525412Y5578862D01*
X18543254Y5571471D01*
X18547217Y5569183D01*
X18585913Y5562361D01*
X18592212Y5560964D01*
X18630160Y5550795D01*
X18630160Y5550796D01*
X18630161Y5550795D01*
X18669288Y5554218D01*
X18675738Y5554500D01*
X18774756Y5554500D01*
X18822322Y5537187D01*
X18841236Y5513002D01*
X18844300Y5506734D01*
X18931734Y5419300D01*
X19042821Y5364993D01*
X19114839Y5354500D01*
X20585160Y5354501D01*
X20657179Y5364993D01*
X20768266Y5419300D01*
X20855700Y5506734D01*
X20910007Y5617821D01*
X20920500Y5689839D01*
X20920499Y6060160D01*
X20910007Y6132179D01*
X20855700Y6243266D01*
X20768266Y6330700D01*
X20657179Y6385007D01*
X20585161Y6395500D01*
X20585160Y6395500D01*
X19114840Y6395500D01*
X19042819Y6385007D01*
X18946159Y6337753D01*
X18895822Y6332416D01*
X18853831Y6360683D01*
X18840199Y6395312D01*
X18832668Y6457337D01*
X18779234Y6598229D01*
X18743620Y6649825D01*
X18734640Y6684262D01*
X18715885Y6692592D01*
X18706347Y6703824D01*
X18693636Y6722240D01*
X18676580Y6737350D01*
X18580846Y6822164D01*
X18447425Y6892188D01*
X18447422Y6892189D01*
X18301116Y6928251D01*
X18150432Y6928251D01*
X18150431Y6928251D01*
X18004122Y6892188D01*
X17870701Y6822164D01*
X17757913Y6722242D01*
X17672313Y6598229D01*
X17618880Y6457337D01*
X17618878Y6457333D01*
X17600717Y6307755D01*
X17600717Y6307748D01*
X17125133Y6307748D01*
X17309305Y6491920D01*
X17321622Y6501844D01*
X17329280Y6506764D01*
X17360854Y6543204D01*
X17364427Y6547042D01*
X17374486Y6557099D01*
X17383004Y6568480D01*
X17386307Y6572577D01*
X17408535Y6598229D01*
X17417880Y6609013D01*
X17421665Y6617302D01*
X17429736Y6630906D01*
X17435194Y6638195D01*
X17452045Y6683380D01*
X17454046Y6688211D01*
X17474083Y6732082D01*
X17475379Y6741100D01*
X17479290Y6756423D01*
X17482475Y6764959D01*
X17485914Y6813067D01*
X17486476Y6818287D01*
X17488500Y6832352D01*
X17488500Y6846572D01*
X17488689Y6851851D01*
X17492126Y6899910D01*
X17490191Y6908807D01*
X17488500Y6924535D01*
X17488500Y7643474D01*
X17501599Y7685511D01*
X17571460Y7786722D01*
X17624894Y7927614D01*
X17627966Y7952908D01*
X17643057Y8077197D01*
X17643057Y8077204D01*
X17624895Y8226782D01*
X17624894Y8226784D01*
X17624894Y8226786D01*
X17571460Y8367678D01*
X17501598Y8468892D01*
X17488500Y8510927D01*
X17488500Y8625001D01*
X18606838Y8625001D01*
X18606839Y8625000D01*
X19600000Y8625000D01*
X19600000Y9075000D01*
X19106939Y9075000D01*
X19018556Y9064386D01*
X18877907Y9008923D01*
X18757435Y8917565D01*
X18666077Y8797093D01*
X18610614Y8656445D01*
X18606838Y8625001D01*
X17488500Y8625001D01*
X17488500Y15937819D01*
X17676321Y15937819D01*
X17694482Y15788241D01*
X17694483Y15788238D01*
X17694484Y15788236D01*
X17700601Y15772107D01*
X17747917Y15647345D01*
X17747918Y15647344D01*
X17800742Y15570814D01*
X17833517Y15523332D01*
X17946305Y15423410D01*
X18077603Y15354500D01*
X18079730Y15353384D01*
X18226036Y15317322D01*
X18226038Y15317322D01*
X18376718Y15317322D01*
X18376720Y15317322D01*
X18523026Y15353384D01*
X18656451Y15423410D01*
X18748098Y15504604D01*
X18795182Y15523186D01*
X18843196Y15507157D01*
X18849495Y15501539D01*
X18931734Y15419300D01*
X19042821Y15364993D01*
X19114839Y15354500D01*
X20585160Y15354501D01*
X20657179Y15364993D01*
X20768266Y15419300D01*
X20855700Y15506734D01*
X20910007Y15617821D01*
X20920500Y15689839D01*
X20920499Y16060160D01*
X20910007Y16132179D01*
X20855700Y16243266D01*
X20768266Y16330700D01*
X20657179Y16385007D01*
X20585161Y16395500D01*
X20585160Y16395500D01*
X19114840Y16395500D01*
X19042819Y16385007D01*
X18931734Y16330701D01*
X18931733Y16330700D01*
X18907206Y16306174D01*
X18861329Y16284783D01*
X18812435Y16297886D01*
X18793982Y16316465D01*
X18769240Y16352311D01*
X18656451Y16452234D01*
X18656450Y16452235D01*
X18523029Y16522259D01*
X18523026Y16522260D01*
X18376720Y16558322D01*
X18226036Y16558322D01*
X18226035Y16558322D01*
X18079726Y16522259D01*
X17946305Y16452235D01*
X17833517Y16352313D01*
X17747917Y16228300D01*
X17694484Y16087408D01*
X17694482Y16087404D01*
X17676321Y15937826D01*
X17676321Y15937819D01*
X17488500Y15937819D01*
X17488500Y16363466D01*
X17490191Y16379196D01*
X17492126Y16388090D01*
X17492126Y16388097D01*
X17488689Y16436151D01*
X17488500Y16441430D01*
X17488500Y16455647D01*
X17488499Y16455658D01*
X17487715Y16461106D01*
X17486476Y16469715D01*
X17485914Y16474935D01*
X17482475Y16523041D01*
X17479290Y16531580D01*
X17475379Y16546905D01*
X17474795Y16550963D01*
X17474083Y16555918D01*
X17454060Y16599761D01*
X17452045Y16604623D01*
X17435194Y16649805D01*
X17433681Y16651826D01*
X17429735Y16657098D01*
X17421663Y16670703D01*
X17420386Y16673500D01*
X17417880Y16678987D01*
X17386312Y16715418D01*
X17382999Y16719529D01*
X17382610Y16720048D01*
X17374486Y16730901D01*
X17364438Y16740949D01*
X17360854Y16744798D01*
X17329280Y16781236D01*
X17321614Y16786163D01*
X17309302Y16796085D01*
X16670085Y17435302D01*
X16660156Y17447624D01*
X16655237Y17455279D01*
X16655235Y17455281D01*
X16618813Y17486841D01*
X16614947Y17490440D01*
X16604899Y17500488D01*
X16593526Y17509002D01*
X16589426Y17512306D01*
X16552987Y17543880D01*
X16552985Y17543881D01*
X16552984Y17543882D01*
X16544698Y17547666D01*
X16531098Y17555735D01*
X16523802Y17561196D01*
X16523803Y17561196D01*
X16478649Y17578037D01*
X16473770Y17580058D01*
X16429924Y17600081D01*
X16429911Y17600085D01*
X16420902Y17601380D01*
X16405581Y17605290D01*
X16397041Y17608475D01*
X16397042Y17608475D01*
X16393241Y17608747D01*
X16348948Y17611915D01*
X16343720Y17612477D01*
X16329654Y17614500D01*
X16329648Y17614500D01*
X16315429Y17614500D01*
X16310150Y17614689D01*
X16262095Y17618126D01*
X16262086Y17618126D01*
X16253194Y17616191D01*
X16237465Y17614500D01*
X15184955Y17614500D01*
X15137389Y17631813D01*
X15129028Y17640042D01*
X15124986Y17644707D01*
X15124984Y17644709D01*
X15016329Y17738858D01*
X15016326Y17738860D01*
X15016325Y17738861D01*
X14962494Y17773455D01*
X14831709Y17833183D01*
X14831710Y17833183D01*
X14831705Y17833185D01*
X14770315Y17851212D01*
X14770307Y17851213D01*
X14628000Y17871674D01*
X14627996Y17871674D01*
X14564005Y17871674D01*
X14564000Y17871674D01*
X14549392Y17869573D01*
X14538861Y17868820D01*
X14153139Y17868820D01*
X14142608Y17869573D01*
X14127999Y17871674D01*
X14127995Y17871674D01*
X14064365Y17871674D01*
X14016799Y17888987D01*
X14012039Y17893348D01*
X13970085Y17935302D01*
X13960156Y17947624D01*
X13955237Y17955279D01*
X13955235Y17955281D01*
X13918813Y17986841D01*
X13914947Y17990440D01*
X13904899Y18000488D01*
X13893526Y18009002D01*
X13889415Y18012315D01*
X13871041Y18028236D01*
X13846430Y18072470D01*
X13845500Y18084162D01*
X13845500Y18625001D01*
X18606838Y18625001D01*
X18606839Y18625000D01*
X19600000Y18625000D01*
X19600000Y19075000D01*
X20100000Y19075000D01*
X20100000Y18625000D01*
X21093161Y18625000D01*
X21093161Y18625001D01*
X21089385Y18656445D01*
X21033922Y18797093D01*
X20942564Y18917565D01*
X20822092Y19008923D01*
X20681443Y19064386D01*
X20593061Y19075000D01*
X20100000Y19075000D01*
X19600000Y19075000D01*
X19106939Y19075000D01*
X19018556Y19064386D01*
X18877907Y19008923D01*
X18757435Y18917565D01*
X18666077Y18797093D01*
X18610614Y18656445D01*
X18606838Y18625001D01*
X13845500Y18625001D01*
X13845500Y18631274D01*
X13858599Y18673311D01*
X13928460Y18774522D01*
X13981894Y18915414D01*
X13982156Y18917565D01*
X14000057Y19064997D01*
X14000057Y19065004D01*
X13981895Y19214582D01*
X13981894Y19214584D01*
X13981894Y19214586D01*
X13928460Y19355478D01*
X13842862Y19479489D01*
X13736809Y19573444D01*
X13730072Y19579413D01*
X13596651Y19649437D01*
X13596648Y19649438D01*
X13450342Y19685500D01*
X13299658Y19685500D01*
X13299657Y19685500D01*
X13153348Y19649437D01*
X13019927Y19579413D01*
X12907139Y19479491D01*
X12821539Y19355478D01*
X12768106Y19214586D01*
X12768104Y19214582D01*
X12749943Y19065004D01*
X12749943Y19064997D01*
X12768104Y18915419D01*
X12768106Y18915415D01*
X12821539Y18774523D01*
X12821540Y18774522D01*
X12887862Y18678437D01*
X12891401Y18673311D01*
X12904500Y18631274D01*
X12904500Y18188500D01*
X12887187Y18140934D01*
X12843350Y18115624D01*
X12830500Y18114500D01*
X11453144Y18114500D01*
X11437415Y18116191D01*
X11428522Y18118126D01*
X11428513Y18118126D01*
X11380459Y18114689D01*
X11375180Y18114500D01*
X11360958Y18114500D01*
X11346885Y18112477D01*
X11341639Y18111914D01*
X11293570Y18108476D01*
X11293562Y18108475D01*
X11285024Y18105290D01*
X11269705Y18101380D01*
X11260697Y18100085D01*
X11260689Y18100083D01*
X11216842Y18080059D01*
X11211966Y18078040D01*
X11166803Y18061194D01*
X11166800Y18061192D01*
X11159512Y18055736D01*
X11145918Y18047669D01*
X11137622Y18043880D01*
X11137619Y18043878D01*
X11101184Y18012308D01*
X11097079Y18009000D01*
X11085706Y18000486D01*
X11085705Y18000484D01*
X11075663Y17990443D01*
X11071803Y17986850D01*
X11035376Y17955284D01*
X11035373Y17955281D01*
X11030447Y17947616D01*
X11020524Y17935304D01*
X10275096Y17189876D01*
X10262784Y17179953D01*
X10255119Y17175027D01*
X10255116Y17175024D01*
X10223550Y17138597D01*
X10219957Y17134737D01*
X10209913Y17124692D01*
X10209908Y17124687D01*
X10201400Y17113322D01*
X10198091Y17109215D01*
X10166521Y17072780D01*
X10166518Y17072776D01*
X10162732Y17064486D01*
X10154668Y17050894D01*
X10149204Y17043594D01*
X10132360Y16998432D01*
X10130339Y16993552D01*
X10110318Y16949713D01*
X10110315Y16949703D01*
X10109020Y16940695D01*
X10105110Y16925376D01*
X10101925Y16916838D01*
X10101924Y16916830D01*
X10098486Y16868761D01*
X10097923Y16863515D01*
X10095900Y16849442D01*
X10095900Y16835221D01*
X10095711Y16829942D01*
X10092273Y16781888D01*
X10092274Y16781881D01*
X10094209Y16772987D01*
X10095900Y16757257D01*
X10095900Y15978527D01*
X10082801Y15936492D01*
X10078486Y15930239D01*
X10012939Y15835278D01*
X9959506Y15694386D01*
X9959504Y15694382D01*
X9941343Y15544804D01*
X9941343Y15544797D01*
X6604000Y15544797D01*
X6604000Y19975000D01*
X21300000Y19975000D01*
X21300000Y19909359D01*
X21302900Y19872507D01*
X21348718Y19714801D01*
X21432317Y19573444D01*
X21548443Y19457318D01*
X21689800Y19373719D01*
X21847508Y19327901D01*
X21847505Y19327901D01*
X21884359Y19325000D01*
X22800000Y19325000D01*
X22800000Y19975000D01*
X21300000Y19975000D01*
X6604000Y19975000D01*
X6604000Y20475000D01*
X21300000Y20475000D01*
X22800000Y20475000D01*
X22800000Y21125000D01*
X21884359Y21125000D01*
X21847506Y21122100D01*
X21689800Y21076282D01*
X21548443Y20992683D01*
X21432317Y20876557D01*
X21348718Y20735200D01*
X21302900Y20577494D01*
X21300000Y20540642D01*
X21300000Y20475000D01*
X6604000Y20475000D01*
X6604000Y21097959D01*
X11131484Y21097959D01*
X11131484Y21783047D01*
X11148797Y21830613D01*
X11192634Y21855923D01*
X11242484Y21847133D01*
X11256797Y21836367D01*
X11414886Y21684222D01*
X11527491Y21605018D01*
X11628457Y21534000D01*
X11628459Y21533999D01*
X11862456Y21418139D01*
X12046937Y21359758D01*
X12111395Y21339359D01*
X12369445Y21299500D01*
X12565171Y21299500D01*
X12565177Y21299500D01*
X12760344Y21314484D01*
X12760350Y21314486D01*
X12760354Y21314486D01*
X12866647Y21339360D01*
X13014586Y21373979D01*
X13256766Y21471586D01*
X13361752Y21534001D01*
X13481204Y21605015D01*
X13481205Y21605017D01*
X13481208Y21605018D01*
X13682652Y21771148D01*
X13856375Y21966080D01*
X13998306Y22185247D01*
X14105118Y22423511D01*
X14111053Y22445110D01*
X14140352Y22486387D01*
X14182408Y22499500D01*
X16049332Y22499500D01*
X16096898Y22482187D01*
G37*
%TD.AperFunction*%
%TD*%
M02*
